<?xml version="1.0" encoding="UTF-8" standalone="no"?>
<!DOCTYPE svg PUBLIC "-//W3C//DTD SVG 1.1//EN"
 "http://www.w3.org/Graphics/SVG/1.1/DTD/svg11.dtd">
<!-- Generated by graphviz version 2.43.0 (0)
 -->
<!-- Title: src/materials/CammiFuel.C Pages: 1 -->
<svg width="768pt" height="252pt"
 viewBox="0.00 0.00 768.00 252.00" xmlns="http://www.w3.org/2000/svg" xmlns:xlink="http://www.w3.org/1999/xlink">
<g id="graph0" class="graph" transform="scale(1 1) rotate(0) translate(4 248)">
<title>src/materials/CammiFuel.C</title>
<polygon fill="white" stroke="transparent" points="-4,4 -4,-248 764,-248 764,4 -4,4"/>
<!-- Node1 -->
<g id="node1" class="node">
<title>Node1</title>
<g id="a_node1"><a xlink:title=" ">
<polygon fill="#bfbfbf" stroke="black" points="267,-224.5 267,-243.5 404,-243.5 404,-224.5 267,-224.5"/>
<text text-anchor="middle" x="335.5" y="-231.5" font-family="Helvetica,sans-Serif" font-size="10.00">src/materials/CammiFuel.C</text>
</a>
</g>
</g>
<!-- Node2 -->
<g id="node2" class="node">
<title>Node2</title>
<g id="a_node2"><a xlink:href="_cammi_fuel_8h.html" target="_top" xlink:title=" ">
<polygon fill="white" stroke="black" points="252,-168.5 252,-187.5 327,-187.5 327,-168.5 252,-168.5"/>
<text text-anchor="middle" x="289.5" y="-175.5" font-family="Helvetica,sans-Serif" font-size="10.00">CammiFuel.h</text>
</a>
</g>
</g>
<!-- Node1&#45;&gt;Node2 -->
<g id="edge1" class="edge">
<title>Node1&#45;&gt;Node2</title>
<path fill="none" stroke="midnightblue" d="M327.9,-224.08C321.27,-216.3 311.48,-204.8 303.44,-195.37"/>
<polygon fill="midnightblue" stroke="midnightblue" points="306.1,-193.09 296.95,-187.75 300.77,-197.63 306.1,-193.09"/>
</g>
<!-- Node11 -->
<g id="node11" class="node">
<title>Node11</title>
<g id="a_node11"><a xlink:title=" ">
<polygon fill="white" stroke="#bfbfbf" points="345.5,-168.5 345.5,-187.5 419.5,-187.5 419.5,-168.5 345.5,-168.5"/>
<text text-anchor="middle" x="382.5" y="-175.5" font-family="Helvetica,sans-Serif" font-size="10.00">MooseUtils.h</text>
</a>
</g>
</g>
<!-- Node1&#45;&gt;Node11 -->
<g id="edge16" class="edge">
<title>Node1&#45;&gt;Node11</title>
<path fill="none" stroke="midnightblue" d="M343.26,-224.08C350.04,-216.3 360.04,-204.8 368.26,-195.37"/>
<polygon fill="midnightblue" stroke="midnightblue" points="370.96,-197.59 374.88,-187.75 365.68,-193 370.96,-197.59"/>
</g>
<!-- Node3 -->
<g id="node3" class="node">
<title>Node3</title>
<g id="a_node3"><a xlink:href="_generic_moltres_material_8h.html" target="_top" xlink:title=" ">
<polygon fill="white" stroke="black" points="227,-112.5 227,-131.5 352,-131.5 352,-112.5 227,-112.5"/>
<text text-anchor="middle" x="289.5" y="-119.5" font-family="Helvetica,sans-Serif" font-size="10.00">GenericMoltresMaterial.h</text>
</a>
</g>
</g>
<!-- Node2&#45;&gt;Node3 -->
<g id="edge2" class="edge">
<title>Node2&#45;&gt;Node3</title>
<path fill="none" stroke="midnightblue" d="M289.5,-168.08C289.5,-161.01 289.5,-150.86 289.5,-141.99"/>
<polygon fill="midnightblue" stroke="midnightblue" points="293,-141.75 289.5,-131.75 286,-141.75 293,-141.75"/>
</g>
<!-- Node6 -->
<g id="node6" class="node">
<title>Node6</title>
<g id="a_node6"><a xlink:title=" ">
<polygon fill="white" stroke="#bfbfbf" points="0,-0.5 0,-19.5 105,-19.5 105,-0.5 0,-0.5"/>
<text text-anchor="middle" x="52.5" y="-7.5" font-family="Helvetica,sans-Serif" font-size="10.00">SplineInterpolation.h</text>
</a>
</g>
</g>
<!-- Node2&#45;&gt;Node6 -->
<g id="edge14" class="edge">
<title>Node2&#45;&gt;Node6</title>
<path fill="none" stroke="midnightblue" d="M274.95,-168.34C260.27,-159.5 237.02,-145.23 217.5,-132 163.44,-95.36 101.93,-48.94 71.55,-25.68"/>
<polygon fill="midnightblue" stroke="midnightblue" points="73.56,-22.82 63.5,-19.51 69.3,-28.37 73.56,-22.82"/>
</g>
<!-- Node7 -->
<g id="node7" class="node">
<title>Node7</title>
<g id="a_node7"><a xlink:title=" ">
<polygon fill="white" stroke="#bfbfbf" points="623,-0.5 623,-19.5 760,-19.5 760,-0.5 623,-0.5"/>
<text text-anchor="middle" x="691.5" y="-7.5" font-family="Helvetica,sans-Serif" font-size="10.00">BicubicSplineInterpolation.h</text>
</a>
</g>
</g>
<!-- Node2&#45;&gt;Node7 -->
<g id="edge15" class="edge">
<title>Node2&#45;&gt;Node7</title>
<path fill="none" stroke="midnightblue" d="M310.27,-168.42C376.57,-141.05 583.36,-55.65 661.34,-23.45"/>
<polygon fill="midnightblue" stroke="midnightblue" points="662.71,-26.68 670.62,-19.62 660.04,-20.21 662.71,-26.68"/>
</g>
<!-- Node4 -->
<g id="node4" class="node">
<title>Node4</title>
<g id="a_node4"><a xlink:href="_nuclear_material_8h.html" target="_top" xlink:title=" ">
<polygon fill="white" stroke="black" points="243,-56.5 243,-75.5 336,-75.5 336,-56.5 243,-56.5"/>
<text text-anchor="middle" x="289.5" y="-63.5" font-family="Helvetica,sans-Serif" font-size="10.00">NuclearMaterial.h</text>
</a>
</g>
</g>
<!-- Node3&#45;&gt;Node4 -->
<g id="edge3" class="edge">
<title>Node3&#45;&gt;Node4</title>
<path fill="none" stroke="midnightblue" d="M289.5,-112.08C289.5,-105.01 289.5,-94.86 289.5,-85.99"/>
<polygon fill="midnightblue" stroke="midnightblue" points="293,-85.75 289.5,-75.75 286,-85.75 293,-85.75"/>
</g>
<!-- Node3&#45;&gt;Node6 -->
<g id="edge10" class="edge">
<title>Node3&#45;&gt;Node6</title>
<path fill="none" stroke="midnightblue" d="M270.9,-112.37C229.45,-93.13 129.3,-46.65 80.36,-23.93"/>
<polygon fill="midnightblue" stroke="midnightblue" points="81.55,-20.63 71.01,-19.59 78.61,-26.98 81.55,-20.63"/>
</g>
<!-- Node3&#45;&gt;Node7 -->
<g id="edge11" class="edge">
<title>Node3&#45;&gt;Node7</title>
<path fill="none" stroke="midnightblue" d="M320.71,-112.46C392.62,-92.78 569.98,-44.25 650.52,-22.21"/>
<polygon fill="midnightblue" stroke="midnightblue" points="651.59,-25.55 660.31,-19.53 649.74,-18.8 651.59,-25.55"/>
</g>
<!-- Node8 -->
<g id="node8" class="node">
<title>Node8</title>
<g id="a_node8"><a xlink:title=" ">
<polygon fill="white" stroke="#bfbfbf" points="458.5,-0.5 458.5,-19.5 604.5,-19.5 604.5,-0.5 458.5,-0.5"/>
<text text-anchor="middle" x="531.5" y="-7.5" font-family="Helvetica,sans-Serif" font-size="10.00">MonotoneCubicInterpolation.h</text>
</a>
</g>
</g>
<!-- Node3&#45;&gt;Node8 -->
<g id="edge12" class="edge">
<title>Node3&#45;&gt;Node8</title>
<path fill="none" stroke="midnightblue" d="M308.49,-112.37C350.9,-93.09 453.5,-46.45 503.36,-23.79"/>
<polygon fill="midnightblue" stroke="midnightblue" points="504.94,-26.92 512.6,-19.59 502.05,-20.54 504.94,-26.92"/>
</g>
<!-- Node9 -->
<g id="node9" class="node">
<title>Node9</title>
<g id="a_node9"><a xlink:title=" ">
<polygon fill="white" stroke="#bfbfbf" points="123.5,-0.5 123.5,-19.5 227.5,-19.5 227.5,-0.5 123.5,-0.5"/>
<text text-anchor="middle" x="175.5" y="-7.5" font-family="Helvetica,sans-Serif" font-size="10.00">LinearInterpolation.h</text>
</a>
</g>
</g>
<!-- Node3&#45;&gt;Node9 -->
<g id="edge13" class="edge">
<title>Node3&#45;&gt;Node9</title>
<path fill="none" stroke="midnightblue" d="M277.45,-112.23C265.77,-103.53 247.79,-89.57 233.5,-76 217.31,-60.62 200.5,-41.36 189.17,-27.81"/>
<polygon fill="midnightblue" stroke="midnightblue" points="191.65,-25.31 182.58,-19.83 186.25,-29.77 191.65,-25.31"/>
</g>
<!-- Node5 -->
<g id="node5" class="node">
<title>Node5</title>
<g id="a_node5"><a xlink:title=" ">
<polygon fill="white" stroke="#bfbfbf" points="307,-0.5 307,-19.5 440,-19.5 440,-0.5 307,-0.5"/>
<text text-anchor="middle" x="373.5" y="-7.5" font-family="Helvetica,sans-Serif" font-size="10.00">GenericConstantMaterial.h</text>
</a>
</g>
</g>
<!-- Node4&#45;&gt;Node5 -->
<g id="edge4" class="edge">
<title>Node4&#45;&gt;Node5</title>
<path fill="none" stroke="midnightblue" d="M303,-56.32C316.1,-47.9 336.21,-34.97 351.61,-25.07"/>
<polygon fill="midnightblue" stroke="midnightblue" points="353.52,-28.01 360.04,-19.65 349.73,-22.12 353.52,-28.01"/>
</g>
<!-- Node4&#45;&gt;Node6 -->
<g id="edge5" class="edge">
<title>Node4&#45;&gt;Node6</title>
<path fill="none" stroke="midnightblue" d="M251.95,-56.44C210.69,-47.04 144.36,-31.93 99.63,-21.74"/>
<polygon fill="midnightblue" stroke="midnightblue" points="100.41,-18.33 89.88,-19.52 98.85,-25.15 100.41,-18.33"/>
</g>
<!-- Node4&#45;&gt;Node7 -->
<g id="edge6" class="edge">
<title>Node4&#45;&gt;Node7</title>
<path fill="none" stroke="midnightblue" d="M336.01,-58.75C405.15,-49.46 535.71,-31.93 617.91,-20.89"/>
<polygon fill="midnightblue" stroke="midnightblue" points="618.49,-24.34 627.93,-19.54 617.56,-17.4 618.49,-24.34"/>
</g>
<!-- Node4&#45;&gt;Node8 -->
<g id="edge7" class="edge">
<title>Node4&#45;&gt;Node8</title>
<path fill="none" stroke="midnightblue" d="M327.85,-56.44C369.97,-47.04 437.71,-31.93 483.37,-21.74"/>
<polygon fill="midnightblue" stroke="midnightblue" points="484.34,-25.11 493.33,-19.52 482.81,-18.28 484.34,-25.11"/>
</g>
<!-- Node4&#45;&gt;Node9 -->
<g id="edge8" class="edge">
<title>Node4&#45;&gt;Node9</title>
<path fill="none" stroke="midnightblue" d="M271.44,-56.44C252.93,-47.68 223.92,-33.94 202.64,-23.86"/>
<polygon fill="midnightblue" stroke="midnightblue" points="204.01,-20.63 193.48,-19.52 201.02,-26.96 204.01,-20.63"/>
</g>
<!-- Node10 -->
<g id="node10" class="node">
<title>Node10</title>
<g id="a_node10"><a xlink:title=" ">
<polygon fill="white" stroke="#bfbfbf" points="246,-0.5 246,-19.5 289,-19.5 289,-0.5 246,-0.5"/>
<text text-anchor="middle" x="267.5" y="-7.5" font-family="Helvetica,sans-Serif" font-size="10.00">json.h</text>
</a>
</g>
</g>
<!-- Node4&#45;&gt;Node10 -->
<g id="edge9" class="edge">
<title>Node4&#45;&gt;Node10</title>
<path fill="none" stroke="midnightblue" d="M285.87,-56.08C282.89,-48.77 278.57,-38.18 274.88,-29.1"/>
<polygon fill="midnightblue" stroke="midnightblue" points="278.08,-27.69 271.07,-19.75 271.6,-30.33 278.08,-27.69"/>
</g>
</g>
</svg>
