<?xml version="1.0" encoding="UTF-8" standalone="no"?>
<!DOCTYPE svg PUBLIC "-//W3C//DTD SVG 1.1//EN"
 "http://www.w3.org/Graphics/SVG/1.1/DTD/svg11.dtd">
<!-- Generated by graphviz version 2.38.0 (20140413.2041)
 -->
<!-- Title: src/materials/CammiModerator.C Pages: 1 -->
<svg width="419pt" height="196pt"
 viewBox="0.00 0.00 419.00 196.00" xmlns="http://www.w3.org/2000/svg" xmlns:xlink="http://www.w3.org/1999/xlink">
<g id="graph0" class="graph" transform="scale(1 1) rotate(0) translate(4 192)">
<title>src/materials/CammiModerator.C</title>
<polygon fill="white" stroke="none" points="-4,4 -4,-192 415,-192 415,4 -4,4"/>
<!-- Node0 -->
<g id="node1" class="node"><title>Node0</title>
<polygon fill="#bfbfbf" stroke="black" points="161,-168.5 161,-187.5 322,-187.5 322,-168.5 161,-168.5"/>
<text text-anchor="middle" x="241.5" y="-175.5" font-family="Helvetica,sans-Serif" font-size="10.00">src/materials/CammiModerator.C</text>
</g>
<!-- Node1 -->
<g id="node2" class="node"><title>Node1</title>
<g id="a_node2"><a xlink:href="_cammi_moderator_8h.html" target="_top" xlink:title="CammiModerator.h">
<polygon fill="white" stroke="black" points="139.5,-112.5 139.5,-131.5 239.5,-131.5 239.5,-112.5 139.5,-112.5"/>
<text text-anchor="middle" x="189.5" y="-119.5" font-family="Helvetica,sans-Serif" font-size="10.00">CammiModerator.h</text>
</a>
</g>
</g>
<!-- Node0&#45;&gt;Node1 -->
<g id="edge1" class="edge"><title>Node0&#45;&gt;Node1</title>
<path fill="none" stroke="midnightblue" d="M232.913,-168.083C225.341,-160.22 214.122,-148.569 204.986,-139.081"/>
<polygon fill="midnightblue" stroke="midnightblue" points="207.385,-136.527 197.927,-131.751 202.342,-141.382 207.385,-136.527"/>
</g>
<!-- Node6 -->
<g id="node7" class="node"><title>Node6</title>
<polygon fill="white" stroke="#bfbfbf" points="257.5,-112.5 257.5,-131.5 331.5,-131.5 331.5,-112.5 257.5,-112.5"/>
<text text-anchor="middle" x="294.5" y="-119.5" font-family="Helvetica,sans-Serif" font-size="10.00">MooseUtils.h</text>
</g>
<!-- Node0&#45;&gt;Node6 -->
<g id="edge8" class="edge"><title>Node0&#45;&gt;Node6</title>
<path fill="none" stroke="midnightblue" d="M250.252,-168.083C257.97,-160.22 269.405,-148.569 278.717,-139.081"/>
<polygon fill="midnightblue" stroke="midnightblue" points="281.404,-141.34 285.911,-131.751 276.408,-136.436 281.404,-141.34"/>
</g>
<!-- Node2 -->
<g id="node3" class="node"><title>Node2</title>
<g id="a_node3"><a xlink:href="_generic_moltres_material_8h.html" target="_top" xlink:title="GenericMoltresMaterial.h">
<polygon fill="white" stroke="black" points="127,-56.5 127,-75.5 252,-75.5 252,-56.5 127,-56.5"/>
<text text-anchor="middle" x="189.5" y="-63.5" font-family="Helvetica,sans-Serif" font-size="10.00">GenericMoltresMaterial.h</text>
</a>
</g>
</g>
<!-- Node1&#45;&gt;Node2 -->
<g id="edge2" class="edge"><title>Node1&#45;&gt;Node2</title>
<path fill="none" stroke="midnightblue" d="M189.5,-112.083C189.5,-105.006 189.5,-94.8611 189.5,-85.9865"/>
<polygon fill="midnightblue" stroke="midnightblue" points="193,-85.751 189.5,-75.7511 186,-85.7511 193,-85.751"/>
</g>
<!-- Node4 -->
<g id="node5" class="node"><title>Node4</title>
<polygon fill="white" stroke="#bfbfbf" points="0,-0.5 0,-19.5 105,-19.5 105,-0.5 0,-0.5"/>
<text text-anchor="middle" x="52.5" y="-7.5" font-family="Helvetica,sans-Serif" font-size="10.00">SplineInterpolation.h</text>
</g>
<!-- Node1&#45;&gt;Node4 -->
<g id="edge6" class="edge"><title>Node1&#45;&gt;Node4</title>
<path fill="none" stroke="midnightblue" d="M173.651,-112.48C158.588,-104.068 135.611,-90.4075 117.5,-76 98.6765,-61.0256 79.4871,-41.1531 66.8873,-27.3403"/>
<polygon fill="midnightblue" stroke="midnightblue" points="69.2413,-24.7232 59.9559,-19.621 64.0328,-29.4 69.2413,-24.7232"/>
</g>
<!-- Node5 -->
<g id="node6" class="node"><title>Node5</title>
<polygon fill="white" stroke="#bfbfbf" points="274,-0.5 274,-19.5 411,-19.5 411,-0.5 274,-0.5"/>
<text text-anchor="middle" x="342.5" y="-7.5" font-family="Helvetica,sans-Serif" font-size="10.00">BicubicSplineInterpolation.h</text>
</g>
<!-- Node1&#45;&gt;Node5 -->
<g id="edge7" class="edge"><title>Node1&#45;&gt;Node5</title>
<path fill="none" stroke="midnightblue" d="M203.934,-112.466C218.488,-103.719 241.463,-89.5211 260.5,-76 283.328,-59.7861 308.392,-39.5337 324.725,-25.9834"/>
<polygon fill="midnightblue" stroke="midnightblue" points="326.979,-28.6611 332.412,-19.5653 322.493,-23.2878 326.979,-28.6611"/>
</g>
<!-- Node3 -->
<g id="node4" class="node"><title>Node3</title>
<polygon fill="white" stroke="#bfbfbf" points="123,-0.5 123,-19.5 256,-19.5 256,-0.5 123,-0.5"/>
<text text-anchor="middle" x="189.5" y="-7.5" font-family="Helvetica,sans-Serif" font-size="10.00">GenericConstantMaterial.h</text>
</g>
<!-- Node2&#45;&gt;Node3 -->
<g id="edge3" class="edge"><title>Node2&#45;&gt;Node3</title>
<path fill="none" stroke="midnightblue" d="M189.5,-56.083C189.5,-49.0059 189.5,-38.8611 189.5,-29.9865"/>
<polygon fill="midnightblue" stroke="midnightblue" points="193,-29.751 189.5,-19.7511 186,-29.7511 193,-29.751"/>
</g>
<!-- Node2&#45;&gt;Node4 -->
<g id="edge4" class="edge"><title>Node2&#45;&gt;Node4</title>
<path fill="none" stroke="midnightblue" d="M167.792,-56.4435C145.145,-47.5171 109.428,-33.4387 83.7482,-23.3168"/>
<polygon fill="midnightblue" stroke="midnightblue" points="84.6934,-19.9273 74.1065,-19.5164 82.1264,-26.4397 84.6934,-19.9273"/>
</g>
<!-- Node2&#45;&gt;Node5 -->
<g id="edge5" class="edge"><title>Node2&#45;&gt;Node5</title>
<path fill="none" stroke="midnightblue" d="M213.743,-56.4435C239.371,-47.3986 279.985,-33.064 308.738,-22.9158"/>
<polygon fill="midnightblue" stroke="midnightblue" points="310.105,-26.1452 318.37,-19.5164 307.775,-19.5442 310.105,-26.1452"/>
</g>
</g>
</svg>
