<?xml version="1.0" encoding="UTF-8" standalone="no"?>
<!DOCTYPE svg PUBLIC "-//W3C//DTD SVG 1.1//EN"
 "http://www.w3.org/Graphics/SVG/1.1/DTD/svg11.dtd">
<!-- Generated by graphviz version 2.38.0 (20140413.2041)
 -->
<!-- Title: include/kernels/CoupledFissionEigenKernel.h Pages: 1 -->
<svg width="280pt" height="151pt"
 viewBox="0.00 0.00 279.50 151.00" xmlns="http://www.w3.org/2000/svg" xmlns:xlink="http://www.w3.org/1999/xlink">
<g id="graph0" class="graph" transform="scale(1 1) rotate(0) translate(4 147)">
<title>include/kernels/CoupledFissionEigenKernel.h</title>
<polygon fill="white" stroke="none" points="-4,4 -4,-147 275.5,-147 275.5,4 -4,4"/>
<!-- Node0 -->
<g id="node1" class="node"><title>Node0</title>
<polygon fill="#bfbfbf" stroke="black" points="19.5,-112.5 19.5,-142.5 171.5,-142.5 171.5,-112.5 19.5,-112.5"/>
<text text-anchor="start" x="27.5" y="-130.5" font-family="Helvetica,sans-Serif" font-size="10.00">include/kernels/CoupledFission</text>
<text text-anchor="middle" x="95.5" y="-119.5" font-family="Helvetica,sans-Serif" font-size="10.00">EigenKernel.h</text>
</g>
<!-- Node1 -->
<g id="node2" class="node"><title>Node1</title>
<polygon fill="white" stroke="#bfbfbf" points="0,-56.5 0,-75.5 77,-75.5 77,-56.5 0,-56.5"/>
<text text-anchor="middle" x="38.5" y="-63.5" font-family="Helvetica,sans-Serif" font-size="10.00">EigenKernel.h</text>
</g>
<!-- Node0&#45;&gt;Node1 -->
<g id="edge1" class="edge"><title>Node0&#45;&gt;Node1</title>
<path fill="none" stroke="midnightblue" d="M81.9918,-112.399C73.5382,-103.575 62.6246,-92.1827 53.8448,-83.0178"/>
<polygon fill="midnightblue" stroke="midnightblue" points="56.2392,-80.4577 46.794,-75.6578 51.1844,-85.3002 56.2392,-80.4577"/>
</g>
<!-- Node2 -->
<g id="node3" class="node"><title>Node2</title>
<g id="a_node3"><a xlink:href="_scalar_transport_base_8h.html" target="_top" xlink:title="ScalarTransportBase.h">
<polygon fill="white" stroke="black" points="95.5,-56.5 95.5,-75.5 211.5,-75.5 211.5,-56.5 95.5,-56.5"/>
<text text-anchor="middle" x="153.5" y="-63.5" font-family="Helvetica,sans-Serif" font-size="10.00">ScalarTransportBase.h</text>
</a>
</g>
</g>
<!-- Node0&#45;&gt;Node2 -->
<g id="edge2" class="edge"><title>Node0&#45;&gt;Node2</title>
<path fill="none" stroke="midnightblue" d="M109.245,-112.399C117.847,-103.575 128.952,-92.1827 137.886,-83.0178"/>
<polygon fill="midnightblue" stroke="midnightblue" points="140.586,-85.2616 145.06,-75.6578 135.574,-80.3755 140.586,-85.2616"/>
</g>
<!-- Node3 -->
<g id="node4" class="node"><title>Node3</title>
<polygon fill="white" stroke="#bfbfbf" points="44,-0.5 44,-19.5 141,-19.5 141,-0.5 44,-0.5"/>
<text text-anchor="middle" x="92.5" y="-7.5" font-family="Helvetica,sans-Serif" font-size="10.00">InputParameters.h</text>
</g>
<!-- Node2&#45;&gt;Node3 -->
<g id="edge3" class="edge"><title>Node2&#45;&gt;Node3</title>
<path fill="none" stroke="midnightblue" d="M143.699,-56.324C134.682,-48.3414 121.094,-36.3128 110.182,-26.6529"/>
<polygon fill="midnightblue" stroke="midnightblue" points="112.287,-23.8416 102.479,-19.8339 107.647,-29.083 112.287,-23.8416"/>
</g>
<!-- Node4 -->
<g id="node5" class="node"><title>Node4</title>
<polygon fill="white" stroke="#bfbfbf" points="159.5,-0.5 159.5,-19.5 271.5,-19.5 271.5,-0.5 159.5,-0.5"/>
<text text-anchor="middle" x="215.5" y="-7.5" font-family="Helvetica,sans-Serif" font-size="10.00">MooseVariableBase.h</text>
</g>
<!-- Node2&#45;&gt;Node4 -->
<g id="edge4" class="edge"><title>Node2&#45;&gt;Node4</title>
<path fill="none" stroke="midnightblue" d="M163.461,-56.324C172.627,-48.3414 186.437,-36.3128 197.528,-26.6529"/>
<polygon fill="midnightblue" stroke="midnightblue" points="200.115,-29.041 205.357,-19.8339 195.518,-23.7624 200.115,-29.041"/>
</g>
</g>
</svg>
