<?xml version="1.0" encoding="UTF-8" standalone="no"?>
<!DOCTYPE svg PUBLIC "-//W3C//DTD SVG 1.1//EN"
 "http://www.w3.org/Graphics/SVG/1.1/DTD/svg11.dtd">
<!-- Generated by graphviz version 2.44.0 ()
 -->
<!-- Title: include/kernels/CoupledFissionEigenKernel.h Pages: 1 -->
<svg width="277pt" height="151pt"
 viewBox="0.00 0.00 276.50 151.00" xmlns="http://www.w3.org/2000/svg" xmlns:xlink="http://www.w3.org/1999/xlink">
<g id="graph0" class="graph" transform="scale(1 1) rotate(0) translate(4 147)">
<title>include/kernels/CoupledFissionEigenKernel.h</title>
<polygon fill="white" stroke="transparent" points="-4,4 -4,-147 272.5,-147 272.5,4 -4,4"/>
<!-- Node1 -->
<g id="node1" class="node">
<title>Node1</title>
<g id="a_node1"><a xlink:title=" ">
<polygon fill="#bfbfbf" stroke="black" points="19,-112.5 19,-142.5 171,-142.5 171,-112.5 19,-112.5"/>
<text text-anchor="start" x="27" y="-130.5" font-family="Helvetica,sans-Serif" font-size="10.00">include/kernels/CoupledFission</text>
<text text-anchor="middle" x="95" y="-119.5" font-family="Helvetica,sans-Serif" font-size="10.00">EigenKernel.h</text>
</a>
</g>
</g>
<!-- Node2 -->
<g id="node2" class="node">
<title>Node2</title>
<g id="a_node2"><a xlink:title=" ">
<polygon fill="white" stroke="#bfbfbf" points="0,-56.5 0,-75.5 76,-75.5 76,-56.5 0,-56.5"/>
<text text-anchor="middle" x="38" y="-63.5" font-family="Helvetica,sans-Serif" font-size="10.00">EigenKernel.h</text>
</a>
</g>
</g>
<!-- Node1&#45;&gt;Node2 -->
<g id="edge1" class="edge">
<title>Node1&#45;&gt;Node2</title>
<path fill="none" stroke="midnightblue" d="M81.49,-112.4C73.04,-103.58 62.12,-92.18 53.34,-83.02"/>
<polygon fill="midnightblue" stroke="midnightblue" points="55.74,-80.46 46.29,-75.66 50.68,-85.3 55.74,-80.46"/>
</g>
<!-- Node3 -->
<g id="node3" class="node">
<title>Node3</title>
<g id="a_node3"><a xlink:href="_scalar_transport_base_8h.html" target="_top" xlink:title=" ">
<polygon fill="white" stroke="black" points="94,-56.5 94,-75.5 210,-75.5 210,-56.5 94,-56.5"/>
<text text-anchor="middle" x="152" y="-63.5" font-family="Helvetica,sans-Serif" font-size="10.00">ScalarTransportBase.h</text>
</a>
</g>
</g>
<!-- Node1&#45;&gt;Node3 -->
<g id="edge2" class="edge">
<title>Node1&#45;&gt;Node3</title>
<path fill="none" stroke="midnightblue" d="M108.51,-112.4C116.96,-103.58 127.88,-92.18 136.66,-83.02"/>
<polygon fill="midnightblue" stroke="midnightblue" points="139.32,-85.3 143.71,-75.66 134.26,-80.46 139.32,-85.3"/>
</g>
<!-- Node4 -->
<g id="node4" class="node">
<title>Node4</title>
<g id="a_node4"><a xlink:title=" ">
<polygon fill="white" stroke="#bfbfbf" points="43,-0.5 43,-19.5 139,-19.5 139,-0.5 43,-0.5"/>
<text text-anchor="middle" x="91" y="-7.5" font-family="Helvetica,sans-Serif" font-size="10.00">InputParameters.h</text>
</a>
</g>
</g>
<!-- Node3&#45;&gt;Node4 -->
<g id="edge3" class="edge">
<title>Node3&#45;&gt;Node4</title>
<path fill="none" stroke="midnightblue" d="M142.2,-56.32C133.18,-48.34 119.59,-36.31 108.68,-26.65"/>
<polygon fill="midnightblue" stroke="midnightblue" points="110.79,-23.84 100.98,-19.83 106.15,-29.08 110.79,-23.84"/>
</g>
<!-- Node5 -->
<g id="node5" class="node">
<title>Node5</title>
<g id="a_node5"><a xlink:title=" ">
<polygon fill="white" stroke="#bfbfbf" points="157.5,-0.5 157.5,-19.5 268.5,-19.5 268.5,-0.5 157.5,-0.5"/>
<text text-anchor="middle" x="213" y="-7.5" font-family="Helvetica,sans-Serif" font-size="10.00">MooseVariableBase.h</text>
</a>
</g>
</g>
<!-- Node3&#45;&gt;Node5 -->
<g id="edge4" class="edge">
<title>Node3&#45;&gt;Node5</title>
<path fill="none" stroke="midnightblue" d="M161.8,-56.32C170.82,-48.34 184.41,-36.31 195.32,-26.65"/>
<polygon fill="midnightblue" stroke="midnightblue" points="197.85,-29.08 203.02,-19.83 193.21,-23.84 197.85,-29.08"/>
</g>
</g>
</svg>
