<?xml version="1.0" encoding="UTF-8" standalone="no"?>
<!DOCTYPE svg PUBLIC "-//W3C//DTD SVG 1.1//EN"
 "http://www.w3.org/Graphics/SVG/1.1/DTD/svg11.dtd">
<!-- Generated by graphviz version 2.43.0 (0)
 -->
<!-- Title: src/kernels/CoupledFissionEigenKernel.C Pages: 1 -->
<svg width="278pt" height="207pt"
 viewBox="0.00 0.00 278.00 207.00" xmlns="http://www.w3.org/2000/svg" xmlns:xlink="http://www.w3.org/1999/xlink">
<g id="graph0" class="graph" transform="scale(1 1) rotate(0) translate(4 203)">
<title>src/kernels/CoupledFissionEigenKernel.C</title>
<polygon fill="white" stroke="transparent" points="-4,4 -4,-203 274,-203 274,4 -4,4"/>
<!-- Node1 -->
<g id="node1" class="node">
<title>Node1</title>
<g id="a_node1"><a xlink:title=" ">
<polygon fill="#bfbfbf" stroke="black" points="28,-168.5 28,-198.5 163,-198.5 163,-168.5 28,-168.5"/>
<text text-anchor="start" x="36" y="-186.5" font-family="Helvetica,sans-Serif" font-size="10.00">src/kernels/CoupledFission</text>
<text text-anchor="middle" x="95.5" y="-175.5" font-family="Helvetica,sans-Serif" font-size="10.00">EigenKernel.C</text>
</a>
</g>
</g>
<!-- Node2 -->
<g id="node2" class="node">
<title>Node2</title>
<g id="a_node2"><a xlink:href="_coupled_fission_eigen_kernel_8h.html" target="_top" xlink:title=" ">
<polygon fill="white" stroke="black" points="23,-112.5 23,-131.5 168,-131.5 168,-112.5 23,-112.5"/>
<text text-anchor="middle" x="95.5" y="-119.5" font-family="Helvetica,sans-Serif" font-size="10.00">CoupledFissionEigenKernel.h</text>
</a>
</g>
</g>
<!-- Node1&#45;&gt;Node2 -->
<g id="edge1" class="edge">
<title>Node1&#45;&gt;Node2</title>
<path fill="none" stroke="midnightblue" d="M95.5,-168.4C95.5,-160.47 95.5,-150.46 95.5,-141.86"/>
<polygon fill="midnightblue" stroke="midnightblue" points="99,-141.66 95.5,-131.66 92,-141.66 99,-141.66"/>
</g>
<!-- Node3 -->
<g id="node3" class="node">
<title>Node3</title>
<g id="a_node3"><a xlink:title=" ">
<polygon fill="white" stroke="#bfbfbf" points="0,-56.5 0,-75.5 77,-75.5 77,-56.5 0,-56.5"/>
<text text-anchor="middle" x="38.5" y="-63.5" font-family="Helvetica,sans-Serif" font-size="10.00">EigenKernel.h</text>
</a>
</g>
</g>
<!-- Node2&#45;&gt;Node3 -->
<g id="edge2" class="edge">
<title>Node2&#45;&gt;Node3</title>
<path fill="none" stroke="midnightblue" d="M86.34,-112.32C78,-104.42 65.47,-92.55 55.32,-82.94"/>
<polygon fill="midnightblue" stroke="midnightblue" points="57.49,-80.17 47.82,-75.83 52.68,-85.25 57.49,-80.17"/>
</g>
<!-- Node4 -->
<g id="node4" class="node">
<title>Node4</title>
<g id="a_node4"><a xlink:href="_scalar_transport_base_8h.html" target="_top" xlink:title=" ">
<polygon fill="white" stroke="black" points="95.5,-56.5 95.5,-75.5 211.5,-75.5 211.5,-56.5 95.5,-56.5"/>
<text text-anchor="middle" x="153.5" y="-63.5" font-family="Helvetica,sans-Serif" font-size="10.00">ScalarTransportBase.h</text>
</a>
</g>
</g>
<!-- Node2&#45;&gt;Node4 -->
<g id="edge3" class="edge">
<title>Node2&#45;&gt;Node4</title>
<path fill="none" stroke="midnightblue" d="M104.82,-112.32C113.39,-104.34 126.31,-92.31 136.69,-82.65"/>
<polygon fill="midnightblue" stroke="midnightblue" points="139.08,-85.21 144.01,-75.83 134.31,-80.09 139.08,-85.21"/>
</g>
<!-- Node5 -->
<g id="node5" class="node">
<title>Node5</title>
<g id="a_node5"><a xlink:title=" ">
<polygon fill="white" stroke="#bfbfbf" points="44,-0.5 44,-19.5 141,-19.5 141,-0.5 44,-0.5"/>
<text text-anchor="middle" x="92.5" y="-7.5" font-family="Helvetica,sans-Serif" font-size="10.00">InputParameters.h</text>
</a>
</g>
</g>
<!-- Node4&#45;&gt;Node5 -->
<g id="edge4" class="edge">
<title>Node4&#45;&gt;Node5</title>
<path fill="none" stroke="midnightblue" d="M143.7,-56.32C134.68,-48.34 121.09,-36.31 110.18,-26.65"/>
<polygon fill="midnightblue" stroke="midnightblue" points="112.29,-23.84 102.48,-19.83 107.65,-29.08 112.29,-23.84"/>
</g>
<!-- Node6 -->
<g id="node6" class="node">
<title>Node6</title>
<g id="a_node6"><a xlink:title=" ">
<polygon fill="white" stroke="#bfbfbf" points="159,-0.5 159,-19.5 270,-19.5 270,-0.5 159,-0.5"/>
<text text-anchor="middle" x="214.5" y="-7.5" font-family="Helvetica,sans-Serif" font-size="10.00">MooseVariableBase.h</text>
</a>
</g>
</g>
<!-- Node4&#45;&gt;Node6 -->
<g id="edge5" class="edge">
<title>Node4&#45;&gt;Node6</title>
<path fill="none" stroke="midnightblue" d="M163.3,-56.32C172.32,-48.34 185.91,-36.31 196.82,-26.65"/>
<polygon fill="midnightblue" stroke="midnightblue" points="199.35,-29.08 204.52,-19.83 194.71,-23.84 199.35,-29.08"/>
</g>
</g>
</svg>
