<?xml version="1.0" encoding="UTF-8" standalone="no"?>
<!DOCTYPE svg PUBLIC "-//W3C//DTD SVG 1.1//EN"
 "http://www.w3.org/Graphics/SVG/1.1/DTD/svg11.dtd">
<!-- Generated by graphviz version 2.43.0 (0)
 -->
<!-- Title: include/kernels/CoupledFissionEigenKernel.h Pages: 1 -->
<svg width="160pt" height="106pt"
 viewBox="0.00 0.00 160.00 106.00" xmlns="http://www.w3.org/2000/svg" xmlns:xlink="http://www.w3.org/1999/xlink">
<g id="graph0" class="graph" transform="scale(1 1) rotate(0) translate(4 102)">
<title>include/kernels/CoupledFissionEigenKernel.h</title>
<polygon fill="white" stroke="transparent" points="-4,4 -4,-102 156,-102 156,4 -4,4"/>
<!-- Node1 -->
<g id="node1" class="node">
<title>Node1</title>
<g id="a_node1"><a xlink:title=" ">
<polygon fill="#bfbfbf" stroke="black" points="0,-67.5 0,-97.5 152,-97.5 152,-67.5 0,-67.5"/>
<text text-anchor="start" x="8" y="-85.5" font-family="Helvetica,sans-Serif" font-size="10.00">include/kernels/CoupledFission</text>
<text text-anchor="middle" x="76" y="-74.5" font-family="Helvetica,sans-Serif" font-size="10.00">EigenKernel.h</text>
</a>
</g>
</g>
<!-- Node2 -->
<g id="node2" class="node">
<title>Node2</title>
<g id="a_node2"><a xlink:href="_coupled_fission_eigen_kernel_8_c.html" target="_top" xlink:title=" ">
<polygon fill="white" stroke="black" points="8.5,-0.5 8.5,-30.5 143.5,-30.5 143.5,-0.5 8.5,-0.5"/>
<text text-anchor="start" x="16.5" y="-18.5" font-family="Helvetica,sans-Serif" font-size="10.00">src/kernels/CoupledFission</text>
<text text-anchor="middle" x="76" y="-7.5" font-family="Helvetica,sans-Serif" font-size="10.00">EigenKernel.C</text>
</a>
</g>
</g>
<!-- Node1&#45;&gt;Node2 -->
<g id="edge1" class="edge">
<title>Node1&#45;&gt;Node2</title>
<path fill="none" stroke="midnightblue" d="M76,-57.11C76,-48.15 76,-38.32 76,-30.58"/>
<polygon fill="midnightblue" stroke="midnightblue" points="72.5,-57.4 76,-67.4 79.5,-57.4 72.5,-57.4"/>
</g>
</g>
</svg>
