<?xml version="1.0" encoding="UTF-8" standalone="no"?>
<!DOCTYPE svg PUBLIC "-//W3C//DTD SVG 1.1//EN"
 "http://www.w3.org/Graphics/SVG/1.1/DTD/svg11.dtd">
<!-- Generated by graphviz version 2.50.0 (20220203.2022)
 -->
<!-- Title: src/kernels/DecayHeatSource.C Pages: 1 -->
<svg width="253pt" height="196pt"
 viewBox="0.00 0.00 253.00 196.00" xmlns="http://www.w3.org/2000/svg" xmlns:xlink="http://www.w3.org/1999/xlink">
<g id="graph0" class="graph" transform="scale(1 1) rotate(0) translate(4 192)">
<title>src/kernels/DecayHeatSource.C</title>
<polygon fill="white" stroke="transparent" points="-4,4 -4,-192 249,-192 249,4 -4,4"/>
<!-- Node1 -->
<g id="node1" class="node">
<title>Node1</title>
<g id="a_node1"><a xlink:title=" ">
<polygon fill="#bfbfbf" stroke="black" points="0,-168.5 0,-187.5 155,-187.5 155,-168.5 0,-168.5"/>
<text text-anchor="middle" x="77.5" y="-175.5" font-family="Helvetica,sans-Serif" font-size="10.00">src/kernels/DecayHeatSource.C</text>
</a>
</g>
</g>
<!-- Node2 -->
<g id="node2" class="node">
<title>Node2</title>
<g id="a_node2"><a xlink:href="_decay_heat_source_8h.html" target="_top" xlink:title=" ">
<polygon fill="white" stroke="black" points="26,-112.5 26,-131.5 129,-131.5 129,-112.5 26,-112.5"/>
<text text-anchor="middle" x="77.5" y="-119.5" font-family="Helvetica,sans-Serif" font-size="10.00">DecayHeatSource.h</text>
</a>
</g>
</g>
<!-- Node1&#45;&gt;Node2 -->
<g id="edge1" class="edge">
<title>Node1&#45;&gt;Node2</title>
<path fill="none" stroke="midnightblue" d="M77.5,-168.08C77.5,-161.01 77.5,-150.86 77.5,-141.99"/>
<polygon fill="midnightblue" stroke="midnightblue" points="81,-141.75 77.5,-131.75 74,-141.75 81,-141.75"/>
</g>
<!-- Node3 -->
<g id="node3" class="node">
<title>Node3</title>
<g id="a_node3"><a xlink:title=" ">
<polygon fill="white" stroke="#bfbfbf" points="0.5,-56.5 0.5,-75.5 52.5,-75.5 52.5,-56.5 0.5,-56.5"/>
<text text-anchor="middle" x="26.5" y="-63.5" font-family="Helvetica,sans-Serif" font-size="10.00">Kernel.h</text>
</a>
</g>
</g>
<!-- Node2&#45;&gt;Node3 -->
<g id="edge2" class="edge">
<title>Node2&#45;&gt;Node3</title>
<path fill="none" stroke="midnightblue" d="M69.08,-112.08C61.65,-104.22 50.65,-92.57 41.69,-83.08"/>
<polygon fill="midnightblue" stroke="midnightblue" points="44.18,-80.62 34.76,-75.75 39.09,-85.42 44.18,-80.62"/>
</g>
<!-- Node4 -->
<g id="node4" class="node">
<title>Node4</title>
<g id="a_node4"><a xlink:href="_scalar_transport_base_8h.html" target="_top" xlink:title=" ">
<polygon fill="white" stroke="black" points="70.5,-56.5 70.5,-75.5 186.5,-75.5 186.5,-56.5 70.5,-56.5"/>
<text text-anchor="middle" x="128.5" y="-63.5" font-family="Helvetica,sans-Serif" font-size="10.00">ScalarTransportBase.h</text>
</a>
</g>
</g>
<!-- Node2&#45;&gt;Node4 -->
<g id="edge3" class="edge">
<title>Node2&#45;&gt;Node4</title>
<path fill="none" stroke="midnightblue" d="M85.92,-112.08C93.35,-104.22 104.35,-92.57 113.31,-83.08"/>
<polygon fill="midnightblue" stroke="midnightblue" points="115.91,-85.42 120.24,-75.75 110.82,-80.62 115.91,-85.42"/>
</g>
<!-- Node5 -->
<g id="node5" class="node">
<title>Node5</title>
<g id="a_node5"><a xlink:title=" ">
<polygon fill="white" stroke="#bfbfbf" points="19.5,-0.5 19.5,-19.5 115.5,-19.5 115.5,-0.5 19.5,-0.5"/>
<text text-anchor="middle" x="67.5" y="-7.5" font-family="Helvetica,sans-Serif" font-size="10.00">InputParameters.h</text>
</a>
</g>
</g>
<!-- Node4&#45;&gt;Node5 -->
<g id="edge4" class="edge">
<title>Node4&#45;&gt;Node5</title>
<path fill="none" stroke="midnightblue" d="M118.7,-56.32C109.68,-48.34 96.09,-36.31 85.18,-26.65"/>
<polygon fill="midnightblue" stroke="midnightblue" points="87.29,-23.84 77.48,-19.83 82.65,-29.08 87.29,-23.84"/>
</g>
<!-- Node6 -->
<g id="node6" class="node">
<title>Node6</title>
<g id="a_node6"><a xlink:title=" ">
<polygon fill="white" stroke="#bfbfbf" points="134,-0.5 134,-19.5 245,-19.5 245,-0.5 134,-0.5"/>
<text text-anchor="middle" x="189.5" y="-7.5" font-family="Helvetica,sans-Serif" font-size="10.00">MooseVariableBase.h</text>
</a>
</g>
</g>
<!-- Node4&#45;&gt;Node6 -->
<g id="edge5" class="edge">
<title>Node4&#45;&gt;Node6</title>
<path fill="none" stroke="midnightblue" d="M138.3,-56.32C147.32,-48.34 160.91,-36.31 171.82,-26.65"/>
<polygon fill="midnightblue" stroke="midnightblue" points="174.35,-29.08 179.52,-19.83 169.71,-23.84 174.35,-29.08"/>
</g>
</g>
</svg>
