<?xml version="1.0" encoding="UTF-8" standalone="no"?>
<!DOCTYPE svg PUBLIC "-//W3C//DTD SVG 1.1//EN"
 "http://www.w3.org/Graphics/SVG/1.1/DTD/svg11.dtd">
<!-- Generated by graphviz version 2.43.0 (0)
 -->
<!-- Title: include/kernels/DelayedNeutronSource.h Pages: 1 -->
<svg width="163pt" height="106pt"
 viewBox="0.00 0.00 163.00 106.00" xmlns="http://www.w3.org/2000/svg" xmlns:xlink="http://www.w3.org/1999/xlink">
<g id="graph0" class="graph" transform="scale(1 1) rotate(0) translate(4 102)">
<title>include/kernels/DelayedNeutronSource.h</title>
<polygon fill="white" stroke="transparent" points="-4,4 -4,-102 159,-102 159,4 -4,4"/>
<!-- Node1 -->
<g id="node1" class="node">
<title>Node1</title>
<g id="a_node1"><a xlink:title=" ">
<polygon fill="#bfbfbf" stroke="black" points="0,-67.5 0,-97.5 155,-97.5 155,-67.5 0,-67.5"/>
<text text-anchor="start" x="8" y="-85.5" font-family="Helvetica,sans-Serif" font-size="10.00">include/kernels/DelayedNeutron</text>
<text text-anchor="middle" x="77.5" y="-74.5" font-family="Helvetica,sans-Serif" font-size="10.00">Source.h</text>
</a>
</g>
</g>
<!-- Node2 -->
<g id="node2" class="node">
<title>Node2</title>
<g id="a_node2"><a xlink:href="_delayed_neutron_source_8_c.html" target="_top" xlink:title=" ">
<polygon fill="white" stroke="black" points="8.5,-0.5 8.5,-30.5 146.5,-30.5 146.5,-0.5 8.5,-0.5"/>
<text text-anchor="start" x="16.5" y="-18.5" font-family="Helvetica,sans-Serif" font-size="10.00">src/kernels/DelayedNeutron</text>
<text text-anchor="middle" x="77.5" y="-7.5" font-family="Helvetica,sans-Serif" font-size="10.00">Source.C</text>
</a>
</g>
</g>
<!-- Node1&#45;&gt;Node2 -->
<g id="edge1" class="edge">
<title>Node1&#45;&gt;Node2</title>
<path fill="none" stroke="midnightblue" d="M77.5,-57.11C77.5,-48.15 77.5,-38.32 77.5,-30.58"/>
<polygon fill="midnightblue" stroke="midnightblue" points="74,-57.4 77.5,-67.4 81,-57.4 74,-57.4"/>
</g>
</g>
</svg>
