<?xml version="1.0" encoding="UTF-8" standalone="no"?>
<!DOCTYPE svg PUBLIC "-//W3C//DTD SVG 1.1//EN"
 "http://www.w3.org/Graphics/SVG/1.1/DTD/svg11.dtd">
<!-- Generated by graphviz version 2.44.0 ()
 -->
<!-- Title: src/kernels/DivFreeCoupledScalarAdvection.C Pages: 1 -->
<svg width="268pt" height="207pt"
 viewBox="0.00 0.00 267.50 207.00" xmlns="http://www.w3.org/2000/svg" xmlns:xlink="http://www.w3.org/1999/xlink">
<g id="graph0" class="graph" transform="scale(1 1) rotate(0) translate(4 203)">
<title>src/kernels/DivFreeCoupledScalarAdvection.C</title>
<polygon fill="white" stroke="transparent" points="-4,4 -4,-203 263.5,-203 263.5,4 -4,4"/>
<!-- Node1 -->
<g id="node1" class="node">
<title>Node1</title>
<g id="a_node1"><a xlink:title=" ">
<polygon fill="#bfbfbf" stroke="black" points="82.5,-168.5 82.5,-198.5 219.5,-198.5 219.5,-168.5 82.5,-168.5"/>
<text text-anchor="start" x="90.5" y="-186.5" font-family="Helvetica,sans-Serif" font-size="10.00">src/kernels/DivFreeCoupled</text>
<text text-anchor="middle" x="151" y="-175.5" font-family="Helvetica,sans-Serif" font-size="10.00">ScalarAdvection.C</text>
</a>
</g>
</g>
<!-- Node2 -->
<g id="node2" class="node">
<title>Node2</title>
<g id="a_node2"><a xlink:href="_div_free_coupled_scalar_advection_8h.html" target="_top" xlink:title=" ">
<polygon fill="white" stroke="black" points="0,-112.5 0,-131.5 164,-131.5 164,-112.5 0,-112.5"/>
<text text-anchor="middle" x="82" y="-119.5" font-family="Helvetica,sans-Serif" font-size="10.00">DivFreeCoupledScalarAdvection.h</text>
</a>
</g>
</g>
<!-- Node1&#45;&gt;Node2 -->
<g id="edge1" class="edge">
<title>Node1&#45;&gt;Node2</title>
<path fill="none" stroke="midnightblue" d="M134.65,-168.4C124.1,-159.31 110.4,-147.49 99.62,-138.19"/>
<polygon fill="midnightblue" stroke="midnightblue" points="101.9,-135.54 92.04,-131.66 97.33,-140.84 101.9,-135.54"/>
</g>
<!-- Node7 -->
<g id="node7" class="node">
<title>Node7</title>
<g id="a_node7"><a xlink:title=" ">
<polygon fill="white" stroke="#bfbfbf" points="182.5,-112.5 182.5,-131.5 259.5,-131.5 259.5,-112.5 182.5,-112.5"/>
<text text-anchor="middle" x="221" y="-119.5" font-family="Helvetica,sans-Serif" font-size="10.00">MooseMesh.h</text>
</a>
</g>
</g>
<!-- Node1&#45;&gt;Node7 -->
<g id="edge6" class="edge">
<title>Node1&#45;&gt;Node7</title>
<path fill="none" stroke="midnightblue" d="M167.59,-168.4C178.29,-159.31 192.19,-147.49 203.13,-138.19"/>
<polygon fill="midnightblue" stroke="midnightblue" points="205.46,-140.8 210.81,-131.66 200.93,-135.47 205.46,-140.8"/>
</g>
<!-- Node3 -->
<g id="node3" class="node">
<title>Node3</title>
<g id="a_node3"><a xlink:title=" ">
<polygon fill="white" stroke="#bfbfbf" points="5,-56.5 5,-75.5 57,-75.5 57,-56.5 5,-56.5"/>
<text text-anchor="middle" x="31" y="-63.5" font-family="Helvetica,sans-Serif" font-size="10.00">Kernel.h</text>
</a>
</g>
</g>
<!-- Node2&#45;&gt;Node3 -->
<g id="edge2" class="edge">
<title>Node2&#45;&gt;Node3</title>
<path fill="none" stroke="midnightblue" d="M73.58,-112.08C66.15,-104.22 55.15,-92.57 46.19,-83.08"/>
<polygon fill="midnightblue" stroke="midnightblue" points="48.68,-80.62 39.26,-75.75 43.59,-85.42 48.68,-80.62"/>
</g>
<!-- Node4 -->
<g id="node4" class="node">
<title>Node4</title>
<g id="a_node4"><a xlink:href="_scalar_transport_base_8h.html" target="_top" xlink:title=" ">
<polygon fill="white" stroke="black" points="75,-56.5 75,-75.5 191,-75.5 191,-56.5 75,-56.5"/>
<text text-anchor="middle" x="133" y="-63.5" font-family="Helvetica,sans-Serif" font-size="10.00">ScalarTransportBase.h</text>
</a>
</g>
</g>
<!-- Node2&#45;&gt;Node4 -->
<g id="edge3" class="edge">
<title>Node2&#45;&gt;Node4</title>
<path fill="none" stroke="midnightblue" d="M90.42,-112.08C97.85,-104.22 108.85,-92.57 117.81,-83.08"/>
<polygon fill="midnightblue" stroke="midnightblue" points="120.41,-85.42 124.74,-75.75 115.32,-80.62 120.41,-85.42"/>
</g>
<!-- Node5 -->
<g id="node5" class="node">
<title>Node5</title>
<g id="a_node5"><a xlink:title=" ">
<polygon fill="white" stroke="#bfbfbf" points="24,-0.5 24,-19.5 120,-19.5 120,-0.5 24,-0.5"/>
<text text-anchor="middle" x="72" y="-7.5" font-family="Helvetica,sans-Serif" font-size="10.00">InputParameters.h</text>
</a>
</g>
</g>
<!-- Node4&#45;&gt;Node5 -->
<g id="edge4" class="edge">
<title>Node4&#45;&gt;Node5</title>
<path fill="none" stroke="midnightblue" d="M123.2,-56.32C114.18,-48.34 100.59,-36.31 89.68,-26.65"/>
<polygon fill="midnightblue" stroke="midnightblue" points="91.79,-23.84 81.98,-19.83 87.15,-29.08 91.79,-23.84"/>
</g>
<!-- Node6 -->
<g id="node6" class="node">
<title>Node6</title>
<g id="a_node6"><a xlink:title=" ">
<polygon fill="white" stroke="#bfbfbf" points="138.5,-0.5 138.5,-19.5 249.5,-19.5 249.5,-0.5 138.5,-0.5"/>
<text text-anchor="middle" x="194" y="-7.5" font-family="Helvetica,sans-Serif" font-size="10.00">MooseVariableBase.h</text>
</a>
</g>
</g>
<!-- Node4&#45;&gt;Node6 -->
<g id="edge5" class="edge">
<title>Node4&#45;&gt;Node6</title>
<path fill="none" stroke="midnightblue" d="M142.8,-56.32C151.82,-48.34 165.41,-36.31 176.32,-26.65"/>
<polygon fill="midnightblue" stroke="midnightblue" points="178.85,-29.08 184.02,-19.83 174.21,-23.84 178.85,-29.08"/>
</g>
</g>
</svg>
