<?xml version="1.0" encoding="UTF-8" standalone="no"?>
<!DOCTYPE svg PUBLIC "-//W3C//DTD SVG 1.1//EN"
 "http://www.w3.org/Graphics/SVG/1.1/DTD/svg11.dtd">
<!-- Generated by graphviz version 2.44.0 ()
 -->
<!-- Title: include/postprocessors/ElmIntegTotFissPostprocessor.h Pages: 1 -->
<svg width="424pt" height="240pt"
 viewBox="0.00 0.00 424.00 240.00" xmlns="http://www.w3.org/2000/svg" xmlns:xlink="http://www.w3.org/1999/xlink">
<g id="graph0" class="graph" transform="scale(1 1) rotate(0) translate(4 236)">
<title>include/postprocessors/ElmIntegTotFissPostprocessor.h</title>
<polygon fill="white" stroke="transparent" points="-4,4 -4,-236 420,-236 420,4 -4,4"/>
<!-- Node1 -->
<g id="node1" class="node">
<title>Node1</title>
<g id="a_node1"><a xlink:title=" ">
<polygon fill="#bfbfbf" stroke="black" points="96,-201.5 96,-231.5 257,-231.5 257,-201.5 96,-201.5"/>
<text text-anchor="start" x="104" y="-219.5" font-family="Helvetica,sans-Serif" font-size="10.00">include/postprocessors</text>
<text text-anchor="middle" x="176.5" y="-208.5" font-family="Helvetica,sans-Serif" font-size="10.00">/ElmIntegTotFissPostprocessor.h</text>
</a>
</g>
</g>
<!-- Node2 -->
<g id="node2" class="node">
<title>Node2</title>
<g id="a_node2"><a xlink:href="_elm_integ_tot_fiss_postprocessor_8_c.html" target="_top" xlink:title=" ">
<polygon fill="white" stroke="black" points="0,-134.5 0,-164.5 163,-164.5 163,-134.5 0,-134.5"/>
<text text-anchor="start" x="8" y="-152.5" font-family="Helvetica,sans-Serif" font-size="10.00">src/postprocessors</text>
<text text-anchor="middle" x="81.5" y="-141.5" font-family="Helvetica,sans-Serif" font-size="10.00">/ElmIntegTotFissPostprocessor.C</text>
</a>
</g>
</g>
<!-- Node1&#45;&gt;Node2 -->
<g id="edge1" class="edge">
<title>Node1&#45;&gt;Node2</title>
<path fill="none" stroke="midnightblue" d="M147.61,-195.73C132.91,-185.68 115.39,-173.68 102.07,-164.58"/>
<polygon fill="midnightblue" stroke="midnightblue" points="145.66,-198.64 155.89,-201.4 149.61,-192.86 145.66,-198.64"/>
</g>
<!-- Node3 -->
<g id="node3" class="node">
<title>Node3</title>
<g id="a_node3"><a xlink:href="_elm_integ_tot_fiss_heat_postprocessor_8h.html" target="_top" xlink:title=" ">
<polygon fill="white" stroke="black" points="181.5,-134.5 181.5,-164.5 363.5,-164.5 363.5,-134.5 181.5,-134.5"/>
<text text-anchor="start" x="189.5" y="-152.5" font-family="Helvetica,sans-Serif" font-size="10.00">include/postprocessors</text>
<text text-anchor="middle" x="272.5" y="-141.5" font-family="Helvetica,sans-Serif" font-size="10.00">/ElmIntegTotFissHeatPostprocessor.h</text>
</a>
</g>
</g>
<!-- Node1&#45;&gt;Node3 -->
<g id="edge2" class="edge">
<title>Node1&#45;&gt;Node3</title>
<path fill="none" stroke="midnightblue" d="M205.69,-195.73C220.55,-185.68 238.26,-173.68 251.71,-164.58"/>
<polygon fill="midnightblue" stroke="midnightblue" points="203.65,-192.89 197.33,-201.4 207.57,-198.69 203.65,-192.89"/>
</g>
<!-- Node4 -->
<g id="node4" class="node">
<title>Node4</title>
<g id="a_node4"><a xlink:href="_elm_integ_tot_fiss_heat_postprocessor_8_c.html" target="_top" xlink:title=" ">
<polygon fill="white" stroke="black" points="96.5,-67.5 96.5,-97.5 280.5,-97.5 280.5,-67.5 96.5,-67.5"/>
<text text-anchor="start" x="104.5" y="-85.5" font-family="Helvetica,sans-Serif" font-size="10.00">src/postprocessors</text>
<text text-anchor="middle" x="188.5" y="-74.5" font-family="Helvetica,sans-Serif" font-size="10.00">/ElmIntegTotFissHeatPostprocessor.C</text>
</a>
</g>
</g>
<!-- Node3&#45;&gt;Node4 -->
<g id="edge3" class="edge">
<title>Node3&#45;&gt;Node4</title>
<path fill="none" stroke="midnightblue" d="M246.22,-128.17C233.38,-118.23 218.24,-106.51 206.69,-97.58"/>
<polygon fill="midnightblue" stroke="midnightblue" points="244.22,-131.04 254.27,-134.4 248.51,-125.51 244.22,-131.04"/>
</g>
<!-- Node5 -->
<g id="node5" class="node">
<title>Node5</title>
<g id="a_node5"><a xlink:href="_average_fission_heat_8h.html" target="_top" xlink:title=" ">
<polygon fill="white" stroke="black" points="299,-67.5 299,-97.5 416,-97.5 416,-67.5 299,-67.5"/>
<text text-anchor="start" x="307" y="-85.5" font-family="Helvetica,sans-Serif" font-size="10.00">include/postprocessors</text>
<text text-anchor="middle" x="357.5" y="-74.5" font-family="Helvetica,sans-Serif" font-size="10.00">/AverageFissionHeat.h</text>
</a>
</g>
</g>
<!-- Node3&#45;&gt;Node5 -->
<g id="edge4" class="edge">
<title>Node3&#45;&gt;Node5</title>
<path fill="none" stroke="midnightblue" d="M299.09,-128.17C312.09,-118.23 327.4,-106.51 339.09,-97.58"/>
<polygon fill="midnightblue" stroke="midnightblue" points="296.76,-125.54 290.94,-134.4 301.01,-131.1 296.76,-125.54"/>
</g>
<!-- Node6 -->
<g id="node6" class="node">
<title>Node6</title>
<g id="a_node6"><a xlink:href="_average_fission_heat_8_c.html" target="_top" xlink:title=" ">
<polygon fill="white" stroke="black" points="299,-0.5 299,-30.5 416,-30.5 416,-0.5 299,-0.5"/>
<text text-anchor="start" x="307" y="-18.5" font-family="Helvetica,sans-Serif" font-size="10.00">src/postprocessors</text>
<text text-anchor="middle" x="357.5" y="-7.5" font-family="Helvetica,sans-Serif" font-size="10.00">/AverageFissionHeat.C</text>
</a>
</g>
</g>
<!-- Node5&#45;&gt;Node6 -->
<g id="edge5" class="edge">
<title>Node5&#45;&gt;Node6</title>
<path fill="none" stroke="midnightblue" d="M357.5,-57.11C357.5,-48.15 357.5,-38.32 357.5,-30.58"/>
<polygon fill="midnightblue" stroke="midnightblue" points="354,-57.4 357.5,-67.4 361,-57.4 354,-57.4"/>
</g>
</g>
</svg>
