<?xml version="1.0" encoding="UTF-8" standalone="no"?>
<!DOCTYPE svg PUBLIC "-//W3C//DTD SVG 1.1//EN"
 "http://www.w3.org/Graphics/SVG/1.1/DTD/svg11.dtd">
<!-- Generated by graphviz version 2.38.0 (20140413.2041)
 -->
<!-- Title: include/postprocessors/ElmIntegTotFissHeatPostprocessor.h Pages: 1 -->
<svg width="345pt" height="173pt"
 viewBox="0.00 0.00 344.56 173.00" xmlns="http://www.w3.org/2000/svg" xmlns:xlink="http://www.w3.org/1999/xlink">
<g id="graph0" class="graph" transform="scale(1 1) rotate(0) translate(4 169)">
<title>include/postprocessors/ElmIntegTotFissHeatPostprocessor.h</title>
<polygon fill="white" stroke="none" points="-4,4 -4,-169 340.56,-169 340.56,4 -4,4"/>
<!-- Node6 -->
<g id="node1" class="node"><title>Node6</title>
<polygon fill="#bfbfbf" stroke="black" points="15.0603,-134.5 15.0603,-164.5 199.06,-164.5 199.06,-134.5 15.0603,-134.5"/>
<text text-anchor="start" x="23.0603" y="-152.5" font-family="Helvetica,sans-Serif" font-size="10.00">include/postprocessors</text>
<text text-anchor="middle" x="107.06" y="-141.5" font-family="Helvetica,sans-Serif" font-size="10.00">/ElmIntegTotFissHeatPostprocessor.h</text>
</g>
<!-- Node7 -->
<g id="node2" class="node"><title>Node7</title>
<g id="a_node2"><a xlink:href="_moltres_app_8_c.html" target="_top" xlink:title="src/base/MoltresApp.C">
<polygon fill="white" stroke="black" points="4.56035,-6 4.56035,-25 121.56,-25 121.56,-6 4.56035,-6"/>
<text text-anchor="middle" x="63.0603" y="-13" font-family="Helvetica,sans-Serif" font-size="10.00">src/base/MoltresApp.C</text>
</a>
</g>
</g>
<!-- Node6&#45;&gt;Node7 -->
<g id="edge1" class="edge"><title>Node6&#45;&gt;Node7</title>
<path fill="none" stroke="midnightblue" d="M43.3426,-130.184C28.2387,-122.704 13.9494,-112.32 5.06035,-98 -2.20607,-86.2942 -0.6482,-79.5395 5.06035,-67 13.6348,-48.1652 33.0885,-33.6253 47.104,-25.084"/>
<polygon fill="midnightblue" stroke="midnightblue" points="42.2583,-133.536 52.8113,-134.476 45.1482,-127.16 42.2583,-133.536"/>
</g>
<!-- Node8 -->
<g id="node3" class="node"><title>Node8</title>
<g id="a_node3"><a xlink:href="_elm_integ_tot_fiss_heat_postprocessor_8_c.html" target="_top" xlink:title="src/postprocessors\l/ElmIntegTotFissHeatPostprocessor.C">
<polygon fill="white" stroke="black" points="14.0603,-67.5 14.0603,-97.5 200.06,-97.5 200.06,-67.5 14.0603,-67.5"/>
<text text-anchor="start" x="22.0603" y="-85.5" font-family="Helvetica,sans-Serif" font-size="10.00">src/postprocessors</text>
<text text-anchor="middle" x="107.06" y="-74.5" font-family="Helvetica,sans-Serif" font-size="10.00">/ElmIntegTotFissHeatPostprocessor.C</text>
</a>
</g>
</g>
<!-- Node6&#45;&gt;Node8 -->
<g id="edge2" class="edge"><title>Node6&#45;&gt;Node8</title>
<path fill="none" stroke="midnightblue" d="M107.06,-124.108C107.06,-115.154 107.06,-105.323 107.06,-97.5765"/>
<polygon fill="midnightblue" stroke="midnightblue" points="103.56,-124.396 107.06,-134.396 110.56,-124.396 103.56,-124.396"/>
</g>
<!-- Node9 -->
<g id="node4" class="node"><title>Node9</title>
<g id="a_node4"><a xlink:href="_average_fission_heat_8h.html" target="_top" xlink:title="include/postprocessors\l/AverageFissionHeat.h">
<polygon fill="white" stroke="black" points="218.56,-67.5 218.56,-97.5 335.56,-97.5 335.56,-67.5 218.56,-67.5"/>
<text text-anchor="start" x="226.56" y="-85.5" font-family="Helvetica,sans-Serif" font-size="10.00">include/postprocessors</text>
<text text-anchor="middle" x="277.06" y="-74.5" font-family="Helvetica,sans-Serif" font-size="10.00">/AverageFissionHeat.h</text>
</a>
</g>
</g>
<!-- Node6&#45;&gt;Node9 -->
<g id="edge3" class="edge"><title>Node6&#45;&gt;Node9</title>
<path fill="none" stroke="midnightblue" d="M153.304,-130.819C180.629,-120.371 214.754,-107.323 240.245,-97.5765"/>
<polygon fill="midnightblue" stroke="midnightblue" points="152.038,-127.555 143.948,-134.396 154.538,-134.094 152.038,-127.555"/>
</g>
<!-- Node9&#45;&gt;Node7 -->
<g id="edge4" class="edge"><title>Node9&#45;&gt;Node7</title>
<path fill="none" stroke="midnightblue" d="M221.125,-64.5102C179.361,-51.8251 124.04,-35.0219 91.1393,-25.0287"/>
<polygon fill="midnightblue" stroke="midnightblue" points="220.303,-67.9186 230.889,-67.476 222.338,-61.2207 220.303,-67.9186"/>
</g>
<!-- Node10 -->
<g id="node5" class="node"><title>Node10</title>
<g id="a_node5"><a xlink:href="_average_fission_heat_8_c.html" target="_top" xlink:title="src/postprocessors\l/AverageFissionHeat.C">
<polygon fill="white" stroke="black" points="217.56,-0.5 217.56,-30.5 336.56,-30.5 336.56,-0.5 217.56,-0.5"/>
<text text-anchor="start" x="225.56" y="-18.5" font-family="Helvetica,sans-Serif" font-size="10.00">src/postprocessors</text>
<text text-anchor="middle" x="277.06" y="-7.5" font-family="Helvetica,sans-Serif" font-size="10.00">/AverageFissionHeat.C</text>
</a>
</g>
</g>
<!-- Node9&#45;&gt;Node10 -->
<g id="edge5" class="edge"><title>Node9&#45;&gt;Node10</title>
<path fill="none" stroke="midnightblue" d="M277.06,-57.1081C277.06,-48.1539 277.06,-38.3227 277.06,-30.5765"/>
<polygon fill="midnightblue" stroke="midnightblue" points="273.56,-57.3959 277.06,-67.396 280.56,-57.396 273.56,-57.3959"/>
</g>
</g>
</svg>
