<?xml version="1.0" encoding="UTF-8" standalone="no"?>
<!DOCTYPE svg PUBLIC "-//W3C//DTD SVG 1.1//EN"
 "http://www.w3.org/Graphics/SVG/1.1/DTD/svg11.dtd">
<!-- Generated by graphviz version 2.38.0 (20140413.2041)
 -->
<!-- Title: include/kernels/FissionHeatSource.h Pages: 1 -->
<svg width="304pt" height="95pt"
 viewBox="0.00 0.00 304.00 95.00" xmlns="http://www.w3.org/2000/svg" xmlns:xlink="http://www.w3.org/1999/xlink">
<g id="graph0" class="graph" transform="scale(1 1) rotate(0) translate(4 91)">
<title>include/kernels/FissionHeatSource.h</title>
<polygon fill="white" stroke="none" points="-4,4 -4,-91 300,-91 300,4 -4,4"/>
<!-- Node2 -->
<g id="node1" class="node"><title>Node2</title>
<polygon fill="#bfbfbf" stroke="black" points="68,-56.5 68,-86.5 205,-86.5 205,-56.5 68,-56.5"/>
<text text-anchor="start" x="76" y="-74.5" font-family="Helvetica,sans-Serif" font-size="10.00">include/kernels/FissionHeat</text>
<text text-anchor="middle" x="136.5" y="-63.5" font-family="Helvetica,sans-Serif" font-size="10.00">Source.h</text>
</g>
<!-- Node3 -->
<g id="node2" class="node"><title>Node3</title>
<g id="a_node2"><a xlink:href="_moltres_app_8_c.html" target="_top" xlink:title="src/base/MoltresApp.C">
<polygon fill="white" stroke="black" points="0,-0.5 0,-19.5 117,-19.5 117,-0.5 0,-0.5"/>
<text text-anchor="middle" x="58.5" y="-7.5" font-family="Helvetica,sans-Serif" font-size="10.00">src/base/MoltresApp.C</text>
</a>
</g>
</g>
<!-- Node2&#45;&gt;Node3 -->
<g id="edge1" class="edge"><title>Node2&#45;&gt;Node3</title>
<path fill="none" stroke="midnightblue" d="M109.873,-50.1886C96.2178,-39.7719 80.3045,-27.6329 69.8497,-19.6578"/>
<polygon fill="midnightblue" stroke="midnightblue" points="107.941,-53.117 118.015,-56.3993 112.187,-47.5515 107.941,-53.117"/>
</g>
<!-- Node4 -->
<g id="node3" class="node"><title>Node4</title>
<g id="a_node3"><a xlink:href="_fission_heat_source_8_c.html" target="_top" xlink:title="src/kernels/FissionHeatSource.C">
<polygon fill="white" stroke="black" points="135,-0.5 135,-19.5 296,-19.5 296,-0.5 135,-0.5"/>
<text text-anchor="middle" x="215.5" y="-7.5" font-family="Helvetica,sans-Serif" font-size="10.00">src/kernels/FissionHeatSource.C</text>
</a>
</g>
</g>
<!-- Node2&#45;&gt;Node4 -->
<g id="edge2" class="edge"><title>Node2&#45;&gt;Node4</title>
<path fill="none" stroke="midnightblue" d="M163.468,-50.1886C177.299,-39.7719 193.416,-27.6329 204.005,-19.6578"/>
<polygon fill="midnightblue" stroke="midnightblue" points="161.104,-47.5874 155.222,-56.3993 165.315,-53.1789 161.104,-47.5874"/>
</g>
</g>
</svg>
