<?xml version="1.0" encoding="UTF-8" standalone="no"?>
<!DOCTYPE svg PUBLIC "-//W3C//DTD SVG 1.1//EN"
 "http://www.w3.org/Graphics/SVG/1.1/DTD/svg11.dtd">
<!-- Generated by graphviz version 2.50.0 (20220203.2022)
 -->
<!-- Title: include/materials/GenericMoltresMaterial.h Pages: 1 -->
<svg width="763pt" height="151pt"
 viewBox="0.00 0.00 763.00 151.00" xmlns="http://www.w3.org/2000/svg" xmlns:xlink="http://www.w3.org/1999/xlink">
<g id="graph0" class="graph" transform="scale(1 1) rotate(0) translate(4 147)">
<title>include/materials/GenericMoltresMaterial.h</title>
<polygon fill="white" stroke="transparent" points="-4,4 -4,-147 759,-147 759,4 -4,4"/>
<!-- Node1 -->
<g id="node1" class="node">
<title>Node1</title>
<g id="a_node1"><a xlink:title=" ">
<polygon fill="#bfbfbf" stroke="black" points="315.5,-112.5 315.5,-142.5 442.5,-142.5 442.5,-112.5 315.5,-112.5"/>
<text text-anchor="start" x="323.5" y="-130.5" font-family="Helvetica,sans-Serif" font-size="10.00">include/materials/Generic</text>
<text text-anchor="middle" x="379" y="-119.5" font-family="Helvetica,sans-Serif" font-size="10.00">MoltresMaterial.h</text>
</a>
</g>
</g>
<!-- Node2 -->
<g id="node2" class="node">
<title>Node2</title>
<g id="a_node2"><a xlink:href="_nuclear_material_8h.html" target="_top" xlink:title=" ">
<polygon fill="white" stroke="black" points="333,-56.5 333,-75.5 425,-75.5 425,-56.5 333,-56.5"/>
<text text-anchor="middle" x="379" y="-63.5" font-family="Helvetica,sans-Serif" font-size="10.00">NuclearMaterial.h</text>
</a>
</g>
</g>
<!-- Node1&#45;&gt;Node2 -->
<g id="edge1" class="edge">
<title>Node1&#45;&gt;Node2</title>
<path fill="none" stroke="midnightblue" d="M379,-112.4C379,-104.47 379,-94.46 379,-85.86"/>
<polygon fill="midnightblue" stroke="midnightblue" points="382.5,-85.66 379,-75.66 375.5,-85.66 382.5,-85.66"/>
</g>
<!-- Node4 -->
<g id="node4" class="node">
<title>Node4</title>
<g id="a_node4"><a xlink:title=" ">
<polygon fill="white" stroke="#bfbfbf" points="0,-0.5 0,-19.5 104,-19.5 104,-0.5 0,-0.5"/>
<text text-anchor="middle" x="52" y="-7.5" font-family="Helvetica,sans-Serif" font-size="10.00">SplineInterpolation.h</text>
</a>
</g>
</g>
<!-- Node1&#45;&gt;Node4 -->
<g id="edge8" class="edge">
<title>Node1&#45;&gt;Node4</title>
<path fill="none" stroke="midnightblue" d="M339.23,-112.45C274.25,-89.5 146.49,-44.38 85.69,-22.9"/>
<polygon fill="midnightblue" stroke="midnightblue" points="86.78,-19.57 76.18,-19.54 84.45,-26.17 86.78,-19.57"/>
</g>
<!-- Node5 -->
<g id="node5" class="node">
<title>Node5</title>
<g id="a_node5"><a xlink:title=" ">
<polygon fill="white" stroke="#bfbfbf" points="122.5,-0.5 122.5,-19.5 259.5,-19.5 259.5,-0.5 122.5,-0.5"/>
<text text-anchor="middle" x="191" y="-7.5" font-family="Helvetica,sans-Serif" font-size="10.00">BicubicSplineInterpolation.h</text>
</a>
</g>
</g>
<!-- Node1&#45;&gt;Node5 -->
<g id="edge9" class="edge">
<title>Node1&#45;&gt;Node5</title>
<path fill="none" stroke="midnightblue" d="M355.95,-112.34C319.76,-90.11 250.05,-47.28 213.94,-25.09"/>
<polygon fill="midnightblue" stroke="midnightblue" points="215.46,-21.92 205.11,-19.67 211.8,-27.89 215.46,-21.92"/>
</g>
<!-- Node6 -->
<g id="node6" class="node">
<title>Node6</title>
<g id="a_node6"><a xlink:title=" ">
<polygon fill="white" stroke="#bfbfbf" points="487.5,-0.5 487.5,-19.5 632.5,-19.5 632.5,-0.5 487.5,-0.5"/>
<text text-anchor="middle" x="560" y="-7.5" font-family="Helvetica,sans-Serif" font-size="10.00">MonotoneCubicInterpolation.h</text>
</a>
</g>
</g>
<!-- Node1&#45;&gt;Node6 -->
<g id="edge10" class="edge">
<title>Node1&#45;&gt;Node6</title>
<path fill="none" stroke="midnightblue" d="M401.19,-112.34C436.03,-90.11 503.15,-47.28 537.91,-25.09"/>
<polygon fill="midnightblue" stroke="midnightblue" points="539.87,-28 546.41,-19.67 536.1,-22.1 539.87,-28"/>
</g>
<!-- Node7 -->
<g id="node7" class="node">
<title>Node7</title>
<g id="a_node7"><a xlink:title=" ">
<polygon fill="white" stroke="#bfbfbf" points="651,-0.5 651,-19.5 755,-19.5 755,-0.5 651,-0.5"/>
<text text-anchor="middle" x="703" y="-7.5" font-family="Helvetica,sans-Serif" font-size="10.00">LinearInterpolation.h</text>
</a>
</g>
</g>
<!-- Node1&#45;&gt;Node7 -->
<g id="edge11" class="edge">
<title>Node1&#45;&gt;Node7</title>
<path fill="none" stroke="midnightblue" d="M418.4,-112.45C482.78,-89.5 609.37,-44.38 669.62,-22.9"/>
<polygon fill="midnightblue" stroke="midnightblue" points="670.79,-26.2 679.04,-19.54 668.44,-19.6 670.79,-26.2"/>
</g>
<!-- Node3 -->
<g id="node3" class="node">
<title>Node3</title>
<g id="a_node3"><a xlink:title=" ">
<polygon fill="white" stroke="#bfbfbf" points="277.5,-0.5 277.5,-19.5 408.5,-19.5 408.5,-0.5 277.5,-0.5"/>
<text text-anchor="middle" x="343" y="-7.5" font-family="Helvetica,sans-Serif" font-size="10.00">GenericConstantMaterial.h</text>
</a>
</g>
</g>
<!-- Node2&#45;&gt;Node3 -->
<g id="edge2" class="edge">
<title>Node2&#45;&gt;Node3</title>
<path fill="none" stroke="midnightblue" d="M373.06,-56.08C368.02,-48.53 360.66,-37.49 354.49,-28.23"/>
<polygon fill="midnightblue" stroke="midnightblue" points="357.29,-26.13 348.83,-19.75 351.47,-30.01 357.29,-26.13"/>
</g>
<!-- Node2&#45;&gt;Node4 -->
<g id="edge3" class="edge">
<title>Node2&#45;&gt;Node4</title>
<path fill="none" stroke="midnightblue" d="M332.84,-57.38C275.44,-47.9 177.25,-31.68 113.51,-21.16"/>
<polygon fill="midnightblue" stroke="midnightblue" points="114.02,-17.69 103.58,-19.52 112.88,-24.6 114.02,-17.69"/>
</g>
<!-- Node2&#45;&gt;Node5 -->
<g id="edge4" class="edge">
<title>Node2&#45;&gt;Node5</title>
<path fill="none" stroke="midnightblue" d="M349.21,-56.44C317.17,-47.24 266.07,-32.56 230.65,-22.39"/>
<polygon fill="midnightblue" stroke="midnightblue" points="231.23,-18.91 220.65,-19.52 229.29,-25.64 231.23,-18.91"/>
</g>
<!-- Node2&#45;&gt;Node6 -->
<g id="edge5" class="edge">
<title>Node2&#45;&gt;Node6</title>
<path fill="none" stroke="midnightblue" d="M407.68,-56.44C438.53,-47.24 487.73,-32.56 521.83,-22.39"/>
<polygon fill="midnightblue" stroke="midnightblue" points="522.87,-25.73 531.45,-19.52 520.87,-19.02 522.87,-25.73"/>
</g>
<!-- Node2&#45;&gt;Node7 -->
<g id="edge6" class="edge">
<title>Node2&#45;&gt;Node7</title>
<path fill="none" stroke="midnightblue" d="M425.08,-57.32C481.84,-47.86 578.48,-31.75 641.53,-21.24"/>
<polygon fill="midnightblue" stroke="midnightblue" points="642.45,-24.64 651.74,-19.54 641.3,-17.74 642.45,-24.64"/>
</g>
<!-- Node8 -->
<g id="node8" class="node">
<title>Node8</title>
<g id="a_node8"><a xlink:title=" ">
<polygon fill="white" stroke="#bfbfbf" points="427,-0.5 427,-19.5 469,-19.5 469,-0.5 427,-0.5"/>
<text text-anchor="middle" x="448" y="-7.5" font-family="Helvetica,sans-Serif" font-size="10.00">json.h</text>
</a>
</g>
</g>
<!-- Node2&#45;&gt;Node8 -->
<g id="edge7" class="edge">
<title>Node2&#45;&gt;Node8</title>
<path fill="none" stroke="midnightblue" d="M390.09,-56.32C400.49,-48.18 416.26,-35.84 428.72,-26.09"/>
<polygon fill="midnightblue" stroke="midnightblue" points="430.99,-28.75 436.71,-19.83 426.68,-23.24 430.99,-28.75"/>
</g>
</g>
</svg>
