<?xml version="1.0" encoding="UTF-8" standalone="no"?>
<!DOCTYPE svg PUBLIC "-//W3C//DTD SVG 1.1//EN"
 "http://www.w3.org/Graphics/SVG/1.1/DTD/svg11.dtd">
<!-- Generated by graphviz version 2.44.0 ()
 -->
<!-- Title: include/materials/GenericMoltresMaterial.h Pages: 1 -->
<svg width="672pt" height="162pt"
 viewBox="0.00 0.00 672.00 162.00" xmlns="http://www.w3.org/2000/svg" xmlns:xlink="http://www.w3.org/1999/xlink">
<g id="graph0" class="graph" transform="scale(1 1) rotate(0) translate(4 158)">
<title>include/materials/GenericMoltresMaterial.h</title>
<polygon fill="white" stroke="transparent" points="-4,4 -4,-158 668,-158 668,4 -4,4"/>
<!-- Node1 -->
<g id="node1" class="node">
<title>Node1</title>
<g id="a_node1"><a xlink:title=" ">
<polygon fill="#bfbfbf" stroke="black" points="261.5,-123.5 261.5,-153.5 388.5,-153.5 388.5,-123.5 261.5,-123.5"/>
<text text-anchor="start" x="269.5" y="-141.5" font-family="Helvetica,sans-Serif" font-size="10.00">include/materials/Generic</text>
<text text-anchor="middle" x="325" y="-130.5" font-family="Helvetica,sans-Serif" font-size="10.00">MoltresMaterial.h</text>
</a>
</g>
</g>
<!-- Node2 -->
<g id="node2" class="node">
<title>Node2</title>
<g id="a_node2"><a xlink:href="_generic_moltres_material_8_c.html" target="_top" xlink:title=" ">
<polygon fill="white" stroke="black" points="0,-56.5 0,-86.5 142,-86.5 142,-56.5 0,-56.5"/>
<text text-anchor="start" x="8" y="-74.5" font-family="Helvetica,sans-Serif" font-size="10.00">src/materials/GenericMoltres</text>
<text text-anchor="middle" x="71" y="-63.5" font-family="Helvetica,sans-Serif" font-size="10.00">Material.C</text>
</a>
</g>
</g>
<!-- Node1&#45;&gt;Node2 -->
<g id="edge1" class="edge">
<title>Node1&#45;&gt;Node2</title>
<path fill="none" stroke="midnightblue" d="M260.46,-120.98C218.97,-110.37 165.64,-96.72 126.14,-86.61"/>
<polygon fill="midnightblue" stroke="midnightblue" points="259.64,-124.39 270.2,-123.48 261.38,-117.61 259.64,-124.39"/>
</g>
<!-- Node3 -->
<g id="node3" class="node">
<title>Node3</title>
<g id="a_node3"><a xlink:href="_cammi_fuel_8h.html" target="_top" xlink:title=" ">
<polygon fill="white" stroke="black" points="160,-62 160,-81 310,-81 310,-62 160,-62"/>
<text text-anchor="middle" x="235" y="-69" font-family="Helvetica,sans-Serif" font-size="10.00">include/materials/CammiFuel.h</text>
</a>
</g>
</g>
<!-- Node1&#45;&gt;Node3 -->
<g id="edge2" class="edge">
<title>Node1&#45;&gt;Node3</title>
<path fill="none" stroke="midnightblue" d="M297.04,-117.31C280.14,-105.1 259.48,-90.18 246.78,-81.01"/>
<polygon fill="midnightblue" stroke="midnightblue" points="295.32,-120.38 305.47,-123.4 299.41,-114.7 295.32,-120.38"/>
</g>
<!-- Node5 -->
<g id="node5" class="node">
<title>Node5</title>
<g id="a_node5"><a xlink:href="_cammi_moderator_8h.html" target="_top" xlink:title=" ">
<polygon fill="white" stroke="black" points="328.5,-62 328.5,-81 503.5,-81 503.5,-62 328.5,-62"/>
<text text-anchor="middle" x="416" y="-69" font-family="Helvetica,sans-Serif" font-size="10.00">include/materials/CammiModerator.h</text>
</a>
</g>
</g>
<!-- Node1&#45;&gt;Node5 -->
<g id="edge4" class="edge">
<title>Node1&#45;&gt;Node5</title>
<path fill="none" stroke="midnightblue" d="M353.27,-117.31C370.36,-105.1 391.25,-90.18 404.09,-81.01"/>
<polygon fill="midnightblue" stroke="midnightblue" points="350.85,-114.74 344.75,-123.4 354.92,-120.43 350.85,-114.74"/>
</g>
<!-- Node7 -->
<g id="node7" class="node">
<title>Node7</title>
<g id="a_node7"><a xlink:href="_rodded_material_8h.html" target="_top" xlink:title=" ">
<polygon fill="white" stroke="black" points="524,-56.5 524,-86.5 650,-86.5 650,-56.5 524,-56.5"/>
<text text-anchor="start" x="532" y="-74.5" font-family="Helvetica,sans-Serif" font-size="10.00">include/materials/Rodded</text>
<text text-anchor="middle" x="587" y="-63.5" font-family="Helvetica,sans-Serif" font-size="10.00">Material.h</text>
</a>
</g>
</g>
<!-- Node1&#45;&gt;Node7 -->
<g id="edge6" class="edge">
<title>Node1&#45;&gt;Node7</title>
<path fill="none" stroke="midnightblue" d="M391.3,-121.05C434.13,-110.43 489.29,-96.74 530.12,-86.61"/>
<polygon fill="midnightblue" stroke="midnightblue" points="390.39,-117.67 381.53,-123.48 392.08,-124.47 390.39,-117.67"/>
</g>
<!-- Node4 -->
<g id="node4" class="node">
<title>Node4</title>
<g id="a_node4"><a xlink:href="_cammi_fuel_8_c.html" target="_top" xlink:title=" ">
<polygon fill="white" stroke="black" points="168,-0.5 168,-19.5 302,-19.5 302,-0.5 168,-0.5"/>
<text text-anchor="middle" x="235" y="-7.5" font-family="Helvetica,sans-Serif" font-size="10.00">src/materials/CammiFuel.C</text>
</a>
</g>
</g>
<!-- Node3&#45;&gt;Node4 -->
<g id="edge3" class="edge">
<title>Node3&#45;&gt;Node4</title>
<path fill="none" stroke="midnightblue" d="M235,-51.82C235,-41 235,-27.9 235,-19.51"/>
<polygon fill="midnightblue" stroke="midnightblue" points="231.5,-51.98 235,-61.98 238.5,-51.98 231.5,-51.98"/>
</g>
<!-- Node6 -->
<g id="node6" class="node">
<title>Node6</title>
<g id="a_node6"><a xlink:href="_cammi_moderator_8_c.html" target="_top" xlink:title=" ">
<polygon fill="white" stroke="black" points="334.5,-0.5 334.5,-19.5 493.5,-19.5 493.5,-0.5 334.5,-0.5"/>
<text text-anchor="middle" x="414" y="-7.5" font-family="Helvetica,sans-Serif" font-size="10.00">src/materials/CammiModerator.C</text>
</a>
</g>
</g>
<!-- Node5&#45;&gt;Node6 -->
<g id="edge5" class="edge">
<title>Node5&#45;&gt;Node6</title>
<path fill="none" stroke="midnightblue" d="M415.37,-51.82C415.01,-41 414.57,-27.9 414.29,-19.51"/>
<polygon fill="midnightblue" stroke="midnightblue" points="411.88,-52.1 415.71,-61.98 418.88,-51.86 411.88,-52.1"/>
</g>
<!-- Node8 -->
<g id="node8" class="node">
<title>Node8</title>
<g id="a_node8"><a xlink:href="_rodded_material_8_c.html" target="_top" xlink:title=" ">
<polygon fill="white" stroke="black" points="512,-0.5 512,-19.5 664,-19.5 664,-0.5 512,-0.5"/>
<text text-anchor="middle" x="588" y="-7.5" font-family="Helvetica,sans-Serif" font-size="10.00">src/materials/RoddedMaterial.C</text>
</a>
</g>
</g>
<!-- Node7&#45;&gt;Node8 -->
<g id="edge7" class="edge">
<title>Node7&#45;&gt;Node8</title>
<path fill="none" stroke="midnightblue" d="M587.41,-46.29C587.57,-36.86 587.74,-26.65 587.85,-19.66"/>
<polygon fill="midnightblue" stroke="midnightblue" points="583.91,-46.34 587.24,-56.4 590.9,-46.46 583.91,-46.34"/>
</g>
</g>
</svg>
