<?xml version="1.0" encoding="UTF-8" standalone="no"?>
<!DOCTYPE svg PUBLIC "-//W3C//DTD SVG 1.1//EN"
 "http://www.w3.org/Graphics/SVG/1.1/DTD/svg11.dtd">
<!-- Generated by graphviz version 2.50.0 (20220203.2022)
 -->
<!-- Title: src/materials/MoltresJsonMaterial.C Pages: 1 -->
<svg width="763pt" height="207pt"
 viewBox="0.00 0.00 762.50 207.00" xmlns="http://www.w3.org/2000/svg" xmlns:xlink="http://www.w3.org/1999/xlink">
<g id="graph0" class="graph" transform="scale(1 1) rotate(0) translate(4 203)">
<title>src/materials/MoltresJsonMaterial.C</title>
<polygon fill="white" stroke="transparent" points="-4,4 -4,-203 758.5,-203 758.5,4 -4,4"/>
<!-- Node1 -->
<g id="node1" class="node">
<title>Node1</title>
<g id="a_node1"><a xlink:title=" ">
<polygon fill="#bfbfbf" stroke="black" points="464,-168.5 464,-198.5 593,-198.5 593,-168.5 464,-168.5"/>
<text text-anchor="start" x="472" y="-186.5" font-family="Helvetica,sans-Serif" font-size="10.00">src/materials/MoltresJson</text>
<text text-anchor="middle" x="528.5" y="-175.5" font-family="Helvetica,sans-Serif" font-size="10.00">Material.C</text>
</a>
</g>
</g>
<!-- Node2 -->
<g id="node2" class="node">
<title>Node2</title>
<g id="a_node2"><a xlink:href="_moltres_json_material_8h.html" target="_top" xlink:title=" ">
<polygon fill="white" stroke="black" points="417.5,-112.5 417.5,-131.5 529.5,-131.5 529.5,-112.5 417.5,-112.5"/>
<text text-anchor="middle" x="473.5" y="-119.5" font-family="Helvetica,sans-Serif" font-size="10.00">MoltresJsonMaterial.h</text>
</a>
</g>
</g>
<!-- Node1&#45;&gt;Node2 -->
<g id="edge1" class="edge">
<title>Node1&#45;&gt;Node2</title>
<path fill="none" stroke="midnightblue" d="M515.47,-168.4C507.31,-159.58 496.78,-148.18 488.31,-139.02"/>
<polygon fill="midnightblue" stroke="midnightblue" points="490.86,-136.63 481.5,-131.66 485.72,-141.38 490.86,-136.63"/>
</g>
<!-- Node11 -->
<g id="node11" class="node">
<title>Node11</title>
<g id="a_node11"><a xlink:title=" ">
<polygon fill="white" stroke="#bfbfbf" points="547.5,-112.5 547.5,-131.5 621.5,-131.5 621.5,-112.5 547.5,-112.5"/>
<text text-anchor="middle" x="584.5" y="-119.5" font-family="Helvetica,sans-Serif" font-size="10.00">MooseUtils.h</text>
</a>
</g>
</g>
<!-- Node1&#45;&gt;Node11 -->
<g id="edge10" class="edge">
<title>Node1&#45;&gt;Node11</title>
<path fill="none" stroke="midnightblue" d="M541.77,-168.4C550.08,-159.58 560.8,-148.18 569.42,-139.02"/>
<polygon fill="midnightblue" stroke="midnightblue" points="572.05,-141.34 576.35,-131.66 566.95,-136.54 572.05,-141.34"/>
</g>
<!-- Node3 -->
<g id="node3" class="node">
<title>Node3</title>
<g id="a_node3"><a xlink:href="_nuclear_material_8h.html" target="_top" xlink:title=" ">
<polygon fill="white" stroke="black" points="373.5,-56.5 373.5,-75.5 465.5,-75.5 465.5,-56.5 373.5,-56.5"/>
<text text-anchor="middle" x="419.5" y="-63.5" font-family="Helvetica,sans-Serif" font-size="10.00">NuclearMaterial.h</text>
</a>
</g>
</g>
<!-- Node2&#45;&gt;Node3 -->
<g id="edge2" class="edge">
<title>Node2&#45;&gt;Node3</title>
<path fill="none" stroke="midnightblue" d="M464.58,-112.08C456.72,-104.22 445.07,-92.57 435.58,-83.08"/>
<polygon fill="midnightblue" stroke="midnightblue" points="437.8,-80.35 428.25,-75.75 432.85,-85.3 437.8,-80.35"/>
</g>
<!-- Node10 -->
<g id="node10" class="node">
<title>Node10</title>
<g id="a_node10"><a xlink:title=" ">
<polygon fill="white" stroke="#bfbfbf" points="484,-56.5 484,-75.5 571,-75.5 571,-56.5 484,-56.5"/>
<text text-anchor="middle" x="527.5" y="-63.5" font-family="Helvetica,sans-Serif" font-size="10.00">nlohmann/json.h</text>
</a>
</g>
</g>
<!-- Node2&#45;&gt;Node10 -->
<g id="edge9" class="edge">
<title>Node2&#45;&gt;Node10</title>
<path fill="none" stroke="midnightblue" d="M482.42,-112.08C490.28,-104.22 501.93,-92.57 511.42,-83.08"/>
<polygon fill="midnightblue" stroke="midnightblue" points="514.15,-85.3 518.75,-75.75 509.2,-80.35 514.15,-85.3"/>
</g>
<!-- Node4 -->
<g id="node4" class="node">
<title>Node4</title>
<g id="a_node4"><a xlink:title=" ">
<polygon fill="white" stroke="#bfbfbf" points="0,-0.5 0,-19.5 131,-19.5 131,-0.5 0,-0.5"/>
<text text-anchor="middle" x="65.5" y="-7.5" font-family="Helvetica,sans-Serif" font-size="10.00">GenericConstantMaterial.h</text>
</a>
</g>
</g>
<!-- Node3&#45;&gt;Node4 -->
<g id="edge3" class="edge">
<title>Node3&#45;&gt;Node4</title>
<path fill="none" stroke="midnightblue" d="M373.22,-57.94C311.5,-48.53 201.88,-31.8 131.51,-21.07"/>
<polygon fill="midnightblue" stroke="midnightblue" points="131.83,-17.58 121.42,-19.53 130.78,-24.5 131.83,-17.58"/>
</g>
<!-- Node5 -->
<g id="node5" class="node">
<title>Node5</title>
<g id="a_node5"><a xlink:title=" ">
<polygon fill="white" stroke="#bfbfbf" points="149.5,-0.5 149.5,-19.5 253.5,-19.5 253.5,-0.5 149.5,-0.5"/>
<text text-anchor="middle" x="201.5" y="-7.5" font-family="Helvetica,sans-Serif" font-size="10.00">SplineInterpolation.h</text>
</a>
</g>
</g>
<!-- Node3&#45;&gt;Node5 -->
<g id="edge4" class="edge">
<title>Node3&#45;&gt;Node5</title>
<path fill="none" stroke="midnightblue" d="M384.96,-56.44C347.25,-47.1 286.76,-32.12 245.64,-21.93"/>
<polygon fill="midnightblue" stroke="midnightblue" points="246.43,-18.52 235.88,-19.52 244.75,-25.32 246.43,-18.52"/>
</g>
<!-- Node6 -->
<g id="node6" class="node">
<title>Node6</title>
<g id="a_node6"><a xlink:title=" ">
<polygon fill="white" stroke="#bfbfbf" points="272,-0.5 272,-19.5 409,-19.5 409,-0.5 272,-0.5"/>
<text text-anchor="middle" x="340.5" y="-7.5" font-family="Helvetica,sans-Serif" font-size="10.00">BicubicSplineInterpolation.h</text>
</a>
</g>
</g>
<!-- Node3&#45;&gt;Node6 -->
<g id="edge5" class="edge">
<title>Node3&#45;&gt;Node6</title>
<path fill="none" stroke="midnightblue" d="M406.81,-56.32C394.6,-47.98 375.92,-35.21 361.5,-25.35"/>
<polygon fill="midnightblue" stroke="midnightblue" points="363.39,-22.41 353.16,-19.65 359.44,-28.19 363.39,-22.41"/>
</g>
<!-- Node7 -->
<g id="node7" class="node">
<title>Node7</title>
<g id="a_node7"><a xlink:title=" ">
<polygon fill="white" stroke="#bfbfbf" points="427,-0.5 427,-19.5 572,-19.5 572,-0.5 427,-0.5"/>
<text text-anchor="middle" x="499.5" y="-7.5" font-family="Helvetica,sans-Serif" font-size="10.00">MonotoneCubicInterpolation.h</text>
</a>
</g>
</g>
<!-- Node3&#45;&gt;Node7 -->
<g id="edge6" class="edge">
<title>Node3&#45;&gt;Node7</title>
<path fill="none" stroke="midnightblue" d="M432.35,-56.32C444.72,-47.98 463.63,-35.21 478.24,-25.35"/>
<polygon fill="midnightblue" stroke="midnightblue" points="480.35,-28.15 486.68,-19.65 476.43,-22.35 480.35,-28.15"/>
</g>
<!-- Node8 -->
<g id="node8" class="node">
<title>Node8</title>
<g id="a_node8"><a xlink:title=" ">
<polygon fill="white" stroke="#bfbfbf" points="590.5,-0.5 590.5,-19.5 694.5,-19.5 694.5,-0.5 590.5,-0.5"/>
<text text-anchor="middle" x="642.5" y="-7.5" font-family="Helvetica,sans-Serif" font-size="10.00">LinearInterpolation.h</text>
</a>
</g>
</g>
<!-- Node3&#45;&gt;Node8 -->
<g id="edge7" class="edge">
<title>Node3&#45;&gt;Node8</title>
<path fill="none" stroke="midnightblue" d="M454.84,-56.44C493.41,-47.1 555.28,-32.12 597.35,-21.93"/>
<polygon fill="midnightblue" stroke="midnightblue" points="598.43,-25.27 607.33,-19.52 596.79,-18.47 598.43,-25.27"/>
</g>
<!-- Node9 -->
<g id="node9" class="node">
<title>Node9</title>
<g id="a_node9"><a xlink:title=" ">
<polygon fill="white" stroke="#bfbfbf" points="712.5,-0.5 712.5,-19.5 754.5,-19.5 754.5,-0.5 712.5,-0.5"/>
<text text-anchor="middle" x="733.5" y="-7.5" font-family="Helvetica,sans-Serif" font-size="10.00">json.h</text>
</a>
</g>
</g>
<!-- Node3&#45;&gt;Node9 -->
<g id="edge8" class="edge">
<title>Node3&#45;&gt;Node9</title>
<path fill="none" stroke="midnightblue" d="M465.64,-57.57C468.98,-57.04 472.29,-56.51 475.5,-56 573.65,-40.37 601.74,-42.63 702.32,-20.02"/>
<polygon fill="midnightblue" stroke="midnightblue" points="703.31,-23.38 712.29,-17.75 701.76,-16.55 703.31,-23.38"/>
</g>
</g>
</svg>
