<?xml version="1.0" encoding="UTF-8" standalone="no"?>
<!DOCTYPE svg PUBLIC "-//W3C//DTD SVG 1.1//EN"
 "http://www.w3.org/Graphics/SVG/1.1/DTD/svg11.dtd">
<!-- Generated by graphviz version 2.44.0 ()
 -->
<!-- Title: src/kernels/NtTimeDerivative.C Pages: 1 -->
<svg width="362pt" height="252pt"
 viewBox="0.00 0.00 361.50 252.00" xmlns="http://www.w3.org/2000/svg" xmlns:xlink="http://www.w3.org/1999/xlink">
<g id="graph0" class="graph" transform="scale(1 1) rotate(0) translate(4 248)">
<title>src/kernels/NtTimeDerivative.C</title>
<polygon fill="white" stroke="transparent" points="-4,4 -4,-248 357.5,-248 357.5,4 -4,4"/>
<!-- Node1 -->
<g id="node1" class="node">
<title>Node1</title>
<g id="a_node1"><a xlink:title=" ">
<polygon fill="#bfbfbf" stroke="black" points="119,-224.5 119,-243.5 271,-243.5 271,-224.5 119,-224.5"/>
<text text-anchor="middle" x="195" y="-231.5" font-family="Helvetica,sans-Serif" font-size="10.00">src/kernels/NtTimeDerivative.C</text>
</a>
</g>
</g>
<!-- Node2 -->
<g id="node2" class="node">
<title>Node2</title>
<g id="a_node2"><a xlink:href="_nt_time_derivative_8h.html" target="_top" xlink:title=" ">
<polygon fill="white" stroke="black" points="43,-168.5 43,-187.5 143,-187.5 143,-168.5 43,-168.5"/>
<text text-anchor="middle" x="93" y="-175.5" font-family="Helvetica,sans-Serif" font-size="10.00">NtTimeDerivative.h</text>
</a>
</g>
</g>
<!-- Node1&#45;&gt;Node2 -->
<g id="edge1" class="edge">
<title>Node1&#45;&gt;Node2</title>
<path fill="none" stroke="midnightblue" d="M178.61,-224.32C162.33,-215.7 137.13,-202.36 118.28,-192.39"/>
<polygon fill="midnightblue" stroke="midnightblue" points="119.82,-189.24 109.35,-187.65 116.55,-195.43 119.82,-189.24"/>
</g>
<!-- Node8 -->
<g id="node8" class="node">
<title>Node8</title>
<g id="a_node8"><a xlink:title=" ">
<polygon fill="white" stroke="#bfbfbf" points="161.5,-168.5 161.5,-187.5 228.5,-187.5 228.5,-168.5 161.5,-168.5"/>
<text text-anchor="middle" x="195" y="-175.5" font-family="Helvetica,sans-Serif" font-size="10.00">Assembly.h</text>
</a>
</g>
</g>
<!-- Node1&#45;&gt;Node8 -->
<g id="edge7" class="edge">
<title>Node1&#45;&gt;Node8</title>
<path fill="none" stroke="midnightblue" d="M195,-224.08C195,-217.01 195,-206.86 195,-197.99"/>
<polygon fill="midnightblue" stroke="midnightblue" points="198.5,-197.75 195,-187.75 191.5,-197.75 198.5,-197.75"/>
</g>
<!-- Node9 -->
<g id="node9" class="node">
<title>Node9</title>
<g id="a_node9"><a xlink:title=" ">
<polygon fill="white" stroke="#bfbfbf" points="246.5,-168.5 246.5,-187.5 353.5,-187.5 353.5,-168.5 246.5,-168.5"/>
<text text-anchor="middle" x="300" y="-175.5" font-family="Helvetica,sans-Serif" font-size="10.00">libmesh/quadrature.h</text>
</a>
</g>
</g>
<!-- Node1&#45;&gt;Node9 -->
<g id="edge8" class="edge">
<title>Node1&#45;&gt;Node9</title>
<path fill="none" stroke="midnightblue" d="M211.87,-224.32C228.71,-215.66 254.81,-202.24 274.24,-192.25"/>
<polygon fill="midnightblue" stroke="midnightblue" points="275.88,-195.34 283.17,-187.65 272.68,-189.12 275.88,-195.34"/>
</g>
<!-- Node3 -->
<g id="node3" class="node">
<title>Node3</title>
<g id="a_node3"><a xlink:href="_scalar_transport_time_derivative_8h.html" target="_top" xlink:title=" ">
<polygon fill="white" stroke="black" points="14,-112.5 14,-131.5 172,-131.5 172,-112.5 14,-112.5"/>
<text text-anchor="middle" x="93" y="-119.5" font-family="Helvetica,sans-Serif" font-size="10.00">ScalarTransportTimeDerivative.h</text>
</a>
</g>
</g>
<!-- Node2&#45;&gt;Node3 -->
<g id="edge2" class="edge">
<title>Node2&#45;&gt;Node3</title>
<path fill="none" stroke="midnightblue" d="M93,-168.08C93,-161.01 93,-150.86 93,-141.99"/>
<polygon fill="midnightblue" stroke="midnightblue" points="96.5,-141.75 93,-131.75 89.5,-141.75 96.5,-141.75"/>
</g>
<!-- Node4 -->
<g id="node4" class="node">
<title>Node4</title>
<g id="a_node4"><a xlink:title=" ">
<polygon fill="white" stroke="#bfbfbf" points="0,-56.5 0,-75.5 74,-75.5 74,-56.5 0,-56.5"/>
<text text-anchor="middle" x="37" y="-63.5" font-family="Helvetica,sans-Serif" font-size="10.00">TimeKernel.h</text>
</a>
</g>
</g>
<!-- Node3&#45;&gt;Node4 -->
<g id="edge3" class="edge">
<title>Node3&#45;&gt;Node4</title>
<path fill="none" stroke="midnightblue" d="M84,-112.32C75.81,-104.42 63.49,-92.55 53.53,-82.94"/>
<polygon fill="midnightblue" stroke="midnightblue" points="55.79,-80.26 46.16,-75.83 50.93,-85.29 55.79,-80.26"/>
</g>
<!-- Node5 -->
<g id="node5" class="node">
<title>Node5</title>
<g id="a_node5"><a xlink:href="_scalar_transport_base_8h.html" target="_top" xlink:title=" ">
<polygon fill="white" stroke="black" points="92,-56.5 92,-75.5 208,-75.5 208,-56.5 92,-56.5"/>
<text text-anchor="middle" x="150" y="-63.5" font-family="Helvetica,sans-Serif" font-size="10.00">ScalarTransportBase.h</text>
</a>
</g>
</g>
<!-- Node3&#45;&gt;Node5 -->
<g id="edge4" class="edge">
<title>Node3&#45;&gt;Node5</title>
<path fill="none" stroke="midnightblue" d="M102.16,-112.32C110.5,-104.42 123.03,-92.55 133.18,-82.94"/>
<polygon fill="midnightblue" stroke="midnightblue" points="135.82,-85.25 140.68,-75.83 131.01,-80.17 135.82,-85.25"/>
</g>
<!-- Node6 -->
<g id="node6" class="node">
<title>Node6</title>
<g id="a_node6"><a xlink:title=" ">
<polygon fill="white" stroke="#bfbfbf" points="41,-0.5 41,-19.5 137,-19.5 137,-0.5 41,-0.5"/>
<text text-anchor="middle" x="89" y="-7.5" font-family="Helvetica,sans-Serif" font-size="10.00">InputParameters.h</text>
</a>
</g>
</g>
<!-- Node5&#45;&gt;Node6 -->
<g id="edge5" class="edge">
<title>Node5&#45;&gt;Node6</title>
<path fill="none" stroke="midnightblue" d="M140.2,-56.32C131.18,-48.34 117.59,-36.31 106.68,-26.65"/>
<polygon fill="midnightblue" stroke="midnightblue" points="108.79,-23.84 98.98,-19.83 104.15,-29.08 108.79,-23.84"/>
</g>
<!-- Node7 -->
<g id="node7" class="node">
<title>Node7</title>
<g id="a_node7"><a xlink:title=" ">
<polygon fill="white" stroke="#bfbfbf" points="155.5,-0.5 155.5,-19.5 266.5,-19.5 266.5,-0.5 155.5,-0.5"/>
<text text-anchor="middle" x="211" y="-7.5" font-family="Helvetica,sans-Serif" font-size="10.00">MooseVariableBase.h</text>
</a>
</g>
</g>
<!-- Node5&#45;&gt;Node7 -->
<g id="edge6" class="edge">
<title>Node5&#45;&gt;Node7</title>
<path fill="none" stroke="midnightblue" d="M159.8,-56.32C168.82,-48.34 182.41,-36.31 193.32,-26.65"/>
<polygon fill="midnightblue" stroke="midnightblue" points="195.85,-29.08 201.02,-19.83 191.21,-23.84 195.85,-29.08"/>
</g>
</g>
</svg>
