<?xml version="1.0" encoding="UTF-8" standalone="no"?>
<!DOCTYPE svg PUBLIC "-//W3C//DTD SVG 1.1//EN"
 "http://www.w3.org/Graphics/SVG/1.1/DTD/svg11.dtd">
<!-- Generated by graphviz version 2.44.0 ()
 -->
<!-- Title: include/materials/NuclearMaterial.h Pages: 1 -->
<!--zoomable 229 -->
<svg id="main" version="1.1" xmlns="http://www.w3.org/2000/svg" xmlns:xlink="http://www.w3.org/1999/xlink" xml:space="preserve" onload="init(evt)">
<style type="text/css"><![CDATA[
.edge:hover path { stroke: red; }
.edge:hover polygon { stroke: red; fill: red; }
]]></style>
<script type="text/javascript"><![CDATA[
var edges = document.getElementsByTagName('g');
if (edges && edges.length) {
  for (var i=0;i<edges.length;i++) {
    if (edges[i].id.substr(0,4)=='edge') {
      edges[i].setAttribute('class','edge');
    }
  }
}
]]></script>
        <defs>
                <circle id="rim" cx="0" cy="0" r="7"/>
                <circle id="rim2" cx="0" cy="0" r="3.5"/>
                <g id="zoomPlus">
                        <use xlink:href="#rim" fill="#404040">
                                <set attributeName="fill" to="#808080" begin="zoomplus.mouseover" end="zoomplus.mouseout"/>
                        </use>
                        <path d="M-4,0h8M0,-4v8" fill="none" stroke="white" stroke-width="1.5" pointer-events="none"/>
                </g>
                <g id="zoomMin">
                        <use xlink:href="#rim" fill="#404040">
                                <set attributeName="fill" to="#808080" begin="zoomminus.mouseover" end="zoomminus.mouseout"/>
                        </use>
                        <path d="M-4,0h8" fill="none" stroke="white" stroke-width="1.5" pointer-events="none"/>
                </g>
                <g id="dirArrow">
                        <path fill="none" stroke="white" stroke-width="1.5" d="M0,-3.0v7 M-2.5,-0.5L0,-3.0L2.5,-0.5"/>
                </g>
               <g id="resetDef">
                       <use xlink:href="#rim2" fill="#404040">
                               <set attributeName="fill" to="#808080" begin="reset.mouseover" end="reset.mouseout"/>
                       </use>
               </g>
        </defs>

<script type="text/javascript">
var viewWidth = 804;
var viewHeight = 229;
var sectionId = 'dynsection-1';
</script>
<script xlink:href="svgpan.js"/>
<svg id="graph" class="graph">
<g id="viewport">
<title>include/materials/NuclearMaterial.h</title>
<polygon fill="white" stroke="transparent" points="-4,4 -4,-225 799.5,-225 799.5,4 -4,4"/>
<!-- Node1 -->
<g id="node1" class="node">
<title>Node1</title>
<g id="a_node1"><a xlink:title=" ">
<polygon fill="#bfbfbf" stroke="black" points="352.5,-190.5 352.5,-220.5 479.5,-220.5 479.5,-190.5 352.5,-190.5"/>
<text text-anchor="start" x="360.5" y="-208.5" font-family="Helvetica,sans-Serif" font-size="10.00">include/materials/Nuclear</text>
<text text-anchor="middle" x="416" y="-197.5" font-family="Helvetica,sans-Serif" font-size="10.00">Material.h</text>
</a>
</g>
</g>
<!-- Node2 -->
<g id="node2" class="node">
<title>Node2</title>
<g id="a_node2"><a xlink:href="_nuclear_material_8_c.html" target="_top" xlink:title=" ">
<polygon fill="white" stroke="black" points="181.5,-129 181.5,-148 334.5,-148 334.5,-129 181.5,-129"/>
<text text-anchor="middle" x="258" y="-136" font-family="Helvetica,sans-Serif" font-size="10.00">src/materials/NuclearMaterial.C</text>
</a>
</g>
</g>
<!-- Node1&#45;&gt;Node2 -->
<g id="edge1" class="edge">
<title>Node1&#45;&gt;Node2</title>
<path fill="none" stroke="midnightblue" d="M372.15,-186.46C341.62,-173.9 302.3,-157.72 278.68,-148.01"/>
<polygon fill="midnightblue" stroke="midnightblue" points="371.14,-189.83 381.72,-190.4 373.8,-183.35 371.14,-189.83"/>
</g>
<!-- Node3 -->
<g id="node3" class="node">
<title>Node3</title>
<g id="a_node3"><a xlink:href="_generic_moltres_material_8h.html" target="_top" xlink:title=" ">
<polygon fill="white" stroke="black" points="352.5,-123.5 352.5,-153.5 479.5,-153.5 479.5,-123.5 352.5,-123.5"/>
<text text-anchor="start" x="360.5" y="-141.5" font-family="Helvetica,sans-Serif" font-size="10.00">include/materials/Generic</text>
<text text-anchor="middle" x="416" y="-130.5" font-family="Helvetica,sans-Serif" font-size="10.00">MoltresMaterial.h</text>
</a>
</g>
</g>
<!-- Node1&#45;&gt;Node3 -->
<g id="edge2" class="edge">
<title>Node1&#45;&gt;Node3</title>
<path fill="none" stroke="midnightblue" d="M416,-180.11C416,-171.15 416,-161.32 416,-153.58"/>
<polygon fill="midnightblue" stroke="midnightblue" points="412.5,-180.4 416,-190.4 419.5,-180.4 412.5,-180.4"/>
</g>
<!-- Node11 -->
<g id="node11" class="node">
<title>Node11</title>
<g id="a_node11"><a xlink:href="_moltres_json_material_8h.html" target="_top" xlink:title=" ">
<polygon fill="white" stroke="black" points="582.5,-123.5 582.5,-153.5 707.5,-153.5 707.5,-123.5 582.5,-123.5"/>
<text text-anchor="start" x="590.5" y="-141.5" font-family="Helvetica,sans-Serif" font-size="10.00">include/materials/Moltres</text>
<text text-anchor="middle" x="645" y="-130.5" font-family="Helvetica,sans-Serif" font-size="10.00">JsonMaterial.h</text>
</a>
</g>
</g>
<!-- Node1&#45;&gt;Node11 -->
<g id="edge10" class="edge">
<title>Node1&#45;&gt;Node11</title>
<path fill="none" stroke="midnightblue" d="M475.14,-187.71C512.4,-177.14 559.97,-163.63 595.29,-153.61"/>
<polygon fill="midnightblue" stroke="midnightblue" points="474.07,-184.38 465.41,-190.48 475.98,-191.11 474.07,-184.38"/>
</g>
<!-- Node4 -->
<g id="node4" class="node">
<title>Node4</title>
<g id="a_node4"><a xlink:href="_generic_moltres_material_8_c.html" target="_top" xlink:title=" ">
<polygon fill="white" stroke="black" points="0,-56.5 0,-86.5 142,-86.5 142,-56.5 0,-56.5"/>
<text text-anchor="start" x="8" y="-74.5" font-family="Helvetica,sans-Serif" font-size="10.00">src/materials/GenericMoltres</text>
<text text-anchor="middle" x="71" y="-63.5" font-family="Helvetica,sans-Serif" font-size="10.00">Material.C</text>
</a>
</g>
</g>
<!-- Node3&#45;&gt;Node4 -->
<g id="edge3" class="edge">
<title>Node3&#45;&gt;Node4</title>
<path fill="none" stroke="midnightblue" d="M342.32,-122.88C268.19,-108.68 194.61,-95.07 142.06,-85.44"/>
<polygon fill="midnightblue" stroke="midnightblue" points="341.83,-126.35 352.31,-124.8 343.15,-119.48 341.83,-126.35"/>
</g>
<!-- Node5 -->
<g id="node5" class="node">
<title>Node5</title>
<g id="a_node5"><a xlink:href="_cammi_fuel_8h.html" target="_top" xlink:title=" ">
<polygon fill="white" stroke="black" points="160,-62 160,-81 310,-81 310,-62 160,-62"/>
<text text-anchor="middle" x="235" y="-69" font-family="Helvetica,sans-Serif" font-size="10.00">include/materials/CammiFuel.h</text>
</a>
</g>
</g>
<!-- Node3&#45;&gt;Node5 -->
<g id="edge4" class="edge">
<title>Node3&#45;&gt;Node5</title>
<path fill="none" stroke="midnightblue" d="M367.12,-119.95C331.96,-107.32 286.1,-90.85 258.69,-81.01"/>
<polygon fill="midnightblue" stroke="midnightblue" points="366.13,-123.31 376.73,-123.4 368.5,-116.72 366.13,-123.31"/>
</g>
<!-- Node7 -->
<g id="node7" class="node">
<title>Node7</title>
<g id="a_node7"><a xlink:href="_cammi_moderator_8h.html" target="_top" xlink:title=" ">
<polygon fill="white" stroke="black" points="328.5,-62 328.5,-81 503.5,-81 503.5,-62 328.5,-62"/>
<text text-anchor="middle" x="416" y="-69" font-family="Helvetica,sans-Serif" font-size="10.00">include/materials/CammiModerator.h</text>
</a>
</g>
</g>
<!-- Node3&#45;&gt;Node7 -->
<g id="edge6" class="edge">
<title>Node3&#45;&gt;Node7</title>
<path fill="none" stroke="midnightblue" d="M416,-113.25C416,-102.02 416,-89.38 416,-81.19"/>
<polygon fill="midnightblue" stroke="midnightblue" points="412.5,-113.4 416,-123.4 419.5,-113.4 412.5,-113.4"/>
</g>
<!-- Node9 -->
<g id="node9" class="node">
<title>Node9</title>
<g id="a_node9"><a xlink:href="_rodded_material_8h.html" target="_top" xlink:title=" ">
<polygon fill="white" stroke="black" points="522,-56.5 522,-86.5 648,-86.5 648,-56.5 522,-56.5"/>
<text text-anchor="start" x="530" y="-74.5" font-family="Helvetica,sans-Serif" font-size="10.00">include/materials/Rodded</text>
<text text-anchor="middle" x="585" y="-63.5" font-family="Helvetica,sans-Serif" font-size="10.00">Material.h</text>
</a>
</g>
</g>
<!-- Node3&#45;&gt;Node9 -->
<g id="edge8" class="edge">
<title>Node3&#45;&gt;Node9</title>
<path fill="none" stroke="midnightblue" d="M462.33,-119.68C489.43,-109.26 523.17,-96.28 548.4,-86.58"/>
<polygon fill="midnightblue" stroke="midnightblue" points="460.75,-116.54 452.67,-123.4 463.26,-123.07 460.75,-116.54"/>
</g>
<!-- Node6 -->
<g id="node6" class="node">
<title>Node6</title>
<g id="a_node6"><a xlink:href="_cammi_fuel_8_c.html" target="_top" xlink:title=" ">
<polygon fill="white" stroke="black" points="168,-0.5 168,-19.5 302,-19.5 302,-0.5 168,-0.5"/>
<text text-anchor="middle" x="235" y="-7.5" font-family="Helvetica,sans-Serif" font-size="10.00">src/materials/CammiFuel.C</text>
</a>
</g>
</g>
<!-- Node5&#45;&gt;Node6 -->
<g id="edge5" class="edge">
<title>Node5&#45;&gt;Node6</title>
<path fill="none" stroke="midnightblue" d="M235,-51.82C235,-41 235,-27.9 235,-19.51"/>
<polygon fill="midnightblue" stroke="midnightblue" points="231.5,-51.98 235,-61.98 238.5,-51.98 231.5,-51.98"/>
</g>
<!-- Node8 -->
<g id="node8" class="node">
<title>Node8</title>
<g id="a_node8"><a xlink:href="_cammi_moderator_8_c.html" target="_top" xlink:title=" ">
<polygon fill="white" stroke="black" points="333.5,-0.5 333.5,-19.5 492.5,-19.5 492.5,-0.5 333.5,-0.5"/>
<text text-anchor="middle" x="413" y="-7.5" font-family="Helvetica,sans-Serif" font-size="10.00">src/materials/CammiModerator.C</text>
</a>
</g>
</g>
<!-- Node7&#45;&gt;Node8 -->
<g id="edge7" class="edge">
<title>Node7&#45;&gt;Node8</title>
<path fill="none" stroke="midnightblue" d="M415.06,-51.82C414.51,-41 413.85,-27.9 413.43,-19.51"/>
<polygon fill="midnightblue" stroke="midnightblue" points="411.57,-52.16 415.57,-61.98 418.56,-51.81 411.57,-52.16"/>
</g>
<!-- Node10 -->
<g id="node10" class="node">
<title>Node10</title>
<g id="a_node10"><a xlink:href="_rodded_material_8_c.html" target="_top" xlink:title=" ">
<polygon fill="white" stroke="black" points="511,-0.5 511,-19.5 663,-19.5 663,-0.5 511,-0.5"/>
<text text-anchor="middle" x="587" y="-7.5" font-family="Helvetica,sans-Serif" font-size="10.00">src/materials/RoddedMaterial.C</text>
</a>
</g>
</g>
<!-- Node9&#45;&gt;Node10 -->
<g id="edge9" class="edge">
<title>Node9&#45;&gt;Node10</title>
<path fill="none" stroke="midnightblue" d="M585.81,-46.29C586.13,-36.86 586.47,-26.65 586.71,-19.66"/>
<polygon fill="midnightblue" stroke="midnightblue" points="582.31,-46.29 585.47,-56.4 589.31,-46.52 582.31,-46.29"/>
</g>
<!-- Node12 -->
<g id="node12" class="node">
<title>Node12</title>
<g id="a_node12"><a xlink:href="_moltres_json_material_8_c.html" target="_top" xlink:title=" ">
<polygon fill="white" stroke="black" points="666.5,-56.5 666.5,-86.5 795.5,-86.5 795.5,-56.5 666.5,-56.5"/>
<text text-anchor="start" x="674.5" y="-74.5" font-family="Helvetica,sans-Serif" font-size="10.00">src/materials/MoltresJson</text>
<text text-anchor="middle" x="731" y="-63.5" font-family="Helvetica,sans-Serif" font-size="10.00">Material.C</text>
</a>
</g>
</g>
<!-- Node11&#45;&gt;Node12 -->
<g id="edge11" class="edge">
<title>Node11&#45;&gt;Node12</title>
<path fill="none" stroke="midnightblue" d="M671.9,-117.17C685.05,-107.23 700.55,-95.51 712.38,-86.58"/>
<polygon fill="midnightblue" stroke="midnightblue" points="669.53,-114.57 663.66,-123.4 673.75,-120.16 669.53,-114.57"/>
</g>
</g>
</svg>
        <g id="navigator" transform="translate(0 0)" fill="#404254">
                <rect fill="#f2f5e9" fill-opacity="0.5" stroke="#606060" stroke-width=".5" x="0" y="0" width="60" height="60"/>
                <use id="zoomplus" xlink:href="#zoomPlus" x="17" y="9" onmousedown="handleZoom(evt,'in')"/>
                <use id="zoomminus" xlink:href="#zoomMin" x="42" y="9" onmousedown="handleZoom(evt,'out')"/>
                <use id="reset" xlink:href="#resetDef" x="30" y="36" onmousedown="handleReset()"/>
                <g id="arrowUp" xlink:href="#dirArrow" transform="translate(30 24)" onmousedown="handlePan(0,-1)">
                  <use xlink:href="#rim" fill="#404040">
                        <set attributeName="fill" to="#808080" begin="arrowUp.mouseover" end="arrowUp.mouseout"/>
                  </use>
                  <path fill="none" stroke="white" stroke-width="1.5" d="M0,-3.0v7 M-2.5,-0.5L0,-3.0L2.5,-0.5"/>
                </g>
                <g id="arrowRight" xlink:href="#dirArrow" transform="rotate(90) translate(36 -43)" onmousedown="handlePan(1,0)">
                  <use xlink:href="#rim" fill="#404040">
                        <set attributeName="fill" to="#808080" begin="arrowRight.mouseover" end="arrowRight.mouseout"/>
                  </use>
                  <path fill="none" stroke="white" stroke-width="1.5" d="M0,-3.0v7 M-2.5,-0.5L0,-3.0L2.5,-0.5"/>
                </g>
                <g id="arrowDown" xlink:href="#dirArrow" transform="rotate(180) translate(-30 -48)" onmousedown="handlePan(0,1)">
                  <use xlink:href="#rim" fill="#404040">
                        <set attributeName="fill" to="#808080" begin="arrowDown.mouseover" end="arrowDown.mouseout"/>
                  </use>
                  <path fill="none" stroke="white" stroke-width="1.5" d="M0,-3.0v7 M-2.5,-0.5L0,-3.0L2.5,-0.5"/>
                </g>
                <g id="arrowLeft" xlink:href="#dirArrow" transform="rotate(270) translate(-36 17)" onmousedown="handlePan(-1,0)">
                  <use xlink:href="#rim" fill="#404040">
                        <set attributeName="fill" to="#808080" begin="arrowLeft.mouseover" end="arrowLeft.mouseout"/>
                  </use>
                  <path fill="none" stroke="white" stroke-width="1.5" d="M0,-3.0v7 M-2.5,-0.5L0,-3.0L2.5,-0.5"/>
                </g>
        </g>
        <svg viewBox="0 0 15 15" width="100%" height="30px" preserveAspectRatio="xMaxYMin meet">
         <g id="arrow_out" transform="scale(0.3 0.3)">
          <a xlink:href="_nuclear_material_8h__dep__incl_org.svg" target="_base">
           <rect id="button" ry="5" rx="5" y="6" x="6" height="38" width="38"
                fill="#f2f5e9" fill-opacity="0.5" stroke="#606060" stroke-width="1.0"/>
           <path id="arrow"
             d="M 11.500037,31.436501 C 11.940474,20.09759 22.043105,11.32322 32.158766,21.979434 L 37.068811,17.246167 C 37.068811,17.246167 37.088388,32 37.088388,32 L 22.160133,31.978069 C 22.160133,31.978069 26.997745,27.140456 26.997745,27.140456 C 18.528582,18.264221 13.291696,25.230495 11.500037,31.436501 z"
             style="fill:#404040;"/>
          </a>
         </g>
        </svg>
</svg>
