<?xml version="1.0" encoding="UTF-8" standalone="no"?>
<!DOCTYPE svg PUBLIC "-//W3C//DTD SVG 1.1//EN"
 "http://www.w3.org/Graphics/SVG/1.1/DTD/svg11.dtd">
<!-- Generated by graphviz version 2.43.0 (0)
 -->
<!-- Title: include/materials/NuclearMaterial.h Pages: 1 -->
<!--zoomable 229 -->
<svg id="main" version="1.1" xmlns="http://www.w3.org/2000/svg" xmlns:xlink="http://www.w3.org/1999/xlink" xml:space="preserve" onload="init(evt)">
<style type="text/css"><![CDATA[
.edge:hover path { stroke: red; }
.edge:hover polygon { stroke: red; fill: red; }
]]></style>
<script type="text/javascript"><![CDATA[
var edges = document.getElementsByTagName('g');
if (edges && edges.length) {
  for (var i=0;i<edges.length;i++) {
    if (edges[i].id.substr(0,4)=='edge') {
      edges[i].setAttribute('class','edge');
    }
  }
}
]]></script>
        <defs>
                <circle id="rim" cx="0" cy="0" r="7"/>
                <circle id="rim2" cx="0" cy="0" r="3.5"/>
                <g id="zoomPlus">
                        <use xlink:href="#rim" fill="#404040">
                                <set attributeName="fill" to="#808080" begin="zoomplus.mouseover" end="zoomplus.mouseout"/>
                        </use>
                        <path d="M-4,0h8M0,-4v8" fill="none" stroke="white" stroke-width="1.5" pointer-events="none"/>
                </g>
                <g id="zoomMin">
                        <use xlink:href="#rim" fill="#404040">
                                <set attributeName="fill" to="#808080" begin="zoomminus.mouseover" end="zoomminus.mouseout"/>
                        </use>
                        <path d="M-4,0h8" fill="none" stroke="white" stroke-width="1.5" pointer-events="none"/>
                </g>
                <g id="dirArrow">
                        <path fill="none" stroke="white" stroke-width="1.5" d="M0,-3.0v7 M-2.5,-0.5L0,-3.0L2.5,-0.5"/>
                </g>
               <g id="resetDef">
                       <use xlink:href="#rim2" fill="#404040">
                               <set attributeName="fill" to="#808080" begin="reset.mouseover" end="reset.mouseout"/>
                       </use>
               </g>
        </defs>

<script type="text/javascript">
var viewWidth = 807;
var viewHeight = 229;
var sectionId = 'dynsection-1';
</script>
<script xlink:href="svgpan.js"/>
<svg id="graph" class="graph">
<g id="viewport">
<title>include/materials/NuclearMaterial.h</title>
<polygon fill="white" stroke="transparent" points="-4,4 -4,-225 802.5,-225 802.5,4 -4,4"/>
<!-- Node1 -->
<g id="node1" class="node">
<title>Node1</title>
<g id="a_node1"><a xlink:title=" ">
<polygon fill="#bfbfbf" stroke="black" points="354.5,-190.5 354.5,-220.5 481.5,-220.5 481.5,-190.5 354.5,-190.5"/>
<text text-anchor="start" x="362.5" y="-208.5" font-family="Helvetica,sans-Serif" font-size="10.00">include/materials/Nuclear</text>
<text text-anchor="middle" x="418" y="-197.5" font-family="Helvetica,sans-Serif" font-size="10.00">Material.h</text>
</a>
</g>
</g>
<!-- Node2 -->
<g id="node2" class="node">
<title>Node2</title>
<g id="a_node2"><a xlink:href="_nuclear_material_8_c.html" target="_top" xlink:title=" ">
<polygon fill="white" stroke="black" points="181.5,-129 181.5,-148 336.5,-148 336.5,-129 181.5,-129"/>
<text text-anchor="middle" x="259" y="-136" font-family="Helvetica,sans-Serif" font-size="10.00">src/materials/NuclearMaterial.C</text>
</a>
</g>
</g>
<!-- Node1&#45;&gt;Node2 -->
<g id="edge1" class="edge">
<title>Node1&#45;&gt;Node2</title>
<path fill="none" stroke="midnightblue" d="M373.87,-186.46C343.15,-173.9 303.58,-157.72 279.81,-148.01"/>
<polygon fill="midnightblue" stroke="midnightblue" points="372.92,-189.85 383.5,-190.4 375.57,-183.37 372.92,-189.85"/>
</g>
<!-- Node3 -->
<g id="node3" class="node">
<title>Node3</title>
<g id="a_node3"><a xlink:href="_generic_moltres_material_8h.html" target="_top" xlink:title=" ">
<polygon fill="white" stroke="black" points="354.5,-123.5 354.5,-153.5 481.5,-153.5 481.5,-123.5 354.5,-123.5"/>
<text text-anchor="start" x="362.5" y="-141.5" font-family="Helvetica,sans-Serif" font-size="10.00">include/materials/Generic</text>
<text text-anchor="middle" x="418" y="-130.5" font-family="Helvetica,sans-Serif" font-size="10.00">MoltresMaterial.h</text>
</a>
</g>
</g>
<!-- Node1&#45;&gt;Node3 -->
<g id="edge2" class="edge">
<title>Node1&#45;&gt;Node3</title>
<path fill="none" stroke="midnightblue" d="M418,-180.11C418,-171.15 418,-161.32 418,-153.58"/>
<polygon fill="midnightblue" stroke="midnightblue" points="414.5,-180.4 418,-190.4 421.5,-180.4 414.5,-180.4"/>
</g>
<!-- Node11 -->
<g id="node11" class="node">
<title>Node11</title>
<g id="a_node11"><a xlink:href="_moltres_json_material_8h.html" target="_top" xlink:title=" ">
<polygon fill="white" stroke="black" points="585.5,-123.5 585.5,-153.5 710.5,-153.5 710.5,-123.5 585.5,-123.5"/>
<text text-anchor="start" x="593.5" y="-141.5" font-family="Helvetica,sans-Serif" font-size="10.00">include/materials/Moltres</text>
<text text-anchor="middle" x="648" y="-130.5" font-family="Helvetica,sans-Serif" font-size="10.00">JsonMaterial.h</text>
</a>
</g>
</g>
<!-- Node1&#45;&gt;Node11 -->
<g id="edge10" class="edge">
<title>Node1&#45;&gt;Node11</title>
<path fill="none" stroke="midnightblue" d="M477.39,-187.71C514.82,-177.14 562.6,-163.63 598.07,-153.61"/>
<polygon fill="midnightblue" stroke="midnightblue" points="476.29,-184.39 467.62,-190.48 478.2,-191.12 476.29,-184.39"/>
</g>
<!-- Node4 -->
<g id="node4" class="node">
<title>Node4</title>
<g id="a_node4"><a xlink:href="_generic_moltres_material_8_c.html" target="_top" xlink:title=" ">
<polygon fill="white" stroke="black" points="0,-56.5 0,-86.5 142,-86.5 142,-56.5 0,-56.5"/>
<text text-anchor="start" x="8" y="-74.5" font-family="Helvetica,sans-Serif" font-size="10.00">src/materials/GenericMoltres</text>
<text text-anchor="middle" x="71" y="-63.5" font-family="Helvetica,sans-Serif" font-size="10.00">Material.C</text>
</a>
</g>
</g>
<!-- Node3&#45;&gt;Node4 -->
<g id="edge3" class="edge">
<title>Node3&#45;&gt;Node4</title>
<path fill="none" stroke="midnightblue" d="M344.27,-122.88C294.35,-113.4 205.57,-97.1 142.3,-85.53"/>
<polygon fill="midnightblue" stroke="midnightblue" points="343.83,-126.36 354.31,-124.8 345.14,-119.48 343.83,-126.36"/>
</g>
<!-- Node5 -->
<g id="node5" class="node">
<title>Node5</title>
<g id="a_node5"><a xlink:href="_cammi_fuel_8h.html" target="_top" xlink:title=" ">
<polygon fill="white" stroke="black" points="160,-62 160,-81 312,-81 312,-62 160,-62"/>
<text text-anchor="middle" x="236" y="-69" font-family="Helvetica,sans-Serif" font-size="10.00">include/materials/CammiFuel.h</text>
</a>
</g>
</g>
<!-- Node3&#45;&gt;Node5 -->
<g id="edge4" class="edge">
<title>Node3&#45;&gt;Node5</title>
<path fill="none" stroke="midnightblue" d="M368.85,-119.95C333.5,-107.32 287.38,-90.85 259.82,-81.01"/>
<polygon fill="midnightblue" stroke="midnightblue" points="367.91,-123.33 378.51,-123.4 370.27,-116.74 367.91,-123.33"/>
</g>
<!-- Node7 -->
<g id="node7" class="node">
<title>Node7</title>
<g id="a_node7"><a xlink:href="_cammi_moderator_8h.html" target="_top" xlink:title=" ">
<polygon fill="white" stroke="black" points="330,-62 330,-81 506,-81 506,-62 330,-62"/>
<text text-anchor="middle" x="418" y="-69" font-family="Helvetica,sans-Serif" font-size="10.00">include/materials/CammiModerator.h</text>
</a>
</g>
</g>
<!-- Node3&#45;&gt;Node7 -->
<g id="edge6" class="edge">
<title>Node3&#45;&gt;Node7</title>
<path fill="none" stroke="midnightblue" d="M418,-113.25C418,-102.02 418,-89.38 418,-81.19"/>
<polygon fill="midnightblue" stroke="midnightblue" points="414.5,-113.4 418,-123.4 421.5,-113.4 414.5,-113.4"/>
</g>
<!-- Node9 -->
<g id="node9" class="node">
<title>Node9</title>
<g id="a_node9"><a xlink:href="_rodded_material_8h.html" target="_top" xlink:title=" ">
<polygon fill="white" stroke="black" points="524.5,-56.5 524.5,-86.5 651.5,-86.5 651.5,-56.5 524.5,-56.5"/>
<text text-anchor="start" x="532.5" y="-74.5" font-family="Helvetica,sans-Serif" font-size="10.00">include/materials/Rodded</text>
<text text-anchor="middle" x="588" y="-63.5" font-family="Helvetica,sans-Serif" font-size="10.00">Material.h</text>
</a>
</g>
</g>
<!-- Node3&#45;&gt;Node9 -->
<g id="edge8" class="edge">
<title>Node3&#45;&gt;Node9</title>
<path fill="none" stroke="midnightblue" d="M464.24,-119.82C491.57,-109.37 525.69,-96.32 551.18,-86.58"/>
<polygon fill="midnightblue" stroke="midnightblue" points="462.98,-116.56 454.89,-123.4 465.48,-123.09 462.98,-116.56"/>
</g>
<!-- Node6 -->
<g id="node6" class="node">
<title>Node6</title>
<g id="a_node6"><a xlink:href="_cammi_fuel_8_c.html" target="_top" xlink:title=" ">
<polygon fill="white" stroke="black" points="167.5,-0.5 167.5,-19.5 304.5,-19.5 304.5,-0.5 167.5,-0.5"/>
<text text-anchor="middle" x="236" y="-7.5" font-family="Helvetica,sans-Serif" font-size="10.00">src/materials/CammiFuel.C</text>
</a>
</g>
</g>
<!-- Node5&#45;&gt;Node6 -->
<g id="edge5" class="edge">
<title>Node5&#45;&gt;Node6</title>
<path fill="none" stroke="midnightblue" d="M236,-51.82C236,-41 236,-27.9 236,-19.51"/>
<polygon fill="midnightblue" stroke="midnightblue" points="232.5,-51.98 236,-61.98 239.5,-51.98 232.5,-51.98"/>
</g>
<!-- Node8 -->
<g id="node8" class="node">
<title>Node8</title>
<g id="a_node8"><a xlink:href="_cammi_moderator_8_c.html" target="_top" xlink:title=" ">
<polygon fill="white" stroke="black" points="334.5,-0.5 334.5,-19.5 495.5,-19.5 495.5,-0.5 334.5,-0.5"/>
<text text-anchor="middle" x="415" y="-7.5" font-family="Helvetica,sans-Serif" font-size="10.00">src/materials/CammiModerator.C</text>
</a>
</g>
</g>
<!-- Node7&#45;&gt;Node8 -->
<g id="edge7" class="edge">
<title>Node7&#45;&gt;Node8</title>
<path fill="none" stroke="midnightblue" d="M417.06,-51.82C416.51,-41 415.85,-27.9 415.43,-19.51"/>
<polygon fill="midnightblue" stroke="midnightblue" points="413.57,-52.16 417.57,-61.98 420.56,-51.81 413.57,-52.16"/>
</g>
<!-- Node10 -->
<g id="node10" class="node">
<title>Node10</title>
<g id="a_node10"><a xlink:href="_rodded_material_8_c.html" target="_top" xlink:title=" ">
<polygon fill="white" stroke="black" points="513.5,-0.5 513.5,-19.5 668.5,-19.5 668.5,-0.5 513.5,-0.5"/>
<text text-anchor="middle" x="591" y="-7.5" font-family="Helvetica,sans-Serif" font-size="10.00">src/materials/RoddedMaterial.C</text>
</a>
</g>
</g>
<!-- Node9&#45;&gt;Node10 -->
<g id="edge9" class="edge">
<title>Node9&#45;&gt;Node10</title>
<path fill="none" stroke="midnightblue" d="M589.22,-46.29C589.7,-36.86 590.21,-26.65 590.56,-19.66"/>
<polygon fill="midnightblue" stroke="midnightblue" points="585.72,-46.24 588.71,-56.4 592.71,-46.59 585.72,-46.24"/>
</g>
<!-- Node12 -->
<g id="node12" class="node">
<title>Node12</title>
<g id="a_node12"><a xlink:href="_moltres_json_material_8_c.html" target="_top" xlink:title=" ">
<polygon fill="white" stroke="black" points="669.5,-56.5 669.5,-86.5 798.5,-86.5 798.5,-56.5 669.5,-56.5"/>
<text text-anchor="start" x="677.5" y="-74.5" font-family="Helvetica,sans-Serif" font-size="10.00">src/materials/MoltresJson</text>
<text text-anchor="middle" x="734" y="-63.5" font-family="Helvetica,sans-Serif" font-size="10.00">Material.C</text>
</a>
</g>
</g>
<!-- Node11&#45;&gt;Node12 -->
<g id="edge11" class="edge">
<title>Node11&#45;&gt;Node12</title>
<path fill="none" stroke="midnightblue" d="M674.9,-117.17C688.05,-107.23 703.55,-95.51 715.38,-86.58"/>
<polygon fill="midnightblue" stroke="midnightblue" points="672.53,-114.57 666.66,-123.4 676.75,-120.16 672.53,-114.57"/>
</g>
</g>
</svg>
        <g id="navigator" transform="translate(0 0)" fill="#404254">
                <rect fill="#f2f5e9" fill-opacity="0.5" stroke="#606060" stroke-width=".5" x="0" y="0" width="60" height="60"/>
                <use id="zoomplus" xlink:href="#zoomPlus" x="17" y="9" onmousedown="handleZoom(evt,'in')"/>
                <use id="zoomminus" xlink:href="#zoomMin" x="42" y="9" onmousedown="handleZoom(evt,'out')"/>
                <use id="reset" xlink:href="#resetDef" x="30" y="36" onmousedown="handleReset()"/>
                <g id="arrowUp" xlink:href="#dirArrow" transform="translate(30 24)" onmousedown="handlePan(0,-1)">
                  <use xlink:href="#rim" fill="#404040">
                        <set attributeName="fill" to="#808080" begin="arrowUp.mouseover" end="arrowUp.mouseout"/>
                  </use>
                  <path fill="none" stroke="white" stroke-width="1.5" d="M0,-3.0v7 M-2.5,-0.5L0,-3.0L2.5,-0.5"/>
                </g>
                <g id="arrowRight" xlink:href="#dirArrow" transform="rotate(90) translate(36 -43)" onmousedown="handlePan(1,0)">
                  <use xlink:href="#rim" fill="#404040">
                        <set attributeName="fill" to="#808080" begin="arrowRight.mouseover" end="arrowRight.mouseout"/>
                  </use>
                  <path fill="none" stroke="white" stroke-width="1.5" d="M0,-3.0v7 M-2.5,-0.5L0,-3.0L2.5,-0.5"/>
                </g>
                <g id="arrowDown" xlink:href="#dirArrow" transform="rotate(180) translate(-30 -48)" onmousedown="handlePan(0,1)">
                  <use xlink:href="#rim" fill="#404040">
                        <set attributeName="fill" to="#808080" begin="arrowDown.mouseover" end="arrowDown.mouseout"/>
                  </use>
                  <path fill="none" stroke="white" stroke-width="1.5" d="M0,-3.0v7 M-2.5,-0.5L0,-3.0L2.5,-0.5"/>
                </g>
                <g id="arrowLeft" xlink:href="#dirArrow" transform="rotate(270) translate(-36 17)" onmousedown="handlePan(-1,0)">
                  <use xlink:href="#rim" fill="#404040">
                        <set attributeName="fill" to="#808080" begin="arrowLeft.mouseover" end="arrowLeft.mouseout"/>
                  </use>
                  <path fill="none" stroke="white" stroke-width="1.5" d="M0,-3.0v7 M-2.5,-0.5L0,-3.0L2.5,-0.5"/>
                </g>
        </g>
        <svg viewBox="0 0 15 15" width="100%" height="30px" preserveAspectRatio="xMaxYMin meet">
         <g id="arrow_out" transform="scale(0.3 0.3)">
          <a xlink:href="_nuclear_material_8h__dep__incl_org.svg" target="_base">
           <rect id="button" ry="5" rx="5" y="6" x="6" height="38" width="38"
                fill="#f2f5e9" fill-opacity="0.5" stroke="#606060" stroke-width="1.0"/>
           <path id="arrow"
             d="M 11.500037,31.436501 C 11.940474,20.09759 22.043105,11.32322 32.158766,21.979434 L 37.068811,17.246167 C 37.068811,17.246167 37.088388,32 37.088388,32 L 22.160133,31.978069 C 22.160133,31.978069 26.997745,27.140456 26.997745,27.140456 C 18.528582,18.264221 13.291696,25.230495 11.500037,31.436501 z"
             style="fill:#404040;"/>
          </a>
         </g>
        </svg>
</svg>
