<?xml version="1.0" encoding="UTF-8" standalone="no"?>
<!DOCTYPE svg PUBLIC "-//W3C//DTD SVG 1.1//EN"
 "http://www.w3.org/Graphics/SVG/1.1/DTD/svg11.dtd">
<!-- Generated by graphviz version 2.44.0 ()
 -->
<!-- Title: include/base/ScalarTransportBase.h Pages: 1 -->
<!--zoomable 173 -->
<svg id="main" version="1.1" xmlns="http://www.w3.org/2000/svg" xmlns:xlink="http://www.w3.org/1999/xlink" xml:space="preserve" onload="init(evt)">
<style type="text/css"><![CDATA[
.edge:hover path { stroke: red; }
.edge:hover polygon { stroke: red; fill: red; }
]]></style>
<script type="text/javascript"><![CDATA[
var edges = document.getElementsByTagName('g');
if (edges && edges.length) {
  for (var i=0;i<edges.length;i++) {
    if (edges[i].id.substr(0,4)=='edge') {
      edges[i].setAttribute('class','edge');
    }
  }
}
]]></script>
        <defs>
                <circle id="rim" cx="0" cy="0" r="7"/>
                <circle id="rim2" cx="0" cy="0" r="3.5"/>
                <g id="zoomPlus">
                        <use xlink:href="#rim" fill="#404040">
                                <set attributeName="fill" to="#808080" begin="zoomplus.mouseover" end="zoomplus.mouseout"/>
                        </use>
                        <path d="M-4,0h8M0,-4v8" fill="none" stroke="white" stroke-width="1.5" pointer-events="none"/>
                </g>
                <g id="zoomMin">
                        <use xlink:href="#rim" fill="#404040">
                                <set attributeName="fill" to="#808080" begin="zoomminus.mouseover" end="zoomminus.mouseout"/>
                        </use>
                        <path d="M-4,0h8" fill="none" stroke="white" stroke-width="1.5" pointer-events="none"/>
                </g>
                <g id="dirArrow">
                        <path fill="none" stroke="white" stroke-width="1.5" d="M0,-3.0v7 M-2.5,-0.5L0,-3.0L2.5,-0.5"/>
                </g>
               <g id="resetDef">
                       <use xlink:href="#rim2" fill="#404040">
                               <set attributeName="fill" to="#808080" begin="reset.mouseover" end="reset.mouseout"/>
                       </use>
               </g>
        </defs>

<script type="text/javascript">
var viewWidth = 4083;
var viewHeight = 173;
var sectionId = 'dynsection-1';
</script>
<script xlink:href="svgpan.js"/>
<svg id="graph" class="graph">
<g id="viewport">
<title>include/base/ScalarTransportBase.h</title>
<polygon fill="white" stroke="transparent" points="-4,4 -4,-169 4078.5,-169 4078.5,4 -4,4"/>
<!-- Node1 -->
<g id="node1" class="node">
<title>Node1</title>
<g id="a_node1"><a xlink:title=" ">
<polygon fill="#bfbfbf" stroke="black" points="1950.5,-134.5 1950.5,-164.5 2093.5,-164.5 2093.5,-134.5 1950.5,-134.5"/>
<text text-anchor="start" x="1958.5" y="-152.5" font-family="Helvetica,sans-Serif" font-size="10.00">include/base/ScalarTransport</text>
<text text-anchor="middle" x="2022" y="-141.5" font-family="Helvetica,sans-Serif" font-size="10.00">Base.h</text>
</a>
</g>
</g>
<!-- Node2 -->
<g id="node2" class="node">
<title>Node2</title>
<g id="a_node2"><a xlink:href="_scalar_transport_base_8_c.html" target="_top" xlink:title=" ">
<polygon fill="white" stroke="black" points="0,-67.5 0,-97.5 126,-97.5 126,-67.5 0,-67.5"/>
<text text-anchor="start" x="8" y="-85.5" font-family="Helvetica,sans-Serif" font-size="10.00">src/base/ScalarTransport</text>
<text text-anchor="middle" x="63" y="-74.5" font-family="Helvetica,sans-Serif" font-size="10.00">Base.C</text>
</a>
</g>
</g>
<!-- Node1&#45;&gt;Node2 -->
<g id="edge1" class="edge">
<title>Node1&#45;&gt;Node2</title>
<path fill="none" stroke="midnightblue" d="M1939.95,-148.18C1624.89,-146.67 492.5,-138.48 135,-98 132.09,-97.67 129.11,-97.28 126.12,-96.85"/>
<polygon fill="midnightblue" stroke="midnightblue" points="1940.35,-151.68 1950.37,-148.23 1940.38,-144.68 1940.35,-151.68"/>
</g>
<!-- Node3 -->
<g id="node3" class="node">
<title>Node3</title>
<g id="a_node3"><a xlink:href="_coupled_scalar_advection_no_b_c_b_c_8h.html" target="_top" xlink:title=" ">
<polygon fill="white" stroke="black" points="144,-67.5 144,-97.5 276,-97.5 276,-67.5 144,-67.5"/>
<text text-anchor="start" x="152" y="-85.5" font-family="Helvetica,sans-Serif" font-size="10.00">include/bcs/CoupledScalar</text>
<text text-anchor="middle" x="210" y="-74.5" font-family="Helvetica,sans-Serif" font-size="10.00">AdvectionNoBCBC.h</text>
</a>
</g>
</g>
<!-- Node1&#45;&gt;Node3 -->
<g id="edge2" class="edge">
<title>Node1&#45;&gt;Node3</title>
<path fill="none" stroke="midnightblue" d="M1939.8,-147.88C1640.84,-145.33 611.73,-134.09 285,-98 282.1,-97.68 279.14,-97.31 276.16,-96.89"/>
<polygon fill="midnightblue" stroke="midnightblue" points="1940.1,-151.38 1950.13,-147.96 1940.16,-144.38 1940.1,-151.38"/>
</g>
<!-- Node5 -->
<g id="node5" class="node">
<title>Node5</title>
<g id="a_node5"><a xlink:href="_lin_log_penalty_dirichlet_b_c_8h.html" target="_top" xlink:title=" ">
<polygon fill="white" stroke="black" points="294.5,-67.5 294.5,-97.5 425.5,-97.5 425.5,-67.5 294.5,-67.5"/>
<text text-anchor="start" x="302.5" y="-85.5" font-family="Helvetica,sans-Serif" font-size="10.00">include/bcs/LinLogPenalty</text>
<text text-anchor="middle" x="360" y="-74.5" font-family="Helvetica,sans-Serif" font-size="10.00">DirichletBC.h</text>
</a>
</g>
</g>
<!-- Node1&#45;&gt;Node5 -->
<g id="edge4" class="edge">
<title>Node1&#45;&gt;Node5</title>
<path fill="none" stroke="midnightblue" d="M1940.34,-147.62C1659.01,-144.32 731.15,-131.13 435,-98 431.97,-97.66 428.88,-97.27 425.76,-96.83"/>
<polygon fill="midnightblue" stroke="midnightblue" points="1940.43,-151.12 1950.47,-147.74 1940.51,-144.12 1940.43,-151.12"/>
</g>
<!-- Node7 -->
<g id="node7" class="node">
<title>Node7</title>
<g id="a_node7"><a xlink:href="_scalar_advection_art_diff_no_b_c_b_c_8h.html" target="_top" xlink:title=" ">
<polygon fill="white" stroke="black" points="444,-67.5 444,-97.5 584,-97.5 584,-67.5 444,-67.5"/>
<text text-anchor="start" x="452" y="-85.5" font-family="Helvetica,sans-Serif" font-size="10.00">include/bcs/ScalarAdvection</text>
<text text-anchor="middle" x="514" y="-74.5" font-family="Helvetica,sans-Serif" font-size="10.00">ArtDiffNoBCBC.h</text>
</a>
</g>
</g>
<!-- Node1&#45;&gt;Node7 -->
<g id="edge6" class="edge">
<title>Node1&#45;&gt;Node7</title>
<path fill="none" stroke="midnightblue" d="M1940.16,-147.18C1677.39,-142.7 856.93,-126.73 593,-98 590.09,-97.68 587.12,-97.32 584.13,-96.92"/>
<polygon fill="midnightblue" stroke="midnightblue" points="1940.33,-150.69 1950.39,-147.36 1940.45,-143.69 1940.33,-150.69"/>
</g>
<!-- Node9 -->
<g id="node9" class="node">
<title>Node9</title>
<g id="a_node9"><a xlink:href="_vacuum_conc_b_c_8h.html" target="_top" xlink:title=" ">
<polygon fill="white" stroke="black" points="602.5,-73 602.5,-92 751.5,-92 751.5,-73 602.5,-73"/>
<text text-anchor="middle" x="677" y="-80" font-family="Helvetica,sans-Serif" font-size="10.00">include/bcs/VacuumConcBC.h</text>
</a>
</g>
</g>
<!-- Node1&#45;&gt;Node9 -->
<g id="edge8" class="edge">
<title>Node1&#45;&gt;Node9</title>
<path fill="none" stroke="midnightblue" d="M1940.12,-148.92C1738.84,-149.16 1204.04,-144.91 761,-98 747.61,-96.58 733.12,-94.34 720.01,-92.04"/>
<polygon fill="midnightblue" stroke="midnightblue" points="1940.32,-152.42 1950.31,-148.91 1940.31,-145.42 1940.32,-152.42"/>
</g>
<!-- Node11 -->
<g id="node11" class="node">
<title>Node11</title>
<g id="a_node11"><a xlink:href="_coupled_fission_eigen_kernel_8h.html" target="_top" xlink:title=" ">
<polygon fill="white" stroke="black" points="770,-67.5 770,-97.5 922,-97.5 922,-67.5 770,-67.5"/>
<text text-anchor="start" x="778" y="-85.5" font-family="Helvetica,sans-Serif" font-size="10.00">include/kernels/CoupledFission</text>
<text text-anchor="middle" x="846" y="-74.5" font-family="Helvetica,sans-Serif" font-size="10.00">EigenKernel.h</text>
</a>
</g>
</g>
<!-- Node1&#45;&gt;Node11 -->
<g id="edge10" class="edge">
<title>Node1&#45;&gt;Node11</title>
<path fill="none" stroke="midnightblue" d="M1940.26,-148.14C1758.37,-146.58 1306.59,-138.57 931,-98 928.17,-97.69 925.3,-97.35 922.39,-96.99"/>
<polygon fill="midnightblue" stroke="midnightblue" points="1940.26,-151.64 1950.28,-148.22 1940.31,-144.64 1940.26,-151.64"/>
</g>
<!-- Node13 -->
<g id="node13" class="node">
<title>Node13</title>
<g id="a_node13"><a xlink:href="_coupled_fission_kernel_8h.html" target="_top" xlink:title=" ">
<polygon fill="white" stroke="black" points="940,-67.5 940,-97.5 1092,-97.5 1092,-67.5 940,-67.5"/>
<text text-anchor="start" x="948" y="-85.5" font-family="Helvetica,sans-Serif" font-size="10.00">include/kernels/CoupledFission</text>
<text text-anchor="middle" x="1016" y="-74.5" font-family="Helvetica,sans-Serif" font-size="10.00">Kernel.h</text>
</a>
</g>
</g>
<!-- Node1&#45;&gt;Node13 -->
<g id="edge12" class="edge">
<title>Node1&#45;&gt;Node13</title>
<path fill="none" stroke="midnightblue" d="M1940.1,-147.14C1778.95,-143.78 1409.51,-132.66 1101,-98 1098.17,-97.68 1095.3,-97.33 1092.4,-96.96"/>
<polygon fill="midnightblue" stroke="midnightblue" points="1940.34,-150.65 1950.41,-147.35 1940.48,-143.65 1940.34,-150.65"/>
</g>
<!-- Node15 -->
<g id="node15" class="node">
<title>Node15</title>
<g id="a_node15"><a xlink:href="_coupled_scalar_advection_8h.html" target="_top" xlink:title=" ">
<polygon fill="white" stroke="black" points="1110,-67.5 1110,-97.5 1258,-97.5 1258,-67.5 1110,-67.5"/>
<text text-anchor="start" x="1118" y="-85.5" font-family="Helvetica,sans-Serif" font-size="10.00">include/kernels/CoupledScalar</text>
<text text-anchor="middle" x="1184" y="-74.5" font-family="Helvetica,sans-Serif" font-size="10.00">Advection.h</text>
</a>
</g>
</g>
<!-- Node1&#45;&gt;Node15 -->
<g id="edge14" class="edge">
<title>Node1&#45;&gt;Node15</title>
<path fill="none" stroke="midnightblue" d="M1940.33,-145.88C1801.55,-140.79 1510.99,-127.39 1267,-98 1264.1,-97.65 1261.14,-97.27 1258.15,-96.86"/>
<polygon fill="midnightblue" stroke="midnightblue" points="1940.34,-149.38 1950.46,-146.25 1940.59,-142.39 1940.34,-149.38"/>
</g>
<!-- Node17 -->
<g id="node17" class="node">
<title>Node17</title>
<g id="a_node17"><a xlink:href="_decay_heat_source_8h.html" target="_top" xlink:title=" ">
<polygon fill="white" stroke="black" points="1276.5,-67.5 1276.5,-97.5 1409.5,-97.5 1409.5,-67.5 1276.5,-67.5"/>
<text text-anchor="start" x="1284.5" y="-85.5" font-family="Helvetica,sans-Serif" font-size="10.00">include/kernels/DecayHeat</text>
<text text-anchor="middle" x="1343" y="-74.5" font-family="Helvetica,sans-Serif" font-size="10.00">Source.h</text>
</a>
</g>
</g>
<!-- Node1&#45;&gt;Node17 -->
<g id="edge16" class="edge">
<title>Node1&#45;&gt;Node17</title>
<path fill="none" stroke="midnightblue" d="M1940.02,-144.37C1823.73,-137.89 1604.4,-123.38 1419,-98 1415.94,-97.58 1412.81,-97.12 1409.66,-96.63"/>
<polygon fill="midnightblue" stroke="midnightblue" points="1940.08,-147.88 1950.26,-144.93 1940.47,-140.89 1940.08,-147.88"/>
</g>
<!-- Node19 -->
<g id="node19" class="node">
<title>Node19</title>
<g id="a_node19"><a xlink:href="_delayed_neutron_eigen_source_8h.html" target="_top" xlink:title=" ">
<polygon fill="white" stroke="black" points="1428,-67.5 1428,-97.5 1582,-97.5 1582,-67.5 1428,-67.5"/>
<text text-anchor="start" x="1436" y="-85.5" font-family="Helvetica,sans-Serif" font-size="10.00">include/kernels/DelayedNeutron</text>
<text text-anchor="middle" x="1505" y="-74.5" font-family="Helvetica,sans-Serif" font-size="10.00">EigenSource.h</text>
</a>
</g>
</g>
<!-- Node1&#45;&gt;Node19 -->
<g id="edge18" class="edge">
<title>Node1&#45;&gt;Node19</title>
<path fill="none" stroke="midnightblue" d="M1940.12,-140.15C1853.3,-131 1712.24,-115.31 1591,-98 1588.15,-97.59 1585.25,-97.17 1582.33,-96.73"/>
<polygon fill="midnightblue" stroke="midnightblue" points="1939.86,-143.64 1950.17,-141.2 1940.59,-136.68 1939.86,-143.64"/>
</g>
<!-- Node21 -->
<g id="node21" class="node">
<title>Node21</title>
<g id="a_node21"><a xlink:href="_delayed_neutron_source_8h.html" target="_top" xlink:title=" ">
<polygon fill="white" stroke="black" points="1600,-67.5 1600,-97.5 1754,-97.5 1754,-67.5 1600,-67.5"/>
<text text-anchor="start" x="1608" y="-85.5" font-family="Helvetica,sans-Serif" font-size="10.00">include/kernels/DelayedNeutron</text>
<text text-anchor="middle" x="1677" y="-74.5" font-family="Helvetica,sans-Serif" font-size="10.00">Source.h</text>
</a>
</g>
</g>
<!-- Node1&#45;&gt;Node21 -->
<g id="edge20" class="edge">
<title>Node1&#45;&gt;Node21</title>
<path fill="none" stroke="midnightblue" d="M1940,-133.05C1882.77,-122.27 1807,-107.99 1751.49,-97.53"/>
<polygon fill="midnightblue" stroke="midnightblue" points="1939.62,-136.54 1950.1,-134.95 1940.92,-129.66 1939.62,-136.54"/>
</g>
<!-- Node23 -->
<g id="node23" class="node">
<title>Node23</title>
<g id="a_node23"><a xlink:href="_div_free_coupled_scalar_advection_8h.html" target="_top" xlink:title=" ">
<polygon fill="white" stroke="black" points="1772,-67.5 1772,-97.5 1926,-97.5 1926,-67.5 1772,-67.5"/>
<text text-anchor="start" x="1780" y="-85.5" font-family="Helvetica,sans-Serif" font-size="10.00">include/kernels/DivFreeCoupled</text>
<text text-anchor="middle" x="1849" y="-74.5" font-family="Helvetica,sans-Serif" font-size="10.00">ScalarAdvection.h</text>
</a>
</g>
</g>
<!-- Node1&#45;&gt;Node23 -->
<g id="edge22" class="edge">
<title>Node1&#45;&gt;Node23</title>
<path fill="none" stroke="midnightblue" d="M1974.94,-130.82C1947.13,-120.37 1912.41,-107.32 1886.47,-97.58"/>
<polygon fill="midnightblue" stroke="midnightblue" points="1973.87,-134.16 1984.46,-134.4 1976.33,-127.6 1973.87,-134.16"/>
</g>
<!-- Node25 -->
<g id="node25" class="node">
<title>Node25</title>
<g id="a_node25"><a xlink:href="_group_diffusion_8h.html" target="_top" xlink:title=" ">
<polygon fill="white" stroke="black" points="1944,-73 1944,-92 2100,-92 2100,-73 1944,-73"/>
<text text-anchor="middle" x="2022" y="-80" font-family="Helvetica,sans-Serif" font-size="10.00">include/kernels/GroupDiffusion.h</text>
</a>
</g>
</g>
<!-- Node1&#45;&gt;Node25 -->
<g id="edge24" class="edge">
<title>Node1&#45;&gt;Node25</title>
<path fill="none" stroke="midnightblue" d="M2022,-124.25C2022,-113.02 2022,-100.38 2022,-92.19"/>
<polygon fill="midnightblue" stroke="midnightblue" points="2018.5,-124.4 2022,-134.4 2025.5,-124.4 2018.5,-124.4"/>
</g>
<!-- Node27 -->
<g id="node27" class="node">
<title>Node27</title>
<g id="a_node27"><a xlink:href="_heat_precursor_decay_8h.html" target="_top" xlink:title=" ">
<polygon fill="white" stroke="black" points="2118,-67.5 2118,-97.5 2266,-97.5 2266,-67.5 2118,-67.5"/>
<text text-anchor="start" x="2126" y="-85.5" font-family="Helvetica,sans-Serif" font-size="10.00">include/kernels/HeatPrecursor</text>
<text text-anchor="middle" x="2192" y="-74.5" font-family="Helvetica,sans-Serif" font-size="10.00">Decay.h</text>
</a>
</g>
</g>
<!-- Node1&#45;&gt;Node27 -->
<g id="edge26" class="edge">
<title>Node1&#45;&gt;Node27</title>
<path fill="none" stroke="midnightblue" d="M2068.24,-130.82C2095.57,-120.37 2129.69,-107.32 2155.18,-97.58"/>
<polygon fill="midnightblue" stroke="midnightblue" points="2066.98,-127.56 2058.89,-134.4 2069.48,-134.09 2066.98,-127.56"/>
</g>
<!-- Node29 -->
<g id="node29" class="node">
<title>Node29</title>
<g id="a_node29"><a xlink:href="_heat_precursor_source_8h.html" target="_top" xlink:title=" ">
<polygon fill="white" stroke="black" points="2284,-67.5 2284,-97.5 2432,-97.5 2432,-67.5 2284,-67.5"/>
<text text-anchor="start" x="2292" y="-85.5" font-family="Helvetica,sans-Serif" font-size="10.00">include/kernels/HeatPrecursor</text>
<text text-anchor="middle" x="2358" y="-74.5" font-family="Helvetica,sans-Serif" font-size="10.00">Source.h</text>
</a>
</g>
</g>
<!-- Node1&#45;&gt;Node29 -->
<g id="edge28" class="edge">
<title>Node1&#45;&gt;Node29</title>
<path fill="none" stroke="midnightblue" d="M2103.83,-132.67C2159.37,-121.93 2232.14,-107.85 2285.57,-97.51"/>
<polygon fill="midnightblue" stroke="midnightblue" points="2102.82,-129.3 2093.67,-134.64 2104.15,-136.17 2102.82,-129.3"/>
</g>
<!-- Node31 -->
<g id="node31" class="node">
<title>Node31</title>
<g id="a_node31"><a xlink:href="_in_scatter_8h.html" target="_top" xlink:title=" ">
<polygon fill="white" stroke="black" points="2450,-73 2450,-92 2582,-92 2582,-73 2450,-73"/>
<text text-anchor="middle" x="2516" y="-80" font-family="Helvetica,sans-Serif" font-size="10.00">include/kernels/InScatter.h</text>
</a>
</g>
</g>
<!-- Node1&#45;&gt;Node31 -->
<g id="edge30" class="edge">
<title>Node1&#45;&gt;Node31</title>
<path fill="none" stroke="midnightblue" d="M2103.82,-140.38C2188.45,-131.57 2324.32,-116.29 2441,-98 2452.01,-96.28 2463.86,-94.12 2474.83,-92.01"/>
<polygon fill="midnightblue" stroke="midnightblue" points="2103.34,-136.91 2093.76,-141.42 2104.07,-143.87 2103.34,-136.91"/>
</g>
<!-- Node33 -->
<g id="node33" class="node">
<title>Node33</title>
<g id="a_node33"><a xlink:href="_precursor_decay_8h.html" target="_top" xlink:title=" ">
<polygon fill="white" stroke="black" points="2600.5,-67.5 2600.5,-97.5 2727.5,-97.5 2727.5,-67.5 2600.5,-67.5"/>
<text text-anchor="start" x="2608.5" y="-85.5" font-family="Helvetica,sans-Serif" font-size="10.00">include/kernels/Precursor</text>
<text text-anchor="middle" x="2664" y="-74.5" font-family="Helvetica,sans-Serif" font-size="10.00">Decay.h</text>
</a>
</g>
</g>
<!-- Node1&#45;&gt;Node33 -->
<g id="edge32" class="edge">
<title>Node1&#45;&gt;Node33</title>
<path fill="none" stroke="midnightblue" d="M2103.8,-144.01C2214.62,-137.3 2418.45,-122.72 2591,-98 2594.07,-97.56 2597.21,-97.08 2600.37,-96.56"/>
<polygon fill="midnightblue" stroke="midnightblue" points="2103.47,-140.53 2093.7,-144.62 2103.89,-147.51 2103.47,-140.53"/>
</g>
<!-- Node35 -->
<g id="node35" class="node">
<title>Node35</title>
<g id="a_node35"><a xlink:href="_precursor_source_8h.html" target="_top" xlink:title=" ">
<polygon fill="white" stroke="black" points="2745.5,-67.5 2745.5,-97.5 2872.5,-97.5 2872.5,-67.5 2745.5,-67.5"/>
<text text-anchor="start" x="2753.5" y="-85.5" font-family="Helvetica,sans-Serif" font-size="10.00">include/kernels/Precursor</text>
<text text-anchor="middle" x="2809" y="-74.5" font-family="Helvetica,sans-Serif" font-size="10.00">Source.h</text>
</a>
</g>
</g>
<!-- Node1&#45;&gt;Node35 -->
<g id="edge34" class="edge">
<title>Node1&#45;&gt;Node35</title>
<path fill="none" stroke="midnightblue" d="M2103.86,-146.05C2236.94,-141.32 2508.23,-128.55 2736,-98 2739.07,-97.59 2742.21,-97.13 2745.38,-96.63"/>
<polygon fill="midnightblue" stroke="midnightblue" points="2103.62,-142.56 2093.75,-146.4 2103.87,-149.55 2103.62,-142.56"/>
</g>
<!-- Node37 -->
<g id="node37" class="node">
<title>Node37</title>
<g id="a_node37"><a xlink:href="_scalar_advection_art_diff_8h.html" target="_top" xlink:title=" ">
<polygon fill="white" stroke="black" points="2891,-67.5 2891,-97.5 3047,-97.5 3047,-67.5 2891,-67.5"/>
<text text-anchor="start" x="2899" y="-85.5" font-family="Helvetica,sans-Serif" font-size="10.00">include/kernels/ScalarAdvection</text>
<text text-anchor="middle" x="2969" y="-74.5" font-family="Helvetica,sans-Serif" font-size="10.00">ArtDiff.h</text>
</a>
</g>
</g>
<!-- Node1&#45;&gt;Node37 -->
<g id="edge36" class="edge">
<title>Node1&#45;&gt;Node37</title>
<path fill="none" stroke="midnightblue" d="M2104.02,-146.53C2257.14,-142.23 2596.72,-129.69 2881,-98 2884.23,-97.64 2887.53,-97.24 2890.85,-96.81"/>
<polygon fill="midnightblue" stroke="midnightblue" points="2103.67,-143.04 2093.77,-146.82 2103.86,-150.04 2103.67,-143.04"/>
</g>
<!-- Node39 -->
<g id="node39" class="node">
<title>Node39</title>
<g id="a_node39"><a xlink:href="_scalar_transport_time_derivative_8h.html" target="_top" xlink:title=" ">
<polygon fill="white" stroke="black" points="3065,-67.5 3065,-97.5 3219,-97.5 3219,-67.5 3065,-67.5"/>
<text text-anchor="start" x="3073" y="-85.5" font-family="Helvetica,sans-Serif" font-size="10.00">include/kernels/ScalarTransport</text>
<text text-anchor="middle" x="3142" y="-74.5" font-family="Helvetica,sans-Serif" font-size="10.00">TimeDerivative.h</text>
</a>
</g>
</g>
<!-- Node1&#45;&gt;Node39 -->
<g id="edge38" class="edge">
<title>Node1&#45;&gt;Node39</title>
<path fill="none" stroke="midnightblue" d="M2103.85,-147.79C2279.01,-145.54 2702.99,-136.24 3056,-98 3058.86,-97.69 3061.77,-97.35 3064.7,-96.98"/>
<polygon fill="midnightblue" stroke="midnightblue" points="2103.64,-144.29 2093.68,-147.91 2103.72,-151.29 2103.64,-144.29"/>
</g>
<!-- Node43 -->
<g id="node42" class="node">
<title>Node43</title>
<g id="a_node42"><a xlink:href="_sigma_r_8h.html" target="_top" xlink:title=" ">
<polygon fill="white" stroke="black" points="3237.5,-73 3237.5,-92 3364.5,-92 3364.5,-73 3237.5,-73"/>
<text text-anchor="middle" x="3301" y="-80" font-family="Helvetica,sans-Serif" font-size="10.00">include/kernels/SigmaR.h</text>
</a>
</g>
</g>
<!-- Node1&#45;&gt;Node43 -->
<g id="edge41" class="edge">
<title>Node1&#45;&gt;Node43</title>
<path fill="none" stroke="midnightblue" d="M2104.06,-146.71C2338.72,-141.35 3009.64,-124.1 3228,-98 3239.68,-96.6 3252.27,-94.37 3263.66,-92.07"/>
<polygon fill="midnightblue" stroke="midnightblue" points="2103.81,-143.22 2093.89,-146.95 2103.97,-150.22 2103.81,-143.22"/>
</g>
<!-- Node45 -->
<g id="node44" class="node">
<title>Node45</title>
<g id="a_node44"><a xlink:href="_transient_fission_heat_source_8h.html" target="_top" xlink:title=" ">
<polygon fill="white" stroke="black" points="3382.5,-67.5 3382.5,-97.5 3507.5,-97.5 3507.5,-67.5 3382.5,-67.5"/>
<text text-anchor="start" x="3390.5" y="-85.5" font-family="Helvetica,sans-Serif" font-size="10.00">include/kernels/Transient</text>
<text text-anchor="middle" x="3445" y="-74.5" font-family="Helvetica,sans-Serif" font-size="10.00">FissionHeatSource.h</text>
</a>
</g>
</g>
<!-- Node1&#45;&gt;Node45 -->
<g id="edge43" class="edge">
<title>Node1&#45;&gt;Node45</title>
<path fill="none" stroke="midnightblue" d="M2104.12,-147.17C2357.57,-142.79 3125.29,-127.38 3373,-98 3376.04,-97.64 3379.14,-97.22 3382.27,-96.75"/>
<polygon fill="midnightblue" stroke="midnightblue" points="2103.82,-143.67 2093.88,-147.34 2103.94,-150.67 2103.82,-143.67"/>
</g>
<!-- Node47 -->
<g id="node46" class="node">
<title>Node47</title>
<g id="a_node46"><a xlink:href="_elm_integ_tot_fiss_postprocessor_8h.html" target="_top" xlink:title=" ">
<polygon fill="white" stroke="black" points="3525.5,-67.5 3525.5,-97.5 3686.5,-97.5 3686.5,-67.5 3525.5,-67.5"/>
<text text-anchor="start" x="3533.5" y="-85.5" font-family="Helvetica,sans-Serif" font-size="10.00">include/postprocessors</text>
<text text-anchor="middle" x="3606" y="-74.5" font-family="Helvetica,sans-Serif" font-size="10.00">/ElmIntegTotFissPostprocessor.h</text>
</a>
</g>
</g>
<!-- Node1&#45;&gt;Node47 -->
<g id="edge45" class="edge">
<title>Node1&#45;&gt;Node47</title>
<path fill="none" stroke="midnightblue" d="M2103.9,-147.11C2374.63,-142.31 3239.33,-125.2 3517,-98 3519.65,-97.74 3522.34,-97.45 3525.05,-97.14"/>
<polygon fill="midnightblue" stroke="midnightblue" points="2103.69,-143.62 2093.75,-147.29 2103.81,-150.62 2103.69,-143.62"/>
</g>
<!-- Node53 -->
<g id="node49" class="node">
<title>Node53</title>
<g id="a_node49"><a xlink:href="_integral_new_variable_postprocessor_8h.html" target="_top" xlink:title=" ">
<polygon fill="white" stroke="red" points="3705,-67.5 3705,-97.5 3883,-97.5 3883,-67.5 3705,-67.5"/>
<text text-anchor="start" x="3713" y="-85.5" font-family="Helvetica,sans-Serif" font-size="10.00">include/postprocessors</text>
<text text-anchor="middle" x="3794" y="-74.5" font-family="Helvetica,sans-Serif" font-size="10.00">/IntegralNewVariablePostprocessor.h</text>
</a>
</g>
</g>
<!-- Node1&#45;&gt;Node53 -->
<g id="edge48" class="edge">
<title>Node1&#45;&gt;Node53</title>
<path fill="none" stroke="midnightblue" d="M2103.63,-147.3C2394.74,-142.83 3381.33,-125.93 3696,-98 3698.91,-97.74 3701.87,-97.45 3704.85,-97.14"/>
<polygon fill="midnightblue" stroke="midnightblue" points="2103.52,-143.8 2093.57,-147.46 2103.63,-150.8 2103.52,-143.8"/>
</g>
<!-- Node55 -->
<g id="node50" class="node">
<title>Node55</title>
<g id="a_node50"><a xlink:href="_integral_old_variable_postprocessor_8h.html" target="_top" xlink:title=" ">
<polygon fill="white" stroke="red" points="3901.5,-67.5 3901.5,-97.5 4074.5,-97.5 4074.5,-67.5 3901.5,-67.5"/>
<text text-anchor="start" x="3909.5" y="-85.5" font-family="Helvetica,sans-Serif" font-size="10.00">include/postprocessors</text>
<text text-anchor="middle" x="3988" y="-74.5" font-family="Helvetica,sans-Serif" font-size="10.00">/IntegralOldVariablePostprocessor.h</text>
</a>
</g>
</g>
<!-- Node1&#45;&gt;Node55 -->
<g id="edge49" class="edge">
<title>Node1&#45;&gt;Node55</title>
<path fill="none" stroke="midnightblue" d="M2104.05,-147.63C2417.18,-144.09 3537.15,-129.47 3892,-98 3895.11,-97.72 3898.26,-97.41 3901.45,-97.07"/>
<polygon fill="midnightblue" stroke="midnightblue" points="2103.65,-144.13 2093.69,-147.74 2103.73,-151.13 2103.65,-144.13"/>
</g>
<!-- Node4 -->
<g id="node4" class="node">
<title>Node4</title>
<g id="a_node4"><a xlink:href="_coupled_scalar_advection_no_b_c_b_c_8_c.html" target="_top" xlink:title=" ">
<polygon fill="white" stroke="black" points="94,-0.5 94,-30.5 252,-30.5 252,-0.5 94,-0.5"/>
<text text-anchor="start" x="102" y="-18.5" font-family="Helvetica,sans-Serif" font-size="10.00">src/bcs/CoupledScalarAdvection</text>
<text text-anchor="middle" x="173" y="-7.5" font-family="Helvetica,sans-Serif" font-size="10.00">NoBCBC.C</text>
</a>
</g>
</g>
<!-- Node3&#45;&gt;Node4 -->
<g id="edge3" class="edge">
<title>Node3&#45;&gt;Node4</title>
<path fill="none" stroke="midnightblue" d="M196.95,-58.58C191.64,-49.24 185.66,-38.75 181.01,-30.58"/>
<polygon fill="midnightblue" stroke="midnightblue" points="193.98,-60.44 201.97,-67.4 200.07,-56.97 193.98,-60.44"/>
</g>
<!-- Node6 -->
<g id="node6" class="node">
<title>Node6</title>
<g id="a_node6"><a xlink:href="_lin_log_penalty_dirichlet_b_c_8_c.html" target="_top" xlink:title=" ">
<polygon fill="white" stroke="black" points="270,-6 270,-25 442,-25 442,-6 270,-6"/>
<text text-anchor="middle" x="356" y="-13" font-family="Helvetica,sans-Serif" font-size="10.00">src/bcs/LinLogPenaltyDirichletBC.C</text>
</a>
</g>
</g>
<!-- Node5&#45;&gt;Node6 -->
<g id="edge5" class="edge">
<title>Node5&#45;&gt;Node6</title>
<path fill="none" stroke="midnightblue" d="M358.51,-57.25C357.82,-46.02 357.04,-33.38 356.54,-25.19"/>
<polygon fill="midnightblue" stroke="midnightblue" points="355.02,-57.63 359.13,-67.4 362.01,-57.2 355.02,-57.63"/>
</g>
<!-- Node8 -->
<g id="node8" class="node">
<title>Node8</title>
<g id="a_node8"><a xlink:href="_scalar_advection_art_diff_no_b_c_b_c_8_c.html" target="_top" xlink:title=" ">
<polygon fill="white" stroke="black" points="460,-0.5 460,-30.5 596,-30.5 596,-0.5 460,-0.5"/>
<text text-anchor="start" x="468" y="-18.5" font-family="Helvetica,sans-Serif" font-size="10.00">src/bcs/ScalarAdvectionArt</text>
<text text-anchor="middle" x="528" y="-7.5" font-family="Helvetica,sans-Serif" font-size="10.00">DiffNoBCBC.C</text>
</a>
</g>
</g>
<!-- Node7&#45;&gt;Node8 -->
<g id="edge7" class="edge">
<title>Node7&#45;&gt;Node8</title>
<path fill="none" stroke="midnightblue" d="M519.19,-57.4C521.14,-48.37 523.28,-38.41 524.97,-30.58"/>
<polygon fill="midnightblue" stroke="midnightblue" points="515.72,-56.88 517.04,-67.4 522.56,-58.36 515.72,-56.88"/>
</g>
<!-- Node10 -->
<g id="node10" class="node">
<title>Node10</title>
<g id="a_node10"><a xlink:href="_vacuum_conc_b_c_8_c.html" target="_top" xlink:title=" ">
<polygon fill="white" stroke="black" points="614.5,-6 614.5,-25 747.5,-25 747.5,-6 614.5,-6"/>
<text text-anchor="middle" x="681" y="-13" font-family="Helvetica,sans-Serif" font-size="10.00">src/bcs/VacuumConcBC.C</text>
</a>
</g>
</g>
<!-- Node9&#45;&gt;Node10 -->
<g id="edge9" class="edge">
<title>Node9&#45;&gt;Node10</title>
<path fill="none" stroke="midnightblue" d="M678.17,-62.54C678.93,-50.17 679.88,-34.62 680.47,-25.13"/>
<polygon fill="midnightblue" stroke="midnightblue" points="674.66,-62.54 677.54,-72.73 681.65,-62.97 674.66,-62.54"/>
</g>
<!-- Node12 -->
<g id="node12" class="node">
<title>Node12</title>
<g id="a_node12"><a xlink:href="_coupled_fission_eigen_kernel_8_c.html" target="_top" xlink:title=" ">
<polygon fill="white" stroke="black" points="779,-0.5 779,-30.5 913,-30.5 913,-0.5 779,-0.5"/>
<text text-anchor="start" x="787" y="-18.5" font-family="Helvetica,sans-Serif" font-size="10.00">src/kernels/CoupledFission</text>
<text text-anchor="middle" x="846" y="-7.5" font-family="Helvetica,sans-Serif" font-size="10.00">EigenKernel.C</text>
</a>
</g>
</g>
<!-- Node11&#45;&gt;Node12 -->
<g id="edge11" class="edge">
<title>Node11&#45;&gt;Node12</title>
<path fill="none" stroke="midnightblue" d="M846,-57.11C846,-48.15 846,-38.32 846,-30.58"/>
<polygon fill="midnightblue" stroke="midnightblue" points="842.5,-57.4 846,-67.4 849.5,-57.4 842.5,-57.4"/>
</g>
<!-- Node14 -->
<g id="node14" class="node">
<title>Node14</title>
<g id="a_node14"><a xlink:href="_coupled_fission_kernel_8_c.html" target="_top" xlink:title=" ">
<polygon fill="white" stroke="black" points="949,-0.5 949,-30.5 1083,-30.5 1083,-0.5 949,-0.5"/>
<text text-anchor="start" x="957" y="-18.5" font-family="Helvetica,sans-Serif" font-size="10.00">src/kernels/CoupledFission</text>
<text text-anchor="middle" x="1016" y="-7.5" font-family="Helvetica,sans-Serif" font-size="10.00">Kernel.C</text>
</a>
</g>
</g>
<!-- Node13&#45;&gt;Node14 -->
<g id="edge13" class="edge">
<title>Node13&#45;&gt;Node14</title>
<path fill="none" stroke="midnightblue" d="M1016,-57.11C1016,-48.15 1016,-38.32 1016,-30.58"/>
<polygon fill="midnightblue" stroke="midnightblue" points="1012.5,-57.4 1016,-67.4 1019.5,-57.4 1012.5,-57.4"/>
</g>
<!-- Node16 -->
<g id="node16" class="node">
<title>Node16</title>
<g id="a_node16"><a xlink:href="_coupled_scalar_advection_8_c.html" target="_top" xlink:title=" ">
<polygon fill="white" stroke="black" points="1116.5,-0.5 1116.5,-30.5 1247.5,-30.5 1247.5,-0.5 1116.5,-0.5"/>
<text text-anchor="start" x="1124.5" y="-18.5" font-family="Helvetica,sans-Serif" font-size="10.00">src/kernels/CoupledScalar</text>
<text text-anchor="middle" x="1182" y="-7.5" font-family="Helvetica,sans-Serif" font-size="10.00">Advection.C</text>
</a>
</g>
</g>
<!-- Node15&#45;&gt;Node16 -->
<g id="edge15" class="edge">
<title>Node15&#45;&gt;Node16</title>
<path fill="none" stroke="midnightblue" d="M1183.25,-57.11C1182.97,-48.15 1182.67,-38.32 1182.43,-30.58"/>
<polygon fill="midnightblue" stroke="midnightblue" points="1179.76,-57.51 1183.57,-67.4 1186.76,-57.29 1179.76,-57.51"/>
</g>
<!-- Node18 -->
<g id="node18" class="node">
<title>Node18</title>
<g id="a_node18"><a xlink:href="_decay_heat_source_8_c.html" target="_top" xlink:title=" ">
<polygon fill="white" stroke="black" points="1265.5,-6 1265.5,-25 1420.5,-25 1420.5,-6 1265.5,-6"/>
<text text-anchor="middle" x="1343" y="-13" font-family="Helvetica,sans-Serif" font-size="10.00">src/kernels/DecayHeatSource.C</text>
</a>
</g>
</g>
<!-- Node17&#45;&gt;Node18 -->
<g id="edge17" class="edge">
<title>Node17&#45;&gt;Node18</title>
<path fill="none" stroke="midnightblue" d="M1343,-57.25C1343,-46.02 1343,-33.38 1343,-25.19"/>
<polygon fill="midnightblue" stroke="midnightblue" points="1339.5,-57.4 1343,-67.4 1346.5,-57.4 1339.5,-57.4"/>
</g>
<!-- Node20 -->
<g id="node20" class="node">
<title>Node20</title>
<g id="a_node20"><a xlink:href="_delayed_neutron_eigen_source_8_c.html" target="_top" xlink:title=" ">
<polygon fill="white" stroke="black" points="1438.5,-0.5 1438.5,-30.5 1575.5,-30.5 1575.5,-0.5 1438.5,-0.5"/>
<text text-anchor="start" x="1446.5" y="-18.5" font-family="Helvetica,sans-Serif" font-size="10.00">src/kernels/DelayedNeutron</text>
<text text-anchor="middle" x="1507" y="-7.5" font-family="Helvetica,sans-Serif" font-size="10.00">EigenSource.C</text>
</a>
</g>
</g>
<!-- Node19&#45;&gt;Node20 -->
<g id="edge19" class="edge">
<title>Node19&#45;&gt;Node20</title>
<path fill="none" stroke="midnightblue" d="M1505.75,-57.11C1506.03,-48.15 1506.33,-38.32 1506.57,-30.58"/>
<polygon fill="midnightblue" stroke="midnightblue" points="1502.24,-57.29 1505.43,-67.4 1509.24,-57.51 1502.24,-57.29"/>
</g>
<!-- Node22 -->
<g id="node22" class="node">
<title>Node22</title>
<g id="a_node22"><a xlink:href="_delayed_neutron_source_8_c.html" target="_top" xlink:title=" ">
<polygon fill="white" stroke="black" points="1608.5,-0.5 1608.5,-30.5 1745.5,-30.5 1745.5,-0.5 1608.5,-0.5"/>
<text text-anchor="start" x="1616.5" y="-18.5" font-family="Helvetica,sans-Serif" font-size="10.00">src/kernels/DelayedNeutron</text>
<text text-anchor="middle" x="1677" y="-7.5" font-family="Helvetica,sans-Serif" font-size="10.00">Source.C</text>
</a>
</g>
</g>
<!-- Node21&#45;&gt;Node22 -->
<g id="edge21" class="edge">
<title>Node21&#45;&gt;Node22</title>
<path fill="none" stroke="midnightblue" d="M1677,-57.11C1677,-48.15 1677,-38.32 1677,-30.58"/>
<polygon fill="midnightblue" stroke="midnightblue" points="1673.5,-57.4 1677,-67.4 1680.5,-57.4 1673.5,-57.4"/>
</g>
<!-- Node24 -->
<g id="node24" class="node">
<title>Node24</title>
<g id="a_node24"><a xlink:href="_div_free_coupled_scalar_advection_8_c.html" target="_top" xlink:title=" ">
<polygon fill="white" stroke="black" points="1780.5,-0.5 1780.5,-30.5 1917.5,-30.5 1917.5,-0.5 1780.5,-0.5"/>
<text text-anchor="start" x="1788.5" y="-18.5" font-family="Helvetica,sans-Serif" font-size="10.00">src/kernels/DivFreeCoupled</text>
<text text-anchor="middle" x="1849" y="-7.5" font-family="Helvetica,sans-Serif" font-size="10.00">ScalarAdvection.C</text>
</a>
</g>
</g>
<!-- Node23&#45;&gt;Node24 -->
<g id="edge23" class="edge">
<title>Node23&#45;&gt;Node24</title>
<path fill="none" stroke="midnightblue" d="M1849,-57.11C1849,-48.15 1849,-38.32 1849,-30.58"/>
<polygon fill="midnightblue" stroke="midnightblue" points="1845.5,-57.4 1849,-67.4 1852.5,-57.4 1845.5,-57.4"/>
</g>
<!-- Node26 -->
<g id="node26" class="node">
<title>Node26</title>
<g id="a_node26"><a xlink:href="_group_diffusion_8_c.html" target="_top" xlink:title=" ">
<polygon fill="white" stroke="black" points="1952,-6 1952,-25 2092,-25 2092,-6 1952,-6"/>
<text text-anchor="middle" x="2022" y="-13" font-family="Helvetica,sans-Serif" font-size="10.00">src/kernels/GroupDiffusion.C</text>
</a>
</g>
</g>
<!-- Node25&#45;&gt;Node26 -->
<g id="edge25" class="edge">
<title>Node25&#45;&gt;Node26</title>
<path fill="none" stroke="midnightblue" d="M2022,-62.54C2022,-50.17 2022,-34.62 2022,-25.13"/>
<polygon fill="midnightblue" stroke="midnightblue" points="2018.5,-62.73 2022,-72.73 2025.5,-62.73 2018.5,-62.73"/>
</g>
<!-- Node28 -->
<g id="node28" class="node">
<title>Node28</title>
<g id="a_node28"><a xlink:href="_heat_precursor_decay_8_c.html" target="_top" xlink:title=" ">
<polygon fill="white" stroke="black" points="2126.5,-0.5 2126.5,-30.5 2257.5,-30.5 2257.5,-0.5 2126.5,-0.5"/>
<text text-anchor="start" x="2134.5" y="-18.5" font-family="Helvetica,sans-Serif" font-size="10.00">src/kernels/HeatPrecursor</text>
<text text-anchor="middle" x="2192" y="-7.5" font-family="Helvetica,sans-Serif" font-size="10.00">Decay.C</text>
</a>
</g>
</g>
<!-- Node27&#45;&gt;Node28 -->
<g id="edge27" class="edge">
<title>Node27&#45;&gt;Node28</title>
<path fill="none" stroke="midnightblue" d="M2192,-57.11C2192,-48.15 2192,-38.32 2192,-30.58"/>
<polygon fill="midnightblue" stroke="midnightblue" points="2188.5,-57.4 2192,-67.4 2195.5,-57.4 2188.5,-57.4"/>
</g>
<!-- Node30 -->
<g id="node30" class="node">
<title>Node30</title>
<g id="a_node30"><a xlink:href="_heat_precursor_source_8_c.html" target="_top" xlink:title=" ">
<polygon fill="white" stroke="black" points="2284.5,-0.5 2284.5,-30.5 2415.5,-30.5 2415.5,-0.5 2284.5,-0.5"/>
<text text-anchor="start" x="2292.5" y="-18.5" font-family="Helvetica,sans-Serif" font-size="10.00">src/kernels/HeatPrecursor</text>
<text text-anchor="middle" x="2350" y="-7.5" font-family="Helvetica,sans-Serif" font-size="10.00">Source.C</text>
</a>
</g>
</g>
<!-- Node29&#45;&gt;Node30 -->
<g id="edge29" class="edge">
<title>Node29&#45;&gt;Node30</title>
<path fill="none" stroke="midnightblue" d="M2355.03,-57.4C2353.92,-48.37 2352.7,-38.41 2351.73,-30.58"/>
<polygon fill="midnightblue" stroke="midnightblue" points="2351.57,-57.9 2356.26,-67.4 2358.52,-57.04 2351.57,-57.9"/>
</g>
<!-- Node32 -->
<g id="node32" class="node">
<title>Node32</title>
<g id="a_node32"><a xlink:href="_in_scatter_8_c.html" target="_top" xlink:title=" ">
<polygon fill="white" stroke="black" points="2434,-6 2434,-25 2550,-25 2550,-6 2434,-6"/>
<text text-anchor="middle" x="2492" y="-13" font-family="Helvetica,sans-Serif" font-size="10.00">src/kernels/InScatter.C</text>
</a>
</g>
</g>
<!-- Node31&#45;&gt;Node32 -->
<g id="edge31" class="edge">
<title>Node31&#45;&gt;Node32</title>
<path fill="none" stroke="midnightblue" d="M2509.28,-63.29C2504.67,-50.81 2498.76,-34.81 2495.19,-25.13"/>
<polygon fill="midnightblue" stroke="midnightblue" points="2506.02,-64.57 2512.76,-72.73 2512.58,-62.14 2506.02,-64.57"/>
</g>
<!-- Node34 -->
<g id="node34" class="node">
<title>Node34</title>
<g id="a_node34"><a xlink:href="_precursor_decay_8_c.html" target="_top" xlink:title=" ">
<polygon fill="white" stroke="black" points="2568,-6 2568,-25 2714,-25 2714,-6 2568,-6"/>
<text text-anchor="middle" x="2641" y="-13" font-family="Helvetica,sans-Serif" font-size="10.00">src/kernels/PrecursorDecay.C</text>
</a>
</g>
</g>
<!-- Node33&#45;&gt;Node34 -->
<g id="edge33" class="edge">
<title>Node33&#45;&gt;Node34</title>
<path fill="none" stroke="midnightblue" d="M2655.66,-57.94C2651.63,-46.54 2647.03,-33.55 2644.08,-25.19"/>
<polygon fill="midnightblue" stroke="midnightblue" points="2652.37,-59.14 2659.01,-67.4 2658.97,-56.8 2652.37,-59.14"/>
</g>
<!-- Node36 -->
<g id="node36" class="node">
<title>Node36</title>
<g id="a_node36"><a xlink:href="_precursor_source_8_c.html" target="_top" xlink:title=" ">
<polygon fill="white" stroke="black" points="2732.5,-6 2732.5,-25 2881.5,-25 2881.5,-6 2732.5,-6"/>
<text text-anchor="middle" x="2807" y="-13" font-family="Helvetica,sans-Serif" font-size="10.00">src/kernels/PrecursorSource.C</text>
</a>
</g>
</g>
<!-- Node35&#45;&gt;Node36 -->
<g id="edge35" class="edge">
<title>Node35&#45;&gt;Node36</title>
<path fill="none" stroke="midnightblue" d="M2808.25,-57.25C2807.91,-46.02 2807.52,-33.38 2807.27,-25.19"/>
<polygon fill="midnightblue" stroke="midnightblue" points="2804.76,-57.51 2808.57,-67.4 2811.76,-57.29 2804.76,-57.51"/>
</g>
<!-- Node38 -->
<g id="node38" class="node">
<title>Node38</title>
<g id="a_node38"><a xlink:href="_scalar_advection_art_diff_8_c.html" target="_top" xlink:title=" ">
<polygon fill="white" stroke="black" points="2899.5,-0.5 2899.5,-30.5 3038.5,-30.5 3038.5,-0.5 2899.5,-0.5"/>
<text text-anchor="start" x="2907.5" y="-18.5" font-family="Helvetica,sans-Serif" font-size="10.00">src/kernels/ScalarAdvection</text>
<text text-anchor="middle" x="2969" y="-7.5" font-family="Helvetica,sans-Serif" font-size="10.00">ArtDiff.C</text>
</a>
</g>
</g>
<!-- Node37&#45;&gt;Node38 -->
<g id="edge37" class="edge">
<title>Node37&#45;&gt;Node38</title>
<path fill="none" stroke="midnightblue" d="M2969,-57.11C2969,-48.15 2969,-38.32 2969,-30.58"/>
<polygon fill="midnightblue" stroke="midnightblue" points="2965.5,-57.4 2969,-67.4 2972.5,-57.4 2965.5,-57.4"/>
</g>
<!-- Node40 -->
<g id="node40" class="node">
<title>Node40</title>
<g id="a_node40"><a xlink:href="_scalar_transport_time_derivative_8_c.html" target="_top" xlink:title=" ">
<polygon fill="white" stroke="black" points="3056.5,-0.5 3056.5,-30.5 3193.5,-30.5 3193.5,-0.5 3056.5,-0.5"/>
<text text-anchor="start" x="3064.5" y="-18.5" font-family="Helvetica,sans-Serif" font-size="10.00">src/kernels/ScalarTransport</text>
<text text-anchor="middle" x="3125" y="-7.5" font-family="Helvetica,sans-Serif" font-size="10.00">TimeDerivative.C</text>
</a>
</g>
</g>
<!-- Node39&#45;&gt;Node40 -->
<g id="edge39" class="edge">
<title>Node39&#45;&gt;Node40</title>
<path fill="none" stroke="midnightblue" d="M3135.77,-57.7C3133.39,-48.59 3130.75,-38.49 3128.68,-30.58"/>
<polygon fill="midnightblue" stroke="midnightblue" points="3132.39,-58.61 3138.31,-67.4 3139.17,-56.84 3132.39,-58.61"/>
</g>
<!-- Node41 -->
<g id="node41" class="node">
<title>Node41</title>
<g id="a_node41"><a xlink:href="_nt_time_derivative_8h.html" target="_top" xlink:title=" ">
<polygon fill="white" stroke="red" points="3212,-6 3212,-25 3380,-25 3380,-6 3212,-6"/>
<text text-anchor="middle" x="3296" y="-13" font-family="Helvetica,sans-Serif" font-size="10.00">include/kernels/NtTimeDerivative.h</text>
</a>
</g>
</g>
<!-- Node39&#45;&gt;Node41 -->
<g id="edge40" class="edge">
<title>Node39&#45;&gt;Node41</title>
<path fill="none" stroke="midnightblue" d="M3184.74,-63.46C3214.5,-50.9 3252.82,-34.72 3275.84,-25.01"/>
<polygon fill="midnightblue" stroke="midnightblue" points="3183.27,-60.28 3175.42,-67.4 3185.99,-66.73 3183.27,-60.28"/>
</g>
<!-- Node44 -->
<g id="node43" class="node">
<title>Node44</title>
<g id="a_node43"><a xlink:href="_sigma_r_8_c.html" target="_top" xlink:title=" ">
<polygon fill="white" stroke="black" points="3397.5,-6 3397.5,-25 3508.5,-25 3508.5,-6 3397.5,-6"/>
<text text-anchor="middle" x="3453" y="-13" font-family="Helvetica,sans-Serif" font-size="10.00">src/kernels/SigmaR.C</text>
</a>
</g>
</g>
<!-- Node43&#45;&gt;Node44 -->
<g id="edge42" class="edge">
<title>Node43&#45;&gt;Node44</title>
<path fill="none" stroke="midnightblue" d="M3330.74,-68.78C3360.84,-55.91 3406.57,-36.35 3432.73,-25.17"/>
<polygon fill="midnightblue" stroke="midnightblue" points="3329,-65.72 3321.18,-72.87 3331.76,-72.15 3329,-65.72"/>
</g>
<!-- Node46 -->
<g id="node45" class="node">
<title>Node46</title>
<g id="a_node45"><a xlink:href="_transient_fission_heat_source_8_c.html" target="_top" xlink:title=" ">
<polygon fill="white" stroke="black" points="3527,-0.5 3527,-30.5 3667,-30.5 3667,-0.5 3527,-0.5"/>
<text text-anchor="start" x="3535" y="-18.5" font-family="Helvetica,sans-Serif" font-size="10.00">src/kernels/TransientFission</text>
<text text-anchor="middle" x="3597" y="-7.5" font-family="Helvetica,sans-Serif" font-size="10.00">HeatSource.C</text>
</a>
</g>
</g>
<!-- Node45&#45;&gt;Node46 -->
<g id="edge44" class="edge">
<title>Node45&#45;&gt;Node46</title>
<path fill="none" stroke="midnightblue" d="M3487.31,-63.41C3511.58,-53.03 3541.59,-40.2 3564.08,-30.58"/>
<polygon fill="midnightblue" stroke="midnightblue" points="3485.8,-60.25 3477.98,-67.4 3488.55,-66.68 3485.8,-60.25"/>
</g>
<!-- Node48 -->
<g id="node47" class="node">
<title>Node48</title>
<g id="a_node47"><a xlink:href="_elm_integ_tot_fiss_postprocessor_8_c.html" target="_top" xlink:title=" ">
<polygon fill="white" stroke="black" points="3685.5,-0.5 3685.5,-30.5 3848.5,-30.5 3848.5,-0.5 3685.5,-0.5"/>
<text text-anchor="start" x="3693.5" y="-18.5" font-family="Helvetica,sans-Serif" font-size="10.00">src/postprocessors</text>
<text text-anchor="middle" x="3767" y="-7.5" font-family="Helvetica,sans-Serif" font-size="10.00">/ElmIntegTotFissPostprocessor.C</text>
</a>
</g>
</g>
<!-- Node47&#45;&gt;Node48 -->
<g id="edge46" class="edge">
<title>Node47&#45;&gt;Node48</title>
<path fill="none" stroke="midnightblue" d="M3650.48,-63.54C3676.24,-53.14 3708.2,-40.24 3732.13,-30.58"/>
<polygon fill="midnightblue" stroke="midnightblue" points="3648.9,-60.41 3640.93,-67.4 3651.52,-66.9 3648.9,-60.41"/>
</g>
<!-- Node49 -->
<g id="node48" class="node">
<title>Node49</title>
<g id="a_node48"><a xlink:href="_elm_integ_tot_fiss_heat_postprocessor_8h.html" target="_top" xlink:title=" ">
<polygon fill="white" stroke="red" points="3867,-0.5 3867,-30.5 4049,-30.5 4049,-0.5 3867,-0.5"/>
<text text-anchor="start" x="3875" y="-18.5" font-family="Helvetica,sans-Serif" font-size="10.00">include/postprocessors</text>
<text text-anchor="middle" x="3958" y="-7.5" font-family="Helvetica,sans-Serif" font-size="10.00">/ElmIntegTotFissHeatPostprocessor.h</text>
</a>
</g>
</g>
<!-- Node47&#45;&gt;Node49 -->
<g id="edge47" class="edge">
<title>Node47&#45;&gt;Node49</title>
<path fill="none" stroke="midnightblue" d="M3691.84,-65.65C3749.93,-54.92 3825.96,-40.88 3881.89,-30.55"/>
<polygon fill="midnightblue" stroke="midnightblue" points="3691.14,-62.22 3681.95,-67.48 3692.41,-69.1 3691.14,-62.22"/>
</g>
</g>
</svg>
        <g id="navigator" transform="translate(0 0)" fill="#404254">
                <rect fill="#f2f5e9" fill-opacity="0.5" stroke="#606060" stroke-width=".5" x="0" y="0" width="60" height="60"/>
                <use id="zoomplus" xlink:href="#zoomPlus" x="17" y="9" onmousedown="handleZoom(evt,'in')"/>
                <use id="zoomminus" xlink:href="#zoomMin" x="42" y="9" onmousedown="handleZoom(evt,'out')"/>
                <use id="reset" xlink:href="#resetDef" x="30" y="36" onmousedown="handleReset()"/>
                <g id="arrowUp" xlink:href="#dirArrow" transform="translate(30 24)" onmousedown="handlePan(0,-1)">
                  <use xlink:href="#rim" fill="#404040">
                        <set attributeName="fill" to="#808080" begin="arrowUp.mouseover" end="arrowUp.mouseout"/>
                  </use>
                  <path fill="none" stroke="white" stroke-width="1.5" d="M0,-3.0v7 M-2.5,-0.5L0,-3.0L2.5,-0.5"/>
                </g>
                <g id="arrowRight" xlink:href="#dirArrow" transform="rotate(90) translate(36 -43)" onmousedown="handlePan(1,0)">
                  <use xlink:href="#rim" fill="#404040">
                        <set attributeName="fill" to="#808080" begin="arrowRight.mouseover" end="arrowRight.mouseout"/>
                  </use>
                  <path fill="none" stroke="white" stroke-width="1.5" d="M0,-3.0v7 M-2.5,-0.5L0,-3.0L2.5,-0.5"/>
                </g>
                <g id="arrowDown" xlink:href="#dirArrow" transform="rotate(180) translate(-30 -48)" onmousedown="handlePan(0,1)">
                  <use xlink:href="#rim" fill="#404040">
                        <set attributeName="fill" to="#808080" begin="arrowDown.mouseover" end="arrowDown.mouseout"/>
                  </use>
                  <path fill="none" stroke="white" stroke-width="1.5" d="M0,-3.0v7 M-2.5,-0.5L0,-3.0L2.5,-0.5"/>
                </g>
                <g id="arrowLeft" xlink:href="#dirArrow" transform="rotate(270) translate(-36 17)" onmousedown="handlePan(-1,0)">
                  <use xlink:href="#rim" fill="#404040">
                        <set attributeName="fill" to="#808080" begin="arrowLeft.mouseover" end="arrowLeft.mouseout"/>
                  </use>
                  <path fill="none" stroke="white" stroke-width="1.5" d="M0,-3.0v7 M-2.5,-0.5L0,-3.0L2.5,-0.5"/>
                </g>
        </g>
        <svg viewBox="0 0 15 15" width="100%" height="30px" preserveAspectRatio="xMaxYMin meet">
         <g id="arrow_out" transform="scale(0.3 0.3)">
          <a xlink:href="_scalar_transport_base_8h__dep__incl_org.svg" target="_base">
           <rect id="button" ry="5" rx="5" y="6" x="6" height="38" width="38"
                fill="#f2f5e9" fill-opacity="0.5" stroke="#606060" stroke-width="1.0"/>
           <path id="arrow"
             d="M 11.500037,31.436501 C 11.940474,20.09759 22.043105,11.32322 32.158766,21.979434 L 37.068811,17.246167 C 37.068811,17.246167 37.088388,32 37.088388,32 L 22.160133,31.978069 C 22.160133,31.978069 26.997745,27.140456 26.997745,27.140456 C 18.528582,18.264221 13.291696,25.230495 11.500037,31.436501 z"
             style="fill:#404040;"/>
          </a>
         </g>
        </svg>
</svg>
