<?xml version="1.0" encoding="UTF-8" standalone="no"?>
<!DOCTYPE svg PUBLIC "-//W3C//DTD SVG 1.1//EN"
 "http://www.w3.org/Graphics/SVG/1.1/DTD/svg11.dtd">
<!-- Generated by graphviz version 2.50.0 (20220203.2022)
 -->
<!-- Title: include/base/ScalarTransportBase.h Pages: 1 -->
<svg width="4135pt" height="173pt"
 viewBox="0.00 0.00 4135.00 173.00" xmlns="http://www.w3.org/2000/svg" xmlns:xlink="http://www.w3.org/1999/xlink">
<g id="graph0" class="graph" transform="scale(1 1) rotate(0) translate(4 169)">
<title>include/base/ScalarTransportBase.h</title>
<polygon fill="white" stroke="transparent" points="-4,4 -4,-169 4131,-169 4131,4 -4,4"/>
<!-- Node1 -->
<g id="node1" class="node">
<title>Node1</title>
<g id="a_node1"><a xlink:title=" ">
<polygon fill="#bfbfbf" stroke="black" points="2028.5,-134.5 2028.5,-164.5 2171.5,-164.5 2171.5,-134.5 2028.5,-134.5"/>
<text text-anchor="start" x="2036.5" y="-152.5" font-family="Helvetica,sans-Serif" font-size="10.00">include/base/ScalarTransport</text>
<text text-anchor="middle" x="2100" y="-141.5" font-family="Helvetica,sans-Serif" font-size="10.00">Base.h</text>
</a>
</g>
</g>
<!-- Node2 -->
<g id="node2" class="node">
<title>Node2</title>
<g id="a_node2"><a xlink:href="_coupled_scalar_advection_no_b_c_b_c_8h.html" target="_top" xlink:title=" ">
<polygon fill="white" stroke="black" points="32,-67.5 32,-97.5 164,-97.5 164,-67.5 32,-67.5"/>
<text text-anchor="start" x="40" y="-85.5" font-family="Helvetica,sans-Serif" font-size="10.00">include/bcs/CoupledScalar</text>
<text text-anchor="middle" x="98" y="-74.5" font-family="Helvetica,sans-Serif" font-size="10.00">AdvectionNoBCBC.h</text>
</a>
</g>
</g>
<!-- Node1&#45;&gt;Node2 -->
<g id="edge1" class="edge">
<title>Node1&#45;&gt;Node2</title>
<path fill="none" stroke="midnightblue" d="M2018.23,-147.77C1701.13,-144.73 552.3,-131.6 189,-98 181.04,-97.26 172.71,-96.26 164.47,-95.13"/>
<polygon fill="midnightblue" stroke="midnightblue" points="2018.23,-151.27 2028.26,-147.87 2018.3,-144.27 2018.23,-151.27"/>
</g>
<!-- Node4 -->
<g id="node4" class="node">
<title>Node4</title>
<g id="a_node4"><a xlink:href="_lin_log_penalty_dirichlet_b_c_8h.html" target="_top" xlink:title=" ">
<polygon fill="white" stroke="black" points="198.5,-67.5 198.5,-97.5 329.5,-97.5 329.5,-67.5 198.5,-67.5"/>
<text text-anchor="start" x="206.5" y="-85.5" font-family="Helvetica,sans-Serif" font-size="10.00">include/bcs/LinLogPenalty</text>
<text text-anchor="middle" x="264" y="-74.5" font-family="Helvetica,sans-Serif" font-size="10.00">DirichletBC.h</text>
</a>
</g>
</g>
<!-- Node1&#45;&gt;Node4 -->
<g id="edge3" class="edge">
<title>Node1&#45;&gt;Node4</title>
<path fill="none" stroke="midnightblue" d="M2017.9,-147.81C1716.87,-145 674.04,-132.93 343,-98 338.7,-97.55 334.28,-96.99 329.84,-96.36"/>
<polygon fill="midnightblue" stroke="midnightblue" points="2018.26,-151.31 2028.29,-147.9 2018.32,-144.31 2018.26,-151.31"/>
</g>
<!-- Node6 -->
<g id="node6" class="node">
<title>Node6</title>
<g id="a_node6"><a xlink:href="_scalar_advection_art_diff_no_b_c_b_c_8h.html" target="_top" xlink:title=" ">
<polygon fill="white" stroke="black" points="352,-67.5 352,-97.5 492,-97.5 492,-67.5 352,-67.5"/>
<text text-anchor="start" x="360" y="-85.5" font-family="Helvetica,sans-Serif" font-size="10.00">include/bcs/ScalarAdvection</text>
<text text-anchor="middle" x="422" y="-74.5" font-family="Helvetica,sans-Serif" font-size="10.00">ArtDiffNoBCBC.h</text>
</a>
</g>
</g>
<!-- Node1&#45;&gt;Node6 -->
<g id="edge5" class="edge">
<title>Node1&#45;&gt;Node6</title>
<path fill="none" stroke="midnightblue" d="M2018.22,-147.54C1735.38,-143.96 799.71,-129.95 501,-98 498.09,-97.69 495.12,-97.33 492.13,-96.94"/>
<polygon fill="midnightblue" stroke="midnightblue" points="2018.36,-151.04 2028.4,-147.67 2018.45,-144.04 2018.36,-151.04"/>
</g>
<!-- Node8 -->
<g id="node8" class="node">
<title>Node8</title>
<g id="a_node8"><a xlink:href="_vacuum_conc_b_c_8h.html" target="_top" xlink:title=" ">
<polygon fill="white" stroke="black" points="510.5,-73 510.5,-92 659.5,-92 659.5,-73 510.5,-73"/>
<text text-anchor="middle" x="585" y="-80" font-family="Helvetica,sans-Serif" font-size="10.00">include/bcs/VacuumConcBC.h</text>
</a>
</g>
</g>
<!-- Node1&#45;&gt;Node8 -->
<g id="edge7" class="edge">
<title>Node1&#45;&gt;Node8</title>
<path fill="none" stroke="midnightblue" d="M2018.05,-147.07C1754.96,-142.25 933.45,-125.36 669,-98 655.46,-96.6 640.8,-94.33 627.58,-92"/>
<polygon fill="midnightblue" stroke="midnightblue" points="2018.24,-150.58 2028.3,-147.26 2018.36,-143.58 2018.24,-150.58"/>
</g>
<!-- Node10 -->
<g id="node10" class="node">
<title>Node10</title>
<g id="a_node10"><a xlink:href="_coupled_fission_eigen_kernel_8h.html" target="_top" xlink:title=" ">
<polygon fill="white" stroke="black" points="678,-67.5 678,-97.5 830,-97.5 830,-67.5 678,-67.5"/>
<text text-anchor="start" x="686" y="-85.5" font-family="Helvetica,sans-Serif" font-size="10.00">include/kernels/CoupledFission</text>
<text text-anchor="middle" x="754" y="-74.5" font-family="Helvetica,sans-Serif" font-size="10.00">EigenKernel.h</text>
</a>
</g>
</g>
<!-- Node1&#45;&gt;Node10 -->
<g id="edge9" class="edge">
<title>Node1&#45;&gt;Node10</title>
<path fill="none" stroke="midnightblue" d="M2018.12,-148.87C1816.86,-148.98 1282.09,-144.47 839,-98 836.17,-97.7 833.29,-97.37 830.39,-97.01"/>
<polygon fill="midnightblue" stroke="midnightblue" points="2018.32,-152.37 2028.32,-148.86 2018.31,-145.37 2018.32,-152.37"/>
</g>
<!-- Node12 -->
<g id="node12" class="node">
<title>Node12</title>
<g id="a_node12"><a xlink:href="_coupled_fission_kernel_8h.html" target="_top" xlink:title=" ">
<polygon fill="white" stroke="black" points="848,-67.5 848,-97.5 1000,-97.5 1000,-67.5 848,-67.5"/>
<text text-anchor="start" x="856" y="-85.5" font-family="Helvetica,sans-Serif" font-size="10.00">include/kernels/CoupledFission</text>
<text text-anchor="middle" x="924" y="-74.5" font-family="Helvetica,sans-Serif" font-size="10.00">Kernel.h</text>
</a>
</g>
</g>
<!-- Node1&#45;&gt;Node12 -->
<g id="edge11" class="edge">
<title>Node1&#45;&gt;Node12</title>
<path fill="none" stroke="midnightblue" d="M2018.26,-148.14C1836.37,-146.58 1384.59,-138.57 1009,-98 1006.17,-97.69 1003.3,-97.35 1000.39,-96.99"/>
<polygon fill="midnightblue" stroke="midnightblue" points="2018.26,-151.64 2028.28,-148.22 2018.31,-144.64 2018.26,-151.64"/>
</g>
<!-- Node14 -->
<g id="node14" class="node">
<title>Node14</title>
<g id="a_node14"><a xlink:href="_coupled_scalar_advection_8h.html" target="_top" xlink:title=" ">
<polygon fill="white" stroke="black" points="1018,-67.5 1018,-97.5 1166,-97.5 1166,-67.5 1018,-67.5"/>
<text text-anchor="start" x="1026" y="-85.5" font-family="Helvetica,sans-Serif" font-size="10.00">include/kernels/CoupledScalar</text>
<text text-anchor="middle" x="1092" y="-74.5" font-family="Helvetica,sans-Serif" font-size="10.00">Advection.h</text>
</a>
</g>
</g>
<!-- Node1&#45;&gt;Node14 -->
<g id="edge13" class="edge">
<title>Node1&#45;&gt;Node14</title>
<path fill="none" stroke="midnightblue" d="M2018.04,-147.28C1856.33,-144.15 1484.98,-133.41 1175,-98 1172.09,-97.67 1169.13,-97.3 1166.15,-96.9"/>
<polygon fill="midnightblue" stroke="midnightblue" points="2018.32,-150.79 2028.38,-147.47 2018.45,-143.79 2018.32,-150.79"/>
</g>
<!-- Node16 -->
<g id="node16" class="node">
<title>Node16</title>
<g id="a_node16"><a xlink:href="_decay_heat_source_8h.html" target="_top" xlink:title=" ">
<polygon fill="white" stroke="black" points="1184.5,-67.5 1184.5,-97.5 1317.5,-97.5 1317.5,-67.5 1184.5,-67.5"/>
<text text-anchor="start" x="1192.5" y="-85.5" font-family="Helvetica,sans-Serif" font-size="10.00">include/kernels/DecayHeat</text>
<text text-anchor="middle" x="1251" y="-74.5" font-family="Helvetica,sans-Serif" font-size="10.00">Source.h</text>
</a>
</g>
</g>
<!-- Node1&#45;&gt;Node16 -->
<g id="edge15" class="edge">
<title>Node1&#45;&gt;Node16</title>
<path fill="none" stroke="midnightblue" d="M2017.99,-146.46C1876.49,-142.21 1577.54,-129.96 1327,-98 1323.94,-97.61 1320.81,-97.17 1317.65,-96.7"/>
<polygon fill="midnightblue" stroke="midnightblue" points="2018.22,-149.97 2028.31,-146.77 2018.42,-142.97 2018.22,-149.97"/>
</g>
<!-- Node18 -->
<g id="node18" class="node">
<title>Node18</title>
<g id="a_node18"><a xlink:href="_delayed_neutron_eigen_source_8h.html" target="_top" xlink:title=" ">
<polygon fill="white" stroke="black" points="1336,-67.5 1336,-97.5 1490,-97.5 1490,-67.5 1336,-67.5"/>
<text text-anchor="start" x="1344" y="-85.5" font-family="Helvetica,sans-Serif" font-size="10.00">include/kernels/DelayedNeutron</text>
<text text-anchor="middle" x="1413" y="-74.5" font-family="Helvetica,sans-Serif" font-size="10.00">EigenSource.h</text>
</a>
</g>
</g>
<!-- Node1&#45;&gt;Node18 -->
<g id="edge17" class="edge">
<title>Node1&#45;&gt;Node18</title>
<path fill="none" stroke="midnightblue" d="M2017.89,-143.77C1901.95,-136.6 1683.79,-121.3 1499,-98 1496.15,-97.64 1493.24,-97.25 1490.31,-96.85"/>
<polygon fill="midnightblue" stroke="midnightblue" points="2017.9,-147.28 2028.1,-144.4 2018.33,-140.29 2017.9,-147.28"/>
</g>
<!-- Node20 -->
<g id="node20" class="node">
<title>Node20</title>
<g id="a_node20"><a xlink:href="_delayed_neutron_source_8h.html" target="_top" xlink:title=" ">
<polygon fill="white" stroke="black" points="1508,-67.5 1508,-97.5 1662,-97.5 1662,-67.5 1508,-67.5"/>
<text text-anchor="start" x="1516" y="-85.5" font-family="Helvetica,sans-Serif" font-size="10.00">include/kernels/DelayedNeutron</text>
<text text-anchor="middle" x="1585" y="-74.5" font-family="Helvetica,sans-Serif" font-size="10.00">Source.h</text>
</a>
</g>
</g>
<!-- Node1&#45;&gt;Node20 -->
<g id="edge19" class="edge">
<title>Node1&#45;&gt;Node20</title>
<path fill="none" stroke="midnightblue" d="M2018.12,-140.09C1931.67,-130.92 1791.5,-115.24 1671,-98 1668.15,-97.59 1665.25,-97.17 1662.33,-96.72"/>
<polygon fill="midnightblue" stroke="midnightblue" points="2017.81,-143.58 2028.13,-141.15 2018.55,-136.61 2017.81,-143.58"/>
</g>
<!-- Node22 -->
<g id="node22" class="node">
<title>Node22</title>
<g id="a_node22"><a xlink:href="_div_free_coupled_scalar_advection_8h.html" target="_top" xlink:title=" ">
<polygon fill="white" stroke="black" points="1680,-67.5 1680,-97.5 1834,-97.5 1834,-67.5 1680,-67.5"/>
<text text-anchor="start" x="1688" y="-85.5" font-family="Helvetica,sans-Serif" font-size="10.00">include/kernels/DivFreeCoupled</text>
<text text-anchor="middle" x="1757" y="-74.5" font-family="Helvetica,sans-Serif" font-size="10.00">ScalarAdvection.h</text>
</a>
</g>
</g>
<!-- Node1&#45;&gt;Node22 -->
<g id="edge21" class="edge">
<title>Node1&#45;&gt;Node22</title>
<path fill="none" stroke="midnightblue" d="M2018.05,-132.97C1961.14,-122.19 1885.95,-107.94 1830.88,-97.5"/>
<polygon fill="midnightblue" stroke="midnightblue" points="2017.62,-136.45 2028.1,-134.87 2018.92,-129.57 2017.62,-136.45"/>
</g>
<!-- Node24 -->
<g id="node24" class="node">
<title>Node24</title>
<g id="a_node24"><a xlink:href="_group_diffusion_8h.html" target="_top" xlink:title=" ">
<polygon fill="white" stroke="black" points="1852,-73 1852,-92 2008,-92 2008,-73 1852,-73"/>
<text text-anchor="middle" x="1930" y="-80" font-family="Helvetica,sans-Serif" font-size="10.00">include/kernels/GroupDiffusion.h</text>
</a>
</g>
</g>
<!-- Node1&#45;&gt;Node24 -->
<g id="edge23" class="edge">
<title>Node1&#45;&gt;Node24</title>
<path fill="none" stroke="midnightblue" d="M2053.67,-130.78C2020.7,-118.18 1977.88,-101.81 1952.25,-92.01"/>
<polygon fill="midnightblue" stroke="midnightblue" points="2052.52,-134.09 2063.11,-134.4 2055.02,-127.56 2052.52,-134.09"/>
</g>
<!-- Node26 -->
<g id="node26" class="node">
<title>Node26</title>
<g id="a_node26"><a xlink:href="_heat_precursor_decay_8h.html" target="_top" xlink:title=" ">
<polygon fill="white" stroke="black" points="2026,-67.5 2026,-97.5 2174,-97.5 2174,-67.5 2026,-67.5"/>
<text text-anchor="start" x="2034" y="-85.5" font-family="Helvetica,sans-Serif" font-size="10.00">include/kernels/HeatPrecursor</text>
<text text-anchor="middle" x="2100" y="-74.5" font-family="Helvetica,sans-Serif" font-size="10.00">Decay.h</text>
</a>
</g>
</g>
<!-- Node1&#45;&gt;Node26 -->
<g id="edge25" class="edge">
<title>Node1&#45;&gt;Node26</title>
<path fill="none" stroke="midnightblue" d="M2100,-124.11C2100,-115.15 2100,-105.32 2100,-97.58"/>
<polygon fill="midnightblue" stroke="midnightblue" points="2096.5,-124.4 2100,-134.4 2103.5,-124.4 2096.5,-124.4"/>
</g>
<!-- Node28 -->
<g id="node28" class="node">
<title>Node28</title>
<g id="a_node28"><a xlink:href="_heat_precursor_source_8h.html" target="_top" xlink:title=" ">
<polygon fill="white" stroke="black" points="2192,-67.5 2192,-97.5 2340,-97.5 2340,-67.5 2192,-67.5"/>
<text text-anchor="start" x="2200" y="-85.5" font-family="Helvetica,sans-Serif" font-size="10.00">include/kernels/HeatPrecursor</text>
<text text-anchor="middle" x="2266" y="-74.5" font-family="Helvetica,sans-Serif" font-size="10.00">Source.h</text>
</a>
</g>
</g>
<!-- Node1&#45;&gt;Node28 -->
<g id="edge27" class="edge">
<title>Node1&#45;&gt;Node28</title>
<path fill="none" stroke="midnightblue" d="M2145.51,-130.68C2172.13,-120.26 2205.27,-107.28 2230.05,-97.58"/>
<polygon fill="midnightblue" stroke="midnightblue" points="2144.05,-127.49 2136.02,-134.4 2146.61,-134.01 2144.05,-127.49"/>
</g>
<!-- Node30 -->
<g id="node30" class="node">
<title>Node30</title>
<g id="a_node30"><a xlink:href="_in_scatter_8h.html" target="_top" xlink:title=" ">
<polygon fill="white" stroke="black" points="2358,-73 2358,-92 2490,-92 2490,-73 2358,-73"/>
<text text-anchor="middle" x="2424" y="-80" font-family="Helvetica,sans-Serif" font-size="10.00">include/kernels/InScatter.h</text>
</a>
</g>
</g>
<!-- Node1&#45;&gt;Node30 -->
<g id="edge29" class="edge">
<title>Node1&#45;&gt;Node30</title>
<path fill="none" stroke="midnightblue" d="M2179.93,-132.47C2243.66,-119.68 2330.41,-102.27 2381.49,-92.03"/>
<polygon fill="midnightblue" stroke="midnightblue" points="2179.02,-129.08 2169.9,-134.48 2180.4,-135.94 2179.02,-129.08"/>
</g>
<!-- Node32 -->
<g id="node32" class="node">
<title>Node32</title>
<g id="a_node32"><a xlink:href="_precursor_decay_8h.html" target="_top" xlink:title=" ">
<polygon fill="white" stroke="black" points="2508.5,-67.5 2508.5,-97.5 2635.5,-97.5 2635.5,-67.5 2508.5,-67.5"/>
<text text-anchor="start" x="2516.5" y="-85.5" font-family="Helvetica,sans-Serif" font-size="10.00">include/kernels/Precursor</text>
<text text-anchor="middle" x="2572" y="-74.5" font-family="Helvetica,sans-Serif" font-size="10.00">Decay.h</text>
</a>
</g>
</g>
<!-- Node1&#45;&gt;Node32 -->
<g id="edge31" class="edge">
<title>Node1&#45;&gt;Node32</title>
<path fill="none" stroke="midnightblue" d="M2181.68,-139.86C2262.5,-130.91 2389.61,-115.76 2499,-98 2502.06,-97.5 2505.19,-96.97 2508.35,-96.42"/>
<polygon fill="midnightblue" stroke="midnightblue" points="2181.13,-136.4 2171.57,-140.97 2181.9,-143.36 2181.13,-136.4"/>
</g>
<!-- Node34 -->
<g id="node34" class="node">
<title>Node34</title>
<g id="a_node34"><a xlink:href="_precursor_source_8h.html" target="_top" xlink:title=" ">
<polygon fill="white" stroke="black" points="2653.5,-67.5 2653.5,-97.5 2780.5,-97.5 2780.5,-67.5 2653.5,-67.5"/>
<text text-anchor="start" x="2661.5" y="-85.5" font-family="Helvetica,sans-Serif" font-size="10.00">include/kernels/Precursor</text>
<text text-anchor="middle" x="2717" y="-74.5" font-family="Helvetica,sans-Serif" font-size="10.00">Source.h</text>
</a>
</g>
</g>
<!-- Node1&#45;&gt;Node34 -->
<g id="edge33" class="edge">
<title>Node1&#45;&gt;Node34</title>
<path fill="none" stroke="midnightblue" d="M2181.62,-143.57C2288.3,-136.52 2480.78,-121.72 2644,-98 2647.07,-97.55 2650.2,-97.06 2653.37,-96.54"/>
<polygon fill="midnightblue" stroke="midnightblue" points="2181.31,-140.08 2171.56,-144.23 2181.77,-147.07 2181.31,-140.08"/>
</g>
<!-- Node36 -->
<g id="node36" class="node">
<title>Node36</title>
<g id="a_node36"><a xlink:href="_scalar_advection_art_diff_8h.html" target="_top" xlink:title=" ">
<polygon fill="white" stroke="black" points="2799,-67.5 2799,-97.5 2955,-97.5 2955,-67.5 2799,-67.5"/>
<text text-anchor="start" x="2807" y="-85.5" font-family="Helvetica,sans-Serif" font-size="10.00">include/kernels/ScalarAdvection</text>
<text text-anchor="middle" x="2877" y="-74.5" font-family="Helvetica,sans-Serif" font-size="10.00">ArtDiff.h</text>
</a>
</g>
</g>
<!-- Node1&#45;&gt;Node36 -->
<g id="edge35" class="edge">
<title>Node1&#45;&gt;Node36</title>
<path fill="none" stroke="midnightblue" d="M2181.83,-144.89C2311.12,-138.66 2570.41,-123.97 2789,-98 2792.23,-97.62 2795.52,-97.2 2798.84,-96.75"/>
<polygon fill="midnightblue" stroke="midnightblue" points="2181.44,-141.41 2171.62,-145.38 2181.77,-148.4 2181.44,-141.41"/>
</g>
<!-- Node38 -->
<g id="node38" class="node">
<title>Node38</title>
<g id="a_node38"><a xlink:href="_scalar_transport_time_derivative_8h.html" target="_top" xlink:title=" ">
<polygon fill="white" stroke="black" points="2973,-67.5 2973,-97.5 3127,-97.5 3127,-67.5 2973,-67.5"/>
<text text-anchor="start" x="2981" y="-85.5" font-family="Helvetica,sans-Serif" font-size="10.00">include/kernels/ScalarTransport</text>
<text text-anchor="middle" x="3050" y="-74.5" font-family="Helvetica,sans-Serif" font-size="10.00">TimeDerivative.h</text>
</a>
</g>
</g>
<!-- Node1&#45;&gt;Node38 -->
<g id="edge37" class="edge">
<title>Node1&#45;&gt;Node38</title>
<path fill="none" stroke="midnightblue" d="M2181.92,-146.68C2335.67,-142.59 2677.76,-130.4 2964,-98 2966.86,-97.68 2969.77,-97.32 2972.7,-96.94"/>
<polygon fill="midnightblue" stroke="midnightblue" points="2181.53,-143.18 2171.63,-146.94 2181.72,-150.18 2181.53,-143.18"/>
</g>
<!-- Node42 -->
<g id="node41" class="node">
<title>Node42</title>
<g id="a_node41"><a xlink:href="_sigma_r_8h.html" target="_top" xlink:title=" ">
<polygon fill="white" stroke="black" points="3145.5,-73 3145.5,-92 3272.5,-92 3272.5,-73 3145.5,-73"/>
<text text-anchor="middle" x="3209" y="-80" font-family="Helvetica,sans-Serif" font-size="10.00">include/kernels/SigmaR.h</text>
</a>
</g>
</g>
<!-- Node1&#45;&gt;Node42 -->
<g id="edge40" class="edge">
<title>Node1&#45;&gt;Node42</title>
<path fill="none" stroke="midnightblue" d="M2181.78,-148.6C2357.25,-147.91 2782.68,-141.46 3136,-98 3147.67,-96.56 3160.27,-94.32 3171.66,-92.02"/>
<polygon fill="midnightblue" stroke="midnightblue" points="2181.58,-145.1 2171.59,-148.63 2181.6,-152.1 2181.58,-145.1"/>
</g>
<!-- Node44 -->
<g id="node43" class="node">
<title>Node44</title>
<g id="a_node43"><a xlink:href="_transient_fission_heat_source_8h.html" target="_top" xlink:title=" ">
<polygon fill="white" stroke="black" points="3290.5,-67.5 3290.5,-97.5 3415.5,-97.5 3415.5,-67.5 3290.5,-67.5"/>
<text text-anchor="start" x="3298.5" y="-85.5" font-family="Helvetica,sans-Serif" font-size="10.00">include/kernels/Transient</text>
<text text-anchor="middle" x="3353" y="-74.5" font-family="Helvetica,sans-Serif" font-size="10.00">FissionHeatSource.h</text>
</a>
</g>
</g>
<!-- Node1&#45;&gt;Node44 -->
<g id="edge42" class="edge">
<title>Node1&#45;&gt;Node44</title>
<path fill="none" stroke="midnightblue" d="M2181.58,-146.67C2412.48,-141.23 3067.58,-123.89 3281,-98 3284.04,-97.63 3287.14,-97.2 3290.26,-96.73"/>
<polygon fill="midnightblue" stroke="midnightblue" points="2181.48,-143.17 2171.57,-146.91 2181.65,-150.17 2181.48,-143.17"/>
</g>
<!-- Node46 -->
<g id="node45" class="node">
<title>Node46</title>
<g id="a_node45"><a xlink:href="_elm_integ_tot_fiss_postprocessor_8h.html" target="_top" xlink:title=" ">
<polygon fill="white" stroke="black" points="3433.5,-67.5 3433.5,-97.5 3594.5,-97.5 3594.5,-67.5 3433.5,-67.5"/>
<text text-anchor="start" x="3441.5" y="-85.5" font-family="Helvetica,sans-Serif" font-size="10.00">include/postprocessors</text>
<text text-anchor="middle" x="3514" y="-74.5" font-family="Helvetica,sans-Serif" font-size="10.00">/ElmIntegTotFissPostprocessor.h</text>
</a>
</g>
</g>
<!-- Node1&#45;&gt;Node46 -->
<g id="edge44" class="edge">
<title>Node1&#45;&gt;Node46</title>
<path fill="none" stroke="midnightblue" d="M2181.84,-148.83C2389.84,-148.93 2955.5,-144.5 3424,-98 3426.99,-97.7 3430.04,-97.37 3433.11,-97.01"/>
<polygon fill="midnightblue" stroke="midnightblue" points="2181.61,-145.33 2171.61,-148.82 2181.61,-152.33 2181.61,-145.33"/>
</g>
<!-- Node52 -->
<g id="node48" class="node">
<title>Node52</title>
<g id="a_node48"><a xlink:href="_integral_new_variable_postprocessor_8h.html" target="_top" xlink:title=" ">
<polygon fill="white" stroke="red" points="3613,-67.5 3613,-97.5 3791,-97.5 3791,-67.5 3613,-67.5"/>
<text text-anchor="start" x="3621" y="-85.5" font-family="Helvetica,sans-Serif" font-size="10.00">include/postprocessors</text>
<text text-anchor="middle" x="3702" y="-74.5" font-family="Helvetica,sans-Serif" font-size="10.00">/IntegralNewVariablePostprocessor.h</text>
</a>
</g>
</g>
<!-- Node1&#45;&gt;Node52 -->
<g id="edge47" class="edge">
<title>Node1&#45;&gt;Node52</title>
<path fill="none" stroke="midnightblue" d="M2181.95,-149C2408.62,-149.7 3062.98,-146.95 3604,-98 3606.91,-97.74 3609.87,-97.44 3612.85,-97.13"/>
<polygon fill="midnightblue" stroke="midnightblue" points="2181.81,-145.5 2171.8,-148.97 2181.79,-152.5 2181.81,-145.5"/>
</g>
<!-- Node54 -->
<g id="node49" class="node">
<title>Node54</title>
<g id="a_node49"><a xlink:href="_integral_old_variable_postprocessor_8h.html" target="_top" xlink:title=" ">
<polygon fill="white" stroke="red" points="3809.5,-67.5 3809.5,-97.5 3982.5,-97.5 3982.5,-67.5 3809.5,-67.5"/>
<text text-anchor="start" x="3817.5" y="-85.5" font-family="Helvetica,sans-Serif" font-size="10.00">include/postprocessors</text>
<text text-anchor="middle" x="3896" y="-74.5" font-family="Helvetica,sans-Serif" font-size="10.00">/IntegralOldVariablePostprocessor.h</text>
</a>
</g>
</g>
<!-- Node1&#45;&gt;Node54 -->
<g id="edge48" class="edge">
<title>Node1&#45;&gt;Node54</title>
<path fill="none" stroke="midnightblue" d="M2181.9,-147.37C2476.27,-143.12 3480.12,-126.8 3800,-98 3803.11,-97.72 3806.26,-97.41 3809.45,-97.06"/>
<polygon fill="midnightblue" stroke="midnightblue" points="2181.68,-143.88 2171.73,-147.52 2181.78,-150.88 2181.68,-143.88"/>
</g>
<!-- Node56 -->
<g id="node50" class="node">
<title>Node56</title>
<g id="a_node50"><a xlink:href="_scalar_transport_base_8_c.html" target="_top" xlink:title=" ">
<polygon fill="white" stroke="black" points="4001,-67.5 4001,-97.5 4127,-97.5 4127,-67.5 4001,-67.5"/>
<text text-anchor="start" x="4009" y="-85.5" font-family="Helvetica,sans-Serif" font-size="10.00">src/base/ScalarTransport</text>
<text text-anchor="middle" x="4064" y="-74.5" font-family="Helvetica,sans-Serif" font-size="10.00">Base.C</text>
</a>
</g>
</g>
<!-- Node1&#45;&gt;Node56 -->
<g id="edge49" class="edge">
<title>Node1&#45;&gt;Node56</title>
<path fill="none" stroke="midnightblue" d="M2182,-148.19C2497.52,-146.7 3633.45,-138.58 3992,-98 3994.91,-97.67 3997.89,-97.28 4000.88,-96.85"/>
<polygon fill="midnightblue" stroke="midnightblue" points="2181.55,-144.69 2171.57,-148.24 2181.59,-151.69 2181.55,-144.69"/>
</g>
<!-- Node3 -->
<g id="node3" class="node">
<title>Node3</title>
<g id="a_node3"><a xlink:href="_coupled_scalar_advection_no_b_c_b_c_8_c.html" target="_top" xlink:title=" ">
<polygon fill="white" stroke="black" points="0,-0.5 0,-30.5 158,-30.5 158,-0.5 0,-0.5"/>
<text text-anchor="start" x="8" y="-18.5" font-family="Helvetica,sans-Serif" font-size="10.00">src/bcs/CoupledScalarAdvection</text>
<text text-anchor="middle" x="79" y="-7.5" font-family="Helvetica,sans-Serif" font-size="10.00">NoBCBC.C</text>
</a>
</g>
</g>
<!-- Node2&#45;&gt;Node3 -->
<g id="edge2" class="edge">
<title>Node2&#45;&gt;Node3</title>
<path fill="none" stroke="midnightblue" d="M91.04,-57.7C88.38,-48.59 85.43,-38.49 83.11,-30.58"/>
<polygon fill="midnightblue" stroke="midnightblue" points="87.71,-58.78 93.88,-67.4 94.43,-56.82 87.71,-58.78"/>
</g>
<!-- Node5 -->
<g id="node5" class="node">
<title>Node5</title>
<g id="a_node5"><a xlink:href="_lin_log_penalty_dirichlet_b_c_8_c.html" target="_top" xlink:title=" ">
<polygon fill="white" stroke="black" points="176,-6 176,-25 348,-25 348,-6 176,-6"/>
<text text-anchor="middle" x="262" y="-13" font-family="Helvetica,sans-Serif" font-size="10.00">src/bcs/LinLogPenaltyDirichletBC.C</text>
</a>
</g>
</g>
<!-- Node4&#45;&gt;Node5 -->
<g id="edge4" class="edge">
<title>Node4&#45;&gt;Node5</title>
<path fill="none" stroke="midnightblue" d="M263.25,-57.25C262.91,-46.02 262.52,-33.38 262.27,-25.19"/>
<polygon fill="midnightblue" stroke="midnightblue" points="259.76,-57.51 263.57,-67.4 266.76,-57.29 259.76,-57.51"/>
</g>
<!-- Node7 -->
<g id="node7" class="node">
<title>Node7</title>
<g id="a_node7"><a xlink:href="_scalar_advection_art_diff_no_b_c_b_c_8_c.html" target="_top" xlink:title=" ">
<polygon fill="white" stroke="black" points="366,-0.5 366,-30.5 502,-30.5 502,-0.5 366,-0.5"/>
<text text-anchor="start" x="374" y="-18.5" font-family="Helvetica,sans-Serif" font-size="10.00">src/bcs/ScalarAdvectionArt</text>
<text text-anchor="middle" x="434" y="-7.5" font-family="Helvetica,sans-Serif" font-size="10.00">DiffNoBCBC.C</text>
</a>
</g>
</g>
<!-- Node6&#45;&gt;Node7 -->
<g id="edge6" class="edge">
<title>Node6&#45;&gt;Node7</title>
<path fill="none" stroke="midnightblue" d="M426.45,-57.4C428.12,-48.37 429.96,-38.41 431.4,-30.58"/>
<polygon fill="midnightblue" stroke="midnightblue" points="422.98,-56.93 424.6,-67.4 429.86,-58.2 422.98,-56.93"/>
</g>
<!-- Node9 -->
<g id="node9" class="node">
<title>Node9</title>
<g id="a_node9"><a xlink:href="_vacuum_conc_b_c_8_c.html" target="_top" xlink:title=" ">
<polygon fill="white" stroke="black" points="520.5,-6 520.5,-25 653.5,-25 653.5,-6 520.5,-6"/>
<text text-anchor="middle" x="587" y="-13" font-family="Helvetica,sans-Serif" font-size="10.00">src/bcs/VacuumConcBC.C</text>
</a>
</g>
</g>
<!-- Node8&#45;&gt;Node9 -->
<g id="edge8" class="edge">
<title>Node8&#45;&gt;Node9</title>
<path fill="none" stroke="midnightblue" d="M585.58,-62.54C585.96,-50.17 586.44,-34.62 586.73,-25.13"/>
<polygon fill="midnightblue" stroke="midnightblue" points="582.08,-62.63 585.27,-72.73 589.08,-62.85 582.08,-62.63"/>
</g>
<!-- Node11 -->
<g id="node11" class="node">
<title>Node11</title>
<g id="a_node11"><a xlink:href="_coupled_fission_eigen_kernel_8_c.html" target="_top" xlink:title=" ">
<polygon fill="white" stroke="black" points="687,-0.5 687,-30.5 821,-30.5 821,-0.5 687,-0.5"/>
<text text-anchor="start" x="695" y="-18.5" font-family="Helvetica,sans-Serif" font-size="10.00">src/kernels/CoupledFission</text>
<text text-anchor="middle" x="754" y="-7.5" font-family="Helvetica,sans-Serif" font-size="10.00">EigenKernel.C</text>
</a>
</g>
</g>
<!-- Node10&#45;&gt;Node11 -->
<g id="edge10" class="edge">
<title>Node10&#45;&gt;Node11</title>
<path fill="none" stroke="midnightblue" d="M754,-57.11C754,-48.15 754,-38.32 754,-30.58"/>
<polygon fill="midnightblue" stroke="midnightblue" points="750.5,-57.4 754,-67.4 757.5,-57.4 750.5,-57.4"/>
</g>
<!-- Node13 -->
<g id="node13" class="node">
<title>Node13</title>
<g id="a_node13"><a xlink:href="_coupled_fission_kernel_8_c.html" target="_top" xlink:title=" ">
<polygon fill="white" stroke="black" points="857,-0.5 857,-30.5 991,-30.5 991,-0.5 857,-0.5"/>
<text text-anchor="start" x="865" y="-18.5" font-family="Helvetica,sans-Serif" font-size="10.00">src/kernels/CoupledFission</text>
<text text-anchor="middle" x="924" y="-7.5" font-family="Helvetica,sans-Serif" font-size="10.00">Kernel.C</text>
</a>
</g>
</g>
<!-- Node12&#45;&gt;Node13 -->
<g id="edge12" class="edge">
<title>Node12&#45;&gt;Node13</title>
<path fill="none" stroke="midnightblue" d="M924,-57.11C924,-48.15 924,-38.32 924,-30.58"/>
<polygon fill="midnightblue" stroke="midnightblue" points="920.5,-57.4 924,-67.4 927.5,-57.4 920.5,-57.4"/>
</g>
<!-- Node15 -->
<g id="node15" class="node">
<title>Node15</title>
<g id="a_node15"><a xlink:href="_coupled_scalar_advection_8_c.html" target="_top" xlink:title=" ">
<polygon fill="white" stroke="black" points="1024.5,-0.5 1024.5,-30.5 1155.5,-30.5 1155.5,-0.5 1024.5,-0.5"/>
<text text-anchor="start" x="1032.5" y="-18.5" font-family="Helvetica,sans-Serif" font-size="10.00">src/kernels/CoupledScalar</text>
<text text-anchor="middle" x="1090" y="-7.5" font-family="Helvetica,sans-Serif" font-size="10.00">Advection.C</text>
</a>
</g>
</g>
<!-- Node14&#45;&gt;Node15 -->
<g id="edge14" class="edge">
<title>Node14&#45;&gt;Node15</title>
<path fill="none" stroke="midnightblue" d="M1091.25,-57.11C1090.97,-48.15 1090.67,-38.32 1090.43,-30.58"/>
<polygon fill="midnightblue" stroke="midnightblue" points="1087.76,-57.51 1091.57,-67.4 1094.76,-57.29 1087.76,-57.51"/>
</g>
<!-- Node17 -->
<g id="node17" class="node">
<title>Node17</title>
<g id="a_node17"><a xlink:href="_decay_heat_source_8_c.html" target="_top" xlink:title=" ">
<polygon fill="white" stroke="black" points="1173.5,-6 1173.5,-25 1328.5,-25 1328.5,-6 1173.5,-6"/>
<text text-anchor="middle" x="1251" y="-13" font-family="Helvetica,sans-Serif" font-size="10.00">src/kernels/DecayHeatSource.C</text>
</a>
</g>
</g>
<!-- Node16&#45;&gt;Node17 -->
<g id="edge16" class="edge">
<title>Node16&#45;&gt;Node17</title>
<path fill="none" stroke="midnightblue" d="M1251,-57.25C1251,-46.02 1251,-33.38 1251,-25.19"/>
<polygon fill="midnightblue" stroke="midnightblue" points="1247.5,-57.4 1251,-67.4 1254.5,-57.4 1247.5,-57.4"/>
</g>
<!-- Node19 -->
<g id="node19" class="node">
<title>Node19</title>
<g id="a_node19"><a xlink:href="_delayed_neutron_eigen_source_8_c.html" target="_top" xlink:title=" ">
<polygon fill="white" stroke="black" points="1346.5,-0.5 1346.5,-30.5 1483.5,-30.5 1483.5,-0.5 1346.5,-0.5"/>
<text text-anchor="start" x="1354.5" y="-18.5" font-family="Helvetica,sans-Serif" font-size="10.00">src/kernels/DelayedNeutron</text>
<text text-anchor="middle" x="1415" y="-7.5" font-family="Helvetica,sans-Serif" font-size="10.00">EigenSource.C</text>
</a>
</g>
</g>
<!-- Node18&#45;&gt;Node19 -->
<g id="edge18" class="edge">
<title>Node18&#45;&gt;Node19</title>
<path fill="none" stroke="midnightblue" d="M1413.75,-57.11C1414.03,-48.15 1414.33,-38.32 1414.57,-30.58"/>
<polygon fill="midnightblue" stroke="midnightblue" points="1410.24,-57.29 1413.43,-67.4 1417.24,-57.51 1410.24,-57.29"/>
</g>
<!-- Node21 -->
<g id="node21" class="node">
<title>Node21</title>
<g id="a_node21"><a xlink:href="_delayed_neutron_source_8_c.html" target="_top" xlink:title=" ">
<polygon fill="white" stroke="black" points="1516.5,-0.5 1516.5,-30.5 1653.5,-30.5 1653.5,-0.5 1516.5,-0.5"/>
<text text-anchor="start" x="1524.5" y="-18.5" font-family="Helvetica,sans-Serif" font-size="10.00">src/kernels/DelayedNeutron</text>
<text text-anchor="middle" x="1585" y="-7.5" font-family="Helvetica,sans-Serif" font-size="10.00">Source.C</text>
</a>
</g>
</g>
<!-- Node20&#45;&gt;Node21 -->
<g id="edge20" class="edge">
<title>Node20&#45;&gt;Node21</title>
<path fill="none" stroke="midnightblue" d="M1585,-57.11C1585,-48.15 1585,-38.32 1585,-30.58"/>
<polygon fill="midnightblue" stroke="midnightblue" points="1581.5,-57.4 1585,-67.4 1588.5,-57.4 1581.5,-57.4"/>
</g>
<!-- Node23 -->
<g id="node23" class="node">
<title>Node23</title>
<g id="a_node23"><a xlink:href="_div_free_coupled_scalar_advection_8_c.html" target="_top" xlink:title=" ">
<polygon fill="white" stroke="black" points="1688.5,-0.5 1688.5,-30.5 1825.5,-30.5 1825.5,-0.5 1688.5,-0.5"/>
<text text-anchor="start" x="1696.5" y="-18.5" font-family="Helvetica,sans-Serif" font-size="10.00">src/kernels/DivFreeCoupled</text>
<text text-anchor="middle" x="1757" y="-7.5" font-family="Helvetica,sans-Serif" font-size="10.00">ScalarAdvection.C</text>
</a>
</g>
</g>
<!-- Node22&#45;&gt;Node23 -->
<g id="edge22" class="edge">
<title>Node22&#45;&gt;Node23</title>
<path fill="none" stroke="midnightblue" d="M1757,-57.11C1757,-48.15 1757,-38.32 1757,-30.58"/>
<polygon fill="midnightblue" stroke="midnightblue" points="1753.5,-57.4 1757,-67.4 1760.5,-57.4 1753.5,-57.4"/>
</g>
<!-- Node25 -->
<g id="node25" class="node">
<title>Node25</title>
<g id="a_node25"><a xlink:href="_group_diffusion_8_c.html" target="_top" xlink:title=" ">
<polygon fill="white" stroke="black" points="1860,-6 1860,-25 2000,-25 2000,-6 1860,-6"/>
<text text-anchor="middle" x="1930" y="-13" font-family="Helvetica,sans-Serif" font-size="10.00">src/kernels/GroupDiffusion.C</text>
</a>
</g>
</g>
<!-- Node24&#45;&gt;Node25 -->
<g id="edge24" class="edge">
<title>Node24&#45;&gt;Node25</title>
<path fill="none" stroke="midnightblue" d="M1930,-62.54C1930,-50.17 1930,-34.62 1930,-25.13"/>
<polygon fill="midnightblue" stroke="midnightblue" points="1926.5,-62.73 1930,-72.73 1933.5,-62.73 1926.5,-62.73"/>
</g>
<!-- Node27 -->
<g id="node27" class="node">
<title>Node27</title>
<g id="a_node27"><a xlink:href="_heat_precursor_decay_8_c.html" target="_top" xlink:title=" ">
<polygon fill="white" stroke="black" points="2034.5,-0.5 2034.5,-30.5 2165.5,-30.5 2165.5,-0.5 2034.5,-0.5"/>
<text text-anchor="start" x="2042.5" y="-18.5" font-family="Helvetica,sans-Serif" font-size="10.00">src/kernels/HeatPrecursor</text>
<text text-anchor="middle" x="2100" y="-7.5" font-family="Helvetica,sans-Serif" font-size="10.00">Decay.C</text>
</a>
</g>
</g>
<!-- Node26&#45;&gt;Node27 -->
<g id="edge26" class="edge">
<title>Node26&#45;&gt;Node27</title>
<path fill="none" stroke="midnightblue" d="M2100,-57.11C2100,-48.15 2100,-38.32 2100,-30.58"/>
<polygon fill="midnightblue" stroke="midnightblue" points="2096.5,-57.4 2100,-67.4 2103.5,-57.4 2096.5,-57.4"/>
</g>
<!-- Node29 -->
<g id="node29" class="node">
<title>Node29</title>
<g id="a_node29"><a xlink:href="_heat_precursor_source_8_c.html" target="_top" xlink:title=" ">
<polygon fill="white" stroke="black" points="2192.5,-0.5 2192.5,-30.5 2323.5,-30.5 2323.5,-0.5 2192.5,-0.5"/>
<text text-anchor="start" x="2200.5" y="-18.5" font-family="Helvetica,sans-Serif" font-size="10.00">src/kernels/HeatPrecursor</text>
<text text-anchor="middle" x="2258" y="-7.5" font-family="Helvetica,sans-Serif" font-size="10.00">Source.C</text>
</a>
</g>
</g>
<!-- Node28&#45;&gt;Node29 -->
<g id="edge28" class="edge">
<title>Node28&#45;&gt;Node29</title>
<path fill="none" stroke="midnightblue" d="M2263.03,-57.4C2261.92,-48.37 2260.7,-38.41 2259.73,-30.58"/>
<polygon fill="midnightblue" stroke="midnightblue" points="2259.57,-57.9 2264.26,-67.4 2266.52,-57.04 2259.57,-57.9"/>
</g>
<!-- Node31 -->
<g id="node31" class="node">
<title>Node31</title>
<g id="a_node31"><a xlink:href="_in_scatter_8_c.html" target="_top" xlink:title=" ">
<polygon fill="white" stroke="black" points="2342,-6 2342,-25 2458,-25 2458,-6 2342,-6"/>
<text text-anchor="middle" x="2400" y="-13" font-family="Helvetica,sans-Serif" font-size="10.00">src/kernels/InScatter.C</text>
</a>
</g>
</g>
<!-- Node30&#45;&gt;Node31 -->
<g id="edge30" class="edge">
<title>Node30&#45;&gt;Node31</title>
<path fill="none" stroke="midnightblue" d="M2417.28,-63.29C2412.67,-50.81 2406.76,-34.81 2403.19,-25.13"/>
<polygon fill="midnightblue" stroke="midnightblue" points="2414.02,-64.57 2420.76,-72.73 2420.58,-62.14 2414.02,-64.57"/>
</g>
<!-- Node33 -->
<g id="node33" class="node">
<title>Node33</title>
<g id="a_node33"><a xlink:href="_precursor_decay_8_c.html" target="_top" xlink:title=" ">
<polygon fill="white" stroke="black" points="2476,-6 2476,-25 2622,-25 2622,-6 2476,-6"/>
<text text-anchor="middle" x="2549" y="-13" font-family="Helvetica,sans-Serif" font-size="10.00">src/kernels/PrecursorDecay.C</text>
</a>
</g>
</g>
<!-- Node32&#45;&gt;Node33 -->
<g id="edge32" class="edge">
<title>Node32&#45;&gt;Node33</title>
<path fill="none" stroke="midnightblue" d="M2563.66,-57.94C2559.63,-46.54 2555.03,-33.55 2552.08,-25.19"/>
<polygon fill="midnightblue" stroke="midnightblue" points="2560.37,-59.14 2567.01,-67.4 2566.97,-56.8 2560.37,-59.14"/>
</g>
<!-- Node35 -->
<g id="node35" class="node">
<title>Node35</title>
<g id="a_node35"><a xlink:href="_precursor_source_8_c.html" target="_top" xlink:title=" ">
<polygon fill="white" stroke="black" points="2640.5,-6 2640.5,-25 2789.5,-25 2789.5,-6 2640.5,-6"/>
<text text-anchor="middle" x="2715" y="-13" font-family="Helvetica,sans-Serif" font-size="10.00">src/kernels/PrecursorSource.C</text>
</a>
</g>
</g>
<!-- Node34&#45;&gt;Node35 -->
<g id="edge34" class="edge">
<title>Node34&#45;&gt;Node35</title>
<path fill="none" stroke="midnightblue" d="M2716.25,-57.25C2715.91,-46.02 2715.52,-33.38 2715.27,-25.19"/>
<polygon fill="midnightblue" stroke="midnightblue" points="2712.76,-57.51 2716.57,-67.4 2719.76,-57.29 2712.76,-57.51"/>
</g>
<!-- Node37 -->
<g id="node37" class="node">
<title>Node37</title>
<g id="a_node37"><a xlink:href="_scalar_advection_art_diff_8_c.html" target="_top" xlink:title=" ">
<polygon fill="white" stroke="black" points="2807.5,-0.5 2807.5,-30.5 2946.5,-30.5 2946.5,-0.5 2807.5,-0.5"/>
<text text-anchor="start" x="2815.5" y="-18.5" font-family="Helvetica,sans-Serif" font-size="10.00">src/kernels/ScalarAdvection</text>
<text text-anchor="middle" x="2877" y="-7.5" font-family="Helvetica,sans-Serif" font-size="10.00">ArtDiff.C</text>
</a>
</g>
</g>
<!-- Node36&#45;&gt;Node37 -->
<g id="edge36" class="edge">
<title>Node36&#45;&gt;Node37</title>
<path fill="none" stroke="midnightblue" d="M2877,-57.11C2877,-48.15 2877,-38.32 2877,-30.58"/>
<polygon fill="midnightblue" stroke="midnightblue" points="2873.5,-57.4 2877,-67.4 2880.5,-57.4 2873.5,-57.4"/>
</g>
<!-- Node39 -->
<g id="node39" class="node">
<title>Node39</title>
<g id="a_node39"><a xlink:href="_nt_time_derivative_8h.html" target="_top" xlink:title=" ">
<polygon fill="white" stroke="red" points="2965,-6 2965,-25 3133,-25 3133,-6 2965,-6"/>
<text text-anchor="middle" x="3049" y="-13" font-family="Helvetica,sans-Serif" font-size="10.00">include/kernels/NtTimeDerivative.h</text>
</a>
</g>
</g>
<!-- Node38&#45;&gt;Node39 -->
<g id="edge38" class="edge">
<title>Node38&#45;&gt;Node39</title>
<path fill="none" stroke="midnightblue" d="M3049.63,-57.25C3049.45,-46.02 3049.26,-33.38 3049.13,-25.19"/>
<polygon fill="midnightblue" stroke="midnightblue" points="3046.13,-57.45 3049.78,-67.4 3053.13,-57.34 3046.13,-57.45"/>
</g>
<!-- Node41 -->
<g id="node40" class="node">
<title>Node41</title>
<g id="a_node40"><a xlink:href="_scalar_transport_time_derivative_8_c.html" target="_top" xlink:title=" ">
<polygon fill="white" stroke="black" points="3151.5,-0.5 3151.5,-30.5 3288.5,-30.5 3288.5,-0.5 3151.5,-0.5"/>
<text text-anchor="start" x="3159.5" y="-18.5" font-family="Helvetica,sans-Serif" font-size="10.00">src/kernels/ScalarTransport</text>
<text text-anchor="middle" x="3220" y="-7.5" font-family="Helvetica,sans-Serif" font-size="10.00">TimeDerivative.C</text>
</a>
</g>
</g>
<!-- Node38&#45;&gt;Node41 -->
<g id="edge39" class="edge">
<title>Node38&#45;&gt;Node41</title>
<path fill="none" stroke="midnightblue" d="M3096.24,-63.82C3123.57,-53.37 3157.69,-40.32 3183.18,-30.58"/>
<polygon fill="midnightblue" stroke="midnightblue" points="3094.98,-60.56 3086.89,-67.4 3097.48,-67.09 3094.98,-60.56"/>
</g>
<!-- Node43 -->
<g id="node42" class="node">
<title>Node43</title>
<g id="a_node42"><a xlink:href="_sigma_r_8_c.html" target="_top" xlink:title=" ">
<polygon fill="white" stroke="black" points="3306.5,-6 3306.5,-25 3417.5,-25 3417.5,-6 3306.5,-6"/>
<text text-anchor="middle" x="3362" y="-13" font-family="Helvetica,sans-Serif" font-size="10.00">src/kernels/SigmaR.C</text>
</a>
</g>
</g>
<!-- Node42&#45;&gt;Node43 -->
<g id="edge41" class="edge">
<title>Node42&#45;&gt;Node43</title>
<path fill="none" stroke="midnightblue" d="M3238.54,-68.95C3268.84,-56.08 3315.15,-36.4 3341.6,-25.17"/>
<polygon fill="midnightblue" stroke="midnightblue" points="3237.15,-65.74 3229.32,-72.87 3239.89,-72.18 3237.15,-65.74"/>
</g>
<!-- Node45 -->
<g id="node44" class="node">
<title>Node45</title>
<g id="a_node44"><a xlink:href="_transient_fission_heat_source_8_c.html" target="_top" xlink:title=" ">
<polygon fill="white" stroke="black" points="3436,-0.5 3436,-30.5 3576,-30.5 3576,-0.5 3436,-0.5"/>
<text text-anchor="start" x="3444" y="-18.5" font-family="Helvetica,sans-Serif" font-size="10.00">src/kernels/TransientFission</text>
<text text-anchor="middle" x="3506" y="-7.5" font-family="Helvetica,sans-Serif" font-size="10.00">HeatSource.C</text>
</a>
</g>
</g>
<!-- Node44&#45;&gt;Node45 -->
<g id="edge43" class="edge">
<title>Node44&#45;&gt;Node45</title>
<path fill="none" stroke="midnightblue" d="M3395.59,-63.41C3420.02,-53.03 3450.22,-40.2 3472.87,-30.58"/>
<polygon fill="midnightblue" stroke="midnightblue" points="3394.03,-60.26 3386.2,-67.4 3396.77,-66.71 3394.03,-60.26"/>
</g>
<!-- Node47 -->
<g id="node46" class="node">
<title>Node47</title>
<g id="a_node46"><a xlink:href="_elm_integ_tot_fiss_heat_postprocessor_8h.html" target="_top" xlink:title=" ">
<polygon fill="white" stroke="red" points="3594,-0.5 3594,-30.5 3776,-30.5 3776,-0.5 3594,-0.5"/>
<text text-anchor="start" x="3602" y="-18.5" font-family="Helvetica,sans-Serif" font-size="10.00">include/postprocessors</text>
<text text-anchor="middle" x="3685" y="-7.5" font-family="Helvetica,sans-Serif" font-size="10.00">/ElmIntegTotFissHeatPostprocessor.h</text>
</a>
</g>
</g>
<!-- Node46&#45;&gt;Node47 -->
<g id="edge45" class="edge">
<title>Node46&#45;&gt;Node47</title>
<path fill="none" stroke="midnightblue" d="M3560.52,-63.82C3588,-53.37 3622.33,-40.32 3647.97,-30.58"/>
<polygon fill="midnightblue" stroke="midnightblue" points="3559.21,-60.57 3551.1,-67.4 3561.7,-67.11 3559.21,-60.57"/>
</g>
<!-- Node51 -->
<g id="node47" class="node">
<title>Node51</title>
<g id="a_node47"><a xlink:href="_elm_integ_tot_fiss_postprocessor_8_c.html" target="_top" xlink:title=" ">
<polygon fill="white" stroke="black" points="3794.5,-0.5 3794.5,-30.5 3957.5,-30.5 3957.5,-0.5 3794.5,-0.5"/>
<text text-anchor="start" x="3802.5" y="-18.5" font-family="Helvetica,sans-Serif" font-size="10.00">src/postprocessors</text>
<text text-anchor="middle" x="3876" y="-7.5" font-family="Helvetica,sans-Serif" font-size="10.00">/ElmIntegTotFissPostprocessor.C</text>
</a>
</g>
</g>
<!-- Node46&#45;&gt;Node51 -->
<g id="edge46" class="edge">
<title>Node46&#45;&gt;Node51</title>
<path fill="none" stroke="midnightblue" d="M3602.28,-65.65C3662.02,-54.92 3740.21,-40.88 3797.73,-30.55"/>
<polygon fill="midnightblue" stroke="midnightblue" points="3601.33,-62.26 3592.1,-67.48 3602.56,-69.15 3601.33,-62.26"/>
</g>
</g>
</svg>
