<?xml version="1.0" encoding="UTF-8" standalone="no"?>
<!DOCTYPE svg PUBLIC "-//W3C//DTD SVG 1.1//EN"
 "http://www.w3.org/Graphics/SVG/1.1/DTD/svg11.dtd">
<!-- Generated by graphviz version 2.43.0 (0)
 -->
<!-- Title: include/base/ScalarTransportBase.h Pages: 1 -->
<svg width="4090pt" height="173pt"
 viewBox="0.00 0.00 4090.00 173.00" xmlns="http://www.w3.org/2000/svg" xmlns:xlink="http://www.w3.org/1999/xlink">
<g id="graph0" class="graph" transform="scale(1 1) rotate(0) translate(4 169)">
<title>include/base/ScalarTransportBase.h</title>
<polygon fill="white" stroke="transparent" points="-4,4 -4,-169 4086,-169 4086,4 -4,4"/>
<!-- Node1 -->
<g id="node1" class="node">
<title>Node1</title>
<g id="a_node1"><a xlink:title=" ">
<polygon fill="#bfbfbf" stroke="black" points="1958.5,-134.5 1958.5,-164.5 2101.5,-164.5 2101.5,-134.5 1958.5,-134.5"/>
<text text-anchor="start" x="1966.5" y="-152.5" font-family="Helvetica,sans-Serif" font-size="10.00">include/base/ScalarTransport</text>
<text text-anchor="middle" x="2030" y="-141.5" font-family="Helvetica,sans-Serif" font-size="10.00">Base.h</text>
</a>
</g>
</g>
<!-- Node2 -->
<g id="node2" class="node">
<title>Node2</title>
<g id="a_node2"><a xlink:href="_scalar_transport_base_8_c.html" target="_top" xlink:title=" ">
<polygon fill="white" stroke="black" points="0,-67.5 0,-97.5 126,-97.5 126,-67.5 0,-67.5"/>
<text text-anchor="start" x="8" y="-85.5" font-family="Helvetica,sans-Serif" font-size="10.00">src/base/ScalarTransport</text>
<text text-anchor="middle" x="63" y="-74.5" font-family="Helvetica,sans-Serif" font-size="10.00">Base.C</text>
</a>
</g>
</g>
<!-- Node1&#45;&gt;Node2 -->
<g id="edge1" class="edge">
<title>Node1&#45;&gt;Node2</title>
<path fill="none" stroke="midnightblue" d="M1947.87,-148.19C1631.85,-146.72 494.12,-138.64 135,-98 132.09,-97.67 129.11,-97.28 126.12,-96.85"/>
<polygon fill="midnightblue" stroke="midnightblue" points="1948.3,-151.69 1958.32,-148.24 1948.33,-144.69 1948.3,-151.69"/>
</g>
<!-- Node3 -->
<g id="node3" class="node">
<title>Node3</title>
<g id="a_node3"><a xlink:href="_coupled_scalar_advection_no_b_c_b_c_8h.html" target="_top" xlink:title=" ">
<polygon fill="white" stroke="black" points="144.5,-67.5 144.5,-97.5 277.5,-97.5 277.5,-67.5 144.5,-67.5"/>
<text text-anchor="start" x="152.5" y="-85.5" font-family="Helvetica,sans-Serif" font-size="10.00">include/bcs/CoupledScalar</text>
<text text-anchor="middle" x="211" y="-74.5" font-family="Helvetica,sans-Serif" font-size="10.00">AdvectionNoBCBC.h</text>
</a>
</g>
</g>
<!-- Node1&#45;&gt;Node3 -->
<g id="edge2" class="edge">
<title>Node1&#45;&gt;Node3</title>
<path fill="none" stroke="midnightblue" d="M1947.98,-147.89C1648.48,-145.38 614.23,-134.24 286,-98 283.23,-97.69 280.41,-97.34 277.57,-96.95"/>
<polygon fill="midnightblue" stroke="midnightblue" points="1948.3,-151.39 1958.33,-147.97 1948.35,-144.39 1948.3,-151.39"/>
</g>
<!-- Node5 -->
<g id="node5" class="node">
<title>Node5</title>
<g id="a_node5"><a xlink:href="_lin_log_penalty_dirichlet_b_c_8h.html" target="_top" xlink:title=" ">
<polygon fill="white" stroke="black" points="295.5,-67.5 295.5,-97.5 426.5,-97.5 426.5,-67.5 295.5,-67.5"/>
<text text-anchor="start" x="303.5" y="-85.5" font-family="Helvetica,sans-Serif" font-size="10.00">include/bcs/LinLogPenalty</text>
<text text-anchor="middle" x="361" y="-74.5" font-family="Helvetica,sans-Serif" font-size="10.00">DirichletBC.h</text>
</a>
</g>
</g>
<!-- Node1&#45;&gt;Node5 -->
<g id="edge4" class="edge">
<title>Node1&#45;&gt;Node5</title>
<path fill="none" stroke="midnightblue" d="M1947.98,-147.63C1665.41,-144.36 733.45,-131.25 436,-98 432.97,-97.66 429.88,-97.27 426.76,-96.83"/>
<polygon fill="midnightblue" stroke="midnightblue" points="1948.11,-151.13 1958.15,-147.75 1948.19,-144.13 1948.11,-151.13"/>
</g>
<!-- Node7 -->
<g id="node7" class="node">
<title>Node7</title>
<g id="a_node7"><a xlink:href="_scalar_advection_art_diff_no_b_c_b_c_8h.html" target="_top" xlink:title=" ">
<polygon fill="white" stroke="black" points="445,-67.5 445,-97.5 585,-97.5 585,-67.5 445,-67.5"/>
<text text-anchor="start" x="453" y="-85.5" font-family="Helvetica,sans-Serif" font-size="10.00">include/bcs/ScalarAdvection</text>
<text text-anchor="middle" x="515" y="-74.5" font-family="Helvetica,sans-Serif" font-size="10.00">ArtDiffNoBCBC.h</text>
</a>
</g>
</g>
<!-- Node1&#45;&gt;Node7 -->
<g id="edge6" class="edge">
<title>Node1&#45;&gt;Node7</title>
<path fill="none" stroke="midnightblue" d="M1948.21,-147.2C1684.66,-142.76 859.38,-126.86 594,-98 591.09,-97.68 588.12,-97.32 585.13,-96.92"/>
<polygon fill="midnightblue" stroke="midnightblue" points="1948.41,-150.7 1958.47,-147.37 1948.53,-143.7 1948.41,-150.7"/>
</g>
<!-- Node9 -->
<g id="node9" class="node">
<title>Node9</title>
<g id="a_node9"><a xlink:href="_vacuum_conc_b_c_8h.html" target="_top" xlink:title=" ">
<polygon fill="white" stroke="black" points="603,-73 603,-92 753,-92 753,-73 603,-73"/>
<text text-anchor="middle" x="678" y="-80" font-family="Helvetica,sans-Serif" font-size="10.00">include/bcs/VacuumConcBC.h</text>
</a>
</g>
</g>
<!-- Node1&#45;&gt;Node9 -->
<g id="edge8" class="edge">
<title>Node1&#45;&gt;Node9</title>
<path fill="none" stroke="midnightblue" d="M1948.03,-148.95C1745.92,-149.25 1207.77,-145.15 762,-98 748.61,-96.58 734.12,-94.34 721.01,-92.04"/>
<polygon fill="midnightblue" stroke="midnightblue" points="1948.27,-152.45 1958.26,-148.93 1948.26,-145.45 1948.27,-152.45"/>
</g>
<!-- Node11 -->
<g id="node11" class="node">
<title>Node11</title>
<g id="a_node11"><a xlink:href="_coupled_fission_eigen_kernel_8h.html" target="_top" xlink:title=" ">
<polygon fill="white" stroke="black" points="771,-67.5 771,-97.5 923,-97.5 923,-67.5 771,-67.5"/>
<text text-anchor="start" x="779" y="-85.5" font-family="Helvetica,sans-Serif" font-size="10.00">include/kernels/CoupledFission</text>
<text text-anchor="middle" x="847" y="-74.5" font-family="Helvetica,sans-Serif" font-size="10.00">EigenKernel.h</text>
</a>
</g>
</g>
<!-- Node1&#45;&gt;Node11 -->
<g id="edge10" class="edge">
<title>Node1&#45;&gt;Node11</title>
<path fill="none" stroke="midnightblue" d="M1948.41,-148.17C1765.8,-146.69 1310.46,-138.83 932,-98 929.17,-97.69 926.3,-97.36 923.39,-96.99"/>
<polygon fill="midnightblue" stroke="midnightblue" points="1948.45,-151.67 1958.47,-148.25 1948.5,-144.67 1948.45,-151.67"/>
</g>
<!-- Node13 -->
<g id="node13" class="node">
<title>Node13</title>
<g id="a_node13"><a xlink:href="_coupled_fission_kernel_8h.html" target="_top" xlink:title=" ">
<polygon fill="white" stroke="black" points="941,-67.5 941,-97.5 1093,-97.5 1093,-67.5 941,-67.5"/>
<text text-anchor="start" x="949" y="-85.5" font-family="Helvetica,sans-Serif" font-size="10.00">include/kernels/CoupledFission</text>
<text text-anchor="middle" x="1017" y="-74.5" font-family="Helvetica,sans-Serif" font-size="10.00">Kernel.h</text>
</a>
</g>
</g>
<!-- Node1&#45;&gt;Node13 -->
<g id="edge12" class="edge">
<title>Node1&#45;&gt;Node13</title>
<path fill="none" stroke="midnightblue" d="M1948.09,-147.19C1786.04,-143.91 1413.25,-132.9 1102,-98 1099.17,-97.68 1096.3,-97.33 1093.4,-96.96"/>
<polygon fill="midnightblue" stroke="midnightblue" points="1948.39,-150.7 1958.46,-147.4 1948.53,-143.7 1948.39,-150.7"/>
</g>
<!-- Node15 -->
<g id="node15" class="node">
<title>Node15</title>
<g id="a_node15"><a xlink:href="_coupled_scalar_advection_8h.html" target="_top" xlink:title=" ">
<polygon fill="white" stroke="black" points="1111.5,-67.5 1111.5,-97.5 1260.5,-97.5 1260.5,-67.5 1111.5,-67.5"/>
<text text-anchor="start" x="1119.5" y="-85.5" font-family="Helvetica,sans-Serif" font-size="10.00">include/kernels/CoupledScalar</text>
<text text-anchor="middle" x="1186" y="-74.5" font-family="Helvetica,sans-Serif" font-size="10.00">Advection.h</text>
</a>
</g>
</g>
<!-- Node1&#45;&gt;Node15 -->
<g id="edge14" class="edge">
<title>Node1&#45;&gt;Node15</title>
<path fill="none" stroke="midnightblue" d="M1948.07,-145.87C1808.48,-140.75 1515.79,-127.3 1270,-98 1266.91,-97.63 1263.77,-97.23 1260.6,-96.79"/>
<polygon fill="midnightblue" stroke="midnightblue" points="1948.14,-149.37 1958.26,-146.23 1948.39,-142.38 1948.14,-149.37"/>
</g>
<!-- Node17 -->
<g id="node17" class="node">
<title>Node17</title>
<g id="a_node17"><a xlink:href="_decay_heat_source_8h.html" target="_top" xlink:title=" ">
<polygon fill="white" stroke="black" points="1279,-67.5 1279,-97.5 1413,-97.5 1413,-67.5 1279,-67.5"/>
<text text-anchor="start" x="1287" y="-85.5" font-family="Helvetica,sans-Serif" font-size="10.00">include/kernels/DecayHeat</text>
<text text-anchor="middle" x="1346" y="-74.5" font-family="Helvetica,sans-Serif" font-size="10.00">Source.h</text>
</a>
</g>
</g>
<!-- Node1&#45;&gt;Node17 -->
<g id="edge16" class="edge">
<title>Node1&#45;&gt;Node17</title>
<path fill="none" stroke="midnightblue" d="M1947.81,-144.44C1830.69,-138.02 1609.19,-123.56 1422,-98 1419.07,-97.6 1416.09,-97.16 1413.07,-96.7"/>
<polygon fill="midnightblue" stroke="midnightblue" points="1947.96,-147.95 1958.13,-144.99 1948.33,-140.96 1947.96,-147.95"/>
</g>
<!-- Node19 -->
<g id="node19" class="node">
<title>Node19</title>
<g id="a_node19"><a xlink:href="_delayed_neutron_eigen_source_8h.html" target="_top" xlink:title=" ">
<polygon fill="white" stroke="black" points="1431.5,-67.5 1431.5,-97.5 1586.5,-97.5 1586.5,-67.5 1431.5,-67.5"/>
<text text-anchor="start" x="1439.5" y="-85.5" font-family="Helvetica,sans-Serif" font-size="10.00">include/kernels/DelayedNeutron</text>
<text text-anchor="middle" x="1509" y="-74.5" font-family="Helvetica,sans-Serif" font-size="10.00">EigenSource.h</text>
</a>
</g>
</g>
<!-- Node1&#45;&gt;Node19 -->
<g id="edge18" class="edge">
<title>Node1&#45;&gt;Node19</title>
<path fill="none" stroke="midnightblue" d="M1948.13,-140.27C1860.57,-131.16 1717.72,-115.46 1595,-98 1592.3,-97.62 1589.56,-97.21 1586.79,-96.8"/>
<polygon fill="midnightblue" stroke="midnightblue" points="1947.96,-143.77 1958.27,-141.32 1948.68,-136.8 1947.96,-143.77"/>
</g>
<!-- Node21 -->
<g id="node21" class="node">
<title>Node21</title>
<g id="a_node21"><a xlink:href="_delayed_neutron_source_8h.html" target="_top" xlink:title=" ">
<polygon fill="white" stroke="black" points="1604.5,-67.5 1604.5,-97.5 1759.5,-97.5 1759.5,-67.5 1604.5,-67.5"/>
<text text-anchor="start" x="1612.5" y="-85.5" font-family="Helvetica,sans-Serif" font-size="10.00">include/kernels/DelayedNeutron</text>
<text text-anchor="middle" x="1682" y="-74.5" font-family="Helvetica,sans-Serif" font-size="10.00">Source.h</text>
</a>
</g>
</g>
<!-- Node1&#45;&gt;Node21 -->
<g id="edge20" class="edge">
<title>Node1&#45;&gt;Node21</title>
<path fill="none" stroke="midnightblue" d="M1948.48,-133.27C1890.63,-122.47 1813.57,-108.08 1757.2,-97.55"/>
<polygon fill="midnightblue" stroke="midnightblue" points="1947.84,-136.72 1958.32,-135.11 1949.13,-129.83 1947.84,-136.72"/>
</g>
<!-- Node23 -->
<g id="node23" class="node">
<title>Node23</title>
<g id="a_node23"><a xlink:href="_div_free_coupled_scalar_advection_8h.html" target="_top" xlink:title=" ">
<polygon fill="white" stroke="black" points="1777.5,-67.5 1777.5,-97.5 1932.5,-97.5 1932.5,-67.5 1777.5,-67.5"/>
<text text-anchor="start" x="1785.5" y="-85.5" font-family="Helvetica,sans-Serif" font-size="10.00">include/kernels/DivFreeCoupled</text>
<text text-anchor="middle" x="1855" y="-74.5" font-family="Helvetica,sans-Serif" font-size="10.00">ScalarAdvection.h</text>
</a>
</g>
</g>
<!-- Node1&#45;&gt;Node23 -->
<g id="edge22" class="edge">
<title>Node1&#45;&gt;Node23</title>
<path fill="none" stroke="midnightblue" d="M1982.4,-130.82C1954.27,-120.37 1919.14,-107.32 1892.9,-97.58"/>
<polygon fill="midnightblue" stroke="midnightblue" points="1981.43,-134.2 1992.03,-134.4 1983.87,-127.63 1981.43,-134.2"/>
</g>
<!-- Node25 -->
<g id="node25" class="node">
<title>Node25</title>
<g id="a_node25"><a xlink:href="_group_diffusion_8h.html" target="_top" xlink:title=" ">
<polygon fill="white" stroke="black" points="1951,-73 1951,-92 2109,-92 2109,-73 1951,-73"/>
<text text-anchor="middle" x="2030" y="-80" font-family="Helvetica,sans-Serif" font-size="10.00">include/kernels/GroupDiffusion.h</text>
</a>
</g>
</g>
<!-- Node1&#45;&gt;Node25 -->
<g id="edge24" class="edge">
<title>Node1&#45;&gt;Node25</title>
<path fill="none" stroke="midnightblue" d="M2030,-124.25C2030,-113.02 2030,-100.38 2030,-92.19"/>
<polygon fill="midnightblue" stroke="midnightblue" points="2026.5,-124.4 2030,-134.4 2033.5,-124.4 2026.5,-124.4"/>
</g>
<!-- Node27 -->
<g id="node27" class="node">
<title>Node27</title>
<g id="a_node27"><a xlink:href="_heat_precursor_decay_8h.html" target="_top" xlink:title=" ">
<polygon fill="white" stroke="black" points="2127,-67.5 2127,-97.5 2275,-97.5 2275,-67.5 2127,-67.5"/>
<text text-anchor="start" x="2135" y="-85.5" font-family="Helvetica,sans-Serif" font-size="10.00">include/kernels/HeatPrecursor</text>
<text text-anchor="middle" x="2201" y="-74.5" font-family="Helvetica,sans-Serif" font-size="10.00">Decay.h</text>
</a>
</g>
</g>
<!-- Node1&#45;&gt;Node27 -->
<g id="edge26" class="edge">
<title>Node1&#45;&gt;Node27</title>
<path fill="none" stroke="midnightblue" d="M2076.52,-130.82C2104,-120.37 2138.33,-107.32 2163.97,-97.58"/>
<polygon fill="midnightblue" stroke="midnightblue" points="2075.21,-127.57 2067.1,-134.4 2077.7,-134.11 2075.21,-127.57"/>
</g>
<!-- Node29 -->
<g id="node29" class="node">
<title>Node29</title>
<g id="a_node29"><a xlink:href="_heat_precursor_source_8h.html" target="_top" xlink:title=" ">
<polygon fill="white" stroke="black" points="2293,-67.5 2293,-97.5 2441,-97.5 2441,-67.5 2293,-67.5"/>
<text text-anchor="start" x="2301" y="-85.5" font-family="Helvetica,sans-Serif" font-size="10.00">include/kernels/HeatPrecursor</text>
<text text-anchor="middle" x="2367" y="-74.5" font-family="Helvetica,sans-Serif" font-size="10.00">Source.h</text>
</a>
</g>
</g>
<!-- Node1&#45;&gt;Node29 -->
<g id="edge28" class="edge">
<title>Node1&#45;&gt;Node29</title>
<path fill="none" stroke="midnightblue" d="M2111.73,-132.74C2167.47,-121.98 2240.65,-107.87 2294.36,-97.51"/>
<polygon fill="midnightblue" stroke="midnightblue" points="2111.04,-129.3 2101.88,-134.64 2112.36,-136.18 2111.04,-129.3"/>
</g>
<!-- Node31 -->
<g id="node31" class="node">
<title>Node31</title>
<g id="a_node31"><a xlink:href="_in_scatter_8h.html" target="_top" xlink:title=" ">
<polygon fill="white" stroke="black" points="2459,-73 2459,-92 2591,-92 2591,-73 2459,-73"/>
<text text-anchor="middle" x="2525" y="-80" font-family="Helvetica,sans-Serif" font-size="10.00">include/kernels/InScatter.h</text>
</a>
</g>
</g>
<!-- Node1&#45;&gt;Node31 -->
<g id="edge30" class="edge">
<title>Node1&#45;&gt;Node31</title>
<path fill="none" stroke="midnightblue" d="M2111.64,-140.43C2196.44,-131.63 2332.86,-116.34 2450,-98 2461.01,-96.28 2472.86,-94.12 2483.83,-92.01"/>
<polygon fill="midnightblue" stroke="midnightblue" points="2111.14,-136.96 2101.56,-141.47 2111.86,-143.92 2111.14,-136.96"/>
</g>
<!-- Node33 -->
<g id="node33" class="node">
<title>Node33</title>
<g id="a_node33"><a xlink:href="_scalar_transport_time_derivative_8h.html" target="_top" xlink:title=" ">
<polygon fill="white" stroke="black" points="2609,-67.5 2609,-97.5 2763,-97.5 2763,-67.5 2609,-67.5"/>
<text text-anchor="start" x="2617" y="-85.5" font-family="Helvetica,sans-Serif" font-size="10.00">include/kernels/ScalarTransport</text>
<text text-anchor="middle" x="2686" y="-74.5" font-family="Helvetica,sans-Serif" font-size="10.00">TimeDerivative.h</text>
</a>
</g>
</g>
<!-- Node1&#45;&gt;Node33 -->
<g id="edge32" class="edge">
<title>Node1&#45;&gt;Node33</title>
<path fill="none" stroke="midnightblue" d="M2111.84,-143.28C2222.75,-135.74 2426.81,-120.24 2600,-98 2602.85,-97.63 2605.76,-97.24 2608.69,-96.83"/>
<polygon fill="midnightblue" stroke="midnightblue" points="2111.47,-139.8 2101.73,-143.96 2111.94,-146.78 2111.47,-139.8"/>
</g>
<!-- Node37 -->
<g id="node36" class="node">
<title>Node37</title>
<g id="a_node36"><a xlink:href="_precursor_decay_8h.html" target="_top" xlink:title=" ">
<polygon fill="white" stroke="black" points="2781.5,-67.5 2781.5,-97.5 2908.5,-97.5 2908.5,-67.5 2781.5,-67.5"/>
<text text-anchor="start" x="2789.5" y="-85.5" font-family="Helvetica,sans-Serif" font-size="10.00">include/kernels/Precursor</text>
<text text-anchor="middle" x="2845" y="-74.5" font-family="Helvetica,sans-Serif" font-size="10.00">Decay.h</text>
</a>
</g>
</g>
<!-- Node1&#45;&gt;Node37 -->
<g id="edge35" class="edge">
<title>Node1&#45;&gt;Node37</title>
<path fill="none" stroke="midnightblue" d="M2111.68,-146.36C2248.71,-142.01 2533.34,-129.69 2772,-98 2775.07,-97.59 2778.21,-97.13 2781.38,-96.64"/>
<polygon fill="midnightblue" stroke="midnightblue" points="2111.56,-142.86 2101.67,-146.67 2111.78,-149.86 2111.56,-142.86"/>
</g>
<!-- Node39 -->
<g id="node38" class="node">
<title>Node39</title>
<g id="a_node38"><a xlink:href="_precursor_source_8h.html" target="_top" xlink:title=" ">
<polygon fill="white" stroke="black" points="2926.5,-67.5 2926.5,-97.5 3053.5,-97.5 3053.5,-67.5 2926.5,-67.5"/>
<text text-anchor="start" x="2934.5" y="-85.5" font-family="Helvetica,sans-Serif" font-size="10.00">include/kernels/Precursor</text>
<text text-anchor="middle" x="2990" y="-74.5" font-family="Helvetica,sans-Serif" font-size="10.00">Source.h</text>
</a>
</g>
</g>
<!-- Node1&#45;&gt;Node39 -->
<g id="edge37" class="edge">
<title>Node1&#45;&gt;Node39</title>
<path fill="none" stroke="midnightblue" d="M2111.63,-147.64C2268.36,-145.16 2622.05,-135.5 2917,-98 2920.08,-97.61 2923.22,-97.16 2926.38,-96.68"/>
<polygon fill="midnightblue" stroke="midnightblue" points="2111.54,-144.14 2101.59,-147.8 2111.64,-151.14 2111.54,-144.14"/>
</g>
<!-- Node41 -->
<g id="node40" class="node">
<title>Node41</title>
<g id="a_node40"><a xlink:href="_scalar_advection_art_diff_8h.html" target="_top" xlink:title=" ">
<polygon fill="white" stroke="black" points="3072,-67.5 3072,-97.5 3228,-97.5 3228,-67.5 3072,-67.5"/>
<text text-anchor="start" x="3080" y="-85.5" font-family="Helvetica,sans-Serif" font-size="10.00">include/kernels/ScalarAdvection</text>
<text text-anchor="middle" x="3150" y="-74.5" font-family="Helvetica,sans-Serif" font-size="10.00">ArtDiff.h</text>
</a>
</g>
</g>
<!-- Node1&#45;&gt;Node41 -->
<g id="edge39" class="edge">
<title>Node1&#45;&gt;Node41</title>
<path fill="none" stroke="midnightblue" d="M2111.68,-147.67C2286.48,-145.21 2709.6,-135.53 3062,-98 3065.23,-97.66 3068.53,-97.27 3071.85,-96.85"/>
<polygon fill="midnightblue" stroke="midnightblue" points="2111.49,-144.18 2101.53,-147.81 2111.58,-151.18 2111.49,-144.18"/>
</g>
<!-- Node43 -->
<g id="node42" class="node">
<title>Node43</title>
<g id="a_node42"><a xlink:href="_sigma_r_8h.html" target="_top" xlink:title=" ">
<polygon fill="white" stroke="black" points="3246,-73 3246,-92 3374,-92 3374,-73 3246,-73"/>
<text text-anchor="middle" x="3310" y="-80" font-family="Helvetica,sans-Serif" font-size="10.00">include/kernels/SigmaR.h</text>
</a>
</g>
</g>
<!-- Node1&#45;&gt;Node43 -->
<g id="edge41" class="edge">
<title>Node1&#45;&gt;Node43</title>
<path fill="none" stroke="midnightblue" d="M2111.72,-146.73C2346.19,-141.37 3018.33,-124.13 3237,-98 3248.68,-96.6 3261.27,-94.37 3272.66,-92.07"/>
<polygon fill="midnightblue" stroke="midnightblue" points="2111.47,-143.23 2101.55,-146.96 2111.63,-150.23 2111.47,-143.23"/>
</g>
<!-- Node45 -->
<g id="node44" class="node">
<title>Node45</title>
<g id="a_node44"><a xlink:href="_transient_fission_heat_source_8h.html" target="_top" xlink:title=" ">
<polygon fill="white" stroke="black" points="3392.5,-67.5 3392.5,-97.5 3517.5,-97.5 3517.5,-67.5 3392.5,-67.5"/>
<text text-anchor="start" x="3400.5" y="-85.5" font-family="Helvetica,sans-Serif" font-size="10.00">include/kernels/Transient</text>
<text text-anchor="middle" x="3455" y="-74.5" font-family="Helvetica,sans-Serif" font-size="10.00">FissionHeatSource.h</text>
</a>
</g>
</g>
<!-- Node1&#45;&gt;Node45 -->
<g id="edge43" class="edge">
<title>Node1&#45;&gt;Node45</title>
<path fill="none" stroke="midnightblue" d="M2111.8,-147.18C2365.18,-142.82 3134.78,-127.43 3383,-98 3386.04,-97.64 3389.14,-97.22 3392.27,-96.75"/>
<polygon fill="midnightblue" stroke="midnightblue" points="2111.51,-143.68 2101.57,-147.35 2111.63,-150.68 2111.51,-143.68"/>
</g>
<!-- Node47 -->
<g id="node46" class="node">
<title>Node47</title>
<g id="a_node46"><a xlink:href="_elm_integ_tot_fiss_postprocessor_8h.html" target="_top" xlink:title=" ">
<polygon fill="white" stroke="black" points="3535.5,-67.5 3535.5,-97.5 3696.5,-97.5 3696.5,-67.5 3535.5,-67.5"/>
<text text-anchor="start" x="3543.5" y="-85.5" font-family="Helvetica,sans-Serif" font-size="10.00">include/postprocessors</text>
<text text-anchor="middle" x="3616" y="-74.5" font-family="Helvetica,sans-Serif" font-size="10.00">/ElmIntegTotFissPostprocessor.h</text>
</a>
</g>
</g>
<!-- Node1&#45;&gt;Node47 -->
<g id="edge45" class="edge">
<title>Node1&#45;&gt;Node47</title>
<path fill="none" stroke="midnightblue" d="M2112.01,-147.12C2383.1,-142.32 3248.96,-125.23 3527,-98 3529.65,-97.74 3532.34,-97.45 3535.05,-97.14"/>
<polygon fill="midnightblue" stroke="midnightblue" points="2111.78,-143.62 2101.85,-147.29 2111.91,-150.62 2111.78,-143.62"/>
</g>
<!-- Node53 -->
<g id="node49" class="node">
<title>Node53</title>
<g id="a_node49"><a xlink:href="_integral_new_variable_postprocessor_8h.html" target="_top" xlink:title=" ">
<polygon fill="white" stroke="red" points="3714.5,-67.5 3714.5,-97.5 3891.5,-97.5 3891.5,-67.5 3714.5,-67.5"/>
<text text-anchor="start" x="3722.5" y="-85.5" font-family="Helvetica,sans-Serif" font-size="10.00">include/postprocessors</text>
<text text-anchor="middle" x="3803" y="-74.5" font-family="Helvetica,sans-Serif" font-size="10.00">/IntegralNewVariablePostprocessor.h</text>
</a>
</g>
</g>
<!-- Node1&#45;&gt;Node53 -->
<g id="edge48" class="edge">
<title>Node1&#45;&gt;Node53</title>
<path fill="none" stroke="midnightblue" d="M2111.73,-147.32C2403.2,-142.91 3390.98,-126.19 3706,-98 3708.71,-97.76 3711.47,-97.49 3714.24,-97.2"/>
<polygon fill="midnightblue" stroke="midnightblue" points="2111.61,-143.82 2101.66,-147.47 2111.71,-150.82 2111.61,-143.82"/>
</g>
<!-- Node55 -->
<g id="node50" class="node">
<title>Node55</title>
<g id="a_node50"><a xlink:href="_integral_old_variable_postprocessor_8h.html" target="_top" xlink:title=" ">
<polygon fill="white" stroke="red" points="3910,-67.5 3910,-97.5 4082,-97.5 4082,-67.5 3910,-67.5"/>
<text text-anchor="start" x="3918" y="-85.5" font-family="Helvetica,sans-Serif" font-size="10.00">include/postprocessors</text>
<text text-anchor="middle" x="3996" y="-74.5" font-family="Helvetica,sans-Serif" font-size="10.00">/IntegralOldVariablePostprocessor.h</text>
</a>
</g>
</g>
<!-- Node1&#45;&gt;Node55 -->
<g id="edge49" class="edge">
<title>Node1&#45;&gt;Node55</title>
<path fill="none" stroke="midnightblue" d="M2112.1,-147.65C2425.4,-144.17 3545.98,-129.76 3901,-98 3903.91,-97.74 3906.86,-97.45 3909.84,-97.13"/>
<polygon fill="midnightblue" stroke="midnightblue" points="2111.7,-144.15 2101.73,-147.76 2111.77,-151.15 2111.7,-144.15"/>
</g>
<!-- Node4 -->
<g id="node4" class="node">
<title>Node4</title>
<g id="a_node4"><a xlink:href="_coupled_scalar_advection_no_b_c_b_c_8_c.html" target="_top" xlink:title=" ">
<polygon fill="white" stroke="black" points="91.5,-0.5 91.5,-30.5 250.5,-30.5 250.5,-0.5 91.5,-0.5"/>
<text text-anchor="start" x="99.5" y="-18.5" font-family="Helvetica,sans-Serif" font-size="10.00">src/bcs/CoupledScalarAdvection</text>
<text text-anchor="middle" x="171" y="-7.5" font-family="Helvetica,sans-Serif" font-size="10.00">NoBCBC.C</text>
</a>
</g>
</g>
<!-- Node3&#45;&gt;Node4 -->
<g id="edge3" class="edge">
<title>Node3&#45;&gt;Node4</title>
<path fill="none" stroke="midnightblue" d="M197.07,-58.87C191.28,-49.46 184.74,-38.83 179.66,-30.58"/>
<polygon fill="midnightblue" stroke="midnightblue" points="194.1,-60.71 202.32,-67.4 200.06,-57.05 194.1,-60.71"/>
</g>
<!-- Node6 -->
<g id="node6" class="node">
<title>Node6</title>
<g id="a_node6"><a xlink:href="_lin_log_penalty_dirichlet_b_c_8_c.html" target="_top" xlink:title=" ">
<polygon fill="white" stroke="black" points="269,-6 269,-25 443,-25 443,-6 269,-6"/>
<text text-anchor="middle" x="356" y="-13" font-family="Helvetica,sans-Serif" font-size="10.00">src/bcs/LinLogPenaltyDirichletBC.C</text>
</a>
</g>
</g>
<!-- Node5&#45;&gt;Node6 -->
<g id="edge5" class="edge">
<title>Node5&#45;&gt;Node6</title>
<path fill="none" stroke="midnightblue" d="M359.13,-57.25C358.27,-46.02 357.3,-33.38 356.67,-25.19"/>
<polygon fill="midnightblue" stroke="midnightblue" points="355.66,-57.69 359.92,-67.4 362.64,-57.16 355.66,-57.69"/>
</g>
<!-- Node8 -->
<g id="node8" class="node">
<title>Node8</title>
<g id="a_node8"><a xlink:href="_scalar_advection_art_diff_no_b_c_b_c_8_c.html" target="_top" xlink:title=" ">
<polygon fill="white" stroke="black" points="461,-0.5 461,-30.5 597,-30.5 597,-0.5 461,-0.5"/>
<text text-anchor="start" x="469" y="-18.5" font-family="Helvetica,sans-Serif" font-size="10.00">src/bcs/ScalarAdvectionArt</text>
<text text-anchor="middle" x="529" y="-7.5" font-family="Helvetica,sans-Serif" font-size="10.00">DiffNoBCBC.C</text>
</a>
</g>
</g>
<!-- Node7&#45;&gt;Node8 -->
<g id="edge7" class="edge">
<title>Node7&#45;&gt;Node8</title>
<path fill="none" stroke="midnightblue" d="M520.19,-57.4C522.14,-48.37 524.28,-38.41 525.97,-30.58"/>
<polygon fill="midnightblue" stroke="midnightblue" points="516.72,-56.88 518.04,-67.4 523.56,-58.36 516.72,-56.88"/>
</g>
<!-- Node10 -->
<g id="node10" class="node">
<title>Node10</title>
<g id="a_node10"><a xlink:href="_vacuum_conc_b_c_8_c.html" target="_top" xlink:title=" ">
<polygon fill="white" stroke="black" points="615.5,-6 615.5,-25 750.5,-25 750.5,-6 615.5,-6"/>
<text text-anchor="middle" x="683" y="-13" font-family="Helvetica,sans-Serif" font-size="10.00">src/bcs/VacuumConcBC.C</text>
</a>
</g>
</g>
<!-- Node9&#45;&gt;Node10 -->
<g id="edge9" class="edge">
<title>Node9&#45;&gt;Node10</title>
<path fill="none" stroke="midnightblue" d="M679.46,-62.54C680.41,-50.17 681.61,-34.62 682.34,-25.13"/>
<polygon fill="midnightblue" stroke="midnightblue" points="675.95,-62.49 678.67,-72.73 682.93,-63.03 675.95,-62.49"/>
</g>
<!-- Node12 -->
<g id="node12" class="node">
<title>Node12</title>
<g id="a_node12"><a xlink:href="_coupled_fission_eigen_kernel_8_c.html" target="_top" xlink:title=" ">
<polygon fill="white" stroke="black" points="779.5,-0.5 779.5,-30.5 914.5,-30.5 914.5,-0.5 779.5,-0.5"/>
<text text-anchor="start" x="787.5" y="-18.5" font-family="Helvetica,sans-Serif" font-size="10.00">src/kernels/CoupledFission</text>
<text text-anchor="middle" x="847" y="-7.5" font-family="Helvetica,sans-Serif" font-size="10.00">EigenKernel.C</text>
</a>
</g>
</g>
<!-- Node11&#45;&gt;Node12 -->
<g id="edge11" class="edge">
<title>Node11&#45;&gt;Node12</title>
<path fill="none" stroke="midnightblue" d="M847,-57.11C847,-48.15 847,-38.32 847,-30.58"/>
<polygon fill="midnightblue" stroke="midnightblue" points="843.5,-57.4 847,-67.4 850.5,-57.4 843.5,-57.4"/>
</g>
<!-- Node14 -->
<g id="node14" class="node">
<title>Node14</title>
<g id="a_node14"><a xlink:href="_coupled_fission_kernel_8_c.html" target="_top" xlink:title=" ">
<polygon fill="white" stroke="black" points="949.5,-0.5 949.5,-30.5 1084.5,-30.5 1084.5,-0.5 949.5,-0.5"/>
<text text-anchor="start" x="957.5" y="-18.5" font-family="Helvetica,sans-Serif" font-size="10.00">src/kernels/CoupledFission</text>
<text text-anchor="middle" x="1017" y="-7.5" font-family="Helvetica,sans-Serif" font-size="10.00">Kernel.C</text>
</a>
</g>
</g>
<!-- Node13&#45;&gt;Node14 -->
<g id="edge13" class="edge">
<title>Node13&#45;&gt;Node14</title>
<path fill="none" stroke="midnightblue" d="M1017,-57.11C1017,-48.15 1017,-38.32 1017,-30.58"/>
<polygon fill="midnightblue" stroke="midnightblue" points="1013.5,-57.4 1017,-67.4 1020.5,-57.4 1013.5,-57.4"/>
</g>
<!-- Node16 -->
<g id="node16" class="node">
<title>Node16</title>
<g id="a_node16"><a xlink:href="_coupled_scalar_advection_8_c.html" target="_top" xlink:title=" ">
<polygon fill="white" stroke="black" points="1115.5,-0.5 1115.5,-30.5 1246.5,-30.5 1246.5,-0.5 1115.5,-0.5"/>
<text text-anchor="start" x="1123.5" y="-18.5" font-family="Helvetica,sans-Serif" font-size="10.00">src/kernels/CoupledScalar</text>
<text text-anchor="middle" x="1181" y="-7.5" font-family="Helvetica,sans-Serif" font-size="10.00">Advection.C</text>
</a>
</g>
</g>
<!-- Node15&#45;&gt;Node16 -->
<g id="edge15" class="edge">
<title>Node15&#45;&gt;Node16</title>
<path fill="none" stroke="midnightblue" d="M1184.15,-57.4C1183.45,-48.37 1182.69,-38.41 1182.08,-30.58"/>
<polygon fill="midnightblue" stroke="midnightblue" points="1180.66,-57.69 1184.92,-67.4 1187.64,-57.16 1180.66,-57.69"/>
</g>
<!-- Node18 -->
<g id="node18" class="node">
<title>Node18</title>
<g id="a_node18"><a xlink:href="_decay_heat_source_8_c.html" target="_top" xlink:title=" ">
<polygon fill="white" stroke="black" points="1265,-6 1265,-25 1423,-25 1423,-6 1265,-6"/>
<text text-anchor="middle" x="1344" y="-13" font-family="Helvetica,sans-Serif" font-size="10.00">src/kernels/DecayHeatSource.C</text>
</a>
</g>
</g>
<!-- Node17&#45;&gt;Node18 -->
<g id="edge17" class="edge">
<title>Node17&#45;&gt;Node18</title>
<path fill="none" stroke="midnightblue" d="M1345.25,-57.25C1344.91,-46.02 1344.52,-33.38 1344.27,-25.19"/>
<polygon fill="midnightblue" stroke="midnightblue" points="1341.76,-57.51 1345.57,-67.4 1348.76,-57.29 1341.76,-57.51"/>
</g>
<!-- Node20 -->
<g id="node20" class="node">
<title>Node20</title>
<g id="a_node20"><a xlink:href="_delayed_neutron_eigen_source_8_c.html" target="_top" xlink:title=" ">
<polygon fill="white" stroke="black" points="1441,-0.5 1441,-30.5 1579,-30.5 1579,-0.5 1441,-0.5"/>
<text text-anchor="start" x="1449" y="-18.5" font-family="Helvetica,sans-Serif" font-size="10.00">src/kernels/DelayedNeutron</text>
<text text-anchor="middle" x="1510" y="-7.5" font-family="Helvetica,sans-Serif" font-size="10.00">EigenSource.C</text>
</a>
</g>
</g>
<!-- Node19&#45;&gt;Node20 -->
<g id="edge19" class="edge">
<title>Node19&#45;&gt;Node20</title>
<path fill="none" stroke="midnightblue" d="M1509.38,-57.11C1509.51,-48.15 1509.66,-38.32 1509.78,-30.58"/>
<polygon fill="midnightblue" stroke="midnightblue" points="1505.87,-57.34 1509.22,-67.4 1512.87,-57.45 1505.87,-57.34"/>
</g>
<!-- Node22 -->
<g id="node22" class="node">
<title>Node22</title>
<g id="a_node22"><a xlink:href="_delayed_neutron_source_8_c.html" target="_top" xlink:title=" ">
<polygon fill="white" stroke="black" points="1597,-0.5 1597,-30.5 1735,-30.5 1735,-0.5 1597,-0.5"/>
<text text-anchor="start" x="1605" y="-18.5" font-family="Helvetica,sans-Serif" font-size="10.00">src/kernels/DelayedNeutron</text>
<text text-anchor="middle" x="1666" y="-7.5" font-family="Helvetica,sans-Serif" font-size="10.00">Source.C</text>
</a>
</g>
</g>
<!-- Node21&#45;&gt;Node22 -->
<g id="edge21" class="edge">
<title>Node21&#45;&gt;Node22</title>
<path fill="none" stroke="midnightblue" d="M1676.07,-57.4C1673.84,-48.37 1671.39,-38.41 1669.46,-30.58"/>
<polygon fill="midnightblue" stroke="midnightblue" points="1672.74,-58.52 1678.53,-67.4 1679.54,-56.85 1672.74,-58.52"/>
</g>
<!-- Node24 -->
<g id="node24" class="node">
<title>Node24</title>
<g id="a_node24"><a xlink:href="_div_free_coupled_scalar_advection_8_c.html" target="_top" xlink:title=" ">
<polygon fill="white" stroke="black" points="1753,-0.5 1753,-30.5 1891,-30.5 1891,-0.5 1753,-0.5"/>
<text text-anchor="start" x="1761" y="-18.5" font-family="Helvetica,sans-Serif" font-size="10.00">src/kernels/DivFreeCoupled</text>
<text text-anchor="middle" x="1822" y="-7.5" font-family="Helvetica,sans-Serif" font-size="10.00">ScalarAdvection.C</text>
</a>
</g>
</g>
<!-- Node23&#45;&gt;Node24 -->
<g id="edge23" class="edge">
<title>Node23&#45;&gt;Node24</title>
<path fill="none" stroke="midnightblue" d="M1843.21,-58.28C1838.51,-49.02 1833.25,-38.66 1829.15,-30.58"/>
<polygon fill="midnightblue" stroke="midnightblue" points="1840.19,-60.06 1847.84,-67.4 1846.43,-56.89 1840.19,-60.06"/>
</g>
<!-- Node26 -->
<g id="node26" class="node">
<title>Node26</title>
<g id="a_node26"><a xlink:href="_group_diffusion_8_c.html" target="_top" xlink:title=" ">
<polygon fill="white" stroke="black" points="1909.5,-6 1909.5,-25 2052.5,-25 2052.5,-6 1909.5,-6"/>
<text text-anchor="middle" x="1981" y="-13" font-family="Helvetica,sans-Serif" font-size="10.00">src/kernels/GroupDiffusion.C</text>
</a>
</g>
</g>
<!-- Node25&#45;&gt;Node26 -->
<g id="edge25" class="edge">
<title>Node25&#45;&gt;Node26</title>
<path fill="none" stroke="midnightblue" d="M2017.11,-64.4C2007.59,-51.77 1995.02,-35.1 1987.5,-25.13"/>
<polygon fill="midnightblue" stroke="midnightblue" points="2014.58,-66.86 2023.39,-72.73 2020.17,-62.64 2014.58,-66.86"/>
</g>
<!-- Node28 -->
<g id="node28" class="node">
<title>Node28</title>
<g id="a_node28"><a xlink:href="_heat_precursor_decay_8_c.html" target="_top" xlink:title=" ">
<polygon fill="white" stroke="black" points="2070.5,-0.5 2070.5,-30.5 2201.5,-30.5 2201.5,-0.5 2070.5,-0.5"/>
<text text-anchor="start" x="2078.5" y="-18.5" font-family="Helvetica,sans-Serif" font-size="10.00">src/kernels/HeatPrecursor</text>
<text text-anchor="middle" x="2136" y="-7.5" font-family="Helvetica,sans-Serif" font-size="10.00">Decay.C</text>
</a>
</g>
</g>
<!-- Node27&#45;&gt;Node28 -->
<g id="edge27" class="edge">
<title>Node27&#45;&gt;Node28</title>
<path fill="none" stroke="midnightblue" d="M2179.81,-60.31C2170.06,-50.56 2158.76,-39.26 2150.08,-30.58"/>
<polygon fill="midnightblue" stroke="midnightblue" points="2177.35,-62.8 2186.9,-67.4 2182.3,-57.85 2177.35,-62.8"/>
</g>
<!-- Node30 -->
<g id="node30" class="node">
<title>Node30</title>
<g id="a_node30"><a xlink:href="_heat_precursor_source_8_c.html" target="_top" xlink:title=" ">
<polygon fill="white" stroke="black" points="2219.5,-0.5 2219.5,-30.5 2350.5,-30.5 2350.5,-0.5 2219.5,-0.5"/>
<text text-anchor="start" x="2227.5" y="-18.5" font-family="Helvetica,sans-Serif" font-size="10.00">src/kernels/HeatPrecursor</text>
<text text-anchor="middle" x="2285" y="-7.5" font-family="Helvetica,sans-Serif" font-size="10.00">Source.C</text>
</a>
</g>
</g>
<!-- Node29&#45;&gt;Node30 -->
<g id="edge29" class="edge">
<title>Node29&#45;&gt;Node30</title>
<path fill="none" stroke="midnightblue" d="M2341.35,-61.17C2328.81,-51.23 2314.03,-39.51 2302.76,-30.58"/>
<polygon fill="midnightblue" stroke="midnightblue" points="2339.2,-63.93 2349.21,-67.4 2343.54,-58.44 2339.2,-63.93"/>
</g>
<!-- Node32 -->
<g id="node32" class="node">
<title>Node32</title>
<g id="a_node32"><a xlink:href="_in_scatter_8_c.html" target="_top" xlink:title=" ">
<polygon fill="white" stroke="black" points="2368.5,-6 2368.5,-25 2485.5,-25 2485.5,-6 2368.5,-6"/>
<text text-anchor="middle" x="2427" y="-13" font-family="Helvetica,sans-Serif" font-size="10.00">src/kernels/InScatter.C</text>
</a>
</g>
</g>
<!-- Node31&#45;&gt;Node32 -->
<g id="edge31" class="edge">
<title>Node31&#45;&gt;Node32</title>
<path fill="none" stroke="midnightblue" d="M2503.28,-67.09C2483.89,-54.24 2456.14,-35.83 2440.01,-25.13"/>
<polygon fill="midnightblue" stroke="midnightblue" points="2501.52,-70.12 2511.78,-72.73 2505.38,-64.29 2501.52,-70.12"/>
</g>
<!-- Node34 -->
<g id="node34" class="node">
<title>Node34</title>
<g id="a_node34"><a xlink:href="_scalar_transport_time_derivative_8_c.html" target="_top" xlink:title=" ">
<polygon fill="white" stroke="black" points="2503.5,-0.5 2503.5,-30.5 2640.5,-30.5 2640.5,-0.5 2503.5,-0.5"/>
<text text-anchor="start" x="2511.5" y="-18.5" font-family="Helvetica,sans-Serif" font-size="10.00">src/kernels/ScalarTransport</text>
<text text-anchor="middle" x="2572" y="-7.5" font-family="Helvetica,sans-Serif" font-size="10.00">TimeDerivative.C</text>
</a>
</g>
</g>
<!-- Node33&#45;&gt;Node34 -->
<g id="edge33" class="edge">
<title>Node33&#45;&gt;Node34</title>
<path fill="none" stroke="midnightblue" d="M2652.32,-62.3C2634.48,-52.12 2612.96,-39.85 2596.69,-30.58"/>
<polygon fill="midnightblue" stroke="midnightblue" points="2650.84,-65.48 2661.26,-67.4 2654.31,-59.4 2650.84,-65.48"/>
</g>
<!-- Node35 -->
<g id="node35" class="node">
<title>Node35</title>
<g id="a_node35"><a xlink:href="_nt_time_derivative_8h.html" target="_top" xlink:title=" ">
<polygon fill="white" stroke="red" points="2659,-6 2659,-25 2829,-25 2829,-6 2659,-6"/>
<text text-anchor="middle" x="2744" y="-13" font-family="Helvetica,sans-Serif" font-size="10.00">include/kernels/NtTimeDerivative.h</text>
</a>
</g>
</g>
<!-- Node33&#45;&gt;Node35 -->
<g id="edge34" class="edge">
<title>Node33&#45;&gt;Node35</title>
<path fill="none" stroke="midnightblue" d="M2705.49,-59.66C2716.01,-47.86 2728.41,-33.97 2736.24,-25.19"/>
<polygon fill="midnightblue" stroke="midnightblue" points="2702.63,-57.6 2698.59,-67.4 2707.85,-62.26 2702.63,-57.6"/>
</g>
<!-- Node38 -->
<g id="node37" class="node">
<title>Node38</title>
<g id="a_node37"><a xlink:href="_precursor_decay_8_c.html" target="_top" xlink:title=" ">
<polygon fill="white" stroke="black" points="2847.5,-6 2847.5,-25 2994.5,-25 2994.5,-6 2847.5,-6"/>
<text text-anchor="middle" x="2921" y="-13" font-family="Helvetica,sans-Serif" font-size="10.00">src/kernels/PrecursorDecay.C</text>
</a>
</g>
</g>
<!-- Node37&#45;&gt;Node38 -->
<g id="edge36" class="edge">
<title>Node37&#45;&gt;Node38</title>
<path fill="none" stroke="midnightblue" d="M2869.35,-60.67C2883.39,-48.67 2900.28,-34.22 2910.83,-25.19"/>
<polygon fill="midnightblue" stroke="midnightblue" points="2866.82,-58.24 2861.49,-67.4 2871.37,-63.56 2866.82,-58.24"/>
</g>
<!-- Node40 -->
<g id="node39" class="node">
<title>Node40</title>
<g id="a_node39"><a xlink:href="_precursor_source_8_c.html" target="_top" xlink:title=" ">
<polygon fill="white" stroke="black" points="3012.5,-6 3012.5,-25 3163.5,-25 3163.5,-6 3012.5,-6"/>
<text text-anchor="middle" x="3088" y="-13" font-family="Helvetica,sans-Serif" font-size="10.00">src/kernels/PrecursorSource.C</text>
</a>
</g>
</g>
<!-- Node39&#45;&gt;Node40 -->
<g id="edge38" class="edge">
<title>Node39&#45;&gt;Node40</title>
<path fill="none" stroke="midnightblue" d="M3019.69,-61.81C3038.23,-49.51 3061.16,-34.3 3075.17,-25.01"/>
<polygon fill="midnightblue" stroke="midnightblue" points="3017.66,-58.95 3011.26,-67.4 3021.53,-64.79 3017.66,-58.95"/>
</g>
<!-- Node42 -->
<g id="node41" class="node">
<title>Node42</title>
<g id="a_node41"><a xlink:href="_scalar_advection_art_diff_8_c.html" target="_top" xlink:title=" ">
<polygon fill="white" stroke="black" points="3181.5,-0.5 3181.5,-30.5 3320.5,-30.5 3320.5,-0.5 3181.5,-0.5"/>
<text text-anchor="start" x="3189.5" y="-18.5" font-family="Helvetica,sans-Serif" font-size="10.00">src/kernels/ScalarAdvection</text>
<text text-anchor="middle" x="3251" y="-7.5" font-family="Helvetica,sans-Serif" font-size="10.00">ArtDiff.C</text>
</a>
</g>
</g>
<!-- Node41&#45;&gt;Node42 -->
<g id="edge40" class="edge">
<title>Node41&#45;&gt;Node42</title>
<path fill="none" stroke="midnightblue" d="M3180.71,-61.73C3196.34,-51.68 3214.97,-39.68 3229.13,-30.58"/>
<polygon fill="midnightblue" stroke="midnightblue" points="3178.43,-59.04 3171.92,-67.4 3182.22,-64.93 3178.43,-59.04"/>
</g>
<!-- Node44 -->
<g id="node43" class="node">
<title>Node44</title>
<g id="a_node43"><a xlink:href="_sigma_r_8_c.html" target="_top" xlink:title=" ">
<polygon fill="white" stroke="black" points="3338.5,-6 3338.5,-25 3451.5,-25 3451.5,-6 3338.5,-6"/>
<text text-anchor="middle" x="3395" y="-13" font-family="Helvetica,sans-Serif" font-size="10.00">src/kernels/SigmaR.C</text>
</a>
</g>
</g>
<!-- Node43&#45;&gt;Node44 -->
<g id="edge42" class="edge">
<title>Node43&#45;&gt;Node44</title>
<path fill="none" stroke="midnightblue" d="M3329.53,-66.57C3346.3,-53.74 3369.91,-35.69 3383.72,-25.13"/>
<polygon fill="midnightblue" stroke="midnightblue" points="3327.28,-63.88 3321.46,-72.73 3331.53,-69.44 3327.28,-63.88"/>
</g>
<!-- Node46 -->
<g id="node45" class="node">
<title>Node46</title>
<g id="a_node45"><a xlink:href="_transient_fission_heat_source_8_c.html" target="_top" xlink:title=" ">
<polygon fill="white" stroke="black" points="3470,-0.5 3470,-30.5 3610,-30.5 3610,-0.5 3470,-0.5"/>
<text text-anchor="start" x="3478" y="-18.5" font-family="Helvetica,sans-Serif" font-size="10.00">src/kernels/TransientFission</text>
<text text-anchor="middle" x="3540" y="-7.5" font-family="Helvetica,sans-Serif" font-size="10.00">HeatSource.C</text>
</a>
</g>
</g>
<!-- Node45&#45;&gt;Node46 -->
<g id="edge44" class="edge">
<title>Node45&#45;&gt;Node46</title>
<path fill="none" stroke="midnightblue" d="M3481.59,-61.17C3494.59,-51.23 3509.9,-39.51 3521.59,-30.58"/>
<polygon fill="midnightblue" stroke="midnightblue" points="3479.26,-58.54 3473.44,-67.4 3483.51,-64.1 3479.26,-58.54"/>
</g>
<!-- Node48 -->
<g id="node47" class="node">
<title>Node48</title>
<g id="a_node47"><a xlink:href="_elm_integ_tot_fiss_postprocessor_8_c.html" target="_top" xlink:title=" ">
<polygon fill="white" stroke="black" points="3628,-0.5 3628,-30.5 3792,-30.5 3792,-0.5 3628,-0.5"/>
<text text-anchor="start" x="3636" y="-18.5" font-family="Helvetica,sans-Serif" font-size="10.00">src/postprocessors</text>
<text text-anchor="middle" x="3710" y="-7.5" font-family="Helvetica,sans-Serif" font-size="10.00">/ElmIntegTotFissPostprocessor.C</text>
</a>
</g>
</g>
<!-- Node47&#45;&gt;Node48 -->
<g id="edge46" class="edge">
<title>Node47&#45;&gt;Node48</title>
<path fill="none" stroke="midnightblue" d="M3644.99,-61.45C3659.45,-51.45 3676.59,-39.6 3689.64,-30.58"/>
<polygon fill="midnightblue" stroke="midnightblue" points="3642.63,-58.83 3636.4,-67.4 3646.61,-64.59 3642.63,-58.83"/>
</g>
<!-- Node49 -->
<g id="node48" class="node">
<title>Node49</title>
<g id="a_node48"><a xlink:href="_elm_integ_tot_fiss_heat_postprocessor_8h.html" target="_top" xlink:title=" ">
<polygon fill="white" stroke="red" points="3810,-0.5 3810,-30.5 3992,-30.5 3992,-0.5 3810,-0.5"/>
<text text-anchor="start" x="3818" y="-18.5" font-family="Helvetica,sans-Serif" font-size="10.00">include/postprocessors</text>
<text text-anchor="middle" x="3901" y="-7.5" font-family="Helvetica,sans-Serif" font-size="10.00">/ElmIntegTotFissHeatPostprocessor.h</text>
</a>
</g>
</g>
<!-- Node47&#45;&gt;Node49 -->
<g id="edge47" class="edge">
<title>Node47&#45;&gt;Node49</title>
<path fill="none" stroke="midnightblue" d="M3687.53,-65.19C3734.21,-54.54 3794.52,-40.78 3839.13,-30.61"/>
<polygon fill="midnightblue" stroke="midnightblue" points="3686.46,-61.84 3677.49,-67.48 3688.02,-68.66 3686.46,-61.84"/>
</g>
</g>
</svg>
