<?xml version="1.0" encoding="UTF-8" standalone="no"?>
<!DOCTYPE svg PUBLIC "-//W3C//DTD SVG 1.1//EN"
 "http://www.w3.org/Graphics/SVG/1.1/DTD/svg11.dtd">
<!-- Generated by graphviz version 2.38.0 (20140413.2041)
 -->
<!-- Title: src/kernels/SelfFissionEigenKernel.C Pages: 1 -->
<svg width="149pt" height="151pt"
 viewBox="0.00 0.00 149.00 151.00" xmlns="http://www.w3.org/2000/svg" xmlns:xlink="http://www.w3.org/1999/xlink">
<g id="graph0" class="graph" transform="scale(1 1) rotate(0) translate(4 147)">
<title>src/kernels/SelfFissionEigenKernel.C</title>
<polygon fill="white" stroke="none" points="-4,4 -4,-147 145,-147 145,4 -4,4"/>
<!-- Node0 -->
<g id="node1" class="node"><title>Node0</title>
<polygon fill="#bfbfbf" stroke="black" points="0,-112.5 0,-142.5 141,-142.5 141,-112.5 0,-112.5"/>
<text text-anchor="start" x="8" y="-130.5" font-family="Helvetica,sans-Serif" font-size="10.00">src/kernels/SelfFissionEigen</text>
<text text-anchor="middle" x="70.5" y="-119.5" font-family="Helvetica,sans-Serif" font-size="10.00">Kernel.C</text>
</g>
<!-- Node1 -->
<g id="node2" class="node"><title>Node1</title>
<g id="a_node2"><a xlink:href="_self_fission_eigen_kernel_8h.html" target="_top" xlink:title="SelfFissionEigenKernel.h">
<polygon fill="white" stroke="black" points="7.5,-56.5 7.5,-75.5 133.5,-75.5 133.5,-56.5 7.5,-56.5"/>
<text text-anchor="middle" x="70.5" y="-63.5" font-family="Helvetica,sans-Serif" font-size="10.00">SelfFissionEigenKernel.h</text>
</a>
</g>
</g>
<!-- Node0&#45;&gt;Node1 -->
<g id="edge1" class="edge"><title>Node0&#45;&gt;Node1</title>
<path fill="none" stroke="midnightblue" d="M70.5,-112.399C70.5,-104.466 70.5,-94.458 70.5,-85.8583"/>
<polygon fill="midnightblue" stroke="midnightblue" points="74.0001,-85.6577 70.5,-75.6578 67.0001,-85.6578 74.0001,-85.6577"/>
</g>
<!-- Node2 -->
<g id="node3" class="node"><title>Node2</title>
<polygon fill="white" stroke="#bfbfbf" points="32,-0.5 32,-19.5 109,-19.5 109,-0.5 32,-0.5"/>
<text text-anchor="middle" x="70.5" y="-7.5" font-family="Helvetica,sans-Serif" font-size="10.00">EigenKernel.h</text>
</g>
<!-- Node1&#45;&gt;Node2 -->
<g id="edge2" class="edge"><title>Node1&#45;&gt;Node2</title>
<path fill="none" stroke="midnightblue" d="M70.5,-56.083C70.5,-49.0059 70.5,-38.8611 70.5,-29.9865"/>
<polygon fill="midnightblue" stroke="midnightblue" points="74.0001,-29.751 70.5,-19.7511 67.0001,-29.7511 74.0001,-29.751"/>
</g>
</g>
</svg>
