<?xml version="1.0" encoding="UTF-8" standalone="no"?>
<!DOCTYPE svg PUBLIC "-//W3C//DTD SVG 1.1//EN"
 "http://www.w3.org/Graphics/SVG/1.1/DTD/svg11.dtd">
<!-- Generated by graphviz version 2.38.0 (20140413.2041)
 -->
<!-- Title: include/kernels/TransientFissionHeatSource.h Pages: 1 -->
<svg width="284pt" height="106pt"
 viewBox="0.00 0.00 283.50 106.00" xmlns="http://www.w3.org/2000/svg" xmlns:xlink="http://www.w3.org/1999/xlink">
<g id="graph0" class="graph" transform="scale(1 1) rotate(0) translate(4 102)">
<title>include/kernels/TransientFissionHeatSource.h</title>
<polygon fill="white" stroke="none" points="-4,4 -4,-102 279.5,-102 279.5,4 -4,4"/>
<!-- Node5 -->
<g id="node1" class="node"><title>Node5</title>
<polygon fill="#bfbfbf" stroke="black" points="69,-67.5 69,-97.5 194,-97.5 194,-67.5 69,-67.5"/>
<text text-anchor="start" x="77" y="-85.5" font-family="Helvetica,sans-Serif" font-size="10.00">include/kernels/Transient</text>
<text text-anchor="middle" x="131.5" y="-74.5" font-family="Helvetica,sans-Serif" font-size="10.00">FissionHeatSource.h</text>
</g>
<!-- Node6 -->
<g id="node2" class="node"><title>Node6</title>
<g id="a_node2"><a xlink:href="_moltres_app_8_c.html" target="_top" xlink:title="src/base/MoltresApp.C">
<polygon fill="white" stroke="black" points="0,-6 0,-25 117,-25 117,-6 0,-6"/>
<text text-anchor="middle" x="58.5" y="-13" font-family="Helvetica,sans-Serif" font-size="10.00">src/base/MoltresApp.C</text>
</a>
</g>
</g>
<!-- Node5&#45;&gt;Node6 -->
<g id="edge1" class="edge"><title>Node5&#45;&gt;Node6</title>
<path fill="none" stroke="midnightblue" d="M108.109,-60.6722C94.6301,-48.6707 78.4012,-34.2203 68.2646,-25.1945"/>
<polygon fill="midnightblue" stroke="midnightblue" points="105.864,-63.3599 115.66,-67.396 110.519,-58.132 105.864,-63.3599"/>
</g>
<!-- Node7 -->
<g id="node3" class="node"><title>Node7</title>
<g id="a_node3"><a xlink:href="_transient_fission_heat_source_8_c.html" target="_top" xlink:title="src/kernels/TransientFission\lHeatSource.C">
<polygon fill="white" stroke="black" points="135.5,-0.5 135.5,-30.5 275.5,-30.5 275.5,-0.5 135.5,-0.5"/>
<text text-anchor="start" x="143.5" y="-18.5" font-family="Helvetica,sans-Serif" font-size="10.00">src/kernels/TransientFission</text>
<text text-anchor="middle" x="205.5" y="-7.5" font-family="Helvetica,sans-Serif" font-size="10.00">HeatSource.C</text>
</a>
</g>
</g>
<!-- Node5&#45;&gt;Node7 -->
<g id="edge2" class="edge"><title>Node5&#45;&gt;Node7</title>
<path fill="none" stroke="midnightblue" d="M155.296,-60.5978C166.47,-50.7831 179.493,-39.3442 189.474,-30.5765"/>
<polygon fill="midnightblue" stroke="midnightblue" points="152.76,-58.1669 147.557,-67.396 157.38,-63.4261 152.76,-58.1669"/>
</g>
</g>
</svg>
