<?xml version="1.0" encoding="UTF-8" standalone="no"?>
<!DOCTYPE svg PUBLIC "-//W3C//DTD SVG 1.1//EN"
 "http://www.w3.org/Graphics/SVG/1.1/DTD/svg11.dtd">
<!-- Generated by graphviz version 2.44.0 ()
 -->
<!-- Title: src/bcs/VacuumConcBC.C Pages: 1 -->
<svg width="282pt" height="196pt"
 viewBox="0.00 0.00 282.00 196.00" xmlns="http://www.w3.org/2000/svg" xmlns:xlink="http://www.w3.org/1999/xlink">
<g id="graph0" class="graph" transform="scale(1 1) rotate(0) translate(4 192)">
<title>src/bcs/VacuumConcBC.C</title>
<polygon fill="white" stroke="transparent" points="-4,4 -4,-192 278,-192 278,4 -4,4"/>
<!-- Node1 -->
<g id="node1" class="node">
<title>Node1</title>
<g id="a_node1"><a xlink:title=" ">
<polygon fill="#bfbfbf" stroke="black" points="32,-168.5 32,-187.5 165,-187.5 165,-168.5 32,-168.5"/>
<text text-anchor="middle" x="98.5" y="-175.5" font-family="Helvetica,sans-Serif" font-size="10.00">src/bcs/VacuumConcBC.C</text>
</a>
</g>
</g>
<!-- Node2 -->
<g id="node2" class="node">
<title>Node2</title>
<g id="a_node2"><a xlink:href="_vacuum_conc_b_c_8h.html" target="_top" xlink:title=" ">
<polygon fill="white" stroke="black" points="50.5,-112.5 50.5,-131.5 146.5,-131.5 146.5,-112.5 50.5,-112.5"/>
<text text-anchor="middle" x="98.5" y="-119.5" font-family="Helvetica,sans-Serif" font-size="10.00">VacuumConcBC.h</text>
</a>
</g>
</g>
<!-- Node1&#45;&gt;Node2 -->
<g id="edge1" class="edge">
<title>Node1&#45;&gt;Node2</title>
<path fill="none" stroke="midnightblue" d="M98.5,-168.08C98.5,-161.01 98.5,-150.86 98.5,-141.99"/>
<polygon fill="midnightblue" stroke="midnightblue" points="102,-141.75 98.5,-131.75 95,-141.75 102,-141.75"/>
</g>
<!-- Node3 -->
<g id="node3" class="node">
<title>Node3</title>
<g id="a_node3"><a xlink:title=" ">
<polygon fill="white" stroke="#bfbfbf" points="0,-56.5 0,-75.5 81,-75.5 81,-56.5 0,-56.5"/>
<text text-anchor="middle" x="40.5" y="-63.5" font-family="Helvetica,sans-Serif" font-size="10.00">IntegratedBC.h</text>
</a>
</g>
</g>
<!-- Node2&#45;&gt;Node3 -->
<g id="edge2" class="edge">
<title>Node2&#45;&gt;Node3</title>
<path fill="none" stroke="midnightblue" d="M89.18,-112.32C80.61,-104.34 67.69,-92.31 57.31,-82.65"/>
<polygon fill="midnightblue" stroke="midnightblue" points="59.69,-80.09 49.99,-75.83 54.92,-85.21 59.69,-80.09"/>
</g>
<!-- Node4 -->
<g id="node4" class="node">
<title>Node4</title>
<g id="a_node4"><a xlink:href="_scalar_transport_base_8h.html" target="_top" xlink:title=" ">
<polygon fill="white" stroke="black" points="99.5,-56.5 99.5,-75.5 215.5,-75.5 215.5,-56.5 99.5,-56.5"/>
<text text-anchor="middle" x="157.5" y="-63.5" font-family="Helvetica,sans-Serif" font-size="10.00">ScalarTransportBase.h</text>
</a>
</g>
</g>
<!-- Node2&#45;&gt;Node4 -->
<g id="edge3" class="edge">
<title>Node2&#45;&gt;Node4</title>
<path fill="none" stroke="midnightblue" d="M107.98,-112.32C116.7,-104.34 129.84,-92.31 140.4,-82.65"/>
<polygon fill="midnightblue" stroke="midnightblue" points="142.83,-85.17 147.85,-75.83 138.11,-80 142.83,-85.17"/>
</g>
<!-- Node5 -->
<g id="node5" class="node">
<title>Node5</title>
<g id="a_node5"><a xlink:title=" ">
<polygon fill="white" stroke="#bfbfbf" points="48.5,-0.5 48.5,-19.5 144.5,-19.5 144.5,-0.5 48.5,-0.5"/>
<text text-anchor="middle" x="96.5" y="-7.5" font-family="Helvetica,sans-Serif" font-size="10.00">InputParameters.h</text>
</a>
</g>
</g>
<!-- Node4&#45;&gt;Node5 -->
<g id="edge4" class="edge">
<title>Node4&#45;&gt;Node5</title>
<path fill="none" stroke="midnightblue" d="M147.7,-56.32C138.68,-48.34 125.09,-36.31 114.18,-26.65"/>
<polygon fill="midnightblue" stroke="midnightblue" points="116.29,-23.84 106.48,-19.83 111.65,-29.08 116.29,-23.84"/>
</g>
<!-- Node6 -->
<g id="node6" class="node">
<title>Node6</title>
<g id="a_node6"><a xlink:title=" ">
<polygon fill="white" stroke="#bfbfbf" points="163,-0.5 163,-19.5 274,-19.5 274,-0.5 163,-0.5"/>
<text text-anchor="middle" x="218.5" y="-7.5" font-family="Helvetica,sans-Serif" font-size="10.00">MooseVariableBase.h</text>
</a>
</g>
</g>
<!-- Node4&#45;&gt;Node6 -->
<g id="edge5" class="edge">
<title>Node4&#45;&gt;Node6</title>
<path fill="none" stroke="midnightblue" d="M167.3,-56.32C176.32,-48.34 189.91,-36.31 200.82,-26.65"/>
<polygon fill="midnightblue" stroke="midnightblue" points="203.35,-29.08 208.52,-19.83 198.71,-23.84 203.35,-29.08"/>
</g>
</g>
</svg>
