<?xml version="1.0" encoding="UTF-8" standalone="no"?>
<!DOCTYPE svg PUBLIC "-//W3C//DTD SVG 1.1//EN"
 "http://www.w3.org/Graphics/SVG/1.1/DTD/svg11.dtd">
<!-- Generated by graphviz version 2.44.0 ()
 -->
<!-- Title: include/actions/VariableNotAMooseObjectAction.h Pages: 1 -->
<svg width="468pt" height="162pt"
 viewBox="0.00 0.00 467.50 162.00" xmlns="http://www.w3.org/2000/svg" xmlns:xlink="http://www.w3.org/1999/xlink">
<g id="graph0" class="graph" transform="scale(1 1) rotate(0) translate(4 158)">
<title>include/actions/VariableNotAMooseObjectAction.h</title>
<polygon fill="white" stroke="transparent" points="-4,4 -4,-158 463.5,-158 463.5,4 -4,4"/>
<!-- Node1 -->
<g id="node1" class="node">
<title>Node1</title>
<g id="a_node1"><a xlink:title=" ">
<polygon fill="#bfbfbf" stroke="black" points="172.5,-123.5 172.5,-153.5 304.5,-153.5 304.5,-123.5 172.5,-123.5"/>
<text text-anchor="start" x="180.5" y="-141.5" font-family="Helvetica,sans-Serif" font-size="10.00">include/actions/Variable</text>
<text text-anchor="middle" x="238.5" y="-130.5" font-family="Helvetica,sans-Serif" font-size="10.00">NotAMooseObjectAction.h</text>
</a>
</g>
</g>
<!-- Node2 -->
<g id="node2" class="node">
<title>Node2</title>
<g id="a_node2"><a xlink:href="_variable_not_a_moose_object_action_8_c.html" target="_top" xlink:title=" ">
<polygon fill="white" stroke="black" points="0,-56.5 0,-86.5 155,-86.5 155,-56.5 0,-56.5"/>
<text text-anchor="start" x="8" y="-74.5" font-family="Helvetica,sans-Serif" font-size="10.00">src/actions/VariableNotAMoose</text>
<text text-anchor="middle" x="77.5" y="-63.5" font-family="Helvetica,sans-Serif" font-size="10.00">ObjectAction.C</text>
</a>
</g>
</g>
<!-- Node1&#45;&gt;Node2 -->
<g id="edge1" class="edge">
<title>Node1&#45;&gt;Node2</title>
<path fill="none" stroke="midnightblue" d="M194.02,-119.54C168.26,-109.14 136.3,-96.24 112.37,-86.58"/>
<polygon fill="midnightblue" stroke="midnightblue" points="192.98,-122.9 203.57,-123.4 195.6,-116.41 192.98,-122.9"/>
</g>
<!-- Node3 -->
<g id="node3" class="node">
<title>Node3</title>
<g id="a_node3"><a xlink:href="_nt_action_8h.html" target="_top" xlink:title=" ">
<polygon fill="white" stroke="black" points="173,-62 173,-81 304,-81 304,-62 173,-62"/>
<text text-anchor="middle" x="238.5" y="-69" font-family="Helvetica,sans-Serif" font-size="10.00">include/actions/NtAction.h</text>
</a>
</g>
</g>
<!-- Node1&#45;&gt;Node3 -->
<g id="edge2" class="edge">
<title>Node1&#45;&gt;Node3</title>
<path fill="none" stroke="midnightblue" d="M238.5,-113.25C238.5,-102.02 238.5,-89.38 238.5,-81.19"/>
<polygon fill="midnightblue" stroke="midnightblue" points="235,-113.4 238.5,-123.4 242,-113.4 235,-113.4"/>
</g>
<!-- Node5 -->
<g id="node5" class="node">
<title>Node5</title>
<g id="a_node5"><a xlink:href="_precursor_action_8h.html" target="_top" xlink:title=" ">
<polygon fill="white" stroke="black" points="323,-56.5 323,-86.5 450,-86.5 450,-56.5 323,-56.5"/>
<text text-anchor="start" x="331" y="-74.5" font-family="Helvetica,sans-Serif" font-size="10.00">include/actions/Precursor</text>
<text text-anchor="middle" x="386.5" y="-63.5" font-family="Helvetica,sans-Serif" font-size="10.00">Action.h</text>
</a>
</g>
</g>
<!-- Node1&#45;&gt;Node5 -->
<g id="edge4" class="edge">
<title>Node1&#45;&gt;Node5</title>
<path fill="none" stroke="midnightblue" d="M280.01,-119.27C303.58,-108.92 332.64,-96.15 354.45,-86.58"/>
<polygon fill="midnightblue" stroke="midnightblue" points="278.36,-116.17 270.61,-123.4 281.18,-122.58 278.36,-116.17"/>
</g>
<!-- Node4 -->
<g id="node4" class="node">
<title>Node4</title>
<g id="a_node4"><a xlink:href="_nt_action_8_c.html" target="_top" xlink:title=" ">
<polygon fill="white" stroke="black" points="180,-0.5 180,-19.5 295,-19.5 295,-0.5 180,-0.5"/>
<text text-anchor="middle" x="237.5" y="-7.5" font-family="Helvetica,sans-Serif" font-size="10.00">src/actions/NtAction.C</text>
</a>
</g>
</g>
<!-- Node3&#45;&gt;Node4 -->
<g id="edge3" class="edge">
<title>Node3&#45;&gt;Node4</title>
<path fill="none" stroke="midnightblue" d="M238.19,-51.82C238,-41 237.78,-27.9 237.64,-19.51"/>
<polygon fill="midnightblue" stroke="midnightblue" points="234.69,-52.04 238.36,-61.98 241.69,-51.92 234.69,-52.04"/>
</g>
<!-- Node6 -->
<g id="node6" class="node">
<title>Node6</title>
<g id="a_node6"><a xlink:href="_precursor_action_8_c.html" target="_top" xlink:title=" ">
<polygon fill="white" stroke="black" points="313.5,-0.5 313.5,-19.5 459.5,-19.5 459.5,-0.5 313.5,-0.5"/>
<text text-anchor="middle" x="386.5" y="-7.5" font-family="Helvetica,sans-Serif" font-size="10.00">src/actions/PrecursorAction.C</text>
</a>
</g>
</g>
<!-- Node5&#45;&gt;Node6 -->
<g id="edge5" class="edge">
<title>Node5&#45;&gt;Node6</title>
<path fill="none" stroke="midnightblue" d="M386.5,-46.29C386.5,-36.86 386.5,-26.65 386.5,-19.66"/>
<polygon fill="midnightblue" stroke="midnightblue" points="383,-46.4 386.5,-56.4 390,-46.4 383,-46.4"/>
</g>
</g>
</svg>
