<?xml version="1.0" encoding="UTF-8" standalone="no"?>
<!DOCTYPE svg PUBLIC "-//W3C//DTD SVG 1.1//EN"
 "http://www.w3.org/Graphics/SVG/1.1/DTD/svg11.dtd">
<!-- Generated by graphviz version 2.38.0 (20140413.2041)
 -->
<!-- Title: AverageFissionHeat Pages: 1 -->
<svg width="282pt" height="196pt"
 viewBox="0.00 0.00 282.00 196.00" xmlns="http://www.w3.org/2000/svg" xmlns:xlink="http://www.w3.org/1999/xlink">
<g id="graph0" class="graph" transform="scale(1 1) rotate(0) translate(4 192)">
<title>AverageFissionHeat</title>
<polygon fill="white" stroke="none" points="-4,4 -4,-192 278,-192 278,4 -4,4"/>
<!-- Node0 -->
<g id="node1" class="node"><title>Node0</title>
<polygon fill="#bfbfbf" stroke="black" points="94.5,-0.5 94.5,-19.5 199.5,-19.5 199.5,-0.5 94.5,-0.5"/>
<text text-anchor="middle" x="147" y="-7.5" font-family="Helvetica,sans-Serif" font-size="10.00">AverageFissionHeat</text>
</g>
<!-- Node1 -->
<g id="node2" class="node"><title>Node1</title>
<g id="a_node2"><a xlink:href="class_elm_integ_tot_fiss_heat_postprocessor.html" target="_top" xlink:title="ElmIntegTotFissHeatPostprocessor">
<polygon fill="white" stroke="black" points="60.5,-56.5 60.5,-75.5 233.5,-75.5 233.5,-56.5 60.5,-56.5"/>
<text text-anchor="middle" x="147" y="-63.5" font-family="Helvetica,sans-Serif" font-size="10.00">ElmIntegTotFissHeatPostprocessor</text>
</a>
</g>
</g>
<!-- Node1&#45;&gt;Node0 -->
<g id="edge1" class="edge"><title>Node1&#45;&gt;Node0</title>
<path fill="none" stroke="midnightblue" d="M147,-45.8045C147,-36.9102 147,-26.7798 147,-19.7511"/>
<polygon fill="midnightblue" stroke="midnightblue" points="143.5,-46.083 147,-56.083 150.5,-46.083 143.5,-46.083"/>
</g>
<!-- Node2 -->
<g id="node3" class="node"><title>Node2</title>
<g id="a_node3"><a xlink:href="class_elm_integ_tot_fiss_postprocessor.html" target="_top" xlink:title="ElmIntegTotFissPostprocessor">
<polygon fill="white" stroke="black" points="71,-112.5 71,-131.5 223,-131.5 223,-112.5 71,-112.5"/>
<text text-anchor="middle" x="147" y="-119.5" font-family="Helvetica,sans-Serif" font-size="10.00">ElmIntegTotFissPostprocessor</text>
</a>
</g>
</g>
<!-- Node2&#45;&gt;Node1 -->
<g id="edge2" class="edge"><title>Node2&#45;&gt;Node1</title>
<path fill="none" stroke="midnightblue" d="M147,-101.805C147,-92.9102 147,-82.7798 147,-75.7511"/>
<polygon fill="midnightblue" stroke="midnightblue" points="143.5,-102.083 147,-112.083 150.5,-102.083 143.5,-102.083"/>
</g>
<!-- Node3 -->
<g id="node4" class="node"><title>Node3</title>
<polygon fill="white" stroke="#bfbfbf" points="0,-168.5 0,-187.5 148,-187.5 148,-168.5 0,-168.5"/>
<text text-anchor="middle" x="74" y="-175.5" font-family="Helvetica,sans-Serif" font-size="10.00">ElementIntegralPostprocessor</text>
</g>
<!-- Node3&#45;&gt;Node2 -->
<g id="edge3" class="edge"><title>Node3&#45;&gt;Node2</title>
<path fill="none" stroke="midnightblue" d="M94.1416,-162.101C107.279,-152.382 123.982,-140.027 135.058,-131.834"/>
<polygon fill="midnightblue" stroke="midnightblue" points="91.6867,-159.563 85.7287,-168.324 95.8497,-165.191 91.6867,-159.563"/>
</g>
<!-- Node4 -->
<g id="node5" class="node"><title>Node4</title>
<g id="a_node5"><a xlink:href="class_scalar_transport_base.html" target="_top" xlink:title="ScalarTransportBase">
<polygon fill="white" stroke="black" points="166,-168.5 166,-187.5 274,-187.5 274,-168.5 166,-168.5"/>
<text text-anchor="middle" x="220" y="-175.5" font-family="Helvetica,sans-Serif" font-size="10.00">ScalarTransportBase</text>
</a>
</g>
</g>
<!-- Node4&#45;&gt;Node2 -->
<g id="edge4" class="edge"><title>Node4&#45;&gt;Node2</title>
<path fill="none" stroke="midnightblue" d="M199.858,-162.101C186.721,-152.382 170.018,-140.027 158.942,-131.834"/>
<polygon fill="midnightblue" stroke="midnightblue" points="198.15,-165.191 208.271,-168.324 202.313,-159.563 198.15,-165.191"/>
</g>
</g>
</svg>
