<?xml version="1.0" encoding="UTF-8" standalone="no"?>
<!DOCTYPE svg PUBLIC "-//W3C//DTD SVG 1.1//EN"
 "http://www.w3.org/Graphics/SVG/1.1/DTD/svg11.dtd">
<!-- Generated by graphviz version 2.44.0 ()
 -->
<!-- Title: include Pages: 1 -->
<!--zoomable 148 -->
<svg id="main" version="1.1" xmlns="http://www.w3.org/2000/svg" xmlns:xlink="http://www.w3.org/1999/xlink" xml:space="preserve" onload="init(evt)">
<style type="text/css"><![CDATA[
.edge:hover path { stroke: red; }
.edge:hover polygon { stroke: red; fill: red; }
]]></style>
<script type="text/javascript"><![CDATA[
var edges = document.getElementsByTagName('g');
if (edges && edges.length) {
  for (var i=0;i<edges.length;i++) {
    if (edges[i].id.substr(0,4)=='edge') {
      edges[i].setAttribute('class','edge');
    }
  }
}
]]></script>
        <defs>
                <circle id="rim" cx="0" cy="0" r="7"/>
                <circle id="rim2" cx="0" cy="0" r="3.5"/>
                <g id="zoomPlus">
                        <use xlink:href="#rim" fill="#404040">
                                <set attributeName="fill" to="#808080" begin="zoomplus.mouseover" end="zoomplus.mouseout"/>
                        </use>
                        <path d="M-4,0h8M0,-4v8" fill="none" stroke="white" stroke-width="1.5" pointer-events="none"/>
                </g>
                <g id="zoomMin">
                        <use xlink:href="#rim" fill="#404040">
                                <set attributeName="fill" to="#808080" begin="zoomminus.mouseover" end="zoomminus.mouseout"/>
                        </use>
                        <path d="M-4,0h8" fill="none" stroke="white" stroke-width="1.5" pointer-events="none"/>
                </g>
                <g id="dirArrow">
                        <path fill="none" stroke="white" stroke-width="1.5" d="M0,-3.0v7 M-2.5,-0.5L0,-3.0L2.5,-0.5"/>
                </g>
               <g id="resetDef">
                       <use xlink:href="#rim2" fill="#404040">
                               <set attributeName="fill" to="#808080" begin="reset.mouseover" end="reset.mouseout"/>
                       </use>
               </g>
        </defs>

<script type="text/javascript">
var viewWidth = 656;
var viewHeight = 148;
var sectionId = 'dynsection-0';
</script>
<script xlink:href="svgpan.js"/>
<svg id="graph" class="graph">
<g id="viewport">
<title>include</title>
<polygon fill="white" stroke="transparent" points="-4,4 -4,-144 652,-144 652,4 -4,4"/>
<g id="clust1" class="cluster">
<title>clusterdir_d44c64559bbebec7f509842c48db8b23</title>
<g id="a_clust1"><a xlink:href="dir_d44c64559bbebec7f509842c48db8b23.html" target="_top">
<polygon fill="#eeeeff" stroke="black" points="8,-8 8,-132 640,-132 640,-8 8,-8"/>
</a>
</g>
</g>
<!-- dir_d44c64559bbebec7f509842c48db8b23 -->
<g id="node1" class="node">
<title>dir_d44c64559bbebec7f509842c48db8b23</title>
<text text-anchor="middle" x="605" y="-103.5" font-family="Helvetica,sans-Serif" font-size="10.00">include</text>
</g>
<!-- dir_0b9ed7732631b4e65a5030233eb5fc5a -->
<g id="node2" class="node">
<title>dir_0b9ed7732631b4e65a5030233eb5fc5a</title>
<g id="a_node2"><a xlink:href="dir_0b9ed7732631b4e65a5030233eb5fc5a.html" target="_top" xlink:title="actions">
<polygon fill="white" stroke="black" points="560,-124 506,-124 506,-88 560,-88 560,-124"/>
<text text-anchor="middle" x="533" y="-103.5" font-family="Helvetica,sans-Serif" font-size="10.00">actions</text>
</a>
</g>
</g>
<!-- dir_ad471e77ba5a72af0767bcb44d2be997 -->
<g id="node3" class="node">
<title>dir_ad471e77ba5a72af0767bcb44d2be997</title>
<g id="a_node3"><a xlink:href="dir_ad471e77ba5a72af0767bcb44d2be997.html" target="_top" xlink:title="auxkernels">
<polygon fill="white" stroke="black" points="487.5,-124 424.5,-124 424.5,-88 487.5,-88 487.5,-124"/>
<text text-anchor="middle" x="456" y="-103.5" font-family="Helvetica,sans-Serif" font-size="10.00">auxkernels</text>
</a>
</g>
</g>
<!-- dir_ab1c81409f0df724f17c9ef30afee877 -->
<g id="node4" class="node">
<title>dir_ab1c81409f0df724f17c9ef30afee877</title>
<g id="a_node4"><a xlink:href="dir_ab1c81409f0df724f17c9ef30afee877.html" target="_top" xlink:title="base">
<polygon fill="white" stroke="black" points="246,-52 192,-52 192,-16 246,-16 246,-52"/>
<text text-anchor="middle" x="219" y="-31.5" font-family="Helvetica,sans-Serif" font-size="10.00">base</text>
</a>
</g>
</g>
<!-- dir_6c5a344b9c03c6428d49f0b38500fe7f -->
<g id="node5" class="node">
<title>dir_6c5a344b9c03c6428d49f0b38500fe7f</title>
<g id="a_node5"><a xlink:href="dir_6c5a344b9c03c6428d49f0b38500fe7f.html" target="_top" xlink:title="bcs">
<polygon fill="white" stroke="black" points="406,-124 352,-124 352,-88 406,-88 406,-124"/>
<text text-anchor="middle" x="379" y="-103.5" font-family="Helvetica,sans-Serif" font-size="10.00">bcs</text>
</a>
</g>
</g>
<!-- dir_6c5a344b9c03c6428d49f0b38500fe7f&#45;&gt;dir_ab1c81409f0df724f17c9ef30afee877 -->
<g id="edge1" class="edge">
<title>dir_6c5a344b9c03c6428d49f0b38500fe7f&#45;&gt;dir_ab1c81409f0df724f17c9ef30afee877</title>
<path fill="none" stroke="black" d="M351.92,-92.08C348.92,-90.69 345.9,-89.3 343,-88 313.78,-74.86 280.37,-60.63 255.6,-50.22"/>
<polygon fill="black" stroke="black" points="256.79,-46.93 246.22,-46.29 254.09,-53.38 256.79,-46.93"/>
<g id="a_edge1&#45;headlabel"><a xlink:href="dir_000004_000003.html" target="_top" xlink:title="4">
<text text-anchor="middle" x="261.21" y="-43.2" font-family="Helvetica,sans-Serif" font-size="10.00">4</text>
</a>
</g>
</g>
<!-- dir_6c6f4828ced252df7a457d18180150c1 -->
<g id="node6" class="node">
<title>dir_6c6f4828ced252df7a457d18180150c1</title>
<g id="a_node6"><a xlink:href="dir_6c6f4828ced252df7a457d18180150c1.html" target="_top" xlink:title="dirackernels">
<polygon fill="white" stroke="black" points="333.5,-124 264.5,-124 264.5,-88 333.5,-88 333.5,-124"/>
<text text-anchor="middle" x="299" y="-103.5" font-family="Helvetica,sans-Serif" font-size="10.00">dirackernels</text>
</a>
</g>
</g>
<!-- dir_f2fd8bd6424c93166d6dd5f2b70706e7 -->
<g id="node7" class="node">
<title>dir_f2fd8bd6424c93166d6dd5f2b70706e7</title>
<g id="a_node7"><a xlink:href="dir_f2fd8bd6424c93166d6dd5f2b70706e7.html" target="_top" xlink:title="kernels">
<polygon fill="white" stroke="black" points="246,-124 192,-124 192,-88 246,-88 246,-124"/>
<text text-anchor="middle" x="219" y="-103.5" font-family="Helvetica,sans-Serif" font-size="10.00">kernels</text>
</a>
</g>
</g>
<!-- dir_f2fd8bd6424c93166d6dd5f2b70706e7&#45;&gt;dir_ab1c81409f0df724f17c9ef30afee877 -->
<g id="edge2" class="edge">
<title>dir_f2fd8bd6424c93166d6dd5f2b70706e7&#45;&gt;dir_ab1c81409f0df724f17c9ef30afee877</title>
<path fill="none" stroke="black" d="M219,-87.7C219,-79.98 219,-70.71 219,-62.11"/>
<polygon fill="black" stroke="black" points="222.5,-62.1 219,-52.1 215.5,-62.1 222.5,-62.1"/>
<g id="a_edge2&#45;headlabel"><a xlink:href="dir_000006_000003.html" target="_top" xlink:title="17">
<text text-anchor="middle" x="225.34" y="-63.2" font-family="Helvetica,sans-Serif" font-size="10.00">17</text>
</a>
</g>
</g>
<!-- dir_e8162cbcd2a0630786d64b00f43c2c71 -->
<g id="node8" class="node">
<title>dir_e8162cbcd2a0630786d64b00f43c2c71</title>
<g id="a_node8"><a xlink:href="dir_e8162cbcd2a0630786d64b00f43c2c71.html" target="_top" xlink:title="materials">
<polygon fill="white" stroke="black" points="174,-124 118,-124 118,-88 174,-88 174,-124"/>
<text text-anchor="middle" x="146" y="-103.5" font-family="Helvetica,sans-Serif" font-size="10.00">materials</text>
</a>
</g>
</g>
<!-- dir_b843596cc84dd0b637fa3210ef36d913 -->
<g id="node9" class="node">
<title>dir_b843596cc84dd0b637fa3210ef36d913</title>
<g id="a_node9"><a xlink:href="dir_b843596cc84dd0b637fa3210ef36d913.html" target="_top" xlink:title="postprocessors">
<polygon fill="white" stroke="black" points="99.5,-124 16.5,-124 16.5,-88 99.5,-88 99.5,-124"/>
<text text-anchor="middle" x="58" y="-103.5" font-family="Helvetica,sans-Serif" font-size="10.00">postprocessors</text>
</a>
</g>
</g>
<!-- dir_b843596cc84dd0b637fa3210ef36d913&#45;&gt;dir_ab1c81409f0df724f17c9ef30afee877 -->
<g id="edge3" class="edge">
<title>dir_b843596cc84dd0b637fa3210ef36d913&#45;&gt;dir_ab1c81409f0df724f17c9ef30afee877</title>
<path fill="none" stroke="black" d="M97.39,-87.88C123.3,-76.61 157,-61.96 182.35,-50.94"/>
<polygon fill="black" stroke="black" points="183.84,-54.1 191.62,-46.9 181.05,-47.68 183.84,-54.1"/>
<g id="a_edge3&#45;headlabel"><a xlink:href="dir_000008_000003.html" target="_top" xlink:title="3">
<text text-anchor="middle" x="181.68" y="-55.64" font-family="Helvetica,sans-Serif" font-size="10.00">3</text>
</a>
</g>
</g>
</g>
</svg>
        <g id="navigator" transform="translate(0 0)" fill="#404254">
                <rect fill="#f2f5e9" fill-opacity="0.5" stroke="#606060" stroke-width=".5" x="0" y="0" width="60" height="60"/>
                <use id="zoomplus" xlink:href="#zoomPlus" x="17" y="9" onmousedown="handleZoom(evt,'in')"/>
                <use id="zoomminus" xlink:href="#zoomMin" x="42" y="9" onmousedown="handleZoom(evt,'out')"/>
                <use id="reset" xlink:href="#resetDef" x="30" y="36" onmousedown="handleReset()"/>
                <g id="arrowUp" xlink:href="#dirArrow" transform="translate(30 24)" onmousedown="handlePan(0,-1)">
                  <use xlink:href="#rim" fill="#404040">
                        <set attributeName="fill" to="#808080" begin="arrowUp.mouseover" end="arrowUp.mouseout"/>
                  </use>
                  <path fill="none" stroke="white" stroke-width="1.5" d="M0,-3.0v7 M-2.5,-0.5L0,-3.0L2.5,-0.5"/>
                </g>
                <g id="arrowRight" xlink:href="#dirArrow" transform="rotate(90) translate(36 -43)" onmousedown="handlePan(1,0)">
                  <use xlink:href="#rim" fill="#404040">
                        <set attributeName="fill" to="#808080" begin="arrowRight.mouseover" end="arrowRight.mouseout"/>
                  </use>
                  <path fill="none" stroke="white" stroke-width="1.5" d="M0,-3.0v7 M-2.5,-0.5L0,-3.0L2.5,-0.5"/>
                </g>
                <g id="arrowDown" xlink:href="#dirArrow" transform="rotate(180) translate(-30 -48)" onmousedown="handlePan(0,1)">
                  <use xlink:href="#rim" fill="#404040">
                        <set attributeName="fill" to="#808080" begin="arrowDown.mouseover" end="arrowDown.mouseout"/>
                  </use>
                  <path fill="none" stroke="white" stroke-width="1.5" d="M0,-3.0v7 M-2.5,-0.5L0,-3.0L2.5,-0.5"/>
                </g>
                <g id="arrowLeft" xlink:href="#dirArrow" transform="rotate(270) translate(-36 17)" onmousedown="handlePan(-1,0)">
                  <use xlink:href="#rim" fill="#404040">
                        <set attributeName="fill" to="#808080" begin="arrowLeft.mouseover" end="arrowLeft.mouseout"/>
                  </use>
                  <path fill="none" stroke="white" stroke-width="1.5" d="M0,-3.0v7 M-2.5,-0.5L0,-3.0L2.5,-0.5"/>
                </g>
        </g>
        <svg viewBox="0 0 15 15" width="100%" height="30px" preserveAspectRatio="xMaxYMin meet">
         <g id="arrow_out" transform="scale(0.3 0.3)">
          <a xlink:href="dir_d44c64559bbebec7f509842c48db8b23_dep_org.svg" target="_base">
           <rect id="button" ry="5" rx="5" y="6" x="6" height="38" width="38"
                fill="#f2f5e9" fill-opacity="0.5" stroke="#606060" stroke-width="1.0"/>
           <path id="arrow"
             d="M 11.500037,31.436501 C 11.940474,20.09759 22.043105,11.32322 32.158766,21.979434 L 37.068811,17.246167 C 37.068811,17.246167 37.088388,32 37.088388,32 L 22.160133,31.978069 C 22.160133,31.978069 26.997745,27.140456 26.997745,27.140456 C 18.528582,18.264221 13.291696,25.230495 11.500037,31.436501 z"
             style="fill:#404040;"/>
          </a>
         </g>
        </svg>
</svg>
