<?xml version="1.0" encoding="UTF-8" standalone="no"?>
<!DOCTYPE svg PUBLIC "-//W3C//DTD SVG 1.1//EN"
 "http://www.w3.org/Graphics/SVG/1.1/DTD/svg11.dtd">
<!-- Generated by graphviz version 2.50.0 (20220203.2022)
 -->
<!-- Title: Graphical Class Hierarchy Pages: 1 -->
<svg width="370pt" height="66pt"
 viewBox="0.00 0.00 370.00 66.00" xmlns="http://www.w3.org/2000/svg" xmlns:xlink="http://www.w3.org/1999/xlink">
<g id="graph0" class="graph" transform="scale(1 1) rotate(0) translate(4 62)">
<title>Graphical Class Hierarchy</title>
<polygon fill="white" stroke="transparent" points="-4,4 -4,-62 366,-62 366,4 -4,4"/>
<!-- Node0 -->
<g id="node1" class="node">
<title>Node0</title>
<g id="a_node1"><a xlink:title=" ">
<polygon fill="white" stroke="#bfbfbf" points="0,-19.5 0,-38.5 44,-38.5 44,-19.5 0,-19.5"/>
<text text-anchor="middle" x="22" y="-26.5" font-family="Helvetica,sans-Serif" font-size="10.00">Action</text>
</a>
</g>
</g>
<!-- Node1 -->
<g id="node2" class="node">
<title>Node1</title>
<g id="a_node2"><a xlink:href="class_variable_not_a_moose_object_action.html" target="_top" xlink:title=" ">
<polygon fill="white" stroke="black" points="80,-19.5 80,-38.5 240,-38.5 240,-19.5 80,-19.5"/>
<text text-anchor="middle" x="160" y="-26.5" font-family="Helvetica,sans-Serif" font-size="10.00">VariableNotAMooseObjectAction</text>
</a>
</g>
</g>
<!-- Node0&#45;&gt;Node1 -->
<g id="edge1" class="edge">
<title>Node0&#45;&gt;Node1</title>
<path fill="none" stroke="midnightblue" d="M54.26,-29C62.06,-29 70.79,-29 79.79,-29"/>
<polygon fill="midnightblue" stroke="midnightblue" points="54.25,-25.5 44.25,-29 54.25,-32.5 54.25,-25.5"/>
</g>
<!-- Node2 -->
<g id="node3" class="node">
<title>Node2</title>
<g id="a_node3"><a xlink:href="class_nt_action.html" target="_top" xlink:title=" ">
<polygon fill="white" stroke="black" points="291.5,-38.5 291.5,-57.5 346.5,-57.5 346.5,-38.5 291.5,-38.5"/>
<text text-anchor="middle" x="319" y="-45.5" font-family="Helvetica,sans-Serif" font-size="10.00">NtAction</text>
</a>
</g>
</g>
<!-- Node1&#45;&gt;Node2 -->
<g id="edge2" class="edge">
<title>Node1&#45;&gt;Node2</title>
<path fill="none" stroke="midnightblue" d="M249.89,-39.76C264.93,-41.58 279.46,-43.34 291.2,-44.76"/>
<polygon fill="midnightblue" stroke="midnightblue" points="250.31,-36.28 239.96,-38.56 249.47,-43.23 250.31,-36.28"/>
</g>
<!-- Node3 -->
<g id="node4" class="node">
<title>Node3</title>
<g id="a_node4"><a xlink:href="class_precursor_action.html" target="_top" xlink:title=" ">
<polygon fill="white" stroke="black" points="276,-0.5 276,-19.5 362,-19.5 362,-0.5 276,-0.5"/>
<text text-anchor="middle" x="319" y="-7.5" font-family="Helvetica,sans-Serif" font-size="10.00">PrecursorAction</text>
</a>
</g>
</g>
<!-- Node1&#45;&gt;Node3 -->
<g id="edge3" class="edge">
<title>Node1&#45;&gt;Node3</title>
<path fill="none" stroke="midnightblue" d="M250.08,-18.22C258.99,-17.14 267.72,-16.08 275.8,-15.11"/>
<polygon fill="midnightblue" stroke="midnightblue" points="249.47,-14.77 239.96,-19.44 250.31,-21.72 249.47,-14.77"/>
</g>
</g>
</svg>
