<?xml version="1.0" encoding="UTF-8" standalone="no"?>
<!DOCTYPE svg PUBLIC "-//W3C//DTD SVG 1.1//EN"
 "http://www.w3.org/Graphics/SVG/1.1/DTD/svg11.dtd">
<!-- Generated by graphviz version 2.43.0 (0)
 -->
<!-- Title: Graphical Class Hierarchy Pages: 1 -->
<svg width="276pt" height="180pt"
 viewBox="0.00 0.00 276.00 180.00" xmlns="http://www.w3.org/2000/svg" xmlns:xlink="http://www.w3.org/1999/xlink">
<g id="graph0" class="graph" transform="scale(1 1) rotate(0) translate(4 176)">
<title>Graphical Class Hierarchy</title>
<polygon fill="white" stroke="transparent" points="-4,4 -4,-176 272,-176 272,4 -4,4"/>
<!-- Node72 -->
<g id="node1" class="node">
<title>Node72</title>
<g id="a_node1"><a xlink:title=" ">
<polygon fill="white" stroke="#bfbfbf" points="0,-76.5 0,-95.5 62,-95.5 62,-76.5 0,-76.5"/>
<text text-anchor="middle" x="31" y="-83.5" font-family="Helvetica,sans-Serif" font-size="10.00">AuxKernel</text>
</a>
</g>
</g>
<!-- Node0 -->
<g id="node2" class="node">
<title>Node0</title>
<g id="a_node2"><a xlink:href="class_constant_difference_aux.html" target="_top" xlink:title=" ">
<polygon fill="white" stroke="black" points="123.5,-152.5 123.5,-171.5 242.5,-171.5 242.5,-152.5 123.5,-152.5"/>
<text text-anchor="middle" x="183" y="-159.5" font-family="Helvetica,sans-Serif" font-size="10.00">ConstantDifferenceAux</text>
</a>
</g>
</g>
<!-- Node72&#45;&gt;Node0 -->
<g id="edge1" class="edge">
<title>Node72&#45;&gt;Node0</title>
<path fill="none" stroke="midnightblue" d="M47.22,-103.08C59.64,-115.96 78.3,-133.06 98,-143 105.88,-146.97 114.58,-150.13 123.32,-152.62"/>
<polygon fill="midnightblue" stroke="midnightblue" points="49.72,-100.63 40.34,-95.7 44.6,-105.4 49.72,-100.63"/>
</g>
<!-- Node74 -->
<g id="node3" class="node">
<title>Node74</title>
<g id="a_node3"><a xlink:href="class_fission_heat_source_aux.html" target="_top" xlink:title=" ">
<polygon fill="white" stroke="black" points="124.5,-114.5 124.5,-133.5 241.5,-133.5 241.5,-114.5 124.5,-114.5"/>
<text text-anchor="middle" x="183" y="-121.5" font-family="Helvetica,sans-Serif" font-size="10.00">FissionHeatSourceAux</text>
</a>
</g>
</g>
<!-- Node72&#45;&gt;Node74 -->
<g id="edge2" class="edge">
<title>Node72&#45;&gt;Node74</title>
<path fill="none" stroke="midnightblue" d="M71.93,-97.9C80.5,-100.34 89.53,-102.83 98,-105 110.74,-108.27 124.65,-111.54 137.42,-114.42"/>
<polygon fill="midnightblue" stroke="midnightblue" points="72.71,-94.48 62.13,-95.07 70.77,-101.2 72.71,-94.48"/>
</g>
<!-- Node75 -->
<g id="node4" class="node">
<title>Node75</title>
<g id="a_node4"><a xlink:href="class_fission_heat_source_transient_aux.html" target="_top" xlink:title=" ">
<polygon fill="white" stroke="black" points="104,-76.5 104,-95.5 262,-95.5 262,-76.5 104,-76.5"/>
<text text-anchor="middle" x="183" y="-83.5" font-family="Helvetica,sans-Serif" font-size="10.00">FissionHeatSourceTransientAux</text>
</a>
</g>
</g>
<!-- Node72&#45;&gt;Node75 -->
<g id="edge3" class="edge">
<title>Node72&#45;&gt;Node75</title>
<path fill="none" stroke="midnightblue" d="M72.52,-86C82.29,-86 93.05,-86 103.9,-86"/>
<polygon fill="midnightblue" stroke="midnightblue" points="72.35,-82.5 62.35,-86 72.35,-89.5 72.35,-82.5"/>
</g>
<!-- Node76 -->
<g id="node5" class="node">
<title>Node76</title>
<g id="a_node5"><a xlink:href="class_mat_diffusion_aux.html" target="_top" xlink:title=" ">
<polygon fill="white" stroke="black" points="138.5,-38.5 138.5,-57.5 227.5,-57.5 227.5,-38.5 138.5,-38.5"/>
<text text-anchor="middle" x="183" y="-45.5" font-family="Helvetica,sans-Serif" font-size="10.00">MatDiffusionAux</text>
</a>
</g>
</g>
<!-- Node72&#45;&gt;Node76 -->
<g id="edge4" class="edge">
<title>Node72&#45;&gt;Node76</title>
<path fill="none" stroke="midnightblue" d="M71.93,-74.1C80.5,-71.66 89.53,-69.17 98,-67 111.03,-63.65 125.29,-60.31 138.29,-57.38"/>
<polygon fill="midnightblue" stroke="midnightblue" points="70.77,-70.8 62.13,-76.93 72.71,-77.52 70.77,-70.8"/>
</g>
<!-- Node77 -->
<g id="node6" class="node">
<title>Node77</title>
<g id="a_node6"><a xlink:href="class_moderator_heat_source_transient_aux.html" target="_top" xlink:title=" ">
<polygon fill="white" stroke="black" points="98,-0.5 98,-19.5 268,-19.5 268,-0.5 98,-0.5"/>
<text text-anchor="middle" x="183" y="-7.5" font-family="Helvetica,sans-Serif" font-size="10.00">ModeratorHeatSourceTransientAux</text>
</a>
</g>
</g>
<!-- Node72&#45;&gt;Node77 -->
<g id="edge5" class="edge">
<title>Node72&#45;&gt;Node77</title>
<path fill="none" stroke="midnightblue" d="M47.22,-68.92C59.64,-56.04 78.3,-38.94 98,-29 105.74,-25.09 114.29,-21.98 122.88,-19.5"/>
<polygon fill="midnightblue" stroke="midnightblue" points="44.6,-66.6 40.34,-76.3 49.72,-71.37 44.6,-66.6"/>
</g>
</g>
</svg>
