<?xml version="1.0" encoding="UTF-8" standalone="no"?>
<!DOCTYPE svg PUBLIC "-//W3C//DTD SVG 1.1//EN"
 "http://www.w3.org/Graphics/SVG/1.1/DTD/svg11.dtd">
<!-- Generated by graphviz version 2.44.0 ()
 -->
<!-- Title: Graphical Class Hierarchy Pages: 1 -->
<svg width="707pt" height="1434pt"
 viewBox="0.00 0.00 707.00 1434.00" xmlns="http://www.w3.org/2000/svg" xmlns:xlink="http://www.w3.org/1999/xlink">
<g id="graph0" class="graph" transform="scale(1 1) rotate(0) translate(4 1430)">
<title>Graphical Class Hierarchy</title>
<polygon fill="white" stroke="transparent" points="-4,4 -4,-1430 703,-1430 703,4 -4,4"/>
<!-- Node15 -->
<g id="node1" class="node">
<title>Node15</title>
<g id="a_node1"><a xlink:title=" ">
<polygon fill="white" stroke="#bfbfbf" points="39.5,-1216.5 39.5,-1235.5 107.5,-1235.5 107.5,-1216.5 39.5,-1216.5"/>
<text text-anchor="middle" x="73.5" y="-1223.5" font-family="Helvetica,sans-Serif" font-size="10.00">EigenKernel</text>
</a>
</g>
</g>
<!-- Node0 -->
<g id="node2" class="node">
<title>Node0</title>
<g id="a_node2"><a xlink:href="class_coupled_fission_eigen_kernel.html" target="_top" xlink:title=" ">
<polygon fill="white" stroke="black" points="199,-912.5 199,-931.5 334,-931.5 334,-912.5 199,-912.5"/>
<text text-anchor="middle" x="266.5" y="-919.5" font-family="Helvetica,sans-Serif" font-size="10.00">CoupledFissionEigenKernel</text>
</a>
</g>
</g>
<!-- Node15&#45;&gt;Node0 -->
<g id="edge1" class="edge">
<title>Node15&#45;&gt;Node0</title>
<path fill="none" stroke="midnightblue" d="M81.26,-1206.77C103.3,-1144.27 172.29,-950.33 183,-941 187.65,-936.94 193,-933.71 198.69,-931.13"/>
<polygon fill="midnightblue" stroke="midnightblue" points="77.95,-1205.64 77.93,-1216.24 84.55,-1207.97 77.95,-1205.64"/>
</g>
<!-- Node17 -->
<g id="node3" class="node">
<title>Node17</title>
<g id="a_node3"><a xlink:href="class_delayed_neutron_eigen_source.html" target="_top" xlink:title=" ">
<polygon fill="white" stroke="black" points="196.5,-1216.5 196.5,-1235.5 336.5,-1235.5 336.5,-1216.5 196.5,-1216.5"/>
<text text-anchor="middle" x="266.5" y="-1223.5" font-family="Helvetica,sans-Serif" font-size="10.00">DelayedNeutronEigenSource</text>
</a>
</g>
</g>
<!-- Node15&#45;&gt;Node17 -->
<g id="edge2" class="edge">
<title>Node15&#45;&gt;Node17</title>
<path fill="none" stroke="midnightblue" d="M117.95,-1226C141.09,-1226 170.09,-1226 196.24,-1226"/>
<polygon fill="midnightblue" stroke="midnightblue" points="117.77,-1222.5 107.77,-1226 117.77,-1229.5 117.77,-1222.5"/>
</g>
<!-- Node18 -->
<g id="node4" class="node">
<title>Node18</title>
<g id="a_node4"><a xlink:href="class_self_fission_eigen_kernel.html" target="_top" xlink:title=" ">
<polygon fill="white" stroke="black" points="208,-1292.5 208,-1311.5 325,-1311.5 325,-1292.5 208,-1292.5"/>
<text text-anchor="middle" x="266.5" y="-1299.5" font-family="Helvetica,sans-Serif" font-size="10.00">SelfFissionEigenKernel</text>
</a>
</g>
</g>
<!-- Node15&#45;&gt;Node18 -->
<g id="edge3" class="edge">
<title>Node15&#45;&gt;Node18</title>
<path fill="none" stroke="midnightblue" d="M98.47,-1240.9C119.92,-1253.67 152.59,-1271.72 183,-1283 193.06,-1286.73 204.09,-1289.88 214.72,-1292.47"/>
<polygon fill="midnightblue" stroke="midnightblue" points="100.1,-1237.79 89.73,-1235.62 96.48,-1243.79 100.1,-1237.79"/>
</g>
<!-- Node19 -->
<g id="node5" class="node">
<title>Node19</title>
<g id="a_node5"><a xlink:title=" ">
<polygon fill="white" stroke="#bfbfbf" points="0,-1349.5 0,-1368.5 147,-1368.5 147,-1349.5 0,-1349.5"/>
<text text-anchor="middle" x="73.5" y="-1356.5" font-family="Helvetica,sans-Serif" font-size="10.00">ElementIntegralPostprocessor</text>
</a>
</g>
</g>
<!-- Node20 -->
<g id="node6" class="node">
<title>Node20</title>
<g id="a_node6"><a xlink:href="class_elm_integ_tot_fiss_nts_postprocessor.html" target="_top" xlink:title=" ">
<polygon fill="white" stroke="black" points="183,-1330.5 183,-1349.5 350,-1349.5 350,-1330.5 183,-1330.5"/>
<text text-anchor="middle" x="266.5" y="-1337.5" font-family="Helvetica,sans-Serif" font-size="10.00">ElmIntegTotFissNtsPostprocessor</text>
</a>
</g>
</g>
<!-- Node19&#45;&gt;Node20 -->
<g id="edge4" class="edge">
<title>Node19&#45;&gt;Node20</title>
<path fill="none" stroke="midnightblue" d="M157.41,-1350.75C165.81,-1349.92 174.33,-1349.07 182.73,-1348.23"/>
<polygon fill="midnightblue" stroke="midnightblue" points="156.86,-1347.29 147.25,-1351.76 157.55,-1354.26 156.86,-1347.29"/>
</g>
<!-- Node21 -->
<g id="node7" class="node">
<title>Node21</title>
<g id="a_node7"><a xlink:href="class_elm_integ_tot_fiss_postprocessor.html" target="_top" xlink:title=" ">
<polygon fill="white" stroke="black" points="191,-1254.5 191,-1273.5 342,-1273.5 342,-1254.5 191,-1254.5"/>
<text text-anchor="middle" x="266.5" y="-1261.5" font-family="Helvetica,sans-Serif" font-size="10.00">ElmIntegTotFissPostprocessor</text>
</a>
</g>
</g>
<!-- Node19&#45;&gt;Node21 -->
<g id="edge5" class="edge">
<title>Node19&#45;&gt;Node21</title>
<path fill="none" stroke="midnightblue" d="M92.65,-1342.94C113.18,-1325.62 148.28,-1298.45 183,-1283 191.59,-1279.18 201.05,-1276.08 210.39,-1273.58"/>
<polygon fill="midnightblue" stroke="midnightblue" points="90.34,-1340.31 85.04,-1349.48 94.9,-1345.62 90.34,-1340.31"/>
</g>
<!-- Node24 -->
<g id="node10" class="node">
<title>Node24</title>
<g id="a_node10"><a xlink:href="class_integral_new_variable_postprocessor.html" target="_top" xlink:title=" ">
<polygon fill="white" stroke="black" points="183,-1406.5 183,-1425.5 350,-1425.5 350,-1406.5 183,-1406.5"/>
<text text-anchor="middle" x="266.5" y="-1413.5" font-family="Helvetica,sans-Serif" font-size="10.00">IntegralNewVariablePostprocessor</text>
</a>
</g>
</g>
<!-- Node19&#45;&gt;Node24 -->
<g id="edge8" class="edge">
<title>Node19&#45;&gt;Node24</title>
<path fill="none" stroke="midnightblue" d="M108.77,-1372.1C129.97,-1379.92 157.84,-1389.72 183,-1397 194.86,-1400.43 207.82,-1403.66 219.88,-1406.44"/>
<polygon fill="midnightblue" stroke="midnightblue" points="109.83,-1368.76 99.24,-1368.54 107.39,-1375.32 109.83,-1368.76"/>
</g>
<!-- Node25 -->
<g id="node11" class="node">
<title>Node25</title>
<g id="a_node11"><a xlink:href="class_integral_old_variable_postprocessor.html" target="_top" xlink:title=" ">
<polygon fill="white" stroke="black" points="185.5,-1368.5 185.5,-1387.5 347.5,-1387.5 347.5,-1368.5 185.5,-1368.5"/>
<text text-anchor="middle" x="266.5" y="-1375.5" font-family="Helvetica,sans-Serif" font-size="10.00">IntegralOldVariablePostprocessor</text>
</a>
</g>
</g>
<!-- Node19&#45;&gt;Node25 -->
<g id="edge9" class="edge">
<title>Node19&#45;&gt;Node25</title>
<path fill="none" stroke="midnightblue" d="M157.27,-1367.23C166.57,-1368.16 176.03,-1369.1 185.3,-1370.02"/>
<polygon fill="midnightblue" stroke="midnightblue" points="157.55,-1363.74 147.25,-1366.24 156.86,-1370.71 157.55,-1363.74"/>
</g>
<!-- Node22 -->
<g id="node8" class="node">
<title>Node22</title>
<g id="a_node8"><a xlink:href="class_elm_integ_tot_fiss_heat_postprocessor.html" target="_top" xlink:title=" ">
<polygon fill="white" stroke="black" points="386,-1254.5 386,-1273.5 558,-1273.5 558,-1254.5 386,-1254.5"/>
<text text-anchor="middle" x="472" y="-1261.5" font-family="Helvetica,sans-Serif" font-size="10.00">ElmIntegTotFissHeatPostprocessor</text>
</a>
</g>
</g>
<!-- Node21&#45;&gt;Node22 -->
<g id="edge6" class="edge">
<title>Node21&#45;&gt;Node22</title>
<path fill="none" stroke="midnightblue" d="M352.2,-1264C363.28,-1264 374.63,-1264 385.72,-1264"/>
<polygon fill="midnightblue" stroke="midnightblue" points="352.12,-1260.5 342.12,-1264 352.12,-1267.5 352.12,-1260.5"/>
</g>
<!-- Node23 -->
<g id="node9" class="node">
<title>Node23</title>
<g id="a_node9"><a xlink:href="class_average_fission_heat.html" target="_top" xlink:title=" ">
<polygon fill="white" stroke="black" points="594,-1254.5 594,-1273.5 699,-1273.5 699,-1254.5 594,-1254.5"/>
<text text-anchor="middle" x="646.5" y="-1261.5" font-family="Helvetica,sans-Serif" font-size="10.00">AverageFissionHeat</text>
</a>
</g>
</g>
<!-- Node22&#45;&gt;Node23 -->
<g id="edge7" class="edge">
<title>Node22&#45;&gt;Node23</title>
<path fill="none" stroke="midnightblue" d="M568.39,-1264C577.01,-1264 585.51,-1264 593.54,-1264"/>
<polygon fill="midnightblue" stroke="midnightblue" points="568.24,-1260.5 558.24,-1264 568.24,-1267.5 568.24,-1260.5"/>
</g>
<!-- Node37 -->
<g id="node12" class="node">
<title>Node37</title>
<g id="a_node12"><a xlink:title=" ">
<polygon fill="white" stroke="#bfbfbf" points="36.5,-988.5 36.5,-1007.5 110.5,-1007.5 110.5,-988.5 36.5,-988.5"/>
<text text-anchor="middle" x="73.5" y="-995.5" font-family="Helvetica,sans-Serif" font-size="10.00">IntegratedBC</text>
</a>
</g>
</g>
<!-- Node38 -->
<g id="node13" class="node">
<title>Node38</title>
<g id="a_node13"><a xlink:href="class_conservative_advection_no_b_c_b_c.html" target="_top" xlink:title=" ">
<polygon fill="white" stroke="black" points="188,-1064.5 188,-1083.5 345,-1083.5 345,-1064.5 188,-1064.5"/>
<text text-anchor="middle" x="266.5" y="-1071.5" font-family="Helvetica,sans-Serif" font-size="10.00">ConservativeAdvectionNoBCBC</text>
</a>
</g>
</g>
<!-- Node37&#45;&gt;Node38 -->
<g id="edge10" class="edge">
<title>Node37&#45;&gt;Node38</title>
<path fill="none" stroke="midnightblue" d="M98.47,-1012.9C119.92,-1025.67 152.59,-1043.72 183,-1055 193.06,-1058.73 204.09,-1061.88 214.72,-1064.47"/>
<polygon fill="midnightblue" stroke="midnightblue" points="100.1,-1009.79 89.73,-1007.62 96.48,-1015.79 100.1,-1009.79"/>
</g>
<!-- Node39 -->
<g id="node14" class="node">
<title>Node39</title>
<g id="a_node14"><a xlink:href="class_coupled_outflow_b_c.html" target="_top" xlink:title=" ">
<polygon fill="white" stroke="black" points="217.5,-988.5 217.5,-1007.5 315.5,-1007.5 315.5,-988.5 217.5,-988.5"/>
<text text-anchor="middle" x="266.5" y="-995.5" font-family="Helvetica,sans-Serif" font-size="10.00">CoupledOutflowBC</text>
</a>
</g>
</g>
<!-- Node37&#45;&gt;Node39 -->
<g id="edge11" class="edge">
<title>Node37&#45;&gt;Node39</title>
<path fill="none" stroke="midnightblue" d="M121.22,-998C150.4,-998 187.89,-998 217.34,-998"/>
<polygon fill="midnightblue" stroke="midnightblue" points="120.88,-994.5 110.88,-998 120.88,-1001.5 120.88,-994.5"/>
</g>
<!-- Node40 -->
<g id="node15" class="node">
<title>Node40</title>
<g id="a_node15"><a xlink:href="class_coupled_scalar_advection_no_b_c_b_c.html" target="_top" xlink:title=" ">
<polygon fill="white" stroke="black" points="185,-798.5 185,-817.5 348,-817.5 348,-798.5 185,-798.5"/>
<text text-anchor="middle" x="266.5" y="-805.5" font-family="Helvetica,sans-Serif" font-size="10.00">CoupledScalarAdvectionNoBCBC</text>
</a>
</g>
</g>
<!-- Node37&#45;&gt;Node40 -->
<g id="edge12" class="edge">
<title>Node37&#45;&gt;Node40</title>
<path fill="none" stroke="midnightblue" d="M81.1,-978.66C94.37,-942.79 127.86,-866.02 183,-827 188.4,-823.18 194.45,-820.11 200.75,-817.66"/>
<polygon fill="midnightblue" stroke="midnightblue" points="77.69,-977.8 77.62,-988.4 84.28,-980.16 77.69,-977.8"/>
</g>
<!-- Node41 -->
<g id="node16" class="node">
<title>Node41</title>
<g id="a_node16"><a xlink:href="class_diffusion_no_b_c_b_c.html" target="_top" xlink:title=" ">
<polygon fill="white" stroke="black" points="219.5,-950.5 219.5,-969.5 313.5,-969.5 313.5,-950.5 219.5,-950.5"/>
<text text-anchor="middle" x="266.5" y="-957.5" font-family="Helvetica,sans-Serif" font-size="10.00">DiffusionNoBCBC</text>
</a>
</g>
</g>
<!-- Node37&#45;&gt;Node41 -->
<g id="edge13" class="edge">
<title>Node37&#45;&gt;Node41</title>
<path fill="none" stroke="midnightblue" d="M121.06,-988.74C150.97,-982.79 189.65,-975.09 219.46,-969.16"/>
<polygon fill="midnightblue" stroke="midnightblue" points="120,-985.38 110.88,-990.76 121.37,-992.24 120,-985.38"/>
</g>
<!-- Node42 -->
<g id="node17" class="node">
<title>Node42</title>
<g id="a_node17"><a xlink:href="class_i_n_s_outflow_b_c.html" target="_top" xlink:title=" ">
<polygon fill="white" stroke="black" points="226.5,-1102.5 226.5,-1121.5 306.5,-1121.5 306.5,-1102.5 226.5,-1102.5"/>
<text text-anchor="middle" x="266.5" y="-1109.5" font-family="Helvetica,sans-Serif" font-size="10.00">INSOutflowBC</text>
</a>
</g>
</g>
<!-- Node37&#45;&gt;Node42 -->
<g id="edge14" class="edge">
<title>Node37&#45;&gt;Node42</title>
<path fill="none" stroke="midnightblue" d="M89.15,-1015.25C108.43,-1036.81 144.43,-1073.27 183,-1093 196.35,-1099.83 212.16,-1104.23 226.34,-1107.06"/>
<polygon fill="midnightblue" stroke="midnightblue" points="91.61,-1012.75 82.39,-1007.53 86.34,-1017.36 91.61,-1012.75"/>
</g>
<!-- Node43 -->
<g id="node18" class="node">
<title>Node43</title>
<g id="a_node18"><a xlink:href="class_i_n_s_symmetry_axis_b_c.html" target="_top" xlink:title=" ">
<polygon fill="white" stroke="black" points="211.5,-1178.5 211.5,-1197.5 321.5,-1197.5 321.5,-1178.5 211.5,-1178.5"/>
<text text-anchor="middle" x="266.5" y="-1185.5" font-family="Helvetica,sans-Serif" font-size="10.00">INSSymmetryAxisBC</text>
</a>
</g>
</g>
<!-- Node37&#45;&gt;Node43 -->
<g id="edge15" class="edge">
<title>Node37&#45;&gt;Node43</title>
<path fill="none" stroke="midnightblue" d="M81.1,-1017.34C94.37,-1053.21 127.86,-1129.98 183,-1169 191.4,-1174.94 201.37,-1179.06 211.43,-1181.9"/>
<polygon fill="midnightblue" stroke="midnightblue" points="84.28,-1015.84 77.62,-1007.6 77.69,-1018.2 84.28,-1015.84"/>
</g>
<!-- Node44 -->
<g id="node19" class="node">
<title>Node44</title>
<g id="a_node19"><a xlink:href="class_lin_log_penalty_dirichlet_b_c.html" target="_top" xlink:title=" ">
<polygon fill="white" stroke="black" points="202.5,-760.5 202.5,-779.5 330.5,-779.5 330.5,-760.5 202.5,-760.5"/>
<text text-anchor="middle" x="266.5" y="-767.5" font-family="Helvetica,sans-Serif" font-size="10.00">LinLogPenaltyDirichletBC</text>
</a>
</g>
</g>
<!-- Node37&#45;&gt;Node44 -->
<g id="edge16" class="edge">
<title>Node37&#45;&gt;Node44</title>
<path fill="none" stroke="midnightblue" d="M78.79,-978.49C89.01,-936.77 118.92,-838.65 183,-789 188.81,-784.5 195.5,-781.03 202.5,-778.37"/>
<polygon fill="midnightblue" stroke="midnightblue" points="75.37,-977.71 76.51,-988.25 82.19,-979.31 75.37,-977.71"/>
</g>
<!-- Node45 -->
<g id="node20" class="node">
<title>Node45</title>
<g id="a_node20"><a xlink:href="class_mat_diffusion_flux_b_c.html" target="_top" xlink:title=" ">
<polygon fill="white" stroke="black" points="215.5,-1026.5 215.5,-1045.5 317.5,-1045.5 317.5,-1026.5 215.5,-1026.5"/>
<text text-anchor="middle" x="266.5" y="-1033.5" font-family="Helvetica,sans-Serif" font-size="10.00">MatDiffusionFluxBC</text>
</a>
</g>
</g>
<!-- Node37&#45;&gt;Node45 -->
<g id="edge17" class="edge">
<title>Node37&#45;&gt;Node45</title>
<path fill="none" stroke="midnightblue" d="M120.87,-1007.23C150.22,-1013.07 188.08,-1020.6 217.7,-1026.49"/>
<polygon fill="midnightblue" stroke="midnightblue" points="121.37,-1003.76 110.88,-1005.24 120,-1010.62 121.37,-1003.76"/>
</g>
<!-- Node46 -->
<g id="node21" class="node">
<title>Node46</title>
<g id="a_node21"><a xlink:href="class_postprocessor_coupled_inflow_b_c.html" target="_top" xlink:title=" ">
<polygon fill="white" stroke="black" points="189.5,-1140.5 189.5,-1159.5 343.5,-1159.5 343.5,-1140.5 189.5,-1140.5"/>
<text text-anchor="middle" x="266.5" y="-1147.5" font-family="Helvetica,sans-Serif" font-size="10.00">PostprocessorCoupledInflowBC</text>
</a>
</g>
</g>
<!-- Node37&#45;&gt;Node46 -->
<g id="edge18" class="edge">
<title>Node37&#45;&gt;Node46</title>
<path fill="none" stroke="midnightblue" d="M84.3,-1016.64C100.65,-1045.84 136.37,-1102 183,-1131 189.24,-1134.88 196.19,-1137.97 203.33,-1140.43"/>
<polygon fill="midnightblue" stroke="midnightblue" points="87.19,-1014.64 79.33,-1007.53 81.04,-1017.98 87.19,-1014.64"/>
</g>
<!-- Node47 -->
<g id="node22" class="node">
<title>Node47</title>
<g id="a_node22"><a xlink:href="class_scalar_advection_art_diff_no_b_c_b_c.html" target="_top" xlink:title=" ">
<polygon fill="white" stroke="black" points="189,-874.5 189,-893.5 344,-893.5 344,-874.5 189,-874.5"/>
<text text-anchor="middle" x="266.5" y="-881.5" font-family="Helvetica,sans-Serif" font-size="10.00">ScalarAdvectionArtDiffNoBCBC</text>
</a>
</g>
</g>
<!-- Node37&#45;&gt;Node47 -->
<g id="edge19" class="edge">
<title>Node37&#45;&gt;Node47</title>
<path fill="none" stroke="midnightblue" d="M89.15,-980.75C108.43,-959.19 144.43,-922.73 183,-903 190.59,-899.12 198.98,-896.02 207.41,-893.55"/>
<polygon fill="midnightblue" stroke="midnightblue" points="86.34,-978.64 82.39,-988.47 91.61,-983.25 86.34,-978.64"/>
</g>
<!-- Node48 -->
<g id="node23" class="node">
<title>Node48</title>
<g id="a_node23"><a xlink:href="class_vacuum_conc_b_c.html" target="_top" xlink:title=" ">
<polygon fill="white" stroke="black" points="222,-836.5 222,-855.5 311,-855.5 311,-836.5 222,-836.5"/>
<text text-anchor="middle" x="266.5" y="-843.5" font-family="Helvetica,sans-Serif" font-size="10.00">VacuumConcBC</text>
</a>
</g>
</g>
<!-- Node37&#45;&gt;Node48 -->
<g id="edge20" class="edge">
<title>Node37&#45;&gt;Node48</title>
<path fill="none" stroke="midnightblue" d="M84.3,-979.36C100.65,-950.16 136.37,-894 183,-865 194.61,-857.78 208.67,-853.3 221.87,-850.52"/>
<polygon fill="midnightblue" stroke="midnightblue" points="81.04,-978.02 79.33,-988.47 87.19,-981.36 81.04,-978.02"/>
</g>
<!-- Node49 -->
<g id="node24" class="node">
<title>Node49</title>
<g id="a_node24"><a xlink:title=" ">
<polygon fill="white" stroke="#bfbfbf" points="51.5,-380.5 51.5,-399.5 95.5,-399.5 95.5,-380.5 51.5,-380.5"/>
<text text-anchor="middle" x="73.5" y="-387.5" font-family="Helvetica,sans-Serif" font-size="10.00">Kernel</text>
</a>
</g>
</g>
<!-- Node50 -->
<g id="node25" class="node">
<title>Node50</title>
<g id="a_node25"><a xlink:href="class_convective_heat_exchanger.html" target="_top" xlink:title=" ">
<polygon fill="white" stroke="black" points="201,-114.5 201,-133.5 332,-133.5 332,-114.5 201,-114.5"/>
<text text-anchor="middle" x="266.5" y="-121.5" font-family="Helvetica,sans-Serif" font-size="10.00">ConvectiveHeatExchanger</text>
</a>
</g>
</g>
<!-- Node49&#45;&gt;Node50 -->
<g id="edge21" class="edge">
<title>Node49&#45;&gt;Node50</title>
<path fill="none" stroke="midnightblue" d="M77.13,-370.27C84.51,-323.16 109.85,-203.57 183,-143 188.32,-138.59 194.47,-135.17 200.96,-132.5"/>
<polygon fill="midnightblue" stroke="midnightblue" points="73.64,-369.97 75.66,-380.37 80.57,-370.98 73.64,-369.97"/>
</g>
<!-- Node51 -->
<g id="node26" class="node">
<title>Node51</title>
<g id="a_node26"><a xlink:href="class_coupled_fission_kernel.html" target="_top" xlink:title=" ">
<polygon fill="white" stroke="black" points="211,-570.5 211,-589.5 322,-589.5 322,-570.5 211,-570.5"/>
<text text-anchor="middle" x="266.5" y="-577.5" font-family="Helvetica,sans-Serif" font-size="10.00">CoupledFissionKernel</text>
</a>
</g>
</g>
<!-- Node49&#45;&gt;Node51 -->
<g id="edge22" class="edge">
<title>Node49&#45;&gt;Node51</title>
<path fill="none" stroke="midnightblue" d="M81.1,-409.34C94.37,-445.21 127.86,-521.98 183,-561 191.16,-566.77 200.8,-570.82 210.57,-573.65"/>
<polygon fill="midnightblue" stroke="midnightblue" points="84.28,-407.84 77.62,-399.6 77.69,-410.2 84.28,-407.84"/>
</g>
<!-- Node52 -->
<g id="node27" class="node">
<title>Node52</title>
<g id="a_node27"><a xlink:href="class_coupled_scalar_advection.html" target="_top" xlink:title=" ">
<polygon fill="white" stroke="black" points="205,-532.5 205,-551.5 328,-551.5 328,-532.5 205,-532.5"/>
<text text-anchor="middle" x="266.5" y="-539.5" font-family="Helvetica,sans-Serif" font-size="10.00">CoupledScalarAdvection</text>
</a>
</g>
</g>
<!-- Node49&#45;&gt;Node52 -->
<g id="edge23" class="edge">
<title>Node49&#45;&gt;Node52</title>
<path fill="none" stroke="midnightblue" d="M84.3,-408.64C100.65,-437.84 136.37,-494 183,-523 189.61,-527.11 197.03,-530.34 204.62,-532.87"/>
<polygon fill="midnightblue" stroke="midnightblue" points="87.19,-406.64 79.33,-399.53 81.04,-409.98 87.19,-406.64"/>
</g>
<!-- Node53 -->
<g id="node28" class="node">
<title>Node53</title>
<g id="a_node28"><a xlink:href="class_decay_heat_source.html" target="_top" xlink:title=" ">
<polygon fill="white" stroke="black" points="219,-494.5 219,-513.5 314,-513.5 314,-494.5 219,-494.5"/>
<text text-anchor="middle" x="266.5" y="-501.5" font-family="Helvetica,sans-Serif" font-size="10.00">DecayHeatSource</text>
</a>
</g>
</g>
<!-- Node49&#45;&gt;Node53 -->
<g id="edge24" class="edge">
<title>Node49&#45;&gt;Node53</title>
<path fill="none" stroke="midnightblue" d="M89.15,-407.25C108.43,-428.81 144.43,-465.27 183,-485 193.99,-490.62 206.65,-494.6 218.7,-497.41"/>
<polygon fill="midnightblue" stroke="midnightblue" points="91.61,-404.75 82.39,-399.53 86.34,-409.36 91.61,-404.75"/>
</g>
<!-- Node54 -->
<g id="node29" class="node">
<title>Node54</title>
<g id="a_node29"><a xlink:href="class_delayed_neutron_source.html" target="_top" xlink:title=" ">
<polygon fill="white" stroke="black" points="208.5,-456.5 208.5,-475.5 324.5,-475.5 324.5,-456.5 208.5,-456.5"/>
<text text-anchor="middle" x="266.5" y="-463.5" font-family="Helvetica,sans-Serif" font-size="10.00">DelayedNeutronSource</text>
</a>
</g>
</g>
<!-- Node49&#45;&gt;Node54 -->
<g id="edge25" class="edge">
<title>Node49&#45;&gt;Node54</title>
<path fill="none" stroke="midnightblue" d="M98.47,-404.9C119.92,-417.67 152.59,-435.72 183,-447 193.06,-450.73 204.09,-453.88 214.72,-456.47"/>
<polygon fill="midnightblue" stroke="midnightblue" points="100.1,-401.79 89.73,-399.62 96.48,-407.79 100.1,-401.79"/>
</g>
<!-- Node55 -->
<g id="node30" class="node">
<title>Node55</title>
<g id="a_node30"><a xlink:href="class_div_free_coupled_scalar_advection.html" target="_top" xlink:title=" ">
<polygon fill="white" stroke="black" points="188,-418.5 188,-437.5 345,-437.5 345,-418.5 188,-418.5"/>
<text text-anchor="middle" x="266.5" y="-425.5" font-family="Helvetica,sans-Serif" font-size="10.00">DivFreeCoupledScalarAdvection</text>
</a>
</g>
</g>
<!-- Node49&#45;&gt;Node55 -->
<g id="edge26" class="edge">
<title>Node49&#45;&gt;Node55</title>
<path fill="none" stroke="midnightblue" d="M105.69,-396.2C136.04,-402.24 182.59,-411.51 217.64,-418.48"/>
<polygon fill="midnightblue" stroke="midnightblue" points="106.16,-392.73 95.67,-394.21 104.79,-399.6 106.16,-392.73"/>
</g>
<!-- Node56 -->
<g id="node31" class="node">
<title>Node56</title>
<g id="a_node31"><a xlink:href="class_fission_heat_source.html" target="_top" xlink:title=" ">
<polygon fill="white" stroke="black" points="216.5,-76.5 216.5,-95.5 316.5,-95.5 316.5,-76.5 216.5,-76.5"/>
<text text-anchor="middle" x="266.5" y="-83.5" font-family="Helvetica,sans-Serif" font-size="10.00">FissionHeatSource</text>
</a>
</g>
</g>
<!-- Node49&#45;&gt;Node56 -->
<g id="edge27" class="edge">
<title>Node49&#45;&gt;Node56</title>
<path fill="none" stroke="midnightblue" d="M81.26,-370.77C103.3,-308.27 172.29,-114.33 183,-105 192.31,-96.89 204.39,-92.06 216.42,-89.22"/>
<polygon fill="midnightblue" stroke="midnightblue" points="77.95,-369.64 77.93,-380.24 84.55,-371.97 77.95,-369.64"/>
</g>
<!-- Node57 -->
<g id="node32" class="node">
<title>Node57</title>
<g id="a_node32"><a xlink:href="class_gamma_heat_source.html" target="_top" xlink:title=" ">
<polygon fill="white" stroke="black" points="215,-38.5 215,-57.5 318,-57.5 318,-38.5 215,-38.5"/>
<text text-anchor="middle" x="266.5" y="-45.5" font-family="Helvetica,sans-Serif" font-size="10.00">GammaHeatSource</text>
</a>
</g>
</g>
<!-- Node49&#45;&gt;Node57 -->
<g id="edge28" class="edge">
<title>Node49&#45;&gt;Node57</title>
<path fill="none" stroke="midnightblue" d="M81.29,-371.01C94.33,-334.38 123.7,-251.35 147,-181 163.71,-130.56 143.97,-103.05 183,-67 191.75,-58.92 203.22,-54.06 214.81,-51.17"/>
<polygon fill="midnightblue" stroke="midnightblue" points="77.98,-369.86 77.92,-380.45 84.58,-372.21 77.98,-369.86"/>
</g>
<!-- Node58 -->
<g id="node33" class="node">
<title>Node58</title>
<g id="a_node33"><a xlink:href="class_group_diffusion.html" target="_top" xlink:title=" ">
<polygon fill="white" stroke="black" points="226.5,-380.5 226.5,-399.5 306.5,-399.5 306.5,-380.5 226.5,-380.5"/>
<text text-anchor="middle" x="266.5" y="-387.5" font-family="Helvetica,sans-Serif" font-size="10.00">GroupDiffusion</text>
</a>
</g>
</g>
<!-- Node49&#45;&gt;Node58 -->
<g id="edge29" class="edge">
<title>Node49&#45;&gt;Node58</title>
<path fill="none" stroke="midnightblue" d="M106.08,-390C139.05,-390 190.81,-390 226.35,-390"/>
<polygon fill="midnightblue" stroke="midnightblue" points="105.67,-386.5 95.67,-390 105.67,-393.5 105.67,-386.5"/>
</g>
<!-- Node59 -->
<g id="node34" class="node">
<title>Node59</title>
<g id="a_node34"><a xlink:href="class_heat_precursor_decay.html" target="_top" xlink:title=" ">
<polygon fill="white" stroke="black" points="213,-342.5 213,-361.5 320,-361.5 320,-342.5 213,-342.5"/>
<text text-anchor="middle" x="266.5" y="-349.5" font-family="Helvetica,sans-Serif" font-size="10.00">HeatPrecursorDecay</text>
</a>
</g>
</g>
<!-- Node49&#45;&gt;Node59 -->
<g id="edge30" class="edge">
<title>Node49&#45;&gt;Node59</title>
<path fill="none" stroke="midnightblue" d="M105.69,-383.8C136.04,-377.76 182.59,-368.49 217.64,-361.52"/>
<polygon fill="midnightblue" stroke="midnightblue" points="104.79,-380.4 95.67,-385.79 106.16,-387.27 104.79,-380.4"/>
</g>
<!-- Node60 -->
<g id="node35" class="node">
<title>Node60</title>
<g id="a_node35"><a xlink:href="class_heat_precursor_source.html" target="_top" xlink:title=" ">
<polygon fill="white" stroke="black" points="211.5,-304.5 211.5,-323.5 321.5,-323.5 321.5,-304.5 211.5,-304.5"/>
<text text-anchor="middle" x="266.5" y="-311.5" font-family="Helvetica,sans-Serif" font-size="10.00">HeatPrecursorSource</text>
</a>
</g>
</g>
<!-- Node49&#45;&gt;Node60 -->
<g id="edge31" class="edge">
<title>Node49&#45;&gt;Node60</title>
<path fill="none" stroke="midnightblue" d="M98.47,-375.1C119.92,-362.33 152.59,-344.28 183,-333 193.06,-329.27 204.09,-326.12 214.72,-323.53"/>
<polygon fill="midnightblue" stroke="midnightblue" points="96.48,-372.21 89.73,-380.38 100.1,-378.21 96.48,-372.21"/>
</g>
<!-- Node61 -->
<g id="node36" class="node">
<title>Node61</title>
<g id="a_node36"><a xlink:href="class_i_n_s_boussinesq_body_force.html" target="_top" xlink:title=" ">
<polygon fill="white" stroke="black" points="201,-0.5 201,-19.5 332,-19.5 332,-0.5 201,-0.5"/>
<text text-anchor="middle" x="266.5" y="-7.5" font-family="Helvetica,sans-Serif" font-size="10.00">INSBoussinesqBodyForce</text>
</a>
</g>
</g>
<!-- Node49&#45;&gt;Node61 -->
<g id="edge32" class="edge">
<title>Node49&#45;&gt;Node61</title>
<path fill="none" stroke="midnightblue" d="M81.95,-370.64C95.9,-334 126.39,-251.82 147,-181 166.4,-114.34 133.76,-77.94 183,-29 188.11,-23.92 194.28,-20.09 200.93,-17.22"/>
<polygon fill="midnightblue" stroke="midnightblue" points="78.64,-369.52 78.33,-380.11 85.18,-372.02 78.64,-369.52"/>
</g>
<!-- Node62 -->
<g id="node37" class="node">
<title>Node62</title>
<g id="a_node37"><a xlink:href="class_i_n_s_momentum_k_epsilon.html" target="_top" xlink:title=" ">
<polygon fill="white" stroke="black" points="206,-190.5 206,-209.5 327,-209.5 327,-190.5 206,-190.5"/>
<text text-anchor="middle" x="266.5" y="-197.5" font-family="Helvetica,sans-Serif" font-size="10.00">INSMomentumKEpsilon</text>
</a>
</g>
</g>
<!-- Node49&#45;&gt;Node62 -->
<g id="edge33" class="edge">
<title>Node49&#45;&gt;Node62</title>
<path fill="none" stroke="midnightblue" d="M81.1,-370.66C94.37,-334.79 127.86,-258.02 183,-219 189.84,-214.16 197.72,-210.53 205.85,-207.82"/>
<polygon fill="midnightblue" stroke="midnightblue" points="77.69,-369.8 77.62,-380.4 84.28,-372.16 77.69,-369.8"/>
</g>
<!-- Node63 -->
<g id="node38" class="node">
<title>Node63</title>
<g id="a_node38"><a xlink:href="class_in_scatter.html" target="_top" xlink:title=" ">
<polygon fill="white" stroke="black" points="238.5,-266.5 238.5,-285.5 294.5,-285.5 294.5,-266.5 238.5,-266.5"/>
<text text-anchor="middle" x="266.5" y="-273.5" font-family="Helvetica,sans-Serif" font-size="10.00">InScatter</text>
</a>
</g>
</g>
<!-- Node49&#45;&gt;Node63 -->
<g id="edge34" class="edge">
<title>Node49&#45;&gt;Node63</title>
<path fill="none" stroke="midnightblue" d="M89.15,-372.75C108.43,-351.19 144.43,-314.73 183,-295 200.27,-286.17 221.67,-281.39 238.34,-278.84"/>
<polygon fill="midnightblue" stroke="midnightblue" points="86.34,-370.64 82.39,-380.47 91.61,-375.25 86.34,-370.64"/>
</g>
<!-- Node64 -->
<g id="node39" class="node">
<title>Node64</title>
<g id="a_node39"><a xlink:href="class_precursor_decay.html" target="_top" xlink:title=" ">
<polygon fill="white" stroke="black" points="223.5,-228.5 223.5,-247.5 309.5,-247.5 309.5,-228.5 223.5,-228.5"/>
<text text-anchor="middle" x="266.5" y="-235.5" font-family="Helvetica,sans-Serif" font-size="10.00">PrecursorDecay</text>
</a>
</g>
</g>
<!-- Node49&#45;&gt;Node64 -->
<g id="edge35" class="edge">
<title>Node49&#45;&gt;Node64</title>
<path fill="none" stroke="midnightblue" d="M84.3,-371.36C100.65,-342.16 136.37,-286 183,-257 194.98,-249.55 209.58,-245.01 223.14,-242.26"/>
<polygon fill="midnightblue" stroke="midnightblue" points="81.04,-370.02 79.33,-380.47 87.19,-373.36 81.04,-370.02"/>
</g>
<!-- Node65 -->
<g id="node40" class="node">
<title>Node65</title>
<g id="a_node40"><a xlink:href="class_precursor_source.html" target="_top" xlink:title=" ">
<polygon fill="white" stroke="black" points="222,-722.5 222,-741.5 311,-741.5 311,-722.5 222,-722.5"/>
<text text-anchor="middle" x="266.5" y="-729.5" font-family="Helvetica,sans-Serif" font-size="10.00">PrecursorSource</text>
</a>
</g>
</g>
<!-- Node49&#45;&gt;Node65 -->
<g id="edge36" class="edge">
<title>Node49&#45;&gt;Node65</title>
<path fill="none" stroke="midnightblue" d="M80.76,-409.47C102.98,-478.49 177.05,-707.6 183,-713 193.56,-722.58 207.96,-727.62 221.78,-730.2"/>
<polygon fill="midnightblue" stroke="midnightblue" points="84.05,-408.28 77.66,-399.83 77.39,-410.42 84.05,-408.28"/>
</g>
<!-- Node66 -->
<g id="node41" class="node">
<title>Node66</title>
<g id="a_node41"><a xlink:href="class_scalar_advection_art_diff.html" target="_top" xlink:title=" ">
<polygon fill="white" stroke="black" points="209,-684.5 209,-703.5 324,-703.5 324,-684.5 209,-684.5"/>
<text text-anchor="middle" x="266.5" y="-691.5" font-family="Helvetica,sans-Serif" font-size="10.00">ScalarAdvectionArtDiff</text>
</a>
</g>
</g>
<!-- Node49&#45;&gt;Node66 -->
<g id="edge37" class="edge">
<title>Node49&#45;&gt;Node66</title>
<path fill="none" stroke="midnightblue" d="M79.3,-409.22C94.11,-467.12 140.72,-638.16 183,-675 190.31,-681.37 199.34,-685.72 208.71,-688.67"/>
<polygon fill="midnightblue" stroke="midnightblue" points="82.68,-408.34 76.84,-399.5 75.9,-410.06 82.68,-408.34"/>
</g>
<!-- Node67 -->
<g id="node42" class="node">
<title>Node67</title>
<g id="a_node42"><a xlink:href="class_sigma_r.html" target="_top" xlink:title=" ">
<polygon fill="white" stroke="black" points="241,-646.5 241,-665.5 292,-665.5 292,-646.5 241,-646.5"/>
<text text-anchor="middle" x="266.5" y="-653.5" font-family="Helvetica,sans-Serif" font-size="10.00">SigmaR</text>
</a>
</g>
</g>
<!-- Node49&#45;&gt;Node67 -->
<g id="edge38" class="edge">
<title>Node49&#45;&gt;Node67</title>
<path fill="none" stroke="midnightblue" d="M77.13,-409.73C84.51,-456.84 109.85,-576.43 183,-637 199.19,-650.41 223.03,-654.76 240.93,-656"/>
<polygon fill="midnightblue" stroke="midnightblue" points="80.57,-409.02 75.66,-399.63 73.64,-410.03 80.57,-409.02"/>
</g>
<!-- Node68 -->
<g id="node43" class="node">
<title>Node68</title>
<g id="a_node43"><a xlink:href="class_transient_fission_heat_source.html" target="_top" xlink:title=" ">
<polygon fill="white" stroke="black" points="196.5,-608.5 196.5,-627.5 336.5,-627.5 336.5,-608.5 196.5,-608.5"/>
<text text-anchor="middle" x="266.5" y="-615.5" font-family="Helvetica,sans-Serif" font-size="10.00">TransientFissionHeatSource</text>
</a>
</g>
</g>
<!-- Node49&#45;&gt;Node68 -->
<g id="edge39" class="edge">
<title>Node49&#45;&gt;Node68</title>
<path fill="none" stroke="midnightblue" d="M78.79,-409.51C89.01,-451.23 118.92,-549.35 183,-599 188,-602.87 193.64,-605.98 199.58,-608.47"/>
<polygon fill="midnightblue" stroke="midnightblue" points="82.19,-408.69 76.51,-399.75 75.37,-410.29 82.19,-408.69"/>
</g>
<!-- Node73 -->
<g id="node44" class="node">
<title>Node73</title>
<g id="a_node44"><a xlink:title=" ">
<polygon fill="white" stroke="#bfbfbf" points="14,-1396.5 14,-1415.5 133,-1415.5 133,-1396.5 14,-1396.5"/>
<text text-anchor="middle" x="73.5" y="-1403.5" font-family="Helvetica,sans-Serif" font-size="10.00">MooseVariableInterface</text>
</a>
</g>
</g>
<!-- Node73&#45;&gt;Node24 -->
<g id="edge40" class="edge">
<title>Node73&#45;&gt;Node24</title>
<path fill="none" stroke="midnightblue" d="M143.22,-1409.6C156.04,-1410.27 169.56,-1410.98 182.75,-1411.67"/>
<polygon fill="midnightblue" stroke="midnightblue" points="143.27,-1406.1 133.1,-1409.07 142.91,-1413.09 143.27,-1406.1"/>
</g>
<!-- Node73&#45;&gt;Node25 -->
<g id="edge41" class="edge">
<title>Node73&#45;&gt;Node25</title>
<path fill="none" stroke="midnightblue" d="M143.06,-1395.95C161.84,-1393.2 182.12,-1390.22 200.68,-1387.5"/>
<polygon fill="midnightblue" stroke="midnightblue" points="142.49,-1392.5 133.1,-1397.41 143.51,-1399.42 142.49,-1392.5"/>
</g>
<!-- Node74 -->
<g id="node45" class="node">
<title>Node74</title>
<g id="a_node45"><a xlink:href="class_scalar_transport_base.html" target="_top" xlink:title=" ">
<polygon fill="white" stroke="black" points="19.5,-627.5 19.5,-646.5 127.5,-646.5 127.5,-627.5 19.5,-627.5"/>
<text text-anchor="middle" x="73.5" y="-634.5" font-family="Helvetica,sans-Serif" font-size="10.00">ScalarTransportBase</text>
</a>
</g>
</g>
<!-- Node74&#45;&gt;Node0 -->
<g id="edge42" class="edge">
<title>Node74&#45;&gt;Node0</title>
<path fill="none" stroke="midnightblue" d="M76.43,-656.56C82.39,-705.99 105.11,-836.74 183,-903 187.7,-907 193.08,-910.2 198.79,-912.75"/>
<polygon fill="midnightblue" stroke="midnightblue" points="79.9,-656.11 75.32,-646.55 72.94,-656.88 79.9,-656.11"/>
</g>
<!-- Node74&#45;&gt;Node17 -->
<g id="edge47" class="edge">
<title>Node74&#45;&gt;Node17</title>
<path fill="none" stroke="midnightblue" d="M79.05,-656.7C91.06,-709.01 124.24,-855.84 147,-979 156.32,-1029.44 148.02,-1169.49 183,-1207 186.81,-1211.08 191.31,-1214.38 196.2,-1217.02"/>
<polygon fill="midnightblue" stroke="midnightblue" points="82.42,-655.72 76.76,-646.76 75.6,-657.29 82.42,-655.72"/>
</g>
<!-- Node74&#45;&gt;Node21 -->
<g id="edge50" class="edge">
<title>Node74&#45;&gt;Node21</title>
<path fill="none" stroke="midnightblue" d="M79.21,-656.67C91.59,-708.92 125.6,-855.59 147,-979 157.19,-1037.77 142.8,-1200.93 183,-1245 186.47,-1248.8 190.53,-1251.92 194.96,-1254.47"/>
<polygon fill="midnightblue" stroke="midnightblue" points="82.56,-655.66 76.84,-646.74 75.75,-657.28 82.56,-655.66"/>
</g>
<!-- Node74&#45;&gt;Node24 -->
<g id="edge55" class="edge">
<title>Node74&#45;&gt;Node24</title>
<path fill="none" stroke="midnightblue" d="M79.55,-656.62C92.76,-708.73 128.6,-855.11 147,-979 160.69,-1071.22 121.86,-1326.61 183,-1397 186.28,-1400.77 190.14,-1403.88 194.37,-1406.43"/>
<polygon fill="midnightblue" stroke="midnightblue" points="82.88,-655.54 77.02,-646.71 76.1,-657.27 82.88,-655.54"/>
</g>
<!-- Node74&#45;&gt;Node25 -->
<g id="edge56" class="edge">
<title>Node74&#45;&gt;Node25</title>
<path fill="none" stroke="midnightblue" d="M79.49,-656.63C92.55,-708.76 128.08,-855.19 147,-979 159.82,-1062.85 127.1,-1295.2 183,-1359 186.29,-1362.76 190.17,-1365.85 194.41,-1368.4"/>
<polygon fill="midnightblue" stroke="midnightblue" points="82.83,-655.56 76.99,-646.72 76.04,-657.27 82.83,-655.56"/>
</g>
<!-- Node74&#45;&gt;Node40 -->
<g id="edge45" class="edge">
<title>Node74&#45;&gt;Node40</title>
<path fill="none" stroke="midnightblue" d="M82.53,-656.01C97.34,-688.63 132.14,-755.05 183,-789 188.75,-792.84 195.16,-795.9 201.81,-798.36"/>
<polygon fill="midnightblue" stroke="midnightblue" points="85.66,-654.43 78.43,-646.68 79.25,-657.25 85.66,-654.43"/>
</g>
<!-- Node74&#45;&gt;Node44 -->
<g id="edge57" class="edge">
<title>Node74&#45;&gt;Node44</title>
<path fill="none" stroke="midnightblue" d="M86.51,-655.15C104.39,-680.68 140.51,-726.77 183,-751 189.77,-754.86 197.27,-757.93 204.91,-760.38"/>
<polygon fill="midnightblue" stroke="midnightblue" points="89.3,-653.04 80.77,-646.76 83.52,-656.99 89.3,-653.04"/>
</g>
<!-- Node74&#45;&gt;Node47 -->
<g id="edge61" class="edge">
<title>Node74&#45;&gt;Node47</title>
<path fill="none" stroke="midnightblue" d="M77.92,-656.71C86.72,-701.24 114.45,-809.96 183,-865 187.81,-868.86 193.27,-871.97 199.02,-874.47"/>
<polygon fill="midnightblue" stroke="midnightblue" points="81.31,-655.81 76.04,-646.62 74.43,-657.1 81.31,-655.81"/>
</g>
<!-- Node74&#45;&gt;Node48 -->
<g id="edge66" class="edge">
<title>Node74&#45;&gt;Node48</title>
<path fill="none" stroke="midnightblue" d="M79.88,-656.58C91.65,-695.53 123.49,-782.77 183,-827 194.21,-835.33 208.46,-840.09 221.95,-842.79"/>
<polygon fill="midnightblue" stroke="midnightblue" points="83.18,-655.38 77.03,-646.75 76.46,-657.33 83.18,-655.38"/>
</g>
<!-- Node74&#45;&gt;Node51 -->
<g id="edge43" class="edge">
<title>Node74&#45;&gt;Node51</title>
<path fill="none" stroke="midnightblue" d="M108.77,-623.9C129.97,-616.08 157.84,-606.28 183,-599 194.86,-595.57 207.82,-592.34 219.88,-589.56"/>
<polygon fill="midnightblue" stroke="midnightblue" points="107.39,-620.68 99.24,-627.46 109.83,-627.24 107.39,-620.68"/>
</g>
<!-- Node74&#45;&gt;Node52 -->
<g id="edge44" class="edge">
<title>Node74&#45;&gt;Node52</title>
<path fill="none" stroke="midnightblue" d="M92.65,-620.94C113.18,-603.62 148.28,-576.45 183,-561 191.59,-557.18 201.05,-554.08 210.39,-551.58"/>
<polygon fill="midnightblue" stroke="midnightblue" points="90.34,-618.31 85.04,-627.48 94.9,-623.62 90.34,-618.31"/>
</g>
<!-- Node74&#45;&gt;Node53 -->
<g id="edge46" class="edge">
<title>Node74&#45;&gt;Node53</title>
<path fill="none" stroke="midnightblue" d="M86.51,-618.85C104.39,-593.32 140.51,-547.23 183,-523 193.85,-516.81 206.59,-512.64 218.77,-509.82"/>
<polygon fill="midnightblue" stroke="midnightblue" points="83.52,-617.01 80.77,-627.24 89.3,-620.96 83.52,-617.01"/>
</g>
<!-- Node74&#45;&gt;Node54 -->
<g id="edge48" class="edge">
<title>Node74&#45;&gt;Node54</title>
<path fill="none" stroke="midnightblue" d="M82.53,-617.99C97.34,-585.37 132.14,-518.95 183,-485 190.58,-479.94 199.33,-476.22 208.23,-473.48"/>
<polygon fill="midnightblue" stroke="midnightblue" points="79.25,-616.75 78.43,-627.32 85.66,-619.57 79.25,-616.75"/>
</g>
<!-- Node74&#45;&gt;Node55 -->
<g id="edge49" class="edge">
<title>Node74&#45;&gt;Node55</title>
<path fill="none" stroke="midnightblue" d="M79.88,-617.42C91.65,-578.47 123.49,-491.23 183,-447 188.19,-443.14 194.03,-440.05 200.15,-437.57"/>
<polygon fill="midnightblue" stroke="midnightblue" points="76.46,-616.67 77.03,-627.25 83.18,-618.62 76.46,-616.67"/>
</g>
<!-- Node74&#45;&gt;Node58 -->
<g id="edge51" class="edge">
<title>Node74&#45;&gt;Node58</title>
<path fill="none" stroke="midnightblue" d="M77.92,-617.29C86.72,-572.76 114.45,-464.04 183,-409 195.15,-399.25 211.38,-394.31 226.23,-391.88"/>
<polygon fill="midnightblue" stroke="midnightblue" points="74.43,-616.9 76.04,-627.38 81.31,-618.19 74.43,-616.9"/>
</g>
<!-- Node74&#45;&gt;Node59 -->
<g id="edge52" class="edge">
<title>Node74&#45;&gt;Node59</title>
<path fill="none" stroke="midnightblue" d="M76.43,-617.44C82.39,-568.01 105.11,-437.26 183,-371 191.4,-363.86 201.95,-359.27 212.69,-356.35"/>
<polygon fill="midnightblue" stroke="midnightblue" points="72.94,-617.12 75.32,-627.45 79.9,-617.89 72.94,-617.12"/>
</g>
<!-- Node74&#45;&gt;Node60 -->
<g id="edge53" class="edge">
<title>Node74&#45;&gt;Node60</title>
<path fill="none" stroke="midnightblue" d="M80.21,-617.7C99.23,-553.95 160.49,-353.03 183,-333 190.91,-325.97 200.89,-321.38 211.16,-318.43"/>
<polygon fill="midnightblue" stroke="midnightblue" points="76.84,-616.74 77.35,-627.32 83.55,-618.74 76.84,-616.74"/>
</g>
<!-- Node74&#45;&gt;Node63 -->
<g id="edge54" class="edge">
<title>Node74&#45;&gt;Node63</title>
<path fill="none" stroke="midnightblue" d="M80.6,-617.85C93.09,-578.66 122.46,-486.45 147,-409 163.05,-358.35 143.97,-331.05 183,-295 197.79,-281.34 220.38,-276.86 238.18,-275.64"/>
<polygon fill="midnightblue" stroke="midnightblue" points="77.25,-616.85 77.55,-627.45 83.92,-618.98 77.25,-616.85"/>
</g>
<!-- Node74&#45;&gt;Node64 -->
<g id="edge58" class="edge">
<title>Node74&#45;&gt;Node64</title>
<path fill="none" stroke="midnightblue" d="M81.27,-617.45C94.73,-578.2 125.41,-486.93 147,-409 165.53,-342.09 133.76,-305.94 183,-257 193.63,-246.43 208.89,-241.27 223.4,-238.88"/>
<polygon fill="midnightblue" stroke="midnightblue" points="77.9,-616.48 77.95,-627.08 84.52,-618.76 77.9,-616.48"/>
</g>
<!-- Node74&#45;&gt;Node65 -->
<g id="edge59" class="edge">
<title>Node74&#45;&gt;Node65</title>
<path fill="none" stroke="midnightblue" d="M92.65,-653.06C113.18,-670.38 148.28,-697.55 183,-713 195.09,-718.38 208.87,-722.32 221.67,-725.18"/>
<polygon fill="midnightblue" stroke="midnightblue" points="94.9,-650.38 85.04,-646.52 90.34,-655.69 94.9,-650.38"/>
</g>
<!-- Node74&#45;&gt;Node66 -->
<g id="edge60" class="edge">
<title>Node74&#45;&gt;Node66</title>
<path fill="none" stroke="midnightblue" d="M108.77,-650.1C129.97,-657.92 157.84,-667.72 183,-675 194.86,-678.43 207.82,-681.66 219.88,-684.44"/>
<polygon fill="midnightblue" stroke="midnightblue" points="109.83,-646.76 99.24,-646.54 107.39,-653.32 109.83,-646.76"/>
</g>
<!-- Node74&#45;&gt;Node67 -->
<g id="edge64" class="edge">
<title>Node74&#45;&gt;Node67</title>
<path fill="none" stroke="midnightblue" d="M137.94,-643.31C173.22,-646.82 215.1,-650.99 240.99,-653.56"/>
<polygon fill="midnightblue" stroke="midnightblue" points="138,-639.8 127.7,-642.29 137.31,-646.77 138,-639.8"/>
</g>
<!-- Node74&#45;&gt;Node68 -->
<g id="edge65" class="edge">
<title>Node74&#45;&gt;Node68</title>
<path fill="none" stroke="midnightblue" d="M137.67,-630.72C156.52,-628.84 177.28,-626.78 196.49,-624.86"/>
<polygon fill="midnightblue" stroke="midnightblue" points="137.31,-627.23 127.7,-631.71 138,-634.2 137.31,-627.23"/>
</g>
<!-- Node75 -->
<g id="node46" class="node">
<title>Node75</title>
<g id="a_node46"><a xlink:href="class_scalar_transport_time_derivative.html" target="_top" xlink:title=" ">
<polygon fill="white" stroke="black" points="191,-152.5 191,-171.5 342,-171.5 342,-152.5 191,-152.5"/>
<text text-anchor="middle" x="266.5" y="-159.5" font-family="Helvetica,sans-Serif" font-size="10.00">ScalarTransportTimeDerivative</text>
</a>
</g>
</g>
<!-- Node74&#45;&gt;Node75 -->
<g id="edge62" class="edge">
<title>Node74&#45;&gt;Node75</title>
<path fill="none" stroke="midnightblue" d="M81.78,-617.58C96.15,-578.57 128.39,-487.7 147,-409 158.81,-359.08 148.02,-218.51 183,-181 186.51,-177.24 190.6,-174.15 195.05,-171.62"/>
<polygon fill="midnightblue" stroke="midnightblue" points="78.42,-616.56 78.23,-627.15 84.99,-618.99 78.42,-616.56"/>
</g>
<!-- Node76 -->
<g id="node47" class="node">
<title>Node76</title>
<g id="a_node47"><a xlink:href="class_nt_time_derivative.html" target="_top" xlink:title=" ">
<polygon fill="white" stroke="black" points="426,-152.5 426,-171.5 518,-171.5 518,-152.5 426,-152.5"/>
<text text-anchor="middle" x="472" y="-159.5" font-family="Helvetica,sans-Serif" font-size="10.00">NtTimeDerivative</text>
</a>
</g>
</g>
<!-- Node75&#45;&gt;Node76 -->
<g id="edge63" class="edge">
<title>Node75&#45;&gt;Node76</title>
<path fill="none" stroke="midnightblue" d="M352.45,-162C377.69,-162 404.35,-162 425.98,-162"/>
<polygon fill="midnightblue" stroke="midnightblue" points="352.12,-158.5 342.12,-162 352.12,-165.5 352.12,-158.5"/>
</g>
<!-- Node79 -->
<g id="node48" class="node">
<title>Node79</title>
<g id="a_node48"><a xlink:title=" ">
<polygon fill="white" stroke="#bfbfbf" points="40.5,-152.5 40.5,-171.5 106.5,-171.5 106.5,-152.5 40.5,-152.5"/>
<text text-anchor="middle" x="73.5" y="-159.5" font-family="Helvetica,sans-Serif" font-size="10.00">TimeKernel</text>
</a>
</g>
</g>
<!-- Node79&#45;&gt;Node75 -->
<g id="edge67" class="edge">
<title>Node79&#45;&gt;Node75</title>
<path fill="none" stroke="midnightblue" d="M117.09,-162C138.79,-162 165.8,-162 190.82,-162"/>
<polygon fill="midnightblue" stroke="midnightblue" points="116.9,-158.5 106.9,-162 116.9,-165.5 116.9,-158.5"/>
</g>
</g>
</svg>
