<?xml version="1.0" encoding="UTF-8" standalone="no"?>
<!DOCTYPE svg PUBLIC "-//W3C//DTD SVG 1.1//EN"
 "http://www.w3.org/Graphics/SVG/1.1/DTD/svg11.dtd">
<!-- Generated by graphviz version 2.44.0 ()
 -->
<!-- Title: Graphical Class Hierarchy Pages: 1 -->
<svg width="591pt" height="146pt"
 viewBox="0.00 0.00 591.00 145.50" xmlns="http://www.w3.org/2000/svg" xmlns:xlink="http://www.w3.org/1999/xlink">
<g id="graph0" class="graph" transform="scale(1 1) rotate(0) translate(4 141.5)">
<title>Graphical Class Hierarchy</title>
<polygon fill="white" stroke="transparent" points="-4,4 -4,-141.5 587,-141.5 587,4 -4,4"/>
<!-- Node28 -->
<g id="node1" class="node">
<title>Node28</title>
<g id="a_node1"><a xlink:title=" ">
<polygon fill="white" stroke="#bfbfbf" points="0,-63.5 0,-82.5 124,-82.5 124,-63.5 0,-63.5"/>
<text text-anchor="middle" x="62" y="-70.5" font-family="Helvetica,sans-Serif" font-size="10.00">GenericConstantMaterial</text>
</a>
</g>
</g>
<!-- Node0 -->
<g id="node2" class="node">
<title>Node0</title>
<g id="a_node2"><a xlink:href="class_graphite_two_grp_x_s_function_material.html" target="_top" xlink:title=" ">
<polygon fill="white" stroke="black" points="162,-107 162,-137 301,-137 301,-107 162,-107"/>
<text text-anchor="start" x="170" y="-125" font-family="Helvetica,sans-Serif" font-size="10.00">GraphiteTwoGrpXSFunction</text>
<text text-anchor="middle" x="231.5" y="-114" font-family="Helvetica,sans-Serif" font-size="10.00">Material</text>
</a>
</g>
</g>
<!-- Node28&#45;&gt;Node0 -->
<g id="edge1" class="edge">
<title>Node28&#45;&gt;Node0</title>
<path fill="none" stroke="midnightblue" d="M105.57,-85.45C127.95,-92 155.54,-100.07 179.1,-106.96"/>
<polygon fill="midnightblue" stroke="midnightblue" points="106.27,-82.01 95.69,-82.56 104.31,-88.73 106.27,-82.01"/>
</g>
<!-- Node30 -->
<g id="node3" class="node">
<title>Node30</title>
<g id="a_node3"><a xlink:href="class_msre_fuel_two_grp_x_s_function_material.html" target="_top" xlink:title=" ">
<polygon fill="white" stroke="black" points="160,-58 160,-88 303,-88 303,-58 160,-58"/>
<text text-anchor="start" x="168" y="-76" font-family="Helvetica,sans-Serif" font-size="10.00">MsreFuelTwoGrpXSFunction</text>
<text text-anchor="middle" x="231.5" y="-65" font-family="Helvetica,sans-Serif" font-size="10.00">Material</text>
</a>
</g>
</g>
<!-- Node28&#45;&gt;Node30 -->
<g id="edge2" class="edge">
<title>Node28&#45;&gt;Node30</title>
<path fill="none" stroke="midnightblue" d="M134.51,-73C142.86,-73 151.39,-73 159.73,-73"/>
<polygon fill="midnightblue" stroke="midnightblue" points="134.42,-69.5 124.42,-73 134.42,-76.5 134.42,-69.5"/>
</g>
<!-- Node31 -->
<g id="node4" class="node">
<title>Node31</title>
<g id="a_node4"><a xlink:href="class_nuclear_material.html" target="_top" xlink:title=" ">
<polygon fill="white" stroke="black" points="189,-19.5 189,-38.5 274,-38.5 274,-19.5 189,-19.5"/>
<text text-anchor="middle" x="231.5" y="-26.5" font-family="Helvetica,sans-Serif" font-size="10.00">NuclearMaterial</text>
</a>
</g>
</g>
<!-- Node28&#45;&gt;Node31 -->
<g id="edge3" class="edge">
<title>Node28&#45;&gt;Node31</title>
<path fill="none" stroke="midnightblue" d="M109.27,-60.85C136.07,-53.8 169.33,-45.07 194.23,-38.53"/>
<polygon fill="midnightblue" stroke="midnightblue" points="108.13,-57.53 99.35,-63.45 109.91,-64.3 108.13,-57.53"/>
</g>
<!-- Node32 -->
<g id="node5" class="node">
<title>Node32</title>
<g id="a_node5"><a xlink:href="class_generic_moltres_material.html" target="_top" xlink:title=" ">
<polygon fill="white" stroke="black" points="339,-38.5 339,-57.5 456,-57.5 456,-38.5 339,-38.5"/>
<text text-anchor="middle" x="397.5" y="-45.5" font-family="Helvetica,sans-Serif" font-size="10.00">GenericMoltresMaterial</text>
</a>
</g>
</g>
<!-- Node31&#45;&gt;Node32 -->
<g id="edge4" class="edge">
<title>Node31&#45;&gt;Node32</title>
<path fill="none" stroke="midnightblue" d="M284.28,-35C301.67,-37.01 321.18,-39.27 338.99,-41.34"/>
<polygon fill="midnightblue" stroke="midnightblue" points="284.64,-31.52 274.31,-33.84 283.84,-38.47 284.64,-31.52"/>
</g>
<!-- Node36 -->
<g id="node9" class="node">
<title>Node36</title>
<g id="a_node9"><a xlink:href="class_moltres_json_material.html" target="_top" xlink:title=" ">
<polygon fill="white" stroke="black" points="345.5,-0.5 345.5,-19.5 449.5,-19.5 449.5,-0.5 345.5,-0.5"/>
<text text-anchor="middle" x="397.5" y="-7.5" font-family="Helvetica,sans-Serif" font-size="10.00">MoltresJsonMaterial</text>
</a>
</g>
</g>
<!-- Node31&#45;&gt;Node36 -->
<g id="edge8" class="edge">
<title>Node31&#45;&gt;Node36</title>
<path fill="none" stroke="midnightblue" d="M284.24,-23.01C303.76,-20.74 325.94,-18.18 345.39,-15.92"/>
<polygon fill="midnightblue" stroke="midnightblue" points="283.84,-19.53 274.31,-24.16 284.64,-26.48 283.84,-19.53"/>
</g>
<!-- Node33 -->
<g id="node6" class="node">
<title>Node33</title>
<g id="a_node6"><a xlink:href="class_cammi_fuel.html" target="_top" xlink:title=" ">
<polygon fill="white" stroke="black" points="504.5,-76.5 504.5,-95.5 570.5,-95.5 570.5,-76.5 504.5,-76.5"/>
<text text-anchor="middle" x="537.5" y="-83.5" font-family="Helvetica,sans-Serif" font-size="10.00">CammiFuel</text>
</a>
</g>
</g>
<!-- Node32&#45;&gt;Node33 -->
<g id="edge5" class="edge">
<title>Node32&#45;&gt;Node33</title>
<path fill="none" stroke="midnightblue" d="M443.08,-60.28C462.93,-65.74 485.88,-72.06 504.06,-77.07"/>
<polygon fill="midnightblue" stroke="midnightblue" points="443.89,-56.87 433.32,-57.59 442.04,-63.62 443.89,-56.87"/>
</g>
<!-- Node34 -->
<g id="node7" class="node">
<title>Node34</title>
<g id="a_node7"><a xlink:href="class_cammi_moderator.html" target="_top" xlink:title=" ">
<polygon fill="white" stroke="black" points="492,-38.5 492,-57.5 583,-57.5 583,-38.5 492,-38.5"/>
<text text-anchor="middle" x="537.5" y="-45.5" font-family="Helvetica,sans-Serif" font-size="10.00">CammiModerator</text>
</a>
</g>
</g>
<!-- Node32&#45;&gt;Node34 -->
<g id="edge6" class="edge">
<title>Node32&#45;&gt;Node34</title>
<path fill="none" stroke="midnightblue" d="M466.27,-48C474.87,-48 483.49,-48 491.6,-48"/>
<polygon fill="midnightblue" stroke="midnightblue" points="466.22,-44.5 456.22,-48 466.22,-51.5 466.22,-44.5"/>
</g>
<!-- Node35 -->
<g id="node8" class="node">
<title>Node35</title>
<g id="a_node8"><a xlink:href="class_rodded_material.html" target="_top" xlink:title=" ">
<polygon fill="white" stroke="black" points="495.5,-0.5 495.5,-19.5 579.5,-19.5 579.5,-0.5 495.5,-0.5"/>
<text text-anchor="middle" x="537.5" y="-7.5" font-family="Helvetica,sans-Serif" font-size="10.00">RoddedMaterial</text>
</a>
</g>
</g>
<!-- Node32&#45;&gt;Node35 -->
<g id="edge7" class="edge">
<title>Node32&#45;&gt;Node35</title>
<path fill="none" stroke="midnightblue" d="M442.97,-35.75C461.99,-30.52 483.88,-24.49 501.69,-19.59"/>
<polygon fill="midnightblue" stroke="midnightblue" points="442.04,-32.38 433.32,-38.41 443.89,-39.13 442.04,-32.38"/>
</g>
</g>
</svg>
