<?xml version="1.0" encoding="UTF-8" standalone="no"?>
<!DOCTYPE svg PUBLIC "-//W3C//DTD SVG 1.1//EN"
 "http://www.w3.org/Graphics/SVG/1.1/DTD/svg11.dtd">
<!-- Generated by graphviz version 2.50.0 (20220203.2022)
 -->
<!-- Title: Graphical Class Hierarchy Pages: 1 -->
<svg width="274pt" height="180pt"
 viewBox="0.00 0.00 274.00 180.00" xmlns="http://www.w3.org/2000/svg" xmlns:xlink="http://www.w3.org/1999/xlink">
<g id="graph0" class="graph" transform="scale(1 1) rotate(0) translate(4 176)">
<title>Graphical Class Hierarchy</title>
<polygon fill="white" stroke="transparent" points="-4,4 -4,-176 270,-176 270,4 -4,4"/>
<!-- Node0 -->
<g id="node1" class="node">
<title>Node0</title>
<g id="a_node1"><a xlink:title=" ">
<polygon fill="white" stroke="#bfbfbf" points="0,-76.5 0,-95.5 61,-95.5 61,-76.5 0,-76.5"/>
<text text-anchor="middle" x="30.5" y="-83.5" font-family="Helvetica,sans-Serif" font-size="10.00">AuxKernel</text>
</a>
</g>
</g>
<!-- Node1 -->
<g id="node2" class="node">
<title>Node1</title>
<g id="a_node2"><a xlink:href="class_constant_difference_aux.html" target="_top" xlink:title=" ">
<polygon fill="white" stroke="black" points="123.5,-152.5 123.5,-171.5 239.5,-171.5 239.5,-152.5 123.5,-152.5"/>
<text text-anchor="middle" x="181.5" y="-159.5" font-family="Helvetica,sans-Serif" font-size="10.00">ConstantDifferenceAux</text>
</a>
</g>
</g>
<!-- Node0&#45;&gt;Node1 -->
<g id="edge1" class="edge">
<title>Node0&#45;&gt;Node1</title>
<path fill="none" stroke="midnightblue" d="M46.58,-103.07C58.9,-115.95 77.41,-133.05 97,-143 105.22,-147.17 114.35,-150.44 123.48,-152.99"/>
<polygon fill="midnightblue" stroke="midnightblue" points="49.12,-100.67 39.76,-95.7 43.98,-105.42 49.12,-100.67"/>
</g>
<!-- Node2 -->
<g id="node3" class="node">
<title>Node2</title>
<g id="a_node3"><a xlink:href="class_fission_heat_source_aux.html" target="_top" xlink:title=" ">
<polygon fill="white" stroke="black" points="123.5,-114.5 123.5,-133.5 239.5,-133.5 239.5,-114.5 123.5,-114.5"/>
<text text-anchor="middle" x="181.5" y="-121.5" font-family="Helvetica,sans-Serif" font-size="10.00">FissionHeatSourceAux</text>
</a>
</g>
</g>
<!-- Node0&#45;&gt;Node2 -->
<g id="edge2" class="edge">
<title>Node0&#45;&gt;Node2</title>
<path fill="none" stroke="midnightblue" d="M70.87,-97.83C79.46,-100.29 88.51,-102.81 97,-105 109.67,-108.28 123.49,-111.54 136.18,-114.42"/>
<polygon fill="midnightblue" stroke="midnightblue" points="71.65,-94.41 61.07,-94.98 69.7,-101.13 71.65,-94.41"/>
</g>
<!-- Node3 -->
<g id="node4" class="node">
<title>Node3</title>
<g id="a_node4"><a xlink:href="class_fission_heat_source_transient_aux.html" target="_top" xlink:title=" ">
<polygon fill="white" stroke="black" points="103,-76.5 103,-95.5 260,-95.5 260,-76.5 103,-76.5"/>
<text text-anchor="middle" x="181.5" y="-83.5" font-family="Helvetica,sans-Serif" font-size="10.00">FissionHeatSourceTransientAux</text>
</a>
</g>
</g>
<!-- Node0&#45;&gt;Node3 -->
<g id="edge3" class="edge">
<title>Node0&#45;&gt;Node3</title>
<path fill="none" stroke="midnightblue" d="M71.46,-86C81.24,-86 92.04,-86 102.92,-86"/>
<polygon fill="midnightblue" stroke="midnightblue" points="71.29,-82.5 61.29,-86 71.29,-89.5 71.29,-82.5"/>
</g>
<!-- Node4 -->
<g id="node5" class="node">
<title>Node4</title>
<g id="a_node5"><a xlink:href="class_mat_diffusion_aux.html" target="_top" xlink:title=" ">
<polygon fill="white" stroke="black" points="138,-38.5 138,-57.5 225,-57.5 225,-38.5 138,-38.5"/>
<text text-anchor="middle" x="181.5" y="-45.5" font-family="Helvetica,sans-Serif" font-size="10.00">MatDiffusionAux</text>
</a>
</g>
</g>
<!-- Node0&#45;&gt;Node4 -->
<g id="edge4" class="edge">
<title>Node0&#45;&gt;Node4</title>
<path fill="none" stroke="midnightblue" d="M70.87,-74.17C79.46,-71.71 88.51,-69.19 97,-67 110.24,-63.58 124.75,-60.16 137.9,-57.19"/>
<polygon fill="midnightblue" stroke="midnightblue" points="69.7,-70.87 61.07,-77.02 71.65,-77.59 69.7,-70.87"/>
</g>
<!-- Node5 -->
<g id="node6" class="node">
<title>Node5</title>
<g id="a_node6"><a xlink:href="class_moderator_heat_source_transient_aux.html" target="_top" xlink:title=" ">
<polygon fill="white" stroke="black" points="97,-0.5 97,-19.5 266,-19.5 266,-0.5 97,-0.5"/>
<text text-anchor="middle" x="181.5" y="-7.5" font-family="Helvetica,sans-Serif" font-size="10.00">ModeratorHeatSourceTransientAux</text>
</a>
</g>
</g>
<!-- Node0&#45;&gt;Node5 -->
<g id="edge5" class="edge">
<title>Node0&#45;&gt;Node5</title>
<path fill="none" stroke="midnightblue" d="M46.58,-68.93C58.9,-56.05 77.41,-38.95 97,-29 104.69,-25.1 113.18,-21.98 121.71,-19.51"/>
<polygon fill="midnightblue" stroke="midnightblue" points="43.98,-66.58 39.76,-76.3 49.12,-71.33 43.98,-66.58"/>
</g>
</g>
</svg>
