<?xml version="1.0" encoding="utf-8" standalone="no"?>
<!DOCTYPE svg PUBLIC "-//W3C//DTD SVG 1.1//EN"
  "http://www.w3.org/Graphics/SVG/1.1/DTD/svg11.dtd">
<!-- Created with matplotlib (https://matplotlib.org/) -->
<svg height="345.6pt" version="1.1" viewBox="0 0 460.8 345.6" width="460.8pt" xmlns="http://www.w3.org/2000/svg" xmlns:xlink="http://www.w3.org/1999/xlink">
 <defs>
  <style type="text/css">
*{stroke-linecap:butt;stroke-linejoin:round;}
  </style>
 </defs>
 <g id="figure_1">
  <g id="patch_1">
   <path d="M 0 345.6 
L 460.8 345.6 
L 460.8 0 
L 0 0 
z
" style="fill:#ffffff;"/>
  </g>
  <g id="axes_1">
   <g id="patch_2">
    <path d="M 57.6 307.584 
L 414.72 307.584 
L 414.72 41.472 
L 57.6 41.472 
z
" style="fill:#ffffff;"/>
   </g>
   <g id="PolyCollection_1">
    <defs>
     <path d="M 73.832727 -50.112 
L 73.832727 -57.949147 
L 77.112066 -60.126505 
L 80.391405 -62.312114 
L 83.670744 -64.505919 
L 86.950083 -66.707858 
L 90.229421 -68.91787 
L 93.50876 -71.13589 
L 96.788099 -73.36185 
L 100.067438 -75.595677 
L 103.346777 -77.837293 
L 106.626116 -80.086615 
L 109.905455 -82.343552 
L 113.184793 -84.608005 
L 116.464132 -86.879869 
L 119.743471 -89.159028 
L 123.02281 -91.445356 
L 126.302149 -93.738718 
L 129.581488 -96.038967 
L 132.860826 -98.345945 
L 136.140165 -100.659483 
L 139.419504 -102.979402 
L 142.698843 -105.30551 
L 145.978182 -107.637606 
L 149.257521 -109.97548 
L 152.53686 -112.318914 
L 155.816198 -114.66768 
L 159.095537 -117.021546 
L 162.374876 -119.380273 
L 165.654215 -121.74362 
L 168.933554 -124.111344 
L 172.212893 -126.483199 
L 175.492231 -128.85894 
L 178.77157 -131.238325 
L 182.050909 -133.621112 
L 185.330248 -136.007065 
L 188.609587 -138.395951 
L 191.888926 -140.787542 
L 195.168264 -143.181618 
L 198.447603 -145.577962 
L 201.726942 -147.976368 
L 205.006281 -150.376632 
L 208.28562 -152.778563 
L 211.564959 -155.181972 
L 214.844298 -157.586681 
L 218.123636 -159.992519 
L 221.402975 -162.399321 
L 224.682314 -164.806931 
L 227.961653 -167.2152 
L 231.240992 -169.623987 
L 234.520331 -172.033155 
L 237.799669 -174.442579 
L 241.079008 -176.852137 
L 244.358347 -179.261717 
L 247.637686 -181.671211 
L 250.917025 -184.080519 
L 254.196364 -186.48955 
L 257.475702 -188.898217 
L 260.755041 -191.306441 
L 264.03438 -193.71415 
L 267.313719 -196.121279 
L 270.593058 -198.527769 
L 273.872397 -200.93357 
L 277.151736 -203.338638 
L 280.431074 -205.742937 
L 283.710413 -208.146439 
L 286.989752 -210.549122 
L 290.269091 -212.950975 
L 293.54843 -215.351992 
L 296.827769 -217.752177 
L 300.107107 -220.151542 
L 303.386446 -222.550106 
L 306.665785 -224.947898 
L 309.945124 -227.344954 
L 313.224463 -229.74132 
L 316.503802 -232.137047 
L 319.78314 -234.532196 
L 323.062479 -236.926832 
L 326.341818 -239.32103 
L 329.621157 -241.714868 
L 332.900496 -244.108427 
L 336.179835 -246.501796 
L 339.459174 -248.895061 
L 342.738512 -251.288313 
L 346.017851 -253.681639 
L 349.29719 -256.075125 
L 352.576529 -258.468854 
L 355.855868 -260.862901 
L 359.135207 -263.257336 
L 362.414545 -265.652221 
L 365.693884 -268.047606 
L 368.973223 -270.443533 
L 372.252562 -272.84003 
L 375.531901 -275.237114 
L 378.81124 -277.63479 
L 382.090579 -280.033049 
L 385.369917 -282.431873 
L 388.649256 -284.831228 
L 391.928595 -287.231071 
L 395.207934 -289.63135 
L 398.487273 -292.032 
L 398.487273 -286.251996 
L 398.487273 -286.251996 
L 395.207934 -283.988876 
L 391.928595 -281.718251 
L 388.649256 -279.440219 
L 385.369917 -277.154887 
L 382.090579 -274.862374 
L 378.81124 -272.56281 
L 375.531901 -270.256337 
L 372.252562 -267.94311 
L 368.973223 -265.623297 
L 365.693884 -263.297079 
L 362.414545 -260.964647 
L 359.135207 -258.626208 
L 355.855868 -256.281977 
L 352.576529 -253.932179 
L 349.29719 -251.57705 
L 346.017851 -249.216832 
L 342.738512 -246.851772 
L 339.459174 -244.482122 
L 336.179835 -242.108137 
L 332.900496 -239.730072 
L 329.621157 -237.348183 
L 326.341818 -234.962723 
L 323.062479 -232.573942 
L 319.78314 -230.182086 
L 316.503802 -227.787396 
L 313.224463 -225.390106 
L 309.945124 -222.990445 
L 306.665785 -220.588633 
L 303.386446 -218.184883 
L 300.107107 -215.779401 
L 296.827769 -213.372383 
L 293.54843 -210.964019 
L 290.269091 -208.55449 
L 286.989752 -206.143968 
L 283.710413 -203.732617 
L 280.431074 -201.320595 
L 277.151736 -198.90805 
L 273.872397 -196.495123 
L 270.593058 -194.081948 
L 267.313719 -191.668651 
L 264.03438 -189.255351 
L 260.755041 -186.84216 
L 257.475702 -184.429182 
L 254.196364 -182.016515 
L 250.917025 -179.60425 
L 247.637686 -177.192472 
L 244.358347 -174.781256 
L 241.079008 -172.370673 
L 237.799669 -169.960787 
L 234.520331 -167.551653 
L 231.240992 -165.143322 
L 227.961653 -162.735835 
L 224.682314 -160.329228 
L 221.402975 -157.923528 
L 218.123636 -155.518756 
L 214.844298 -153.114924 
L 211.564959 -150.712039 
L 208.28562 -148.310097 
L 205.006281 -145.909088 
L 201.726942 -143.508996 
L 198.447603 -141.109794 
L 195.168264 -138.711451 
L 191.888926 -136.313926 
L 188.609587 -133.917172 
L 185.330248 -131.521137 
L 182.050909 -129.12576 
L 178.77157 -126.730977 
L 175.492231 -124.336719 
L 172.212893 -121.942911 
L 168.933554 -119.549478 
L 165.654215 -117.156341 
L 162.374876 -114.763423 
L 159.095537 -112.370646 
L 155.816198 -109.977933 
L 152.53686 -107.585213 
L 149.257521 -105.192419 
L 145.978182 -102.799488 
L 142.698843 -100.406367 
L 139.419504 -98.01301 
L 136.140165 -95.61938 
L 132.860826 -93.22545 
L 129.581488 -90.831203 
L 126.302149 -88.436634 
L 123.02281 -86.041747 
L 119.743471 -83.646559 
L 116.464132 -81.251095 
L 113.184793 -78.855392 
L 109.905455 -76.459495 
L 106.626116 -74.063458 
L 103.346777 -71.667344 
L 100.067438 -69.271222 
L 96.788099 -66.875168 
L 93.50876 -64.479263 
L 90.229421 -62.083593 
L 86.950083 -59.688248 
L 83.670744 -57.29332 
L 80.391405 -54.898904 
L 77.112066 -52.505098 
L 73.832727 -50.112 
z
" id="mc27f1a7ea5" style="stroke:#808080;stroke-opacity:0.5;stroke-width:0.1;"/>
    </defs>
    <g clip-path="url(#pfcd48f287b)">
     <use style="fill:#808080;fill-opacity:0.5;stroke:#808080;stroke-opacity:0.5;stroke-width:0.1;" x="0" xlink:href="#mc27f1a7ea5" y="345.6"/>
    </g>
   </g>
   <g id="matplotlib.axis_1">
    <g id="xtick_1">
     <g id="line2d_1">
      <defs>
       <path d="M 0 0 
L 0 3.5 
" id="m569485a2c1" style="stroke:#000000;stroke-width:0.8;"/>
      </defs>
      <g>
       <use style="stroke:#000000;stroke-width:0.8;" x="73.832727" xlink:href="#m569485a2c1" y="307.584"/>
      </g>
     </g>
     <g id="text_1">
      <!-- 9000 -->
      <defs>
       <path d="M 10.984375 1.515625 
L 10.984375 10.5 
Q 14.703125 8.734375 18.5 7.8125 
Q 22.3125 6.890625 25.984375 6.890625 
Q 35.75 6.890625 40.890625 13.453125 
Q 46.046875 20.015625 46.78125 33.40625 
Q 43.953125 29.203125 39.59375 26.953125 
Q 35.25 24.703125 29.984375 24.703125 
Q 19.046875 24.703125 12.671875 31.3125 
Q 6.296875 37.9375 6.296875 49.421875 
Q 6.296875 60.640625 12.9375 67.421875 
Q 19.578125 74.21875 30.609375 74.21875 
Q 43.265625 74.21875 49.921875 64.515625 
Q 56.59375 54.828125 56.59375 36.375 
Q 56.59375 19.140625 48.40625 8.859375 
Q 40.234375 -1.421875 26.421875 -1.421875 
Q 22.703125 -1.421875 18.890625 -0.6875 
Q 15.09375 0.046875 10.984375 1.515625 
z
M 30.609375 32.421875 
Q 37.25 32.421875 41.125 36.953125 
Q 45.015625 41.5 45.015625 49.421875 
Q 45.015625 57.28125 41.125 61.84375 
Q 37.25 66.40625 30.609375 66.40625 
Q 23.96875 66.40625 20.09375 61.84375 
Q 16.21875 57.28125 16.21875 49.421875 
Q 16.21875 41.5 20.09375 36.953125 
Q 23.96875 32.421875 30.609375 32.421875 
z
" id="DejaVuSans-57"/>
       <path d="M 31.78125 66.40625 
Q 24.171875 66.40625 20.328125 58.90625 
Q 16.5 51.421875 16.5 36.375 
Q 16.5 21.390625 20.328125 13.890625 
Q 24.171875 6.390625 31.78125 6.390625 
Q 39.453125 6.390625 43.28125 13.890625 
Q 47.125 21.390625 47.125 36.375 
Q 47.125 51.421875 43.28125 58.90625 
Q 39.453125 66.40625 31.78125 66.40625 
z
M 31.78125 74.21875 
Q 44.046875 74.21875 50.515625 64.515625 
Q 56.984375 54.828125 56.984375 36.375 
Q 56.984375 17.96875 50.515625 8.265625 
Q 44.046875 -1.421875 31.78125 -1.421875 
Q 19.53125 -1.421875 13.0625 8.265625 
Q 6.59375 17.96875 6.59375 36.375 
Q 6.59375 54.828125 13.0625 64.515625 
Q 19.53125 74.21875 31.78125 74.21875 
z
" id="DejaVuSans-48"/>
      </defs>
      <g transform="translate(61.107727 322.182437)scale(0.1 -0.1)">
       <use xlink:href="#DejaVuSans-57"/>
       <use x="63.623047" xlink:href="#DejaVuSans-48"/>
       <use x="127.246094" xlink:href="#DejaVuSans-48"/>
       <use x="190.869141" xlink:href="#DejaVuSans-48"/>
      </g>
     </g>
    </g>
    <g id="xtick_2">
     <g id="line2d_2">
      <g>
       <use style="stroke:#000000;stroke-width:0.8;" x="114.824463" xlink:href="#m569485a2c1" y="307.584"/>
      </g>
     </g>
     <g id="text_2">
      <!-- 9250 -->
      <defs>
       <path d="M 19.1875 8.296875 
L 53.609375 8.296875 
L 53.609375 0 
L 7.328125 0 
L 7.328125 8.296875 
Q 12.9375 14.109375 22.625 23.890625 
Q 32.328125 33.6875 34.8125 36.53125 
Q 39.546875 41.84375 41.421875 45.53125 
Q 43.3125 49.21875 43.3125 52.78125 
Q 43.3125 58.59375 39.234375 62.25 
Q 35.15625 65.921875 28.609375 65.921875 
Q 23.96875 65.921875 18.8125 64.3125 
Q 13.671875 62.703125 7.8125 59.421875 
L 7.8125 69.390625 
Q 13.765625 71.78125 18.9375 73 
Q 24.125 74.21875 28.421875 74.21875 
Q 39.75 74.21875 46.484375 68.546875 
Q 53.21875 62.890625 53.21875 53.421875 
Q 53.21875 48.921875 51.53125 44.890625 
Q 49.859375 40.875 45.40625 35.40625 
Q 44.1875 33.984375 37.640625 27.21875 
Q 31.109375 20.453125 19.1875 8.296875 
z
" id="DejaVuSans-50"/>
       <path d="M 10.796875 72.90625 
L 49.515625 72.90625 
L 49.515625 64.59375 
L 19.828125 64.59375 
L 19.828125 46.734375 
Q 21.96875 47.46875 24.109375 47.828125 
Q 26.265625 48.1875 28.421875 48.1875 
Q 40.625 48.1875 47.75 41.5 
Q 54.890625 34.8125 54.890625 23.390625 
Q 54.890625 11.625 47.5625 5.09375 
Q 40.234375 -1.421875 26.90625 -1.421875 
Q 22.3125 -1.421875 17.546875 -0.640625 
Q 12.796875 0.140625 7.71875 1.703125 
L 7.71875 11.625 
Q 12.109375 9.234375 16.796875 8.0625 
Q 21.484375 6.890625 26.703125 6.890625 
Q 35.15625 6.890625 40.078125 11.328125 
Q 45.015625 15.765625 45.015625 23.390625 
Q 45.015625 31 40.078125 35.4375 
Q 35.15625 39.890625 26.703125 39.890625 
Q 22.75 39.890625 18.8125 39.015625 
Q 14.890625 38.140625 10.796875 36.28125 
z
" id="DejaVuSans-53"/>
      </defs>
      <g transform="translate(102.099463 322.182437)scale(0.1 -0.1)">
       <use xlink:href="#DejaVuSans-57"/>
       <use x="63.623047" xlink:href="#DejaVuSans-50"/>
       <use x="127.246094" xlink:href="#DejaVuSans-53"/>
       <use x="190.869141" xlink:href="#DejaVuSans-48"/>
      </g>
     </g>
    </g>
    <g id="xtick_3">
     <g id="line2d_3">
      <g>
       <use style="stroke:#000000;stroke-width:0.8;" x="155.816198" xlink:href="#m569485a2c1" y="307.584"/>
      </g>
     </g>
     <g id="text_3">
      <!-- 9500 -->
      <g transform="translate(143.091198 322.182437)scale(0.1 -0.1)">
       <use xlink:href="#DejaVuSans-57"/>
       <use x="63.623047" xlink:href="#DejaVuSans-53"/>
       <use x="127.246094" xlink:href="#DejaVuSans-48"/>
       <use x="190.869141" xlink:href="#DejaVuSans-48"/>
      </g>
     </g>
    </g>
    <g id="xtick_4">
     <g id="line2d_4">
      <g>
       <use style="stroke:#000000;stroke-width:0.8;" x="196.807934" xlink:href="#m569485a2c1" y="307.584"/>
      </g>
     </g>
     <g id="text_4">
      <!-- 9750 -->
      <defs>
       <path d="M 8.203125 72.90625 
L 55.078125 72.90625 
L 55.078125 68.703125 
L 28.609375 0 
L 18.3125 0 
L 43.21875 64.59375 
L 8.203125 64.59375 
z
" id="DejaVuSans-55"/>
      </defs>
      <g transform="translate(184.082934 322.182437)scale(0.1 -0.1)">
       <use xlink:href="#DejaVuSans-57"/>
       <use x="63.623047" xlink:href="#DejaVuSans-55"/>
       <use x="127.246094" xlink:href="#DejaVuSans-53"/>
       <use x="190.869141" xlink:href="#DejaVuSans-48"/>
      </g>
     </g>
    </g>
    <g id="xtick_5">
     <g id="line2d_5">
      <g>
       <use style="stroke:#000000;stroke-width:0.8;" x="237.799669" xlink:href="#m569485a2c1" y="307.584"/>
      </g>
     </g>
     <g id="text_5">
      <!-- 10000 -->
      <defs>
       <path d="M 12.40625 8.296875 
L 28.515625 8.296875 
L 28.515625 63.921875 
L 10.984375 60.40625 
L 10.984375 69.390625 
L 28.421875 72.90625 
L 38.28125 72.90625 
L 38.28125 8.296875 
L 54.390625 8.296875 
L 54.390625 0 
L 12.40625 0 
z
" id="DejaVuSans-49"/>
      </defs>
      <g transform="translate(221.893419 322.182437)scale(0.1 -0.1)">
       <use xlink:href="#DejaVuSans-49"/>
       <use x="63.623047" xlink:href="#DejaVuSans-48"/>
       <use x="127.246094" xlink:href="#DejaVuSans-48"/>
       <use x="190.869141" xlink:href="#DejaVuSans-48"/>
       <use x="254.492188" xlink:href="#DejaVuSans-48"/>
      </g>
     </g>
    </g>
    <g id="xtick_6">
     <g id="line2d_6">
      <g>
       <use style="stroke:#000000;stroke-width:0.8;" x="278.791405" xlink:href="#m569485a2c1" y="307.584"/>
      </g>
     </g>
     <g id="text_6">
      <!-- 10250 -->
      <g transform="translate(262.885155 322.182437)scale(0.1 -0.1)">
       <use xlink:href="#DejaVuSans-49"/>
       <use x="63.623047" xlink:href="#DejaVuSans-48"/>
       <use x="127.246094" xlink:href="#DejaVuSans-50"/>
       <use x="190.869141" xlink:href="#DejaVuSans-53"/>
       <use x="254.492188" xlink:href="#DejaVuSans-48"/>
      </g>
     </g>
    </g>
    <g id="xtick_7">
     <g id="line2d_7">
      <g>
       <use style="stroke:#000000;stroke-width:0.8;" x="319.78314" xlink:href="#m569485a2c1" y="307.584"/>
      </g>
     </g>
     <g id="text_7">
      <!-- 10500 -->
      <g transform="translate(303.87689 322.182437)scale(0.1 -0.1)">
       <use xlink:href="#DejaVuSans-49"/>
       <use x="63.623047" xlink:href="#DejaVuSans-48"/>
       <use x="127.246094" xlink:href="#DejaVuSans-53"/>
       <use x="190.869141" xlink:href="#DejaVuSans-48"/>
       <use x="254.492188" xlink:href="#DejaVuSans-48"/>
      </g>
     </g>
    </g>
    <g id="xtick_8">
     <g id="line2d_8">
      <g>
       <use style="stroke:#000000;stroke-width:0.8;" x="360.774876" xlink:href="#m569485a2c1" y="307.584"/>
      </g>
     </g>
     <g id="text_8">
      <!-- 10750 -->
      <g transform="translate(344.868626 322.182437)scale(0.1 -0.1)">
       <use xlink:href="#DejaVuSans-49"/>
       <use x="63.623047" xlink:href="#DejaVuSans-48"/>
       <use x="127.246094" xlink:href="#DejaVuSans-55"/>
       <use x="190.869141" xlink:href="#DejaVuSans-53"/>
       <use x="254.492188" xlink:href="#DejaVuSans-48"/>
      </g>
     </g>
    </g>
    <g id="xtick_9">
     <g id="line2d_9">
      <g>
       <use style="stroke:#000000;stroke-width:0.8;" x="401.766612" xlink:href="#m569485a2c1" y="307.584"/>
      </g>
     </g>
     <g id="text_9">
      <!-- 11000 -->
      <g transform="translate(385.860362 322.182437)scale(0.1 -0.1)">
       <use xlink:href="#DejaVuSans-49"/>
       <use x="63.623047" xlink:href="#DejaVuSans-49"/>
       <use x="127.246094" xlink:href="#DejaVuSans-48"/>
       <use x="190.869141" xlink:href="#DejaVuSans-48"/>
       <use x="254.492188" xlink:href="#DejaVuSans-48"/>
      </g>
     </g>
    </g>
    <g id="text_10">
     <!-- q -->
     <defs>
      <path d="M 14.796875 27.296875 
Q 14.796875 17.390625 18.875 11.75 
Q 22.953125 6.109375 30.078125 6.109375 
Q 37.203125 6.109375 41.296875 11.75 
Q 45.40625 17.390625 45.40625 27.296875 
Q 45.40625 37.203125 41.296875 42.84375 
Q 37.203125 48.484375 30.078125 48.484375 
Q 22.953125 48.484375 18.875 42.84375 
Q 14.796875 37.203125 14.796875 27.296875 
z
M 45.40625 8.203125 
Q 42.578125 3.328125 38.25 0.953125 
Q 33.9375 -1.421875 27.875 -1.421875 
Q 17.96875 -1.421875 11.734375 6.484375 
Q 5.515625 14.40625 5.515625 27.296875 
Q 5.515625 40.1875 11.734375 48.09375 
Q 17.96875 56 27.875 56 
Q 33.9375 56 38.25 53.625 
Q 42.578125 51.265625 45.40625 46.390625 
L 45.40625 54.6875 
L 54.390625 54.6875 
L 54.390625 -20.796875 
L 45.40625 -20.796875 
z
" id="DejaVuSans-113"/>
     </defs>
     <g transform="translate(232.985781 335.860562)scale(0.1 -0.1)">
      <use xlink:href="#DejaVuSans-113"/>
     </g>
    </g>
   </g>
   <g id="matplotlib.axis_2">
    <g id="ytick_1">
     <g id="line2d_10">
      <defs>
       <path d="M 0 0 
L -3.5 0 
" id="mb153280f98" style="stroke:#000000;stroke-width:0.8;"/>
      </defs>
      <g>
       <use style="stroke:#000000;stroke-width:0.8;" x="57.6" xlink:href="#mb153280f98" y="291.631056"/>
      </g>
     </g>
     <g id="text_11">
      <!-- 300.54 -->
      <defs>
       <path d="M 40.578125 39.3125 
Q 47.65625 37.796875 51.625 33 
Q 55.609375 28.21875 55.609375 21.1875 
Q 55.609375 10.40625 48.1875 4.484375 
Q 40.765625 -1.421875 27.09375 -1.421875 
Q 22.515625 -1.421875 17.65625 -0.515625 
Q 12.796875 0.390625 7.625 2.203125 
L 7.625 11.71875 
Q 11.71875 9.328125 16.59375 8.109375 
Q 21.484375 6.890625 26.8125 6.890625 
Q 36.078125 6.890625 40.9375 10.546875 
Q 45.796875 14.203125 45.796875 21.1875 
Q 45.796875 27.640625 41.28125 31.265625 
Q 36.765625 34.90625 28.71875 34.90625 
L 20.21875 34.90625 
L 20.21875 43.015625 
L 29.109375 43.015625 
Q 36.375 43.015625 40.234375 45.921875 
Q 44.09375 48.828125 44.09375 54.296875 
Q 44.09375 59.90625 40.109375 62.90625 
Q 36.140625 65.921875 28.71875 65.921875 
Q 24.65625 65.921875 20.015625 65.03125 
Q 15.375 64.15625 9.8125 62.3125 
L 9.8125 71.09375 
Q 15.4375 72.65625 20.34375 73.4375 
Q 25.25 74.21875 29.59375 74.21875 
Q 40.828125 74.21875 47.359375 69.109375 
Q 53.90625 64.015625 53.90625 55.328125 
Q 53.90625 49.265625 50.4375 45.09375 
Q 46.96875 40.921875 40.578125 39.3125 
z
" id="DejaVuSans-51"/>
       <path d="M 10.6875 12.40625 
L 21 12.40625 
L 21 0 
L 10.6875 0 
z
" id="DejaVuSans-46"/>
       <path d="M 37.796875 64.3125 
L 12.890625 25.390625 
L 37.796875 25.390625 
z
M 35.203125 72.90625 
L 47.609375 72.90625 
L 47.609375 25.390625 
L 58.015625 25.390625 
L 58.015625 17.1875 
L 47.609375 17.1875 
L 47.609375 0 
L 37.796875 0 
L 37.796875 17.1875 
L 4.890625 17.1875 
L 4.890625 26.703125 
z
" id="DejaVuSans-52"/>
      </defs>
      <g transform="translate(15.609375 295.430275)scale(0.1 -0.1)">
       <use xlink:href="#DejaVuSans-51"/>
       <use x="63.623047" xlink:href="#DejaVuSans-48"/>
       <use x="127.246094" xlink:href="#DejaVuSans-48"/>
       <use x="190.869141" xlink:href="#DejaVuSans-46"/>
       <use x="222.65625" xlink:href="#DejaVuSans-53"/>
       <use x="286.279297" xlink:href="#DejaVuSans-52"/>
      </g>
     </g>
    </g>
    <g id="ytick_2">
     <g id="line2d_11">
      <g>
       <use style="stroke:#000000;stroke-width:0.8;" x="57.6" xlink:href="#mb153280f98" y="251.681146"/>
      </g>
     </g>
     <g id="text_12">
      <!-- 300.56 -->
      <defs>
       <path d="M 33.015625 40.375 
Q 26.375 40.375 22.484375 35.828125 
Q 18.609375 31.296875 18.609375 23.390625 
Q 18.609375 15.53125 22.484375 10.953125 
Q 26.375 6.390625 33.015625 6.390625 
Q 39.65625 6.390625 43.53125 10.953125 
Q 47.40625 15.53125 47.40625 23.390625 
Q 47.40625 31.296875 43.53125 35.828125 
Q 39.65625 40.375 33.015625 40.375 
z
M 52.59375 71.296875 
L 52.59375 62.3125 
Q 48.875 64.0625 45.09375 64.984375 
Q 41.3125 65.921875 37.59375 65.921875 
Q 27.828125 65.921875 22.671875 59.328125 
Q 17.53125 52.734375 16.796875 39.40625 
Q 19.671875 43.65625 24.015625 45.921875 
Q 28.375 48.1875 33.59375 48.1875 
Q 44.578125 48.1875 50.953125 41.515625 
Q 57.328125 34.859375 57.328125 23.390625 
Q 57.328125 12.15625 50.6875 5.359375 
Q 44.046875 -1.421875 33.015625 -1.421875 
Q 20.359375 -1.421875 13.671875 8.265625 
Q 6.984375 17.96875 6.984375 36.375 
Q 6.984375 53.65625 15.1875 63.9375 
Q 23.390625 74.21875 37.203125 74.21875 
Q 40.921875 74.21875 44.703125 73.484375 
Q 48.484375 72.75 52.59375 71.296875 
z
" id="DejaVuSans-54"/>
      </defs>
      <g transform="translate(15.609375 255.480365)scale(0.1 -0.1)">
       <use xlink:href="#DejaVuSans-51"/>
       <use x="63.623047" xlink:href="#DejaVuSans-48"/>
       <use x="127.246094" xlink:href="#DejaVuSans-48"/>
       <use x="190.869141" xlink:href="#DejaVuSans-46"/>
       <use x="222.65625" xlink:href="#DejaVuSans-53"/>
       <use x="286.279297" xlink:href="#DejaVuSans-54"/>
      </g>
     </g>
    </g>
    <g id="ytick_3">
     <g id="line2d_12">
      <g>
       <use style="stroke:#000000;stroke-width:0.8;" x="57.6" xlink:href="#mb153280f98" y="211.731237"/>
      </g>
     </g>
     <g id="text_13">
      <!-- 300.58 -->
      <defs>
       <path d="M 31.78125 34.625 
Q 24.75 34.625 20.71875 30.859375 
Q 16.703125 27.09375 16.703125 20.515625 
Q 16.703125 13.921875 20.71875 10.15625 
Q 24.75 6.390625 31.78125 6.390625 
Q 38.8125 6.390625 42.859375 10.171875 
Q 46.921875 13.96875 46.921875 20.515625 
Q 46.921875 27.09375 42.890625 30.859375 
Q 38.875 34.625 31.78125 34.625 
z
M 21.921875 38.8125 
Q 15.578125 40.375 12.03125 44.71875 
Q 8.5 49.078125 8.5 55.328125 
Q 8.5 64.0625 14.71875 69.140625 
Q 20.953125 74.21875 31.78125 74.21875 
Q 42.671875 74.21875 48.875 69.140625 
Q 55.078125 64.0625 55.078125 55.328125 
Q 55.078125 49.078125 51.53125 44.71875 
Q 48 40.375 41.703125 38.8125 
Q 48.828125 37.15625 52.796875 32.3125 
Q 56.78125 27.484375 56.78125 20.515625 
Q 56.78125 9.90625 50.3125 4.234375 
Q 43.84375 -1.421875 31.78125 -1.421875 
Q 19.734375 -1.421875 13.25 4.234375 
Q 6.78125 9.90625 6.78125 20.515625 
Q 6.78125 27.484375 10.78125 32.3125 
Q 14.796875 37.15625 21.921875 38.8125 
z
M 18.3125 54.390625 
Q 18.3125 48.734375 21.84375 45.5625 
Q 25.390625 42.390625 31.78125 42.390625 
Q 38.140625 42.390625 41.71875 45.5625 
Q 45.3125 48.734375 45.3125 54.390625 
Q 45.3125 60.0625 41.71875 63.234375 
Q 38.140625 66.40625 31.78125 66.40625 
Q 25.390625 66.40625 21.84375 63.234375 
Q 18.3125 60.0625 18.3125 54.390625 
z
" id="DejaVuSans-56"/>
      </defs>
      <g transform="translate(15.609375 215.530456)scale(0.1 -0.1)">
       <use xlink:href="#DejaVuSans-51"/>
       <use x="63.623047" xlink:href="#DejaVuSans-48"/>
       <use x="127.246094" xlink:href="#DejaVuSans-48"/>
       <use x="190.869141" xlink:href="#DejaVuSans-46"/>
       <use x="222.65625" xlink:href="#DejaVuSans-53"/>
       <use x="286.279297" xlink:href="#DejaVuSans-56"/>
      </g>
     </g>
    </g>
    <g id="ytick_4">
     <g id="line2d_13">
      <g>
       <use style="stroke:#000000;stroke-width:0.8;" x="57.6" xlink:href="#mb153280f98" y="171.781327"/>
      </g>
     </g>
     <g id="text_14">
      <!-- 300.60 -->
      <g transform="translate(15.609375 175.580546)scale(0.1 -0.1)">
       <use xlink:href="#DejaVuSans-51"/>
       <use x="63.623047" xlink:href="#DejaVuSans-48"/>
       <use x="127.246094" xlink:href="#DejaVuSans-48"/>
       <use x="190.869141" xlink:href="#DejaVuSans-46"/>
       <use x="222.65625" xlink:href="#DejaVuSans-54"/>
       <use x="286.279297" xlink:href="#DejaVuSans-48"/>
      </g>
     </g>
    </g>
    <g id="ytick_5">
     <g id="line2d_14">
      <g>
       <use style="stroke:#000000;stroke-width:0.8;" x="57.6" xlink:href="#mb153280f98" y="131.831418"/>
      </g>
     </g>
     <g id="text_15">
      <!-- 300.62 -->
      <g transform="translate(15.609375 135.630637)scale(0.1 -0.1)">
       <use xlink:href="#DejaVuSans-51"/>
       <use x="63.623047" xlink:href="#DejaVuSans-48"/>
       <use x="127.246094" xlink:href="#DejaVuSans-48"/>
       <use x="190.869141" xlink:href="#DejaVuSans-46"/>
       <use x="222.65625" xlink:href="#DejaVuSans-54"/>
       <use x="286.279297" xlink:href="#DejaVuSans-50"/>
      </g>
     </g>
    </g>
    <g id="ytick_6">
     <g id="line2d_15">
      <g>
       <use style="stroke:#000000;stroke-width:0.8;" x="57.6" xlink:href="#mb153280f98" y="91.881508"/>
      </g>
     </g>
     <g id="text_16">
      <!-- 300.64 -->
      <g transform="translate(15.609375 95.680727)scale(0.1 -0.1)">
       <use xlink:href="#DejaVuSans-51"/>
       <use x="63.623047" xlink:href="#DejaVuSans-48"/>
       <use x="127.246094" xlink:href="#DejaVuSans-48"/>
       <use x="190.869141" xlink:href="#DejaVuSans-46"/>
       <use x="222.65625" xlink:href="#DejaVuSans-54"/>
       <use x="286.279297" xlink:href="#DejaVuSans-52"/>
      </g>
     </g>
    </g>
    <g id="ytick_7">
     <g id="line2d_16">
      <g>
       <use style="stroke:#000000;stroke-width:0.8;" x="57.6" xlink:href="#mb153280f98" y="51.931599"/>
      </g>
     </g>
     <g id="text_17">
      <!-- 300.66 -->
      <g transform="translate(15.609375 55.730818)scale(0.1 -0.1)">
       <use xlink:href="#DejaVuSans-51"/>
       <use x="63.623047" xlink:href="#DejaVuSans-48"/>
       <use x="127.246094" xlink:href="#DejaVuSans-48"/>
       <use x="190.869141" xlink:href="#DejaVuSans-46"/>
       <use x="222.65625" xlink:href="#DejaVuSans-54"/>
       <use x="286.279297" xlink:href="#DejaVuSans-54"/>
      </g>
     </g>
    </g>
    <g id="text_18">
     <!-- T_avg -->
     <defs>
      <path d="M -0.296875 72.90625 
L 61.375 72.90625 
L 61.375 64.59375 
L 35.5 64.59375 
L 35.5 0 
L 25.59375 0 
L 25.59375 64.59375 
L -0.296875 64.59375 
z
" id="DejaVuSans-84"/>
      <path d="M 50.984375 -16.609375 
L 50.984375 -23.578125 
L -0.984375 -23.578125 
L -0.984375 -16.609375 
z
" id="DejaVuSans-95"/>
      <path d="M 34.28125 27.484375 
Q 23.390625 27.484375 19.1875 25 
Q 14.984375 22.515625 14.984375 16.5 
Q 14.984375 11.71875 18.140625 8.90625 
Q 21.296875 6.109375 26.703125 6.109375 
Q 34.1875 6.109375 38.703125 11.40625 
Q 43.21875 16.703125 43.21875 25.484375 
L 43.21875 27.484375 
z
M 52.203125 31.203125 
L 52.203125 0 
L 43.21875 0 
L 43.21875 8.296875 
Q 40.140625 3.328125 35.546875 0.953125 
Q 30.953125 -1.421875 24.3125 -1.421875 
Q 15.921875 -1.421875 10.953125 3.296875 
Q 6 8.015625 6 15.921875 
Q 6 25.140625 12.171875 29.828125 
Q 18.359375 34.515625 30.609375 34.515625 
L 43.21875 34.515625 
L 43.21875 35.40625 
Q 43.21875 41.609375 39.140625 45 
Q 35.0625 48.390625 27.6875 48.390625 
Q 23 48.390625 18.546875 47.265625 
Q 14.109375 46.140625 10.015625 43.890625 
L 10.015625 52.203125 
Q 14.9375 54.109375 19.578125 55.046875 
Q 24.21875 56 28.609375 56 
Q 40.484375 56 46.34375 49.84375 
Q 52.203125 43.703125 52.203125 31.203125 
z
" id="DejaVuSans-97"/>
      <path d="M 2.984375 54.6875 
L 12.5 54.6875 
L 29.59375 8.796875 
L 46.6875 54.6875 
L 56.203125 54.6875 
L 35.6875 0 
L 23.484375 0 
z
" id="DejaVuSans-118"/>
      <path d="M 45.40625 27.984375 
Q 45.40625 37.75 41.375 43.109375 
Q 37.359375 48.484375 30.078125 48.484375 
Q 22.859375 48.484375 18.828125 43.109375 
Q 14.796875 37.75 14.796875 27.984375 
Q 14.796875 18.265625 18.828125 12.890625 
Q 22.859375 7.515625 30.078125 7.515625 
Q 37.359375 7.515625 41.375 12.890625 
Q 45.40625 18.265625 45.40625 27.984375 
z
M 54.390625 6.78125 
Q 54.390625 -7.171875 48.1875 -13.984375 
Q 42 -20.796875 29.203125 -20.796875 
Q 24.46875 -20.796875 20.265625 -20.09375 
Q 16.0625 -19.390625 12.109375 -17.921875 
L 12.109375 -9.1875 
Q 16.0625 -11.328125 19.921875 -12.34375 
Q 23.78125 -13.375 27.78125 -13.375 
Q 36.625 -13.375 41.015625 -8.765625 
Q 45.40625 -4.15625 45.40625 5.171875 
L 45.40625 9.625 
Q 42.625 4.78125 38.28125 2.390625 
Q 33.9375 0 27.875 0 
Q 17.828125 0 11.671875 7.65625 
Q 5.515625 15.328125 5.515625 27.984375 
Q 5.515625 40.671875 11.671875 48.328125 
Q 17.828125 56 27.875 56 
Q 33.9375 56 38.28125 53.609375 
Q 42.625 51.21875 45.40625 46.390625 
L 45.40625 54.6875 
L 54.390625 54.6875 
z
" id="DejaVuSans-103"/>
     </defs>
     <g transform="translate(9.251562 189.279562)rotate(-90)scale(0.1 -0.1)">
      <use xlink:href="#DejaVuSans-84"/>
      <use x="61.083984" xlink:href="#DejaVuSans-95"/>
      <use x="111.083984" xlink:href="#DejaVuSans-97"/>
      <use x="172.363281" xlink:href="#DejaVuSans-118"/>
      <use x="231.542969" xlink:href="#DejaVuSans-103"/>
     </g>
    </g>
   </g>
   <g id="line2d_17">
    <defs>
     <path d="M -3 0 
L 3 0 
M 0 3 
L 0 -3 
" id="md5ebdabbf6" style="stroke:#ff0000;"/>
    </defs>
    <g clip-path="url(#pfcd48f287b)">
     <use style="fill:#ff0000;stroke:#ff0000;" x="334.264689" xlink:href="#md5ebdabbf6" y="102.688052"/>
     <use style="fill:#ff0000;stroke:#ff0000;" x="126.244636" xlink:href="#md5ebdabbf6" y="254.553463"/>
     <use style="fill:#ff0000;stroke:#ff0000;" x="201.985113" xlink:href="#md5ebdabbf6" y="199.668409"/>
     <use style="fill:#ff0000;stroke:#ff0000;" x="380.937942" xlink:href="#md5ebdabbf6" y="68.977529"/>
     <use style="fill:#ff0000;stroke:#ff0000;" x="289.123694" xlink:href="#md5ebdabbf6" y="135.687593"/>
     <use style="fill:#ff0000;stroke:#ff0000;" x="257.196935" xlink:href="#md5ebdabbf6" y="159.141223"/>
    </g>
   </g>
   <g id="line2d_18">
    <path clip-path="url(#pfcd48f287b)" d="M 73.832727 291.569426 
L 77.112066 289.284199 
L 80.391405 286.994491 
L 83.670744 284.700381 
L 86.950083 282.401947 
L 90.229421 280.099268 
L 93.50876 277.792423 
L 96.788099 275.481491 
L 100.067438 273.16655 
L 103.346777 270.847681 
L 106.626116 268.524964 
L 109.905455 266.198477 
L 113.184793 263.868302 
L 116.464132 261.534518 
L 119.743471 259.197207 
L 123.02281 256.856448 
L 126.302149 254.512324 
L 129.581488 252.164915 
L 132.860826 249.814303 
L 136.140165 247.460568 
L 139.419504 245.103794 
L 142.698843 242.744062 
L 145.978182 240.381453 
L 149.257521 238.01605 
L 152.53686 235.647936 
L 155.816198 233.277193 
L 159.095537 230.903904 
L 162.374876 228.528152 
L 165.654215 226.150019 
L 168.933554 223.769589 
L 172.212893 221.386945 
L 175.492231 219.00217 
L 178.77157 216.615349 
L 182.050909 214.226564 
L 185.330248 211.835899 
L 188.609587 209.443439 
L 191.888926 207.049266 
L 195.168264 204.653466 
L 198.447603 202.256122 
L 201.726942 199.857318 
L 205.006281 197.45714 
L 208.28562 195.05567 
L 211.564959 192.652995 
L 214.844298 190.249197 
L 218.123636 187.844363 
L 221.402975 185.438575 
L 224.682314 183.03192 
L 227.961653 180.624482 
L 231.240992 178.216346 
L 234.520331 175.807596 
L 237.799669 173.398317 
L 241.079008 170.988595 
L 244.358347 168.578514 
L 247.637686 166.168159 
L 250.917025 163.757615 
L 254.196364 161.346967 
L 257.475702 158.9363 
L 260.755041 156.525699 
L 264.03438 154.115249 
L 267.313719 151.705035 
L 270.593058 149.295141 
L 273.872397 146.885654 
L 277.151736 144.476656 
L 280.431074 142.068234 
L 283.710413 139.660472 
L 286.989752 137.253455 
L 290.269091 134.847267 
L 293.54843 132.441994 
L 296.827769 130.03772 
L 300.107107 127.634529 
L 303.386446 125.232506 
L 306.665785 122.831735 
L 309.945124 120.432301 
L 313.224463 118.034287 
L 316.503802 115.637779 
L 319.78314 113.242859 
L 323.062479 110.849613 
L 326.341818 108.458124 
L 329.621157 106.068475 
L 332.900496 103.68075 
L 336.179835 101.295034 
L 339.459174 98.911408 
L 342.738512 96.529958 
L 346.017851 94.150765 
L 349.29719 91.773912 
L 352.576529 89.399484 
L 355.855868 87.027561 
L 359.135207 84.658228 
L 362.414545 82.291566 
L 365.693884 79.927657 
L 368.973223 77.566585 
L 372.252562 75.20843 
L 375.531901 72.853275 
L 378.81124 70.5012 
L 382.090579 68.152288 
L 385.369917 65.80662 
L 388.649256 63.464277 
L 391.928595 61.125339 
L 395.207934 58.789887 
L 398.487273 56.458002 
" style="fill:none;stroke:#1f77b4;stroke-dasharray:1.11,0.48;stroke-dashoffset:0;stroke-width:0.3;"/>
   </g>
   <g id="patch_3">
    <path d="M 57.6 307.584 
L 57.6 41.472 
" style="fill:none;stroke:#000000;stroke-linecap:square;stroke-linejoin:miter;stroke-width:0.8;"/>
   </g>
   <g id="patch_4">
    <path d="M 414.72 307.584 
L 414.72 41.472 
" style="fill:none;stroke:#000000;stroke-linecap:square;stroke-linejoin:miter;stroke-width:0.8;"/>
   </g>
   <g id="patch_5">
    <path d="M 57.6 307.584 
L 414.72 307.584 
" style="fill:none;stroke:#000000;stroke-linecap:square;stroke-linejoin:miter;stroke-width:0.8;"/>
   </g>
   <g id="patch_6">
    <path d="M 57.6 41.472 
L 414.72 41.472 
" style="fill:none;stroke:#000000;stroke-linecap:square;stroke-linejoin:miter;stroke-width:0.8;"/>
   </g>
  </g>
 </g>
 <defs>
  <clipPath id="pfcd48f287b">
   <rect height="266.112" width="357.12" x="57.6" y="41.472"/>
  </clipPath>
 </defs>
</svg>
