<?xml version="1.0" encoding="utf-8" standalone="no"?>
<!DOCTYPE svg PUBLIC "-//W3C//DTD SVG 1.1//EN"
  "http://www.w3.org/Graphics/SVG/1.1/DTD/svg11.dtd">
<!-- Created with matplotlib (https://matplotlib.org/) -->
<svg height="345.6pt" version="1.1" viewBox="0 0 460.8 345.6" width="460.8pt" xmlns="http://www.w3.org/2000/svg" xmlns:xlink="http://www.w3.org/1999/xlink">
 <defs>
  <style type="text/css">
*{stroke-linecap:butt;stroke-linejoin:round;}
  </style>
 </defs>
 <g id="figure_1">
  <g id="patch_1">
   <path d="M 0 345.6 
L 460.8 345.6 
L 460.8 0 
L 0 0 
z
" style="fill:#ffffff;"/>
  </g>
  <g id="axes_1">
   <g id="patch_2">
    <path d="M 57.6 307.584 
L 414.72 307.584 
L 414.72 41.472 
L 57.6 41.472 
z
" style="fill:#ffffff;"/>
   </g>
   <g id="PolyCollection_1">
    <defs>
     <path d="M 73.832727 -90.452955 
L 73.832727 -218.73893 
L 77.112066 -212.741729 
L 80.391405 -206.01919 
L 83.670744 -198.569408 
L 86.950083 -190.410812 
L 90.229421 -181.58474 
L 93.50876 -172.157183 
L 96.788099 -162.219401 
L 100.067438 -151.887262 
L 103.346777 -141.299174 
L 106.626116 -130.612691 
L 109.905455 -120.000058 
L 113.184793 -109.64343 
L 116.464132 -99.731917 
L 119.743471 -90.46961 
L 123.02281 -82.165763 
L 126.302149 -76.883907 
L 129.581488 -81.049815 
L 132.860826 -87.91391 
L 136.140165 -95.558445 
L 139.419504 -103.639824 
L 142.698843 -111.908803 
L 145.978182 -120.129169 
L 149.257521 -128.07205 
L 152.53686 -135.520735 
L 155.816198 -142.277449 
L 159.095537 -148.170035 
L 162.374876 -153.05783 
L 165.654215 -156.836403 
L 168.933554 -159.440979 
L 172.212893 -160.848471 
L 175.492231 -161.078096 
L 178.77157 -160.190617 
L 182.050909 -158.286311 
L 185.330248 -155.501928 
L 188.609587 -152.007244 
L 191.888926 -148.003161 
L 195.168264 -143.729798 
L 198.447603 -139.545413 
L 201.726942 -137.049616 
L 205.006281 -141.551917 
L 208.28562 -148.082739 
L 211.564959 -154.471746 
L 214.844298 -160.413868 
L 218.123636 -165.760452 
L 221.402975 -170.406136 
L 224.682314 -174.276908 
L 227.961653 -177.331287 
L 231.240992 -179.563373 
L 234.520331 -181.005155 
L 237.799669 -181.72731 
L 241.079008 -181.83839 
L 244.358347 -181.483255 
L 247.637686 -180.844088 
L 250.917025 -180.158979 
L 254.196364 -179.851448 
L 257.475702 -181.321243 
L 260.755041 -185.795128 
L 264.03438 -190.813369 
L 267.313719 -195.284008 
L 270.593058 -198.946291 
L 273.872397 -201.719001 
L 277.151736 -203.607908 
L 280.431074 -204.695815 
L 283.710413 -205.173825 
L 286.989752 -205.543896 
L 290.269091 -207.44367 
L 293.54843 -211.71277 
L 296.827769 -216.677241 
L 300.107107 -221.586289 
L 303.386446 -226.149326 
L 306.665785 -230.192158 
L 309.945124 -233.60047 
L 313.224463 -236.310646 
L 316.503802 -238.30881 
L 319.78314 -239.630732 
L 323.062479 -240.362128 
L 326.341818 -240.644912 
L 329.621157 -240.723015 
L 332.900496 -241.328002 
L 336.179835 -245.408499 
L 339.459174 -252.530498 
L 342.738512 -260.08938 
L 346.017851 -267.419508 
L 349.29719 -274.191686 
L 352.576529 -280.147857 
L 355.855868 -285.069476 
L 359.135207 -288.77587 
L 362.414545 -291.127856 
L 365.693884 -292.032 
L 368.973223 -291.445042 
L 372.252562 -289.38148 
L 375.531901 -285.942806 
L 378.81124 -281.547878 
L 382.090579 -279.655545 
L 385.369917 -282.566624 
L 388.649256 -285.749573 
L 391.928595 -288.42387 
L 395.207934 -290.424154 
L 398.487273 -291.686525 
L 398.487273 -229.850748 
L 398.487273 -229.850748 
L 395.207934 -239.708784 
L 391.928595 -249.222712 
L 388.649256 -258.161203 
L 385.369917 -266.22556 
L 382.090579 -272.541932 
L 378.81124 -272.529393 
L 375.531901 -268.485013 
L 372.252562 -263.908883 
L 368.973223 -259.30316 
L 365.693884 -254.889722 
L 362.414545 -250.833875 
L 359.135207 -247.265711 
L 355.855868 -244.279133 
L 352.576529 -241.927573 
L 349.29719 -240.21993 
L 346.017851 -239.116692 
L 342.738512 -238.52199 
L 339.459174 -238.247093 
L 336.179835 -237.741775 
L 332.900496 -234.490007 
L 329.621157 -228.11925 
L 326.341818 -221.613487 
L 323.062479 -215.715605 
L 319.78314 -210.659739 
L 316.503802 -206.560363 
L 313.224463 -203.461906 
L 309.945124 -201.348874 
L 306.665785 -200.149924 
L 303.386446 -199.74126 
L 300.107107 -199.948757 
L 296.827769 -200.541378 
L 293.54843 -201.176704 
L 290.269091 -201.058591 
L 286.989752 -198.47513 
L 283.710413 -194.23578 
L 280.431074 -189.955745 
L 277.151736 -186.121872 
L 273.872397 -182.916829 
L 270.593058 -180.420906 
L 267.313719 -178.642531 
L 264.03438 -177.507697 
L 260.755041 -176.766999 
L 257.475702 -175.343806 
L 254.196364 -170.797796 
L 250.917025 -164.379536 
L 247.637686 -157.517389 
L 244.358347 -150.668699 
L 241.079008 -144.11078 
L 237.799669 -138.070258 
L 234.520331 -132.740942 
L 231.240992 -128.283457 
L 227.961653 -124.821565 
L 224.682314 -122.438519 
L 221.402975 -121.174407 
L 218.123636 -121.024571 
L 214.844298 -121.938601 
L 211.564959 -123.817648 
L 208.28562 -126.499163 
L 205.006281 -129.641407 
L 201.726942 -131.013549 
L 198.447603 -125.562248 
L 195.168264 -118.49235 
L 191.888926 -111.282154 
L 188.609587 -104.158019 
L 185.330248 -97.225209 
L 182.050909 -90.555645 
L 178.77157 -84.2055 
L 175.492231 -78.222867 
L 172.212893 -72.653265 
L 168.933554 -67.544234 
L 165.654215 -62.948999 
L 162.374876 -58.928891 
L 159.095537 -55.554238 
L 155.816198 -52.903548 
L 152.53686 -51.060942 
L 149.257521 -50.112 
L 145.978182 -50.13828 
L 142.698843 -51.210809 
L 139.419504 -53.382633 
L 136.140165 -56.679267 
L 132.860826 -61.079393 
L 129.581488 -66.421583 
L 126.302149 -70.914963 
L 123.02281 -67.874994 
L 119.743471 -63.727544 
L 116.464132 -60.471702 
L 113.184793 -58.291598 
L 109.905455 -57.212465 
L 106.626116 -57.200306 
L 103.346777 -58.181269 
L 100.067438 -60.051084 
L 96.788099 -62.682948 
L 93.50876 -65.935201 
L 90.229421 -69.658871 
L 86.950083 -73.704817 
L 83.670744 -77.930155 
L 80.391405 -82.203684 
L 77.112066 -86.410115 
L 73.832727 -90.452955 
z
" id="medb79a8bcf" style="stroke:#808080;stroke-opacity:0.5;stroke-width:0.1;"/>
    </defs>
    <g clip-path="url(#pe274ea691a)">
     <use style="fill:#808080;fill-opacity:0.5;stroke:#808080;stroke-opacity:0.5;stroke-width:0.1;" x="0" xlink:href="#medb79a8bcf" y="345.6"/>
    </g>
   </g>
   <g id="matplotlib.axis_1">
    <g id="xtick_1">
     <g id="line2d_1">
      <defs>
       <path d="M 0 0 
L 0 3.5 
" id="md13bfa08e8" style="stroke:#000000;stroke-width:0.8;"/>
      </defs>
      <g>
       <use style="stroke:#000000;stroke-width:0.8;" x="73.832727" xlink:href="#md13bfa08e8" y="307.584"/>
      </g>
     </g>
     <g id="text_1">
      <!-- 9000 -->
      <defs>
       <path d="M 10.984375 1.515625 
L 10.984375 10.5 
Q 14.703125 8.734375 18.5 7.8125 
Q 22.3125 6.890625 25.984375 6.890625 
Q 35.75 6.890625 40.890625 13.453125 
Q 46.046875 20.015625 46.78125 33.40625 
Q 43.953125 29.203125 39.59375 26.953125 
Q 35.25 24.703125 29.984375 24.703125 
Q 19.046875 24.703125 12.671875 31.3125 
Q 6.296875 37.9375 6.296875 49.421875 
Q 6.296875 60.640625 12.9375 67.421875 
Q 19.578125 74.21875 30.609375 74.21875 
Q 43.265625 74.21875 49.921875 64.515625 
Q 56.59375 54.828125 56.59375 36.375 
Q 56.59375 19.140625 48.40625 8.859375 
Q 40.234375 -1.421875 26.421875 -1.421875 
Q 22.703125 -1.421875 18.890625 -0.6875 
Q 15.09375 0.046875 10.984375 1.515625 
z
M 30.609375 32.421875 
Q 37.25 32.421875 41.125 36.953125 
Q 45.015625 41.5 45.015625 49.421875 
Q 45.015625 57.28125 41.125 61.84375 
Q 37.25 66.40625 30.609375 66.40625 
Q 23.96875 66.40625 20.09375 61.84375 
Q 16.21875 57.28125 16.21875 49.421875 
Q 16.21875 41.5 20.09375 36.953125 
Q 23.96875 32.421875 30.609375 32.421875 
z
" id="DejaVuSans-57"/>
       <path d="M 31.78125 66.40625 
Q 24.171875 66.40625 20.328125 58.90625 
Q 16.5 51.421875 16.5 36.375 
Q 16.5 21.390625 20.328125 13.890625 
Q 24.171875 6.390625 31.78125 6.390625 
Q 39.453125 6.390625 43.28125 13.890625 
Q 47.125 21.390625 47.125 36.375 
Q 47.125 51.421875 43.28125 58.90625 
Q 39.453125 66.40625 31.78125 66.40625 
z
M 31.78125 74.21875 
Q 44.046875 74.21875 50.515625 64.515625 
Q 56.984375 54.828125 56.984375 36.375 
Q 56.984375 17.96875 50.515625 8.265625 
Q 44.046875 -1.421875 31.78125 -1.421875 
Q 19.53125 -1.421875 13.0625 8.265625 
Q 6.59375 17.96875 6.59375 36.375 
Q 6.59375 54.828125 13.0625 64.515625 
Q 19.53125 74.21875 31.78125 74.21875 
z
" id="DejaVuSans-48"/>
      </defs>
      <g transform="translate(61.107727 322.182437)scale(0.1 -0.1)">
       <use xlink:href="#DejaVuSans-57"/>
       <use x="63.623047" xlink:href="#DejaVuSans-48"/>
       <use x="127.246094" xlink:href="#DejaVuSans-48"/>
       <use x="190.869141" xlink:href="#DejaVuSans-48"/>
      </g>
     </g>
    </g>
    <g id="xtick_2">
     <g id="line2d_2">
      <g>
       <use style="stroke:#000000;stroke-width:0.8;" x="114.824463" xlink:href="#md13bfa08e8" y="307.584"/>
      </g>
     </g>
     <g id="text_2">
      <!-- 9250 -->
      <defs>
       <path d="M 19.1875 8.296875 
L 53.609375 8.296875 
L 53.609375 0 
L 7.328125 0 
L 7.328125 8.296875 
Q 12.9375 14.109375 22.625 23.890625 
Q 32.328125 33.6875 34.8125 36.53125 
Q 39.546875 41.84375 41.421875 45.53125 
Q 43.3125 49.21875 43.3125 52.78125 
Q 43.3125 58.59375 39.234375 62.25 
Q 35.15625 65.921875 28.609375 65.921875 
Q 23.96875 65.921875 18.8125 64.3125 
Q 13.671875 62.703125 7.8125 59.421875 
L 7.8125 69.390625 
Q 13.765625 71.78125 18.9375 73 
Q 24.125 74.21875 28.421875 74.21875 
Q 39.75 74.21875 46.484375 68.546875 
Q 53.21875 62.890625 53.21875 53.421875 
Q 53.21875 48.921875 51.53125 44.890625 
Q 49.859375 40.875 45.40625 35.40625 
Q 44.1875 33.984375 37.640625 27.21875 
Q 31.109375 20.453125 19.1875 8.296875 
z
" id="DejaVuSans-50"/>
       <path d="M 10.796875 72.90625 
L 49.515625 72.90625 
L 49.515625 64.59375 
L 19.828125 64.59375 
L 19.828125 46.734375 
Q 21.96875 47.46875 24.109375 47.828125 
Q 26.265625 48.1875 28.421875 48.1875 
Q 40.625 48.1875 47.75 41.5 
Q 54.890625 34.8125 54.890625 23.390625 
Q 54.890625 11.625 47.5625 5.09375 
Q 40.234375 -1.421875 26.90625 -1.421875 
Q 22.3125 -1.421875 17.546875 -0.640625 
Q 12.796875 0.140625 7.71875 1.703125 
L 7.71875 11.625 
Q 12.109375 9.234375 16.796875 8.0625 
Q 21.484375 6.890625 26.703125 6.890625 
Q 35.15625 6.890625 40.078125 11.328125 
Q 45.015625 15.765625 45.015625 23.390625 
Q 45.015625 31 40.078125 35.4375 
Q 35.15625 39.890625 26.703125 39.890625 
Q 22.75 39.890625 18.8125 39.015625 
Q 14.890625 38.140625 10.796875 36.28125 
z
" id="DejaVuSans-53"/>
      </defs>
      <g transform="translate(102.099463 322.182437)scale(0.1 -0.1)">
       <use xlink:href="#DejaVuSans-57"/>
       <use x="63.623047" xlink:href="#DejaVuSans-50"/>
       <use x="127.246094" xlink:href="#DejaVuSans-53"/>
       <use x="190.869141" xlink:href="#DejaVuSans-48"/>
      </g>
     </g>
    </g>
    <g id="xtick_3">
     <g id="line2d_3">
      <g>
       <use style="stroke:#000000;stroke-width:0.8;" x="155.816198" xlink:href="#md13bfa08e8" y="307.584"/>
      </g>
     </g>
     <g id="text_3">
      <!-- 9500 -->
      <g transform="translate(143.091198 322.182437)scale(0.1 -0.1)">
       <use xlink:href="#DejaVuSans-57"/>
       <use x="63.623047" xlink:href="#DejaVuSans-53"/>
       <use x="127.246094" xlink:href="#DejaVuSans-48"/>
       <use x="190.869141" xlink:href="#DejaVuSans-48"/>
      </g>
     </g>
    </g>
    <g id="xtick_4">
     <g id="line2d_4">
      <g>
       <use style="stroke:#000000;stroke-width:0.8;" x="196.807934" xlink:href="#md13bfa08e8" y="307.584"/>
      </g>
     </g>
     <g id="text_4">
      <!-- 9750 -->
      <defs>
       <path d="M 8.203125 72.90625 
L 55.078125 72.90625 
L 55.078125 68.703125 
L 28.609375 0 
L 18.3125 0 
L 43.21875 64.59375 
L 8.203125 64.59375 
z
" id="DejaVuSans-55"/>
      </defs>
      <g transform="translate(184.082934 322.182437)scale(0.1 -0.1)">
       <use xlink:href="#DejaVuSans-57"/>
       <use x="63.623047" xlink:href="#DejaVuSans-55"/>
       <use x="127.246094" xlink:href="#DejaVuSans-53"/>
       <use x="190.869141" xlink:href="#DejaVuSans-48"/>
      </g>
     </g>
    </g>
    <g id="xtick_5">
     <g id="line2d_5">
      <g>
       <use style="stroke:#000000;stroke-width:0.8;" x="237.799669" xlink:href="#md13bfa08e8" y="307.584"/>
      </g>
     </g>
     <g id="text_5">
      <!-- 10000 -->
      <defs>
       <path d="M 12.40625 8.296875 
L 28.515625 8.296875 
L 28.515625 63.921875 
L 10.984375 60.40625 
L 10.984375 69.390625 
L 28.421875 72.90625 
L 38.28125 72.90625 
L 38.28125 8.296875 
L 54.390625 8.296875 
L 54.390625 0 
L 12.40625 0 
z
" id="DejaVuSans-49"/>
      </defs>
      <g transform="translate(221.893419 322.182437)scale(0.1 -0.1)">
       <use xlink:href="#DejaVuSans-49"/>
       <use x="63.623047" xlink:href="#DejaVuSans-48"/>
       <use x="127.246094" xlink:href="#DejaVuSans-48"/>
       <use x="190.869141" xlink:href="#DejaVuSans-48"/>
       <use x="254.492188" xlink:href="#DejaVuSans-48"/>
      </g>
     </g>
    </g>
    <g id="xtick_6">
     <g id="line2d_6">
      <g>
       <use style="stroke:#000000;stroke-width:0.8;" x="278.791405" xlink:href="#md13bfa08e8" y="307.584"/>
      </g>
     </g>
     <g id="text_6">
      <!-- 10250 -->
      <g transform="translate(262.885155 322.182437)scale(0.1 -0.1)">
       <use xlink:href="#DejaVuSans-49"/>
       <use x="63.623047" xlink:href="#DejaVuSans-48"/>
       <use x="127.246094" xlink:href="#DejaVuSans-50"/>
       <use x="190.869141" xlink:href="#DejaVuSans-53"/>
       <use x="254.492188" xlink:href="#DejaVuSans-48"/>
      </g>
     </g>
    </g>
    <g id="xtick_7">
     <g id="line2d_7">
      <g>
       <use style="stroke:#000000;stroke-width:0.8;" x="319.78314" xlink:href="#md13bfa08e8" y="307.584"/>
      </g>
     </g>
     <g id="text_7">
      <!-- 10500 -->
      <g transform="translate(303.87689 322.182437)scale(0.1 -0.1)">
       <use xlink:href="#DejaVuSans-49"/>
       <use x="63.623047" xlink:href="#DejaVuSans-48"/>
       <use x="127.246094" xlink:href="#DejaVuSans-53"/>
       <use x="190.869141" xlink:href="#DejaVuSans-48"/>
       <use x="254.492188" xlink:href="#DejaVuSans-48"/>
      </g>
     </g>
    </g>
    <g id="xtick_8">
     <g id="line2d_8">
      <g>
       <use style="stroke:#000000;stroke-width:0.8;" x="360.774876" xlink:href="#md13bfa08e8" y="307.584"/>
      </g>
     </g>
     <g id="text_8">
      <!-- 10750 -->
      <g transform="translate(344.868626 322.182437)scale(0.1 -0.1)">
       <use xlink:href="#DejaVuSans-49"/>
       <use x="63.623047" xlink:href="#DejaVuSans-48"/>
       <use x="127.246094" xlink:href="#DejaVuSans-55"/>
       <use x="190.869141" xlink:href="#DejaVuSans-53"/>
       <use x="254.492188" xlink:href="#DejaVuSans-48"/>
      </g>
     </g>
    </g>
    <g id="xtick_9">
     <g id="line2d_9">
      <g>
       <use style="stroke:#000000;stroke-width:0.8;" x="401.766612" xlink:href="#md13bfa08e8" y="307.584"/>
      </g>
     </g>
     <g id="text_9">
      <!-- 11000 -->
      <g transform="translate(385.860362 322.182437)scale(0.1 -0.1)">
       <use xlink:href="#DejaVuSans-49"/>
       <use x="63.623047" xlink:href="#DejaVuSans-49"/>
       <use x="127.246094" xlink:href="#DejaVuSans-48"/>
       <use x="190.869141" xlink:href="#DejaVuSans-48"/>
       <use x="254.492188" xlink:href="#DejaVuSans-48"/>
      </g>
     </g>
    </g>
    <g id="text_10">
     <!-- q -->
     <defs>
      <path d="M 14.796875 27.296875 
Q 14.796875 17.390625 18.875 11.75 
Q 22.953125 6.109375 30.078125 6.109375 
Q 37.203125 6.109375 41.296875 11.75 
Q 45.40625 17.390625 45.40625 27.296875 
Q 45.40625 37.203125 41.296875 42.84375 
Q 37.203125 48.484375 30.078125 48.484375 
Q 22.953125 48.484375 18.875 42.84375 
Q 14.796875 37.203125 14.796875 27.296875 
z
M 45.40625 8.203125 
Q 42.578125 3.328125 38.25 0.953125 
Q 33.9375 -1.421875 27.875 -1.421875 
Q 17.96875 -1.421875 11.734375 6.484375 
Q 5.515625 14.40625 5.515625 27.296875 
Q 5.515625 40.1875 11.734375 48.09375 
Q 17.96875 56 27.875 56 
Q 33.9375 56 38.25 53.625 
Q 42.578125 51.265625 45.40625 46.390625 
L 45.40625 54.6875 
L 54.390625 54.6875 
L 54.390625 -20.796875 
L 45.40625 -20.796875 
z
" id="DejaVuSans-113"/>
     </defs>
     <g transform="translate(232.985781 335.860562)scale(0.1 -0.1)">
      <use xlink:href="#DejaVuSans-113"/>
     </g>
    </g>
   </g>
   <g id="matplotlib.axis_2">
    <g id="ytick_1">
     <g id="line2d_10">
      <defs>
       <path d="M 0 0 
L -3.5 0 
" id="mad3b83568d" style="stroke:#000000;stroke-width:0.8;"/>
      </defs>
      <g>
       <use style="stroke:#000000;stroke-width:0.8;" x="57.6" xlink:href="#mad3b83568d" y="268.485237"/>
      </g>
     </g>
     <g id="text_11">
      <!-- 300.56 -->
      <defs>
       <path d="M 40.578125 39.3125 
Q 47.65625 37.796875 51.625 33 
Q 55.609375 28.21875 55.609375 21.1875 
Q 55.609375 10.40625 48.1875 4.484375 
Q 40.765625 -1.421875 27.09375 -1.421875 
Q 22.515625 -1.421875 17.65625 -0.515625 
Q 12.796875 0.390625 7.625 2.203125 
L 7.625 11.71875 
Q 11.71875 9.328125 16.59375 8.109375 
Q 21.484375 6.890625 26.8125 6.890625 
Q 36.078125 6.890625 40.9375 10.546875 
Q 45.796875 14.203125 45.796875 21.1875 
Q 45.796875 27.640625 41.28125 31.265625 
Q 36.765625 34.90625 28.71875 34.90625 
L 20.21875 34.90625 
L 20.21875 43.015625 
L 29.109375 43.015625 
Q 36.375 43.015625 40.234375 45.921875 
Q 44.09375 48.828125 44.09375 54.296875 
Q 44.09375 59.90625 40.109375 62.90625 
Q 36.140625 65.921875 28.71875 65.921875 
Q 24.65625 65.921875 20.015625 65.03125 
Q 15.375 64.15625 9.8125 62.3125 
L 9.8125 71.09375 
Q 15.4375 72.65625 20.34375 73.4375 
Q 25.25 74.21875 29.59375 74.21875 
Q 40.828125 74.21875 47.359375 69.109375 
Q 53.90625 64.015625 53.90625 55.328125 
Q 53.90625 49.265625 50.4375 45.09375 
Q 46.96875 40.921875 40.578125 39.3125 
z
" id="DejaVuSans-51"/>
       <path d="M 10.6875 12.40625 
L 21 12.40625 
L 21 0 
L 10.6875 0 
z
" id="DejaVuSans-46"/>
       <path d="M 33.015625 40.375 
Q 26.375 40.375 22.484375 35.828125 
Q 18.609375 31.296875 18.609375 23.390625 
Q 18.609375 15.53125 22.484375 10.953125 
Q 26.375 6.390625 33.015625 6.390625 
Q 39.65625 6.390625 43.53125 10.953125 
Q 47.40625 15.53125 47.40625 23.390625 
Q 47.40625 31.296875 43.53125 35.828125 
Q 39.65625 40.375 33.015625 40.375 
z
M 52.59375 71.296875 
L 52.59375 62.3125 
Q 48.875 64.0625 45.09375 64.984375 
Q 41.3125 65.921875 37.59375 65.921875 
Q 27.828125 65.921875 22.671875 59.328125 
Q 17.53125 52.734375 16.796875 39.40625 
Q 19.671875 43.65625 24.015625 45.921875 
Q 28.375 48.1875 33.59375 48.1875 
Q 44.578125 48.1875 50.953125 41.515625 
Q 57.328125 34.859375 57.328125 23.390625 
Q 57.328125 12.15625 50.6875 5.359375 
Q 44.046875 -1.421875 33.015625 -1.421875 
Q 20.359375 -1.421875 13.671875 8.265625 
Q 6.984375 17.96875 6.984375 36.375 
Q 6.984375 53.65625 15.1875 63.9375 
Q 23.390625 74.21875 37.203125 74.21875 
Q 40.921875 74.21875 44.703125 73.484375 
Q 48.484375 72.75 52.59375 71.296875 
z
" id="DejaVuSans-54"/>
      </defs>
      <g transform="translate(15.609375 272.284455)scale(0.1 -0.1)">
       <use xlink:href="#DejaVuSans-51"/>
       <use x="63.623047" xlink:href="#DejaVuSans-48"/>
       <use x="127.246094" xlink:href="#DejaVuSans-48"/>
       <use x="190.869141" xlink:href="#DejaVuSans-46"/>
       <use x="222.65625" xlink:href="#DejaVuSans-53"/>
       <use x="286.279297" xlink:href="#DejaVuSans-54"/>
      </g>
     </g>
    </g>
    <g id="ytick_2">
     <g id="line2d_11">
      <g>
       <use style="stroke:#000000;stroke-width:0.8;" x="57.6" xlink:href="#mad3b83568d" y="224.912234"/>
      </g>
     </g>
     <g id="text_12">
      <!-- 300.58 -->
      <defs>
       <path d="M 31.78125 34.625 
Q 24.75 34.625 20.71875 30.859375 
Q 16.703125 27.09375 16.703125 20.515625 
Q 16.703125 13.921875 20.71875 10.15625 
Q 24.75 6.390625 31.78125 6.390625 
Q 38.8125 6.390625 42.859375 10.171875 
Q 46.921875 13.96875 46.921875 20.515625 
Q 46.921875 27.09375 42.890625 30.859375 
Q 38.875 34.625 31.78125 34.625 
z
M 21.921875 38.8125 
Q 15.578125 40.375 12.03125 44.71875 
Q 8.5 49.078125 8.5 55.328125 
Q 8.5 64.0625 14.71875 69.140625 
Q 20.953125 74.21875 31.78125 74.21875 
Q 42.671875 74.21875 48.875 69.140625 
Q 55.078125 64.0625 55.078125 55.328125 
Q 55.078125 49.078125 51.53125 44.71875 
Q 48 40.375 41.703125 38.8125 
Q 48.828125 37.15625 52.796875 32.3125 
Q 56.78125 27.484375 56.78125 20.515625 
Q 56.78125 9.90625 50.3125 4.234375 
Q 43.84375 -1.421875 31.78125 -1.421875 
Q 19.734375 -1.421875 13.25 4.234375 
Q 6.78125 9.90625 6.78125 20.515625 
Q 6.78125 27.484375 10.78125 32.3125 
Q 14.796875 37.15625 21.921875 38.8125 
z
M 18.3125 54.390625 
Q 18.3125 48.734375 21.84375 45.5625 
Q 25.390625 42.390625 31.78125 42.390625 
Q 38.140625 42.390625 41.71875 45.5625 
Q 45.3125 48.734375 45.3125 54.390625 
Q 45.3125 60.0625 41.71875 63.234375 
Q 38.140625 66.40625 31.78125 66.40625 
Q 25.390625 66.40625 21.84375 63.234375 
Q 18.3125 60.0625 18.3125 54.390625 
z
" id="DejaVuSans-56"/>
      </defs>
      <g transform="translate(15.609375 228.711452)scale(0.1 -0.1)">
       <use xlink:href="#DejaVuSans-51"/>
       <use x="63.623047" xlink:href="#DejaVuSans-48"/>
       <use x="127.246094" xlink:href="#DejaVuSans-48"/>
       <use x="190.869141" xlink:href="#DejaVuSans-46"/>
       <use x="222.65625" xlink:href="#DejaVuSans-53"/>
       <use x="286.279297" xlink:href="#DejaVuSans-56"/>
      </g>
     </g>
    </g>
    <g id="ytick_3">
     <g id="line2d_12">
      <g>
       <use style="stroke:#000000;stroke-width:0.8;" x="57.6" xlink:href="#mad3b83568d" y="181.33923"/>
      </g>
     </g>
     <g id="text_13">
      <!-- 300.60 -->
      <g transform="translate(15.609375 185.138449)scale(0.1 -0.1)">
       <use xlink:href="#DejaVuSans-51"/>
       <use x="63.623047" xlink:href="#DejaVuSans-48"/>
       <use x="127.246094" xlink:href="#DejaVuSans-48"/>
       <use x="190.869141" xlink:href="#DejaVuSans-46"/>
       <use x="222.65625" xlink:href="#DejaVuSans-54"/>
       <use x="286.279297" xlink:href="#DejaVuSans-48"/>
      </g>
     </g>
    </g>
    <g id="ytick_4">
     <g id="line2d_13">
      <g>
       <use style="stroke:#000000;stroke-width:0.8;" x="57.6" xlink:href="#mad3b83568d" y="137.766227"/>
      </g>
     </g>
     <g id="text_14">
      <!-- 300.62 -->
      <g transform="translate(15.609375 141.565446)scale(0.1 -0.1)">
       <use xlink:href="#DejaVuSans-51"/>
       <use x="63.623047" xlink:href="#DejaVuSans-48"/>
       <use x="127.246094" xlink:href="#DejaVuSans-48"/>
       <use x="190.869141" xlink:href="#DejaVuSans-46"/>
       <use x="222.65625" xlink:href="#DejaVuSans-54"/>
       <use x="286.279297" xlink:href="#DejaVuSans-50"/>
      </g>
     </g>
    </g>
    <g id="ytick_5">
     <g id="line2d_14">
      <g>
       <use style="stroke:#000000;stroke-width:0.8;" x="57.6" xlink:href="#mad3b83568d" y="94.193224"/>
      </g>
     </g>
     <g id="text_15">
      <!-- 300.64 -->
      <defs>
       <path d="M 37.796875 64.3125 
L 12.890625 25.390625 
L 37.796875 25.390625 
z
M 35.203125 72.90625 
L 47.609375 72.90625 
L 47.609375 25.390625 
L 58.015625 25.390625 
L 58.015625 17.1875 
L 47.609375 17.1875 
L 47.609375 0 
L 37.796875 0 
L 37.796875 17.1875 
L 4.890625 17.1875 
L 4.890625 26.703125 
z
" id="DejaVuSans-52"/>
      </defs>
      <g transform="translate(15.609375 97.992443)scale(0.1 -0.1)">
       <use xlink:href="#DejaVuSans-51"/>
       <use x="63.623047" xlink:href="#DejaVuSans-48"/>
       <use x="127.246094" xlink:href="#DejaVuSans-48"/>
       <use x="190.869141" xlink:href="#DejaVuSans-46"/>
       <use x="222.65625" xlink:href="#DejaVuSans-54"/>
       <use x="286.279297" xlink:href="#DejaVuSans-52"/>
      </g>
     </g>
    </g>
    <g id="ytick_6">
     <g id="line2d_15">
      <g>
       <use style="stroke:#000000;stroke-width:0.8;" x="57.6" xlink:href="#mad3b83568d" y="50.620221"/>
      </g>
     </g>
     <g id="text_16">
      <!-- 300.66 -->
      <g transform="translate(15.609375 54.419439)scale(0.1 -0.1)">
       <use xlink:href="#DejaVuSans-51"/>
       <use x="63.623047" xlink:href="#DejaVuSans-48"/>
       <use x="127.246094" xlink:href="#DejaVuSans-48"/>
       <use x="190.869141" xlink:href="#DejaVuSans-46"/>
       <use x="222.65625" xlink:href="#DejaVuSans-54"/>
       <use x="286.279297" xlink:href="#DejaVuSans-54"/>
      </g>
     </g>
    </g>
    <g id="text_17">
     <!-- T_avg -->
     <defs>
      <path d="M -0.296875 72.90625 
L 61.375 72.90625 
L 61.375 64.59375 
L 35.5 64.59375 
L 35.5 0 
L 25.59375 0 
L 25.59375 64.59375 
L -0.296875 64.59375 
z
" id="DejaVuSans-84"/>
      <path d="M 50.984375 -16.609375 
L 50.984375 -23.578125 
L -0.984375 -23.578125 
L -0.984375 -16.609375 
z
" id="DejaVuSans-95"/>
      <path d="M 34.28125 27.484375 
Q 23.390625 27.484375 19.1875 25 
Q 14.984375 22.515625 14.984375 16.5 
Q 14.984375 11.71875 18.140625 8.90625 
Q 21.296875 6.109375 26.703125 6.109375 
Q 34.1875 6.109375 38.703125 11.40625 
Q 43.21875 16.703125 43.21875 25.484375 
L 43.21875 27.484375 
z
M 52.203125 31.203125 
L 52.203125 0 
L 43.21875 0 
L 43.21875 8.296875 
Q 40.140625 3.328125 35.546875 0.953125 
Q 30.953125 -1.421875 24.3125 -1.421875 
Q 15.921875 -1.421875 10.953125 3.296875 
Q 6 8.015625 6 15.921875 
Q 6 25.140625 12.171875 29.828125 
Q 18.359375 34.515625 30.609375 34.515625 
L 43.21875 34.515625 
L 43.21875 35.40625 
Q 43.21875 41.609375 39.140625 45 
Q 35.0625 48.390625 27.6875 48.390625 
Q 23 48.390625 18.546875 47.265625 
Q 14.109375 46.140625 10.015625 43.890625 
L 10.015625 52.203125 
Q 14.9375 54.109375 19.578125 55.046875 
Q 24.21875 56 28.609375 56 
Q 40.484375 56 46.34375 49.84375 
Q 52.203125 43.703125 52.203125 31.203125 
z
" id="DejaVuSans-97"/>
      <path d="M 2.984375 54.6875 
L 12.5 54.6875 
L 29.59375 8.796875 
L 46.6875 54.6875 
L 56.203125 54.6875 
L 35.6875 0 
L 23.484375 0 
z
" id="DejaVuSans-118"/>
      <path d="M 45.40625 27.984375 
Q 45.40625 37.75 41.375 43.109375 
Q 37.359375 48.484375 30.078125 48.484375 
Q 22.859375 48.484375 18.828125 43.109375 
Q 14.796875 37.75 14.796875 27.984375 
Q 14.796875 18.265625 18.828125 12.890625 
Q 22.859375 7.515625 30.078125 7.515625 
Q 37.359375 7.515625 41.375 12.890625 
Q 45.40625 18.265625 45.40625 27.984375 
z
M 54.390625 6.78125 
Q 54.390625 -7.171875 48.1875 -13.984375 
Q 42 -20.796875 29.203125 -20.796875 
Q 24.46875 -20.796875 20.265625 -20.09375 
Q 16.0625 -19.390625 12.109375 -17.921875 
L 12.109375 -9.1875 
Q 16.0625 -11.328125 19.921875 -12.34375 
Q 23.78125 -13.375 27.78125 -13.375 
Q 36.625 -13.375 41.015625 -8.765625 
Q 45.40625 -4.15625 45.40625 5.171875 
L 45.40625 9.625 
Q 42.625 4.78125 38.28125 2.390625 
Q 33.9375 0 27.875 0 
Q 17.828125 0 11.671875 7.65625 
Q 5.515625 15.328125 5.515625 27.984375 
Q 5.515625 40.671875 11.671875 48.328125 
Q 17.828125 56 27.875 56 
Q 33.9375 56 38.28125 53.609375 
Q 42.625 51.21875 45.40625 46.390625 
L 45.40625 54.6875 
L 54.390625 54.6875 
z
" id="DejaVuSans-103"/>
     </defs>
     <g transform="translate(9.251562 189.279562)rotate(-90)scale(0.1 -0.1)">
      <use xlink:href="#DejaVuSans-84"/>
      <use x="61.083984" xlink:href="#DejaVuSans-95"/>
      <use x="111.083984" xlink:href="#DejaVuSans-97"/>
      <use x="172.363281" xlink:href="#DejaVuSans-118"/>
      <use x="231.542969" xlink:href="#DejaVuSans-103"/>
     </g>
    </g>
   </g>
   <g id="line2d_16">
    <defs>
     <path d="M -3 0 
L 3 0 
M 0 3 
L 0 -3 
" id="mc5a87462b2" style="stroke:#ff0000;"/>
    </defs>
    <g clip-path="url(#pe274ea691a)">
     <use style="fill:#ff0000;stroke:#ff0000;" x="334.264689" xlink:href="#mc5a87462b2" y="106.186094"/>
     <use style="fill:#ff0000;stroke:#ff0000;" x="126.244636" xlink:href="#mc5a87462b2" y="271.6892"/>
     <use style="fill:#ff0000;stroke:#ff0000;" x="201.985113" xlink:href="#mc5a87462b2" y="211.448987"/>
     <use style="fill:#ff0000;stroke:#ff0000;" x="380.937942" xlink:href="#mc5a87462b2" y="69.08339"/>
     <use style="fill:#ff0000;stroke:#ff0000;" x="289.123694" xlink:href="#mc5a87462b2" y="142.125505"/>
     <use style="fill:#ff0000;stroke:#ff0000;" x="257.196935" xlink:href="#mc5a87462b2" y="167.521012"/>
    </g>
   </g>
   <g id="line2d_17">
    <path clip-path="url(#pe274ea691a)" d="M 73.832727 191.004058 
L 77.112066 196.024078 
L 80.391405 201.488563 
L 83.670744 207.350219 
L 86.950083 213.542185 
L 90.229421 219.978194 
L 93.50876 226.553808 
L 96.788099 233.148826 
L 100.067438 239.630827 
L 103.346777 245.859779 
L 106.626116 251.693501 
L 109.905455 256.993739 
L 113.184793 261.632486 
L 116.464132 265.498191 
L 119.743471 268.501423 
L 123.02281 270.579621 
L 126.302149 271.700565 
L 129.581488 271.864301 
L 132.860826 271.103349 
L 136.140165 269.481144 
L 139.419504 267.088771 
L 142.698843 264.040194 
L 145.978182 260.466276 
L 149.257521 256.507975 
L 152.53686 252.309162 
L 155.816198 248.009501 
L 159.095537 243.737863 
L 162.374876 239.60664 
L 165.654215 235.707299 
L 168.933554 232.107393 
L 172.212893 228.849132 
L 175.492231 225.949518 
L 178.77157 223.401942 
L 182.050909 221.179022 
L 185.330248 219.236431 
L 188.609587 217.517368 
L 191.888926 215.957342 
L 195.168264 214.488926 
L 198.447603 213.04617 
L 201.726942 211.568417 
L 205.006281 210.003338 
L 208.28562 208.309049 
L 211.564959 206.455303 
L 214.844298 204.423766 
L 218.123636 202.207489 
L 221.402975 199.809728 
L 224.682314 197.242287 
L 227.961653 194.523574 
L 231.240992 191.676585 
L 234.520331 188.726952 
L 237.799669 185.701216 
L 241.079008 182.625415 
L 244.358347 179.524023 
L 247.637686 176.419262 
L 250.917025 173.330743 
L 254.196364 170.275378 
L 257.475702 167.267475 
L 260.755041 164.318937 
L 264.03438 161.439467 
L 267.313719 158.63673 
L 270.593058 155.916401 
L 273.872397 153.282085 
L 277.151736 150.73511 
L 280.431074 148.27422 
L 283.710413 145.895198 
L 286.989752 143.590487 
L 290.269091 141.34887 
L 293.54843 139.155263 
L 296.827769 136.99069 
L 300.107107 134.832477 
L 303.386446 132.654707 
L 306.665785 130.428959 
L 309.945124 128.125328 
L 313.224463 125.713724 
L 316.503802 123.165413 
L 319.78314 120.454765 
L 323.062479 117.561134 
L 326.341818 114.470801 
L 329.621157 111.178867 
L 332.900496 107.690996 
L 336.179835 104.024863 
L 339.459174 100.211204 
L 342.738512 96.294315 
L 346.017851 92.3319 
L 349.29719 88.394192 
L 352.576529 84.562285 
L 355.855868 80.925696 
L 359.135207 77.57921 
L 362.414545 74.619135 
L 365.693884 72.139139 
L 368.973223 70.225899 
L 372.252562 68.954819 
L 375.531901 68.38609 
L 378.81124 68.561364 
L 382.090579 69.501261 
L 385.369917 71.203908 
L 388.649256 73.644612 
L 391.928595 76.776709 
L 395.207934 80.533531 
L 398.487273 84.831363 
" style="fill:none;stroke:#1f77b4;stroke-dasharray:1.11,0.48;stroke-dashoffset:0;stroke-width:0.3;"/>
   </g>
   <g id="patch_3">
    <path d="M 57.6 307.584 
L 57.6 41.472 
" style="fill:none;stroke:#000000;stroke-linecap:square;stroke-linejoin:miter;stroke-width:0.8;"/>
   </g>
   <g id="patch_4">
    <path d="M 414.72 307.584 
L 414.72 41.472 
" style="fill:none;stroke:#000000;stroke-linecap:square;stroke-linejoin:miter;stroke-width:0.8;"/>
   </g>
   <g id="patch_5">
    <path d="M 57.6 307.584 
L 414.72 307.584 
" style="fill:none;stroke:#000000;stroke-linecap:square;stroke-linejoin:miter;stroke-width:0.8;"/>
   </g>
   <g id="patch_6">
    <path d="M 57.6 41.472 
L 414.72 41.472 
" style="fill:none;stroke:#000000;stroke-linecap:square;stroke-linejoin:miter;stroke-width:0.8;"/>
   </g>
  </g>
 </g>
 <defs>
  <clipPath id="pe274ea691a">
   <rect height="266.112" width="357.12" x="57.6" y="41.472"/>
  </clipPath>
 </defs>
</svg>
