<?xml version="1.0" encoding="UTF-8" standalone="no"?>
<!DOCTYPE svg PUBLIC "-//W3C//DTD SVG 1.1//EN"
 "http://www.w3.org/Graphics/SVG/1.1/DTD/svg11.dtd">
<!-- Generated by graphviz version 2.38.0 (20140413.2041)
 -->
<!-- Title: src/kernels/CoupledFissionEigenKernel.C Pages: 1 -->
<svg width="280pt" height="207pt"
 viewBox="0.00 0.00 279.50 207.00" xmlns="http://www.w3.org/2000/svg" xmlns:xlink="http://www.w3.org/1999/xlink">
<g id="graph0" class="graph" transform="scale(1 1) rotate(0) translate(4 203)">
<title>src/kernels/CoupledFissionEigenKernel.C</title>
<polygon fill="white" stroke="none" points="-4,4 -4,-203 275.5,-203 275.5,4 -4,4"/>
<!-- Node0 -->
<g id="node1" class="node"><title>Node0</title>
<polygon fill="#bfbfbf" stroke="black" points="28,-168.5 28,-198.5 163,-198.5 163,-168.5 28,-168.5"/>
<text text-anchor="start" x="36" y="-186.5" font-family="Helvetica,sans-Serif" font-size="10.00">src/kernels/CoupledFission</text>
<text text-anchor="middle" x="95.5" y="-175.5" font-family="Helvetica,sans-Serif" font-size="10.00">EigenKernel.C</text>
</g>
<!-- Node1 -->
<g id="node2" class="node"><title>Node1</title>
<g id="a_node2"><a xlink:href="_coupled_fission_eigen_kernel_8h.html" target="_top" xlink:title="CoupledFissionEigenKernel.h">
<polygon fill="white" stroke="black" points="23,-112.5 23,-131.5 168,-131.5 168,-112.5 23,-112.5"/>
<text text-anchor="middle" x="95.5" y="-119.5" font-family="Helvetica,sans-Serif" font-size="10.00">CoupledFissionEigenKernel.h</text>
</a>
</g>
</g>
<!-- Node0&#45;&gt;Node1 -->
<g id="edge1" class="edge"><title>Node0&#45;&gt;Node1</title>
<path fill="none" stroke="midnightblue" d="M95.5,-168.399C95.5,-160.466 95.5,-150.458 95.5,-141.858"/>
<polygon fill="midnightblue" stroke="midnightblue" points="99.0001,-141.658 95.5,-131.658 92.0001,-141.658 99.0001,-141.658"/>
</g>
<!-- Node2 -->
<g id="node3" class="node"><title>Node2</title>
<polygon fill="white" stroke="#bfbfbf" points="0,-56.5 0,-75.5 77,-75.5 77,-56.5 0,-56.5"/>
<text text-anchor="middle" x="38.5" y="-63.5" font-family="Helvetica,sans-Serif" font-size="10.00">EigenKernel.h</text>
</g>
<!-- Node1&#45;&gt;Node2 -->
<g id="edge2" class="edge"><title>Node1&#45;&gt;Node2</title>
<path fill="none" stroke="midnightblue" d="M86.342,-112.324C77.9985,-104.42 65.4676,-92.5482 55.3231,-82.9377"/>
<polygon fill="midnightblue" stroke="midnightblue" points="57.4913,-80.1705 47.8247,-75.8339 52.6771,-85.2522 57.4913,-80.1705"/>
</g>
<!-- Node3 -->
<g id="node4" class="node"><title>Node3</title>
<g id="a_node4"><a xlink:href="_scalar_transport_base_8h.html" target="_top" xlink:title="ScalarTransportBase.h">
<polygon fill="white" stroke="black" points="95.5,-56.5 95.5,-75.5 211.5,-75.5 211.5,-56.5 95.5,-56.5"/>
<text text-anchor="middle" x="153.5" y="-63.5" font-family="Helvetica,sans-Serif" font-size="10.00">ScalarTransportBase.h</text>
</a>
</g>
</g>
<!-- Node1&#45;&gt;Node3 -->
<g id="edge3" class="edge"><title>Node1&#45;&gt;Node3</title>
<path fill="none" stroke="midnightblue" d="M104.819,-112.324C113.393,-104.341 126.312,-92.3128 136.688,-82.6529"/>
<polygon fill="midnightblue" stroke="midnightblue" points="139.078,-85.2098 144.012,-75.8339 134.308,-80.0865 139.078,-85.2098"/>
</g>
<!-- Node4 -->
<g id="node5" class="node"><title>Node4</title>
<polygon fill="white" stroke="#bfbfbf" points="44,-0.5 44,-19.5 141,-19.5 141,-0.5 44,-0.5"/>
<text text-anchor="middle" x="92.5" y="-7.5" font-family="Helvetica,sans-Serif" font-size="10.00">InputParameters.h</text>
</g>
<!-- Node3&#45;&gt;Node4 -->
<g id="edge4" class="edge"><title>Node3&#45;&gt;Node4</title>
<path fill="none" stroke="midnightblue" d="M143.699,-56.324C134.682,-48.3414 121.094,-36.3128 110.182,-26.6529"/>
<polygon fill="midnightblue" stroke="midnightblue" points="112.287,-23.8416 102.479,-19.8339 107.647,-29.083 112.287,-23.8416"/>
</g>
<!-- Node5 -->
<g id="node6" class="node"><title>Node5</title>
<polygon fill="white" stroke="#bfbfbf" points="159.5,-0.5 159.5,-19.5 271.5,-19.5 271.5,-0.5 159.5,-0.5"/>
<text text-anchor="middle" x="215.5" y="-7.5" font-family="Helvetica,sans-Serif" font-size="10.00">MooseVariableBase.h</text>
</g>
<!-- Node3&#45;&gt;Node5 -->
<g id="edge5" class="edge"><title>Node3&#45;&gt;Node5</title>
<path fill="none" stroke="midnightblue" d="M163.461,-56.324C172.627,-48.3414 186.437,-36.3128 197.528,-26.6529"/>
<polygon fill="midnightblue" stroke="midnightblue" points="200.115,-29.041 205.357,-19.8339 195.518,-23.7624 200.115,-29.041"/>
</g>
</g>
</svg>
