<?xml version="1.0" encoding="UTF-8" standalone="no"?>
<!DOCTYPE svg PUBLIC "-//W3C//DTD SVG 1.1//EN"
 "http://www.w3.org/Graphics/SVG/1.1/DTD/svg11.dtd">
<!-- Generated by graphviz version 2.38.0 (20140413.2041)
 -->
<!-- Title: src/kernels/CoupledScalarAdvection.C Pages: 1 -->
<svg width="256pt" height="207pt"
 viewBox="0.00 0.00 255.50 207.00" xmlns="http://www.w3.org/2000/svg" xmlns:xlink="http://www.w3.org/1999/xlink">
<g id="graph0" class="graph" transform="scale(1 1) rotate(0) translate(4 203)">
<title>src/kernels/CoupledScalarAdvection.C</title>
<polygon fill="white" stroke="none" points="-4,4 -4,-203 251.5,-203 251.5,4 -4,4"/>
<!-- Node0 -->
<g id="node1" class="node"><title>Node0</title>
<polygon fill="#bfbfbf" stroke="black" points="73,-168.5 73,-198.5 204,-198.5 204,-168.5 73,-168.5"/>
<text text-anchor="start" x="81" y="-186.5" font-family="Helvetica,sans-Serif" font-size="10.00">src/kernels/CoupledScalar</text>
<text text-anchor="middle" x="138.5" y="-175.5" font-family="Helvetica,sans-Serif" font-size="10.00">Advection.C</text>
</g>
<!-- Node1 -->
<g id="node2" class="node"><title>Node1</title>
<g id="a_node2"><a xlink:href="_coupled_scalar_advection_8h.html" target="_top" xlink:title="CoupledScalarAdvection.h">
<polygon fill="white" stroke="black" points="11.5,-112.5 11.5,-131.5 143.5,-131.5 143.5,-112.5 11.5,-112.5"/>
<text text-anchor="middle" x="77.5" y="-119.5" font-family="Helvetica,sans-Serif" font-size="10.00">CoupledScalarAdvection.h</text>
</a>
</g>
</g>
<!-- Node0&#45;&gt;Node1 -->
<g id="edge1" class="edge"><title>Node0&#45;&gt;Node1</title>
<path fill="none" stroke="midnightblue" d="M124.044,-168.399C114.906,-159.486 103.081,-147.952 93.6376,-138.741"/>
<polygon fill="midnightblue" stroke="midnightblue" points="95.9785,-136.135 86.376,-131.658 91.0907,-141.146 95.9785,-136.135"/>
</g>
<!-- Node6 -->
<g id="node7" class="node"><title>Node6</title>
<polygon fill="white" stroke="#bfbfbf" points="161.5,-112.5 161.5,-131.5 239.5,-131.5 239.5,-112.5 161.5,-112.5"/>
<text text-anchor="middle" x="200.5" y="-119.5" font-family="Helvetica,sans-Serif" font-size="10.00">MooseMesh.h</text>
</g>
<!-- Node0&#45;&gt;Node6 -->
<g id="edge6" class="edge"><title>Node0&#45;&gt;Node6</title>
<path fill="none" stroke="midnightblue" d="M153.193,-168.399C162.481,-159.486 174.499,-147.952 184.098,-138.741"/>
<polygon fill="midnightblue" stroke="midnightblue" points="186.687,-141.107 191.478,-131.658 181.84,-136.057 186.687,-141.107"/>
</g>
<!-- Node2 -->
<g id="node3" class="node"><title>Node2</title>
<polygon fill="white" stroke="#bfbfbf" points="0,-56.5 0,-75.5 53,-75.5 53,-56.5 0,-56.5"/>
<text text-anchor="middle" x="26.5" y="-63.5" font-family="Helvetica,sans-Serif" font-size="10.00">Kernel.h</text>
</g>
<!-- Node1&#45;&gt;Node2 -->
<g id="edge2" class="edge"><title>Node1&#45;&gt;Node2</title>
<path fill="none" stroke="midnightblue" d="M69.0784,-112.083C61.6518,-104.22 50.6483,-92.5688 41.6878,-83.0813"/>
<polygon fill="midnightblue" stroke="midnightblue" points="44.1757,-80.618 34.7649,-75.7511 39.0866,-85.4244 44.1757,-80.618"/>
</g>
<!-- Node3 -->
<g id="node4" class="node"><title>Node3</title>
<g id="a_node4"><a xlink:href="_scalar_transport_base_8h.html" target="_top" xlink:title="ScalarTransportBase.h">
<polygon fill="white" stroke="black" points="71.5,-56.5 71.5,-75.5 187.5,-75.5 187.5,-56.5 71.5,-56.5"/>
<text text-anchor="middle" x="129.5" y="-63.5" font-family="Helvetica,sans-Serif" font-size="10.00">ScalarTransportBase.h</text>
</a>
</g>
</g>
<!-- Node1&#45;&gt;Node3 -->
<g id="edge3" class="edge"><title>Node1&#45;&gt;Node3</title>
<path fill="none" stroke="midnightblue" d="M86.0867,-112.083C93.659,-104.22 104.878,-92.5688 114.014,-83.0813"/>
<polygon fill="midnightblue" stroke="midnightblue" points="116.658,-85.3821 121.073,-75.7511 111.615,-80.5266 116.658,-85.3821"/>
</g>
<!-- Node4 -->
<g id="node5" class="node"><title>Node4</title>
<polygon fill="white" stroke="#bfbfbf" points="20,-0.5 20,-19.5 117,-19.5 117,-0.5 20,-0.5"/>
<text text-anchor="middle" x="68.5" y="-7.5" font-family="Helvetica,sans-Serif" font-size="10.00">InputParameters.h</text>
</g>
<!-- Node3&#45;&gt;Node4 -->
<g id="edge4" class="edge"><title>Node3&#45;&gt;Node4</title>
<path fill="none" stroke="midnightblue" d="M119.699,-56.324C110.682,-48.3414 97.094,-36.3128 86.182,-26.6529"/>
<polygon fill="midnightblue" stroke="midnightblue" points="88.2866,-23.8416 78.479,-19.8339 83.6467,-29.083 88.2866,-23.8416"/>
</g>
<!-- Node5 -->
<g id="node6" class="node"><title>Node5</title>
<polygon fill="white" stroke="#bfbfbf" points="135.5,-0.5 135.5,-19.5 247.5,-19.5 247.5,-0.5 135.5,-0.5"/>
<text text-anchor="middle" x="191.5" y="-7.5" font-family="Helvetica,sans-Serif" font-size="10.00">MooseVariableBase.h</text>
</g>
<!-- Node3&#45;&gt;Node5 -->
<g id="edge5" class="edge"><title>Node3&#45;&gt;Node5</title>
<path fill="none" stroke="midnightblue" d="M139.461,-56.324C148.627,-48.3414 162.437,-36.3128 173.528,-26.6529"/>
<polygon fill="midnightblue" stroke="midnightblue" points="176.115,-29.041 181.357,-19.8339 171.518,-23.7624 176.115,-29.041"/>
</g>
</g>
</svg>
