<?xml version="1.0" encoding="UTF-8" standalone="no"?>
<!DOCTYPE svg PUBLIC "-//W3C//DTD SVG 1.1//EN"
 "http://www.w3.org/Graphics/SVG/1.1/DTD/svg11.dtd">
<!-- Generated by graphviz version 2.38.0 (20140413.2041)
 -->
<!-- Title: include/postprocessors/DivisionPostprocessor.h Pages: 1 -->
<svg width="272pt" height="106pt"
 viewBox="0.00 0.00 271.50 106.00" xmlns="http://www.w3.org/2000/svg" xmlns:xlink="http://www.w3.org/1999/xlink">
<g id="graph0" class="graph" transform="scale(1 1) rotate(0) translate(4 102)">
<title>include/postprocessors/DivisionPostprocessor.h</title>
<polygon fill="white" stroke="none" points="-4,4 -4,-102 267.5,-102 267.5,4 -4,4"/>
<!-- Node2 -->
<g id="node1" class="node"><title>Node2</title>
<polygon fill="#bfbfbf" stroke="black" points="65.5,-67.5 65.5,-97.5 191.5,-97.5 191.5,-67.5 65.5,-67.5"/>
<text text-anchor="start" x="73.5" y="-85.5" font-family="Helvetica,sans-Serif" font-size="10.00">include/postprocessors</text>
<text text-anchor="middle" x="128.5" y="-74.5" font-family="Helvetica,sans-Serif" font-size="10.00">/DivisionPostprocessor.h</text>
</g>
<!-- Node3 -->
<g id="node2" class="node"><title>Node3</title>
<g id="a_node2"><a xlink:href="_moltres_app_8_c.html" target="_top" xlink:title="src/base/MoltresApp.C">
<polygon fill="white" stroke="black" points="0,-6 0,-25 117,-25 117,-6 0,-6"/>
<text text-anchor="middle" x="58.5" y="-13" font-family="Helvetica,sans-Serif" font-size="10.00">src/base/MoltresApp.C</text>
</a>
</g>
</g>
<!-- Node2&#45;&gt;Node3 -->
<g id="edge1" class="edge"><title>Node2&#45;&gt;Node3</title>
<path fill="none" stroke="midnightblue" d="M105.707,-60.335C92.855,-48.401 77.4925,-34.1359 67.8633,-25.1945"/>
<polygon fill="midnightblue" stroke="midnightblue" points="103.601,-63.1562 113.311,-67.396 108.365,-58.0266 103.601,-63.1562"/>
</g>
<!-- Node4 -->
<g id="node3" class="node"><title>Node4</title>
<g id="a_node3"><a xlink:href="_division_postprocessor_8_c.html" target="_top" xlink:title="src/postprocessors\l/DivisionPostprocessor.C">
<polygon fill="white" stroke="black" points="135.5,-0.5 135.5,-30.5 263.5,-30.5 263.5,-0.5 135.5,-0.5"/>
<text text-anchor="start" x="143.5" y="-18.5" font-family="Helvetica,sans-Serif" font-size="10.00">src/postprocessors</text>
<text text-anchor="middle" x="199.5" y="-7.5" font-family="Helvetica,sans-Serif" font-size="10.00">/DivisionPostprocessor.C</text>
</a>
</g>
</g>
<!-- Node2&#45;&gt;Node4 -->
<g id="edge2" class="edge"><title>Node2&#45;&gt;Node4</title>
<path fill="none" stroke="midnightblue" d="M151.332,-60.5978C162.052,-50.7831 174.547,-39.3442 184.124,-30.5765"/>
<polygon fill="midnightblue" stroke="midnightblue" points="148.918,-58.0618 143.906,-67.396 153.645,-63.225 148.918,-58.0618"/>
</g>
</g>
</svg>
