<?xml version="1.0" encoding="UTF-8" standalone="no"?>
<!DOCTYPE svg PUBLIC "-//W3C//DTD SVG 1.1//EN"
 "http://www.w3.org/Graphics/SVG/1.1/DTD/svg11.dtd">
<!-- Generated by graphviz version 2.38.0 (20140413.2041)
 -->
<!-- Title: src/postprocessors/ElementL2Diff.C Pages: 1 -->
<svg width="199pt" height="151pt"
 viewBox="0.00 0.00 199.00 151.00" xmlns="http://www.w3.org/2000/svg" xmlns:xlink="http://www.w3.org/1999/xlink">
<g id="graph0" class="graph" transform="scale(1 1) rotate(0) translate(4 147)">
<title>src/postprocessors/ElementL2Diff.C</title>
<polygon fill="white" stroke="none" points="-4,4 -4,-147 195,-147 195,4 -4,4"/>
<!-- Node0 -->
<g id="node1" class="node"><title>Node0</title>
<polygon fill="#bfbfbf" stroke="black" points="45.5,-112.5 45.5,-142.5 145.5,-142.5 145.5,-112.5 45.5,-112.5"/>
<text text-anchor="start" x="53.5" y="-130.5" font-family="Helvetica,sans-Serif" font-size="10.00">src/postprocessors</text>
<text text-anchor="middle" x="95.5" y="-119.5" font-family="Helvetica,sans-Serif" font-size="10.00">/ElementL2Diff.C</text>
</g>
<!-- Node1 -->
<g id="node2" class="node"><title>Node1</title>
<g id="a_node2"><a xlink:href="_element_l2_diff_8h.html" target="_top" xlink:title="ElementL2Diff.h">
<polygon fill="white" stroke="black" points="52,-56.5 52,-75.5 139,-75.5 139,-56.5 52,-56.5"/>
<text text-anchor="middle" x="95.5" y="-63.5" font-family="Helvetica,sans-Serif" font-size="10.00">ElementL2Diff.h</text>
</a>
</g>
</g>
<!-- Node0&#45;&gt;Node1 -->
<g id="edge1" class="edge"><title>Node0&#45;&gt;Node1</title>
<path fill="none" stroke="midnightblue" d="M95.5,-112.399C95.5,-104.466 95.5,-94.458 95.5,-85.8583"/>
<polygon fill="midnightblue" stroke="midnightblue" points="99.0001,-85.6577 95.5,-75.6578 92.0001,-85.6578 99.0001,-85.6577"/>
</g>
<!-- Node2 -->
<g id="node3" class="node"><title>Node2</title>
<polygon fill="white" stroke="#bfbfbf" points="0,-0.5 0,-19.5 191,-19.5 191,-0.5 0,-0.5"/>
<text text-anchor="middle" x="95.5" y="-7.5" font-family="Helvetica,sans-Serif" font-size="10.00">ElementIntegralVariablePostprocessor.h</text>
</g>
<!-- Node1&#45;&gt;Node2 -->
<g id="edge2" class="edge"><title>Node1&#45;&gt;Node2</title>
<path fill="none" stroke="midnightblue" d="M95.5,-56.083C95.5,-49.0059 95.5,-38.8611 95.5,-29.9865"/>
<polygon fill="midnightblue" stroke="midnightblue" points="99.0001,-29.751 95.5,-19.7511 92.0001,-29.7511 99.0001,-29.751"/>
</g>
</g>
</svg>
