<?xml version="1.0" encoding="UTF-8" standalone="no"?>
<!DOCTYPE svg PUBLIC "-//W3C//DTD SVG 1.1//EN"
 "http://www.w3.org/Graphics/SVG/1.1/DTD/svg11.dtd">
<!-- Generated by graphviz version 2.38.0 (20140413.2041)
 -->
<!-- Title: include/postprocessors/ElmIntegTotFissNtsPostprocessor.h Pages: 1 -->
<svg width="310pt" height="95pt"
 viewBox="0.00 0.00 310.00 95.00" xmlns="http://www.w3.org/2000/svg" xmlns:xlink="http://www.w3.org/1999/xlink">
<g id="graph0" class="graph" transform="scale(1 1) rotate(0) translate(4 91)">
<title>include/postprocessors/ElmIntegTotFissNtsPostprocessor.h</title>
<polygon fill="white" stroke="none" points="-4,4 -4,-91 306,-91 306,4 -4,4"/>
<!-- Node0 -->
<g id="node1" class="node"><title>Node0</title>
<polygon fill="#bfbfbf" stroke="black" points="68.5,-56.5 68.5,-86.5 247.5,-86.5 247.5,-56.5 68.5,-56.5"/>
<text text-anchor="start" x="76.5" y="-74.5" font-family="Helvetica,sans-Serif" font-size="10.00">include/postprocessors</text>
<text text-anchor="middle" x="158" y="-63.5" font-family="Helvetica,sans-Serif" font-size="10.00">/ElmIntegTotFissNtsPostprocessor.h</text>
</g>
<!-- Node1 -->
<g id="node2" class="node"><title>Node1</title>
<polygon fill="white" stroke="#bfbfbf" points="0,-0.5 0,-19.5 156,-19.5 156,-0.5 0,-0.5"/>
<text text-anchor="middle" x="78" y="-7.5" font-family="Helvetica,sans-Serif" font-size="10.00">ElementIntegralPostprocessor.h</text>
</g>
<!-- Node0&#45;&gt;Node1 -->
<g id="edge1" class="edge"><title>Node0&#45;&gt;Node1</title>
<path fill="none" stroke="midnightblue" d="M139.041,-56.3993C126.577,-47.1293 110.303,-35.0254 97.6933,-25.6469"/>
<polygon fill="midnightblue" stroke="midnightblue" points="99.7535,-22.8173 89.6407,-19.6578 95.576,-28.4341 99.7535,-22.8173"/>
</g>
<!-- Node2 -->
<g id="node3" class="node"><title>Node2</title>
<polygon fill="white" stroke="#bfbfbf" points="174,-0.5 174,-19.5 302,-19.5 302,-0.5 174,-0.5"/>
<text text-anchor="middle" x="238" y="-7.5" font-family="Helvetica,sans-Serif" font-size="10.00">MooseVariableInterface.h</text>
</g>
<!-- Node0&#45;&gt;Node2 -->
<g id="edge2" class="edge"><title>Node0&#45;&gt;Node2</title>
<path fill="none" stroke="midnightblue" d="M176.959,-56.3993C189.423,-47.1293 205.697,-35.0254 218.307,-25.6469"/>
<polygon fill="midnightblue" stroke="midnightblue" points="220.424,-28.4341 226.359,-19.6578 216.247,-22.8173 220.424,-28.4341"/>
</g>
</g>
</svg>
