<?xml version="1.0" encoding="UTF-8" standalone="no"?>
<!DOCTYPE svg PUBLIC "-//W3C//DTD SVG 1.1//EN"
 "http://www.w3.org/Graphics/SVG/1.1/DTD/svg11.dtd">
<!-- Generated by graphviz version 2.38.0 (20140413.2041)
 -->
<!-- Title: include/auxkernels/FissionHeatSourceAux.h Pages: 1 -->
<svg width="280pt" height="106pt"
 viewBox="0.00 0.00 279.50 106.00" xmlns="http://www.w3.org/2000/svg" xmlns:xlink="http://www.w3.org/1999/xlink">
<g id="graph0" class="graph" transform="scale(1 1) rotate(0) translate(4 102)">
<title>include/auxkernels/FissionHeatSourceAux.h</title>
<polygon fill="white" stroke="none" points="-4,4 -4,-102 275.5,-102 275.5,4 -4,4"/>
<!-- Node2 -->
<g id="node1" class="node"><title>Node2</title>
<polygon fill="#bfbfbf" stroke="black" points="76,-67.5 76,-97.5 204,-97.5 204,-67.5 76,-67.5"/>
<text text-anchor="start" x="84" y="-85.5" font-family="Helvetica,sans-Serif" font-size="10.00">include/auxkernels</text>
<text text-anchor="middle" x="140" y="-74.5" font-family="Helvetica,sans-Serif" font-size="10.00">/FissionHeatSourceAux.h</text>
</g>
<!-- Node3 -->
<g id="node2" class="node"><title>Node3</title>
<g id="a_node2"><a xlink:href="_fission_heat_source_aux_8_c.html" target="_top" xlink:title="src/auxkernels/FissionHeat\lSourceAux.C">
<polygon fill="white" stroke="black" points="0,-0.5 0,-30.5 136,-30.5 136,-0.5 0,-0.5"/>
<text text-anchor="start" x="8" y="-18.5" font-family="Helvetica,sans-Serif" font-size="10.00">src/auxkernels/FissionHeat</text>
<text text-anchor="middle" x="68" y="-7.5" font-family="Helvetica,sans-Serif" font-size="10.00">SourceAux.C</text>
</a>
</g>
</g>
<!-- Node2&#45;&gt;Node3 -->
<g id="edge1" class="edge"><title>Node2&#45;&gt;Node3</title>
<path fill="none" stroke="midnightblue" d="M116.847,-60.5978C105.975,-50.7831 93.3043,-39.3442 83.5924,-30.5765"/>
<polygon fill="midnightblue" stroke="midnightblue" points="114.609,-63.2929 124.377,-67.396 119.3,-58.097 114.609,-63.2929"/>
</g>
<!-- Node4 -->
<g id="node3" class="node"><title>Node4</title>
<g id="a_node3"><a xlink:href="_moltres_app_8_c.html" target="_top" xlink:title="src/base/MoltresApp.C">
<polygon fill="white" stroke="black" points="154.5,-6 154.5,-25 271.5,-25 271.5,-6 154.5,-6"/>
<text text-anchor="middle" x="213" y="-13" font-family="Helvetica,sans-Serif" font-size="10.00">src/base/MoltresApp.C</text>
</a>
</g>
</g>
<!-- Node2&#45;&gt;Node4 -->
<g id="edge2" class="edge"><title>Node2&#45;&gt;Node4</title>
<path fill="none" stroke="midnightblue" d="M163.391,-60.6722C176.87,-48.6707 193.099,-34.2203 203.235,-25.1945"/>
<polygon fill="midnightblue" stroke="midnightblue" points="160.981,-58.132 155.84,-67.396 165.636,-63.3599 160.981,-58.132"/>
</g>
</g>
</svg>
