<?xml version="1.0" encoding="UTF-8" standalone="no"?>
<!DOCTYPE svg PUBLIC "-//W3C//DTD SVG 1.1//EN"
 "http://www.w3.org/Graphics/SVG/1.1/DTD/svg11.dtd">
<!-- Generated by graphviz version 2.38.0 (20140413.2041)
 -->
<!-- Title: src/kernels/GammaHeatSource.C Pages: 1 -->
<svg width="172pt" height="140pt"
 viewBox="0.00 0.00 172.00 140.00" xmlns="http://www.w3.org/2000/svg" xmlns:xlink="http://www.w3.org/1999/xlink">
<g id="graph0" class="graph" transform="scale(1 1) rotate(0) translate(4 136)">
<title>src/kernels/GammaHeatSource.C</title>
<polygon fill="white" stroke="none" points="-4,4 -4,-136 168,-136 168,4 -4,4"/>
<!-- Node0 -->
<g id="node1" class="node"><title>Node0</title>
<polygon fill="#bfbfbf" stroke="black" points="0,-112.5 0,-131.5 164,-131.5 164,-112.5 0,-112.5"/>
<text text-anchor="middle" x="82" y="-119.5" font-family="Helvetica,sans-Serif" font-size="10.00">src/kernels/GammaHeatSource.C</text>
</g>
<!-- Node1 -->
<g id="node2" class="node"><title>Node1</title>
<g id="a_node2"><a xlink:href="_gamma_heat_source_8h.html" target="_top" xlink:title="GammaHeatSource.h">
<polygon fill="white" stroke="black" points="26.5,-56.5 26.5,-75.5 137.5,-75.5 137.5,-56.5 26.5,-56.5"/>
<text text-anchor="middle" x="82" y="-63.5" font-family="Helvetica,sans-Serif" font-size="10.00">GammaHeatSource.h</text>
</a>
</g>
</g>
<!-- Node0&#45;&gt;Node1 -->
<g id="edge1" class="edge"><title>Node0&#45;&gt;Node1</title>
<path fill="none" stroke="midnightblue" d="M82,-112.083C82,-105.006 82,-94.8611 82,-85.9865"/>
<polygon fill="midnightblue" stroke="midnightblue" points="85.5001,-85.751 82,-75.7511 78.5001,-85.7511 85.5001,-85.751"/>
</g>
<!-- Node2 -->
<g id="node3" class="node"><title>Node2</title>
<polygon fill="white" stroke="#bfbfbf" points="55.5,-0.5 55.5,-19.5 108.5,-19.5 108.5,-0.5 55.5,-0.5"/>
<text text-anchor="middle" x="82" y="-7.5" font-family="Helvetica,sans-Serif" font-size="10.00">Kernel.h</text>
</g>
<!-- Node1&#45;&gt;Node2 -->
<g id="edge2" class="edge"><title>Node1&#45;&gt;Node2</title>
<path fill="none" stroke="midnightblue" d="M82,-56.083C82,-49.0059 82,-38.8611 82,-29.9865"/>
<polygon fill="midnightblue" stroke="midnightblue" points="85.5001,-29.751 82,-19.7511 78.5001,-29.7511 85.5001,-29.751"/>
</g>
</g>
</svg>
