<?xml version="1.0" encoding="UTF-8" standalone="no"?>
<!DOCTYPE svg PUBLIC "-//W3C//DTD SVG 1.1//EN"
 "http://www.w3.org/Graphics/SVG/1.1/DTD/svg11.dtd">
<!-- Generated by graphviz version 2.38.0 (20140413.2041)
 -->
<!-- Title: src/materials/GenericMoltresMaterial.C Pages: 1 -->
<svg width="419pt" height="151pt"
 viewBox="0.00 0.00 419.00 151.00" xmlns="http://www.w3.org/2000/svg" xmlns:xlink="http://www.w3.org/1999/xlink">
<g id="graph0" class="graph" transform="scale(1 1) rotate(0) translate(4 147)">
<title>src/materials/GenericMoltresMaterial.C</title>
<polygon fill="white" stroke="none" points="-4,4 -4,-147 415,-147 415,4 -4,4"/>
<!-- Node0 -->
<g id="node1" class="node"><title>Node0</title>
<polygon fill="#bfbfbf" stroke="black" points="191.5,-112.5 191.5,-142.5 333.5,-142.5 333.5,-112.5 191.5,-112.5"/>
<text text-anchor="start" x="199.5" y="-130.5" font-family="Helvetica,sans-Serif" font-size="10.00">src/materials/GenericMoltres</text>
<text text-anchor="middle" x="262.5" y="-119.5" font-family="Helvetica,sans-Serif" font-size="10.00">Material.C</text>
</g>
<!-- Node1 -->
<g id="node2" class="node"><title>Node1</title>
<g id="a_node2"><a xlink:href="_generic_moltres_material_8h.html" target="_top" xlink:title="GenericMoltresMaterial.h">
<polygon fill="white" stroke="black" points="141,-56.5 141,-75.5 266,-75.5 266,-56.5 141,-56.5"/>
<text text-anchor="middle" x="203.5" y="-63.5" font-family="Helvetica,sans-Serif" font-size="10.00">GenericMoltresMaterial.h</text>
</a>
</g>
</g>
<!-- Node0&#45;&gt;Node1 -->
<g id="edge1" class="edge"><title>Node0&#45;&gt;Node1</title>
<path fill="none" stroke="midnightblue" d="M248.518,-112.399C239.768,-103.575 228.471,-92.1827 219.383,-83.0178"/>
<polygon fill="midnightblue" stroke="midnightblue" points="221.612,-80.2942 212.085,-75.6578 216.641,-85.2231 221.612,-80.2942"/>
</g>
<!-- Node5 -->
<g id="node6" class="node"><title>Node5</title>
<polygon fill="white" stroke="#bfbfbf" points="284.5,-56.5 284.5,-75.5 358.5,-75.5 358.5,-56.5 284.5,-56.5"/>
<text text-anchor="middle" x="321.5" y="-63.5" font-family="Helvetica,sans-Serif" font-size="10.00">MooseUtils.h</text>
</g>
<!-- Node0&#45;&gt;Node5 -->
<g id="edge5" class="edge"><title>Node0&#45;&gt;Node5</title>
<path fill="none" stroke="midnightblue" d="M276.482,-112.399C285.232,-103.575 296.529,-92.1827 305.617,-83.0178"/>
<polygon fill="midnightblue" stroke="midnightblue" points="308.359,-85.2231 312.915,-75.6578 303.388,-80.2942 308.359,-85.2231"/>
</g>
<!-- Node2 -->
<g id="node3" class="node"><title>Node2</title>
<polygon fill="white" stroke="#bfbfbf" points="0,-0.5 0,-19.5 133,-19.5 133,-0.5 0,-0.5"/>
<text text-anchor="middle" x="66.5" y="-7.5" font-family="Helvetica,sans-Serif" font-size="10.00">GenericConstantMaterial.h</text>
</g>
<!-- Node1&#45;&gt;Node2 -->
<g id="edge2" class="edge"><title>Node1&#45;&gt;Node2</title>
<path fill="none" stroke="midnightblue" d="M181.792,-56.4435C159.145,-47.5171 123.428,-33.4387 97.7482,-23.3168"/>
<polygon fill="midnightblue" stroke="midnightblue" points="98.6934,-19.9273 88.1065,-19.5164 96.1264,-26.4397 98.6934,-19.9273"/>
</g>
<!-- Node3 -->
<g id="node4" class="node"><title>Node3</title>
<polygon fill="white" stroke="#bfbfbf" points="151,-0.5 151,-19.5 256,-19.5 256,-0.5 151,-0.5"/>
<text text-anchor="middle" x="203.5" y="-7.5" font-family="Helvetica,sans-Serif" font-size="10.00">SplineInterpolation.h</text>
</g>
<!-- Node1&#45;&gt;Node3 -->
<g id="edge3" class="edge"><title>Node1&#45;&gt;Node3</title>
<path fill="none" stroke="midnightblue" d="M203.5,-56.083C203.5,-49.0059 203.5,-38.8611 203.5,-29.9865"/>
<polygon fill="midnightblue" stroke="midnightblue" points="207,-29.751 203.5,-19.7511 200,-29.7511 207,-29.751"/>
</g>
<!-- Node4 -->
<g id="node5" class="node"><title>Node4</title>
<polygon fill="white" stroke="#bfbfbf" points="274,-0.5 274,-19.5 411,-19.5 411,-0.5 274,-0.5"/>
<text text-anchor="middle" x="342.5" y="-7.5" font-family="Helvetica,sans-Serif" font-size="10.00">BicubicSplineInterpolation.h</text>
</g>
<!-- Node1&#45;&gt;Node4 -->
<g id="edge4" class="edge"><title>Node1&#45;&gt;Node4</title>
<path fill="none" stroke="midnightblue" d="M225.525,-56.4435C248.604,-47.4776 285.062,-33.314 311.141,-23.1827"/>
<polygon fill="midnightblue" stroke="midnightblue" points="312.524,-26.4002 320.578,-19.5164 309.989,-19.8753 312.524,-26.4002"/>
</g>
</g>
</svg>
