<?xml version="1.0" encoding="UTF-8" standalone="no"?>
<!DOCTYPE svg PUBLIC "-//W3C//DTD SVG 1.1//EN"
 "http://www.w3.org/Graphics/SVG/1.1/DTD/svg11.dtd">
<!-- Generated by graphviz version 2.38.0 (20140413.2041)
 -->
<!-- Title: include/materials/GenericMoltresMaterial.h Pages: 1 -->
<svg width="419pt" height="95pt"
 viewBox="0.00 0.00 419.00 95.00" xmlns="http://www.w3.org/2000/svg" xmlns:xlink="http://www.w3.org/1999/xlink">
<g id="graph0" class="graph" transform="scale(1 1) rotate(0) translate(4 91)">
<title>include/materials/GenericMoltresMaterial.h</title>
<polygon fill="white" stroke="none" points="-4,4 -4,-91 415,-91 415,4 -4,4"/>
<!-- Node0 -->
<g id="node1" class="node"><title>Node0</title>
<polygon fill="#bfbfbf" stroke="black" points="140,-56.5 140,-86.5 267,-86.5 267,-56.5 140,-56.5"/>
<text text-anchor="start" x="148" y="-74.5" font-family="Helvetica,sans-Serif" font-size="10.00">include/materials/Generic</text>
<text text-anchor="middle" x="203.5" y="-63.5" font-family="Helvetica,sans-Serif" font-size="10.00">MoltresMaterial.h</text>
</g>
<!-- Node1 -->
<g id="node2" class="node"><title>Node1</title>
<polygon fill="white" stroke="#bfbfbf" points="0,-0.5 0,-19.5 133,-19.5 133,-0.5 0,-0.5"/>
<text text-anchor="middle" x="66.5" y="-7.5" font-family="Helvetica,sans-Serif" font-size="10.00">GenericConstantMaterial.h</text>
</g>
<!-- Node0&#45;&gt;Node1 -->
<g id="edge1" class="edge"><title>Node0&#45;&gt;Node1</title>
<path fill="none" stroke="midnightblue" d="M171.033,-56.3993C148.149,-46.4608 117.766,-33.2649 95.6556,-23.6625"/>
<polygon fill="midnightblue" stroke="midnightblue" points="97.0013,-20.4311 86.4347,-19.6578 94.2127,-26.8517 97.0013,-20.4311"/>
</g>
<!-- Node2 -->
<g id="node3" class="node"><title>Node2</title>
<polygon fill="white" stroke="#bfbfbf" points="151,-0.5 151,-19.5 256,-19.5 256,-0.5 151,-0.5"/>
<text text-anchor="middle" x="203.5" y="-7.5" font-family="Helvetica,sans-Serif" font-size="10.00">SplineInterpolation.h</text>
</g>
<!-- Node0&#45;&gt;Node2 -->
<g id="edge2" class="edge"><title>Node0&#45;&gt;Node2</title>
<path fill="none" stroke="midnightblue" d="M203.5,-56.3993C203.5,-48.4664 203.5,-38.458 203.5,-29.8583"/>
<polygon fill="midnightblue" stroke="midnightblue" points="207,-29.6577 203.5,-19.6578 200,-29.6578 207,-29.6577"/>
</g>
<!-- Node3 -->
<g id="node4" class="node"><title>Node3</title>
<polygon fill="white" stroke="#bfbfbf" points="274,-0.5 274,-19.5 411,-19.5 411,-0.5 274,-0.5"/>
<text text-anchor="middle" x="342.5" y="-7.5" font-family="Helvetica,sans-Serif" font-size="10.00">BicubicSplineInterpolation.h</text>
</g>
<!-- Node0&#45;&gt;Node3 -->
<g id="edge3" class="edge"><title>Node0&#45;&gt;Node3</title>
<path fill="none" stroke="midnightblue" d="M236.441,-56.3993C259.659,-46.4608 290.486,-33.2649 312.919,-23.6625"/>
<polygon fill="midnightblue" stroke="midnightblue" points="314.458,-26.8106 322.274,-19.6578 311.704,-20.3754 314.458,-26.8106"/>
</g>
</g>
</svg>
