<?xml version="1.0" encoding="UTF-8" standalone="no"?>
<!DOCTYPE svg PUBLIC "-//W3C//DTD SVG 1.1//EN"
 "http://www.w3.org/Graphics/SVG/1.1/DTD/svg11.dtd">
<!-- Generated by graphviz version 2.38.0 (20140413.2041)
 -->
<!-- Title: include/kernels/GroupDiffusion.h Pages: 1 -->
<svg width="286pt" height="84pt"
 viewBox="0.00 0.00 286.00 84.00" xmlns="http://www.w3.org/2000/svg" xmlns:xlink="http://www.w3.org/1999/xlink">
<g id="graph0" class="graph" transform="scale(1 1) rotate(0) translate(4 80)">
<title>include/kernels/GroupDiffusion.h</title>
<polygon fill="white" stroke="none" points="-4,4 -4,-80 282,-80 282,4 -4,4"/>
<!-- Node5 -->
<g id="node1" class="node"><title>Node5</title>
<polygon fill="#bfbfbf" stroke="black" points="53.5,-56.5 53.5,-75.5 211.5,-75.5 211.5,-56.5 53.5,-56.5"/>
<text text-anchor="middle" x="132.5" y="-63.5" font-family="Helvetica,sans-Serif" font-size="10.00">include/kernels/GroupDiffusion.h</text>
</g>
<!-- Node6 -->
<g id="node2" class="node"><title>Node6</title>
<g id="a_node2"><a xlink:href="_moltres_app_8_c.html" target="_top" xlink:title="src/base/MoltresApp.C">
<polygon fill="white" stroke="black" points="0,-0.5 0,-19.5 117,-19.5 117,-0.5 0,-0.5"/>
<text text-anchor="middle" x="58.5" y="-7.5" font-family="Helvetica,sans-Serif" font-size="10.00">src/base/MoltresApp.C</text>
</a>
</g>
</g>
<!-- Node5&#45;&gt;Node6 -->
<g id="edge1" class="edge"><title>Node5&#45;&gt;Node6</title>
<path fill="none" stroke="midnightblue" d="M112.466,-50.3804C99.0909,-40.6204 81.9412,-28.1057 70.6057,-19.8339"/>
<polygon fill="midnightblue" stroke="midnightblue" points="110.47,-53.2565 120.611,-56.324 114.596,-47.602 110.47,-53.2565"/>
</g>
<!-- Node7 -->
<g id="node3" class="node"><title>Node7</title>
<g id="a_node3"><a xlink:href="_group_diffusion_8_c.html" target="_top" xlink:title="src/kernels/GroupDiffusion.C">
<polygon fill="white" stroke="black" points="135,-0.5 135,-19.5 278,-19.5 278,-0.5 135,-0.5"/>
<text text-anchor="middle" x="206.5" y="-7.5" font-family="Helvetica,sans-Serif" font-size="10.00">src/kernels/GroupDiffusion.C</text>
</a>
</g>
</g>
<!-- Node5&#45;&gt;Node7 -->
<g id="edge2" class="edge"><title>Node5&#45;&gt;Node7</title>
<path fill="none" stroke="midnightblue" d="M152.534,-50.3804C165.909,-40.6204 183.059,-28.1057 194.394,-19.8339"/>
<polygon fill="midnightblue" stroke="midnightblue" points="150.404,-47.602 144.389,-56.324 154.53,-53.2565 150.404,-47.602"/>
</g>
</g>
</svg>
