<?xml version="1.0" encoding="UTF-8" standalone="no"?>
<!DOCTYPE svg PUBLIC "-//W3C//DTD SVG 1.1//EN"
 "http://www.w3.org/Graphics/SVG/1.1/DTD/svg11.dtd">
<!-- Generated by graphviz version 2.38.0 (20140413.2041)
 -->
<!-- Title: include/postprocessors/IntegralNewVariablePostprocessor.h Pages: 1 -->
<svg width="503pt" height="151pt"
 viewBox="0.00 0.00 503.00 151.00" xmlns="http://www.w3.org/2000/svg" xmlns:xlink="http://www.w3.org/1999/xlink">
<g id="graph0" class="graph" transform="scale(1 1) rotate(0) translate(4 147)">
<title>include/postprocessors/IntegralNewVariablePostprocessor.h</title>
<polygon fill="white" stroke="none" points="-4,4 -4,-147 499,-147 499,4 -4,4"/>
<!-- Node0 -->
<g id="node1" class="node"><title>Node0</title>
<polygon fill="#bfbfbf" stroke="black" points="148.5,-112.5 148.5,-142.5 327.5,-142.5 327.5,-112.5 148.5,-112.5"/>
<text text-anchor="start" x="156.5" y="-130.5" font-family="Helvetica,sans-Serif" font-size="10.00">include/postprocessors</text>
<text text-anchor="middle" x="238" y="-119.5" font-family="Helvetica,sans-Serif" font-size="10.00">/IntegralNewVariablePostprocessor.h</text>
</g>
<!-- Node1 -->
<g id="node2" class="node"><title>Node1</title>
<polygon fill="white" stroke="#bfbfbf" points="0,-56.5 0,-75.5 156,-75.5 156,-56.5 0,-56.5"/>
<text text-anchor="middle" x="78" y="-63.5" font-family="Helvetica,sans-Serif" font-size="10.00">ElementIntegralPostprocessor.h</text>
</g>
<!-- Node0&#45;&gt;Node1 -->
<g id="edge1" class="edge"><title>Node0&#45;&gt;Node1</title>
<path fill="none" stroke="midnightblue" d="M200.082,-112.399C172.877,-102.283 136.596,-88.7905 110.67,-79.1493"/>
<polygon fill="midnightblue" stroke="midnightblue" points="111.874,-75.8629 101.281,-75.6578 109.434,-82.4239 111.874,-75.8629"/>
</g>
<!-- Node2 -->
<g id="node3" class="node"><title>Node2</title>
<polygon fill="white" stroke="#bfbfbf" points="174,-56.5 174,-75.5 302,-75.5 302,-56.5 174,-56.5"/>
<text text-anchor="middle" x="238" y="-63.5" font-family="Helvetica,sans-Serif" font-size="10.00">MooseVariableInterface.h</text>
</g>
<!-- Node0&#45;&gt;Node2 -->
<g id="edge2" class="edge"><title>Node0&#45;&gt;Node2</title>
<path fill="none" stroke="midnightblue" d="M238,-112.399C238,-104.466 238,-94.458 238,-85.8583"/>
<polygon fill="midnightblue" stroke="midnightblue" points="241.5,-85.6577 238,-75.6578 234.5,-85.6578 241.5,-85.6577"/>
</g>
<!-- Node3 -->
<g id="node4" class="node"><title>Node3</title>
<g id="a_node4"><a xlink:href="_scalar_transport_base_8h.html" target="_top" xlink:title="ScalarTransportBase.h">
<polygon fill="white" stroke="black" points="320,-56.5 320,-75.5 436,-75.5 436,-56.5 320,-56.5"/>
<text text-anchor="middle" x="378" y="-63.5" font-family="Helvetica,sans-Serif" font-size="10.00">ScalarTransportBase.h</text>
</a>
</g>
</g>
<!-- Node0&#45;&gt;Node3 -->
<g id="edge3" class="edge"><title>Node0&#45;&gt;Node3</title>
<path fill="none" stroke="midnightblue" d="M271.178,-112.399C294.563,-102.461 325.612,-89.2649 348.206,-79.6625"/>
<polygon fill="midnightblue" stroke="midnightblue" points="349.794,-82.7904 357.629,-75.6578 347.056,-76.3481 349.794,-82.7904"/>
</g>
<!-- Node4 -->
<g id="node5" class="node"><title>Node4</title>
<polygon fill="white" stroke="#bfbfbf" points="267.5,-0.5 267.5,-19.5 364.5,-19.5 364.5,-0.5 267.5,-0.5"/>
<text text-anchor="middle" x="316" y="-7.5" font-family="Helvetica,sans-Serif" font-size="10.00">InputParameters.h</text>
</g>
<!-- Node3&#45;&gt;Node4 -->
<g id="edge4" class="edge"><title>Node3&#45;&gt;Node4</title>
<path fill="none" stroke="midnightblue" d="M368.039,-56.324C358.873,-48.3414 345.063,-36.3128 333.972,-26.6529"/>
<polygon fill="midnightblue" stroke="midnightblue" points="335.982,-23.7624 326.143,-19.8339 331.385,-29.041 335.982,-23.7624"/>
</g>
<!-- Node5 -->
<g id="node6" class="node"><title>Node5</title>
<polygon fill="white" stroke="#bfbfbf" points="383,-0.5 383,-19.5 495,-19.5 495,-0.5 383,-0.5"/>
<text text-anchor="middle" x="439" y="-7.5" font-family="Helvetica,sans-Serif" font-size="10.00">MooseVariableBase.h</text>
</g>
<!-- Node3&#45;&gt;Node5 -->
<g id="edge5" class="edge"><title>Node3&#45;&gt;Node5</title>
<path fill="none" stroke="midnightblue" d="M387.801,-56.324C396.818,-48.3414 410.406,-36.3128 421.318,-26.6529"/>
<polygon fill="midnightblue" stroke="midnightblue" points="423.853,-29.083 429.021,-19.8339 419.213,-23.8416 423.853,-29.083"/>
</g>
</g>
</svg>
