<?xml version="1.0" encoding="UTF-8" standalone="no"?>
<!DOCTYPE svg PUBLIC "-//W3C//DTD SVG 1.1//EN"
 "http://www.w3.org/Graphics/SVG/1.1/DTD/svg11.dtd">
<!-- Generated by graphviz version 2.38.0 (20140413.2041)
 -->
<!-- Title: src/bcs/LinLogPenaltyDirichletBC.C Pages: 1 -->
<svg width="286pt" height="196pt"
 viewBox="0.00 0.00 285.50 196.00" xmlns="http://www.w3.org/2000/svg" xmlns:xlink="http://www.w3.org/1999/xlink">
<g id="graph0" class="graph" transform="scale(1 1) rotate(0) translate(4 192)">
<title>src/bcs/LinLogPenaltyDirichletBC.C</title>
<polygon fill="white" stroke="none" points="-4,4 -4,-192 281.5,-192 281.5,4 -4,4"/>
<!-- Node0 -->
<g id="node1" class="node"><title>Node0</title>
<polygon fill="#bfbfbf" stroke="black" points="72.5,-168.5 72.5,-187.5 246.5,-187.5 246.5,-168.5 72.5,-168.5"/>
<text text-anchor="middle" x="159.5" y="-175.5" font-family="Helvetica,sans-Serif" font-size="10.00">src/bcs/LinLogPenaltyDirichletBC.C</text>
</g>
<!-- Node1 -->
<g id="node2" class="node"><title>Node1</title>
<g id="a_node2"><a xlink:href="_lin_log_penalty_dirichlet_b_c_8h.html" target="_top" xlink:title="LinLogPenaltyDirichletBC.h">
<polygon fill="white" stroke="black" points="32,-112.5 32,-131.5 169,-131.5 169,-112.5 32,-112.5"/>
<text text-anchor="middle" x="100.5" y="-119.5" font-family="Helvetica,sans-Serif" font-size="10.00">LinLogPenaltyDirichletBC.h</text>
</a>
</g>
</g>
<!-- Node0&#45;&gt;Node1 -->
<g id="edge1" class="edge"><title>Node0&#45;&gt;Node1</title>
<path fill="none" stroke="midnightblue" d="M150.021,-168.324C141.299,-160.341 128.157,-148.313 117.602,-138.653"/>
<polygon fill="midnightblue" stroke="midnightblue" points="119.892,-136.004 110.152,-131.834 115.166,-141.167 119.892,-136.004"/>
</g>
<!-- Node6 -->
<g id="node7" class="node"><title>Node6</title>
<polygon fill="white" stroke="#bfbfbf" points="187.5,-112.5 187.5,-131.5 249.5,-131.5 249.5,-112.5 187.5,-112.5"/>
<text text-anchor="middle" x="218.5" y="-119.5" font-family="Helvetica,sans-Serif" font-size="10.00">Function.h</text>
</g>
<!-- Node0&#45;&gt;Node6 -->
<g id="edge6" class="edge"><title>Node0&#45;&gt;Node6</title>
<path fill="none" stroke="midnightblue" d="M168.979,-168.324C177.701,-160.341 190.843,-148.313 201.398,-138.653"/>
<polygon fill="midnightblue" stroke="midnightblue" points="203.834,-141.167 208.848,-131.834 199.108,-136.004 203.834,-141.167"/>
</g>
<!-- Node2 -->
<g id="node3" class="node"><title>Node2</title>
<polygon fill="white" stroke="#bfbfbf" points="0,-56.5 0,-75.5 83,-75.5 83,-56.5 0,-56.5"/>
<text text-anchor="middle" x="41.5" y="-63.5" font-family="Helvetica,sans-Serif" font-size="10.00">IntegratedBC.h</text>
</g>
<!-- Node1&#45;&gt;Node2 -->
<g id="edge2" class="edge"><title>Node1&#45;&gt;Node2</title>
<path fill="none" stroke="midnightblue" d="M91.0206,-112.324C82.2989,-104.341 69.1565,-92.3128 58.6022,-82.6529"/>
<polygon fill="midnightblue" stroke="midnightblue" points="60.8917,-80.0036 51.1519,-75.8339 56.1655,-85.1674 60.8917,-80.0036"/>
</g>
<!-- Node3 -->
<g id="node4" class="node"><title>Node3</title>
<g id="a_node4"><a xlink:href="_scalar_transport_base_8h.html" target="_top" xlink:title="ScalarTransportBase.h">
<polygon fill="white" stroke="black" points="101.5,-56.5 101.5,-75.5 217.5,-75.5 217.5,-56.5 101.5,-56.5"/>
<text text-anchor="middle" x="159.5" y="-63.5" font-family="Helvetica,sans-Serif" font-size="10.00">ScalarTransportBase.h</text>
</a>
</g>
</g>
<!-- Node1&#45;&gt;Node3 -->
<g id="edge3" class="edge"><title>Node1&#45;&gt;Node3</title>
<path fill="none" stroke="midnightblue" d="M109.979,-112.324C118.701,-104.341 131.843,-92.3128 142.398,-82.6529"/>
<polygon fill="midnightblue" stroke="midnightblue" points="144.834,-85.1674 149.848,-75.8339 140.108,-80.0036 144.834,-85.1674"/>
</g>
<!-- Node4 -->
<g id="node5" class="node"><title>Node4</title>
<polygon fill="white" stroke="#bfbfbf" points="50,-0.5 50,-19.5 147,-19.5 147,-0.5 50,-0.5"/>
<text text-anchor="middle" x="98.5" y="-7.5" font-family="Helvetica,sans-Serif" font-size="10.00">InputParameters.h</text>
</g>
<!-- Node3&#45;&gt;Node4 -->
<g id="edge4" class="edge"><title>Node3&#45;&gt;Node4</title>
<path fill="none" stroke="midnightblue" d="M149.699,-56.324C140.682,-48.3414 127.094,-36.3128 116.182,-26.6529"/>
<polygon fill="midnightblue" stroke="midnightblue" points="118.287,-23.8416 108.479,-19.8339 113.647,-29.083 118.287,-23.8416"/>
</g>
<!-- Node5 -->
<g id="node6" class="node"><title>Node5</title>
<polygon fill="white" stroke="#bfbfbf" points="165.5,-0.5 165.5,-19.5 277.5,-19.5 277.5,-0.5 165.5,-0.5"/>
<text text-anchor="middle" x="221.5" y="-7.5" font-family="Helvetica,sans-Serif" font-size="10.00">MooseVariableBase.h</text>
</g>
<!-- Node3&#45;&gt;Node5 -->
<g id="edge5" class="edge"><title>Node3&#45;&gt;Node5</title>
<path fill="none" stroke="midnightblue" d="M169.461,-56.324C178.627,-48.3414 192.437,-36.3128 203.528,-26.6529"/>
<polygon fill="midnightblue" stroke="midnightblue" points="206.115,-29.041 211.357,-19.8339 201.518,-23.7624 206.115,-29.041"/>
</g>
</g>
</svg>
