<?xml version="1.0" encoding="UTF-8" standalone="no"?>
<!DOCTYPE svg PUBLIC "-//W3C//DTD SVG 1.1//EN"
 "http://www.w3.org/Graphics/SVG/1.1/DTD/svg11.dtd">
<!-- Generated by graphviz version 2.38.0 (20140413.2041)
 -->
<!-- Title: include/bcs/MatDiffusionFluxBC.h Pages: 1 -->
<svg width="133pt" height="95pt"
 viewBox="0.00 0.00 133.00 95.00" xmlns="http://www.w3.org/2000/svg" xmlns:xlink="http://www.w3.org/1999/xlink">
<g id="graph0" class="graph" transform="scale(1 1) rotate(0) translate(4 91)">
<title>include/bcs/MatDiffusionFluxBC.h</title>
<polygon fill="white" stroke="none" points="-4,4 -4,-91 129,-91 129,4 -4,4"/>
<!-- Node0 -->
<g id="node1" class="node"><title>Node0</title>
<polygon fill="#bfbfbf" stroke="black" points="-7.10543e-15,-56.5 -7.10543e-15,-86.5 125,-86.5 125,-56.5 -7.10543e-15,-56.5"/>
<text text-anchor="start" x="8" y="-74.5" font-family="Helvetica,sans-Serif" font-size="10.00">include/bcs/MatDiffusion</text>
<text text-anchor="middle" x="62.5" y="-63.5" font-family="Helvetica,sans-Serif" font-size="10.00">FluxBC.h</text>
</g>
<!-- Node1 -->
<g id="node2" class="node"><title>Node1</title>
<polygon fill="white" stroke="#bfbfbf" points="21,-0.5 21,-19.5 104,-19.5 104,-0.5 21,-0.5"/>
<text text-anchor="middle" x="62.5" y="-7.5" font-family="Helvetica,sans-Serif" font-size="10.00">IntegratedBC.h</text>
</g>
<!-- Node0&#45;&gt;Node1 -->
<g id="edge1" class="edge"><title>Node0&#45;&gt;Node1</title>
<path fill="none" stroke="midnightblue" d="M62.5,-56.3993C62.5,-48.4664 62.5,-38.458 62.5,-29.8583"/>
<polygon fill="midnightblue" stroke="midnightblue" points="66.0001,-29.6577 62.5,-19.6578 59.0001,-29.6578 66.0001,-29.6577"/>
</g>
</g>
</svg>
