<?xml version="1.0" encoding="UTF-8" standalone="no"?>
<!DOCTYPE svg PUBLIC "-//W3C//DTD SVG 1.1//EN"
 "http://www.w3.org/Graphics/SVG/1.1/DTD/svg11.dtd">
<!-- Generated by graphviz version 2.38.0 (20140413.2041)
 -->
<!-- Title: include/auxkernels/MatDiffusionAux.h Pages: 1 -->
<svg width="282pt" height="106pt"
 viewBox="0.00 0.00 282.00 106.00" xmlns="http://www.w3.org/2000/svg" xmlns:xlink="http://www.w3.org/1999/xlink">
<g id="graph0" class="graph" transform="scale(1 1) rotate(0) translate(4 102)">
<title>include/auxkernels/MatDiffusionAux.h</title>
<polygon fill="white" stroke="none" points="-4,4 -4,-102 278,-102 278,4 -4,4"/>
<!-- Node3 -->
<g id="node1" class="node"><title>Node3</title>
<polygon fill="#bfbfbf" stroke="black" points="92,-67.5 92,-97.5 193,-97.5 193,-67.5 92,-67.5"/>
<text text-anchor="start" x="100" y="-85.5" font-family="Helvetica,sans-Serif" font-size="10.00">include/auxkernels</text>
<text text-anchor="middle" x="142.5" y="-74.5" font-family="Helvetica,sans-Serif" font-size="10.00">/MatDiffusionAux.h</text>
</g>
<!-- Node4 -->
<g id="node2" class="node"><title>Node4</title>
<g id="a_node2"><a xlink:href="_mat_diffusion_aux_8_c.html" target="_top" xlink:title="src/auxkernels/MatDiffusion\lAux.C">
<polygon fill="white" stroke="black" points="0,-0.5 0,-30.5 139,-30.5 139,-0.5 0,-0.5"/>
<text text-anchor="start" x="8" y="-18.5" font-family="Helvetica,sans-Serif" font-size="10.00">src/auxkernels/MatDiffusion</text>
<text text-anchor="middle" x="69.5" y="-7.5" font-family="Helvetica,sans-Serif" font-size="10.00">Aux.C</text>
</a>
</g>
</g>
<!-- Node3&#45;&gt;Node4 -->
<g id="edge1" class="edge"><title>Node3&#45;&gt;Node4</title>
<path fill="none" stroke="midnightblue" d="M119.025,-60.5978C108.003,-50.7831 95.1558,-39.3442 85.309,-30.5765"/>
<polygon fill="midnightblue" stroke="midnightblue" points="116.864,-63.3599 126.66,-67.396 121.519,-58.132 116.864,-63.3599"/>
</g>
<!-- Node5 -->
<g id="node3" class="node"><title>Node5</title>
<g id="a_node3"><a xlink:href="_moltres_app_8_c.html" target="_top" xlink:title="src/base/MoltresApp.C">
<polygon fill="white" stroke="black" points="157,-6 157,-25 274,-25 274,-6 157,-6"/>
<text text-anchor="middle" x="215.5" y="-13" font-family="Helvetica,sans-Serif" font-size="10.00">src/base/MoltresApp.C</text>
</a>
</g>
</g>
<!-- Node3&#45;&gt;Node5 -->
<g id="edge2" class="edge"><title>Node3&#45;&gt;Node5</title>
<path fill="none" stroke="midnightblue" d="M165.891,-60.6722C179.37,-48.6707 195.599,-34.2203 205.735,-25.1945"/>
<polygon fill="midnightblue" stroke="midnightblue" points="163.481,-58.132 158.34,-67.396 168.136,-63.3599 163.481,-58.132"/>
</g>
</g>
</svg>
