<?xml version="1.0" encoding="UTF-8" standalone="no"?>
<!DOCTYPE svg PUBLIC "-//W3C//DTD SVG 1.1//EN"
 "http://www.w3.org/Graphics/SVG/1.1/DTD/svg11.dtd">
<!-- Generated by graphviz version 2.38.0 (20140413.2041)
 -->
<!-- Title: src/base/MoltresApp.C Pages: 1 -->
<svg width="5861pt" height="207pt"
 viewBox="0.00 0.00 5860.50 207.00" xmlns="http://www.w3.org/2000/svg" xmlns:xlink="http://www.w3.org/1999/xlink">
<g id="graph0" class="graph" transform="scale(1 1) rotate(0) translate(4 203)">
<title>src/base/MoltresApp.C</title>
<polygon fill="white" stroke="none" points="-4,4 -4,-203 5856.5,-203 5856.5,4 -4,4"/>
<!-- Node0 -->
<g id="node1" class="node"><title>Node0</title>
<polygon fill="#bfbfbf" stroke="black" points="2786.5,-179.5 2786.5,-198.5 2903.5,-198.5 2903.5,-179.5 2786.5,-179.5"/>
<text text-anchor="middle" x="2845" y="-186.5" font-family="Helvetica,sans-Serif" font-size="10.00">src/base/MoltresApp.C</text>
</g>
<!-- Node1 -->
<g id="node2" class="node"><title>Node1</title>
<g id="a_node2"><a xlink:href="_moltres_app_8h.html" target="_top" xlink:title="MoltresApp.h">
<polygon fill="white" stroke="black" points="0,-118 0,-137 74,-137 74,-118 0,-118"/>
<text text-anchor="middle" x="37" y="-125" font-family="Helvetica,sans-Serif" font-size="10.00">MoltresApp.h</text>
</a>
</g>
</g>
<!-- Node0&#45;&gt;Node1 -->
<g id="edge1" class="edge"><title>Node0&#45;&gt;Node1</title>
<path fill="none" stroke="midnightblue" d="M2786.41,-188.06C2411.71,-188.313 358.157,-187.638 83,-143 78.5083,-142.271 73.8506,-141.199 69.3,-139.961"/>
<polygon fill="midnightblue" stroke="midnightblue" points="70.1986,-136.576 59.6146,-137.057 68.188,-143.281 70.1986,-136.576"/>
</g>
<!-- Node3 -->
<g id="node4" class="node"><title>Node3</title>
<polygon fill="white" stroke="#bfbfbf" points="92,-118 92,-137 146,-137 146,-118 92,-118"/>
<text text-anchor="middle" x="119" y="-125" font-family="Helvetica,sans-Serif" font-size="10.00">Moose.h</text>
</g>
<!-- Node0&#45;&gt;Node3 -->
<g id="edge3" class="edge"><title>Node0&#45;&gt;Node3</title>
<path fill="none" stroke="midnightblue" d="M2786.38,-187.625C2405.04,-185.113 288.259,-169.987 155,-143 152.09,-142.411 149.116,-141.595 146.185,-140.648"/>
<polygon fill="midnightblue" stroke="midnightblue" points="147.138,-137.268 136.546,-137.06 144.697,-143.828 147.138,-137.268"/>
</g>
<!-- Node4 -->
<g id="node5" class="node"><title>Node4</title>
<polygon fill="white" stroke="#bfbfbf" points="164.5,-118 164.5,-137 239.5,-137 239.5,-118 164.5,-118"/>
<text text-anchor="middle" x="202" y="-125" font-family="Helvetica,sans-Serif" font-size="10.00">AppFactory.h</text>
</g>
<!-- Node0&#45;&gt;Node4 -->
<g id="edge4" class="edge"><title>Node0&#45;&gt;Node4</title>
<path fill="none" stroke="midnightblue" d="M2786.45,-187.995C2425.15,-187.83 505.868,-184.97 248,-143 243.509,-142.269 238.851,-141.195 234.301,-139.956"/>
<polygon fill="midnightblue" stroke="midnightblue" points="235.199,-136.572 224.615,-137.052 233.188,-143.277 235.199,-136.572"/>
</g>
<!-- Node5 -->
<g id="node6" class="node"><title>Node5</title>
<polygon fill="white" stroke="#bfbfbf" points="257.5,-118 257.5,-137 336.5,-137 336.5,-118 257.5,-118"/>
<text text-anchor="middle" x="297" y="-125" font-family="Helvetica,sans-Serif" font-size="10.00">ModulesApp.h</text>
</g>
<!-- Node0&#45;&gt;Node5 -->
<g id="edge5" class="edge"><title>Node0&#45;&gt;Node5</title>
<path fill="none" stroke="midnightblue" d="M2786.37,-187.911C2432.91,-187.244 592.928,-181.913 345,-143 340.2,-142.247 335.212,-141.133 330.345,-139.851"/>
<polygon fill="midnightblue" stroke="midnightblue" points="331.204,-136.456 320.626,-137.046 329.264,-143.182 331.204,-136.456"/>
</g>
<!-- Node6 -->
<g id="node7" class="node"><title>Node6</title>
<polygon fill="white" stroke="#bfbfbf" points="354.5,-118 354.5,-137 429.5,-137 429.5,-118 354.5,-118"/>
<text text-anchor="middle" x="392" y="-125" font-family="Helvetica,sans-Serif" font-size="10.00">SquirrelApp.h</text>
</g>
<!-- Node0&#45;&gt;Node6 -->
<g id="edge6" class="edge"><title>Node0&#45;&gt;Node6</title>
<path fill="none" stroke="midnightblue" d="M2786.31,-187.908C2440.54,-187.233 675.95,-181.895 438,-143 433.509,-142.266 428.852,-141.19 424.302,-139.951"/>
<polygon fill="midnightblue" stroke="midnightblue" points="425.2,-136.566 414.616,-137.045 423.189,-143.271 425.2,-136.566"/>
</g>
<!-- Node7 -->
<g id="node8" class="node"><title>Node7</title>
<polygon fill="white" stroke="#bfbfbf" points="447.5,-118 447.5,-137 532.5,-137 532.5,-118 447.5,-118"/>
<text text-anchor="middle" x="490" y="-125" font-family="Helvetica,sans-Serif" font-size="10.00">MooseSyntax.h</text>
</g>
<!-- Node0&#45;&gt;Node7 -->
<g id="edge7" class="edge"><title>Node0&#45;&gt;Node7</title>
<path fill="none" stroke="midnightblue" d="M2786.42,-187.739C2449.91,-186.122 769.692,-176.42 542,-143 536.552,-142.2 530.866,-141.004 525.338,-139.635"/>
<polygon fill="midnightblue" stroke="midnightblue" points="526.21,-136.245 515.644,-137.034 524.395,-143.006 526.21,-136.245"/>
</g>
<!-- Node8 -->
<g id="node9" class="node"><title>Node8</title>
<g id="a_node9"><a xlink:href="_delayed_neutron_source_8h.html" target="_top" xlink:title="DelayedNeutronSource.h">
<polygon fill="white" stroke="red" points="551,-118 551,-137 677,-137 677,-118 551,-118"/>
<text text-anchor="middle" x="614" y="-125" font-family="Helvetica,sans-Serif" font-size="10.00">DelayedNeutronSource.h</text>
</a>
</g>
</g>
<!-- Node0&#45;&gt;Node8 -->
<g id="edge8" class="edge"><title>Node0&#45;&gt;Node8</title>
<path fill="none" stroke="midnightblue" d="M2786.09,-188.086C2484.81,-188.325 1113.96,-186.938 691,-143 681.759,-142.04 671.969,-140.56 662.579,-138.906"/>
<polygon fill="midnightblue" stroke="midnightblue" points="663.063,-135.437 652.593,-137.06 661.79,-142.32 663.063,-135.437"/>
</g>
<!-- Node13 -->
<g id="node10" class="node"><title>Node13</title>
<g id="a_node10"><a xlink:href="_scalar_transport_time_derivative_8h.html" target="_top" xlink:title="ScalarTransportTimeDerivative.h">
<polygon fill="white" stroke="red" points="792,-56.5 792,-75.5 952,-75.5 952,-56.5 792,-56.5"/>
<text text-anchor="middle" x="872" y="-63.5" font-family="Helvetica,sans-Serif" font-size="10.00">ScalarTransportTimeDerivative.h</text>
</a>
</g>
</g>
<!-- Node0&#45;&gt;Node13 -->
<g id="edge9" class="edge"><title>Node0&#45;&gt;Node13</title>
<path fill="none" stroke="midnightblue" d="M2786.34,-187.876C2448.15,-187.025 761.089,-180.884 724,-143 692.137,-110.454 755.679,-89.1673 809.183,-77.6174"/>
<polygon fill="midnightblue" stroke="midnightblue" points="809.952,-81.0326 819.032,-75.5735 808.529,-74.1786 809.952,-81.0326"/>
</g>
<!-- Node15 -->
<g id="node11" class="node"><title>Node15</title>
<g id="a_node11"><a xlink:href="_scalar_advection_art_diff_8h.html" target="_top" xlink:title="ScalarAdvectionArtDiff.h">
<polygon fill="white" stroke="red" points="733.5,-118 733.5,-137 858.5,-137 858.5,-118 733.5,-118"/>
<text text-anchor="middle" x="796" y="-125" font-family="Helvetica,sans-Serif" font-size="10.00">ScalarAdvectionArtDiff.h</text>
</a>
</g>
</g>
<!-- Node0&#45;&gt;Node15 -->
<g id="edge10" class="edge"><title>Node0&#45;&gt;Node15</title>
<path fill="none" stroke="midnightblue" d="M2786.24,-188.079C2500.35,-188.25 1252.92,-186.444 867,-143 858.734,-142.069 850.002,-140.652 841.596,-139.062"/>
<polygon fill="midnightblue" stroke="midnightblue" points="842.049,-135.584 831.557,-137.058 840.678,-142.448 842.049,-135.584"/>
</g>
<!-- Node16 -->
<g id="node12" class="node"><title>Node16</title>
<g id="a_node12"><a xlink:href="_precursor_decay_8h.html" target="_top" xlink:title="PrecursorDecay.h">
<polygon fill="white" stroke="red" points="876.5,-118 876.5,-137 971.5,-137 971.5,-118 876.5,-118"/>
<text text-anchor="middle" x="924" y="-125" font-family="Helvetica,sans-Serif" font-size="10.00">PrecursorDecay.h</text>
</a>
</g>
</g>
<!-- Node0&#45;&gt;Node16 -->
<g id="edge11" class="edge"><title>Node0&#45;&gt;Node16</title>
<path fill="none" stroke="midnightblue" d="M2786.12,-187.382C2489.1,-184.159 1162.14,-168.434 980,-143 974.01,-142.164 967.74,-140.918 961.652,-139.503"/>
<polygon fill="midnightblue" stroke="midnightblue" points="962.212,-136.035 951.662,-137.002 960.513,-142.826 962.212,-136.035"/>
</g>
<!-- Node17 -->
<g id="node13" class="node"><title>Node17</title>
<g id="a_node13"><a xlink:href="_nt_time_derivative_8h.html" target="_top" xlink:title="NtTimeDerivative.h">
<polygon fill="white" stroke="black" points="989.5,-118 989.5,-137 1090.5,-137 1090.5,-118 989.5,-118"/>
<text text-anchor="middle" x="1040" y="-125" font-family="Helvetica,sans-Serif" font-size="10.00">NtTimeDerivative.h</text>
</a>
</g>
</g>
<!-- Node0&#45;&gt;Node17 -->
<g id="edge12" class="edge"><title>Node0&#45;&gt;Node17</title>
<path fill="none" stroke="midnightblue" d="M2786.24,-188.151C2521.35,-188.576 1436.68,-187.513 1100,-143 1093.52,-142.143 1086.71,-140.87 1080.11,-139.429"/>
<polygon fill="midnightblue" stroke="midnightblue" points="1080.52,-135.929 1069.98,-137.061 1078.92,-142.745 1080.52,-135.929"/>
</g>
<!-- Node18 -->
<g id="node14" class="node"><title>Node18</title>
<g id="a_node14"><a xlink:href="_precursor_source_8h.html" target="_top" xlink:title="PrecursorSource.h">
<polygon fill="white" stroke="red" points="1109,-118 1109,-137 1207,-137 1207,-118 1109,-118"/>
<text text-anchor="middle" x="1158" y="-125" font-family="Helvetica,sans-Serif" font-size="10.00">PrecursorSource.h</text>
</a>
</g>
</g>
<!-- Node0&#45;&gt;Node18 -->
<g id="edge14" class="edge"><title>Node0&#45;&gt;Node18</title>
<path fill="none" stroke="midnightblue" d="M2786.35,-188.086C2532.67,-188.197 1528.53,-185.863 1216,-143 1209.72,-142.139 1203.14,-140.865 1196.76,-139.423"/>
<polygon fill="midnightblue" stroke="midnightblue" points="1197.51,-136.003 1186.97,-137.054 1195.86,-142.807 1197.51,-136.003"/>
</g>
<!-- Node19 -->
<g id="node15" class="node"><title>Node19</title>
<g id="a_node15"><a xlink:href="_fission_heat_source_8h.html" target="_top" xlink:title="FissionHeatSource.h">
<polygon fill="white" stroke="red" points="1225,-118 1225,-137 1333,-137 1333,-118 1225,-118"/>
<text text-anchor="middle" x="1279" y="-125" font-family="Helvetica,sans-Serif" font-size="10.00">FissionHeatSource.h</text>
</a>
</g>
</g>
<!-- Node0&#45;&gt;Node19 -->
<g id="edge15" class="edge"><title>Node0&#45;&gt;Node19</title>
<path fill="none" stroke="midnightblue" d="M2786.5,-187.782C2545.51,-186.649 1628.91,-179.948 1342,-143 1335.04,-142.104 1327.73,-140.782 1320.65,-139.295"/>
<polygon fill="midnightblue" stroke="midnightblue" points="1321.03,-135.793 1310.51,-137.028 1319.5,-142.625 1321.03,-135.793"/>
</g>
<!-- Node20 -->
<g id="node16" class="node"><title>Node20</title>
<g id="a_node16"><a xlink:href="_transient_fission_heat_source_8h.html" target="_top" xlink:title="TransientFissionHeatSource.h">
<polygon fill="white" stroke="red" points="1351.5,-118 1351.5,-137 1500.5,-137 1500.5,-118 1351.5,-118"/>
<text text-anchor="middle" x="1426" y="-125" font-family="Helvetica,sans-Serif" font-size="10.00">TransientFissionHeatSource.h</text>
</a>
</g>
</g>
<!-- Node0&#45;&gt;Node20 -->
<g id="edge16" class="edge"><title>Node0&#45;&gt;Node20</title>
<path fill="none" stroke="midnightblue" d="M2786.38,-187.096C2562.74,-183.479 1763.04,-168.98 1510,-143 1499.84,-141.957 1489.06,-140.423 1478.72,-138.738"/>
<polygon fill="midnightblue" stroke="midnightblue" points="1479.02,-135.239 1468.58,-137.016 1477.85,-142.14 1479.02,-135.239"/>
</g>
<!-- Node21 -->
<g id="node17" class="node"><title>Node21</title>
<g id="a_node17"><a xlink:href="_i_n_s_momentum_k_epsilon_8h.html" target="_top" xlink:title="INSMomentumKEpsilon.h">
<polygon fill="white" stroke="red" points="1519,-118 1519,-137 1649,-137 1649,-118 1519,-118"/>
<text text-anchor="middle" x="1584" y="-125" font-family="Helvetica,sans-Serif" font-size="10.00">INSMomentumKEpsilon.h</text>
</a>
</g>
</g>
<!-- Node0&#45;&gt;Node21 -->
<g id="edge17" class="edge"><title>Node0&#45;&gt;Node21</title>
<path fill="none" stroke="midnightblue" d="M2786.22,-186.983C2578.6,-183.203 1880.26,-168.829 1658,-143 1649.4,-142.001 1640.31,-140.55 1631.55,-138.948"/>
<polygon fill="midnightblue" stroke="midnightblue" points="1631.95,-135.461 1621.47,-137.016 1630.63,-142.336 1631.95,-135.461"/>
</g>
<!-- Node22 -->
<g id="node18" class="node"><title>Node22</title>
<g id="a_node18"><a xlink:href="_sigma_r_8h.html" target="_top" xlink:title="SigmaR.h">
<polygon fill="white" stroke="red" points="1667,-118 1667,-137 1727,-137 1727,-118 1667,-118"/>
<text text-anchor="middle" x="1697" y="-125" font-family="Helvetica,sans-Serif" font-size="10.00">SigmaR.h</text>
</a>
</g>
</g>
<!-- Node0&#45;&gt;Node22 -->
<g id="edge18" class="edge"><title>Node0&#45;&gt;Node22</title>
<path fill="none" stroke="midnightblue" d="M2786.49,-188.049C2587.77,-187.836 1939.8,-183.942 1736,-143 1732.74,-142.346 1729.4,-141.458 1726.1,-140.443"/>
<polygon fill="midnightblue" stroke="midnightblue" points="1727.08,-137.08 1716.49,-137.116 1724.79,-143.695 1727.08,-137.08"/>
</g>
<!-- Node23 -->
<g id="node19" class="node"><title>Node23</title>
<g id="a_node19"><a xlink:href="_coupled_fission_eigen_kernel_8h.html" target="_top" xlink:title="CoupledFissionEigenKernel.h">
<polygon fill="white" stroke="red" points="1745.5,-118 1745.5,-137 1890.5,-137 1890.5,-118 1745.5,-118"/>
<text text-anchor="middle" x="1818" y="-125" font-family="Helvetica,sans-Serif" font-size="10.00">CoupledFissionEigenKernel.h</text>
</a>
</g>
</g>
<!-- Node0&#45;&gt;Node23 -->
<g id="edge19" class="edge"><title>Node0&#45;&gt;Node23</title>
<path fill="none" stroke="midnightblue" d="M2786.46,-187.801C2637.83,-186.734 2234.01,-180.331 1900,-143 1890.4,-141.927 1880.23,-140.427 1870.44,-138.796"/>
<polygon fill="midnightblue" stroke="midnightblue" points="1870.86,-135.317 1860.41,-137.061 1869.67,-142.215 1870.86,-135.317"/>
</g>
<!-- Node25 -->
<g id="node20" class="node"><title>Node25</title>
<g id="a_node20"><a xlink:href="_coupled_fission_kernel_8h.html" target="_top" xlink:title="CoupledFissionKernel.h">
<polygon fill="white" stroke="red" points="1909,-118 1909,-137 2029,-137 2029,-118 1909,-118"/>
<text text-anchor="middle" x="1969" y="-125" font-family="Helvetica,sans-Serif" font-size="10.00">CoupledFissionKernel.h</text>
</a>
</g>
</g>
<!-- Node0&#45;&gt;Node25 -->
<g id="edge20" class="edge"><title>Node0&#45;&gt;Node25</title>
<path fill="none" stroke="midnightblue" d="M2786.49,-187.766C2653.12,-186.572 2316.57,-179.821 2038,-143 2030.41,-141.996 2022.4,-140.617 2014.64,-139.105"/>
<polygon fill="midnightblue" stroke="midnightblue" points="2015.13,-135.634 2004.64,-137.063 2013.73,-142.492 2015.13,-135.634"/>
</g>
<!-- Node26 -->
<g id="node21" class="node"><title>Node26</title>
<g id="a_node21"><a xlink:href="_self_fission_eigen_kernel_8h.html" target="_top" xlink:title="SelfFissionEigenKernel.h">
<polygon fill="white" stroke="red" points="2047,-118 2047,-137 2173,-137 2173,-118 2047,-118"/>
<text text-anchor="middle" x="2110" y="-125" font-family="Helvetica,sans-Serif" font-size="10.00">SelfFissionEigenKernel.h</text>
</a>
</g>
</g>
<!-- Node0&#45;&gt;Node26 -->
<g id="edge21" class="edge"><title>Node0&#45;&gt;Node26</title>
<path fill="none" stroke="midnightblue" d="M2786.21,-186.592C2670.2,-183.246 2403.83,-172.735 2182,-143 2174.09,-141.94 2165.75,-140.532 2157.65,-139.009"/>
<polygon fill="midnightblue" stroke="midnightblue" points="2158.07,-135.524 2147.58,-137.036 2156.72,-142.394 2158.07,-135.524"/>
</g>
<!-- Node27 -->
<g id="node22" class="node"><title>Node27</title>
<g id="a_node22"><a xlink:href="_in_scatter_8h.html" target="_top" xlink:title="InScatter.h">
<polygon fill="white" stroke="red" points="2191.5,-118 2191.5,-137 2256.5,-137 2256.5,-118 2191.5,-118"/>
<text text-anchor="middle" x="2224" y="-125" font-family="Helvetica,sans-Serif" font-size="10.00">InScatter.h</text>
</a>
</g>
</g>
<!-- Node0&#45;&gt;Node27 -->
<g id="edge22" class="edge"><title>Node0&#45;&gt;Node27</title>
<path fill="none" stroke="midnightblue" d="M2786.37,-188.343C2681.05,-187.879 2453.31,-181.944 2266,-143 2262.5,-142.271 2258.88,-141.33 2255.31,-140.278"/>
<polygon fill="midnightblue" stroke="midnightblue" points="2256.09,-136.852 2245.5,-137.101 2253.94,-143.512 2256.09,-136.852"/>
</g>
<!-- Node28 -->
<g id="node23" class="node"><title>Node28</title>
<g id="a_node23"><a xlink:href="_group_diffusion_8h.html" target="_top" xlink:title="GroupDiffusion.h">
<polygon fill="white" stroke="red" points="2275,-118 2275,-137 2365,-137 2365,-118 2275,-118"/>
<text text-anchor="middle" x="2320" y="-125" font-family="Helvetica,sans-Serif" font-size="10.00">GroupDiffusion.h</text>
</a>
</g>
</g>
<!-- Node0&#45;&gt;Node28 -->
<g id="edge23" class="edge"><title>Node0&#45;&gt;Node28</title>
<path fill="none" stroke="midnightblue" d="M2786.2,-185.54C2696.63,-181.083 2520.92,-169.551 2374,-143 2368.88,-142.074 2363.53,-140.9 2358.28,-139.622"/>
<polygon fill="midnightblue" stroke="midnightblue" points="2358.94,-136.178 2348.38,-137.075 2357.2,-142.957 2358.94,-136.178"/>
</g>
<!-- Node29 -->
<g id="node24" class="node"><title>Node29</title>
<g id="a_node24"><a xlink:href="_coupled_scalar_advection_8h.html" target="_top" xlink:title="CoupledScalarAdvection.h">
<polygon fill="white" stroke="red" points="2383,-118 2383,-137 2515,-137 2515,-118 2383,-118"/>
<text text-anchor="middle" x="2449" y="-125" font-family="Helvetica,sans-Serif" font-size="10.00">CoupledScalarAdvection.h</text>
</a>
</g>
</g>
<!-- Node0&#45;&gt;Node29 -->
<g id="edge24" class="edge"><title>Node0&#45;&gt;Node29</title>
<path fill="none" stroke="midnightblue" d="M2786.29,-180.695C2721.82,-172.458 2615.31,-158.217 2524,-143 2516.54,-141.757 2508.69,-140.349 2500.98,-138.91"/>
<polygon fill="midnightblue" stroke="midnightblue" points="2501.46,-135.438 2490.98,-137.012 2500.15,-142.315 2501.46,-135.438"/>
</g>
<!-- Node30 -->
<g id="node25" class="node"><title>Node30</title>
<g id="a_node25"><a xlink:href="_div_free_coupled_scalar_advection_8h.html" target="_top" xlink:title="DivFreeCoupledScalarAdvection.h">
<polygon fill="white" stroke="red" points="2533.5,-118 2533.5,-137 2700.5,-137 2700.5,-118 2533.5,-118"/>
<text text-anchor="middle" x="2617" y="-125" font-family="Helvetica,sans-Serif" font-size="10.00">DivFreeCoupledScalarAdvection.h</text>
</a>
</g>
</g>
<!-- Node0&#45;&gt;Node30 -->
<g id="edge25" class="edge"><title>Node0&#45;&gt;Node30</title>
<path fill="none" stroke="midnightblue" d="M2812.33,-179.475C2772.12,-168.982 2703.74,-151.137 2659.48,-139.587"/>
<polygon fill="midnightblue" stroke="midnightblue" points="2660.17,-136.148 2649.61,-137.009 2658.4,-142.921 2660.17,-136.148"/>
</g>
<!-- Node31 -->
<g id="node26" class="node"><title>Node31</title>
<g id="a_node26"><a xlink:href="_gamma_heat_source_8h.html" target="_top" xlink:title="GammaHeatSource.h">
<polygon fill="white" stroke="red" points="2718.5,-118 2718.5,-137 2829.5,-137 2829.5,-118 2718.5,-118"/>
<text text-anchor="middle" x="2774" y="-125" font-family="Helvetica,sans-Serif" font-size="10.00">GammaHeatSource.h</text>
</a>
</g>
</g>
<!-- Node0&#45;&gt;Node31 -->
<g id="edge26" class="edge"><title>Node0&#45;&gt;Node31</title>
<path fill="none" stroke="midnightblue" d="M2834.83,-179.475C2823.65,-170.108 2805.48,-154.884 2791.91,-143.508"/>
<polygon fill="midnightblue" stroke="midnightblue" points="2794.07,-140.75 2784.15,-137.009 2789.57,-146.115 2794.07,-140.75"/>
</g>
<!-- Node32 -->
<g id="node27" class="node"><title>Node32</title>
<g id="a_node27"><a xlink:href="_lin_log_penalty_dirichlet_b_c_8h.html" target="_top" xlink:title="LinLogPenaltyDirichletBC.h">
<polygon fill="white" stroke="red" points="2847.5,-118 2847.5,-137 2984.5,-137 2984.5,-118 2847.5,-118"/>
<text text-anchor="middle" x="2916" y="-125" font-family="Helvetica,sans-Serif" font-size="10.00">LinLogPenaltyDirichletBC.h</text>
</a>
</g>
</g>
<!-- Node0&#45;&gt;Node32 -->
<g id="edge27" class="edge"><title>Node0&#45;&gt;Node32</title>
<path fill="none" stroke="midnightblue" d="M2855.17,-179.475C2866.35,-170.108 2884.52,-154.884 2898.09,-143.508"/>
<polygon fill="midnightblue" stroke="midnightblue" points="2900.43,-146.115 2905.85,-137.009 2895.93,-140.75 2900.43,-146.115"/>
</g>
<!-- Node34 -->
<g id="node28" class="node"><title>Node34</title>
<g id="a_node28"><a xlink:href="_vacuum_conc_b_c_8h.html" target="_top" xlink:title="VacuumConcBC.h">
<polygon fill="white" stroke="red" points="3003,-118 3003,-137 3101,-137 3101,-118 3003,-118"/>
<text text-anchor="middle" x="3052" y="-125" font-family="Helvetica,sans-Serif" font-size="10.00">VacuumConcBC.h</text>
</a>
</g>
</g>
<!-- Node0&#45;&gt;Node34 -->
<g id="edge28" class="edge"><title>Node0&#45;&gt;Node34</title>
<path fill="none" stroke="midnightblue" d="M2874.66,-179.475C2910.93,-169.048 2972.46,-151.362 3012.66,-139.807"/>
<polygon fill="midnightblue" stroke="midnightblue" points="3013.75,-143.135 3022.4,-137.009 3011.82,-136.408 3013.75,-143.135"/>
</g>
<!-- Node35 -->
<g id="node29" class="node"><title>Node35</title>
<g id="a_node29"><a xlink:href="_conservative_advection_no_b_c_b_c_8h.html" target="_top" xlink:title="ConservativeAdvectionNoBCBC.h">
<polygon fill="white" stroke="red" points="3119.5,-118 3119.5,-137 3286.5,-137 3286.5,-118 3119.5,-118"/>
<text text-anchor="middle" x="3203" y="-125" font-family="Helvetica,sans-Serif" font-size="10.00">ConservativeAdvectionNoBCBC.h</text>
</a>
</g>
</g>
<!-- Node0&#45;&gt;Node35 -->
<g id="edge29" class="edge"><title>Node0&#45;&gt;Node35</title>
<path fill="none" stroke="midnightblue" d="M2896.29,-179.475C2961.16,-168.694 3072.71,-150.154 3141.91,-138.653"/>
<polygon fill="midnightblue" stroke="midnightblue" points="3142.51,-142.101 3151.8,-137.009 3141.36,-135.196 3142.51,-142.101"/>
</g>
<!-- Node36 -->
<g id="node30" class="node"><title>Node36</title>
<g id="a_node30"><a xlink:href="_diffusion_no_b_c_b_c_8h.html" target="_top" xlink:title="DiffusionNoBCBC.h">
<polygon fill="white" stroke="red" points="3304.5,-118 3304.5,-137 3409.5,-137 3409.5,-118 3304.5,-118"/>
<text text-anchor="middle" x="3357" y="-125" font-family="Helvetica,sans-Serif" font-size="10.00">DiffusionNoBCBC.h</text>
</a>
</g>
</g>
<!-- Node0&#45;&gt;Node36 -->
<g id="edge30" class="edge"><title>Node0&#45;&gt;Node36</title>
<path fill="none" stroke="midnightblue" d="M2903.57,-184.583C2989.75,-179.006 3155.59,-166.172 3295,-143 3301.23,-141.965 3307.76,-140.671 3314.15,-139.284"/>
<polygon fill="midnightblue" stroke="midnightblue" points="3315.04,-142.672 3324.02,-137.053 3313.49,-135.845 3315.04,-142.672"/>
</g>
<!-- Node37 -->
<g id="node31" class="node"><title>Node37</title>
<g id="a_node31"><a xlink:href="_scalar_advection_art_diff_no_b_c_b_c_8h.html" target="_top" xlink:title="ScalarAdvectionArtDiffNo\lBCBC.h">
<polygon fill="white" stroke="red" points="3427.5,-112.5 3427.5,-142.5 3556.5,-142.5 3556.5,-112.5 3427.5,-112.5"/>
<text text-anchor="start" x="3435.5" y="-130.5" font-family="Helvetica,sans-Serif" font-size="10.00">ScalarAdvectionArtDiffNo</text>
<text text-anchor="middle" x="3492" y="-119.5" font-family="Helvetica,sans-Serif" font-size="10.00">BCBC.h</text>
</a>
</g>
</g>
<!-- Node0&#45;&gt;Node37 -->
<g id="edge31" class="edge"><title>Node0&#45;&gt;Node37</title>
<path fill="none" stroke="midnightblue" d="M2903.8,-185.618C3006.1,-180.986 3223.55,-168.977 3417.41,-142.962"/>
<polygon fill="midnightblue" stroke="midnightblue" points="3418.06,-146.406 3427.5,-141.592 3417.12,-139.47 3418.06,-146.406"/>
</g>
<!-- Node38 -->
<g id="node32" class="node"><title>Node38</title>
<g id="a_node32"><a xlink:href="_i_n_s_outflow_b_c_8h.html" target="_top" xlink:title="INSOutflowBC.h">
<polygon fill="white" stroke="red" points="3575,-118 3575,-137 3665,-137 3665,-118 3575,-118"/>
<text text-anchor="middle" x="3620" y="-125" font-family="Helvetica,sans-Serif" font-size="10.00">INSOutflowBC.h</text>
</a>
</g>
</g>
<!-- Node0&#45;&gt;Node38 -->
<g id="edge32" class="edge"><title>Node0&#45;&gt;Node38</title>
<path fill="none" stroke="midnightblue" d="M2903.76,-188.197C3027.11,-187.764 3321.73,-182.282 3565,-143 3570.54,-142.105 3576.34,-140.891 3582,-139.546"/>
<polygon fill="midnightblue" stroke="midnightblue" points="3583.13,-142.87 3591.96,-137.021 3581.41,-136.085 3583.13,-142.87"/>
</g>
<!-- Node39 -->
<g id="node33" class="node"><title>Node39</title>
<g id="a_node33"><a xlink:href="_i_n_s_symmetry_axis_b_c_8h.html" target="_top" xlink:title="INSSymmetryAxisBC.h">
<polygon fill="white" stroke="red" points="3683.5,-118 3683.5,-137 3804.5,-137 3804.5,-118 3683.5,-118"/>
<text text-anchor="middle" x="3744" y="-125" font-family="Helvetica,sans-Serif" font-size="10.00">INSSymmetryAxisBC.h</text>
</a>
</g>
</g>
<!-- Node0&#45;&gt;Node39 -->
<g id="edge33" class="edge"><title>Node0&#45;&gt;Node39</title>
<path fill="none" stroke="midnightblue" d="M2903.57,-187.832C3039.5,-186.785 3386.7,-180.339 3674,-143 3681.79,-141.988 3690,-140.59 3697.96,-139.059"/>
<polygon fill="midnightblue" stroke="midnightblue" points="3698.73,-142.474 3707.84,-137.068 3697.35,-135.611 3698.73,-142.474"/>
</g>
<!-- Node40 -->
<g id="node34" class="node"><title>Node40</title>
<g id="a_node34"><a xlink:href="_mat_diffusion_flux_b_c_8h.html" target="_top" xlink:title="MatDiffusionFluxBC.h">
<polygon fill="white" stroke="red" points="3822.5,-118 3822.5,-137 3935.5,-137 3935.5,-118 3822.5,-118"/>
<text text-anchor="middle" x="3879" y="-125" font-family="Helvetica,sans-Serif" font-size="10.00">MatDiffusionFluxBC.h</text>
</a>
</g>
</g>
<!-- Node0&#45;&gt;Node40 -->
<g id="edge34" class="edge"><title>Node0&#45;&gt;Node40</title>
<path fill="none" stroke="midnightblue" d="M2903.68,-188.728C3055.03,-189.859 3470.67,-188.228 3813,-143 3820.28,-142.039 3827.94,-140.681 3835.36,-139.179"/>
<polygon fill="midnightblue" stroke="midnightblue" points="3836.23,-142.572 3845.28,-137.063 3834.77,-135.726 3836.23,-142.572"/>
</g>
<!-- Node41 -->
<g id="node35" class="node"><title>Node41</title>
<g id="a_node35"><a xlink:href="_coupled_scalar_advection_no_b_c_b_c_8h.html" target="_top" xlink:title="CoupledScalarAdvectionNo\lBCBC.h">
<polygon fill="white" stroke="red" points="3953.5,-112.5 3953.5,-142.5 4090.5,-142.5 4090.5,-112.5 3953.5,-112.5"/>
<text text-anchor="start" x="3961.5" y="-130.5" font-family="Helvetica,sans-Serif" font-size="10.00">CoupledScalarAdvectionNo</text>
<text text-anchor="middle" x="4022" y="-119.5" font-family="Helvetica,sans-Serif" font-size="10.00">BCBC.h</text>
</a>
</g>
</g>
<!-- Node0&#45;&gt;Node41 -->
<g id="edge35" class="edge"><title>Node0&#45;&gt;Node41</title>
<path fill="none" stroke="midnightblue" d="M2903.6,-188.538C3066.81,-189.409 3540.41,-187.672 3943.08,-142.977"/>
<polygon fill="midnightblue" stroke="midnightblue" points="3943.63,-146.437 3953.18,-141.846 3942.85,-139.481 3943.63,-146.437"/>
</g>
<!-- Node42 -->
<g id="node36" class="node"><title>Node42</title>
<g id="a_node36"><a xlink:href="_generic_moltres_material_8h.html" target="_top" xlink:title="GenericMoltresMaterial.h">
<polygon fill="white" stroke="red" points="4122.5,-56.5 4122.5,-75.5 4247.5,-75.5 4247.5,-56.5 4122.5,-56.5"/>
<text text-anchor="middle" x="4185" y="-63.5" font-family="Helvetica,sans-Serif" font-size="10.00">GenericMoltresMaterial.h</text>
</a>
</g>
</g>
<!-- Node0&#45;&gt;Node42 -->
<g id="edge36" class="edge"><title>Node0&#45;&gt;Node42</title>
<path fill="none" stroke="midnightblue" d="M2903.82,-188.212C3136.78,-188.734 3987.41,-187.547 4099,-143 4107.28,-139.694 4146.03,-103.848 4168.59,-82.5881"/>
<polygon fill="midnightblue" stroke="midnightblue" points="4171.22,-84.9168 4176.08,-75.5026 4166.41,-79.831 4171.22,-84.9168"/>
</g>
<!-- Node46 -->
<g id="node37" class="node"><title>Node46</title>
<g id="a_node37"><a xlink:href="_cammi_fuel_8h.html" target="_top" xlink:title="CammiFuel.h">
<polygon fill="white" stroke="red" points="4147.5,-118 4147.5,-137 4222.5,-137 4222.5,-118 4147.5,-118"/>
<text text-anchor="middle" x="4185" y="-125" font-family="Helvetica,sans-Serif" font-size="10.00">CammiFuel.h</text>
</a>
</g>
</g>
<!-- Node0&#45;&gt;Node46 -->
<g id="edge37" class="edge"><title>Node0&#45;&gt;Node46</title>
<path fill="none" stroke="midnightblue" d="M2903.51,-187.795C3122.18,-186.741 3891.15,-180.401 4133,-143 4138.25,-142.188 4143.72,-141.025 4149.06,-139.706"/>
<polygon fill="midnightblue" stroke="midnightblue" points="4150.32,-142.993 4159.08,-137.029 4148.51,-136.231 4150.32,-142.993"/>
</g>
<!-- Node47 -->
<g id="node38" class="node"><title>Node47</title>
<g id="a_node38"><a xlink:href="_cammi_moderator_8h.html" target="_top" xlink:title="CammiModerator.h">
<polygon fill="white" stroke="red" points="4241,-118 4241,-137 4341,-137 4341,-118 4241,-118"/>
<text text-anchor="middle" x="4291" y="-125" font-family="Helvetica,sans-Serif" font-size="10.00">CammiModerator.h</text>
</a>
</g>
</g>
<!-- Node0&#45;&gt;Node47 -->
<g id="edge39" class="edge"><title>Node0&#45;&gt;Node47</title>
<path fill="none" stroke="midnightblue" d="M2903.56,-187.694C3132.65,-186.251 3968.43,-178.608 4231,-143 4237.48,-142.121 4244.28,-140.837 4250.88,-139.391"/>
<polygon fill="midnightblue" stroke="midnightblue" points="4252.07,-142.707 4261.01,-137.021 4250.48,-135.891 4252.07,-142.707"/>
</g>
<!-- Node48 -->
<g id="node39" class="node"><title>Node48</title>
<g id="a_node39"><a xlink:href="_average_fission_heat_8h.html" target="_top" xlink:title="AverageFissionHeat.h">
<polygon fill="white" stroke="black" points="4359.5,-118 4359.5,-137 4472.5,-137 4472.5,-118 4359.5,-118"/>
<text text-anchor="middle" x="4416" y="-125" font-family="Helvetica,sans-Serif" font-size="10.00">AverageFissionHeat.h</text>
</a>
</g>
</g>
<!-- Node0&#45;&gt;Node48 -->
<g id="edge41" class="edge"><title>Node0&#45;&gt;Node48</title>
<path fill="none" stroke="midnightblue" d="M2903.57,-187.707C3144.84,-186.276 4062.53,-178.561 4350,-143 4357.53,-142.069 4365.47,-140.683 4373.12,-139.131"/>
<polygon fill="midnightblue" stroke="midnightblue" points="4373.93,-142.538 4382.97,-137.02 4372.46,-135.694 4373.93,-142.538"/>
</g>
<!-- Node49 -->
<g id="node40" class="node"><title>Node49</title>
<g id="a_node40"><a xlink:href="_elm_integ_tot_fiss_heat_postprocessor_8h.html" target="_top" xlink:title="ElmIntegTotFissHeatPostprocessor.h">
<polygon fill="white" stroke="black" points="4329.5,-56.5 4329.5,-75.5 4510.5,-75.5 4510.5,-56.5 4329.5,-56.5"/>
<text text-anchor="middle" x="4420" y="-63.5" font-family="Helvetica,sans-Serif" font-size="10.00">ElmIntegTotFissHeatPostprocessor.h</text>
</a>
</g>
</g>
<!-- Node0&#45;&gt;Node49 -->
<g id="edge49" class="edge"><title>Node0&#45;&gt;Node49</title>
<path fill="none" stroke="midnightblue" d="M2903.57,-187.498C3192.47,-184.885 4452.94,-171.846 4481,-143 4490.61,-133.125 4487.21,-124.299 4481,-112 4474.19,-98.5199 4461.23,-88.083 4449,-80.6696"/>
<polygon fill="midnightblue" stroke="midnightblue" points="4450.34,-77.4099 4439.91,-75.5896 4446.93,-83.5214 4450.34,-77.4099"/>
</g>
<!-- Node50 -->
<g id="node41" class="node"><title>Node50</title>
<g id="a_node41"><a xlink:href="_elm_integ_tot_fiss_postprocessor_8h.html" target="_top" xlink:title="ElmIntegTotFissPostprocessor.h">
<polygon fill="white" stroke="red" points="4399,-0.5 4399,-19.5 4559,-19.5 4559,-0.5 4399,-0.5"/>
<text text-anchor="middle" x="4479" y="-7.5" font-family="Helvetica,sans-Serif" font-size="10.00">ElmIntegTotFissPostprocessor.h</text>
</a>
</g>
</g>
<!-- Node0&#45;&gt;Node50 -->
<g id="edge48" class="edge"><title>Node0&#45;&gt;Node50</title>
<path fill="none" stroke="midnightblue" d="M2903.68,-188.299C3190.44,-189.523 4433.19,-191.978 4498,-143 4529.73,-119.018 4533.14,-93.1806 4519,-56 4514.66,-44.5976 4505.97,-34.2394 4497.79,-26.343"/>
<polygon fill="midnightblue" stroke="midnightblue" points="4500.04,-23.6595 4490.27,-19.5728 4495.36,-28.8633 4500.04,-23.6595"/>
</g>
<!-- Node52 -->
<g id="node42" class="node"><title>Node52</title>
<g id="a_node42"><a xlink:href="_element_l2_diff_8h.html" target="_top" xlink:title="ElementL2Diff.h">
<polygon fill="white" stroke="red" points="4567.5,-118 4567.5,-137 4654.5,-137 4654.5,-118 4567.5,-118"/>
<text text-anchor="middle" x="4611" y="-125" font-family="Helvetica,sans-Serif" font-size="10.00">ElementL2Diff.h</text>
</a>
</g>
</g>
<!-- Node0&#45;&gt;Node52 -->
<g id="edge44" class="edge"><title>Node0&#45;&gt;Node52</title>
<path fill="none" stroke="midnightblue" d="M2903.83,-188.174C3165.39,-188.684 4224.19,-187.881 4553,-143 4559.28,-142.143 4565.86,-140.871 4572.24,-139.43"/>
<polygon fill="midnightblue" stroke="midnightblue" points="4573.14,-142.814 4582.03,-137.062 4571.49,-136.01 4573.14,-142.814"/>
</g>
<!-- Node54 -->
<g id="node43" class="node"><title>Node54</title>
<g id="a_node43"><a xlink:href="_division_postprocessor_8h.html" target="_top" xlink:title="DivisionPostprocessor.h">
<polygon fill="white" stroke="red" points="4672.5,-118 4672.5,-137 4795.5,-137 4795.5,-118 4672.5,-118"/>
<text text-anchor="middle" x="4734" y="-125" font-family="Helvetica,sans-Serif" font-size="10.00">DivisionPostprocessor.h</text>
</a>
</g>
</g>
<!-- Node0&#45;&gt;Node54 -->
<g id="edge45" class="edge"><title>Node0&#45;&gt;Node54</title>
<path fill="none" stroke="midnightblue" d="M2903.93,-187.965C3175.89,-187.585 4311.34,-183.555 4664,-143 4672.15,-142.063 4680.76,-140.642 4689.05,-139.051"/>
<polygon fill="midnightblue" stroke="midnightblue" points="4689.84,-142.462 4698.95,-137.046 4688.45,-135.601 4689.84,-142.462"/>
</g>
<!-- Node56 -->
<g id="node44" class="node"><title>Node56</title>
<g id="a_node44"><a xlink:href="_integral_old_variable_postprocessor_8h.html" target="_top" xlink:title="IntegralOldVariablePostprocessor.h">
<polygon fill="white" stroke="red" points="4814,-118 4814,-137 4984,-137 4984,-118 4814,-118"/>
<text text-anchor="middle" x="4899" y="-125" font-family="Helvetica,sans-Serif" font-size="10.00">IntegralOldVariablePostprocessor.h</text>
</a>
</g>
</g>
<!-- Node0&#45;&gt;Node56 -->
<g id="edge46" class="edge"><title>Node0&#45;&gt;Node56</title>
<path fill="none" stroke="midnightblue" d="M2903.66,-187.684C3187.66,-185.994 4421.87,-176.803 4805,-143 4816.95,-141.946 4829.69,-140.322 4841.81,-138.537"/>
<polygon fill="midnightblue" stroke="midnightblue" points="4842.45,-141.979 4851.81,-137.008 4841.39,-135.059 4842.45,-141.979"/>
</g>
<!-- Node58 -->
<g id="node45" class="node"><title>Node58</title>
<g id="a_node45"><a xlink:href="_integral_new_variable_postprocessor_8h.html" target="_top" xlink:title="IntegralNewVariablePostprocessor.h">
<polygon fill="white" stroke="red" points="5002,-118 5002,-137 5178,-137 5178,-118 5002,-118"/>
<text text-anchor="middle" x="5090" y="-125" font-family="Helvetica,sans-Serif" font-size="10.00">IntegralNewVariablePostprocessor.h</text>
</a>
</g>
</g>
<!-- Node0&#45;&gt;Node58 -->
<g id="edge47" class="edge"><title>Node0&#45;&gt;Node58</title>
<path fill="none" stroke="midnightblue" d="M2903.71,-187.783C3204.01,-186.519 4570.47,-178.86 4993,-143 5005.45,-141.943 5018.73,-140.301 5031.35,-138.496"/>
<polygon fill="midnightblue" stroke="midnightblue" points="5031.92,-141.95 5041.29,-137.021 5030.89,-135.026 5031.92,-141.95"/>
</g>
<!-- Node59 -->
<g id="node46" class="node"><title>Node59</title>
<g id="a_node46"><a xlink:href="_elm_integ_tot_fiss_nts_postprocessor_8h.html" target="_top" xlink:title="ElmIntegTotFissNtsPostprocessor.h">
<polygon fill="white" stroke="red" points="5196,-118 5196,-137 5372,-137 5372,-118 5196,-118"/>
<text text-anchor="middle" x="5284" y="-125" font-family="Helvetica,sans-Serif" font-size="10.00">ElmIntegTotFissNtsPostprocessor.h</text>
</a>
</g>
</g>
<!-- Node0&#45;&gt;Node59 -->
<g id="edge50" class="edge"><title>Node0&#45;&gt;Node59</title>
<path fill="none" stroke="midnightblue" d="M2903.72,-187.901C3220.02,-187.212 4723.75,-181.911 5187,-143 5199.45,-141.954 5212.73,-140.316 5225.35,-138.512"/>
<polygon fill="midnightblue" stroke="midnightblue" points="5225.92,-141.966 5235.3,-137.037 5224.89,-135.042 5225.92,-141.966"/>
</g>
<!-- Node60 -->
<g id="node47" class="node"><title>Node60</title>
<g id="a_node47"><a xlink:href="_fission_heat_source_aux_8h.html" target="_top" xlink:title="FissionHeatSourceAux.h">
<polygon fill="white" stroke="red" points="5389.5,-118 5389.5,-137 5514.5,-137 5514.5,-118 5389.5,-118"/>
<text text-anchor="middle" x="5452" y="-125" font-family="Helvetica,sans-Serif" font-size="10.00">FissionHeatSourceAux.h</text>
</a>
</g>
</g>
<!-- Node0&#45;&gt;Node60 -->
<g id="edge51" class="edge"><title>Node0&#45;&gt;Node60</title>
<path fill="none" stroke="midnightblue" d="M2903.56,-187.606C3259.7,-185.127 5127.75,-170.868 5381,-143 5389.45,-142.07 5398.38,-140.621 5406.96,-138.992"/>
<polygon fill="midnightblue" stroke="midnightblue" points="5407.69,-142.415 5416.81,-137.017 5406.32,-135.551 5407.69,-142.415"/>
</g>
<!-- Node62 -->
<g id="node48" class="node"><title>Node62</title>
<g id="a_node48"><a xlink:href="_mat_diffusion_aux_8h.html" target="_top" xlink:title="MatDiffusionAux.h">
<polygon fill="white" stroke="red" points="5533,-118 5533,-137 5631,-137 5631,-118 5533,-118"/>
<text text-anchor="middle" x="5582" y="-125" font-family="Helvetica,sans-Serif" font-size="10.00">MatDiffusionAux.h</text>
</a>
</g>
</g>
<!-- Node0&#45;&gt;Node62 -->
<g id="edge52" class="edge"><title>Node0&#45;&gt;Node62</title>
<path fill="none" stroke="midnightblue" d="M2903.57,-187.818C3271.47,-186.569 5256.37,-178.231 5524,-143 5530.35,-142.164 5537,-140.889 5543.45,-139.436"/>
<polygon fill="midnightblue" stroke="midnightblue" points="5544.44,-142.797 5553.34,-137.041 5542.79,-135.994 5544.44,-142.797"/>
</g>
<!-- Node64 -->
<g id="node49" class="node"><title>Node64</title>
<g id="a_node49"><a xlink:href="_precursor_kernel_action_8h.html" target="_top" xlink:title="PrecursorKernelAction.h">
<polygon fill="white" stroke="red" points="5649,-118 5649,-137 5771,-137 5771,-118 5649,-118"/>
<text text-anchor="middle" x="5710" y="-125" font-family="Helvetica,sans-Serif" font-size="10.00">PrecursorKernelAction.h</text>
</a>
</g>
</g>
<!-- Node0&#45;&gt;Node64 -->
<g id="edge53" class="edge"><title>Node0&#45;&gt;Node64</title>
<path fill="none" stroke="midnightblue" d="M2903.64,-187.719C3280.88,-185.825 5359.48,-174.033 5640,-143 5648.24,-142.088 5656.95,-140.664 5665.32,-139.058"/>
<polygon fill="midnightblue" stroke="midnightblue" points="5666.21,-142.449 5675.31,-137.03 5664.82,-135.589 5666.21,-142.449"/>
</g>
<!-- Node66 -->
<g id="node50" class="node"><title>Node66</title>
<g id="a_node50"><a xlink:href="_nt_action_8h.html" target="_top" xlink:title="NtAction.h">
<polygon fill="white" stroke="red" points="5789.5,-118 5789.5,-137 5852.5,-137 5852.5,-118 5789.5,-118"/>
<text text-anchor="middle" x="5821" y="-125" font-family="Helvetica,sans-Serif" font-size="10.00">NtAction.h</text>
</a>
</g>
</g>
<!-- Node0&#45;&gt;Node66 -->
<g id="edge54" class="edge"><title>Node0&#45;&gt;Node66</title>
<path fill="none" stroke="midnightblue" d="M2903.69,-187.64C3305.05,-185.108 5633.36,-169.325 5780,-143 5783.71,-142.334 5787.53,-141.376 5791.28,-140.265"/>
<polygon fill="midnightblue" stroke="midnightblue" points="5792.53,-143.539 5800.92,-137.064 5790.32,-136.897 5792.53,-143.539"/>
</g>
<!-- Node2 -->
<g id="node3" class="node"><title>Node2</title>
<polygon fill="white" stroke="#bfbfbf" points="1.5,-56.5 1.5,-75.5 72.5,-75.5 72.5,-56.5 1.5,-56.5"/>
<text text-anchor="middle" x="37" y="-63.5" font-family="Helvetica,sans-Serif" font-size="10.00">MooseApp.h</text>
</g>
<!-- Node1&#45;&gt;Node2 -->
<g id="edge2" class="edge"><title>Node1&#45;&gt;Node2</title>
<path fill="none" stroke="midnightblue" d="M37,-117.975C37,-109.58 37,-96.4806 37,-85.6631"/>
<polygon fill="midnightblue" stroke="midnightblue" points="40.5001,-85.5091 37,-75.5091 33.5001,-85.5091 40.5001,-85.5091"/>
</g>
<!-- Node17&#45;&gt;Node13 -->
<g id="edge13" class="edge"><title>Node17&#45;&gt;Node13</title>
<path fill="none" stroke="midnightblue" d="M1015.93,-117.975C986.987,-107.725 938.238,-90.4593 905.598,-78.8994"/>
<polygon fill="midnightblue" stroke="midnightblue" points="906.62,-75.5484 896.026,-75.5091 904.283,-82.1468 906.62,-75.5484"/>
</g>
<!-- Node46&#45;&gt;Node42 -->
<g id="edge38" class="edge"><title>Node46&#45;&gt;Node42</title>
<path fill="none" stroke="midnightblue" d="M4185,-117.975C4185,-109.58 4185,-96.4806 4185,-85.6631"/>
<polygon fill="midnightblue" stroke="midnightblue" points="4188.5,-85.5091 4185,-75.5091 4181.5,-85.5091 4188.5,-85.5091"/>
</g>
<!-- Node47&#45;&gt;Node42 -->
<g id="edge40" class="edge"><title>Node47&#45;&gt;Node42</title>
<path fill="none" stroke="midnightblue" d="M4275.81,-117.975C4258.34,-108.166 4229.42,-91.9346 4208.92,-80.425"/>
<polygon fill="midnightblue" stroke="midnightblue" points="4210.59,-77.3519 4200.16,-75.5091 4207.17,-83.456 4210.59,-77.3519"/>
</g>
<!-- Node48&#45;&gt;Node49 -->
<g id="edge42" class="edge"><title>Node48&#45;&gt;Node49</title>
<path fill="none" stroke="midnightblue" d="M4416.57,-117.975C4417.14,-109.58 4418.02,-96.4806 4418.75,-85.6631"/>
<polygon fill="midnightblue" stroke="midnightblue" points="4422.25,-85.7214 4419.43,-75.5091 4415.26,-85.2518 4422.25,-85.7214"/>
</g>
<!-- Node49&#45;&gt;Node50 -->
<g id="edge43" class="edge"><title>Node49&#45;&gt;Node50</title>
<path fill="none" stroke="midnightblue" d="M4429.48,-56.324C4438.2,-48.3414 4451.34,-36.3128 4461.9,-26.6529"/>
<polygon fill="midnightblue" stroke="midnightblue" points="4464.33,-29.1674 4469.35,-19.8339 4459.61,-24.0036 4464.33,-29.1674"/>
</g>
</g>
</svg>
