<?xml version="1.0" encoding="UTF-8" standalone="no"?>
<!DOCTYPE svg PUBLIC "-//W3C//DTD SVG 1.1//EN"
 "http://www.w3.org/Graphics/SVG/1.1/DTD/svg11.dtd">
<!-- Generated by graphviz version 2.38.0 (20140413.2041)
 -->
<!-- Title: include/kernels/ScalarAdvectionArtDiff.h Pages: 1 -->
<svg width="256pt" height="151pt"
 viewBox="0.00 0.00 256.00 151.00" xmlns="http://www.w3.org/2000/svg" xmlns:xlink="http://www.w3.org/1999/xlink">
<g id="graph0" class="graph" transform="scale(1 1) rotate(0) translate(4 147)">
<title>include/kernels/ScalarAdvectionArtDiff.h</title>
<polygon fill="white" stroke="none" points="-4,4 -4,-147 252,-147 252,4 -4,4"/>
<!-- Node0 -->
<g id="node1" class="node"><title>Node0</title>
<polygon fill="#bfbfbf" stroke="black" points="0,-112.5 0,-142.5 156,-142.5 156,-112.5 0,-112.5"/>
<text text-anchor="start" x="8" y="-130.5" font-family="Helvetica,sans-Serif" font-size="10.00">include/kernels/ScalarAdvection</text>
<text text-anchor="middle" x="78" y="-119.5" font-family="Helvetica,sans-Serif" font-size="10.00">ArtDiff.h</text>
</g>
<!-- Node1 -->
<g id="node2" class="node"><title>Node1</title>
<polygon fill="white" stroke="#bfbfbf" points="0.5,-56.5 0.5,-75.5 53.5,-75.5 53.5,-56.5 0.5,-56.5"/>
<text text-anchor="middle" x="27" y="-63.5" font-family="Helvetica,sans-Serif" font-size="10.00">Kernel.h</text>
</g>
<!-- Node0&#45;&gt;Node1 -->
<g id="edge1" class="edge"><title>Node0&#45;&gt;Node1</title>
<path fill="none" stroke="midnightblue" d="M65.9137,-112.399C58.4264,-103.664 48.7822,-92.4126 40.9682,-83.2962"/>
<polygon fill="midnightblue" stroke="midnightblue" points="43.5863,-80.9726 34.421,-75.6578 38.2715,-85.5281 43.5863,-80.9726"/>
</g>
<!-- Node2 -->
<g id="node3" class="node"><title>Node2</title>
<g id="a_node3"><a xlink:href="_scalar_transport_base_8h.html" target="_top" xlink:title="ScalarTransportBase.h">
<polygon fill="white" stroke="black" points="72,-56.5 72,-75.5 188,-75.5 188,-56.5 72,-56.5"/>
<text text-anchor="middle" x="130" y="-63.5" font-family="Helvetica,sans-Serif" font-size="10.00">ScalarTransportBase.h</text>
</a>
</g>
</g>
<!-- Node0&#45;&gt;Node2 -->
<g id="edge2" class="edge"><title>Node0&#45;&gt;Node2</title>
<path fill="none" stroke="midnightblue" d="M90.3233,-112.399C97.9574,-103.664 107.791,-92.4126 115.758,-83.2962"/>
<polygon fill="midnightblue" stroke="midnightblue" points="118.488,-85.4907 122.434,-75.6578 113.218,-80.8843 118.488,-85.4907"/>
</g>
<!-- Node3 -->
<g id="node4" class="node"><title>Node3</title>
<polygon fill="white" stroke="#bfbfbf" points="20.5,-0.5 20.5,-19.5 117.5,-19.5 117.5,-0.5 20.5,-0.5"/>
<text text-anchor="middle" x="69" y="-7.5" font-family="Helvetica,sans-Serif" font-size="10.00">InputParameters.h</text>
</g>
<!-- Node2&#45;&gt;Node3 -->
<g id="edge3" class="edge"><title>Node2&#45;&gt;Node3</title>
<path fill="none" stroke="midnightblue" d="M120.199,-56.324C111.182,-48.3414 97.594,-36.3128 86.682,-26.6529"/>
<polygon fill="midnightblue" stroke="midnightblue" points="88.7866,-23.8416 78.979,-19.8339 84.1467,-29.083 88.7866,-23.8416"/>
</g>
<!-- Node4 -->
<g id="node5" class="node"><title>Node4</title>
<polygon fill="white" stroke="#bfbfbf" points="136,-0.5 136,-19.5 248,-19.5 248,-0.5 136,-0.5"/>
<text text-anchor="middle" x="192" y="-7.5" font-family="Helvetica,sans-Serif" font-size="10.00">MooseVariableBase.h</text>
</g>
<!-- Node2&#45;&gt;Node4 -->
<g id="edge4" class="edge"><title>Node2&#45;&gt;Node4</title>
<path fill="none" stroke="midnightblue" d="M139.961,-56.324C149.127,-48.3414 162.937,-36.3128 174.028,-26.6529"/>
<polygon fill="midnightblue" stroke="midnightblue" points="176.615,-29.041 181.857,-19.8339 172.018,-23.7624 176.615,-29.041"/>
</g>
</g>
</svg>
