<?xml version="1.0" encoding="UTF-8" standalone="no"?>
<!DOCTYPE svg PUBLIC "-//W3C//DTD SVG 1.1//EN"
 "http://www.w3.org/Graphics/SVG/1.1/DTD/svg11.dtd">
<!-- Generated by graphviz version 2.38.0 (20140413.2041)
 -->
<!-- Title: include/kernels/SigmaR.h Pages: 1 -->
<svg width="256pt" height="84pt"
 viewBox="0.00 0.00 256.00 84.00" xmlns="http://www.w3.org/2000/svg" xmlns:xlink="http://www.w3.org/1999/xlink">
<g id="graph0" class="graph" transform="scale(1 1) rotate(0) translate(4 80)">
<title>include/kernels/SigmaR.h</title>
<polygon fill="white" stroke="none" points="-4,4 -4,-80 252,-80 252,4 -4,4"/>
<!-- Node5 -->
<g id="node1" class="node"><title>Node5</title>
<polygon fill="#bfbfbf" stroke="black" points="60.5,-56.5 60.5,-75.5 188.5,-75.5 188.5,-56.5 60.5,-56.5"/>
<text text-anchor="middle" x="124.5" y="-63.5" font-family="Helvetica,sans-Serif" font-size="10.00">include/kernels/SigmaR.h</text>
</g>
<!-- Node6 -->
<g id="node2" class="node"><title>Node6</title>
<g id="a_node2"><a xlink:href="_moltres_app_8_c.html" target="_top" xlink:title="src/base/MoltresApp.C">
<polygon fill="white" stroke="black" points="0,-0.5 0,-19.5 117,-19.5 117,-0.5 0,-0.5"/>
<text text-anchor="middle" x="58.5" y="-7.5" font-family="Helvetica,sans-Serif" font-size="10.00">src/base/MoltresApp.C</text>
</a>
</g>
</g>
<!-- Node5&#45;&gt;Node6 -->
<g id="edge1" class="edge"><title>Node5&#45;&gt;Node6</title>
<path fill="none" stroke="midnightblue" d="M105.946,-49.8197C94.1219,-40.1452 79.2144,-27.9481 69.297,-19.8339"/>
<polygon fill="midnightblue" stroke="midnightblue" points="103.94,-52.7004 113.896,-56.324 108.373,-47.2827 103.94,-52.7004"/>
</g>
<!-- Node7 -->
<g id="node3" class="node"><title>Node7</title>
<g id="a_node3"><a xlink:href="_sigma_r_8_c.html" target="_top" xlink:title="src/kernels/SigmaR.C">
<polygon fill="white" stroke="black" points="135,-0.5 135,-19.5 248,-19.5 248,-0.5 135,-0.5"/>
<text text-anchor="middle" x="191.5" y="-7.5" font-family="Helvetica,sans-Serif" font-size="10.00">src/kernels/SigmaR.C</text>
</a>
</g>
</g>
<!-- Node5&#45;&gt;Node7 -->
<g id="edge2" class="edge"><title>Node5&#45;&gt;Node7</title>
<path fill="none" stroke="midnightblue" d="M143.335,-49.8197C155.338,-40.1452 170.472,-27.9481 180.539,-19.8339"/>
<polygon fill="midnightblue" stroke="midnightblue" points="140.854,-47.3236 135.265,-56.324 145.247,-52.7738 140.854,-47.3236"/>
</g>
</g>
</svg>
