<?xml version="1.0" encoding="UTF-8" standalone="no"?>
<!DOCTYPE svg PUBLIC "-//W3C//DTD SVG 1.1//EN"
 "http://www.w3.org/Graphics/SVG/1.1/DTD/svg11.dtd">
<!-- Generated by graphviz version 2.38.0 (20140413.2041)
 -->
<!-- Title: TransientFissionHeatSource Pages: 1 -->
<svg width="179pt" height="84pt"
 viewBox="0.00 0.00 179.00 84.00" xmlns="http://www.w3.org/2000/svg" xmlns:xlink="http://www.w3.org/1999/xlink">
<g id="graph0" class="graph" transform="scale(1 1) rotate(0) translate(4 80)">
<title>TransientFissionHeatSource</title>
<polygon fill="white" stroke="none" points="-4,4 -4,-80 175,-80 175,4 -4,4"/>
<!-- Node0 -->
<g id="node1" class="node"><title>Node0</title>
<polygon fill="#bfbfbf" stroke="black" points="0,-0.5 0,-19.5 140,-19.5 140,-0.5 0,-0.5"/>
<text text-anchor="middle" x="70" y="-7.5" font-family="Helvetica,sans-Serif" font-size="10.00">TransientFissionHeatSource</text>
</g>
<!-- Node1 -->
<g id="node2" class="node"><title>Node1</title>
<polygon fill="white" stroke="#bfbfbf" points="1,-56.5 1,-75.5 45,-75.5 45,-56.5 1,-56.5"/>
<text text-anchor="middle" x="23" y="-63.5" font-family="Helvetica,sans-Serif" font-size="10.00">Kernel</text>
</g>
<!-- Node1&#45;&gt;Node0 -->
<g id="edge1" class="edge"><title>Node1&#45;&gt;Node0</title>
<path fill="none" stroke="midnightblue" d="M37.4208,-48.4314C45.6581,-38.9673 55.6539,-27.4827 62.3833,-19.7511"/>
<polygon fill="midnightblue" stroke="midnightblue" points="34.6863,-46.2421 30.7611,-56.083 39.9664,-50.8378 34.6863,-46.2421"/>
</g>
<!-- Node2 -->
<g id="node3" class="node"><title>Node2</title>
<g id="a_node3"><a xlink:href="class_scalar_transport_base.html" target="_top" xlink:title="ScalarTransportBase">
<polygon fill="white" stroke="black" points="63,-56.5 63,-75.5 171,-75.5 171,-56.5 63,-56.5"/>
<text text-anchor="middle" x="117" y="-63.5" font-family="Helvetica,sans-Serif" font-size="10.00">ScalarTransportBase</text>
</a>
</g>
</g>
<!-- Node2&#45;&gt;Node0 -->
<g id="edge2" class="edge"><title>Node2&#45;&gt;Node0</title>
<path fill="none" stroke="midnightblue" d="M102.579,-48.4314C94.3419,-38.9673 84.3461,-27.4827 77.6167,-19.7511"/>
<polygon fill="midnightblue" stroke="midnightblue" points="100.034,-50.8378 109.239,-56.083 105.314,-46.2421 100.034,-50.8378"/>
</g>
</g>
</svg>
