<?xml version="1.0" encoding="UTF-8" standalone="no"?>
<!DOCTYPE svg PUBLIC "-//W3C//DTD SVG 1.1//EN"
 "http://www.w3.org/Graphics/SVG/1.1/DTD/svg11.dtd">
<!-- Generated by graphviz version 2.38.0 (20140413.2041)
 -->
<!-- Title: CoupledFissionEigenKernel Pages: 1 -->
<svg width="204pt" height="84pt"
 viewBox="0.00 0.00 203.50 84.00" xmlns="http://www.w3.org/2000/svg" xmlns:xlink="http://www.w3.org/1999/xlink">
<g id="graph0" class="graph" transform="scale(1 1) rotate(0) translate(4 80)">
<title>CoupledFissionEigenKernel</title>
<polygon fill="white" stroke="none" points="-4,4 -4,-80 199.5,-80 199.5,4 -4,4"/>
<!-- Node0 -->
<g id="node1" class="node"><title>Node0</title>
<polygon fill="#bfbfbf" stroke="black" points="19,-0.5 19,-19.5 156,-19.5 156,-0.5 19,-0.5"/>
<text text-anchor="middle" x="87.5" y="-7.5" font-family="Helvetica,sans-Serif" font-size="10.00">CoupledFissionEigenKernel</text>
</g>
<!-- Node1 -->
<g id="node2" class="node"><title>Node1</title>
<polygon fill="white" stroke="#bfbfbf" points="0,-56.5 0,-75.5 69,-75.5 69,-56.5 0,-56.5"/>
<text text-anchor="middle" x="34.5" y="-63.5" font-family="Helvetica,sans-Serif" font-size="10.00">EigenKernel</text>
</g>
<!-- Node1&#45;&gt;Node0 -->
<g id="edge1" class="edge"><title>Node1&#45;&gt;Node0</title>
<path fill="none" stroke="midnightblue" d="M50.4809,-48.7175C59.8225,-39.1997 71.2459,-27.5608 78.911,-19.7511"/>
<polygon fill="midnightblue" stroke="midnightblue" points="47.7587,-46.4945 43.2519,-56.083 52.7545,-51.3978 47.7587,-46.4945"/>
</g>
<!-- Node2 -->
<g id="node3" class="node"><title>Node2</title>
<g id="a_node3"><a xlink:href="class_scalar_transport_base.html" target="_top" xlink:title="ScalarTransportBase">
<polygon fill="white" stroke="black" points="87.5,-56.5 87.5,-75.5 195.5,-75.5 195.5,-56.5 87.5,-56.5"/>
<text text-anchor="middle" x="141.5" y="-63.5" font-family="Helvetica,sans-Serif" font-size="10.00">ScalarTransportBase</text>
</a>
</g>
</g>
<!-- Node2&#45;&gt;Node0 -->
<g id="edge2" class="edge"><title>Node2&#45;&gt;Node0</title>
<path fill="none" stroke="midnightblue" d="M125.502,-49.0024C115.933,-39.4329 104.139,-27.6389 96.2511,-19.7511"/>
<polygon fill="midnightblue" stroke="midnightblue" points="123.037,-51.4868 132.583,-56.083 127.987,-46.537 123.037,-51.4868"/>
</g>
</g>
</svg>
