<?xml version="1.0" encoding="UTF-8" standalone="no"?>
<!DOCTYPE svg PUBLIC "-//W3C//DTD SVG 1.1//EN"
 "http://www.w3.org/Graphics/SVG/1.1/DTD/svg11.dtd">
<!-- Generated by graphviz version 2.38.0 (20140413.2041)
 -->
<!-- Title: ScalarTransportBase Pages: 1 -->
<svg width="669pt" height="750pt"
 viewBox="0.00 0.00 669.00 750.00" xmlns="http://www.w3.org/2000/svg" xmlns:xlink="http://www.w3.org/1999/xlink">
<g id="graph0" class="graph" transform="scale(1 1) rotate(0) translate(4 746)">
<title>ScalarTransportBase</title>
<polygon fill="white" stroke="none" points="-4,4 -4,-746 665,-746 665,4 -4,4"/>
<!-- Node0 -->
<g id="node1" class="node"><title>Node0</title>
<polygon fill="#bfbfbf" stroke="black" points="0,-361.5 0,-380.5 108,-380.5 108,-361.5 0,-361.5"/>
<text text-anchor="middle" x="54" y="-368.5" font-family="Helvetica,sans-Serif" font-size="10.00">ScalarTransportBase</text>
</g>
<!-- Node1 -->
<g id="node2" class="node"><title>Node1</title>
<g id="a_node2"><a xlink:href="class_coupled_fission_eigen_kernel.html" target="_top" xlink:title="CoupledFissionEigenKernel">
<polygon fill="white" stroke="black" points="159,-722.5 159,-741.5 296,-741.5 296,-722.5 159,-722.5"/>
<text text-anchor="middle" x="227.5" y="-729.5" font-family="Helvetica,sans-Serif" font-size="10.00">CoupledFissionEigenKernel</text>
</a>
</g>
</g>
<!-- Node0&#45;&gt;Node1 -->
<g id="edge1" class="edge"><title>Node0&#45;&gt;Node1</title>
<path fill="none" stroke="midnightblue" d="M57.468,-390.89C66.0528,-456.881 96.6909,-667.008 144,-713 148.321,-717.201 153.374,-720.543 158.813,-723.194"/>
<polygon fill="midnightblue" stroke="midnightblue" points="60.8967,-390.107 56.1614,-380.629 53.9527,-390.991 60.8967,-390.107"/>
</g>
<!-- Node2 -->
<g id="node3" class="node"><title>Node2</title>
<g id="a_node3"><a xlink:href="class_coupled_fission_kernel.html" target="_top" xlink:title="CoupledFissionKernel">
<polygon fill="white" stroke="black" points="171.5,-684.5 171.5,-703.5 283.5,-703.5 283.5,-684.5 171.5,-684.5"/>
<text text-anchor="middle" x="227.5" y="-691.5" font-family="Helvetica,sans-Serif" font-size="10.00">CoupledFissionKernel</text>
</a>
</g>
</g>
<!-- Node0&#45;&gt;Node2 -->
<g id="edge2" class="edge"><title>Node0&#45;&gt;Node2</title>
<path fill="none" stroke="midnightblue" d="M54.4358,-390.968C54.0577,-445.237 60.886,-596.607 144,-675 151.591,-682.16 161.318,-686.81 171.411,-689.792"/>
<polygon fill="midnightblue" stroke="midnightblue" points="57.9404,-390.715 54.6081,-380.658 50.9414,-390.598 57.9404,-390.715"/>
</g>
<!-- Node3 -->
<g id="node4" class="node"><title>Node3</title>
<g id="a_node4"><a xlink:href="class_coupled_scalar_advection.html" target="_top" xlink:title="CoupledScalarAdvection">
<polygon fill="white" stroke="black" points="165.5,-646.5 165.5,-665.5 289.5,-665.5 289.5,-646.5 165.5,-646.5"/>
<text text-anchor="middle" x="227.5" y="-653.5" font-family="Helvetica,sans-Serif" font-size="10.00">CoupledScalarAdvection</text>
</a>
</g>
</g>
<!-- Node0&#45;&gt;Node3 -->
<g id="edge3" class="edge"><title>Node0&#45;&gt;Node3</title>
<path fill="none" stroke="midnightblue" d="M55.4014,-390.766C57.5288,-440.202 70.2323,-570.03 144,-637 150.094,-642.533 157.47,-646.554 165.275,-649.46"/>
<polygon fill="midnightblue" stroke="midnightblue" points="58.8908,-390.381 55.0677,-380.5 51.8945,-390.609 58.8908,-390.381"/>
</g>
<!-- Node4 -->
<g id="node5" class="node"><title>Node4</title>
<g id="a_node5"><a xlink:href="class_coupled_scalar_advection_no_b_c_b_c.html" target="_top" xlink:title="CoupledScalarAdvectionNoBCBC">
<polygon fill="white" stroke="black" points="145,-608.5 145,-627.5 310,-627.5 310,-608.5 145,-608.5"/>
<text text-anchor="middle" x="227.5" y="-615.5" font-family="Helvetica,sans-Serif" font-size="10.00">CoupledScalarAdvectionNoBCBC</text>
</a>
</g>
</g>
<!-- Node0&#45;&gt;Node4 -->
<g id="edge4" class="edge"><title>Node0&#45;&gt;Node4</title>
<path fill="none" stroke="midnightblue" d="M56.6418,-390.62C61.4447,-434.948 79.515,-543.293 144,-599 148.449,-602.843 153.522,-605.95 158.915,-608.455"/>
<polygon fill="midnightblue" stroke="midnightblue" points="60.1167,-390.192 55.6672,-380.577 53.1495,-390.868 60.1167,-390.192"/>
</g>
<!-- Node5 -->
<g id="node6" class="node"><title>Node5</title>
<g id="a_node6"><a xlink:href="class_delayed_neutron_source.html" target="_top" xlink:title="DelayedNeutronSource">
<polygon fill="white" stroke="black" points="168.5,-570.5 168.5,-589.5 286.5,-589.5 286.5,-570.5 168.5,-570.5"/>
<text text-anchor="middle" x="227.5" y="-577.5" font-family="Helvetica,sans-Serif" font-size="10.00">DelayedNeutronSource</text>
</a>
</g>
</g>
<!-- Node0&#45;&gt;Node5 -->
<g id="edge5" class="edge"><title>Node0&#45;&gt;Node5</title>
<path fill="none" stroke="midnightblue" d="M58.3672,-390.755C66.0829,-429.688 88.8128,-516.414 144,-561 151.088,-566.727 159.582,-570.794 168.385,-573.67"/>
<polygon fill="midnightblue" stroke="midnightblue" points="61.769,-389.903 56.5044,-380.709 54.8863,-391.179 61.769,-389.903"/>
</g>
<!-- Node6 -->
<g id="node7" class="node"><title>Node6</title>
<g id="a_node7"><a xlink:href="class_div_free_coupled_scalar_advection.html" target="_top" xlink:title="DivFreeCoupledScalarAdvection">
<polygon fill="white" stroke="black" points="148.5,-532.5 148.5,-551.5 306.5,-551.5 306.5,-532.5 148.5,-532.5"/>
<text text-anchor="middle" x="227.5" y="-539.5" font-family="Helvetica,sans-Serif" font-size="10.00">DivFreeCoupledScalarAdvection</text>
</a>
</g>
</g>
<!-- Node0&#45;&gt;Node6 -->
<g id="edge6" class="edge"><title>Node0&#45;&gt;Node6</title>
<path fill="none" stroke="midnightblue" d="M60.7353,-390.389C71.4539,-423.099 97.7288,-488.999 144,-523 149.211,-526.829 155.068,-529.904 161.195,-532.37"/>
<polygon fill="midnightblue" stroke="midnightblue" points="64.0181,-389.16 57.6903,-380.662 57.3378,-391.251 64.0181,-389.16"/>
</g>
<!-- Node7 -->
<g id="node8" class="node"><title>Node7</title>
<g id="a_node8"><a xlink:href="class_elm_integ_tot_fiss_postprocessor.html" target="_top" xlink:title="ElmIntegTotFissPostprocessor">
<polygon fill="white" stroke="black" points="151.5,-494.5 151.5,-513.5 303.5,-513.5 303.5,-494.5 151.5,-494.5"/>
<text text-anchor="middle" x="227.5" y="-501.5" font-family="Helvetica,sans-Serif" font-size="10.00">ElmIntegTotFissPostprocessor</text>
</a>
</g>
</g>
<!-- Node0&#45;&gt;Node7 -->
<g id="edge7" class="edge"><title>Node0&#45;&gt;Node7</title>
<path fill="none" stroke="midnightblue" d="M64.3823,-389.854C78.1773,-415.539 106.421,-461.064 144,-485 150.074,-488.869 156.846,-491.953 163.825,-494.411"/>
<polygon fill="midnightblue" stroke="midnightblue" points="67.38,-388.032 59.6645,-380.771 61.168,-391.258 67.38,-388.032"/>
</g>
<!-- Node10 -->
<g id="node11" class="node"><title>Node10</title>
<g id="a_node11"><a xlink:href="class_group_diffusion.html" target="_top" xlink:title="GroupDiffusion">
<polygon fill="white" stroke="black" points="186.5,-456.5 186.5,-475.5 268.5,-475.5 268.5,-456.5 186.5,-456.5"/>
<text text-anchor="middle" x="227.5" y="-463.5" font-family="Helvetica,sans-Serif" font-size="10.00">GroupDiffusion</text>
</a>
</g>
</g>
<!-- Node0&#45;&gt;Node10 -->
<g id="edge10" class="edge"><title>Node0&#45;&gt;Node10</title>
<path fill="none" stroke="midnightblue" d="M70.4294,-388.368C86.9211,-405.835 114.682,-432.234 144,-447 156.996,-453.545 172.278,-457.87 186.135,-460.712"/>
<polygon fill="midnightblue" stroke="midnightblue" points="72.6285,-385.589 63.2813,-380.601 67.4777,-390.33 72.6285,-385.589"/>
</g>
<!-- Node11 -->
<g id="node12" class="node"><title>Node11</title>
<g id="a_node12"><a xlink:href="class_in_scatter.html" target="_top" xlink:title="InScatter">
<polygon fill="white" stroke="black" points="199.5,-418.5 199.5,-437.5 255.5,-437.5 255.5,-418.5 199.5,-418.5"/>
<text text-anchor="middle" x="227.5" y="-425.5" font-family="Helvetica,sans-Serif" font-size="10.00">InScatter</text>
</a>
</g>
</g>
<!-- Node0&#45;&gt;Node11 -->
<g id="edge11" class="edge"><title>Node0&#45;&gt;Node11</title>
<path fill="none" stroke="midnightblue" d="M84.2053,-385.023C101.338,-392.854 123.569,-402.344 144,-409 162.167,-414.919 183.158,-419.726 199.42,-423.024"/>
<polygon fill="midnightblue" stroke="midnightblue" points="85.3032,-381.673 74.7591,-380.637 82.3557,-388.023 85.3032,-381.673"/>
</g>
<!-- Node12 -->
<g id="node13" class="node"><title>Node12</title>
<g id="a_node13"><a xlink:href="class_integral_new_variable_postprocessor.html" target="_top" xlink:title="IntegralNewVariablePostprocessor">
<polygon fill="white" stroke="black" points="144,-380.5 144,-399.5 311,-399.5 311,-380.5 144,-380.5"/>
<text text-anchor="middle" x="227.5" y="-387.5" font-family="Helvetica,sans-Serif" font-size="10.00">IntegralNewVariablePostprocessor</text>
</a>
</g>
</g>
<!-- Node0&#45;&gt;Node12 -->
<g id="edge12" class="edge"><title>Node0&#45;&gt;Node12</title>
<path fill="none" stroke="midnightblue" d="M118.327,-378.016C126.672,-378.94 135.321,-379.898 143.927,-380.852"/>
<polygon fill="midnightblue" stroke="midnightblue" points="118.648,-374.53 108.324,-376.908 117.877,-381.488 118.648,-374.53"/>
</g>
<!-- Node13 -->
<g id="node14" class="node"><title>Node13</title>
<g id="a_node14"><a xlink:href="class_integral_old_variable_postprocessor.html" target="_top" xlink:title="IntegralOldVariablePostprocessor">
<polygon fill="white" stroke="black" points="146.5,-342.5 146.5,-361.5 308.5,-361.5 308.5,-342.5 146.5,-342.5"/>
<text text-anchor="middle" x="227.5" y="-349.5" font-family="Helvetica,sans-Serif" font-size="10.00">IntegralOldVariablePostprocessor</text>
</a>
</g>
</g>
<!-- Node0&#45;&gt;Node13 -->
<g id="edge13" class="edge"><title>Node0&#45;&gt;Node13</title>
<path fill="none" stroke="midnightblue" d="M118.447,-363.971C127.571,-362.96 137.057,-361.909 146.452,-360.868"/>
<polygon fill="midnightblue" stroke="midnightblue" points="117.877,-360.512 108.324,-365.092 118.648,-367.47 117.877,-360.512"/>
</g>
<!-- Node14 -->
<g id="node15" class="node"><title>Node14</title>
<g id="a_node15"><a xlink:href="class_lin_log_penalty_dirichlet_b_c.html" target="_top" xlink:title="LinLogPenaltyDirichletBC">
<polygon fill="white" stroke="black" points="163.5,-304.5 163.5,-323.5 291.5,-323.5 291.5,-304.5 163.5,-304.5"/>
<text text-anchor="middle" x="227.5" y="-311.5" font-family="Helvetica,sans-Serif" font-size="10.00">LinLogPenaltyDirichletBC</text>
</a>
</g>
</g>
<!-- Node0&#45;&gt;Node14 -->
<g id="edge14" class="edge"><title>Node0&#45;&gt;Node14</title>
<path fill="none" stroke="midnightblue" d="M84.2053,-356.977C101.338,-349.146 123.569,-339.656 144,-333 155.04,-329.403 167.123,-326.217 178.554,-323.53"/>
<polygon fill="midnightblue" stroke="midnightblue" points="82.3557,-353.977 74.7591,-361.363 85.3032,-360.327 82.3557,-353.977"/>
</g>
<!-- Node15 -->
<g id="node16" class="node"><title>Node15</title>
<g id="a_node16"><a xlink:href="class_precursor_decay.html" target="_top" xlink:title="PrecursorDecay">
<polygon fill="white" stroke="black" points="184,-266.5 184,-285.5 271,-285.5 271,-266.5 184,-266.5"/>
<text text-anchor="middle" x="227.5" y="-273.5" font-family="Helvetica,sans-Serif" font-size="10.00">PrecursorDecay</text>
</a>
</g>
</g>
<!-- Node0&#45;&gt;Node15 -->
<g id="edge15" class="edge"><title>Node0&#45;&gt;Node15</title>
<path fill="none" stroke="midnightblue" d="M70.4294,-353.632C86.9211,-336.165 114.682,-309.766 144,-295 156.208,-288.851 170.434,-284.663 183.601,-281.821"/>
<polygon fill="midnightblue" stroke="midnightblue" points="67.4777,-351.67 63.2813,-361.399 72.6285,-356.411 67.4777,-351.67"/>
</g>
<!-- Node16 -->
<g id="node17" class="node"><title>Node16</title>
<g id="a_node17"><a xlink:href="class_precursor_source.html" target="_top" xlink:title="PrecursorSource">
<polygon fill="white" stroke="black" points="183,-228.5 183,-247.5 272,-247.5 272,-228.5 183,-228.5"/>
<text text-anchor="middle" x="227.5" y="-235.5" font-family="Helvetica,sans-Serif" font-size="10.00">PrecursorSource</text>
</a>
</g>
</g>
<!-- Node0&#45;&gt;Node16 -->
<g id="edge16" class="edge"><title>Node0&#45;&gt;Node16</title>
<path fill="none" stroke="midnightblue" d="M64.3823,-352.146C78.1773,-326.461 106.421,-280.936 144,-257 155.529,-249.657 169.569,-245.141 182.775,-242.368"/>
<polygon fill="midnightblue" stroke="midnightblue" points="61.168,-350.742 59.6645,-361.229 67.38,-353.968 61.168,-350.742"/>
</g>
<!-- Node17 -->
<g id="node18" class="node"><title>Node17</title>
<g id="a_node18"><a xlink:href="class_scalar_advection_art_diff.html" target="_top" xlink:title="ScalarAdvectionArtDiff">
<polygon fill="white" stroke="black" points="169.5,-190.5 169.5,-209.5 285.5,-209.5 285.5,-190.5 169.5,-190.5"/>
<text text-anchor="middle" x="227.5" y="-197.5" font-family="Helvetica,sans-Serif" font-size="10.00">ScalarAdvectionArtDiff</text>
</a>
</g>
</g>
<!-- Node0&#45;&gt;Node17 -->
<g id="edge17" class="edge"><title>Node0&#45;&gt;Node17</title>
<path fill="none" stroke="midnightblue" d="M60.7353,-351.611C71.4539,-318.901 97.7288,-253.001 144,-219 151.462,-213.517 160.247,-209.582 169.253,-206.765"/>
<polygon fill="midnightblue" stroke="midnightblue" points="57.3378,-350.749 57.6903,-361.338 64.0181,-352.84 57.3378,-350.749"/>
</g>
<!-- Node18 -->
<g id="node19" class="node"><title>Node18</title>
<g id="a_node19"><a xlink:href="class_scalar_advection_art_diff_no_b_c_b_c.html" target="_top" xlink:title="ScalarAdvectionArtDiffNoBCBC">
<polygon fill="white" stroke="black" points="148.5,-152.5 148.5,-171.5 306.5,-171.5 306.5,-152.5 148.5,-152.5"/>
<text text-anchor="middle" x="227.5" y="-159.5" font-family="Helvetica,sans-Serif" font-size="10.00">ScalarAdvectionArtDiffNoBCBC</text>
</a>
</g>
</g>
<!-- Node0&#45;&gt;Node18 -->
<g id="edge18" class="edge"><title>Node0&#45;&gt;Node18</title>
<path fill="none" stroke="midnightblue" d="M58.3672,-351.245C66.0829,-312.312 88.8128,-225.586 144,-181 148.802,-177.121 154.249,-174.003 160,-171.501"/>
<polygon fill="midnightblue" stroke="midnightblue" points="54.8863,-350.821 56.5044,-361.291 61.769,-352.097 54.8863,-350.821"/>
</g>
<!-- Node19 -->
<g id="node20" class="node"><title>Node19</title>
<g id="a_node20"><a xlink:href="class_scalar_transport_time_derivative.html" target="_top" xlink:title="ScalarTransportTimeDerivative">
<polygon fill="white" stroke="black" points="151.5,-114.5 151.5,-133.5 303.5,-133.5 303.5,-114.5 151.5,-114.5"/>
<text text-anchor="middle" x="227.5" y="-121.5" font-family="Helvetica,sans-Serif" font-size="10.00">ScalarTransportTimeDerivative</text>
</a>
</g>
</g>
<!-- Node0&#45;&gt;Node19 -->
<g id="edge19" class="edge"><title>Node0&#45;&gt;Node19</title>
<path fill="none" stroke="midnightblue" d="M56.6418,-351.38C61.4447,-307.052 79.515,-198.707 144,-143 148.449,-139.157 153.522,-136.05 158.915,-133.545"/>
<polygon fill="midnightblue" stroke="midnightblue" points="53.1495,-351.132 55.6672,-361.423 60.1167,-351.808 53.1495,-351.132"/>
</g>
<!-- Node21 -->
<g id="node22" class="node"><title>Node21</title>
<g id="a_node22"><a xlink:href="class_sigma_r.html" target="_top" xlink:title="SigmaR">
<polygon fill="white" stroke="black" points="201.5,-76.5 201.5,-95.5 253.5,-95.5 253.5,-76.5 201.5,-76.5"/>
<text text-anchor="middle" x="227.5" y="-83.5" font-family="Helvetica,sans-Serif" font-size="10.00">SigmaR</text>
</a>
</g>
</g>
<!-- Node0&#45;&gt;Node21 -->
<g id="edge21" class="edge"><title>Node0&#45;&gt;Node21</title>
<path fill="none" stroke="midnightblue" d="M55.4014,-351.234C57.5288,-301.798 70.2323,-171.97 144,-105 159.453,-90.9712 183.146,-86.6597 201.184,-85.6017"/>
<polygon fill="midnightblue" stroke="midnightblue" points="51.8945,-351.391 55.0677,-361.5 58.8908,-351.619 51.8945,-351.391"/>
</g>
<!-- Node22 -->
<g id="node23" class="node"><title>Node22</title>
<g id="a_node23"><a xlink:href="class_transient_fission_heat_source.html" target="_top" xlink:title="TransientFissionHeatSource">
<polygon fill="white" stroke="black" points="157.5,-38.5 157.5,-57.5 297.5,-57.5 297.5,-38.5 157.5,-38.5"/>
<text text-anchor="middle" x="227.5" y="-45.5" font-family="Helvetica,sans-Serif" font-size="10.00">TransientFissionHeatSource</text>
</a>
</g>
</g>
<!-- Node0&#45;&gt;Node22 -->
<g id="edge22" class="edge"><title>Node0&#45;&gt;Node22</title>
<path fill="none" stroke="midnightblue" d="M54.4358,-351.032C54.0577,-296.763 60.886,-145.393 144,-67 148.063,-63.1678 152.738,-60.0546 157.753,-57.5314"/>
<polygon fill="midnightblue" stroke="midnightblue" points="50.9414,-351.402 54.6081,-361.342 57.9404,-351.285 50.9414,-351.402"/>
</g>
<!-- Node23 -->
<g id="node24" class="node"><title>Node23</title>
<g id="a_node24"><a xlink:href="class_vacuum_conc_b_c.html" target="_top" xlink:title="VacuumConcBC">
<polygon fill="white" stroke="black" points="182.5,-0.5 182.5,-19.5 272.5,-19.5 272.5,-0.5 182.5,-0.5"/>
<text text-anchor="middle" x="227.5" y="-7.5" font-family="Helvetica,sans-Serif" font-size="10.00">VacuumConcBC</text>
</a>
</g>
</g>
<!-- Node0&#45;&gt;Node23 -->
<g id="edge23" class="edge"><title>Node0&#45;&gt;Node23</title>
<path fill="none" stroke="midnightblue" d="M57.468,-351.11C66.0528,-285.119 96.6909,-74.992 144,-29 154.222,-19.0621 168.543,-13.9275 182.388,-11.3829"/>
<polygon fill="midnightblue" stroke="midnightblue" points="53.9527,-351.009 56.1614,-361.371 60.8967,-351.893 53.9527,-351.009"/>
</g>
<!-- Node8 -->
<g id="node9" class="node"><title>Node8</title>
<g id="a_node9"><a xlink:href="class_elm_integ_tot_fiss_heat_postprocessor.html" target="_top" xlink:title="ElmIntegTotFissHeatPostprocessor">
<polygon fill="white" stroke="black" points="347,-494.5 347,-513.5 520,-513.5 520,-494.5 347,-494.5"/>
<text text-anchor="middle" x="433.5" y="-501.5" font-family="Helvetica,sans-Serif" font-size="10.00">ElmIntegTotFissHeatPostprocessor</text>
</a>
</g>
</g>
<!-- Node7&#45;&gt;Node8 -->
<g id="edge8" class="edge"><title>Node7&#45;&gt;Node8</title>
<path fill="none" stroke="midnightblue" d="M313.604,-504C324.605,-504 335.875,-504 346.884,-504"/>
<polygon fill="midnightblue" stroke="midnightblue" points="313.593,-500.5 303.593,-504 313.593,-507.5 313.593,-500.5"/>
</g>
<!-- Node9 -->
<g id="node10" class="node"><title>Node9</title>
<g id="a_node10"><a xlink:href="class_average_fission_heat.html" target="_top" xlink:title="AverageFissionHeat">
<polygon fill="white" stroke="black" points="556,-494.5 556,-513.5 661,-513.5 661,-494.5 556,-494.5"/>
<text text-anchor="middle" x="608.5" y="-501.5" font-family="Helvetica,sans-Serif" font-size="10.00">AverageFissionHeat</text>
</a>
</g>
</g>
<!-- Node8&#45;&gt;Node9 -->
<g id="edge9" class="edge"><title>Node8&#45;&gt;Node9</title>
<path fill="none" stroke="midnightblue" d="M530.403,-504C539.03,-504 547.53,-504 555.555,-504"/>
<polygon fill="midnightblue" stroke="midnightblue" points="530.24,-500.5 520.24,-504 530.24,-507.5 530.24,-500.5"/>
</g>
<!-- Node20 -->
<g id="node21" class="node"><title>Node20</title>
<g id="a_node21"><a xlink:href="class_nt_time_derivative.html" target="_top" xlink:title="NtTimeDerivative">
<polygon fill="white" stroke="black" points="387,-114.5 387,-133.5 480,-133.5 480,-114.5 387,-114.5"/>
<text text-anchor="middle" x="433.5" y="-121.5" font-family="Helvetica,sans-Serif" font-size="10.00">NtTimeDerivative</text>
</a>
</g>
</g>
<!-- Node19&#45;&gt;Node20 -->
<g id="edge20" class="edge"><title>Node19&#45;&gt;Node20</title>
<path fill="none" stroke="midnightblue" d="M313.857,-124C338.919,-124 365.359,-124 386.902,-124"/>
<polygon fill="midnightblue" stroke="midnightblue" points="313.593,-120.5 303.593,-124 313.593,-127.5 313.593,-120.5"/>
</g>
</g>
</svg>
