<?xml version="1.0" encoding="UTF-8" standalone="no"?>
<!DOCTYPE svg PUBLIC "-//W3C//DTD SVG 1.1//EN"
 "http://www.w3.org/Graphics/SVG/1.1/DTD/svg11.dtd">
<!-- Generated by graphviz version 2.38.0 (20140413.2041)
 -->
<!-- Title: include Pages: 1 -->
<svg width="568pt" height="148pt"
 viewBox="0.00 0.00 568.00 148.00" xmlns="http://www.w3.org/2000/svg" xmlns:xlink="http://www.w3.org/1999/xlink">
<g id="graph0" class="graph" transform="scale(1 1) rotate(0) translate(4 144)">
<title>include</title>
<polygon fill="white" stroke="none" points="-4,4 -4,-144 564,-144 564,4 -4,4"/>
<g id="clust1" class="cluster"><title>clusterdir_d44c64559bbebec7f509842c48db8b23</title>
<g id="a_clust1"><a xlink:href="dir_d44c64559bbebec7f509842c48db8b23.html" target="_top">
<polygon fill="#eeeeff" stroke="black" points="8,-8 8,-132 552,-132 552,-8 8,-8"/>
</a>
</g>
</g>
<!-- dir_d44c64559bbebec7f509842c48db8b23 -->
<g id="node1" class="node"><title>dir_d44c64559bbebec7f509842c48db8b23</title>
<text text-anchor="middle" x="517" y="-103.5" font-family="Helvetica,sans-Serif" font-size="10.00">include</text>
</g>
<!-- dir_0b9ed7732631b4e65a5030233eb5fc5a -->
<g id="node2" class="node"><title>dir_0b9ed7732631b4e65a5030233eb5fc5a</title>
<g id="a_node2"><a xlink:href="dir_0b9ed7732631b4e65a5030233eb5fc5a.html" target="_top" xlink:title="actions">
<polygon fill="white" stroke="black" points="472,-124 418,-124 418,-88 472,-88 472,-124"/>
<text text-anchor="middle" x="445" y="-103.5" font-family="Helvetica,sans-Serif" font-size="10.00">actions</text>
</a>
</g>
</g>
<!-- dir_ad471e77ba5a72af0767bcb44d2be997 -->
<g id="node3" class="node"><title>dir_ad471e77ba5a72af0767bcb44d2be997</title>
<g id="a_node3"><a xlink:href="dir_ad471e77ba5a72af0767bcb44d2be997.html" target="_top" xlink:title="auxkernels">
<polygon fill="white" stroke="black" points="400,-124 336,-124 336,-88 400,-88 400,-124"/>
<text text-anchor="middle" x="368" y="-103.5" font-family="Helvetica,sans-Serif" font-size="10.00">auxkernels</text>
</a>
</g>
</g>
<!-- dir_ab1c81409f0df724f17c9ef30afee877 -->
<g id="node4" class="node"><title>dir_ab1c81409f0df724f17c9ef30afee877</title>
<g id="a_node4"><a xlink:href="dir_ab1c81409f0df724f17c9ef30afee877.html" target="_top" xlink:title="base">
<polygon fill="white" stroke="black" points="246,-52 192,-52 192,-16 246,-16 246,-52"/>
<text text-anchor="middle" x="219" y="-31.5" font-family="Helvetica,sans-Serif" font-size="10.00">base</text>
</a>
</g>
</g>
<!-- dir_6c5a344b9c03c6428d49f0b38500fe7f -->
<g id="node5" class="node"><title>dir_6c5a344b9c03c6428d49f0b38500fe7f</title>
<g id="a_node5"><a xlink:href="dir_6c5a344b9c03c6428d49f0b38500fe7f.html" target="_top" xlink:title="bcs">
<polygon fill="white" stroke="black" points="318,-124 264,-124 264,-88 318,-88 318,-124"/>
<text text-anchor="middle" x="291" y="-103.5" font-family="Helvetica,sans-Serif" font-size="10.00">bcs</text>
</a>
</g>
</g>
<!-- dir_6c5a344b9c03c6428d49f0b38500fe7f&#45;&gt;dir_ab1c81409f0df724f17c9ef30afee877 -->
<g id="edge1" class="edge"><title>dir_6c5a344b9c03c6428d49f0b38500fe7f&#45;&gt;dir_ab1c81409f0df724f17c9ef30afee877</title>
<path fill="none" stroke="black" d="M273.202,-87.6966C264.396,-79.135 253.618,-68.6562 243.999,-59.3045"/>
<polygon fill="black" stroke="black" points="246.203,-56.5657 236.593,-52.1043 241.323,-61.5846 246.203,-56.5657"/>
<g id="a_edge1&#45;headlabel"><a xlink:href="dir_000004_000003.html" target="_top" xlink:title="4">
<text text-anchor="middle" x="250.759" y="-54.5356" font-family="Helvetica,sans-Serif" font-size="10.00">4</text>
</a>
</g>
</g>
<!-- dir_f2fd8bd6424c93166d6dd5f2b70706e7 -->
<g id="node6" class="node"><title>dir_f2fd8bd6424c93166d6dd5f2b70706e7</title>
<g id="a_node6"><a xlink:href="dir_f2fd8bd6424c93166d6dd5f2b70706e7.html" target="_top" xlink:title="kernels">
<polygon fill="white" stroke="black" points="246,-124 192,-124 192,-88 246,-88 246,-124"/>
<text text-anchor="middle" x="219" y="-103.5" font-family="Helvetica,sans-Serif" font-size="10.00">kernels</text>
</a>
</g>
</g>
<!-- dir_f2fd8bd6424c93166d6dd5f2b70706e7&#45;&gt;dir_ab1c81409f0df724f17c9ef30afee877 -->
<g id="edge2" class="edge"><title>dir_f2fd8bd6424c93166d6dd5f2b70706e7&#45;&gt;dir_ab1c81409f0df724f17c9ef30afee877</title>
<path fill="none" stroke="black" d="M219,-87.6966C219,-79.9827 219,-70.7125 219,-62.1124"/>
<polygon fill="black" stroke="black" points="222.5,-62.1043 219,-52.1043 215.5,-62.1044 222.5,-62.1043"/>
<g id="a_edge2&#45;headlabel"><a xlink:href="dir_000005_000003.html" target="_top" xlink:title="13">
<text text-anchor="middle" x="225.339" y="-63.199" font-family="Helvetica,sans-Serif" font-size="10.00">13</text>
</a>
</g>
</g>
<!-- dir_e8162cbcd2a0630786d64b00f43c2c71 -->
<g id="node7" class="node"><title>dir_e8162cbcd2a0630786d64b00f43c2c71</title>
<g id="a_node7"><a xlink:href="dir_e8162cbcd2a0630786d64b00f43c2c71.html" target="_top" xlink:title="materials">
<polygon fill="white" stroke="black" points="174,-124 118,-124 118,-88 174,-88 174,-124"/>
<text text-anchor="middle" x="146" y="-103.5" font-family="Helvetica,sans-Serif" font-size="10.00">materials</text>
</a>
</g>
</g>
<!-- dir_b843596cc84dd0b637fa3210ef36d913 -->
<g id="node8" class="node"><title>dir_b843596cc84dd0b637fa3210ef36d913</title>
<g id="a_node8"><a xlink:href="dir_b843596cc84dd0b637fa3210ef36d913.html" target="_top" xlink:title="postprocessors">
<polygon fill="white" stroke="black" points="99.5,-124 16.5,-124 16.5,-88 99.5,-88 99.5,-124"/>
<text text-anchor="middle" x="58" y="-103.5" font-family="Helvetica,sans-Serif" font-size="10.00">postprocessors</text>
</a>
</g>
</g>
<!-- dir_b843596cc84dd0b637fa3210ef36d913&#45;&gt;dir_ab1c81409f0df724f17c9ef30afee877 -->
<g id="edge3" class="edge"><title>dir_b843596cc84dd0b637fa3210ef36d913&#45;&gt;dir_ab1c81409f0df724f17c9ef30afee877</title>
<path fill="none" stroke="black" d="M97.385,-87.8761C123.305,-76.6065 156.999,-61.957 182.346,-50.9364"/>
<polygon fill="black" stroke="black" points="183.844,-54.102 191.619,-46.9049 181.052,-47.6825 183.844,-54.102"/>
<g id="a_edge3&#45;headlabel"><a xlink:href="dir_000007_000003.html" target="_top" xlink:title="3">
<text text-anchor="middle" x="181.679" y="-55.639" font-family="Helvetica,sans-Serif" font-size="10.00">3</text>
</a>
</g>
</g>
</g>
</svg>
