<?xml version="1.0" encoding="UTF-8" standalone="no"?>
<!DOCTYPE svg PUBLIC "-//W3C//DTD SVG 1.1//EN"
 "http://www.w3.org/Graphics/SVG/1.1/DTD/svg11.dtd">
<!-- Generated by graphviz version 2.38.0 (20140413.2041)
 -->
<!-- Title: src/bcs/ConservativeAdvectionNoBCBC.C Pages: 1 -->
<svg width="175pt" height="151pt"
 viewBox="0.00 0.00 175.00 151.00" xmlns="http://www.w3.org/2000/svg" xmlns:xlink="http://www.w3.org/1999/xlink">
<g id="graph0" class="graph" transform="scale(1 1) rotate(0) translate(4 147)">
<title>src/bcs/ConservativeAdvectionNoBCBC.C</title>
<polygon fill="white" stroke="none" points="-4,4 -4,-147 171,-147 171,4 -4,4"/>
<!-- Node0 -->
<g id="node1" class="node"><title>Node0</title>
<polygon fill="#bfbfbf" stroke="black" points="7,-112.5 7,-142.5 160,-142.5 160,-112.5 7,-112.5"/>
<text text-anchor="start" x="15" y="-130.5" font-family="Helvetica,sans-Serif" font-size="10.00">src/bcs/ConservativeAdvection</text>
<text text-anchor="middle" x="83.5" y="-119.5" font-family="Helvetica,sans-Serif" font-size="10.00">NoBCBC.C</text>
</g>
<!-- Node1 -->
<g id="node2" class="node"><title>Node1</title>
<g id="a_node2"><a xlink:href="_conservative_advection_no_b_c_b_c_8h.html" target="_top" xlink:title="ConservativeAdvectionNoBCBC.h">
<polygon fill="white" stroke="black" points="-1.42109e-14,-56.5 -1.42109e-14,-75.5 167,-75.5 167,-56.5 -1.42109e-14,-56.5"/>
<text text-anchor="middle" x="83.5" y="-63.5" font-family="Helvetica,sans-Serif" font-size="10.00">ConservativeAdvectionNoBCBC.h</text>
</a>
</g>
</g>
<!-- Node0&#45;&gt;Node1 -->
<g id="edge1" class="edge"><title>Node0&#45;&gt;Node1</title>
<path fill="none" stroke="midnightblue" d="M83.5,-112.399C83.5,-104.466 83.5,-94.458 83.5,-85.8583"/>
<polygon fill="midnightblue" stroke="midnightblue" points="87.0001,-85.6577 83.5,-75.6578 80.0001,-85.6578 87.0001,-85.6577"/>
</g>
<!-- Node2 -->
<g id="node3" class="node"><title>Node2</title>
<polygon fill="white" stroke="#bfbfbf" points="42,-0.5 42,-19.5 125,-19.5 125,-0.5 42,-0.5"/>
<text text-anchor="middle" x="83.5" y="-7.5" font-family="Helvetica,sans-Serif" font-size="10.00">IntegratedBC.h</text>
</g>
<!-- Node1&#45;&gt;Node2 -->
<g id="edge2" class="edge"><title>Node1&#45;&gt;Node2</title>
<path fill="none" stroke="midnightblue" d="M83.5,-56.083C83.5,-49.0059 83.5,-38.8611 83.5,-29.9865"/>
<polygon fill="midnightblue" stroke="midnightblue" points="87.0001,-29.751 83.5,-19.7511 80.0001,-29.7511 87.0001,-29.751"/>
</g>
</g>
</svg>
