<?xml version="1.0" encoding="UTF-8" standalone="no"?>
<!DOCTYPE svg PUBLIC "-//W3C//DTD SVG 1.1//EN"
 "http://www.w3.org/Graphics/SVG/1.1/DTD/svg11.dtd">
<!-- Generated by graphviz version 2.38.0 (20140413.2041)
 -->
<!-- Title: include/kernels/GammaHeatSource.h Pages: 1 -->
<svg width="308pt" height="95pt"
 viewBox="0.00 0.00 307.50 95.00" xmlns="http://www.w3.org/2000/svg" xmlns:xlink="http://www.w3.org/1999/xlink">
<g id="graph0" class="graph" transform="scale(1 1) rotate(0) translate(4 91)">
<title>include/kernels/GammaHeatSource.h</title>
<polygon fill="white" stroke="none" points="-4,4 -4,-91 303.5,-91 303.5,4 -4,4"/>
<!-- Node2 -->
<g id="node1" class="node"><title>Node2</title>
<polygon fill="#bfbfbf" stroke="black" points="67.5,-56.5 67.5,-86.5 207.5,-86.5 207.5,-56.5 67.5,-56.5"/>
<text text-anchor="start" x="75.5" y="-74.5" font-family="Helvetica,sans-Serif" font-size="10.00">include/kernels/GammaHeat</text>
<text text-anchor="middle" x="137.5" y="-63.5" font-family="Helvetica,sans-Serif" font-size="10.00">Source.h</text>
</g>
<!-- Node3 -->
<g id="node2" class="node"><title>Node3</title>
<g id="a_node2"><a xlink:href="_moltres_app_8_c.html" target="_top" xlink:title="src/base/MoltresApp.C">
<polygon fill="white" stroke="black" points="0,-0.5 0,-19.5 117,-19.5 117,-0.5 0,-0.5"/>
<text text-anchor="middle" x="58.5" y="-7.5" font-family="Helvetica,sans-Serif" font-size="10.00">src/base/MoltresApp.C</text>
</a>
</g>
</g>
<!-- Node2&#45;&gt;Node3 -->
<g id="edge1" class="edge"><title>Node2&#45;&gt;Node3</title>
<path fill="none" stroke="midnightblue" d="M110.532,-50.1886C96.7014,-39.7719 80.584,-27.6329 69.9952,-19.6578"/>
<polygon fill="midnightblue" stroke="midnightblue" points="108.685,-53.1789 118.778,-56.3993 112.896,-47.5874 108.685,-53.1789"/>
</g>
<!-- Node4 -->
<g id="node3" class="node"><title>Node4</title>
<g id="a_node3"><a xlink:href="_gamma_heat_source_8_c.html" target="_top" xlink:title="src/kernels/GammaHeatSource.C">
<polygon fill="white" stroke="black" points="135.5,-0.5 135.5,-19.5 299.5,-19.5 299.5,-0.5 135.5,-0.5"/>
<text text-anchor="middle" x="217.5" y="-7.5" font-family="Helvetica,sans-Serif" font-size="10.00">src/kernels/GammaHeatSource.C</text>
</a>
</g>
</g>
<!-- Node2&#45;&gt;Node4 -->
<g id="edge2" class="edge"><title>Node2&#45;&gt;Node4</title>
<path fill="none" stroke="midnightblue" d="M164.809,-50.1886C178.815,-39.7719 195.136,-27.6329 205.859,-19.6578"/>
<polygon fill="midnightblue" stroke="midnightblue" points="162.394,-47.623 156.459,-56.3993 166.572,-53.2398 162.394,-47.623"/>
</g>
</g>
</svg>
