<?xml version="1.0" encoding="UTF-8" standalone="no"?>
<!DOCTYPE svg PUBLIC "-//W3C//DTD SVG 1.1//EN"
 "http://www.w3.org/Graphics/SVG/1.1/DTD/svg11.dtd">
<!-- Generated by graphviz version 2.38.0 (20140413.2041)
 -->
<!-- Title: include/kernels/GroupDiffusion.h Pages: 1 -->
<svg width="257pt" height="140pt"
 viewBox="0.00 0.00 257.00 140.00" xmlns="http://www.w3.org/2000/svg" xmlns:xlink="http://www.w3.org/1999/xlink">
<g id="graph0" class="graph" transform="scale(1 1) rotate(0) translate(4 136)">
<title>include/kernels/GroupDiffusion.h</title>
<polygon fill="white" stroke="none" points="-4,4 -4,-136 253,-136 253,4 -4,4"/>
<!-- Node0 -->
<g id="node1" class="node"><title>Node0</title>
<polygon fill="#bfbfbf" stroke="black" points="0,-112.5 0,-131.5 158,-131.5 158,-112.5 0,-112.5"/>
<text text-anchor="middle" x="79" y="-119.5" font-family="Helvetica,sans-Serif" font-size="10.00">include/kernels/GroupDiffusion.h</text>
</g>
<!-- Node1 -->
<g id="node2" class="node"><title>Node1</title>
<polygon fill="white" stroke="#bfbfbf" points="1.5,-56.5 1.5,-75.5 54.5,-75.5 54.5,-56.5 1.5,-56.5"/>
<text text-anchor="middle" x="28" y="-63.5" font-family="Helvetica,sans-Serif" font-size="10.00">Kernel.h</text>
</g>
<!-- Node0&#45;&gt;Node1 -->
<g id="edge1" class="edge"><title>Node0&#45;&gt;Node1</title>
<path fill="none" stroke="midnightblue" d="M70.5784,-112.083C63.1518,-104.22 52.1483,-92.5688 43.1878,-83.0813"/>
<polygon fill="midnightblue" stroke="midnightblue" points="45.6757,-80.618 36.2649,-75.7511 40.5866,-85.4244 45.6757,-80.618"/>
</g>
<!-- Node2 -->
<g id="node3" class="node"><title>Node2</title>
<g id="a_node3"><a xlink:href="_scalar_transport_base_8h.html" target="_top" xlink:title="ScalarTransportBase.h">
<polygon fill="white" stroke="black" points="73,-56.5 73,-75.5 189,-75.5 189,-56.5 73,-56.5"/>
<text text-anchor="middle" x="131" y="-63.5" font-family="Helvetica,sans-Serif" font-size="10.00">ScalarTransportBase.h</text>
</a>
</g>
</g>
<!-- Node0&#45;&gt;Node2 -->
<g id="edge2" class="edge"><title>Node0&#45;&gt;Node2</title>
<path fill="none" stroke="midnightblue" d="M87.5867,-112.083C95.159,-104.22 106.378,-92.5688 115.514,-83.0813"/>
<polygon fill="midnightblue" stroke="midnightblue" points="118.158,-85.3821 122.573,-75.7511 113.115,-80.5266 118.158,-85.3821"/>
</g>
<!-- Node3 -->
<g id="node4" class="node"><title>Node3</title>
<polygon fill="white" stroke="#bfbfbf" points="21.5,-0.5 21.5,-19.5 118.5,-19.5 118.5,-0.5 21.5,-0.5"/>
<text text-anchor="middle" x="70" y="-7.5" font-family="Helvetica,sans-Serif" font-size="10.00">InputParameters.h</text>
</g>
<!-- Node2&#45;&gt;Node3 -->
<g id="edge3" class="edge"><title>Node2&#45;&gt;Node3</title>
<path fill="none" stroke="midnightblue" d="M121.199,-56.324C112.182,-48.3414 98.594,-36.3128 87.682,-26.6529"/>
<polygon fill="midnightblue" stroke="midnightblue" points="89.7866,-23.8416 79.979,-19.8339 85.1467,-29.083 89.7866,-23.8416"/>
</g>
<!-- Node4 -->
<g id="node5" class="node"><title>Node4</title>
<polygon fill="white" stroke="#bfbfbf" points="137,-0.5 137,-19.5 249,-19.5 249,-0.5 137,-0.5"/>
<text text-anchor="middle" x="193" y="-7.5" font-family="Helvetica,sans-Serif" font-size="10.00">MooseVariableBase.h</text>
</g>
<!-- Node2&#45;&gt;Node4 -->
<g id="edge4" class="edge"><title>Node2&#45;&gt;Node4</title>
<path fill="none" stroke="midnightblue" d="M140.961,-56.324C150.127,-48.3414 163.937,-36.3128 175.028,-26.6529"/>
<polygon fill="midnightblue" stroke="midnightblue" points="177.615,-29.041 182.857,-19.8339 173.018,-23.7624 177.615,-29.041"/>
</g>
</g>
</svg>
