<?xml version="1.0" encoding="UTF-8" standalone="no"?>
<!DOCTYPE svg PUBLIC "-//W3C//DTD SVG 1.1//EN"
 "http://www.w3.org/Graphics/SVG/1.1/DTD/svg11.dtd">
<!-- Generated by graphviz version 2.38.0 (20140413.2041)
 -->
<!-- Title: src/kernels/INSMomentumKEpsilon.C Pages: 1 -->
<svg width="191pt" height="140pt"
 viewBox="0.00 0.00 191.00 140.00" xmlns="http://www.w3.org/2000/svg" xmlns:xlink="http://www.w3.org/1999/xlink">
<g id="graph0" class="graph" transform="scale(1 1) rotate(0) translate(4 136)">
<title>src/kernels/INSMomentumKEpsilon.C</title>
<polygon fill="white" stroke="none" points="-4,4 -4,-136 187,-136 187,4 -4,4"/>
<!-- Node0 -->
<g id="node1" class="node"><title>Node0</title>
<polygon fill="#bfbfbf" stroke="black" points="0,-112.5 0,-131.5 183,-131.5 183,-112.5 0,-112.5"/>
<text text-anchor="middle" x="91.5" y="-119.5" font-family="Helvetica,sans-Serif" font-size="10.00">src/kernels/INSMomentumKEpsilon.C</text>
</g>
<!-- Node1 -->
<g id="node2" class="node"><title>Node1</title>
<g id="a_node2"><a xlink:href="_i_n_s_momentum_k_epsilon_8h.html" target="_top" xlink:title="INSMomentumKEpsilon.h">
<polygon fill="white" stroke="black" points="26.5,-56.5 26.5,-75.5 156.5,-75.5 156.5,-56.5 26.5,-56.5"/>
<text text-anchor="middle" x="91.5" y="-63.5" font-family="Helvetica,sans-Serif" font-size="10.00">INSMomentumKEpsilon.h</text>
</a>
</g>
</g>
<!-- Node0&#45;&gt;Node1 -->
<g id="edge1" class="edge"><title>Node0&#45;&gt;Node1</title>
<path fill="none" stroke="midnightblue" d="M91.5,-112.083C91.5,-105.006 91.5,-94.8611 91.5,-85.9865"/>
<polygon fill="midnightblue" stroke="midnightblue" points="95.0001,-85.751 91.5,-75.7511 88.0001,-85.7511 95.0001,-85.751"/>
</g>
<!-- Node2 -->
<g id="node3" class="node"><title>Node2</title>
<polygon fill="white" stroke="#bfbfbf" points="65,-0.5 65,-19.5 118,-19.5 118,-0.5 65,-0.5"/>
<text text-anchor="middle" x="91.5" y="-7.5" font-family="Helvetica,sans-Serif" font-size="10.00">Kernel.h</text>
</g>
<!-- Node1&#45;&gt;Node2 -->
<g id="edge2" class="edge"><title>Node1&#45;&gt;Node2</title>
<path fill="none" stroke="midnightblue" d="M91.5,-56.083C91.5,-49.0059 91.5,-38.8611 91.5,-29.9865"/>
<polygon fill="midnightblue" stroke="midnightblue" points="95.0001,-29.751 91.5,-19.7511 88.0001,-29.7511 95.0001,-29.751"/>
</g>
</g>
</svg>
