<?xml version="1.0" encoding="UTF-8" standalone="no"?>
<!DOCTYPE svg PUBLIC "-//W3C//DTD SVG 1.1//EN"
 "http://www.w3.org/Graphics/SVG/1.1/DTD/svg11.dtd">
<!-- Generated by graphviz version 2.38.0 (20140413.2041)
 -->
<!-- Title: include/postprocessors/IntegralOldVariablePostprocessor.h Pages: 1 -->
<svg width="444pt" height="151pt"
 viewBox="0.00 0.00 444.00 151.00" xmlns="http://www.w3.org/2000/svg" xmlns:xlink="http://www.w3.org/1999/xlink">
<g id="graph0" class="graph" transform="scale(1 1) rotate(0) translate(4 147)">
<title>include/postprocessors/IntegralOldVariablePostprocessor.h</title>
<polygon fill="white" stroke="none" points="-4,4 -4,-147 440,-147 440,4 -4,4"/>
<!-- Node0 -->
<g id="node1" class="node"><title>Node0</title>
<polygon fill="#bfbfbf" stroke="black" points="145.5,-112.5 145.5,-142.5 318.5,-142.5 318.5,-112.5 145.5,-112.5"/>
<text text-anchor="start" x="153.5" y="-130.5" font-family="Helvetica,sans-Serif" font-size="10.00">include/postprocessors</text>
<text text-anchor="middle" x="232" y="-119.5" font-family="Helvetica,sans-Serif" font-size="10.00">/IntegralOldVariablePostprocessor.h</text>
</g>
<!-- Node1 -->
<g id="node2" class="node"><title>Node1</title>
<polygon fill="white" stroke="#bfbfbf" points="0,-56.5 0,-75.5 156,-75.5 156,-56.5 0,-56.5"/>
<text text-anchor="middle" x="78" y="-63.5" font-family="Helvetica,sans-Serif" font-size="10.00">ElementIntegralPostprocessor.h</text>
</g>
<!-- Node0&#45;&gt;Node1 -->
<g id="edge1" class="edge"><title>Node0&#45;&gt;Node1</title>
<path fill="none" stroke="midnightblue" d="M195.504,-112.399C169.435,-102.327 134.706,-88.9093 109.776,-79.2769"/>
<polygon fill="midnightblue" stroke="midnightblue" points="110.998,-75.997 100.408,-75.6578 108.475,-82.5266 110.998,-75.997"/>
</g>
<!-- Node2 -->
<g id="node3" class="node"><title>Node2</title>
<g id="a_node3"><a xlink:href="_scalar_transport_base_8h.html" target="_top" xlink:title="ScalarTransportBase.h">
<polygon fill="white" stroke="black" points="174,-56.5 174,-75.5 290,-75.5 290,-56.5 174,-56.5"/>
<text text-anchor="middle" x="232" y="-63.5" font-family="Helvetica,sans-Serif" font-size="10.00">ScalarTransportBase.h</text>
</a>
</g>
</g>
<!-- Node0&#45;&gt;Node2 -->
<g id="edge2" class="edge"><title>Node0&#45;&gt;Node2</title>
<path fill="none" stroke="midnightblue" d="M232,-112.399C232,-104.466 232,-94.458 232,-85.8583"/>
<polygon fill="midnightblue" stroke="midnightblue" points="235.5,-85.6577 232,-75.6578 228.5,-85.6578 235.5,-85.6577"/>
</g>
<!-- Node5 -->
<g id="node6" class="node"><title>Node5</title>
<polygon fill="white" stroke="#bfbfbf" points="308,-56.5 308,-75.5 436,-75.5 436,-56.5 308,-56.5"/>
<text text-anchor="middle" x="372" y="-63.5" font-family="Helvetica,sans-Serif" font-size="10.00">MooseVariableInterface.h</text>
</g>
<!-- Node0&#45;&gt;Node5 -->
<g id="edge5" class="edge"><title>Node0&#45;&gt;Node5</title>
<path fill="none" stroke="midnightblue" d="M265.178,-112.399C288.563,-102.461 319.612,-89.2649 342.206,-79.6625"/>
<polygon fill="midnightblue" stroke="midnightblue" points="343.794,-82.7904 351.629,-75.6578 341.056,-76.3481 343.794,-82.7904"/>
</g>
<!-- Node3 -->
<g id="node4" class="node"><title>Node3</title>
<polygon fill="white" stroke="#bfbfbf" points="121.5,-0.5 121.5,-19.5 218.5,-19.5 218.5,-0.5 121.5,-0.5"/>
<text text-anchor="middle" x="170" y="-7.5" font-family="Helvetica,sans-Serif" font-size="10.00">InputParameters.h</text>
</g>
<!-- Node2&#45;&gt;Node3 -->
<g id="edge3" class="edge"><title>Node2&#45;&gt;Node3</title>
<path fill="none" stroke="midnightblue" d="M222.039,-56.324C212.873,-48.3414 199.063,-36.3128 187.972,-26.6529"/>
<polygon fill="midnightblue" stroke="midnightblue" points="189.982,-23.7624 180.143,-19.8339 185.385,-29.041 189.982,-23.7624"/>
</g>
<!-- Node4 -->
<g id="node5" class="node"><title>Node4</title>
<polygon fill="white" stroke="#bfbfbf" points="237,-0.5 237,-19.5 349,-19.5 349,-0.5 237,-0.5"/>
<text text-anchor="middle" x="293" y="-7.5" font-family="Helvetica,sans-Serif" font-size="10.00">MooseVariableBase.h</text>
</g>
<!-- Node2&#45;&gt;Node4 -->
<g id="edge4" class="edge"><title>Node2&#45;&gt;Node4</title>
<path fill="none" stroke="midnightblue" d="M241.801,-56.324C250.818,-48.3414 264.406,-36.3128 275.318,-26.6529"/>
<polygon fill="midnightblue" stroke="midnightblue" points="277.853,-29.083 283.021,-19.8339 273.213,-23.8416 277.853,-29.083"/>
</g>
</g>
</svg>
