<?xml version="1.0" encoding="UTF-8" standalone="no"?>
<!DOCTYPE svg PUBLIC "-//W3C//DTD SVG 1.1//EN"
 "http://www.w3.org/Graphics/SVG/1.1/DTD/svg11.dtd">
<!-- Generated by graphviz version 2.38.0 (20140413.2041)
 -->
<!-- Title: include/postprocessors/IntegralNewVariablePostprocessor.h Pages: 1 -->
<svg width="324pt" height="106pt"
 viewBox="0.00 0.00 324.00 106.00" xmlns="http://www.w3.org/2000/svg" xmlns:xlink="http://www.w3.org/1999/xlink">
<g id="graph0" class="graph" transform="scale(1 1) rotate(0) translate(4 102)">
<title>include/postprocessors/IntegralNewVariablePostprocessor.h</title>
<polygon fill="white" stroke="none" points="-4,4 -4,-102 320,-102 320,4 -4,4"/>
<!-- Node6 -->
<g id="node1" class="node"><title>Node6</title>
<polygon fill="#bfbfbf" stroke="black" points="52,-67.5 52,-97.5 231,-97.5 231,-67.5 52,-67.5"/>
<text text-anchor="start" x="60" y="-85.5" font-family="Helvetica,sans-Serif" font-size="10.00">include/postprocessors</text>
<text text-anchor="middle" x="141.5" y="-74.5" font-family="Helvetica,sans-Serif" font-size="10.00">/IntegralNewVariablePostprocessor.h</text>
</g>
<!-- Node7 -->
<g id="node2" class="node"><title>Node7</title>
<g id="a_node2"><a xlink:href="_moltres_app_8_c.html" target="_top" xlink:title="src/base/MoltresApp.C">
<polygon fill="white" stroke="black" points="0,-6 0,-25 117,-25 117,-6 0,-6"/>
<text text-anchor="middle" x="58.5" y="-13" font-family="Helvetica,sans-Serif" font-size="10.00">src/base/MoltresApp.C</text>
</a>
</g>
</g>
<!-- Node6&#45;&gt;Node7 -->
<g id="edge1" class="edge"><title>Node6&#45;&gt;Node7</title>
<path fill="none" stroke="midnightblue" d="M115.333,-61.008C99.925,-48.9412 81.2351,-34.3046 69.6023,-25.1945"/>
<polygon fill="midnightblue" stroke="midnightblue" points="113.459,-63.9859 123.49,-67.396 117.775,-58.4747 113.459,-63.9859"/>
</g>
<!-- Node8 -->
<g id="node3" class="node"><title>Node8</title>
<g id="a_node3"><a xlink:href="_integral_new_variable_postprocessor_8_c.html" target="_top" xlink:title="src/postprocessors\l/IntegralNewVariablePostprocessor.C">
<polygon fill="white" stroke="black" points="135,-0.5 135,-30.5 316,-30.5 316,-0.5 135,-0.5"/>
<text text-anchor="start" x="143" y="-18.5" font-family="Helvetica,sans-Serif" font-size="10.00">src/postprocessors</text>
<text text-anchor="middle" x="225.5" y="-7.5" font-family="Helvetica,sans-Serif" font-size="10.00">/IntegralNewVariablePostprocessor.C</text>
</a>
</g>
</g>
<!-- Node6&#45;&gt;Node8 -->
<g id="edge2" class="edge"><title>Node6&#45;&gt;Node8</title>
<path fill="none" stroke="midnightblue" d="M167.776,-61.1677C180.62,-51.2283 195.758,-39.5144 207.309,-30.5765"/>
<polygon fill="midnightblue" stroke="midnightblue" points="165.494,-58.508 159.727,-67.396 169.777,-64.0442 165.494,-58.508"/>
</g>
</g>
</svg>
