<?xml version="1.0" encoding="UTF-8" standalone="no"?>
<!DOCTYPE svg PUBLIC "-//W3C//DTD SVG 1.1//EN"
 "http://www.w3.org/Graphics/SVG/1.1/DTD/svg11.dtd">
<!-- Generated by graphviz version 2.38.0 (20140413.2041)
 -->
<!-- Title: include/auxkernels/MatDiffusionAux.h Pages: 1 -->
<svg width="192pt" height="95pt"
 viewBox="0.00 0.00 192.00 95.00" xmlns="http://www.w3.org/2000/svg" xmlns:xlink="http://www.w3.org/1999/xlink">
<g id="graph0" class="graph" transform="scale(1 1) rotate(0) translate(4 91)">
<title>include/auxkernels/MatDiffusionAux.h</title>
<polygon fill="white" stroke="none" points="-4,4 -4,-91 188,-91 188,4 -4,4"/>
<!-- Node0 -->
<g id="node1" class="node"><title>Node0</title>
<polygon fill="#bfbfbf" stroke="black" points="34.5,-56.5 34.5,-86.5 135.5,-86.5 135.5,-56.5 34.5,-56.5"/>
<text text-anchor="start" x="42.5" y="-74.5" font-family="Helvetica,sans-Serif" font-size="10.00">include/auxkernels</text>
<text text-anchor="middle" x="85" y="-63.5" font-family="Helvetica,sans-Serif" font-size="10.00">/MatDiffusionAux.h</text>
</g>
<!-- Node1 -->
<g id="node2" class="node"><title>Node1</title>
<polygon fill="white" stroke="#bfbfbf" points="0,-0.5 0,-19.5 70,-19.5 70,-0.5 0,-0.5"/>
<text text-anchor="middle" x="35" y="-7.5" font-family="Helvetica,sans-Serif" font-size="10.00">AuxKernel.h</text>
</g>
<!-- Node0&#45;&gt;Node1 -->
<g id="edge1" class="edge"><title>Node0&#45;&gt;Node1</title>
<path fill="none" stroke="midnightblue" d="M73.1507,-56.3993C65.8851,-47.7533 56.5479,-36.642 48.9294,-27.576"/>
<polygon fill="midnightblue" stroke="midnightblue" points="51.3884,-25.0619 42.2754,-19.6578 46.0294,-29.5653 51.3884,-25.0619"/>
</g>
<!-- Node2 -->
<g id="node3" class="node"><title>Node2</title>
<polygon fill="white" stroke="#bfbfbf" points="88,-0.5 88,-19.5 184,-19.5 184,-0.5 88,-0.5"/>
<text text-anchor="middle" x="136" y="-7.5" font-family="Helvetica,sans-Serif" font-size="10.00">MaterialProperty.h</text>
</g>
<!-- Node0&#45;&gt;Node2 -->
<g id="edge2" class="edge"><title>Node0&#45;&gt;Node2</title>
<path fill="none" stroke="midnightblue" d="M97.0863,-56.3993C104.574,-47.6641 114.218,-36.4126 122.032,-27.2962"/>
<polygon fill="midnightblue" stroke="midnightblue" points="124.729,-29.5281 128.579,-19.6578 119.414,-24.9726 124.729,-29.5281"/>
</g>
</g>
</svg>
