<?xml version="1.0" encoding="UTF-8" standalone="no"?>
<!DOCTYPE svg PUBLIC "-//W3C//DTD SVG 1.1//EN"
 "http://www.w3.org/Graphics/SVG/1.1/DTD/svg11.dtd">
<!-- Generated by graphviz version 2.38.0 (20140413.2041)
 -->
<!-- Title: src/kernels/NtTimeDerivative.C Pages: 1 -->
<svg width="364pt" height="252pt"
 viewBox="0.00 0.00 363.50 252.00" xmlns="http://www.w3.org/2000/svg" xmlns:xlink="http://www.w3.org/1999/xlink">
<g id="graph0" class="graph" transform="scale(1 1) rotate(0) translate(4 248)">
<title>src/kernels/NtTimeDerivative.C</title>
<polygon fill="white" stroke="none" points="-4,4 -4,-248 359.5,-248 359.5,4 -4,4"/>
<!-- Node0 -->
<g id="node1" class="node"><title>Node0</title>
<polygon fill="#bfbfbf" stroke="black" points="118.5,-224.5 118.5,-243.5 273.5,-243.5 273.5,-224.5 118.5,-224.5"/>
<text text-anchor="middle" x="196" y="-231.5" font-family="Helvetica,sans-Serif" font-size="10.00">src/kernels/NtTimeDerivative.C</text>
</g>
<!-- Node1 -->
<g id="node2" class="node"><title>Node1</title>
<g id="a_node2"><a xlink:href="_nt_time_derivative_8h.html" target="_top" xlink:title="NtTimeDerivative.h">
<polygon fill="white" stroke="black" points="42.5,-168.5 42.5,-187.5 143.5,-187.5 143.5,-168.5 42.5,-168.5"/>
<text text-anchor="middle" x="93" y="-175.5" font-family="Helvetica,sans-Serif" font-size="10.00">NtTimeDerivative.h</text>
</a>
</g>
</g>
<!-- Node0&#45;&gt;Node1 -->
<g id="edge1" class="edge"><title>Node0&#45;&gt;Node1</title>
<path fill="none" stroke="midnightblue" d="M179.451,-224.324C163.008,-215.703 137.565,-202.364 118.532,-192.386"/>
<polygon fill="midnightblue" stroke="midnightblue" points="119.989,-189.198 109.508,-187.655 116.739,-195.398 119.989,-189.198"/>
</g>
<!-- Node7 -->
<g id="node8" class="node"><title>Node7</title>
<polygon fill="white" stroke="#bfbfbf" points="162,-168.5 162,-187.5 230,-187.5 230,-168.5 162,-168.5"/>
<text text-anchor="middle" x="196" y="-175.5" font-family="Helvetica,sans-Serif" font-size="10.00">Assembly.h</text>
</g>
<!-- Node0&#45;&gt;Node7 -->
<g id="edge7" class="edge"><title>Node0&#45;&gt;Node7</title>
<path fill="none" stroke="midnightblue" d="M196,-224.083C196,-217.006 196,-206.861 196,-197.986"/>
<polygon fill="midnightblue" stroke="midnightblue" points="199.5,-197.751 196,-187.751 192.5,-197.751 199.5,-197.751"/>
</g>
<!-- Node8 -->
<g id="node9" class="node"><title>Node8</title>
<polygon fill="white" stroke="#bfbfbf" points="248.5,-168.5 248.5,-187.5 355.5,-187.5 355.5,-168.5 248.5,-168.5"/>
<text text-anchor="middle" x="302" y="-175.5" font-family="Helvetica,sans-Serif" font-size="10.00">libmesh/quadrature.h</text>
</g>
<!-- Node0&#45;&gt;Node8 -->
<g id="edge8" class="edge"><title>Node0&#45;&gt;Node8</title>
<path fill="none" stroke="midnightblue" d="M213.031,-224.324C230.03,-215.664 256.376,-202.242 275.993,-192.249"/>
<polygon fill="midnightblue" stroke="midnightblue" points="277.69,-195.312 285.012,-187.655 274.512,-189.075 277.69,-195.312"/>
</g>
<!-- Node2 -->
<g id="node3" class="node"><title>Node2</title>
<g id="a_node3"><a xlink:href="_scalar_transport_time_derivative_8h.html" target="_top" xlink:title="ScalarTransportTimeDerivative.h">
<polygon fill="white" stroke="black" points="13,-112.5 13,-131.5 173,-131.5 173,-112.5 13,-112.5"/>
<text text-anchor="middle" x="93" y="-119.5" font-family="Helvetica,sans-Serif" font-size="10.00">ScalarTransportTimeDerivative.h</text>
</a>
</g>
</g>
<!-- Node1&#45;&gt;Node2 -->
<g id="edge2" class="edge"><title>Node1&#45;&gt;Node2</title>
<path fill="none" stroke="midnightblue" d="M93,-168.083C93,-161.006 93,-150.861 93,-141.986"/>
<polygon fill="midnightblue" stroke="midnightblue" points="96.5001,-141.751 93,-131.751 89.5001,-141.751 96.5001,-141.751"/>
</g>
<!-- Node3 -->
<g id="node4" class="node"><title>Node3</title>
<polygon fill="white" stroke="#bfbfbf" points="0,-56.5 0,-75.5 74,-75.5 74,-56.5 0,-56.5"/>
<text text-anchor="middle" x="37" y="-63.5" font-family="Helvetica,sans-Serif" font-size="10.00">TimeKernel.h</text>
</g>
<!-- Node2&#45;&gt;Node3 -->
<g id="edge3" class="edge"><title>Node2&#45;&gt;Node3</title>
<path fill="none" stroke="midnightblue" d="M84.0026,-112.324C75.8056,-104.42 63.4945,-92.5482 53.528,-82.9377"/>
<polygon fill="midnightblue" stroke="midnightblue" points="55.789,-80.2558 46.1611,-75.8339 50.9301,-85.2947 55.789,-80.2558"/>
</g>
<!-- Node4 -->
<g id="node5" class="node"><title>Node4</title>
<g id="a_node5"><a xlink:href="_scalar_transport_base_8h.html" target="_top" xlink:title="ScalarTransportBase.h">
<polygon fill="white" stroke="black" points="92,-56.5 92,-75.5 208,-75.5 208,-56.5 92,-56.5"/>
<text text-anchor="middle" x="150" y="-63.5" font-family="Helvetica,sans-Serif" font-size="10.00">ScalarTransportBase.h</text>
</a>
</g>
</g>
<!-- Node2&#45;&gt;Node4 -->
<g id="edge4" class="edge"><title>Node2&#45;&gt;Node4</title>
<path fill="none" stroke="midnightblue" d="M102.158,-112.324C110.501,-104.42 123.032,-92.5482 133.177,-82.9377"/>
<polygon fill="midnightblue" stroke="midnightblue" points="135.823,-85.2522 140.675,-75.8339 131.009,-80.1705 135.823,-85.2522"/>
</g>
<!-- Node5 -->
<g id="node6" class="node"><title>Node5</title>
<polygon fill="white" stroke="#bfbfbf" points="40.5,-0.5 40.5,-19.5 137.5,-19.5 137.5,-0.5 40.5,-0.5"/>
<text text-anchor="middle" x="89" y="-7.5" font-family="Helvetica,sans-Serif" font-size="10.00">InputParameters.h</text>
</g>
<!-- Node4&#45;&gt;Node5 -->
<g id="edge5" class="edge"><title>Node4&#45;&gt;Node5</title>
<path fill="none" stroke="midnightblue" d="M140.199,-56.324C131.182,-48.3414 117.594,-36.3128 106.682,-26.6529"/>
<polygon fill="midnightblue" stroke="midnightblue" points="108.787,-23.8416 98.979,-19.8339 104.147,-29.083 108.787,-23.8416"/>
</g>
<!-- Node6 -->
<g id="node7" class="node"><title>Node6</title>
<polygon fill="white" stroke="#bfbfbf" points="156,-0.5 156,-19.5 268,-19.5 268,-0.5 156,-0.5"/>
<text text-anchor="middle" x="212" y="-7.5" font-family="Helvetica,sans-Serif" font-size="10.00">MooseVariableBase.h</text>
</g>
<!-- Node4&#45;&gt;Node6 -->
<g id="edge6" class="edge"><title>Node4&#45;&gt;Node6</title>
<path fill="none" stroke="midnightblue" d="M159.961,-56.324C169.127,-48.3414 182.937,-36.3128 194.028,-26.6529"/>
<polygon fill="midnightblue" stroke="midnightblue" points="196.615,-29.041 201.857,-19.8339 192.018,-23.7624 196.615,-29.041"/>
</g>
</g>
</svg>
