<?xml version="1.0" encoding="UTF-8" standalone="no"?>
<!DOCTYPE svg PUBLIC "-//W3C//DTD SVG 1.1//EN"
 "http://www.w3.org/Graphics/SVG/1.1/DTD/svg11.dtd">
<!-- Generated by graphviz version 2.38.0 (20140413.2041)
 -->
<!-- Title: IntegralNewVariablePostprocessor Pages: 1 -->
<svg width="420pt" height="84pt"
 viewBox="0.00 0.00 419.50 84.00" xmlns="http://www.w3.org/2000/svg" xmlns:xlink="http://www.w3.org/1999/xlink">
<g id="graph0" class="graph" transform="scale(1 1) rotate(0) translate(4 80)">
<title>IntegralNewVariablePostprocessor</title>
<polygon fill="white" stroke="none" points="-4,4 -4,-80 415.5,-80 415.5,4 -4,4"/>
<!-- Node0 -->
<g id="node1" class="node"><title>Node0</title>
<polygon fill="#bfbfbf" stroke="black" points="136.5,-0.5 136.5,-19.5 303.5,-19.5 303.5,-0.5 136.5,-0.5"/>
<text text-anchor="middle" x="220" y="-7.5" font-family="Helvetica,sans-Serif" font-size="10.00">IntegralNewVariablePostprocessor</text>
</g>
<!-- Node1 -->
<g id="node2" class="node"><title>Node1</title>
<polygon fill="white" stroke="#bfbfbf" points="0,-56.5 0,-75.5 148,-75.5 148,-56.5 0,-56.5"/>
<text text-anchor="middle" x="74" y="-63.5" font-family="Helvetica,sans-Serif" font-size="10.00">ElementIntegralPostprocessor</text>
</g>
<!-- Node1&#45;&gt;Node0 -->
<g id="edge1" class="edge"><title>Node1&#45;&gt;Node0</title>
<path fill="none" stroke="midnightblue" d="M106.699,-52.9058C134.148,-42.7536 172.668,-28.5063 196.974,-19.5164"/>
<polygon fill="midnightblue" stroke="midnightblue" points="105.299,-49.6919 97.1341,-56.4435 107.727,-56.2572 105.299,-49.6919"/>
</g>
<!-- Node2 -->
<g id="node3" class="node"><title>Node2</title>
<g id="a_node3"><a xlink:href="class_scalar_transport_base.html" target="_top" xlink:title="ScalarTransportBase">
<polygon fill="white" stroke="black" points="166,-56.5 166,-75.5 274,-75.5 274,-56.5 166,-56.5"/>
<text text-anchor="middle" x="220" y="-63.5" font-family="Helvetica,sans-Serif" font-size="10.00">ScalarTransportBase</text>
</a>
</g>
</g>
<!-- Node2&#45;&gt;Node0 -->
<g id="edge2" class="edge"><title>Node2&#45;&gt;Node0</title>
<path fill="none" stroke="midnightblue" d="M220,-45.8045C220,-36.9102 220,-26.7798 220,-19.7511"/>
<polygon fill="midnightblue" stroke="midnightblue" points="216.5,-46.083 220,-56.083 223.5,-46.083 216.5,-46.083"/>
</g>
<!-- Node3 -->
<g id="node4" class="node"><title>Node3</title>
<polygon fill="white" stroke="#bfbfbf" points="292.5,-56.5 292.5,-75.5 411.5,-75.5 411.5,-56.5 292.5,-56.5"/>
<text text-anchor="middle" x="352" y="-63.5" font-family="Helvetica,sans-Serif" font-size="10.00">MooseVariableInterface</text>
</g>
<!-- Node3&#45;&gt;Node0 -->
<g id="edge3" class="edge"><title>Node3&#45;&gt;Node0</title>
<path fill="none" stroke="midnightblue" d="M321.781,-52.6377C297.01,-42.504 262.6,-28.4274 240.818,-19.5164"/>
<polygon fill="midnightblue" stroke="midnightblue" points="320.503,-55.8966 331.084,-56.4435 323.154,-49.4177 320.503,-55.8966"/>
</g>
</g>
</svg>
