<?xml version="1.0" encoding="UTF-8" standalone="no"?>
<!DOCTYPE svg PUBLIC "-//W3C//DTD SVG 1.1//EN"
 "http://www.w3.org/Graphics/SVG/1.1/DTD/svg11.dtd">
<!-- Generated by graphviz version 2.38.0 (20140413.2041)
 -->
<!-- Title: src/main.C Pages: 1 -->
<svg width="372pt" height="140pt"
 viewBox="0.00 0.00 371.50 140.00" xmlns="http://www.w3.org/2000/svg" xmlns:xlink="http://www.w3.org/1999/xlink">
<g id="graph0" class="graph" transform="scale(1 1) rotate(0) translate(4 136)">
<title>src/main.C</title>
<polygon fill="white" stroke="none" points="-4,4 -4,-136 367.5,-136 367.5,4 -4,4"/>
<!-- Node0 -->
<g id="node1" class="node"><title>Node0</title>
<polygon fill="#bfbfbf" stroke="black" points="131.5,-112.5 131.5,-131.5 196.5,-131.5 196.5,-112.5 131.5,-112.5"/>
<text text-anchor="middle" x="164" y="-119.5" font-family="Helvetica,sans-Serif" font-size="10.00">src/main.C</text>
</g>
<!-- Node1 -->
<g id="node2" class="node"><title>Node1</title>
<g id="a_node2"><a xlink:href="_moltres_app_8h.html" target="_top" xlink:title="MoltresApp.h">
<polygon fill="white" stroke="black" points="0,-56.5 0,-75.5 74,-75.5 74,-56.5 0,-56.5"/>
<text text-anchor="middle" x="37" y="-63.5" font-family="Helvetica,sans-Serif" font-size="10.00">MoltresApp.h</text>
</a>
</g>
</g>
<!-- Node0&#45;&gt;Node1 -->
<g id="edge1" class="edge"><title>Node0&#45;&gt;Node1</title>
<path fill="none" stroke="midnightblue" d="M143.876,-112.444C122.976,-103.557 90.0653,-89.5632 66.2839,-79.4514"/>
<polygon fill="midnightblue" stroke="midnightblue" points="67.6016,-76.2085 57.0294,-75.5164 64.8625,-82.6504 67.6016,-76.2085"/>
</g>
<!-- Node2 -->
<g id="node3" class="node"><title>Node2</title>
<polygon fill="white" stroke="#bfbfbf" points="33.5,-0.5 33.5,-19.5 104.5,-19.5 104.5,-0.5 33.5,-0.5"/>
<text text-anchor="middle" x="69" y="-7.5" font-family="Helvetica,sans-Serif" font-size="10.00">MooseApp.h</text>
</g>
<!-- Node0&#45;&gt;Node2 -->
<g id="edge5" class="edge"><title>Node0&#45;&gt;Node2</title>
<path fill="none" stroke="midnightblue" d="M155.197,-112.252C146.334,-103.338 132.383,-89.0129 121,-76 107.084,-60.0924 92.097,-41.1463 81.8043,-27.8253"/>
<polygon fill="midnightblue" stroke="midnightblue" points="84.3636,-25.4113 75.4994,-19.6082 78.81,-29.6725 84.3636,-25.4113"/>
</g>
<!-- Node3 -->
<g id="node4" class="node"><title>Node3</title>
<polygon fill="white" stroke="#bfbfbf" points="130,-56.5 130,-75.5 198,-75.5 198,-56.5 130,-56.5"/>
<text text-anchor="middle" x="164" y="-63.5" font-family="Helvetica,sans-Serif" font-size="10.00">MooseInit.h</text>
</g>
<!-- Node0&#45;&gt;Node3 -->
<g id="edge3" class="edge"><title>Node0&#45;&gt;Node3</title>
<path fill="none" stroke="midnightblue" d="M164,-112.083C164,-105.006 164,-94.8611 164,-85.9865"/>
<polygon fill="midnightblue" stroke="midnightblue" points="167.5,-85.751 164,-75.7511 160.5,-85.7511 167.5,-85.751"/>
</g>
<!-- Node4 -->
<g id="node5" class="node"><title>Node4</title>
<polygon fill="white" stroke="#bfbfbf" points="216,-56.5 216,-75.5 270,-75.5 270,-56.5 216,-56.5"/>
<text text-anchor="middle" x="243" y="-63.5" font-family="Helvetica,sans-Serif" font-size="10.00">Moose.h</text>
</g>
<!-- Node0&#45;&gt;Node4 -->
<g id="edge4" class="edge"><title>Node0&#45;&gt;Node4</title>
<path fill="none" stroke="midnightblue" d="M176.693,-112.324C188.901,-103.979 207.578,-91.2122 222.003,-81.3524"/>
<polygon fill="midnightblue" stroke="midnightblue" points="224.058,-84.1871 230.339,-75.6545 220.108,-78.4082 224.058,-84.1871"/>
</g>
<!-- Node5 -->
<g id="node6" class="node"><title>Node5</title>
<polygon fill="white" stroke="#bfbfbf" points="288.5,-56.5 288.5,-75.5 363.5,-75.5 363.5,-56.5 288.5,-56.5"/>
<text text-anchor="middle" x="326" y="-63.5" font-family="Helvetica,sans-Serif" font-size="10.00">AppFactory.h</text>
</g>
<!-- Node0&#45;&gt;Node5 -->
<g id="edge6" class="edge"><title>Node0&#45;&gt;Node5</title>
<path fill="none" stroke="midnightblue" d="M189.669,-112.444C216.923,-103.359 260.184,-88.9388 290.651,-78.7831"/>
<polygon fill="midnightblue" stroke="midnightblue" points="292.071,-81.9992 300.451,-75.5164 289.857,-75.3584 292.071,-81.9992"/>
</g>
<!-- Node1&#45;&gt;Node2 -->
<g id="edge2" class="edge"><title>Node1&#45;&gt;Node2</title>
<path fill="none" stroke="midnightblue" d="M42.2841,-56.083C46.711,-48.6127 53.1633,-37.7244 58.6179,-28.5199"/>
<polygon fill="midnightblue" stroke="midnightblue" points="61.7271,-30.1383 63.8142,-19.7511 55.7051,-26.5697 61.7271,-30.1383"/>
</g>
</g>
</svg>
