<?xml version="1.0" encoding="UTF-8" standalone="no"?>
<!DOCTYPE svg PUBLIC "-//W3C//DTD SVG 1.1//EN" "http://www.w3.org/Graphics/SVG/1.1/DTD/svg11.dtd">
<svg xmlns="http://www.w3.org/2000/svg" xmlns:xlink="http://www.w3.org/1999/xlink" version="1.1" width="601.2pt" height="337.2pt" viewBox="0 0 601.2 337.2">
<g enable-background="new">
<clipPath id="cp0">
<path transform="matrix(1,0,0,-1,-178.8,433.2)" d="M 0 0 L 960 0 L 960 540 L 0 540 Z "/>
</clipPath>
<g clip-path="url(#cp0)">
<clipPath id="cp1">
<path transform="matrix(1,0,0,-1,-178.8,433.2)" d="M 0 .00001206994 L 959.76 .00001206994 L 959.76 540 L 0 540 Z "/>
</clipPath>
<g clip-path="url(#cp1)">
<path transform="matrix(1,0,0,-1,-178.8,433.2)" d="M 0 540 L 959.76 540 L 959.76 .00001206994 L 0 .00001206994 Z " fill="#ffffff"/>
</g>
<path transform="matrix(1,0,0,-1,-178.8,433.2)" d="M 0 540 L 960 540 L 960 .0000140816 L 0 .0000140816 Z " fill="#ffffff"/>
<path transform="matrix(1,0,0,-1,-178.8,433.2)" d="M 666.5959 41.12503 L 960 41.12503 L 960 -.000007615685 L 666.5959 -.000007615685 Z " fill="#06509d"/>
<path transform="matrix(1,0,0,-1,-178.8,433.2)" d="M 666.5959 48.83506 L 960 48.83506 L 960 41.12506 L 666.5959 41.12506 Z " fill="#8ec423"/>
<clipPath id="cp2">
<path transform="matrix(1,0,0,-1,-178.8,433.2)" d="M 704.2979 14.75001 L 922.2979 14.75001 L 922.2979 24.75001 L 704.2979 24.75001 Z "/>
</clipPath>
<g clip-path="url(#cp2)">
<path transform="matrix(1,0,0,-1,-178.8,433.2)" d="M 704.2979 14.90798 L 705.51699 14.90798 L 705.51699 24.593056 L 704.2979 24.593056 Z " fill="#ffffff"/>
</g>
<clipPath id="cp3">
<path transform="matrix(1,0,0,-1,-178.8,433.2)" d="M 704.2979 14.75001 L 922.2979 14.75001 L 922.2979 24.749989 L 704.2979 24.749989 Z "/>
</clipPath>
<g clip-path="url(#cp3)">
<path transform="matrix(1,0,0,-1,-178.8,433.2)" d="M 710.2629 15.89997 C 710.5709 15.84151 711.0189 15.82817 711.4949 15.82817 C 714.1009 15.82817 715.516 17.32268 715.516 19.9373 C 715.53 22.22163 714.2689 23.67306 711.6919 23.67306 C 711.0609 23.67306 710.5849 23.61459 710.2629 23.54382 Z M 709.0438 24.46391 C 709.7858 24.57777 710.6689 24.66393 711.6349 24.66393 C 713.3859 24.66393 714.633 24.24748 715.459 23.45766 C 716.3 22.66783 716.79 21.54669 716.79 19.98038 C 716.79 18.40074 716.314 17.10727 715.432 16.2159 C 714.5489 15.3112 713.0919 14.82192 711.2569 14.82192 C 710.3889 14.82192 709.6598 14.865 709.0438 14.93783 Z " fill="#ffffff"/>
<path transform="matrix(1,0,0,-1,-178.8,433.2)" d="M 724.1949 18.93115 L 723.2698 21.71912 C 723.0598 22.35098 722.9208 22.92642 722.7798 23.48545 L 722.7518 23.48545 C 722.6118 22.91104 722.4578 22.32226 722.2758 21.73246 L 721.3508 18.93115 Z M 721.0988 17.95464 L 720.1188 14.90818 L 718.8577 14.90818 L 722.0658 24.59326 L 723.5369 24.59326 L 726.7579 14.90818 L 725.4559 14.90818 L 724.4469 17.95464 Z " fill="#ffffff"/>
<path transform="matrix(1,0,0,-1,-178.8,433.2)" d="M 730.7594 24.59274 L 730.7594 20.54106 L 735.3255 20.54106 L 735.3255 24.59274 L 736.5586 24.59274 L 736.5586 14.90869 L 735.3255 14.90869 L 735.3255 19.44864 L 730.7594 19.44864 L 730.7594 14.90869 L 729.5404 14.90869 L 729.5404 24.59274 Z " fill="#ffffff"/>
<path transform="matrix(1,0,0,-1,-178.8,433.2)" d="M 740.8094 19.69246 C 740.8094 17.62353 741.9025 15.77104 743.8215 15.77104 C 745.7546 15.77104 746.8466 17.59481 746.8466 19.79401 C 746.8466 21.71933 745.8666 23.73081 743.8355 23.73081 C 741.8185 23.73081 740.8094 21.81882 740.8094 19.69246 M 748.1356 19.85042 C 748.1356 16.51675 746.1616 14.75042 743.7515 14.75042 C 741.2575 14.75042 739.5064 16.73319 739.5064 19.66476 C 739.5064 22.73892 741.3705 24.7504 743.8915 24.7504 C 746.4686 24.7504 748.1356 22.72456 748.1356 19.85042 " fill="#ffffff"/>
<path transform="matrix(1,0,0,-1,-178.8,433.2)" d="M 755.4817 14.90828 L 755.4817 24.59233 L 756.8127 24.59233 L 759.8378 19.69235 C 760.5388 18.55788 761.0858 17.53727 761.5338 16.5464 L 761.5608 16.56076 C 761.4498 17.8532 761.4208 19.0328 761.4208 20.54065 L 761.4208 24.59233 L 762.5698 24.59233 L 762.5698 14.90828 L 761.3368 14.90828 L 758.3388 19.82262 C 757.6807 20.89966 757.0507 22.00643 756.5747 23.05474 L 756.5327 23.04141 C 756.6027 21.81872 756.6297 20.65655 756.6297 19.04614 L 756.6297 14.90828 Z " fill="#ffffff"/>
<path transform="matrix(1,0,0,-1,-178.8,433.2)" d="M 770.7164 18.93115 L 769.7914 21.71912 C 769.5814 22.35098 769.4414 22.92642 769.3014 23.48545 L 769.2734 23.48545 C 769.1334 22.91104 768.9794 22.32226 768.7964 21.73246 L 767.8724 18.93115 Z M 767.6204 17.95464 L 766.6403 14.90818 L 765.3793 14.90818 L 768.5864 24.59326 L 770.0574 24.59326 L 773.2795 14.90818 L 771.9765 14.90818 L 770.9684 17.95464 Z " fill="#ffffff"/>
<path transform="matrix(1,0,0,-1,-178.8,433.2)" d="M 776.7781 23.52895 L 773.907 23.52895 L 773.907 24.59264 L 780.8962 24.59264 L 780.8962 23.52895 L 778.0101 23.52895 L 778.0101 14.90859 L 776.7781 14.90859 Z " fill="#ffffff"/>
<path transform="matrix(1,0,0,-1,-178.8,433.2)" d="M 783.3427 14.90798 L 784.56179 14.90798 L 784.56179 24.59203 L 783.3427 24.59203 Z " fill="#ffffff"/>
<path transform="matrix(1,0,0,-1,-178.8,433.2)" d="M 788.8311 19.69246 C 788.8311 17.62353 789.9242 15.77104 791.8432 15.77104 C 793.7763 15.77104 794.8693 17.59481 794.8693 19.79401 C 794.8693 21.71933 793.8883 23.73081 791.8572 23.73081 C 789.8402 23.73081 788.8311 21.81882 788.8311 19.69246 M 796.1573 19.85042 C 796.1573 16.51675 794.1833 14.75042 791.7732 14.75042 C 789.2792 14.75042 787.5281 16.73319 787.5281 19.66476 C 787.5281 22.73892 789.3922 24.7504 791.9132 24.7504 C 794.4903 24.7504 796.1573 22.72456 796.1573 19.85042 " fill="#ffffff"/>
<path transform="matrix(1,0,0,-1,-178.8,433.2)" d="M 799.1351 14.90828 L 799.1351 24.59233 L 800.4661 24.59233 L 803.4912 19.69235 C 804.1922 18.55788 804.7392 17.53727 805.1872 16.5464 L 805.2142 16.56076 C 805.1032 17.8532 805.0742 19.0328 805.0742 20.54065 L 805.0742 24.59233 L 806.2232 24.59233 L 806.2232 14.90828 L 804.9902 14.90828 L 801.9921 19.82262 C 801.3341 20.89966 800.7041 22.00643 800.2281 23.05474 L 800.1861 23.04141 C 800.2561 21.81872 800.2831 20.65655 800.2831 19.04614 L 800.2831 14.90828 Z " fill="#ffffff"/>
<path transform="matrix(1,0,0,-1,-178.8,433.2)" d="M 814.3697 18.93115 L 813.4447 21.71912 C 813.2347 22.35098 813.0947 22.92642 812.9547 23.48545 L 812.9267 23.48545 C 812.7867 22.91104 812.6327 22.32226 812.4497 21.73246 L 811.5257 18.93115 Z M 811.2737 17.95464 L 810.2936 14.90818 L 809.0326 14.90818 L 812.2397 24.59326 L 813.7107 24.59326 L 816.9328 14.90818 L 815.6298 14.90818 L 814.6217 17.95464 Z " fill="#ffffff"/>
<path transform="matrix(1,0,0,-1,-178.8,433.2)" d="M 819.7156 24.59274 L 820.9346 24.59274 L 820.9346 15.95701 L 824.9687 15.95701 L 824.9687 14.90869 L 819.7156 14.90869 Z " fill="#ffffff"/>
<path transform="matrix(1,0,0,-1,-178.8,433.2)" d="M 832.0908 24.59274 L 833.3099 24.59274 L 833.3099 15.95701 L 837.344 15.95701 L 837.344 14.90869 L 832.0908 14.90869 Z " fill="#ffffff"/>
<path transform="matrix(1,0,0,-1,-178.8,433.2)" d="M 844.722 18.93115 L 843.797 21.71912 C 843.587 22.35098 843.447 22.92642 843.307 23.48545 L 843.279 23.48545 C 843.139 22.91104 842.985 22.32226 842.802 21.73246 L 841.878 18.93115 Z M 841.626 17.95464 L 840.6459 14.90818 L 839.3849 14.90818 L 842.592 24.59326 L 844.063 24.59326 L 847.2851 14.90818 L 845.9821 14.90818 L 844.974 17.95464 Z " fill="#ffffff"/>
<path transform="matrix(1,0,0,-1,-178.8,433.2)" d="M 851.2857 15.85689 C 851.5237 15.81381 851.8737 15.79843 852.3077 15.79843 C 853.5687 15.79843 854.7318 16.27334 854.7318 17.68067 C 854.7318 19.00285 853.6247 19.54957 852.2947 19.54957 L 851.2857 19.54957 Z M 851.2857 20.49736 L 852.3917 20.49736 C 853.6817 20.49736 854.4367 21.18666 854.4367 22.12111 C 854.4367 23.25661 853.5977 23.70076 852.3647 23.70076 C 851.8047 23.70076 851.4817 23.65768 851.2857 23.61459 Z M 850.0666 24.46391 C 850.5987 24.57777 851.4397 24.66393 852.2947 24.66393 C 853.5137 24.66393 854.2977 24.44852 854.8858 23.96027 C 855.3758 23.5869 855.6708 23.01248 855.6708 22.25036 C 855.6708 21.3159 855.0678 20.49736 854.0727 20.12399 L 854.0727 20.09527 C 854.9698 19.8655 856.0198 19.10337 856.0198 17.66733 C 856.0198 16.8334 855.6978 16.20154 855.2228 15.72765 C 854.5628 15.10913 853.4987 14.82192 851.9587 14.82192 C 851.1177 14.82192 850.4737 14.87936 850.0666 14.93783 Z " fill="#ffffff"/>
<path transform="matrix(1,0,0,-1,-178.8,433.2)" d="M 859.7976 19.69246 C 859.7976 17.62353 860.8906 15.77104 862.8096 15.77104 C 864.7427 15.77104 865.8357 17.59481 865.8357 19.79401 C 865.8357 21.71933 864.8547 23.73081 862.8236 23.73081 C 860.8066 23.73081 859.7976 21.81882 859.7976 19.69246 M 867.1237 19.85042 C 867.1237 16.51675 865.1497 14.75042 862.7396 14.75042 C 860.2456 14.75042 858.4945 16.73319 858.4945 19.66476 C 858.4945 22.73892 860.3586 24.7504 862.8796 24.7504 C 865.4567 24.7504 867.1237 22.72456 867.1237 19.85042 " fill="#ffffff"/>
<path transform="matrix(1,0,0,-1,-178.8,433.2)" d="M 871.3193 20.05198 L 872.5664 20.05198 C 873.8694 20.05198 874.6954 20.78539 874.6954 21.89114 C 874.6954 23.14152 873.8124 23.68722 872.5244 23.70158 C 871.9353 23.70158 871.5153 23.64414 871.3193 23.58669 Z M 870.1003 24.46371 C 870.7163 24.59295 871.5993 24.66373 872.4404 24.66373 C 873.7424 24.66373 874.5834 24.42062 875.1724 23.8739 C 875.6474 23.44309 875.9144 22.78149 875.9144 22.03474 C 875.9144 20.75667 875.1304 19.90838 874.1344 19.5627 L 874.1344 19.51962 C 874.8634 19.26113 875.2984 18.57286 875.5214 17.5666 C 875.8304 16.2157 876.0534 15.28227 876.2504 14.90787 L 874.9894 14.90787 C 874.8354 15.18175 874.6254 16.01363 874.3594 17.22093 C 874.0794 18.55747 873.5744 19.06009 872.4674 19.10317 L 871.3193 19.10317 L 871.3193 14.90787 L 870.1003 14.90787 Z " fill="#ffffff"/>
<path transform="matrix(1,0,0,-1,-178.8,433.2)" d="M 883.7258 18.93115 L 882.8008 21.71912 C 882.5908 22.35098 882.4508 22.92642 882.3108 23.48545 L 882.2828 23.48545 C 882.1428 22.91104 881.9888 22.32226 881.8058 21.73246 L 880.8818 18.93115 Z M 880.6297 17.95464 L 879.6497 14.90818 L 878.3887 14.90818 L 881.5958 24.59326 L 883.0668 24.59326 L 886.2889 14.90818 L 884.9868 14.90818 L 883.9778 17.95464 Z " fill="#ffffff"/>
<path transform="matrix(1,0,0,-1,-178.8,433.2)" d="M 889.7866 23.52895 L 886.9155 23.52895 L 886.9155 24.59264 L 893.9047 24.59264 L 893.9047 23.52895 L 891.0186 23.52895 L 891.0186 14.90859 L 889.7866 14.90859 Z " fill="#ffffff"/>
<path transform="matrix(1,0,0,-1,-178.8,433.2)" d="M 896.7154 19.69246 C 896.7154 17.62353 897.8084 15.77104 899.7275 15.77104 C 901.6605 15.77104 902.7526 17.59481 902.7526 19.79401 C 902.7526 21.71933 901.7725 23.73081 899.7415 23.73081 C 897.7244 23.73081 896.7154 21.81882 896.7154 19.69246 M 904.0416 19.85042 C 904.0416 16.51675 902.0675 14.75042 899.6575 14.75042 C 897.1634 14.75042 895.4124 16.73319 895.4124 19.66476 C 895.4124 22.73892 897.2764 24.7504 899.7975 24.7504 C 902.3745 24.7504 904.0416 22.72456 904.0416 19.85042 " fill="#ffffff"/>
<path transform="matrix(1,0,0,-1,-178.8,433.2)" d="M 908.2381 20.05198 L 909.4851 20.05198 C 910.7881 20.05198 911.6142 20.78539 911.6142 21.89114 C 911.6142 23.14152 910.7311 23.68722 909.4431 23.70158 C 908.8541 23.70158 908.4341 23.64414 908.2381 23.58669 Z M 907.0191 24.46371 C 907.6351 24.59295 908.5181 24.66373 909.3591 24.66373 C 910.6611 24.66373 911.5022 24.42062 912.0912 23.8739 C 912.5662 23.44309 912.8332 22.78149 912.8332 22.03474 C 912.8332 20.75667 912.0492 19.90838 911.0531 19.5627 L 911.0531 19.51962 C 911.7822 19.26113 912.2172 18.57286 912.4402 17.5666 C 912.7492 16.2157 912.9722 15.28227 913.1692 14.90787 L 911.9082 14.90787 C 911.7542 15.18175 911.5442 16.01363 911.2781 17.22093 C 910.9981 18.55747 910.4931 19.06009 909.3861 19.10317 L 908.2381 19.10317 L 908.2381 14.90787 L 907.0191 14.90787 Z " fill="#ffffff"/>
<path transform="matrix(1,0,0,-1,-178.8,433.2)" d="M 917.8995 14.90828 L 917.8995 19.01742 L 914.9154 24.59233 L 916.3015 24.59233 L 917.6325 21.92027 C 917.9975 21.18686 918.2775 20.59809 918.5715 19.92315 L 918.5995 19.92315 C 918.8655 20.55501 919.1875 21.18686 919.5515 21.92027 L 920.9116 24.59233 L 922.2976 24.59233 L 919.1315 19.0328 L 919.1315 14.90828 Z " fill="#ffffff"/>
</g>
<path transform="matrix(1,0,0,-1,-178.8,433.2)" d="M 58.61945 462.5915 L -.000001579039 462.5915 L -.000001579039 498.875 L 58.61945 498.875 Z " fill="#06509d"/>
<path transform="matrix(1,0,0,-1,-178.8,433.2)" d="M 58.61945 455.7891 L -.000001579039 455.7891 L -.000001579039 462.5915 L 58.61945 462.5915 Z " fill="#8ec423"/>
<text fill="#bcbcbe" xml:space="preserve" transform="matrix(.24 0 -0 .24 -152.24028 958.56)" font-size="41.66666" font-family="Arial" font-weight="bold"><tspan y="-2250" x="0">1</tspan></text>
<path transform="matrix(1,0,0,-1,-178.8,433.2)" d="M 367.8614 246.0279 C 367.8614 250.24 371.276 253.6547 375.4881 253.6547 L 584.5117 253.6547 C 588.7239 253.6547 592.1385 250.24 592.1385 246.0279 L 592.1385 215.5216 C 592.1385 211.3094 588.7239 207.8948 584.5117 207.8948 L 375.4881 207.8948 C 371.276 207.8948 367.8614 211.3094 367.8614 215.5216 Z " fill="#8ec423" fill-rule="evenodd"/>
<path transform="matrix(.00007874016,0,0,.00007874016,189.06139,179.54532)" stroke-width="28575" stroke-linecap="butt" stroke-miterlimit="8" stroke-linejoin="miter" fill="none" stroke="#000000" d="M 0 96859.89 C 0 43365.65 43365.55 0 96859.66 0 L 2751459 0 C 2804953 0 2848319 43365.65 2848319 96859.89 L 2848319 484290.1 C 2848319 537784.3 2804953 581150 2751459 581150 L 96859.66 581150 C 43365.55 581150 0 537784.3 0 484290.1 Z "/>
<text fill="#ffffff" xml:space="preserve" transform="matrix(.24 0 -0 .24 200.6999 745.92007)" font-size="58.33333" font-family="CourierNewPS" font-weight="bold"><tspan y="-2250" x="0 34.894998 69.78999 104.68499 139.57999 174.47498 209.36997 244.26496 279.15995 314.05494 348.94993 383.8449 418.7399 453.6349 488.52989 523.42489 558.3199 593.2149 628.1099 663.00497 697.89999 732.795 767.69 802.585">ActiveLearningGPDecision</tspan></text>
<path transform="matrix(1,0,0,-1,-178.8,433.2)" d="M 188.6313 360.9144 C 188.6313 364.3394 191.4078 367.1159 194.8328 367.1159 L 406.7069 367.1159 C 410.1319 367.1159 412.9084 364.3394 412.9084 360.9144 L 412.9084 336.1094 C 412.9084 332.6844 410.1319 329.9079 406.7069 329.9079 L 194.8328 329.9079 C 191.4078 329.9079 188.6313 332.6844 188.6313 336.1094 Z " fill="#07519e" fill-rule="evenodd"/>
<path transform="matrix(.00007874016,0,0,.00007874016,9.831299,66.08411)" stroke-width="28575" stroke-linecap="butt" stroke-miterlimit="8" stroke-linejoin="miter" fill="none" stroke="#000000" d="M 0 78759.08 C 0 35261.64 35261.44 0 78758.64 0 L 2769560 0 C 2813057 0 2848319 35261.64 2848319 78759.08 L 2848319 393782.9 C 2848319 437280.4 2813057 472542 2769560 472542 L 78758.64 472542 C 35261.44 472542 0 437280.4 0 393782.9 Z "/>
<text fill="#ffffff" xml:space="preserve" transform="matrix(.24 0 -0 .24 21.469895 628.32)" font-size="58.33333" font-family="CourierNewPS" font-weight="bold"><tspan y="-2250" x="0 34.894998 69.78999 104.68499 139.57999 174.47498 209.36997 244.26496 279.15995 314.05494 348.94993 383.8449 418.7399 453.6349 488.52989 523.42489 558.3199 593.2149 628.1099 663.00497 697.89999 732.795 767.69 802.585">ActiveLearningMonteCarlo</tspan></text>
<text xml:space="preserve" transform="matrix(.24 0 -0 .24 461.84034 721.2)" font-size="58.33333" font-family="Arial" font-weight="bold"><tspan y="-2250" x="0 39.06 71.35334 103.646678 135.94 171.325 190.60999 222.90332 258.28834 274.42335 290.55836 325.94337 342.07838 377.46339 409.7567 432.65837 464.9517 481.0867 497.2217 529.515">Executed in parallel</tspan></text>
<path transform="matrix(1,0,0,-1,-178.8,433.2)" d="M 541.7454 360.9144 C 541.7454 364.3394 544.5219 367.1159 547.9469 367.1159 L 631.1575 367.1159 C 634.5825 367.1159 637.359 364.3394 637.359 360.9144 L 637.359 336.1094 C 637.359 332.6844 634.5825 329.9079 631.1575 329.9079 L 547.9469 329.9079 C 544.5219 329.9079 541.7454 332.6844 541.7454 336.1094 Z " fill="#07519e" fill-rule="evenodd"/>
<path transform="matrix(.00007874016,0,0,.00007874016,362.94544,66.08411)" stroke-width="28575" stroke-linecap="butt" stroke-miterlimit="8" stroke-linejoin="miter" fill="none" stroke="#000000" d="M 0 78759.21 C 0 35261.7 35261.6 0 78759 0 L 1135533 0 C 1179030 0 1214292 35261.7 1214292 78759.21 L 1214292 393782.8 C 1214292 437280.3 1179030 472542 1135533 472542 L 78759 472542 C 35261.6 472542 0 437280.3 0 393782.8 Z "/>
<text fill="#ffffff" xml:space="preserve" transform="matrix(.24 0 -0 .24 372.2522 629.04006)" font-size="66.66666" font-family="CourierNewPS" font-weight="bold"><tspan y="-2250" x="0 40.106664 80.213329 120.31999 160.42665 200.53331 240.63997 280.74665">MultiApp</tspan></text>
<path transform="matrix(.00007874016,0,0,.00007874016,463.3711,17.794007)" stroke-width="28575" stroke-linecap="butt" stroke-miterlimit="8" stroke-linejoin="miter" fill="none" stroke="#000000" d="M 307779 1699152 C 222787.7 1699152 153888.6 1687669 153888.6 1673505 L 153890.4 875223.1 C 153890.4 861058.6 84991.34 849576 0 849576 C 84991.34 849576 153890.4 838093.4 153890.4 823928.9 L 153890.4 25647.09 C 153890.4 11482.59 222789.5 0 307780.8 0 "/>
<text xml:space="preserve" transform="matrix(.24 0 -0 .24 496.65284 572.88)" font-size="58.33333" font-family="ArialMT"><tspan y="-2250" x="0 39.06 71.35334 103.646678 142.70668 175.00002">SubApp</tspan></text>
<text xml:space="preserve" transform="matrix(.24 0 -0 .24 550.27786 572.88)" font-size="58.33333" font-family="ArialMT"><tspan y="-2250" x="0">1</tspan></text>
<text xml:space="preserve" transform="matrix(.24 0 -0 .24 496.65284 604.80007)" font-size="58.33333" font-family="ArialMT"><tspan y="-2250" x="0 39.06 71.35334 103.646678 142.70668 175.00002">SubApp</tspan></text>
<text xml:space="preserve" transform="matrix(.24 0 -0 .24 550.27786 604.80007)" font-size="58.33333" font-family="ArialMT"><tspan y="-2250" x="0">2</tspan></text>
<text xml:space="preserve" transform="matrix(.24 0 -0 .24 495.46534 687.36)" font-size="58.33333" font-family="ArialMT"><tspan y="-2250" x="0 39.06 71.35334 103.646678 142.70668 175.00002">SubApp</tspan></text>
<text xml:space="preserve" transform="matrix(.24 0 -0 .24 549.09036 687.36)" font-size="58.33333" font-family="ArialMT"><tspan y="-2250" x="0">N</tspan></text>
<text xml:space="preserve" transform="matrix(.24 0 -0 .24 524.59036 619.44)" font-size="83.33333" font-family="Arial" font-weight="bold"><tspan y="-2250" x="0">.</tspan></text>
<text xml:space="preserve" transform="matrix(.24 0 -0 .24 524.59036 643.44)" font-size="83.33333" font-family="Arial" font-weight="bold"><tspan y="-2250" x="0">.</tspan></text>
<text xml:space="preserve" transform="matrix(.24 0 -0 .24 524.59036 667.44)" font-size="83.33333" font-family="Arial" font-weight="bold"><tspan y="-2250" x="0">.</tspan></text>
<path transform="matrix(1,0,0,-1,-178.8,433.2)" d="M 346.9733 155.3875 C 346.9733 158.8125 349.7498 161.5891 353.1748 161.5891 L 606.8249 161.5891 C 610.2499 161.5891 613.0265 158.8125 613.0265 155.3875 L 613.0265 130.5826 C 613.0265 127.1576 610.2499 124.381 606.8249 124.381 L 353.1748 124.381 C 349.7498 124.381 346.9733 127.1576 346.9733 130.5826 Z " fill="#07519e" fill-rule="evenodd"/>
<path transform="matrix(.00007874016,0,0,.00007874016,168.1733,271.6109)" stroke-width="28575" stroke-linecap="butt" stroke-miterlimit="8" stroke-linejoin="miter" fill="none" stroke="#000000" d="M 0 78759.46 C 0 35261.81 35261.66 0 78759.12 0 L 3300116 0 C 3343613 0 3378875 35261.81 3378875 78759.46 L 3378875 393782.5 C 3378875 437280.2 3343613 472542 3300116 472542 L 78759.12 472542 C 35261.66 472542 0 437280.2 0 393782.5 Z "/>
<text fill="#ffffff" xml:space="preserve" transform="matrix(.24 0 -0 .24 179.7624 833.76)" font-size="58.33333" font-family="CourierNewPS" font-weight="bold"><tspan y="-2250" x="0 34.894998 69.78999 104.68499 139.57999 174.47498 209.36997 244.26496 279.15995 314.05494 348.94993 383.8449 418.7399 453.6349 488.52989 523.42489 558.3199 593.2149 628.1099 663.00497 697.89999 732.795 767.69 802.585 837.48007 872.37509 907.2701 942.1651 977.0601">ActiveLearningGaussianProcess</tspan></text>
<path transform="matrix(1,0,0,-1,-178.8,433.2)" d="M 478.875 207.8948 L 478.8749 167.2141 L 481.1249 167.2141 L 481.125 207.8948 Z M 476.6249 168.3391 L 479.9999 161.5891 L 483.3749 168.3391 Z "/>
<text xml:space="preserve" transform="matrix(.24 0 -0 .24 308.2246 793.92007)" font-size="58.33333" font-family="ArialMT"><tspan y="-2250" x="0 19.273333 35.42 48.44 80.73334 93.753337 122.92 155.21334 171.35999 203.65332 235.94666 268.24 300.53334 319.80665 352.09999 368.24665 381.26667 413.56 445.85334 462 494.29335 510.44 526.5867 542.73336 562.00668 594.3 607.32 639.61337 652.63339 684.9267 717.22006 733.3667 762.5334 794.8267 843.2667 875.56008 888.5801 920.8734 950.0401">(finish generation of training samples)</tspan></text>
<text xml:space="preserve" transform="matrix(.24 0 -0 .24 180.4488 558)" font-size="58.33333" font-family="ArialMT"><tspan y="-2250" x="0 19.273333 51.566667 83.86 100.00667 129.17334 161.46668 177.61334 209.90668 226.05335 242.20001 255.22002 287.51335 319.80665 352.09999 368.24665 384.3933 413.55998 445.85328 494.29328 526.5866 539.6066 571.89999 601.06668">(batch of input samples)</tspan></text>
<path transform="matrix(1,0,0,-1,-178.8,433.2)" d="M 300.1468 366.6817 L 300.2032 367.6435 L 300.3815 368.6642 L 300.6734 369.6737 L 301.074 370.6695 L 301.5784 371.6506 L 302.1823 372.6173 L 302.8821 373.5701 L 303.6748 374.51 L 304.5581 375.438 L 305.5387 376.3635 L 307.7293 378.1582 L 310.2645 379.9247 L 313.1212 381.6552 L 316.2877 383.3496 L 319.7519 385.0067 L 323.502 386.6246 L 327.5256 388.2009 L 331.8101 389.7327 L 336.3432 391.2171 L 341.1119 392.6511 L 346.1035 394.0313 L 351.3051 395.3545 L 356.7037 396.6174 L 362.2864 397.8166 L 368.0402 398.9486 L 373.9519 400.0101 L 380.0086 400.9976 L 386.197 401.9076 L 392.5042 402.7367 L 398.917 403.4813 L 405.4223 404.138 L 412.007 404.7034 L 418.6578 405.1738 L 425.3618 405.5458 L 432.1058 405.8159 L 438.8766 405.9805 L 445.6609 406.0362 L 452.445 405.982 L 459.2153 405.8216 L 465.9588 405.5586 L 472.6624 405.1964 L 479.3128 404.7383 L 485.897 404.1877 L 492.4019 403.5482 L 498.8143 402.823 L 505.121 402.0157 L 511.3091 401.1295 L 517.3653 400.1678 L 523.2766 399.1342 L 529.0299 398.0318 L 534.6121 396.864 L 540.0104 395.6342 L 545.2115 394.3456 L 550.2026 393.0016 L 554.9708 391.6052 L 559.5033 390.1597 L 563.7874 388.6681 L 567.8104 387.1332 L 571.5599 385.5578 L 575.0237 383.9442 L 578.1897 382.2942 L 581.0461 380.6091 L 583.5813 378.8887 L 585.7721 377.1407 L 586.7533 376.2389 L 587.7046 375.2654 L 588.8403 373.3851 L 586.9143 372.2218 L 585.846 373.9907 L 586.0044 373.786 L 585.1652 374.6447 L 585.2085 374.6027 L 584.2785 375.4575 L 584.3381 375.4064 L 582.212 377.1029 L 582.282 377.0513 L 579.8121 378.7273 L 579.8722 378.6892 L 577.0719 380.3413 L 577.1236 380.3126 L 574.006 381.9373 L 574.0509 381.9152 L 570.6292 383.5092 L 570.6685 383.4918 L 566.9561 385.0516 L 566.9909 385.0377 L 563.0008 386.56 L 563.0319 386.5486 L 558.7775 388.03 L 558.8055 388.0206 L 554.2999 389.4575 L 554.3256 389.4497 L 549.582 390.8388 L 549.6057 390.8322 L 544.6374 392.1701 L 544.6594 392.1644 L 539.4796 393.4477 L 539.5002 393.4428 L 534.1221 394.668 L 534.1417 394.6637 L 528.5785 395.8275 L 528.5971 395.8237 L 522.8621 396.9226 L 522.8801 396.9194 L 516.9864 397.95 L 517.0038 397.9471 L 510.9647 398.906 L 510.9816 398.9034 L 504.8104 399.7872 L 504.827 399.7849 L 498.5368 400.5902 L 498.5532 400.5882 L 492.1572 401.3115 L 492.1736 401.3098 L 485.685 401.9477 L 485.7014 401.9462 L 479.1335 402.4954 L 479.15 402.4941 L 472.5161 402.9511 L 472.5327 402.9501 L 465.8458 403.3115 L 465.8627 403.3107 L 459.1362 403.573 L 459.1534 403.5725 L 452.4005 403.7324 L 452.4182 403.7321 L 445.6521 403.7862 L 445.6703 403.7862 L 438.9041 403.7307 L 438.9223 403.731 L 432.1693 403.5668 L 432.187 403.5673 L 425.4605 403.298 L 425.4779 403.2988 L 418.791 402.9277 L 418.8081 402.9288 L 412.1741 402.4596 L 412.191 402.4609 L 405.6232 401.897 L 405.6399 401.8986 L 399.1514 401.2435 L 399.1682 401.2453 L 392.7722 400.5027 L 392.789 400.5047 L 386.4988 399.6779 L 386.5158 399.6803 L 380.3446 398.7728 L 380.3619 398.7755 L 374.3229 397.7909 L 374.3407 397.7939 L 368.447 396.7357 L 368.4654 396.7391 L 362.7304 395.6108 L 362.7494 395.6147 L 357.1863 394.4197 L 357.2063 394.4242 L 351.8282 393.1661 L 351.8493 393.1713 L 346.6695 391.8536 L 346.6919 391.8596 L 341.7236 390.4858 L 341.7478 390.4927 L 337.0042 389.0664 L 337.0304 389.0746 L 332.5247 387.5991 L 332.5534 387.6089 L 328.2989 386.0879 L 328.3305 386.0997 L 324.3405 384.5366 L 324.3758 384.5511 L 320.6633 382.9495 L 320.7031 382.9676 L 317.2815 381.3308 L 317.3269 381.3538 L 314.2093 379.6855 L 314.2614 379.7152 L 311.4611 378.0189 L 311.5213 378.058 L 309.0515 376.3372 L 309.1213 376.39 L 306.9952 374.6481 L 307.0544 374.7001 L 306.1243 373.8224 L 306.1671 373.8649 L 305.3279 372.9832 L 305.373 373.0335 L 304.6264 372.1483 L 304.6731 372.2077 L 304.0207 371.3194 L 304.0681 371.3893 L 303.5115 370.4984 L 303.5579 370.5801 L 303.0988 369.687 L 303.142 369.7815 L 302.7821 368.8867 L 302.819 368.994 L 302.5599 368.0978 L 302.5874 368.2168 L 302.4307 367.3197 L 302.4455 367.4475 L 302.3929 366.55 Z M 590.5549 375.1458 L 590.0521 367.6159 L 584.3298 372.5361 Z "/>
<path transform="matrix(1,0,0,-1,-178.8,433.2)" d="M 590.6761 329.8579 L 590.5946 328.0226 L 590.3473 326.1451 L 589.9427 324.2804 L 589.3873 322.4326 L 588.6873 320.6056 L 587.8488 318.8027 L 586.8778 317.0271 L 585.78 315.2819 L 584.5611 313.57 L 583.2264 311.8944 L 581.7812 310.2581 L 580.2307 308.6641 L 578.5801 307.1153 L 576.8344 305.615 L 574.9986 304.1663 L 573.0689 302.766 L 569.0007 300.1612 L 564.6418 297.8088 L 560.0407 295.7416 L 555.2465 293.9905 L 552.771 293.2361 L 550.2692 292.5732 L 547.7362 292.0025 L 545.177 291.5274 L 542.5964 291.1516 L 539.9994 290.8787 L 537.3909 290.7122 L 534.8004 290.6564 L 532.2336 290.6012 L 532.281 290.6032 L 529.7192 290.4397 L 529.7652 290.4436 L 527.2134 290.1754 L 527.258 290.181 L 524.7212 289.8116 L 524.7644 289.8187 L 522.2478 289.3515 L 522.2898 289.3602 L 519.7982 288.7988 L 519.839 288.8088 L 517.3775 288.1566 L 517.4174 288.168 L 514.991 287.4285 L 515.049 287.448 L 510.3216 285.7213 L 510.3967 285.7518 L 505.8699 283.718 L 505.9432 283.7541 L 501.6571 281.441 L 501.7294 281.4836 L 497.7242 278.9192 L 497.7783 278.9561 L 495.8936 277.5884 L 495.9297 277.6158 L 494.1302 276.1957 L 494.1666 276.2256 L 492.4573 274.7567 L 492.4938 274.7895 L 490.8799 273.2751 L 490.9165 273.3111 L 489.4029 271.7549 L 489.4396 271.7946 L 488.0313 270.2 L 488.068 270.2438 L 486.77 268.6142 L 486.8065 268.6626 L 485.6238 267.0017 L 485.6596 267.0552 L 484.5973 265.3664 L 484.6321 265.4256 L 483.6951 263.7123 L 483.7282 263.7776 L 482.9216 262.0434 L 482.9521 262.1153 L 482.2809 260.3636 L 482.3327 260.5415 L 482.0147 258.9806 L 479.81 259.4297 L 480.1466 261.0818 L 480.865 262.9568 L 481.7035 264.7597 L 482.6745 266.5353 L 483.7723 268.2805 L 484.9912 269.9924 L 486.3259 271.668 L 487.7711 273.3043 L 489.3216 274.8984 L 490.9722 276.4471 L 492.7179 277.9474 L 494.5537 279.3961 L 496.4834 280.7964 L 500.5516 283.4011 L 504.9106 285.7536 L 509.5116 287.8208 L 514.3058 289.5719 L 516.7813 290.3263 L 519.2831 290.9891 L 521.8161 291.5598 L 524.3753 292.0349 L 526.9559 292.4107 L 529.5529 292.6837 L 532.1614 292.8501 L 534.7519 292.9059 L 537.3187 292.9612 L 537.2713 292.9591 L 539.8331 293.1226 L 539.7871 293.1187 L 542.3389 293.3869 L 542.2943 293.3814 L 544.8311 293.7508 L 544.7879 293.7436 L 547.3045 294.2108 L 547.2625 294.2022 L 549.7541 294.7636 L 549.7133 294.7536 L 552.1748 295.4057 L 552.1349 295.3944 L 554.5613 296.1338 L 554.5033 296.1144 L 559.2307 297.8411 L 559.1556 297.8105 L 563.6824 299.8444 L 563.6091 299.8082 L 567.8952 302.1213 L 567.8229 302.0788 L 571.8281 304.6432 L 571.774 304.6063 L 573.6587 305.974 L 573.6226 305.9466 L 575.4221 307.3667 L 575.3857 307.3368 L 577.095 308.8057 L 577.0585 308.773 L 578.6724 310.2873 L 578.6358 310.2513 L 580.1494 311.8075 L 580.1127 311.7678 L 581.521 313.3624 L 581.4843 313.3187 L 582.7823 314.9482 L 582.7458 314.8998 L 583.9285 316.5607 L 583.8927 316.5072 L 584.955 318.1961 L 584.9202 318.1369 L 585.8572 319.8502 L 585.8241 319.7848 L 586.6307 321.519 L 586.6002 321.4471 L 587.2714 323.1988 L 587.2446 323.1202 L 587.7753 324.8858 L 587.7532 324.8005 L 588.1386 326.5766 L 588.1226 326.485 L 588.3575 328.2681 L 588.349 328.1712 L 588.4284 329.9578 Z M 484.4252 259.7678 L 480.0001 253.6546 L 477.7645 260.8626 Z "/>
<path transform="matrix(1,0,0,-1,-178.8,433.2)" d="M 367.81 229.6508 L 364.6161 229.7968 L 361.3814 230.235 L 358.1652 230.9526 L 354.9744 231.939 L 351.8153 233.1839 L 348.694 234.6768 L 345.6163 236.4078 L 342.5878 238.367 L 339.6141 240.5447 L 336.7008 242.9314 L 333.8534 245.5178 L 331.0776 248.2945 L 328.3791 251.2525 L 325.7634 254.3826 L 323.2365 257.6757 L 320.8042 261.123 L 318.4723 264.7152 L 316.2468 268.4435 L 314.1335 272.2989 L 312.1386 276.2724 L 310.268 280.3551 L 308.5277 284.538 L 306.9239 288.8121 L 305.4626 293.1686 L 304.15 297.5983 L 302.9923 302.0925 L 301.9955 306.6422 L 301.1659 311.2383 L 300.5098 315.8719 L 300.0329 320.539 L 299.8362 324.2261 L 302.083 324.3459 L 302.2782 320.6861 L 302.274 320.7405 L 302.7459 316.1224 L 302.7407 316.1658 L 303.3907 311.5749 L 303.3839 311.617 L 304.206 307.0624 L 304.1978 307.1033 L 305.1857 302.5941 L 305.1762 302.634 L 306.3238 298.1792 L 306.313 298.2182 L 307.6142 293.827 L 307.6022 293.8651 L 309.0507 289.5465 L 309.0374 289.584 L 310.6273 285.347 L 310.6127 285.3839 L 312.3377 281.2378 L 312.3218 281.2742 L 314.1757 277.2279 L 314.1584 277.264 L 316.1352 273.3266 L 316.1163 273.3626 L 318.2099 269.5431 L 318.1893 269.579 L 320.3934 265.8866 L 320.3711 265.9226 L 322.6796 262.3663 L 322.6552 262.4024 L 325.062 258.9913 L 325.0353 259.0276 L 327.5342 255.7708 L 327.505 255.8074 L 330.0899 252.714 L 330.0577 252.7508 L 332.7225 249.8299 L 332.6871 249.8671 L 335.4255 247.1276 L 335.3863 247.165 L 338.1924 244.6162 L 338.1489 244.6537 L 341.0164 242.3046 L 340.9681 242.342 L 343.8909 240.2016 L 343.8373 240.2385 L 346.8092 238.3159 L 346.7496 238.3519 L 349.7645 236.6562 L 349.6985 236.6905 L 352.7502 235.2308 L 352.6772 235.2626 L 355.7597 234.0479 L 355.6795 234.0761 L 358.7866 233.1156 L 358.6993 233.1387 L 361.8247 232.4414 L 361.7308 232.4582 L 364.8685 232.0332 L 364.7689 232.0422 L 367.9128 231.8985 Z M 297.6244 323.0478 L 300.7699 329.9078 L 304.3706 323.2754 Z "/>
<text xml:space="preserve" transform="matrix(.24 0 -0 .24 299.5122 675.12)" font-size="58.33333" font-family="ArialMT"><tspan y="-2250" x="0 19.273333 51.566667 83.86 100.00667 132.3 164.59334 180.73999 209.90665">(outputs)</tspan></text>
<text xml:space="preserve" transform="matrix(.24 0 -0 .24 10.055893 692.88)" font-size="58.33333" font-family="ArialMT"><tspan y="-2250" x="0 19.27333 51.554998 83.83666 99.95999 112.99165 126.023319 142.14665 158.26999 190.55165 222.83332 238.95665 258.22999 290.51167 322.79335 355.075 368.1067 387.38 419.66169 451.94337">(until the required </tspan></text>
<text xml:space="preserve" transform="matrix(.24 0 -0 .24 1.4908905 708.96)" font-size="58.33333" font-family="ArialMT"><tspan y="-2250" x="0 16.146668 35.42 67.71333 80.73333 113.026668 126.04666 158.34 190.63333 206.78 235.94666 268.24 316.68 348.97334 361.99336 394.28669 423.45335 439.6 471.8933 491.16664 523.45999">training samples are </tspan></text>
<text xml:space="preserve" transform="matrix(.24 0 -0 .24 50.36589 726)" font-size="58.33333" font-family="ArialMT"><tspan y="-2250" x="0 48.44 80.721668 96.845">met)</tspan></text>
<text xml:space="preserve" transform="matrix(.24 0 -0 .24 225.01479 868.80007)" font-size="58.33333" font-family="Arial" font-weight="bold"><tspan y="-2250" x="0 16.146668 51.54333 67.69 86.986667 103.13333 135.43833">Initial</tspan></text>
<text xml:space="preserve" transform="matrix(.24 0 -0 .24 265.26478 868.80007)" font-size="58.33333" font-family="Arial" font-weight="bold"><tspan y="-2250" x="0 45.31333">GP</tspan></text>
<text xml:space="preserve" transform="matrix(.24 0 -0 .24 289.13484 868.80007)" font-size="58.33333" font-family="Arial" font-weight="bold"><tspan y="-2250" x="0 19.27333 42.221666 74.50333 90.62666 126.05833 142.18166 177.61333">training</tspan></text>
<text xml:space="preserve" transform="matrix(.24 0 -0 .24 344.13484 868.80007)" font-size="58.33333" font-family="Arial" font-weight="bold"><tspan y="-2250" x="0 35.414167 70.82833">don</tspan></text>
<text xml:space="preserve" transform="matrix(.24 0 -0 .24 369.63484 868.80007)" font-size="58.33333" font-family="Arial" font-weight="bold"><tspan y="-2250" x="0">e</tspan></text>
</g>
</g>
</svg>
