<?xml version="1.0" encoding="UTF-8" standalone="no"?>
<!DOCTYPE svg PUBLIC "-//W3C//DTD SVG 1.1//EN" "http://www.w3.org/Graphics/SVG/1.1/DTD/svg11.dtd">
<svg xmlns="http://www.w3.org/2000/svg" xmlns:xlink="http://www.w3.org/1999/xlink" version="1.1" width="645.6pt" height="313.2pt" viewBox="0 0 645.6 313.2">
<g enable-background="new">
<clipPath id="cp0">
<path transform="matrix(1,0,0,-1,-99.6,434.40003)" d="M 0 0 L 960 0 L 960 540 L 0 540 Z "/>
</clipPath>
<g clip-path="url(#cp0)">
<clipPath id="cp1">
<path transform="matrix(1,0,0,-1,-99.6,434.40003)" d="M 0 .00001206994 L 959.76 .00001206994 L 959.76 540 L 0 540 Z "/>
</clipPath>
<g clip-path="url(#cp1)">
<path transform="matrix(1,0,0,-1,-99.6,434.40003)" d="M 0 540 L 959.76 540 L 959.76 .00001206994 L 0 .00001206994 Z " fill="#ffffff"/>
</g>
<path transform="matrix(1,0,0,-1,-99.6,434.40003)" d="M 0 540 L 960 540 L 960 .0000140816 L 0 .0000140816 Z " fill="#ffffff"/>
<path transform="matrix(1,0,0,-1,-99.6,434.40003)" d="M 666.5959 41.12503 L 960 41.12503 L 960 -.000007615685 L 666.5959 -.000007615685 Z " fill="#06509d"/>
<path transform="matrix(1,0,0,-1,-99.6,434.40003)" d="M 666.5959 48.83506 L 960 48.83506 L 960 41.12506 L 666.5959 41.12506 Z " fill="#8ec423"/>
<clipPath id="cp2">
<path transform="matrix(1,0,0,-1,-99.6,434.40003)" d="M 704.2979 14.75001 L 922.2979 14.75001 L 922.2979 24.75001 L 704.2979 24.75001 Z "/>
</clipPath>
<g clip-path="url(#cp2)">
<path transform="matrix(1,0,0,-1,-99.6,434.40003)" d="M 704.2979 14.90798 L 705.51699 14.90798 L 705.51699 24.593056 L 704.2979 24.593056 Z " fill="#ffffff"/>
</g>
<clipPath id="cp3">
<path transform="matrix(1,0,0,-1,-99.6,434.40003)" d="M 704.2979 14.75001 L 922.2979 14.75001 L 922.2979 24.749989 L 704.2979 24.749989 Z "/>
</clipPath>
<g clip-path="url(#cp3)">
<path transform="matrix(1,0,0,-1,-99.6,434.40003)" d="M 710.2629 15.89997 C 710.5709 15.84151 711.0189 15.82817 711.4949 15.82817 C 714.1009 15.82817 715.516 17.32268 715.516 19.9373 C 715.53 22.22163 714.2689 23.67306 711.6919 23.67306 C 711.0609 23.67306 710.5849 23.61459 710.2629 23.54382 Z M 709.0438 24.46391 C 709.7858 24.57777 710.6689 24.66393 711.6349 24.66393 C 713.3859 24.66393 714.633 24.24748 715.459 23.45766 C 716.3 22.66783 716.79 21.54669 716.79 19.98038 C 716.79 18.40074 716.314 17.10727 715.432 16.2159 C 714.5489 15.3112 713.0919 14.82192 711.2569 14.82192 C 710.3889 14.82192 709.6598 14.865 709.0438 14.93783 Z " fill="#ffffff"/>
<path transform="matrix(1,0,0,-1,-99.6,434.40003)" d="M 724.1949 18.93115 L 723.2698 21.71912 C 723.0598 22.35098 722.9208 22.92642 722.7798 23.48545 L 722.7518 23.48545 C 722.6118 22.91104 722.4578 22.32226 722.2758 21.73246 L 721.3508 18.93115 Z M 721.0988 17.95464 L 720.1188 14.90818 L 718.8577 14.90818 L 722.0658 24.59326 L 723.5369 24.59326 L 726.7579 14.90818 L 725.4559 14.90818 L 724.4469 17.95464 Z " fill="#ffffff"/>
<path transform="matrix(1,0,0,-1,-99.6,434.40003)" d="M 730.7594 24.59274 L 730.7594 20.54106 L 735.3255 20.54106 L 735.3255 24.59274 L 736.5586 24.59274 L 736.5586 14.90869 L 735.3255 14.90869 L 735.3255 19.44864 L 730.7594 19.44864 L 730.7594 14.90869 L 729.5404 14.90869 L 729.5404 24.59274 Z " fill="#ffffff"/>
<path transform="matrix(1,0,0,-1,-99.6,434.40003)" d="M 740.8094 19.69246 C 740.8094 17.62353 741.9025 15.77104 743.8215 15.77104 C 745.7546 15.77104 746.8466 17.59481 746.8466 19.79401 C 746.8466 21.71933 745.8666 23.73081 743.8355 23.73081 C 741.8185 23.73081 740.8094 21.81882 740.8094 19.69246 M 748.1356 19.85042 C 748.1356 16.51675 746.1616 14.75042 743.7515 14.75042 C 741.2575 14.75042 739.5064 16.73319 739.5064 19.66476 C 739.5064 22.73892 741.3705 24.7504 743.8915 24.7504 C 746.4686 24.7504 748.1356 22.72456 748.1356 19.85042 " fill="#ffffff"/>
<path transform="matrix(1,0,0,-1,-99.6,434.40003)" d="M 755.4817 14.90828 L 755.4817 24.59233 L 756.8127 24.59233 L 759.8378 19.69235 C 760.5388 18.55788 761.0858 17.53727 761.5338 16.5464 L 761.5608 16.56076 C 761.4498 17.8532 761.4208 19.0328 761.4208 20.54065 L 761.4208 24.59233 L 762.5698 24.59233 L 762.5698 14.90828 L 761.3368 14.90828 L 758.3388 19.82262 C 757.6807 20.89966 757.0507 22.00643 756.5747 23.05474 L 756.5327 23.04141 C 756.6027 21.81872 756.6297 20.65655 756.6297 19.04614 L 756.6297 14.90828 Z " fill="#ffffff"/>
<path transform="matrix(1,0,0,-1,-99.6,434.40003)" d="M 770.7164 18.93115 L 769.7914 21.71912 C 769.5814 22.35098 769.4414 22.92642 769.3014 23.48545 L 769.2734 23.48545 C 769.1334 22.91104 768.9794 22.32226 768.7964 21.73246 L 767.8724 18.93115 Z M 767.6204 17.95464 L 766.6403 14.90818 L 765.3793 14.90818 L 768.5864 24.59326 L 770.0574 24.59326 L 773.2795 14.90818 L 771.9765 14.90818 L 770.9684 17.95464 Z " fill="#ffffff"/>
<path transform="matrix(1,0,0,-1,-99.6,434.40003)" d="M 776.7781 23.52895 L 773.907 23.52895 L 773.907 24.59264 L 780.8962 24.59264 L 780.8962 23.52895 L 778.0101 23.52895 L 778.0101 14.90859 L 776.7781 14.90859 Z " fill="#ffffff"/>
<path transform="matrix(1,0,0,-1,-99.6,434.40003)" d="M 783.3427 14.90798 L 784.56179 14.90798 L 784.56179 24.59203 L 783.3427 24.59203 Z " fill="#ffffff"/>
<path transform="matrix(1,0,0,-1,-99.6,434.40003)" d="M 788.8311 19.69246 C 788.8311 17.62353 789.9242 15.77104 791.8432 15.77104 C 793.7763 15.77104 794.8693 17.59481 794.8693 19.79401 C 794.8693 21.71933 793.8883 23.73081 791.8572 23.73081 C 789.8402 23.73081 788.8311 21.81882 788.8311 19.69246 M 796.1573 19.85042 C 796.1573 16.51675 794.1833 14.75042 791.7732 14.75042 C 789.2792 14.75042 787.5281 16.73319 787.5281 19.66476 C 787.5281 22.73892 789.3922 24.7504 791.9132 24.7504 C 794.4903 24.7504 796.1573 22.72456 796.1573 19.85042 " fill="#ffffff"/>
<path transform="matrix(1,0,0,-1,-99.6,434.40003)" d="M 799.1351 14.90828 L 799.1351 24.59233 L 800.4661 24.59233 L 803.4912 19.69235 C 804.1922 18.55788 804.7392 17.53727 805.1872 16.5464 L 805.2142 16.56076 C 805.1032 17.8532 805.0742 19.0328 805.0742 20.54065 L 805.0742 24.59233 L 806.2232 24.59233 L 806.2232 14.90828 L 804.9902 14.90828 L 801.9921 19.82262 C 801.3341 20.89966 800.7041 22.00643 800.2281 23.05474 L 800.1861 23.04141 C 800.2561 21.81872 800.2831 20.65655 800.2831 19.04614 L 800.2831 14.90828 Z " fill="#ffffff"/>
<path transform="matrix(1,0,0,-1,-99.6,434.40003)" d="M 814.3697 18.93115 L 813.4447 21.71912 C 813.2347 22.35098 813.0947 22.92642 812.9547 23.48545 L 812.9267 23.48545 C 812.7867 22.91104 812.6327 22.32226 812.4497 21.73246 L 811.5257 18.93115 Z M 811.2737 17.95464 L 810.2936 14.90818 L 809.0326 14.90818 L 812.2397 24.59326 L 813.7107 24.59326 L 816.9328 14.90818 L 815.6298 14.90818 L 814.6217 17.95464 Z " fill="#ffffff"/>
<path transform="matrix(1,0,0,-1,-99.6,434.40003)" d="M 819.7156 24.59274 L 820.9346 24.59274 L 820.9346 15.95701 L 824.9687 15.95701 L 824.9687 14.90869 L 819.7156 14.90869 Z " fill="#ffffff"/>
<path transform="matrix(1,0,0,-1,-99.6,434.40003)" d="M 832.0908 24.59274 L 833.3099 24.59274 L 833.3099 15.95701 L 837.344 15.95701 L 837.344 14.90869 L 832.0908 14.90869 Z " fill="#ffffff"/>
<path transform="matrix(1,0,0,-1,-99.6,434.40003)" d="M 844.722 18.93115 L 843.797 21.71912 C 843.587 22.35098 843.447 22.92642 843.307 23.48545 L 843.279 23.48545 C 843.139 22.91104 842.985 22.32226 842.802 21.73246 L 841.878 18.93115 Z M 841.626 17.95464 L 840.6459 14.90818 L 839.3849 14.90818 L 842.592 24.59326 L 844.063 24.59326 L 847.2851 14.90818 L 845.9821 14.90818 L 844.974 17.95464 Z " fill="#ffffff"/>
<path transform="matrix(1,0,0,-1,-99.6,434.40003)" d="M 851.2857 15.85689 C 851.5237 15.81381 851.8737 15.79843 852.3077 15.79843 C 853.5687 15.79843 854.7318 16.27334 854.7318 17.68067 C 854.7318 19.00285 853.6247 19.54957 852.2947 19.54957 L 851.2857 19.54957 Z M 851.2857 20.49736 L 852.3917 20.49736 C 853.6817 20.49736 854.4367 21.18666 854.4367 22.12111 C 854.4367 23.25661 853.5977 23.70076 852.3647 23.70076 C 851.8047 23.70076 851.4817 23.65768 851.2857 23.61459 Z M 850.0666 24.46391 C 850.5987 24.57777 851.4397 24.66393 852.2947 24.66393 C 853.5137 24.66393 854.2977 24.44852 854.8858 23.96027 C 855.3758 23.5869 855.6708 23.01248 855.6708 22.25036 C 855.6708 21.3159 855.0678 20.49736 854.0727 20.12399 L 854.0727 20.09527 C 854.9698 19.8655 856.0198 19.10337 856.0198 17.66733 C 856.0198 16.8334 855.6978 16.20154 855.2228 15.72765 C 854.5628 15.10913 853.4987 14.82192 851.9587 14.82192 C 851.1177 14.82192 850.4737 14.87936 850.0666 14.93783 Z " fill="#ffffff"/>
<path transform="matrix(1,0,0,-1,-99.6,434.40003)" d="M 859.7976 19.69246 C 859.7976 17.62353 860.8906 15.77104 862.8096 15.77104 C 864.7427 15.77104 865.8357 17.59481 865.8357 19.79401 C 865.8357 21.71933 864.8547 23.73081 862.8236 23.73081 C 860.8066 23.73081 859.7976 21.81882 859.7976 19.69246 M 867.1237 19.85042 C 867.1237 16.51675 865.1497 14.75042 862.7396 14.75042 C 860.2456 14.75042 858.4945 16.73319 858.4945 19.66476 C 858.4945 22.73892 860.3586 24.7504 862.8796 24.7504 C 865.4567 24.7504 867.1237 22.72456 867.1237 19.85042 " fill="#ffffff"/>
<path transform="matrix(1,0,0,-1,-99.6,434.40003)" d="M 871.3193 20.05198 L 872.5664 20.05198 C 873.8694 20.05198 874.6954 20.78539 874.6954 21.89114 C 874.6954 23.14152 873.8124 23.68722 872.5244 23.70158 C 871.9353 23.70158 871.5153 23.64414 871.3193 23.58669 Z M 870.1003 24.46371 C 870.7163 24.59295 871.5993 24.66373 872.4404 24.66373 C 873.7424 24.66373 874.5834 24.42062 875.1724 23.8739 C 875.6474 23.44309 875.9144 22.78149 875.9144 22.03474 C 875.9144 20.75667 875.1304 19.90838 874.1344 19.5627 L 874.1344 19.51962 C 874.8634 19.26113 875.2984 18.57286 875.5214 17.5666 C 875.8304 16.2157 876.0534 15.28227 876.2504 14.90787 L 874.9894 14.90787 C 874.8354 15.18175 874.6254 16.01363 874.3594 17.22093 C 874.0794 18.55747 873.5744 19.06009 872.4674 19.10317 L 871.3193 19.10317 L 871.3193 14.90787 L 870.1003 14.90787 Z " fill="#ffffff"/>
<path transform="matrix(1,0,0,-1,-99.6,434.40003)" d="M 883.7258 18.93115 L 882.8008 21.71912 C 882.5908 22.35098 882.4508 22.92642 882.3108 23.48545 L 882.2828 23.48545 C 882.1428 22.91104 881.9888 22.32226 881.8058 21.73246 L 880.8818 18.93115 Z M 880.6297 17.95464 L 879.6497 14.90818 L 878.3887 14.90818 L 881.5958 24.59326 L 883.0668 24.59326 L 886.2889 14.90818 L 884.9868 14.90818 L 883.9778 17.95464 Z " fill="#ffffff"/>
<path transform="matrix(1,0,0,-1,-99.6,434.40003)" d="M 889.7866 23.52895 L 886.9155 23.52895 L 886.9155 24.59264 L 893.9047 24.59264 L 893.9047 23.52895 L 891.0186 23.52895 L 891.0186 14.90859 L 889.7866 14.90859 Z " fill="#ffffff"/>
<path transform="matrix(1,0,0,-1,-99.6,434.40003)" d="M 896.7154 19.69246 C 896.7154 17.62353 897.8084 15.77104 899.7275 15.77104 C 901.6605 15.77104 902.7526 17.59481 902.7526 19.79401 C 902.7526 21.71933 901.7725 23.73081 899.7415 23.73081 C 897.7244 23.73081 896.7154 21.81882 896.7154 19.69246 M 904.0416 19.85042 C 904.0416 16.51675 902.0675 14.75042 899.6575 14.75042 C 897.1634 14.75042 895.4124 16.73319 895.4124 19.66476 C 895.4124 22.73892 897.2764 24.7504 899.7975 24.7504 C 902.3745 24.7504 904.0416 22.72456 904.0416 19.85042 " fill="#ffffff"/>
<path transform="matrix(1,0,0,-1,-99.6,434.40003)" d="M 908.2381 20.05198 L 909.4851 20.05198 C 910.7881 20.05198 911.6142 20.78539 911.6142 21.89114 C 911.6142 23.14152 910.7311 23.68722 909.4431 23.70158 C 908.8541 23.70158 908.4341 23.64414 908.2381 23.58669 Z M 907.0191 24.46371 C 907.6351 24.59295 908.5181 24.66373 909.3591 24.66373 C 910.6611 24.66373 911.5022 24.42062 912.0912 23.8739 C 912.5662 23.44309 912.8332 22.78149 912.8332 22.03474 C 912.8332 20.75667 912.0492 19.90838 911.0531 19.5627 L 911.0531 19.51962 C 911.7822 19.26113 912.2172 18.57286 912.4402 17.5666 C 912.7492 16.2157 912.9722 15.28227 913.1692 14.90787 L 911.9082 14.90787 C 911.7542 15.18175 911.5442 16.01363 911.2781 17.22093 C 910.9981 18.55747 910.4931 19.06009 909.3861 19.10317 L 908.2381 19.10317 L 908.2381 14.90787 L 907.0191 14.90787 Z " fill="#ffffff"/>
<path transform="matrix(1,0,0,-1,-99.6,434.40003)" d="M 917.8995 14.90828 L 917.8995 19.01742 L 914.9154 24.59233 L 916.3015 24.59233 L 917.6325 21.92027 C 917.9975 21.18686 918.2775 20.59809 918.5715 19.92315 L 918.5995 19.92315 C 918.8655 20.55501 919.1875 21.18686 919.5515 21.92027 L 920.9116 24.59233 L 922.2976 24.59233 L 919.1315 19.0328 L 919.1315 14.90828 Z " fill="#ffffff"/>
</g>
<path transform="matrix(1,0,0,-1,-99.6,434.40003)" d="M 58.61945 462.5915 L -.000001579039 462.5915 L -.000001579039 498.875 L 58.61945 498.875 Z " fill="#06509d"/>
<path transform="matrix(1,0,0,-1,-99.6,434.40003)" d="M 58.61945 455.7891 L -.000001579039 455.7891 L -.000001579039 462.5915 L 58.61945 462.5915 Z " fill="#8ec423"/>
<text fill="#bcbcbe" xml:space="preserve" transform="matrix(.24 0 -0 .24 -73.04028 959.76)" font-size="41.66666" font-family="Arial" font-weight="bold"><tspan y="-2250" x="0">1</tspan></text>
<text fill="#ff0000" xml:space="preserve" transform="matrix(.24 0 -0 .24 391.604 787.68008)" font-size="58.33333" font-family="ArialMT"><tspan y="-2250" x="0 16.146668 48.451665 80.75666 113.06166 145.36666 177.67165 209.97664 242.28163 258.42829">Inadequate</tspan></text>
<text fill="#ff0000" xml:space="preserve" transform="matrix(.24 0 -0 .24 376.039 803.76)" font-size="58.33333" font-family="ArialMT"><tspan y="-2250" x="0 19.273333 48.439996 80.73333 93.75333 106.77332 122.91999 139.06665 171.35999 184.37999 197.4 213.54666 261.98667 294.27998 326.5733 358.86665 371.88667 401.0533">(call full models)</tspan></text>
<text fill="#8ec423" xml:space="preserve" transform="matrix(0 -.24 .24 0 638.46157 146.88004)" font-size="58.33333" font-family="ArialMT"><tspan y="-2250" x="0 39.06 71.35334 103.646678 135.94 168.23334 200.52667 216.66167">Adequate</tspan></text>
<text fill="#8ec423" xml:space="preserve" transform="matrix(0 -.24 .24 0 654.46157 190.32003)" font-size="58.33333" font-family="ArialMT"><tspan y="-2250" x="0 19.273333 67.71333 100.00667 129.17334 161.46668 177.61334 209.90668 242.20001 258.34669 274.49336 306.78669 322.93336 355.22669 387.52003 416.68669 432.83335 448.98 481.27333 513.56668 529.7133 558.88 591.17337">(move on to next batch)</tspan></text>
<path transform="matrix(1,0,0,-1,-99.6,434.40003)" d="M 509.9791 217.5014 L 536.5501 217.5155 L 536.5489 219.7655 L 509.9779 219.7514 Z M 535.4263 215.2649 L 542.1745 218.6435 L 535.4228 222.0149 Z " fill="#ff0000"/>
<path transform="matrix(1,0,0,-1,-99.6,434.40003)" d="M 591.1064 200.0394 L 591.1064 132.6056 L 375.8269 132.6056 L 375.8269 146.1056 L 378.0769 146.1056 L 378.0769 133.7306 L 376.9519 134.8556 L 589.9814 134.8556 L 588.8564 133.7306 L 588.8564 200.0394 Z M 373.5769 144.9806 L 376.9519 151.7306 L 380.3269 144.9806 Z "/>
<path transform="matrix(1,0,0,-1,-99.6,434.40003)" d="M 243.925 218.6264 L 376.9518 285.5221 L 509.9785 218.6264 L 376.9518 151.7306 Z " fill="#8ec423" fill-rule="evenodd"/>
<path transform="matrix(.00007874016,0,0,.00007874016,144.32501,148.87793)" stroke-width="28575" stroke-linecap="butt" stroke-miterlimit="8" stroke-linejoin="miter" fill="none" stroke="#000000" d="M 0 849576 L 1689440 0 L 3378879 849576 L 1689440 1699152 Z "/>
<text fill="#ffffff" xml:space="preserve" transform="matrix(.24 0 -0 .24 218.72669 750.96)" font-size="58.33333" font-family="CourierNewPS" font-weight="bold"><tspan y="-2250" x="0 34.894998 69.78999 104.68499 139.57999 174.47498 209.36997 244.26496 279.15995 314.05494 348.94993 383.8449 418.7399 453.6349">ActiveLearning</tspan></text>
<text fill="#ffffff" xml:space="preserve" transform="matrix(.24 0 -0 .24 235.47669 768)" font-size="58.33333" font-family="CourierNewPS" font-weight="bold"><tspan y="-2250" x="0 34.894998 69.78999 104.68499 139.57999 174.47498 209.36997 244.26496 279.15995 314.05494">GPDecision</tspan></text>
<path transform="matrix(1,0,0,-1,-99.6,434.40003)" d="M 264.8131 419.4302 C 264.8131 422.8552 267.5896 425.6317 271.0145 425.6317 L 482.8887 425.6317 C 486.3136 425.6317 489.0901 422.8552 489.0901 419.4302 L 489.0901 394.6252 C 489.0901 391.2002 486.3136 388.4237 482.8887 388.4237 L 271.0145 388.4237 C 267.5896 388.4237 264.8131 391.2002 264.8131 394.6252 Z " fill="#07519e" fill-rule="evenodd"/>
<path transform="matrix(.00007874016,0,0,.00007874016,165.2131,8.768311)" stroke-width="28575" stroke-linecap="butt" stroke-miterlimit="8" stroke-linejoin="miter" fill="none" stroke="#000000" d="M 0 78759.08 C 0 35261.64 35261.44 0 78758.64 0 L 2769560 0 C 2813057 0 2848319 35261.64 2848319 78759.08 L 2848319 393782.9 C 2848319 437280.4 2813057 472542 2769560 472542 L 78758.64 472542 C 35261.44 472542 0 437280.4 0 393782.9 Z "/>
<text fill="#ffffff" xml:space="preserve" transform="matrix(.24 0 -0 .24 176.8516 570.96)" font-size="58.33333" font-family="CourierNewPS" font-weight="bold"><tspan y="-2250" x="0 34.894998 69.78999 104.68499 139.57999 174.47498 209.36997 244.26496 279.15995 314.05494 348.94993 383.8449 418.7399 453.6349 488.52989 523.42489 558.3199 593.2149 628.1099 663.00497 697.89999 732.795 767.69 802.585">ActiveLearningMonteCarlo</tspan></text>
<path transform="matrix(1,0,0,-1,-99.6,434.40003)" d="M 542.1746 231.046 C 542.1746 234.471 544.9511 237.2475 548.3761 237.2475 L 631.5866 237.2475 C 635.0116 237.2475 637.7881 234.471 637.7881 231.046 L 637.7881 206.241 C 637.7881 202.816 635.0116 200.0394 631.5866 200.0394 L 548.3761 200.0394 C 544.9511 200.0394 542.1746 202.816 542.1746 206.241 Z " fill="#07519e" fill-rule="evenodd"/>
<path transform="matrix(.00007874016,0,0,.00007874016,442.57463,197.15253)" stroke-width="28575" stroke-linecap="butt" stroke-miterlimit="8" stroke-linejoin="miter" fill="none" stroke="#000000" d="M 0 78759.21 C 0 35261.7 35261.6 0 78759 0 L 1135533 0 C 1179030 0 1214292 35261.7 1214292 78759.21 L 1214292 393782.8 C 1214292 437280.3 1179030 472542 1135533 472542 L 78759 472542 C 35261.6 472542 0 437280.3 0 393782.8 Z "/>
<text fill="#ffffff" xml:space="preserve" transform="matrix(.24 0 -0 .24 451.88133 760.08)" font-size="66.66666" font-family="CourierNewPS" font-weight="bold"><tspan y="-2250" x="0 40.106664 80.213329 120.31999 160.42665 200.53331 240.63997 280.74665">MultiApp</tspan></text>
<path transform="matrix(1,0,0,-1,-99.6,434.40003)" d="M 243.925 219.7513 L 225.925 219.7513 L 227.05 218.6263 L 227.05 407.0276 L 225.925 405.9026 L 259.1881 405.9026 L 259.1881 408.1526 L 224.8 408.1526 L 224.8 217.5013 L 243.925 217.5013 Z M 258.0631 403.6526 L 264.8131 407.0276 L 258.0631 410.4026 Z " fill="#8ec423"/>
<text xml:space="preserve" transform="matrix(.24 0 -0 .24 286.5943 609.84)" font-size="58.33333" font-family="ArialMT"><tspan y="-2250" x="0 16.146668 48.440004 80.73334 113.02667 129.17334 158.34 174.48667 206.78 239.07334 255.22 284.38667">Inputs batch</tspan></text>
<path transform="matrix(.00007874016,0,0,.00007874016,543.00027,148.86243)" stroke-width="28575" stroke-linecap="butt" stroke-miterlimit="8" stroke-linejoin="miter" fill="none" stroke="#000000" d="M 307779 1699152 C 222787.7 1699152 153888.6 1687669 153888.6 1673505 L 153890.4 875223.1 C 153890.4 861058.6 84991.34 849576 0 849576 C 84991.34 849576 153890.4 838093.4 153890.4 823928.9 L 153890.4 25647.09 C 153890.4 11482.59 222789.5 0 307780.8 0 "/>
<text xml:space="preserve" transform="matrix(.24 0 -0 .24 576.2819 703.92007)" font-size="58.33333" font-family="ArialMT"><tspan y="-2250" x="0 39.06 71.35334 103.646678 142.70668 175.00002">SubApp</tspan></text>
<text xml:space="preserve" transform="matrix(.24 0 -0 .24 629.9069 703.92007)" font-size="58.33333" font-family="ArialMT"><tspan y="-2250" x="0">1</tspan></text>
<text xml:space="preserve" transform="matrix(.24 0 -0 .24 576.2819 736.08)" font-size="58.33333" font-family="ArialMT"><tspan y="-2250" x="0 39.06 71.35334 103.646678 142.70668 175.00002">SubApp</tspan></text>
<text xml:space="preserve" transform="matrix(.24 0 -0 .24 629.9069 736.08)" font-size="58.33333" font-family="ArialMT"><tspan y="-2250" x="0">2</tspan></text>
<text xml:space="preserve" transform="matrix(.24 0 -0 .24 575.0944 818.4)" font-size="58.33333" font-family="ArialMT"><tspan y="-2250" x="0 39.06 71.35334 103.646678 142.70668 175.00002">SubApp</tspan></text>
<text xml:space="preserve" transform="matrix(.24 0 -0 .24 628.7194 818.4)" font-size="58.33333" font-family="ArialMT"><tspan y="-2250" x="0">N</tspan></text>
<text xml:space="preserve" transform="matrix(.24 0 -0 .24 604.2194 750.48)" font-size="83.33333" font-family="Arial" font-weight="bold"><tspan y="-2250" x="0">.</tspan></text>
<text xml:space="preserve" transform="matrix(.24 0 -0 .24 604.2194 774.48)" font-size="83.33333" font-family="Arial" font-weight="bold"><tspan y="-2250" x="0">.</tspan></text>
<text xml:space="preserve" transform="matrix(.24 0 -0 .24 604.2194 798.48)" font-size="83.33333" font-family="Arial" font-weight="bold"><tspan y="-2250" x="0">.</tspan></text>
<path transform="matrix(1,0,0,-1,-99.6,434.40003)" d="M 243.925 345.64 C 243.925 349.065 246.7015 351.8415 250.1265 351.8415 L 503.7766 351.8415 C 507.2016 351.8415 509.9781 349.065 509.9781 345.64 L 509.9781 320.835 C 509.9781 317.41 507.2016 314.6335 503.7766 314.6335 L 250.1265 314.6335 C 246.7015 314.6335 243.925 317.41 243.925 320.835 Z " fill="#07519e" fill-rule="evenodd"/>
<path transform="matrix(.00007874016,0,0,.00007874016,144.32501,82.55853)" stroke-width="28575" stroke-linecap="butt" stroke-miterlimit="8" stroke-linejoin="miter" fill="none" stroke="#000000" d="M 0 78759.46 C 0 35261.81 35261.66 0 78759.12 0 L 3300116 0 C 3343613 0 3378875 35261.81 3378875 78759.46 L 3378875 393782.5 C 3378875 437280.2 3343613 472542 3300116 472542 L 78759.12 472542 C 35261.66 472542 0 437280.2 0 393782.5 Z "/>
<text fill="#ffffff" xml:space="preserve" transform="matrix(.24 0 -0 .24 155.914 644.88)" font-size="58.33333" font-family="CourierNewPS" font-weight="bold"><tspan y="-2250" x="0 34.894998 69.78999 104.68499 139.57999 174.47498 209.36997 244.26496 279.15995 314.05494 348.94993 383.8449 418.7399 453.6349 488.52989 523.42489 558.3199 593.2149 628.1099 663.00497 697.89999 732.795 767.69 802.585 837.48007 872.37509 907.2701 942.1651 977.0601">ActiveLearningGaussianProcess</tspan></text>
<path transform="matrix(1,0,0,-1,-99.6,434.40003)" d="M 375.8266 388.4237 L 375.8266 357.4665 L 378.0766 357.4665 L 378.0766 388.4237 Z M 373.5766 358.5915 L 376.9516 351.8415 L 380.3266 358.5915 Z "/>
<path transform="matrix(1,0,0,-1,-99.6,434.40003)" d="M 370.2646 312.827 L 370.2647 288.2372 L 368.0147 288.2372 L 368.0146 312.827 Z M 372.5147 289.3622 L 369.1397 282.6122 L 365.7647 289.3622 Z " fill="#2ca8e1"/>
<path transform="matrix(1,0,0,-1,-99.6,434.40003)" d="M 385.6471 284.4187 L 385.6472 309.0085 L 383.3972 309.0085 L 383.3971 284.4187 Z M 387.8972 307.8835 L 384.5222 314.6335 L 381.1472 307.8835 Z " fill="#f78e20"/>
<text fill="#2ca8e1" xml:space="preserve" transform="matrix(.24 0 -0 .24 179.8858 679.68008)" font-size="58.33333" font-family="ArialMT"><tspan y="-2250" x="0 45.31333">GP</tspan></text>
<text fill="#2ca8e1" xml:space="preserve" transform="matrix(.24 0 -0 .24 203.7558 679.68008)" font-size="58.33333" font-family="ArialMT"><tspan y="-2250" x="0 32.293336 51.566667 83.86 116.153339 129.17334 158.34 174.48667 187.50667">predictio</tspan></text>
<text fill="#2ca8e1" xml:space="preserve" transform="matrix(.24 0 -0 .24 256.5058 679.68008)" font-size="58.33333" font-family="ArialMT"><tspan y="-2250" x="0">n</tspan></text>
<text fill="#f78e20" xml:space="preserve" transform="matrix(.24 0 -0 .24 292.081 679.68008)" font-size="58.33333" font-family="ArialMT"><tspan y="-2250" x="0 45.31333">GP</tspan></text>
<text fill="#f78e20" xml:space="preserve" transform="matrix(.24 0 -0 .24 315.951 679.68008)" font-size="58.33333" font-family="ArialMT"><tspan y="-2250" x="0 19.27333">re</tspan></text>
<text fill="#f78e20" xml:space="preserve" transform="matrix(.24 0 -0 .24 328.326 679.68008)" font-size="58.33333" font-family="ArialMT"><tspan y="-2250" x="0">-</tspan></text>
<text fill="#f78e20" xml:space="preserve" transform="matrix(.24 0 -0 .24 332.951 679.68008)" font-size="58.33333" font-family="ArialMT"><tspan y="-2250" x="0 16.146668 35.443334 67.74833 80.744998 113.04999 126.04665 158.35166">training</tspan></text>
<text xml:space="preserve" transform="matrix(.24 0 -0 .24 398.8809 564.24)" font-size="58.33333" font-family="ArialMT"><tspan y="-2250" x="0 19.273333 58.333333 90.62666 122.92 152.08667 168.23334 197.4 229.69333 261.98664 294.27998 310.42665 352.6133 384.90663 397.92665 427.0933 459.3866 475.53327 520.8466 558.845 574.99166 607.285 626.5583 658.8516 691.14498 704.165 733.33169 749.47836 762.49838 794.7917 827.085 856.2517">(Book keep which GP predictions </tspan></text>
<text xml:space="preserve" transform="matrix(.24 0 -0 .24 435.3759 580.32)" font-size="58.33333" font-family="ArialMT"><tspan y="-2250" x="0 13.0199999 45.313337 61.460004 77.60667 109.9 142.19335 158.34 190.63333 222.92667 239.07334 268.24 300.53334 316.68 348.97334 368.24665 400.53999 416.68666 448.97999 481.27333 513.56668 532.83999">in the batch are poor)</tspan></text>
<text xml:space="preserve" transform="matrix(.24 0 -0 .24 423.6909 644.88)" font-size="58.33333" font-family="ArialMT"><tspan y="-2250" x="0 19.27333 64.56333 96.845 109.87666 122.908329 155.18999 187.47165 203.59499 222.86832">(Online re</tspan></text>
<text xml:space="preserve" transform="matrix(.24 0 -0 .24 484.94078 644.88)" font-size="58.33333" font-family="ArialMT"><tspan y="-2250" x="0">-</tspan></text>
<text xml:space="preserve" transform="matrix(.24 0 -0 .24 489.56578 644.88)" font-size="58.33333" font-family="ArialMT"><tspan y="-2250" x="0 16.146668 35.443334 67.74833 80.744998 113.04999 126.04665 158.35166 190.65665 206.80332 239.1083 255.25498 271.40165 316.71498 355.78663">training of GP)</tspan></text>
<text xml:space="preserve" transform="matrix(.24 0 -0 .24 5.499901 801.60006)" font-size="58.33333" font-family="ArialMT"><tspan y="-2250" x="0 19.273333 58.333333 87.5 116.666667 148.96 178.12668 207.29334 223.44 255.73334 288.02668 320.32 333.34004 346.36006 362.5067 391.67338 407.82005 440.11335 456.26 472.40669 517.72006 555.7184 571.86508 604.1584 623.4317 655.72506 688.0184 701.0384 730.2051 746.35177 759.37179 791.6651 823.95846 853.1251 869.2718">(Assess quality of GP predictions; </tspan></text>
<text xml:space="preserve" transform="matrix(.24 0 -0 .24 31.434899 817.44009)" font-size="58.33333" font-family="ArialMT"><tspan y="-2250" x="0 13.0199999 45.313337 77.606678 109.90001 139.06668 171.36002 187.50669 235.94669 268.24 300.53334 332.82667 345.84669 361.99336 394.28669 423.45335 455.74665 468.76667 497.93333 514.07998 556.2666 588.55996 620.8533 653.1466">launch model evals when </tspan></text>
<text xml:space="preserve" transform="matrix(.24 0 -0 .24 75.6849 834.48)" font-size="58.33333" font-family="ArialMT"><tspan y="-2250" x="0 32.293336 64.58667 93.753337 126.04667 155.21334 184.38 216.67334 235.94667 265.11335">necessary)</tspan></text>
</g>
</g>
</svg>
