<?xml version="1.0" encoding="UTF-8" standalone="no"?>
<!DOCTYPE svg PUBLIC "-//W3C//DTD SVG 1.1//EN" "http://www.w3.org/Graphics/SVG/1.1/DTD/svg11.dtd">
<svg xmlns="http://www.w3.org/2000/svg" xmlns:xlink="http://www.w3.org/1999/xlink" version="1.1" width="471.6pt" height="382.8pt" viewBox="0 0 471.6 382.8">
<g enable-background="new">
<clipPath id="cp0">
<path transform="matrix(1,0,0,-1,-120,500.4)" d="M 0 0 L 960 0 L 960 540 L 0 540 Z "/>
</clipPath>
<g clip-path="url(#cp0)">
<clipPath id="cp1">
<path transform="matrix(1,0,0,-1,-120,500.4)" d="M 0 .00001206994 L 959.76 .00001206994 L 959.76 540 L 0 540 Z "/>
</clipPath>
<g clip-path="url(#cp1)">
<path transform="matrix(1,0,0,-1,-120,500.4)" d="M 0 540 L 959.76 540 L 959.76 .00001206994 L 0 .00001206994 Z " fill="#ffffff"/>
</g>
<path transform="matrix(1,0,0,-1,-120,500.4)" d="M 0 540 L 960 540 L 960 .0000140816 L 0 .0000140816 Z " fill="#ffffff"/>
<path transform="matrix(.00007874016,0,0,.00007874016,8.980103,31.30838)" stroke-width="19050" stroke-linecap="butt" stroke-miterlimit="8" stroke-linejoin="miter" fill="none" stroke="#000000" d="M 0 0 L 1 4304765 "/>
<path transform="matrix(.00007874016,0,0,-.00007874016,8.579803,369.6433)" stroke-width="19050" stroke-linecap="butt" stroke-miterlimit="8" stroke-linejoin="miter" fill="none" stroke="#000000" d="M 0 0 L 4343331 12435 "/>
<path transform="matrix(.00007874016,0,0,.00007874016,-55.367868,110.6376)" stroke-width="28575" stroke-linecap="butt" stroke-miterlimit="8" stroke-linejoin="miter" fill="none" stroke="#ff556f" d="M 1986411 136 C 2610801 -53915 3101724 86692 3435452 655195 C 3726961 1087341 3935260 1598392 3909951 2184638 "/>
<text xml:space="preserve" transform="matrix(.24 0 -0 .24 365.8502 708.48)" font-size="66.66666" font-family="Calibri"><tspan y="-2250" x="0 38.54 53.68 110.42 142.16 165.63333 193.57334 228.71334 258.91999 274.05998 302.19996 337.07328 368.81327 383.8866">A Markov chain</tspan></text>
<path transform="matrix(1,0,0,-1,-120,500.4)" d="M 336.2228 395.9304 C 336.2228 397.894 337.6157 399.4859 339.3339 399.4859 C 341.0521 399.4859 342.445 397.894 342.445 395.9304 C 342.445 393.9667 341.0521 392.3748 339.3339 392.3748 C 337.6157 392.3748 336.2228 393.9667 336.2228 395.9304 Z " fill-rule="evenodd"/>
<path transform="matrix(.00007874016,0,0,.00007874016,216.22281,100.91409)" stroke-width="12700" stroke-linecap="butt" stroke-miterlimit="8" stroke-linejoin="miter" fill="none" stroke="#000000" d="M 0 45155.5 C 0 20216.81 17689.68 0 39511 0 C 61332.32 0 79022 20216.81 79022 45155.5 C 79022 70094.19 61332.32 90311 39511 90311 C 17689.68 90311 0 70094.19 0 45155.5 Z "/>
<path transform="matrix(1,0,0,-1,-120,500.4)" d="M 281.2319 398.7211 C 281.2319 400.6847 282.6248 402.2766 284.343 402.2766 C 286.0612 402.2766 287.4541 400.6847 287.4541 398.7211 C 287.4541 396.7574 286.0612 395.1655 284.343 395.1655 C 282.6248 395.1655 281.2319 396.7574 281.2319 398.7211 Z " fill-rule="evenodd"/>
<path transform="matrix(.00007874016,0,0,.00007874016,161.2319,98.12338)" stroke-width="12700" stroke-linecap="butt" stroke-miterlimit="8" stroke-linejoin="miter" fill="none" stroke="#000000" d="M 0 45155.5 C 0 20216.81 17689.68 0 39511 0 C 61332.32 0 79022 20216.81 79022 45155.5 C 79022 70094.19 61332.32 90311 39511 90311 C 17689.68 90311 0 70094.19 0 45155.5 Z "/>
<path transform="matrix(1,0,0,-1,-120,500.4)" d="M 304.3454 408.7684 C 304.3454 410.7321 305.7383 412.3239 307.4565 412.3239 C 309.1747 412.3239 310.5676 410.7321 310.5676 408.7684 C 310.5676 406.8047 309.1747 405.2128 307.4565 405.2128 C 305.7383 405.2128 304.3454 406.8047 304.3454 408.7684 Z " fill-rule="evenodd"/>
<path transform="matrix(.00007874016,0,0,.00007874016,184.3454,88.07608)" stroke-width="12700" stroke-linecap="butt" stroke-miterlimit="8" stroke-linejoin="miter" fill="none" stroke="#000000" d="M 0 45155.5 C 0 20216.81 17689.68 0 39511 0 C 61332.32 0 79022 20216.81 79022 45155.5 C 79022 70094.19 61332.32 90311 39511 90311 C 17689.68 90311 0 70094.19 0 45155.5 Z "/>
<path transform="matrix(1,0,0,-1,-120,500.4)" d="M 325.3445 358.7993 C 325.3445 360.7629 326.7374 362.3548 328.4556 362.3548 C 330.1738 362.3548 331.5667 360.7629 331.5667 358.7993 C 331.5667 356.8356 330.1738 355.2437 328.4556 355.2437 C 326.7374 355.2437 325.3445 356.8356 325.3445 358.7993 Z " fill-rule="evenodd"/>
<path transform="matrix(.00007874016,0,0,.00007874016,205.34452,138.0452)" stroke-width="12700" stroke-linecap="butt" stroke-miterlimit="8" stroke-linejoin="miter" fill="none" stroke="#000000" d="M 0 45155.5 C 0 20216.81 17689.68 0 39511 0 C 61332.32 0 79022 20216.81 79022 45155.5 C 79022 70094.19 61332.32 90311 39511 90311 C 17689.68 90311 0 70094.19 0 45155.5 Z "/>
<path transform="matrix(1,0,0,-1,-120,500.4)" d="M 338.2753 371.7277 C 338.2753 373.6914 339.6682 375.2832 341.3864 375.2832 C 343.1046 375.2832 344.4975 373.6914 344.4975 371.7277 C 344.4975 369.764 343.1046 368.1721 341.3864 368.1721 C 339.6682 368.1721 338.2753 369.764 338.2753 371.7277 Z " fill-rule="evenodd"/>
<path transform="matrix(.00007874016,0,0,.00007874016,218.2753,125.11679)" stroke-width="12700" stroke-linecap="butt" stroke-miterlimit="8" stroke-linejoin="miter" fill="none" stroke="#000000" d="M 0 45155.5 C 0 20216.81 17689.68 0 39511 0 C 61332.32 0 79022 20216.81 79022 45155.5 C 79022 70094.19 61332.32 90311 39511 90311 C 17689.68 90311 0 70094.19 0 45155.5 Z "/>
<path transform="matrix(1,0,0,-1,-120,500.4)" d="M 362.8394 309.9069 C 362.8394 311.8706 364.2323 313.4624 365.9505 313.4624 C 367.6688 313.4624 369.0616 311.8706 369.0616 309.9069 C 369.0616 307.9432 367.6688 306.3513 365.9505 306.3513 C 364.2323 306.3513 362.8394 307.9432 362.8394 309.9069 Z " fill-rule="evenodd"/>
<path transform="matrix(.00007874016,0,0,.00007874016,242.83939,186.93759)" stroke-width="12700" stroke-linecap="butt" stroke-miterlimit="8" stroke-linejoin="miter" fill="none" stroke="#000000" d="M 0 45155.5 C 0 20216.81 17689.68 0 39511 0 C 61332.32 0 79022 20216.81 79022 45155.5 C 79022 70094.19 61332.32 90311 39511 90311 C 17689.68 90311 0 70094.19 0 45155.5 Z "/>
<path transform="matrix(1,0,0,-1,-120,500.4)" d="M 384.6548 306.2499 C 384.6548 308.2136 386.0477 309.8054 387.7659 309.8054 C 389.4841 309.8054 390.877 308.2136 390.877 306.2499 C 390.877 304.2862 389.4841 302.6943 387.7659 302.6943 C 386.0477 302.6943 384.6548 304.2862 384.6548 306.2499 Z " fill-rule="evenodd"/>
<path transform="matrix(.00007874016,0,0,.00007874016,264.6548,190.5946)" stroke-width="12700" stroke-linecap="butt" stroke-miterlimit="8" stroke-linejoin="miter" fill="none" stroke="#000000" d="M 0 45155.5 C 0 20216.81 17689.68 0 39511 0 C 61332.32 0 79022 20216.81 79022 45155.5 C 79022 70094.19 61332.32 90311 39511 90311 C 17689.68 90311 0 70094.19 0 45155.5 Z "/>
<path transform="matrix(1,0,0,-1,-120,500.4)" d="M 395.3491 335.601 C 395.3491 337.5647 396.742 339.1565 398.4602 339.1565 C 400.1784 339.1565 401.5713 337.5647 401.5713 335.601 C 401.5713 333.6373 400.1784 332.0454 398.4602 332.0454 C 396.742 332.0454 395.3491 333.6373 395.3491 335.601 Z " fill-rule="evenodd"/>
<path transform="matrix(.00007874016,0,0,.00007874016,275.3491,161.2435)" stroke-width="12700" stroke-linecap="butt" stroke-miterlimit="8" stroke-linejoin="miter" fill="none" stroke="#000000" d="M 0 45155.5 C 0 20216.81 17689.68 0 39511 0 C 61332.32 0 79022 20216.81 79022 45155.5 C 79022 70094.19 61332.32 90311 39511 90311 C 17689.68 90311 0 70094.19 0 45155.5 Z "/>
<path transform="matrix(1,0,0,-1,-120,500.4)" d="M 398.1129 287.2507 C 398.1129 289.2144 399.5058 290.8063 401.224 290.8063 C 402.9422 290.8063 404.3351 289.2144 404.3351 287.2507 C 404.3351 285.2871 402.9422 283.6952 401.224 283.6952 C 399.5058 283.6952 398.1129 285.2871 398.1129 287.2507 Z " fill-rule="evenodd"/>
<path transform="matrix(.00007874016,0,0,.00007874016,278.1129,209.59369)" stroke-width="12700" stroke-linecap="butt" stroke-miterlimit="8" stroke-linejoin="miter" fill="none" stroke="#000000" d="M 0 45155.5 C 0 20216.81 17689.68 0 39511 0 C 61332.32 0 79022 20216.81 79022 45155.5 C 79022 70094.19 61332.32 90311 39511 90311 C 17689.68 90311 0 70094.19 0 45155.5 Z "/>
<path transform="matrix(1,0,0,-1,-120,500.4)" d="M 347.3718 334.7704 C 347.3718 336.7341 348.7647 338.326 350.4829 338.326 C 352.2011 338.326 353.594 336.7341 353.594 334.7704 C 353.594 332.8068 352.2011 331.2149 350.4829 331.2149 C 348.7647 331.2149 347.3718 332.8068 347.3718 334.7704 Z " fill-rule="evenodd"/>
<path transform="matrix(.00007874016,0,0,.00007874016,227.3718,162.074)" stroke-width="12700" stroke-linecap="butt" stroke-miterlimit="8" stroke-linejoin="miter" fill="none" stroke="#000000" d="M 0 45155.5 C 0 20216.81 17689.68 0 39511 0 C 61332.32 0 79022 20216.81 79022 45155.5 C 79022 70094.19 61332.32 90311 39511 90311 C 17689.68 90311 0 70094.19 0 45155.5 Z "/>
<path transform="matrix(1,0,0,-1,-120,500.4)" d="M 355.4998 355.0293 C 355.4998 356.993 356.8927 358.5849 358.6109 358.5849 C 360.3292 358.5849 361.722 356.993 361.722 355.0293 C 361.722 353.0657 360.3292 351.4738 358.6109 351.4738 C 356.8927 351.4738 355.4998 353.0657 355.4998 355.0293 Z " fill-rule="evenodd"/>
<path transform="matrix(.00007874016,0,0,.00007874016,235.49979,141.8151)" stroke-width="12700" stroke-linecap="butt" stroke-miterlimit="8" stroke-linejoin="miter" fill="none" stroke="#000000" d="M 0 45155.5 C 0 20216.81 17689.68 0 39511 0 C 61332.32 0 79022 20216.81 79022 45155.5 C 79022 70094.19 61332.32 90311 39511 90311 C 17689.68 90311 0 70094.19 0 45155.5 Z "/>
<path transform="matrix(1,0,0,-1,-120,500.4)" d="M 376.5623 366.9012 C 376.5623 368.8648 377.9552 370.4567 379.6734 370.4567 C 381.3916 370.4567 382.7845 368.8648 382.7845 366.9012 C 382.7845 364.9375 381.3916 363.3456 379.6734 363.3456 C 377.9552 363.3456 376.5623 364.9375 376.5623 366.9012 Z " fill-rule="evenodd"/>
<path transform="matrix(.00007874016,0,0,.00007874016,256.5623,129.9433)" stroke-width="12700" stroke-linecap="butt" stroke-miterlimit="8" stroke-linejoin="miter" fill="none" stroke="#000000" d="M 0 45155.5 C 0 20216.81 17689.68 0 39511 0 C 61332.32 0 79022 20216.81 79022 45155.5 C 79022 70094.19 61332.32 90311 39511 90311 C 17689.68 90311 0 70094.19 0 45155.5 Z "/>
<path transform="matrix(1,0,0,-1,-120,500.4)" d="M 321.7889 433.9235 C 321.7889 435.8872 323.1818 437.4791 324.9 437.4791 C 326.6182 437.4791 328.0111 435.8872 328.0111 433.9235 C 328.0111 431.9598 326.6182 430.368 324.9 430.368 C 323.1818 430.368 321.7889 431.9598 321.7889 433.9235 Z " fill-rule="evenodd"/>
<path transform="matrix(.00007874016,0,0,.00007874016,201.78891,62.9209)" stroke-width="12700" stroke-linecap="butt" stroke-miterlimit="8" stroke-linejoin="miter" fill="none" stroke="#000000" d="M 0 45155.5 C 0 20216.81 17689.68 0 39511 0 C 61332.32 0 79022 20216.81 79022 45155.5 C 79022 70094.19 61332.32 90311 39511 90311 C 17689.68 90311 0 70094.19 0 45155.5 Z "/>
<path transform="matrix(1,0,0,-1,-120,500.4)" d="M 361.7779 417.6591 C 361.7779 419.6228 363.1708 421.2147 364.889 421.2147 C 366.6072 421.2147 368.0001 419.6228 368.0001 417.6591 C 368.0001 415.6954 366.6072 414.1035 364.889 414.1035 C 363.1708 414.1035 361.7779 415.6954 361.7779 417.6591 Z " fill-rule="evenodd"/>
<path transform="matrix(.00007874016,0,0,.00007874016,241.7779,79.1853)" stroke-width="12700" stroke-linecap="butt" stroke-miterlimit="8" stroke-linejoin="miter" fill="none" stroke="#000000" d="M 0 45155.5 C 0 20216.81 17689.68 0 39511 0 C 61332.32 0 79022 20216.81 79022 45155.5 C 79022 70094.19 61332.32 90311 39511 90311 C 17689.68 90311 0 70094.19 0 45155.5 Z "/>
<path transform="matrix(1,0,0,-1,-120,500.4)" d="M 399.5801 383.9512 C 399.5801 385.9149 400.973 387.5068 402.6912 387.5068 C 404.4094 387.5068 405.8023 385.9149 405.8023 383.9512 C 405.8023 381.9876 404.4094 380.3957 402.6912 380.3957 C 400.973 380.3957 399.5801 381.9876 399.5801 383.9512 Z " fill-rule="evenodd"/>
<path transform="matrix(.00007874016,0,0,.00007874016,279.5801,112.89319)" stroke-width="12700" stroke-linecap="butt" stroke-miterlimit="8" stroke-linejoin="miter" fill="none" stroke="#000000" d="M 0 45155.5 C 0 20216.81 17689.68 0 39511 0 C 61332.32 0 79022 20216.81 79022 45155.5 C 79022 70094.19 61332.32 90311 39511 90311 C 17689.68 90311 0 70094.19 0 45155.5 Z "/>
<path transform="matrix(1,0,0,-1,-120,500.4)" d="M 416.4949 352.5152 C 416.4949 354.4789 417.8878 356.0708 419.606 356.0708 C 421.3243 356.0708 422.7171 354.4789 422.7171 352.5152 C 422.7171 350.5516 421.3243 348.9597 419.606 348.9597 C 417.8878 348.9597 416.4949 350.5516 416.4949 352.5152 Z " fill-rule="evenodd"/>
<path transform="matrix(.00007874016,0,0,.00007874016,296.4949,144.3292)" stroke-width="12700" stroke-linecap="butt" stroke-miterlimit="8" stroke-linejoin="miter" fill="none" stroke="#000000" d="M 0 45155.5 C 0 20216.81 17689.68 0 39511 0 C 61332.32 0 79022 20216.81 79022 45155.5 C 79022 70094.19 61332.32 90311 39511 90311 C 17689.68 90311 0 70094.19 0 45155.5 Z "/>
<path transform="matrix(1,0,0,-1,-120,500.4)" d="M 443.537 295.6182 C 443.537 297.5819 444.9299 299.1738 446.6481 299.1738 C 448.3663 299.1738 449.7592 297.5819 449.7592 295.6182 C 449.7592 293.6546 448.3663 292.0627 446.6481 292.0627 C 444.9299 292.0627 443.537 293.6546 443.537 295.6182 Z " fill-rule="evenodd"/>
<path transform="matrix(.00007874016,0,0,.00007874016,323.537,201.2262)" stroke-width="12700" stroke-linecap="butt" stroke-miterlimit="8" stroke-linejoin="miter" fill="none" stroke="#000000" d="M 0 45155.5 C 0 20216.81 17689.68 0 39511 0 C 61332.32 0 79022 20216.81 79022 45155.5 C 79022 70094.19 61332.32 90311 39511 90311 C 17689.68 90311 0 70094.19 0 45155.5 Z "/>
<path transform="matrix(1,0,0,-1,-120,500.4)" d="M 287.5515 398.4908 L 300.7494 404.0755 L 300.5545 404.536 L 287.3567 398.9513 Z M 300.9001 401.1532 L 305.2567 406.2543 L 298.5619 406.6789 Z "/>
<path transform="matrix(1,0,0,-1,-120,500.4)" d="M 310.6582 409.0014 L 332.5642 400.4886 L 332.3831 400.0225 L 310.4771 408.5353 Z M 332.6282 403.4141 L 337.1341 398.4445 L 330.4549 397.8215 Z "/>
<path transform="matrix(1,0,0,-1,-120,500.4)" d="M 341.3048 398.3442 L 328.8763 426.7289 L 329.3343 426.9295 L 341.7628 398.5448 Z M 326.7583 424.7099 L 327.0998 431.4094 L 332.2545 427.1164 Z "/>
<path transform="matrix(1,0,0,-1,-120,500.4)" d="M 328.1032 434.1559 L 358.1334 422.2486 L 357.9491 421.7838 L 327.9189 433.6911 Z M 358.2174 425.1736 L 362.6892 420.1732 L 356.0059 419.596 Z "/>
<path transform="matrix(1,0,0,-1,-120,500.4)" d="M 367.2518 415.3346 L 396.8607 389.9122 L 396.535 389.5328 L 366.926 414.9553 Z M 397.8934 392.6501 L 400.4913 386.4654 L 393.9848 388.0978 Z "/>
<path transform="matrix(1,0,0,-1,-120,500.4)" d="M 402.5745 380.6168 L 386.1791 371.9691 L 386.4124 371.5268 L 402.8078 380.1745 Z M 385.7806 374.868 L 381.8732 369.4153 L 388.5798 369.5609 Z "/>
<path transform="matrix(1,0,0,-1,-120,500.4)" d="M 377.4192 364.143 L 349.3237 370.3972 L 349.4323 370.8852 L 377.5278 364.631 Z M 349.7023 367.4956 L 344.4975 371.7276 L 351.006 373.3522 Z "/>
<path transform="matrix(1,0,0,-1,-120,500.4)" d="M 339.0167 369.397 L 334.1542 364.8941 L 334.4939 364.5272 L 339.3564 369.0301 Z M 333.0194 367.5913 L 330.6554 361.3134 L 337.0961 363.189 Z "/>
<path transform="matrix(1,0,0,-1,-120,500.4)" d="M 331.6056 359.0462 L 350.5996 356.0542 L 350.5218 355.5603 L 331.5278 358.5523 Z M 350.0397 358.9264 L 355.4998 355.0293 L 349.1061 352.9994 Z "/>
<path transform="matrix(1,0,0,-1,-120,500.4)" d="M 358.3803 351.5702 L 354.3796 341.9945 L 354.8409 341.8017 L 358.8416 351.3774 Z M 352.2276 343.9773 L 352.6828 337.2846 L 357.7639 341.6643 Z "/>
<path transform="matrix(1,0,0,-1,-120,500.4)" d="M 353.599 334.5204 L 390.3551 335.2516 L 390.3451 335.7515 L 353.589 335.0204 Z M 389.41 332.4822 L 395.3491 335.601 L 389.2906 338.481 Z "/>
<path transform="matrix(1,0,0,-1,-120,500.4)" d="M 396.1123 333.2883 L 372.0308 315.5841 L 372.3269 315.1812 L 396.4085 332.8854 Z M 371.2076 318.3921 L 368.1504 312.421 L 374.7615 313.5579 Z "/>
<path transform="matrix(1,0,0,-1,-120,500.4)" d="M 369.1187 310.1503 L 379.8439 307.6349 L 379.7298 307.1481 L 369.0045 309.6635 Z M 379.4983 310.5406 L 384.6548 306.2499 L 378.1283 304.6991 Z "/>
<path transform="matrix(1,0,0,-1,-120,500.4)" d="M 390.1755 303.8718 L 396.5138 294.0962 L 396.0942 293.8242 L 389.756 303.5997 Z M 398.2772 296.4314 L 399.0242 289.7649 L 393.2428 293.1672 Z "/>
<path transform="matrix(1,0,0,-1,-120,500.4)" d="M 404.3873 287.0062 L 438.6993 294.33 L 438.5949 294.819 L 404.2829 287.4952 Z M 438.2954 291.4318 L 443.537 295.6182 L 437.0429 297.2996 Z "/>
<path transform="matrix(1,0,0,-1,-120,500.4)" d="M 446.4235 299.064 L 423.7769 345.3991 L 424.2261 345.6187 L 446.8727 299.2836 Z M 421.7453 343.2932 L 421.8059 350.0011 L 427.1359 345.9279 Z "/>
<path transform="matrix(.0000506132,.00006031846,-.00006031846,.0000506132,223.42292,10.735382)" stroke-width="12700" stroke-linecap="butt" stroke-dasharray="50800,38100" stroke-miterlimit="8" stroke-linejoin="miter" fill="none" stroke="#000000" d="M 0 909292.5 C 0 407104.1 652346.8 0 1457058 0 C 2261768 0 2914115 407104.1 2914115 909292.5 C 2914115 1411481 2261768 1818585 1457058 1818585 C 652346.8 1818585 0 1411481 0 909292.5 Z "/>
<path transform="matrix(.0000506132,.00006031846,-.00006031846,.0000506132,222.81259,44.488008)" stroke-width="12700" stroke-linecap="butt" stroke-dasharray="50800,38100" stroke-miterlimit="8" stroke-linejoin="miter" fill="none" stroke="#000000" d="M 0 631360 C 0 282669.5 497625.7 0 1111478 0 C 1725330 0 2222956 282669.5 2222956 631360 C 2222956 980050.5 1725330 1262720 1111478 1262720 C 497625.7 1262720 0 980050.5 0 631360 Z "/>
<path transform="matrix(.0000506132,.00006031846,-.00006031846,.0000506132,219.6005,74.570987)" stroke-width="12700" stroke-linecap="butt" stroke-dasharray="50800,38100" stroke-miterlimit="8" stroke-linejoin="miter" fill="none" stroke="#000000" d="M 0 358473.5 C 0 160494.1 379629.6 0 847926.5 0 C 1316223 0 1695853 160494.1 1695853 358473.5 C 1695853 556452.9 1316223 716947 847926.5 716947 C 379629.6 716947 0 556452.9 0 358473.5 Z "/>
<text xml:space="preserve" transform="matrix(.24 0 -0 .24 144.8631 556.8)" font-size="66.66666" font-family="Calibri" font-weight="bold"><tspan y="-2250" x="0 17.706665 71.87999 107.853328 143.82665 167.79998 190.03997 222.87996 258.85328 286.95994 320.2666">Importance </tspan></text>
<text xml:space="preserve" transform="matrix(.24 0 -0 .24 141.2981 575.76)" font-size="66.66666" font-family="Calibri" font-weight="bold"><tspan y="-2250" x="0 35.939996 69.27999 105.219989 131.75998 147.89998 170.83998 202.64665">density </tspan></text>
<text xml:space="preserve" transform="matrix(.24 0 -0 .24 193.5481 575.76)" font-size="66.66666" font-family="CambriaMath"><tspan y="-2250" x="0">&#x1d453;</tspan></text>
<text xml:space="preserve" transform="matrix(.24 0 -0 .24 202.7681 575.76)" font-size="66.66666" font-family="CambriaMath"><tspan y="-2250" x="0">(</tspan></text>
<text xml:space="preserve" transform="matrix(.24 0 -0 .24 209.3931 575.76)" font-size="66.66666" font-family="CambriaMath"><tspan y="-2250" x="0">&#x1d499;</tspan></text>
<text xml:space="preserve" transform="matrix(.24 0 -0 .24 218.6431 575.76)" font-size="66.66666" font-family="CambriaMath"><tspan y="-2250" x="0">)</tspan></text>
<path transform="matrix(.00007874016,0,0,.00007874016,43.450304,183.6502)" stroke-width="12700" stroke-linecap="butt" stroke-miterlimit="8" stroke-linejoin="miter" fill="none" stroke="#942092" d="M 0 976237 C 0 437076.2 432347.2 0 965674.5 0 C 1499002 0 1931349 437076.2 1931349 976237 C 1931349 1515398 1499002 1952474 965674.5 1952474 C 432347.2 1952474 0 1515398 0 976237 Z "/>
<path transform="matrix(.00007874016,0,0,.00007874016,63.850206,207.71698)" stroke-width="12700" stroke-linecap="butt" stroke-miterlimit="8" stroke-linejoin="miter" fill="none" stroke="#942092" d="M 0 660755 C 0 295830.1 315970.6 0 705740 0 C 1095509 0 1411480 295830.1 1411480 660755 C 1411480 1025680 1095509 1321510 705740 1321510 C 315970.6 1321510 0 1025680 0 660755 Z "/>
<path transform="matrix(.00007874016,0,0,.00007874016,87.71561,228.47379)" stroke-width="12700" stroke-linecap="butt" stroke-miterlimit="8" stroke-linejoin="miter" fill="none" stroke="#942092" d="M 0 397143 C 0 177807 180272.5 0 402650 0 C 625027.4 0 805300 177807 805300 397143 C 805300 616479 625027.4 794286 402650 794286 C 180272.5 794286 0 616479 0 397143 Z "/>
<text fill="#942092" xml:space="preserve" transform="matrix(.24 0 -0 .24 36.239809 698.64)" font-size="66.66666" font-family="Calibri" font-weight="bold"><tspan y="-2250" x="0 43.75333 79.706668 133.85999 150.01332 185.96665 218.78664 234.93997">Nominal </tspan></text>
<text fill="#942092" xml:space="preserve" transform="matrix(.24 0 -0 .24 22.494797 717.6)" font-size="66.66666" font-family="Calibri" font-weight="bold"><tspan y="-2250" x="0 35.939996 69.27999 105.219989 131.75998 147.89998 170.83998 202.64665">density </tspan></text>
<text fill="#942092" xml:space="preserve" transform="matrix(.24 0 -0 .24 74.7448 717.6)" font-size="66.66666" font-family="CambriaMath"><tspan y="-2250" x="0">&#x1d45e;</tspan></text>
<text fill="#942092" xml:space="preserve" transform="matrix(.24 0 -0 .24 83.8548 717.6)" font-size="66.66666" font-family="CambriaMath"><tspan y="-2250" x="0">(</tspan></text>
<text fill="#942092" xml:space="preserve" transform="matrix(.24 0 -0 .24 90.4798 717.6)" font-size="66.66666" font-family="CambriaMath"><tspan y="-2250" x="0">&#x1d499;</tspan></text>
<text fill="#942092" xml:space="preserve" transform="matrix(.24 0 -0 .24 99.7298 717.6)" font-size="66.66666" font-family="CambriaMath"><tspan y="-2250" x="0">)</tspan></text>
<text fill="#ff556f" xml:space="preserve" transform="matrix(.24 0 -0 .24 206.34409 838.32)" font-size="66.66666" font-family="Calibri"><tspan y="-2250" x="0 35.29333 68.65333 103.54666 138.43999 153.53333 176.09333 209.45333 244.34667 259.43998 278.46665 310.22666 325.31999 340.4133 375.3066 397.8666 431.22663">Required failure </tspan></text>
<text fill="#ff556f" xml:space="preserve" transform="matrix(.24 0 -0 .24 220.00409 857.52)" font-size="66.66666" font-family="Calibri"><tspan y="-2250" x="0 22.39333 57.253324 79.77998 113.10664 139.16664 174.02664 209.41997 224.54663 259.40663">threshold </tspan></text>
<text fill="#ff556f" xml:space="preserve" transform="matrix(.24 0 -0 .24 285.9191 857.52)" font-size="66.66666" font-family="CambriaMath"><tspan y="-2250" x="0">&#x1d46d;</tspan></text>
</g>
</g>
</svg>
