<?xml version="1.0" encoding="utf-8" standalone="no"?>
<!DOCTYPE svg PUBLIC "-//W3C//DTD SVG 1.1//EN"
  "http://www.w3.org/Graphics/SVG/1.1/DTD/svg11.dtd">
<!-- Created with matplotlib (https://matplotlib.org/) -->
<svg height="288pt" version="1.1" viewBox="0 0 648 288" width="648pt" xmlns="http://www.w3.org/2000/svg" xmlns:xlink="http://www.w3.org/1999/xlink">
 <defs>
  <style type="text/css">
*{stroke-linecap:butt;stroke-linejoin:round;}
  </style>
 </defs>
 <g id="figure_1">
  <g id="patch_1">
   <path d="M 0 288 
L 648 288 
L 648 0 
L 0 0 
z
" style="fill:#ffffff;"/>
  </g>
  <g id="axes_1">
   <g id="patch_2">
    <path d="M 81 256.32 
L 583.2 256.32 
L 583.2 34.56 
L 81 34.56 
z
" style="fill:#ffffff;"/>
   </g>
   <g id="matplotlib.axis_1">
    <g id="xtick_1">
     <g id="line2d_1">
      <path clip-path="url(#p8f8c6cfeb7)" d="M 145.331405 256.32 
L 145.331405 34.56 
" style="fill:none;stroke:#b2b2b2;stroke-linecap:square;stroke-width:0.8;"/>
     </g>
     <g id="line2d_2">
      <defs>
       <path d="M 0 0 
L 0 3.5 
" id="m45a26e3a17" style="stroke:#000000;stroke-width:0.8;"/>
      </defs>
      <g>
       <use style="stroke:#000000;stroke-width:0.8;" x="145.331405" xlink:href="#m45a26e3a17" y="256.32"/>
      </g>
     </g>
     <g id="text_1">
      <!-- $\mathdefault{2^{6}}$ -->
      <defs>
       <path d="M 19.1875 8.296875 
L 53.609375 8.296875 
L 53.609375 0 
L 7.328125 0 
L 7.328125 8.296875 
Q 12.9375 14.109375 22.625 23.890625 
Q 32.328125 33.6875 34.8125 36.53125 
Q 39.546875 41.84375 41.421875 45.53125 
Q 43.3125 49.21875 43.3125 52.78125 
Q 43.3125 58.59375 39.234375 62.25 
Q 35.15625 65.921875 28.609375 65.921875 
Q 23.96875 65.921875 18.8125 64.3125 
Q 13.671875 62.703125 7.8125 59.421875 
L 7.8125 69.390625 
Q 13.765625 71.78125 18.9375 73 
Q 24.125 74.21875 28.421875 74.21875 
Q 39.75 74.21875 46.484375 68.546875 
Q 53.21875 62.890625 53.21875 53.421875 
Q 53.21875 48.921875 51.53125 44.890625 
Q 49.859375 40.875 45.40625 35.40625 
Q 44.1875 33.984375 37.640625 27.21875 
Q 31.109375 20.453125 19.1875 8.296875 
z
" id="DejaVuSans-50"/>
       <path d="M 33.015625 40.375 
Q 26.375 40.375 22.484375 35.828125 
Q 18.609375 31.296875 18.609375 23.390625 
Q 18.609375 15.53125 22.484375 10.953125 
Q 26.375 6.390625 33.015625 6.390625 
Q 39.65625 6.390625 43.53125 10.953125 
Q 47.40625 15.53125 47.40625 23.390625 
Q 47.40625 31.296875 43.53125 35.828125 
Q 39.65625 40.375 33.015625 40.375 
z
M 52.59375 71.296875 
L 52.59375 62.3125 
Q 48.875 64.0625 45.09375 64.984375 
Q 41.3125 65.921875 37.59375 65.921875 
Q 27.828125 65.921875 22.671875 59.328125 
Q 17.53125 52.734375 16.796875 39.40625 
Q 19.671875 43.65625 24.015625 45.921875 
Q 28.375 48.1875 33.59375 48.1875 
Q 44.578125 48.1875 50.953125 41.515625 
Q 57.328125 34.859375 57.328125 23.390625 
Q 57.328125 12.15625 50.6875 5.359375 
Q 44.046875 -1.421875 33.015625 -1.421875 
Q 20.359375 -1.421875 13.671875 8.265625 
Q 6.984375 17.96875 6.984375 36.375 
Q 6.984375 53.65625 15.1875 63.9375 
Q 23.390625 74.21875 37.203125 74.21875 
Q 40.921875 74.21875 44.703125 73.484375 
Q 48.484375 72.75 52.59375 71.296875 
z
" id="DejaVuSans-54"/>
      </defs>
      <g transform="translate(139.731405 270.918437)scale(0.1 -0.1)">
       <use transform="translate(0 0.765625)" xlink:href="#DejaVuSans-50"/>
       <use transform="translate(64.580078 39.046875)scale(0.7)" xlink:href="#DejaVuSans-54"/>
      </g>
     </g>
    </g>
    <g id="xtick_2">
     <g id="line2d_3">
      <path clip-path="url(#p8f8c6cfeb7)" d="M 228.339669 256.32 
L 228.339669 34.56 
" style="fill:none;stroke:#b2b2b2;stroke-linecap:square;stroke-width:0.8;"/>
     </g>
     <g id="line2d_4">
      <g>
       <use style="stroke:#000000;stroke-width:0.8;" x="228.339669" xlink:href="#m45a26e3a17" y="256.32"/>
      </g>
     </g>
     <g id="text_2">
      <!-- $\mathdefault{2^{8}}$ -->
      <defs>
       <path d="M 31.78125 34.625 
Q 24.75 34.625 20.71875 30.859375 
Q 16.703125 27.09375 16.703125 20.515625 
Q 16.703125 13.921875 20.71875 10.15625 
Q 24.75 6.390625 31.78125 6.390625 
Q 38.8125 6.390625 42.859375 10.171875 
Q 46.921875 13.96875 46.921875 20.515625 
Q 46.921875 27.09375 42.890625 30.859375 
Q 38.875 34.625 31.78125 34.625 
z
M 21.921875 38.8125 
Q 15.578125 40.375 12.03125 44.71875 
Q 8.5 49.078125 8.5 55.328125 
Q 8.5 64.0625 14.71875 69.140625 
Q 20.953125 74.21875 31.78125 74.21875 
Q 42.671875 74.21875 48.875 69.140625 
Q 55.078125 64.0625 55.078125 55.328125 
Q 55.078125 49.078125 51.53125 44.71875 
Q 48 40.375 41.703125 38.8125 
Q 48.828125 37.15625 52.796875 32.3125 
Q 56.78125 27.484375 56.78125 20.515625 
Q 56.78125 9.90625 50.3125 4.234375 
Q 43.84375 -1.421875 31.78125 -1.421875 
Q 19.734375 -1.421875 13.25 4.234375 
Q 6.78125 9.90625 6.78125 20.515625 
Q 6.78125 27.484375 10.78125 32.3125 
Q 14.796875 37.15625 21.921875 38.8125 
z
M 18.3125 54.390625 
Q 18.3125 48.734375 21.84375 45.5625 
Q 25.390625 42.390625 31.78125 42.390625 
Q 38.140625 42.390625 41.71875 45.5625 
Q 45.3125 48.734375 45.3125 54.390625 
Q 45.3125 60.0625 41.71875 63.234375 
Q 38.140625 66.40625 31.78125 66.40625 
Q 25.390625 66.40625 21.84375 63.234375 
Q 18.3125 60.0625 18.3125 54.390625 
z
" id="DejaVuSans-56"/>
      </defs>
      <g transform="translate(222.739669 270.918437)scale(0.1 -0.1)">
       <use transform="translate(0 0.765625)" xlink:href="#DejaVuSans-50"/>
       <use transform="translate(64.580078 39.046875)scale(0.7)" xlink:href="#DejaVuSans-56"/>
      </g>
     </g>
    </g>
    <g id="xtick_3">
     <g id="line2d_5">
      <path clip-path="url(#p8f8c6cfeb7)" d="M 311.347934 256.32 
L 311.347934 34.56 
" style="fill:none;stroke:#b2b2b2;stroke-linecap:square;stroke-width:0.8;"/>
     </g>
     <g id="line2d_6">
      <g>
       <use style="stroke:#000000;stroke-width:0.8;" x="311.347934" xlink:href="#m45a26e3a17" y="256.32"/>
      </g>
     </g>
     <g id="text_3">
      <!-- $\mathdefault{2^{10}}$ -->
      <defs>
       <path d="M 12.40625 8.296875 
L 28.515625 8.296875 
L 28.515625 63.921875 
L 10.984375 60.40625 
L 10.984375 69.390625 
L 28.421875 72.90625 
L 38.28125 72.90625 
L 38.28125 8.296875 
L 54.390625 8.296875 
L 54.390625 0 
L 12.40625 0 
z
" id="DejaVuSans-49"/>
       <path d="M 31.78125 66.40625 
Q 24.171875 66.40625 20.328125 58.90625 
Q 16.5 51.421875 16.5 36.375 
Q 16.5 21.390625 20.328125 13.890625 
Q 24.171875 6.390625 31.78125 6.390625 
Q 39.453125 6.390625 43.28125 13.890625 
Q 47.125 21.390625 47.125 36.375 
Q 47.125 51.421875 43.28125 58.90625 
Q 39.453125 66.40625 31.78125 66.40625 
z
M 31.78125 74.21875 
Q 44.046875 74.21875 50.515625 64.515625 
Q 56.984375 54.828125 56.984375 36.375 
Q 56.984375 17.96875 50.515625 8.265625 
Q 44.046875 -1.421875 31.78125 -1.421875 
Q 19.53125 -1.421875 13.0625 8.265625 
Q 6.59375 17.96875 6.59375 36.375 
Q 6.59375 54.828125 13.0625 64.515625 
Q 19.53125 74.21875 31.78125 74.21875 
z
" id="DejaVuSans-48"/>
      </defs>
      <g transform="translate(303.497934 270.918437)scale(0.1 -0.1)">
       <use transform="translate(0 0.765625)" xlink:href="#DejaVuSans-50"/>
       <use transform="translate(64.580078 39.046875)scale(0.7)" xlink:href="#DejaVuSans-49"/>
       <use transform="translate(109.116211 39.046875)scale(0.7)" xlink:href="#DejaVuSans-48"/>
      </g>
     </g>
    </g>
    <g id="xtick_4">
     <g id="line2d_7">
      <path clip-path="url(#p8f8c6cfeb7)" d="M 394.356198 256.32 
L 394.356198 34.56 
" style="fill:none;stroke:#b2b2b2;stroke-linecap:square;stroke-width:0.8;"/>
     </g>
     <g id="line2d_8">
      <g>
       <use style="stroke:#000000;stroke-width:0.8;" x="394.356198" xlink:href="#m45a26e3a17" y="256.32"/>
      </g>
     </g>
     <g id="text_4">
      <!-- $\mathdefault{2^{12}}$ -->
      <g transform="translate(386.506198 270.918437)scale(0.1 -0.1)">
       <use transform="translate(0 0.765625)" xlink:href="#DejaVuSans-50"/>
       <use transform="translate(64.580078 39.046875)scale(0.7)" xlink:href="#DejaVuSans-49"/>
       <use transform="translate(109.116211 39.046875)scale(0.7)" xlink:href="#DejaVuSans-50"/>
      </g>
     </g>
    </g>
    <g id="xtick_5">
     <g id="line2d_9">
      <path clip-path="url(#p8f8c6cfeb7)" d="M 477.364463 256.32 
L 477.364463 34.56 
" style="fill:none;stroke:#b2b2b2;stroke-linecap:square;stroke-width:0.8;"/>
     </g>
     <g id="line2d_10">
      <g>
       <use style="stroke:#000000;stroke-width:0.8;" x="477.364463" xlink:href="#m45a26e3a17" y="256.32"/>
      </g>
     </g>
     <g id="text_5">
      <!-- $\mathdefault{2^{14}}$ -->
      <defs>
       <path d="M 37.796875 64.3125 
L 12.890625 25.390625 
L 37.796875 25.390625 
z
M 35.203125 72.90625 
L 47.609375 72.90625 
L 47.609375 25.390625 
L 58.015625 25.390625 
L 58.015625 17.1875 
L 47.609375 17.1875 
L 47.609375 0 
L 37.796875 0 
L 37.796875 17.1875 
L 4.890625 17.1875 
L 4.890625 26.703125 
z
" id="DejaVuSans-52"/>
      </defs>
      <g transform="translate(469.514463 270.918437)scale(0.1 -0.1)">
       <use transform="translate(0 0.684375)" xlink:href="#DejaVuSans-50"/>
       <use transform="translate(64.580078 38.965625)scale(0.7)" xlink:href="#DejaVuSans-49"/>
       <use transform="translate(109.116211 38.965625)scale(0.7)" xlink:href="#DejaVuSans-52"/>
      </g>
     </g>
    </g>
    <g id="xtick_6">
     <g id="line2d_11">
      <path clip-path="url(#p8f8c6cfeb7)" d="M 560.372727 256.32 
L 560.372727 34.56 
" style="fill:none;stroke:#b2b2b2;stroke-linecap:square;stroke-width:0.8;"/>
     </g>
     <g id="line2d_12">
      <g>
       <use style="stroke:#000000;stroke-width:0.8;" x="560.372727" xlink:href="#m45a26e3a17" y="256.32"/>
      </g>
     </g>
     <g id="text_6">
      <!-- $\mathdefault{2^{16}}$ -->
      <g transform="translate(552.522727 270.918437)scale(0.1 -0.1)">
       <use transform="translate(0 0.765625)" xlink:href="#DejaVuSans-50"/>
       <use transform="translate(64.580078 39.046875)scale(0.7)" xlink:href="#DejaVuSans-49"/>
       <use transform="translate(109.116211 39.046875)scale(0.7)" xlink:href="#DejaVuSans-54"/>
      </g>
     </g>
    </g>
    <g id="text_7">
     <!-- Num. Samples -->
     <defs>
      <path d="M 9.8125 72.90625 
L 23.09375 72.90625 
L 55.421875 11.921875 
L 55.421875 72.90625 
L 64.984375 72.90625 
L 64.984375 0 
L 51.703125 0 
L 19.390625 60.984375 
L 19.390625 0 
L 9.8125 0 
z
" id="DejaVuSans-78"/>
      <path d="M 8.5 21.578125 
L 8.5 54.6875 
L 17.484375 54.6875 
L 17.484375 21.921875 
Q 17.484375 14.15625 20.5 10.265625 
Q 23.53125 6.390625 29.59375 6.390625 
Q 36.859375 6.390625 41.078125 11.03125 
Q 45.3125 15.671875 45.3125 23.6875 
L 45.3125 54.6875 
L 54.296875 54.6875 
L 54.296875 0 
L 45.3125 0 
L 45.3125 8.40625 
Q 42.046875 3.421875 37.71875 1 
Q 33.40625 -1.421875 27.6875 -1.421875 
Q 18.265625 -1.421875 13.375 4.4375 
Q 8.5 10.296875 8.5 21.578125 
z
M 31.109375 56 
z
" id="DejaVuSans-117"/>
      <path d="M 52 44.1875 
Q 55.375 50.25 60.0625 53.125 
Q 64.75 56 71.09375 56 
Q 79.640625 56 84.28125 50.015625 
Q 88.921875 44.046875 88.921875 33.015625 
L 88.921875 0 
L 79.890625 0 
L 79.890625 32.71875 
Q 79.890625 40.578125 77.09375 44.375 
Q 74.3125 48.1875 68.609375 48.1875 
Q 61.625 48.1875 57.5625 43.546875 
Q 53.515625 38.921875 53.515625 30.90625 
L 53.515625 0 
L 44.484375 0 
L 44.484375 32.71875 
Q 44.484375 40.625 41.703125 44.40625 
Q 38.921875 48.1875 33.109375 48.1875 
Q 26.21875 48.1875 22.15625 43.53125 
Q 18.109375 38.875 18.109375 30.90625 
L 18.109375 0 
L 9.078125 0 
L 9.078125 54.6875 
L 18.109375 54.6875 
L 18.109375 46.1875 
Q 21.1875 51.21875 25.484375 53.609375 
Q 29.78125 56 35.6875 56 
Q 41.65625 56 45.828125 52.96875 
Q 50 49.953125 52 44.1875 
z
" id="DejaVuSans-109"/>
      <path d="M 10.6875 12.40625 
L 21 12.40625 
L 21 0 
L 10.6875 0 
z
" id="DejaVuSans-46"/>
      <path id="DejaVuSans-32"/>
      <path d="M 53.515625 70.515625 
L 53.515625 60.890625 
Q 47.90625 63.578125 42.921875 64.890625 
Q 37.9375 66.21875 33.296875 66.21875 
Q 25.25 66.21875 20.875 63.09375 
Q 16.5 59.96875 16.5 54.203125 
Q 16.5 49.359375 19.40625 46.890625 
Q 22.3125 44.4375 30.421875 42.921875 
L 36.375 41.703125 
Q 47.40625 39.59375 52.65625 34.296875 
Q 57.90625 29 57.90625 20.125 
Q 57.90625 9.515625 50.796875 4.046875 
Q 43.703125 -1.421875 29.984375 -1.421875 
Q 24.8125 -1.421875 18.96875 -0.25 
Q 13.140625 0.921875 6.890625 3.21875 
L 6.890625 13.375 
Q 12.890625 10.015625 18.65625 8.296875 
Q 24.421875 6.59375 29.984375 6.59375 
Q 38.421875 6.59375 43.015625 9.90625 
Q 47.609375 13.234375 47.609375 19.390625 
Q 47.609375 24.75 44.3125 27.78125 
Q 41.015625 30.8125 33.5 32.328125 
L 27.484375 33.5 
Q 16.453125 35.6875 11.515625 40.375 
Q 6.59375 45.0625 6.59375 53.421875 
Q 6.59375 63.09375 13.40625 68.65625 
Q 20.21875 74.21875 32.171875 74.21875 
Q 37.3125 74.21875 42.625 73.28125 
Q 47.953125 72.359375 53.515625 70.515625 
z
" id="DejaVuSans-83"/>
      <path d="M 34.28125 27.484375 
Q 23.390625 27.484375 19.1875 25 
Q 14.984375 22.515625 14.984375 16.5 
Q 14.984375 11.71875 18.140625 8.90625 
Q 21.296875 6.109375 26.703125 6.109375 
Q 34.1875 6.109375 38.703125 11.40625 
Q 43.21875 16.703125 43.21875 25.484375 
L 43.21875 27.484375 
z
M 52.203125 31.203125 
L 52.203125 0 
L 43.21875 0 
L 43.21875 8.296875 
Q 40.140625 3.328125 35.546875 0.953125 
Q 30.953125 -1.421875 24.3125 -1.421875 
Q 15.921875 -1.421875 10.953125 3.296875 
Q 6 8.015625 6 15.921875 
Q 6 25.140625 12.171875 29.828125 
Q 18.359375 34.515625 30.609375 34.515625 
L 43.21875 34.515625 
L 43.21875 35.40625 
Q 43.21875 41.609375 39.140625 45 
Q 35.0625 48.390625 27.6875 48.390625 
Q 23 48.390625 18.546875 47.265625 
Q 14.109375 46.140625 10.015625 43.890625 
L 10.015625 52.203125 
Q 14.9375 54.109375 19.578125 55.046875 
Q 24.21875 56 28.609375 56 
Q 40.484375 56 46.34375 49.84375 
Q 52.203125 43.703125 52.203125 31.203125 
z
" id="DejaVuSans-97"/>
      <path d="M 18.109375 8.203125 
L 18.109375 -20.796875 
L 9.078125 -20.796875 
L 9.078125 54.6875 
L 18.109375 54.6875 
L 18.109375 46.390625 
Q 20.953125 51.265625 25.265625 53.625 
Q 29.59375 56 35.59375 56 
Q 45.5625 56 51.78125 48.09375 
Q 58.015625 40.1875 58.015625 27.296875 
Q 58.015625 14.40625 51.78125 6.484375 
Q 45.5625 -1.421875 35.59375 -1.421875 
Q 29.59375 -1.421875 25.265625 0.953125 
Q 20.953125 3.328125 18.109375 8.203125 
z
M 48.6875 27.296875 
Q 48.6875 37.203125 44.609375 42.84375 
Q 40.53125 48.484375 33.40625 48.484375 
Q 26.265625 48.484375 22.1875 42.84375 
Q 18.109375 37.203125 18.109375 27.296875 
Q 18.109375 17.390625 22.1875 11.75 
Q 26.265625 6.109375 33.40625 6.109375 
Q 40.53125 6.109375 44.609375 11.75 
Q 48.6875 17.390625 48.6875 27.296875 
z
" id="DejaVuSans-112"/>
      <path d="M 9.421875 75.984375 
L 18.40625 75.984375 
L 18.40625 0 
L 9.421875 0 
z
" id="DejaVuSans-108"/>
      <path d="M 56.203125 29.59375 
L 56.203125 25.203125 
L 14.890625 25.203125 
Q 15.484375 15.921875 20.484375 11.0625 
Q 25.484375 6.203125 34.421875 6.203125 
Q 39.59375 6.203125 44.453125 7.46875 
Q 49.3125 8.734375 54.109375 11.28125 
L 54.109375 2.78125 
Q 49.265625 0.734375 44.1875 -0.34375 
Q 39.109375 -1.421875 33.890625 -1.421875 
Q 20.796875 -1.421875 13.15625 6.1875 
Q 5.515625 13.8125 5.515625 26.8125 
Q 5.515625 40.234375 12.765625 48.109375 
Q 20.015625 56 32.328125 56 
Q 43.359375 56 49.78125 48.890625 
Q 56.203125 41.796875 56.203125 29.59375 
z
M 47.21875 32.234375 
Q 47.125 39.59375 43.09375 43.984375 
Q 39.0625 48.390625 32.421875 48.390625 
Q 24.90625 48.390625 20.390625 44.140625 
Q 15.875 39.890625 15.1875 32.171875 
z
" id="DejaVuSans-101"/>
      <path d="M 44.28125 53.078125 
L 44.28125 44.578125 
Q 40.484375 46.53125 36.375 47.5 
Q 32.28125 48.484375 27.875 48.484375 
Q 21.1875 48.484375 17.84375 46.4375 
Q 14.5 44.390625 14.5 40.28125 
Q 14.5 37.15625 16.890625 35.375 
Q 19.28125 33.59375 26.515625 31.984375 
L 29.59375 31.296875 
Q 39.15625 29.25 43.1875 25.515625 
Q 47.21875 21.78125 47.21875 15.09375 
Q 47.21875 7.46875 41.1875 3.015625 
Q 35.15625 -1.421875 24.609375 -1.421875 
Q 20.21875 -1.421875 15.453125 -0.5625 
Q 10.6875 0.296875 5.421875 2 
L 5.421875 11.28125 
Q 10.40625 8.6875 15.234375 7.390625 
Q 20.0625 6.109375 24.8125 6.109375 
Q 31.15625 6.109375 34.5625 8.28125 
Q 37.984375 10.453125 37.984375 14.40625 
Q 37.984375 18.0625 35.515625 20.015625 
Q 33.0625 21.96875 24.703125 23.78125 
L 21.578125 24.515625 
Q 13.234375 26.265625 9.515625 29.90625 
Q 5.8125 33.546875 5.8125 39.890625 
Q 5.8125 47.609375 11.28125 51.796875 
Q 16.75 56 26.8125 56 
Q 31.78125 56 36.171875 55.265625 
Q 40.578125 54.546875 44.28125 53.078125 
z
" id="DejaVuSans-115"/>
     </defs>
     <g transform="translate(288.526875 286.11625)scale(0.12 -0.12)">
      <use xlink:href="#DejaVuSans-78"/>
      <use x="74.804688" xlink:href="#DejaVuSans-117"/>
      <use x="138.183594" xlink:href="#DejaVuSans-109"/>
      <use x="235.595703" xlink:href="#DejaVuSans-46"/>
      <use x="267.382812" xlink:href="#DejaVuSans-32"/>
      <use x="299.169922" xlink:href="#DejaVuSans-83"/>
      <use x="362.646484" xlink:href="#DejaVuSans-97"/>
      <use x="423.925781" xlink:href="#DejaVuSans-109"/>
      <use x="521.337891" xlink:href="#DejaVuSans-112"/>
      <use x="584.814453" xlink:href="#DejaVuSans-108"/>
      <use x="612.597656" xlink:href="#DejaVuSans-101"/>
      <use x="674.121094" xlink:href="#DejaVuSans-115"/>
     </g>
    </g>
   </g>
   <g id="matplotlib.axis_2">
    <g id="ytick_1">
     <g id="line2d_13">
      <path clip-path="url(#p8f8c6cfeb7)" d="M 81 235.650712 
L 583.2 235.650712 
" style="fill:none;stroke:#b2b2b2;stroke-linecap:square;stroke-width:0.8;"/>
     </g>
     <g id="line2d_14">
      <defs>
       <path d="M 0 0 
L -3.5 0 
" id="mb3b62fe918" style="stroke:#000000;stroke-width:0.8;"/>
      </defs>
      <g>
       <use style="stroke:#000000;stroke-width:0.8;" x="81" xlink:href="#mb3b62fe918" y="235.650712"/>
      </g>
     </g>
     <g id="text_8">
      <!-- $\mathdefault{2^{6}}$ -->
      <g transform="translate(62.8 239.449931)scale(0.1 -0.1)">
       <use transform="translate(0 0.765625)" xlink:href="#DejaVuSans-50"/>
       <use transform="translate(64.580078 39.046875)scale(0.7)" xlink:href="#DejaVuSans-54"/>
      </g>
     </g>
    </g>
    <g id="ytick_2">
     <g id="line2d_15">
      <path clip-path="url(#p8f8c6cfeb7)" d="M 81 202.685281 
L 583.2 202.685281 
" style="fill:none;stroke:#b2b2b2;stroke-linecap:square;stroke-width:0.8;"/>
     </g>
     <g id="line2d_16">
      <g>
       <use style="stroke:#000000;stroke-width:0.8;" x="81" xlink:href="#mb3b62fe918" y="202.685281"/>
      </g>
     </g>
     <g id="text_9">
      <!-- $\mathdefault{2^{8}}$ -->
      <g transform="translate(62.8 206.4845)scale(0.1 -0.1)">
       <use transform="translate(0 0.765625)" xlink:href="#DejaVuSans-50"/>
       <use transform="translate(64.580078 39.046875)scale(0.7)" xlink:href="#DejaVuSans-56"/>
      </g>
     </g>
    </g>
    <g id="ytick_3">
     <g id="line2d_17">
      <path clip-path="url(#p8f8c6cfeb7)" d="M 81 169.71985 
L 583.2 169.71985 
" style="fill:none;stroke:#b2b2b2;stroke-linecap:square;stroke-width:0.8;"/>
     </g>
     <g id="line2d_18">
      <g>
       <use style="stroke:#000000;stroke-width:0.8;" x="81" xlink:href="#mb3b62fe918" y="169.71985"/>
      </g>
     </g>
     <g id="text_10">
      <!-- $\mathdefault{2^{10}}$ -->
      <g transform="translate(58.3 173.519069)scale(0.1 -0.1)">
       <use transform="translate(0 0.765625)" xlink:href="#DejaVuSans-50"/>
       <use transform="translate(64.580078 39.046875)scale(0.7)" xlink:href="#DejaVuSans-49"/>
       <use transform="translate(109.116211 39.046875)scale(0.7)" xlink:href="#DejaVuSans-48"/>
      </g>
     </g>
    </g>
    <g id="ytick_4">
     <g id="line2d_19">
      <path clip-path="url(#p8f8c6cfeb7)" d="M 81 136.754419 
L 583.2 136.754419 
" style="fill:none;stroke:#b2b2b2;stroke-linecap:square;stroke-width:0.8;"/>
     </g>
     <g id="line2d_20">
      <g>
       <use style="stroke:#000000;stroke-width:0.8;" x="81" xlink:href="#mb3b62fe918" y="136.754419"/>
      </g>
     </g>
     <g id="text_11">
      <!-- $\mathdefault{2^{12}}$ -->
      <g transform="translate(58.3 140.553638)scale(0.1 -0.1)">
       <use transform="translate(0 0.765625)" xlink:href="#DejaVuSans-50"/>
       <use transform="translate(64.580078 39.046875)scale(0.7)" xlink:href="#DejaVuSans-49"/>
       <use transform="translate(109.116211 39.046875)scale(0.7)" xlink:href="#DejaVuSans-50"/>
      </g>
     </g>
    </g>
    <g id="ytick_5">
     <g id="line2d_21">
      <path clip-path="url(#p8f8c6cfeb7)" d="M 81 103.788988 
L 583.2 103.788988 
" style="fill:none;stroke:#b2b2b2;stroke-linecap:square;stroke-width:0.8;"/>
     </g>
     <g id="line2d_22">
      <g>
       <use style="stroke:#000000;stroke-width:0.8;" x="81" xlink:href="#mb3b62fe918" y="103.788988"/>
      </g>
     </g>
     <g id="text_12">
      <!-- $\mathdefault{2^{14}}$ -->
      <g transform="translate(58.3 107.588207)scale(0.1 -0.1)">
       <use transform="translate(0 0.684375)" xlink:href="#DejaVuSans-50"/>
       <use transform="translate(64.580078 38.965625)scale(0.7)" xlink:href="#DejaVuSans-49"/>
       <use transform="translate(109.116211 38.965625)scale(0.7)" xlink:href="#DejaVuSans-52"/>
      </g>
     </g>
    </g>
    <g id="ytick_6">
     <g id="line2d_23">
      <path clip-path="url(#p8f8c6cfeb7)" d="M 81 70.823557 
L 583.2 70.823557 
" style="fill:none;stroke:#b2b2b2;stroke-linecap:square;stroke-width:0.8;"/>
     </g>
     <g id="line2d_24">
      <g>
       <use style="stroke:#000000;stroke-width:0.8;" x="81" xlink:href="#mb3b62fe918" y="70.823557"/>
      </g>
     </g>
     <g id="text_13">
      <!-- $\mathdefault{2^{16}}$ -->
      <g transform="translate(58.3 74.622775)scale(0.1 -0.1)">
       <use transform="translate(0 0.765625)" xlink:href="#DejaVuSans-50"/>
       <use transform="translate(64.580078 39.046875)scale(0.7)" xlink:href="#DejaVuSans-49"/>
       <use transform="translate(109.116211 39.046875)scale(0.7)" xlink:href="#DejaVuSans-54"/>
      </g>
     </g>
    </g>
    <g id="ytick_7">
     <g id="line2d_25">
      <path clip-path="url(#p8f8c6cfeb7)" d="M 81 37.858126 
L 583.2 37.858126 
" style="fill:none;stroke:#b2b2b2;stroke-linecap:square;stroke-width:0.8;"/>
     </g>
     <g id="line2d_26">
      <g>
       <use style="stroke:#000000;stroke-width:0.8;" x="81" xlink:href="#mb3b62fe918" y="37.858126"/>
      </g>
     </g>
     <g id="text_14">
      <!-- $\mathdefault{2^{18}}$ -->
      <g transform="translate(58.3 41.657344)scale(0.1 -0.1)">
       <use transform="translate(0 0.765625)" xlink:href="#DejaVuSans-50"/>
       <use transform="translate(64.580078 39.046875)scale(0.7)" xlink:href="#DejaVuSans-49"/>
       <use transform="translate(109.116211 39.046875)scale(0.7)" xlink:href="#DejaVuSans-56"/>
      </g>
     </g>
    </g>
    <g id="text_15">
     <!-- Memory (MiB) -->
     <defs>
      <path d="M 9.8125 72.90625 
L 24.515625 72.90625 
L 43.109375 23.296875 
L 61.8125 72.90625 
L 76.515625 72.90625 
L 76.515625 0 
L 66.890625 0 
L 66.890625 64.015625 
L 48.09375 14.015625 
L 38.1875 14.015625 
L 19.390625 64.015625 
L 19.390625 0 
L 9.8125 0 
z
" id="DejaVuSans-77"/>
      <path d="M 30.609375 48.390625 
Q 23.390625 48.390625 19.1875 42.75 
Q 14.984375 37.109375 14.984375 27.296875 
Q 14.984375 17.484375 19.15625 11.84375 
Q 23.34375 6.203125 30.609375 6.203125 
Q 37.796875 6.203125 41.984375 11.859375 
Q 46.1875 17.53125 46.1875 27.296875 
Q 46.1875 37.015625 41.984375 42.703125 
Q 37.796875 48.390625 30.609375 48.390625 
z
M 30.609375 56 
Q 42.328125 56 49.015625 48.375 
Q 55.71875 40.765625 55.71875 27.296875 
Q 55.71875 13.875 49.015625 6.21875 
Q 42.328125 -1.421875 30.609375 -1.421875 
Q 18.84375 -1.421875 12.171875 6.21875 
Q 5.515625 13.875 5.515625 27.296875 
Q 5.515625 40.765625 12.171875 48.375 
Q 18.84375 56 30.609375 56 
z
" id="DejaVuSans-111"/>
      <path d="M 41.109375 46.296875 
Q 39.59375 47.171875 37.8125 47.578125 
Q 36.03125 48 33.890625 48 
Q 26.265625 48 22.1875 43.046875 
Q 18.109375 38.09375 18.109375 28.8125 
L 18.109375 0 
L 9.078125 0 
L 9.078125 54.6875 
L 18.109375 54.6875 
L 18.109375 46.1875 
Q 20.953125 51.171875 25.484375 53.578125 
Q 30.03125 56 36.53125 56 
Q 37.453125 56 38.578125 55.875 
Q 39.703125 55.765625 41.0625 55.515625 
z
" id="DejaVuSans-114"/>
      <path d="M 32.171875 -5.078125 
Q 28.375 -14.84375 24.75 -17.8125 
Q 21.140625 -20.796875 15.09375 -20.796875 
L 7.90625 -20.796875 
L 7.90625 -13.28125 
L 13.1875 -13.28125 
Q 16.890625 -13.28125 18.9375 -11.515625 
Q 21 -9.765625 23.484375 -3.21875 
L 25.09375 0.875 
L 2.984375 54.6875 
L 12.5 54.6875 
L 29.59375 11.921875 
L 46.6875 54.6875 
L 56.203125 54.6875 
z
" id="DejaVuSans-121"/>
      <path d="M 31 75.875 
Q 24.46875 64.65625 21.28125 53.65625 
Q 18.109375 42.671875 18.109375 31.390625 
Q 18.109375 20.125 21.3125 9.0625 
Q 24.515625 -2 31 -13.1875 
L 23.1875 -13.1875 
Q 15.875 -1.703125 12.234375 9.375 
Q 8.59375 20.453125 8.59375 31.390625 
Q 8.59375 42.28125 12.203125 53.3125 
Q 15.828125 64.359375 23.1875 75.875 
z
" id="DejaVuSans-40"/>
      <path d="M 9.421875 54.6875 
L 18.40625 54.6875 
L 18.40625 0 
L 9.421875 0 
z
M 9.421875 75.984375 
L 18.40625 75.984375 
L 18.40625 64.59375 
L 9.421875 64.59375 
z
" id="DejaVuSans-105"/>
      <path d="M 19.671875 34.8125 
L 19.671875 8.109375 
L 35.5 8.109375 
Q 43.453125 8.109375 47.28125 11.40625 
Q 51.125 14.703125 51.125 21.484375 
Q 51.125 28.328125 47.28125 31.5625 
Q 43.453125 34.8125 35.5 34.8125 
z
M 19.671875 64.796875 
L 19.671875 42.828125 
L 34.28125 42.828125 
Q 41.5 42.828125 45.03125 45.53125 
Q 48.578125 48.25 48.578125 53.8125 
Q 48.578125 59.328125 45.03125 62.0625 
Q 41.5 64.796875 34.28125 64.796875 
z
M 9.8125 72.90625 
L 35.015625 72.90625 
Q 46.296875 72.90625 52.390625 68.21875 
Q 58.5 63.53125 58.5 54.890625 
Q 58.5 48.1875 55.375 44.234375 
Q 52.25 40.28125 46.1875 39.3125 
Q 53.46875 37.75 57.5 32.78125 
Q 61.53125 27.828125 61.53125 20.40625 
Q 61.53125 10.640625 54.890625 5.3125 
Q 48.25 0 35.984375 0 
L 9.8125 0 
z
" id="DejaVuSans-66"/>
      <path d="M 8.015625 75.875 
L 15.828125 75.875 
Q 23.140625 64.359375 26.78125 53.3125 
Q 30.421875 42.28125 30.421875 31.390625 
Q 30.421875 20.453125 26.78125 9.375 
Q 23.140625 -1.703125 15.828125 -13.1875 
L 8.015625 -13.1875 
Q 14.5 -2 17.703125 9.0625 
Q 20.90625 20.125 20.90625 31.390625 
Q 20.90625 42.671875 17.703125 53.65625 
Q 14.5 64.65625 8.015625 75.875 
z
" id="DejaVuSans-41"/>
     </defs>
     <g transform="translate(51.804375 187.39125)rotate(-90)scale(0.12 -0.12)">
      <use xlink:href="#DejaVuSans-77"/>
      <use x="86.279297" xlink:href="#DejaVuSans-101"/>
      <use x="147.802734" xlink:href="#DejaVuSans-109"/>
      <use x="245.214844" xlink:href="#DejaVuSans-111"/>
      <use x="306.396484" xlink:href="#DejaVuSans-114"/>
      <use x="347.509766" xlink:href="#DejaVuSans-121"/>
      <use x="406.689453" xlink:href="#DejaVuSans-32"/>
      <use x="438.476562" xlink:href="#DejaVuSans-40"/>
      <use x="477.490234" xlink:href="#DejaVuSans-77"/>
      <use x="563.769531" xlink:href="#DejaVuSans-105"/>
      <use x="591.552734" xlink:href="#DejaVuSans-66"/>
      <use x="660.15625" xlink:href="#DejaVuSans-41"/>
     </g>
    </g>
   </g>
   <g id="line2d_27">
    <path clip-path="url(#p8f8c6cfeb7)" d="M 103.827273 168.017387 
L 145.331405 164.769224 
L 186.835537 159.376388 
L 228.339669 151.861169 
L 269.843802 141.950618 
L 311.347934 129.754355 
L 352.852066 116.216984 
L 394.356198 101.550809 
L 435.860331 86.064237 
L 477.364463 70.119281 
L 518.868595 53.905088 
L 560.372727 44.64 
" style="fill:none;stroke:#1f77b4;stroke-linecap:square;stroke-width:1.5;"/>
    <defs>
     <path d="M 0 4 
C 1.060812 4 2.078319 3.578535 2.828427 2.828427 
C 3.578535 2.078319 4 1.060812 4 0 
C 4 -1.060812 3.578535 -2.078319 2.828427 -2.828427 
C 2.078319 -3.578535 1.060812 -4 0 -4 
C -1.060812 -4 -2.078319 -3.578535 -2.828427 -2.828427 
C -3.578535 -2.078319 -4 -1.060812 -4 0 
C -4 1.060812 -3.578535 2.078319 -2.828427 2.828427 
C -2.078319 3.578535 -1.060812 4 0 4 
z
" id="m0b65e25360" style="stroke:#1f77b4;"/>
    </defs>
    <g clip-path="url(#p8f8c6cfeb7)">
     <use style="fill:#1f77b4;stroke:#1f77b4;" x="103.827273" xlink:href="#m0b65e25360" y="168.017387"/>
     <use style="fill:#1f77b4;stroke:#1f77b4;" x="145.331405" xlink:href="#m0b65e25360" y="164.769224"/>
     <use style="fill:#1f77b4;stroke:#1f77b4;" x="186.835537" xlink:href="#m0b65e25360" y="159.376388"/>
     <use style="fill:#1f77b4;stroke:#1f77b4;" x="228.339669" xlink:href="#m0b65e25360" y="151.861169"/>
     <use style="fill:#1f77b4;stroke:#1f77b4;" x="269.843802" xlink:href="#m0b65e25360" y="141.950618"/>
     <use style="fill:#1f77b4;stroke:#1f77b4;" x="311.347934" xlink:href="#m0b65e25360" y="129.754355"/>
     <use style="fill:#1f77b4;stroke:#1f77b4;" x="352.852066" xlink:href="#m0b65e25360" y="116.216984"/>
     <use style="fill:#1f77b4;stroke:#1f77b4;" x="394.356198" xlink:href="#m0b65e25360" y="101.550809"/>
     <use style="fill:#1f77b4;stroke:#1f77b4;" x="435.860331" xlink:href="#m0b65e25360" y="86.064237"/>
     <use style="fill:#1f77b4;stroke:#1f77b4;" x="477.364463" xlink:href="#m0b65e25360" y="70.119281"/>
     <use style="fill:#1f77b4;stroke:#1f77b4;" x="518.868595" xlink:href="#m0b65e25360" y="53.905088"/>
     <use style="fill:#1f77b4;stroke:#1f77b4;" x="560.372727" xlink:href="#m0b65e25360" y="44.64"/>
    </g>
   </g>
   <g id="line2d_28">
    <path clip-path="url(#p8f8c6cfeb7)" d="M 103.827273 168.169194 
L 145.331405 167.84507 
L 186.835537 166.8366 
L 228.339669 165.750955 
L 269.843802 163.627882 
L 311.347934 162.012441 
L 352.852066 160.17115 
L 394.356198 159.28637 
L 435.860331 158.34681 
L 477.364463 158.447785 
L 518.868595 158.318038 
L 560.372727 158.146137 
" style="fill:none;stroke:#ff7f0e;stroke-linecap:square;stroke-width:1.5;"/>
    <defs>
     <path d="M -4 4 
L 4 4 
L 4 -4 
L -4 -4 
z
" id="m328234b9d4" style="stroke:#ff7f0e;stroke-linejoin:miter;"/>
    </defs>
    <g clip-path="url(#p8f8c6cfeb7)">
     <use style="fill:#ff7f0e;stroke:#ff7f0e;stroke-linejoin:miter;" x="103.827273" xlink:href="#m328234b9d4" y="168.169194"/>
     <use style="fill:#ff7f0e;stroke:#ff7f0e;stroke-linejoin:miter;" x="145.331405" xlink:href="#m328234b9d4" y="167.84507"/>
     <use style="fill:#ff7f0e;stroke:#ff7f0e;stroke-linejoin:miter;" x="186.835537" xlink:href="#m328234b9d4" y="166.8366"/>
     <use style="fill:#ff7f0e;stroke:#ff7f0e;stroke-linejoin:miter;" x="228.339669" xlink:href="#m328234b9d4" y="165.750955"/>
     <use style="fill:#ff7f0e;stroke:#ff7f0e;stroke-linejoin:miter;" x="269.843802" xlink:href="#m328234b9d4" y="163.627882"/>
     <use style="fill:#ff7f0e;stroke:#ff7f0e;stroke-linejoin:miter;" x="311.347934" xlink:href="#m328234b9d4" y="162.012441"/>
     <use style="fill:#ff7f0e;stroke:#ff7f0e;stroke-linejoin:miter;" x="352.852066" xlink:href="#m328234b9d4" y="160.17115"/>
     <use style="fill:#ff7f0e;stroke:#ff7f0e;stroke-linejoin:miter;" x="394.356198" xlink:href="#m328234b9d4" y="159.28637"/>
     <use style="fill:#ff7f0e;stroke:#ff7f0e;stroke-linejoin:miter;" x="435.860331" xlink:href="#m328234b9d4" y="158.34681"/>
     <use style="fill:#ff7f0e;stroke:#ff7f0e;stroke-linejoin:miter;" x="477.364463" xlink:href="#m328234b9d4" y="158.447785"/>
     <use style="fill:#ff7f0e;stroke:#ff7f0e;stroke-linejoin:miter;" x="518.868595" xlink:href="#m328234b9d4" y="158.318038"/>
     <use style="fill:#ff7f0e;stroke:#ff7f0e;stroke-linejoin:miter;" x="560.372727" xlink:href="#m328234b9d4" y="158.146137"/>
    </g>
   </g>
   <g id="line2d_29">
    <path clip-path="url(#p8f8c6cfeb7)" d="M 103.827273 167.931072 
L 145.331405 165.015647 
L 186.835537 161.945362 
L 228.339669 157.735769 
L 269.843802 153.718019 
L 311.347934 150.800315 
L 352.852066 148.888071 
L 394.356198 147.553059 
L 435.860331 146.107669 
L 477.364463 145.022963 
L 518.868595 143.356604 
L 560.372727 142.373311 
" style="fill:none;stroke:#2ca02c;stroke-linecap:square;stroke-width:1.5;"/>
    <defs>
     <path d="M -0 5.656854 
L 3.394113 0 
L 0 -5.656854 
L -3.394113 -0 
z
" id="m5d1ebb976f" style="stroke:#2ca02c;stroke-linejoin:miter;"/>
    </defs>
    <g clip-path="url(#p8f8c6cfeb7)">
     <use style="fill:#2ca02c;stroke:#2ca02c;stroke-linejoin:miter;" x="103.827273" xlink:href="#m5d1ebb976f" y="167.931072"/>
     <use style="fill:#2ca02c;stroke:#2ca02c;stroke-linejoin:miter;" x="145.331405" xlink:href="#m5d1ebb976f" y="165.015647"/>
     <use style="fill:#2ca02c;stroke:#2ca02c;stroke-linejoin:miter;" x="186.835537" xlink:href="#m5d1ebb976f" y="161.945362"/>
     <use style="fill:#2ca02c;stroke:#2ca02c;stroke-linejoin:miter;" x="228.339669" xlink:href="#m5d1ebb976f" y="157.735769"/>
     <use style="fill:#2ca02c;stroke:#2ca02c;stroke-linejoin:miter;" x="269.843802" xlink:href="#m5d1ebb976f" y="153.718019"/>
     <use style="fill:#2ca02c;stroke:#2ca02c;stroke-linejoin:miter;" x="311.347934" xlink:href="#m5d1ebb976f" y="150.800315"/>
     <use style="fill:#2ca02c;stroke:#2ca02c;stroke-linejoin:miter;" x="352.852066" xlink:href="#m5d1ebb976f" y="148.888071"/>
     <use style="fill:#2ca02c;stroke:#2ca02c;stroke-linejoin:miter;" x="394.356198" xlink:href="#m5d1ebb976f" y="147.553059"/>
     <use style="fill:#2ca02c;stroke:#2ca02c;stroke-linejoin:miter;" x="435.860331" xlink:href="#m5d1ebb976f" y="146.107669"/>
     <use style="fill:#2ca02c;stroke:#2ca02c;stroke-linejoin:miter;" x="477.364463" xlink:href="#m5d1ebb976f" y="145.022963"/>
     <use style="fill:#2ca02c;stroke:#2ca02c;stroke-linejoin:miter;" x="518.868595" xlink:href="#m5d1ebb976f" y="143.356604"/>
     <use style="fill:#2ca02c;stroke:#2ca02c;stroke-linejoin:miter;" x="560.372727" xlink:href="#m5d1ebb976f" y="142.373311"/>
    </g>
   </g>
   <g id="line2d_30">
    <path clip-path="url(#p8f8c6cfeb7)" d="M 103.827273 244.026353 
L 145.331405 241.52093 
L 186.835537 237.585074 
L 228.339669 229.757284 
L 269.843802 220.115514 
L 311.347934 208.555498 
L 352.852066 195.180252 
L 394.356198 180.63764 
L 435.860331 165.206955 
L 477.364463 149.307577 
L 518.868595 133.117003 
L 560.372727 123.831618 
" style="fill:none;stroke:#d62728;stroke-linecap:square;stroke-width:1.5;"/>
    <defs>
     <path d="M 0 4 
C 1.060812 4 2.078319 3.578535 2.828427 2.828427 
C 3.578535 2.078319 4 1.060812 4 0 
C 4 -1.060812 3.578535 -2.078319 2.828427 -2.828427 
C 2.078319 -3.578535 1.060812 -4 0 -4 
C -1.060812 -4 -2.078319 -3.578535 -2.828427 -2.828427 
C -3.578535 -2.078319 -4 -1.060812 -4 0 
C -4 1.060812 -3.578535 2.078319 -2.828427 2.828427 
C -2.078319 3.578535 -1.060812 4 0 4 
z
" id="md1fbf6a9cb" style="stroke:#d62728;"/>
    </defs>
    <g clip-path="url(#p8f8c6cfeb7)">
     <use style="fill:#d62728;stroke:#d62728;" x="103.827273" xlink:href="#md1fbf6a9cb" y="244.026353"/>
     <use style="fill:#d62728;stroke:#d62728;" x="145.331405" xlink:href="#md1fbf6a9cb" y="241.52093"/>
     <use style="fill:#d62728;stroke:#d62728;" x="186.835537" xlink:href="#md1fbf6a9cb" y="237.585074"/>
     <use style="fill:#d62728;stroke:#d62728;" x="228.339669" xlink:href="#md1fbf6a9cb" y="229.757284"/>
     <use style="fill:#d62728;stroke:#d62728;" x="269.843802" xlink:href="#md1fbf6a9cb" y="220.115514"/>
     <use style="fill:#d62728;stroke:#d62728;" x="311.347934" xlink:href="#md1fbf6a9cb" y="208.555498"/>
     <use style="fill:#d62728;stroke:#d62728;" x="352.852066" xlink:href="#md1fbf6a9cb" y="195.180252"/>
     <use style="fill:#d62728;stroke:#d62728;" x="394.356198" xlink:href="#md1fbf6a9cb" y="180.63764"/>
     <use style="fill:#d62728;stroke:#d62728;" x="435.860331" xlink:href="#md1fbf6a9cb" y="165.206955"/>
     <use style="fill:#d62728;stroke:#d62728;" x="477.364463" xlink:href="#md1fbf6a9cb" y="149.307577"/>
     <use style="fill:#d62728;stroke:#d62728;" x="518.868595" xlink:href="#md1fbf6a9cb" y="133.117003"/>
     <use style="fill:#d62728;stroke:#d62728;" x="560.372727" xlink:href="#md1fbf6a9cb" y="123.831618"/>
    </g>
   </g>
   <g id="line2d_31">
    <path clip-path="url(#p8f8c6cfeb7)" d="M 103.827273 246.24 
L 145.331405 246.24 
L 186.835537 245.666972 
L 228.339669 244.026353 
L 269.843802 242.00134 
L 311.347934 240.135322 
L 352.852066 238.826026 
L 394.356198 237.991571 
L 435.860331 237.185408 
L 477.364463 237.585074 
L 518.868595 236.792349 
L 560.372727 236.792349 
" style="fill:none;stroke:#9467bd;stroke-linecap:square;stroke-width:1.5;"/>
    <defs>
     <path d="M -4 4 
L 4 4 
L 4 -4 
L -4 -4 
z
" id="m82ca8df141" style="stroke:#9467bd;stroke-linejoin:miter;"/>
    </defs>
    <g clip-path="url(#p8f8c6cfeb7)">
     <use style="fill:#9467bd;stroke:#9467bd;stroke-linejoin:miter;" x="103.827273" xlink:href="#m82ca8df141" y="246.24"/>
     <use style="fill:#9467bd;stroke:#9467bd;stroke-linejoin:miter;" x="145.331405" xlink:href="#m82ca8df141" y="246.24"/>
     <use style="fill:#9467bd;stroke:#9467bd;stroke-linejoin:miter;" x="186.835537" xlink:href="#m82ca8df141" y="245.666972"/>
     <use style="fill:#9467bd;stroke:#9467bd;stroke-linejoin:miter;" x="228.339669" xlink:href="#m82ca8df141" y="244.026353"/>
     <use style="fill:#9467bd;stroke:#9467bd;stroke-linejoin:miter;" x="269.843802" xlink:href="#m82ca8df141" y="242.00134"/>
     <use style="fill:#9467bd;stroke:#9467bd;stroke-linejoin:miter;" x="311.347934" xlink:href="#m82ca8df141" y="240.135322"/>
     <use style="fill:#9467bd;stroke:#9467bd;stroke-linejoin:miter;" x="352.852066" xlink:href="#m82ca8df141" y="238.826026"/>
     <use style="fill:#9467bd;stroke:#9467bd;stroke-linejoin:miter;" x="394.356198" xlink:href="#m82ca8df141" y="237.991571"/>
     <use style="fill:#9467bd;stroke:#9467bd;stroke-linejoin:miter;" x="435.860331" xlink:href="#m82ca8df141" y="237.185408"/>
     <use style="fill:#9467bd;stroke:#9467bd;stroke-linejoin:miter;" x="477.364463" xlink:href="#m82ca8df141" y="237.585074"/>
     <use style="fill:#9467bd;stroke:#9467bd;stroke-linejoin:miter;" x="518.868595" xlink:href="#m82ca8df141" y="236.792349"/>
     <use style="fill:#9467bd;stroke:#9467bd;stroke-linejoin:miter;" x="560.372727" xlink:href="#m82ca8df141" y="236.792349"/>
    </g>
   </g>
   <g id="line2d_32">
    <path clip-path="url(#p8f8c6cfeb7)" d="M 103.827273 244.560747 
L 145.331405 242.491657 
L 186.835537 239.690832 
L 228.339669 235.650712 
L 269.843802 231.879159 
L 311.347934 229.184256 
L 352.852066 227.02099 
L 394.356198 226.008942 
L 435.860331 224.567317 
L 477.364463 223.652607 
L 518.868595 221.922423 
L 560.372727 220.901686 
" style="fill:none;stroke:#8c564b;stroke-linecap:square;stroke-width:1.5;"/>
    <defs>
     <path d="M -0 5.656854 
L 3.394113 0 
L 0 -5.656854 
L -3.394113 -0 
z
" id="m319c04e749" style="stroke:#8c564b;stroke-linejoin:miter;"/>
    </defs>
    <g clip-path="url(#p8f8c6cfeb7)">
     <use style="fill:#8c564b;stroke:#8c564b;stroke-linejoin:miter;" x="103.827273" xlink:href="#m319c04e749" y="244.560747"/>
     <use style="fill:#8c564b;stroke:#8c564b;stroke-linejoin:miter;" x="145.331405" xlink:href="#m319c04e749" y="242.491657"/>
     <use style="fill:#8c564b;stroke:#8c564b;stroke-linejoin:miter;" x="186.835537" xlink:href="#m319c04e749" y="239.690832"/>
     <use style="fill:#8c564b;stroke:#8c564b;stroke-linejoin:miter;" x="228.339669" xlink:href="#m319c04e749" y="235.650712"/>
     <use style="fill:#8c564b;stroke:#8c564b;stroke-linejoin:miter;" x="269.843802" xlink:href="#m319c04e749" y="231.879159"/>
     <use style="fill:#8c564b;stroke:#8c564b;stroke-linejoin:miter;" x="311.347934" xlink:href="#m319c04e749" y="229.184256"/>
     <use style="fill:#8c564b;stroke:#8c564b;stroke-linejoin:miter;" x="352.852066" xlink:href="#m319c04e749" y="227.02099"/>
     <use style="fill:#8c564b;stroke:#8c564b;stroke-linejoin:miter;" x="394.356198" xlink:href="#m319c04e749" y="226.008942"/>
     <use style="fill:#8c564b;stroke:#8c564b;stroke-linejoin:miter;" x="435.860331" xlink:href="#m319c04e749" y="224.567317"/>
     <use style="fill:#8c564b;stroke:#8c564b;stroke-linejoin:miter;" x="477.364463" xlink:href="#m319c04e749" y="223.652607"/>
     <use style="fill:#8c564b;stroke:#8c564b;stroke-linejoin:miter;" x="518.868595" xlink:href="#m319c04e749" y="221.922423"/>
     <use style="fill:#8c564b;stroke:#8c564b;stroke-linejoin:miter;" x="560.372727" xlink:href="#m319c04e749" y="220.901686"/>
    </g>
   </g>
   <g id="patch_3">
    <path d="M 81 256.32 
L 81 34.56 
" style="fill:none;stroke:#000000;stroke-linecap:square;stroke-linejoin:miter;stroke-width:0.8;"/>
   </g>
   <g id="patch_4">
    <path d="M 583.2 256.32 
L 583.2 34.56 
" style="fill:none;stroke:#000000;stroke-linecap:square;stroke-linejoin:miter;stroke-width:0.8;"/>
   </g>
   <g id="patch_5">
    <path d="M 81 256.32 
L 583.2 256.32 
" style="fill:none;stroke:#000000;stroke-linecap:square;stroke-linejoin:miter;stroke-width:0.8;"/>
   </g>
   <g id="patch_6">
    <path d="M 81 34.56 
L 583.2 34.56 
" style="fill:none;stroke:#000000;stroke-linecap:square;stroke-linejoin:miter;stroke-width:0.8;"/>
   </g>
   <g id="legend_1">
    <g id="patch_7">
     <path d="M 88 130.62875 
L 221.501563 130.62875 
Q 223.501563 130.62875 223.501563 128.62875 
L 223.501563 41.56 
Q 223.501563 39.56 221.501563 39.56 
L 88 39.56 
Q 86 39.56 86 41.56 
L 86 128.62875 
Q 86 130.62875 88 130.62875 
z
" style="fill:#ffffff;opacity:0.8;stroke:#cccccc;stroke-linejoin:miter;"/>
    </g>
    <g id="line2d_33">
     <path d="M 90 47.658438 
L 110 47.658438 
" style="fill:none;stroke:#1f77b4;stroke-linecap:square;stroke-width:1.5;"/>
    </g>
    <g id="line2d_34">
     <g>
      <use style="fill:#1f77b4;stroke:#1f77b4;" x="100" xlink:href="#m0b65e25360" y="47.658438"/>
     </g>
    </g>
    <g id="text_16">
     <!-- normal (Total) -->
     <defs>
      <path d="M 54.890625 33.015625 
L 54.890625 0 
L 45.90625 0 
L 45.90625 32.71875 
Q 45.90625 40.484375 42.875 44.328125 
Q 39.84375 48.1875 33.796875 48.1875 
Q 26.515625 48.1875 22.3125 43.546875 
Q 18.109375 38.921875 18.109375 30.90625 
L 18.109375 0 
L 9.078125 0 
L 9.078125 54.6875 
L 18.109375 54.6875 
L 18.109375 46.1875 
Q 21.34375 51.125 25.703125 53.5625 
Q 30.078125 56 35.796875 56 
Q 45.21875 56 50.046875 50.171875 
Q 54.890625 44.34375 54.890625 33.015625 
z
" id="DejaVuSans-110"/>
      <path d="M -0.296875 72.90625 
L 61.375 72.90625 
L 61.375 64.59375 
L 35.5 64.59375 
L 35.5 0 
L 25.59375 0 
L 25.59375 64.59375 
L -0.296875 64.59375 
z
" id="DejaVuSans-84"/>
      <path d="M 18.3125 70.21875 
L 18.3125 54.6875 
L 36.8125 54.6875 
L 36.8125 47.703125 
L 18.3125 47.703125 
L 18.3125 18.015625 
Q 18.3125 11.328125 20.140625 9.421875 
Q 21.96875 7.515625 27.59375 7.515625 
L 36.8125 7.515625 
L 36.8125 0 
L 27.59375 0 
Q 17.1875 0 13.234375 3.875 
Q 9.28125 7.765625 9.28125 18.015625 
L 9.28125 47.703125 
L 2.6875 47.703125 
L 2.6875 54.6875 
L 9.28125 54.6875 
L 9.28125 70.21875 
z
" id="DejaVuSans-116"/>
     </defs>
     <g transform="translate(118 51.158438)scale(0.1 -0.1)">
      <use xlink:href="#DejaVuSans-110"/>
      <use x="63.378906" xlink:href="#DejaVuSans-111"/>
      <use x="124.560547" xlink:href="#DejaVuSans-114"/>
      <use x="163.923828" xlink:href="#DejaVuSans-109"/>
      <use x="261.335938" xlink:href="#DejaVuSans-97"/>
      <use x="322.615234" xlink:href="#DejaVuSans-108"/>
      <use x="350.398438" xlink:href="#DejaVuSans-32"/>
      <use x="382.185547" xlink:href="#DejaVuSans-40"/>
      <use x="421.199219" xlink:href="#DejaVuSans-84"/>
      <use x="465.283203" xlink:href="#DejaVuSans-111"/>
      <use x="526.464844" xlink:href="#DejaVuSans-116"/>
      <use x="565.673828" xlink:href="#DejaVuSans-97"/>
      <use x="626.953125" xlink:href="#DejaVuSans-108"/>
      <use x="654.736328" xlink:href="#DejaVuSans-41"/>
     </g>
    </g>
    <g id="line2d_35">
     <path d="M 90 62.336563 
L 110 62.336563 
" style="fill:none;stroke:#ff7f0e;stroke-linecap:square;stroke-width:1.5;"/>
    </g>
    <g id="line2d_36">
     <g>
      <use style="fill:#ff7f0e;stroke:#ff7f0e;stroke-linejoin:miter;" x="100" xlink:href="#m328234b9d4" y="62.336563"/>
     </g>
    </g>
    <g id="text_17">
     <!-- batch-restore (Total) -->
     <defs>
      <path d="M 48.6875 27.296875 
Q 48.6875 37.203125 44.609375 42.84375 
Q 40.53125 48.484375 33.40625 48.484375 
Q 26.265625 48.484375 22.1875 42.84375 
Q 18.109375 37.203125 18.109375 27.296875 
Q 18.109375 17.390625 22.1875 11.75 
Q 26.265625 6.109375 33.40625 6.109375 
Q 40.53125 6.109375 44.609375 11.75 
Q 48.6875 17.390625 48.6875 27.296875 
z
M 18.109375 46.390625 
Q 20.953125 51.265625 25.265625 53.625 
Q 29.59375 56 35.59375 56 
Q 45.5625 56 51.78125 48.09375 
Q 58.015625 40.1875 58.015625 27.296875 
Q 58.015625 14.40625 51.78125 6.484375 
Q 45.5625 -1.421875 35.59375 -1.421875 
Q 29.59375 -1.421875 25.265625 0.953125 
Q 20.953125 3.328125 18.109375 8.203125 
L 18.109375 0 
L 9.078125 0 
L 9.078125 75.984375 
L 18.109375 75.984375 
z
" id="DejaVuSans-98"/>
      <path d="M 48.78125 52.59375 
L 48.78125 44.1875 
Q 44.96875 46.296875 41.140625 47.34375 
Q 37.3125 48.390625 33.40625 48.390625 
Q 24.65625 48.390625 19.8125 42.84375 
Q 14.984375 37.3125 14.984375 27.296875 
Q 14.984375 17.28125 19.8125 11.734375 
Q 24.65625 6.203125 33.40625 6.203125 
Q 37.3125 6.203125 41.140625 7.25 
Q 44.96875 8.296875 48.78125 10.40625 
L 48.78125 2.09375 
Q 45.015625 0.34375 40.984375 -0.53125 
Q 36.96875 -1.421875 32.421875 -1.421875 
Q 20.0625 -1.421875 12.78125 6.34375 
Q 5.515625 14.109375 5.515625 27.296875 
Q 5.515625 40.671875 12.859375 48.328125 
Q 20.21875 56 33.015625 56 
Q 37.15625 56 41.109375 55.140625 
Q 45.0625 54.296875 48.78125 52.59375 
z
" id="DejaVuSans-99"/>
      <path d="M 54.890625 33.015625 
L 54.890625 0 
L 45.90625 0 
L 45.90625 32.71875 
Q 45.90625 40.484375 42.875 44.328125 
Q 39.84375 48.1875 33.796875 48.1875 
Q 26.515625 48.1875 22.3125 43.546875 
Q 18.109375 38.921875 18.109375 30.90625 
L 18.109375 0 
L 9.078125 0 
L 9.078125 75.984375 
L 18.109375 75.984375 
L 18.109375 46.1875 
Q 21.34375 51.125 25.703125 53.5625 
Q 30.078125 56 35.796875 56 
Q 45.21875 56 50.046875 50.171875 
Q 54.890625 44.34375 54.890625 33.015625 
z
" id="DejaVuSans-104"/>
      <path d="M 4.890625 31.390625 
L 31.203125 31.390625 
L 31.203125 23.390625 
L 4.890625 23.390625 
z
" id="DejaVuSans-45"/>
     </defs>
     <g transform="translate(118 65.836563)scale(0.1 -0.1)">
      <use xlink:href="#DejaVuSans-98"/>
      <use x="63.476562" xlink:href="#DejaVuSans-97"/>
      <use x="124.755859" xlink:href="#DejaVuSans-116"/>
      <use x="163.964844" xlink:href="#DejaVuSans-99"/>
      <use x="218.945312" xlink:href="#DejaVuSans-104"/>
      <use x="282.324219" xlink:href="#DejaVuSans-45"/>
      <use x="318.408203" xlink:href="#DejaVuSans-114"/>
      <use x="357.271484" xlink:href="#DejaVuSans-101"/>
      <use x="418.794922" xlink:href="#DejaVuSans-115"/>
      <use x="470.894531" xlink:href="#DejaVuSans-116"/>
      <use x="510.103516" xlink:href="#DejaVuSans-111"/>
      <use x="571.285156" xlink:href="#DejaVuSans-114"/>
      <use x="610.148438" xlink:href="#DejaVuSans-101"/>
      <use x="671.671875" xlink:href="#DejaVuSans-32"/>
      <use x="703.458984" xlink:href="#DejaVuSans-40"/>
      <use x="742.472656" xlink:href="#DejaVuSans-84"/>
      <use x="786.556641" xlink:href="#DejaVuSans-111"/>
      <use x="847.738281" xlink:href="#DejaVuSans-116"/>
      <use x="886.947266" xlink:href="#DejaVuSans-97"/>
      <use x="948.226562" xlink:href="#DejaVuSans-108"/>
      <use x="976.009766" xlink:href="#DejaVuSans-41"/>
     </g>
    </g>
    <g id="line2d_37">
     <path d="M 90 77.014688 
L 110 77.014688 
" style="fill:none;stroke:#2ca02c;stroke-linecap:square;stroke-width:1.5;"/>
    </g>
    <g id="line2d_38">
     <g>
      <use style="fill:#2ca02c;stroke:#2ca02c;stroke-linejoin:miter;" x="100" xlink:href="#m5d1ebb976f" y="77.014688"/>
     </g>
    </g>
    <g id="text_18">
     <!-- batch-reset (Total) -->
     <g transform="translate(118 80.514688)scale(0.1 -0.1)">
      <use xlink:href="#DejaVuSans-98"/>
      <use x="63.476562" xlink:href="#DejaVuSans-97"/>
      <use x="124.755859" xlink:href="#DejaVuSans-116"/>
      <use x="163.964844" xlink:href="#DejaVuSans-99"/>
      <use x="218.945312" xlink:href="#DejaVuSans-104"/>
      <use x="282.324219" xlink:href="#DejaVuSans-45"/>
      <use x="318.408203" xlink:href="#DejaVuSans-114"/>
      <use x="357.271484" xlink:href="#DejaVuSans-101"/>
      <use x="418.794922" xlink:href="#DejaVuSans-115"/>
      <use x="470.894531" xlink:href="#DejaVuSans-101"/>
      <use x="532.417969" xlink:href="#DejaVuSans-116"/>
      <use x="571.626953" xlink:href="#DejaVuSans-32"/>
      <use x="603.414062" xlink:href="#DejaVuSans-40"/>
      <use x="642.427734" xlink:href="#DejaVuSans-84"/>
      <use x="686.511719" xlink:href="#DejaVuSans-111"/>
      <use x="747.693359" xlink:href="#DejaVuSans-116"/>
      <use x="786.902344" xlink:href="#DejaVuSans-97"/>
      <use x="848.181641" xlink:href="#DejaVuSans-108"/>
      <use x="875.964844" xlink:href="#DejaVuSans-41"/>
     </g>
    </g>
    <g id="line2d_39">
     <path d="M 90 91.692813 
L 110 91.692813 
" style="fill:none;stroke:#d62728;stroke-linecap:square;stroke-width:1.5;"/>
    </g>
    <g id="line2d_40">
     <g>
      <use style="fill:#d62728;stroke:#d62728;" x="100" xlink:href="#md1fbf6a9cb" y="91.692813"/>
     </g>
    </g>
    <g id="text_19">
     <!-- normal (Max) -->
     <defs>
      <path d="M 54.890625 54.6875 
L 35.109375 28.078125 
L 55.90625 0 
L 45.3125 0 
L 29.390625 21.484375 
L 13.484375 0 
L 2.875 0 
L 24.125 28.609375 
L 4.6875 54.6875 
L 15.28125 54.6875 
L 29.78125 35.203125 
L 44.28125 54.6875 
z
" id="DejaVuSans-120"/>
     </defs>
     <g transform="translate(118 95.192813)scale(0.1 -0.1)">
      <use xlink:href="#DejaVuSans-110"/>
      <use x="63.378906" xlink:href="#DejaVuSans-111"/>
      <use x="124.560547" xlink:href="#DejaVuSans-114"/>
      <use x="163.923828" xlink:href="#DejaVuSans-109"/>
      <use x="261.335938" xlink:href="#DejaVuSans-97"/>
      <use x="322.615234" xlink:href="#DejaVuSans-108"/>
      <use x="350.398438" xlink:href="#DejaVuSans-32"/>
      <use x="382.185547" xlink:href="#DejaVuSans-40"/>
      <use x="421.199219" xlink:href="#DejaVuSans-77"/>
      <use x="507.478516" xlink:href="#DejaVuSans-97"/>
      <use x="568.757812" xlink:href="#DejaVuSans-120"/>
      <use x="627.9375" xlink:href="#DejaVuSans-41"/>
     </g>
    </g>
    <g id="line2d_41">
     <path d="M 90 106.370938 
L 110 106.370938 
" style="fill:none;stroke:#9467bd;stroke-linecap:square;stroke-width:1.5;"/>
    </g>
    <g id="line2d_42">
     <g>
      <use style="fill:#9467bd;stroke:#9467bd;stroke-linejoin:miter;" x="100" xlink:href="#m82ca8df141" y="106.370938"/>
     </g>
    </g>
    <g id="text_20">
     <!-- batch-restore (Max) -->
     <g transform="translate(118 109.870938)scale(0.1 -0.1)">
      <use xlink:href="#DejaVuSans-98"/>
      <use x="63.476562" xlink:href="#DejaVuSans-97"/>
      <use x="124.755859" xlink:href="#DejaVuSans-116"/>
      <use x="163.964844" xlink:href="#DejaVuSans-99"/>
      <use x="218.945312" xlink:href="#DejaVuSans-104"/>
      <use x="282.324219" xlink:href="#DejaVuSans-45"/>
      <use x="318.408203" xlink:href="#DejaVuSans-114"/>
      <use x="357.271484" xlink:href="#DejaVuSans-101"/>
      <use x="418.794922" xlink:href="#DejaVuSans-115"/>
      <use x="470.894531" xlink:href="#DejaVuSans-116"/>
      <use x="510.103516" xlink:href="#DejaVuSans-111"/>
      <use x="571.285156" xlink:href="#DejaVuSans-114"/>
      <use x="610.148438" xlink:href="#DejaVuSans-101"/>
      <use x="671.671875" xlink:href="#DejaVuSans-32"/>
      <use x="703.458984" xlink:href="#DejaVuSans-40"/>
      <use x="742.472656" xlink:href="#DejaVuSans-77"/>
      <use x="828.751953" xlink:href="#DejaVuSans-97"/>
      <use x="890.03125" xlink:href="#DejaVuSans-120"/>
      <use x="949.210938" xlink:href="#DejaVuSans-41"/>
     </g>
    </g>
    <g id="line2d_43">
     <path d="M 90 121.049063 
L 110 121.049063 
" style="fill:none;stroke:#8c564b;stroke-linecap:square;stroke-width:1.5;"/>
    </g>
    <g id="line2d_44">
     <g>
      <use style="fill:#8c564b;stroke:#8c564b;stroke-linejoin:miter;" x="100" xlink:href="#m319c04e749" y="121.049063"/>
     </g>
    </g>
    <g id="text_21">
     <!-- batch-reset (Max) -->
     <g transform="translate(118 124.549063)scale(0.1 -0.1)">
      <use xlink:href="#DejaVuSans-98"/>
      <use x="63.476562" xlink:href="#DejaVuSans-97"/>
      <use x="124.755859" xlink:href="#DejaVuSans-116"/>
      <use x="163.964844" xlink:href="#DejaVuSans-99"/>
      <use x="218.945312" xlink:href="#DejaVuSans-104"/>
      <use x="282.324219" xlink:href="#DejaVuSans-45"/>
      <use x="318.408203" xlink:href="#DejaVuSans-114"/>
      <use x="357.271484" xlink:href="#DejaVuSans-101"/>
      <use x="418.794922" xlink:href="#DejaVuSans-115"/>
      <use x="470.894531" xlink:href="#DejaVuSans-101"/>
      <use x="532.417969" xlink:href="#DejaVuSans-116"/>
      <use x="571.626953" xlink:href="#DejaVuSans-32"/>
      <use x="603.414062" xlink:href="#DejaVuSans-40"/>
      <use x="642.427734" xlink:href="#DejaVuSans-77"/>
      <use x="728.707031" xlink:href="#DejaVuSans-97"/>
      <use x="789.986328" xlink:href="#DejaVuSans-120"/>
      <use x="849.166016" xlink:href="#DejaVuSans-41"/>
     </g>
    </g>
   </g>
  </g>
 </g>
 <defs>
  <clipPath id="p8f8c6cfeb7">
   <rect height="221.76" width="502.2" x="81" y="34.56"/>
  </clipPath>
 </defs>
</svg>
