<?xml version="1.0" encoding="UTF-8" standalone="no"?>
<!DOCTYPE svg PUBLIC "-//W3C//DTD SVG 1.1//EN" "http://www.w3.org/Graphics/SVG/1.1/DTD/svg11.dtd">
<svg xmlns="http://www.w3.org/2000/svg" xmlns:xlink="http://www.w3.org/1999/xlink" version="1.1" width="424.8pt" height="360pt" viewBox="0 0 424.8 360">
<g enable-background="new">
<clipPath id="cp0">
<path transform="matrix(1,0,0,-1,-286.8,468)" d="M 0 0 L 960 0 L 960 540 L 0 540 Z "/>
</clipPath>
<g clip-path="url(#cp0)">
<clipPath id="cp1">
<path transform="matrix(1,0,0,-1,-286.8,468)" d="M 0 .00001206994 L 959.76 .00001206994 L 959.76 540 L 0 540 Z "/>
</clipPath>
<g clip-path="url(#cp1)">
<path transform="matrix(1,0,0,-1,-286.8,468)" d="M 0 540 L 959.76 540 L 959.76 .00001206994 L 0 .00001206994 Z " fill="#ffffff"/>
</g>
<path transform="matrix(1,0,0,-1,-286.8,468)" d="M 0 540 L 960 540 L 960 .0000140816 L 0 .0000140816 Z " fill="#ffffff"/>
<path transform="matrix(.00007874016,0,0,.00007874016,10.481415,11.356415)" stroke-width="19050" stroke-linecap="butt" stroke-miterlimit="8" stroke-linejoin="miter" fill="none" stroke="#000000" d="M 0 0 L 1 4304765 "/>
<path transform="matrix(.00007874016,0,0,-.00007874016,10.081207,349.6912)" stroke-width="19050" stroke-linecap="butt" stroke-miterlimit="8" stroke-linejoin="miter" fill="none" stroke="#000000" d="M 0 0 L 4343331 12435 "/>
<path transform="matrix(.00007874016,0,0,.00007874016,-16.2565,175.73612)" stroke-width="28575" stroke-linecap="butt" stroke-miterlimit="8" stroke-linejoin="miter" fill="none" stroke="#ed7d31" d="M 985412 0 C 1368376 -35541 1718159 171222 1827485 441419 C 2024511 722833 2057359 1158943 1814246 1415224 "/>
<path transform="matrix(.00007874016,0,0,.00007874016,-48.14868,114.64911)" stroke-width="28575" stroke-linecap="butt" stroke-miterlimit="8" stroke-linejoin="miter" fill="none" stroke="#548235" d="M 1610993 144 C 2064948 -24230 2544724 280514 2840841 655103 C 3115953 925186 3238216 1399158 3164731 1957343 "/>
<path transform="matrix(.00007874016,0,0,.00007874016,-43.141984,62.996095)" stroke-width="28575" stroke-linecap="butt" stroke-miterlimit="8" stroke-linejoin="miter" fill="none" stroke="#44546a" d="M 1986411 136 C 2610801 -53915 3101724 86692 3435452 655195 C 3726961 1087341 3935260 1598392 3909951 2184638 "/>
<path transform="matrix(1,0,0,-1,-286.8,468)" d="M 366.8315 257.7647 C 366.8315 259.7284 368.2244 261.3203 369.9426 261.3203 C 371.6608 261.3203 373.0537 259.7284 373.0537 257.7647 C 373.0537 255.801 371.6608 254.2091 369.9426 254.2091 C 368.2244 254.2091 366.8315 255.801 366.8315 257.7647 Z " fill="#942092" fill-rule="evenodd"/>
<path transform="matrix(.00007874016,0,0,.00007874016,80.031528,206.67969)" stroke-width="12700" stroke-linecap="butt" stroke-miterlimit="8" stroke-linejoin="miter" fill="none" stroke="#942092" d="M 0 45155.5 C 0 20216.81 17689.68 0 39511 0 C 61332.32 0 79022 20216.81 79022 45155.5 C 79022 70094.19 61332.32 90311 39511 90311 C 17689.68 90311 0 70094.19 0 45155.5 Z "/>
<path transform="matrix(1,0,0,-1,-286.8,468)" d="M 371.0676 275.8388 C 371.0676 277.8025 372.4605 279.3943 374.1787 279.3943 C 375.8969 279.3943 377.2898 277.8025 377.2898 275.8388 C 377.2898 273.8751 375.8969 272.2832 374.1787 272.2832 C 372.4605 272.2832 371.0676 273.8751 371.0676 275.8388 Z " fill="#942092" fill-rule="evenodd"/>
<path transform="matrix(.00007874016,0,0,.00007874016,84.26761,188.60572)" stroke-width="12700" stroke-linecap="butt" stroke-miterlimit="8" stroke-linejoin="miter" fill="none" stroke="#942092" d="M 0 45155.5 C 0 20216.81 17689.68 0 39511 0 C 61332.32 0 79022 20216.81 79022 45155.5 C 79022 70094.19 61332.32 90311 39511 90311 C 17689.68 90311 0 70094.19 0 45155.5 Z "/>
<path transform="matrix(1,0,0,-1,-286.8,468)" d="M 391.3375 258.5896 C 391.3375 260.5533 392.7304 262.1452 394.4486 262.1452 C 396.1668 262.1452 397.5597 260.5533 397.5597 258.5896 C 397.5597 256.626 396.1668 255.0341 394.4486 255.0341 C 392.7304 255.0341 391.3375 256.626 391.3375 258.5896 Z " fill="#942092" fill-rule="evenodd"/>
<path transform="matrix(.00007874016,0,0,.00007874016,104.537509,205.8548)" stroke-width="12700" stroke-linecap="butt" stroke-miterlimit="8" stroke-linejoin="miter" fill="none" stroke="#942092" d="M 0 45155.5 C 0 20216.81 17689.68 0 39511 0 C 61332.32 0 79022 20216.81 79022 45155.5 C 79022 70094.19 61332.32 90311 39511 90311 C 17689.68 90311 0 70094.19 0 45155.5 Z "/>
<path transform="matrix(1,0,0,-1,-286.8,468)" d="M 383.9456 238.0104 C 383.9456 239.9741 385.3385 241.566 387.0567 241.566 C 388.7749 241.566 390.1678 239.9741 390.1678 238.0104 C 390.1678 236.0468 388.7749 234.4549 387.0567 234.4549 C 385.3385 234.4549 383.9456 236.0468 383.9456 238.0104 Z " fill="#942092" fill-rule="evenodd"/>
<path transform="matrix(.00007874016,0,0,.00007874016,97.1456,226.434)" stroke-width="12700" stroke-linecap="butt" stroke-miterlimit="8" stroke-linejoin="miter" fill="none" stroke="#942092" d="M 0 45155.5 C 0 20216.81 17689.68 0 39511 0 C 61332.32 0 79022 20216.81 79022 45155.5 C 79022 70094.19 61332.32 90311 39511 90311 C 17689.68 90311 0 70094.19 0 45155.5 Z "/>
<path transform="matrix(1,0,0,-1,-286.8,468)" d="M 403.2755 236.6327 C 403.2755 238.5964 404.6684 240.1883 406.3866 240.1883 C 408.1048 240.1883 409.4977 238.5964 409.4977 236.6327 C 409.4977 234.669 408.1048 233.0772 406.3866 233.0772 C 404.6684 233.0772 403.2755 234.669 403.2755 236.6327 Z " fill="#942092" fill-rule="evenodd"/>
<path transform="matrix(.00007874016,0,0,.00007874016,116.475528,227.8117)" stroke-width="12700" stroke-linecap="butt" stroke-miterlimit="8" stroke-linejoin="miter" fill="none" stroke="#942092" d="M 0 45155.5 C 0 20216.81 17689.68 0 39511 0 C 61332.32 0 79022 20216.81 79022 45155.5 C 79022 70094.19 61332.32 90311 39511 90311 C 17689.68 90311 0 70094.19 0 45155.5 Z "/>
<path transform="matrix(1,0,0,-1,-286.8,468)" d="M 369.5588 300.6653 C 369.5588 302.629 370.9517 304.2209 372.6699 304.2209 C 374.3881 304.2209 375.781 302.629 375.781 300.6653 C 375.781 298.7016 374.3881 297.1098 372.6699 297.1098 C 370.9517 297.1098 369.5588 298.7016 369.5588 300.6653 Z " fill="#ed7d31" fill-rule="evenodd"/>
<path transform="matrix(.00007874016,0,0,.00007874016,82.75882,163.77912)" stroke-width="12700" stroke-linecap="butt" stroke-miterlimit="8" stroke-linejoin="miter" fill="none" stroke="#ed7d31" d="M 0 45155.5 C 0 20216.81 17689.68 0 39511 0 C 61332.32 0 79022 20216.81 79022 45155.5 C 79022 70094.19 61332.32 90311 39511 90311 C 17689.68 90311 0 70094.19 0 45155.5 Z "/>
<path transform="matrix(1,0,0,-1,-286.8,468)" d="M 386.3245 316.1892 C 386.3245 318.1529 387.7174 319.7447 389.4356 319.7447 C 391.1538 319.7447 392.5467 318.1529 392.5467 316.1892 C 392.5467 314.2255 391.1538 312.6336 389.4356 312.6336 C 387.7174 312.6336 386.3245 314.2255 386.3245 316.1892 Z " fill="#ed7d31" fill-rule="evenodd"/>
<path transform="matrix(.00007874016,0,0,.00007874016,99.524509,148.25531)" stroke-width="12700" stroke-linecap="butt" stroke-miterlimit="8" stroke-linejoin="miter" fill="none" stroke="#ed7d31" d="M 0 45155.5 C 0 20216.81 17689.68 0 39511 0 C 61332.32 0 79022 20216.81 79022 45155.5 C 79022 70094.19 61332.32 90311 39511 90311 C 17689.68 90311 0 70094.19 0 45155.5 Z "/>
<path transform="matrix(1,0,0,-1,-286.8,468)" d="M 388.1802 337.3544 C 388.1802 339.3181 389.5731 340.9099 391.2913 340.9099 C 393.0095 340.9099 394.4024 339.3181 394.4024 337.3544 C 394.4024 335.3907 393.0095 333.7988 391.2913 333.7988 C 389.5731 333.7988 388.1802 335.3907 388.1802 337.3544 Z " fill="#ed7d31" fill-rule="evenodd"/>
<path transform="matrix(.00007874016,0,0,.00007874016,101.38022,127.09009)" stroke-width="12700" stroke-linecap="butt" stroke-miterlimit="8" stroke-linejoin="miter" fill="none" stroke="#ed7d31" d="M 0 45155.5 C 0 20216.81 17689.68 0 39511 0 C 61332.32 0 79022 20216.81 79022 45155.5 C 79022 70094.19 61332.32 90311 39511 90311 C 17689.68 90311 0 70094.19 0 45155.5 Z "/>
<path transform="matrix(1,0,0,-1,-286.8,468)" d="M 402.0571 285.5062 C 402.0571 287.4698 403.45 289.0617 405.1682 289.0617 C 406.8864 289.0617 408.2793 287.4698 408.2793 285.5062 C 408.2793 283.5425 406.8864 281.9506 405.1682 281.9506 C 403.45 281.9506 402.0571 283.5425 402.0571 285.5062 Z " fill="#ed7d31" fill-rule="evenodd"/>
<path transform="matrix(.00007874016,0,0,.00007874016,115.25711,178.9383)" stroke-width="12700" stroke-linecap="butt" stroke-miterlimit="8" stroke-linejoin="miter" fill="none" stroke="#ed7d31" d="M 0 45155.5 C 0 20216.81 17689.68 0 39511 0 C 61332.32 0 79022 20216.81 79022 45155.5 C 79022 70094.19 61332.32 90311 39511 90311 C 17689.68 90311 0 70094.19 0 45155.5 Z "/>
<path transform="matrix(1,0,0,-1,-286.8,468)" d="M 414.7757 295.8194 C 414.7757 297.7831 416.1686 299.375 417.8868 299.375 C 419.6051 299.375 420.9979 297.7831 420.9979 295.8194 C 420.9979 293.8557 419.6051 292.2639 417.8868 292.2639 C 416.1686 292.2639 414.7757 293.8557 414.7757 295.8194 Z " fill="#ed7d31" fill-rule="evenodd"/>
<path transform="matrix(.00007874016,0,0,.00007874016,127.97571,168.625)" stroke-width="12700" stroke-linecap="butt" stroke-miterlimit="8" stroke-linejoin="miter" fill="none" stroke="#ed7d31" d="M 0 45155.5 C 0 20216.81 17689.68 0 39511 0 C 61332.32 0 79022 20216.81 79022 45155.5 C 79022 70094.19 61332.32 90311 39511 90311 C 17689.68 90311 0 70094.19 0 45155.5 Z "/>
<path transform="matrix(1,0,0,-1,-286.8,468)" d="M 427.6277 312.6337 C 427.6277 314.5973 429.0206 316.1892 430.7388 316.1892 C 432.457 316.1892 433.8499 314.5973 433.8499 312.6337 C 433.8499 310.67 432.457 309.0781 430.7388 309.0781 C 429.0206 309.0781 427.6277 310.67 427.6277 312.6337 Z " fill="#ed7d31" fill-rule="evenodd"/>
<path transform="matrix(.00007874016,0,0,.00007874016,140.8277,151.81079)" stroke-width="12700" stroke-linecap="butt" stroke-miterlimit="8" stroke-linejoin="miter" fill="none" stroke="#ed7d31" d="M 0 45155.5 C 0 20216.81 17689.68 0 39511 0 C 61332.32 0 79022 20216.81 79022 45155.5 C 79022 70094.19 61332.32 90311 39511 90311 C 17689.68 90311 0 70094.19 0 45155.5 Z "/>
<path transform="matrix(1,0,0,-1,-286.8,468)" d="M 422.0595 256.2593 C 422.0595 258.223 423.4524 259.8149 425.1706 259.8149 C 426.8888 259.8149 428.2817 258.223 428.2817 256.2593 C 428.2817 254.2957 426.8888 252.7038 425.1706 252.7038 C 423.4524 252.7038 422.0595 254.2957 422.0595 256.2593 Z " fill="#ed7d31" fill-rule="evenodd"/>
<path transform="matrix(.00007874016,0,0,.00007874016,135.25952,208.18509)" stroke-width="12700" stroke-linecap="butt" stroke-miterlimit="8" stroke-linejoin="miter" fill="none" stroke="#ed7d31" d="M 0 45155.5 C 0 20216.81 17689.68 0 39511 0 C 61332.32 0 79022 20216.81 79022 45155.5 C 79022 70094.19 61332.32 90311 39511 90311 C 17689.68 90311 0 70094.19 0 45155.5 Z "/>
<path transform="matrix(1,0,0,-1,-286.8,468)" d="M 449.7672 288.9091 C 449.7672 290.8728 451.1601 292.4646 452.8783 292.4646 C 454.5965 292.4646 455.9894 290.8728 455.9894 288.9091 C 455.9894 286.9454 454.5965 285.3535 452.8783 285.3535 C 451.1601 285.3535 449.7672 286.9454 449.7672 288.9091 Z " fill="#ed7d31" fill-rule="evenodd"/>
<path transform="matrix(.00007874016,0,0,.00007874016,162.96723,175.5354)" stroke-width="12700" stroke-linecap="butt" stroke-miterlimit="8" stroke-linejoin="miter" fill="none" stroke="#ed7d31" d="M 0 45155.5 C 0 20216.81 17689.68 0 39511 0 C 61332.32 0 79022 20216.81 79022 45155.5 C 79022 70094.19 61332.32 90311 39511 90311 C 17689.68 90311 0 70094.19 0 45155.5 Z "/>
<path transform="matrix(1,0,0,-1,-286.8,468)" d="M 442.2859 265.703 C 442.2859 267.6667 443.6788 269.2586 445.397 269.2586 C 447.1152 269.2586 448.5081 267.6667 448.5081 265.703 C 448.5081 263.7394 447.1152 262.1475 445.397 262.1475 C 443.6788 262.1475 442.2859 263.7394 442.2859 265.703 Z " fill="#ed7d31" fill-rule="evenodd"/>
<path transform="matrix(.00007874016,0,0,.00007874016,155.4859,198.7414)" stroke-width="12700" stroke-linecap="butt" stroke-miterlimit="8" stroke-linejoin="miter" fill="none" stroke="#ed7d31" d="M 0 45155.5 C 0 20216.81 17689.68 0 39511 0 C 61332.32 0 79022 20216.81 79022 45155.5 C 79022 70094.19 61332.32 90311 39511 90311 C 17689.68 90311 0 70094.19 0 45155.5 Z "/>
<path transform="matrix(1,0,0,-1,-286.8,468)" d="M 408.5535 360.462 C 408.5535 362.4257 409.9464 364.0176 411.6646 364.0176 C 413.3828 364.0176 414.7757 362.4257 414.7757 360.462 C 414.7757 358.4983 413.3828 356.9065 411.6646 356.9065 C 409.9464 356.9065 408.5535 358.4983 408.5535 360.462 Z " fill="#548235" fill-rule="evenodd"/>
<path transform="matrix(.00007874016,0,0,.00007874016,121.75351,103.98239)" stroke-width="12700" stroke-linecap="butt" stroke-miterlimit="8" stroke-linejoin="miter" fill="none" stroke="#548235" d="M 0 45155.5 C 0 20216.81 17689.68 0 39511 0 C 61332.32 0 79022 20216.81 79022 45155.5 C 79022 70094.19 61332.32 90311 39511 90311 C 17689.68 90311 0 70094.19 0 45155.5 Z "/>
<path transform="matrix(1,0,0,-1,-286.8,468)" d="M 398.946 377.2762 C 398.946 379.2399 400.3389 380.8317 402.0571 380.8317 C 403.7753 380.8317 405.1682 379.2399 405.1682 377.2762 C 405.1682 375.3125 403.7753 373.7206 402.0571 373.7206 C 400.3389 373.7206 398.946 375.3125 398.946 377.2762 Z " fill="#548235" fill-rule="evenodd"/>
<path transform="matrix(.00007874016,0,0,.00007874016,112.14603,87.168308)" stroke-width="12700" stroke-linecap="butt" stroke-miterlimit="8" stroke-linejoin="miter" fill="none" stroke="#548235" d="M 0 45155.5 C 0 20216.81 17689.68 0 39511 0 C 61332.32 0 79022 20216.81 79022 45155.5 C 79022 70094.19 61332.32 90311 39511 90311 C 17689.68 90311 0 70094.19 0 45155.5 Z "/>
<path transform="matrix(1,0,0,-1,-286.8,468)" d="M 422.0595 387.3235 C 422.0595 389.2872 423.4524 390.8791 425.1706 390.8791 C 426.8888 390.8791 428.2817 389.2872 428.2817 387.3235 C 428.2817 385.3598 426.8888 383.768 425.1706 383.768 C 423.4524 383.768 422.0595 385.3598 422.0595 387.3235 Z " fill="#548235" fill-rule="evenodd"/>
<path transform="matrix(.00007874016,0,0,.00007874016,135.25952,77.12091)" stroke-width="12700" stroke-linecap="butt" stroke-miterlimit="8" stroke-linejoin="miter" fill="none" stroke="#548235" d="M 0 45155.5 C 0 20216.81 17689.68 0 39511 0 C 61332.32 0 79022 20216.81 79022 45155.5 C 79022 70094.19 61332.32 90311 39511 90311 C 17689.68 90311 0 70094.19 0 45155.5 Z "/>
<path transform="matrix(1,0,0,-1,-286.8,468)" d="M 443.0586 337.3544 C 443.0586 339.3181 444.4515 340.9099 446.1697 340.9099 C 447.8879 340.9099 449.2808 339.3181 449.2808 337.3544 C 449.2808 335.3907 447.8879 333.7988 446.1697 333.7988 C 444.4515 333.7988 443.0586 335.3907 443.0586 337.3544 Z " fill="#548235" fill-rule="evenodd"/>
<path transform="matrix(.00007874016,0,0,.00007874016,156.2586,127.09009)" stroke-width="12700" stroke-linecap="butt" stroke-miterlimit="8" stroke-linejoin="miter" fill="none" stroke="#548235" d="M 0 45155.5 C 0 20216.81 17689.68 0 39511 0 C 61332.32 0 79022 20216.81 79022 45155.5 C 79022 70094.19 61332.32 90311 39511 90311 C 17689.68 90311 0 70094.19 0 45155.5 Z "/>
<path transform="matrix(1,0,0,-1,-286.8,468)" d="M 455.9894 350.2828 C 455.9894 352.2465 457.3822 353.8383 459.1005 353.8383 C 460.8187 353.8383 462.2116 352.2465 462.2116 350.2828 C 462.2116 348.3191 460.8187 346.7272 459.1005 346.7272 C 457.3822 346.7272 455.9894 348.3191 455.9894 350.2828 Z " fill="#548235" fill-rule="evenodd"/>
<path transform="matrix(.00007874016,0,0,.00007874016,169.18943,114.16171)" stroke-width="12700" stroke-linecap="butt" stroke-miterlimit="8" stroke-linejoin="miter" fill="none" stroke="#548235" d="M 0 45155.5 C 0 20216.81 17689.68 0 39511 0 C 61332.32 0 79022 20216.81 79022 45155.5 C 79022 70094.19 61332.32 90311 39511 90311 C 17689.68 90311 0 70094.19 0 45155.5 Z "/>
<path transform="matrix(1,0,0,-1,-286.8,468)" d="M 470.1028 362.2397 C 470.1028 364.2034 471.4957 365.7953 473.2139 365.7953 C 474.9321 365.7953 476.325 364.2034 476.325 362.2397 C 476.325 360.276 474.9321 358.6842 473.2139 358.6842 C 471.4957 358.6842 470.1028 360.276 470.1028 362.2397 Z " fill="#548235" fill-rule="evenodd"/>
<path transform="matrix(.00007874016,0,0,.00007874016,183.30283,102.20471)" stroke-width="12700" stroke-linecap="butt" stroke-miterlimit="8" stroke-linejoin="miter" fill="none" stroke="#548235" d="M 0 45155.5 C 0 20216.81 17689.68 0 39511 0 C 61332.32 0 79022 20216.81 79022 45155.5 C 79022 70094.19 61332.32 90311 39511 90311 C 17689.68 90311 0 70094.19 0 45155.5 Z "/>
<path transform="matrix(1,0,0,-1,-286.8,468)" d="M 480.5535 288.462 C 480.5535 290.4257 481.9464 292.0176 483.6646 292.0176 C 485.3828 292.0176 486.7757 290.4257 486.7757 288.462 C 486.7757 286.4983 485.3828 284.9065 483.6646 284.9065 C 481.9464 284.9065 480.5535 286.4983 480.5535 288.462 Z " fill="#548235" fill-rule="evenodd"/>
<path transform="matrix(.00007874016,0,0,.00007874016,193.75351,175.98239)" stroke-width="12700" stroke-linecap="butt" stroke-miterlimit="8" stroke-linejoin="miter" fill="none" stroke="#548235" d="M 0 45155.5 C 0 20216.81 17689.68 0 39511 0 C 61332.32 0 79022 20216.81 79022 45155.5 C 79022 70094.19 61332.32 90311 39511 90311 C 17689.68 90311 0 70094.19 0 45155.5 Z "/>
<path transform="matrix(1,0,0,-1,-286.8,468)" d="M 502.3689 284.805 C 502.3689 286.7687 503.7618 288.3606 505.48 288.3606 C 507.1982 288.3606 508.5911 286.7687 508.5911 284.805 C 508.5911 282.8413 507.1982 281.2495 505.48 281.2495 C 503.7618 281.2495 502.3689 282.8413 502.3689 284.805 Z " fill="#548235" fill-rule="evenodd"/>
<path transform="matrix(.00007874016,0,0,.00007874016,215.56891,179.6394)" stroke-width="12700" stroke-linecap="butt" stroke-miterlimit="8" stroke-linejoin="miter" fill="none" stroke="#548235" d="M 0 45155.5 C 0 20216.81 17689.68 0 39511 0 C 61332.32 0 79022 20216.81 79022 45155.5 C 79022 70094.19 61332.32 90311 39511 90311 C 17689.68 90311 0 70094.19 0 45155.5 Z "/>
<path transform="matrix(1,0,0,-1,-286.8,468)" d="M 513.0632 314.1561 C 513.0632 316.1198 514.4561 317.7117 516.1743 317.7117 C 517.8925 317.7117 519.2854 316.1198 519.2854 314.1561 C 519.2854 312.1924 517.8925 310.6006 516.1743 310.6006 C 514.4561 310.6006 513.0632 312.1924 513.0632 314.1561 Z " fill="#548235" fill-rule="evenodd"/>
<path transform="matrix(.00007874016,0,0,.00007874016,226.26319,150.2883)" stroke-width="12700" stroke-linecap="butt" stroke-miterlimit="8" stroke-linejoin="miter" fill="none" stroke="#548235" d="M 0 45155.5 C 0 20216.81 17689.68 0 39511 0 C 61332.32 0 79022 20216.81 79022 45155.5 C 79022 70094.19 61332.32 90311 39511 90311 C 17689.68 90311 0 70094.19 0 45155.5 Z "/>
<path transform="matrix(1,0,0,-1,-286.8,468)" d="M 495.3101 252.1449 C 495.3101 254.1086 496.703 255.7005 498.4212 255.7005 C 500.1394 255.7005 501.5323 254.1086 501.5323 252.1449 C 501.5323 250.1812 500.1394 248.5894 498.4212 248.5894 C 496.703 248.5894 495.3101 250.1812 495.3101 252.1449 Z " fill="#548235" fill-rule="evenodd"/>
<path transform="matrix(.00007874016,0,0,.00007874016,208.5101,212.2995)" stroke-width="12700" stroke-linecap="butt" stroke-miterlimit="8" stroke-linejoin="miter" fill="none" stroke="#548235" d="M 0 45155.5 C 0 20216.81 17689.68 0 39511 0 C 61332.32 0 79022 20216.81 79022 45155.5 C 79022 70094.19 61332.32 90311 39511 90311 C 17689.68 90311 0 70094.19 0 45155.5 Z "/>
<path transform="matrix(1,0,0,-1,-286.8,468)" d="M 515.827 265.8059 C 515.827 267.7695 517.2199 269.3614 518.9381 269.3614 C 520.6563 269.3614 522.0492 267.7695 522.0492 265.8059 C 522.0492 263.8422 520.6563 262.2503 518.9381 262.2503 C 517.2199 262.2503 515.827 263.8422 515.827 265.8059 Z " fill="#548235" fill-rule="evenodd"/>
<path transform="matrix(.00007874016,0,0,.00007874016,229.02704,198.63861)" stroke-width="12700" stroke-linecap="butt" stroke-miterlimit="8" stroke-linejoin="miter" fill="none" stroke="#548235" d="M 0 45155.5 C 0 20216.81 17689.68 0 39511 0 C 61332.32 0 79022 20216.81 79022 45155.5 C 79022 70094.19 61332.32 90311 39511 90311 C 17689.68 90311 0 70094.19 0 45155.5 Z "/>
<path transform="matrix(1,0,0,-1,-286.8,468)" d="M 533.2978 255.3364 C 533.2978 257.3001 534.6907 258.892 536.4089 258.892 C 538.1271 258.892 539.52 257.3001 539.52 255.3364 C 539.52 253.3728 538.1271 251.7809 536.4089 251.7809 C 534.6907 251.7809 533.2978 253.3728 533.2978 255.3364 Z " fill="#548235" fill-rule="evenodd"/>
<path transform="matrix(.00007874016,0,0,.00007874016,246.4978,209.108)" stroke-width="12700" stroke-linecap="butt" stroke-miterlimit="8" stroke-linejoin="miter" fill="none" stroke="#548235" d="M 0 45155.5 C 0 20216.81 17689.68 0 39511 0 C 61332.32 0 79022 20216.81 79022 45155.5 C 79022 70094.19 61332.32 90311 39511 90311 C 17689.68 90311 0 70094.19 0 45155.5 Z "/>
<path transform="matrix(1,0,0,-1,-286.8,468)" d="M 465.0859 313.3256 C 465.0859 315.2892 466.4788 316.8811 468.197 316.8811 C 469.9152 316.8811 471.3081 315.2892 471.3081 313.3256 C 471.3081 311.3619 469.9152 309.77 468.197 309.77 C 466.4788 309.77 465.0859 311.3619 465.0859 313.3256 Z " fill="#548235" fill-rule="evenodd"/>
<path transform="matrix(.00007874016,0,0,.00007874016,178.28592,151.1189)" stroke-width="12700" stroke-linecap="butt" stroke-miterlimit="8" stroke-linejoin="miter" fill="none" stroke="#548235" d="M 0 45155.5 C 0 20216.81 17689.68 0 39511 0 C 61332.32 0 79022 20216.81 79022 45155.5 C 79022 70094.19 61332.32 90311 39511 90311 C 17689.68 90311 0 70094.19 0 45155.5 Z "/>
<path transform="matrix(1,0,0,-1,-286.8,468)" d="M 473.2139 333.5845 C 473.2139 335.5481 474.6068 337.14 476.325 337.14 C 478.0432 337.14 479.4361 335.5481 479.4361 333.5845 C 479.4361 331.6208 478.0432 330.0289 476.325 330.0289 C 474.6068 330.0289 473.2139 331.6208 473.2139 333.5845 Z " fill="#548235" fill-rule="evenodd"/>
<path transform="matrix(.00007874016,0,0,.00007874016,186.41391,130.85999)" stroke-width="12700" stroke-linecap="butt" stroke-miterlimit="8" stroke-linejoin="miter" fill="none" stroke="#548235" d="M 0 45155.5 C 0 20216.81 17689.68 0 39511 0 C 61332.32 0 79022 20216.81 79022 45155.5 C 79022 70094.19 61332.32 90311 39511 90311 C 17689.68 90311 0 70094.19 0 45155.5 Z "/>
<path transform="matrix(1,0,0,-1,-286.8,468)" d="M 494.2764 345.4563 C 494.2764 347.4199 495.6692 349.0118 497.3875 349.0118 C 499.1057 349.0118 500.4986 347.4199 500.4986 345.4563 C 500.4986 343.4926 499.1057 341.9007 497.3875 341.9007 C 495.6692 341.9007 494.2764 343.4926 494.2764 345.4563 Z " fill="#548235" fill-rule="evenodd"/>
<path transform="matrix(.00007874016,0,0,.00007874016,207.47641,118.98819)" stroke-width="12700" stroke-linecap="butt" stroke-miterlimit="8" stroke-linejoin="miter" fill="none" stroke="#548235" d="M 0 45155.5 C 0 20216.81 17689.68 0 39511 0 C 61332.32 0 79022 20216.81 79022 45155.5 C 79022 70094.19 61332.32 90311 39511 90311 C 17689.68 90311 0 70094.19 0 45155.5 Z "/>
<path transform="matrix(1,0,0,-1,-286.8,468)" d="M 375.0315 302.9888 L 383.5855 310.249 L 383.2619 310.6302 L 374.708 303.3701 Z M 384.6026 307.5052 L 387.2358 313.675 L 380.72 312.0797 Z " fill="#ed7d31"/>
<path transform="matrix(1,0,0,-1,-286.8,468)" d="M 389.6834 319.712 L 390.8846 328.8091 L 390.389 328.8746 L 389.1877 319.7775 Z M 393.4801 327.4577 L 391.2913 333.7988 L 387.5317 328.2432 Z " fill="#ed7d31"/>
<path transform="matrix(1,0,0,-1,-286.8,468)" d="M 407.5021 287.8093 L 411.6007 290.4131 L 411.3326 290.8351 L 407.234 288.2313 Z M 412.2313 287.5557 L 415.687 293.3053 L 409.0139 292.6201 Z " fill="#ed7d31"/>
<path transform="matrix(1,0,0,-1,-286.8,468)" d="M 420.2898 298.1879 L 425.8282 305.9107 L 425.4219 306.2021 L 419.8835 298.4792 Z M 427.4802 303.4954 L 428.539 310.1195 L 422.6044 306.9921 Z " fill="#ed7d31"/>
<path transform="matrix(1,0,0,-1,-286.8,468)" d="M 427.4377 258.5327 L 438.4483 261.6045 L 438.3139 262.0861 L 427.3033 259.0143 Z M 438.224 258.6869 L 443.1972 263.1889 L 436.6117 264.4662 Z " fill="#ed7d31"/>
<path transform="matrix(1,0,0,-1,-286.8,468)" d="M 445.6359 269.185 L 449.4447 281.5431 L 448.9669 281.6904 L 445.1581 269.3322 Z M 451.7782 279.7775 L 450.6784 286.395 L 446.0443 281.5447 Z " fill="#ed7d31"/>
<path transform="matrix(1,0,0,-1,-286.8,468)" d="M 409.2361 362.8751 L 406.0491 370.0876 L 406.5065 370.2897 L 409.6935 363.0772 Z M 403.9379 368.0614 L 404.2569 374.762 L 409.426 370.4865 Z " fill="#548235"/>
<path transform="matrix(1,0,0,-1,-286.8,468)" d="M 404.3217 379.5489 L 418.2062 383.2727 L 418.0767 383.7556 L 404.1922 380.0318 Z M 417.9527 380.3575 L 422.9708 384.8094 L 416.3985 386.1527 Z " fill="#548235"/>
<path transform="matrix(1,0,0,-1,-286.8,468)" d="M 448.5394 339.6851 L 453.4019 344.188 L 453.0622 344.5548 L 448.1997 340.0519 Z M 454.5367 341.4908 L 456.9006 347.7687 L 450.46 345.8931 Z " fill="#548235"/>
<path transform="matrix(1,0,0,-1,-286.8,468)" d="M 461.4455 352.5934 L 467.0886 356.6186 L 466.7983 357.0256 L 461.1551 353.0005 Z M 467.8714 353.799 L 471.0141 359.7256 L 464.3873 358.6838 Z " fill="#548235"/>
<path transform="matrix(1,0,0,-1,-286.8,468)" d="M 468.4277 316.7847 L 472.4284 326.3604 L 471.967 326.5532 L 467.9663 316.9775 Z M 474.5803 324.3776 L 474.1252 331.0703 L 469.0441 326.6906 Z " fill="#548235"/>
<path transform="matrix(1,0,0,-1,-286.8,468)" d="M 478.6525 335.8837 L 490.1054 342.6876 L 489.85 343.1174 L 478.3972 336.3135 Z M 490.6502 339.8125 L 494.2764 345.4562 L 487.5857 344.9709 Z " fill="#548235"/>
<path transform="matrix(1,0,0,-1,-286.8,468)" d="M 486.8328 288.7054 L 497.5581 286.19 L 497.4439 285.7032 L 486.7187 288.2186 Z M 497.2124 289.0957 L 502.3689 284.805 L 495.8424 283.2542 Z " fill="#548235"/>
<path transform="matrix(1,0,0,-1,-286.8,468)" d="M 505.7053 288.2522 L 514.2328 305.9861 L 513.7822 306.2028 L 505.2547 288.4689 Z M 516.2778 303.8932 L 516.1743 310.6006 L 510.8705 306.4933 Z " fill="#548235"/>
<path transform="matrix(1,0,0,-1,-286.8,468)" d="M 500.7688 254.4574 L 511.9422 262.6481 L 511.6466 263.0514 L 500.4732 254.8607 Z M 512.7616 259.839 L 515.827 265.8058 L 509.2143 264.6781 Z " fill="#548235"/>
<path transform="matrix(1,0,0,-1,-286.8,468)" d="M 522.1861 266.015 L 530.1618 260.7971 L 529.8881 260.3787 L 521.9123 265.5966 Z M 530.8305 263.6459 L 534.209 257.8506 L 527.5457 258.6249 Z " fill="#548235"/>
<path transform="matrix(1,0,0,-1,-286.8,468)" d="M 439.503 412.4786 C 439.503 414.4423 440.8959 416.0342 442.6141 416.0342 C 444.3323 416.0342 445.7252 414.4423 445.7252 412.4786 C 445.7252 410.5149 444.3323 408.9231 442.6141 408.9231 C 440.8959 408.9231 439.503 410.5149 439.503 412.4786 Z " fill="#333f50" fill-rule="evenodd"/>
<path transform="matrix(.00007874016,0,0,.00007874016,152.703,51.96579)" stroke-width="12700" stroke-linecap="butt" stroke-miterlimit="8" stroke-linejoin="miter" fill="none" stroke="#333f50" d="M 0 45155.5 C 0 20216.81 17689.68 0 39511 0 C 61332.32 0 79022 20216.81 79022 45155.5 C 79022 70094.19 61332.32 90311 39511 90311 C 17689.68 90311 0 70094.19 0 45155.5 Z "/>
<path transform="matrix(1,0,0,-1,-286.8,468)" d="M 479.492 396.2142 C 479.492 398.1779 480.8849 399.7698 482.6031 399.7698 C 484.3214 399.7698 485.7142 398.1779 485.7142 396.2142 C 485.7142 394.2505 484.3214 392.6587 482.6031 392.6587 C 480.8849 392.6587 479.492 394.2505 479.492 396.2142 Z " fill="#333f50" fill-rule="evenodd"/>
<path transform="matrix(.00007874016,0,0,.00007874016,192.69202,68.230197)" stroke-width="12700" stroke-linecap="butt" stroke-miterlimit="8" stroke-linejoin="miter" fill="none" stroke="#333f50" d="M 0 45155.5 C 0 20216.81 17689.68 0 39511 0 C 61332.32 0 79022 20216.81 79022 45155.5 C 79022 70094.19 61332.32 90311 39511 90311 C 17689.68 90311 0 70094.19 0 45155.5 Z "/>
<path transform="matrix(1,0,0,-1,-286.8,468)" d="M 517.2941 362.5063 C 517.2941 364.47 518.687 366.0619 520.4053 366.0619 C 522.1235 366.0619 523.5164 364.47 523.5164 362.5063 C 523.5164 360.5427 522.1235 358.9508 520.4053 358.9508 C 518.687 358.9508 517.2941 360.5427 517.2941 362.5063 Z " fill="#333f50" fill-rule="evenodd"/>
<path transform="matrix(.00007874016,0,0,.00007874016,230.49414,101.93811)" stroke-width="12700" stroke-linecap="butt" stroke-miterlimit="8" stroke-linejoin="miter" fill="none" stroke="#333f50" d="M 0 45155.5 C 0 20216.81 17689.68 0 39511 0 C 61332.32 0 79022 20216.81 79022 45155.5 C 79022 70094.19 61332.32 90311 39511 90311 C 17689.68 90311 0 70094.19 0 45155.5 Z "/>
<path transform="matrix(1,0,0,-1,-286.8,468)" d="M 534.2091 331.0704 C 534.2091 333.034 535.6019 334.6259 537.3202 334.6259 C 539.0384 334.6259 540.4313 333.034 540.4313 331.0704 C 540.4313 329.1067 539.0384 327.5148 537.3202 327.5148 C 535.6019 327.5148 534.2091 329.1067 534.2091 331.0704 Z " fill="#333f50" fill-rule="evenodd"/>
<path transform="matrix(.00007874016,0,0,.00007874016,247.40912,133.37412)" stroke-width="12700" stroke-linecap="butt" stroke-miterlimit="8" stroke-linejoin="miter" fill="none" stroke="#333f50" d="M 0 45155.5 C 0 20216.81 17689.68 0 39511 0 C 61332.32 0 79022 20216.81 79022 45155.5 C 79022 70094.19 61332.32 90311 39511 90311 C 17689.68 90311 0 70094.19 0 45155.5 Z "/>
<path transform="matrix(1,0,0,-1,-286.8,468)" d="M 561.2511 274.1734 C 561.2511 276.137 562.6439 277.7289 564.3622 277.7289 C 566.0804 277.7289 567.4733 276.137 567.4733 274.1734 C 567.4733 272.2097 566.0804 270.6178 564.3622 270.6178 C 562.6439 270.6178 561.2511 272.2097 561.2511 274.1734 Z " fill="#333f50" fill-rule="evenodd"/>
<path transform="matrix(.00007874016,0,0,.00007874016,274.4511,190.27109)" stroke-width="12700" stroke-linecap="butt" stroke-miterlimit="8" stroke-linejoin="miter" fill="none" stroke="#333f50" d="M 0 45155.5 C 0 20216.81 17689.68 0 39511 0 C 61332.32 0 79022 20216.81 79022 45155.5 C 79022 70094.19 61332.32 90311 39511 90311 C 17689.68 90311 0 70094.19 0 45155.5 Z "/>
<path transform="matrix(1,0,0,-1,-286.8,468)" d="M 393.6622 339.6861 L 408.188 353.3043 L 407.846 353.6691 L 393.3202 340.0509 Z M 409.3393 350.6142 L 411.6646 356.9065 L 405.2356 354.9914 Z " fill="#ed7d31"/>
<path transform="matrix(1,0,0,-1,-286.8,468)" d="M 430.9427 316.0446 L 441.2808 330.6175 L 440.873 330.9068 L 430.5349 316.3339 Z M 442.9451 328.2108 L 443.9698 334.8402 L 438.0514 331.6823 Z " fill="#ed7d31"/>
<path transform="matrix(1,0,0,-1,-286.8,468)" d="M 455.107 291.6716 L 475.6158 289.2876 L 475.5581 288.791 L 455.0492 291.1749 Z M 474.9401 292.1347 L 480.5535 288.462 L 474.2473 286.1748 Z " fill="#ed7d31"/>
<path transform="matrix(1,0,0,-1,-286.8,468)" d="M 427.5658 389.6816 L 439.689 404.8602 L 439.2984 405.1723 L 427.1751 389.9937 Z M 441.2137 402.3627 L 442.6141 408.9231 L 436.5255 406.1071 Z " fill="#548235"/>
<path transform="matrix(1,0,0,-1,-286.8,468)" d="M 475.6559 364.6915 L 481.5978 387.7544 L 481.1136 387.8792 L 475.1717 364.8162 Z M 484.0113 386.0999 L 482.6031 392.6587 L 478.2011 387.5969 Z " fill="#548235"/>
<path transform="matrix(1,0,0,-1,-286.8,468)" d="M 499.7229 347.7604 L 514.1406 357.0699 L 513.8694 357.49 L 499.4517 348.1804 Z M 514.7922 354.2172 L 518.2054 359.9922 L 511.5375 359.2578 Z " fill="#548235"/>
<path transform="matrix(1,0,0,-1,-286.8,468)" d="M 518.5188 316.4664 L 531.1876 325.4584 L 530.8982 325.8661 L 518.2294 316.8741 Z M 531.9639 322.637 L 535.1203 328.5562 L 528.4911 327.5298 Z " fill="#548235"/>
<path transform="matrix(1,0,0,-1,-286.8,468)" d="M 539.6662 255.1336 L 558.2526 268.5325 L 557.9602 268.9381 L 539.3738 255.5392 Z M 559.0496 265.717 L 562.1623 271.6592 L 555.5409 270.5841 Z " fill="#548235"/>
<text fill="#942092" xml:space="preserve" transform="matrix(.24 0 -0 .24 32.13391 770.4)" font-size="66.66666" font-family="Calibri"><tspan y="-2250" x="0 30.726662 65.586658 100.11332 126.17332 159.16666 181.55998 196.68665">Subset 1</tspan></text>
<text fill="#ff556f" xml:space="preserve" transform="matrix(.24 0 -0 .24 314.22419 707.04)" font-size="66.66666" font-family="Calibri"><tspan y="-2250" x="0 35.29333 68.65333 103.54666 138.43999 153.53333 176.09333 209.45333 244.34667 259.43998 278.46665 310.22666 325.31999 340.4133 375.3066 397.8666 431.22663">Required failure </tspan></text>
<text fill="#ff556f" xml:space="preserve" transform="matrix(.24 0 -0 .24 327.88423 726)" font-size="66.66666" font-family="Calibri"><tspan y="-2250" x="0 22.39333 57.253324 79.77998 113.10664 139.16664 174.02664 209.41997 224.54663 259.40663">threshold </tspan></text>
<text fill="#ff556f" xml:space="preserve" transform="matrix(.24 0 -0 .24 393.7992 726)" font-size="66.66666" font-family="CambriaMath"><tspan y="-2250" x="0">&#x1d46d;</tspan></text>
<text xml:space="preserve" transform="matrix(.24 0 -0 .24 146.61261 785.28)" font-size="58.33333" font-family="Calibri"><tspan y="-2250" x="0 49.997499 78.119998 98.42583 123.04833 153.50415 180.05165">Markov </tspan></text>
<text xml:space="preserve" transform="matrix(.24 0 -0 .24 150.15763 802.32)" font-size="58.33333" font-family="Calibri"><tspan y="-2250" x="0 24.476666 55.194997 83.346668 96.915 127.63333">chains</tspan></text>
<path transform="matrix(1,0,0,-1,-286.8,468)" d="M 415.6483 272.2832 C 415.6483 274.2469 417.0412 275.8388 418.7594 275.8388 C 420.4776 275.8388 421.8705 274.2469 421.8705 272.2832 C 421.8705 270.3195 420.4776 268.7277 418.7594 268.7277 C 417.0412 268.7277 415.6483 270.3195 415.6483 272.2832 Z " fill="#ed7d31" fill-rule="evenodd"/>
<path transform="matrix(.00007874016,0,0,.00007874016,128.8483,192.1612)" stroke-width="12700" stroke-linecap="butt" stroke-miterlimit="8" stroke-linejoin="miter" fill="none" stroke="#ed7d31" d="M 0 45155.5 C 0 20216.81 17689.68 0 39511 0 C 61332.32 0 79022 20216.81 79022 45155.5 C 79022 70094.19 61332.32 90311 39511 90311 C 17689.68 90311 0 70094.19 0 45155.5 Z "/>
<path transform="matrix(1,0,0,-1,-286.8,468)" d="M 427.6277 290.242 C 427.6277 292.2057 429.0206 293.7976 430.7388 293.7976 C 432.457 293.7976 433.8499 292.2057 433.8499 290.242 C 433.8499 288.2783 432.457 286.6865 430.7388 286.6865 C 429.0206 286.6865 427.6277 288.2783 427.6277 290.242 Z " fill="#ed7d31" fill-rule="evenodd"/>
<path transform="matrix(.00007874016,0,0,.00007874016,140.8277,174.2024)" stroke-width="12700" stroke-linecap="butt" stroke-miterlimit="8" stroke-linejoin="miter" fill="none" stroke="#ed7d31" d="M 0 45155.5 C 0 20216.81 17689.68 0 39511 0 C 61332.32 0 79022 20216.81 79022 45155.5 C 79022 70094.19 61332.32 90311 39511 90311 C 17689.68 90311 0 70094.19 0 45155.5 Z "/>
<path transform="matrix(1,0,0,-1,-286.8,468)" d="M 446.0991 301.5353 C 446.0991 303.499 447.492 305.0909 449.2102 305.0909 C 450.9284 305.0909 452.3213 303.499 452.3213 301.5353 C 452.3213 299.5716 450.9284 297.9798 449.2102 297.9798 C 447.492 297.9798 446.0991 299.5716 446.0991 301.5353 Z " fill="#ed7d31" fill-rule="evenodd"/>
<path transform="matrix(.00007874016,0,0,.00007874016,159.2991,162.90909)" stroke-width="12700" stroke-linecap="butt" stroke-miterlimit="8" stroke-linejoin="miter" fill="none" stroke="#ed7d31" d="M 0 45155.5 C 0 20216.81 17689.68 0 39511 0 C 61332.32 0 79022 20216.81 79022 45155.5 C 79022 70094.19 61332.32 90311 39511 90311 C 17689.68 90311 0 70094.19 0 45155.5 Z "/>
<path transform="matrix(1,0,0,-1,-286.8,468)" d="M 421.1749 274.6709 L 426.2261 283.2879 L 425.7947 283.5408 L 420.7435 274.9238 Z M 428.0928 281.0345 L 428.539 287.7279 L 422.9166 284.0688 Z " fill="#ed7d31"/>
<path transform="matrix(1,0,0,-1,-286.8,468)" d="M 433.0403 292.5278 L 442.5443 296.7591 L 442.341 297.2159 L 432.837 292.9845 Z M 442.7493 293.8402 L 447.0104 299.0212 L 440.3089 299.3214 Z " fill="#ed7d31"/>
<path transform="matrix(1,0,0,-1,-286.8,468)" d="M 451.5152 303.8226 L 461.566 308.4818 L 461.3557 308.9354 L 451.3049 304.2763 Z M 461.8153 305.5662 L 465.9972 310.8114 L 459.2919 311.0098 Z " fill="#ed7d31"/>
<path transform="matrix(1,0,0,-1,-286.8,468)" d="M 434.0595 244.2593 C 434.0595 246.223 435.4524 247.8149 437.1706 247.8149 C 438.8888 247.8149 440.2817 246.223 440.2817 244.2593 C 440.2817 242.2957 438.8888 240.7038 437.1706 240.7038 C 435.4524 240.7038 434.0595 242.2957 434.0595 244.2593 Z " fill="#ed7d31" fill-rule="evenodd"/>
<path transform="matrix(.00007874016,0,0,.00007874016,147.25952,220.1851)" stroke-width="12700" stroke-linecap="butt" stroke-miterlimit="8" stroke-linejoin="miter" fill="none" stroke="#ed7d31" d="M 0 45155.5 C 0 20216.81 17689.68 0 39511 0 C 61332.32 0 79022 20216.81 79022 45155.5 C 79022 70094.19 61332.32 90311 39511 90311 C 17689.68 90311 0 70094.19 0 45155.5 Z "/>
<path transform="matrix(1,0,0,-1,-286.8,468)" d="M 455.5527 244.9171 C 455.5527 246.8807 456.9455 248.4726 458.6638 248.4726 C 460.382 248.4726 461.7749 246.8807 461.7749 244.9171 C 461.7749 242.9534 460.382 241.3615 458.6638 241.3615 C 456.9455 241.3615 455.5527 242.9534 455.5527 244.9171 Z " fill="#ed7d31" fill-rule="evenodd"/>
<path transform="matrix(.00007874016,0,0,.00007874016,168.75272,219.5274)" stroke-width="12700" stroke-linecap="butt" stroke-miterlimit="8" stroke-linejoin="miter" fill="none" stroke="#ed7d31" d="M 0 45155.5 C 0 20216.81 17689.68 0 39511 0 C 61332.32 0 79022 20216.81 79022 45155.5 C 79022 70094.19 61332.32 90311 39511 90311 C 17689.68 90311 0 70094.19 0 45155.5 Z "/>
<path transform="matrix(1,0,0,-1,-286.8,468)" d="M 473.3593 240.2311 C 473.3593 242.1948 474.7522 243.7866 476.4704 243.7866 C 478.1886 243.7866 479.5815 242.1948 479.5815 240.2311 C 479.5815 238.2674 478.1886 236.6755 476.4704 236.6755 C 474.7522 236.6755 473.3593 238.2674 473.3593 240.2311 Z " fill="#ed7d31" fill-rule="evenodd"/>
<path transform="matrix(.00007874016,0,0,.00007874016,186.55933,224.2134)" stroke-width="12700" stroke-linecap="butt" stroke-miterlimit="8" stroke-linejoin="miter" fill="none" stroke="#ed7d31" d="M 0 45155.5 C 0 20216.81 17689.68 0 39511 0 C 61332.32 0 79022 20216.81 79022 45155.5 C 79022 70094.19 61332.32 90311 39511 90311 C 17689.68 90311 0 70094.19 0 45155.5 Z "/>
<path transform="matrix(1,0,0,-1,-286.8,468)" d="M 440.2925 244.0095 L 450.5681 244.4521 L 450.5465 244.9516 L 440.271 244.5091 Z M 449.6873 241.6616 L 455.5527 244.917 L 449.4291 247.6561 Z " fill="#ed7d31"/>
<path transform="matrix(1,0,0,-1,-286.8,468)" d="M 461.8686 245.1488 L 468.8179 242.3377 L 468.6304 241.8742 L 461.6811 244.6853 Z M 468.9221 245.2621 L 473.3593 240.231 L 466.6721 239.6999 Z " fill="#ed7d31"/>
<path transform="matrix(1,0,0,-1,-286.8,468)" d="M 479.7044 240.0134 L 491.9909 246.9539 L 491.745 247.3893 L 479.4585 240.4487 Z M 492.4728 244.0677 L 496.2213 249.6308 L 489.5217 249.2918 Z " fill="#ed7d31"/>
<text fill="#548235" xml:space="preserve" transform="matrix(.24 0 -0 .24 174.0997 822)" font-size="66.66666" font-family="Calibri"><tspan y="-2250" x="0 16.666665 50.93333 72.6 105.93333 129.39998 182.53331 215.86664 250.7333 265.86665 296.99998 318.66664 351.99995 367.13328 386.13325 417.93324 433.06657 448.1999 483.06657 505.59989 538.9332">Intermediate failure </tspan></text>
<text fill="#548235" xml:space="preserve" transform="matrix(.24 0 -0 .24 196.9147 840.95999)" font-size="66.66666" font-family="Calibri"><tspan y="-2250" x="0 22.39333 57.253324 79.77998 113.10664 139.16664 174.02664 209.41997 224.54663">threshold</tspan></text>
<text fill="#548235" xml:space="preserve" transform="matrix(.24 0 -0 .24 262.7047 840.95999)" font-size="66.66666" font-family="CambriaMath"><tspan y="-2250" x="0">&#x1d46d;</tspan></text>
<text fill="#548235" xml:space="preserve" transform="matrix(.24 0 -0 .24 272.9547 844.32)" font-size="50" font-family="CambriaMath"><tspan y="-2250" x="0">&#x1d7d0;</tspan></text>
<text fill="#ed7d31" xml:space="preserve" transform="matrix(.24 0 -0 .24 38.895906 844.07998)" font-size="66.66666" font-family="Calibri"><tspan y="-2250" x="0 16.666665 50.93333 72.6 105.93333 129.39998 182.53331 215.86664 250.7333 265.86665 296.99998 318.66664 351.99995 367.13328 386.13325 417.93324 433.06657 448.1999 483.06657 505.59989 538.9332">Intermediate failure </tspan></text>
<text fill="#ed7d31" xml:space="preserve" transform="matrix(.24 0 -0 .24 61.710908 863.04006)" font-size="66.66666" font-family="Calibri"><tspan y="-2250" x="0 22.39333 57.253324 79.77998 113.10664 139.16664 174.02664 209.41997 224.54663">threshold</tspan></text>
<text fill="#ed7d31" xml:space="preserve" transform="matrix(.24 0 -0 .24 127.500919 863.04006)" font-size="66.66666" font-family="CambriaMath"><tspan y="-2250" x="0">&#x1d46d;</tspan></text>
<text fill="#ed7d31" xml:space="preserve" transform="matrix(.24 0 -0 .24 137.75092 866.4)" font-size="50" font-family="CambriaMath"><tspan y="-2250" x="0">&#x1d7cf;</tspan></text>
<text fill="#ed7d31" xml:space="preserve" transform="matrix(.24 0 -0 .24 36.446809 686.4)" font-size="66.66666" font-family="Calibri"><tspan y="-2250" x="0 30.726662 65.586658 100.11332 126.17332 159.16666 181.55998 196.68665">Subset 2</tspan></text>
<text fill="#548235" xml:space="preserve" transform="matrix(.24 0 -0 .24 26.817902 628.56)" font-size="66.66666" font-family="Calibri"><tspan y="-2250" x="0 30.726662 65.586658 100.11332 126.17332 159.16666 181.55998 196.68665">Subset 3</tspan></text>
<text xml:space="preserve" transform="matrix(.24 0 -0 .24 68.33801 790.32)" font-size="58.33333" font-family="Calibri"><tspan y="-2250" x="0 49.997499 80.744998 110.90916 130.04833 159.22083">Monte </tspan></text>
<text xml:space="preserve" transform="matrix(.24 0 -0 .24 72.573 807.12)" font-size="58.33333" font-family="Calibri"><tspan y="-2250" x="0 31.249165 59.34833 79.63084 93.14667">Carlo</tspan></text>
<path transform="matrix(1,0,0,-1,-286.8,468)" d="M 456.1883 420.5105 C 456.1883 422.4742 457.5811 424.0661 459.2994 424.0661 C 461.0176 424.0661 462.4105 422.4742 462.4105 420.5105 C 462.4105 418.5468 461.0176 416.955 459.2994 416.955 C 457.5811 416.955 456.1883 418.5468 456.1883 420.5105 Z " fill="#333f50" fill-rule="evenodd"/>
<path transform="matrix(.00007874016,0,0,.00007874016,169.3883,43.9339)" stroke-width="12700" stroke-linecap="butt" stroke-miterlimit="8" stroke-linejoin="miter" fill="none" stroke="#333f50" d="M 0 45155.5 C 0 20216.81 17689.68 0 39511 0 C 61332.32 0 79022 20216.81 79022 45155.5 C 79022 70094.19 61332.32 90311 39511 90311 C 17689.68 90311 0 70094.19 0 45155.5 Z "/>
<path transform="matrix(1,0,0,-1,-286.8,468)" d="M 443.8993 442.7992 C 443.8993 444.7628 445.2922 446.3547 447.0104 446.3547 C 448.7286 446.3547 450.1215 444.7628 450.1215 442.7992 C 450.1215 440.8355 448.7286 439.2436 447.0104 439.2436 C 445.2922 439.2436 443.8993 440.8355 443.8993 442.7992 Z " fill="#333f50" fill-rule="evenodd"/>
<path transform="matrix(.00007874016,0,0,.00007874016,157.0993,21.645295)" stroke-width="12700" stroke-linecap="butt" stroke-miterlimit="8" stroke-linejoin="miter" fill="none" stroke="#333f50" d="M 0 45155.5 C 0 20216.81 17689.68 0 39511 0 C 61332.32 0 79022 20216.81 79022 45155.5 C 79022 70094.19 61332.32 90311 39511 90311 C 17689.68 90311 0 70094.19 0 45155.5 Z "/>
<path transform="matrix(1,0,0,-1,-286.8,468)" d="M 470.1028 452.7941 C 470.1028 454.7578 471.4957 456.3497 473.2139 456.3497 C 474.9321 456.3497 476.325 454.7578 476.325 452.7941 C 476.325 450.8305 474.9321 449.2386 473.2139 449.2386 C 471.4957 449.2386 470.1028 450.8305 470.1028 452.7941 Z " fill="#ff556f" fill-rule="evenodd"/>
<path transform="matrix(.00007874016,0,0,.00007874016,183.30283,11.650299)" stroke-width="12700" stroke-linecap="butt" stroke-miterlimit="8" stroke-linejoin="miter" fill="none" stroke="#ff556f" d="M 0 45155.5 C 0 20216.81 17689.68 0 39511 0 C 61332.32 0 79022 20216.81 79022 45155.5 C 79022 70094.19 61332.32 90311 39511 90311 C 17689.68 90311 0 70094.19 0 45155.5 Z "/>
<path transform="matrix(1,0,0,-1,-286.8,468)" d="M 488.8192 403.3253 C 488.8192 405.289 490.2121 406.8809 491.9303 406.8809 C 493.6485 406.8809 495.0414 405.289 495.0414 403.3253 C 495.0414 401.3616 493.6485 399.7698 491.9303 399.7698 C 490.2121 399.7698 488.8192 401.3616 488.8192 403.3253 Z " fill="#333f50" fill-rule="evenodd"/>
<path transform="matrix(.00007874016,0,0,.00007874016,202.01923,61.11911)" stroke-width="12700" stroke-linecap="butt" stroke-miterlimit="8" stroke-linejoin="miter" fill="none" stroke="#333f50" d="M 0 45155.5 C 0 20216.81 17689.68 0 39511 0 C 61332.32 0 79022 20216.81 79022 45155.5 C 79022 70094.19 61332.32 90311 39511 90311 C 17689.68 90311 0 70094.19 0 45155.5 Z "/>
<path transform="matrix(1,0,0,-1,-286.8,468)" d="M 491.1653 418.8014 C 491.1653 420.7651 492.5582 422.3569 494.2764 422.3569 C 495.9946 422.3569 497.3875 420.7651 497.3875 418.8014 C 497.3875 416.8377 495.9946 415.2458 494.2764 415.2458 C 492.5582 415.2458 491.1653 416.8377 491.1653 418.8014 Z " fill="#333f50" fill-rule="evenodd"/>
<path transform="matrix(.00007874016,0,0,.00007874016,204.36533,45.643098)" stroke-width="12700" stroke-linecap="butt" stroke-miterlimit="8" stroke-linejoin="miter" fill="none" stroke="#333f50" d="M 0 45155.5 C 0 20216.81 17689.68 0 39511 0 C 61332.32 0 79022 20216.81 79022 45155.5 C 79022 70094.19 61332.32 90311 39511 90311 C 17689.68 90311 0 70094.19 0 45155.5 Z "/>
<path transform="matrix(1,0,0,-1,-286.8,468)" d="M 500.0426 444.1229 C 500.0426 446.0866 501.4355 447.6784 503.1537 447.6784 C 504.8719 447.6784 506.2648 446.0866 506.2648 444.1229 C 506.2648 442.1592 504.8719 440.5673 503.1537 440.5673 C 501.4355 440.5673 500.0426 442.1592 500.0426 444.1229 Z " fill="#ff556f" fill-rule="evenodd"/>
<path transform="matrix(.00007874016,0,0,.00007874016,213.24262,20.321595)" stroke-width="12700" stroke-linecap="butt" stroke-miterlimit="8" stroke-linejoin="miter" fill="none" stroke="#ff556f" d="M 0 45155.5 C 0 20216.81 17689.68 0 39511 0 C 61332.32 0 79022 20216.81 79022 45155.5 C 79022 70094.19 61332.32 90311 39511 90311 C 17689.68 90311 0 70094.19 0 45155.5 Z "/>
<path transform="matrix(1,0,0,-1,-286.8,468)" d="M 529.4869 368.9373 C 529.4869 370.901 530.8798 372.4928 532.598 372.4928 C 534.3162 372.4928 535.7091 370.901 535.7091 368.9373 C 535.7091 366.9736 534.3162 365.3817 532.598 365.3817 C 530.8798 365.3817 529.4869 366.9736 529.4869 368.9373 Z " fill="#333f50" fill-rule="evenodd"/>
<path transform="matrix(.00007874016,0,0,.00007874016,242.68689,95.5072)" stroke-width="12700" stroke-linecap="butt" stroke-miterlimit="8" stroke-linejoin="miter" fill="none" stroke="#333f50" d="M 0 45155.5 C 0 20216.81 17689.68 0 39511 0 C 61332.32 0 79022 20216.81 79022 45155.5 C 79022 70094.19 61332.32 90311 39511 90311 C 17689.68 90311 0 70094.19 0 45155.5 Z "/>
<path transform="matrix(1,0,0,-1,-286.8,468)" d="M 534.3681 383.1826 C 534.3681 385.1462 535.761 386.7381 537.4792 386.7381 C 539.1974 386.7381 540.5903 385.1462 540.5903 383.1826 C 540.5903 381.2189 539.1974 379.627 537.4792 379.627 C 535.761 379.627 534.3681 381.2189 534.3681 383.1826 Z " fill="#333f50" fill-rule="evenodd"/>
<path transform="matrix(.00007874016,0,0,.00007874016,247.56812,81.2619)" stroke-width="12700" stroke-linecap="butt" stroke-miterlimit="8" stroke-linejoin="miter" fill="none" stroke="#333f50" d="M 0 45155.5 C 0 20216.81 17689.68 0 39511 0 C 61332.32 0 79022 20216.81 79022 45155.5 C 79022 70094.19 61332.32 90311 39511 90311 C 17689.68 90311 0 70094.19 0 45155.5 Z "/>
<path transform="matrix(1,0,0,-1,-286.8,468)" d="M 558.2436 398.1112 C 558.2436 400.0749 559.6365 401.6668 561.3547 401.6668 C 563.0729 401.6668 564.4658 400.0749 564.4658 398.1112 C 564.4658 396.1476 563.0729 394.5557 561.3547 394.5557 C 559.6365 394.5557 558.2436 396.1476 558.2436 398.1112 Z " fill="#ff556f" fill-rule="evenodd"/>
<path transform="matrix(.00007874016,0,0,.00007874016,271.4436,66.33319)" stroke-width="12700" stroke-linecap="butt" stroke-miterlimit="8" stroke-linejoin="miter" fill="none" stroke="#ff556f" d="M 0 45155.5 C 0 20216.81 17689.68 0 39511 0 C 61332.32 0 79022 20216.81 79022 45155.5 C 79022 70094.19 61332.32 90311 39511 90311 C 17689.68 90311 0 70094.19 0 45155.5 Z "/>
<path transform="matrix(1,0,0,-1,-286.8,468)" d="M 546.8276 333.9015 C 546.8276 335.8652 548.2205 337.4571 549.9387 337.4571 C 551.6569 337.4571 553.0498 335.8652 553.0498 333.9015 C 553.0498 331.9379 551.6569 330.346 549.9387 330.346 C 548.2205 330.346 546.8276 331.9379 546.8276 333.9015 Z " fill="#333f50" fill-rule="evenodd"/>
<path transform="matrix(.00007874016,0,0,.00007874016,260.0276,130.54291)" stroke-width="12700" stroke-linecap="butt" stroke-miterlimit="8" stroke-linejoin="miter" fill="none" stroke="#333f50" d="M 0 45155.5 C 0 20216.81 17689.68 0 39511 0 C 61332.32 0 79022 20216.81 79022 45155.5 C 79022 70094.19 61332.32 90311 39511 90311 C 17689.68 90311 0 70094.19 0 45155.5 Z "/>
<path transform="matrix(1,0,0,-1,-286.8,468)" d="M 566.3604 344.4441 C 566.3604 346.4078 567.7533 347.9997 569.4715 347.9997 C 571.1897 347.9997 572.5826 346.4078 572.5826 344.4441 C 572.5826 342.4805 571.1897 340.8886 569.4715 340.8886 C 567.7533 340.8886 566.3604 342.4805 566.3604 344.4441 Z " fill="#333f50" fill-rule="evenodd"/>
<path transform="matrix(.00007874016,0,0,.00007874016,279.56044,120.000308)" stroke-width="12700" stroke-linecap="butt" stroke-miterlimit="8" stroke-linejoin="miter" fill="none" stroke="#333f50" d="M 0 45155.5 C 0 20216.81 17689.68 0 39511 0 C 61332.32 0 79022 20216.81 79022 45155.5 C 79022 70094.19 61332.32 90311 39511 90311 C 17689.68 90311 0 70094.19 0 45155.5 Z "/>
<path transform="matrix(1,0,0,-1,-286.8,468)" d="M 588.9755 347.3741 C 588.9755 349.3378 590.3684 350.9297 592.0866 350.9297 C 593.8048 350.9297 595.1977 349.3378 595.1977 347.3741 C 595.1977 345.4105 593.8048 343.8186 592.0866 343.8186 C 590.3684 343.8186 588.9755 345.4105 588.9755 347.3741 Z " fill="#ff556f" fill-rule="evenodd"/>
<path transform="matrix(.00007874016,0,0,.00007874016,302.17555,117.07031)" stroke-width="12700" stroke-linecap="butt" stroke-miterlimit="8" stroke-linejoin="miter" fill="none" stroke="#ff556f" d="M 0 45155.5 C 0 20216.81 17689.68 0 39511 0 C 61332.32 0 79022 20216.81 79022 45155.5 C 79022 70094.19 61332.32 90311 39511 90311 C 17689.68 90311 0 70094.19 0 45155.5 Z "/>
<path transform="matrix(1,0,0,-1,-286.8,468)" d="M 574.4158 278.7723 C 574.4158 280.736 575.8087 282.3279 577.5269 282.3279 C 579.2451 282.3279 580.638 280.736 580.638 278.7723 C 580.638 276.8086 579.2451 275.2168 577.5269 275.2168 C 575.8087 275.2168 574.4158 276.8086 574.4158 278.7723 Z " fill="#333f50" fill-rule="evenodd"/>
<path transform="matrix(.00007874016,0,0,.00007874016,287.61579,185.67209)" stroke-width="12700" stroke-linecap="butt" stroke-miterlimit="8" stroke-linejoin="miter" fill="none" stroke="#333f50" d="M 0 45155.5 C 0 20216.81 17689.68 0 39511 0 C 61332.32 0 79022 20216.81 79022 45155.5 C 79022 70094.19 61332.32 90311 39511 90311 C 17689.68 90311 0 70094.19 0 45155.5 Z "/>
<path transform="matrix(1,0,0,-1,-286.8,468)" d="M 444.8733 414.7499 L 452.3019 416.5661 L 452.1832 417.0518 L 444.7545 415.2356 Z M 451.9836 413.6573 L 457.0995 417.9964 L 450.5587 419.4856 Z " fill="#44546a"/>
<path transform="matrix(1,0,0,-1,-286.8,468)" d="M 456.8722 422.9207 L 451.0614 435.6336 L 451.5162 435.8415 L 457.3269 423.1286 Z M 448.976 433.5809 L 449.2102 440.285 L 454.433 436.0752 Z " fill="#44546a"/>
<path transform="matrix(1,0,0,-1,-286.8,468)" d="M 449.2658 445.0696 L 466.1945 448.9257 L 466.0834 449.4133 L 449.1547 445.5571 Z M 465.8303 446.0223 L 471.0141 450.28 L 464.4976 451.8725 Z " fill="#44546a"/>
<path transform="matrix(1,0,0,-1,-286.8,468)" d="M 485.3719 395.7118 L 489.7305 400.8112 L 483.0359 401.2384 Z " fill="#44546a"/>
<path transform="matrix(1,0,0,-1,-286.8,468)" d="M 492.171 406.8134 L 493.1669 410.3641 L 492.6855 410.4991 L 491.6896 406.9484 Z M 495.5447 408.6586 L 494.2764 415.2458 L 489.7676 410.2789 Z " fill="#44546a"/>
<path transform="matrix(1,0,0,-1,-286.8,468)" d="M 494.5011 422.2474 L 501.1874 435.9634 L 500.738 436.1825 L 494.0516 422.4665 Z M 503.2212 433.8595 L 503.1537 440.5673 L 497.8279 436.4886 Z " fill="#44546a"/>
<path transform="matrix(1,0,0,-1,-286.8,468)" d="M 522.6494 364.7744 L 525.5214 365.2914 L 525.4329 365.7835 L 522.5608 365.2665 Z M 525.0244 362.4077 L 530.3981 366.4232 L 523.9615 368.3128 Z " fill="#44546a"/>
<path transform="matrix(1,0,0,-1,-286.8,468)" d="M 532.8043 372.3517 L 534.8621 375.3593 L 534.4495 375.6416 L 532.3916 372.634 Z M 536.567 372.9811 L 537.4792 379.627 L 531.6152 376.3692 Z " fill="#44546a"/>
<path transform="matrix(1,0,0,-1,-286.8,468)" d="M 539.7924 385.4738 L 554.811 393.1085 L 554.5844 393.5542 L 539.5658 385.9196 Z M 555.1658 390.2039 L 559.1549 395.5971 L 552.4468 395.5525 Z " fill="#44546a"/>
<path transform="matrix(1,0,0,-1,-286.8,468)" d="M 539.5308 333.3347 L 541.8431 333.435 L 541.8214 333.9346 L 539.5092 333.8343 Z M 540.9632 330.6443 L 546.8275 333.9015 L 540.7032 336.6386 Z " fill="#44546a"/>
<path transform="matrix(1,0,0,-1,-286.8,468)" d="M 553.1727 333.6838 L 563.0404 339.2543 L 562.7946 339.6897 L 552.9269 334.1192 Z M 563.5215 336.368 L 567.2716 341.93 L 560.5719 341.5929 Z " fill="#44546a"/>
<path transform="matrix(.00007874016,0,0,.00007874016,-.4281006,20.721009)" stroke-width="28575" stroke-linecap="butt" stroke-miterlimit="8" stroke-linejoin="miter" fill="none" stroke="#ff556f" d="M 2066345 2959 C 2737494 -50424 3187334 257655 3519391 835488 C 3766385 1288458 3931271 1806903 3912896 2389547 "/>
<path transform="matrix(1,0,0,-1,-286.8,468)" d="M 579.8423 292.3488 C 579.8423 294.3125 581.2352 295.9043 582.9534 295.9043 C 584.6716 295.9043 586.0645 294.3125 586.0645 292.3488 C 586.0645 290.3851 584.6716 288.7932 582.9534 288.7932 C 581.2352 288.7932 579.8423 290.3851 579.8423 292.3488 Z " fill="#333f50" fill-rule="evenodd"/>
<path transform="matrix(.00007874016,0,0,.00007874016,293.0423,172.0957)" stroke-width="12700" stroke-linecap="butt" stroke-miterlimit="8" stroke-linejoin="miter" fill="none" stroke="#333f50" d="M 0 45155.5 C 0 20216.81 17689.68 0 39511 0 C 61332.32 0 79022 20216.81 79022 45155.5 C 79022 70094.19 61332.32 90311 39511 90311 C 17689.68 90311 0 70094.19 0 45155.5 Z "/>
<path transform="matrix(1,0,0,-1,-286.8,468)" d="M 600.3683 283.6092 C 600.3683 285.5728 601.7612 287.1647 603.4794 287.1647 C 605.1976 287.1647 606.5905 285.5728 606.5905 283.6092 C 606.5905 281.6455 605.1976 280.0536 603.4794 280.0536 C 601.7612 280.0536 600.3683 281.6455 600.3683 283.6092 Z " fill="#ff556f" fill-rule="evenodd"/>
<path transform="matrix(.00007874016,0,0,.00007874016,313.5683,180.8353)" stroke-width="12700" stroke-linecap="butt" stroke-miterlimit="8" stroke-linejoin="miter" fill="none" stroke="#ff556f" d="M 0 45155.5 C 0 20216.81 17689.68 0 39511 0 C 61332.32 0 79022 20216.81 79022 45155.5 C 79022 70094.19 61332.32 90311 39511 90311 C 17689.68 90311 0 70094.19 0 45155.5 Z "/>
<path transform="matrix(1,0,0,-1,-286.8,468)" d="M 572.6266 344.198 L 584.0975 346.2483 L 584.0095 346.7405 L 572.5386 344.6902 Z M 583.5969 343.3652 L 588.9755 347.3741 L 582.5412 349.2716 Z " fill="#44546a"/>
<path transform="matrix(1,0,0,-1,-286.8,468)" d="M 566.5743 276.9372 L 570.3453 276.7525 L 570.3209 276.2531 L 566.5498 276.4378 Z M 569.481 279.5481 L 575.3271 276.2582 L 569.1875 273.5553 Z " fill="#44546a"/>
<path transform="matrix(1,0,0,-1,-286.8,468)" d="M 579.9565 281.1877 L 581.2086 284.1009 L 580.7493 284.2983 L 579.4971 281.3852 Z M 583.3402 282.0962 L 582.9535 288.7932 L 577.8279 284.4656 Z " fill="#44546a"/>
<path transform="matrix(1,0,0,-1,-286.8,468)" d="M 586.1949 292.5621 L 596.2321 286.4294 L 595.9714 286.0027 L 585.9342 292.1354 Z M 596.8126 289.2974 L 600.3684 283.6091 L 593.6843 284.1775 Z " fill="#44546a"/>
<text fill="#44546a" xml:space="preserve" transform="matrix(.24 0 -0 .24 269.6947 776.64)" font-size="66.66666" font-family="Calibri"><tspan y="-2250" x="0 16.666665 50.93333 72.6 105.93333 129.39998 182.53331 215.86664 250.7333 265.86665 296.99998 318.66664 351.99995 367.13328 386.13325 417.93324 433.06657 448.1999 483.06657 505.59989 538.9332">Intermediate failure </tspan></text>
<text fill="#44546a" xml:space="preserve" transform="matrix(.24 0 -0 .24 292.5097 795.6)" font-size="66.66666" font-family="Calibri"><tspan y="-2250" x="0 22.39333 57.253324 79.77998 113.10664 139.16664 174.02664 209.41997 224.54663">threshold</tspan></text>
<text fill="#44546a" xml:space="preserve" transform="matrix(.24 0 -0 .24 358.29969 795.6)" font-size="66.66666" font-family="CambriaMath"><tspan y="-2250" x="0">&#x1d46d;</tspan></text>
<text fill="#44546a" xml:space="preserve" transform="matrix(.24 0 -0 .24 368.54969 798.95999)" font-size="50" font-family="CambriaMath"><tspan y="-2250" x="0">&#x1d7d1;</tspan></text>
<text fill="#44546a" xml:space="preserve" transform="matrix(.24 0 -0 .24 75.2948 579.36)" font-size="66.66666" font-family="Calibri"><tspan y="-2250" x="0 30.726662 65.586658 100.11332 126.17332 159.16666 181.55998 196.68665">Subset 4</tspan></text>
</g>
</g>
</svg>
