<?xml version="1.0" encoding="UTF-8" standalone="no"?>
<!DOCTYPE svg PUBLIC "-//W3C//DTD SVG 1.1//EN"
 "http://www.w3.org/Graphics/SVG/1.1/DTD/svg11.dtd">
<!-- Generated by graphviz version 2.38.0 (20140413.2041)
 -->
<!-- Title: include/postprocessors/AverageFissionHeat.h Pages: 1 -->
<svg width="262pt" height="106pt"
 viewBox="0.00 0.00 262.00 106.00" xmlns="http://www.w3.org/2000/svg" xmlns:xlink="http://www.w3.org/1999/xlink">
<g id="graph0" class="graph" transform="scale(1 1) rotate(0) translate(4 102)">
<title>include/postprocessors/AverageFissionHeat.h</title>
<polygon fill="white" stroke="none" points="-4,4 -4,-102 258,-102 258,4 -4,4"/>
<!-- Node7 -->
<g id="node1" class="node"><title>Node7</title>
<polygon fill="#bfbfbf" stroke="black" points="68,-67.5 68,-97.5 185,-97.5 185,-67.5 68,-67.5"/>
<text text-anchor="start" x="76" y="-85.5" font-family="Helvetica,sans-Serif" font-size="10.00">include/postprocessors</text>
<text text-anchor="middle" x="126.5" y="-74.5" font-family="Helvetica,sans-Serif" font-size="10.00">/AverageFissionHeat.h</text>
</g>
<!-- Node8 -->
<g id="node2" class="node"><title>Node8</title>
<g id="a_node2"><a xlink:href="_moltres_app_8_c.html" target="_top" xlink:title="src/base/MoltresApp.C">
<polygon fill="white" stroke="black" points="0,-6 0,-25 117,-25 117,-6 0,-6"/>
<text text-anchor="middle" x="58.5" y="-13" font-family="Helvetica,sans-Serif" font-size="10.00">src/base/MoltresApp.C</text>
</a>
</g>
</g>
<!-- Node7&#45;&gt;Node8 -->
<g id="edge1" class="edge"><title>Node7&#45;&gt;Node8</title>
<path fill="none" stroke="midnightblue" d="M104.358,-60.335C91.8734,-48.401 76.9499,-34.1359 67.5958,-25.1945"/>
<polygon fill="midnightblue" stroke="midnightblue" points="102.098,-63.0162 111.745,-67.396 106.935,-57.9561 102.098,-63.0162"/>
</g>
<!-- Node9 -->
<g id="node3" class="node"><title>Node9</title>
<g id="a_node3"><a xlink:href="_average_fission_heat_8_c.html" target="_top" xlink:title="src/postprocessors\l/AverageFissionHeat.C">
<polygon fill="white" stroke="black" points="135,-0.5 135,-30.5 254,-30.5 254,-0.5 135,-0.5"/>
<text text-anchor="start" x="143" y="-18.5" font-family="Helvetica,sans-Serif" font-size="10.00">src/postprocessors</text>
<text text-anchor="middle" x="194.5" y="-7.5" font-family="Helvetica,sans-Serif" font-size="10.00">/AverageFissionHeat.C</text>
</a>
</g>
</g>
<!-- Node7&#45;&gt;Node9 -->
<g id="edge2" class="edge"><title>Node7&#45;&gt;Node9</title>
<path fill="none" stroke="midnightblue" d="M148.666,-60.3115C158.867,-50.5612 170.691,-39.259 179.774,-30.5765"/>
<polygon fill="midnightblue" stroke="midnightblue" points="146.065,-57.9561 141.255,-67.396 150.902,-63.0162 146.065,-57.9561"/>
</g>
</g>
</svg>
