<?xml version="1.0" encoding="UTF-8" standalone="no"?>
<!DOCTYPE svg PUBLIC "-//W3C//DTD SVG 1.1//EN"
 "http://www.w3.org/Graphics/SVG/1.1/DTD/svg11.dtd">
<!-- Generated by graphviz version 2.38.0 (20140413.2041)
 -->
<!-- Title: src/kernels/DivFreeCoupledScalarAdvection.C Pages: 1 -->
<svg width="272pt" height="207pt"
 viewBox="0.00 0.00 271.50 207.00" xmlns="http://www.w3.org/2000/svg" xmlns:xlink="http://www.w3.org/1999/xlink">
<g id="graph0" class="graph" transform="scale(1 1) rotate(0) translate(4 203)">
<title>src/kernels/DivFreeCoupledScalarAdvection.C</title>
<polygon fill="white" stroke="none" points="-4,4 -4,-203 267.5,-203 267.5,4 -4,4"/>
<!-- Node0 -->
<g id="node1" class="node"><title>Node0</title>
<polygon fill="#bfbfbf" stroke="black" points="84.5,-168.5 84.5,-198.5 222.5,-198.5 222.5,-168.5 84.5,-168.5"/>
<text text-anchor="start" x="92.5" y="-186.5" font-family="Helvetica,sans-Serif" font-size="10.00">src/kernels/DivFreeCoupled</text>
<text text-anchor="middle" x="153.5" y="-175.5" font-family="Helvetica,sans-Serif" font-size="10.00">ScalarAdvection.C</text>
</g>
<!-- Node1 -->
<g id="node2" class="node"><title>Node1</title>
<g id="a_node2"><a xlink:href="_div_free_coupled_scalar_advection_8h.html" target="_top" xlink:title="DivFreeCoupledScalarAdvection.h">
<polygon fill="white" stroke="black" points="0,-112.5 0,-131.5 167,-131.5 167,-112.5 0,-112.5"/>
<text text-anchor="middle" x="83.5" y="-119.5" font-family="Helvetica,sans-Serif" font-size="10.00">DivFreeCoupledScalarAdvection.h</text>
</a>
</g>
</g>
<!-- Node0&#45;&gt;Node1 -->
<g id="edge1" class="edge"><title>Node0&#45;&gt;Node1</title>
<path fill="none" stroke="midnightblue" d="M136.911,-168.399C126.215,-159.308 112.312,-147.49 101.372,-138.191"/>
<polygon fill="midnightblue" stroke="midnightblue" points="103.572,-135.468 93.6856,-131.658 99.0383,-140.801 103.572,-135.468"/>
</g>
<!-- Node6 -->
<g id="node7" class="node"><title>Node6</title>
<polygon fill="white" stroke="#bfbfbf" points="185.5,-112.5 185.5,-131.5 263.5,-131.5 263.5,-112.5 185.5,-112.5"/>
<text text-anchor="middle" x="224.5" y="-119.5" font-family="Helvetica,sans-Serif" font-size="10.00">MooseMesh.h</text>
</g>
<!-- Node0&#45;&gt;Node6 -->
<g id="edge6" class="edge"><title>Node0&#45;&gt;Node6</title>
<path fill="none" stroke="midnightblue" d="M170.326,-168.399C181.175,-159.308 195.277,-147.49 206.373,-138.191"/>
<polygon fill="midnightblue" stroke="midnightblue" points="208.752,-140.763 214.169,-131.658 204.256,-135.398 208.752,-140.763"/>
</g>
<!-- Node2 -->
<g id="node3" class="node"><title>Node2</title>
<polygon fill="white" stroke="#bfbfbf" points="6,-56.5 6,-75.5 59,-75.5 59,-56.5 6,-56.5"/>
<text text-anchor="middle" x="32.5" y="-63.5" font-family="Helvetica,sans-Serif" font-size="10.00">Kernel.h</text>
</g>
<!-- Node1&#45;&gt;Node2 -->
<g id="edge2" class="edge"><title>Node1&#45;&gt;Node2</title>
<path fill="none" stroke="midnightblue" d="M75.0784,-112.083C67.6518,-104.22 56.6483,-92.5688 47.6878,-83.0813"/>
<polygon fill="midnightblue" stroke="midnightblue" points="50.1757,-80.618 40.7649,-75.7511 45.0866,-85.4244 50.1757,-80.618"/>
</g>
<!-- Node3 -->
<g id="node4" class="node"><title>Node3</title>
<g id="a_node4"><a xlink:href="_scalar_transport_base_8h.html" target="_top" xlink:title="ScalarTransportBase.h">
<polygon fill="white" stroke="black" points="77.5,-56.5 77.5,-75.5 193.5,-75.5 193.5,-56.5 77.5,-56.5"/>
<text text-anchor="middle" x="135.5" y="-63.5" font-family="Helvetica,sans-Serif" font-size="10.00">ScalarTransportBase.h</text>
</a>
</g>
</g>
<!-- Node1&#45;&gt;Node3 -->
<g id="edge3" class="edge"><title>Node1&#45;&gt;Node3</title>
<path fill="none" stroke="midnightblue" d="M92.0867,-112.083C99.659,-104.22 110.878,-92.5688 120.014,-83.0813"/>
<polygon fill="midnightblue" stroke="midnightblue" points="122.658,-85.3821 127.073,-75.7511 117.615,-80.5266 122.658,-85.3821"/>
</g>
<!-- Node4 -->
<g id="node5" class="node"><title>Node4</title>
<polygon fill="white" stroke="#bfbfbf" points="26,-0.5 26,-19.5 123,-19.5 123,-0.5 26,-0.5"/>
<text text-anchor="middle" x="74.5" y="-7.5" font-family="Helvetica,sans-Serif" font-size="10.00">InputParameters.h</text>
</g>
<!-- Node3&#45;&gt;Node4 -->
<g id="edge4" class="edge"><title>Node3&#45;&gt;Node4</title>
<path fill="none" stroke="midnightblue" d="M125.699,-56.324C116.682,-48.3414 103.094,-36.3128 92.182,-26.6529"/>
<polygon fill="midnightblue" stroke="midnightblue" points="94.2866,-23.8416 84.479,-19.8339 89.6467,-29.083 94.2866,-23.8416"/>
</g>
<!-- Node5 -->
<g id="node6" class="node"><title>Node5</title>
<polygon fill="white" stroke="#bfbfbf" points="141.5,-0.5 141.5,-19.5 253.5,-19.5 253.5,-0.5 141.5,-0.5"/>
<text text-anchor="middle" x="197.5" y="-7.5" font-family="Helvetica,sans-Serif" font-size="10.00">MooseVariableBase.h</text>
</g>
<!-- Node3&#45;&gt;Node5 -->
<g id="edge5" class="edge"><title>Node3&#45;&gt;Node5</title>
<path fill="none" stroke="midnightblue" d="M145.461,-56.324C154.627,-48.3414 168.437,-36.3128 179.528,-26.6529"/>
<polygon fill="midnightblue" stroke="midnightblue" points="182.115,-29.041 187.357,-19.8339 177.518,-23.7624 182.115,-29.041"/>
</g>
</g>
</svg>
