<?xml version="1.0" encoding="UTF-8" standalone="no"?>
<!DOCTYPE svg PUBLIC "-//W3C//DTD SVG 1.1//EN"
 "http://www.w3.org/Graphics/SVG/1.1/DTD/svg11.dtd">
<!-- Generated by graphviz version 2.38.0 (20140413.2041)
 -->
<!-- Title: include/postprocessors/ElementL2Diff.h Pages: 1 -->
<svg width="244pt" height="106pt"
 viewBox="0.00 0.00 243.50 106.00" xmlns="http://www.w3.org/2000/svg" xmlns:xlink="http://www.w3.org/1999/xlink">
<g id="graph0" class="graph" transform="scale(1 1) rotate(0) translate(4 102)">
<title>include/postprocessors/ElementL2Diff.h</title>
<polygon fill="white" stroke="none" points="-4,4 -4,-102 239.5,-102 239.5,4 -4,4"/>
<!-- Node2 -->
<g id="node1" class="node"><title>Node2</title>
<polygon fill="#bfbfbf" stroke="black" points="63,-67.5 63,-97.5 180,-97.5 180,-67.5 63,-67.5"/>
<text text-anchor="start" x="71" y="-85.5" font-family="Helvetica,sans-Serif" font-size="10.00">include/postprocessors</text>
<text text-anchor="middle" x="121.5" y="-74.5" font-family="Helvetica,sans-Serif" font-size="10.00">/ElementL2Diff.h</text>
</g>
<!-- Node3 -->
<g id="node2" class="node"><title>Node3</title>
<g id="a_node2"><a xlink:href="_moltres_app_8_c.html" target="_top" xlink:title="src/base/MoltresApp.C">
<polygon fill="white" stroke="black" points="0,-6 0,-25 117,-25 117,-6 0,-6"/>
<text text-anchor="middle" x="58.5" y="-13" font-family="Helvetica,sans-Serif" font-size="10.00">src/base/MoltresApp.C</text>
</a>
</g>
</g>
<!-- Node2&#45;&gt;Node3 -->
<g id="edge1" class="edge"><title>Node2&#45;&gt;Node3</title>
<path fill="none" stroke="midnightblue" d="M100.658,-59.9967C89.159,-48.1323 75.5115,-34.0516 66.927,-25.1945"/>
<polygon fill="midnightblue" stroke="midnightblue" points="98.3569,-62.6512 107.83,-67.396 103.383,-57.7793 98.3569,-62.6512"/>
</g>
<!-- Node4 -->
<g id="node3" class="node"><title>Node4</title>
<g id="a_node3"><a xlink:href="_element_l2_diff_8_c.html" target="_top" xlink:title="src/postprocessors\l/ElementL2Diff.C">
<polygon fill="white" stroke="black" points="135.5,-0.5 135.5,-30.5 235.5,-30.5 235.5,-0.5 135.5,-0.5"/>
<text text-anchor="start" x="143.5" y="-18.5" font-family="Helvetica,sans-Serif" font-size="10.00">src/postprocessors</text>
<text text-anchor="middle" x="185.5" y="-7.5" font-family="Helvetica,sans-Serif" font-size="10.00">/ElementL2Diff.C</text>
</a>
</g>
</g>
<!-- Node2&#45;&gt;Node4 -->
<g id="edge2" class="edge"><title>Node2&#45;&gt;Node4</title>
<path fill="none" stroke="midnightblue" d="M142.645,-60.0243C152.181,-50.3398 163.175,-39.1739 171.64,-30.5765"/>
<polygon fill="midnightblue" stroke="midnightblue" points="139.909,-57.8146 135.387,-67.396 144.897,-62.7259 139.909,-57.8146"/>
</g>
</g>
</svg>
