<?xml version="1.0" encoding="UTF-8" standalone="no"?>
<!DOCTYPE svg PUBLIC "-//W3C//DTD SVG 1.1//EN"
 "http://www.w3.org/Graphics/SVG/1.1/DTD/svg11.dtd">
<!-- Generated by graphviz version 2.38.0 (20140413.2041)
 -->
<!-- Title: src/postprocessors/ElmIntegTotFissHeatPostprocessor.C Pages: 1 -->
<svg width="357pt" height="263pt"
 viewBox="0.00 0.00 357.00 263.00" xmlns="http://www.w3.org/2000/svg" xmlns:xlink="http://www.w3.org/1999/xlink">
<g id="graph0" class="graph" transform="scale(1 1) rotate(0) translate(4 259)">
<title>src/postprocessors/ElmIntegTotFissHeatPostprocessor.C</title>
<polygon fill="white" stroke="none" points="-4,4 -4,-259 353,-259 353,4 -4,4"/>
<!-- Node0 -->
<g id="node1" class="node"><title>Node0</title>
<polygon fill="#bfbfbf" stroke="black" points="62,-224.5 62,-254.5 248,-254.5 248,-224.5 62,-224.5"/>
<text text-anchor="start" x="70" y="-242.5" font-family="Helvetica,sans-Serif" font-size="10.00">src/postprocessors</text>
<text text-anchor="middle" x="155" y="-231.5" font-family="Helvetica,sans-Serif" font-size="10.00">/ElmIntegTotFissHeatPostprocessor.C</text>
</g>
<!-- Node1 -->
<g id="node2" class="node"><title>Node1</title>
<g id="a_node2"><a xlink:href="_elm_integ_tot_fiss_heat_postprocessor_8h.html" target="_top" xlink:title="ElmIntegTotFissHeatPostprocessor.h">
<polygon fill="white" stroke="black" points="64.5,-168.5 64.5,-187.5 245.5,-187.5 245.5,-168.5 64.5,-168.5"/>
<text text-anchor="middle" x="155" y="-175.5" font-family="Helvetica,sans-Serif" font-size="10.00">ElmIntegTotFissHeatPostprocessor.h</text>
</a>
</g>
</g>
<!-- Node0&#45;&gt;Node1 -->
<g id="edge1" class="edge"><title>Node0&#45;&gt;Node1</title>
<path fill="none" stroke="midnightblue" d="M155,-224.399C155,-216.466 155,-206.458 155,-197.858"/>
<polygon fill="midnightblue" stroke="midnightblue" points="158.5,-197.658 155,-187.658 151.5,-197.658 158.5,-197.658"/>
</g>
<!-- Node2 -->
<g id="node3" class="node"><title>Node2</title>
<g id="a_node3"><a xlink:href="_elm_integ_tot_fiss_postprocessor_8h.html" target="_top" xlink:title="ElmIntegTotFissPostprocessor.h">
<polygon fill="white" stroke="black" points="75,-112.5 75,-131.5 235,-131.5 235,-112.5 75,-112.5"/>
<text text-anchor="middle" x="155" y="-119.5" font-family="Helvetica,sans-Serif" font-size="10.00">ElmIntegTotFissPostprocessor.h</text>
</a>
</g>
</g>
<!-- Node1&#45;&gt;Node2 -->
<g id="edge2" class="edge"><title>Node1&#45;&gt;Node2</title>
<path fill="none" stroke="midnightblue" d="M155,-168.083C155,-161.006 155,-150.861 155,-141.986"/>
<polygon fill="midnightblue" stroke="midnightblue" points="158.5,-141.751 155,-131.751 151.5,-141.751 158.5,-141.751"/>
</g>
<!-- Node3 -->
<g id="node4" class="node"><title>Node3</title>
<polygon fill="white" stroke="#bfbfbf" points="0,-56.5 0,-75.5 156,-75.5 156,-56.5 0,-56.5"/>
<text text-anchor="middle" x="78" y="-63.5" font-family="Helvetica,sans-Serif" font-size="10.00">ElementIntegralPostprocessor.h</text>
</g>
<!-- Node2&#45;&gt;Node3 -->
<g id="edge3" class="edge"><title>Node2&#45;&gt;Node3</title>
<path fill="none" stroke="midnightblue" d="M142.629,-112.324C130.842,-104.058 112.868,-91.4527 98.8645,-81.6322"/>
<polygon fill="midnightblue" stroke="midnightblue" points="100.538,-78.5307 90.3407,-75.6545 96.5184,-84.2619 100.538,-78.5307"/>
</g>
<!-- Node4 -->
<g id="node5" class="node"><title>Node4</title>
<g id="a_node5"><a xlink:href="_scalar_transport_base_8h.html" target="_top" xlink:title="ScalarTransportBase.h">
<polygon fill="white" stroke="black" points="174,-56.5 174,-75.5 290,-75.5 290,-56.5 174,-56.5"/>
<text text-anchor="middle" x="232" y="-63.5" font-family="Helvetica,sans-Serif" font-size="10.00">ScalarTransportBase.h</text>
</a>
</g>
</g>
<!-- Node2&#45;&gt;Node4 -->
<g id="edge4" class="edge"><title>Node2&#45;&gt;Node4</title>
<path fill="none" stroke="midnightblue" d="M167.371,-112.324C179.158,-104.058 197.132,-91.4527 211.136,-81.6322"/>
<polygon fill="midnightblue" stroke="midnightblue" points="213.482,-84.2619 219.659,-75.6545 209.462,-78.5307 213.482,-84.2619"/>
</g>
<!-- Node5 -->
<g id="node6" class="node"><title>Node5</title>
<polygon fill="white" stroke="#bfbfbf" points="121.5,-0.5 121.5,-19.5 218.5,-19.5 218.5,-0.5 121.5,-0.5"/>
<text text-anchor="middle" x="170" y="-7.5" font-family="Helvetica,sans-Serif" font-size="10.00">InputParameters.h</text>
</g>
<!-- Node4&#45;&gt;Node5 -->
<g id="edge5" class="edge"><title>Node4&#45;&gt;Node5</title>
<path fill="none" stroke="midnightblue" d="M222.039,-56.324C212.873,-48.3414 199.063,-36.3128 187.972,-26.6529"/>
<polygon fill="midnightblue" stroke="midnightblue" points="189.982,-23.7624 180.143,-19.8339 185.385,-29.041 189.982,-23.7624"/>
</g>
<!-- Node6 -->
<g id="node7" class="node"><title>Node6</title>
<polygon fill="white" stroke="#bfbfbf" points="237,-0.5 237,-19.5 349,-19.5 349,-0.5 237,-0.5"/>
<text text-anchor="middle" x="293" y="-7.5" font-family="Helvetica,sans-Serif" font-size="10.00">MooseVariableBase.h</text>
</g>
<!-- Node4&#45;&gt;Node6 -->
<g id="edge6" class="edge"><title>Node4&#45;&gt;Node6</title>
<path fill="none" stroke="midnightblue" d="M241.801,-56.324C250.818,-48.3414 264.406,-36.3128 275.318,-26.6529"/>
<polygon fill="midnightblue" stroke="midnightblue" points="277.853,-29.083 283.021,-19.8339 273.213,-23.8416 277.853,-29.083"/>
</g>
</g>
</svg>
