<?xml version="1.0" encoding="UTF-8" standalone="no"?>
<!DOCTYPE svg PUBLIC "-//W3C//DTD SVG 1.1//EN"
 "http://www.w3.org/Graphics/SVG/1.1/DTD/svg11.dtd">
<!-- Generated by graphviz version 2.38.0 (20140413.2041)
 -->
<!-- Title: src/auxkernels/FissionHeatSourceAux.C Pages: 1 -->
<svg width="144pt" height="151pt"
 viewBox="0.00 0.00 144.00 151.00" xmlns="http://www.w3.org/2000/svg" xmlns:xlink="http://www.w3.org/1999/xlink">
<g id="graph0" class="graph" transform="scale(1 1) rotate(0) translate(4 147)">
<title>src/auxkernels/FissionHeatSourceAux.C</title>
<polygon fill="white" stroke="none" points="-4,4 -4,-147 140,-147 140,4 -4,4"/>
<!-- Node0 -->
<g id="node1" class="node"><title>Node0</title>
<polygon fill="#bfbfbf" stroke="black" points="0,-112.5 0,-142.5 136,-142.5 136,-112.5 0,-112.5"/>
<text text-anchor="start" x="8" y="-130.5" font-family="Helvetica,sans-Serif" font-size="10.00">src/auxkernels/FissionHeat</text>
<text text-anchor="middle" x="68" y="-119.5" font-family="Helvetica,sans-Serif" font-size="10.00">SourceAux.C</text>
</g>
<!-- Node1 -->
<g id="node2" class="node"><title>Node1</title>
<g id="a_node2"><a xlink:href="_fission_heat_source_aux_8h.html" target="_top" xlink:title="FissionHeatSourceAux.h">
<polygon fill="white" stroke="black" points="5.5,-56.5 5.5,-75.5 130.5,-75.5 130.5,-56.5 5.5,-56.5"/>
<text text-anchor="middle" x="68" y="-63.5" font-family="Helvetica,sans-Serif" font-size="10.00">FissionHeatSourceAux.h</text>
</a>
</g>
</g>
<!-- Node0&#45;&gt;Node1 -->
<g id="edge1" class="edge"><title>Node0&#45;&gt;Node1</title>
<path fill="none" stroke="midnightblue" d="M68,-112.399C68,-104.466 68,-94.458 68,-85.8583"/>
<polygon fill="midnightblue" stroke="midnightblue" points="71.5001,-85.6577 68,-75.6578 64.5001,-85.6578 71.5001,-85.6577"/>
</g>
<!-- Node2 -->
<g id="node3" class="node"><title>Node2</title>
<polygon fill="white" stroke="#bfbfbf" points="33,-0.5 33,-19.5 103,-19.5 103,-0.5 33,-0.5"/>
<text text-anchor="middle" x="68" y="-7.5" font-family="Helvetica,sans-Serif" font-size="10.00">AuxKernel.h</text>
</g>
<!-- Node1&#45;&gt;Node2 -->
<g id="edge2" class="edge"><title>Node1&#45;&gt;Node2</title>
<path fill="none" stroke="midnightblue" d="M68,-56.083C68,-49.0059 68,-38.8611 68,-29.9865"/>
<polygon fill="midnightblue" stroke="midnightblue" points="71.5001,-29.751 68,-19.7511 64.5001,-29.7511 71.5001,-29.751"/>
</g>
</g>
</svg>
