<?xml version="1.0" encoding="UTF-8" standalone="no"?>
<!DOCTYPE svg PUBLIC "-//W3C//DTD SVG 1.1//EN"
 "http://www.w3.org/Graphics/SVG/1.1/DTD/svg11.dtd">
<!-- Generated by graphviz version 2.38.0 (20140413.2041)
 -->
<!-- Title: include/materials/GenericMoltresMaterial.h Pages: 1 -->
<!--zoomable 162 -->
<svg id="main" version="1.1" xmlns="http://www.w3.org/2000/svg" xmlns:xlink="http://www.w3.org/1999/xlink" xml:space="preserve" onload="init(evt)">
<style type="text/css"><![CDATA[
.edge:hover path { stroke: red; }
.edge:hover polygon { stroke: red; fill: red; }
]]></style>
<script type="text/javascript"><![CDATA[
var edges = document.getElementsByTagName('g');
if (edges && edges.length) {
  for (var i=0;i<edges.length;i++) {
    if (edges[i].id.substr(0,4)=='edge') {
      edges[i].setAttribute('class','edge');
    }
  }
}
]]></script>
        <defs>
                <circle id="rim" cx="0" cy="0" r="7"/>
                <circle id="rim2" cx="0" cy="0" r="3.5"/>
                <g id="zoomPlus">
                        <use xlink:href="#rim" fill="#404040">
                                <set attributeName="fill" to="#808080" begin="zoomplus.mouseover" end="zoomplus.mouseout"/>
                        </use>
                        <path d="M-4,0h8M0,-4v8" fill="none" stroke="white" stroke-width="1.5" pointer-events="none"/>
                </g>
                <g id="zoomMin">
                        <use xlink:href="#rim" fill="#404040">
                                <set attributeName="fill" to="#808080" begin="zoomminus.mouseover" end="zoomminus.mouseout"/>
                        </use>
                        <path d="M-4,0h8" fill="none" stroke="white" stroke-width="1.5" pointer-events="none"/>
                </g>
                <g id="dirArrow">
                        <path fill="none" stroke="white" stroke-width="1.5" d="M0,-3.0v7 M-2.5,-0.5L0,-3.0L2.5,-0.5"/>
                </g>
               <g id="resetDef">
                       <use xlink:href="#rim2" fill="#404040">
                               <set attributeName="fill" to="#808080" begin="reset.mouseover" end="reset.mouseout"/>
                       </use>
               </g>
        </defs>

<script type="text/javascript">
var viewWidth = 565;
var viewHeight = 162;
var sectionId = 'dynsection-1';
</script>
<script xlink:href="svgpan.js"/>
<svg id="graph" class="graph">
<g id="viewport">
<title>include/materials/GenericMoltresMaterial.h</title>
<polygon fill="white" stroke="none" points="-4,4 -4,-158 560.5,-158 560.5,4 -4,4"/>
<!-- Node4 -->
<g id="node1" class="node"><title>Node4</title>
<polygon fill="#bfbfbf" stroke="black" points="226.5,-123.5 226.5,-153.5 353.5,-153.5 353.5,-123.5 226.5,-123.5"/>
<text text-anchor="start" x="234.5" y="-141.5" font-family="Helvetica,sans-Serif" font-size="10.00">include/materials/Generic</text>
<text text-anchor="middle" x="290" y="-130.5" font-family="Helvetica,sans-Serif" font-size="10.00">MoltresMaterial.h</text>
</g>
<!-- Node5 -->
<g id="node2" class="node"><title>Node5</title>
<g id="a_node2"><a xlink:href="_moltres_app_8_c.html" target="_top" xlink:title="src/base/MoltresApp.C">
<polygon fill="white" stroke="black" points="260.5,-0.5 260.5,-19.5 377.5,-19.5 377.5,-0.5 260.5,-0.5"/>
<text text-anchor="middle" x="319" y="-7.5" font-family="Helvetica,sans-Serif" font-size="10.00">src/base/MoltresApp.C</text>
</a>
</g>
</g>
<!-- Node4&#45;&gt;Node5 -->
<g id="edge1" class="edge"><title>Node4&#45;&gt;Node5</title>
<path fill="none" stroke="midnightblue" d="M307.41,-115.095C312.875,-106.747 318.207,-96.8878 321,-87 327.673,-63.3741 323.594,-33.9597 320.864,-19.6402"/>
<polygon fill="midnightblue" stroke="midnightblue" points="304.403,-113.288 301.542,-123.489 310.14,-117.299 304.403,-113.288"/>
</g>
<!-- Node6 -->
<g id="node3" class="node"><title>Node6</title>
<g id="a_node3"><a xlink:href="_generic_moltres_material_8_c.html" target="_top" xlink:title="src/materials/GenericMoltres\lMaterial.C">
<polygon fill="white" stroke="black" points="170,-56.5 170,-86.5 312,-86.5 312,-56.5 170,-56.5"/>
<text text-anchor="start" x="178" y="-74.5" font-family="Helvetica,sans-Serif" font-size="10.00">src/materials/GenericMoltres</text>
<text text-anchor="middle" x="241" y="-63.5" font-family="Helvetica,sans-Serif" font-size="10.00">Material.C</text>
</a>
</g>
</g>
<!-- Node4&#45;&gt;Node6 -->
<g id="edge2" class="edge"><title>Node4&#45;&gt;Node6</title>
<path fill="none" stroke="midnightblue" d="M273.157,-115.157C266.012,-105.679 257.9,-94.9186 251.612,-86.5765"/>
<polygon fill="midnightblue" stroke="midnightblue" points="270.553,-117.518 279.368,-123.396 276.143,-113.304 270.553,-117.518"/>
</g>
<!-- Node7 -->
<g id="node4" class="node"><title>Node7</title>
<g id="a_node4"><a xlink:href="_cammi_fuel_8h.html" target="_top" xlink:title="include/materials/CammiFuel.h">
<polygon fill="white" stroke="black" points="0,-62 0,-81 152,-81 152,-62 0,-62"/>
<text text-anchor="middle" x="76" y="-69" font-family="Helvetica,sans-Serif" font-size="10.00">include/materials/CammiFuel.h</text>
</a>
</g>
</g>
<!-- Node4&#45;&gt;Node7 -->
<g id="edge3" class="edge"><title>Node4&#45;&gt;Node7</title>
<path fill="none" stroke="midnightblue" d="M234.064,-120.51C192.301,-107.825 136.98,-91.0219 104.079,-81.0287"/>
<polygon fill="midnightblue" stroke="midnightblue" points="233.243,-123.919 243.829,-123.476 235.278,-117.221 233.243,-123.919"/>
</g>
<!-- Node9 -->
<g id="node6" class="node"><title>Node9</title>
<g id="a_node6"><a xlink:href="_cammi_moderator_8h.html" target="_top" xlink:title="include/materials/CammiModerator.h">
<polygon fill="white" stroke="black" points="368,-62 368,-81 544,-81 544,-62 368,-62"/>
<text text-anchor="middle" x="456" y="-69" font-family="Helvetica,sans-Serif" font-size="10.00">include/materials/CammiModerator.h</text>
</a>
</g>
</g>
<!-- Node4&#45;&gt;Node9 -->
<g id="edge6" class="edge"><title>Node4&#45;&gt;Node9</title>
<path fill="none" stroke="midnightblue" d="M335.659,-119.621C367.79,-107.04 409.351,-90.7661 434.274,-81.007"/>
<polygon fill="midnightblue" stroke="midnightblue" points="334.055,-116.491 326.02,-123.396 336.607,-123.009 334.055,-116.491"/>
</g>
<!-- Node7&#45;&gt;Node5 -->
<g id="edge4" class="edge"><title>Node7&#45;&gt;Node5</title>
<path fill="none" stroke="midnightblue" d="M120.756,-59.5412C167.932,-47.99 241.242,-30.0394 284.249,-19.5091"/>
<polygon fill="midnightblue" stroke="midnightblue" points="119.697,-56.1971 110.816,-61.9751 121.361,-62.9963 119.697,-56.1971"/>
</g>
<!-- Node8 -->
<g id="node5" class="node"><title>Node8</title>
<g id="a_node5"><a xlink:href="_cammi_fuel_8_c.html" target="_top" xlink:title="src/materials/CammiFuel.C">
<polygon fill="white" stroke="black" points="7.5,-0.5 7.5,-19.5 144.5,-19.5 144.5,-0.5 7.5,-0.5"/>
<text text-anchor="middle" x="76" y="-7.5" font-family="Helvetica,sans-Serif" font-size="10.00">src/materials/CammiFuel.C</text>
</a>
</g>
</g>
<!-- Node7&#45;&gt;Node8 -->
<g id="edge5" class="edge"><title>Node7&#45;&gt;Node8</title>
<path fill="none" stroke="midnightblue" d="M76,-51.8165C76,-40.9962 76,-27.898 76,-19.5091"/>
<polygon fill="midnightblue" stroke="midnightblue" points="72.5001,-51.9751 76,-61.9751 79.5001,-51.9751 72.5001,-51.9751"/>
</g>
<!-- Node9&#45;&gt;Node5 -->
<g id="edge7" class="edge"><title>Node9&#45;&gt;Node5</title>
<path fill="none" stroke="midnightblue" d="M427.171,-57.9795C400.564,-46.4238 361.771,-29.5758 338.592,-19.5091"/>
<polygon fill="midnightblue" stroke="midnightblue" points="425.805,-61.2018 436.371,-61.9751 428.593,-54.7811 425.805,-61.2018"/>
</g>
<!-- Node10 -->
<g id="node7" class="node"><title>Node10</title>
<g id="a_node7"><a xlink:href="_cammi_moderator_8_c.html" target="_top" xlink:title="src/materials/CammiModerator.C">
<polygon fill="white" stroke="black" points="395.5,-0.5 395.5,-19.5 556.5,-19.5 556.5,-0.5 395.5,-0.5"/>
<text text-anchor="middle" x="476" y="-7.5" font-family="Helvetica,sans-Serif" font-size="10.00">src/materials/CammiModerator.C</text>
</a>
</g>
</g>
<!-- Node9&#45;&gt;Node10 -->
<g id="edge8" class="edge"><title>Node9&#45;&gt;Node10</title>
<path fill="none" stroke="midnightblue" d="M462.166,-52.1575C465.824,-41.2724 470.29,-27.9863 473.14,-19.5091"/>
<polygon fill="midnightblue" stroke="midnightblue" points="458.734,-51.3811 458.866,-61.9751 465.369,-53.6114 458.734,-51.3811"/>
</g>
</g>
</svg>
        <g id="navigator" transform="translate(0 0)" fill="#404254">
                <rect fill="#f2f5e9" fill-opacity="0.5" stroke="#606060" stroke-width=".5" x="0" y="0" width="60" height="60"/>
                <use id="zoomplus" xlink:href="#zoomPlus" x="17" y="9" onmousedown="handleZoom(evt,'in')"/>
                <use id="zoomminus" xlink:href="#zoomMin" x="42" y="9" onmousedown="handleZoom(evt,'out')"/>
                <use id="reset" xlink:href="#resetDef" x="30" y="36" onmousedown="handleReset()"/>
                <g id="arrowUp" xlink:href="#dirArrow" transform="translate(30 24)" onmousedown="handlePan(0,-1)">
                  <use xlink:href="#rim" fill="#404040">
                        <set attributeName="fill" to="#808080" begin="arrowUp.mouseover" end="arrowUp.mouseout"/>
                  </use>
                  <path fill="none" stroke="white" stroke-width="1.5" d="M0,-3.0v7 M-2.5,-0.5L0,-3.0L2.5,-0.5"/>
                </g>
                <g id="arrowRight" xlink:href="#dirArrow" transform="rotate(90) translate(36 -43)" onmousedown="handlePan(1,0)">
                  <use xlink:href="#rim" fill="#404040">
                        <set attributeName="fill" to="#808080" begin="arrowRight.mouseover" end="arrowRight.mouseout"/>
                  </use>
                  <path fill="none" stroke="white" stroke-width="1.5" d="M0,-3.0v7 M-2.5,-0.5L0,-3.0L2.5,-0.5"/>
                </g>
                <g id="arrowDown" xlink:href="#dirArrow" transform="rotate(180) translate(-30 -48)" onmousedown="handlePan(0,1)">
                  <use xlink:href="#rim" fill="#404040">
                        <set attributeName="fill" to="#808080" begin="arrowDown.mouseover" end="arrowDown.mouseout"/>
                  </use>
                  <path fill="none" stroke="white" stroke-width="1.5" d="M0,-3.0v7 M-2.5,-0.5L0,-3.0L2.5,-0.5"/>
                </g>
                <g id="arrowLeft" xlink:href="#dirArrow" transform="rotate(270) translate(-36 17)" onmousedown="handlePan(-1,0)">
                  <use xlink:href="#rim" fill="#404040">
                        <set attributeName="fill" to="#808080" begin="arrowLeft.mouseover" end="arrowLeft.mouseout"/>
                  </use>
                  <path fill="none" stroke="white" stroke-width="1.5" d="M0,-3.0v7 M-2.5,-0.5L0,-3.0L2.5,-0.5"/>
                </g>
        </g>
        <svg viewBox="0 0 15 15" width="100%" height="30px" preserveAspectRatio="xMaxYMin meet">
         <g id="arrow_out" transform="scale(0.3 0.3)">
          <a xlink:href="_generic_moltres_material_8h__dep__incl_org.svg" target="_base">
           <rect id="button" ry="5" rx="5" y="6" x="6" height="38" width="38"
                fill="#f2f5e9" fill-opacity="0.5" stroke="#606060" stroke-width="1.0"/>
           <path id="arrow"
             d="M 11.500037,31.436501 C 11.940474,20.09759 22.043105,11.32322 32.158766,21.979434 L 37.068811,17.246167 C 37.068811,17.246167 37.088388,32 37.088388,32 L 22.160133,31.978069 C 22.160133,31.978069 26.997745,27.140456 26.997745,27.140456 C 18.528582,18.264221 13.291696,25.230495 11.500037,31.436501 z"
             style="fill:#404040;"/>
          </a>
         </g>
        </svg>
</svg>
