<?xml version="1.0" encoding="UTF-8" standalone="no"?>
<!DOCTYPE svg PUBLIC "-//W3C//DTD SVG 1.1//EN"
 "http://www.w3.org/Graphics/SVG/1.1/DTD/svg11.dtd">
<!-- Generated by graphviz version 2.38.0 (20140413.2041)
 -->
<!-- Title: src/postprocessors/IntegralOldVariablePostprocessor.C Pages: 1 -->
<svg width="444pt" height="207pt"
 viewBox="0.00 0.00 444.00 207.00" xmlns="http://www.w3.org/2000/svg" xmlns:xlink="http://www.w3.org/1999/xlink">
<g id="graph0" class="graph" transform="scale(1 1) rotate(0) translate(4 203)">
<title>src/postprocessors/IntegralOldVariablePostprocessor.C</title>
<polygon fill="white" stroke="none" points="-4,4 -4,-203 440,-203 440,4 -4,4"/>
<!-- Node0 -->
<g id="node1" class="node"><title>Node0</title>
<polygon fill="#bfbfbf" stroke="black" points="144,-168.5 144,-198.5 320,-198.5 320,-168.5 144,-168.5"/>
<text text-anchor="start" x="152" y="-186.5" font-family="Helvetica,sans-Serif" font-size="10.00">src/postprocessors</text>
<text text-anchor="middle" x="232" y="-175.5" font-family="Helvetica,sans-Serif" font-size="10.00">/IntegralOldVariablePostprocessor.C</text>
</g>
<!-- Node1 -->
<g id="node2" class="node"><title>Node1</title>
<g id="a_node2"><a xlink:href="_integral_old_variable_postprocessor_8h.html" target="_top" xlink:title="IntegralOldVariablePostprocessor.h">
<polygon fill="white" stroke="black" points="147,-112.5 147,-131.5 317,-131.5 317,-112.5 147,-112.5"/>
<text text-anchor="middle" x="232" y="-119.5" font-family="Helvetica,sans-Serif" font-size="10.00">IntegralOldVariablePostprocessor.h</text>
</a>
</g>
</g>
<!-- Node0&#45;&gt;Node1 -->
<g id="edge1" class="edge"><title>Node0&#45;&gt;Node1</title>
<path fill="none" stroke="midnightblue" d="M232,-168.399C232,-160.466 232,-150.458 232,-141.858"/>
<polygon fill="midnightblue" stroke="midnightblue" points="235.5,-141.658 232,-131.658 228.5,-141.658 235.5,-141.658"/>
</g>
<!-- Node2 -->
<g id="node3" class="node"><title>Node2</title>
<polygon fill="white" stroke="#bfbfbf" points="0,-56.5 0,-75.5 156,-75.5 156,-56.5 0,-56.5"/>
<text text-anchor="middle" x="78" y="-63.5" font-family="Helvetica,sans-Serif" font-size="10.00">ElementIntegralPostprocessor.h</text>
</g>
<!-- Node1&#45;&gt;Node2 -->
<g id="edge2" class="edge"><title>Node1&#45;&gt;Node2</title>
<path fill="none" stroke="midnightblue" d="M207.598,-112.444C181.803,-103.399 140.923,-89.064 111.982,-78.9158"/>
<polygon fill="midnightblue" stroke="midnightblue" points="112.882,-75.5226 102.288,-75.5164 110.566,-82.1283 112.882,-75.5226"/>
</g>
<!-- Node3 -->
<g id="node4" class="node"><title>Node3</title>
<g id="a_node4"><a xlink:href="_scalar_transport_base_8h.html" target="_top" xlink:title="ScalarTransportBase.h">
<polygon fill="white" stroke="black" points="174,-56.5 174,-75.5 290,-75.5 290,-56.5 174,-56.5"/>
<text text-anchor="middle" x="232" y="-63.5" font-family="Helvetica,sans-Serif" font-size="10.00">ScalarTransportBase.h</text>
</a>
</g>
</g>
<!-- Node1&#45;&gt;Node3 -->
<g id="edge3" class="edge"><title>Node1&#45;&gt;Node3</title>
<path fill="none" stroke="midnightblue" d="M232,-112.083C232,-105.006 232,-94.8611 232,-85.9865"/>
<polygon fill="midnightblue" stroke="midnightblue" points="235.5,-85.751 232,-75.7511 228.5,-85.7511 235.5,-85.751"/>
</g>
<!-- Node6 -->
<g id="node7" class="node"><title>Node6</title>
<polygon fill="white" stroke="#bfbfbf" points="308,-56.5 308,-75.5 436,-75.5 436,-56.5 308,-56.5"/>
<text text-anchor="middle" x="372" y="-63.5" font-family="Helvetica,sans-Serif" font-size="10.00">MooseVariableInterface.h</text>
</g>
<!-- Node1&#45;&gt;Node6 -->
<g id="edge6" class="edge"><title>Node1&#45;&gt;Node6</title>
<path fill="none" stroke="midnightblue" d="M254.183,-112.444C277.428,-103.478 314.149,-89.314 340.415,-79.1827"/>
<polygon fill="midnightblue" stroke="midnightblue" points="341.85,-82.3807 349.92,-75.5164 339.331,-75.8497 341.85,-82.3807"/>
</g>
<!-- Node4 -->
<g id="node5" class="node"><title>Node4</title>
<polygon fill="white" stroke="#bfbfbf" points="121.5,-0.5 121.5,-19.5 218.5,-19.5 218.5,-0.5 121.5,-0.5"/>
<text text-anchor="middle" x="170" y="-7.5" font-family="Helvetica,sans-Serif" font-size="10.00">InputParameters.h</text>
</g>
<!-- Node3&#45;&gt;Node4 -->
<g id="edge4" class="edge"><title>Node3&#45;&gt;Node4</title>
<path fill="none" stroke="midnightblue" d="M222.039,-56.324C212.873,-48.3414 199.063,-36.3128 187.972,-26.6529"/>
<polygon fill="midnightblue" stroke="midnightblue" points="189.982,-23.7624 180.143,-19.8339 185.385,-29.041 189.982,-23.7624"/>
</g>
<!-- Node5 -->
<g id="node6" class="node"><title>Node5</title>
<polygon fill="white" stroke="#bfbfbf" points="237,-0.5 237,-19.5 349,-19.5 349,-0.5 237,-0.5"/>
<text text-anchor="middle" x="293" y="-7.5" font-family="Helvetica,sans-Serif" font-size="10.00">MooseVariableBase.h</text>
</g>
<!-- Node3&#45;&gt;Node5 -->
<g id="edge5" class="edge"><title>Node3&#45;&gt;Node5</title>
<path fill="none" stroke="midnightblue" d="M241.801,-56.324C250.818,-48.3414 264.406,-36.3128 275.318,-26.6529"/>
<polygon fill="midnightblue" stroke="midnightblue" points="277.853,-29.083 283.021,-19.8339 273.213,-23.8416 277.853,-29.083"/>
</g>
</g>
</svg>
