<?xml version="1.0" encoding="UTF-8" standalone="no"?>
<!DOCTYPE svg PUBLIC "-//W3C//DTD SVG 1.1//EN"
 "http://www.w3.org/Graphics/SVG/1.1/DTD/svg11.dtd">
<!-- Generated by graphviz version 2.38.0 (20140413.2041)
 -->
<!-- Title: src/auxkernels/MatDiffusionAux.C Pages: 1 -->
<svg width="192pt" height="151pt"
 viewBox="0.00 0.00 192.00 151.00" xmlns="http://www.w3.org/2000/svg" xmlns:xlink="http://www.w3.org/1999/xlink">
<g id="graph0" class="graph" transform="scale(1 1) rotate(0) translate(4 147)">
<title>src/auxkernels/MatDiffusionAux.C</title>
<polygon fill="white" stroke="none" points="-4,4 -4,-147 188,-147 188,4 -4,4"/>
<!-- Node0 -->
<g id="node1" class="node"><title>Node0</title>
<polygon fill="#bfbfbf" stroke="black" points="15.5,-112.5 15.5,-142.5 154.5,-142.5 154.5,-112.5 15.5,-112.5"/>
<text text-anchor="start" x="23.5" y="-130.5" font-family="Helvetica,sans-Serif" font-size="10.00">src/auxkernels/MatDiffusion</text>
<text text-anchor="middle" x="85" y="-119.5" font-family="Helvetica,sans-Serif" font-size="10.00">Aux.C</text>
</g>
<!-- Node1 -->
<g id="node2" class="node"><title>Node1</title>
<g id="a_node2"><a xlink:href="_mat_diffusion_aux_8h.html" target="_top" xlink:title="MatDiffusionAux.h">
<polygon fill="white" stroke="black" points="36,-56.5 36,-75.5 134,-75.5 134,-56.5 36,-56.5"/>
<text text-anchor="middle" x="85" y="-63.5" font-family="Helvetica,sans-Serif" font-size="10.00">MatDiffusionAux.h</text>
</a>
</g>
</g>
<!-- Node0&#45;&gt;Node1 -->
<g id="edge1" class="edge"><title>Node0&#45;&gt;Node1</title>
<path fill="none" stroke="midnightblue" d="M85,-112.399C85,-104.466 85,-94.458 85,-85.8583"/>
<polygon fill="midnightblue" stroke="midnightblue" points="88.5001,-85.6577 85,-75.6578 81.5001,-85.6578 88.5001,-85.6577"/>
</g>
<!-- Node2 -->
<g id="node3" class="node"><title>Node2</title>
<polygon fill="white" stroke="#bfbfbf" points="0,-0.5 0,-19.5 70,-19.5 70,-0.5 0,-0.5"/>
<text text-anchor="middle" x="35" y="-7.5" font-family="Helvetica,sans-Serif" font-size="10.00">AuxKernel.h</text>
</g>
<!-- Node1&#45;&gt;Node2 -->
<g id="edge2" class="edge"><title>Node1&#45;&gt;Node2</title>
<path fill="none" stroke="midnightblue" d="M76.7435,-56.083C69.5353,-48.2982 58.8902,-36.8015 50.1542,-27.3665"/>
<polygon fill="midnightblue" stroke="midnightblue" points="52.4651,-24.7108 43.1028,-19.7511 47.3288,-29.4666 52.4651,-24.7108"/>
</g>
<!-- Node3 -->
<g id="node4" class="node"><title>Node3</title>
<polygon fill="white" stroke="#bfbfbf" points="88,-0.5 88,-19.5 184,-19.5 184,-0.5 88,-0.5"/>
<text text-anchor="middle" x="136" y="-7.5" font-family="Helvetica,sans-Serif" font-size="10.00">MaterialProperty.h</text>
</g>
<!-- Node1&#45;&gt;Node3 -->
<g id="edge3" class="edge"><title>Node1&#45;&gt;Node3</title>
<path fill="none" stroke="midnightblue" d="M93.4216,-56.083C100.848,-48.2195 111.852,-36.5688 120.812,-27.0813"/>
<polygon fill="midnightblue" stroke="midnightblue" points="123.413,-29.4244 127.735,-19.7511 118.324,-24.618 123.413,-29.4244"/>
</g>
</g>
</svg>
