<?xml version="1.0" encoding="UTF-8" standalone="no"?>
<!DOCTYPE svg PUBLIC "-//W3C//DTD SVG 1.1//EN"
 "http://www.w3.org/Graphics/SVG/1.1/DTD/svg11.dtd">
<!-- Generated by graphviz version 2.38.0 (20140413.2041)
 -->
<!-- Title: include/bcs/ScalarAdvectionArtDiffNoBCBC.h Pages: 1 -->
<svg width="280pt" height="106pt"
 viewBox="0.00 0.00 279.50 106.00" xmlns="http://www.w3.org/2000/svg" xmlns:xlink="http://www.w3.org/1999/xlink">
<g id="graph0" class="graph" transform="scale(1 1) rotate(0) translate(4 102)">
<title>include/bcs/ScalarAdvectionArtDiffNoBCBC.h</title>
<polygon fill="white" stroke="none" points="-4,4 -4,-102 275.5,-102 275.5,4 -4,4"/>
<!-- Node5 -->
<g id="node1" class="node"><title>Node5</title>
<polygon fill="#bfbfbf" stroke="black" points="60.5,-67.5 60.5,-97.5 200.5,-97.5 200.5,-67.5 60.5,-67.5"/>
<text text-anchor="start" x="68.5" y="-85.5" font-family="Helvetica,sans-Serif" font-size="10.00">include/bcs/ScalarAdvection</text>
<text text-anchor="middle" x="130.5" y="-74.5" font-family="Helvetica,sans-Serif" font-size="10.00">ArtDiffNoBCBC.h</text>
</g>
<!-- Node6 -->
<g id="node2" class="node"><title>Node6</title>
<g id="a_node2"><a xlink:href="_moltres_app_8_c.html" target="_top" xlink:title="src/base/MoltresApp.C">
<polygon fill="white" stroke="black" points="0,-6 0,-25 117,-25 117,-6 0,-6"/>
<text text-anchor="middle" x="58.5" y="-13" font-family="Helvetica,sans-Serif" font-size="10.00">src/base/MoltresApp.C</text>
</a>
</g>
</g>
<!-- Node5&#45;&gt;Node6 -->
<g id="edge1" class="edge"><title>Node5&#45;&gt;Node6</title>
<path fill="none" stroke="midnightblue" d="M107.429,-60.6722C94.1352,-48.6707 78.1286,-34.2203 68.1309,-25.1945"/>
<polygon fill="midnightblue" stroke="midnightblue" points="105.109,-63.2929 114.877,-67.396 109.8,-58.097 105.109,-63.2929"/>
</g>
<!-- Node7 -->
<g id="node3" class="node"><title>Node7</title>
<g id="a_node3"><a xlink:href="_scalar_advection_art_diff_no_b_c_b_c_8_c.html" target="_top" xlink:title="src/bcs/ScalarAdvectionArt\lDiffNoBCBC.C">
<polygon fill="white" stroke="black" points="135.5,-0.5 135.5,-30.5 271.5,-30.5 271.5,-0.5 135.5,-0.5"/>
<text text-anchor="start" x="143.5" y="-18.5" font-family="Helvetica,sans-Serif" font-size="10.00">src/bcs/ScalarAdvectionArt</text>
<text text-anchor="middle" x="203.5" y="-7.5" font-family="Helvetica,sans-Serif" font-size="10.00">DiffNoBCBC.C</text>
</a>
</g>
</g>
<!-- Node5&#45;&gt;Node7 -->
<g id="edge2" class="edge"><title>Node5&#45;&gt;Node7</title>
<path fill="none" stroke="midnightblue" d="M153.975,-60.5978C164.997,-50.7831 177.844,-39.3442 187.691,-30.5765"/>
<polygon fill="midnightblue" stroke="midnightblue" points="151.481,-58.132 146.34,-67.396 156.136,-63.3599 151.481,-58.132"/>
</g>
</g>
</svg>
