<?xml version="1.0" encoding="UTF-8" standalone="no"?>
<!DOCTYPE svg PUBLIC "-//W3C//DTD SVG 1.1//EN"
 "http://www.w3.org/Graphics/SVG/1.1/DTD/svg11.dtd">
<!-- Generated by graphviz version 2.38.0 (20140413.2041)
 -->
<!-- Title: ScalarAdvectionArtDiffNoBCBC Pages: 1 -->
<svg width="208pt" height="84pt"
 viewBox="0.00 0.00 208.00 84.00" xmlns="http://www.w3.org/2000/svg" xmlns:xlink="http://www.w3.org/1999/xlink">
<g id="graph0" class="graph" transform="scale(1 1) rotate(0) translate(4 80)">
<title>ScalarAdvectionArtDiffNoBCBC</title>
<polygon fill="white" stroke="none" points="-4,4 -4,-80 204,-80 204,4 -4,4"/>
<!-- Node0 -->
<g id="node1" class="node"><title>Node0</title>
<polygon fill="#bfbfbf" stroke="black" points="12,-0.5 12,-19.5 170,-19.5 170,-0.5 12,-0.5"/>
<text text-anchor="middle" x="91" y="-7.5" font-family="Helvetica,sans-Serif" font-size="10.00">ScalarAdvectionArtDiffNoBCBC</text>
</g>
<!-- Node1 -->
<g id="node2" class="node"><title>Node1</title>
<polygon fill="white" stroke="#bfbfbf" points="0,-56.5 0,-75.5 74,-75.5 74,-56.5 0,-56.5"/>
<text text-anchor="middle" x="37" y="-63.5" font-family="Helvetica,sans-Serif" font-size="10.00">IntegratedBC</text>
</g>
<!-- Node1&#45;&gt;Node0 -->
<g id="edge1" class="edge"><title>Node1&#45;&gt;Node0</title>
<path fill="none" stroke="midnightblue" d="M52.9976,-49.0024C62.5671,-39.4329 74.3611,-27.6389 82.2489,-19.7511"/>
<polygon fill="midnightblue" stroke="midnightblue" points="50.5132,-46.537 45.917,-56.083 55.463,-51.4868 50.5132,-46.537"/>
</g>
<!-- Node2 -->
<g id="node3" class="node"><title>Node2</title>
<g id="a_node3"><a xlink:href="class_scalar_transport_base.html" target="_top" xlink:title="ScalarTransportBase">
<polygon fill="white" stroke="black" points="92,-56.5 92,-75.5 200,-75.5 200,-56.5 92,-56.5"/>
<text text-anchor="middle" x="146" y="-63.5" font-family="Helvetica,sans-Serif" font-size="10.00">ScalarTransportBase</text>
</a>
</g>
</g>
<!-- Node2&#45;&gt;Node0 -->
<g id="edge2" class="edge"><title>Node2&#45;&gt;Node0</title>
<path fill="none" stroke="midnightblue" d="M129.706,-49.0024C119.959,-39.4329 107.947,-27.6389 99.9131,-19.7511"/>
<polygon fill="midnightblue" stroke="midnightblue" points="127.33,-51.5746 136.918,-56.083 132.234,-46.5796 127.33,-51.5746"/>
</g>
</g>
</svg>
