<?xml version="1.0" encoding="UTF-8" standalone="no"?>
<!DOCTYPE svg PUBLIC "-//W3C//DTD SVG 1.1//EN"
 "http://www.w3.org/Graphics/SVG/1.1/DTD/svg11.dtd">
<!-- Generated by graphviz version 2.38.0 (20140413.2041)
 -->
<!-- Title: GenericMoltresMaterial Pages: 1 -->
<svg width="186pt" height="140pt"
 viewBox="0.00 0.00 185.50 140.00" xmlns="http://www.w3.org/2000/svg" xmlns:xlink="http://www.w3.org/1999/xlink">
<g id="graph0" class="graph" transform="scale(1 1) rotate(0) translate(4 136)">
<title>GenericMoltresMaterial</title>
<polygon fill="white" stroke="none" points="-4,4 -4,-136 181.5,-136 181.5,4 -4,4"/>
<!-- Node0 -->
<g id="node1" class="node"><title>Node0</title>
<polygon fill="#bfbfbf" stroke="black" points="24,-56.5 24,-75.5 141,-75.5 141,-56.5 24,-56.5"/>
<text text-anchor="middle" x="82.5" y="-63.5" font-family="Helvetica,sans-Serif" font-size="10.00">GenericMoltresMaterial</text>
</g>
<!-- Node2 -->
<g id="node3" class="node"><title>Node2</title>
<g id="a_node3"><a xlink:href="class_cammi_fuel.html" target="_top" xlink:title="CammiFuel">
<polygon fill="white" stroke="black" points="0,-0.5 0,-19.5 67,-19.5 67,-0.5 0,-0.5"/>
<text text-anchor="middle" x="33.5" y="-7.5" font-family="Helvetica,sans-Serif" font-size="10.00">CammiFuel</text>
</a>
</g>
</g>
<!-- Node0&#45;&gt;Node2 -->
<g id="edge2" class="edge"><title>Node0&#45;&gt;Node2</title>
<path fill="none" stroke="midnightblue" d="M67.4655,-48.4314C58.8778,-38.9673 48.4565,-27.4827 41.4408,-19.7511"/>
<polygon fill="midnightblue" stroke="midnightblue" points="65.0967,-51.0293 74.4086,-56.083 70.2807,-46.3254 65.0967,-51.0293"/>
</g>
<!-- Node3 -->
<g id="node4" class="node"><title>Node3</title>
<g id="a_node4"><a xlink:href="class_cammi_moderator.html" target="_top" xlink:title="CammiModerator">
<polygon fill="white" stroke="black" points="85.5,-0.5 85.5,-19.5 177.5,-19.5 177.5,-0.5 85.5,-0.5"/>
<text text-anchor="middle" x="131.5" y="-7.5" font-family="Helvetica,sans-Serif" font-size="10.00">CammiModerator</text>
</a>
</g>
</g>
<!-- Node0&#45;&gt;Node3 -->
<g id="edge3" class="edge"><title>Node0&#45;&gt;Node3</title>
<path fill="none" stroke="midnightblue" d="M97.5345,-48.4314C106.122,-38.9673 116.543,-27.4827 123.559,-19.7511"/>
<polygon fill="midnightblue" stroke="midnightblue" points="94.7193,-46.3254 90.5914,-56.083 99.9033,-51.0293 94.7193,-46.3254"/>
</g>
<!-- Node1 -->
<g id="node2" class="node"><title>Node1</title>
<polygon fill="white" stroke="#bfbfbf" points="20,-112.5 20,-131.5 145,-131.5 145,-112.5 20,-112.5"/>
<text text-anchor="middle" x="82.5" y="-119.5" font-family="Helvetica,sans-Serif" font-size="10.00">GenericConstantMaterial</text>
</g>
<!-- Node1&#45;&gt;Node0 -->
<g id="edge1" class="edge"><title>Node1&#45;&gt;Node0</title>
<path fill="none" stroke="midnightblue" d="M82.5,-101.805C82.5,-92.9102 82.5,-82.7798 82.5,-75.7511"/>
<polygon fill="midnightblue" stroke="midnightblue" points="79.0001,-102.083 82.5,-112.083 86.0001,-102.083 79.0001,-102.083"/>
</g>
</g>
</svg>
