<?xml version="1.0" encoding="UTF-8" standalone="no"?>
<!DOCTYPE svg PUBLIC "-//W3C//DTD SVG 1.1//EN"
 "http://www.w3.org/Graphics/SVG/1.1/DTD/svg11.dtd">
<!-- Generated by graphviz version 7.0.5 (20221223.1930)
 -->
<!-- Title: src/materials/CammiModerator.C Pages: 1 -->
<svg width="762pt" height="247pt"
 viewBox="0.00 0.00 761.50 247.00" xmlns="http://www.w3.org/2000/svg" xmlns:xlink="http://www.w3.org/1999/xlink">
<g id="graph0" class="graph" transform="scale(1 1) rotate(0) translate(4 243)">
<title>src/materials/CammiModerator.C</title>
<!-- Node1 -->
<g id="node1" class="node">
<title>Node1</title>
<g id="a_node1"><a xlink:title=" ">
<polygon fill="#999999" stroke="#666666" points="418.5,-239 259.5,-239 259.5,-220 418.5,-220 418.5,-239"/>
<text text-anchor="middle" x="339" y="-227" font-family="Helvetica,sans-Serif" font-size="10.00">src/materials/CammiModerator.C</text>
</a>
</g>
</g>
<!-- Node2 -->
<g id="node2" class="node">
<title>Node2</title>
<g id="a_node2"><a xlink:href="_cammi_moderator_8h.html" target="_top" xlink:title=" ">
<polygon fill="white" stroke="#666666" points="336,-184 238,-184 238,-165 336,-165 336,-184"/>
<text text-anchor="middle" x="287" y="-172" font-family="Helvetica,sans-Serif" font-size="10.00">CammiModerator.h</text>
</a>
</g>
</g>
<!-- Node1&#45;&gt;Node2 -->
<g id="edge1" class="edge">
<title>Node1&#45;&gt;Node2</title>
<path fill="none" stroke="#63b8ff" d="M330.41,-219.75C323.16,-212.35 312.55,-201.54 303.63,-192.45"/>
<polygon fill="#63b8ff" stroke="#63b8ff" points="306.34,-190.21 296.83,-185.52 301.34,-195.11 306.34,-190.21"/>
</g>
<!-- Node11 -->
<g id="node11" class="node">
<title>Node11</title>
<g id="a_node11"><a xlink:title=" ">
<polygon fill="#e0e0e0" stroke="#999999" points="428,-184 354,-184 354,-165 428,-165 428,-184"/>
<text text-anchor="middle" x="391" y="-172" font-family="Helvetica,sans-Serif" font-size="10.00">MooseUtils.h</text>
</a>
</g>
</g>
<!-- Node1&#45;&gt;Node11 -->
<g id="edge16" class="edge">
<title>Node1&#45;&gt;Node11</title>
<path fill="none" stroke="#63b8ff" d="M347.59,-219.75C354.84,-212.35 365.45,-201.54 374.37,-192.45"/>
<polygon fill="#63b8ff" stroke="#63b8ff" points="376.66,-195.11 381.17,-185.52 371.66,-190.21 376.66,-195.11"/>
</g>
<!-- Node3 -->
<g id="node3" class="node">
<title>Node3</title>
<g id="a_node3"><a xlink:href="_generic_moltres_material_8h.html" target="_top" xlink:title=" ">
<polygon fill="white" stroke="#666666" points="349.5,-129 224.5,-129 224.5,-110 349.5,-110 349.5,-129"/>
<text text-anchor="middle" x="287" y="-117" font-family="Helvetica,sans-Serif" font-size="10.00">GenericMoltresMaterial.h</text>
</a>
</g>
</g>
<!-- Node2&#45;&gt;Node3 -->
<g id="edge2" class="edge">
<title>Node2&#45;&gt;Node3</title>
<path fill="none" stroke="#63b8ff" d="M287,-164.75C287,-158.27 287,-149.16 287,-140.9"/>
<polygon fill="#63b8ff" stroke="#63b8ff" points="290.5,-140.96 287,-130.96 283.5,-140.96 290.5,-140.96"/>
</g>
<!-- Node6 -->
<g id="node6" class="node">
<title>Node6</title>
<g id="a_node6"><a xlink:title=" ">
<polygon fill="#e0e0e0" stroke="#999999" points="104,-19 0,-19 0,0 104,0 104,-19"/>
<text text-anchor="middle" x="52" y="-7" font-family="Helvetica,sans-Serif" font-size="10.00">SplineInterpolation.h</text>
</a>
</g>
</g>
<!-- Node2&#45;&gt;Node6 -->
<g id="edge14" class="edge">
<title>Node2&#45;&gt;Node6</title>
<path fill="none" stroke="#63b8ff" d="M271.9,-164.62C257.19,-155.86 234.28,-141.94 215,-129 162.57,-93.81 103.06,-49.35 72.5,-26.17"/>
<polygon fill="#63b8ff" stroke="#63b8ff" points="74.93,-23.62 64.85,-20.35 70.69,-29.19 74.93,-23.62"/>
</g>
<!-- Node7 -->
<g id="node7" class="node">
<title>Node7</title>
<g id="a_node7"><a xlink:title=" ">
<polygon fill="#e0e0e0" stroke="#999999" points="753.5,-19 616.5,-19 616.5,0 753.5,0 753.5,-19"/>
<text text-anchor="middle" x="685" y="-7" font-family="Helvetica,sans-Serif" font-size="10.00">BicubicSplineInterpolation.h</text>
</a>
</g>
</g>
<!-- Node2&#45;&gt;Node7 -->
<g id="edge15" class="edge">
<title>Node2&#45;&gt;Node7</title>
<path fill="none" stroke="#63b8ff" d="M308.97,-164.5C375.42,-137.29 574.58,-55.72 652.88,-23.65"/>
<polygon fill="#63b8ff" stroke="#63b8ff" points="653.77,-27.07 661.7,-20.04 651.12,-20.59 653.77,-27.07"/>
</g>
<!-- Node4 -->
<g id="node4" class="node">
<title>Node4</title>
<g id="a_node4"><a xlink:href="_nuclear_material_8h.html" target="_top" xlink:title=" ">
<polygon fill="white" stroke="#666666" points="333,-74 241,-74 241,-55 333,-55 333,-74"/>
<text text-anchor="middle" x="287" y="-62" font-family="Helvetica,sans-Serif" font-size="10.00">NuclearMaterial.h</text>
</a>
</g>
</g>
<!-- Node3&#45;&gt;Node4 -->
<g id="edge3" class="edge">
<title>Node3&#45;&gt;Node4</title>
<path fill="none" stroke="#63b8ff" d="M287,-109.75C287,-103.27 287,-94.16 287,-85.9"/>
<polygon fill="#63b8ff" stroke="#63b8ff" points="290.5,-85.96 287,-75.96 283.5,-85.96 290.5,-85.96"/>
</g>
<!-- Node3&#45;&gt;Node6 -->
<g id="edge10" class="edge">
<title>Node3&#45;&gt;Node6</title>
<path fill="none" stroke="#63b8ff" d="M267.77,-109.66C226.8,-90.83 130.67,-46.66 81.74,-24.17"/>
<polygon fill="#63b8ff" stroke="#63b8ff" points="83.42,-21.09 72.87,-20.09 80.5,-27.45 83.42,-21.09"/>
</g>
<!-- Node3&#45;&gt;Node7 -->
<g id="edge11" class="edge">
<title>Node3&#45;&gt;Node7</title>
<path fill="none" stroke="#63b8ff" d="M319.91,-109.57C391.41,-90.17 560.98,-44.15 641.33,-22.35"/>
<polygon fill="#63b8ff" stroke="#63b8ff" points="641.86,-25.83 650.59,-19.84 640.02,-19.08 641.86,-25.83"/>
</g>
<!-- Node8 -->
<g id="node8" class="node">
<title>Node8</title>
<g id="a_node8"><a xlink:title=" ">
<polygon fill="#e0e0e0" stroke="#999999" points="598.5,-19 453.5,-19 453.5,0 598.5,0 598.5,-19"/>
<text text-anchor="middle" x="526" y="-7" font-family="Helvetica,sans-Serif" font-size="10.00">MonotoneCubicInterpolation.h</text>
</a>
</g>
</g>
<!-- Node3&#45;&gt;Node8 -->
<g id="edge12" class="edge">
<title>Node3&#45;&gt;Node8</title>
<path fill="none" stroke="#63b8ff" d="M306.56,-109.66C348.22,-90.83 445.99,-46.66 495.75,-24.17"/>
<polygon fill="#63b8ff" stroke="#63b8ff" points="497.12,-27.39 504.79,-20.08 494.24,-21.01 497.12,-27.39"/>
</g>
<!-- Node9 -->
<g id="node9" class="node">
<title>Node9</title>
<g id="a_node9"><a xlink:title=" ">
<polygon fill="#e0e0e0" stroke="#999999" points="226,-19 122,-19 122,0 226,0 226,-19"/>
<text text-anchor="middle" x="174" y="-7" font-family="Helvetica,sans-Serif" font-size="10.00">LinearInterpolation.h</text>
</a>
</g>
</g>
<!-- Node3&#45;&gt;Node9 -->
<g id="edge13" class="edge">
<title>Node3&#45;&gt;Node9</title>
<path fill="none" stroke="#63b8ff" d="M275.2,-109.78C263.77,-101.14 246.13,-87.31 232,-74 216.26,-59.17 199.76,-40.8 188.4,-27.63"/>
<polygon fill="#63b8ff" stroke="#63b8ff" points="191.26,-25.59 182.11,-20.25 185.93,-30.13 191.26,-25.59"/>
</g>
<!-- Node5 -->
<g id="node5" class="node">
<title>Node5</title>
<g id="a_node5"><a xlink:title=" ">
<polygon fill="#e0e0e0" stroke="#999999" points="435.5,-19 304.5,-19 304.5,0 435.5,0 435.5,-19"/>
<text text-anchor="middle" x="370" y="-7" font-family="Helvetica,sans-Serif" font-size="10.00">GenericConstantMaterial.h</text>
</a>
</g>
</g>
<!-- Node4&#45;&gt;Node5 -->
<g id="edge4" class="edge">
<title>Node4&#45;&gt;Node5</title>
<path fill="none" stroke="#63b8ff" d="M301.08,-54.51C313.56,-46.54 332.02,-34.75 346.69,-25.38"/>
<polygon fill="#63b8ff" stroke="#63b8ff" points="348.31,-28.5 354.85,-20.17 344.54,-22.6 348.31,-28.5"/>
</g>
<!-- Node4&#45;&gt;Node6 -->
<g id="edge5" class="edge">
<title>Node4&#45;&gt;Node6</title>
<path fill="none" stroke="#63b8ff" d="M247.14,-54.51C207.35,-45.54 146.06,-31.71 102.8,-21.96"/>
<polygon fill="#63b8ff" stroke="#63b8ff" points="103.67,-18.57 93.14,-19.78 102.13,-25.39 103.67,-18.57"/>
</g>
<!-- Node4&#45;&gt;Node7 -->
<g id="edge6" class="edge">
<title>Node4&#45;&gt;Node7</title>
<path fill="none" stroke="#63b8ff" d="M333.43,-57.32C400.41,-48.4 525.02,-31.8 606.46,-20.96"/>
<polygon fill="#63b8ff" stroke="#63b8ff" points="606.71,-24.46 616.16,-19.67 605.78,-17.52 606.71,-24.46"/>
</g>
<!-- Node4&#45;&gt;Node8 -->
<g id="edge7" class="edge">
<title>Node4&#45;&gt;Node8</title>
<path fill="none" stroke="#63b8ff" d="M327.54,-54.51C368.1,-45.52 430.6,-31.65 474.61,-21.9"/>
<polygon fill="#63b8ff" stroke="#63b8ff" points="475.17,-25.36 484.18,-19.77 473.66,-18.52 475.17,-25.36"/>
</g>
<!-- Node4&#45;&gt;Node9 -->
<g id="edge8" class="edge">
<title>Node4&#45;&gt;Node9</title>
<path fill="none" stroke="#63b8ff" d="M267.83,-54.51C250.11,-46.2 223.52,-33.73 203.17,-24.18"/>
<polygon fill="#63b8ff" stroke="#63b8ff" points="204.8,-21.08 194.26,-20 201.82,-27.42 204.8,-21.08"/>
</g>
<!-- Node10 -->
<g id="node10" class="node">
<title>Node10</title>
<g id="a_node10"><a xlink:title=" ">
<polygon fill="#e0e0e0" stroke="#999999" points="286,-19 244,-19 244,0 286,0 286,-19"/>
<text text-anchor="middle" x="265" y="-7" font-family="Helvetica,sans-Serif" font-size="10.00">json.h</text>
</a>
</g>
</g>
<!-- Node4&#45;&gt;Node10 -->
<g id="edge9" class="edge">
<title>Node4&#45;&gt;Node10</title>
<path fill="none" stroke="#63b8ff" d="M283.37,-54.75C280.58,-48.04 276.63,-38.52 273.1,-30.02"/>
<polygon fill="#63b8ff" stroke="#63b8ff" points="276.36,-28.73 269.29,-20.84 269.89,-31.42 276.36,-28.73"/>
</g>
</g>
</svg>
