<?xml version="1.0" encoding="UTF-8" standalone="no"?>
<!DOCTYPE svg PUBLIC "-//W3C//DTD SVG 1.1//EN"
 "http://www.w3.org/Graphics/SVG/1.1/DTD/svg11.dtd">
<!-- Generated by graphviz version 2.49.3 (20211027.1534)
 -->
<!-- Title: src/materials/CammiModerator.C Pages: 1 -->
<svg width="762pt" height="252pt"
 viewBox="0.00 0.00 761.50 252.00" xmlns="http://www.w3.org/2000/svg" xmlns:xlink="http://www.w3.org/1999/xlink">
<g id="graph0" class="graph" transform="scale(1 1) rotate(0) translate(4 248)">
<title>src/materials/CammiModerator.C</title>
<polygon fill="white" stroke="transparent" points="-4,4 -4,-248 757.5,-248 757.5,4 -4,4"/>
<!-- Node1 -->
<g id="node1" class="node">
<title>Node1</title>
<g id="a_node1"><a xlink:title=" ">
<polygon fill="#bfbfbf" stroke="black" points="259.5,-224.5 259.5,-243.5 418.5,-243.5 418.5,-224.5 259.5,-224.5"/>
<text text-anchor="middle" x="339" y="-231.5" font-family="Helvetica,sans-Serif" font-size="10.00">src/materials/CammiModerator.C</text>
</a>
</g>
</g>
<!-- Node2 -->
<g id="node2" class="node">
<title>Node2</title>
<g id="a_node2"><a xlink:href="_cammi_moderator_8h.html" target="_top" xlink:title=" ">
<polygon fill="white" stroke="black" points="238,-168.5 238,-187.5 336,-187.5 336,-168.5 238,-168.5"/>
<text text-anchor="middle" x="287" y="-175.5" font-family="Helvetica,sans-Serif" font-size="10.00">CammiModerator.h</text>
</a>
</g>
</g>
<!-- Node1&#45;&gt;Node2 -->
<g id="edge1" class="edge">
<title>Node1&#45;&gt;Node2</title>
<path fill="none" stroke="midnightblue" d="M330.41,-224.08C322.84,-216.22 311.62,-204.57 302.49,-195.08"/>
<polygon fill="midnightblue" stroke="midnightblue" points="304.88,-192.53 295.43,-187.75 299.84,-197.38 304.88,-192.53"/>
</g>
<!-- Node11 -->
<g id="node11" class="node">
<title>Node11</title>
<g id="a_node11"><a xlink:title=" ">
<polygon fill="white" stroke="#bfbfbf" points="354,-168.5 354,-187.5 428,-187.5 428,-168.5 354,-168.5"/>
<text text-anchor="middle" x="391" y="-175.5" font-family="Helvetica,sans-Serif" font-size="10.00">MooseUtils.h</text>
</a>
</g>
</g>
<!-- Node1&#45;&gt;Node11 -->
<g id="edge16" class="edge">
<title>Node1&#45;&gt;Node11</title>
<path fill="none" stroke="midnightblue" d="M347.59,-224.08C355.16,-216.22 366.38,-204.57 375.51,-195.08"/>
<polygon fill="midnightblue" stroke="midnightblue" points="378.16,-197.38 382.57,-187.75 373.12,-192.53 378.16,-197.38"/>
</g>
<!-- Node3 -->
<g id="node3" class="node">
<title>Node3</title>
<g id="a_node3"><a xlink:href="_generic_moltres_material_8h.html" target="_top" xlink:title=" ">
<polygon fill="white" stroke="black" points="224.5,-112.5 224.5,-131.5 349.5,-131.5 349.5,-112.5 224.5,-112.5"/>
<text text-anchor="middle" x="287" y="-119.5" font-family="Helvetica,sans-Serif" font-size="10.00">GenericMoltresMaterial.h</text>
</a>
</g>
</g>
<!-- Node2&#45;&gt;Node3 -->
<g id="edge2" class="edge">
<title>Node2&#45;&gt;Node3</title>
<path fill="none" stroke="midnightblue" d="M287,-168.08C287,-161.01 287,-150.86 287,-141.99"/>
<polygon fill="midnightblue" stroke="midnightblue" points="290.5,-141.75 287,-131.75 283.5,-141.75 290.5,-141.75"/>
</g>
<!-- Node6 -->
<g id="node6" class="node">
<title>Node6</title>
<g id="a_node6"><a xlink:title=" ">
<polygon fill="white" stroke="#bfbfbf" points="0,-0.5 0,-19.5 104,-19.5 104,-0.5 0,-0.5"/>
<text text-anchor="middle" x="52" y="-7.5" font-family="Helvetica,sans-Serif" font-size="10.00">SplineInterpolation.h</text>
</a>
</g>
</g>
<!-- Node2&#45;&gt;Node6 -->
<g id="edge14" class="edge">
<title>Node2&#45;&gt;Node6</title>
<path fill="none" stroke="midnightblue" d="M272.44,-168.37C257.74,-159.55 234.48,-145.29 215,-132 161.47,-95.49 100.76,-49.01 70.79,-25.72"/>
<polygon fill="midnightblue" stroke="midnightblue" points="72.89,-22.91 62.85,-19.53 68.58,-28.43 72.89,-22.91"/>
</g>
<!-- Node7 -->
<g id="node7" class="node">
<title>Node7</title>
<g id="a_node7"><a xlink:title=" ">
<polygon fill="white" stroke="#bfbfbf" points="616.5,-0.5 616.5,-19.5 753.5,-19.5 753.5,-0.5 616.5,-0.5"/>
<text text-anchor="middle" x="685" y="-7.5" font-family="Helvetica,sans-Serif" font-size="10.00">BicubicSplineInterpolation.h</text>
</a>
</g>
</g>
<!-- Node2&#45;&gt;Node7 -->
<g id="edge15" class="edge">
<title>Node2&#45;&gt;Node7</title>
<path fill="none" stroke="midnightblue" d="M307.56,-168.42C373.07,-141.1 577.11,-56 654.67,-23.65"/>
<polygon fill="midnightblue" stroke="midnightblue" points="656.44,-26.7 664.32,-19.62 653.75,-20.24 656.44,-26.7"/>
</g>
<!-- Node4 -->
<g id="node4" class="node">
<title>Node4</title>
<g id="a_node4"><a xlink:href="_nuclear_material_8h.html" target="_top" xlink:title=" ">
<polygon fill="white" stroke="black" points="241,-56.5 241,-75.5 333,-75.5 333,-56.5 241,-56.5"/>
<text text-anchor="middle" x="287" y="-63.5" font-family="Helvetica,sans-Serif" font-size="10.00">NuclearMaterial.h</text>
</a>
</g>
</g>
<!-- Node3&#45;&gt;Node4 -->
<g id="edge3" class="edge">
<title>Node3&#45;&gt;Node4</title>
<path fill="none" stroke="midnightblue" d="M287,-112.08C287,-105.01 287,-94.86 287,-85.99"/>
<polygon fill="midnightblue" stroke="midnightblue" points="290.5,-85.75 287,-75.75 283.5,-85.75 290.5,-85.75"/>
</g>
<!-- Node3&#45;&gt;Node6 -->
<g id="edge10" class="edge">
<title>Node3&#45;&gt;Node6</title>
<path fill="none" stroke="midnightblue" d="M268.56,-112.37C227.46,-93.13 128.16,-46.65 79.63,-23.93"/>
<polygon fill="midnightblue" stroke="midnightblue" points="80.9,-20.66 70.35,-19.59 77.93,-27 80.9,-20.66"/>
</g>
<!-- Node3&#45;&gt;Node7 -->
<g id="edge11" class="edge">
<title>Node3&#45;&gt;Node7</title>
<path fill="none" stroke="midnightblue" d="M317.9,-112.46C389.1,-92.78 564.69,-44.25 644.43,-22.21"/>
<polygon fill="midnightblue" stroke="midnightblue" points="645.41,-25.57 654.12,-19.53 643.55,-18.83 645.41,-25.57"/>
</g>
<!-- Node8 -->
<g id="node8" class="node">
<title>Node8</title>
<g id="a_node8"><a xlink:title=" ">
<polygon fill="white" stroke="#bfbfbf" points="453.5,-0.5 453.5,-19.5 598.5,-19.5 598.5,-0.5 453.5,-0.5"/>
<text text-anchor="middle" x="526" y="-7.5" font-family="Helvetica,sans-Serif" font-size="10.00">MonotoneCubicInterpolation.h</text>
</a>
</g>
</g>
<!-- Node3&#45;&gt;Node8 -->
<g id="edge12" class="edge">
<title>Node3&#45;&gt;Node8</title>
<path fill="none" stroke="midnightblue" d="M305.75,-112.37C347.64,-93.09 448.97,-46.45 498.21,-23.79"/>
<polygon fill="midnightblue" stroke="midnightblue" points="499.71,-26.95 507.33,-19.59 496.79,-20.59 499.71,-26.95"/>
</g>
<!-- Node9 -->
<g id="node9" class="node">
<title>Node9</title>
<g id="a_node9"><a xlink:title=" ">
<polygon fill="white" stroke="#bfbfbf" points="122,-0.5 122,-19.5 226,-19.5 226,-0.5 122,-0.5"/>
<text text-anchor="middle" x="174" y="-7.5" font-family="Helvetica,sans-Serif" font-size="10.00">LinearInterpolation.h</text>
</a>
</g>
</g>
<!-- Node3&#45;&gt;Node9 -->
<g id="edge13" class="edge">
<title>Node3&#45;&gt;Node9</title>
<path fill="none" stroke="midnightblue" d="M275.18,-112.19C263.73,-103.47 246.08,-89.49 232,-76 215.87,-60.55 199.06,-41.3 187.71,-27.77"/>
<polygon fill="midnightblue" stroke="midnightblue" points="190.18,-25.27 181.1,-19.81 184.79,-29.74 190.18,-25.27"/>
</g>
<!-- Node5 -->
<g id="node5" class="node">
<title>Node5</title>
<g id="a_node5"><a xlink:title=" ">
<polygon fill="white" stroke="#bfbfbf" points="304.5,-0.5 304.5,-19.5 435.5,-19.5 435.5,-0.5 304.5,-0.5"/>
<text text-anchor="middle" x="370" y="-7.5" font-family="Helvetica,sans-Serif" font-size="10.00">GenericConstantMaterial.h</text>
</a>
</g>
</g>
<!-- Node4&#45;&gt;Node5 -->
<g id="edge4" class="edge">
<title>Node4&#45;&gt;Node5</title>
<path fill="none" stroke="midnightblue" d="M300.34,-56.32C313.16,-47.98 332.78,-35.21 347.94,-25.35"/>
<polygon fill="midnightblue" stroke="midnightblue" points="350.22,-28.04 356.7,-19.65 346.41,-22.17 350.22,-28.04"/>
</g>
<!-- Node4&#45;&gt;Node6 -->
<g id="edge5" class="edge">
<title>Node4&#45;&gt;Node6</title>
<path fill="none" stroke="midnightblue" d="M249.76,-56.44C208.94,-47.06 143.36,-31.99 99.02,-21.8"/>
<polygon fill="midnightblue" stroke="midnightblue" points="99.59,-18.34 89.06,-19.52 98.02,-25.17 99.59,-18.34"/>
</g>
<!-- Node4&#45;&gt;Node7 -->
<g id="edge6" class="edge">
<title>Node4&#45;&gt;Node7</title>
<path fill="none" stroke="midnightblue" d="M333.04,-58.75C401.43,-49.47 530.5,-31.96 611.89,-20.92"/>
<polygon fill="midnightblue" stroke="midnightblue" points="612.63,-24.35 622.07,-19.54 611.69,-17.42 612.63,-24.35"/>
</g>
<!-- Node4&#45;&gt;Node8 -->
<g id="edge7" class="edge">
<title>Node4&#45;&gt;Node8</title>
<path fill="none" stroke="midnightblue" d="M324.87,-56.44C366.48,-47.04 433.37,-31.93 478.47,-21.74"/>
<polygon fill="midnightblue" stroke="midnightblue" points="479.32,-25.13 488.31,-19.52 477.78,-18.31 479.32,-25.13"/>
</g>
<!-- Node4&#45;&gt;Node9 -->
<g id="edge8" class="edge">
<title>Node4&#45;&gt;Node9</title>
<path fill="none" stroke="midnightblue" d="M269.09,-56.44C250.75,-47.68 221.99,-33.94 200.91,-23.86"/>
<polygon fill="midnightblue" stroke="midnightblue" points="202.35,-20.67 191.82,-19.52 199.33,-26.99 202.35,-20.67"/>
</g>
<!-- Node10 -->
<g id="node10" class="node">
<title>Node10</title>
<g id="a_node10"><a xlink:title=" ">
<polygon fill="white" stroke="#bfbfbf" points="244,-0.5 244,-19.5 286,-19.5 286,-0.5 244,-0.5"/>
<text text-anchor="middle" x="265" y="-7.5" font-family="Helvetica,sans-Serif" font-size="10.00">json.h</text>
</a>
</g>
</g>
<!-- Node4&#45;&gt;Node10 -->
<g id="edge9" class="edge">
<title>Node4&#45;&gt;Node10</title>
<path fill="none" stroke="midnightblue" d="M283.37,-56.08C280.39,-48.77 276.07,-38.18 272.38,-29.1"/>
<polygon fill="midnightblue" stroke="midnightblue" points="275.58,-27.69 268.57,-19.75 269.1,-30.33 275.58,-27.69"/>
</g>
</g>
</svg>
