<?xml version="1.0" encoding="UTF-8" standalone="no"?>
<!DOCTYPE svg PUBLIC "-//W3C//DTD SVG 1.1//EN"
 "http://www.w3.org/Graphics/SVG/1.1/DTD/svg11.dtd">
<!-- Generated by graphviz version 9.0.0 (20230911.1827)
 -->
<!-- Title: include/materials/CammiModerator.h Pages: 1 -->
<svg width="759pt" height="193pt"
 viewBox="0.00 0.00 758.88 193.00" xmlns="http://www.w3.org/2000/svg" xmlns:xlink="http://www.w3.org/1999/xlink">
<g id="graph0" class="graph" transform="scale(1 1) rotate(0) translate(4 189)">
<title>include/materials/CammiModerator.h</title>
<!-- Node1 -->
<g id="Node000001" class="node">
<title>Node1</title>
<g id="a_Node000001"><a xlink:title=" ">
<polygon fill="#999999" stroke="#666666" points="374,-185 199.75,-185 199.75,-165.75 374,-165.75 374,-185"/>
<text text-anchor="middle" x="286.88" y="-171.5" font-family="Helvetica,sans-Serif" font-size="10.00">include/materials/CammiModerator.h</text>
</a>
</g>
</g>
<!-- Node2 -->
<g id="Node000002" class="node">
<title>Node2</title>
<g id="a_Node000002"><a xlink:href="_generic_moltres_material_8h.html" target="_top" xlink:title=" ">
<polygon fill="white" stroke="#666666" points="348.88,-129.75 224.88,-129.75 224.88,-110.5 348.88,-110.5 348.88,-129.75"/>
<text text-anchor="middle" x="286.88" y="-116.25" font-family="Helvetica,sans-Serif" font-size="10.00">GenericMoltresMaterial.h</text>
</a>
</g>
</g>
<!-- Node1&#45;&gt;Node2 -->
<g id="edge1_Node000001_Node000002" class="edge">
<title>Node1&#45;&gt;Node2</title>
<g id="a_edge1_Node000001_Node000002"><a xlink:title=" ">
<path fill="none" stroke="#63b8ff" d="M286.88,-165.58C286.88,-159.07 286.88,-149.92 286.88,-141.62"/>
<polygon fill="#63b8ff" stroke="#63b8ff" points="290.38,-141.62 286.88,-131.62 283.38,-141.62 290.38,-141.62"/>
</a>
</g>
</g>
<!-- Node5 -->
<g id="Node000005" class="node">
<title>Node5</title>
<g id="a_Node000005"><a xlink:title=" ">
<polygon fill="#e0e0e0" stroke="#999999" points="103.75,-19.25 0,-19.25 0,0 103.75,0 103.75,-19.25"/>
<text text-anchor="middle" x="51.88" y="-5.75" font-family="Helvetica,sans-Serif" font-size="10.00">SplineInterpolation.h</text>
</a>
</g>
</g>
<!-- Node1&#45;&gt;Node5 -->
<g id="edge13_Node000001_Node000005" class="edge">
<title>Node1&#45;&gt;Node5</title>
<g id="a_edge13_Node000001_Node000005"><a xlink:title=" ">
<path fill="none" stroke="#63b8ff" d="M271.73,-165.26C257.22,-156.44 234.81,-142.56 215.88,-129.75 163.27,-94.17 103.33,-49.55 72.54,-26.32"/>
<polygon fill="#63b8ff" stroke="#63b8ff" points="74.91,-23.73 64.82,-20.48 70.69,-29.31 74.91,-23.73"/>
</a>
</g>
</g>
<!-- Node6 -->
<g id="Node000006" class="node">
<title>Node6</title>
<g id="a_Node000006"><a xlink:title=" ">
<polygon fill="#e0e0e0" stroke="#999999" points="750.88,-19.25 614.88,-19.25 614.88,0 750.88,0 750.88,-19.25"/>
<text text-anchor="middle" x="682.88" y="-5.75" font-family="Helvetica,sans-Serif" font-size="10.00">BicubicSplineInterpolation.h</text>
</a>
</g>
</g>
<!-- Node1&#45;&gt;Node6 -->
<g id="edge14_Node000001_Node000006" class="edge">
<title>Node1&#45;&gt;Node6</title>
<g id="a_edge14_Node000001_Node000006"><a xlink:title=" ">
<path fill="none" stroke="#63b8ff" d="M308.73,-165.34C374.85,-137.99 573.01,-56.05 650.92,-23.84"/>
<polygon fill="#63b8ff" stroke="#63b8ff" points="651.79,-27.27 659.69,-20.21 649.11,-20.8 651.79,-27.27"/>
</a>
</g>
</g>
<!-- Node3 -->
<g id="Node000003" class="node">
<title>Node3</title>
<g id="a_Node000003"><a xlink:href="_nuclear_material_8h.html" target="_top" xlink:title=" ">
<polygon fill="white" stroke="#666666" points="332.75,-74.5 241,-74.5 241,-55.25 332.75,-55.25 332.75,-74.5"/>
<text text-anchor="middle" x="286.88" y="-61" font-family="Helvetica,sans-Serif" font-size="10.00">NuclearMaterial.h</text>
</a>
</g>
</g>
<!-- Node2&#45;&gt;Node3 -->
<g id="edge2_Node000002_Node000003" class="edge">
<title>Node2&#45;&gt;Node3</title>
<g id="a_edge2_Node000002_Node000003"><a xlink:title=" ">
<path fill="none" stroke="#63b8ff" d="M286.88,-110.33C286.88,-103.82 286.88,-94.67 286.88,-86.37"/>
<polygon fill="#63b8ff" stroke="#63b8ff" points="290.38,-86.37 286.88,-76.37 283.38,-86.37 290.38,-86.37"/>
</a>
</g>
</g>
<!-- Node2&#45;&gt;Node5 -->
<g id="edge9_Node000002_Node000005" class="edge">
<title>Node2&#45;&gt;Node5</title>
<g id="a_edge9_Node000002_Node000005"><a xlink:title=" ">
<path fill="none" stroke="#63b8ff" d="M267.24,-110.06C226.12,-91.07 130.7,-47.02 81.86,-24.47"/>
<polygon fill="#63b8ff" stroke="#63b8ff" points="83.54,-21.39 72.99,-20.37 80.6,-27.74 83.54,-21.39"/>
</a>
</g>
</g>
<!-- Node2&#45;&gt;Node6 -->
<g id="edge10_Node000002_Node000006" class="edge">
<title>Node2&#45;&gt;Node6</title>
<g id="a_edge10_Node000002_Node000006"><a xlink:title=" ">
<path fill="none" stroke="#63b8ff" d="M319.96,-110.06C391.15,-90.55 558.9,-44.59 638.92,-22.67"/>
<polygon fill="#63b8ff" stroke="#63b8ff" points="639.43,-26.16 648.15,-20.14 637.58,-19.41 639.43,-26.16"/>
</a>
</g>
</g>
<!-- Node7 -->
<g id="Node000007" class="node">
<title>Node7</title>
<g id="a_Node000007"><a xlink:title=" ">
<polygon fill="#e0e0e0" stroke="#999999" points="597,-19.25 452.75,-19.25 452.75,0 597,0 597,-19.25"/>
<text text-anchor="middle" x="524.88" y="-5.75" font-family="Helvetica,sans-Serif" font-size="10.00">MonotoneCubicInterpolation.h</text>
</a>
</g>
</g>
<!-- Node2&#45;&gt;Node7 -->
<g id="edge11_Node000002_Node000007" class="edge">
<title>Node2&#45;&gt;Node7</title>
<g id="a_edge11_Node000002_Node000007"><a xlink:title=" ">
<path fill="none" stroke="#63b8ff" d="M306.76,-110.06C348.41,-91.07 445.05,-47.02 494.51,-24.47"/>
<polygon fill="#63b8ff" stroke="#63b8ff" points="495.86,-27.7 503.5,-20.37 492.95,-21.33 495.86,-27.7"/>
</a>
</g>
</g>
<!-- Node8 -->
<g id="Node000008" class="node">
<title>Node8</title>
<g id="a_Node000008"><a xlink:title=" ">
<polygon fill="#e0e0e0" stroke="#999999" points="225.75,-19.25 122,-19.25 122,0 225.75,0 225.75,-19.25"/>
<text text-anchor="middle" x="173.88" y="-5.75" font-family="Helvetica,sans-Serif" font-size="10.00">LinearInterpolation.h</text>
</a>
</g>
</g>
<!-- Node2&#45;&gt;Node8 -->
<g id="edge12_Node000002_Node000008" class="edge">
<title>Node2&#45;&gt;Node8</title>
<g id="a_edge12_Node000002_Node000008"><a xlink:title=" ">
<path fill="none" stroke="#63b8ff" d="M274.63,-110.05C263.19,-101.37 245.81,-87.68 231.88,-74.5 216.29,-59.76 199.99,-41.52 188.65,-28.31"/>
<polygon fill="#63b8ff" stroke="#63b8ff" points="191.47,-26.22 182.33,-20.85 186.13,-30.74 191.47,-26.22"/>
</a>
</g>
</g>
<!-- Node4 -->
<g id="Node000004" class="node">
<title>Node4</title>
<g id="a_Node000004"><a xlink:title=" ">
<polygon fill="#e0e0e0" stroke="#999999" points="434.25,-19.25 303.5,-19.25 303.5,0 434.25,0 434.25,-19.25"/>
<text text-anchor="middle" x="368.88" y="-5.75" font-family="Helvetica,sans-Serif" font-size="10.00">GenericConstantMaterial.h</text>
</a>
</g>
</g>
<!-- Node3&#45;&gt;Node4 -->
<g id="edge3_Node000003_Node000004" class="edge">
<title>Node3&#45;&gt;Node4</title>
<g id="a_edge3_Node000003_Node000004"><a xlink:title=" ">
<path fill="none" stroke="#63b8ff" d="M300.79,-54.84C313.04,-46.89 331.13,-35.14 345.59,-25.75"/>
<polygon fill="#63b8ff" stroke="#63b8ff" points="347.15,-28.91 353.63,-20.53 343.33,-23.04 347.15,-28.91"/>
</a>
</g>
</g>
<!-- Node3&#45;&gt;Node5 -->
<g id="edge4_Node000003_Node000005" class="edge">
<title>Node3&#45;&gt;Node5</title>
<g id="a_edge4_Node000003_Node000005"><a xlink:title=" ">
<path fill="none" stroke="#63b8ff" d="M246.74,-54.78C207.03,-45.78 146.1,-31.98 102.95,-22.2"/>
<polygon fill="#63b8ff" stroke="#63b8ff" points="103.84,-18.81 93.32,-20.02 102.3,-25.64 103.84,-18.81"/>
</a>
</g>
</g>
<!-- Node3&#45;&gt;Node6 -->
<g id="edge5_Node000003_Node000006" class="edge">
<title>Node3&#45;&gt;Node6</title>
<g id="a_edge5_Node000003_Node000006"><a xlink:title=" ">
<path fill="none" stroke="#63b8ff" d="M333.08,-57.66C399.52,-48.73 522.97,-32.13 604.02,-21.23"/>
<polygon fill="#63b8ff" stroke="#63b8ff" points="604.22,-24.73 613.66,-19.93 603.29,-17.8 604.22,-24.73"/>
</a>
</g>
</g>
<!-- Node3&#45;&gt;Node7 -->
<g id="edge6_Node000003_Node000007" class="edge">
<title>Node3&#45;&gt;Node7</title>
<g id="a_edge6_Node000003_Node000007"><a xlink:title=" ">
<path fill="none" stroke="#63b8ff" d="M327.52,-54.78C367.82,-45.76 429.71,-31.92 473.42,-22.14"/>
<polygon fill="#63b8ff" stroke="#63b8ff" points="473.93,-25.61 482.92,-20.01 472.4,-18.78 473.93,-25.61"/>
</a>
</g>
</g>
<!-- Node3&#45;&gt;Node8 -->
<g id="edge7_Node000003_Node000008" class="edge">
<title>Node3&#45;&gt;Node8</title>
<g id="a_edge7_Node000003_Node000008"><a xlink:title=" ">
<path fill="none" stroke="#63b8ff" d="M267.71,-54.84C250.09,-46.54 223.72,-34.11 203.41,-24.54"/>
<polygon fill="#63b8ff" stroke="#63b8ff" points="205.05,-21.44 194.51,-20.35 202.06,-27.78 205.05,-21.44"/>
</a>
</g>
</g>
<!-- Node9 -->
<g id="Node000009" class="node">
<title>Node9</title>
<g id="a_Node000009"><a xlink:title=" ">
<polygon fill="#e0e0e0" stroke="#999999" points="285.62,-19.25 244.12,-19.25 244.12,0 285.62,0 285.62,-19.25"/>
<text text-anchor="middle" x="264.88" y="-5.75" font-family="Helvetica,sans-Serif" font-size="10.00">json.h</text>
</a>
</g>
</g>
<!-- Node3&#45;&gt;Node9 -->
<g id="edge8_Node000003_Node000009" class="edge">
<title>Node3&#45;&gt;Node9</title>
<g id="a_edge8_Node000003_Node000009"><a xlink:title=" ">
<path fill="none" stroke="#63b8ff" d="M283.24,-55.08C280.46,-48.34 276.5,-38.77 272.98,-30.24"/>
<polygon fill="#63b8ff" stroke="#63b8ff" points="276.22,-28.91 269.16,-21.01 269.75,-31.59 276.22,-28.91"/>
</a>
</g>
</g>
</g>
</svg>
