<?xml version="1.0" encoding="UTF-8" standalone="no"?>
<!DOCTYPE svg PUBLIC "-//W3C//DTD SVG 1.1//EN"
 "http://www.w3.org/Graphics/SVG/1.1/DTD/svg11.dtd">
<!-- Generated by graphviz version 7.0.4 (20221203.1631)
 -->
<!-- Title: src/bcs/ConservativeAdvectionNoBCBC.C Pages: 1 -->
<svg width="172pt" height="148pt"
 viewBox="0.00 0.00 172.00 148.00" xmlns="http://www.w3.org/2000/svg" xmlns:xlink="http://www.w3.org/1999/xlink">
<g id="graph0" class="graph" transform="scale(1 1) rotate(0) translate(4 144)">
<title>src/bcs/ConservativeAdvectionNoBCBC.C</title>
<!-- Node1 -->
<g id="node1" class="node">
<title>Node1</title>
<g id="a_node1"><a xlink:title=" ">
<polygon fill="#999999" stroke="#666666" points="158,-140 6,-140 6,-110 158,-110 158,-140"/>
<text text-anchor="start" x="14" y="-128" font-family="Helvetica,sans-Serif" font-size="10.00">src/bcs/ConservativeAdvection</text>
<text text-anchor="middle" x="82" y="-117" font-family="Helvetica,sans-Serif" font-size="10.00">NoBCBC.C</text>
</a>
</g>
</g>
<!-- Node2 -->
<g id="node2" class="node">
<title>Node2</title>
<g id="a_node2"><a xlink:href="_conservative_advection_no_b_c_b_c_8h.html" target="_top" xlink:title=" ">
<polygon fill="white" stroke="#666666" points="164,-74 0,-74 0,-55 164,-55 164,-74"/>
<text text-anchor="middle" x="82" y="-62" font-family="Helvetica,sans-Serif" font-size="10.00">ConservativeAdvectionNoBCBC.h</text>
</a>
</g>
</g>
<!-- Node1&#45;&gt;Node2 -->
<g id="edge1" class="edge">
<title>Node1&#45;&gt;Node2</title>
<path fill="none" stroke="#63b8ff" d="M82,-109.54C82,-102.34 82,-93.53 82,-85.68"/>
<polygon fill="#63b8ff" stroke="#63b8ff" points="85.5,-85.69 82,-75.69 78.5,-85.69 85.5,-85.69"/>
</g>
<!-- Node3 -->
<g id="node3" class="node">
<title>Node3</title>
<g id="a_node3"><a xlink:title=" ">
<polygon fill="#e0e0e0" stroke="#999999" points="122.5,-19 41.5,-19 41.5,0 122.5,0 122.5,-19"/>
<text text-anchor="middle" x="82" y="-7" font-family="Helvetica,sans-Serif" font-size="10.00">IntegratedBC.h</text>
</a>
</g>
</g>
<!-- Node2&#45;&gt;Node3 -->
<g id="edge2" class="edge">
<title>Node2&#45;&gt;Node3</title>
<path fill="none" stroke="#63b8ff" d="M82,-54.75C82,-48.27 82,-39.16 82,-30.9"/>
<polygon fill="#63b8ff" stroke="#63b8ff" points="85.5,-30.96 82,-20.96 78.5,-30.96 85.5,-30.96"/>
</g>
</g>
</svg>
