<?xml version="1.0" encoding="UTF-8" standalone="no"?>
<!DOCTYPE svg PUBLIC "-//W3C//DTD SVG 1.1//EN"
 "http://www.w3.org/Graphics/SVG/1.1/DTD/svg11.dtd">
<!-- Generated by graphviz version 9.0.0 (20230911.1827)
 -->
<!-- Title: src/auxkernels/ConstantDifferenceAux.C Pages: 1 -->
<svg width="173pt" height="149pt"
 viewBox="0.00 0.00 172.50 149.00" xmlns="http://www.w3.org/2000/svg" xmlns:xlink="http://www.w3.org/1999/xlink">
<g id="graph0" class="graph" transform="scale(1 1) rotate(0) translate(4 145)">
<title>src/auxkernels/ConstantDifferenceAux.C</title>
<!-- Node1 -->
<g id="Node000001" class="node">
<title>Node1</title>
<g id="a_Node000001"><a xlink:title=" ">
<polygon fill="#999999" stroke="#666666" points="164.5,-141 0,-141 0,-110.5 164.5,-110.5 164.5,-141"/>
<text text-anchor="start" x="8" y="-127.5" font-family="Helvetica,sans-Serif" font-size="10.00">src/auxkernels/ConstantDifference</text>
<text text-anchor="middle" x="82.25" y="-116.25" font-family="Helvetica,sans-Serif" font-size="10.00">Aux.C</text>
</a>
</g>
</g>
<!-- Node2 -->
<g id="Node000002" class="node">
<title>Node2</title>
<g id="a_Node000002"><a xlink:href="_constant_difference_aux_8h.html" target="_top" xlink:title=" ">
<polygon fill="white" stroke="#666666" points="143.5,-74.5 21,-74.5 21,-55.25 143.5,-55.25 143.5,-74.5"/>
<text text-anchor="middle" x="82.25" y="-61" font-family="Helvetica,sans-Serif" font-size="10.00">ConstantDifferenceAux.h</text>
</a>
</g>
</g>
<!-- Node1&#45;&gt;Node2 -->
<g id="edge1_Node000001_Node000002" class="edge">
<title>Node1&#45;&gt;Node2</title>
<g id="a_edge1_Node000001_Node000002"><a xlink:title=" ">
<path fill="none" stroke="#63b8ff" d="M82.25,-110.2C82.25,-102.96 82.25,-94.09 82.25,-86.19"/>
<polygon fill="#63b8ff" stroke="#63b8ff" points="85.75,-86.46 82.25,-76.46 78.75,-86.46 85.75,-86.46"/>
</a>
</g>
</g>
<!-- Node3 -->
<g id="Node000003" class="node">
<title>Node3</title>
<g id="a_Node000003"><a xlink:title=" ">
<polygon fill="#e0e0e0" stroke="#999999" points="116.12,-19.25 48.38,-19.25 48.38,0 116.12,0 116.12,-19.25"/>
<text text-anchor="middle" x="82.25" y="-5.75" font-family="Helvetica,sans-Serif" font-size="10.00">AuxKernel.h</text>
</a>
</g>
</g>
<!-- Node2&#45;&gt;Node3 -->
<g id="edge2_Node000002_Node000003" class="edge">
<title>Node2&#45;&gt;Node3</title>
<g id="a_edge2_Node000002_Node000003"><a xlink:title=" ">
<path fill="none" stroke="#63b8ff" d="M82.25,-55.08C82.25,-48.57 82.25,-39.42 82.25,-31.12"/>
<polygon fill="#63b8ff" stroke="#63b8ff" points="85.75,-31.12 82.25,-21.12 78.75,-31.12 85.75,-31.12"/>
</a>
</g>
</g>
</g>
</svg>
