<?xml version="1.0" encoding="UTF-8" standalone="no"?>
<!DOCTYPE svg PUBLIC "-//W3C//DTD SVG 1.1//EN"
 "http://www.w3.org/Graphics/SVG/1.1/DTD/svg11.dtd">
<!-- Generated by graphviz version 12.2.0 (20241103.1931)
 -->
<!-- Title: src/bcs/ConservativeAdvectionNoBCBC.C Pages: 1 -->
<svg width="172pt" height="149pt"
 viewBox="0.00 0.00 171.75 149.00" xmlns="http://www.w3.org/2000/svg" xmlns:xlink="http://www.w3.org/1999/xlink">
<g id="graph0" class="graph" transform="scale(1 1) rotate(0) translate(4 145)">
<title>src/bcs/ConservativeAdvectionNoBCBC.C</title>
<!-- Node1 -->
<g id="Node000001" class="node">
<title>Node1</title>
<g id="a_Node000001"><a xlink:title=" ">
<polygon fill="#999999" stroke="#666666" points="157.75,-141 6,-141 6,-110.5 157.75,-110.5 157.75,-141"/>
<text text-anchor="start" x="14" y="-127.5" font-family="Helvetica,sans-Serif" font-size="10.00">src/bcs/ConservativeAdvection</text>
<text text-anchor="middle" x="81.88" y="-116.25" font-family="Helvetica,sans-Serif" font-size="10.00">NoBCBC.C</text>
</a>
</g>
</g>
<!-- Node2 -->
<g id="Node000002" class="node">
<title>Node2</title>
<g id="a_Node000002"><a xlink:href="_conservative_advection_no_b_c_b_c_8h.html" target="_top" xlink:title=" ">
<polygon fill="white" stroke="#666666" points="163.75,-74.5 0,-74.5 0,-55.25 163.75,-55.25 163.75,-74.5"/>
<text text-anchor="middle" x="81.88" y="-61" font-family="Helvetica,sans-Serif" font-size="10.00">ConservativeAdvectionNoBCBC.h</text>
</a>
</g>
</g>
<!-- Node1&#45;&gt;Node2 -->
<g id="edge1_Node000001_Node000002" class="edge">
<title>Node1&#45;&gt;Node2</title>
<g id="a_edge1_Node000001_Node000002"><a xlink:title=" ">
<path fill="none" stroke="#63b8ff" d="M81.88,-110.2C81.88,-102.96 81.88,-94.09 81.88,-86.19"/>
<polygon fill="#63b8ff" stroke="#63b8ff" points="85.38,-86.46 81.88,-76.46 78.38,-86.46 85.38,-86.46"/>
</a>
</g>
</g>
<!-- Node3 -->
<g id="Node000003" class="node">
<title>Node3</title>
<g id="a_Node000003"><a xlink:title=" ">
<polygon fill="#e0e0e0" stroke="#999999" points="122.12,-19.25 41.62,-19.25 41.62,0 122.12,0 122.12,-19.25"/>
<text text-anchor="middle" x="81.88" y="-5.75" font-family="Helvetica,sans-Serif" font-size="10.00">IntegratedBC.h</text>
</a>
</g>
</g>
<!-- Node2&#45;&gt;Node3 -->
<g id="edge2_Node000002_Node000003" class="edge">
<title>Node2&#45;&gt;Node3</title>
<g id="a_edge2_Node000002_Node000003"><a xlink:title=" ">
<path fill="none" stroke="#63b8ff" d="M81.88,-55.08C81.88,-48.57 81.88,-39.42 81.88,-31.12"/>
<polygon fill="#63b8ff" stroke="#63b8ff" points="85.38,-31.12 81.88,-21.12 78.38,-31.12 85.38,-31.12"/>
</a>
</g>
</g>
</g>
</svg>
