<?xml version="1.0" encoding="UTF-8" standalone="no"?>
<!DOCTYPE svg PUBLIC "-//W3C//DTD SVG 1.1//EN"
 "http://www.w3.org/Graphics/SVG/1.1/DTD/svg11.dtd">
<!-- Generated by graphviz version 12.2.0 (20241103.1931)
 -->
<!-- Title: src/kernels/CoupledScalarAdvection.C Pages: 1 -->
<svg width="355pt" height="204pt"
 viewBox="0.00 0.00 354.62 204.25" xmlns="http://www.w3.org/2000/svg" xmlns:xlink="http://www.w3.org/1999/xlink">
<g id="graph0" class="graph" transform="scale(1 1) rotate(0) translate(4 200.25)">
<title>src/kernels/CoupledScalarAdvection.C</title>
<!-- Node1 -->
<g id="Node000001" class="node">
<title>Node1</title>
<g id="a_Node000001"><a xlink:title=" ">
<polygon fill="#999999" stroke="#666666" points="261.62,-196.25 131.62,-196.25 131.62,-165.75 261.62,-165.75 261.62,-196.25"/>
<text text-anchor="start" x="139.62" y="-182.75" font-family="Helvetica,sans-Serif" font-size="10.00">src/kernels/CoupledScalar</text>
<text text-anchor="middle" x="196.62" y="-171.5" font-family="Helvetica,sans-Serif" font-size="10.00">Advection.C</text>
</a>
</g>
</g>
<!-- Node2 -->
<g id="Node000002" class="node">
<title>Node2</title>
<g id="a_Node000002"><a xlink:href="_coupled_scalar_advection_8h.html" target="_top" xlink:title=" ">
<polygon fill="white" stroke="#666666" points="140.62,-129.75 10.62,-129.75 10.62,-110.5 140.62,-110.5 140.62,-129.75"/>
<text text-anchor="middle" x="75.62" y="-116.25" font-family="Helvetica,sans-Serif" font-size="10.00">CoupledScalarAdvection.h</text>
</a>
</g>
</g>
<!-- Node1&#45;&gt;Node2 -->
<g id="edge1_Node000001_Node000002" class="edge">
<title>Node1&#45;&gt;Node2</title>
<g id="a_edge1_Node000001_Node000002"><a xlink:title=" ">
<path fill="none" stroke="#63b8ff" d="M166.4,-165.3C147.44,-156.07 123.14,-144.25 104.45,-135.15"/>
<polygon fill="#63b8ff" stroke="#63b8ff" points="106.07,-132.04 95.54,-130.82 103,-138.34 106.07,-132.04"/>
</a>
</g>
</g>
<!-- Node7 -->
<g id="Node000007" class="node">
<title>Node7</title>
<g id="a_Node000007"><a xlink:title=" ">
<polygon fill="#e0e0e0" stroke="#999999" points="235,-129.75 158.25,-129.75 158.25,-110.5 235,-110.5 235,-129.75"/>
<text text-anchor="middle" x="196.62" y="-116.25" font-family="Helvetica,sans-Serif" font-size="10.00">MooseMesh.h</text>
</a>
</g>
</g>
<!-- Node1&#45;&gt;Node7 -->
<g id="edge6_Node000001_Node000007" class="edge">
<title>Node1&#45;&gt;Node7</title>
<g id="a_edge6_Node000001_Node000007"><a xlink:title=" ">
<path fill="none" stroke="#63b8ff" d="M196.62,-165.45C196.62,-158.21 196.62,-149.34 196.62,-141.44"/>
<polygon fill="#63b8ff" stroke="#63b8ff" points="200.13,-141.71 196.63,-131.71 193.13,-141.71 200.13,-141.71"/>
</a>
</g>
</g>
<!-- Node8 -->
<g id="Node000008" class="node">
<title>Node8</title>
<g id="a_Node000008"><a xlink:title=" ">
<polygon fill="#e0e0e0" stroke="#999999" points="346.62,-129.75 252.62,-129.75 252.62,-110.5 346.62,-110.5 346.62,-129.75"/>
<text text-anchor="middle" x="299.62" y="-116.25" font-family="Helvetica,sans-Serif" font-size="10.00">FEProblemBase.h</text>
</a>
</g>
</g>
<!-- Node1&#45;&gt;Node8 -->
<g id="edge7_Node000001_Node000008" class="edge">
<title>Node1&#45;&gt;Node8</title>
<g id="a_edge7_Node000001_Node000008"><a xlink:title=" ">
<path fill="none" stroke="#63b8ff" d="M222.35,-165.3C238.19,-156.24 258.41,-144.69 274.19,-135.66"/>
<polygon fill="#63b8ff" stroke="#63b8ff" points="275.57,-138.91 282.52,-130.91 272.1,-132.83 275.57,-138.91"/>
</a>
</g>
</g>
<!-- Node3 -->
<g id="Node000003" class="node">
<title>Node3</title>
<g id="a_Node000003"><a xlink:title=" ">
<polygon fill="#e0e0e0" stroke="#999999" points="51.25,-74.5 0,-74.5 0,-55.25 51.25,-55.25 51.25,-74.5"/>
<text text-anchor="middle" x="25.62" y="-61" font-family="Helvetica,sans-Serif" font-size="10.00">Kernel.h</text>
</a>
</g>
</g>
<!-- Node2&#45;&gt;Node3 -->
<g id="edge2_Node000002_Node000003" class="edge">
<title>Node2&#45;&gt;Node3</title>
<g id="a_edge2_Node000002_Node000003"><a xlink:title=" ">
<path fill="none" stroke="#63b8ff" d="M67.37,-110.33C60.46,-102.98 50.4,-92.26 41.89,-83.19"/>
<polygon fill="#63b8ff" stroke="#63b8ff" points="44.49,-80.86 35.1,-75.96 39.39,-85.65 44.49,-80.86"/>
</a>
</g>
</g>
<!-- Node4 -->
<g id="Node000004" class="node">
<title>Node4</title>
<g id="a_Node000004"><a xlink:href="_scalar_transport_base_8h.html" target="_top" xlink:title=" ">
<polygon fill="white" stroke="#666666" points="184.12,-74.5 69.12,-74.5 69.12,-55.25 184.12,-55.25 184.12,-74.5"/>
<text text-anchor="middle" x="126.62" y="-61" font-family="Helvetica,sans-Serif" font-size="10.00">ScalarTransportBase.h</text>
</a>
</g>
</g>
<!-- Node2&#45;&gt;Node4 -->
<g id="edge3_Node000002_Node000004" class="edge">
<title>Node2&#45;&gt;Node4</title>
<g id="a_edge3_Node000002_Node000004"><a xlink:title=" ">
<path fill="none" stroke="#63b8ff" d="M84.05,-110.33C91.16,-102.9 101.57,-92.04 110.31,-82.91"/>
<polygon fill="#63b8ff" stroke="#63b8ff" points="112.58,-85.6 116.97,-75.95 107.53,-80.75 112.58,-85.6"/>
</a>
</g>
</g>
<!-- Node5 -->
<g id="Node000005" class="node">
<title>Node5</title>
<g id="a_Node000005"><a xlink:title=" ">
<polygon fill="#e0e0e0" stroke="#999999" points="113.38,-19.25 17.88,-19.25 17.88,0 113.38,0 113.38,-19.25"/>
<text text-anchor="middle" x="65.62" y="-5.75" font-family="Helvetica,sans-Serif" font-size="10.00">InputParameters.h</text>
</a>
</g>
</g>
<!-- Node4&#45;&gt;Node5 -->
<g id="edge4_Node000004_Node000005" class="edge">
<title>Node4&#45;&gt;Node5</title>
<g id="a_edge4_Node000004_Node000005"><a xlink:title=" ">
<path fill="none" stroke="#63b8ff" d="M116.28,-54.84C107.55,-47.22 94.84,-36.12 84.33,-26.95"/>
<polygon fill="#63b8ff" stroke="#63b8ff" points="86.8,-24.46 76.96,-20.52 82.19,-29.73 86.8,-24.46"/>
</a>
</g>
</g>
<!-- Node6 -->
<g id="Node000006" class="node">
<title>Node6</title>
<g id="a_Node000006"><a xlink:title=" ">
<polygon fill="#e0e0e0" stroke="#999999" points="241.88,-19.25 131.38,-19.25 131.38,0 241.88,0 241.88,-19.25"/>
<text text-anchor="middle" x="186.62" y="-5.75" font-family="Helvetica,sans-Serif" font-size="10.00">MooseVariableBase.h</text>
</a>
</g>
</g>
<!-- Node4&#45;&gt;Node6 -->
<g id="edge5_Node000004_Node000006" class="edge">
<title>Node4&#45;&gt;Node6</title>
<g id="a_edge5_Node000004_Node000006"><a xlink:title=" ">
<path fill="none" stroke="#63b8ff" d="M136.8,-54.84C145.39,-47.22 157.89,-36.12 168.23,-26.95"/>
<polygon fill="#63b8ff" stroke="#63b8ff" points="170.31,-29.79 175.47,-20.53 165.66,-24.55 170.31,-29.79"/>
</a>
</g>
</g>
</g>
</svg>
