<?xml version="1.0" encoding="UTF-8" standalone="no"?>
<!DOCTYPE svg PUBLIC "-//W3C//DTD SVG 1.1//EN"
 "http://www.w3.org/Graphics/SVG/1.1/DTD/svg11.dtd">
<!-- Generated by graphviz version 7.0.5 (20221223.1930)
 -->
<!-- Title: src/kernels/CoupledScalarAdvection.C Pages: 1 -->
<svg width="253pt" height="203pt"
 viewBox="0.00 0.00 252.50 203.00" xmlns="http://www.w3.org/2000/svg" xmlns:xlink="http://www.w3.org/1999/xlink">
<g id="graph0" class="graph" transform="scale(1 1) rotate(0) translate(4 199)">
<title>src/kernels/CoupledScalarAdvection.C</title>
<!-- Node1 -->
<g id="node1" class="node">
<title>Node1</title>
<g id="a_node1"><a xlink:title=" ">
<polygon fill="#999999" stroke="#666666" points="203.5,-195 72.5,-195 72.5,-165 203.5,-165 203.5,-195"/>
<text text-anchor="start" x="80.5" y="-183" font-family="Helvetica,sans-Serif" font-size="10.00">src/kernels/CoupledScalar</text>
<text text-anchor="middle" x="138" y="-172" font-family="Helvetica,sans-Serif" font-size="10.00">Advection.C</text>
</a>
</g>
</g>
<!-- Node2 -->
<g id="node2" class="node">
<title>Node2</title>
<g id="a_node2"><a xlink:href="_coupled_scalar_advection_8h.html" target="_top" xlink:title=" ">
<polygon fill="white" stroke="#666666" points="142.5,-129 11.5,-129 11.5,-110 142.5,-110 142.5,-129"/>
<text text-anchor="middle" x="77" y="-117" font-family="Helvetica,sans-Serif" font-size="10.00">CoupledScalarAdvection.h</text>
</a>
</g>
</g>
<!-- Node1&#45;&gt;Node2 -->
<g id="edge1" class="edge">
<title>Node1&#45;&gt;Node2</title>
<path fill="none" stroke="#63b8ff" d="M122.92,-164.54C114.24,-156.22 103.3,-145.72 94.28,-137.07"/>
<polygon fill="#63b8ff" stroke="#63b8ff" points="96.78,-134.62 87.14,-130.22 91.93,-139.67 96.78,-134.62"/>
</g>
<!-- Node7 -->
<g id="node7" class="node">
<title>Node7</title>
<g id="a_node7"><a xlink:title=" ">
<polygon fill="#e0e0e0" stroke="#999999" points="237.5,-129 160.5,-129 160.5,-110 237.5,-110 237.5,-129"/>
<text text-anchor="middle" x="199" y="-117" font-family="Helvetica,sans-Serif" font-size="10.00">MooseMesh.h</text>
</a>
</g>
</g>
<!-- Node1&#45;&gt;Node7 -->
<g id="edge6" class="edge">
<title>Node1&#45;&gt;Node7</title>
<path fill="none" stroke="#63b8ff" d="M153.08,-164.54C161.76,-156.22 172.7,-145.72 181.72,-137.07"/>
<polygon fill="#63b8ff" stroke="#63b8ff" points="184.07,-139.67 188.86,-130.22 179.22,-134.62 184.07,-139.67"/>
</g>
<!-- Node3 -->
<g id="node3" class="node">
<title>Node3</title>
<g id="a_node3"><a xlink:title=" ">
<polygon fill="#e0e0e0" stroke="#999999" points="52,-74 0,-74 0,-55 52,-55 52,-74"/>
<text text-anchor="middle" x="26" y="-62" font-family="Helvetica,sans-Serif" font-size="10.00">Kernel.h</text>
</a>
</g>
</g>
<!-- Node2&#45;&gt;Node3 -->
<g id="edge2" class="edge">
<title>Node2&#45;&gt;Node3</title>
<path fill="none" stroke="#63b8ff" d="M68.58,-109.75C61.53,-102.43 51.27,-91.76 42.59,-82.74"/>
<polygon fill="#63b8ff" stroke="#63b8ff" points="45.11,-80.31 35.65,-75.53 40.07,-85.17 45.11,-80.31"/>
</g>
<!-- Node4 -->
<g id="node4" class="node">
<title>Node4</title>
<g id="a_node4"><a xlink:href="_scalar_transport_base_8h.html" target="_top" xlink:title=" ">
<polygon fill="white" stroke="#666666" points="186,-74 70,-74 70,-55 186,-55 186,-74"/>
<text text-anchor="middle" x="128" y="-62" font-family="Helvetica,sans-Serif" font-size="10.00">ScalarTransportBase.h</text>
</a>
</g>
</g>
<!-- Node2&#45;&gt;Node4 -->
<g id="edge3" class="edge">
<title>Node2&#45;&gt;Node4</title>
<path fill="none" stroke="#63b8ff" d="M85.42,-109.75C92.47,-102.43 102.73,-91.76 111.41,-82.74"/>
<polygon fill="#63b8ff" stroke="#63b8ff" points="113.93,-85.17 118.35,-75.53 108.89,-80.31 113.93,-85.17"/>
</g>
<!-- Node5 -->
<g id="node5" class="node">
<title>Node5</title>
<g id="a_node5"><a xlink:title=" ">
<polygon fill="#e0e0e0" stroke="#999999" points="115,-19 19,-19 19,0 115,0 115,-19"/>
<text text-anchor="middle" x="67" y="-7" font-family="Helvetica,sans-Serif" font-size="10.00">InputParameters.h</text>
</a>
</g>
</g>
<!-- Node4&#45;&gt;Node5 -->
<g id="edge4" class="edge">
<title>Node4&#45;&gt;Node5</title>
<path fill="none" stroke="#63b8ff" d="M117.65,-54.51C108.92,-46.93 96.21,-35.88 85.7,-26.75"/>
<polygon fill="#63b8ff" stroke="#63b8ff" points="88.18,-24.27 78.34,-20.35 83.59,-29.55 88.18,-24.27"/>
</g>
<!-- Node6 -->
<g id="node6" class="node">
<title>Node6</title>
<g id="a_node6"><a xlink:title=" ">
<polygon fill="#e0e0e0" stroke="#999999" points="244.5,-19 133.5,-19 133.5,0 244.5,0 244.5,-19"/>
<text text-anchor="middle" x="189" y="-7" font-family="Helvetica,sans-Serif" font-size="10.00">MooseVariableBase.h</text>
</a>
</g>
</g>
<!-- Node4&#45;&gt;Node6 -->
<g id="edge5" class="edge">
<title>Node4&#45;&gt;Node6</title>
<path fill="none" stroke="#63b8ff" d="M138.35,-54.51C147.08,-46.93 159.79,-35.88 170.3,-26.75"/>
<polygon fill="#63b8ff" stroke="#63b8ff" points="172.41,-29.55 177.66,-20.35 167.82,-24.27 172.41,-29.55"/>
</g>
</g>
</svg>
