<?xml version="1.0" encoding="UTF-8" standalone="no"?>
<!DOCTYPE svg PUBLIC "-//W3C//DTD SVG 1.1//EN"
 "http://www.w3.org/Graphics/SVG/1.1/DTD/svg11.dtd">
<!-- Generated by graphviz version 2.49.3 (20211027.1534)
 -->
<!-- Title: src/bcs/CoupledScalarAdvectionNoBCBC.C Pages: 1 -->
<svg width="282pt" height="218pt"
 viewBox="0.00 0.00 282.00 218.00" xmlns="http://www.w3.org/2000/svg" xmlns:xlink="http://www.w3.org/1999/xlink">
<g id="graph0" class="graph" transform="scale(1 1) rotate(0) translate(4 214)">
<title>src/bcs/CoupledScalarAdvectionNoBCBC.C</title>
<polygon fill="white" stroke="transparent" points="-4,4 -4,-214 278,-214 278,4 -4,4"/>
<!-- Node1 -->
<g id="node1" class="node">
<title>Node1</title>
<g id="a_node1"><a xlink:title=" ">
<polygon fill="#bfbfbf" stroke="black" points="81.5,-179.5 81.5,-209.5 239.5,-209.5 239.5,-179.5 81.5,-179.5"/>
<text text-anchor="start" x="89.5" y="-197.5" font-family="Helvetica,sans-Serif" font-size="10.00">src/bcs/CoupledScalarAdvection</text>
<text text-anchor="middle" x="160.5" y="-186.5" font-family="Helvetica,sans-Serif" font-size="10.00">NoBCBC.C</text>
</a>
</g>
</g>
<!-- Node2 -->
<g id="node2" class="node">
<title>Node2</title>
<g id="a_node2"><a xlink:href="_coupled_scalar_advection_no_b_c_b_c_8h.html" target="_top" xlink:title=" ">
<polygon fill="white" stroke="black" points="30.5,-112.5 30.5,-142.5 166.5,-142.5 166.5,-112.5 30.5,-112.5"/>
<text text-anchor="start" x="38.5" y="-130.5" font-family="Helvetica,sans-Serif" font-size="10.00">CoupledScalarAdvectionNo</text>
<text text-anchor="middle" x="98.5" y="-119.5" font-family="Helvetica,sans-Serif" font-size="10.00">BCBC.h</text>
</a>
</g>
</g>
<!-- Node1&#45;&gt;Node2 -->
<g id="edge1" class="edge">
<title>Node1&#45;&gt;Node2</title>
<path fill="none" stroke="midnightblue" d="M147.05,-179.4C138.84,-170.79 128.19,-159.63 118.95,-149.94"/>
<polygon fill="midnightblue" stroke="midnightblue" points="121.36,-147.4 111.93,-142.58 116.3,-152.23 121.36,-147.4"/>
</g>
<!-- Node7 -->
<g id="node7" class="node">
<title>Node7</title>
<g id="a_node7"><a xlink:title=" ">
<polygon fill="white" stroke="#bfbfbf" points="185,-118 185,-137 262,-137 262,-118 185,-118"/>
<text text-anchor="middle" x="223.5" y="-125" font-family="Helvetica,sans-Serif" font-size="10.00">MooseMesh.h</text>
</a>
</g>
</g>
<!-- Node1&#45;&gt;Node7 -->
<g id="edge6" class="edge">
<title>Node1&#45;&gt;Node7</title>
<path fill="none" stroke="midnightblue" d="M174.17,-179.4C184.09,-169.16 197.53,-155.3 207.87,-144.62"/>
<polygon fill="midnightblue" stroke="midnightblue" points="210.63,-146.81 215.07,-137.19 205.6,-141.94 210.63,-146.81"/>
</g>
<!-- Node3 -->
<g id="node3" class="node">
<title>Node3</title>
<g id="a_node3"><a xlink:title=" ">
<polygon fill="white" stroke="#bfbfbf" points="0,-56.5 0,-75.5 81,-75.5 81,-56.5 0,-56.5"/>
<text text-anchor="middle" x="40.5" y="-63.5" font-family="Helvetica,sans-Serif" font-size="10.00">IntegratedBC.h</text>
</a>
</g>
</g>
<!-- Node2&#45;&gt;Node3 -->
<g id="edge2" class="edge">
<title>Node2&#45;&gt;Node3</title>
<path fill="none" stroke="midnightblue" d="M84.75,-112.4C76.15,-103.58 65.05,-92.18 56.11,-83.02"/>
<polygon fill="midnightblue" stroke="midnightblue" points="58.43,-80.38 48.94,-75.66 53.41,-85.26 58.43,-80.38"/>
</g>
<!-- Node4 -->
<g id="node4" class="node">
<title>Node4</title>
<g id="a_node4"><a xlink:href="_scalar_transport_base_8h.html" target="_top" xlink:title=" ">
<polygon fill="white" stroke="black" points="99.5,-56.5 99.5,-75.5 215.5,-75.5 215.5,-56.5 99.5,-56.5"/>
<text text-anchor="middle" x="157.5" y="-63.5" font-family="Helvetica,sans-Serif" font-size="10.00">ScalarTransportBase.h</text>
</a>
</g>
</g>
<!-- Node2&#45;&gt;Node4 -->
<g id="edge3" class="edge">
<title>Node2&#45;&gt;Node4</title>
<path fill="none" stroke="midnightblue" d="M112.48,-112.4C121.23,-103.58 132.53,-92.18 141.62,-83.02"/>
<polygon fill="midnightblue" stroke="midnightblue" points="144.36,-85.22 148.91,-75.66 139.39,-80.29 144.36,-85.22"/>
</g>
<!-- Node5 -->
<g id="node5" class="node">
<title>Node5</title>
<g id="a_node5"><a xlink:title=" ">
<polygon fill="white" stroke="#bfbfbf" points="48.5,-0.5 48.5,-19.5 144.5,-19.5 144.5,-0.5 48.5,-0.5"/>
<text text-anchor="middle" x="96.5" y="-7.5" font-family="Helvetica,sans-Serif" font-size="10.00">InputParameters.h</text>
</a>
</g>
</g>
<!-- Node4&#45;&gt;Node5 -->
<g id="edge4" class="edge">
<title>Node4&#45;&gt;Node5</title>
<path fill="none" stroke="midnightblue" d="M147.7,-56.32C138.68,-48.34 125.09,-36.31 114.18,-26.65"/>
<polygon fill="midnightblue" stroke="midnightblue" points="116.29,-23.84 106.48,-19.83 111.65,-29.08 116.29,-23.84"/>
</g>
<!-- Node6 -->
<g id="node6" class="node">
<title>Node6</title>
<g id="a_node6"><a xlink:title=" ">
<polygon fill="white" stroke="#bfbfbf" points="163,-0.5 163,-19.5 274,-19.5 274,-0.5 163,-0.5"/>
<text text-anchor="middle" x="218.5" y="-7.5" font-family="Helvetica,sans-Serif" font-size="10.00">MooseVariableBase.h</text>
</a>
</g>
</g>
<!-- Node4&#45;&gt;Node6 -->
<g id="edge5" class="edge">
<title>Node4&#45;&gt;Node6</title>
<path fill="none" stroke="midnightblue" d="M167.3,-56.32C176.32,-48.34 189.91,-36.31 200.82,-26.65"/>
<polygon fill="midnightblue" stroke="midnightblue" points="203.35,-29.08 208.52,-19.83 198.71,-23.84 203.35,-29.08"/>
</g>
</g>
</svg>
