<?xml version="1.0" encoding="UTF-8" standalone="no"?>
<!DOCTYPE svg PUBLIC "-//W3C//DTD SVG 1.1//EN"
 "http://www.w3.org/Graphics/SVG/1.1/DTD/svg11.dtd">
<!-- Generated by graphviz version 9.0.0 (20230911.1827)
 -->
<!-- Title: include/kernels/CoupledFissionEigenKernel.h Pages: 1 -->
<svg width="274pt" height="149pt"
 viewBox="0.00 0.00 273.88 149.00" xmlns="http://www.w3.org/2000/svg" xmlns:xlink="http://www.w3.org/1999/xlink">
<g id="graph0" class="graph" transform="scale(1 1) rotate(0) translate(4 145)">
<title>include/kernels/CoupledFissionEigenKernel.h</title>
<!-- Node1 -->
<g id="Node000001" class="node">
<title>Node1</title>
<g id="a_Node000001"><a xlink:title=" ">
<polygon fill="#999999" stroke="#666666" points="169.12,-141 18.12,-141 18.12,-110.5 169.12,-110.5 169.12,-141"/>
<text text-anchor="start" x="26.12" y="-127.5" font-family="Helvetica,sans-Serif" font-size="10.00">include/kernels/CoupledFission</text>
<text text-anchor="middle" x="93.62" y="-116.25" font-family="Helvetica,sans-Serif" font-size="10.00">EigenKernel.h</text>
</a>
</g>
</g>
<!-- Node2 -->
<g id="Node000002" class="node">
<title>Node2</title>
<g id="a_Node000002"><a xlink:title=" ">
<polygon fill="#e0e0e0" stroke="#999999" points="75.25,-74.5 0,-74.5 0,-55.25 75.25,-55.25 75.25,-74.5"/>
<text text-anchor="middle" x="37.62" y="-61" font-family="Helvetica,sans-Serif" font-size="10.00">EigenKernel.h</text>
</a>
</g>
</g>
<!-- Node1&#45;&gt;Node2 -->
<g id="edge1_Node000001_Node000002" class="edge">
<title>Node1&#45;&gt;Node2</title>
<g id="a_edge1_Node000001_Node000002"><a xlink:title=" ">
<path fill="none" stroke="#63b8ff" d="M79.78,-110.2C71.99,-102.01 62.22,-91.73 54.05,-83.14"/>
<polygon fill="#63b8ff" stroke="#63b8ff" points="56.73,-80.88 47.3,-76.05 51.66,-85.71 56.73,-80.88"/>
</a>
</g>
</g>
<!-- Node3 -->
<g id="Node000003" class="node">
<title>Node3</title>
<g id="a_Node000003"><a xlink:href="_scalar_transport_base_8h.html" target="_top" xlink:title=" ">
<polygon fill="white" stroke="#666666" points="208.12,-74.5 93.12,-74.5 93.12,-55.25 208.12,-55.25 208.12,-74.5"/>
<text text-anchor="middle" x="150.62" y="-61" font-family="Helvetica,sans-Serif" font-size="10.00">ScalarTransportBase.h</text>
</a>
</g>
</g>
<!-- Node1&#45;&gt;Node3 -->
<g id="edge2_Node000001_Node000003" class="edge">
<title>Node1&#45;&gt;Node3</title>
<g id="a_edge2_Node000001_Node000003"><a xlink:title=" ">
<path fill="none" stroke="#63b8ff" d="M107.71,-110.2C115.64,-102.01 125.59,-91.73 133.91,-83.14"/>
<polygon fill="#63b8ff" stroke="#63b8ff" points="136.34,-85.66 140.79,-76.04 131.31,-80.79 136.34,-85.66"/>
</a>
</g>
</g>
<!-- Node4 -->
<g id="Node000004" class="node">
<title>Node4</title>
<g id="a_Node000004"><a xlink:title=" ">
<polygon fill="#e0e0e0" stroke="#999999" points="137.38,-19.25 41.88,-19.25 41.88,0 137.38,0 137.38,-19.25"/>
<text text-anchor="middle" x="89.62" y="-5.75" font-family="Helvetica,sans-Serif" font-size="10.00">InputParameters.h</text>
</a>
</g>
</g>
<!-- Node3&#45;&gt;Node4 -->
<g id="edge3_Node000003_Node000004" class="edge">
<title>Node3&#45;&gt;Node4</title>
<g id="a_edge3_Node000003_Node000004"><a xlink:title=" ">
<path fill="none" stroke="#63b8ff" d="M140.28,-54.84C131.55,-47.22 118.84,-36.12 108.33,-26.95"/>
<polygon fill="#63b8ff" stroke="#63b8ff" points="110.8,-24.46 100.96,-20.52 106.19,-29.73 110.8,-24.46"/>
</a>
</g>
</g>
<!-- Node5 -->
<g id="Node000005" class="node">
<title>Node5</title>
<g id="a_Node000005"><a xlink:title=" ">
<polygon fill="#e0e0e0" stroke="#999999" points="265.88,-19.25 155.38,-19.25 155.38,0 265.88,0 265.88,-19.25"/>
<text text-anchor="middle" x="210.62" y="-5.75" font-family="Helvetica,sans-Serif" font-size="10.00">MooseVariableBase.h</text>
</a>
</g>
</g>
<!-- Node3&#45;&gt;Node5 -->
<g id="edge4_Node000003_Node000005" class="edge">
<title>Node3&#45;&gt;Node5</title>
<g id="a_edge4_Node000003_Node000005"><a xlink:title=" ">
<path fill="none" stroke="#63b8ff" d="M160.8,-54.84C169.39,-47.22 181.89,-36.12 192.23,-26.95"/>
<polygon fill="#63b8ff" stroke="#63b8ff" points="194.31,-29.79 199.47,-20.53 189.66,-24.55 194.31,-29.79"/>
</a>
</g>
</g>
</g>
</svg>
