<?xml version="1.0" encoding="UTF-8" standalone="no"?>
<!DOCTYPE svg PUBLIC "-//W3C//DTD SVG 1.1//EN"
 "http://www.w3.org/Graphics/SVG/1.1/DTD/svg11.dtd">
<!-- Generated by graphviz version 7.0.4 (20221203.1631)
 -->
<!-- Title: src/bcs/CoupledScalarAdvectionNoBCBC.C Pages: 1 -->
<svg width="282pt" height="214pt"
 viewBox="0.00 0.00 282.00 214.00" xmlns="http://www.w3.org/2000/svg" xmlns:xlink="http://www.w3.org/1999/xlink">
<g id="graph0" class="graph" transform="scale(1 1) rotate(0) translate(4 210)">
<title>src/bcs/CoupledScalarAdvectionNoBCBC.C</title>
<!-- Node1 -->
<g id="node1" class="node">
<title>Node1</title>
<g id="a_node1"><a xlink:title=" ">
<polygon fill="#999999" stroke="#666666" points="239.5,-206 81.5,-206 81.5,-176 239.5,-176 239.5,-206"/>
<text text-anchor="start" x="89.5" y="-194" font-family="Helvetica,sans-Serif" font-size="10.00">src/bcs/CoupledScalarAdvection</text>
<text text-anchor="middle" x="160.5" y="-183" font-family="Helvetica,sans-Serif" font-size="10.00">NoBCBC.C</text>
</a>
</g>
</g>
<!-- Node2 -->
<g id="node2" class="node">
<title>Node2</title>
<g id="a_node2"><a xlink:href="_coupled_scalar_advection_no_b_c_b_c_8h.html" target="_top" xlink:title=" ">
<polygon fill="white" stroke="#666666" points="166.5,-140 30.5,-140 30.5,-110 166.5,-110 166.5,-140"/>
<text text-anchor="start" x="38.5" y="-128" font-family="Helvetica,sans-Serif" font-size="10.00">CoupledScalarAdvectionNo</text>
<text text-anchor="middle" x="98.5" y="-117" font-family="Helvetica,sans-Serif" font-size="10.00">BCBC.h</text>
</a>
</g>
</g>
<!-- Node1&#45;&gt;Node2 -->
<g id="edge1" class="edge">
<title>Node1&#45;&gt;Node2</title>
<path fill="none" stroke="#63b8ff" d="M146.74,-175.8C138.95,-167.76 129.04,-157.53 120.23,-148.43"/>
<polygon fill="#63b8ff" stroke="#63b8ff" points="122.75,-146 113.27,-141.25 117.72,-150.87 122.75,-146"/>
</g>
<!-- Node7 -->
<g id="node7" class="node">
<title>Node7</title>
<g id="a_node7"><a xlink:title=" ">
<polygon fill="#e0e0e0" stroke="#999999" points="262,-134.5 185,-134.5 185,-115.5 262,-115.5 262,-134.5"/>
<text text-anchor="middle" x="223.5" y="-122.5" font-family="Helvetica,sans-Serif" font-size="10.00">MooseMesh.h</text>
</a>
</g>
</g>
<!-- Node1&#45;&gt;Node7 -->
<g id="edge6" class="edge">
<title>Node1&#45;&gt;Node7</title>
<path fill="none" stroke="#63b8ff" d="M174.48,-175.8C184.01,-166.11 196.69,-153.24 206.76,-143.01"/>
<polygon fill="#63b8ff" stroke="#63b8ff" points="209.21,-145.5 213.73,-135.92 204.22,-140.59 209.21,-145.5"/>
</g>
<!-- Node3 -->
<g id="node3" class="node">
<title>Node3</title>
<g id="a_node3"><a xlink:title=" ">
<polygon fill="#e0e0e0" stroke="#999999" points="81,-74 0,-74 0,-55 81,-55 81,-74"/>
<text text-anchor="middle" x="40.5" y="-62" font-family="Helvetica,sans-Serif" font-size="10.00">IntegratedBC.h</text>
</a>
</g>
</g>
<!-- Node2&#45;&gt;Node3 -->
<g id="edge2" class="edge">
<title>Node2&#45;&gt;Node3</title>
<path fill="none" stroke="#63b8ff" d="M84.16,-109.54C76,-101.3 65.73,-90.94 57.2,-82.34"/>
<polygon fill="#63b8ff" stroke="#63b8ff" points="59.69,-79.89 50.17,-75.25 54.72,-84.82 59.69,-79.89"/>
</g>
<!-- Node4 -->
<g id="node4" class="node">
<title>Node4</title>
<g id="a_node4"><a xlink:href="_scalar_transport_base_8h.html" target="_top" xlink:title=" ">
<polygon fill="white" stroke="#666666" points="215.5,-74 99.5,-74 99.5,-55 215.5,-55 215.5,-74"/>
<text text-anchor="middle" x="157.5" y="-62" font-family="Helvetica,sans-Serif" font-size="10.00">ScalarTransportBase.h</text>
</a>
</g>
</g>
<!-- Node2&#45;&gt;Node4 -->
<g id="edge3" class="edge">
<title>Node2&#45;&gt;Node4</title>
<path fill="none" stroke="#63b8ff" d="M113.08,-109.54C121.48,-101.22 132.06,-90.72 140.79,-82.07"/>
<polygon fill="#63b8ff" stroke="#63b8ff" points="143.04,-84.77 147.68,-75.24 138.11,-79.8 143.04,-84.77"/>
</g>
<!-- Node5 -->
<g id="node5" class="node">
<title>Node5</title>
<g id="a_node5"><a xlink:title=" ">
<polygon fill="#e0e0e0" stroke="#999999" points="144.5,-19 48.5,-19 48.5,0 144.5,0 144.5,-19"/>
<text text-anchor="middle" x="96.5" y="-7" font-family="Helvetica,sans-Serif" font-size="10.00">InputParameters.h</text>
</a>
</g>
</g>
<!-- Node4&#45;&gt;Node5 -->
<g id="edge4" class="edge">
<title>Node4&#45;&gt;Node5</title>
<path fill="none" stroke="#63b8ff" d="M147.15,-54.51C138.42,-46.93 125.71,-35.88 115.2,-26.75"/>
<polygon fill="#63b8ff" stroke="#63b8ff" points="117.68,-24.27 107.84,-20.35 113.09,-29.55 117.68,-24.27"/>
</g>
<!-- Node6 -->
<g id="node6" class="node">
<title>Node6</title>
<g id="a_node6"><a xlink:title=" ">
<polygon fill="#e0e0e0" stroke="#999999" points="274,-19 163,-19 163,0 274,0 274,-19"/>
<text text-anchor="middle" x="218.5" y="-7" font-family="Helvetica,sans-Serif" font-size="10.00">MooseVariableBase.h</text>
</a>
</g>
</g>
<!-- Node4&#45;&gt;Node6 -->
<g id="edge5" class="edge">
<title>Node4&#45;&gt;Node6</title>
<path fill="none" stroke="#63b8ff" d="M167.85,-54.51C176.58,-46.93 189.29,-35.88 199.8,-26.75"/>
<polygon fill="#63b8ff" stroke="#63b8ff" points="201.91,-29.55 207.16,-20.35 197.32,-24.27 201.91,-29.55"/>
</g>
</g>
</svg>
