<?xml version="1.0" encoding="UTF-8" standalone="no"?>
<!DOCTYPE svg PUBLIC "-//W3C//DTD SVG 1.1//EN"
 "http://www.w3.org/Graphics/SVG/1.1/DTD/svg11.dtd">
<!-- Generated by graphviz version 12.2.0 (20241103.1931)
 -->
<!-- Title: src/bcs/CoupledScalarAdvectionNoBCBC.C Pages: 1 -->
<svg width="380pt" height="216pt"
 viewBox="0.00 0.00 380.25 215.50" xmlns="http://www.w3.org/2000/svg" xmlns:xlink="http://www.w3.org/1999/xlink">
<g id="graph0" class="graph" transform="scale(1 1) rotate(0) translate(4 211.5)">
<title>src/bcs/CoupledScalarAdvectionNoBCBC.C</title>
<!-- Node1 -->
<g id="Node000001" class="node">
<title>Node1</title>
<g id="a_Node000001"><a xlink:title=" ">
<polygon fill="#999999" stroke="#666666" points="301.12,-207.5 143.38,-207.5 143.38,-177 301.12,-177 301.12,-207.5"/>
<text text-anchor="start" x="151.38" y="-194" font-family="Helvetica,sans-Serif" font-size="10.00">src/bcs/CoupledScalarAdvection</text>
<text text-anchor="middle" x="222.25" y="-182.75" font-family="Helvetica,sans-Serif" font-size="10.00">NoBCBC.C</text>
</a>
</g>
</g>
<!-- Node2 -->
<g id="Node000002" class="node">
<title>Node2</title>
<g id="a_Node000002"><a xlink:href="_coupled_scalar_advection_no_b_c_b_c_8h.html" target="_top" xlink:title=" ">
<polygon fill="white" stroke="#666666" points="165.88,-141 30.62,-141 30.62,-110.5 165.88,-110.5 165.88,-141"/>
<text text-anchor="start" x="38.62" y="-127.5" font-family="Helvetica,sans-Serif" font-size="10.00">CoupledScalarAdvectionNo</text>
<text text-anchor="middle" x="98.25" y="-116.25" font-family="Helvetica,sans-Serif" font-size="10.00">BCBC.h</text>
</a>
</g>
</g>
<!-- Node1&#45;&gt;Node2 -->
<g id="edge1_Node000001_Node000002" class="edge">
<title>Node1&#45;&gt;Node2</title>
<g id="a_edge1_Node000001_Node000002"><a xlink:title=" ">
<path fill="none" stroke="#63b8ff" d="M194.11,-176.61C176.99,-167.71 154.9,-156.22 136.24,-146.51"/>
<polygon fill="#63b8ff" stroke="#63b8ff" points="138.11,-143.54 127.62,-142.03 134.88,-149.75 138.11,-143.54"/>
</a>
</g>
</g>
<!-- Node7 -->
<g id="Node000007" class="node">
<title>Node7</title>
<g id="a_Node000007"><a xlink:title=" ">
<polygon fill="#e0e0e0" stroke="#999999" points="260.62,-135.38 183.88,-135.38 183.88,-116.12 260.62,-116.12 260.62,-135.38"/>
<text text-anchor="middle" x="222.25" y="-121.88" font-family="Helvetica,sans-Serif" font-size="10.00">MooseMesh.h</text>
</a>
</g>
</g>
<!-- Node1&#45;&gt;Node7 -->
<g id="edge6_Node000001_Node000007" class="edge">
<title>Node1&#45;&gt;Node7</title>
<g id="a_edge6_Node000001_Node000007"><a xlink:title=" ">
<path fill="none" stroke="#63b8ff" d="M222.25,-176.61C222.25,-167.83 222.25,-156.52 222.25,-146.9"/>
<polygon fill="#63b8ff" stroke="#63b8ff" points="225.75,-147.09 222.25,-137.09 218.75,-147.09 225.75,-147.09"/>
</a>
</g>
</g>
<!-- Node8 -->
<g id="Node000008" class="node">
<title>Node8</title>
<g id="a_Node000008"><a xlink:title=" ">
<polygon fill="#e0e0e0" stroke="#999999" points="372.25,-135.38 278.25,-135.38 278.25,-116.12 372.25,-116.12 372.25,-135.38"/>
<text text-anchor="middle" x="325.25" y="-121.88" font-family="Helvetica,sans-Serif" font-size="10.00">FEProblemBase.h</text>
</a>
</g>
</g>
<!-- Node1&#45;&gt;Node8 -->
<g id="edge7_Node000001_Node000008" class="edge">
<title>Node1&#45;&gt;Node8</title>
<g id="a_edge7_Node000001_Node000008"><a xlink:title=" ">
<path fill="none" stroke="#63b8ff" d="M245.62,-176.61C262.24,-166.21 284.48,-152.28 301.24,-141.79"/>
<polygon fill="#63b8ff" stroke="#63b8ff" points="302.96,-144.84 309.58,-136.56 299.25,-138.9 302.96,-144.84"/>
</a>
</g>
</g>
<!-- Node3 -->
<g id="Node000003" class="node">
<title>Node3</title>
<g id="a_Node000003"><a xlink:title=" ">
<polygon fill="#e0e0e0" stroke="#999999" points="80.5,-74.5 0,-74.5 0,-55.25 80.5,-55.25 80.5,-74.5"/>
<text text-anchor="middle" x="40.25" y="-61" font-family="Helvetica,sans-Serif" font-size="10.00">IntegratedBC.h</text>
</a>
</g>
</g>
<!-- Node2&#45;&gt;Node3 -->
<g id="edge2_Node000002_Node000003" class="edge">
<title>Node2&#45;&gt;Node3</title>
<g id="a_edge2_Node000002_Node000003"><a xlink:title=" ">
<path fill="none" stroke="#63b8ff" d="M83.91,-110.2C75.85,-102.01 65.73,-91.73 57.26,-83.14"/>
<polygon fill="#63b8ff" stroke="#63b8ff" points="59.76,-80.7 50.25,-76.03 54.78,-85.61 59.76,-80.7"/>
</a>
</g>
</g>
<!-- Node4 -->
<g id="Node000004" class="node">
<title>Node4</title>
<g id="a_Node000004"><a xlink:href="_scalar_transport_base_8h.html" target="_top" xlink:title=" ">
<polygon fill="white" stroke="#666666" points="213.75,-74.5 98.75,-74.5 98.75,-55.25 213.75,-55.25 213.75,-74.5"/>
<text text-anchor="middle" x="156.25" y="-61" font-family="Helvetica,sans-Serif" font-size="10.00">ScalarTransportBase.h</text>
</a>
</g>
</g>
<!-- Node2&#45;&gt;Node4 -->
<g id="edge3_Node000002_Node000004" class="edge">
<title>Node2&#45;&gt;Node4</title>
<g id="a_edge3_Node000002_Node000004"><a xlink:title=" ">
<path fill="none" stroke="#63b8ff" d="M112.59,-110.2C120.65,-102.01 130.77,-91.73 139.24,-83.14"/>
<polygon fill="#63b8ff" stroke="#63b8ff" points="141.72,-85.61 146.25,-76.03 136.74,-80.7 141.72,-85.61"/>
</a>
</g>
</g>
<!-- Node5 -->
<g id="Node000005" class="node">
<title>Node5</title>
<g id="a_Node000005"><a xlink:title=" ">
<polygon fill="#e0e0e0" stroke="#999999" points="143,-19.25 47.5,-19.25 47.5,0 143,0 143,-19.25"/>
<text text-anchor="middle" x="95.25" y="-5.75" font-family="Helvetica,sans-Serif" font-size="10.00">InputParameters.h</text>
</a>
</g>
</g>
<!-- Node4&#45;&gt;Node5 -->
<g id="edge4_Node000004_Node000005" class="edge">
<title>Node4&#45;&gt;Node5</title>
<g id="a_edge4_Node000004_Node000005"><a xlink:title=" ">
<path fill="none" stroke="#63b8ff" d="M145.9,-54.84C137.17,-47.22 124.46,-36.12 113.95,-26.95"/>
<polygon fill="#63b8ff" stroke="#63b8ff" points="116.42,-24.46 106.59,-20.52 111.82,-29.73 116.42,-24.46"/>
</a>
</g>
</g>
<!-- Node6 -->
<g id="Node000006" class="node">
<title>Node6</title>
<g id="a_Node000006"><a xlink:title=" ">
<polygon fill="#e0e0e0" stroke="#999999" points="271.5,-19.25 161,-19.25 161,0 271.5,0 271.5,-19.25"/>
<text text-anchor="middle" x="216.25" y="-5.75" font-family="Helvetica,sans-Serif" font-size="10.00">MooseVariableBase.h</text>
</a>
</g>
</g>
<!-- Node4&#45;&gt;Node6 -->
<g id="edge5_Node000004_Node000006" class="edge">
<title>Node4&#45;&gt;Node6</title>
<g id="a_edge5_Node000004_Node000006"><a xlink:title=" ">
<path fill="none" stroke="#63b8ff" d="M166.43,-54.84C175.01,-47.22 187.52,-36.12 197.85,-26.95"/>
<polygon fill="#63b8ff" stroke="#63b8ff" points="199.93,-29.79 205.09,-20.53 195.29,-24.55 199.93,-29.79"/>
</a>
</g>
</g>
</g>
</svg>
