<?xml version="1.0" encoding="UTF-8" standalone="no"?>
<!DOCTYPE svg PUBLIC "-//W3C//DTD SVG 1.1//EN"
 "http://www.w3.org/Graphics/SVG/1.1/DTD/svg11.dtd">
<!-- Generated by graphviz version 2.49.3 (20211027.1534)
 -->
<!-- Title: src/bcs/CoupledOutflowBC.C Pages: 1 -->
<svg width="151pt" height="140pt"
 viewBox="0.00 0.00 151.00 140.00" xmlns="http://www.w3.org/2000/svg" xmlns:xlink="http://www.w3.org/1999/xlink">
<g id="graph0" class="graph" transform="scale(1 1) rotate(0) translate(4 136)">
<title>src/bcs/CoupledOutflowBC.C</title>
<polygon fill="white" stroke="transparent" points="-4,4 -4,-136 147,-136 147,4 -4,4"/>
<!-- Node1 -->
<g id="node1" class="node">
<title>Node1</title>
<g id="a_node1"><a xlink:title=" ">
<polygon fill="#bfbfbf" stroke="black" points="0,-112.5 0,-131.5 143,-131.5 143,-112.5 0,-112.5"/>
<text text-anchor="middle" x="71.5" y="-119.5" font-family="Helvetica,sans-Serif" font-size="10.00">src/bcs/CoupledOutflowBC.C</text>
</a>
</g>
</g>
<!-- Node2 -->
<g id="node2" class="node">
<title>Node2</title>
<g id="a_node2"><a xlink:href="_coupled_outflow_b_c_8h.html" target="_top" xlink:title=" ">
<polygon fill="white" stroke="black" points="18.5,-56.5 18.5,-75.5 124.5,-75.5 124.5,-56.5 18.5,-56.5"/>
<text text-anchor="middle" x="71.5" y="-63.5" font-family="Helvetica,sans-Serif" font-size="10.00">CoupledOutflowBC.h</text>
</a>
</g>
</g>
<!-- Node1&#45;&gt;Node2 -->
<g id="edge1" class="edge">
<title>Node1&#45;&gt;Node2</title>
<path fill="none" stroke="midnightblue" d="M71.5,-112.08C71.5,-105.01 71.5,-94.86 71.5,-85.99"/>
<polygon fill="midnightblue" stroke="midnightblue" points="75,-85.75 71.5,-75.75 68,-85.75 75,-85.75"/>
</g>
<!-- Node3 -->
<g id="node3" class="node">
<title>Node3</title>
<g id="a_node3"><a xlink:title=" ">
<polygon fill="white" stroke="#bfbfbf" points="31,-0.5 31,-19.5 112,-19.5 112,-0.5 31,-0.5"/>
<text text-anchor="middle" x="71.5" y="-7.5" font-family="Helvetica,sans-Serif" font-size="10.00">IntegratedBC.h</text>
</a>
</g>
</g>
<!-- Node2&#45;&gt;Node3 -->
<g id="edge2" class="edge">
<title>Node2&#45;&gt;Node3</title>
<path fill="none" stroke="midnightblue" d="M71.5,-56.08C71.5,-49.01 71.5,-38.86 71.5,-29.99"/>
<polygon fill="midnightblue" stroke="midnightblue" points="75,-29.75 71.5,-19.75 68,-29.75 75,-29.75"/>
</g>
</g>
</svg>
