<?xml version="1.0" encoding="UTF-8" standalone="no"?>
<!DOCTYPE svg PUBLIC "-//W3C//DTD SVG 1.1//EN"
 "http://www.w3.org/Graphics/SVG/1.1/DTD/svg11.dtd">
<!-- Generated by graphviz version 12.2.0 (20241103.1931)
 -->
<!-- Title: src/dgkernels/DGTurbulentDiffusion.C Pages: 1 -->
<svg width="260pt" height="149pt"
 viewBox="0.00 0.00 259.50 149.00" xmlns="http://www.w3.org/2000/svg" xmlns:xlink="http://www.w3.org/1999/xlink">

<svg id="main" version="1.1" xmlns="http://www.w3.org/2000/svg" xmlns:xlink="http://www.w3.org/1999/xlink" xml:space="preserve">

<style type="text/css"><![CDATA[
.node, .edge {opacity: 0.7;}
.node.selected, .edge.selected {opacity: 1;}
.edge:hover path { stroke: red; }
.edge:hover polygon { stroke: red; fill: red; }
]]></style>
<script type="application/ecmascript" xlink:href="svg.min.js"/>
<svg id="graph" class="graph">
<g id="graph0" class="graph" transform="scale(1 1) rotate(0) translate(4 145)">
<title>src/dgkernels/DGTurbulentDiffusion.C</title>
<!-- Node1 -->
<g id="Node000001" class="node">
<title>Node1</title>
<g id="a_Node000001"><a xlink:title=" ">
<polygon fill="#999999" stroke="#666666" points="191,-141 58.75,-141 58.75,-110.5 191,-110.5 191,-141"/>
<text text-anchor="start" x="66.75" y="-127.5" font-family="Helvetica,sans-Serif" font-size="10.00">src/dgkernels/DGTurbulent</text>
<text text-anchor="middle" x="124.88" y="-116.25" font-family="Helvetica,sans-Serif" font-size="10.00">Diffusion.C</text>
</a>
</g>
</g>
<!-- Node2 -->
<g id="Node000002" class="node">
<title>Node2</title>
<g id="a_Node000002"><a xlink:href="_d_g_turbulent_diffusion_8h.html" target="_top" xlink:title=" ">
<polygon fill="white" stroke="#666666" points="115.75,-74.5 0,-74.5 0,-55.25 115.75,-55.25 115.75,-74.5"/>
<text text-anchor="middle" x="57.88" y="-61" font-family="Helvetica,sans-Serif" font-size="10.00">DGTurbulentDiffusion.h</text>
</a>
</g>
</g>
<!-- Node1&#45;&gt;Node2 -->
<g id="edge1_Node000001_Node000002" class="edge">
<title>Node1&#45;&gt;Node2</title>
<g id="a_edge1_Node000001_Node000002"><a xlink:title=" ">
<path fill="none" stroke="#63b8ff" d="M108.31,-110.2C98.7,-101.75 86.56,-91.08 76.6,-82.33"/>
<polygon fill="#63b8ff" stroke="#63b8ff" points="79.16,-79.92 69.34,-75.95 74.54,-85.18 79.16,-79.92"/>
</a>
</g>
</g>
<!-- Node4 -->
<g id="Node000004" class="node">
<title>Node4</title>
<g id="a_Node000004"><a xlink:title=" ">
<polygon fill="#e0e0e0" stroke="#999999" points="251.5,-74.5 134.25,-74.5 134.25,-55.25 251.5,-55.25 251.5,-74.5"/>
<text text-anchor="middle" x="192.88" y="-61" font-family="Helvetica,sans-Serif" font-size="10.00">metaphysicl/raw_type.h</text>
</a>
</g>
</g>
<!-- Node1&#45;&gt;Node4 -->
<g id="edge3_Node000001_Node000004" class="edge">
<title>Node1&#45;&gt;Node4</title>
<g id="a_edge3_Node000001_Node000004"><a xlink:title=" ">
<path fill="none" stroke="#63b8ff" d="M141.68,-110.2C151.44,-101.75 163.76,-91.08 173.87,-82.33"/>
<polygon fill="#63b8ff" stroke="#63b8ff" points="175.98,-85.13 181.25,-75.94 171.4,-79.84 175.98,-85.13"/>
</a>
</g>
</g>
<!-- Node3 -->
<g id="Node000003" class="node">
<title>Node3</title>
<g id="a_Node000003"><a xlink:title=" ">
<polygon fill="#e0e0e0" stroke="#999999" points="90.62,-19.25 25.12,-19.25 25.12,0 90.62,0 90.62,-19.25"/>
<text text-anchor="middle" x="57.88" y="-5.75" font-family="Helvetica,sans-Serif" font-size="10.00">DGKernel.h</text>
</a>
</g>
</g>
<!-- Node2&#45;&gt;Node3 -->
<g id="edge2_Node000002_Node000003" class="edge">
<title>Node2&#45;&gt;Node3</title>
<g id="a_edge2_Node000002_Node000003"><a xlink:title=" ">
<path fill="none" stroke="#63b8ff" d="M57.88,-55.08C57.88,-48.57 57.88,-39.42 57.88,-31.12"/>
<polygon fill="#63b8ff" stroke="#63b8ff" points="61.38,-31.12 57.88,-21.12 54.38,-31.12 61.38,-31.12"/>
</a>
</g>
</g>
</g>
</svg>
</svg>

<style type='text/css'>
<![CDATA[
[data-mouse-over-selected='false'] { opacity: 0.7; }
[data-mouse-over-selected='true']  { opacity: 1.0; }
]]>
</style>
<script type="application/ecmascript"><![CDATA[
document.addEventListener('DOMContentLoaded', (event) => {
  highlightEdges();
  highlightAdjacentNodes();
});
]]></script>
</svg>
