<?xml version="1.0" encoding="UTF-8" standalone="no"?>
<!DOCTYPE svg PUBLIC "-//W3C//DTD SVG 1.1//EN"
 "http://www.w3.org/Graphics/SVG/1.1/DTD/svg11.dtd">
<!-- Generated by graphviz version 9.0.0 (20230911.1827)
 -->
<!-- Title: src/kernels/DecayHeatSource.C Pages: 1 -->
<svg width="252pt" height="193pt"
 viewBox="0.00 0.00 251.62 193.00" xmlns="http://www.w3.org/2000/svg" xmlns:xlink="http://www.w3.org/1999/xlink">
<g id="graph0" class="graph" transform="scale(1 1) rotate(0) translate(4 189)">
<title>src/kernels/DecayHeatSource.C</title>
<!-- Node1 -->
<g id="Node000001" class="node">
<title>Node1</title>
<g id="a_Node000001"><a xlink:title=" ">
<polygon fill="#999999" stroke="#666666" points="154.75,-185 0,-185 0,-165.75 154.75,-165.75 154.75,-185"/>
<text text-anchor="middle" x="77.38" y="-171.5" font-family="Helvetica,sans-Serif" font-size="10.00">src/kernels/DecayHeatSource.C</text>
</a>
</g>
</g>
<!-- Node2 -->
<g id="Node000002" class="node">
<title>Node2</title>
<g id="a_Node000002"><a xlink:href="_decay_heat_source_8h.html" target="_top" xlink:title=" ">
<polygon fill="white" stroke="#666666" points="128.5,-129.75 26.25,-129.75 26.25,-110.5 128.5,-110.5 128.5,-129.75"/>
<text text-anchor="middle" x="77.38" y="-116.25" font-family="Helvetica,sans-Serif" font-size="10.00">DecayHeatSource.h</text>
</a>
</g>
</g>
<!-- Node1&#45;&gt;Node2 -->
<g id="edge1_Node000001_Node000002" class="edge">
<title>Node1&#45;&gt;Node2</title>
<g id="a_edge1_Node000001_Node000002"><a xlink:title=" ">
<path fill="none" stroke="#63b8ff" d="M77.38,-165.58C77.38,-159.07 77.38,-149.92 77.38,-141.62"/>
<polygon fill="#63b8ff" stroke="#63b8ff" points="80.88,-141.62 77.38,-131.62 73.88,-141.62 80.88,-141.62"/>
</a>
</g>
</g>
<!-- Node3 -->
<g id="Node000003" class="node">
<title>Node3</title>
<g id="a_Node000003"><a xlink:title=" ">
<polygon fill="#e0e0e0" stroke="#999999" points="53,-74.5 1.75,-74.5 1.75,-55.25 53,-55.25 53,-74.5"/>
<text text-anchor="middle" x="27.38" y="-61" font-family="Helvetica,sans-Serif" font-size="10.00">Kernel.h</text>
</a>
</g>
</g>
<!-- Node2&#45;&gt;Node3 -->
<g id="edge2_Node000002_Node000003" class="edge">
<title>Node2&#45;&gt;Node3</title>
<g id="a_edge2_Node000002_Node000003"><a xlink:title=" ">
<path fill="none" stroke="#63b8ff" d="M69.12,-110.33C62.21,-102.98 52.15,-92.26 43.64,-83.19"/>
<polygon fill="#63b8ff" stroke="#63b8ff" points="46.24,-80.86 36.85,-75.96 41.14,-85.65 46.24,-80.86"/>
</a>
</g>
</g>
<!-- Node4 -->
<g id="Node000004" class="node">
<title>Node4</title>
<g id="a_Node000004"><a xlink:href="_scalar_transport_base_8h.html" target="_top" xlink:title=" ">
<polygon fill="white" stroke="#666666" points="185.88,-74.5 70.88,-74.5 70.88,-55.25 185.88,-55.25 185.88,-74.5"/>
<text text-anchor="middle" x="128.38" y="-61" font-family="Helvetica,sans-Serif" font-size="10.00">ScalarTransportBase.h</text>
</a>
</g>
</g>
<!-- Node2&#45;&gt;Node4 -->
<g id="edge3_Node000002_Node000004" class="edge">
<title>Node2&#45;&gt;Node4</title>
<g id="a_edge3_Node000002_Node000004"><a xlink:title=" ">
<path fill="none" stroke="#63b8ff" d="M85.8,-110.33C92.91,-102.9 103.32,-92.04 112.06,-82.91"/>
<polygon fill="#63b8ff" stroke="#63b8ff" points="114.33,-85.6 118.72,-75.95 109.28,-80.75 114.33,-85.6"/>
</a>
</g>
</g>
<!-- Node5 -->
<g id="Node000005" class="node">
<title>Node5</title>
<g id="a_Node000005"><a xlink:title=" ">
<polygon fill="#e0e0e0" stroke="#999999" points="115.12,-19.25 19.62,-19.25 19.62,0 115.12,0 115.12,-19.25"/>
<text text-anchor="middle" x="67.38" y="-5.75" font-family="Helvetica,sans-Serif" font-size="10.00">InputParameters.h</text>
</a>
</g>
</g>
<!-- Node4&#45;&gt;Node5 -->
<g id="edge4_Node000004_Node000005" class="edge">
<title>Node4&#45;&gt;Node5</title>
<g id="a_edge4_Node000004_Node000005"><a xlink:title=" ">
<path fill="none" stroke="#63b8ff" d="M118.03,-54.84C109.3,-47.22 96.59,-36.12 86.08,-26.95"/>
<polygon fill="#63b8ff" stroke="#63b8ff" points="88.55,-24.46 78.71,-20.52 83.94,-29.73 88.55,-24.46"/>
</a>
</g>
</g>
<!-- Node6 -->
<g id="Node000006" class="node">
<title>Node6</title>
<g id="a_Node000006"><a xlink:title=" ">
<polygon fill="#e0e0e0" stroke="#999999" points="243.62,-19.25 133.12,-19.25 133.12,0 243.62,0 243.62,-19.25"/>
<text text-anchor="middle" x="188.38" y="-5.75" font-family="Helvetica,sans-Serif" font-size="10.00">MooseVariableBase.h</text>
</a>
</g>
</g>
<!-- Node4&#45;&gt;Node6 -->
<g id="edge5_Node000004_Node000006" class="edge">
<title>Node4&#45;&gt;Node6</title>
<g id="a_edge5_Node000004_Node000006"><a xlink:title=" ">
<path fill="none" stroke="#63b8ff" d="M138.55,-54.84C147.14,-47.22 159.64,-36.12 169.98,-26.95"/>
<polygon fill="#63b8ff" stroke="#63b8ff" points="172.06,-29.79 177.22,-20.53 167.41,-24.55 172.06,-29.79"/>
</a>
</g>
</g>
</g>
</svg>
