<?xml version="1.0" encoding="UTF-8" standalone="no"?>
<!DOCTYPE svg PUBLIC "-//W3C//DTD SVG 1.1//EN"
 "http://www.w3.org/Graphics/SVG/1.1/DTD/svg11.dtd">
<!-- Generated by graphviz version 7.0.4 (20221203.1631)
 -->
<!-- Title: src/kernels/DelayedNeutronEigenSource.C Pages: 1 -->
<svg width="277pt" height="203pt"
 viewBox="0.00 0.00 276.50 203.00" xmlns="http://www.w3.org/2000/svg" xmlns:xlink="http://www.w3.org/1999/xlink">
<g id="graph0" class="graph" transform="scale(1 1) rotate(0) translate(4 199)">
<title>src/kernels/DelayedNeutronEigenSource.C</title>
<!-- Node1 -->
<g id="node1" class="node">
<title>Node1</title>
<g id="a_node1"><a xlink:title=" ">
<polygon fill="#999999" stroke="#666666" points="163.5,-195 26.5,-195 26.5,-165 163.5,-165 163.5,-195"/>
<text text-anchor="start" x="34.5" y="-183" font-family="Helvetica,sans-Serif" font-size="10.00">src/kernels/DelayedNeutron</text>
<text text-anchor="middle" x="95" y="-172" font-family="Helvetica,sans-Serif" font-size="10.00">EigenSource.C</text>
</a>
</g>
</g>
<!-- Node2 -->
<g id="node2" class="node">
<title>Node2</title>
<g id="a_node2"><a xlink:href="_delayed_neutron_eigen_source_8h.html" target="_top" xlink:title=" ">
<polygon fill="white" stroke="#666666" points="169,-129 21,-129 21,-110 169,-110 169,-129"/>
<text text-anchor="middle" x="95" y="-117" font-family="Helvetica,sans-Serif" font-size="10.00">DelayedNeutronEigenSource.h</text>
</a>
</g>
</g>
<!-- Node1&#45;&gt;Node2 -->
<g id="edge1" class="edge">
<title>Node1&#45;&gt;Node2</title>
<path fill="none" stroke="#63b8ff" d="M95,-164.54C95,-157.34 95,-148.53 95,-140.68"/>
<polygon fill="#63b8ff" stroke="#63b8ff" points="98.5,-140.69 95,-130.69 91.5,-140.69 98.5,-140.69"/>
</g>
<!-- Node3 -->
<g id="node3" class="node">
<title>Node3</title>
<g id="a_node3"><a xlink:title=" ">
<polygon fill="#e0e0e0" stroke="#999999" points="76,-74 0,-74 0,-55 76,-55 76,-74"/>
<text text-anchor="middle" x="38" y="-62" font-family="Helvetica,sans-Serif" font-size="10.00">EigenKernel.h</text>
</a>
</g>
</g>
<!-- Node2&#45;&gt;Node3 -->
<g id="edge2" class="edge">
<title>Node2&#45;&gt;Node3</title>
<path fill="none" stroke="#63b8ff" d="M85.33,-109.51C77.26,-102 65.53,-91.1 55.78,-82.03"/>
<polygon fill="#63b8ff" stroke="#63b8ff" points="58.34,-79.63 48.63,-75.39 53.57,-84.76 58.34,-79.63"/>
</g>
<!-- Node4 -->
<g id="node4" class="node">
<title>Node4</title>
<g id="a_node4"><a xlink:href="_scalar_transport_base_8h.html" target="_top" xlink:title=" ">
<polygon fill="white" stroke="#666666" points="210,-74 94,-74 94,-55 210,-55 210,-74"/>
<text text-anchor="middle" x="152" y="-62" font-family="Helvetica,sans-Serif" font-size="10.00">ScalarTransportBase.h</text>
</a>
</g>
</g>
<!-- Node2&#45;&gt;Node4 -->
<g id="edge3" class="edge">
<title>Node2&#45;&gt;Node4</title>
<path fill="none" stroke="#63b8ff" d="M104.67,-109.51C112.74,-102 124.47,-91.1 134.22,-82.03"/>
<polygon fill="#63b8ff" stroke="#63b8ff" points="136.43,-84.76 141.37,-75.39 131.66,-79.63 136.43,-84.76"/>
</g>
<!-- Node5 -->
<g id="node5" class="node">
<title>Node5</title>
<g id="a_node5"><a xlink:title=" ">
<polygon fill="#e0e0e0" stroke="#999999" points="139,-19 43,-19 43,0 139,0 139,-19"/>
<text text-anchor="middle" x="91" y="-7" font-family="Helvetica,sans-Serif" font-size="10.00">InputParameters.h</text>
</a>
</g>
</g>
<!-- Node4&#45;&gt;Node5 -->
<g id="edge4" class="edge">
<title>Node4&#45;&gt;Node5</title>
<path fill="none" stroke="#63b8ff" d="M141.65,-54.51C132.92,-46.93 120.21,-35.88 109.7,-26.75"/>
<polygon fill="#63b8ff" stroke="#63b8ff" points="112.18,-24.27 102.34,-20.35 107.59,-29.55 112.18,-24.27"/>
</g>
<!-- Node6 -->
<g id="node6" class="node">
<title>Node6</title>
<g id="a_node6"><a xlink:title=" ">
<polygon fill="#e0e0e0" stroke="#999999" points="268.5,-19 157.5,-19 157.5,0 268.5,0 268.5,-19"/>
<text text-anchor="middle" x="213" y="-7" font-family="Helvetica,sans-Serif" font-size="10.00">MooseVariableBase.h</text>
</a>
</g>
</g>
<!-- Node4&#45;&gt;Node6 -->
<g id="edge5" class="edge">
<title>Node4&#45;&gt;Node6</title>
<path fill="none" stroke="#63b8ff" d="M162.35,-54.51C171.08,-46.93 183.79,-35.88 194.3,-26.75"/>
<polygon fill="#63b8ff" stroke="#63b8ff" points="196.41,-29.55 201.66,-20.35 191.82,-24.27 196.41,-29.55"/>
</g>
</g>
</svg>
