<?xml version="1.0" encoding="UTF-8" standalone="no"?>
<!DOCTYPE svg PUBLIC "-//W3C//DTD SVG 1.1//EN"
 "http://www.w3.org/Graphics/SVG/1.1/DTD/svg11.dtd">
<!-- Generated by graphviz version 12.2.0 (20241103.1931)
 -->
<!-- Title: include/kernels/DelayedNeutronSource.h Pages: 1 -->
<svg width="251pt" height="149pt"
 viewBox="0.00 0.00 250.88 149.00" xmlns="http://www.w3.org/2000/svg" xmlns:xlink="http://www.w3.org/1999/xlink">

<svg id="main" version="1.1" xmlns="http://www.w3.org/2000/svg" xmlns:xlink="http://www.w3.org/1999/xlink" xml:space="preserve">

<style type="text/css"><![CDATA[
.node, .edge {opacity: 0.7;}
.node.selected, .edge.selected {opacity: 1;}
.edge:hover path { stroke: red; }
.edge:hover polygon { stroke: red; fill: red; }
]]></style>
<script type="application/ecmascript" xlink:href="svg.min.js"/>
<svg id="graph" class="graph">
<g id="graph0" class="graph" transform="scale(1 1) rotate(0) translate(4 145)">
<title>include/kernels/DelayedNeutronSource.h</title>
<!-- Node1 -->
<g id="Node000001" class="node">
<title>Node1</title>
<g id="a_Node000001"><a xlink:title=" ">
<polygon fill="#999999" stroke="#666666" points="153.25,-141 0,-141 0,-110.5 153.25,-110.5 153.25,-141"/>
<text text-anchor="start" x="8" y="-127.5" font-family="Helvetica,sans-Serif" font-size="10.00">include/kernels/DelayedNeutron</text>
<text text-anchor="middle" x="76.62" y="-116.25" font-family="Helvetica,sans-Serif" font-size="10.00">Source.h</text>
</a>
</g>
</g>
<!-- Node2 -->
<g id="Node000002" class="node">
<title>Node2</title>
<g id="a_Node000002"><a xlink:title=" ">
<polygon fill="#e0e0e0" stroke="#999999" points="52.25,-74.5 1,-74.5 1,-55.25 52.25,-55.25 52.25,-74.5"/>
<text text-anchor="middle" x="26.62" y="-61" font-family="Helvetica,sans-Serif" font-size="10.00">Kernel.h</text>
</a>
</g>
</g>
<!-- Node1&#45;&gt;Node2 -->
<g id="edge1_Node000001_Node000002" class="edge">
<title>Node1&#45;&gt;Node2</title>
<g id="a_edge1_Node000001_Node000002"><a xlink:title=" ">
<path fill="none" stroke="#63b8ff" d="M64.27,-110.2C57.46,-102.18 48.95,-92.17 41.75,-83.69"/>
<polygon fill="#63b8ff" stroke="#63b8ff" points="44.45,-81.46 35.31,-76.1 39.12,-85.99 44.45,-81.46"/>
</a>
</g>
</g>
<!-- Node3 -->
<g id="Node000003" class="node">
<title>Node3</title>
<g id="a_Node000003"><a xlink:href="_scalar_transport_base_8h.html" target="_top" xlink:title=" ">
<polygon fill="white" stroke="#666666" points="185.12,-74.5 70.12,-74.5 70.12,-55.25 185.12,-55.25 185.12,-74.5"/>
<text text-anchor="middle" x="127.62" y="-61" font-family="Helvetica,sans-Serif" font-size="10.00">ScalarTransportBase.h</text>
</a>
</g>
</g>
<!-- Node1&#45;&gt;Node3 -->
<g id="edge2_Node000001_Node000003" class="edge">
<title>Node1&#45;&gt;Node3</title>
<g id="a_edge2_Node000001_Node000003"><a xlink:title=" ">
<path fill="none" stroke="#63b8ff" d="M89.23,-110.2C96.25,-102.09 105.04,-91.95 112.43,-83.41"/>
<polygon fill="#63b8ff" stroke="#63b8ff" points="114.87,-85.95 118.77,-76.1 109.58,-81.36 114.87,-85.95"/>
</a>
</g>
</g>
<!-- Node4 -->
<g id="Node000004" class="node">
<title>Node4</title>
<g id="a_Node000004"><a xlink:title=" ">
<polygon fill="#e0e0e0" stroke="#999999" points="114.38,-19.25 18.88,-19.25 18.88,0 114.38,0 114.38,-19.25"/>
<text text-anchor="middle" x="66.62" y="-5.75" font-family="Helvetica,sans-Serif" font-size="10.00">InputParameters.h</text>
</a>
</g>
</g>
<!-- Node3&#45;&gt;Node4 -->
<g id="edge3_Node000003_Node000004" class="edge">
<title>Node3&#45;&gt;Node4</title>
<g id="a_edge3_Node000003_Node000004"><a xlink:title=" ">
<path fill="none" stroke="#63b8ff" d="M117.28,-54.84C108.55,-47.22 95.84,-36.12 85.33,-26.95"/>
<polygon fill="#63b8ff" stroke="#63b8ff" points="87.8,-24.46 77.96,-20.52 83.19,-29.73 87.8,-24.46"/>
</a>
</g>
</g>
<!-- Node5 -->
<g id="Node000005" class="node">
<title>Node5</title>
<g id="a_Node000005"><a xlink:title=" ">
<polygon fill="#e0e0e0" stroke="#999999" points="242.88,-19.25 132.38,-19.25 132.38,0 242.88,0 242.88,-19.25"/>
<text text-anchor="middle" x="187.62" y="-5.75" font-family="Helvetica,sans-Serif" font-size="10.00">MooseVariableBase.h</text>
</a>
</g>
</g>
<!-- Node3&#45;&gt;Node5 -->
<g id="edge4_Node000003_Node000005" class="edge">
<title>Node3&#45;&gt;Node5</title>
<g id="a_edge4_Node000003_Node000005"><a xlink:title=" ">
<path fill="none" stroke="#63b8ff" d="M137.8,-54.84C146.39,-47.22 158.89,-36.12 169.23,-26.95"/>
<polygon fill="#63b8ff" stroke="#63b8ff" points="171.31,-29.79 176.47,-20.53 166.66,-24.55 171.31,-29.79"/>
</a>
</g>
</g>
</g>
</svg>
</svg>

<style type='text/css'>
<![CDATA[
[data-mouse-over-selected='false'] { opacity: 0.7; }
[data-mouse-over-selected='true']  { opacity: 1.0; }
]]>
</style>
<script type="application/ecmascript"><![CDATA[
document.addEventListener('DOMContentLoaded', (event) => {
  highlightEdges();
  highlightAdjacentNodes();
});
]]></script>
</svg>
