<?xml version="1.0" encoding="UTF-8" standalone="no"?>
<!DOCTYPE svg PUBLIC "-//W3C//DTD SVG 1.1//EN"
 "http://www.w3.org/Graphics/SVG/1.1/DTD/svg11.dtd">
<!-- Generated by graphviz version 7.0.5 (20221223.1930)
 -->
<!-- Title: src/bcs/DiffusionNoBCBC.C Pages: 1 -->
<svg width="146pt" height="137pt"
 viewBox="0.00 0.00 146.00 137.00" xmlns="http://www.w3.org/2000/svg" xmlns:xlink="http://www.w3.org/1999/xlink">
<g id="graph0" class="graph" transform="scale(1 1) rotate(0) translate(4 133)">
<title>src/bcs/DiffusionNoBCBC.C</title>
<!-- Node1 -->
<g id="node1" class="node">
<title>Node1</title>
<g id="a_node1"><a xlink:title=" ">
<polygon fill="#999999" stroke="#666666" points="138,-129 0,-129 0,-110 138,-110 138,-129"/>
<text text-anchor="middle" x="69" y="-117" font-family="Helvetica,sans-Serif" font-size="10.00">src/bcs/DiffusionNoBCBC.C</text>
</a>
</g>
</g>
<!-- Node2 -->
<g id="node2" class="node">
<title>Node2</title>
<g id="a_node2"><a xlink:href="_diffusion_no_b_c_b_c_8h.html" target="_top" xlink:title=" ">
<polygon fill="white" stroke="#666666" points="119.5,-74 18.5,-74 18.5,-55 119.5,-55 119.5,-74"/>
<text text-anchor="middle" x="69" y="-62" font-family="Helvetica,sans-Serif" font-size="10.00">DiffusionNoBCBC.h</text>
</a>
</g>
</g>
<!-- Node1&#45;&gt;Node2 -->
<g id="edge1" class="edge">
<title>Node1&#45;&gt;Node2</title>
<path fill="none" stroke="#63b8ff" d="M69,-109.75C69,-103.27 69,-94.16 69,-85.9"/>
<polygon fill="#63b8ff" stroke="#63b8ff" points="72.5,-85.96 69,-75.96 65.5,-85.96 72.5,-85.96"/>
</g>
<!-- Node3 -->
<g id="node3" class="node">
<title>Node3</title>
<g id="a_node3"><a xlink:title=" ">
<polygon fill="#e0e0e0" stroke="#999999" points="109.5,-19 28.5,-19 28.5,0 109.5,0 109.5,-19"/>
<text text-anchor="middle" x="69" y="-7" font-family="Helvetica,sans-Serif" font-size="10.00">IntegratedBC.h</text>
</a>
</g>
</g>
<!-- Node2&#45;&gt;Node3 -->
<g id="edge2" class="edge">
<title>Node2&#45;&gt;Node3</title>
<path fill="none" stroke="#63b8ff" d="M69,-54.75C69,-48.27 69,-39.16 69,-30.9"/>
<polygon fill="#63b8ff" stroke="#63b8ff" points="72.5,-30.96 69,-20.96 65.5,-30.96 72.5,-30.96"/>
</g>
</g>
</svg>
