<?xml version="1.0" encoding="UTF-8" standalone="no"?>
<!DOCTYPE svg PUBLIC "-//W3C//DTD SVG 1.1//EN"
 "http://www.w3.org/Graphics/SVG/1.1/DTD/svg11.dtd">
<!-- Generated by graphviz version 12.2.0 (20241103.1931)
 -->
<!-- Title: src/kernels/DivFreeCoupledScalarAdvection.C Pages: 1 -->
<svg width="378pt" height="204pt"
 viewBox="0.00 0.00 377.88 204.25" xmlns="http://www.w3.org/2000/svg" xmlns:xlink="http://www.w3.org/1999/xlink">

<svg id="main" version="1.1" xmlns="http://www.w3.org/2000/svg" xmlns:xlink="http://www.w3.org/1999/xlink" xml:space="preserve">

<style type="text/css"><![CDATA[
.node, .edge {opacity: 0.7;}
.node.selected, .edge.selected {opacity: 1;}
.edge:hover path { stroke: red; }
.edge:hover polygon { stroke: red; fill: red; }
]]></style>
<script type="application/ecmascript" xlink:href="svg.min.js"/>
<svg id="graph" class="graph">
<g id="graph0" class="graph" transform="scale(1 1) rotate(0) translate(4 200.25)">
<title>src/kernels/DivFreeCoupledScalarAdvection.C</title>
<!-- Node1 -->
<g id="Node000001" class="node">
<title>Node1</title>
<g id="a_Node000001"><a xlink:title=" ">
<polygon fill="#999999" stroke="#666666" points="287.88,-196.25 151.88,-196.25 151.88,-165.75 287.88,-165.75 287.88,-196.25"/>
<text text-anchor="start" x="159.88" y="-182.75" font-family="Helvetica,sans-Serif" font-size="10.00">src/kernels/DivFreeCoupled</text>
<text text-anchor="middle" x="219.88" y="-171.5" font-family="Helvetica,sans-Serif" font-size="10.00">ScalarAdvection.C</text>
</a>
</g>
</g>
<!-- Node2 -->
<g id="Node000002" class="node">
<title>Node2</title>
<g id="a_Node000002"><a xlink:href="_div_free_coupled_scalar_advection_8h.html" target="_top" xlink:title=" ">
<polygon fill="white" stroke="#666666" points="163.75,-129.75 0,-129.75 0,-110.5 163.75,-110.5 163.75,-129.75"/>
<text text-anchor="middle" x="81.88" y="-116.25" font-family="Helvetica,sans-Serif" font-size="10.00">DivFreeCoupledScalarAdvection.h</text>
</a>
</g>
</g>
<!-- Node1&#45;&gt;Node2 -->
<g id="edge1_Node000001_Node000002" class="edge">
<title>Node1&#45;&gt;Node2</title>
<g id="a_edge1_Node000001_Node000002"><a xlink:title=" ">
<path fill="none" stroke="#63b8ff" d="M185.41,-165.3C163.38,-155.9 135.03,-143.8 113.56,-134.64"/>
<polygon fill="#63b8ff" stroke="#63b8ff" points="115,-131.45 104.43,-130.75 112.26,-137.89 115,-131.45"/>
</a>
</g>
</g>
<!-- Node7 -->
<g id="Node000007" class="node">
<title>Node7</title>
<g id="a_Node000007"><a xlink:title=" ">
<polygon fill="#e0e0e0" stroke="#999999" points="258.25,-129.75 181.5,-129.75 181.5,-110.5 258.25,-110.5 258.25,-129.75"/>
<text text-anchor="middle" x="219.88" y="-116.25" font-family="Helvetica,sans-Serif" font-size="10.00">MooseMesh.h</text>
</a>
</g>
</g>
<!-- Node1&#45;&gt;Node7 -->
<g id="edge6_Node000001_Node000007" class="edge">
<title>Node1&#45;&gt;Node7</title>
<g id="a_edge6_Node000001_Node000007"><a xlink:title=" ">
<path fill="none" stroke="#63b8ff" d="M219.88,-165.45C219.88,-158.21 219.88,-149.34 219.88,-141.44"/>
<polygon fill="#63b8ff" stroke="#63b8ff" points="223.38,-141.71 219.88,-131.71 216.38,-141.71 223.38,-141.71"/>
</a>
</g>
</g>
<!-- Node8 -->
<g id="Node000008" class="node">
<title>Node8</title>
<g id="a_Node000008"><a xlink:title=" ">
<polygon fill="#e0e0e0" stroke="#999999" points="369.88,-129.75 275.88,-129.75 275.88,-110.5 369.88,-110.5 369.88,-129.75"/>
<text text-anchor="middle" x="322.88" y="-116.25" font-family="Helvetica,sans-Serif" font-size="10.00">FEProblemBase.h</text>
</a>
</g>
</g>
<!-- Node1&#45;&gt;Node8 -->
<g id="edge7_Node000001_Node000008" class="edge">
<title>Node1&#45;&gt;Node8</title>
<g id="a_edge7_Node000001_Node000008"><a xlink:title=" ">
<path fill="none" stroke="#63b8ff" d="M245.6,-165.3C261.44,-156.24 281.66,-144.69 297.44,-135.66"/>
<polygon fill="#63b8ff" stroke="#63b8ff" points="298.82,-138.91 305.77,-130.91 295.35,-132.83 298.82,-138.91"/>
</a>
</g>
</g>
<!-- Node3 -->
<g id="Node000003" class="node">
<title>Node3</title>
<g id="a_Node000003"><a xlink:title=" ">
<polygon fill="#e0e0e0" stroke="#999999" points="57.5,-74.5 6.25,-74.5 6.25,-55.25 57.5,-55.25 57.5,-74.5"/>
<text text-anchor="middle" x="31.88" y="-61" font-family="Helvetica,sans-Serif" font-size="10.00">Kernel.h</text>
</a>
</g>
</g>
<!-- Node2&#45;&gt;Node3 -->
<g id="edge2_Node000002_Node000003" class="edge">
<title>Node2&#45;&gt;Node3</title>
<g id="a_edge2_Node000002_Node000003"><a xlink:title=" ">
<path fill="none" stroke="#63b8ff" d="M73.62,-110.33C66.71,-102.98 56.65,-92.26 48.14,-83.19"/>
<polygon fill="#63b8ff" stroke="#63b8ff" points="50.74,-80.86 41.35,-75.96 45.64,-85.65 50.74,-80.86"/>
</a>
</g>
</g>
<!-- Node4 -->
<g id="Node000004" class="node">
<title>Node4</title>
<g id="a_Node000004"><a xlink:href="_scalar_transport_base_8h.html" target="_top" xlink:title=" ">
<polygon fill="white" stroke="#666666" points="190.38,-74.5 75.38,-74.5 75.38,-55.25 190.38,-55.25 190.38,-74.5"/>
<text text-anchor="middle" x="132.88" y="-61" font-family="Helvetica,sans-Serif" font-size="10.00">ScalarTransportBase.h</text>
</a>
</g>
</g>
<!-- Node2&#45;&gt;Node4 -->
<g id="edge3_Node000002_Node000004" class="edge">
<title>Node2&#45;&gt;Node4</title>
<g id="a_edge3_Node000002_Node000004"><a xlink:title=" ">
<path fill="none" stroke="#63b8ff" d="M90.3,-110.33C97.41,-102.9 107.82,-92.04 116.56,-82.91"/>
<polygon fill="#63b8ff" stroke="#63b8ff" points="118.83,-85.6 123.22,-75.95 113.78,-80.75 118.83,-85.6"/>
</a>
</g>
</g>
<!-- Node5 -->
<g id="Node000005" class="node">
<title>Node5</title>
<g id="a_Node000005"><a xlink:title=" ">
<polygon fill="#e0e0e0" stroke="#999999" points="119.62,-19.25 24.12,-19.25 24.12,0 119.62,0 119.62,-19.25"/>
<text text-anchor="middle" x="71.88" y="-5.75" font-family="Helvetica,sans-Serif" font-size="10.00">InputParameters.h</text>
</a>
</g>
</g>
<!-- Node4&#45;&gt;Node5 -->
<g id="edge4_Node000004_Node000005" class="edge">
<title>Node4&#45;&gt;Node5</title>
<g id="a_edge4_Node000004_Node000005"><a xlink:title=" ">
<path fill="none" stroke="#63b8ff" d="M122.53,-54.84C113.8,-47.22 101.09,-36.12 90.58,-26.95"/>
<polygon fill="#63b8ff" stroke="#63b8ff" points="93.05,-24.46 83.21,-20.52 88.44,-29.73 93.05,-24.46"/>
</a>
</g>
</g>
<!-- Node6 -->
<g id="Node000006" class="node">
<title>Node6</title>
<g id="a_Node000006"><a xlink:title=" ">
<polygon fill="#e0e0e0" stroke="#999999" points="248.12,-19.25 137.62,-19.25 137.62,0 248.12,0 248.12,-19.25"/>
<text text-anchor="middle" x="192.88" y="-5.75" font-family="Helvetica,sans-Serif" font-size="10.00">MooseVariableBase.h</text>
</a>
</g>
</g>
<!-- Node4&#45;&gt;Node6 -->
<g id="edge5_Node000004_Node000006" class="edge">
<title>Node4&#45;&gt;Node6</title>
<g id="a_edge5_Node000004_Node000006"><a xlink:title=" ">
<path fill="none" stroke="#63b8ff" d="M143.05,-54.84C151.64,-47.22 164.14,-36.12 174.48,-26.95"/>
<polygon fill="#63b8ff" stroke="#63b8ff" points="176.56,-29.79 181.72,-20.53 171.91,-24.55 176.56,-29.79"/>
</a>
</g>
</g>
</g>
</svg>
</svg>

<style type='text/css'>
<![CDATA[
[data-mouse-over-selected='false'] { opacity: 0.7; }
[data-mouse-over-selected='true']  { opacity: 1.0; }
]]>
</style>
<script type="application/ecmascript"><![CDATA[
document.addEventListener('DOMContentLoaded', (event) => {
  highlightEdges();
  highlightAdjacentNodes();
});
]]></script>
</svg>
