<?xml version="1.0" encoding="UTF-8" standalone="no"?>
<!DOCTYPE svg PUBLIC "-//W3C//DTD SVG 1.1//EN"
 "http://www.w3.org/Graphics/SVG/1.1/DTD/svg11.dtd">
<!-- Generated by graphviz version 12.2.0 (20241103.1931)
 -->
<!-- Title: src/postprocessors/ElmIntegTotFissHeatPostprocessor.C Pages: 1 -->
<svg width="353pt" height="260pt"
 viewBox="0.00 0.00 353.25 259.50" xmlns="http://www.w3.org/2000/svg" xmlns:xlink="http://www.w3.org/1999/xlink">
<g id="graph0" class="graph" transform="scale(1 1) rotate(0) translate(4 255.5)">
<title>src/postprocessors/ElmIntegTotFissHeatPostprocessor.C</title>
<!-- Node1 -->
<g id="Node000001" class="node">
<title>Node1</title>
<g id="a_Node000001"><a xlink:title=" ">
<polygon fill="#999999" stroke="#666666" points="244.62,-251.5 61.38,-251.5 61.38,-221 244.62,-221 244.62,-251.5"/>
<text text-anchor="start" x="69.38" y="-238" font-family="Helvetica,sans-Serif" font-size="10.00">src/postprocessors</text>
<text text-anchor="middle" x="153" y="-226.75" font-family="Helvetica,sans-Serif" font-size="10.00">/ElmIntegTotFissHeatPostprocessor.C</text>
</a>
</g>
</g>
<!-- Node2 -->
<g id="Node000002" class="node">
<title>Node2</title>
<g id="a_Node000002"><a xlink:href="_elm_integ_tot_fiss_heat_postprocessor_8h.html" target="_top" xlink:title=" ">
<polygon fill="white" stroke="#666666" points="242.38,-185 63.62,-185 63.62,-165.75 242.38,-165.75 242.38,-185"/>
<text text-anchor="middle" x="153" y="-171.5" font-family="Helvetica,sans-Serif" font-size="10.00">ElmIntegTotFissHeatPostprocessor.h</text>
</a>
</g>
</g>
<!-- Node1&#45;&gt;Node2 -->
<g id="edge1_Node000001_Node000002" class="edge">
<title>Node1&#45;&gt;Node2</title>
<g id="a_edge1_Node000001_Node000002"><a xlink:title=" ">
<path fill="none" stroke="#63b8ff" d="M153,-220.7C153,-213.46 153,-204.59 153,-196.69"/>
<polygon fill="#63b8ff" stroke="#63b8ff" points="156.5,-196.96 153,-186.96 149.5,-196.96 156.5,-196.96"/>
</a>
</g>
</g>
<!-- Node3 -->
<g id="Node000003" class="node">
<title>Node3</title>
<g id="a_Node000003"><a xlink:href="_elm_integ_tot_fiss_postprocessor_8h.html" target="_top" xlink:title=" ">
<polygon fill="white" stroke="#666666" points="231.88,-129.75 74.12,-129.75 74.12,-110.5 231.88,-110.5 231.88,-129.75"/>
<text text-anchor="middle" x="153" y="-116.25" font-family="Helvetica,sans-Serif" font-size="10.00">ElmIntegTotFissPostprocessor.h</text>
</a>
</g>
</g>
<!-- Node2&#45;&gt;Node3 -->
<g id="edge2_Node000002_Node000003" class="edge">
<title>Node2&#45;&gt;Node3</title>
<g id="a_edge2_Node000002_Node000003"><a xlink:title=" ">
<path fill="none" stroke="#63b8ff" d="M153,-165.58C153,-159.07 153,-149.92 153,-141.62"/>
<polygon fill="#63b8ff" stroke="#63b8ff" points="156.5,-141.62 153,-131.62 149.5,-141.62 156.5,-141.62"/>
</a>
</g>
</g>
<!-- Node4 -->
<g id="Node000004" class="node">
<title>Node4</title>
<g id="a_Node000004"><a xlink:title=" ">
<polygon fill="#e0e0e0" stroke="#999999" points="154,-74.5 0,-74.5 0,-55.25 154,-55.25 154,-74.5"/>
<text text-anchor="middle" x="77" y="-61" font-family="Helvetica,sans-Serif" font-size="10.00">ElementIntegralPostprocessor.h</text>
</a>
</g>
</g>
<!-- Node3&#45;&gt;Node4 -->
<g id="edge3_Node000003_Node000004" class="edge">
<title>Node3&#45;&gt;Node4</title>
<g id="a_edge3_Node000003_Node000004"><a xlink:title=" ">
<path fill="none" stroke="#63b8ff" d="M140.11,-110.09C128.97,-102.29 112.63,-90.84 99.36,-81.54"/>
<polygon fill="#63b8ff" stroke="#63b8ff" points="101.39,-78.69 91.2,-75.82 97.38,-84.43 101.39,-78.69"/>
</a>
</g>
</g>
<!-- Node5 -->
<g id="Node000005" class="node">
<title>Node5</title>
<g id="a_Node000005"><a xlink:href="_scalar_transport_base_8h.html" target="_top" xlink:title=" ">
<polygon fill="white" stroke="#666666" points="287.5,-74.5 172.5,-74.5 172.5,-55.25 287.5,-55.25 287.5,-74.5"/>
<text text-anchor="middle" x="230" y="-61" font-family="Helvetica,sans-Serif" font-size="10.00">ScalarTransportBase.h</text>
</a>
</g>
</g>
<!-- Node3&#45;&gt;Node5 -->
<g id="edge4_Node000003_Node000005" class="edge">
<title>Node3&#45;&gt;Node5</title>
<g id="a_edge4_Node000003_Node000005"><a xlink:title=" ">
<path fill="none" stroke="#63b8ff" d="M166.06,-110.09C177.46,-102.21 194.23,-90.61 207.74,-81.27"/>
<polygon fill="#63b8ff" stroke="#63b8ff" points="209.4,-84.38 215.63,-75.81 205.41,-78.62 209.4,-84.38"/>
</a>
</g>
</g>
<!-- Node6 -->
<g id="Node000006" class="node">
<title>Node6</title>
<g id="a_Node000006"><a xlink:title=" ">
<polygon fill="#e0e0e0" stroke="#999999" points="216.75,-19.25 121.25,-19.25 121.25,0 216.75,0 216.75,-19.25"/>
<text text-anchor="middle" x="169" y="-5.75" font-family="Helvetica,sans-Serif" font-size="10.00">InputParameters.h</text>
</a>
</g>
</g>
<!-- Node5&#45;&gt;Node6 -->
<g id="edge5_Node000005_Node000006" class="edge">
<title>Node5&#45;&gt;Node6</title>
<g id="a_edge5_Node000005_Node000006"><a xlink:title=" ">
<path fill="none" stroke="#63b8ff" d="M219.65,-54.84C210.92,-47.22 198.21,-36.12 187.7,-26.95"/>
<polygon fill="#63b8ff" stroke="#63b8ff" points="190.17,-24.46 180.34,-20.52 185.57,-29.73 190.17,-24.46"/>
</a>
</g>
</g>
<!-- Node7 -->
<g id="Node000007" class="node">
<title>Node7</title>
<g id="a_Node000007"><a xlink:title=" ">
<polygon fill="#e0e0e0" stroke="#999999" points="345.25,-19.25 234.75,-19.25 234.75,0 345.25,0 345.25,-19.25"/>
<text text-anchor="middle" x="290" y="-5.75" font-family="Helvetica,sans-Serif" font-size="10.00">MooseVariableBase.h</text>
</a>
</g>
</g>
<!-- Node5&#45;&gt;Node7 -->
<g id="edge6_Node000005_Node000007" class="edge">
<title>Node5&#45;&gt;Node7</title>
<g id="a_edge6_Node000005_Node000007"><a xlink:title=" ">
<path fill="none" stroke="#63b8ff" d="M240.18,-54.84C248.76,-47.22 261.27,-36.12 271.6,-26.95"/>
<polygon fill="#63b8ff" stroke="#63b8ff" points="273.68,-29.79 278.84,-20.53 269.04,-24.55 273.68,-29.79"/>
</a>
</g>
</g>
</g>
</svg>
