<?xml version="1.0" encoding="UTF-8" standalone="no"?>
<!DOCTYPE svg PUBLIC "-//W3C//DTD SVG 1.1//EN"
 "http://www.w3.org/Graphics/SVG/1.1/DTD/svg11.dtd">
<!-- Generated by graphviz version 2.49.3 (20211027.1534)
 -->
<!-- Title: include/postprocessors/ElmIntegTotFissPostprocessor.h Pages: 1 -->
<svg width="356pt" height="151pt"
 viewBox="0.00 0.00 356.00 151.00" xmlns="http://www.w3.org/2000/svg" xmlns:xlink="http://www.w3.org/1999/xlink">
<g id="graph0" class="graph" transform="scale(1 1) rotate(0) translate(4 147)">
<title>include/postprocessors/ElmIntegTotFissPostprocessor.h</title>
<polygon fill="white" stroke="transparent" points="-4,4 -4,-147 352,-147 352,4 -4,4"/>
<!-- Node1 -->
<g id="node1" class="node">
<title>Node1</title>
<g id="a_node1"><a xlink:title=" ">
<polygon fill="#bfbfbf" stroke="black" points="74,-112.5 74,-142.5 235,-142.5 235,-112.5 74,-112.5"/>
<text text-anchor="start" x="82" y="-130.5" font-family="Helvetica,sans-Serif" font-size="10.00">include/postprocessors</text>
<text text-anchor="middle" x="154.5" y="-119.5" font-family="Helvetica,sans-Serif" font-size="10.00">/ElmIntegTotFissPostprocessor.h</text>
</a>
</g>
</g>
<!-- Node2 -->
<g id="node2" class="node">
<title>Node2</title>
<g id="a_node2"><a xlink:title=" ">
<polygon fill="white" stroke="#bfbfbf" points="0,-56.5 0,-75.5 155,-75.5 155,-56.5 0,-56.5"/>
<text text-anchor="middle" x="77.5" y="-63.5" font-family="Helvetica,sans-Serif" font-size="10.00">ElementIntegralPostprocessor.h</text>
</a>
</g>
</g>
<!-- Node1&#45;&gt;Node2 -->
<g id="edge1" class="edge">
<title>Node1&#45;&gt;Node2</title>
<path fill="none" stroke="midnightblue" d="M136.25,-112.4C124.37,-103.22 108.89,-91.26 96.81,-81.92"/>
<polygon fill="midnightblue" stroke="midnightblue" points="98.76,-79 88.7,-75.66 94.48,-84.54 98.76,-79"/>
</g>
<!-- Node3 -->
<g id="node3" class="node">
<title>Node3</title>
<g id="a_node3"><a xlink:href="_scalar_transport_base_8h.html" target="_top" xlink:title=" ">
<polygon fill="white" stroke="black" points="173.5,-56.5 173.5,-75.5 289.5,-75.5 289.5,-56.5 173.5,-56.5"/>
<text text-anchor="middle" x="231.5" y="-63.5" font-family="Helvetica,sans-Serif" font-size="10.00">ScalarTransportBase.h</text>
</a>
</g>
</g>
<!-- Node1&#45;&gt;Node3 -->
<g id="edge2" class="edge">
<title>Node1&#45;&gt;Node3</title>
<path fill="none" stroke="midnightblue" d="M172.75,-112.4C184.63,-103.22 200.11,-91.26 212.19,-81.92"/>
<polygon fill="midnightblue" stroke="midnightblue" points="214.52,-84.54 220.3,-75.66 210.24,-79 214.52,-84.54"/>
</g>
<!-- Node4 -->
<g id="node4" class="node">
<title>Node4</title>
<g id="a_node4"><a xlink:title=" ">
<polygon fill="white" stroke="#bfbfbf" points="122.5,-0.5 122.5,-19.5 218.5,-19.5 218.5,-0.5 122.5,-0.5"/>
<text text-anchor="middle" x="170.5" y="-7.5" font-family="Helvetica,sans-Serif" font-size="10.00">InputParameters.h</text>
</a>
</g>
</g>
<!-- Node3&#45;&gt;Node4 -->
<g id="edge3" class="edge">
<title>Node3&#45;&gt;Node4</title>
<path fill="none" stroke="midnightblue" d="M221.7,-56.32C212.68,-48.34 199.09,-36.31 188.18,-26.65"/>
<polygon fill="midnightblue" stroke="midnightblue" points="190.29,-23.84 180.48,-19.83 185.65,-29.08 190.29,-23.84"/>
</g>
<!-- Node5 -->
<g id="node5" class="node">
<title>Node5</title>
<g id="a_node5"><a xlink:title=" ">
<polygon fill="white" stroke="#bfbfbf" points="237,-0.5 237,-19.5 348,-19.5 348,-0.5 237,-0.5"/>
<text text-anchor="middle" x="292.5" y="-7.5" font-family="Helvetica,sans-Serif" font-size="10.00">MooseVariableBase.h</text>
</a>
</g>
</g>
<!-- Node3&#45;&gt;Node5 -->
<g id="edge4" class="edge">
<title>Node3&#45;&gt;Node5</title>
<path fill="none" stroke="midnightblue" d="M241.3,-56.32C250.32,-48.34 263.91,-36.31 274.82,-26.65"/>
<polygon fill="midnightblue" stroke="midnightblue" points="277.35,-29.08 282.52,-19.83 272.71,-23.84 277.35,-29.08"/>
</g>
</g>
</svg>
