<?xml version="1.0" encoding="UTF-8" standalone="no"?>
<!DOCTYPE svg PUBLIC "-//W3C//DTD SVG 1.1//EN"
 "http://www.w3.org/Graphics/SVG/1.1/DTD/svg11.dtd">
<!-- Generated by graphviz version 2.49.3 (20211027.1534)
 -->
<!-- Title: src/postprocessors/ElmIntegTotFissNtsPostprocessor.C Pages: 1 -->
<svg width="308pt" height="151pt"
 viewBox="0.00 0.00 308.00 151.00" xmlns="http://www.w3.org/2000/svg" xmlns:xlink="http://www.w3.org/1999/xlink">
<g id="graph0" class="graph" transform="scale(1 1) rotate(0) translate(4 147)">
<title>src/postprocessors/ElmIntegTotFissNtsPostprocessor.C</title>
<polygon fill="white" stroke="transparent" points="-4,4 -4,-147 304,-147 304,4 -4,4"/>
<!-- Node1 -->
<g id="node1" class="node">
<title>Node1</title>
<g id="a_node1"><a xlink:title=" ">
<polygon fill="#bfbfbf" stroke="black" points="67,-112.5 67,-142.5 246,-142.5 246,-112.5 67,-112.5"/>
<text text-anchor="start" x="75" y="-130.5" font-family="Helvetica,sans-Serif" font-size="10.00">src/postprocessors</text>
<text text-anchor="middle" x="156.5" y="-119.5" font-family="Helvetica,sans-Serif" font-size="10.00">/ElmIntegTotFissNtsPostprocessor.C</text>
</a>
</g>
</g>
<!-- Node2 -->
<g id="node2" class="node">
<title>Node2</title>
<g id="a_node2"><a xlink:href="_elm_integ_tot_fiss_nts_postprocessor_8h.html" target="_top" xlink:title=" ">
<polygon fill="white" stroke="black" points="69.5,-56.5 69.5,-75.5 243.5,-75.5 243.5,-56.5 69.5,-56.5"/>
<text text-anchor="middle" x="156.5" y="-63.5" font-family="Helvetica,sans-Serif" font-size="10.00">ElmIntegTotFissNtsPostprocessor.h</text>
</a>
</g>
</g>
<!-- Node1&#45;&gt;Node2 -->
<g id="edge1" class="edge">
<title>Node1&#45;&gt;Node2</title>
<path fill="none" stroke="midnightblue" d="M156.5,-112.4C156.5,-104.47 156.5,-94.46 156.5,-85.86"/>
<polygon fill="midnightblue" stroke="midnightblue" points="160,-85.66 156.5,-75.66 153,-85.66 160,-85.66"/>
</g>
<!-- Node3 -->
<g id="node3" class="node">
<title>Node3</title>
<g id="a_node3"><a xlink:title=" ">
<polygon fill="white" stroke="#bfbfbf" points="0,-0.5 0,-19.5 155,-19.5 155,-0.5 0,-0.5"/>
<text text-anchor="middle" x="77.5" y="-7.5" font-family="Helvetica,sans-Serif" font-size="10.00">ElementIntegralPostprocessor.h</text>
</a>
</g>
</g>
<!-- Node2&#45;&gt;Node3 -->
<g id="edge2" class="edge">
<title>Node2&#45;&gt;Node3</title>
<path fill="none" stroke="midnightblue" d="M143.81,-56.32C131.6,-47.98 112.92,-35.21 98.5,-25.35"/>
<polygon fill="midnightblue" stroke="midnightblue" points="100.39,-22.41 90.16,-19.65 96.44,-28.19 100.39,-22.41"/>
</g>
<!-- Node4 -->
<g id="node4" class="node">
<title>Node4</title>
<g id="a_node4"><a xlink:title=" ">
<polygon fill="white" stroke="#bfbfbf" points="173,-0.5 173,-19.5 300,-19.5 300,-0.5 173,-0.5"/>
<text text-anchor="middle" x="236.5" y="-7.5" font-family="Helvetica,sans-Serif" font-size="10.00">MooseVariableInterface.h</text>
</a>
</g>
</g>
<!-- Node2&#45;&gt;Node4 -->
<g id="edge3" class="edge">
<title>Node2&#45;&gt;Node4</title>
<path fill="none" stroke="midnightblue" d="M169.35,-56.32C181.72,-47.98 200.63,-35.21 215.24,-25.35"/>
<polygon fill="midnightblue" stroke="midnightblue" points="217.35,-28.15 223.68,-19.65 213.43,-22.35 217.35,-28.15"/>
</g>
</g>
</svg>
