<?xml version="1.0" encoding="UTF-8" standalone="no"?>
<!DOCTYPE svg PUBLIC "-//W3C//DTD SVG 1.1//EN"
 "http://www.w3.org/Graphics/SVG/1.1/DTD/svg11.dtd">
<!-- Generated by graphviz version 7.0.4 (20221203.1631)
 -->
<!-- Title: src/auxkernels/FissionHeatSourceAux.C Pages: 1 -->
<svg width="143pt" height="148pt"
 viewBox="0.00 0.00 143.00 148.00" xmlns="http://www.w3.org/2000/svg" xmlns:xlink="http://www.w3.org/1999/xlink">
<g id="graph0" class="graph" transform="scale(1 1) rotate(0) translate(4 144)">
<title>src/auxkernels/FissionHeatSourceAux.C</title>
<!-- Node1 -->
<g id="node1" class="node">
<title>Node1</title>
<g id="a_node1"><a xlink:title=" ">
<polygon fill="#999999" stroke="#666666" points="135,-140 0,-140 0,-110 135,-110 135,-140"/>
<text text-anchor="start" x="8" y="-128" font-family="Helvetica,sans-Serif" font-size="10.00">src/auxkernels/FissionHeat</text>
<text text-anchor="middle" x="67.5" y="-117" font-family="Helvetica,sans-Serif" font-size="10.00">SourceAux.C</text>
</a>
</g>
</g>
<!-- Node2 -->
<g id="node2" class="node">
<title>Node2</title>
<g id="a_node2"><a xlink:href="_fission_heat_source_aux_8h.html" target="_top" xlink:title=" ">
<polygon fill="white" stroke="#666666" points="129.5,-74 5.5,-74 5.5,-55 129.5,-55 129.5,-74"/>
<text text-anchor="middle" x="67.5" y="-62" font-family="Helvetica,sans-Serif" font-size="10.00">FissionHeatSourceAux.h</text>
</a>
</g>
</g>
<!-- Node1&#45;&gt;Node2 -->
<g id="edge1" class="edge">
<title>Node1&#45;&gt;Node2</title>
<path fill="none" stroke="#63b8ff" d="M67.5,-109.54C67.5,-102.34 67.5,-93.53 67.5,-85.68"/>
<polygon fill="#63b8ff" stroke="#63b8ff" points="71,-85.69 67.5,-75.69 64,-85.69 71,-85.69"/>
</g>
<!-- Node3 -->
<g id="node3" class="node">
<title>Node3</title>
<g id="a_node3"><a xlink:title=" ">
<polygon fill="#e0e0e0" stroke="#999999" points="101.5,-19 33.5,-19 33.5,0 101.5,0 101.5,-19"/>
<text text-anchor="middle" x="67.5" y="-7" font-family="Helvetica,sans-Serif" font-size="10.00">AuxKernel.h</text>
</a>
</g>
</g>
<!-- Node2&#45;&gt;Node3 -->
<g id="edge2" class="edge">
<title>Node2&#45;&gt;Node3</title>
<path fill="none" stroke="#63b8ff" d="M67.5,-54.75C67.5,-48.27 67.5,-39.16 67.5,-30.9"/>
<polygon fill="#63b8ff" stroke="#63b8ff" points="71,-30.96 67.5,-20.96 64,-30.96 71,-30.96"/>
</g>
</g>
</svg>
