<?xml version="1.0" encoding="UTF-8" standalone="no"?>
<!DOCTYPE svg PUBLIC "-//W3C//DTD SVG 1.1//EN"
 "http://www.w3.org/Graphics/SVG/1.1/DTD/svg11.dtd">
<!-- Generated by graphviz version 7.0.5 (20221223.1930)
 -->
<!-- Title: src/auxkernels/FissionHeatSourceTransientAux.C Pages: 1 -->
<svg width="148pt" height="159pt"
 viewBox="0.00 0.00 148.00 159.00" xmlns="http://www.w3.org/2000/svg" xmlns:xlink="http://www.w3.org/1999/xlink">
<g id="graph0" class="graph" transform="scale(1 1) rotate(0) translate(4 155)">
<title>src/auxkernels/FissionHeatSourceTransientAux.C</title>
<!-- Node1 -->
<g id="node1" class="node">
<title>Node1</title>
<g id="a_node1"><a xlink:title=" ">
<polygon fill="#999999" stroke="#666666" points="137.5,-151 2.5,-151 2.5,-121 137.5,-121 137.5,-151"/>
<text text-anchor="start" x="10.5" y="-139" font-family="Helvetica,sans-Serif" font-size="10.00">src/auxkernels/FissionHeat</text>
<text text-anchor="middle" x="70" y="-128" font-family="Helvetica,sans-Serif" font-size="10.00">SourceTransientAux.C</text>
</a>
</g>
</g>
<!-- Node2 -->
<g id="node2" class="node">
<title>Node2</title>
<g id="a_node2"><a xlink:href="_fission_heat_source_transient_aux_8h.html" target="_top" xlink:title=" ">
<polygon fill="white" stroke="#666666" points="140,-85 0,-85 0,-55 140,-55 140,-85"/>
<text text-anchor="start" x="8" y="-73" font-family="Helvetica,sans-Serif" font-size="10.00">FissionHeatSourceTransient</text>
<text text-anchor="middle" x="70" y="-62" font-family="Helvetica,sans-Serif" font-size="10.00">Aux.h</text>
</a>
</g>
</g>
<!-- Node1&#45;&gt;Node2 -->
<g id="edge1" class="edge">
<title>Node1&#45;&gt;Node2</title>
<path fill="none" stroke="#63b8ff" d="M70,-120.8C70,-113.67 70,-104.82 70,-96.56"/>
<polygon fill="#63b8ff" stroke="#63b8ff" points="73.5,-96.68 70,-86.68 66.5,-96.68 73.5,-96.68"/>
</g>
<!-- Node3 -->
<g id="node3" class="node">
<title>Node3</title>
<g id="a_node3"><a xlink:title=" ">
<polygon fill="#e0e0e0" stroke="#999999" points="104,-19 36,-19 36,0 104,0 104,-19"/>
<text text-anchor="middle" x="70" y="-7" font-family="Helvetica,sans-Serif" font-size="10.00">AuxKernel.h</text>
</a>
</g>
</g>
<!-- Node2&#45;&gt;Node3 -->
<g id="edge2" class="edge">
<title>Node2&#45;&gt;Node3</title>
<path fill="none" stroke="#63b8ff" d="M70,-54.54C70,-47.34 70,-38.53 70,-30.68"/>
<polygon fill="#63b8ff" stroke="#63b8ff" points="73.5,-30.69 70,-20.69 66.5,-30.69 73.5,-30.69"/>
</g>
</g>
</svg>
