<?xml version="1.0" encoding="UTF-8" standalone="no"?>
<!DOCTYPE svg PUBLIC "-//W3C//DTD SVG 1.1//EN"
 "http://www.w3.org/Graphics/SVG/1.1/DTD/svg11.dtd">
<!-- Generated by graphviz version 7.0.5 (20221223.1930)
 -->
<!-- Title: src/kernels/FissionHeatSource.C Pages: 1 -->
<svg width="168pt" height="137pt"
 viewBox="0.00 0.00 168.00 137.00" xmlns="http://www.w3.org/2000/svg" xmlns:xlink="http://www.w3.org/1999/xlink">
<g id="graph0" class="graph" transform="scale(1 1) rotate(0) translate(4 133)">
<title>src/kernels/FissionHeatSource.C</title>
<!-- Node1 -->
<g id="node1" class="node">
<title>Node1</title>
<g id="a_node1"><a xlink:title=" ">
<polygon fill="#999999" stroke="#666666" points="160,-129 0,-129 0,-110 160,-110 160,-129"/>
<text text-anchor="middle" x="80" y="-117" font-family="Helvetica,sans-Serif" font-size="10.00">src/kernels/FissionHeatSource.C</text>
</a>
</g>
</g>
<!-- Node2 -->
<g id="node2" class="node">
<title>Node2</title>
<g id="a_node2"><a xlink:href="_fission_heat_source_8h.html" target="_top" xlink:title=" ">
<polygon fill="white" stroke="#666666" points="133.5,-74 26.5,-74 26.5,-55 133.5,-55 133.5,-74"/>
<text text-anchor="middle" x="80" y="-62" font-family="Helvetica,sans-Serif" font-size="10.00">FissionHeatSource.h</text>
</a>
</g>
</g>
<!-- Node1&#45;&gt;Node2 -->
<g id="edge1" class="edge">
<title>Node1&#45;&gt;Node2</title>
<path fill="none" stroke="#63b8ff" d="M80,-109.75C80,-103.27 80,-94.16 80,-85.9"/>
<polygon fill="#63b8ff" stroke="#63b8ff" points="83.5,-85.96 80,-75.96 76.5,-85.96 83.5,-85.96"/>
</g>
<!-- Node3 -->
<g id="node3" class="node">
<title>Node3</title>
<g id="a_node3"><a xlink:title=" ">
<polygon fill="#e0e0e0" stroke="#999999" points="106,-19 54,-19 54,0 106,0 106,-19"/>
<text text-anchor="middle" x="80" y="-7" font-family="Helvetica,sans-Serif" font-size="10.00">Kernel.h</text>
</a>
</g>
</g>
<!-- Node2&#45;&gt;Node3 -->
<g id="edge2" class="edge">
<title>Node2&#45;&gt;Node3</title>
<path fill="none" stroke="#63b8ff" d="M80,-54.75C80,-48.27 80,-39.16 80,-30.9"/>
<polygon fill="#63b8ff" stroke="#63b8ff" points="83.5,-30.96 80,-20.96 76.5,-30.96 83.5,-30.96"/>
</g>
</g>
</svg>
