<?xml version="1.0" encoding="UTF-8" standalone="no"?>
<!DOCTYPE svg PUBLIC "-//W3C//DTD SVG 1.1//EN"
 "http://www.w3.org/Graphics/SVG/1.1/DTD/svg11.dtd">
<!-- Generated by graphviz version 3.0.0 (20220413.0242)
 -->
<!-- Title: include/auxkernels/FissionHeatSourceAux.h Pages: 1 -->
<svg width="143pt" height="106pt"
 viewBox="0.00 0.00 143.00 106.00" xmlns="http://www.w3.org/2000/svg" xmlns:xlink="http://www.w3.org/1999/xlink">
<g id="graph0" class="graph" transform="scale(1 1) rotate(0) translate(4 102)">
<title>include/auxkernels/FissionHeatSourceAux.h</title>
<polygon fill="white" stroke="transparent" points="-4,4 -4,-102 139,-102 139,4 -4,4"/>
<!-- Node1 -->
<g id="node1" class="node">
<title>Node1</title>
<g id="a_node1"><a xlink:title=" ">
<polygon fill="#bfbfbf" stroke="black" points="4,-67.5 4,-97.5 131,-97.5 131,-67.5 4,-67.5"/>
<text text-anchor="start" x="12" y="-85.5" font-family="Helvetica,sans-Serif" font-size="10.00">include/auxkernels</text>
<text text-anchor="middle" x="67.5" y="-74.5" font-family="Helvetica,sans-Serif" font-size="10.00">/FissionHeatSourceAux.h</text>
</a>
</g>
</g>
<!-- Node2 -->
<g id="node2" class="node">
<title>Node2</title>
<g id="a_node2"><a xlink:href="_fission_heat_source_aux_8_c.html" target="_top" xlink:title=" ">
<polygon fill="white" stroke="black" points="0,-0.5 0,-30.5 135,-30.5 135,-0.5 0,-0.5"/>
<text text-anchor="start" x="8" y="-18.5" font-family="Helvetica,sans-Serif" font-size="10.00">src/auxkernels/FissionHeat</text>
<text text-anchor="middle" x="67.5" y="-7.5" font-family="Helvetica,sans-Serif" font-size="10.00">SourceAux.C</text>
</a>
</g>
</g>
<!-- Node1&#45;&gt;Node2 -->
<g id="edge1" class="edge">
<title>Node1&#45;&gt;Node2</title>
<path fill="none" stroke="midnightblue" d="M67.5,-57.11C67.5,-48.15 67.5,-38.32 67.5,-30.58"/>
<polygon fill="midnightblue" stroke="midnightblue" points="64,-57.4 67.5,-67.4 71,-57.4 64,-57.4"/>
</g>
</g>
</svg>
