<?xml version="1.0" encoding="UTF-8" standalone="no"?>
<!DOCTYPE svg PUBLIC "-//W3C//DTD SVG 1.1//EN"
 "http://www.w3.org/Graphics/SVG/1.1/DTD/svg11.dtd">
<!-- Generated by graphviz version 2.49.3 (20211027.1534)
 -->
<!-- Title: src/auxkernels/FissionHeatSourceAux.C Pages: 1 -->
<svg width="143pt" height="151pt"
 viewBox="0.00 0.00 143.00 151.00" xmlns="http://www.w3.org/2000/svg" xmlns:xlink="http://www.w3.org/1999/xlink">
<g id="graph0" class="graph" transform="scale(1 1) rotate(0) translate(4 147)">
<title>src/auxkernels/FissionHeatSourceAux.C</title>
<polygon fill="white" stroke="transparent" points="-4,4 -4,-147 139,-147 139,4 -4,4"/>
<!-- Node1 -->
<g id="node1" class="node">
<title>Node1</title>
<g id="a_node1"><a xlink:title=" ">
<polygon fill="#bfbfbf" stroke="black" points="0,-112.5 0,-142.5 135,-142.5 135,-112.5 0,-112.5"/>
<text text-anchor="start" x="8" y="-130.5" font-family="Helvetica,sans-Serif" font-size="10.00">src/auxkernels/FissionHeat</text>
<text text-anchor="middle" x="67.5" y="-119.5" font-family="Helvetica,sans-Serif" font-size="10.00">SourceAux.C</text>
</a>
</g>
</g>
<!-- Node2 -->
<g id="node2" class="node">
<title>Node2</title>
<g id="a_node2"><a xlink:href="_fission_heat_source_aux_8h.html" target="_top" xlink:title=" ">
<polygon fill="white" stroke="black" points="5.5,-56.5 5.5,-75.5 129.5,-75.5 129.5,-56.5 5.5,-56.5"/>
<text text-anchor="middle" x="67.5" y="-63.5" font-family="Helvetica,sans-Serif" font-size="10.00">FissionHeatSourceAux.h</text>
</a>
</g>
</g>
<!-- Node1&#45;&gt;Node2 -->
<g id="edge1" class="edge">
<title>Node1&#45;&gt;Node2</title>
<path fill="none" stroke="midnightblue" d="M67.5,-112.4C67.5,-104.47 67.5,-94.46 67.5,-85.86"/>
<polygon fill="midnightblue" stroke="midnightblue" points="71,-85.66 67.5,-75.66 64,-85.66 71,-85.66"/>
</g>
<!-- Node3 -->
<g id="node3" class="node">
<title>Node3</title>
<g id="a_node3"><a xlink:title=" ">
<polygon fill="white" stroke="#bfbfbf" points="33.5,-0.5 33.5,-19.5 101.5,-19.5 101.5,-0.5 33.5,-0.5"/>
<text text-anchor="middle" x="67.5" y="-7.5" font-family="Helvetica,sans-Serif" font-size="10.00">AuxKernel.h</text>
</a>
</g>
</g>
<!-- Node2&#45;&gt;Node3 -->
<g id="edge2" class="edge">
<title>Node2&#45;&gt;Node3</title>
<path fill="none" stroke="midnightblue" d="M67.5,-56.08C67.5,-49.01 67.5,-38.86 67.5,-29.99"/>
<polygon fill="midnightblue" stroke="midnightblue" points="71,-29.75 67.5,-19.75 64,-29.75 71,-29.75"/>
</g>
</g>
</svg>
