<?xml version="1.0" encoding="UTF-8" standalone="no"?>
<!DOCTYPE svg PUBLIC "-//W3C//DTD SVG 1.1//EN"
 "http://www.w3.org/Graphics/SVG/1.1/DTD/svg11.dtd">
<!-- Generated by graphviz version 9.0.0 (20230911.1827)
 -->
<!-- Title: src/kernels/GammaHeatSource.C Pages: 1 -->
<svg width="196pt" height="138pt"
 viewBox="0.00 0.00 196.38 137.75" xmlns="http://www.w3.org/2000/svg" xmlns:xlink="http://www.w3.org/1999/xlink">
<g id="graph0" class="graph" transform="scale(1 1) rotate(0) translate(4 133.75)">
<title>src/kernels/GammaHeatSource.C</title>
<!-- Node1 -->
<g id="Node000001" class="node">
<title>Node1</title>
<g id="a_Node000001"><a xlink:title=" ">
<polygon fill="#999999" stroke="#666666" points="187,-129.75 24.75,-129.75 24.75,-110.5 187,-110.5 187,-129.75"/>
<text text-anchor="middle" x="105.88" y="-116.25" font-family="Helvetica,sans-Serif" font-size="10.00">src/kernels/GammaHeatSource.C</text>
</a>
</g>
</g>
<!-- Node2 -->
<g id="Node000002" class="node">
<title>Node2</title>
<g id="a_Node000002"><a xlink:href="_gamma_heat_source_8h.html" target="_top" xlink:title=" ">
<polygon fill="white" stroke="#666666" points="109.75,-74.5 0,-74.5 0,-55.25 109.75,-55.25 109.75,-74.5"/>
<text text-anchor="middle" x="54.88" y="-61" font-family="Helvetica,sans-Serif" font-size="10.00">GammaHeatSource.h</text>
</a>
</g>
</g>
<!-- Node1&#45;&gt;Node2 -->
<g id="edge1_Node000001_Node000002" class="edge">
<title>Node1&#45;&gt;Node2</title>
<g id="a_edge1_Node000001_Node000002"><a xlink:title=" ">
<path fill="none" stroke="#63b8ff" d="M97.45,-110.33C90.34,-102.9 79.93,-92.04 71.19,-82.91"/>
<polygon fill="#63b8ff" stroke="#63b8ff" points="73.97,-80.75 64.53,-75.95 68.92,-85.6 73.97,-80.75"/>
</a>
</g>
</g>
<!-- Node4 -->
<g id="Node000004" class="node">
<title>Node4</title>
<g id="a_Node000004"><a xlink:title=" ">
<polygon fill="#e0e0e0" stroke="#999999" points="188.38,-74.5 127.38,-74.5 127.38,-55.25 188.38,-55.25 188.38,-74.5"/>
<text text-anchor="middle" x="157.88" y="-61" font-family="Helvetica,sans-Serif" font-size="10.00">Function.h</text>
</a>
</g>
</g>
<!-- Node1&#45;&gt;Node4 -->
<g id="edge3_Node000001_Node000004" class="edge">
<title>Node1&#45;&gt;Node4</title>
<g id="a_edge3_Node000001_Node000004"><a xlink:title=" ">
<path fill="none" stroke="#63b8ff" d="M114.46,-110.33C121.72,-102.9 132.33,-92.04 141.24,-82.91"/>
<polygon fill="#63b8ff" stroke="#63b8ff" points="143.56,-85.54 148.04,-75.94 138.55,-80.65 143.56,-85.54"/>
</a>
</g>
</g>
<!-- Node3 -->
<g id="Node000003" class="node">
<title>Node3</title>
<g id="a_Node000003"><a xlink:title=" ">
<polygon fill="#e0e0e0" stroke="#999999" points="80.5,-19.25 29.25,-19.25 29.25,0 80.5,0 80.5,-19.25"/>
<text text-anchor="middle" x="54.88" y="-5.75" font-family="Helvetica,sans-Serif" font-size="10.00">Kernel.h</text>
</a>
</g>
</g>
<!-- Node2&#45;&gt;Node3 -->
<g id="edge2_Node000002_Node000003" class="edge">
<title>Node2&#45;&gt;Node3</title>
<g id="a_edge2_Node000002_Node000003"><a xlink:title=" ">
<path fill="none" stroke="#63b8ff" d="M54.88,-55.08C54.88,-48.57 54.88,-39.42 54.88,-31.12"/>
<polygon fill="#63b8ff" stroke="#63b8ff" points="58.38,-31.12 54.88,-21.12 51.38,-31.12 58.38,-31.12"/>
</a>
</g>
</g>
</g>
</svg>
