<?xml version="1.0" encoding="UTF-8" standalone="no"?>
<!DOCTYPE svg PUBLIC "-//W3C//DTD SVG 1.1//EN"
 "http://www.w3.org/Graphics/SVG/1.1/DTD/svg11.dtd">
<!-- Generated by graphviz version 7.0.5 (20221223.1930)
 -->
<!-- Title: src/kernels/GammaHeatSource.C Pages: 1 -->
<svg width="198pt" height="137pt"
 viewBox="0.00 0.00 198.00 137.00" xmlns="http://www.w3.org/2000/svg" xmlns:xlink="http://www.w3.org/1999/xlink">
<g id="graph0" class="graph" transform="scale(1 1) rotate(0) translate(4 133)">
<title>src/kernels/GammaHeatSource.C</title>
<!-- Node1 -->
<g id="node1" class="node">
<title>Node1</title>
<g id="a_node1"><a xlink:title=" ">
<polygon fill="#999999" stroke="#666666" points="188.5,-129 25.5,-129 25.5,-110 188.5,-110 188.5,-129"/>
<text text-anchor="middle" x="107" y="-117" font-family="Helvetica,sans-Serif" font-size="10.00">src/kernels/GammaHeatSource.C</text>
</a>
</g>
</g>
<!-- Node2 -->
<g id="node2" class="node">
<title>Node2</title>
<g id="a_node2"><a xlink:href="_gamma_heat_source_8h.html" target="_top" xlink:title=" ">
<polygon fill="white" stroke="#666666" points="110,-74 0,-74 0,-55 110,-55 110,-74"/>
<text text-anchor="middle" x="55" y="-62" font-family="Helvetica,sans-Serif" font-size="10.00">GammaHeatSource.h</text>
</a>
</g>
</g>
<!-- Node1&#45;&gt;Node2 -->
<g id="edge1" class="edge">
<title>Node1&#45;&gt;Node2</title>
<path fill="none" stroke="#63b8ff" d="M98.41,-109.75C91.16,-102.35 80.55,-91.54 71.63,-82.45"/>
<polygon fill="#63b8ff" stroke="#63b8ff" points="74.34,-80.21 64.83,-75.52 69.34,-85.11 74.34,-80.21"/>
</g>
<!-- Node4 -->
<g id="node4" class="node">
<title>Node4</title>
<g id="a_node4"><a xlink:title=" ">
<polygon fill="#e0e0e0" stroke="#999999" points="190,-74 128,-74 128,-55 190,-55 190,-74"/>
<text text-anchor="middle" x="159" y="-62" font-family="Helvetica,sans-Serif" font-size="10.00">Function.h</text>
</a>
</g>
</g>
<!-- Node1&#45;&gt;Node4 -->
<g id="edge3" class="edge">
<title>Node1&#45;&gt;Node4</title>
<path fill="none" stroke="#63b8ff" d="M115.59,-109.75C122.84,-102.35 133.45,-91.54 142.37,-82.45"/>
<polygon fill="#63b8ff" stroke="#63b8ff" points="144.66,-85.11 149.17,-75.52 139.66,-80.21 144.66,-85.11"/>
</g>
<!-- Node3 -->
<g id="node3" class="node">
<title>Node3</title>
<g id="a_node3"><a xlink:title=" ">
<polygon fill="#e0e0e0" stroke="#999999" points="81,-19 29,-19 29,0 81,0 81,-19"/>
<text text-anchor="middle" x="55" y="-7" font-family="Helvetica,sans-Serif" font-size="10.00">Kernel.h</text>
</a>
</g>
</g>
<!-- Node2&#45;&gt;Node3 -->
<g id="edge2" class="edge">
<title>Node2&#45;&gt;Node3</title>
<path fill="none" stroke="#63b8ff" d="M55,-54.75C55,-48.27 55,-39.16 55,-30.9"/>
<polygon fill="#63b8ff" stroke="#63b8ff" points="58.5,-30.96 55,-20.96 51.5,-30.96 58.5,-30.96"/>
</g>
</g>
</svg>
