<?xml version="1.0" encoding="UTF-8" standalone="no"?>
<!DOCTYPE svg PUBLIC "-//W3C//DTD SVG 1.1//EN"
 "http://www.w3.org/Graphics/SVG/1.1/DTD/svg11.dtd">
<!-- Generated by graphviz version 3.0.0 (20220413.0242)
 -->
<!-- Title: src/kernels/GammaHeatSource.C Pages: 1 -->
<svg width="198pt" height="140pt"
 viewBox="0.00 0.00 198.00 140.00" xmlns="http://www.w3.org/2000/svg" xmlns:xlink="http://www.w3.org/1999/xlink">
<g id="graph0" class="graph" transform="scale(1 1) rotate(0) translate(4 136)">
<title>src/kernels/GammaHeatSource.C</title>
<polygon fill="white" stroke="transparent" points="-4,4 -4,-136 194,-136 194,4 -4,4"/>
<!-- Node1 -->
<g id="node1" class="node">
<title>Node1</title>
<g id="a_node1"><a xlink:title=" ">
<polygon fill="#bfbfbf" stroke="black" points="25.5,-112.5 25.5,-131.5 188.5,-131.5 188.5,-112.5 25.5,-112.5"/>
<text text-anchor="middle" x="107" y="-119.5" font-family="Helvetica,sans-Serif" font-size="10.00">src/kernels/GammaHeatSource.C</text>
</a>
</g>
</g>
<!-- Node2 -->
<g id="node2" class="node">
<title>Node2</title>
<g id="a_node2"><a xlink:href="_gamma_heat_source_8h.html" target="_top" xlink:title=" ">
<polygon fill="white" stroke="black" points="0,-56.5 0,-75.5 110,-75.5 110,-56.5 0,-56.5"/>
<text text-anchor="middle" x="55" y="-63.5" font-family="Helvetica,sans-Serif" font-size="10.00">GammaHeatSource.h</text>
</a>
</g>
</g>
<!-- Node1&#45;&gt;Node2 -->
<g id="edge1" class="edge">
<title>Node1&#45;&gt;Node2</title>
<path fill="none" stroke="midnightblue" d="M98.41,-112.08C90.84,-104.22 79.62,-92.57 70.49,-83.08"/>
<polygon fill="midnightblue" stroke="midnightblue" points="72.88,-80.53 63.43,-75.75 67.84,-85.38 72.88,-80.53"/>
</g>
<!-- Node4 -->
<g id="node4" class="node">
<title>Node4</title>
<g id="a_node4"><a xlink:title=" ">
<polygon fill="white" stroke="#bfbfbf" points="128,-56.5 128,-75.5 190,-75.5 190,-56.5 128,-56.5"/>
<text text-anchor="middle" x="159" y="-63.5" font-family="Helvetica,sans-Serif" font-size="10.00">Function.h</text>
</a>
</g>
</g>
<!-- Node1&#45;&gt;Node4 -->
<g id="edge3" class="edge">
<title>Node1&#45;&gt;Node4</title>
<path fill="none" stroke="midnightblue" d="M115.59,-112.08C123.16,-104.22 134.38,-92.57 143.51,-83.08"/>
<polygon fill="midnightblue" stroke="midnightblue" points="146.16,-85.38 150.57,-75.75 141.12,-80.53 146.16,-85.38"/>
</g>
<!-- Node3 -->
<g id="node3" class="node">
<title>Node3</title>
<g id="a_node3"><a xlink:title=" ">
<polygon fill="white" stroke="#bfbfbf" points="29,-0.5 29,-19.5 81,-19.5 81,-0.5 29,-0.5"/>
<text text-anchor="middle" x="55" y="-7.5" font-family="Helvetica,sans-Serif" font-size="10.00">Kernel.h</text>
</a>
</g>
</g>
<!-- Node2&#45;&gt;Node3 -->
<g id="edge2" class="edge">
<title>Node2&#45;&gt;Node3</title>
<path fill="none" stroke="midnightblue" d="M55,-56.08C55,-49.01 55,-38.86 55,-29.99"/>
<polygon fill="midnightblue" stroke="midnightblue" points="58.5,-29.75 55,-19.75 51.5,-29.75 58.5,-29.75"/>
</g>
</g>
</svg>
