<?xml version="1.0" encoding="UTF-8" standalone="no"?>
<!DOCTYPE svg PUBLIC "-//W3C//DTD SVG 1.1//EN"
 "http://www.w3.org/Graphics/SVG/1.1/DTD/svg11.dtd">
<!-- Generated by graphviz version 12.2.0 (20241103.1931)
 -->
<!-- Title: src/materials/GenericMoltresMaterial.C Pages: 1 -->
<svg width="758pt" height="204pt"
 viewBox="0.00 0.00 757.75 204.25" xmlns="http://www.w3.org/2000/svg" xmlns:xlink="http://www.w3.org/1999/xlink">
<g id="graph0" class="graph" transform="scale(1 1) rotate(0) translate(4 200.25)">
<title>src/materials/GenericMoltresMaterial.C</title>
<!-- Node1 -->
<g id="Node000001" class="node">
<title>Node1</title>
<g id="a_Node000001"><a xlink:title=" ">
<polygon fill="#999999" stroke="#666666" points="504.5,-196.25 363.25,-196.25 363.25,-165.75 504.5,-165.75 504.5,-196.25"/>
<text text-anchor="start" x="371.25" y="-182.75" font-family="Helvetica,sans-Serif" font-size="10.00">src/materials/GenericMoltres</text>
<text text-anchor="middle" x="433.88" y="-171.5" font-family="Helvetica,sans-Serif" font-size="10.00">Material.C</text>
</a>
</g>
</g>
<!-- Node2 -->
<g id="Node000002" class="node">
<title>Node2</title>
<g id="a_Node000002"><a xlink:href="_generic_moltres_material_8h.html" target="_top" xlink:title=" ">
<polygon fill="white" stroke="#666666" points="437.88,-129.75 313.88,-129.75 313.88,-110.5 437.88,-110.5 437.88,-129.75"/>
<text text-anchor="middle" x="375.88" y="-116.25" font-family="Helvetica,sans-Serif" font-size="10.00">GenericMoltresMaterial.h</text>
</a>
</g>
</g>
<!-- Node1&#45;&gt;Node2 -->
<g id="edge1_Node000001_Node000002" class="edge">
<title>Node1&#45;&gt;Node2</title>
<g id="a_edge1_Node000001_Node000002"><a xlink:title=" ">
<path fill="none" stroke="#63b8ff" d="M419.54,-165.45C411.47,-157.26 401.35,-146.98 392.88,-138.39"/>
<polygon fill="#63b8ff" stroke="#63b8ff" points="395.39,-135.95 385.88,-131.28 390.4,-140.86 395.39,-135.95"/>
</a>
</g>
</g>
<!-- Node10 -->
<g id="Node000010" class="node">
<title>Node10</title>
<g id="a_Node000010"><a xlink:title=" ">
<polygon fill="#e0e0e0" stroke="#999999" points="529.38,-129.75 456.38,-129.75 456.38,-110.5 529.38,-110.5 529.38,-129.75"/>
<text text-anchor="middle" x="492.88" y="-116.25" font-family="Helvetica,sans-Serif" font-size="10.00">MooseUtils.h</text>
</a>
</g>
</g>
<!-- Node1&#45;&gt;Node10 -->
<g id="edge13_Node000001_Node000010" class="edge">
<title>Node1&#45;&gt;Node10</title>
<g id="a_edge13_Node000001_Node000010"><a xlink:title=" ">
<path fill="none" stroke="#63b8ff" d="M448.46,-165.45C456.75,-157.17 467.18,-146.77 475.84,-138.12"/>
<polygon fill="#63b8ff" stroke="#63b8ff" points="478.1,-140.81 482.71,-131.27 473.16,-135.86 478.1,-140.81"/>
</a>
</g>
</g>
<!-- Node3 -->
<g id="Node000003" class="node">
<title>Node3</title>
<g id="a_Node000003"><a xlink:href="_nuclear_material_8h.html" target="_top" xlink:title=" ">
<polygon fill="white" stroke="#666666" points="421.75,-74.5 330,-74.5 330,-55.25 421.75,-55.25 421.75,-74.5"/>
<text text-anchor="middle" x="375.88" y="-61" font-family="Helvetica,sans-Serif" font-size="10.00">NuclearMaterial.h</text>
</a>
</g>
</g>
<!-- Node2&#45;&gt;Node3 -->
<g id="edge2_Node000002_Node000003" class="edge">
<title>Node2&#45;&gt;Node3</title>
<g id="a_edge2_Node000002_Node000003"><a xlink:title=" ">
<path fill="none" stroke="#63b8ff" d="M375.88,-110.33C375.88,-103.82 375.88,-94.67 375.88,-86.37"/>
<polygon fill="#63b8ff" stroke="#63b8ff" points="379.38,-86.37 375.88,-76.37 372.38,-86.37 379.38,-86.37"/>
</a>
</g>
</g>
<!-- Node5 -->
<g id="Node000005" class="node">
<title>Node5</title>
<g id="a_Node000005"><a xlink:title=" ">
<polygon fill="#e0e0e0" stroke="#999999" points="103.75,-19.25 0,-19.25 0,0 103.75,0 103.75,-19.25"/>
<text text-anchor="middle" x="51.88" y="-5.75" font-family="Helvetica,sans-Serif" font-size="10.00">SplineInterpolation.h</text>
</a>
</g>
</g>
<!-- Node2&#45;&gt;Node5 -->
<g id="edge9_Node000002_Node000005" class="edge">
<title>Node2&#45;&gt;Node5</title>
<g id="a_edge9_Node000002_Node000005"><a xlink:title=" ">
<path fill="none" stroke="#63b8ff" d="M348.81,-110.06C291.16,-90.75 156.11,-45.53 89.87,-23.35"/>
<polygon fill="#63b8ff" stroke="#63b8ff" points="91.12,-20.08 80.53,-20.22 88.9,-26.71 91.12,-20.08"/>
</a>
</g>
</g>
<!-- Node6 -->
<g id="Node000006" class="node">
<title>Node6</title>
<g id="a_Node000006"><a xlink:title=" ">
<polygon fill="#e0e0e0" stroke="#999999" points="257.88,-19.25 121.88,-19.25 121.88,0 257.88,0 257.88,-19.25"/>
<text text-anchor="middle" x="189.88" y="-5.75" font-family="Helvetica,sans-Serif" font-size="10.00">BicubicSplineInterpolation.h</text>
</a>
</g>
</g>
<!-- Node2&#45;&gt;Node6 -->
<g id="edge10_Node000002_Node000006" class="edge">
<title>Node2&#45;&gt;Node6</title>
<g id="a_edge10_Node000002_Node000006"><a xlink:title=" ">
<path fill="none" stroke="#63b8ff" d="M360.34,-110.06C328.27,-91.35 254.47,-48.31 215.33,-25.48"/>
<polygon fill="#63b8ff" stroke="#63b8ff" points="217.21,-22.52 206.81,-20.5 213.68,-28.56 217.21,-22.52"/>
</a>
</g>
</g>
<!-- Node7 -->
<g id="Node000007" class="node">
<title>Node7</title>
<g id="a_Node000007"><a xlink:title=" ">
<polygon fill="#e0e0e0" stroke="#999999" points="628,-19.25 483.75,-19.25 483.75,0 628,0 628,-19.25"/>
<text text-anchor="middle" x="555.88" y="-5.75" font-family="Helvetica,sans-Serif" font-size="10.00">MonotoneCubicInterpolation.h</text>
</a>
</g>
</g>
<!-- Node2&#45;&gt;Node7 -->
<g id="edge11_Node000002_Node000007" class="edge">
<title>Node2&#45;&gt;Node7</title>
<g id="a_edge11_Node000002_Node000007"><a xlink:title=" ">
<path fill="none" stroke="#63b8ff" d="M390.91,-110.06C421.88,-91.39 493.05,-48.49 531,-25.62"/>
<polygon fill="#63b8ff" stroke="#63b8ff" points="532.7,-28.68 539.46,-20.52 529.09,-22.69 532.7,-28.68"/>
</a>
</g>
</g>
<!-- Node8 -->
<g id="Node000008" class="node">
<title>Node8</title>
<g id="a_Node000008"><a xlink:title=" ">
<polygon fill="#e0e0e0" stroke="#999999" points="749.75,-19.25 646,-19.25 646,0 749.75,0 749.75,-19.25"/>
<text text-anchor="middle" x="697.88" y="-5.75" font-family="Helvetica,sans-Serif" font-size="10.00">LinearInterpolation.h</text>
</a>
</g>
</g>
<!-- Node2&#45;&gt;Node8 -->
<g id="edge12_Node000002_Node000008" class="edge">
<title>Node2&#45;&gt;Node8</title>
<g id="a_edge12_Node000002_Node000008"><a xlink:title=" ">
<path fill="none" stroke="#63b8ff" d="M402.77,-110.06C460.07,-90.75 594.29,-45.53 660.12,-23.35"/>
<polygon fill="#63b8ff" stroke="#63b8ff" points="661.03,-26.73 669.39,-20.22 658.8,-20.1 661.03,-26.73"/>
</a>
</g>
</g>
<!-- Node4 -->
<g id="Node000004" class="node">
<title>Node4</title>
<g id="a_Node000004"><a xlink:title=" ">
<polygon fill="#e0e0e0" stroke="#999999" points="406.25,-19.25 275.5,-19.25 275.5,0 406.25,0 406.25,-19.25"/>
<text text-anchor="middle" x="340.88" y="-5.75" font-family="Helvetica,sans-Serif" font-size="10.00">GenericConstantMaterial.h</text>
</a>
</g>
</g>
<!-- Node3&#45;&gt;Node4 -->
<g id="edge3_Node000003_Node000004" class="edge">
<title>Node3&#45;&gt;Node4</title>
<g id="a_edge3_Node000003_Node000004"><a xlink:title=" ">
<path fill="none" stroke="#63b8ff" d="M370.1,-55.08C365.46,-48.03 358.8,-37.9 353.01,-29.08"/>
<polygon fill="#63b8ff" stroke="#63b8ff" points="356.03,-27.31 347.61,-20.87 350.18,-31.15 356.03,-27.31"/>
</a>
</g>
</g>
<!-- Node3&#45;&gt;Node5 -->
<g id="edge4_Node000003_Node000005" class="edge">
<title>Node3&#45;&gt;Node5</title>
<g id="a_edge4_Node000003_Node000005"><a xlink:title=" ">
<path fill="none" stroke="#63b8ff" d="M329.8,-56.3C273.6,-47.07 178.31,-31.4 115.23,-21.04"/>
<polygon fill="#63b8ff" stroke="#63b8ff" points="116.16,-17.64 105.73,-19.48 115.03,-24.55 116.16,-17.64"/>
</a>
</g>
</g>
<!-- Node3&#45;&gt;Node6 -->
<g id="edge5_Node000003_Node000006" class="edge">
<title>Node3&#45;&gt;Node6</title>
<g id="a_edge5_Node000003_Node000006"><a xlink:title=" ">
<path fill="none" stroke="#63b8ff" d="M344.32,-54.84C313.59,-46.04 266.66,-32.61 232.6,-22.86"/>
<polygon fill="#63b8ff" stroke="#63b8ff" points="233.61,-19.51 223.04,-20.12 231.69,-26.24 233.61,-19.51"/>
</a>
</g>
</g>
<!-- Node3&#45;&gt;Node7 -->
<g id="edge6_Node000003_Node000007" class="edge">
<title>Node3&#45;&gt;Node7</title>
<g id="a_edge6_Node000003_Node000007"><a xlink:title=" ">
<path fill="none" stroke="#63b8ff" d="M406.41,-54.84C436.15,-46.04 481.56,-32.61 514.53,-22.86"/>
<polygon fill="#63b8ff" stroke="#63b8ff" points="515.14,-26.32 523.74,-20.13 513.16,-19.61 515.14,-26.32"/>
</a>
</g>
</g>
<!-- Node3&#45;&gt;Node8 -->
<g id="edge7_Node000003_Node000008" class="edge">
<title>Node3&#45;&gt;Node8</title>
<g id="a_edge7_Node000003_Node000008"><a xlink:title=" ">
<path fill="none" stroke="#63b8ff" d="M422.01,-56.25C477.75,-47.03 571.83,-31.47 634.39,-21.12"/>
<polygon fill="#63b8ff" stroke="#63b8ff" points="634.9,-24.59 644.19,-19.5 633.76,-17.68 634.9,-24.59"/>
</a>
</g>
</g>
<!-- Node9 -->
<g id="Node000009" class="node">
<title>Node9</title>
<g id="a_Node000009"><a xlink:title=" ">
<polygon fill="#e0e0e0" stroke="#999999" points="465.62,-19.25 424.12,-19.25 424.12,0 465.62,0 465.62,-19.25"/>
<text text-anchor="middle" x="444.88" y="-5.75" font-family="Helvetica,sans-Serif" font-size="10.00">json.h</text>
</a>
</g>
</g>
<!-- Node3&#45;&gt;Node9 -->
<g id="edge8_Node000003_Node000009" class="edge">
<title>Node3&#45;&gt;Node9</title>
<g id="a_edge8_Node000003_Node000009"><a xlink:title=" ">
<path fill="none" stroke="#63b8ff" d="M387.58,-54.84C397.65,-47.07 412.42,-35.67 424.44,-26.4"/>
<polygon fill="#63b8ff" stroke="#63b8ff" points="426.37,-29.33 432.14,-20.45 422.09,-23.79 426.37,-29.33"/>
</a>
</g>
</g>
</g>
</svg>
