<?xml version="1.0" encoding="UTF-8" standalone="no"?>
<!DOCTYPE svg PUBLIC "-//W3C//DTD SVG 1.1//EN"
 "http://www.w3.org/Graphics/SVG/1.1/DTD/svg11.dtd">
<!-- Generated by graphviz version 9.0.0 (20230911.1827)
 -->
<!-- Title: include/materials/GenericMoltresMaterial.h Pages: 1 -->
<svg width="652pt" height="160pt"
 viewBox="0.00 0.00 652.38 160.25" xmlns="http://www.w3.org/2000/svg" xmlns:xlink="http://www.w3.org/1999/xlink">
<g id="graph0" class="graph" transform="scale(1 1) rotate(0) translate(4 156.25)">
<title>include/materials/GenericMoltresMaterial.h</title>
<!-- Node1 -->
<g id="Node000001" class="node">
<title>Node1</title>
<g id="a_Node000001"><a xlink:title=" ">
<polygon fill="#999999" stroke="#666666" points="401.88,-152.25 275.62,-152.25 275.62,-121.75 401.88,-121.75 401.88,-152.25"/>
<text text-anchor="start" x="283.62" y="-138.75" font-family="Helvetica,sans-Serif" font-size="10.00">include/materials/Generic</text>
<text text-anchor="middle" x="338.75" y="-127.5" font-family="Helvetica,sans-Serif" font-size="10.00">MoltresMaterial.h</text>
</a>
</g>
</g>
<!-- Node2 -->
<g id="Node000002" class="node">
<title>Node2</title>
<g id="a_Node000002"><a xlink:href="_cammi_fuel_8h.html" target="_top" xlink:title=" ">
<polygon fill="white" stroke="#666666" points="149.5,-80.12 0,-80.12 0,-60.88 149.5,-60.88 149.5,-80.12"/>
<text text-anchor="middle" x="74.75" y="-66.62" font-family="Helvetica,sans-Serif" font-size="10.00">include/materials/CammiFuel.h</text>
</a>
</g>
</g>
<!-- Node1&#45;&gt;Node2 -->
<g id="edge1_Node000001_Node000002" class="edge">
<title>Node1&#45;&gt;Node2</title>
<g id="a_edge1_Node000001_Node000002"><a xlink:title=" ">
<path fill="none" stroke="#63b8ff" d="M267.41,-118.57C217.24,-106.31 152.14,-90.41 111.92,-80.58"/>
<polygon fill="#63b8ff" stroke="#63b8ff" points="266.5,-121.95 277.04,-120.92 268.16,-115.15 266.5,-121.95"/>
</a>
</g>
</g>
<!-- Node4 -->
<g id="Node000004" class="node">
<title>Node4</title>
<g id="a_Node000004"><a xlink:href="_cammi_moderator_8h.html" target="_top" xlink:title=" ">
<polygon fill="white" stroke="#666666" points="341.88,-80.12 167.62,-80.12 167.62,-60.88 341.88,-60.88 341.88,-80.12"/>
<text text-anchor="middle" x="254.75" y="-66.62" font-family="Helvetica,sans-Serif" font-size="10.00">include/materials/CammiModerator.h</text>
</a>
</g>
</g>
<!-- Node1&#45;&gt;Node4 -->
<g id="edge3_Node000001_Node000004" class="edge">
<title>Node1&#45;&gt;Node4</title>
<g id="a_edge3_Node000001_Node000004"><a xlink:title=" ">
<path fill="none" stroke="#63b8ff" d="M310.68,-114.45C295.52,-102.81 277.63,-89.07 266.24,-80.32"/>
<polygon fill="#63b8ff" stroke="#63b8ff" points="308.43,-117.13 318.49,-120.44 312.69,-111.58 308.43,-117.13"/>
</a>
</g>
</g>
<!-- Node6 -->
<g id="Node000006" class="node">
<title>Node6</title>
<g id="a_Node000006"><a xlink:href="_rodded_material_8h.html" target="_top" xlink:title=" ">
<polygon fill="white" stroke="#666666" points="485.5,-85.75 360,-85.75 360,-55.25 485.5,-55.25 485.5,-85.75"/>
<text text-anchor="start" x="368" y="-72.25" font-family="Helvetica,sans-Serif" font-size="10.00">include/materials/Rodded</text>
<text text-anchor="middle" x="422.75" y="-61" font-family="Helvetica,sans-Serif" font-size="10.00">Material.h</text>
</a>
</g>
</g>
<!-- Node1&#45;&gt;Node6 -->
<g id="edge5_Node000001_Node000006" class="edge">
<title>Node1&#45;&gt;Node6</title>
<g id="a_edge5_Node000001_Node000006"><a xlink:title=" ">
<path fill="none" stroke="#63b8ff" d="M366.69,-114.54C378.87,-105.19 392.82,-94.48 403.76,-86.08"/>
<polygon fill="#63b8ff" stroke="#63b8ff" points="364.81,-111.58 359.01,-120.44 369.07,-117.13 364.81,-111.58"/>
</a>
</g>
</g>
<!-- Node8 -->
<g id="Node000008" class="node">
<title>Node8</title>
<g id="a_Node000008"><a xlink:href="_generic_moltres_material_8_c.html" target="_top" xlink:title=" ">
<polygon fill="white" stroke="#666666" points="644.38,-85.75 503.12,-85.75 503.12,-55.25 644.38,-55.25 644.38,-85.75"/>
<text text-anchor="start" x="511.12" y="-72.25" font-family="Helvetica,sans-Serif" font-size="10.00">src/materials/GenericMoltres</text>
<text text-anchor="middle" x="573.75" y="-61" font-family="Helvetica,sans-Serif" font-size="10.00">Material.C</text>
</a>
</g>
</g>
<!-- Node1&#45;&gt;Node8 -->
<g id="edge7_Node000001_Node000008" class="edge">
<title>Node1&#45;&gt;Node8</title>
<g id="a_edge7_Node000001_Node000008"><a xlink:title=" ">
<path fill="none" stroke="#63b8ff" d="M403,-118.37C439.83,-108.26 485.52,-95.72 520.36,-86.15"/>
<polygon fill="#63b8ff" stroke="#63b8ff" points="402.55,-114.86 393.83,-120.88 404.4,-121.61 402.55,-114.86"/>
</a>
</g>
</g>
<!-- Node3 -->
<g id="Node000003" class="node">
<title>Node3</title>
<g id="a_Node000003"><a xlink:href="_cammi_fuel_8_c.html" target="_top" xlink:title=" ">
<polygon fill="white" stroke="#666666" points="141.62,-19.25 7.88,-19.25 7.88,0 141.62,0 141.62,-19.25"/>
<text text-anchor="middle" x="74.75" y="-5.75" font-family="Helvetica,sans-Serif" font-size="10.00">src/materials/CammiFuel.C</text>
</a>
</g>
</g>
<!-- Node2&#45;&gt;Node3 -->
<g id="edge2_Node000002_Node000003" class="edge">
<title>Node2&#45;&gt;Node3</title>
<g id="a_edge2_Node000002_Node000003"><a xlink:title=" ">
<path fill="none" stroke="#63b8ff" d="M74.75,-49.07C74.75,-39.04 74.75,-27.46 74.75,-19.65"/>
<polygon fill="#63b8ff" stroke="#63b8ff" points="71.25,-49.04 74.75,-59.04 78.25,-49.04 71.25,-49.04"/>
</a>
</g>
</g>
<!-- Node5 -->
<g id="Node000005" class="node">
<title>Node5</title>
<g id="a_Node000005"><a xlink:href="_cammi_moderator_8_c.html" target="_top" xlink:title=" ">
<polygon fill="white" stroke="#666666" points="331,-19.25 172.5,-19.25 172.5,0 331,0 331,-19.25"/>
<text text-anchor="middle" x="251.75" y="-5.75" font-family="Helvetica,sans-Serif" font-size="10.00">src/materials/CammiModerator.C</text>
</a>
</g>
</g>
<!-- Node4&#45;&gt;Node5 -->
<g id="edge4_Node000004_Node000005" class="edge">
<title>Node4&#45;&gt;Node5</title>
<g id="a_edge4_Node000004_Node000005"><a xlink:title=" ">
<path fill="none" stroke="#63b8ff" d="M253.71,-49.07C253.2,-39.04 252.61,-27.46 252.21,-19.65"/>
<polygon fill="#63b8ff" stroke="#63b8ff" points="250.21,-49.24 254.22,-59.05 257.2,-48.88 250.21,-49.24"/>
</a>
</g>
</g>
<!-- Node7 -->
<g id="Node000007" class="node">
<title>Node7</title>
<g id="a_Node000007"><a xlink:href="_rodded_material_8_c.html" target="_top" xlink:title=" ">
<polygon fill="white" stroke="#666666" points="500.62,-19.25 348.88,-19.25 348.88,0 500.62,0 500.62,-19.25"/>
<text text-anchor="middle" x="424.75" y="-5.75" font-family="Helvetica,sans-Serif" font-size="10.00">src/materials/RoddedMaterial.C</text>
</a>
</g>
</g>
<!-- Node6&#45;&gt;Node7 -->
<g id="edge6_Node000006_Node000007" class="edge">
<title>Node6&#45;&gt;Node7</title>
<g id="a_edge6_Node000006_Node000007"><a xlink:title=" ">
<path fill="none" stroke="#63b8ff" d="M423.63,-43.48C423.92,-34.98 424.22,-26.09 424.44,-19.7"/>
<polygon fill="#63b8ff" stroke="#63b8ff" points="420.14,-43.32 423.3,-53.43 427.13,-43.56 420.14,-43.32"/>
</a>
</g>
</g>
</g>
</svg>
