<?xml version="1.0" encoding="UTF-8" standalone="no"?>
<!DOCTYPE svg PUBLIC "-//W3C//DTD SVG 1.1//EN"
 "http://www.w3.org/Graphics/SVG/1.1/DTD/svg11.dtd">
<!-- Generated by graphviz version 7.0.4 (20221203.1631)
 -->
<!-- Title: include/materials/GenericMoltresMaterial.h Pages: 1 -->
<svg width="763pt" height="148pt"
 viewBox="0.00 0.00 763.00 148.00" xmlns="http://www.w3.org/2000/svg" xmlns:xlink="http://www.w3.org/1999/xlink">
<g id="graph0" class="graph" transform="scale(1 1) rotate(0) translate(4 144)">
<title>include/materials/GenericMoltresMaterial.h</title>
<!-- Node1 -->
<g id="node1" class="node">
<title>Node1</title>
<g id="a_node1"><a xlink:title=" ">
<polygon fill="#999999" stroke="#666666" points="442.5,-140 315.5,-140 315.5,-110 442.5,-110 442.5,-140"/>
<text text-anchor="start" x="323.5" y="-128" font-family="Helvetica,sans-Serif" font-size="10.00">include/materials/Generic</text>
<text text-anchor="middle" x="379" y="-117" font-family="Helvetica,sans-Serif" font-size="10.00">MoltresMaterial.h</text>
</a>
</g>
</g>
<!-- Node2 -->
<g id="node2" class="node">
<title>Node2</title>
<g id="a_node2"><a xlink:href="_nuclear_material_8h.html" target="_top" xlink:title=" ">
<polygon fill="white" stroke="#666666" points="425,-74 333,-74 333,-55 425,-55 425,-74"/>
<text text-anchor="middle" x="379" y="-62" font-family="Helvetica,sans-Serif" font-size="10.00">NuclearMaterial.h</text>
</a>
</g>
</g>
<!-- Node1&#45;&gt;Node2 -->
<g id="edge1" class="edge">
<title>Node1&#45;&gt;Node2</title>
<path fill="none" stroke="#63b8ff" d="M379,-109.54C379,-102.34 379,-93.53 379,-85.68"/>
<polygon fill="#63b8ff" stroke="#63b8ff" points="382.5,-85.69 379,-75.69 375.5,-85.69 382.5,-85.69"/>
</g>
<!-- Node4 -->
<g id="node4" class="node">
<title>Node4</title>
<g id="a_node4"><a xlink:title=" ">
<polygon fill="#e0e0e0" stroke="#999999" points="104,-19 0,-19 0,0 104,0 104,-19"/>
<text text-anchor="middle" x="52" y="-7" font-family="Helvetica,sans-Serif" font-size="10.00">SplineInterpolation.h</text>
</a>
</g>
</g>
<!-- Node1&#45;&gt;Node4 -->
<g id="edge8" class="edge">
<title>Node1&#45;&gt;Node4</title>
<path fill="none" stroke="#63b8ff" d="M337.25,-109.51C272.58,-87.06 149.27,-44.26 88.17,-23.05"/>
<polygon fill="#63b8ff" stroke="#63b8ff" points="89.54,-19.82 78.94,-19.85 87.24,-26.44 89.54,-19.82"/>
</g>
<!-- Node5 -->
<g id="node5" class="node">
<title>Node5</title>
<g id="a_node5"><a xlink:title=" ">
<polygon fill="#e0e0e0" stroke="#999999" points="259.5,-19 122.5,-19 122.5,0 259.5,0 259.5,-19"/>
<text text-anchor="middle" x="191" y="-7" font-family="Helvetica,sans-Serif" font-size="10.00">BicubicSplineInterpolation.h</text>
</a>
</g>
</g>
<!-- Node1&#45;&gt;Node5 -->
<g id="edge9" class="edge">
<title>Node1&#45;&gt;Node5</title>
<path fill="none" stroke="#63b8ff" d="M355.19,-109.63C319.22,-87.91 251.39,-46.96 215.19,-25.11"/>
<polygon fill="#63b8ff" stroke="#63b8ff" points="217.12,-22.18 206.76,-20.01 213.51,-28.18 217.12,-22.18"/>
</g>
<!-- Node6 -->
<g id="node6" class="node">
<title>Node6</title>
<g id="a_node6"><a xlink:title=" ">
<polygon fill="#e0e0e0" stroke="#999999" points="632.5,-19 487.5,-19 487.5,0 632.5,0 632.5,-19"/>
<text text-anchor="middle" x="560" y="-7" font-family="Helvetica,sans-Serif" font-size="10.00">MonotoneCubicInterpolation.h</text>
</a>
</g>
</g>
<!-- Node1&#45;&gt;Node6 -->
<g id="edge10" class="edge">
<title>Node1&#45;&gt;Node6</title>
<path fill="none" stroke="#63b8ff" d="M401.92,-109.63C436.56,-87.91 501.86,-46.96 536.71,-25.11"/>
<polygon fill="#63b8ff" stroke="#63b8ff" points="538.18,-28.31 544.8,-20.03 534.47,-22.38 538.18,-28.31"/>
</g>
<!-- Node7 -->
<g id="node7" class="node">
<title>Node7</title>
<g id="a_node7"><a xlink:title=" ">
<polygon fill="#e0e0e0" stroke="#999999" points="755,-19 651,-19 651,0 755,0 755,-19"/>
<text text-anchor="middle" x="703" y="-7" font-family="Helvetica,sans-Serif" font-size="10.00">LinearInterpolation.h</text>
</a>
</g>
</g>
<!-- Node1&#45;&gt;Node7 -->
<g id="edge11" class="edge">
<title>Node1&#45;&gt;Node7</title>
<path fill="none" stroke="#63b8ff" d="M420.36,-109.51C484.44,-87.06 606.62,-44.26 667.16,-23.05"/>
<polygon fill="#63b8ff" stroke="#63b8ff" points="668.01,-26.46 676.29,-19.86 665.7,-19.86 668.01,-26.46"/>
</g>
<!-- Node3 -->
<g id="node3" class="node">
<title>Node3</title>
<g id="a_node3"><a xlink:title=" ">
<polygon fill="#e0e0e0" stroke="#999999" points="408.5,-19 277.5,-19 277.5,0 408.5,0 408.5,-19"/>
<text text-anchor="middle" x="343" y="-7" font-family="Helvetica,sans-Serif" font-size="10.00">GenericConstantMaterial.h</text>
</a>
</g>
</g>
<!-- Node2&#45;&gt;Node3 -->
<g id="edge2" class="edge">
<title>Node2&#45;&gt;Node3</title>
<path fill="none" stroke="#63b8ff" d="M373.06,-54.75C368.29,-47.73 361.44,-37.64 355.48,-28.87"/>
<polygon fill="#63b8ff" stroke="#63b8ff" points="358.44,-27 349.92,-20.69 352.65,-30.93 358.44,-27"/>
</g>
<!-- Node2&#45;&gt;Node4 -->
<g id="edge3" class="edge">
<title>Node2&#45;&gt;Node4</title>
<path fill="none" stroke="#63b8ff" d="M332.84,-56.02C276.04,-46.81 179.31,-31.13 115.53,-20.8"/>
<polygon fill="#63b8ff" stroke="#63b8ff" points="116.34,-17.38 105.9,-19.24 115.22,-24.29 116.34,-17.38"/>
</g>
<!-- Node2&#45;&gt;Node5 -->
<g id="edge4" class="edge">
<title>Node2&#45;&gt;Node5</title>
<path fill="none" stroke="#63b8ff" d="M347.11,-54.51C315.82,-45.69 267.91,-32.18 233.42,-22.46"/>
<polygon fill="#63b8ff" stroke="#63b8ff" points="234.77,-19.2 224.19,-19.86 232.87,-25.94 234.77,-19.2"/>
</g>
<!-- Node2&#45;&gt;Node6 -->
<g id="edge5" class="edge">
<title>Node2&#45;&gt;Node6</title>
<path fill="none" stroke="#63b8ff" d="M409.7,-54.51C439.7,-45.73 485.55,-32.3 518.73,-22.59"/>
<polygon fill="#63b8ff" stroke="#63b8ff" points="519.38,-26.04 528,-19.87 517.41,-19.32 519.38,-26.04"/>
</g>
<!-- Node2&#45;&gt;Node7 -->
<g id="edge6" class="edge">
<title>Node2&#45;&gt;Node7</title>
<path fill="none" stroke="#63b8ff" d="M425.42,-55.91C481.71,-46.7 576.84,-31.14 639.79,-20.84"/>
<polygon fill="#63b8ff" stroke="#63b8ff" points="639.96,-24.36 649.27,-19.29 638.83,-17.45 639.96,-24.36"/>
</g>
<!-- Node8 -->
<g id="node8" class="node">
<title>Node8</title>
<g id="a_node8"><a xlink:title=" ">
<polygon fill="#e0e0e0" stroke="#999999" points="469,-19 427,-19 427,0 469,0 469,-19"/>
<text text-anchor="middle" x="448" y="-7" font-family="Helvetica,sans-Serif" font-size="10.00">json.h</text>
</a>
</g>
</g>
<!-- Node2&#45;&gt;Node8 -->
<g id="edge7" class="edge">
<title>Node2&#45;&gt;Node8</title>
<path fill="none" stroke="#63b8ff" d="M390.7,-54.51C400.78,-46.77 415.54,-35.43 427.56,-26.2"/>
<polygon fill="#63b8ff" stroke="#63b8ff" points="429.47,-29.15 435.27,-20.28 425.21,-23.6 429.47,-29.15"/>
</g>
</g>
</svg>
