<?xml version="1.0" encoding="UTF-8" standalone="no"?>
<!DOCTYPE svg PUBLIC "-//W3C//DTD SVG 1.1//EN"
 "http://www.w3.org/Graphics/SVG/1.1/DTD/svg11.dtd">
<!-- Generated by graphviz version 12.2.0 (20241103.1931)
 -->
<!-- Title: src/auxkernels/GroupDriftAux.C Pages: 1 -->
<svg width="460pt" height="204pt"
 viewBox="0.00 0.00 459.62 204.25" xmlns="http://www.w3.org/2000/svg" xmlns:xlink="http://www.w3.org/1999/xlink">
<g id="graph0" class="graph" transform="scale(1 1) rotate(0) translate(4 200.25)">
<title>src/auxkernels/GroupDriftAux.C</title>
<!-- Node1 -->
<g id="Node000001" class="node">
<title>Node1</title>
<g id="a_Node000001"><a xlink:title=" ">
<polygon fill="#999999" stroke="#666666" points="257,-196.25 130.75,-196.25 130.75,-165.75 257,-165.75 257,-196.25"/>
<text text-anchor="start" x="138.75" y="-182.75" font-family="Helvetica,sans-Serif" font-size="10.00">src/auxkernels/GroupDrift</text>
<text text-anchor="middle" x="193.88" y="-171.5" font-family="Helvetica,sans-Serif" font-size="10.00">Aux.C</text>
</a>
</g>
</g>
<!-- Node2 -->
<g id="Node000002" class="node">
<title>Node2</title>
<g id="a_Node000002"><a xlink:href="_group_drift_aux_8h.html" target="_top" xlink:title=" ">
<polygon fill="white" stroke="#666666" points="185,-129.75 100.75,-129.75 100.75,-110.5 185,-110.5 185,-129.75"/>
<text text-anchor="middle" x="142.88" y="-116.25" font-family="Helvetica,sans-Serif" font-size="10.00">GroupDriftAux.h</text>
</a>
</g>
</g>
<!-- Node1&#45;&gt;Node2 -->
<g id="edge1_Node000001_Node000002" class="edge">
<title>Node1&#45;&gt;Node2</title>
<g id="a_edge1_Node000001_Node000002"><a xlink:title=" ">
<path fill="none" stroke="#63b8ff" d="M181.27,-165.45C174.25,-157.34 165.46,-147.2 158.07,-138.66"/>
<polygon fill="#63b8ff" stroke="#63b8ff" points="160.92,-136.61 151.73,-131.35 155.63,-141.2 160.92,-136.61"/>
</a>
</g>
</g>
<!-- Node7 -->
<g id="Node000007" class="node">
<title>Node7</title>
<g id="a_Node000007"><a xlink:href="_moltres_utils_8h.html" target="_top" xlink:title=" ">
<polygon fill="white" stroke="#666666" points="324.88,-129.75 248.88,-129.75 248.88,-110.5 324.88,-110.5 324.88,-129.75"/>
<text text-anchor="middle" x="286.88" y="-116.25" font-family="Helvetica,sans-Serif" font-size="10.00">MoltresUtils.h</text>
</a>
</g>
</g>
<!-- Node1&#45;&gt;Node7 -->
<g id="edge6_Node000001_Node000007" class="edge">
<title>Node1&#45;&gt;Node7</title>
<g id="a_edge6_Node000001_Node000007"><a xlink:title=" ">
<path fill="none" stroke="#63b8ff" d="M216.86,-165.45C230.89,-156.57 248.78,-145.24 262.97,-136.26"/>
<polygon fill="#63b8ff" stroke="#63b8ff" points="264.68,-139.32 271.26,-131.01 260.94,-133.4 264.68,-139.32"/>
</a>
</g>
</g>
<!-- Node3 -->
<g id="Node000003" class="node">
<title>Node3</title>
<g id="a_Node000003"><a xlink:title=" ">
<polygon fill="#e0e0e0" stroke="#999999" points="67.75,-74.5 0,-74.5 0,-55.25 67.75,-55.25 67.75,-74.5"/>
<text text-anchor="middle" x="33.88" y="-61" font-family="Helvetica,sans-Serif" font-size="10.00">AuxKernel.h</text>
</a>
</g>
</g>
<!-- Node2&#45;&gt;Node3 -->
<g id="edge2_Node000002_Node000003" class="edge">
<title>Node2&#45;&gt;Node3</title>
<g id="a_edge2_Node000002_Node000003"><a xlink:title=" ">
<path fill="none" stroke="#63b8ff" d="M124.38,-110.09C107.47,-101.83 82.19,-89.48 62.64,-79.93"/>
<polygon fill="#63b8ff" stroke="#63b8ff" points="64.34,-76.86 53.82,-75.62 61.26,-83.15 64.34,-76.86"/>
</a>
</g>
</g>
<!-- Node4 -->
<g id="Node000004" class="node">
<title>Node4</title>
<g id="a_Node000004"><a xlink:href="_scalar_transport_base_8h.html" target="_top" xlink:title=" ">
<polygon fill="white" stroke="#666666" points="200.38,-74.5 85.38,-74.5 85.38,-55.25 200.38,-55.25 200.38,-74.5"/>
<text text-anchor="middle" x="142.88" y="-61" font-family="Helvetica,sans-Serif" font-size="10.00">ScalarTransportBase.h</text>
</a>
</g>
</g>
<!-- Node2&#45;&gt;Node4 -->
<g id="edge3_Node000002_Node000004" class="edge">
<title>Node2&#45;&gt;Node4</title>
<g id="a_edge3_Node000002_Node000004"><a xlink:title=" ">
<path fill="none" stroke="#63b8ff" d="M142.88,-110.33C142.88,-103.82 142.88,-94.67 142.88,-86.37"/>
<polygon fill="#63b8ff" stroke="#63b8ff" points="146.38,-86.37 142.88,-76.37 139.38,-86.37 146.38,-86.37"/>
</a>
</g>
</g>
<!-- Node5 -->
<g id="Node000005" class="node">
<title>Node5</title>
<g id="a_Node000005"><a xlink:title=" ">
<polygon fill="#e0e0e0" stroke="#999999" points="129.62,-19.25 34.12,-19.25 34.12,0 129.62,0 129.62,-19.25"/>
<text text-anchor="middle" x="81.88" y="-5.75" font-family="Helvetica,sans-Serif" font-size="10.00">InputParameters.h</text>
</a>
</g>
</g>
<!-- Node4&#45;&gt;Node5 -->
<g id="edge4_Node000004_Node000005" class="edge">
<title>Node4&#45;&gt;Node5</title>
<g id="a_edge4_Node000004_Node000005"><a xlink:title=" ">
<path fill="none" stroke="#63b8ff" d="M132.53,-54.84C123.8,-47.22 111.09,-36.12 100.58,-26.95"/>
<polygon fill="#63b8ff" stroke="#63b8ff" points="103.05,-24.46 93.21,-20.52 98.44,-29.73 103.05,-24.46"/>
</a>
</g>
</g>
<!-- Node6 -->
<g id="Node000006" class="node">
<title>Node6</title>
<g id="a_Node000006"><a xlink:title=" ">
<polygon fill="#e0e0e0" stroke="#999999" points="258.12,-19.25 147.62,-19.25 147.62,0 258.12,0 258.12,-19.25"/>
<text text-anchor="middle" x="202.88" y="-5.75" font-family="Helvetica,sans-Serif" font-size="10.00">MooseVariableBase.h</text>
</a>
</g>
</g>
<!-- Node4&#45;&gt;Node6 -->
<g id="edge5_Node000004_Node000006" class="edge">
<title>Node4&#45;&gt;Node6</title>
<g id="a_edge5_Node000004_Node000006"><a xlink:title=" ">
<path fill="none" stroke="#63b8ff" d="M153.05,-54.84C161.64,-47.22 174.14,-36.12 184.48,-26.95"/>
<polygon fill="#63b8ff" stroke="#63b8ff" points="186.56,-29.79 191.72,-20.53 181.91,-24.55 186.56,-29.79"/>
</a>
</g>
</g>
<!-- Node8 -->
<g id="Node000008" class="node">
<title>Node8</title>
<g id="a_Node000008"><a xlink:title=" ">
<polygon fill="#e0e0e0" stroke="#999999" points="271.25,-74.5 218.5,-74.5 218.5,-55.25 271.25,-55.25 271.25,-74.5"/>
<text text-anchor="middle" x="244.88" y="-61" font-family="Helvetica,sans-Serif" font-size="10.00">Moose.h</text>
</a>
</g>
</g>
<!-- Node7&#45;&gt;Node8 -->
<g id="edge7_Node000007_Node000008" class="edge">
<title>Node7&#45;&gt;Node8</title>
<g id="a_edge7_Node000007_Node000008"><a xlink:title=" ">
<path fill="none" stroke="#63b8ff" d="M279.94,-110.33C274.26,-103.13 266.04,-92.71 258.98,-83.76"/>
<polygon fill="#63b8ff" stroke="#63b8ff" points="261.84,-81.73 252.9,-76.05 256.34,-86.07 261.84,-81.73"/>
</a>
</g>
</g>
<!-- Node9 -->
<g id="Node000009" class="node">
<title>Node9</title>
<g id="a_Node000009"><a xlink:title=" ">
<polygon fill="#e0e0e0" stroke="#999999" points="368.38,-74.5 289.38,-74.5 289.38,-55.25 368.38,-55.25 368.38,-74.5"/>
<text text-anchor="middle" x="328.88" y="-61" font-family="Helvetica,sans-Serif" font-size="10.00">MooseTypes.h</text>
</a>
</g>
</g>
<!-- Node7&#45;&gt;Node9 -->
<g id="edge8_Node000007_Node000009" class="edge">
<title>Node7&#45;&gt;Node9</title>
<g id="a_edge8_Node000007_Node000009"><a xlink:title=" ">
<path fill="none" stroke="#63b8ff" d="M293.81,-110.33C299.49,-103.13 307.71,-92.71 314.77,-83.76"/>
<polygon fill="#63b8ff" stroke="#63b8ff" points="317.41,-86.07 320.85,-76.05 311.91,-81.73 317.41,-86.07"/>
</a>
</g>
</g>
<!-- Node10 -->
<g id="Node000010" class="node">
<title>Node10</title>
<g id="a_Node000010"><a xlink:title=" ">
<polygon fill="#e0e0e0" stroke="#999999" points="451.62,-74.5 386.12,-74.5 386.12,-55.25 451.62,-55.25 451.62,-74.5"/>
<text text-anchor="middle" x="418.88" y="-61" font-family="Helvetica,sans-Serif" font-size="10.00">MathUtils.h</text>
</a>
</g>
</g>
<!-- Node7&#45;&gt;Node10 -->
<g id="edge9_Node000007_Node000010" class="edge">
<title>Node7&#45;&gt;Node10</title>
<g id="a_edge9_Node000007_Node000010"><a xlink:title=" ">
<path fill="none" stroke="#63b8ff" d="M309.27,-110.09C330.32,-101.6 362.08,-88.79 386,-79.14"/>
<polygon fill="#63b8ff" stroke="#63b8ff" points="387.01,-82.51 394.97,-75.52 384.39,-76.01 387.01,-82.51"/>
</a>
</g>
</g>
</g>
</svg>
