<?xml version="1.0" encoding="UTF-8" standalone="no"?>
<!DOCTYPE svg PUBLIC "-//W3C//DTD SVG 1.1//EN"
 "http://www.w3.org/Graphics/SVG/1.1/DTD/svg11.dtd">
<!-- Generated by graphviz version 3.0.0 (20220413.0242)
 -->
<!-- Title: include/kernels/GroupDiffusion.h Pages: 1 -->
<svg width="254pt" height="140pt"
 viewBox="0.00 0.00 253.50 140.00" xmlns="http://www.w3.org/2000/svg" xmlns:xlink="http://www.w3.org/1999/xlink">
<g id="graph0" class="graph" transform="scale(1 1) rotate(0) translate(4 136)">
<title>include/kernels/GroupDiffusion.h</title>
<polygon fill="white" stroke="transparent" points="-4,4 -4,-136 249.5,-136 249.5,4 -4,4"/>
<!-- Node1 -->
<g id="node1" class="node">
<title>Node1</title>
<g id="a_node1"><a xlink:title=" ">
<polygon fill="#bfbfbf" stroke="black" points="0,-112.5 0,-131.5 156,-131.5 156,-112.5 0,-112.5"/>
<text text-anchor="middle" x="78" y="-119.5" font-family="Helvetica,sans-Serif" font-size="10.00">include/kernels/GroupDiffusion.h</text>
</a>
</g>
</g>
<!-- Node2 -->
<g id="node2" class="node">
<title>Node2</title>
<g id="a_node2"><a xlink:title=" ">
<polygon fill="white" stroke="#bfbfbf" points="1,-56.5 1,-75.5 53,-75.5 53,-56.5 1,-56.5"/>
<text text-anchor="middle" x="27" y="-63.5" font-family="Helvetica,sans-Serif" font-size="10.00">Kernel.h</text>
</a>
</g>
</g>
<!-- Node1&#45;&gt;Node2 -->
<g id="edge1" class="edge">
<title>Node1&#45;&gt;Node2</title>
<path fill="none" stroke="midnightblue" d="M69.58,-112.08C62.15,-104.22 51.15,-92.57 42.19,-83.08"/>
<polygon fill="midnightblue" stroke="midnightblue" points="44.68,-80.62 35.26,-75.75 39.59,-85.42 44.68,-80.62"/>
</g>
<!-- Node3 -->
<g id="node3" class="node">
<title>Node3</title>
<g id="a_node3"><a xlink:href="_scalar_transport_base_8h.html" target="_top" xlink:title=" ">
<polygon fill="white" stroke="black" points="71,-56.5 71,-75.5 187,-75.5 187,-56.5 71,-56.5"/>
<text text-anchor="middle" x="129" y="-63.5" font-family="Helvetica,sans-Serif" font-size="10.00">ScalarTransportBase.h</text>
</a>
</g>
</g>
<!-- Node1&#45;&gt;Node3 -->
<g id="edge2" class="edge">
<title>Node1&#45;&gt;Node3</title>
<path fill="none" stroke="midnightblue" d="M86.42,-112.08C93.85,-104.22 104.85,-92.57 113.81,-83.08"/>
<polygon fill="midnightblue" stroke="midnightblue" points="116.41,-85.42 120.74,-75.75 111.32,-80.62 116.41,-85.42"/>
</g>
<!-- Node4 -->
<g id="node4" class="node">
<title>Node4</title>
<g id="a_node4"><a xlink:title=" ">
<polygon fill="white" stroke="#bfbfbf" points="20,-0.5 20,-19.5 116,-19.5 116,-0.5 20,-0.5"/>
<text text-anchor="middle" x="68" y="-7.5" font-family="Helvetica,sans-Serif" font-size="10.00">InputParameters.h</text>
</a>
</g>
</g>
<!-- Node3&#45;&gt;Node4 -->
<g id="edge3" class="edge">
<title>Node3&#45;&gt;Node4</title>
<path fill="none" stroke="midnightblue" d="M119.2,-56.32C110.18,-48.34 96.59,-36.31 85.68,-26.65"/>
<polygon fill="midnightblue" stroke="midnightblue" points="87.79,-23.84 77.98,-19.83 83.15,-29.08 87.79,-23.84"/>
</g>
<!-- Node5 -->
<g id="node5" class="node">
<title>Node5</title>
<g id="a_node5"><a xlink:title=" ">
<polygon fill="white" stroke="#bfbfbf" points="134.5,-0.5 134.5,-19.5 245.5,-19.5 245.5,-0.5 134.5,-0.5"/>
<text text-anchor="middle" x="190" y="-7.5" font-family="Helvetica,sans-Serif" font-size="10.00">MooseVariableBase.h</text>
</a>
</g>
</g>
<!-- Node3&#45;&gt;Node5 -->
<g id="edge4" class="edge">
<title>Node3&#45;&gt;Node5</title>
<path fill="none" stroke="midnightblue" d="M138.8,-56.32C147.82,-48.34 161.41,-36.31 172.32,-26.65"/>
<polygon fill="midnightblue" stroke="midnightblue" points="174.85,-29.08 180.02,-19.83 170.21,-23.84 174.85,-29.08"/>
</g>
</g>
</svg>
