<?xml version="1.0" encoding="UTF-8" standalone="no"?>
<!DOCTYPE svg PUBLIC "-//W3C//DTD SVG 1.1//EN"
 "http://www.w3.org/Graphics/SVG/1.1/DTD/svg11.dtd">
<!-- Generated by graphviz version 12.2.0 (20241103.1931)
 -->
<!-- Title: src/bcs/INSADMomentumSUPGBC.C Pages: 1 -->
<svg width="238pt" height="138pt"
 viewBox="0.00 0.00 237.62 137.75" xmlns="http://www.w3.org/2000/svg" xmlns:xlink="http://www.w3.org/1999/xlink">
<g id="graph0" class="graph" transform="scale(1 1) rotate(0) translate(4 133.75)">
<title>src/bcs/INSADMomentumSUPGBC.C</title>
<!-- Node1 -->
<g id="Node000001" class="node">
<title>Node1</title>
<g id="a_Node000001"><a xlink:title=" ">
<polygon fill="#999999" stroke="#666666" points="225.38,-129.75 43.62,-129.75 43.62,-110.5 225.38,-110.5 225.38,-129.75"/>
<text text-anchor="middle" x="134.5" y="-116.25" font-family="Helvetica,sans-Serif" font-size="10.00">src/bcs/INSADMomentumSUPGBC.C</text>
</a>
</g>
</g>
<!-- Node2 -->
<g id="Node000002" class="node">
<title>Node2</title>
<g id="a_Node000002"><a xlink:href="_i_n_s_a_d_momentum_s_u_p_g_b_c_8h.html" target="_top" xlink:title=" ">
<polygon fill="white" stroke="#666666" points="145,-74.5 0,-74.5 0,-55.25 145,-55.25 145,-74.5"/>
<text text-anchor="middle" x="72.5" y="-61" font-family="Helvetica,sans-Serif" font-size="10.00">INSADMomentumSUPGBC.h</text>
</a>
</g>
</g>
<!-- Node1&#45;&gt;Node2 -->
<g id="edge1_Node000001_Node000002" class="edge">
<title>Node1&#45;&gt;Node2</title>
<g id="a_edge1_Node000001_Node000002"><a xlink:title=" ">
<path fill="none" stroke="#63b8ff" d="M123.98,-110.09C115.11,-102.47 102.19,-91.37 91.51,-82.2"/>
<polygon fill="#63b8ff" stroke="#63b8ff" points="93.88,-79.62 84.01,-75.76 89.32,-84.93 93.88,-79.62"/>
</a>
</g>
</g>
<!-- Node4 -->
<g id="Node000004" class="node">
<title>Node4</title>
<g id="a_Node000004"><a xlink:title=" ">
<polygon fill="#e0e0e0" stroke="#999999" points="229.62,-74.5 163.38,-74.5 163.38,-55.25 229.62,-55.25 229.62,-74.5"/>
<text text-anchor="middle" x="196.5" y="-61" font-family="Helvetica,sans-Serif" font-size="10.00">Assembly.h</text>
</a>
</g>
</g>
<!-- Node1&#45;&gt;Node4 -->
<g id="edge3_Node000001_Node000004" class="edge">
<title>Node1&#45;&gt;Node4</title>
<g id="a_edge3_Node000001_Node000004"><a xlink:title=" ">
<path fill="none" stroke="#63b8ff" d="M145.02,-110.09C153.89,-102.47 166.81,-91.37 177.49,-82.2"/>
<polygon fill="#63b8ff" stroke="#63b8ff" points="179.68,-84.93 184.99,-75.76 175.12,-79.62 179.68,-84.93"/>
</a>
</g>
</g>
<!-- Node3 -->
<g id="Node000003" class="node">
<title>Node3</title>
<g id="a_Node000003"><a xlink:title=" ">
<polygon fill="#e0e0e0" stroke="#999999" points="133.75,-19.25 11.25,-19.25 11.25,0 133.75,0 133.75,-19.25"/>
<text text-anchor="middle" x="72.5" y="-5.75" font-family="Helvetica,sans-Serif" font-size="10.00">ADVectorIntegratedBC.h</text>
</a>
</g>
</g>
<!-- Node2&#45;&gt;Node3 -->
<g id="edge2_Node000002_Node000003" class="edge">
<title>Node2&#45;&gt;Node3</title>
<g id="a_edge2_Node000002_Node000003"><a xlink:title=" ">
<path fill="none" stroke="#63b8ff" d="M72.5,-55.08C72.5,-48.57 72.5,-39.42 72.5,-31.12"/>
<polygon fill="#63b8ff" stroke="#63b8ff" points="76,-31.12 72.5,-21.12 69,-31.12 76,-31.12"/>
</a>
</g>
</g>
</g>
</svg>
