<?xml version="1.0" encoding="UTF-8" standalone="no"?>
<!DOCTYPE svg PUBLIC "-//W3C//DTD SVG 1.1//EN"
 "http://www.w3.org/Graphics/SVG/1.1/DTD/svg11.dtd">
<!-- Generated by graphviz version 9.0.0 (20230911.1827)
 -->
<!-- Title: src/bcs/INSADMomentumTurbulentNoBCBC.C Pages: 1 -->
<svg width="179pt" height="160pt"
 viewBox="0.00 0.00 179.25 160.25" xmlns="http://www.w3.org/2000/svg" xmlns:xlink="http://www.w3.org/1999/xlink">
<g id="graph0" class="graph" transform="scale(1 1) rotate(0) translate(4 156.25)">
<title>src/bcs/INSADMomentumTurbulentNoBCBC.C</title>
<!-- Node1 -->
<g id="Node000001" class="node">
<title>Node1</title>
<g id="a_Node000001"><a xlink:title=" ">
<polygon fill="#999999" stroke="#666666" points="171.25,-152.25 0,-152.25 0,-121.75 171.25,-121.75 171.25,-152.25"/>
<text text-anchor="start" x="8" y="-138.75" font-family="Helvetica,sans-Serif" font-size="10.00">src/bcs/INSADMomentumTurbulent</text>
<text text-anchor="middle" x="85.62" y="-127.5" font-family="Helvetica,sans-Serif" font-size="10.00">NoBCBC.C</text>
</a>
</g>
</g>
<!-- Node2 -->
<g id="Node000002" class="node">
<title>Node2</title>
<g id="a_Node000002"><a xlink:href="_i_n_s_a_d_momentum_turbulent_no_b_c_b_c_8h.html" target="_top" xlink:title=" ">
<polygon fill="white" stroke="#666666" points="160,-85.75 11.25,-85.75 11.25,-55.25 160,-55.25 160,-85.75"/>
<text text-anchor="start" x="19.25" y="-72.25" font-family="Helvetica,sans-Serif" font-size="10.00">INSADMomentumTurbulentNo</text>
<text text-anchor="middle" x="85.62" y="-61" font-family="Helvetica,sans-Serif" font-size="10.00">BCBC.h</text>
</a>
</g>
</g>
<!-- Node1&#45;&gt;Node2 -->
<g id="edge1_Node000001_Node000002" class="edge">
<title>Node1&#45;&gt;Node2</title>
<g id="a_edge1_Node000001_Node000002"><a xlink:title=" ">
<path fill="none" stroke="#63b8ff" d="M85.62,-121.36C85.62,-114.27 85.62,-105.54 85.62,-97.38"/>
<polygon fill="#63b8ff" stroke="#63b8ff" points="89.13,-97.59 85.63,-87.59 82.13,-97.59 89.13,-97.59"/>
</a>
</g>
</g>
<!-- Node3 -->
<g id="Node000003" class="node">
<title>Node3</title>
<g id="a_Node000003"><a xlink:title=" ">
<polygon fill="#e0e0e0" stroke="#999999" points="157,-19.25 14.25,-19.25 14.25,0 157,0 157,-19.25"/>
<text text-anchor="middle" x="85.62" y="-5.75" font-family="Helvetica,sans-Serif" font-size="10.00">INSADMomentumNoBCBC.h</text>
</a>
</g>
</g>
<!-- Node2&#45;&gt;Node3 -->
<g id="edge2_Node000002_Node000003" class="edge">
<title>Node2&#45;&gt;Node3</title>
<g id="a_edge2_Node000002_Node000003"><a xlink:title=" ">
<path fill="none" stroke="#63b8ff" d="M85.62,-54.95C85.62,-47.71 85.62,-38.84 85.62,-30.94"/>
<polygon fill="#63b8ff" stroke="#63b8ff" points="89.13,-31.21 85.63,-21.21 82.13,-31.21 89.13,-31.21"/>
</a>
</g>
</g>
</g>
</svg>
