<?xml version="1.0" encoding="UTF-8" standalone="no"?>
<!DOCTYPE svg PUBLIC "-//W3C//DTD SVG 1.1//EN"
 "http://www.w3.org/Graphics/SVG/1.1/DTD/svg11.dtd">
<!-- Generated by graphviz version 9.0.0 (20230911.1827)
 -->
<!-- Title: src/kernels/INSADMomentumTurbulentViscous.C Pages: 1 -->
<svg width="322pt" height="149pt"
 viewBox="0.00 0.00 322.00 149.00" xmlns="http://www.w3.org/2000/svg" xmlns:xlink="http://www.w3.org/1999/xlink">
<g id="graph0" class="graph" transform="scale(1 1) rotate(0) translate(4 145)">
<title>src/kernels/INSADMomentumTurbulentViscous.C</title>
<!-- Node1 -->
<g id="Node000001" class="node">
<title>Node1</title>
<g id="a_Node000001"><a xlink:title=" ">
<polygon fill="#999999" stroke="#666666" points="245.62,-141 99.12,-141 99.12,-110.5 245.62,-110.5 245.62,-141"/>
<text text-anchor="start" x="107.12" y="-127.5" font-family="Helvetica,sans-Serif" font-size="10.00">src/kernels/INSADMomentum</text>
<text text-anchor="middle" x="172.38" y="-116.25" font-family="Helvetica,sans-Serif" font-size="10.00">TurbulentViscous.C</text>
</a>
</g>
</g>
<!-- Node2 -->
<g id="Node000002" class="node">
<title>Node2</title>
<g id="a_Node000002"><a xlink:href="_i_n_s_a_d_momentum_turbulent_viscous_8h.html" target="_top" xlink:title=" ">
<polygon fill="white" stroke="#666666" points="178.75,-74.5 0,-74.5 0,-55.25 178.75,-55.25 178.75,-74.5"/>
<text text-anchor="middle" x="89.38" y="-61" font-family="Helvetica,sans-Serif" font-size="10.00">INSADMomentumTurbulentViscous.h</text>
</a>
</g>
</g>
<!-- Node1&#45;&gt;Node2 -->
<g id="edge1_Node000001_Node000002" class="edge">
<title>Node1&#45;&gt;Node2</title>
<g id="a_edge1_Node000001_Node000002"><a xlink:title=" ">
<path fill="none" stroke="#63b8ff" d="M151.86,-110.2C139.59,-101.49 123.99,-90.43 111.45,-81.53"/>
<polygon fill="#63b8ff" stroke="#63b8ff" points="113.59,-78.76 103.4,-75.83 109.54,-84.47 113.59,-78.76"/>
</a>
</g>
</g>
<!-- Node4 -->
<g id="Node000004" class="node">
<title>Node4</title>
<g id="a_Node000004"><a xlink:title=" ">
<polygon fill="#e0e0e0" stroke="#999999" points="314,-74.5 196.75,-74.5 196.75,-55.25 314,-55.25 314,-74.5"/>
<text text-anchor="middle" x="255.38" y="-61" font-family="Helvetica,sans-Serif" font-size="10.00">metaphysicl/raw_type.h</text>
</a>
</g>
</g>
<!-- Node1&#45;&gt;Node4 -->
<g id="edge3_Node000001_Node000004" class="edge">
<title>Node1&#45;&gt;Node4</title>
<g id="a_edge3_Node000001_Node000004"><a xlink:title=" ">
<path fill="none" stroke="#63b8ff" d="M192.89,-110.2C205.16,-101.49 220.76,-90.43 233.3,-81.53"/>
<polygon fill="#63b8ff" stroke="#63b8ff" points="235.21,-84.47 241.35,-75.83 231.16,-78.76 235.21,-84.47"/>
</a>
</g>
</g>
<!-- Node3 -->
<g id="Node000003" class="node">
<title>Node3</title>
<g id="a_Node000003"><a xlink:title=" ">
<polygon fill="#e0e0e0" stroke="#999999" points="158.5,-19.25 20.25,-19.25 20.25,0 158.5,0 158.5,-19.25"/>
<text text-anchor="middle" x="89.38" y="-5.75" font-family="Helvetica,sans-Serif" font-size="10.00">INSADMomentumViscous.h</text>
</a>
</g>
</g>
<!-- Node2&#45;&gt;Node3 -->
<g id="edge2_Node000002_Node000003" class="edge">
<title>Node2&#45;&gt;Node3</title>
<g id="a_edge2_Node000002_Node000003"><a xlink:title=" ">
<path fill="none" stroke="#63b8ff" d="M89.38,-55.08C89.38,-48.57 89.38,-39.42 89.38,-31.12"/>
<polygon fill="#63b8ff" stroke="#63b8ff" points="92.88,-31.12 89.38,-21.12 85.88,-31.12 92.88,-31.12"/>
</a>
</g>
</g>
</g>
</svg>
