<?xml version="1.0" encoding="UTF-8" standalone="no"?>
<!DOCTYPE svg PUBLIC "-//W3C//DTD SVG 1.1//EN"
 "http://www.w3.org/Graphics/SVG/1.1/DTD/svg11.dtd">
<!-- Generated by graphviz version 9.0.0 (20230911.1827)
 -->
<!-- Title: src/kernels/INSADEnergyTurbulentDiffusion.C Pages: 1 -->
<svg width="304pt" height="149pt"
 viewBox="0.00 0.00 304.38 149.00" xmlns="http://www.w3.org/2000/svg" xmlns:xlink="http://www.w3.org/1999/xlink">

<svg id="main" version="1.1" xmlns="http://www.w3.org/2000/svg" xmlns:xlink="http://www.w3.org/1999/xlink" xml:space="preserve" onload="init(evt)">
<style type="text/css"><![CDATA[
.node, .edge {opacity: 0.7;}
.node.selected, .edge.selected {opacity: 1;}
.edge:hover path { stroke: red; }
.edge:hover polygon { stroke: red; fill: red; }
]]></style>
<script type="application/ecmascript" xlink:href="svg.min.js"/>
<svg id="graph" class="graph">
<g id="graph0" class="graph" transform="scale(1 1) rotate(0) translate(4 145)">
<title>src/kernels/INSADEnergyTurbulentDiffusion.C</title>
<!-- Node1 -->
<g id="Node000001" class="node">
<title>Node1</title>
<g id="a_Node000001"><a xlink:title=" ">
<polygon fill="#999999" stroke="#666666" points="242.5,-141 75,-141 75,-110.5 242.5,-110.5 242.5,-141"/>
<text text-anchor="start" x="83" y="-127.5" font-family="Helvetica,sans-Serif" font-size="10.00">src/kernels/INSADEnergyTurbulent</text>
<text text-anchor="middle" x="158.75" y="-116.25" font-family="Helvetica,sans-Serif" font-size="10.00">Diffusion.C</text>
</a>
</g>
</g>
<!-- Node2 -->
<g id="Node000002" class="node">
<title>Node2</title>
<g id="a_Node000002"><a xlink:href="_i_n_s_a_d_energy_turbulent_diffusion_8h.html" target="_top" xlink:title=" ">
<polygon fill="white" stroke="#666666" points="161.5,-74.5 0,-74.5 0,-55.25 161.5,-55.25 161.5,-74.5"/>
<text text-anchor="middle" x="80.75" y="-61" font-family="Helvetica,sans-Serif" font-size="10.00">INSADEnergyTurbulentDiffusion.h</text>
</a>
</g>
</g>
<!-- Node1&#45;&gt;Node2 -->
<g id="edge1_Node000001_Node000002" class="edge">
<title>Node1&#45;&gt;Node2</title>
<g id="a_edge1_Node000001_Node000002"><a xlink:title=" ">
<path fill="none" stroke="#63b8ff" d="M139.47,-110.2C128.05,-101.58 113.57,-90.65 101.85,-81.8"/>
<polygon fill="#63b8ff" stroke="#63b8ff" points="104.07,-79.09 93.98,-75.86 99.86,-84.68 104.07,-79.09"/>
</a>
</g>
</g>
<!-- Node4 -->
<g id="Node000004" class="node">
<title>Node4</title>
<g id="a_Node000004"><a xlink:title=" ">
<polygon fill="#e0e0e0" stroke="#999999" points="296.38,-74.5 179.12,-74.5 179.12,-55.25 296.38,-55.25 296.38,-74.5"/>
<text text-anchor="middle" x="237.75" y="-61" font-family="Helvetica,sans-Serif" font-size="10.00">metaphysicl/raw_type.h</text>
</a>
</g>
</g>
<!-- Node1&#45;&gt;Node4 -->
<g id="edge3_Node000001_Node000004" class="edge">
<title>Node1&#45;&gt;Node4</title>
<g id="a_edge3_Node000001_Node000004"><a xlink:title=" ">
<path fill="none" stroke="#63b8ff" d="M178.28,-110.2C189.84,-101.58 204.51,-90.65 216.38,-81.8"/>
<polygon fill="#63b8ff" stroke="#63b8ff" points="218.43,-84.64 224.36,-75.86 214.25,-79.02 218.43,-84.64"/>
</a>
</g>
</g>
<!-- Node3 -->
<g id="Node000003" class="node">
<title>Node3</title>
<g id="a_Node000003"><a xlink:title=" ">
<polygon fill="#e0e0e0" stroke="#999999" points="118,-19.25 43.5,-19.25 43.5,0 118,0 118,-19.25"/>
<text text-anchor="middle" x="80.75" y="-5.75" font-family="Helvetica,sans-Serif" font-size="10.00">ADDiffusion.h</text>
</a>
</g>
</g>
<!-- Node2&#45;&gt;Node3 -->
<g id="edge2_Node000002_Node000003" class="edge">
<title>Node2&#45;&gt;Node3</title>
<g id="a_edge2_Node000002_Node000003"><a xlink:title=" ">
<path fill="none" stroke="#63b8ff" d="M80.75,-55.08C80.75,-48.57 80.75,-39.42 80.75,-31.12"/>
<polygon fill="#63b8ff" stroke="#63b8ff" points="84.25,-31.12 80.75,-21.12 77.25,-31.12 84.25,-31.12"/>
</a>
</g>
</g>
</g>
</svg>
</svg>

<style type='text/css'>
<![CDATA[
[data-mouse-over-selected='false'] { opacity: 0.7; }
[data-mouse-over-selected='true']  { opacity: 1.0; }
]]>
</style>
<script type="application/ecmascript"><![CDATA[
document.addEventListener('DOMContentLoaded', (event) => {
  highlightEdges();
  highlightAdjacentNodes();
});
]]></script>
</svg>
