<?xml version="1.0" encoding="UTF-8" standalone="no"?>
<!DOCTYPE svg PUBLIC "-//W3C//DTD SVG 1.1//EN"
 "http://www.w3.org/Graphics/SVG/1.1/DTD/svg11.dtd">
<!-- Generated by graphviz version 9.0.0 (20230911.1827)
 -->
<!-- Title: src/kernels/InScatter.C Pages: 1 -->
<svg width="250pt" height="193pt"
 viewBox="0.00 0.00 249.88 193.00" xmlns="http://www.w3.org/2000/svg" xmlns:xlink="http://www.w3.org/1999/xlink">
<g id="graph0" class="graph" transform="scale(1 1) rotate(0) translate(4 189)">
<title>src/kernels/InScatter.C</title>
<!-- Node1 -->
<g id="Node000001" class="node">
<title>Node1</title>
<g id="a_Node000001"><a xlink:title=" ">
<polygon fill="#999999" stroke="#666666" points="133.5,-185 17.75,-185 17.75,-165.75 133.5,-165.75 133.5,-185"/>
<text text-anchor="middle" x="75.62" y="-171.5" font-family="Helvetica,sans-Serif" font-size="10.00">src/kernels/InScatter.C</text>
</a>
</g>
</g>
<!-- Node2 -->
<g id="Node000002" class="node">
<title>Node2</title>
<g id="a_Node000002"><a xlink:href="_in_scatter_8h.html" target="_top" xlink:title=" ">
<polygon fill="white" stroke="#666666" points="107.25,-129.75 44,-129.75 44,-110.5 107.25,-110.5 107.25,-129.75"/>
<text text-anchor="middle" x="75.62" y="-116.25" font-family="Helvetica,sans-Serif" font-size="10.00">InScatter.h</text>
</a>
</g>
</g>
<!-- Node1&#45;&gt;Node2 -->
<g id="edge1_Node000001_Node000002" class="edge">
<title>Node1&#45;&gt;Node2</title>
<g id="a_edge1_Node000001_Node000002"><a xlink:title=" ">
<path fill="none" stroke="#63b8ff" d="M75.62,-165.58C75.62,-159.07 75.62,-149.92 75.62,-141.62"/>
<polygon fill="#63b8ff" stroke="#63b8ff" points="79.13,-141.62 75.63,-131.62 72.13,-141.62 79.13,-141.62"/>
</a>
</g>
</g>
<!-- Node3 -->
<g id="Node000003" class="node">
<title>Node3</title>
<g id="a_Node000003"><a xlink:title=" ">
<polygon fill="#e0e0e0" stroke="#999999" points="51.25,-74.5 0,-74.5 0,-55.25 51.25,-55.25 51.25,-74.5"/>
<text text-anchor="middle" x="25.62" y="-61" font-family="Helvetica,sans-Serif" font-size="10.00">Kernel.h</text>
</a>
</g>
</g>
<!-- Node2&#45;&gt;Node3 -->
<g id="edge2_Node000002_Node000003" class="edge">
<title>Node2&#45;&gt;Node3</title>
<g id="a_edge2_Node000002_Node000003"><a xlink:title=" ">
<path fill="none" stroke="#63b8ff" d="M67.37,-110.33C60.46,-102.98 50.4,-92.26 41.89,-83.19"/>
<polygon fill="#63b8ff" stroke="#63b8ff" points="44.49,-80.86 35.1,-75.96 39.39,-85.65 44.49,-80.86"/>
</a>
</g>
</g>
<!-- Node4 -->
<g id="Node000004" class="node">
<title>Node4</title>
<g id="a_Node000004"><a xlink:href="_scalar_transport_base_8h.html" target="_top" xlink:title=" ">
<polygon fill="white" stroke="#666666" points="184.12,-74.5 69.12,-74.5 69.12,-55.25 184.12,-55.25 184.12,-74.5"/>
<text text-anchor="middle" x="126.62" y="-61" font-family="Helvetica,sans-Serif" font-size="10.00">ScalarTransportBase.h</text>
</a>
</g>
</g>
<!-- Node2&#45;&gt;Node4 -->
<g id="edge3_Node000002_Node000004" class="edge">
<title>Node2&#45;&gt;Node4</title>
<g id="a_edge3_Node000002_Node000004"><a xlink:title=" ">
<path fill="none" stroke="#63b8ff" d="M84.05,-110.33C91.16,-102.9 101.57,-92.04 110.31,-82.91"/>
<polygon fill="#63b8ff" stroke="#63b8ff" points="112.58,-85.6 116.97,-75.95 107.53,-80.75 112.58,-85.6"/>
</a>
</g>
</g>
<!-- Node5 -->
<g id="Node000005" class="node">
<title>Node5</title>
<g id="a_Node000005"><a xlink:title=" ">
<polygon fill="#e0e0e0" stroke="#999999" points="113.38,-19.25 17.88,-19.25 17.88,0 113.38,0 113.38,-19.25"/>
<text text-anchor="middle" x="65.62" y="-5.75" font-family="Helvetica,sans-Serif" font-size="10.00">InputParameters.h</text>
</a>
</g>
</g>
<!-- Node4&#45;&gt;Node5 -->
<g id="edge4_Node000004_Node000005" class="edge">
<title>Node4&#45;&gt;Node5</title>
<g id="a_edge4_Node000004_Node000005"><a xlink:title=" ">
<path fill="none" stroke="#63b8ff" d="M116.28,-54.84C107.55,-47.22 94.84,-36.12 84.33,-26.95"/>
<polygon fill="#63b8ff" stroke="#63b8ff" points="86.8,-24.46 76.96,-20.52 82.19,-29.73 86.8,-24.46"/>
</a>
</g>
</g>
<!-- Node6 -->
<g id="Node000006" class="node">
<title>Node6</title>
<g id="a_Node000006"><a xlink:title=" ">
<polygon fill="#e0e0e0" stroke="#999999" points="241.88,-19.25 131.38,-19.25 131.38,0 241.88,0 241.88,-19.25"/>
<text text-anchor="middle" x="186.62" y="-5.75" font-family="Helvetica,sans-Serif" font-size="10.00">MooseVariableBase.h</text>
</a>
</g>
</g>
<!-- Node4&#45;&gt;Node6 -->
<g id="edge5_Node000004_Node000006" class="edge">
<title>Node4&#45;&gt;Node6</title>
<g id="a_edge5_Node000004_Node000006"><a xlink:title=" ">
<path fill="none" stroke="#63b8ff" d="M136.8,-54.84C145.39,-47.22 157.89,-36.12 168.23,-26.95"/>
<polygon fill="#63b8ff" stroke="#63b8ff" points="170.31,-29.79 175.47,-20.53 165.66,-24.55 170.31,-29.79"/>
</a>
</g>
</g>
</g>
</svg>
