<?xml version="1.0" encoding="UTF-8" standalone="no"?>
<!DOCTYPE svg PUBLIC "-//W3C//DTD SVG 1.1//EN"
 "http://www.w3.org/Graphics/SVG/1.1/DTD/svg11.dtd">
<!-- Generated by graphviz version 7.0.5 (20221223.1930)
 -->
<!-- Title: src/postprocessors/IntegralNewVariablePostprocessor.C Pages: 1 -->
<svg width="501pt" height="203pt"
 viewBox="0.00 0.00 501.00 203.00" xmlns="http://www.w3.org/2000/svg" xmlns:xlink="http://www.w3.org/1999/xlink">
<g id="graph0" class="graph" transform="scale(1 1) rotate(0) translate(4 199)">
<title>src/postprocessors/IntegralNewVariablePostprocessor.C</title>
<!-- Node1 -->
<g id="node1" class="node">
<title>Node1</title>
<g id="a_node1"><a xlink:title=" ">
<polygon fill="#999999" stroke="#666666" points="326,-195 147,-195 147,-165 326,-165 326,-195"/>
<text text-anchor="start" x="155" y="-183" font-family="Helvetica,sans-Serif" font-size="10.00">src/postprocessors</text>
<text text-anchor="middle" x="236.5" y="-172" font-family="Helvetica,sans-Serif" font-size="10.00">/IntegralNewVariablePostprocessor.C</text>
</a>
</g>
</g>
<!-- Node2 -->
<g id="node2" class="node">
<title>Node2</title>
<g id="a_node2"><a xlink:href="_integral_new_variable_postprocessor_8h.html" target="_top" xlink:title=" ">
<polygon fill="white" stroke="#666666" points="324,-129 149,-129 149,-110 324,-110 324,-129"/>
<text text-anchor="middle" x="236.5" y="-117" font-family="Helvetica,sans-Serif" font-size="10.00">IntegralNewVariablePostprocessor.h</text>
</a>
</g>
</g>
<!-- Node1&#45;&gt;Node2 -->
<g id="edge1" class="edge">
<title>Node1&#45;&gt;Node2</title>
<path fill="none" stroke="#63b8ff" d="M236.5,-164.54C236.5,-157.34 236.5,-148.53 236.5,-140.68"/>
<polygon fill="#63b8ff" stroke="#63b8ff" points="240,-140.69 236.5,-130.69 233,-140.69 240,-140.69"/>
</g>
<!-- Node3 -->
<g id="node3" class="node">
<title>Node3</title>
<g id="a_node3"><a xlink:title=" ">
<polygon fill="#e0e0e0" stroke="#999999" points="155,-74 0,-74 0,-55 155,-55 155,-74"/>
<text text-anchor="middle" x="77.5" y="-62" font-family="Helvetica,sans-Serif" font-size="10.00">ElementIntegralPostprocessor.h</text>
</a>
</g>
</g>
<!-- Node2&#45;&gt;Node3 -->
<g id="edge2" class="edge">
<title>Node2&#45;&gt;Node3</title>
<path fill="none" stroke="#63b8ff" d="M209.53,-109.51C183.52,-100.84 143.95,-87.65 114.9,-77.97"/>
<polygon fill="#63b8ff" stroke="#63b8ff" points="116.37,-74.77 105.77,-74.92 114.15,-81.41 116.37,-74.77"/>
</g>
<!-- Node4 -->
<g id="node4" class="node">
<title>Node4</title>
<g id="a_node4"><a xlink:title=" ">
<polygon fill="#e0e0e0" stroke="#999999" points="300,-74 173,-74 173,-55 300,-55 300,-74"/>
<text text-anchor="middle" x="236.5" y="-62" font-family="Helvetica,sans-Serif" font-size="10.00">MooseVariableInterface.h</text>
</a>
</g>
</g>
<!-- Node2&#45;&gt;Node4 -->
<g id="edge3" class="edge">
<title>Node2&#45;&gt;Node4</title>
<path fill="none" stroke="#63b8ff" d="M236.5,-109.75C236.5,-103.27 236.5,-94.16 236.5,-85.9"/>
<polygon fill="#63b8ff" stroke="#63b8ff" points="240,-85.96 236.5,-75.96 233,-85.96 240,-85.96"/>
</g>
<!-- Node5 -->
<g id="node5" class="node">
<title>Node5</title>
<g id="a_node5"><a xlink:href="_scalar_transport_base_8h.html" target="_top" xlink:title=" ">
<polygon fill="white" stroke="#666666" points="434.5,-74 318.5,-74 318.5,-55 434.5,-55 434.5,-74"/>
<text text-anchor="middle" x="376.5" y="-62" font-family="Helvetica,sans-Serif" font-size="10.00">ScalarTransportBase.h</text>
</a>
</g>
</g>
<!-- Node2&#45;&gt;Node5 -->
<g id="edge4" class="edge">
<title>Node2&#45;&gt;Node5</title>
<path fill="none" stroke="#63b8ff" d="M260.25,-109.51C282.81,-100.97 316.97,-88.03 342.44,-78.4"/>
<polygon fill="#63b8ff" stroke="#63b8ff" points="343.57,-81.71 351.69,-74.89 341.09,-75.16 343.57,-81.71"/>
</g>
<!-- Node6 -->
<g id="node6" class="node">
<title>Node6</title>
<g id="a_node6"><a xlink:title=" ">
<polygon fill="#e0e0e0" stroke="#999999" points="363.5,-19 267.5,-19 267.5,0 363.5,0 363.5,-19"/>
<text text-anchor="middle" x="315.5" y="-7" font-family="Helvetica,sans-Serif" font-size="10.00">InputParameters.h</text>
</a>
</g>
</g>
<!-- Node5&#45;&gt;Node6 -->
<g id="edge5" class="edge">
<title>Node5&#45;&gt;Node6</title>
<path fill="none" stroke="#63b8ff" d="M366.15,-54.51C357.42,-46.93 344.71,-35.88 334.2,-26.75"/>
<polygon fill="#63b8ff" stroke="#63b8ff" points="336.68,-24.27 326.84,-20.35 332.09,-29.55 336.68,-24.27"/>
</g>
<!-- Node7 -->
<g id="node7" class="node">
<title>Node7</title>
<g id="a_node7"><a xlink:title=" ">
<polygon fill="#e0e0e0" stroke="#999999" points="493,-19 382,-19 382,0 493,0 493,-19"/>
<text text-anchor="middle" x="437.5" y="-7" font-family="Helvetica,sans-Serif" font-size="10.00">MooseVariableBase.h</text>
</a>
</g>
</g>
<!-- Node5&#45;&gt;Node7 -->
<g id="edge6" class="edge">
<title>Node5&#45;&gt;Node7</title>
<path fill="none" stroke="#63b8ff" d="M386.85,-54.51C395.58,-46.93 408.29,-35.88 418.8,-26.75"/>
<polygon fill="#63b8ff" stroke="#63b8ff" points="420.91,-29.55 426.16,-20.35 416.32,-24.27 420.91,-29.55"/>
</g>
</g>
</svg>
