<?xml version="1.0" encoding="UTF-8" standalone="no"?>
<!DOCTYPE svg PUBLIC "-//W3C//DTD SVG 1.1//EN"
 "http://www.w3.org/Graphics/SVG/1.1/DTD/svg11.dtd">
<!-- Generated by graphviz version 12.2.0 (20241103.1931)
 -->
<!-- Title: src/postprocessors/IntegralOldVariablePostprocessor.C Pages: 1 -->
<svg width="440pt" height="204pt"
 viewBox="0.00 0.00 440.12 204.25" xmlns="http://www.w3.org/2000/svg" xmlns:xlink="http://www.w3.org/1999/xlink">
<g id="graph0" class="graph" transform="scale(1 1) rotate(0) translate(4 200.25)">
<title>src/postprocessors/IntegralOldVariablePostprocessor.C</title>
<!-- Node1 -->
<g id="Node000001" class="node">
<title>Node1</title>
<g id="a_Node000001"><a xlink:title=" ">
<polygon fill="#999999" stroke="#666666" points="316.75,-196.25 143.25,-196.25 143.25,-165.75 316.75,-165.75 316.75,-196.25"/>
<text text-anchor="start" x="151.25" y="-182.75" font-family="Helvetica,sans-Serif" font-size="10.00">src/postprocessors</text>
<text text-anchor="middle" x="230" y="-171.5" font-family="Helvetica,sans-Serif" font-size="10.00">/IntegralOldVariablePostprocessor.C</text>
</a>
</g>
</g>
<!-- Node2 -->
<g id="Node000002" class="node">
<title>Node2</title>
<g id="a_Node000002"><a xlink:href="_integral_old_variable_postprocessor_8h.html" target="_top" xlink:title=" ">
<polygon fill="white" stroke="#666666" points="314.5,-129.75 145.5,-129.75 145.5,-110.5 314.5,-110.5 314.5,-129.75"/>
<text text-anchor="middle" x="230" y="-116.25" font-family="Helvetica,sans-Serif" font-size="10.00">IntegralOldVariablePostprocessor.h</text>
</a>
</g>
</g>
<!-- Node1&#45;&gt;Node2 -->
<g id="edge1_Node000001_Node000002" class="edge">
<title>Node1&#45;&gt;Node2</title>
<g id="a_edge1_Node000001_Node000002"><a xlink:title=" ">
<path fill="none" stroke="#63b8ff" d="M230,-165.45C230,-158.21 230,-149.34 230,-141.44"/>
<polygon fill="#63b8ff" stroke="#63b8ff" points="233.5,-141.71 230,-131.71 226.5,-141.71 233.5,-141.71"/>
</a>
</g>
</g>
<!-- Node3 -->
<g id="Node000003" class="node">
<title>Node3</title>
<g id="a_Node000003"><a xlink:title=" ">
<polygon fill="#e0e0e0" stroke="#999999" points="154,-74.5 0,-74.5 0,-55.25 154,-55.25 154,-74.5"/>
<text text-anchor="middle" x="77" y="-61" font-family="Helvetica,sans-Serif" font-size="10.00">ElementIntegralPostprocessor.h</text>
</a>
</g>
</g>
<!-- Node2&#45;&gt;Node3 -->
<g id="edge2_Node000002_Node000003" class="edge">
<title>Node2&#45;&gt;Node3</title>
<g id="a_edge2_Node000002_Node000003"><a xlink:title=" ">
<path fill="none" stroke="#63b8ff" d="M204.05,-110.09C179.21,-101.45 141.5,-88.32 113.62,-78.62"/>
<polygon fill="#63b8ff" stroke="#63b8ff" points="115.11,-75.43 104.51,-75.45 112.81,-82.04 115.11,-75.43"/>
</a>
</g>
</g>
<!-- Node4 -->
<g id="Node000004" class="node">
<title>Node4</title>
<g id="a_Node000004"><a xlink:href="_scalar_transport_base_8h.html" target="_top" xlink:title=" ">
<polygon fill="white" stroke="#666666" points="287.5,-74.5 172.5,-74.5 172.5,-55.25 287.5,-55.25 287.5,-74.5"/>
<text text-anchor="middle" x="230" y="-61" font-family="Helvetica,sans-Serif" font-size="10.00">ScalarTransportBase.h</text>
</a>
</g>
</g>
<!-- Node2&#45;&gt;Node4 -->
<g id="edge3_Node000002_Node000004" class="edge">
<title>Node2&#45;&gt;Node4</title>
<g id="a_edge3_Node000002_Node000004"><a xlink:title=" ">
<path fill="none" stroke="#63b8ff" d="M230,-110.33C230,-103.82 230,-94.67 230,-86.37"/>
<polygon fill="#63b8ff" stroke="#63b8ff" points="233.5,-86.37 230,-76.37 226.5,-86.37 233.5,-86.37"/>
</a>
</g>
</g>
<!-- Node7 -->
<g id="Node000007" class="node">
<title>Node7</title>
<g id="a_Node000007"><a xlink:title=" ">
<polygon fill="#e0e0e0" stroke="#999999" points="432.12,-74.5 305.88,-74.5 305.88,-55.25 432.12,-55.25 432.12,-74.5"/>
<text text-anchor="middle" x="369" y="-61" font-family="Helvetica,sans-Serif" font-size="10.00">MooseVariableInterface.h</text>
</a>
</g>
</g>
<!-- Node2&#45;&gt;Node7 -->
<g id="edge6_Node000002_Node000007" class="edge">
<title>Node2&#45;&gt;Node7</title>
<g id="a_edge6_Node000002_Node000007"><a xlink:title=" ">
<path fill="none" stroke="#63b8ff" d="M253.58,-110.09C275.84,-101.56 309.49,-88.67 334.72,-79.01"/>
<polygon fill="#63b8ff" stroke="#63b8ff" points="335.81,-82.34 343.89,-75.49 333.3,-75.8 335.81,-82.34"/>
</a>
</g>
</g>
<!-- Node5 -->
<g id="Node000005" class="node">
<title>Node5</title>
<g id="a_Node000005"><a xlink:title=" ">
<polygon fill="#e0e0e0" stroke="#999999" points="216.75,-19.25 121.25,-19.25 121.25,0 216.75,0 216.75,-19.25"/>
<text text-anchor="middle" x="169" y="-5.75" font-family="Helvetica,sans-Serif" font-size="10.00">InputParameters.h</text>
</a>
</g>
</g>
<!-- Node4&#45;&gt;Node5 -->
<g id="edge4_Node000004_Node000005" class="edge">
<title>Node4&#45;&gt;Node5</title>
<g id="a_edge4_Node000004_Node000005"><a xlink:title=" ">
<path fill="none" stroke="#63b8ff" d="M219.65,-54.84C210.92,-47.22 198.21,-36.12 187.7,-26.95"/>
<polygon fill="#63b8ff" stroke="#63b8ff" points="190.17,-24.46 180.34,-20.52 185.57,-29.73 190.17,-24.46"/>
</a>
</g>
</g>
<!-- Node6 -->
<g id="Node000006" class="node">
<title>Node6</title>
<g id="a_Node000006"><a xlink:title=" ">
<polygon fill="#e0e0e0" stroke="#999999" points="345.25,-19.25 234.75,-19.25 234.75,0 345.25,0 345.25,-19.25"/>
<text text-anchor="middle" x="290" y="-5.75" font-family="Helvetica,sans-Serif" font-size="10.00">MooseVariableBase.h</text>
</a>
</g>
</g>
<!-- Node4&#45;&gt;Node6 -->
<g id="edge5_Node000004_Node000006" class="edge">
<title>Node4&#45;&gt;Node6</title>
<g id="a_edge5_Node000004_Node000006"><a xlink:title=" ">
<path fill="none" stroke="#63b8ff" d="M240.18,-54.84C248.76,-47.22 261.27,-36.12 271.6,-26.95"/>
<polygon fill="#63b8ff" stroke="#63b8ff" points="273.68,-29.79 278.84,-20.53 269.04,-24.55 273.68,-29.79"/>
</a>
</g>
</g>
</g>
</svg>
