<?xml version="1.0" encoding="UTF-8" standalone="no"?>
<!DOCTYPE svg PUBLIC "-//W3C//DTD SVG 1.1//EN"
 "http://www.w3.org/Graphics/SVG/1.1/DTD/svg11.dtd">
<!-- Generated by graphviz version 3.0.0 (20220413.0242)
 -->
<!-- Title: include/postprocessors/IntegralNewVariablePostprocessor.h Pages: 1 -->
<svg width="501pt" height="151pt"
 viewBox="0.00 0.00 501.00 151.00" xmlns="http://www.w3.org/2000/svg" xmlns:xlink="http://www.w3.org/1999/xlink">
<g id="graph0" class="graph" transform="scale(1 1) rotate(0) translate(4 147)">
<title>include/postprocessors/IntegralNewVariablePostprocessor.h</title>
<polygon fill="white" stroke="transparent" points="-4,4 -4,-147 497,-147 497,4 -4,4"/>
<!-- Node1 -->
<g id="node1" class="node">
<title>Node1</title>
<g id="a_node1"><a xlink:title=" ">
<polygon fill="#bfbfbf" stroke="black" points="147.5,-112.5 147.5,-142.5 325.5,-142.5 325.5,-112.5 147.5,-112.5"/>
<text text-anchor="start" x="155.5" y="-130.5" font-family="Helvetica,sans-Serif" font-size="10.00">include/postprocessors</text>
<text text-anchor="middle" x="236.5" y="-119.5" font-family="Helvetica,sans-Serif" font-size="10.00">/IntegralNewVariablePostprocessor.h</text>
</a>
</g>
</g>
<!-- Node2 -->
<g id="node2" class="node">
<title>Node2</title>
<g id="a_node2"><a xlink:title=" ">
<polygon fill="white" stroke="#bfbfbf" points="0,-56.5 0,-75.5 155,-75.5 155,-56.5 0,-56.5"/>
<text text-anchor="middle" x="77.5" y="-63.5" font-family="Helvetica,sans-Serif" font-size="10.00">ElementIntegralPostprocessor.h</text>
</a>
</g>
</g>
<!-- Node1&#45;&gt;Node2 -->
<g id="edge1" class="edge">
<title>Node1&#45;&gt;Node2</title>
<path fill="none" stroke="midnightblue" d="M198.82,-112.4C171.9,-102.33 136.05,-88.91 110.31,-79.28"/>
<polygon fill="midnightblue" stroke="midnightblue" points="111.23,-75.88 100.64,-75.66 108.77,-82.44 111.23,-75.88"/>
</g>
<!-- Node3 -->
<g id="node3" class="node">
<title>Node3</title>
<g id="a_node3"><a xlink:title=" ">
<polygon fill="white" stroke="#bfbfbf" points="173,-56.5 173,-75.5 300,-75.5 300,-56.5 173,-56.5"/>
<text text-anchor="middle" x="236.5" y="-63.5" font-family="Helvetica,sans-Serif" font-size="10.00">MooseVariableInterface.h</text>
</a>
</g>
</g>
<!-- Node1&#45;&gt;Node3 -->
<g id="edge2" class="edge">
<title>Node1&#45;&gt;Node3</title>
<path fill="none" stroke="midnightblue" d="M236.5,-112.4C236.5,-104.47 236.5,-94.46 236.5,-85.86"/>
<polygon fill="midnightblue" stroke="midnightblue" points="240,-85.66 236.5,-75.66 233,-85.66 240,-85.66"/>
</g>
<!-- Node4 -->
<g id="node4" class="node">
<title>Node4</title>
<g id="a_node4"><a xlink:href="_scalar_transport_base_8h.html" target="_top" xlink:title=" ">
<polygon fill="white" stroke="black" points="318.5,-56.5 318.5,-75.5 434.5,-75.5 434.5,-56.5 318.5,-56.5"/>
<text text-anchor="middle" x="376.5" y="-63.5" font-family="Helvetica,sans-Serif" font-size="10.00">ScalarTransportBase.h</text>
</a>
</g>
</g>
<!-- Node1&#45;&gt;Node4 -->
<g id="edge3" class="edge">
<title>Node1&#45;&gt;Node4</title>
<path fill="none" stroke="midnightblue" d="M269.68,-112.4C293.06,-102.46 324.11,-89.26 346.71,-79.66"/>
<polygon fill="midnightblue" stroke="midnightblue" points="348.29,-82.79 356.13,-75.66 345.56,-76.35 348.29,-82.79"/>
</g>
<!-- Node5 -->
<g id="node5" class="node">
<title>Node5</title>
<g id="a_node5"><a xlink:title=" ">
<polygon fill="white" stroke="#bfbfbf" points="267.5,-0.5 267.5,-19.5 363.5,-19.5 363.5,-0.5 267.5,-0.5"/>
<text text-anchor="middle" x="315.5" y="-7.5" font-family="Helvetica,sans-Serif" font-size="10.00">InputParameters.h</text>
</a>
</g>
</g>
<!-- Node4&#45;&gt;Node5 -->
<g id="edge4" class="edge">
<title>Node4&#45;&gt;Node5</title>
<path fill="none" stroke="midnightblue" d="M366.7,-56.32C357.68,-48.34 344.09,-36.31 333.18,-26.65"/>
<polygon fill="midnightblue" stroke="midnightblue" points="335.29,-23.84 325.48,-19.83 330.65,-29.08 335.29,-23.84"/>
</g>
<!-- Node6 -->
<g id="node6" class="node">
<title>Node6</title>
<g id="a_node6"><a xlink:title=" ">
<polygon fill="white" stroke="#bfbfbf" points="382,-0.5 382,-19.5 493,-19.5 493,-0.5 382,-0.5"/>
<text text-anchor="middle" x="437.5" y="-7.5" font-family="Helvetica,sans-Serif" font-size="10.00">MooseVariableBase.h</text>
</a>
</g>
</g>
<!-- Node4&#45;&gt;Node6 -->
<g id="edge5" class="edge">
<title>Node4&#45;&gt;Node6</title>
<path fill="none" stroke="midnightblue" d="M386.3,-56.32C395.32,-48.34 408.91,-36.31 419.82,-26.65"/>
<polygon fill="midnightblue" stroke="midnightblue" points="422.35,-29.08 427.52,-19.83 417.71,-23.84 422.35,-29.08"/>
</g>
</g>
</svg>
