<?xml version="1.0" encoding="UTF-8" standalone="no"?>
<!DOCTYPE svg PUBLIC "-//W3C//DTD SVG 1.1//EN"
 "http://www.w3.org/Graphics/SVG/1.1/DTD/svg11.dtd">
<!-- Generated by graphviz version 9.0.0 (20230911.1827)
 -->
<!-- Title: include/postprocessors/IntegralNewVariablePostprocessor.h Pages: 1 -->
<svg width="497pt" height="149pt"
 viewBox="0.00 0.00 497.25 149.00" xmlns="http://www.w3.org/2000/svg" xmlns:xlink="http://www.w3.org/1999/xlink">
<g id="graph0" class="graph" transform="scale(1 1) rotate(0) translate(4 145)">
<title>include/postprocessors/IntegralNewVariablePostprocessor.h</title>
<!-- Node1 -->
<g id="Node000001" class="node">
<title>Node1</title>
<g id="a_Node000001"><a xlink:title=" ">
<polygon fill="#999999" stroke="#666666" points="323.62,-141 146.38,-141 146.38,-110.5 323.62,-110.5 323.62,-141"/>
<text text-anchor="start" x="154.38" y="-127.5" font-family="Helvetica,sans-Serif" font-size="10.00">include/postprocessors</text>
<text text-anchor="middle" x="235" y="-116.25" font-family="Helvetica,sans-Serif" font-size="10.00">/IntegralNewVariablePostprocessor.h</text>
</a>
</g>
</g>
<!-- Node2 -->
<g id="Node000002" class="node">
<title>Node2</title>
<g id="a_Node000002"><a xlink:title=" ">
<polygon fill="#e0e0e0" stroke="#999999" points="154,-74.5 0,-74.5 0,-55.25 154,-55.25 154,-74.5"/>
<text text-anchor="middle" x="77" y="-61" font-family="Helvetica,sans-Serif" font-size="10.00">ElementIntegralPostprocessor.h</text>
</a>
</g>
</g>
<!-- Node1&#45;&gt;Node2 -->
<g id="edge1_Node000001_Node000002" class="edge">
<title>Node1&#45;&gt;Node2</title>
<g id="a_edge1_Node000001_Node000002"><a xlink:title=" ">
<path fill="none" stroke="#63b8ff" d="M195.54,-110.05C169.86,-100.48 136.66,-88.11 111.94,-78.89"/>
<polygon fill="#63b8ff" stroke="#63b8ff" points="113.24,-75.64 102.65,-75.43 110.8,-82.2 113.24,-75.64"/>
</a>
</g>
</g>
<!-- Node3 -->
<g id="Node000003" class="node">
<title>Node3</title>
<g id="a_Node000003"><a xlink:title=" ">
<polygon fill="#e0e0e0" stroke="#999999" points="298.12,-74.5 171.88,-74.5 171.88,-55.25 298.12,-55.25 298.12,-74.5"/>
<text text-anchor="middle" x="235" y="-61" font-family="Helvetica,sans-Serif" font-size="10.00">MooseVariableInterface.h</text>
</a>
</g>
</g>
<!-- Node1&#45;&gt;Node3 -->
<g id="edge2_Node000001_Node000003" class="edge">
<title>Node1&#45;&gt;Node3</title>
<g id="a_edge2_Node000001_Node000003"><a xlink:title=" ">
<path fill="none" stroke="#63b8ff" d="M235,-110.2C235,-102.96 235,-94.09 235,-86.19"/>
<polygon fill="#63b8ff" stroke="#63b8ff" points="238.5,-86.46 235,-76.46 231.5,-86.46 238.5,-86.46"/>
</a>
</g>
</g>
<!-- Node4 -->
<g id="Node000004" class="node">
<title>Node4</title>
<g id="a_Node000004"><a xlink:href="_scalar_transport_base_8h.html" target="_top" xlink:title=" ">
<polygon fill="white" stroke="#666666" points="431.5,-74.5 316.5,-74.5 316.5,-55.25 431.5,-55.25 431.5,-74.5"/>
<text text-anchor="middle" x="374" y="-61" font-family="Helvetica,sans-Serif" font-size="10.00">ScalarTransportBase.h</text>
</a>
</g>
</g>
<!-- Node1&#45;&gt;Node4 -->
<g id="edge3_Node000001_Node000004" class="edge">
<title>Node1&#45;&gt;Node4</title>
<g id="a_edge3_Node000001_Node000004"><a xlink:title=" ">
<path fill="none" stroke="#63b8ff" d="M269.72,-110.05C292,-100.6 320.72,-88.44 342.38,-79.27"/>
<polygon fill="#63b8ff" stroke="#63b8ff" points="343.45,-82.62 351.29,-75.49 340.72,-76.17 343.45,-82.62"/>
</a>
</g>
</g>
<!-- Node5 -->
<g id="Node000005" class="node">
<title>Node5</title>
<g id="a_Node000005"><a xlink:title=" ">
<polygon fill="#e0e0e0" stroke="#999999" points="360.75,-19.25 265.25,-19.25 265.25,0 360.75,0 360.75,-19.25"/>
<text text-anchor="middle" x="313" y="-5.75" font-family="Helvetica,sans-Serif" font-size="10.00">InputParameters.h</text>
</a>
</g>
</g>
<!-- Node4&#45;&gt;Node5 -->
<g id="edge4_Node000004_Node000005" class="edge">
<title>Node4&#45;&gt;Node5</title>
<g id="a_edge4_Node000004_Node000005"><a xlink:title=" ">
<path fill="none" stroke="#63b8ff" d="M363.65,-54.84C354.92,-47.22 342.21,-36.12 331.7,-26.95"/>
<polygon fill="#63b8ff" stroke="#63b8ff" points="334.17,-24.46 324.34,-20.52 329.57,-29.73 334.17,-24.46"/>
</a>
</g>
</g>
<!-- Node6 -->
<g id="Node000006" class="node">
<title>Node6</title>
<g id="a_Node000006"><a xlink:title=" ">
<polygon fill="#e0e0e0" stroke="#999999" points="489.25,-19.25 378.75,-19.25 378.75,0 489.25,0 489.25,-19.25"/>
<text text-anchor="middle" x="434" y="-5.75" font-family="Helvetica,sans-Serif" font-size="10.00">MooseVariableBase.h</text>
</a>
</g>
</g>
<!-- Node4&#45;&gt;Node6 -->
<g id="edge5_Node000004_Node000006" class="edge">
<title>Node4&#45;&gt;Node6</title>
<g id="a_edge5_Node000004_Node000006"><a xlink:title=" ">
<path fill="none" stroke="#63b8ff" d="M384.18,-54.84C392.76,-47.22 405.27,-36.12 415.6,-26.95"/>
<polygon fill="#63b8ff" stroke="#63b8ff" points="417.68,-29.79 422.84,-20.53 413.04,-24.55 417.68,-29.79"/>
</a>
</g>
</g>
</g>
</svg>
