<?xml version="1.0" encoding="UTF-8" standalone="no"?>
<!DOCTYPE svg PUBLIC "-//W3C//DTD SVG 1.1//EN"
 "http://www.w3.org/Graphics/SVG/1.1/DTD/svg11.dtd">
<!-- Generated by graphviz version 7.0.5 (20221223.1930)
 -->
<!-- Title: src/postprocessors/LimitK.C Pages: 1 -->
<svg width="167pt" height="148pt"
 viewBox="0.00 0.00 166.50 148.00" xmlns="http://www.w3.org/2000/svg" xmlns:xlink="http://www.w3.org/1999/xlink">
<g id="graph0" class="graph" transform="scale(1 1) rotate(0) translate(4 144)">
<title>src/postprocessors/LimitK.C</title>
<!-- Node1 -->
<g id="node1" class="node">
<title>Node1</title>
<g id="a_node1"><a xlink:title=" ">
<polygon fill="#999999" stroke="#666666" points="131.5,-140 31.5,-140 31.5,-110 131.5,-110 131.5,-140"/>
<text text-anchor="start" x="39.5" y="-128" font-family="Helvetica,sans-Serif" font-size="10.00">src/postprocessors</text>
<text text-anchor="middle" x="81.5" y="-117" font-family="Helvetica,sans-Serif" font-size="10.00">/LimitK.C</text>
</a>
</g>
</g>
<!-- Node2 -->
<g id="node2" class="node">
<title>Node2</title>
<g id="a_node2"><a xlink:href="_limit_k_8h.html" target="_top" xlink:title=" ">
<polygon fill="white" stroke="#666666" points="68,-74 15,-74 15,-55 68,-55 68,-74"/>
<text text-anchor="middle" x="41.5" y="-62" font-family="Helvetica,sans-Serif" font-size="10.00">LimitK.h</text>
</a>
</g>
</g>
<!-- Node1&#45;&gt;Node2 -->
<g id="edge1" class="edge">
<title>Node1&#45;&gt;Node2</title>
<path fill="none" stroke="#63b8ff" d="M71.61,-109.54C66.22,-101.65 59.49,-91.81 53.76,-83.44"/>
<polygon fill="#63b8ff" stroke="#63b8ff" points="56.82,-81.7 48.29,-75.42 51.04,-85.65 56.82,-81.7"/>
</g>
<!-- Node4 -->
<g id="node4" class="node">
<title>Node4</title>
<g id="a_node4"><a xlink:title=" ">
<polygon fill="#e0e0e0" stroke="#999999" points="158.5,-74 86.5,-74 86.5,-55 158.5,-55 158.5,-74"/>
<text text-anchor="middle" x="122.5" y="-62" font-family="Helvetica,sans-Serif" font-size="10.00">FEProblem.h</text>
</a>
</g>
</g>
<!-- Node1&#45;&gt;Node4 -->
<g id="edge3" class="edge">
<title>Node1&#45;&gt;Node4</title>
<path fill="none" stroke="#63b8ff" d="M91.63,-109.54C97.16,-101.65 104.06,-91.81 109.93,-83.44"/>
<polygon fill="#63b8ff" stroke="#63b8ff" points="112.68,-85.61 115.55,-75.41 106.95,-81.59 112.68,-85.61"/>
</g>
<!-- Node3 -->
<g id="node3" class="node">
<title>Node3</title>
<g id="a_node3"><a xlink:title=" ">
<polygon fill="#e0e0e0" stroke="#999999" points="83,-19 0,-19 0,0 83,0 83,-19"/>
<text text-anchor="middle" x="41.5" y="-7" font-family="Helvetica,sans-Serif" font-size="10.00">TimestepSize.h</text>
</a>
</g>
</g>
<!-- Node2&#45;&gt;Node3 -->
<g id="edge2" class="edge">
<title>Node2&#45;&gt;Node3</title>
<path fill="none" stroke="#63b8ff" d="M41.5,-54.75C41.5,-48.27 41.5,-39.16 41.5,-30.9"/>
<polygon fill="#63b8ff" stroke="#63b8ff" points="45,-30.96 41.5,-20.96 38,-30.96 45,-30.96"/>
</g>
</g>
</svg>
