<?xml version="1.0" encoding="UTF-8" standalone="no"?>
<!DOCTYPE svg PUBLIC "-//W3C//DTD SVG 1.1//EN"
 "http://www.w3.org/Graphics/SVG/1.1/DTD/svg11.dtd">
<!-- Generated by graphviz version 12.2.0 (20241103.1931)
 -->
<!-- Title: src/postprocessors/LimitK.C Pages: 1 -->
<svg width="165pt" height="149pt"
 viewBox="0.00 0.00 165.12 149.00" xmlns="http://www.w3.org/2000/svg" xmlns:xlink="http://www.w3.org/1999/xlink">
<g id="graph0" class="graph" transform="scale(1 1) rotate(0) translate(4 145)">
<title>src/postprocessors/LimitK.C</title>
<!-- Node1 -->
<g id="Node000001" class="node">
<title>Node1</title>
<g id="a_Node000001"><a xlink:title=" ">
<polygon fill="#999999" stroke="#666666" points="131,-141 31.75,-141 31.75,-110.5 131,-110.5 131,-141"/>
<text text-anchor="start" x="39.75" y="-127.5" font-family="Helvetica,sans-Serif" font-size="10.00">src/postprocessors</text>
<text text-anchor="middle" x="81.38" y="-116.25" font-family="Helvetica,sans-Serif" font-size="10.00">/LimitK.C</text>
</a>
</g>
</g>
<!-- Node2 -->
<g id="Node000002" class="node">
<title>Node2</title>
<g id="a_Node000002"><a xlink:href="_limit_k_8h.html" target="_top" xlink:title=" ">
<polygon fill="white" stroke="#666666" points="67.38,-74.5 15.38,-74.5 15.38,-55.25 67.38,-55.25 67.38,-74.5"/>
<text text-anchor="middle" x="41.38" y="-61" font-family="Helvetica,sans-Serif" font-size="10.00">LimitK.h</text>
</a>
</g>
</g>
<!-- Node1&#45;&gt;Node2 -->
<g id="edge1_Node000001_Node000002" class="edge">
<title>Node1&#45;&gt;Node2</title>
<g id="a_edge1_Node000001_Node000002"><a xlink:title=" ">
<path fill="none" stroke="#63b8ff" d="M71.49,-110.2C66.16,-102.35 59.53,-92.6 53.85,-84.24"/>
<polygon fill="#63b8ff" stroke="#63b8ff" points="56.91,-82.51 48.39,-76.2 51.12,-86.44 56.91,-82.51"/>
</a>
</g>
</g>
<!-- Node4 -->
<g id="Node000004" class="node">
<title>Node4</title>
<g id="a_Node000004"><a xlink:title=" ">
<polygon fill="#e0e0e0" stroke="#999999" points="157.12,-74.5 85.62,-74.5 85.62,-55.25 157.12,-55.25 157.12,-74.5"/>
<text text-anchor="middle" x="121.38" y="-61" font-family="Helvetica,sans-Serif" font-size="10.00">FEProblem.h</text>
</a>
</g>
</g>
<!-- Node1&#45;&gt;Node4 -->
<g id="edge3_Node000001_Node000004" class="edge">
<title>Node1&#45;&gt;Node4</title>
<g id="a_edge3_Node000001_Node000004"><a xlink:title=" ">
<path fill="none" stroke="#63b8ff" d="M91.26,-110.2C96.59,-102.35 103.22,-92.6 108.9,-84.24"/>
<polygon fill="#63b8ff" stroke="#63b8ff" points="111.63,-86.44 114.36,-76.2 105.84,-82.51 111.63,-86.44"/>
</a>
</g>
</g>
<!-- Node3 -->
<g id="Node000003" class="node">
<title>Node3</title>
<g id="a_Node000003"><a xlink:title=" ">
<polygon fill="#e0e0e0" stroke="#999999" points="82.75,-19.25 0,-19.25 0,0 82.75,0 82.75,-19.25"/>
<text text-anchor="middle" x="41.38" y="-5.75" font-family="Helvetica,sans-Serif" font-size="10.00">TimestepSize.h</text>
</a>
</g>
</g>
<!-- Node2&#45;&gt;Node3 -->
<g id="edge2_Node000002_Node000003" class="edge">
<title>Node2&#45;&gt;Node3</title>
<g id="a_edge2_Node000002_Node000003"><a xlink:title=" ">
<path fill="none" stroke="#63b8ff" d="M41.38,-55.08C41.38,-48.57 41.38,-39.42 41.38,-31.12"/>
<polygon fill="#63b8ff" stroke="#63b8ff" points="44.88,-31.12 41.38,-21.12 37.88,-31.12 44.88,-31.12"/>
</a>
</g>
</g>
</g>
</svg>
