<?xml version="1.0" encoding="UTF-8" standalone="no"?>
<!DOCTYPE svg PUBLIC "-//W3C//DTD SVG 1.1//EN"
 "http://www.w3.org/Graphics/SVG/1.1/DTD/svg11.dtd">
<!-- Generated by graphviz version 7.0.4 (20221203.1631)
 -->
<!-- Title: src/bcs/LinLogPenaltyDirichletBC.C Pages: 1 -->
<svg width="282pt" height="192pt"
 viewBox="0.00 0.00 282.00 192.00" xmlns="http://www.w3.org/2000/svg" xmlns:xlink="http://www.w3.org/1999/xlink">
<g id="graph0" class="graph" transform="scale(1 1) rotate(0) translate(4 188)">
<title>src/bcs/LinLogPenaltyDirichletBC.C</title>
<!-- Node1 -->
<g id="node1" class="node">
<title>Node1</title>
<g id="a_node1"><a xlink:title=" ">
<polygon fill="#999999" stroke="#666666" points="242.5,-184 70.5,-184 70.5,-165 242.5,-165 242.5,-184"/>
<text text-anchor="middle" x="156.5" y="-172" font-family="Helvetica,sans-Serif" font-size="10.00">src/bcs/LinLogPenaltyDirichletBC.C</text>
</a>
</g>
</g>
<!-- Node2 -->
<g id="node2" class="node">
<title>Node2</title>
<g id="a_node2"><a xlink:href="_lin_log_penalty_dirichlet_b_c_8h.html" target="_top" xlink:title=" ">
<polygon fill="white" stroke="#666666" points="166,-129 31,-129 31,-110 166,-110 166,-129"/>
<text text-anchor="middle" x="98.5" y="-117" font-family="Helvetica,sans-Serif" font-size="10.00">LinLogPenaltyDirichletBC.h</text>
</a>
</g>
</g>
<!-- Node1&#45;&gt;Node2 -->
<g id="edge1" class="edge">
<title>Node1&#45;&gt;Node2</title>
<path fill="none" stroke="#63b8ff" d="M146.66,-164.51C138.45,-157 126.52,-146.1 116.59,-137.03"/>
<polygon fill="#63b8ff" stroke="#63b8ff" points="119.05,-134.54 109.31,-130.38 114.33,-139.71 119.05,-134.54"/>
</g>
<!-- Node7 -->
<g id="node7" class="node">
<title>Node7</title>
<g id="a_node7"><a xlink:title=" ">
<polygon fill="#e0e0e0" stroke="#999999" points="246.5,-129 184.5,-129 184.5,-110 246.5,-110 246.5,-129"/>
<text text-anchor="middle" x="215.5" y="-117" font-family="Helvetica,sans-Serif" font-size="10.00">Function.h</text>
</a>
</g>
</g>
<!-- Node1&#45;&gt;Node7 -->
<g id="edge6" class="edge">
<title>Node1&#45;&gt;Node7</title>
<path fill="none" stroke="#63b8ff" d="M166.51,-164.51C174.87,-157 187,-146.1 197.1,-137.03"/>
<polygon fill="#63b8ff" stroke="#63b8ff" points="199.41,-139.66 204.51,-130.37 194.74,-134.45 199.41,-139.66"/>
</g>
<!-- Node3 -->
<g id="node3" class="node">
<title>Node3</title>
<g id="a_node3"><a xlink:title=" ">
<polygon fill="#e0e0e0" stroke="#999999" points="81,-74 0,-74 0,-55 81,-55 81,-74"/>
<text text-anchor="middle" x="40.5" y="-62" font-family="Helvetica,sans-Serif" font-size="10.00">IntegratedBC.h</text>
</a>
</g>
</g>
<!-- Node2&#45;&gt;Node3 -->
<g id="edge2" class="edge">
<title>Node2&#45;&gt;Node3</title>
<path fill="none" stroke="#63b8ff" d="M88.66,-109.51C80.45,-102 68.52,-91.1 58.59,-82.03"/>
<polygon fill="#63b8ff" stroke="#63b8ff" points="61.05,-79.54 51.31,-75.38 56.33,-84.71 61.05,-79.54"/>
</g>
<!-- Node4 -->
<g id="node4" class="node">
<title>Node4</title>
<g id="a_node4"><a xlink:href="_scalar_transport_base_8h.html" target="_top" xlink:title=" ">
<polygon fill="white" stroke="#666666" points="215.5,-74 99.5,-74 99.5,-55 215.5,-55 215.5,-74"/>
<text text-anchor="middle" x="157.5" y="-62" font-family="Helvetica,sans-Serif" font-size="10.00">ScalarTransportBase.h</text>
</a>
</g>
</g>
<!-- Node2&#45;&gt;Node4 -->
<g id="edge3" class="edge">
<title>Node2&#45;&gt;Node4</title>
<path fill="none" stroke="#63b8ff" d="M108.51,-109.51C116.87,-102 129,-91.1 139.1,-82.03"/>
<polygon fill="#63b8ff" stroke="#63b8ff" points="141.41,-84.66 146.51,-75.37 136.74,-79.45 141.41,-84.66"/>
</g>
<!-- Node5 -->
<g id="node5" class="node">
<title>Node5</title>
<g id="a_node5"><a xlink:title=" ">
<polygon fill="#e0e0e0" stroke="#999999" points="144.5,-19 48.5,-19 48.5,0 144.5,0 144.5,-19"/>
<text text-anchor="middle" x="96.5" y="-7" font-family="Helvetica,sans-Serif" font-size="10.00">InputParameters.h</text>
</a>
</g>
</g>
<!-- Node4&#45;&gt;Node5 -->
<g id="edge4" class="edge">
<title>Node4&#45;&gt;Node5</title>
<path fill="none" stroke="#63b8ff" d="M147.15,-54.51C138.42,-46.93 125.71,-35.88 115.2,-26.75"/>
<polygon fill="#63b8ff" stroke="#63b8ff" points="117.68,-24.27 107.84,-20.35 113.09,-29.55 117.68,-24.27"/>
</g>
<!-- Node6 -->
<g id="node6" class="node">
<title>Node6</title>
<g id="a_node6"><a xlink:title=" ">
<polygon fill="#e0e0e0" stroke="#999999" points="274,-19 163,-19 163,0 274,0 274,-19"/>
<text text-anchor="middle" x="218.5" y="-7" font-family="Helvetica,sans-Serif" font-size="10.00">MooseVariableBase.h</text>
</a>
</g>
</g>
<!-- Node4&#45;&gt;Node6 -->
<g id="edge5" class="edge">
<title>Node4&#45;&gt;Node6</title>
<path fill="none" stroke="#63b8ff" d="M167.85,-54.51C176.58,-46.93 189.29,-35.88 199.8,-26.75"/>
<polygon fill="#63b8ff" stroke="#63b8ff" points="201.91,-29.55 207.16,-20.35 197.32,-24.27 201.91,-29.55"/>
</g>
</g>
</svg>
