<?xml version="1.0" encoding="UTF-8" standalone="no"?>
<!DOCTYPE svg PUBLIC "-//W3C//DTD SVG 1.1//EN"
 "http://www.w3.org/Graphics/SVG/1.1/DTD/svg11.dtd">
<!-- Generated by graphviz version 7.0.4 (20221203.1631)
 -->
<!-- Title: include/auxkernels/MatDiffusionAux.h Pages: 1 -->
<svg width="190pt" height="93pt"
 viewBox="0.00 0.00 189.50 93.00" xmlns="http://www.w3.org/2000/svg" xmlns:xlink="http://www.w3.org/1999/xlink">
<g id="graph0" class="graph" transform="scale(1 1) rotate(0) translate(4 89)">
<title>include/auxkernels/MatDiffusionAux.h</title>
<!-- Node1 -->
<g id="node1" class="node">
<title>Node1</title>
<g id="a_node1"><a xlink:title=" ">
<polygon fill="#999999" stroke="#666666" points="133,-85 35,-85 35,-55 133,-55 133,-85"/>
<text text-anchor="start" x="43" y="-73" font-family="Helvetica,sans-Serif" font-size="10.00">include/auxkernels</text>
<text text-anchor="middle" x="84" y="-62" font-family="Helvetica,sans-Serif" font-size="10.00">/MatDiffusionAux.h</text>
</a>
</g>
</g>
<!-- Node2 -->
<g id="node2" class="node">
<title>Node2</title>
<g id="a_node2"><a xlink:title=" ">
<polygon fill="#e0e0e0" stroke="#999999" points="68,-19 0,-19 0,0 68,0 68,-19"/>
<text text-anchor="middle" x="34" y="-7" font-family="Helvetica,sans-Serif" font-size="10.00">AuxKernel.h</text>
</a>
</g>
</g>
<!-- Node1&#45;&gt;Node2 -->
<g id="edge1" class="edge">
<title>Node1&#45;&gt;Node2</title>
<path fill="none" stroke="#63b8ff" d="M71.64,-54.54C64.75,-46.48 56.12,-36.38 48.86,-27.89"/>
<polygon fill="#63b8ff" stroke="#63b8ff" points="51.56,-25.65 42.4,-20.33 46.23,-30.2 51.56,-25.65"/>
</g>
<!-- Node3 -->
<g id="node3" class="node">
<title>Node3</title>
<g id="a_node3"><a xlink:title=" ">
<polygon fill="#e0e0e0" stroke="#999999" points="181.5,-19 86.5,-19 86.5,0 181.5,0 181.5,-19"/>
<text text-anchor="middle" x="134" y="-7" font-family="Helvetica,sans-Serif" font-size="10.00">MaterialProperty.h</text>
</a>
</g>
</g>
<!-- Node1&#45;&gt;Node3 -->
<g id="edge2" class="edge">
<title>Node1&#45;&gt;Node3</title>
<path fill="none" stroke="#63b8ff" d="M96.36,-54.54C103.25,-46.48 111.88,-36.38 119.14,-27.89"/>
<polygon fill="#63b8ff" stroke="#63b8ff" points="121.77,-30.2 125.6,-20.33 116.44,-25.65 121.77,-30.2"/>
</g>
</g>
</svg>
