<?xml version="1.0" encoding="UTF-8" standalone="no"?>
<!DOCTYPE svg PUBLIC "-//W3C//DTD SVG 1.1//EN"
 "http://www.w3.org/Graphics/SVG/1.1/DTD/svg11.dtd">
<!-- Generated by graphviz version 9.0.0 (20230911.1827)
 -->
<!-- Title: src/auxkernels/MatDiffusionAux.C Pages: 1 -->
<svg width="188pt" height="149pt"
 viewBox="0.00 0.00 187.88 149.00" xmlns="http://www.w3.org/2000/svg" xmlns:xlink="http://www.w3.org/1999/xlink">
<g id="graph0" class="graph" transform="scale(1 1) rotate(0) translate(4 145)">
<title>src/auxkernels/MatDiffusionAux.C</title>
<!-- Node1 -->
<g id="Node000001" class="node">
<title>Node1</title>
<g id="a_Node000001"><a xlink:title=" ">
<polygon fill="#999999" stroke="#666666" points="150.88,-141 14.88,-141 14.88,-110.5 150.88,-110.5 150.88,-141"/>
<text text-anchor="start" x="22.88" y="-127.5" font-family="Helvetica,sans-Serif" font-size="10.00">src/auxkernels/MatDiffusion</text>
<text text-anchor="middle" x="82.88" y="-116.25" font-family="Helvetica,sans-Serif" font-size="10.00">Aux.C</text>
</a>
</g>
</g>
<!-- Node2 -->
<g id="Node000002" class="node">
<title>Node2</title>
<g id="a_Node000002"><a xlink:href="_mat_diffusion_aux_8h.html" target="_top" xlink:title=" ">
<polygon fill="white" stroke="#666666" points="129.88,-74.5 35.87,-74.5 35.87,-55.25 129.88,-55.25 129.88,-74.5"/>
<text text-anchor="middle" x="82.88" y="-61" font-family="Helvetica,sans-Serif" font-size="10.00">MatDiffusionAux.h</text>
</a>
</g>
</g>
<!-- Node1&#45;&gt;Node2 -->
<g id="edge1_Node000001_Node000002" class="edge">
<title>Node1&#45;&gt;Node2</title>
<g id="a_edge1_Node000001_Node000002"><a xlink:title=" ">
<path fill="none" stroke="#63b8ff" d="M82.88,-110.2C82.88,-102.96 82.88,-94.09 82.88,-86.19"/>
<polygon fill="#63b8ff" stroke="#63b8ff" points="86.38,-86.46 82.88,-76.46 79.38,-86.46 86.38,-86.46"/>
</a>
</g>
</g>
<!-- Node3 -->
<g id="Node000003" class="node">
<title>Node3</title>
<g id="a_Node000003"><a xlink:title=" ">
<polygon fill="#e0e0e0" stroke="#999999" points="67.75,-19.25 0,-19.25 0,0 67.75,0 67.75,-19.25"/>
<text text-anchor="middle" x="33.88" y="-5.75" font-family="Helvetica,sans-Serif" font-size="10.00">AuxKernel.h</text>
</a>
</g>
</g>
<!-- Node2&#45;&gt;Node3 -->
<g id="edge2_Node000002_Node000003" class="edge">
<title>Node2&#45;&gt;Node3</title>
<g id="a_edge2_Node000002_Node000003"><a xlink:title=" ">
<path fill="none" stroke="#63b8ff" d="M74.78,-55.08C68.02,-47.73 58.15,-37.01 49.81,-27.94"/>
<polygon fill="#63b8ff" stroke="#63b8ff" points="52.51,-25.71 43.17,-20.72 47.36,-30.45 52.51,-25.71"/>
</a>
</g>
</g>
<!-- Node4 -->
<g id="Node000004" class="node">
<title>Node4</title>
<g id="a_Node000004"><a xlink:title=" ">
<polygon fill="#e0e0e0" stroke="#999999" points="179.88,-19.25 85.88,-19.25 85.88,0 179.88,0 179.88,-19.25"/>
<text text-anchor="middle" x="132.88" y="-5.75" font-family="Helvetica,sans-Serif" font-size="10.00">MaterialProperty.h</text>
</a>
</g>
</g>
<!-- Node2&#45;&gt;Node4 -->
<g id="edge3_Node000002_Node000004" class="edge">
<title>Node2&#45;&gt;Node4</title>
<g id="a_edge3_Node000002_Node000004"><a xlink:title=" ">
<path fill="none" stroke="#63b8ff" d="M91.13,-55.08C98.04,-47.73 108.1,-37.01 116.61,-27.94"/>
<polygon fill="#63b8ff" stroke="#63b8ff" points="119.11,-30.4 123.4,-20.71 114.01,-25.61 119.11,-30.4"/>
</a>
</g>
</g>
</g>
</svg>
