<?xml version="1.0" encoding="UTF-8" standalone="no"?>
<!DOCTYPE svg PUBLIC "-//W3C//DTD SVG 1.1//EN"
 "http://www.w3.org/Graphics/SVG/1.1/DTD/svg11.dtd">
<!-- Generated by graphviz version 7.0.5 (20221223.1930)
 -->
<!-- Title: src/auxkernels/ModeratorHeatSourceTransientAux.C Pages: 1 -->
<svg width="240pt" height="159pt"
 viewBox="0.00 0.00 240.00 159.00" xmlns="http://www.w3.org/2000/svg" xmlns:xlink="http://www.w3.org/1999/xlink">
<g id="graph0" class="graph" transform="scale(1 1) rotate(0) translate(4 155)">
<title>src/auxkernels/ModeratorHeatSourceTransientAux.C</title>
<!-- Node1 -->
<g id="node1" class="node">
<title>Node1</title>
<g id="a_node1"><a xlink:title=" ">
<polygon fill="#999999" stroke="#666666" points="205,-151 71,-151 71,-121 205,-121 205,-151"/>
<text text-anchor="start" x="79" y="-139" font-family="Helvetica,sans-Serif" font-size="10.00">src/auxkernels/Moderator</text>
<text text-anchor="middle" x="138" y="-128" font-family="Helvetica,sans-Serif" font-size="10.00">HeatSourceTransientAux.C</text>
</a>
</g>
</g>
<!-- Node2 -->
<g id="node2" class="node">
<title>Node2</title>
<g id="a_node2"><a xlink:href="_moderator_heat_source_transient_aux_8h.html" target="_top" xlink:title=" ">
<polygon fill="white" stroke="#666666" points="152,-85 0,-85 0,-55 152,-55 152,-85"/>
<text text-anchor="start" x="8" y="-73" font-family="Helvetica,sans-Serif" font-size="10.00">ModeratorHeatSourceTransient</text>
<text text-anchor="middle" x="76" y="-62" font-family="Helvetica,sans-Serif" font-size="10.00">Aux.h</text>
</a>
</g>
</g>
<!-- Node1&#45;&gt;Node2 -->
<g id="edge1" class="edge">
<title>Node1&#45;&gt;Node2</title>
<path fill="none" stroke="#63b8ff" d="M124.24,-120.8C116.45,-112.76 106.54,-102.53 97.73,-93.43"/>
<polygon fill="#63b8ff" stroke="#63b8ff" points="100.25,-91 90.77,-86.25 95.22,-95.87 100.25,-91"/>
</g>
<!-- Node4 -->
<g id="node4" class="node">
<title>Node4</title>
<g id="a_node4"><a xlink:title=" ">
<polygon fill="#e0e0e0" stroke="#999999" points="232,-79.5 170,-79.5 170,-60.5 232,-60.5 232,-79.5"/>
<text text-anchor="middle" x="201" y="-67.5" font-family="Helvetica,sans-Serif" font-size="10.00">Function.h</text>
</a>
</g>
</g>
<!-- Node1&#45;&gt;Node4 -->
<g id="edge3" class="edge">
<title>Node1&#45;&gt;Node4</title>
<path fill="none" stroke="#63b8ff" d="M151.98,-120.8C161.51,-111.11 174.19,-98.24 184.26,-88.01"/>
<polygon fill="#63b8ff" stroke="#63b8ff" points="186.71,-90.5 191.23,-80.92 181.72,-85.59 186.71,-90.5"/>
</g>
<!-- Node3 -->
<g id="node3" class="node">
<title>Node3</title>
<g id="a_node3"><a xlink:title=" ">
<polygon fill="#e0e0e0" stroke="#999999" points="110,-19 42,-19 42,0 110,0 110,-19"/>
<text text-anchor="middle" x="76" y="-7" font-family="Helvetica,sans-Serif" font-size="10.00">AuxKernel.h</text>
</a>
</g>
</g>
<!-- Node2&#45;&gt;Node3 -->
<g id="edge2" class="edge">
<title>Node2&#45;&gt;Node3</title>
<path fill="none" stroke="#63b8ff" d="M76,-54.54C76,-47.34 76,-38.53 76,-30.68"/>
<polygon fill="#63b8ff" stroke="#63b8ff" points="79.5,-30.69 76,-20.69 72.5,-30.69 79.5,-30.69"/>
</g>
</g>
</svg>
