<?xml version="1.0" encoding="UTF-8" standalone="no"?>
<!DOCTYPE svg PUBLIC "-//W3C//DTD SVG 1.1//EN"
 "http://www.w3.org/Graphics/SVG/1.1/DTD/svg11.dtd">
<!-- Generated by graphviz version 2.49.3 (20211027.1534)
 -->
<!-- Title: src/auxkernels/ModeratorHeatSourceTransientAux.C Pages: 1 -->
<svg width="240pt" height="162pt"
 viewBox="0.00 0.00 240.00 162.00" xmlns="http://www.w3.org/2000/svg" xmlns:xlink="http://www.w3.org/1999/xlink">
<g id="graph0" class="graph" transform="scale(1 1) rotate(0) translate(4 158)">
<title>src/auxkernels/ModeratorHeatSourceTransientAux.C</title>
<polygon fill="white" stroke="transparent" points="-4,4 -4,-158 236,-158 236,4 -4,4"/>
<!-- Node1 -->
<g id="node1" class="node">
<title>Node1</title>
<g id="a_node1"><a xlink:title=" ">
<polygon fill="#bfbfbf" stroke="black" points="71,-123.5 71,-153.5 205,-153.5 205,-123.5 71,-123.5"/>
<text text-anchor="start" x="79" y="-141.5" font-family="Helvetica,sans-Serif" font-size="10.00">src/auxkernels/Moderator</text>
<text text-anchor="middle" x="138" y="-130.5" font-family="Helvetica,sans-Serif" font-size="10.00">HeatSourceTransientAux.C</text>
</a>
</g>
</g>
<!-- Node2 -->
<g id="node2" class="node">
<title>Node2</title>
<g id="a_node2"><a xlink:href="_moderator_heat_source_transient_aux_8h.html" target="_top" xlink:title=" ">
<polygon fill="white" stroke="black" points="0,-56.5 0,-86.5 152,-86.5 152,-56.5 0,-56.5"/>
<text text-anchor="start" x="8" y="-74.5" font-family="Helvetica,sans-Serif" font-size="10.00">ModeratorHeatSourceTransient</text>
<text text-anchor="middle" x="76" y="-63.5" font-family="Helvetica,sans-Serif" font-size="10.00">Aux.h</text>
</a>
</g>
</g>
<!-- Node1&#45;&gt;Node2 -->
<g id="edge1" class="edge">
<title>Node1&#45;&gt;Node2</title>
<path fill="none" stroke="midnightblue" d="M124.55,-123.4C116.34,-114.79 105.69,-103.63 96.45,-93.94"/>
<polygon fill="midnightblue" stroke="midnightblue" points="98.86,-91.4 89.43,-86.58 93.8,-96.23 98.86,-91.4"/>
</g>
<!-- Node4 -->
<g id="node4" class="node">
<title>Node4</title>
<g id="a_node4"><a xlink:title=" ">
<polygon fill="white" stroke="#bfbfbf" points="170,-62 170,-81 232,-81 232,-62 170,-62"/>
<text text-anchor="middle" x="201" y="-69" font-family="Helvetica,sans-Serif" font-size="10.00">Function.h</text>
</a>
</g>
</g>
<!-- Node1&#45;&gt;Node4 -->
<g id="edge3" class="edge">
<title>Node1&#45;&gt;Node4</title>
<path fill="none" stroke="midnightblue" d="M151.67,-123.4C161.59,-113.16 175.03,-99.3 185.37,-88.62"/>
<polygon fill="midnightblue" stroke="midnightblue" points="188.13,-90.81 192.57,-81.19 183.1,-85.94 188.13,-90.81"/>
</g>
<!-- Node3 -->
<g id="node3" class="node">
<title>Node3</title>
<g id="a_node3"><a xlink:title=" ">
<polygon fill="white" stroke="#bfbfbf" points="42,-0.5 42,-19.5 110,-19.5 110,-0.5 42,-0.5"/>
<text text-anchor="middle" x="76" y="-7.5" font-family="Helvetica,sans-Serif" font-size="10.00">AuxKernel.h</text>
</a>
</g>
</g>
<!-- Node2&#45;&gt;Node3 -->
<g id="edge2" class="edge">
<title>Node2&#45;&gt;Node3</title>
<path fill="none" stroke="midnightblue" d="M76,-56.4C76,-48.47 76,-38.46 76,-29.86"/>
<polygon fill="midnightblue" stroke="midnightblue" points="79.5,-29.66 76,-19.66 72.5,-29.66 79.5,-29.66"/>
</g>
</g>
</svg>
