<?xml version="1.0" encoding="UTF-8" standalone="no"?>
<!DOCTYPE svg PUBLIC "-//W3C//DTD SVG 1.1//EN"
 "http://www.w3.org/Graphics/SVG/1.1/DTD/svg11.dtd">
<!-- Generated by graphviz version 9.0.0 (20230911.1827)
 -->
<!-- Title: src/auxkernels/ModeratorHeatSourceTransientAux.C Pages: 1 -->
<svg width="238pt" height="160pt"
 viewBox="0.00 0.00 238.38 160.25" xmlns="http://www.w3.org/2000/svg" xmlns:xlink="http://www.w3.org/1999/xlink">
<g id="graph0" class="graph" transform="scale(1 1) rotate(0) translate(4 156.25)">
<title>src/auxkernels/ModeratorHeatSourceTransientAux.C</title>
<!-- Node1 -->
<g id="Node000001" class="node">
<title>Node1</title>
<g id="a_Node000001"><a xlink:title=" ">
<polygon fill="#999999" stroke="#666666" points="204.75,-152.25 71,-152.25 71,-121.75 204.75,-121.75 204.75,-152.25"/>
<text text-anchor="start" x="79" y="-138.75" font-family="Helvetica,sans-Serif" font-size="10.00">src/auxkernels/Moderator</text>
<text text-anchor="middle" x="137.88" y="-127.5" font-family="Helvetica,sans-Serif" font-size="10.00">HeatSourceTransientAux.C</text>
</a>
</g>
</g>
<!-- Node2 -->
<g id="Node000002" class="node">
<title>Node2</title>
<g id="a_Node000002"><a xlink:href="_moderator_heat_source_transient_aux_8h.html" target="_top" xlink:title=" ">
<polygon fill="white" stroke="#666666" points="151.75,-85.75 0,-85.75 0,-55.25 151.75,-55.25 151.75,-85.75"/>
<text text-anchor="start" x="8" y="-72.25" font-family="Helvetica,sans-Serif" font-size="10.00">ModeratorHeatSourceTransient</text>
<text text-anchor="middle" x="75.88" y="-61" font-family="Helvetica,sans-Serif" font-size="10.00">Aux.h</text>
</a>
</g>
</g>
<!-- Node1&#45;&gt;Node2 -->
<g id="edge1_Node000001_Node000002" class="edge">
<title>Node1&#45;&gt;Node2</title>
<g id="a_edge1_Node000001_Node000002"><a xlink:title=" ">
<path fill="none" stroke="#63b8ff" d="M123.81,-121.36C116.12,-113.36 106.42,-103.28 97.77,-94.28"/>
<polygon fill="#63b8ff" stroke="#63b8ff" points="100.39,-91.95 90.94,-87.17 95.34,-96.8 100.39,-91.95"/>
</a>
</g>
</g>
<!-- Node4 -->
<g id="Node000004" class="node">
<title>Node4</title>
<g id="a_Node000004"><a xlink:title=" ">
<polygon fill="#e0e0e0" stroke="#999999" points="230.38,-80.12 169.38,-80.12 169.38,-60.88 230.38,-60.88 230.38,-80.12"/>
<text text-anchor="middle" x="199.88" y="-66.62" font-family="Helvetica,sans-Serif" font-size="10.00">Function.h</text>
</a>
</g>
</g>
<!-- Node1&#45;&gt;Node4 -->
<g id="edge3_Node000001_Node000004" class="edge">
<title>Node1&#45;&gt;Node4</title>
<g id="a_edge3_Node000001_Node000004"><a xlink:title=" ">
<path fill="none" stroke="#63b8ff" d="M151.94,-121.36C161.34,-111.59 173.73,-98.7 183.56,-88.48"/>
<polygon fill="#63b8ff" stroke="#63b8ff" points="185.94,-91.05 190.35,-81.41 180.89,-86.2 185.94,-91.05"/>
</a>
</g>
</g>
<!-- Node3 -->
<g id="Node000003" class="node">
<title>Node3</title>
<g id="a_Node000003"><a xlink:title=" ">
<polygon fill="#e0e0e0" stroke="#999999" points="109.75,-19.25 42,-19.25 42,0 109.75,0 109.75,-19.25"/>
<text text-anchor="middle" x="75.88" y="-5.75" font-family="Helvetica,sans-Serif" font-size="10.00">AuxKernel.h</text>
</a>
</g>
</g>
<!-- Node2&#45;&gt;Node3 -->
<g id="edge2_Node000002_Node000003" class="edge">
<title>Node2&#45;&gt;Node3</title>
<g id="a_edge2_Node000002_Node000003"><a xlink:title=" ">
<path fill="none" stroke="#63b8ff" d="M75.88,-54.95C75.88,-47.71 75.88,-38.84 75.88,-30.94"/>
<polygon fill="#63b8ff" stroke="#63b8ff" points="79.38,-31.21 75.88,-21.21 72.38,-31.21 79.38,-31.21"/>
</a>
</g>
</g>
</g>
</svg>
