<?xml version="1.0" encoding="UTF-8" standalone="no"?>
<!DOCTYPE svg PUBLIC "-//W3C//DTD SVG 1.1//EN"
 "http://www.w3.org/Graphics/SVG/1.1/DTD/svg11.dtd">
<!-- Generated by graphviz version 12.2.0 (20241103.1931)
 -->
<!-- Title: src/base/MoltresApp.C Pages: 1 -->
<svg width="531pt" height="138pt"
 viewBox="0.00 0.00 530.50 137.75" xmlns="http://www.w3.org/2000/svg" xmlns:xlink="http://www.w3.org/1999/xlink">
<g id="graph0" class="graph" transform="scale(1 1) rotate(0) translate(4 133.75)">
<title>src/base/MoltresApp.C</title>
<!-- Node1 -->
<g id="Node000001" class="node">
<title>Node1</title>
<g id="a_Node000001"><a xlink:title=" ">
<polygon fill="#999999" stroke="#666666" points="302,-129.75 187,-129.75 187,-110.5 302,-110.5 302,-129.75"/>
<text text-anchor="middle" x="244.5" y="-116.25" font-family="Helvetica,sans-Serif" font-size="10.00">src/base/MoltresApp.C</text>
</a>
</g>
</g>
<!-- Node2 -->
<g id="Node000002" class="node">
<title>Node2</title>
<g id="a_Node000002"><a xlink:href="_moltres_app_8h.html" target="_top" xlink:title=" ">
<polygon fill="white" stroke="#666666" points="73,-74.5 0,-74.5 0,-55.25 73,-55.25 73,-74.5"/>
<text text-anchor="middle" x="36.5" y="-61" font-family="Helvetica,sans-Serif" font-size="10.00">MoltresApp.h</text>
</a>
</g>
</g>
<!-- Node1&#45;&gt;Node2 -->
<g id="edge1_Node000001_Node000002" class="edge">
<title>Node1&#45;&gt;Node2</title>
<g id="a_edge1_Node000001_Node000002"><a xlink:title=" ">
<path fill="none" stroke="#63b8ff" d="M209.22,-110.09C174.4,-101.18 121,-87.51 82.79,-77.73"/>
<polygon fill="#63b8ff" stroke="#63b8ff" points="83.98,-74.42 73.42,-75.33 82.24,-81.2 83.98,-74.42"/>
</a>
</g>
</g>
<!-- Node4 -->
<g id="Node000004" class="node">
<title>Node4</title>
<g id="a_Node000004"><a xlink:title=" ">
<polygon fill="#e0e0e0" stroke="#999999" points="143.88,-74.5 91.12,-74.5 91.12,-55.25 143.88,-55.25 143.88,-74.5"/>
<text text-anchor="middle" x="117.5" y="-61" font-family="Helvetica,sans-Serif" font-size="10.00">Moose.h</text>
</a>
</g>
</g>
<!-- Node1&#45;&gt;Node4 -->
<g id="edge3_Node000001_Node000004" class="edge">
<title>Node1&#45;&gt;Node4</title>
<g id="a_edge3_Node000001_Node000004"><a xlink:title=" ">
<path fill="none" stroke="#63b8ff" d="M222.96,-110.09C202.89,-101.68 172.7,-89.02 149.75,-79.4"/>
<polygon fill="#63b8ff" stroke="#63b8ff" points="151.12,-76.18 140.55,-75.54 148.41,-82.63 151.12,-76.18"/>
</a>
</g>
</g>
<!-- Node5 -->
<g id="Node000005" class="node">
<title>Node5</title>
<g id="a_Node000005"><a xlink:title=" ">
<polygon fill="#e0e0e0" stroke="#999999" points="235,-74.5 162,-74.5 162,-55.25 235,-55.25 235,-74.5"/>
<text text-anchor="middle" x="198.5" y="-61" font-family="Helvetica,sans-Serif" font-size="10.00">AppFactory.h</text>
</a>
</g>
</g>
<!-- Node1&#45;&gt;Node5 -->
<g id="edge4_Node000001_Node000005" class="edge">
<title>Node1&#45;&gt;Node5</title>
<g id="a_edge4_Node000001_Node000005"><a xlink:title=" ">
<path fill="none" stroke="#63b8ff" d="M236.9,-110.33C230.62,-103.05 221.49,-92.48 213.7,-83.48"/>
<polygon fill="#63b8ff" stroke="#63b8ff" points="216.44,-81.28 207.25,-76 211.14,-85.86 216.44,-81.28"/>
</a>
</g>
</g>
<!-- Node6 -->
<g id="Node000006" class="node">
<title>Node6</title>
<g id="a_Node000006"><a xlink:title=" ">
<polygon fill="#e0e0e0" stroke="#999999" points="330.25,-74.5 252.75,-74.5 252.75,-55.25 330.25,-55.25 330.25,-74.5"/>
<text text-anchor="middle" x="291.5" y="-61" font-family="Helvetica,sans-Serif" font-size="10.00">ModulesApp.h</text>
</a>
</g>
</g>
<!-- Node1&#45;&gt;Node6 -->
<g id="edge5_Node000001_Node000006" class="edge">
<title>Node1&#45;&gt;Node6</title>
<g id="a_edge5_Node000001_Node000006"><a xlink:title=" ">
<path fill="none" stroke="#63b8ff" d="M252.26,-110.33C258.69,-103.05 268.01,-92.48 275.96,-83.48"/>
<polygon fill="#63b8ff" stroke="#63b8ff" points="278.58,-85.81 282.57,-75.99 273.33,-81.18 278.58,-85.81"/>
</a>
</g>
</g>
<!-- Node7 -->
<g id="Node000007" class="node">
<title>Node7</title>
<g id="a_Node000007"><a xlink:title=" ">
<polygon fill="#e0e0e0" stroke="#999999" points="422.38,-74.5 348.62,-74.5 348.62,-55.25 422.38,-55.25 422.38,-74.5"/>
<text text-anchor="middle" x="385.5" y="-61" font-family="Helvetica,sans-Serif" font-size="10.00">SquirrelApp.h</text>
</a>
</g>
</g>
<!-- Node1&#45;&gt;Node7 -->
<g id="edge6_Node000001_Node000007" class="edge">
<title>Node1&#45;&gt;Node7</title>
<g id="a_edge6_Node000001_Node000007"><a xlink:title=" ">
<path fill="none" stroke="#63b8ff" d="M268.42,-110.09C291,-101.56 325.14,-88.67 350.73,-79.01"/>
<polygon fill="#63b8ff" stroke="#63b8ff" points="351.93,-82.29 360.05,-75.49 349.46,-75.75 351.93,-82.29"/>
</a>
</g>
</g>
<!-- Node8 -->
<g id="Node000008" class="node">
<title>Node8</title>
<g id="a_Node000008"><a xlink:title=" ">
<polygon fill="#e0e0e0" stroke="#999999" points="522.5,-74.5 440.5,-74.5 440.5,-55.25 522.5,-55.25 522.5,-74.5"/>
<text text-anchor="middle" x="481.5" y="-61" font-family="Helvetica,sans-Serif" font-size="10.00">MooseSyntax.h</text>
</a>
</g>
</g>
<!-- Node1&#45;&gt;Node8 -->
<g id="edge7_Node000001_Node000008" class="edge">
<title>Node1&#45;&gt;Node8</title>
<g id="a_edge7_Node000001_Node000008"><a xlink:title=" ">
<path fill="none" stroke="#63b8ff" d="M284.97,-110.03C325.02,-101.03 386.48,-87.23 429.99,-77.45"/>
<polygon fill="#63b8ff" stroke="#63b8ff" points="430.73,-80.87 439.72,-75.26 429.19,-74.04 430.73,-80.87"/>
</a>
</g>
</g>
<!-- Node3 -->
<g id="Node000003" class="node">
<title>Node3</title>
<g id="a_Node000003"><a xlink:title=" ">
<polygon fill="#e0e0e0" stroke="#999999" points="71.5,-19.25 1.5,-19.25 1.5,0 71.5,0 71.5,-19.25"/>
<text text-anchor="middle" x="36.5" y="-5.75" font-family="Helvetica,sans-Serif" font-size="10.00">MooseApp.h</text>
</a>
</g>
</g>
<!-- Node2&#45;&gt;Node3 -->
<g id="edge2_Node000002_Node000003" class="edge">
<title>Node2&#45;&gt;Node3</title>
<g id="a_edge2_Node000002_Node000003"><a xlink:title=" ">
<path fill="none" stroke="#63b8ff" d="M36.5,-55.08C36.5,-48.57 36.5,-39.42 36.5,-31.12"/>
<polygon fill="#63b8ff" stroke="#63b8ff" points="40,-31.12 36.5,-21.12 33,-31.12 40,-31.12"/>
</a>
</g>
</g>
</g>
</svg>
