<?xml version="1.0" encoding="UTF-8" standalone="no"?>
<!DOCTYPE svg PUBLIC "-//W3C//DTD SVG 1.1//EN"
 "http://www.w3.org/Graphics/SVG/1.1/DTD/svg11.dtd">
<!-- Generated by graphviz version 12.2.0 (20241103.1931)
 -->
<!-- Title: include/materials/MoltresSNMaterial.h Pages: 1 -->
<svg width="358pt" height="149pt"
 viewBox="0.00 0.00 357.62 149.00" xmlns="http://www.w3.org/2000/svg" xmlns:xlink="http://www.w3.org/1999/xlink">
<g id="graph0" class="graph" transform="scale(1 1) rotate(0) translate(4 145)">
<title>include/materials/MoltresSNMaterial.h</title>
<!-- Node1 -->
<g id="Node000001" class="node">
<title>Node1</title>
<g id="a_Node000001"><a xlink:title=" ">
<polygon fill="#999999" stroke="#666666" points="237.38,-141 112.62,-141 112.62,-110.5 237.38,-110.5 237.38,-141"/>
<text text-anchor="start" x="120.62" y="-127.5" font-family="Helvetica,sans-Serif" font-size="10.00">include/materials/Moltres</text>
<text text-anchor="middle" x="175" y="-116.25" font-family="Helvetica,sans-Serif" font-size="10.00">SNMaterial.h</text>
</a>
</g>
</g>
<!-- Node2 -->
<g id="Node000002" class="node">
<title>Node2</title>
<g id="a_Node000002"><a xlink:href="_s_n_rod_material_8h.html" target="_top" xlink:title=" ">
<polygon fill="white" stroke="#666666" points="166,-74.5 0,-74.5 0,-55.25 166,-55.25 166,-74.5"/>
<text text-anchor="middle" x="83" y="-61" font-family="Helvetica,sans-Serif" font-size="10.00">include/materials/SNRodMaterial.h</text>
</a>
</g>
</g>
<!-- Node1&#45;&gt;Node2 -->
<g id="edge1_Node000001_Node000002" class="edge">
<title>Node1&#45;&gt;Node2</title>
<g id="a_edge1_Node000001_Node000002"><a xlink:title=" ">
<path fill="none" stroke="#63b8ff" d="M142.92,-104.22C127.31,-94.23 109.34,-82.73 97.18,-74.95"/>
<polygon fill="#63b8ff" stroke="#63b8ff" points="140.67,-106.94 150.98,-109.38 144.45,-101.04 140.67,-106.94"/>
</a>
</g>
</g>
<!-- Node4 -->
<g id="Node000004" class="node">
<title>Node4</title>
<g id="a_Node000004"><a xlink:href="_moltres_s_n_material_8_c.html" target="_top" xlink:title=" ">
<polygon fill="white" stroke="#666666" points="349.62,-74.5 184.38,-74.5 184.38,-55.25 349.62,-55.25 349.62,-74.5"/>
<text text-anchor="middle" x="267" y="-61" font-family="Helvetica,sans-Serif" font-size="10.00">src/materials/MoltresSNMaterial.C</text>
</a>
</g>
</g>
<!-- Node1&#45;&gt;Node4 -->
<g id="edge3_Node000001_Node000004" class="edge">
<title>Node1&#45;&gt;Node4</title>
<g id="a_edge3_Node000001_Node000004"><a xlink:title=" ">
<path fill="none" stroke="#63b8ff" d="M207.08,-104.22C222.69,-94.23 240.66,-82.73 252.82,-74.95"/>
<polygon fill="#63b8ff" stroke="#63b8ff" points="205.55,-101.04 199.02,-109.38 209.33,-106.94 205.55,-101.04"/>
</a>
</g>
</g>
<!-- Node3 -->
<g id="Node000003" class="node">
<title>Node3</title>
<g id="a_Node000003"><a xlink:href="_s_n_rod_material_8_c.html" target="_top" xlink:title=" ">
<polygon fill="white" stroke="#666666" points="158.12,-19.25 7.88,-19.25 7.88,0 158.12,0 158.12,-19.25"/>
<text text-anchor="middle" x="83" y="-5.75" font-family="Helvetica,sans-Serif" font-size="10.00">src/materials/SNRodMaterial.C</text>
</a>
</g>
</g>
<!-- Node2&#45;&gt;Node3 -->
<g id="edge2_Node000002_Node000003" class="edge">
<title>Node2&#45;&gt;Node3</title>
<g id="a_edge2_Node000002_Node000003"><a xlink:title=" ">
<path fill="none" stroke="#63b8ff" d="M83,-43.63C83,-35.34 83,-26.17 83,-19.61"/>
<polygon fill="#63b8ff" stroke="#63b8ff" points="79.5,-43.57 83,-53.57 86.5,-43.57 79.5,-43.57"/>
</a>
</g>
</g>
</g>
</svg>
