<?xml version="1.0" encoding="UTF-8" standalone="no"?>
<!DOCTYPE svg PUBLIC "-//W3C//DTD SVG 1.1//EN"
 "http://www.w3.org/Graphics/SVG/1.1/DTD/svg11.dtd">
<!-- Generated by graphviz version 12.2.0 (20241103.1931)
 -->
<!-- Title: include/materials/MoltresSNMaterial.h Pages: 1 -->
<svg width="649pt" height="94pt"
 viewBox="0.00 0.00 648.62 93.75" xmlns="http://www.w3.org/2000/svg" xmlns:xlink="http://www.w3.org/1999/xlink">
<g id="graph0" class="graph" transform="scale(1 1) rotate(0) translate(4 89.75)">
<title>include/materials/MoltresSNMaterial.h</title>
<!-- Node1 -->
<g id="Node000001" class="node">
<title>Node1</title>
<g id="a_Node000001"><a xlink:title=" ">
<polygon fill="#999999" stroke="#666666" points="404.75,-85.75 280,-85.75 280,-55.25 404.75,-55.25 404.75,-85.75"/>
<text text-anchor="start" x="288" y="-72.25" font-family="Helvetica,sans-Serif" font-size="10.00">include/materials/Moltres</text>
<text text-anchor="middle" x="342.38" y="-61" font-family="Helvetica,sans-Serif" font-size="10.00">SNMaterial.h</text>
</a>
</g>
</g>
<!-- Node2 -->
<g id="Node000002" class="node">
<title>Node2</title>
<g id="a_Node000002"><a xlink:title=" ">
<polygon fill="#e0e0e0" stroke="#999999" points="130.75,-19.25 0,-19.25 0,0 130.75,0 130.75,-19.25"/>
<text text-anchor="middle" x="65.38" y="-5.75" font-family="Helvetica,sans-Serif" font-size="10.00">GenericConstantMaterial.h</text>
</a>
</g>
</g>
<!-- Node1&#45;&gt;Node2 -->
<g id="edge1_Node000001_Node000002" class="edge">
<title>Node1&#45;&gt;Node2</title>
<g id="a_edge1_Node000001_Node000002"><a xlink:title=" ">
<path fill="none" stroke="#63b8ff" d="M279.52,-56.14C231.25,-45.88 165.31,-31.87 119.4,-22.11"/>
<polygon fill="#63b8ff" stroke="#63b8ff" points="120.17,-18.69 109.66,-20.04 118.72,-25.54 120.17,-18.69"/>
</a>
</g>
</g>
<!-- Node3 -->
<g id="Node000003" class="node">
<title>Node3</title>
<g id="a_Node000003"><a xlink:title=" ">
<polygon fill="#e0e0e0" stroke="#999999" points="252.25,-19.25 148.5,-19.25 148.5,0 252.25,0 252.25,-19.25"/>
<text text-anchor="middle" x="200.38" y="-5.75" font-family="Helvetica,sans-Serif" font-size="10.00">SplineInterpolation.h</text>
</a>
</g>
</g>
<!-- Node1&#45;&gt;Node3 -->
<g id="edge2_Node000001_Node000003" class="edge">
<title>Node1&#45;&gt;Node3</title>
<g id="a_edge2_Node000001_Node000003"><a xlink:title=" ">
<path fill="none" stroke="#63b8ff" d="M306.91,-54.8C284.14,-45.35 254.8,-33.19 232.68,-24.02"/>
<polygon fill="#63b8ff" stroke="#63b8ff" points="234.13,-20.83 223.55,-20.23 231.45,-27.3 234.13,-20.83"/>
</a>
</g>
</g>
<!-- Node4 -->
<g id="Node000004" class="node">
<title>Node4</title>
<g id="a_Node000004"><a xlink:title=" ">
<polygon fill="#e0e0e0" stroke="#999999" points="414.5,-19.25 270.25,-19.25 270.25,0 414.5,0 414.5,-19.25"/>
<text text-anchor="middle" x="342.38" y="-5.75" font-family="Helvetica,sans-Serif" font-size="10.00">MonotoneCubicInterpolation.h</text>
</a>
</g>
</g>
<!-- Node1&#45;&gt;Node4 -->
<g id="edge3_Node000001_Node000004" class="edge">
<title>Node1&#45;&gt;Node4</title>
<g id="a_edge3_Node000001_Node000004"><a xlink:title=" ">
<path fill="none" stroke="#63b8ff" d="M342.38,-54.95C342.38,-47.71 342.38,-38.84 342.38,-30.94"/>
<polygon fill="#63b8ff" stroke="#63b8ff" points="345.88,-31.21 342.38,-21.21 338.88,-31.21 345.88,-31.21"/>
</a>
</g>
</g>
<!-- Node5 -->
<g id="Node000005" class="node">
<title>Node5</title>
<g id="a_Node000005"><a xlink:title=" ">
<polygon fill="#e0e0e0" stroke="#999999" points="536.25,-19.25 432.5,-19.25 432.5,0 536.25,0 536.25,-19.25"/>
<text text-anchor="middle" x="484.38" y="-5.75" font-family="Helvetica,sans-Serif" font-size="10.00">LinearInterpolation.h</text>
</a>
</g>
</g>
<!-- Node1&#45;&gt;Node5 -->
<g id="edge4_Node000001_Node000005" class="edge">
<title>Node1&#45;&gt;Node5</title>
<g id="a_edge4_Node000001_Node000005"><a xlink:title=" ">
<path fill="none" stroke="#63b8ff" d="M377.84,-54.8C400.61,-45.35 429.95,-33.19 452.07,-24.02"/>
<polygon fill="#63b8ff" stroke="#63b8ff" points="453.3,-27.3 461.2,-20.23 450.62,-20.83 453.3,-27.3"/>
</a>
</g>
</g>
<!-- Node6 -->
<g id="Node000006" class="node">
<title>Node6</title>
<g id="a_Node000006"><a xlink:title=" ">
<polygon fill="#e0e0e0" stroke="#999999" points="640.62,-19.25 554.12,-19.25 554.12,0 640.62,0 640.62,-19.25"/>
<text text-anchor="middle" x="597.38" y="-5.75" font-family="Helvetica,sans-Serif" font-size="10.00">nlohmann/json.h</text>
</a>
</g>
</g>
<!-- Node1&#45;&gt;Node6 -->
<g id="edge5_Node000001_Node000006" class="edge">
<title>Node1&#45;&gt;Node6</title>
<g id="a_edge5_Node000001_Node000006"><a xlink:title=" ">
<path fill="none" stroke="#63b8ff" d="M405.08,-55.02C448.75,-44.94 506.24,-31.67 546.95,-22.27"/>
<polygon fill="#63b8ff" stroke="#63b8ff" points="547.53,-25.73 556.49,-20.07 545.96,-18.9 547.53,-25.73"/>
</a>
</g>
</g>
</g>
</svg>
