<?xml version="1.0" encoding="UTF-8" standalone="no"?>
<!DOCTYPE svg PUBLIC "-//W3C//DTD SVG 1.1//EN"
 "http://www.w3.org/Graphics/SVG/1.1/DTD/svg11.dtd">
<!-- Generated by graphviz version 12.2.0 (20241103.1931)
 -->
<!-- Title: src/utils/MoltresUtils.C Pages: 1 -->
<svg width="248pt" height="138pt"
 viewBox="0.00 0.00 247.88 137.75" xmlns="http://www.w3.org/2000/svg" xmlns:xlink="http://www.w3.org/1999/xlink">
<g id="graph0" class="graph" transform="scale(1 1) rotate(0) translate(4 133.75)">
<title>src/utils/MoltresUtils.C</title>
<!-- Node1 -->
<g id="Node000001" class="node">
<title>Node1</title>
<g id="a_Node000001"><a xlink:title=" ">
<polygon fill="#999999" stroke="#666666" points="213.88,-129.75 98.88,-129.75 98.88,-110.5 213.88,-110.5 213.88,-129.75"/>
<text text-anchor="middle" x="156.38" y="-116.25" font-family="Helvetica,sans-Serif" font-size="10.00">src/utils/MoltresUtils.C</text>
</a>
</g>
</g>
<!-- Node2 -->
<g id="Node000002" class="node">
<title>Node2</title>
<g id="a_Node000002"><a xlink:href="_moltres_utils_8h.html" target="_top" xlink:title=" ">
<polygon fill="white" stroke="#666666" points="148.38,-74.5 72.38,-74.5 72.38,-55.25 148.38,-55.25 148.38,-74.5"/>
<text text-anchor="middle" x="110.38" y="-61" font-family="Helvetica,sans-Serif" font-size="10.00">MoltresUtils.h</text>
</a>
</g>
</g>
<!-- Node1&#45;&gt;Node2 -->
<g id="edge1_Node000001_Node000002" class="edge">
<title>Node1&#45;&gt;Node2</title>
<g id="a_edge1_Node000001_Node000002"><a xlink:title=" ">
<path fill="none" stroke="#63b8ff" d="M148.78,-110.33C142.49,-103.05 133.36,-92.48 125.58,-83.48"/>
<polygon fill="#63b8ff" stroke="#63b8ff" points="128.31,-81.28 119.13,-76 123.01,-85.86 128.31,-81.28"/>
</a>
</g>
</g>
<!-- Node6 -->
<g id="Node000006" class="node">
<title>Node6</title>
<g id="a_Node000006"><a xlink:title=" ">
<polygon fill="#e0e0e0" stroke="#999999" points="239.88,-74.5 166.88,-74.5 166.88,-55.25 239.88,-55.25 239.88,-74.5"/>
<text text-anchor="middle" x="203.38" y="-61" font-family="Helvetica,sans-Serif" font-size="10.00">MooseError.h</text>
</a>
</g>
</g>
<!-- Node1&#45;&gt;Node6 -->
<g id="edge5_Node000001_Node000006" class="edge">
<title>Node1&#45;&gt;Node6</title>
<g id="a_edge5_Node000001_Node000006"><a xlink:title=" ">
<path fill="none" stroke="#63b8ff" d="M164.14,-110.33C170.56,-103.05 179.89,-92.48 187.84,-83.48"/>
<polygon fill="#63b8ff" stroke="#63b8ff" points="190.45,-85.81 194.44,-75.99 185.2,-81.18 190.45,-85.81"/>
</a>
</g>
</g>
<!-- Node3 -->
<g id="Node000003" class="node">
<title>Node3</title>
<g id="a_Node000003"><a xlink:title=" ">
<polygon fill="#e0e0e0" stroke="#999999" points="52.75,-19.25 0,-19.25 0,0 52.75,0 52.75,-19.25"/>
<text text-anchor="middle" x="26.38" y="-5.75" font-family="Helvetica,sans-Serif" font-size="10.00">Moose.h</text>
</a>
</g>
</g>
<!-- Node2&#45;&gt;Node3 -->
<g id="edge2_Node000002_Node000003" class="edge">
<title>Node2&#45;&gt;Node3</title>
<g id="a_edge2_Node000002_Node000003"><a xlink:title=" ">
<path fill="none" stroke="#63b8ff" d="M96.13,-54.84C83.58,-46.89 65.04,-35.14 50.23,-25.75"/>
<polygon fill="#63b8ff" stroke="#63b8ff" points="52.29,-22.91 41.97,-20.51 48.54,-28.82 52.29,-22.91"/>
</a>
</g>
</g>
<!-- Node4 -->
<g id="Node000004" class="node">
<title>Node4</title>
<g id="a_Node000004"><a xlink:title=" ">
<polygon fill="#e0e0e0" stroke="#999999" points="149.88,-19.25 70.88,-19.25 70.88,0 149.88,0 149.88,-19.25"/>
<text text-anchor="middle" x="110.38" y="-5.75" font-family="Helvetica,sans-Serif" font-size="10.00">MooseTypes.h</text>
</a>
</g>
</g>
<!-- Node2&#45;&gt;Node4 -->
<g id="edge3_Node000002_Node000004" class="edge">
<title>Node2&#45;&gt;Node4</title>
<g id="a_edge3_Node000002_Node000004"><a xlink:title=" ">
<path fill="none" stroke="#63b8ff" d="M110.38,-55.08C110.38,-48.57 110.38,-39.42 110.38,-31.12"/>
<polygon fill="#63b8ff" stroke="#63b8ff" points="113.88,-31.12 110.38,-21.12 106.88,-31.12 113.88,-31.12"/>
</a>
</g>
</g>
<!-- Node5 -->
<g id="Node000005" class="node">
<title>Node5</title>
<g id="a_Node000005"><a xlink:title=" ">
<polygon fill="#e0e0e0" stroke="#999999" points="233.12,-19.25 167.62,-19.25 167.62,0 233.12,0 233.12,-19.25"/>
<text text-anchor="middle" x="200.38" y="-5.75" font-family="Helvetica,sans-Serif" font-size="10.00">MathUtils.h</text>
</a>
</g>
</g>
<!-- Node2&#45;&gt;Node5 -->
<g id="edge4_Node000002_Node000005" class="edge">
<title>Node2&#45;&gt;Node5</title>
<g id="a_edge4_Node000002_Node000005"><a xlink:title=" ">
<path fill="none" stroke="#63b8ff" d="M125.64,-54.84C139.22,-46.81 159.33,-34.91 175.27,-25.48"/>
<polygon fill="#63b8ff" stroke="#63b8ff" points="176.91,-28.58 183.73,-20.47 173.34,-22.55 176.91,-28.58"/>
</a>
</g>
</g>
</g>
</svg>
