<?xml version="1.0" encoding="UTF-8" standalone="no"?>
<!DOCTYPE svg PUBLIC "-//W3C//DTD SVG 1.1//EN"
 "http://www.w3.org/Graphics/SVG/1.1/DTD/svg11.dtd">
<!-- Generated by graphviz version 9.0.0 (20230911.1827)
 -->
<!-- Title: src/materials/MoltresJsonMaterial.C Pages: 1 -->
<svg width="758pt" height="204pt"
 viewBox="0.00 0.00 758.12 204.25" xmlns="http://www.w3.org/2000/svg" xmlns:xlink="http://www.w3.org/1999/xlink">
<g id="graph0" class="graph" transform="scale(1 1) rotate(0) translate(4 200.25)">
<title>src/materials/MoltresJsonMaterial.C</title>
<!-- Node1 -->
<g id="Node000001" class="node">
<title>Node1</title>
<g id="a_Node000001"><a xlink:title=" ">
<polygon fill="#999999" stroke="#666666" points="589.62,-196.25 461.12,-196.25 461.12,-165.75 589.62,-165.75 589.62,-196.25"/>
<text text-anchor="start" x="469.12" y="-182.75" font-family="Helvetica,sans-Serif" font-size="10.00">src/materials/MoltresJson</text>
<text text-anchor="middle" x="525.38" y="-171.5" font-family="Helvetica,sans-Serif" font-size="10.00">Material.C</text>
</a>
</g>
</g>
<!-- Node2 -->
<g id="Node000002" class="node">
<title>Node2</title>
<g id="a_Node000002"><a xlink:href="_moltres_json_material_8h.html" target="_top" xlink:title=" ">
<polygon fill="white" stroke="#666666" points="526,-129.75 414.75,-129.75 414.75,-110.5 526,-110.5 526,-129.75"/>
<text text-anchor="middle" x="470.38" y="-116.25" font-family="Helvetica,sans-Serif" font-size="10.00">MoltresJsonMaterial.h</text>
</a>
</g>
</g>
<!-- Node1&#45;&gt;Node2 -->
<g id="edge1_Node000001_Node000002" class="edge">
<title>Node1&#45;&gt;Node2</title>
<g id="a_edge1_Node000001_Node000002"><a xlink:title=" ">
<path fill="none" stroke="#63b8ff" d="M511.78,-165.45C504.13,-157.26 494.53,-146.98 486.5,-138.39"/>
<polygon fill="#63b8ff" stroke="#63b8ff" points="489.27,-136.23 479.89,-131.31 484.16,-141 489.27,-136.23"/>
</a>
</g>
</g>
<!-- Node11 -->
<g id="Node000011" class="node">
<title>Node11</title>
<g id="a_Node000011"><a xlink:title=" ">
<polygon fill="#e0e0e0" stroke="#999999" points="616.88,-129.75 543.88,-129.75 543.88,-110.5 616.88,-110.5 616.88,-129.75"/>
<text text-anchor="middle" x="580.38" y="-116.25" font-family="Helvetica,sans-Serif" font-size="10.00">MooseUtils.h</text>
</a>
</g>
</g>
<!-- Node1&#45;&gt;Node11 -->
<g id="edge10_Node000001_Node000011" class="edge">
<title>Node1&#45;&gt;Node11</title>
<g id="a_edge10_Node000001_Node000011"><a xlink:title=" ">
<path fill="none" stroke="#63b8ff" d="M538.97,-165.45C546.62,-157.26 556.22,-146.98 564.25,-138.39"/>
<polygon fill="#63b8ff" stroke="#63b8ff" points="566.59,-141 570.86,-131.31 561.48,-136.23 566.59,-141"/>
</a>
</g>
</g>
<!-- Node3 -->
<g id="Node000003" class="node">
<title>Node3</title>
<g id="a_Node000003"><a xlink:href="_nuclear_material_8h.html" target="_top" xlink:title=" ">
<polygon fill="white" stroke="#666666" points="463.25,-74.5 371.5,-74.5 371.5,-55.25 463.25,-55.25 463.25,-74.5"/>
<text text-anchor="middle" x="417.38" y="-61" font-family="Helvetica,sans-Serif" font-size="10.00">NuclearMaterial.h</text>
</a>
</g>
</g>
<!-- Node2&#45;&gt;Node3 -->
<g id="edge2_Node000002_Node000003" class="edge">
<title>Node2&#45;&gt;Node3</title>
<g id="a_edge2_Node000002_Node000003"><a xlink:title=" ">
<path fill="none" stroke="#63b8ff" d="M461.62,-110.33C454.23,-102.9 443.41,-92.04 434.33,-82.91"/>
<polygon fill="#63b8ff" stroke="#63b8ff" points="436.92,-80.55 427.38,-75.93 431.96,-85.49 436.92,-80.55"/>
</a>
</g>
</g>
<!-- Node10 -->
<g id="Node000010" class="node">
<title>Node10</title>
<g id="a_Node000010"><a xlink:title=" ">
<polygon fill="#e0e0e0" stroke="#999999" points="567.62,-74.5 481.12,-74.5 481.12,-55.25 567.62,-55.25 567.62,-74.5"/>
<text text-anchor="middle" x="524.38" y="-61" font-family="Helvetica,sans-Serif" font-size="10.00">nlohmann/json.h</text>
</a>
</g>
</g>
<!-- Node2&#45;&gt;Node10 -->
<g id="edge9_Node000002_Node000010" class="edge">
<title>Node2&#45;&gt;Node10</title>
<g id="a_edge9_Node000002_Node000010"><a xlink:title=" ">
<path fill="none" stroke="#63b8ff" d="M479.29,-110.33C486.83,-102.9 497.84,-92.04 507.1,-82.91"/>
<polygon fill="#63b8ff" stroke="#63b8ff" points="509.52,-85.44 514.19,-75.92 504.61,-80.45 509.52,-85.44"/>
</a>
</g>
</g>
<!-- Node4 -->
<g id="Node000004" class="node">
<title>Node4</title>
<g id="a_Node000004"><a xlink:title=" ">
<polygon fill="#e0e0e0" stroke="#999999" points="130.75,-19.25 0,-19.25 0,0 130.75,0 130.75,-19.25"/>
<text text-anchor="middle" x="65.38" y="-5.75" font-family="Helvetica,sans-Serif" font-size="10.00">GenericConstantMaterial.h</text>
</a>
</g>
</g>
<!-- Node3&#45;&gt;Node4 -->
<g id="edge3_Node000003_Node000004" class="edge">
<title>Node3&#45;&gt;Node4</title>
<g id="a_edge3_Node000003_Node000004"><a xlink:title=" ">
<path fill="none" stroke="#63b8ff" d="M371.36,-56.91C311.69,-47.89 206.99,-32.05 136.92,-21.45"/>
<polygon fill="#63b8ff" stroke="#63b8ff" points="137.46,-17.99 127.04,-19.95 136.41,-24.91 137.46,-17.99"/>
</a>
</g>
</g>
<!-- Node5 -->
<g id="Node000005" class="node">
<title>Node5</title>
<g id="a_Node000005"><a xlink:title=" ">
<polygon fill="#e0e0e0" stroke="#999999" points="252.25,-19.25 148.5,-19.25 148.5,0 252.25,0 252.25,-19.25"/>
<text text-anchor="middle" x="200.38" y="-5.75" font-family="Helvetica,sans-Serif" font-size="10.00">SplineInterpolation.h</text>
</a>
</g>
</g>
<!-- Node3&#45;&gt;Node5 -->
<g id="edge4_Node000003_Node000005" class="edge">
<title>Node3&#45;&gt;Node5</title>
<g id="a_edge4_Node000003_Node000005"><a xlink:title=" ">
<path fill="none" stroke="#63b8ff" d="M380.56,-54.84C344.17,-45.91 288.29,-32.2 248.42,-22.41"/>
<polygon fill="#63b8ff" stroke="#63b8ff" points="249.38,-19.05 238.84,-20.06 247.71,-25.85 249.38,-19.05"/>
</a>
</g>
</g>
<!-- Node6 -->
<g id="Node000006" class="node">
<title>Node6</title>
<g id="a_Node000006"><a xlink:title=" ">
<polygon fill="#e0e0e0" stroke="#999999" points="406.38,-19.25 270.38,-19.25 270.38,0 406.38,0 406.38,-19.25"/>
<text text-anchor="middle" x="338.38" y="-5.75" font-family="Helvetica,sans-Serif" font-size="10.00">BicubicSplineInterpolation.h</text>
</a>
</g>
</g>
<!-- Node3&#45;&gt;Node6 -->
<g id="edge5_Node000003_Node000006" class="edge">
<title>Node3&#45;&gt;Node6</title>
<g id="a_edge5_Node000003_Node000006"><a xlink:title=" ">
<path fill="none" stroke="#63b8ff" d="M403.97,-54.84C392.28,-46.96 375.07,-35.36 361.21,-26.02"/>
<polygon fill="#63b8ff" stroke="#63b8ff" points="363.35,-23.24 353.1,-20.55 359.43,-29.04 363.35,-23.24"/>
</a>
</g>
</g>
<!-- Node7 -->
<g id="Node000007" class="node">
<title>Node7</title>
<g id="a_Node000007"><a xlink:title=" ">
<polygon fill="#e0e0e0" stroke="#999999" points="568.5,-19.25 424.25,-19.25 424.25,0 568.5,0 568.5,-19.25"/>
<text text-anchor="middle" x="496.38" y="-5.75" font-family="Helvetica,sans-Serif" font-size="10.00">MonotoneCubicInterpolation.h</text>
</a>
</g>
</g>
<!-- Node3&#45;&gt;Node7 -->
<g id="edge6_Node000003_Node000007" class="edge">
<title>Node3&#45;&gt;Node7</title>
<g id="a_edge6_Node000003_Node000007"><a xlink:title=" ">
<path fill="none" stroke="#63b8ff" d="M430.78,-54.84C442.47,-46.96 459.68,-35.36 473.54,-26.02"/>
<polygon fill="#63b8ff" stroke="#63b8ff" points="475.32,-29.04 481.65,-20.55 471.4,-23.24 475.32,-29.04"/>
</a>
</g>
</g>
<!-- Node8 -->
<g id="Node000008" class="node">
<title>Node8</title>
<g id="a_Node000008"><a xlink:title=" ">
<polygon fill="#e0e0e0" stroke="#999999" points="690.25,-19.25 586.5,-19.25 586.5,0 690.25,0 690.25,-19.25"/>
<text text-anchor="middle" x="638.38" y="-5.75" font-family="Helvetica,sans-Serif" font-size="10.00">LinearInterpolation.h</text>
</a>
</g>
</g>
<!-- Node3&#45;&gt;Node8 -->
<g id="edge7_Node000003_Node000008" class="edge">
<title>Node3&#45;&gt;Node8</title>
<g id="a_edge7_Node000003_Node000008"><a xlink:title=" ">
<path fill="none" stroke="#63b8ff" d="M455.12,-54.78C492.3,-45.82 549.28,-32.09 589.82,-22.32"/>
<polygon fill="#63b8ff" stroke="#63b8ff" points="590.42,-25.78 599.32,-20.04 588.78,-18.98 590.42,-25.78"/>
</a>
</g>
</g>
<!-- Node9 -->
<g id="Node000009" class="node">
<title>Node9</title>
<g id="a_Node000009"><a xlink:title=" ">
<polygon fill="#e0e0e0" stroke="#999999" points="750.12,-19.25 708.62,-19.25 708.62,0 750.12,0 750.12,-19.25"/>
<text text-anchor="middle" x="729.38" y="-5.75" font-family="Helvetica,sans-Serif" font-size="10.00">json.h</text>
</a>
</g>
</g>
<!-- Node3&#45;&gt;Node9 -->
<g id="edge8_Node000003_Node000009" class="edge">
<title>Node3&#45;&gt;Node9</title>
<g id="a_edge8_Node000003_Node000009"><a xlink:title=" ">
<path fill="none" stroke="#63b8ff" d="M463.68,-56.58C532.74,-45.71 658.15,-25.93 697.04,-19.16"/>
<polygon fill="#63b8ff" stroke="#63b8ff" points="697.48,-22.64 706.66,-17.35 696.19,-15.76 697.48,-22.64"/>
</a>
</g>
</g>
</g>
</svg>
