<?xml version="1.0" encoding="UTF-8" standalone="no"?>
<!DOCTYPE svg PUBLIC "-//W3C//DTD SVG 1.1//EN"
 "http://www.w3.org/Graphics/SVG/1.1/DTD/svg11.dtd">
<!-- Generated by graphviz version 12.2.0 (20241103.1931)
 -->
<!-- Title: include/utils/MoltresUtils.h Pages: 1 -->
<!--zoomable 94 -->

<svg id="main" version="1.1" xmlns="http://www.w3.org/2000/svg" xmlns:xlink="http://www.w3.org/1999/xlink" xml:space="preserve" onload="init(evt)">

<style type="text/css"><![CDATA[
.node, .edge {opacity: 0.7;}
.node.selected, .edge.selected {opacity: 1;}
.edge:hover path { stroke: red; }
.edge:hover polygon { stroke: red; fill: red; }
]]></style>

<defs>
  <circle id="rim" cx="0" cy="0" r="7"/>
  <circle id="rim2" cx="0" cy="0" r="3.5"/>
  <g id="zoomPlus">
    <use xlink:href="#rim" fill="#404040"><set attributeName="fill" to="#808080" begin="zoomplus.mouseover" end="zoomplus.mouseout"/></use>
    <path d="M-4,0h8M0,-4v8" fill="none" stroke="white" stroke-width="1.5" pointer-events="none"/>
  </g>
  <g id="zoomMin">
    <use xlink:href="#rim" fill="#404040"><set attributeName="fill" to="#808080" begin="zoomminus.mouseover" end="zoomminus.mouseout"/></use>
    <path d="M-4,0h8" fill="none" stroke="white" stroke-width="1.5" pointer-events="none"/>
  </g>
  <g id="arrowUp" transform="translate(30 24)">
    <use xlink:href="#rim"/>
    <path pointer-events="none" fill="none" stroke="white" stroke-width="1.5" d="M0,-3.0v7 M-2.5,-0.5L0,-3.0L2.5,-0.5"/>
  </g>
  <g id="arrowRight" transform="rotate(90) translate(36 -43)">
    <use xlink:href="#rim"/>
    <path pointer-events="none" fill="none" stroke="white" stroke-width="1.5" d="M0,-3.0v7 M-2.5,-0.5L0,-3.0L2.5,-0.5"/>
  </g>
  <g id="arrowDown" transform="rotate(180) translate(-30 -48)">
    <use xlink:href="#rim"/>
    <path pointer-events="none" fill="none" stroke="white" stroke-width="1.5" d="M0,-3.0v7 M-2.5,-0.5L0,-3.0L2.5,-0.5"/>
  </g>
  <g id="arrowLeft" transform="rotate(270) translate(-36 17)">
    <use xlink:href="#rim"/>
    <path pointer-events="none" fill="none" stroke="white" stroke-width="1.5" d="M0,-3.0v7 M-2.5,-0.5L0,-3.0L2.5,-0.5"/>
  </g>
  <g id="resetDef">
    <use xlink:href="#rim2" fill="#404040"><set attributeName="fill" to="#808080" begin="reset.mouseover" end="reset.mouseout"/></use>
  </g>
</defs>
<script type="application/ecmascript">
var viewWidth = 1642;
var viewHeight = 94;
var sectionId = 'dynsection-1';
</script>
<script type="application/ecmascript" xlink:href="svg.min.js"/>
<svg id="graph" class="graph">
<g id="viewport">
<title>include/utils/MoltresUtils.h</title>
<!-- Node1 -->
<g id="Node000001" class="node">
<title>Node1</title>
<g id="a_Node000001"><a xlink:title=" ">
<polygon fill="#999999" stroke="#666666" points="879.5,-85.75 748.75,-85.75 748.75,-66.5 879.5,-66.5 879.5,-85.75"/>
<text text-anchor="middle" x="814.12" y="-72.25" font-family="Helvetica,sans-Serif" font-size="10.00">include/utils/MoltresUtils.h</text>
</a>
</g>
</g>
<!-- Node2 -->
<g id="Node000002" class="node">
<title>Node2</title>
<g id="a_Node000002"><a xlink:href="_group_drift_aux_8_c.html" target="_top" xlink:title=" ">
<polygon fill="white" stroke="#666666" points="126.25,-30.5 0,-30.5 0,0 126.25,0 126.25,-30.5"/>
<text text-anchor="start" x="8" y="-17" font-family="Helvetica,sans-Serif" font-size="10.00">src/auxkernels/GroupDrift</text>
<text text-anchor="middle" x="63.12" y="-5.75" font-family="Helvetica,sans-Serif" font-size="10.00">Aux.C</text>
</a>
</g>
</g>
<!-- Node1&#45;&gt;Node2 -->
<g id="edge1_Node000001_Node000002" class="edge">
<title>Node1&#45;&gt;Node2</title>
<g id="a_edge1_Node000001_Node000002"><a xlink:title=" ">
<path fill="none" stroke="#63b8ff" d="M736.86,-73.31C610.53,-69.61 352.07,-58.98 135.12,-30.5 132.35,-30.14 129.51,-29.73 126.65,-29.29"/>
<polygon fill="#63b8ff" stroke="#63b8ff" points="736.69,-76.8 746.79,-73.59 736.89,-69.81 736.69,-76.8"/>
</a>
</g>
</g>
<!-- Node3 -->
<g id="Node000003" class="node">
<title>Node3</title>
<g id="a_Node000003"><a xlink:href="_s_n_scalar_flux_aux_8_c.html" target="_top" xlink:title=" ">
<polygon fill="white" stroke="#666666" points="286.12,-30.5 144.12,-30.5 144.12,0 286.12,0 286.12,-30.5"/>
<text text-anchor="start" x="152.12" y="-17" font-family="Helvetica,sans-Serif" font-size="10.00">src/auxkernels/SNScalarFlux</text>
<text text-anchor="middle" x="215.12" y="-5.75" font-family="Helvetica,sans-Serif" font-size="10.00">Aux.C</text>
</a>
</g>
</g>
<!-- Node1&#45;&gt;Node3 -->
<g id="edge2_Node000001_Node000003" class="edge">
<title>Node1&#45;&gt;Node3</title>
<g id="a_edge2_Node000001_Node000003"><a xlink:title=" ">
<path fill="none" stroke="#63b8ff" d="M737.01,-70.68C635.43,-64.33 451.39,-51.09 295.12,-30.5 292.33,-30.13 289.48,-29.73 286.6,-29.31"/>
<polygon fill="#63b8ff" stroke="#63b8ff" points="736.67,-74.17 746.86,-71.29 737.1,-67.18 736.67,-74.17"/>
</a>
</g>
</g>
<!-- Node4 -->
<g id="Node000004" class="node">
<title>Node4</title>
<g id="a_Node000004"><a xlink:href="_vacuum_coef_aux_8_c.html" target="_top" xlink:title=" ">
<polygon fill="white" stroke="#666666" points="442.25,-30.5 304,-30.5 304,0 442.25,0 442.25,-30.5"/>
<text text-anchor="start" x="312" y="-17" font-family="Helvetica,sans-Serif" font-size="10.00">src/auxkernels/VacuumCoef</text>
<text text-anchor="middle" x="373.12" y="-5.75" font-family="Helvetica,sans-Serif" font-size="10.00">Aux.C</text>
</a>
</g>
</g>
<!-- Node1&#45;&gt;Node4 -->
<g id="edge3_Node000001_Node000004" class="edge">
<title>Node1&#45;&gt;Node4</title>
<g id="a_edge3_Node000001_Node000004"><a xlink:title=" ">
<path fill="none" stroke="#63b8ff" d="M737.38,-67.01C663.79,-58.91 549.64,-45.54 451.12,-30.5 448.27,-30.06 445.35,-29.6 442.41,-29.13"/>
<polygon fill="#63b8ff" stroke="#63b8ff" points="736.56,-70.44 746.89,-68.05 737.33,-63.48 736.56,-70.44"/>
</a>
</g>
</g>
<!-- Node5 -->
<g id="Node000005" class="node">
<title>Node5</title>
<g id="a_Node000005"><a xlink:href="_s_n_diffusion_b_c_8_c.html" target="_top" xlink:title=" ">
<polygon fill="white" stroke="#666666" points="585.88,-24.88 460.38,-24.88 460.38,-5.63 585.88,-5.63 585.88,-24.88"/>
<text text-anchor="middle" x="523.12" y="-11.38" font-family="Helvetica,sans-Serif" font-size="10.00">src/bcs/SNDiffusionBC.C</text>
</a>
</g>
</g>
<!-- Node1&#45;&gt;Node5 -->
<g id="edge4_Node000001_Node000005" class="edge">
<title>Node1&#45;&gt;Node5</title>
<g id="a_edge4_Node000001_Node000005"><a xlink:title=" ">
<path fill="none" stroke="#63b8ff" d="M758.28,-63.83C702.92,-52.63 619.19,-35.69 568.01,-25.33"/>
<polygon fill="#63b8ff" stroke="#63b8ff" points="757.32,-67.2 767.81,-65.75 758.7,-60.34 757.32,-67.2"/>
</a>
</g>
</g>
<!-- Node6 -->
<g id="Node000006" class="node">
<title>Node6</title>
<g id="a_Node000006"><a xlink:href="_s_n_reflecting_b_c_8_c.html" target="_top" xlink:title=" ">
<polygon fill="white" stroke="#666666" points="734.5,-24.88 603.75,-24.88 603.75,-5.63 734.5,-5.63 734.5,-24.88"/>
<text text-anchor="middle" x="669.12" y="-11.38" font-family="Helvetica,sans-Serif" font-size="10.00">src/bcs/SNReflectingBC.C</text>
</a>
</g>
</g>
<!-- Node1&#45;&gt;Node6 -->
<g id="edge5_Node000001_Node000006" class="edge">
<title>Node1&#45;&gt;Node6</title>
<g id="a_edge5_Node000001_Node000006"><a xlink:title=" ">
<path fill="none" stroke="#63b8ff" d="M781.47,-61.87C753.94,-50.69 715.29,-34.99 691.25,-25.23"/>
<polygon fill="#63b8ff" stroke="#63b8ff" points="779.8,-64.97 790.38,-65.49 782.44,-58.48 779.8,-64.97"/>
</a>
</g>
</g>
<!-- Node7 -->
<g id="Node000007" class="node">
<title>Node7</title>
<g id="a_Node000007"><a xlink:href="_s_n_vacuum_b_c_8_c.html" target="_top" xlink:title=" ">
<polygon fill="white" stroke="#666666" points="876.12,-24.88 752.12,-24.88 752.12,-5.63 876.12,-5.63 876.12,-24.88"/>
<text text-anchor="middle" x="814.12" y="-11.38" font-family="Helvetica,sans-Serif" font-size="10.00">src/bcs/SNVacuumBC.C</text>
</a>
</g>
</g>
<!-- Node1&#45;&gt;Node7 -->
<g id="edge6_Node000001_Node000007" class="edge">
<title>Node1&#45;&gt;Node7</title>
<g id="a_edge6_Node000001_Node000007"><a xlink:title=" ">
<path fill="none" stroke="#63b8ff" d="M814.12,-54.7C814.12,-44.67 814.12,-33.08 814.12,-25.28"/>
<polygon fill="#63b8ff" stroke="#63b8ff" points="810.63,-54.67 814.13,-64.67 817.63,-54.67 810.63,-54.67"/>
</a>
</g>
</g>
<!-- Node8 -->
<g id="Node000008" class="node">
<title>Node8</title>
<g id="a_Node000008"><a xlink:href="_s_n_collision_8_c.html" target="_top" xlink:title=" ">
<polygon fill="white" stroke="#666666" points="1021.62,-24.88 894.62,-24.88 894.62,-5.63 1021.62,-5.63 1021.62,-24.88"/>
<text text-anchor="middle" x="958.12" y="-11.38" font-family="Helvetica,sans-Serif" font-size="10.00">src/kernels/SNCollision.C</text>
</a>
</g>
</g>
<!-- Node1&#45;&gt;Node8 -->
<g id="edge7_Node000001_Node000008" class="edge">
<title>Node1&#45;&gt;Node8</title>
<g id="a_edge7_Node000001_Node000008"><a xlink:title=" ">
<path fill="none" stroke="#63b8ff" d="M846.92,-61.72C874.23,-50.55 912.38,-34.95 936.15,-25.23"/>
<polygon fill="#63b8ff" stroke="#63b8ff" points="845.64,-58.46 837.71,-65.48 848.29,-64.94 845.64,-58.46"/>
</a>
</g>
</g>
<!-- Node9 -->
<g id="Node000009" class="node">
<title>Node9</title>
<g id="a_Node000009"><a xlink:href="_s_n_external_source_8_c.html" target="_top" xlink:title=" ">
<polygon fill="white" stroke="#666666" points="1194.88,-24.88 1039.38,-24.88 1039.38,-5.63 1194.88,-5.63 1194.88,-24.88"/>
<text text-anchor="middle" x="1117.12" y="-11.38" font-family="Helvetica,sans-Serif" font-size="10.00">src/kernels/SNExternalSource.C</text>
</a>
</g>
</g>
<!-- Node1&#45;&gt;Node9 -->
<g id="edge8_Node000001_Node000009" class="edge">
<title>Node1&#45;&gt;Node9</title>
<g id="a_edge8_Node000001_Node000009"><a xlink:title=" ">
<path fill="none" stroke="#63b8ff" d="M871.92,-63.9C929.55,-52.7 1016.99,-35.71 1070.39,-25.33"/>
<polygon fill="#63b8ff" stroke="#63b8ff" points="871.44,-60.42 862.29,-65.77 872.77,-67.29 871.44,-60.42"/>
</a>
</g>
</g>
<!-- Node10 -->
<g id="Node000010" class="node">
<title>Node10</title>
<g id="a_Node000010"><a xlink:href="_s_n_scattering_8_c.html" target="_top" xlink:title=" ">
<polygon fill="white" stroke="#666666" points="1347.38,-24.88 1212.88,-24.88 1212.88,-5.63 1347.38,-5.63 1347.38,-24.88"/>
<text text-anchor="middle" x="1280.12" y="-11.38" font-family="Helvetica,sans-Serif" font-size="10.00">src/kernels/SNScattering.C</text>
</a>
</g>
</g>
<!-- Node1&#45;&gt;Node10 -->
<g id="edge9_Node000001_Node000010" class="edge">
<title>Node1&#45;&gt;Node10</title>
<g id="a_edge9_Node000001_Node000010"><a xlink:title=" ">
<path fill="none" stroke="#63b8ff" d="M891.15,-67.95C969.97,-60.22 1095.9,-46.82 1204.12,-30.5 1213.95,-29.02 1224.44,-27.2 1234.4,-25.37"/>
<polygon fill="#63b8ff" stroke="#63b8ff" points="890.99,-64.45 881.37,-68.9 891.67,-71.42 890.99,-64.45"/>
</a>
</g>
</g>
<!-- Node11 -->
<g id="Node000011" class="node">
<title>Node11</title>
<g id="a_Node000011"><a xlink:href="_s_n_streaming_8_c.html" target="_top" xlink:title=" ">
<polygon fill="white" stroke="#666666" points="1500.38,-24.88 1365.88,-24.88 1365.88,-5.63 1500.38,-5.63 1500.38,-24.88"/>
<text text-anchor="middle" x="1433.12" y="-11.38" font-family="Helvetica,sans-Serif" font-size="10.00">src/kernels/SNStreaming.C</text>
</a>
</g>
</g>
<!-- Node1&#45;&gt;Node11 -->
<g id="edge10_Node000001_Node000011" class="edge">
<title>Node1&#45;&gt;Node11</title>
<g id="a_edge10_Node000001_Node000011"><a xlink:title=" ">
<path fill="none" stroke="#63b8ff" d="M891.31,-71.22C996.68,-65.34 1191.27,-52.48 1356.12,-30.5 1366.64,-29.1 1377.89,-27.23 1388.46,-25.3"/>
<polygon fill="#63b8ff" stroke="#63b8ff" points="891.15,-67.73 881.36,-71.77 891.54,-74.72 891.15,-67.73"/>
</a>
</g>
</g>
<!-- Node12 -->
<g id="Node000012" class="node">
<title>Node12</title>
<g id="a_Node000012"><a xlink:href="_moltres_utils_8_c.html" target="_top" xlink:title=" ">
<polygon fill="white" stroke="#666666" points="1633.62,-24.88 1518.62,-24.88 1518.62,-5.63 1633.62,-5.63 1633.62,-24.88"/>
<text text-anchor="middle" x="1576.12" y="-11.38" font-family="Helvetica,sans-Serif" font-size="10.00">src/utils/MoltresUtils.C</text>
</a>
</g>
</g>
<!-- Node1&#45;&gt;Node12 -->
<g id="edge11_Node000001_Node000012" class="edge">
<title>Node1&#45;&gt;Node12</title>
<g id="a_edge11_Node000001_Node000012"><a xlink:title=" ">
<path fill="none" stroke="#63b8ff" d="M890.85,-73.84C1019.33,-70.87 1285.89,-61.24 1509.12,-30.5 1518.55,-29.2 1528.63,-27.32 1538.03,-25.35"/>
<polygon fill="#63b8ff" stroke="#63b8ff" points="891.03,-70.33 881.11,-74.06 891.19,-77.33 891.03,-70.33"/>
</a>
</g>
</g>
</g>
</svg>

<g id="navigator" transform="translate(0 0)" fill="#404254">
  <rect fill="#f2f5e9" fill-opacity="0.5" stroke="#606060" stroke-width=".5" x="0" y="0" width="60" height="60"/>
  <use id="zoomplus" xlink:href="#zoomPlus" x="17" y="9" onmousedown="handleZoom(evt,'in')"/>
  <use id="zoomminus" xlink:href="#zoomMin" x="42" y="9" onmousedown="handleZoom(evt,'out')"/>
  <use id="reset" xlink:href="#resetDef" x="30" y="36" onmousedown="handleReset()"/>
   <use id="arrowup" xlink:href="#arrowUp" x="0" y="0" onmousedown="handlePan(0,-1)"/>
  <use id="arrowright" xlink:href="#arrowRight" x="0" y="0" onmousedown="handlePan(1,0)"/>
  <use id="arrowdown" xlink:href="#arrowDown" x="0" y="0" onmousedown="handlePan(0,1)"/>
  <use id="arrowleft" xlink:href="#arrowLeft" x="0" y="0" onmousedown="handlePan(-1,0)"/>
</g>
<svg viewBox="0 0 15 15" width="100%" height="30px" preserveAspectRatio="xMaxYMin meet">
 <g id="arrow_out" transform="scale(0.3 0.3)">
  <a xlink:href="_moltres_utils_8h__dep__incl_org.svg" target="_base">
   <rect id="button" ry="5" rx="5" y="6" x="6" height="38" width="38"
        fill="#f2f5e9" fill-opacity="0.5" stroke="#606060" stroke-width="1.0"/>
   <path id="arrow"
     d="M 11.500037,31.436501 C 11.940474,20.09759 22.043105,11.32322 32.158766,21.979434 L 37.068811,17.246167 C 37.068811,17.246167 37.088388,32 37.088388,32 L 22.160133,31.978069 C 22.160133,31.978069 26.997745,27.140456 26.997745,27.140456 C 18.528582,18.264221 13.291696,25.230495 11.500037,31.436501 z"
     style="fill:#404040;"/>
  </a>
 </g>
</svg>

<style type='text/css'>
<![CDATA[
[data-mouse-over-selected='false'] { opacity: 0.7; }
[data-mouse-over-selected='true']  { opacity: 1.0; }
]]>
</style>
<script type="application/ecmascript"><![CDATA[
document.addEventListener('DOMContentLoaded', (event) => {
  highlightEdges();
  highlightAdjacentNodes();
});
]]></script>
</svg>
