<?xml version="1.0" encoding="UTF-8" standalone="no"?>
<!DOCTYPE svg PUBLIC "-//W3C//DTD SVG 1.1//EN"
 "http://www.w3.org/Graphics/SVG/1.1/DTD/svg11.dtd">
<!-- Generated by graphviz version 12.2.0 (20241103.1931)
 -->
<!-- Title: include/utils/MoltresUtils.h Pages: 1 -->
<svg width="241pt" height="83pt"
 viewBox="0.00 0.00 241.12 82.50" xmlns="http://www.w3.org/2000/svg" xmlns:xlink="http://www.w3.org/1999/xlink">
<g id="graph0" class="graph" transform="scale(1 1) rotate(0) translate(4 78.5)">
<title>include/utils/MoltresUtils.h</title>
<!-- Node1 -->
<g id="Node000001" class="node">
<title>Node1</title>
<g id="a_Node000001"><a xlink:title=" ">
<polygon fill="#999999" stroke="#666666" points="175.75,-74.5 45,-74.5 45,-55.25 175.75,-55.25 175.75,-74.5"/>
<text text-anchor="middle" x="110.38" y="-61" font-family="Helvetica,sans-Serif" font-size="10.00">include/utils/MoltresUtils.h</text>
</a>
</g>
</g>
<!-- Node2 -->
<g id="Node000002" class="node">
<title>Node2</title>
<g id="a_Node000002"><a xlink:title=" ">
<polygon fill="#e0e0e0" stroke="#999999" points="52.75,-19.25 0,-19.25 0,0 52.75,0 52.75,-19.25"/>
<text text-anchor="middle" x="26.38" y="-5.75" font-family="Helvetica,sans-Serif" font-size="10.00">Moose.h</text>
</a>
</g>
</g>
<!-- Node1&#45;&gt;Node2 -->
<g id="edge1_Node000001_Node000002" class="edge">
<title>Node1&#45;&gt;Node2</title>
<g id="a_edge1_Node000001_Node000002"><a xlink:title=" ">
<path fill="none" stroke="#63b8ff" d="M96.13,-54.84C83.58,-46.89 65.04,-35.14 50.23,-25.75"/>
<polygon fill="#63b8ff" stroke="#63b8ff" points="52.29,-22.91 41.97,-20.51 48.54,-28.82 52.29,-22.91"/>
</a>
</g>
</g>
<!-- Node3 -->
<g id="Node000003" class="node">
<title>Node3</title>
<g id="a_Node000003"><a xlink:title=" ">
<polygon fill="#e0e0e0" stroke="#999999" points="149.88,-19.25 70.88,-19.25 70.88,0 149.88,0 149.88,-19.25"/>
<text text-anchor="middle" x="110.38" y="-5.75" font-family="Helvetica,sans-Serif" font-size="10.00">MooseTypes.h</text>
</a>
</g>
</g>
<!-- Node1&#45;&gt;Node3 -->
<g id="edge2_Node000001_Node000003" class="edge">
<title>Node1&#45;&gt;Node3</title>
<g id="a_edge2_Node000001_Node000003"><a xlink:title=" ">
<path fill="none" stroke="#63b8ff" d="M110.38,-55.08C110.38,-48.57 110.38,-39.42 110.38,-31.12"/>
<polygon fill="#63b8ff" stroke="#63b8ff" points="113.88,-31.12 110.38,-21.12 106.88,-31.12 113.88,-31.12"/>
</a>
</g>
</g>
<!-- Node4 -->
<g id="Node000004" class="node">
<title>Node4</title>
<g id="a_Node000004"><a xlink:title=" ">
<polygon fill="#e0e0e0" stroke="#999999" points="233.12,-19.25 167.62,-19.25 167.62,0 233.12,0 233.12,-19.25"/>
<text text-anchor="middle" x="200.38" y="-5.75" font-family="Helvetica,sans-Serif" font-size="10.00">MathUtils.h</text>
</a>
</g>
</g>
<!-- Node1&#45;&gt;Node4 -->
<g id="edge3_Node000001_Node000004" class="edge">
<title>Node1&#45;&gt;Node4</title>
<g id="a_edge3_Node000001_Node000004"><a xlink:title=" ">
<path fill="none" stroke="#63b8ff" d="M125.64,-54.84C139.22,-46.81 159.33,-34.91 175.27,-25.48"/>
<polygon fill="#63b8ff" stroke="#63b8ff" points="176.91,-28.58 183.73,-20.47 173.34,-22.55 176.91,-28.58"/>
</a>
</g>
</g>
</g>
</svg>
