<?xml version="1.0" encoding="UTF-8" standalone="no"?>
<!DOCTYPE svg PUBLIC "-//W3C//DTD SVG 1.1//EN"
 "http://www.w3.org/Graphics/SVG/1.1/DTD/svg11.dtd">
<!-- Generated by graphviz version 12.2.0 (20241103.1931)
 -->
<!-- Title: include/materials/MoltresJsonMaterial.h Pages: 1 -->
<svg width="284pt" height="172pt"
 viewBox="0.00 0.00 284.25 171.50" xmlns="http://www.w3.org/2000/svg" xmlns:xlink="http://www.w3.org/1999/xlink">
<g id="graph0" class="graph" transform="scale(1 1) rotate(0) translate(4 167.5)">
<title>include/materials/MoltresJsonMaterial.h</title>
<!-- Node1 -->
<g id="Node000001" class="node">
<title>Node1</title>
<g id="a_Node000001"><a xlink:title=" ">
<polygon fill="#999999" stroke="#666666" points="200.38,-163.5 75.62,-163.5 75.62,-133 200.38,-133 200.38,-163.5"/>
<text text-anchor="start" x="83.62" y="-150" font-family="Helvetica,sans-Serif" font-size="10.00">include/materials/Moltres</text>
<text text-anchor="middle" x="138" y="-138.75" font-family="Helvetica,sans-Serif" font-size="10.00">JsonMaterial.h</text>
</a>
</g>
</g>
<!-- Node2 -->
<g id="Node000002" class="node">
<title>Node2</title>
<g id="a_Node000002"><a xlink:href="_diffusion_rod_material_8h.html" target="_top" xlink:title=" ">
<polygon fill="white" stroke="#666666" points="130,-97 0,-97 0,-66.5 130,-66.5 130,-97"/>
<text text-anchor="start" x="8" y="-83.5" font-family="Helvetica,sans-Serif" font-size="10.00">include/materials/Diffusion</text>
<text text-anchor="middle" x="65" y="-72.25" font-family="Helvetica,sans-Serif" font-size="10.00">RodMaterial.h</text>
</a>
</g>
</g>
<!-- Node1&#45;&gt;Node2 -->
<g id="edge1_Node000001_Node000002" class="edge">
<title>Node1&#45;&gt;Node2</title>
<g id="a_edge1_Node000001_Node000002"><a xlink:title=" ">
<path fill="none" stroke="#63b8ff" d="M113.09,-125.24C102.66,-116.03 90.82,-105.56 81.5,-97.33"/>
<polygon fill="#63b8ff" stroke="#63b8ff" points="110.49,-127.61 120.3,-131.61 115.12,-122.37 110.49,-127.61"/>
</a>
</g>
</g>
<!-- Node4 -->
<g id="Node000004" class="node">
<title>Node4</title>
<g id="a_Node000004"><a xlink:href="_moltres_json_material_8_c.html" target="_top" xlink:title=" ">
<polygon fill="white" stroke="#666666" points="276.25,-97 147.75,-97 147.75,-66.5 276.25,-66.5 276.25,-97"/>
<text text-anchor="start" x="155.75" y="-83.5" font-family="Helvetica,sans-Serif" font-size="10.00">src/materials/MoltresJson</text>
<text text-anchor="middle" x="212" y="-72.25" font-family="Helvetica,sans-Serif" font-size="10.00">Material.C</text>
</a>
</g>
</g>
<!-- Node1&#45;&gt;Node4 -->
<g id="edge3_Node000001_Node000004" class="edge">
<title>Node1&#45;&gt;Node4</title>
<g id="a_edge3_Node000001_Node000004"><a xlink:title=" ">
<path fill="none" stroke="#63b8ff" d="M163.25,-125.24C173.82,-116.03 185.83,-105.56 195.27,-97.33"/>
<polygon fill="#63b8ff" stroke="#63b8ff" points="161.17,-122.41 155.93,-131.62 165.77,-127.69 161.17,-122.41"/>
</a>
</g>
</g>
<!-- Node3 -->
<g id="Node000003" class="node">
<title>Node3</title>
<g id="a_Node000003"><a xlink:href="_diffusion_rod_material_8_c.html" target="_top" xlink:title=" ">
<polygon fill="white" stroke="#666666" points="130,-30.5 0,-30.5 0,0 130,0 130,-30.5"/>
<text text-anchor="start" x="8" y="-17" font-family="Helvetica,sans-Serif" font-size="10.00">src/materials/DiffusionRod</text>
<text text-anchor="middle" x="65" y="-5.75" font-family="Helvetica,sans-Serif" font-size="10.00">Material.C</text>
</a>
</g>
</g>
<!-- Node2&#45;&gt;Node3 -->
<g id="edge2_Node000002_Node000003" class="edge">
<title>Node2&#45;&gt;Node3</title>
<g id="a_edge2_Node000002_Node000003"><a xlink:title=" ">
<path fill="none" stroke="#63b8ff" d="M65,-54.81C65,-46.64 65,-37.91 65,-30.83"/>
<polygon fill="#63b8ff" stroke="#63b8ff" points="61.5,-54.6 65,-64.6 68.5,-54.6 61.5,-54.6"/>
</a>
</g>
</g>
</g>
</svg>
