<?xml version="1.0" encoding="UTF-8" standalone="no"?>
<!DOCTYPE svg PUBLIC "-//W3C//DTD SVG 1.1//EN"
 "http://www.w3.org/Graphics/SVG/1.1/DTD/svg11.dtd">
<!-- Generated by graphviz version 12.2.0 (20241103.1931)
 -->
<!-- Title: src/materials/MsreFuelTwoGrpXSFunctionMaterial.C Pages: 1 -->
<svg width="698pt" height="160pt"
 viewBox="0.00 0.00 698.25 160.25" xmlns="http://www.w3.org/2000/svg" xmlns:xlink="http://www.w3.org/1999/xlink">
<g id="graph0" class="graph" transform="scale(1 1) rotate(0) translate(4 156.25)">
<title>src/materials/MsreFuelTwoGrpXSFunctionMaterial.C</title>
<!-- Node1 -->
<g id="Node000001" class="node">
<title>Node1</title>
<g id="a_Node000001"><a xlink:title=" ">
<polygon fill="#999999" stroke="#666666" points="468.62,-152.25 334.12,-152.25 334.12,-121.75 468.62,-121.75 468.62,-152.25"/>
<text text-anchor="start" x="342.12" y="-138.75" font-family="Helvetica,sans-Serif" font-size="10.00">src/materials/MsreFuelTwo</text>
<text text-anchor="middle" x="401.38" y="-127.5" font-family="Helvetica,sans-Serif" font-size="10.00">GrpXSFunctionMaterial.C</text>
</a>
</g>
</g>
<!-- Node2 -->
<g id="Node000002" class="node">
<title>Node2</title>
<g id="a_Node000002"><a xlink:href="_msre_fuel_two_grp_x_s_function_material_8h.html" target="_top" xlink:title=" ">
<polygon fill="white" stroke="#666666" points="409.38,-85.75 267.38,-85.75 267.38,-55.25 409.38,-55.25 409.38,-85.75"/>
<text text-anchor="start" x="275.38" y="-72.25" font-family="Helvetica,sans-Serif" font-size="10.00">MsreFuelTwoGrpXSFunction</text>
<text text-anchor="middle" x="338.38" y="-61" font-family="Helvetica,sans-Serif" font-size="10.00">Material.h</text>
</a>
</g>
</g>
<!-- Node1&#45;&gt;Node2 -->
<g id="edge1_Node000001_Node000002" class="edge">
<title>Node1&#45;&gt;Node2</title>
<g id="a_edge1_Node000001_Node000002"><a xlink:title=" ">
<path fill="none" stroke="#63b8ff" d="M387.08,-121.36C379.27,-113.36 369.42,-103.28 360.62,-94.28"/>
<polygon fill="#63b8ff" stroke="#63b8ff" points="363.16,-91.87 353.67,-87.16 358.16,-96.76 363.16,-91.87"/>
</a>
</g>
</g>
<!-- Node8 -->
<g id="Node000008" class="node">
<title>Node8</title>
<g id="a_Node000008"><a xlink:title=" ">
<polygon fill="#e0e0e0" stroke="#999999" points="500.88,-80.12 427.88,-80.12 427.88,-60.88 500.88,-60.88 500.88,-80.12"/>
<text text-anchor="middle" x="464.38" y="-66.62" font-family="Helvetica,sans-Serif" font-size="10.00">MooseUtils.h</text>
</a>
</g>
</g>
<!-- Node1&#45;&gt;Node8 -->
<g id="edge7_Node000001_Node000008" class="edge">
<title>Node1&#45;&gt;Node8</title>
<g id="a_edge7_Node000001_Node000008"><a xlink:title=" ">
<path fill="none" stroke="#63b8ff" d="M415.67,-121.36C425.22,-111.59 437.81,-98.7 447.79,-88.48"/>
<polygon fill="#63b8ff" stroke="#63b8ff" points="450.22,-91 454.7,-81.41 445.21,-86.11 450.22,-91"/>
</a>
</g>
</g>
<!-- Node3 -->
<g id="Node000003" class="node">
<title>Node3</title>
<g id="a_Node000003"><a xlink:title=" ">
<polygon fill="#e0e0e0" stroke="#999999" points="130.75,-19.25 0,-19.25 0,0 130.75,0 130.75,-19.25"/>
<text text-anchor="middle" x="65.38" y="-5.75" font-family="Helvetica,sans-Serif" font-size="10.00">GenericConstantMaterial.h</text>
</a>
</g>
</g>
<!-- Node2&#45;&gt;Node3 -->
<g id="edge2_Node000002_Node000003" class="edge">
<title>Node2&#45;&gt;Node3</title>
<g id="a_edge2_Node000002_Node000003"><a xlink:title=" ">
<path fill="none" stroke="#63b8ff" d="M270.19,-54.8C223.36,-44.7 162.08,-31.48 118.79,-22.15"/>
<polygon fill="#63b8ff" stroke="#63b8ff" points="119.64,-18.75 109.12,-20.06 118.16,-25.59 119.64,-18.75"/>
</a>
</g>
</g>
<!-- Node4 -->
<g id="Node000004" class="node">
<title>Node4</title>
<g id="a_Node000004"><a xlink:title=" ">
<polygon fill="#e0e0e0" stroke="#999999" points="252.25,-19.25 148.5,-19.25 148.5,0 252.25,0 252.25,-19.25"/>
<text text-anchor="middle" x="200.38" y="-5.75" font-family="Helvetica,sans-Serif" font-size="10.00">SplineInterpolation.h</text>
</a>
</g>
</g>
<!-- Node2&#45;&gt;Node4 -->
<g id="edge3_Node000002_Node000004" class="edge">
<title>Node2&#45;&gt;Node4</title>
<g id="a_edge3_Node000002_Node000004"><a xlink:title=" ">
<path fill="none" stroke="#63b8ff" d="M303.91,-54.8C281.88,-45.4 253.53,-33.3 232.06,-24.14"/>
<polygon fill="#63b8ff" stroke="#63b8ff" points="233.5,-20.95 222.93,-20.25 230.76,-27.39 233.5,-20.95"/>
</a>
</g>
</g>
<!-- Node5 -->
<g id="Node000005" class="node">
<title>Node5</title>
<g id="a_Node000005"><a xlink:title=" ">
<polygon fill="#e0e0e0" stroke="#999999" points="406.38,-19.25 270.38,-19.25 270.38,0 406.38,0 406.38,-19.25"/>
<text text-anchor="middle" x="338.38" y="-5.75" font-family="Helvetica,sans-Serif" font-size="10.00">BicubicSplineInterpolation.h</text>
</a>
</g>
</g>
<!-- Node2&#45;&gt;Node5 -->
<g id="edge4_Node000002_Node000005" class="edge">
<title>Node2&#45;&gt;Node5</title>
<g id="a_edge4_Node000002_Node000005"><a xlink:title=" ">
<path fill="none" stroke="#63b8ff" d="M338.38,-54.95C338.38,-47.71 338.38,-38.84 338.38,-30.94"/>
<polygon fill="#63b8ff" stroke="#63b8ff" points="341.88,-31.21 338.38,-21.21 334.88,-31.21 341.88,-31.21"/>
</a>
</g>
</g>
<!-- Node6 -->
<g id="Node000006" class="node">
<title>Node6</title>
<g id="a_Node000006"><a xlink:title=" ">
<polygon fill="#e0e0e0" stroke="#999999" points="568.5,-19.25 424.25,-19.25 424.25,0 568.5,0 568.5,-19.25"/>
<text text-anchor="middle" x="496.38" y="-5.75" font-family="Helvetica,sans-Serif" font-size="10.00">MonotoneCubicInterpolation.h</text>
</a>
</g>
</g>
<!-- Node2&#45;&gt;Node6 -->
<g id="edge5_Node000002_Node000006" class="edge">
<title>Node2&#45;&gt;Node6</title>
<g id="a_edge5_Node000002_Node000006"><a xlink:title=" ">
<path fill="none" stroke="#63b8ff" d="M377.84,-54.8C403.52,-45.23 436.71,-32.86 461.44,-23.64"/>
<polygon fill="#63b8ff" stroke="#63b8ff" points="462.58,-26.95 470.73,-20.18 460.13,-20.39 462.58,-26.95"/>
</a>
</g>
</g>
<!-- Node7 -->
<g id="Node000007" class="node">
<title>Node7</title>
<g id="a_Node000007"><a xlink:title=" ">
<polygon fill="#e0e0e0" stroke="#999999" points="690.25,-19.25 586.5,-19.25 586.5,0 690.25,0 690.25,-19.25"/>
<text text-anchor="middle" x="638.38" y="-5.75" font-family="Helvetica,sans-Serif" font-size="10.00">LinearInterpolation.h</text>
</a>
</g>
</g>
<!-- Node2&#45;&gt;Node7 -->
<g id="edge6_Node000002_Node000007" class="edge">
<title>Node2&#45;&gt;Node7</title>
<g id="a_edge6_Node000002_Node000007"><a xlink:title=" ">
<path fill="none" stroke="#63b8ff" d="M409.85,-55.47C462.16,-45.21 532.2,-31.46 580.9,-21.9"/>
<polygon fill="#63b8ff" stroke="#63b8ff" points="581.56,-25.34 590.69,-19.98 580.21,-18.47 581.56,-25.34"/>
</a>
</g>
</g>
</g>
</svg>
