<?xml version="1.0" encoding="UTF-8" standalone="no"?>
<!DOCTYPE svg PUBLIC "-//W3C//DTD SVG 1.1//EN"
 "http://www.w3.org/Graphics/SVG/1.1/DTD/svg11.dtd">
<!-- Generated by graphviz version 7.0.5 (20221223.1930)
 -->
<!-- Title: include/materials/MsreFuelTwoGrpXSFunctionMaterial.h Pages: 1 -->
<svg width="703pt" height="93pt"
 viewBox="0.00 0.00 702.50 93.00" xmlns="http://www.w3.org/2000/svg" xmlns:xlink="http://www.w3.org/1999/xlink">
<g id="graph0" class="graph" transform="scale(1 1) rotate(0) translate(4 89)">
<title>include/materials/MsreFuelTwoGrpXSFunctionMaterial.h</title>
<!-- Node1 -->
<g id="node1" class="node">
<title>Node1</title>
<g id="a_node1"><a xlink:title=" ">
<polygon fill="#999999" stroke="#666666" points="412.5,-85 268.5,-85 268.5,-55 412.5,-55 412.5,-85"/>
<text text-anchor="start" x="276.5" y="-73" font-family="Helvetica,sans-Serif" font-size="10.00">include/materials/MsreFuel</text>
<text text-anchor="middle" x="340.5" y="-62" font-family="Helvetica,sans-Serif" font-size="10.00">TwoGrpXSFunctionMaterial.h</text>
</a>
</g>
</g>
<!-- Node2 -->
<g id="node2" class="node">
<title>Node2</title>
<g id="a_node2"><a xlink:title=" ">
<polygon fill="#e0e0e0" stroke="#999999" points="131,-19 0,-19 0,0 131,0 131,-19"/>
<text text-anchor="middle" x="65.5" y="-7" font-family="Helvetica,sans-Serif" font-size="10.00">GenericConstantMaterial.h</text>
</a>
</g>
</g>
<!-- Node1&#45;&gt;Node2 -->
<g id="edge1" class="edge">
<title>Node1&#45;&gt;Node2</title>
<path fill="none" stroke="#63b8ff" d="M272.52,-54.54C224.97,-44.42 162.36,-31.11 118.5,-21.77"/>
<polygon fill="#63b8ff" stroke="#63b8ff" points="119.48,-18.4 108.97,-19.75 118.02,-25.25 119.48,-18.4"/>
</g>
<!-- Node3 -->
<g id="node3" class="node">
<title>Node3</title>
<g id="a_node3"><a xlink:title=" ">
<polygon fill="#e0e0e0" stroke="#999999" points="253.5,-19 149.5,-19 149.5,0 253.5,0 253.5,-19"/>
<text text-anchor="middle" x="201.5" y="-7" font-family="Helvetica,sans-Serif" font-size="10.00">SplineInterpolation.h</text>
</a>
</g>
</g>
<!-- Node1&#45;&gt;Node3 -->
<g id="edge2" class="edge">
<title>Node1&#45;&gt;Node3</title>
<path fill="none" stroke="#63b8ff" d="M306.14,-54.54C283.72,-45.1 254.68,-32.88 232.88,-23.71"/>
<polygon fill="#63b8ff" stroke="#63b8ff" points="234.49,-20.59 223.91,-19.93 231.77,-27.04 234.49,-20.59"/>
</g>
<!-- Node4 -->
<g id="node4" class="node">
<title>Node4</title>
<g id="a_node4"><a xlink:title=" ">
<polygon fill="#e0e0e0" stroke="#999999" points="409,-19 272,-19 272,0 409,0 409,-19"/>
<text text-anchor="middle" x="340.5" y="-7" font-family="Helvetica,sans-Serif" font-size="10.00">BicubicSplineInterpolation.h</text>
</a>
</g>
</g>
<!-- Node1&#45;&gt;Node4 -->
<g id="edge3" class="edge">
<title>Node1&#45;&gt;Node4</title>
<path fill="none" stroke="#63b8ff" d="M340.5,-54.54C340.5,-47.34 340.5,-38.53 340.5,-30.68"/>
<polygon fill="#63b8ff" stroke="#63b8ff" points="344,-30.69 340.5,-20.69 337,-30.69 344,-30.69"/>
</g>
<!-- Node5 -->
<g id="node5" class="node">
<title>Node5</title>
<g id="a_node5"><a xlink:title=" ">
<polygon fill="#e0e0e0" stroke="#999999" points="572,-19 427,-19 427,0 572,0 572,-19"/>
<text text-anchor="middle" x="499.5" y="-7" font-family="Helvetica,sans-Serif" font-size="10.00">MonotoneCubicInterpolation.h</text>
</a>
</g>
</g>
<!-- Node1&#45;&gt;Node5 -->
<g id="edge4" class="edge">
<title>Node1&#45;&gt;Node5</title>
<path fill="none" stroke="#63b8ff" d="M379.8,-54.54C405.92,-44.93 439.89,-32.43 464.96,-23.21"/>
<polygon fill="#63b8ff" stroke="#63b8ff" points="465.86,-26.61 474.04,-19.87 463.44,-20.04 465.86,-26.61"/>
</g>
<!-- Node6 -->
<g id="node6" class="node">
<title>Node6</title>
<g id="a_node6"><a xlink:title=" ">
<polygon fill="#e0e0e0" stroke="#999999" points="694.5,-19 590.5,-19 590.5,0 694.5,0 694.5,-19"/>
<text text-anchor="middle" x="642.5" y="-7" font-family="Helvetica,sans-Serif" font-size="10.00">LinearInterpolation.h</text>
</a>
</g>
</g>
<!-- Node1&#45;&gt;Node6 -->
<g id="edge5" class="edge">
<title>Node1&#45;&gt;Node6</title>
<path fill="none" stroke="#63b8ff" d="M412.84,-54.99C465.61,-44.76 536.18,-31.1 585.1,-21.62"/>
<polygon fill="#63b8ff" stroke="#63b8ff" points="585.48,-25.11 594.63,-19.77 584.15,-18.24 585.48,-25.11"/>
</g>
</g>
</svg>
