<?xml version="1.0" encoding="UTF-8" standalone="no"?>
<!DOCTYPE svg PUBLIC "-//W3C//DTD SVG 1.1//EN"
 "http://www.w3.org/Graphics/SVG/1.1/DTD/svg11.dtd">
<!-- Generated by graphviz version 12.2.0 (20241103.1931)
 -->
<!-- Title: include/materials/MsreFuelTwoGrpXSFunctionMaterial.h Pages: 1 -->
<svg width="698pt" height="94pt"
 viewBox="0.00 0.00 698.25 93.75" xmlns="http://www.w3.org/2000/svg" xmlns:xlink="http://www.w3.org/1999/xlink">
<g id="graph0" class="graph" transform="scale(1 1) rotate(0) translate(4 89.75)">
<title>include/materials/MsreFuelTwoGrpXSFunctionMaterial.h</title>
<!-- Node1 -->
<g id="Node000001" class="node">
<title>Node1</title>
<g id="a_Node000001"><a xlink:title=" ">
<polygon fill="#999999" stroke="#666666" points="410.12,-85.75 266.62,-85.75 266.62,-55.25 410.12,-55.25 410.12,-85.75"/>
<text text-anchor="start" x="274.62" y="-72.25" font-family="Helvetica,sans-Serif" font-size="10.00">include/materials/MsreFuel</text>
<text text-anchor="middle" x="338.38" y="-61" font-family="Helvetica,sans-Serif" font-size="10.00">TwoGrpXSFunctionMaterial.h</text>
</a>
</g>
</g>
<!-- Node2 -->
<g id="Node000002" class="node">
<title>Node2</title>
<g id="a_Node000002"><a xlink:title=" ">
<polygon fill="#e0e0e0" stroke="#999999" points="130.75,-19.25 0,-19.25 0,0 130.75,0 130.75,-19.25"/>
<text text-anchor="middle" x="65.38" y="-5.75" font-family="Helvetica,sans-Serif" font-size="10.00">GenericConstantMaterial.h</text>
</a>
</g>
</g>
<!-- Node1&#45;&gt;Node2 -->
<g id="edge1_Node000001_Node000002" class="edge">
<title>Node1&#45;&gt;Node2</title>
<g id="a_edge1_Node000001_Node000002"><a xlink:title=" ">
<path fill="none" stroke="#63b8ff" d="M270.19,-54.8C223.36,-44.7 162.08,-31.48 118.79,-22.15"/>
<polygon fill="#63b8ff" stroke="#63b8ff" points="119.64,-18.75 109.12,-20.06 118.16,-25.59 119.64,-18.75"/>
</a>
</g>
</g>
<!-- Node3 -->
<g id="Node000003" class="node">
<title>Node3</title>
<g id="a_Node000003"><a xlink:title=" ">
<polygon fill="#e0e0e0" stroke="#999999" points="252.25,-19.25 148.5,-19.25 148.5,0 252.25,0 252.25,-19.25"/>
<text text-anchor="middle" x="200.38" y="-5.75" font-family="Helvetica,sans-Serif" font-size="10.00">SplineInterpolation.h</text>
</a>
</g>
</g>
<!-- Node1&#45;&gt;Node3 -->
<g id="edge2_Node000001_Node000003" class="edge">
<title>Node1&#45;&gt;Node3</title>
<g id="a_edge2_Node000001_Node000003"><a xlink:title=" ">
<path fill="none" stroke="#63b8ff" d="M303.91,-54.8C281.88,-45.4 253.53,-33.3 232.06,-24.14"/>
<polygon fill="#63b8ff" stroke="#63b8ff" points="233.5,-20.95 222.93,-20.25 230.76,-27.39 233.5,-20.95"/>
</a>
</g>
</g>
<!-- Node4 -->
<g id="Node000004" class="node">
<title>Node4</title>
<g id="a_Node000004"><a xlink:title=" ">
<polygon fill="#e0e0e0" stroke="#999999" points="406.38,-19.25 270.38,-19.25 270.38,0 406.38,0 406.38,-19.25"/>
<text text-anchor="middle" x="338.38" y="-5.75" font-family="Helvetica,sans-Serif" font-size="10.00">BicubicSplineInterpolation.h</text>
</a>
</g>
</g>
<!-- Node1&#45;&gt;Node4 -->
<g id="edge3_Node000001_Node000004" class="edge">
<title>Node1&#45;&gt;Node4</title>
<g id="a_edge3_Node000001_Node000004"><a xlink:title=" ">
<path fill="none" stroke="#63b8ff" d="M338.38,-54.95C338.38,-47.71 338.38,-38.84 338.38,-30.94"/>
<polygon fill="#63b8ff" stroke="#63b8ff" points="341.88,-31.21 338.38,-21.21 334.88,-31.21 341.88,-31.21"/>
</a>
</g>
</g>
<!-- Node5 -->
<g id="Node000005" class="node">
<title>Node5</title>
<g id="a_Node000005"><a xlink:title=" ">
<polygon fill="#e0e0e0" stroke="#999999" points="568.5,-19.25 424.25,-19.25 424.25,0 568.5,0 568.5,-19.25"/>
<text text-anchor="middle" x="496.38" y="-5.75" font-family="Helvetica,sans-Serif" font-size="10.00">MonotoneCubicInterpolation.h</text>
</a>
</g>
</g>
<!-- Node1&#45;&gt;Node5 -->
<g id="edge4_Node000001_Node000005" class="edge">
<title>Node1&#45;&gt;Node5</title>
<g id="a_edge4_Node000001_Node000005"><a xlink:title=" ">
<path fill="none" stroke="#63b8ff" d="M377.84,-54.8C403.52,-45.23 436.71,-32.86 461.44,-23.64"/>
<polygon fill="#63b8ff" stroke="#63b8ff" points="462.58,-26.95 470.73,-20.18 460.13,-20.39 462.58,-26.95"/>
</a>
</g>
</g>
<!-- Node6 -->
<g id="Node000006" class="node">
<title>Node6</title>
<g id="a_Node000006"><a xlink:title=" ">
<polygon fill="#e0e0e0" stroke="#999999" points="690.25,-19.25 586.5,-19.25 586.5,0 690.25,0 690.25,-19.25"/>
<text text-anchor="middle" x="638.38" y="-5.75" font-family="Helvetica,sans-Serif" font-size="10.00">LinearInterpolation.h</text>
</a>
</g>
</g>
<!-- Node1&#45;&gt;Node6 -->
<g id="edge5_Node000001_Node000006" class="edge">
<title>Node1&#45;&gt;Node6</title>
<g id="a_edge5_Node000001_Node000006"><a xlink:title=" ">
<path fill="none" stroke="#63b8ff" d="M410.61,-55.32C462.78,-45.09 532.29,-31.44 580.74,-21.94"/>
<polygon fill="#63b8ff" stroke="#63b8ff" points="581.35,-25.38 590.49,-20.02 580,-18.51 581.35,-25.38"/>
</a>
</g>
</g>
</g>
</svg>
