<?xml version="1.0" encoding="UTF-8" standalone="no"?>
<!DOCTYPE svg PUBLIC "-//W3C//DTD SVG 1.1//EN"
 "http://www.w3.org/Graphics/SVG/1.1/DTD/svg11.dtd">
<!-- Generated by graphviz version 2.49.3 (20211027.1534)
 -->
<!-- Title: src/materials/MsreFuelTwoGrpXSFunctionMaterial.C Pages: 1 -->
<svg width="703pt" height="162pt"
 viewBox="0.00 0.00 702.50 162.00" xmlns="http://www.w3.org/2000/svg" xmlns:xlink="http://www.w3.org/1999/xlink">
<g id="graph0" class="graph" transform="scale(1 1) rotate(0) translate(4 158)">
<title>src/materials/MsreFuelTwoGrpXSFunctionMaterial.C</title>
<polygon fill="white" stroke="transparent" points="-4,4 -4,-158 698.5,-158 698.5,4 -4,4"/>
<!-- Node1 -->
<g id="node1" class="node">
<title>Node1</title>
<g id="a_node1"><a xlink:title=" ">
<polygon fill="#bfbfbf" stroke="black" points="336,-123.5 336,-153.5 471,-153.5 471,-123.5 336,-123.5"/>
<text text-anchor="start" x="344" y="-141.5" font-family="Helvetica,sans-Serif" font-size="10.00">src/materials/MsreFuelTwo</text>
<text text-anchor="middle" x="403.5" y="-130.5" font-family="Helvetica,sans-Serif" font-size="10.00">GrpXSFunctionMaterial.C</text>
</a>
</g>
</g>
<!-- Node2 -->
<g id="node2" class="node">
<title>Node2</title>
<g id="a_node2"><a xlink:href="_msre_fuel_two_grp_x_s_function_material_8h.html" target="_top" xlink:title=" ">
<polygon fill="white" stroke="black" points="269,-56.5 269,-86.5 412,-86.5 412,-56.5 269,-56.5"/>
<text text-anchor="start" x="277" y="-74.5" font-family="Helvetica,sans-Serif" font-size="10.00">MsreFuelTwoGrpXSFunction</text>
<text text-anchor="middle" x="340.5" y="-63.5" font-family="Helvetica,sans-Serif" font-size="10.00">Material.h</text>
</a>
</g>
</g>
<!-- Node1&#45;&gt;Node2 -->
<g id="edge1" class="edge">
<title>Node1&#45;&gt;Node2</title>
<path fill="none" stroke="midnightblue" d="M389.83,-123.4C381.49,-114.79 370.67,-103.63 361.28,-93.94"/>
<polygon fill="midnightblue" stroke="midnightblue" points="363.62,-91.32 354.14,-86.58 358.59,-96.19 363.62,-91.32"/>
</g>
<!-- Node8 -->
<g id="node8" class="node">
<title>Node8</title>
<g id="a_node8"><a xlink:title=" ">
<polygon fill="white" stroke="#bfbfbf" points="430.5,-62 430.5,-81 504.5,-81 504.5,-62 430.5,-62"/>
<text text-anchor="middle" x="467.5" y="-69" font-family="Helvetica,sans-Serif" font-size="10.00">MooseUtils.h</text>
</a>
</g>
</g>
<!-- Node1&#45;&gt;Node8 -->
<g id="edge7" class="edge">
<title>Node1&#45;&gt;Node8</title>
<path fill="none" stroke="midnightblue" d="M417.39,-123.4C427.46,-113.16 441.12,-99.3 451.63,-88.62"/>
<polygon fill="midnightblue" stroke="midnightblue" points="454.42,-90.78 458.94,-81.19 449.43,-85.86 454.42,-90.78"/>
</g>
<!-- Node3 -->
<g id="node3" class="node">
<title>Node3</title>
<g id="a_node3"><a xlink:title=" ">
<polygon fill="white" stroke="#bfbfbf" points="0,-0.5 0,-19.5 131,-19.5 131,-0.5 0,-0.5"/>
<text text-anchor="middle" x="65.5" y="-7.5" font-family="Helvetica,sans-Serif" font-size="10.00">GenericConstantMaterial.h</text>
</a>
</g>
</g>
<!-- Node2&#45;&gt;Node3 -->
<g id="edge2" class="edge">
<title>Node2&#45;&gt;Node3</title>
<path fill="none" stroke="midnightblue" d="M275.68,-56.47C226.37,-45.81 159.56,-31.35 114.62,-21.63"/>
<polygon fill="midnightblue" stroke="midnightblue" points="115.33,-18.2 104.82,-19.51 113.85,-25.04 115.33,-18.2"/>
</g>
<!-- Node4 -->
<g id="node4" class="node">
<title>Node4</title>
<g id="a_node4"><a xlink:title=" ">
<polygon fill="white" stroke="#bfbfbf" points="149.5,-0.5 149.5,-19.5 253.5,-19.5 253.5,-0.5 149.5,-0.5"/>
<text text-anchor="middle" x="201.5" y="-7.5" font-family="Helvetica,sans-Serif" font-size="10.00">SplineInterpolation.h</text>
</a>
</g>
</g>
<!-- Node2&#45;&gt;Node4 -->
<g id="edge3" class="edge">
<title>Node2&#45;&gt;Node4</title>
<path fill="none" stroke="midnightblue" d="M307.56,-56.4C284.34,-46.46 253.51,-33.26 231.08,-23.66"/>
<polygon fill="midnightblue" stroke="midnightblue" points="232.3,-20.38 221.73,-19.66 229.54,-26.81 232.3,-20.38"/>
</g>
<!-- Node5 -->
<g id="node5" class="node">
<title>Node5</title>
<g id="a_node5"><a xlink:title=" ">
<polygon fill="white" stroke="#bfbfbf" points="272,-0.5 272,-19.5 409,-19.5 409,-0.5 272,-0.5"/>
<text text-anchor="middle" x="340.5" y="-7.5" font-family="Helvetica,sans-Serif" font-size="10.00">BicubicSplineInterpolation.h</text>
</a>
</g>
</g>
<!-- Node2&#45;&gt;Node5 -->
<g id="edge4" class="edge">
<title>Node2&#45;&gt;Node5</title>
<path fill="none" stroke="midnightblue" d="M340.5,-56.4C340.5,-48.47 340.5,-38.46 340.5,-29.86"/>
<polygon fill="midnightblue" stroke="midnightblue" points="344,-29.66 340.5,-19.66 337,-29.66 344,-29.66"/>
</g>
<!-- Node6 -->
<g id="node6" class="node">
<title>Node6</title>
<g id="a_node6"><a xlink:title=" ">
<polygon fill="white" stroke="#bfbfbf" points="427,-0.5 427,-19.5 572,-19.5 572,-0.5 427,-0.5"/>
<text text-anchor="middle" x="499.5" y="-7.5" font-family="Helvetica,sans-Serif" font-size="10.00">MonotoneCubicInterpolation.h</text>
</a>
</g>
</g>
<!-- Node2&#45;&gt;Node6 -->
<g id="edge5" class="edge">
<title>Node2&#45;&gt;Node6</title>
<path fill="none" stroke="midnightblue" d="M378.18,-56.4C405.1,-46.33 440.95,-32.91 466.69,-23.28"/>
<polygon fill="midnightblue" stroke="midnightblue" points="468.23,-26.44 476.36,-19.66 465.77,-19.88 468.23,-26.44"/>
</g>
<!-- Node7 -->
<g id="node7" class="node">
<title>Node7</title>
<g id="a_node7"><a xlink:title=" ">
<polygon fill="white" stroke="#bfbfbf" points="590.5,-0.5 590.5,-19.5 694.5,-19.5 694.5,-0.5 590.5,-0.5"/>
<text text-anchor="middle" x="642.5" y="-7.5" font-family="Helvetica,sans-Serif" font-size="10.00">LinearInterpolation.h</text>
</a>
</g>
</g>
<!-- Node2&#45;&gt;Node7 -->
<g id="edge6" class="edge">
<title>Node2&#45;&gt;Node7</title>
<path fill="none" stroke="midnightblue" d="M411.69,-56.47C466.18,-45.74 540.13,-31.17 589.49,-21.44"/>
<polygon fill="midnightblue" stroke="midnightblue" points="590.19,-24.87 599.32,-19.51 588.84,-18.01 590.19,-24.87"/>
</g>
</g>
</svg>
