<?xml version="1.0" encoding="UTF-8" standalone="no"?>
<!DOCTYPE svg PUBLIC "-//W3C//DTD SVG 1.1//EN"
 "http://www.w3.org/Graphics/SVG/1.1/DTD/svg11.dtd">
<!-- Generated by graphviz version 7.0.5 (20221223.1930)
 -->
<!-- Title: src/postprocessors/NeutronLeakage.C Pages: 1 -->
<svg width="182pt" height="148pt"
 viewBox="0.00 0.00 182.00 148.00" xmlns="http://www.w3.org/2000/svg" xmlns:xlink="http://www.w3.org/1999/xlink">
<g id="graph0" class="graph" transform="scale(1 1) rotate(0) translate(4 144)">
<title>src/postprocessors/NeutronLeakage.C</title>
<!-- Node1 -->
<g id="node1" class="node">
<title>Node1</title>
<g id="a_node1"><a xlink:title=" ">
<polygon fill="#999999" stroke="#666666" points="137.5,-140 36.5,-140 36.5,-110 137.5,-110 137.5,-140"/>
<text text-anchor="start" x="44.5" y="-128" font-family="Helvetica,sans-Serif" font-size="10.00">src/postprocessors</text>
<text text-anchor="middle" x="87" y="-117" font-family="Helvetica,sans-Serif" font-size="10.00">/NeutronLeakage.C</text>
</a>
</g>
</g>
<!-- Node2 -->
<g id="node2" class="node">
<title>Node2</title>
<g id="a_node2"><a xlink:href="_neutron_leakage_8h.html" target="_top" xlink:title=" ">
<polygon fill="white" stroke="#666666" points="135,-74 39,-74 39,-55 135,-55 135,-74"/>
<text text-anchor="middle" x="87" y="-62" font-family="Helvetica,sans-Serif" font-size="10.00">NeutronLeakage.h</text>
</a>
</g>
</g>
<!-- Node1&#45;&gt;Node2 -->
<g id="edge1" class="edge">
<title>Node1&#45;&gt;Node2</title>
<path fill="none" stroke="#63b8ff" d="M87,-109.54C87,-102.34 87,-93.53 87,-85.68"/>
<polygon fill="#63b8ff" stroke="#63b8ff" points="90.5,-85.69 87,-75.69 83.5,-85.69 90.5,-85.69"/>
</g>
<!-- Node3 -->
<g id="node3" class="node">
<title>Node3</title>
<g id="a_node3"><a xlink:title=" ">
<polygon fill="#e0e0e0" stroke="#999999" points="174,-19 0,-19 0,0 174,0 174,-19"/>
<text text-anchor="middle" x="87" y="-7" font-family="Helvetica,sans-Serif" font-size="10.00">SideIntegralVariablePostprocessor.h</text>
</a>
</g>
</g>
<!-- Node2&#45;&gt;Node3 -->
<g id="edge2" class="edge">
<title>Node2&#45;&gt;Node3</title>
<path fill="none" stroke="#63b8ff" d="M87,-54.75C87,-48.27 87,-39.16 87,-30.9"/>
<polygon fill="#63b8ff" stroke="#63b8ff" points="90.5,-30.96 87,-20.96 83.5,-30.96 90.5,-30.96"/>
</g>
</g>
</svg>
