<?xml version="1.0" encoding="UTF-8" standalone="no"?>
<!DOCTYPE svg PUBLIC "-//W3C//DTD SVG 1.1//EN"
 "http://www.w3.org/Graphics/SVG/1.1/DTD/svg11.dtd">
<!-- Generated by graphviz version 12.2.0 (20241103.1931)
 -->
<!-- Title: include/auxkernels/NeutronSourceAux.h Pages: 1 -->
<svg width="266pt" height="149pt"
 viewBox="0.00 0.00 266.12 149.00" xmlns="http://www.w3.org/2000/svg" xmlns:xlink="http://www.w3.org/1999/xlink">
<g id="graph0" class="graph" transform="scale(1 1) rotate(0) translate(4 145)">
<title>include/auxkernels/NeutronSourceAux.h</title>
<!-- Node1 -->
<g id="Node000001" class="node">
<title>Node1</title>
<g id="a_Node000001"><a xlink:title=" ">
<polygon fill="#999999" stroke="#666666" points="142,-141 33.75,-141 33.75,-110.5 142,-110.5 142,-141"/>
<text text-anchor="start" x="41.75" y="-127.5" font-family="Helvetica,sans-Serif" font-size="10.00">include/auxkernels</text>
<text text-anchor="middle" x="87.88" y="-116.25" font-family="Helvetica,sans-Serif" font-size="10.00">/NeutronSourceAux.h</text>
</a>
</g>
</g>
<!-- Node2 -->
<g id="Node000002" class="node">
<title>Node2</title>
<g id="a_Node000002"><a xlink:title=" ">
<polygon fill="#e0e0e0" stroke="#999999" points="67.75,-74.5 0,-74.5 0,-55.25 67.75,-55.25 67.75,-74.5"/>
<text text-anchor="middle" x="33.88" y="-61" font-family="Helvetica,sans-Serif" font-size="10.00">AuxKernel.h</text>
</a>
</g>
</g>
<!-- Node1&#45;&gt;Node2 -->
<g id="edge1_Node000001_Node000002" class="edge">
<title>Node1&#45;&gt;Node2</title>
<g id="a_edge1_Node000001_Node000002"><a xlink:title=" ">
<path fill="none" stroke="#63b8ff" d="M74.53,-110.2C67.1,-102.09 57.79,-91.95 49.96,-83.41"/>
<polygon fill="#63b8ff" stroke="#63b8ff" points="52.56,-81.07 43.22,-76.07 47.4,-85.8 52.56,-81.07"/>
</a>
</g>
</g>
<!-- Node3 -->
<g id="Node000003" class="node">
<title>Node3</title>
<g id="a_Node000003"><a xlink:href="_scalar_transport_base_8h.html" target="_top" xlink:title=" ">
<polygon fill="white" stroke="#666666" points="200.38,-74.5 85.38,-74.5 85.38,-55.25 200.38,-55.25 200.38,-74.5"/>
<text text-anchor="middle" x="142.88" y="-61" font-family="Helvetica,sans-Serif" font-size="10.00">ScalarTransportBase.h</text>
</a>
</g>
</g>
<!-- Node1&#45;&gt;Node3 -->
<g id="edge2_Node000001_Node000003" class="edge">
<title>Node1&#45;&gt;Node3</title>
<g id="a_edge2_Node000001_Node000003"><a xlink:title=" ">
<path fill="none" stroke="#63b8ff" d="M101.47,-110.2C109.12,-102.01 118.72,-91.73 126.75,-83.14"/>
<polygon fill="#63b8ff" stroke="#63b8ff" points="129.09,-85.75 133.36,-76.06 123.98,-80.98 129.09,-85.75"/>
</a>
</g>
</g>
<!-- Node4 -->
<g id="Node000004" class="node">
<title>Node4</title>
<g id="a_Node000004"><a xlink:title=" ">
<polygon fill="#e0e0e0" stroke="#999999" points="129.62,-19.25 34.12,-19.25 34.12,0 129.62,0 129.62,-19.25"/>
<text text-anchor="middle" x="81.88" y="-5.75" font-family="Helvetica,sans-Serif" font-size="10.00">InputParameters.h</text>
</a>
</g>
</g>
<!-- Node3&#45;&gt;Node4 -->
<g id="edge3_Node000003_Node000004" class="edge">
<title>Node3&#45;&gt;Node4</title>
<g id="a_edge3_Node000003_Node000004"><a xlink:title=" ">
<path fill="none" stroke="#63b8ff" d="M132.53,-54.84C123.8,-47.22 111.09,-36.12 100.58,-26.95"/>
<polygon fill="#63b8ff" stroke="#63b8ff" points="103.05,-24.46 93.21,-20.52 98.44,-29.73 103.05,-24.46"/>
</a>
</g>
</g>
<!-- Node5 -->
<g id="Node000005" class="node">
<title>Node5</title>
<g id="a_Node000005"><a xlink:title=" ">
<polygon fill="#e0e0e0" stroke="#999999" points="258.12,-19.25 147.62,-19.25 147.62,0 258.12,0 258.12,-19.25"/>
<text text-anchor="middle" x="202.88" y="-5.75" font-family="Helvetica,sans-Serif" font-size="10.00">MooseVariableBase.h</text>
</a>
</g>
</g>
<!-- Node3&#45;&gt;Node5 -->
<g id="edge4_Node000003_Node000005" class="edge">
<title>Node3&#45;&gt;Node5</title>
<g id="a_edge4_Node000003_Node000005"><a xlink:title=" ">
<path fill="none" stroke="#63b8ff" d="M153.05,-54.84C161.64,-47.22 174.14,-36.12 184.48,-26.95"/>
<polygon fill="#63b8ff" stroke="#63b8ff" points="186.56,-29.79 191.72,-20.53 181.91,-24.55 186.56,-29.79"/>
</a>
</g>
</g>
</g>
</svg>
