<?xml version="1.0" encoding="UTF-8" standalone="no"?>
<!DOCTYPE svg PUBLIC "-//W3C//DTD SVG 1.1//EN"
 "http://www.w3.org/Graphics/SVG/1.1/DTD/svg11.dtd">
<!-- Generated by graphviz version 12.2.0 (20241103.1931)
 -->
<!-- Title: src/kernels/NtTimeDerivative.C Pages: 1 -->
<svg width="359pt" height="248pt"
 viewBox="0.00 0.00 358.50 248.25" xmlns="http://www.w3.org/2000/svg" xmlns:xlink="http://www.w3.org/1999/xlink">
<g id="graph0" class="graph" transform="scale(1 1) rotate(0) translate(4 244.25)">
<title>src/kernels/NtTimeDerivative.C</title>
<!-- Node1 -->
<g id="Node000001" class="node">
<title>Node1</title>
<g id="a_Node000001"><a xlink:title=" ">
<polygon fill="#999999" stroke="#666666" points="269.38,-240.25 117.62,-240.25 117.62,-221 269.38,-221 269.38,-240.25"/>
<text text-anchor="middle" x="193.5" y="-226.75" font-family="Helvetica,sans-Serif" font-size="10.00">src/kernels/NtTimeDerivative.C</text>
</a>
</g>
</g>
<!-- Node2 -->
<g id="Node000002" class="node">
<title>Node2</title>
<g id="a_Node000002"><a xlink:href="_nt_time_derivative_8h.html" target="_top" xlink:title=" ">
<polygon fill="white" stroke="#666666" points="142.12,-185 42.88,-185 42.88,-165.75 142.12,-165.75 142.12,-185"/>
<text text-anchor="middle" x="92.5" y="-171.5" font-family="Helvetica,sans-Serif" font-size="10.00">NtTimeDerivative.h</text>
</a>
</g>
</g>
<!-- Node1&#45;&gt;Node2 -->
<g id="edge1_Node000001_Node000002" class="edge">
<title>Node1&#45;&gt;Node2</title>
<g id="a_edge1_Node000001_Node000002"><a xlink:title=" ">
<path fill="none" stroke="#63b8ff" d="M176.37,-220.59C160.84,-212.41 137.7,-200.21 119.66,-190.69"/>
<polygon fill="#63b8ff" stroke="#63b8ff" points="121.53,-187.73 111.06,-186.16 118.27,-193.92 121.53,-187.73"/>
</a>
</g>
</g>
<!-- Node8 -->
<g id="Node000008" class="node">
<title>Node8</title>
<g id="a_Node000008"><a xlink:title=" ">
<polygon fill="#e0e0e0" stroke="#999999" points="226.62,-185 160.38,-185 160.38,-165.75 226.62,-165.75 226.62,-185"/>
<text text-anchor="middle" x="193.5" y="-171.5" font-family="Helvetica,sans-Serif" font-size="10.00">Assembly.h</text>
</a>
</g>
</g>
<!-- Node1&#45;&gt;Node8 -->
<g id="edge7_Node000001_Node000008" class="edge">
<title>Node1&#45;&gt;Node8</title>
<g id="a_edge7_Node000001_Node000008"><a xlink:title=" ">
<path fill="none" stroke="#63b8ff" d="M193.5,-220.83C193.5,-214.32 193.5,-205.17 193.5,-196.87"/>
<polygon fill="#63b8ff" stroke="#63b8ff" points="197,-196.87 193.5,-186.87 190,-196.87 197,-196.87"/>
</a>
</g>
</g>
<!-- Node9 -->
<g id="Node000009" class="node">
<title>Node9</title>
<g id="a_Node000009"><a xlink:title=" ">
<polygon fill="#e0e0e0" stroke="#999999" points="350.5,-185 244.5,-185 244.5,-165.75 350.5,-165.75 350.5,-185"/>
<text text-anchor="middle" x="297.5" y="-171.5" font-family="Helvetica,sans-Serif" font-size="10.00">libmesh/quadrature.h</text>
</a>
</g>
</g>
<!-- Node1&#45;&gt;Node9 -->
<g id="edge8_Node000001_Node000009" class="edge">
<title>Node1&#45;&gt;Node9</title>
<g id="a_edge8_Node000001_Node000009"><a xlink:title=" ">
<path fill="none" stroke="#63b8ff" d="M211.14,-220.59C227.13,-212.41 250.96,-200.21 269.54,-190.69"/>
<polygon fill="#63b8ff" stroke="#63b8ff" points="271.12,-193.82 278.42,-186.14 267.93,-187.58 271.12,-193.82"/>
</a>
</g>
</g>
<!-- Node3 -->
<g id="Node000003" class="node">
<title>Node3</title>
<g id="a_Node000003"><a xlink:href="_scalar_transport_time_derivative_8h.html" target="_top" xlink:title=" ">
<polygon fill="white" stroke="#666666" points="171.38,-129.75 13.62,-129.75 13.62,-110.5 171.38,-110.5 171.38,-129.75"/>
<text text-anchor="middle" x="92.5" y="-116.25" font-family="Helvetica,sans-Serif" font-size="10.00">ScalarTransportTimeDerivative.h</text>
</a>
</g>
</g>
<!-- Node2&#45;&gt;Node3 -->
<g id="edge2_Node000002_Node000003" class="edge">
<title>Node2&#45;&gt;Node3</title>
<g id="a_edge2_Node000002_Node000003"><a xlink:title=" ">
<path fill="none" stroke="#63b8ff" d="M92.5,-165.58C92.5,-159.07 92.5,-149.92 92.5,-141.62"/>
<polygon fill="#63b8ff" stroke="#63b8ff" points="96,-141.62 92.5,-131.62 89,-141.62 96,-141.62"/>
</a>
</g>
</g>
<!-- Node4 -->
<g id="Node000004" class="node">
<title>Node4</title>
<g id="a_Node000004"><a xlink:title=" ">
<polygon fill="#e0e0e0" stroke="#999999" points="73,-74.5 0,-74.5 0,-55.25 73,-55.25 73,-74.5"/>
<text text-anchor="middle" x="36.5" y="-61" font-family="Helvetica,sans-Serif" font-size="10.00">TimeKernel.h</text>
</a>
</g>
</g>
<!-- Node3&#45;&gt;Node4 -->
<g id="edge3_Node000003_Node000004" class="edge">
<title>Node3&#45;&gt;Node4</title>
<g id="a_edge3_Node000003_Node000004"><a xlink:title=" ">
<path fill="none" stroke="#63b8ff" d="M83,-110.09C75.07,-102.55 63.55,-91.6 53.96,-82.48"/>
<polygon fill="#63b8ff" stroke="#63b8ff" points="56.61,-80.17 46.96,-75.82 51.79,-85.24 56.61,-80.17"/>
</a>
</g>
</g>
<!-- Node5 -->
<g id="Node000005" class="node">
<title>Node5</title>
<g id="a_Node000005"><a xlink:href="_scalar_transport_base_8h.html" target="_top" xlink:title=" ">
<polygon fill="white" stroke="#666666" points="206,-74.5 91,-74.5 91,-55.25 206,-55.25 206,-74.5"/>
<text text-anchor="middle" x="148.5" y="-61" font-family="Helvetica,sans-Serif" font-size="10.00">ScalarTransportBase.h</text>
</a>
</g>
</g>
<!-- Node3&#45;&gt;Node5 -->
<g id="edge4_Node000003_Node000005" class="edge">
<title>Node3&#45;&gt;Node5</title>
<g id="a_edge4_Node000003_Node000005"><a xlink:title=" ">
<path fill="none" stroke="#63b8ff" d="M102,-110.09C109.93,-102.55 121.45,-91.6 131.04,-82.48"/>
<polygon fill="#63b8ff" stroke="#63b8ff" points="133.21,-85.24 138.04,-75.82 128.39,-80.17 133.21,-85.24"/>
</a>
</g>
</g>
<!-- Node6 -->
<g id="Node000006" class="node">
<title>Node6</title>
<g id="a_Node000006"><a xlink:title=" ">
<polygon fill="#e0e0e0" stroke="#999999" points="135.25,-19.25 39.75,-19.25 39.75,0 135.25,0 135.25,-19.25"/>
<text text-anchor="middle" x="87.5" y="-5.75" font-family="Helvetica,sans-Serif" font-size="10.00">InputParameters.h</text>
</a>
</g>
</g>
<!-- Node5&#45;&gt;Node6 -->
<g id="edge5_Node000005_Node000006" class="edge">
<title>Node5&#45;&gt;Node6</title>
<g id="a_edge5_Node000005_Node000006"><a xlink:title=" ">
<path fill="none" stroke="#63b8ff" d="M138.15,-54.84C129.42,-47.22 116.71,-36.12 106.2,-26.95"/>
<polygon fill="#63b8ff" stroke="#63b8ff" points="108.67,-24.46 98.84,-20.52 104.07,-29.73 108.67,-24.46"/>
</a>
</g>
</g>
<!-- Node7 -->
<g id="Node000007" class="node">
<title>Node7</title>
<g id="a_Node000007"><a xlink:title=" ">
<polygon fill="#e0e0e0" stroke="#999999" points="263.75,-19.25 153.25,-19.25 153.25,0 263.75,0 263.75,-19.25"/>
<text text-anchor="middle" x="208.5" y="-5.75" font-family="Helvetica,sans-Serif" font-size="10.00">MooseVariableBase.h</text>
</a>
</g>
</g>
<!-- Node5&#45;&gt;Node7 -->
<g id="edge6_Node000005_Node000007" class="edge">
<title>Node5&#45;&gt;Node7</title>
<g id="a_edge6_Node000005_Node000007"><a xlink:title=" ">
<path fill="none" stroke="#63b8ff" d="M158.68,-54.84C167.26,-47.22 179.77,-36.12 190.1,-26.95"/>
<polygon fill="#63b8ff" stroke="#63b8ff" points="192.18,-29.79 197.34,-20.53 187.54,-24.55 192.18,-29.79"/>
</a>
</g>
</g>
</g>
</svg>
