<?xml version="1.0" encoding="UTF-8" standalone="no"?>
<!DOCTYPE svg PUBLIC "-//W3C//DTD SVG 1.1//EN"
 "http://www.w3.org/Graphics/SVG/1.1/DTD/svg11.dtd">
<!-- Generated by graphviz version 3.0.0 (20220413.0242)
 -->
<!-- Title: src/actions/NtAction.C Pages: 1 -->
<svg width="589pt" height="196pt"
 viewBox="0.00 0.00 589.00 196.00" xmlns="http://www.w3.org/2000/svg" xmlns:xlink="http://www.w3.org/1999/xlink">
<g id="graph0" class="graph" transform="scale(1 1) rotate(0) translate(4 192)">
<title>src/actions/NtAction.C</title>
<polygon fill="white" stroke="transparent" points="-4,4 -4,-192 585,-192 585,4 -4,4"/>
<!-- Node1 -->
<g id="node1" class="node">
<title>Node1</title>
<g id="a_node1"><a xlink:title=" ">
<polygon fill="#bfbfbf" stroke="black" points="216,-168.5 216,-187.5 331,-187.5 331,-168.5 216,-168.5"/>
<text text-anchor="middle" x="273.5" y="-175.5" font-family="Helvetica,sans-Serif" font-size="10.00">src/actions/NtAction.C</text>
</a>
</g>
</g>
<!-- Node2 -->
<g id="node2" class="node">
<title>Node2</title>
<g id="a_node2"><a xlink:href="_nt_action_8h.html" target="_top" xlink:title=" ">
<polygon fill="white" stroke="black" points="52.5,-112.5 52.5,-131.5 114.5,-131.5 114.5,-112.5 52.5,-112.5"/>
<text text-anchor="middle" x="83.5" y="-119.5" font-family="Helvetica,sans-Serif" font-size="10.00">NtAction.h</text>
</a>
</g>
</g>
<!-- Node1&#45;&gt;Node2 -->
<g id="edge1" class="edge">
<title>Node1&#45;&gt;Node2</title>
<path fill="none" stroke="midnightblue" d="M243.39,-168.44C210.87,-159.2 158.92,-144.44 123.11,-134.26"/>
<polygon fill="midnightblue" stroke="midnightblue" points="124.04,-130.88 113.47,-131.52 122.13,-137.62 124.04,-130.88"/>
</g>
<!-- Node5 -->
<g id="node5" class="node">
<title>Node5</title>
<g id="a_node5"><a xlink:title=" ">
<polygon fill="white" stroke="#bfbfbf" points="132.5,-112.5 132.5,-131.5 188.5,-131.5 188.5,-112.5 132.5,-112.5"/>
<text text-anchor="middle" x="160.5" y="-119.5" font-family="Helvetica,sans-Serif" font-size="10.00">Factory.h</text>
</a>
</g>
</g>
<!-- Node1&#45;&gt;Node5 -->
<g id="edge4" class="edge">
<title>Node1&#45;&gt;Node5</title>
<path fill="none" stroke="midnightblue" d="M255.59,-168.44C237.25,-159.68 208.49,-145.94 187.41,-135.86"/>
<polygon fill="midnightblue" stroke="midnightblue" points="188.85,-132.67 178.32,-131.52 185.83,-138.99 188.85,-132.67"/>
</g>
<!-- Node6 -->
<g id="node6" class="node">
<title>Node6</title>
<g id="a_node6"><a xlink:title=" ">
<polygon fill="white" stroke="#bfbfbf" points="207,-112.5 207,-131.5 260,-131.5 260,-112.5 207,-112.5"/>
<text text-anchor="middle" x="233.5" y="-119.5" font-family="Helvetica,sans-Serif" font-size="10.00">Parser.h</text>
</a>
</g>
</g>
<!-- Node1&#45;&gt;Node6 -->
<g id="edge5" class="edge">
<title>Node1&#45;&gt;Node6</title>
<path fill="none" stroke="midnightblue" d="M266.89,-168.08C261.24,-160.46 252.96,-149.26 246.05,-139.94"/>
<polygon fill="midnightblue" stroke="midnightblue" points="248.75,-137.7 239.98,-131.75 243.12,-141.87 248.75,-137.7"/>
</g>
<!-- Node7 -->
<g id="node7" class="node">
<title>Node7</title>
<g id="a_node7"><a xlink:title=" ">
<polygon fill="white" stroke="#bfbfbf" points="278,-112.5 278,-131.5 351,-131.5 351,-112.5 278,-112.5"/>
<text text-anchor="middle" x="314.5" y="-119.5" font-family="Helvetica,sans-Serif" font-size="10.00">Conversion.h</text>
</a>
</g>
</g>
<!-- Node1&#45;&gt;Node7 -->
<g id="edge6" class="edge">
<title>Node1&#45;&gt;Node7</title>
<path fill="none" stroke="midnightblue" d="M280.27,-168.08C286.06,-160.46 294.56,-149.26 301.64,-139.94"/>
<polygon fill="midnightblue" stroke="midnightblue" points="304.6,-141.83 307.86,-131.75 299.02,-137.6 304.6,-141.83"/>
</g>
<!-- Node8 -->
<g id="node8" class="node">
<title>Node8</title>
<g id="a_node8"><a xlink:title=" ">
<polygon fill="white" stroke="#bfbfbf" points="369.5,-112.5 369.5,-131.5 441.5,-131.5 441.5,-112.5 369.5,-112.5"/>
<text text-anchor="middle" x="405.5" y="-119.5" font-family="Helvetica,sans-Serif" font-size="10.00">FEProblem.h</text>
</a>
</g>
</g>
<!-- Node1&#45;&gt;Node8 -->
<g id="edge7" class="edge">
<title>Node1&#45;&gt;Node8</title>
<path fill="none" stroke="midnightblue" d="M294.42,-168.44C316.24,-159.52 350.65,-145.44 375.39,-135.32"/>
<polygon fill="midnightblue" stroke="midnightblue" points="376.75,-138.54 384.68,-131.52 374.1,-132.06 376.75,-138.54"/>
</g>
<!-- Node9 -->
<g id="node9" class="node">
<title>Node9</title>
<g id="a_node9"><a xlink:title=" ">
<polygon fill="white" stroke="#bfbfbf" points="460,-112.5 460,-131.5 581,-131.5 581,-112.5 460,-112.5"/>
<text text-anchor="middle" x="520.5" y="-119.5" font-family="Helvetica,sans-Serif" font-size="10.00">NonlinearSystemBase.h</text>
</a>
</g>
</g>
<!-- Node1&#45;&gt;Node9 -->
<g id="edge8" class="edge">
<title>Node1&#45;&gt;Node9</title>
<path fill="none" stroke="midnightblue" d="M312.64,-168.44C355.73,-159.02 425.06,-143.87 471.67,-133.68"/>
<polygon fill="midnightblue" stroke="midnightblue" points="472.52,-137.07 481.55,-131.52 471.03,-130.23 472.52,-137.07"/>
</g>
<!-- Node3 -->
<g id="node3" class="node">
<title>Node3</title>
<g id="a_node3"><a xlink:href="_variable_not_a_moose_object_action_8h.html" target="_top" xlink:title=" ">
<polygon fill="white" stroke="black" points="0,-56.5 0,-75.5 167,-75.5 167,-56.5 0,-56.5"/>
<text text-anchor="middle" x="83.5" y="-63.5" font-family="Helvetica,sans-Serif" font-size="10.00">VariableNotAMooseObjectAction.h</text>
</a>
</g>
</g>
<!-- Node2&#45;&gt;Node3 -->
<g id="edge2" class="edge">
<title>Node2&#45;&gt;Node3</title>
<path fill="none" stroke="midnightblue" d="M83.5,-112.08C83.5,-105.01 83.5,-94.86 83.5,-85.99"/>
<polygon fill="midnightblue" stroke="midnightblue" points="87,-85.75 83.5,-75.75 80,-85.75 87,-85.75"/>
</g>
<!-- Node4 -->
<g id="node4" class="node">
<title>Node4</title>
<g id="a_node4"><a xlink:title=" ">
<polygon fill="white" stroke="#bfbfbf" points="57.5,-0.5 57.5,-19.5 109.5,-19.5 109.5,-0.5 57.5,-0.5"/>
<text text-anchor="middle" x="83.5" y="-7.5" font-family="Helvetica,sans-Serif" font-size="10.00">Action.h</text>
</a>
</g>
</g>
<!-- Node3&#45;&gt;Node4 -->
<g id="edge3" class="edge">
<title>Node3&#45;&gt;Node4</title>
<path fill="none" stroke="midnightblue" d="M83.5,-56.08C83.5,-49.01 83.5,-38.86 83.5,-29.99"/>
<polygon fill="midnightblue" stroke="midnightblue" points="87,-29.75 83.5,-19.75 80,-29.75 87,-29.75"/>
</g>
</g>
</svg>
