<?xml version="1.0" encoding="UTF-8" standalone="no"?>
<!DOCTYPE svg PUBLIC "-//W3C//DTD SVG 1.1//EN"
 "http://www.w3.org/Graphics/SVG/1.1/DTD/svg11.dtd">
<!-- Generated by graphviz version 3.0.0 (20220413.0242)
 -->
<!-- Title: src/actions/NtAction.C Pages: 1 -->
<svg width="1016pt" height="196pt"
 viewBox="0.00 0.00 1015.50 196.00" xmlns="http://www.w3.org/2000/svg" xmlns:xlink="http://www.w3.org/1999/xlink">
<g id="graph0" class="graph" transform="scale(1 1) rotate(0) translate(4 192)">
<title>src/actions/NtAction.C</title>
<polygon fill="white" stroke="transparent" points="-4,4 -4,-192 1011.5,-192 1011.5,4 -4,4"/>
<!-- Node1 -->
<g id="node1" class="node">
<title>Node1</title>
<g id="a_node1"><a xlink:title=" ">
<polygon fill="#bfbfbf" stroke="black" points="348,-168.5 348,-187.5 463,-187.5 463,-168.5 348,-168.5"/>
<text text-anchor="middle" x="405.5" y="-175.5" font-family="Helvetica,sans-Serif" font-size="10.00">src/actions/NtAction.C</text>
</a>
</g>
</g>
<!-- Node2 -->
<g id="node2" class="node">
<title>Node2</title>
<g id="a_node2"><a xlink:href="_nt_action_8h.html" target="_top" xlink:title=" ">
<polygon fill="white" stroke="black" points="52.5,-112.5 52.5,-131.5 114.5,-131.5 114.5,-112.5 52.5,-112.5"/>
<text text-anchor="middle" x="83.5" y="-119.5" font-family="Helvetica,sans-Serif" font-size="10.00">NtAction.h</text>
</a>
</g>
</g>
<!-- Node1&#45;&gt;Node2 -->
<g id="edge1" class="edge">
<title>Node1&#45;&gt;Node2</title>
<path fill="none" stroke="midnightblue" d="M347.79,-168.88C292.84,-160.9 207.59,-147.89 124.73,-132.14"/>
<polygon fill="midnightblue" stroke="midnightblue" points="125.38,-128.71 114.9,-130.26 124.07,-135.58 125.38,-128.71"/>
</g>
<!-- Node5 -->
<g id="node5" class="node">
<title>Node5</title>
<g id="a_node5"><a xlink:title=" ">
<polygon fill="white" stroke="#bfbfbf" points="132.5,-112.5 132.5,-131.5 188.5,-131.5 188.5,-112.5 132.5,-112.5"/>
<text text-anchor="middle" x="160.5" y="-119.5" font-family="Helvetica,sans-Serif" font-size="10.00">Factory.h</text>
</a>
</g>
</g>
<!-- Node1&#45;&gt;Node5 -->
<g id="edge4" class="edge">
<title>Node1&#45;&gt;Node5</title>
<path fill="none" stroke="midnightblue" d="M364.99,-168.43C323.23,-159.53 256.24,-145.11 198.5,-132 198.4,-131.98 198.3,-131.95 198.2,-131.93"/>
<polygon fill="midnightblue" stroke="midnightblue" points="199.24,-128.58 188.71,-129.74 197.67,-135.4 199.24,-128.58"/>
</g>
<!-- Node6 -->
<g id="node6" class="node">
<title>Node6</title>
<g id="a_node6"><a xlink:title=" ">
<polygon fill="white" stroke="#bfbfbf" points="207,-112.5 207,-131.5 260,-131.5 260,-112.5 207,-112.5"/>
<text text-anchor="middle" x="233.5" y="-119.5" font-family="Helvetica,sans-Serif" font-size="10.00">Parser.h</text>
</a>
</g>
</g>
<!-- Node1&#45;&gt;Node6 -->
<g id="edge5" class="edge">
<title>Node1&#45;&gt;Node6</title>
<path fill="none" stroke="midnightblue" d="M378.25,-168.44C348.89,-159.23 302.03,-144.52 269.62,-134.34"/>
<polygon fill="midnightblue" stroke="midnightblue" points="270.65,-131 260.06,-131.34 268.55,-137.67 270.65,-131"/>
</g>
<!-- Node7 -->
<g id="node7" class="node">
<title>Node7</title>
<g id="a_node7"><a xlink:title=" ">
<polygon fill="white" stroke="#bfbfbf" points="278,-112.5 278,-131.5 351,-131.5 351,-112.5 278,-112.5"/>
<text text-anchor="middle" x="314.5" y="-119.5" font-family="Helvetica,sans-Serif" font-size="10.00">Conversion.h</text>
</a>
</g>
</g>
<!-- Node1&#45;&gt;Node7 -->
<g id="edge6" class="edge">
<title>Node1&#45;&gt;Node7</title>
<path fill="none" stroke="midnightblue" d="M390.88,-168.32C376.55,-159.82 354.49,-146.73 337.75,-136.8"/>
<polygon fill="midnightblue" stroke="midnightblue" points="339.47,-133.75 329.08,-131.65 335.9,-139.77 339.47,-133.75"/>
</g>
<!-- Node8 -->
<g id="node8" class="node">
<title>Node8</title>
<g id="a_node8"><a xlink:title=" ">
<polygon fill="white" stroke="#bfbfbf" points="369.5,-112.5 369.5,-131.5 441.5,-131.5 441.5,-112.5 369.5,-112.5"/>
<text text-anchor="middle" x="405.5" y="-119.5" font-family="Helvetica,sans-Serif" font-size="10.00">FEProblem.h</text>
</a>
</g>
</g>
<!-- Node1&#45;&gt;Node8 -->
<g id="edge7" class="edge">
<title>Node1&#45;&gt;Node8</title>
<path fill="none" stroke="midnightblue" d="M405.5,-168.08C405.5,-161.01 405.5,-150.86 405.5,-141.99"/>
<polygon fill="midnightblue" stroke="midnightblue" points="409,-141.75 405.5,-131.75 402,-141.75 409,-141.75"/>
</g>
<!-- Node9 -->
<g id="node9" class="node">
<title>Node9</title>
<g id="a_node9"><a xlink:title=" ">
<polygon fill="white" stroke="#bfbfbf" points="460,-112.5 460,-131.5 581,-131.5 581,-112.5 460,-112.5"/>
<text text-anchor="middle" x="520.5" y="-119.5" font-family="Helvetica,sans-Serif" font-size="10.00">NonlinearSystemBase.h</text>
</a>
</g>
</g>
<!-- Node1&#45;&gt;Node9 -->
<g id="edge8" class="edge">
<title>Node1&#45;&gt;Node9</title>
<path fill="none" stroke="midnightblue" d="M423.72,-168.44C442.4,-159.68 471.66,-145.94 493.12,-135.86"/>
<polygon fill="midnightblue" stroke="midnightblue" points="494.8,-138.93 502.36,-131.52 491.82,-132.6 494.8,-138.93"/>
</g>
<!-- Node10 -->
<g id="node10" class="node">
<title>Node10</title>
<g id="a_node10"><a xlink:title=" ">
<polygon fill="white" stroke="#bfbfbf" points="599.5,-112.5 599.5,-131.5 739.5,-131.5 739.5,-112.5 599.5,-112.5"/>
<text text-anchor="middle" x="669.5" y="-119.5" font-family="Helvetica,sans-Serif" font-size="10.00">InputParameterWarehouse.h</text>
</a>
</g>
</g>
<!-- Node1&#45;&gt;Node10 -->
<g id="edge9" class="edge">
<title>Node1&#45;&gt;Node10</title>
<path fill="none" stroke="midnightblue" d="M447.33,-168.44C493.58,-158.98 568.11,-143.74 617.94,-133.55"/>
<polygon fill="midnightblue" stroke="midnightblue" points="618.77,-136.95 627.86,-131.52 617.37,-130.09 618.77,-136.95"/>
</g>
<!-- Node11 -->
<g id="node11" class="node">
<title>Node11</title>
<g id="a_node11"><a xlink:title=" ">
<polygon fill="white" stroke="#bfbfbf" points="757.5,-112.5 757.5,-131.5 861.5,-131.5 861.5,-112.5 757.5,-112.5"/>
<text text-anchor="middle" x="809.5" y="-119.5" font-family="Helvetica,sans-Serif" font-size="10.00">AddVariableAction.h</text>
</a>
</g>
</g>
<!-- Node1&#45;&gt;Node11 -->
<g id="edge10" class="edge">
<title>Node1&#45;&gt;Node11</title>
<path fill="none" stroke="midnightblue" d="M463.19,-169.72C529.32,-161.31 641.24,-146.87 747.35,-132.14"/>
<polygon fill="midnightblue" stroke="midnightblue" points="747.84,-135.61 757.26,-130.76 746.88,-128.67 747.84,-135.61"/>
</g>
<!-- Node12 -->
<g id="node12" class="node">
<title>Node12</title>
<g id="a_node12"><a xlink:title=" ">
<polygon fill="white" stroke="#bfbfbf" points="879.5,-112.5 879.5,-131.5 1007.5,-131.5 1007.5,-112.5 879.5,-112.5"/>
<text text-anchor="middle" x="943.5" y="-119.5" font-family="Helvetica,sans-Serif" font-size="10.00">libmesh/enum_to_string.h</text>
</a>
</g>
</g>
<!-- Node1&#45;&gt;Node12 -->
<g id="edge11" class="edge">
<title>Node1&#45;&gt;Node12</title>
<path fill="none" stroke="midnightblue" d="M463.18,-171.91C549.23,-164.2 716.59,-148.8 869.38,-132.1"/>
<polygon fill="midnightblue" stroke="midnightblue" points="869.86,-135.57 879.42,-131 869.09,-128.61 869.86,-135.57"/>
</g>
<!-- Node3 -->
<g id="node3" class="node">
<title>Node3</title>
<g id="a_node3"><a xlink:href="_variable_not_a_moose_object_action_8h.html" target="_top" xlink:title=" ">
<polygon fill="white" stroke="black" points="0,-56.5 0,-75.5 167,-75.5 167,-56.5 0,-56.5"/>
<text text-anchor="middle" x="83.5" y="-63.5" font-family="Helvetica,sans-Serif" font-size="10.00">VariableNotAMooseObjectAction.h</text>
</a>
</g>
</g>
<!-- Node2&#45;&gt;Node3 -->
<g id="edge2" class="edge">
<title>Node2&#45;&gt;Node3</title>
<path fill="none" stroke="midnightblue" d="M83.5,-112.08C83.5,-105.01 83.5,-94.86 83.5,-85.99"/>
<polygon fill="midnightblue" stroke="midnightblue" points="87,-85.75 83.5,-75.75 80,-85.75 87,-85.75"/>
</g>
<!-- Node4 -->
<g id="node4" class="node">
<title>Node4</title>
<g id="a_node4"><a xlink:title=" ">
<polygon fill="white" stroke="#bfbfbf" points="57.5,-0.5 57.5,-19.5 109.5,-19.5 109.5,-0.5 57.5,-0.5"/>
<text text-anchor="middle" x="83.5" y="-7.5" font-family="Helvetica,sans-Serif" font-size="10.00">Action.h</text>
</a>
</g>
</g>
<!-- Node3&#45;&gt;Node4 -->
<g id="edge3" class="edge">
<title>Node3&#45;&gt;Node4</title>
<path fill="none" stroke="midnightblue" d="M83.5,-56.08C83.5,-49.01 83.5,-38.86 83.5,-29.99"/>
<polygon fill="midnightblue" stroke="midnightblue" points="87,-29.75 83.5,-19.75 80,-29.75 87,-29.75"/>
</g>
</g>
</svg>
