<?xml version="1.0" encoding="UTF-8" standalone="no"?>
<!DOCTYPE svg PUBLIC "-//W3C//DTD SVG 1.1//EN"
 "http://www.w3.org/Graphics/SVG/1.1/DTD/svg11.dtd">
<!-- Generated by graphviz version 7.0.5 (20221223.1930)
 -->
<!-- Title: src/actions/NtAction.C Pages: 1 -->
<svg width="1016pt" height="192pt"
 viewBox="0.00 0.00 1015.50 192.00" xmlns="http://www.w3.org/2000/svg" xmlns:xlink="http://www.w3.org/1999/xlink">
<g id="graph0" class="graph" transform="scale(1 1) rotate(0) translate(4 188)">
<title>src/actions/NtAction.C</title>
<!-- Node1 -->
<g id="node1" class="node">
<title>Node1</title>
<g id="a_node1"><a xlink:title=" ">
<polygon fill="#999999" stroke="#666666" points="463,-184 348,-184 348,-165 463,-165 463,-184"/>
<text text-anchor="middle" x="405.5" y="-172" font-family="Helvetica,sans-Serif" font-size="10.00">src/actions/NtAction.C</text>
</a>
</g>
</g>
<!-- Node2 -->
<g id="node2" class="node">
<title>Node2</title>
<g id="a_node2"><a xlink:href="_nt_action_8h.html" target="_top" xlink:title=" ">
<polygon fill="white" stroke="#666666" points="114.5,-129 52.5,-129 52.5,-110 114.5,-110 114.5,-129"/>
<text text-anchor="middle" x="83.5" y="-117" font-family="Helvetica,sans-Serif" font-size="10.00">NtAction.h</text>
</a>
</g>
</g>
<!-- Node1&#45;&gt;Node2 -->
<g id="edge1" class="edge">
<title>Node1&#45;&gt;Node2</title>
<path fill="none" stroke="#63b8ff" d="M347.56,-165.27C292.9,-157.3 208.4,-144.46 125.99,-129.38"/>
<polygon fill="#63b8ff" stroke="#63b8ff" points="126.87,-125.98 116.4,-127.61 125.6,-132.87 126.87,-125.98"/>
</g>
<!-- Node5 -->
<g id="node5" class="node">
<title>Node5</title>
<g id="a_node5"><a xlink:title=" ">
<polygon fill="#e0e0e0" stroke="#999999" points="188.5,-129 132.5,-129 132.5,-110 188.5,-110 188.5,-129"/>
<text text-anchor="middle" x="160.5" y="-117" font-family="Helvetica,sans-Serif" font-size="10.00">Factory.h</text>
</a>
</g>
</g>
<!-- Node1&#45;&gt;Node5 -->
<g id="edge4" class="edge">
<title>Node1&#45;&gt;Node5</title>
<path fill="none" stroke="#63b8ff" d="M363.45,-164.57C323.9,-156.14 262.74,-143.05 199.68,-129.24"/>
<polygon fill="#63b8ff" stroke="#63b8ff" points="200.71,-125.89 190.19,-127.16 199.21,-132.72 200.71,-125.89"/>
</g>
<!-- Node6 -->
<g id="node6" class="node">
<title>Node6</title>
<g id="a_node6"><a xlink:title=" ">
<polygon fill="#e0e0e0" stroke="#999999" points="260,-129 207,-129 207,-110 260,-110 260,-129"/>
<text text-anchor="middle" x="233.5" y="-117" font-family="Helvetica,sans-Serif" font-size="10.00">Parser.h</text>
</a>
</g>
</g>
<!-- Node1&#45;&gt;Node6 -->
<g id="edge5" class="edge">
<title>Node1&#45;&gt;Node6</title>
<path fill="none" stroke="#63b8ff" d="M376.32,-164.51C347.26,-155.55 302.52,-141.77 270.87,-132.02"/>
<polygon fill="#63b8ff" stroke="#63b8ff" points="272.3,-128.79 261.72,-129.19 270.24,-135.48 272.3,-128.79"/>
</g>
<!-- Node7 -->
<g id="node7" class="node">
<title>Node7</title>
<g id="a_node7"><a xlink:title=" ">
<polygon fill="#e0e0e0" stroke="#999999" points="351,-129 278,-129 278,-110 351,-110 351,-129"/>
<text text-anchor="middle" x="314.5" y="-117" font-family="Helvetica,sans-Serif" font-size="10.00">Conversion.h</text>
</a>
</g>
</g>
<!-- Node1&#45;&gt;Node7 -->
<g id="edge6" class="edge">
<title>Node1&#45;&gt;Node7</title>
<path fill="none" stroke="#63b8ff" d="M390.06,-164.51C376.25,-156.47 355.75,-144.53 339.59,-135.11"/>
<polygon fill="#63b8ff" stroke="#63b8ff" points="341.42,-132.13 331.02,-130.12 337.9,-138.18 341.42,-132.13"/>
</g>
<!-- Node8 -->
<g id="node8" class="node">
<title>Node8</title>
<g id="a_node8"><a xlink:title=" ">
<polygon fill="#e0e0e0" stroke="#999999" points="441.5,-129 369.5,-129 369.5,-110 441.5,-110 441.5,-129"/>
<text text-anchor="middle" x="405.5" y="-117" font-family="Helvetica,sans-Serif" font-size="10.00">FEProblem.h</text>
</a>
</g>
</g>
<!-- Node1&#45;&gt;Node8 -->
<g id="edge7" class="edge">
<title>Node1&#45;&gt;Node8</title>
<path fill="none" stroke="#63b8ff" d="M405.5,-164.75C405.5,-158.27 405.5,-149.16 405.5,-140.9"/>
<polygon fill="#63b8ff" stroke="#63b8ff" points="409,-140.96 405.5,-130.96 402,-140.96 409,-140.96"/>
</g>
<!-- Node9 -->
<g id="node9" class="node">
<title>Node9</title>
<g id="a_node9"><a xlink:title=" ">
<polygon fill="#e0e0e0" stroke="#999999" points="581,-129 460,-129 460,-110 581,-110 581,-129"/>
<text text-anchor="middle" x="520.5" y="-117" font-family="Helvetica,sans-Serif" font-size="10.00">NonlinearSystemBase.h</text>
</a>
</g>
</g>
<!-- Node1&#45;&gt;Node9 -->
<g id="edge8" class="edge">
<title>Node1&#45;&gt;Node9</title>
<path fill="none" stroke="#63b8ff" d="M425.01,-164.51C443.13,-156.16 470.35,-143.61 491.1,-134.05"/>
<polygon fill="#63b8ff" stroke="#63b8ff" points="492.29,-137.36 499.91,-129.99 489.36,-131 492.29,-137.36"/>
</g>
<!-- Node10 -->
<g id="node10" class="node">
<title>Node10</title>
<g id="a_node10"><a xlink:title=" ">
<polygon fill="#e0e0e0" stroke="#999999" points="739.5,-129 599.5,-129 599.5,-110 739.5,-110 739.5,-129"/>
<text text-anchor="middle" x="669.5" y="-117" font-family="Helvetica,sans-Serif" font-size="10.00">InputParameterWarehouse.h</text>
</a>
</g>
</g>
<!-- Node1&#45;&gt;Node10 -->
<g id="edge9" class="edge">
<title>Node1&#45;&gt;Node10</title>
<path fill="none" stroke="#63b8ff" d="M450.28,-164.51C495.36,-155.46 565.01,-141.48 613.66,-131.71"/>
<polygon fill="#63b8ff" stroke="#63b8ff" points="614.34,-135.14 623.45,-129.74 612.96,-128.28 614.34,-135.14"/>
</g>
<!-- Node11 -->
<g id="node11" class="node">
<title>Node11</title>
<g id="a_node11"><a xlink:title=" ">
<polygon fill="#e0e0e0" stroke="#999999" points="861.5,-129 757.5,-129 757.5,-110 861.5,-110 861.5,-129"/>
<text text-anchor="middle" x="809.5" y="-117" font-family="Helvetica,sans-Serif" font-size="10.00">AddVariableAction.h</text>
</a>
</g>
</g>
<!-- Node1&#45;&gt;Node11 -->
<g id="edge10" class="edge">
<title>Node1&#45;&gt;Node11</title>
<path fill="none" stroke="#63b8ff" d="M463.48,-166.15C529.37,-157.75 640.45,-143.49 746.07,-129.32"/>
<polygon fill="#63b8ff" stroke="#63b8ff" points="746.32,-132.81 755.76,-128.01 745.38,-125.88 746.32,-132.81"/>
</g>
<!-- Node12 -->
<g id="node12" class="node">
<title>Node12</title>
<g id="a_node12"><a xlink:title=" ">
<polygon fill="#e0e0e0" stroke="#999999" points="1007.5,-129 879.5,-129 879.5,-110 1007.5,-110 1007.5,-129"/>
<text text-anchor="middle" x="943.5" y="-117" font-family="Helvetica,sans-Serif" font-size="10.00">libmesh/enum_to_string.h</text>
</a>
</g>
</g>
<!-- Node1&#45;&gt;Node12 -->
<g id="edge11" class="edge">
<title>Node1&#45;&gt;Node12</title>
<path fill="none" stroke="#63b8ff" d="M463.17,-168.36C548.95,-160.64 715.54,-145.32 867.63,-129.29"/>
<polygon fill="#63b8ff" stroke="#63b8ff" points="867.94,-132.77 877.52,-128.24 867.2,-125.81 867.94,-132.77"/>
</g>
<!-- Node3 -->
<g id="node3" class="node">
<title>Node3</title>
<g id="a_node3"><a xlink:href="_variable_not_a_moose_object_action_8h.html" target="_top" xlink:title=" ">
<polygon fill="white" stroke="#666666" points="167,-74 0,-74 0,-55 167,-55 167,-74"/>
<text text-anchor="middle" x="83.5" y="-62" font-family="Helvetica,sans-Serif" font-size="10.00">VariableNotAMooseObjectAction.h</text>
</a>
</g>
</g>
<!-- Node2&#45;&gt;Node3 -->
<g id="edge2" class="edge">
<title>Node2&#45;&gt;Node3</title>
<path fill="none" stroke="#63b8ff" d="M83.5,-109.75C83.5,-103.27 83.5,-94.16 83.5,-85.9"/>
<polygon fill="#63b8ff" stroke="#63b8ff" points="87,-85.96 83.5,-75.96 80,-85.96 87,-85.96"/>
</g>
<!-- Node4 -->
<g id="node4" class="node">
<title>Node4</title>
<g id="a_node4"><a xlink:title=" ">
<polygon fill="#e0e0e0" stroke="#999999" points="109.5,-19 57.5,-19 57.5,0 109.5,0 109.5,-19"/>
<text text-anchor="middle" x="83.5" y="-7" font-family="Helvetica,sans-Serif" font-size="10.00">Action.h</text>
</a>
</g>
</g>
<!-- Node3&#45;&gt;Node4 -->
<g id="edge3" class="edge">
<title>Node3&#45;&gt;Node4</title>
<path fill="none" stroke="#63b8ff" d="M83.5,-54.75C83.5,-48.27 83.5,-39.16 83.5,-30.9"/>
<polygon fill="#63b8ff" stroke="#63b8ff" points="87,-30.96 83.5,-20.96 80,-30.96 87,-30.96"/>
</g>
</g>
</svg>
