<?xml version="1.0" encoding="UTF-8" standalone="no"?>
<!DOCTYPE svg PUBLIC "-//W3C//DTD SVG 1.1//EN"
 "http://www.w3.org/Graphics/SVG/1.1/DTD/svg11.dtd">
<!-- Generated by graphviz version 12.2.0 (20241103.1931)
 -->
<!-- Title: include/actions/NtAction.h Pages: 1 -->
<svg width="175pt" height="138pt"
 viewBox="0.00 0.00 174.75 137.75" xmlns="http://www.w3.org/2000/svg" xmlns:xlink="http://www.w3.org/1999/xlink">
<g id="graph0" class="graph" transform="scale(1 1) rotate(0) translate(4 133.75)">
<title>include/actions/NtAction.h</title>
<!-- Node1 -->
<g id="Node000001" class="node">
<title>Node1</title>
<g id="a_Node000001"><a xlink:title=" ">
<polygon fill="#999999" stroke="#666666" points="148.38,-129.75 18.38,-129.75 18.38,-110.5 148.38,-110.5 148.38,-129.75"/>
<text text-anchor="middle" x="83.38" y="-116.25" font-family="Helvetica,sans-Serif" font-size="10.00">include/actions/NtAction.h</text>
</a>
</g>
</g>
<!-- Node2 -->
<g id="Node000002" class="node">
<title>Node2</title>
<g id="a_Node000002"><a xlink:href="_variable_not_a_moose_object_action_8h.html" target="_top" xlink:title=" ">
<polygon fill="white" stroke="#666666" points="166.75,-74.5 0,-74.5 0,-55.25 166.75,-55.25 166.75,-74.5"/>
<text text-anchor="middle" x="83.38" y="-61" font-family="Helvetica,sans-Serif" font-size="10.00">VariableNotAMooseObjectAction.h</text>
</a>
</g>
</g>
<!-- Node1&#45;&gt;Node2 -->
<g id="edge1_Node000001_Node000002" class="edge">
<title>Node1&#45;&gt;Node2</title>
<g id="a_edge1_Node000001_Node000002"><a xlink:title=" ">
<path fill="none" stroke="#63b8ff" d="M83.38,-110.33C83.38,-103.82 83.38,-94.67 83.38,-86.37"/>
<polygon fill="#63b8ff" stroke="#63b8ff" points="86.88,-86.37 83.38,-76.37 79.88,-86.37 86.88,-86.37"/>
</a>
</g>
</g>
<!-- Node3 -->
<g id="Node000003" class="node">
<title>Node3</title>
<g id="a_Node000003"><a xlink:title=" ">
<polygon fill="#e0e0e0" stroke="#999999" points="109,-19.25 57.75,-19.25 57.75,0 109,0 109,-19.25"/>
<text text-anchor="middle" x="83.38" y="-5.75" font-family="Helvetica,sans-Serif" font-size="10.00">Action.h</text>
</a>
</g>
</g>
<!-- Node2&#45;&gt;Node3 -->
<g id="edge2_Node000002_Node000003" class="edge">
<title>Node2&#45;&gt;Node3</title>
<g id="a_edge2_Node000002_Node000003"><a xlink:title=" ">
<path fill="none" stroke="#63b8ff" d="M83.38,-55.08C83.38,-48.57 83.38,-39.42 83.38,-31.12"/>
<polygon fill="#63b8ff" stroke="#63b8ff" points="86.88,-31.12 83.38,-21.12 79.88,-31.12 86.88,-31.12"/>
</a>
</g>
</g>
</g>
</svg>
