<?xml version="1.0" encoding="UTF-8" standalone="no"?>
<!DOCTYPE svg PUBLIC "-//W3C//DTD SVG 1.1//EN"
 "http://www.w3.org/Graphics/SVG/1.1/DTD/svg11.dtd">
<!-- Generated by graphviz version 12.2.0 (20241103.1931)
 -->
<!-- Title: src/actions/NtAction.C Pages: 1 -->
<svg width="1008pt" height="193pt"
 viewBox="0.00 0.00 1007.88 193.00" xmlns="http://www.w3.org/2000/svg" xmlns:xlink="http://www.w3.org/1999/xlink">
<g id="graph0" class="graph" transform="scale(1 1) rotate(0) translate(4 189)">
<title>src/actions/NtAction.C</title>
<!-- Node1 -->
<g id="Node000001" class="node">
<title>Node1</title>
<g id="a_Node000001"><a xlink:title=" ">
<polygon fill="#999999" stroke="#666666" points="459.5,-185 345.25,-185 345.25,-165.75 459.5,-165.75 459.5,-185"/>
<text text-anchor="middle" x="402.38" y="-171.5" font-family="Helvetica,sans-Serif" font-size="10.00">src/actions/NtAction.C</text>
</a>
</g>
</g>
<!-- Node2 -->
<g id="Node000002" class="node">
<title>Node2</title>
<g id="a_Node000002"><a xlink:href="_nt_action_8h.html" target="_top" xlink:title=" ">
<polygon fill="white" stroke="#666666" points="114.25,-129.75 52.5,-129.75 52.5,-110.5 114.25,-110.5 114.25,-129.75"/>
<text text-anchor="middle" x="83.38" y="-116.25" font-family="Helvetica,sans-Serif" font-size="10.00">NtAction.h</text>
</a>
</g>
</g>
<!-- Node1&#45;&gt;Node2 -->
<g id="edge1_Node000001_Node000002" class="edge">
<title>Node1&#45;&gt;Node2</title>
<g id="a_edge1_Node000001_Node000002"><a xlink:title=" ">
<path fill="none" stroke="#63b8ff" d="M344.78,-166.09C290.74,-158.1 207.39,-145.26 125.61,-130.08"/>
<polygon fill="#63b8ff" stroke="#63b8ff" points="126.31,-126.65 115.84,-128.25 125.02,-133.53 126.31,-126.65"/>
</a>
</g>
</g>
<!-- Node5 -->
<g id="Node000005" class="node">
<title>Node5</title>
<g id="a_Node000005"><a xlink:title=" ">
<polygon fill="#e0e0e0" stroke="#999999" points="188.25,-129.75 132.5,-129.75 132.5,-110.5 188.25,-110.5 188.25,-129.75"/>
<text text-anchor="middle" x="160.38" y="-116.25" font-family="Helvetica,sans-Serif" font-size="10.00">Factory.h</text>
</a>
</g>
</g>
<!-- Node1&#45;&gt;Node5 -->
<g id="edge4_Node000001_Node000005" class="edge">
<title>Node1&#45;&gt;Node5</title>
<g id="a_edge4_Node000001_Node000005"><a xlink:title=" ">
<path fill="none" stroke="#63b8ff" d="M359.93,-165.33C320.8,-156.94 260.8,-143.98 199.67,-130.24"/>
<polygon fill="#63b8ff" stroke="#63b8ff" points="200.65,-126.88 190.12,-128.09 199.11,-133.7 200.65,-126.88"/>
</a>
</g>
</g>
<!-- Node6 -->
<g id="Node000006" class="node">
<title>Node6</title>
<g id="a_Node000006"><a xlink:title=" ">
<polygon fill="#e0e0e0" stroke="#999999" points="258.38,-129.75 206.38,-129.75 206.38,-110.5 258.38,-110.5 258.38,-129.75"/>
<text text-anchor="middle" x="232.38" y="-116.25" font-family="Helvetica,sans-Serif" font-size="10.00">Parser.h</text>
</a>
</g>
</g>
<!-- Node1&#45;&gt;Node6 -->
<g id="edge5_Node000001_Node000006" class="edge">
<title>Node1&#45;&gt;Node6</title>
<g id="a_edge5_Node000001_Node000006"><a xlink:title=" ">
<path fill="none" stroke="#63b8ff" d="M373.54,-165.34C344.94,-156.38 300.98,-142.61 269.72,-132.82"/>
<polygon fill="#63b8ff" stroke="#63b8ff" points="270.87,-129.51 260.28,-129.87 268.77,-136.19 270.87,-129.51"/>
</a>
</g>
</g>
<!-- Node7 -->
<g id="Node000007" class="node">
<title>Node7</title>
<g id="a_Node000007"><a xlink:title=" ">
<polygon fill="#e0e0e0" stroke="#999999" points="348.5,-129.75 276.25,-129.75 276.25,-110.5 348.5,-110.5 348.5,-129.75"/>
<text text-anchor="middle" x="312.38" y="-116.25" font-family="Helvetica,sans-Serif" font-size="10.00">Conversion.h</text>
</a>
</g>
</g>
<!-- Node1&#45;&gt;Node7 -->
<g id="edge6_Node000001_Node000007" class="edge">
<title>Node1&#45;&gt;Node7</title>
<g id="a_edge6_Node000001_Node000007"><a xlink:title=" ">
<path fill="none" stroke="#63b8ff" d="M387.11,-165.34C373.53,-157.31 353.42,-145.41 337.48,-135.98"/>
<polygon fill="#63b8ff" stroke="#63b8ff" points="339.41,-133.05 329.02,-130.97 335.84,-139.08 339.41,-133.05"/>
</a>
</g>
</g>
<!-- Node8 -->
<g id="Node000008" class="node">
<title>Node8</title>
<g id="a_Node000008"><a xlink:title=" ">
<polygon fill="#e0e0e0" stroke="#999999" points="438.12,-129.75 366.62,-129.75 366.62,-110.5 438.12,-110.5 438.12,-129.75"/>
<text text-anchor="middle" x="402.38" y="-116.25" font-family="Helvetica,sans-Serif" font-size="10.00">FEProblem.h</text>
</a>
</g>
</g>
<!-- Node1&#45;&gt;Node8 -->
<g id="edge7_Node000001_Node000008" class="edge">
<title>Node1&#45;&gt;Node8</title>
<g id="a_edge7_Node000001_Node000008"><a xlink:title=" ">
<path fill="none" stroke="#63b8ff" d="M402.38,-165.58C402.38,-159.07 402.38,-149.92 402.38,-141.62"/>
<polygon fill="#63b8ff" stroke="#63b8ff" points="405.88,-141.62 402.38,-131.62 398.88,-141.62 405.88,-141.62"/>
</a>
</g>
</g>
<!-- Node9 -->
<g id="Node000009" class="node">
<title>Node9</title>
<g id="a_Node000009"><a xlink:title=" ">
<polygon fill="#e0e0e0" stroke="#999999" points="576.5,-129.75 456.25,-129.75 456.25,-110.5 576.5,-110.5 576.5,-129.75"/>
<text text-anchor="middle" x="516.38" y="-116.25" font-family="Helvetica,sans-Serif" font-size="10.00">NonlinearSystemBase.h</text>
</a>
</g>
</g>
<!-- Node1&#45;&gt;Node9 -->
<g id="edge8_Node000001_Node000009" class="edge">
<title>Node1&#45;&gt;Node9</title>
<g id="a_edge8_Node000001_Node000009"><a xlink:title=" ">
<path fill="none" stroke="#63b8ff" d="M421.71,-165.34C439.48,-157.04 466.09,-144.61 486.58,-135.04"/>
<polygon fill="#63b8ff" stroke="#63b8ff" points="487.99,-138.25 495.57,-130.84 485.03,-131.9 487.99,-138.25"/>
</a>
</g>
</g>
<!-- Node10 -->
<g id="Node000010" class="node">
<title>Node10</title>
<g id="a_Node000010"><a xlink:title=" ">
<polygon fill="#e0e0e0" stroke="#999999" points="733.88,-129.75 594.88,-129.75 594.88,-110.5 733.88,-110.5 733.88,-129.75"/>
<text text-anchor="middle" x="664.38" y="-116.25" font-family="Helvetica,sans-Serif" font-size="10.00">InputParameterWarehouse.h</text>
</a>
</g>
</g>
<!-- Node1&#45;&gt;Node10 -->
<g id="edge9_Node000001_Node000010" class="edge">
<title>Node1&#45;&gt;Node10</title>
<g id="a_edge9_Node000001_Node000010"><a xlink:title=" ">
<path fill="none" stroke="#63b8ff" d="M447.12,-165.28C491.77,-156.21 560.49,-142.24 608.65,-132.45"/>
<polygon fill="#63b8ff" stroke="#63b8ff" points="609.23,-135.9 618.33,-130.48 607.84,-129.04 609.23,-135.9"/>
</a>
</g>
</g>
<!-- Node11 -->
<g id="Node000011" class="node">
<title>Node11</title>
<g id="a_Node000011"><a xlink:title=" ">
<polygon fill="#e0e0e0" stroke="#999999" points="855.25,-129.75 751.5,-129.75 751.5,-110.5 855.25,-110.5 855.25,-129.75"/>
<text text-anchor="middle" x="803.38" y="-116.25" font-family="Helvetica,sans-Serif" font-size="10.00">AddVariableAction.h</text>
</a>
</g>
</g>
<!-- Node1&#45;&gt;Node11 -->
<g id="edge10_Node000001_Node000011" class="edge">
<title>Node1&#45;&gt;Node11</title>
<g id="a_edge10_Node000001_Node000011"><a xlink:title=" ">
<path fill="none" stroke="#63b8ff" d="M459.72,-167.1C525.13,-158.74 635.6,-144.48 739.67,-130.25"/>
<polygon fill="#63b8ff" stroke="#63b8ff" points="740.09,-133.72 749.52,-128.9 739.14,-126.79 740.09,-133.72"/>
</a>
</g>
</g>
<!-- Node12 -->
<g id="Node000012" class="node">
<title>Node12</title>
<g id="a_Node000012"><a xlink:title=" ">
<polygon fill="#e0e0e0" stroke="#999999" points="999.88,-129.75 872.88,-129.75 872.88,-110.5 999.88,-110.5 999.88,-129.75"/>
<text text-anchor="middle" x="936.38" y="-116.25" font-family="Helvetica,sans-Serif" font-size="10.00">libmesh/enum_to_string.h</text>
</a>
</g>
</g>
<!-- Node1&#45;&gt;Node12 -->
<g id="edge11_Node000001_Node000012" class="edge">
<title>Node1&#45;&gt;Node12</title>
<g id="a_edge11_Node000001_Node000012"><a xlink:title=" ">
<path fill="none" stroke="#63b8ff" d="M459.68,-169.27C544.91,-161.57 710.43,-146.27 861.11,-130.08"/>
<polygon fill="#63b8ff" stroke="#63b8ff" points="861.32,-133.58 870.89,-129.03 860.57,-126.62 861.32,-133.58"/>
</a>
</g>
</g>
<!-- Node3 -->
<g id="Node000003" class="node">
<title>Node3</title>
<g id="a_Node000003"><a xlink:href="_variable_not_a_moose_object_action_8h.html" target="_top" xlink:title=" ">
<polygon fill="white" stroke="#666666" points="166.75,-74.5 0,-74.5 0,-55.25 166.75,-55.25 166.75,-74.5"/>
<text text-anchor="middle" x="83.38" y="-61" font-family="Helvetica,sans-Serif" font-size="10.00">VariableNotAMooseObjectAction.h</text>
</a>
</g>
</g>
<!-- Node2&#45;&gt;Node3 -->
<g id="edge2_Node000002_Node000003" class="edge">
<title>Node2&#45;&gt;Node3</title>
<g id="a_edge2_Node000002_Node000003"><a xlink:title=" ">
<path fill="none" stroke="#63b8ff" d="M83.38,-110.33C83.38,-103.82 83.38,-94.67 83.38,-86.37"/>
<polygon fill="#63b8ff" stroke="#63b8ff" points="86.88,-86.37 83.38,-76.37 79.88,-86.37 86.88,-86.37"/>
</a>
</g>
</g>
<!-- Node4 -->
<g id="Node000004" class="node">
<title>Node4</title>
<g id="a_Node000004"><a xlink:title=" ">
<polygon fill="#e0e0e0" stroke="#999999" points="109,-19.25 57.75,-19.25 57.75,0 109,0 109,-19.25"/>
<text text-anchor="middle" x="83.38" y="-5.75" font-family="Helvetica,sans-Serif" font-size="10.00">Action.h</text>
</a>
</g>
</g>
<!-- Node3&#45;&gt;Node4 -->
<g id="edge3_Node000003_Node000004" class="edge">
<title>Node3&#45;&gt;Node4</title>
<g id="a_edge3_Node000003_Node000004"><a xlink:title=" ">
<path fill="none" stroke="#63b8ff" d="M83.38,-55.08C83.38,-48.57 83.38,-39.42 83.38,-31.12"/>
<polygon fill="#63b8ff" stroke="#63b8ff" points="86.88,-31.12 83.38,-21.12 79.88,-31.12 86.88,-31.12"/>
</a>
</g>
</g>
</g>
</svg>
