<?xml version="1.0" encoding="UTF-8" standalone="no"?>
<!DOCTYPE svg PUBLIC "-//W3C//DTD SVG 1.1//EN"
 "http://www.w3.org/Graphics/SVG/1.1/DTD/svg11.dtd">
<!-- Generated by graphviz version 7.0.5 (20221223.1930)
 -->
<!-- Title: src/kernels/NtTimeDerivative.C Pages: 1 -->
<svg width="362pt" height="247pt"
 viewBox="0.00 0.00 361.50 247.00" xmlns="http://www.w3.org/2000/svg" xmlns:xlink="http://www.w3.org/1999/xlink">
<g id="graph0" class="graph" transform="scale(1 1) rotate(0) translate(4 243)">
<title>src/kernels/NtTimeDerivative.C</title>
<!-- Node1 -->
<g id="node1" class="node">
<title>Node1</title>
<g id="a_node1"><a xlink:title=" ">
<polygon fill="#999999" stroke="#666666" points="271,-239 119,-239 119,-220 271,-220 271,-239"/>
<text text-anchor="middle" x="195" y="-227" font-family="Helvetica,sans-Serif" font-size="10.00">src/kernels/NtTimeDerivative.C</text>
</a>
</g>
</g>
<!-- Node2 -->
<g id="node2" class="node">
<title>Node2</title>
<g id="a_node2"><a xlink:href="_nt_time_derivative_8h.html" target="_top" xlink:title=" ">
<polygon fill="white" stroke="#666666" points="143,-184 43,-184 43,-165 143,-165 143,-184"/>
<text text-anchor="middle" x="93" y="-172" font-family="Helvetica,sans-Serif" font-size="10.00">NtTimeDerivative.h</text>
</a>
</g>
</g>
<!-- Node1&#45;&gt;Node2 -->
<g id="edge1" class="edge">
<title>Node1&#45;&gt;Node2</title>
<path fill="none" stroke="#63b8ff" d="M177.7,-219.51C161.92,-211.31 138.36,-199.07 120.09,-189.58"/>
<polygon fill="#63b8ff" stroke="#63b8ff" points="121.88,-186.56 111.39,-185.06 118.65,-192.77 121.88,-186.56"/>
</g>
<!-- Node8 -->
<g id="node8" class="node">
<title>Node8</title>
<g id="a_node8"><a xlink:title=" ">
<polygon fill="#e0e0e0" stroke="#999999" points="228.5,-184 161.5,-184 161.5,-165 228.5,-165 228.5,-184"/>
<text text-anchor="middle" x="195" y="-172" font-family="Helvetica,sans-Serif" font-size="10.00">Assembly.h</text>
</a>
</g>
</g>
<!-- Node1&#45;&gt;Node8 -->
<g id="edge7" class="edge">
<title>Node1&#45;&gt;Node8</title>
<path fill="none" stroke="#63b8ff" d="M195,-219.75C195,-213.27 195,-204.16 195,-195.9"/>
<polygon fill="#63b8ff" stroke="#63b8ff" points="198.5,-195.96 195,-185.96 191.5,-195.96 198.5,-195.96"/>
</g>
<!-- Node9 -->
<g id="node9" class="node">
<title>Node9</title>
<g id="a_node9"><a xlink:title=" ">
<polygon fill="#e0e0e0" stroke="#999999" points="353.5,-184 246.5,-184 246.5,-165 353.5,-165 353.5,-184"/>
<text text-anchor="middle" x="300" y="-172" font-family="Helvetica,sans-Serif" font-size="10.00">libmesh/quadrature.h</text>
</a>
</g>
</g>
<!-- Node1&#45;&gt;Node9 -->
<g id="edge8" class="edge">
<title>Node1&#45;&gt;Node9</title>
<path fill="none" stroke="#63b8ff" d="M212.81,-219.51C229.13,-211.27 253.53,-198.96 272.37,-189.45"/>
<polygon fill="#63b8ff" stroke="#63b8ff" points="273.75,-192.67 281.1,-185.04 270.6,-186.42 273.75,-192.67"/>
</g>
<!-- Node3 -->
<g id="node3" class="node">
<title>Node3</title>
<g id="a_node3"><a xlink:href="_scalar_transport_time_derivative_8h.html" target="_top" xlink:title=" ">
<polygon fill="white" stroke="#666666" points="172,-129 14,-129 14,-110 172,-110 172,-129"/>
<text text-anchor="middle" x="93" y="-117" font-family="Helvetica,sans-Serif" font-size="10.00">ScalarTransportTimeDerivative.h</text>
</a>
</g>
</g>
<!-- Node2&#45;&gt;Node3 -->
<g id="edge2" class="edge">
<title>Node2&#45;&gt;Node3</title>
<path fill="none" stroke="#63b8ff" d="M93,-164.75C93,-158.27 93,-149.16 93,-140.9"/>
<polygon fill="#63b8ff" stroke="#63b8ff" points="96.5,-140.96 93,-130.96 89.5,-140.96 96.5,-140.96"/>
</g>
<!-- Node4 -->
<g id="node4" class="node">
<title>Node4</title>
<g id="a_node4"><a xlink:title=" ">
<polygon fill="#e0e0e0" stroke="#999999" points="74,-74 0,-74 0,-55 74,-55 74,-74"/>
<text text-anchor="middle" x="37" y="-62" font-family="Helvetica,sans-Serif" font-size="10.00">TimeKernel.h</text>
</a>
</g>
</g>
<!-- Node3&#45;&gt;Node4 -->
<g id="edge3" class="edge">
<title>Node3&#45;&gt;Node4</title>
<path fill="none" stroke="#63b8ff" d="M83.5,-109.51C75.57,-102 64.05,-91.1 54.46,-82.03"/>
<polygon fill="#63b8ff" stroke="#63b8ff" points="57.13,-79.73 47.46,-75.4 52.32,-84.81 57.13,-79.73"/>
</g>
<!-- Node5 -->
<g id="node5" class="node">
<title>Node5</title>
<g id="a_node5"><a xlink:href="_scalar_transport_base_8h.html" target="_top" xlink:title=" ">
<polygon fill="white" stroke="#666666" points="208,-74 92,-74 92,-55 208,-55 208,-74"/>
<text text-anchor="middle" x="150" y="-62" font-family="Helvetica,sans-Serif" font-size="10.00">ScalarTransportBase.h</text>
</a>
</g>
</g>
<!-- Node3&#45;&gt;Node5 -->
<g id="edge4" class="edge">
<title>Node3&#45;&gt;Node5</title>
<path fill="none" stroke="#63b8ff" d="M102.67,-109.51C110.74,-102 122.47,-91.1 132.22,-82.03"/>
<polygon fill="#63b8ff" stroke="#63b8ff" points="134.43,-84.76 139.37,-75.39 129.66,-79.63 134.43,-84.76"/>
</g>
<!-- Node6 -->
<g id="node6" class="node">
<title>Node6</title>
<g id="a_node6"><a xlink:title=" ">
<polygon fill="#e0e0e0" stroke="#999999" points="137,-19 41,-19 41,0 137,0 137,-19"/>
<text text-anchor="middle" x="89" y="-7" font-family="Helvetica,sans-Serif" font-size="10.00">InputParameters.h</text>
</a>
</g>
</g>
<!-- Node5&#45;&gt;Node6 -->
<g id="edge5" class="edge">
<title>Node5&#45;&gt;Node6</title>
<path fill="none" stroke="#63b8ff" d="M139.65,-54.51C130.92,-46.93 118.21,-35.88 107.7,-26.75"/>
<polygon fill="#63b8ff" stroke="#63b8ff" points="110.18,-24.27 100.34,-20.35 105.59,-29.55 110.18,-24.27"/>
</g>
<!-- Node7 -->
<g id="node7" class="node">
<title>Node7</title>
<g id="a_node7"><a xlink:title=" ">
<polygon fill="#e0e0e0" stroke="#999999" points="266.5,-19 155.5,-19 155.5,0 266.5,0 266.5,-19"/>
<text text-anchor="middle" x="211" y="-7" font-family="Helvetica,sans-Serif" font-size="10.00">MooseVariableBase.h</text>
</a>
</g>
</g>
<!-- Node5&#45;&gt;Node7 -->
<g id="edge6" class="edge">
<title>Node5&#45;&gt;Node7</title>
<path fill="none" stroke="#63b8ff" d="M160.35,-54.51C169.08,-46.93 181.79,-35.88 192.3,-26.75"/>
<polygon fill="#63b8ff" stroke="#63b8ff" points="194.41,-29.55 199.66,-20.35 189.82,-24.27 194.41,-29.55"/>
</g>
</g>
</svg>
