<?xml version="1.0" encoding="UTF-8" standalone="no"?>
<!DOCTYPE svg PUBLIC "-//W3C//DTD SVG 1.1//EN"
 "http://www.w3.org/Graphics/SVG/1.1/DTD/svg11.dtd">
<!-- Generated by graphviz version 9.0.0 (20230911.1827)
 -->
<!-- Title: include/materials/NuclearMaterial.h Pages: 1 -->
<svg width="758pt" height="94pt"
 viewBox="0.00 0.00 758.12 93.75" xmlns="http://www.w3.org/2000/svg" xmlns:xlink="http://www.w3.org/1999/xlink">
<g id="graph0" class="graph" transform="scale(1 1) rotate(0) translate(4 89.75)">
<title>include/materials/NuclearMaterial.h</title>
<!-- Node1 -->
<g id="Node000001" class="node">
<title>Node1</title>
<g id="a_Node000001"><a xlink:title=" ">
<polygon fill="#999999" stroke="#666666" points="480.5,-85.75 354.25,-85.75 354.25,-55.25 480.5,-55.25 480.5,-85.75"/>
<text text-anchor="start" x="362.25" y="-72.25" font-family="Helvetica,sans-Serif" font-size="10.00">include/materials/Nuclear</text>
<text text-anchor="middle" x="417.38" y="-61" font-family="Helvetica,sans-Serif" font-size="10.00">Material.h</text>
</a>
</g>
</g>
<!-- Node2 -->
<g id="Node000002" class="node">
<title>Node2</title>
<g id="a_Node000002"><a xlink:title=" ">
<polygon fill="#e0e0e0" stroke="#999999" points="130.75,-19.25 0,-19.25 0,0 130.75,0 130.75,-19.25"/>
<text text-anchor="middle" x="65.38" y="-5.75" font-family="Helvetica,sans-Serif" font-size="10.00">GenericConstantMaterial.h</text>
</a>
</g>
</g>
<!-- Node1&#45;&gt;Node2 -->
<g id="edge1_Node000001_Node000002" class="edge">
<title>Node1&#45;&gt;Node2</title>
<g id="a_edge1_Node000001_Node000002"><a xlink:title=" ">
<path fill="none" stroke="#63b8ff" d="M354.04,-58.91C291.02,-48.37 194.75,-32.26 130.96,-21.59"/>
<polygon fill="#63b8ff" stroke="#63b8ff" points="131.77,-18.18 121.32,-19.98 130.61,-25.08 131.77,-18.18"/>
</a>
</g>
</g>
<!-- Node3 -->
<g id="Node000003" class="node">
<title>Node3</title>
<g id="a_Node000003"><a xlink:title=" ">
<polygon fill="#e0e0e0" stroke="#999999" points="252.25,-19.25 148.5,-19.25 148.5,0 252.25,0 252.25,-19.25"/>
<text text-anchor="middle" x="200.38" y="-5.75" font-family="Helvetica,sans-Serif" font-size="10.00">SplineInterpolation.h</text>
</a>
</g>
</g>
<!-- Node1&#45;&gt;Node3 -->
<g id="edge2_Node000001_Node000003" class="edge">
<title>Node1&#45;&gt;Node3</title>
<g id="a_edge2_Node000001_Node000003"><a xlink:title=" ">
<path fill="none" stroke="#63b8ff" d="M363.18,-54.8C326.75,-44.91 279.31,-32.04 245.05,-22.75"/>
<polygon fill="#63b8ff" stroke="#63b8ff" points="246,-19.38 235.43,-20.14 244.17,-26.13 246,-19.38"/>
</a>
</g>
</g>
<!-- Node4 -->
<g id="Node000004" class="node">
<title>Node4</title>
<g id="a_Node000004"><a xlink:title=" ">
<polygon fill="#e0e0e0" stroke="#999999" points="406.38,-19.25 270.38,-19.25 270.38,0 406.38,0 406.38,-19.25"/>
<text text-anchor="middle" x="338.38" y="-5.75" font-family="Helvetica,sans-Serif" font-size="10.00">BicubicSplineInterpolation.h</text>
</a>
</g>
</g>
<!-- Node1&#45;&gt;Node4 -->
<g id="edge3_Node000001_Node000004" class="edge">
<title>Node1&#45;&gt;Node4</title>
<g id="a_edge3_Node000001_Node000004"><a xlink:title=" ">
<path fill="none" stroke="#63b8ff" d="M397.85,-54.95C386.28,-46.33 371.62,-35.4 359.74,-26.55"/>
<polygon fill="#63b8ff" stroke="#63b8ff" points="361.88,-23.77 351.77,-20.61 357.69,-29.39 361.88,-23.77"/>
</a>
</g>
</g>
<!-- Node5 -->
<g id="Node000005" class="node">
<title>Node5</title>
<g id="a_Node000005"><a xlink:title=" ">
<polygon fill="#e0e0e0" stroke="#999999" points="568.5,-19.25 424.25,-19.25 424.25,0 568.5,0 568.5,-19.25"/>
<text text-anchor="middle" x="496.38" y="-5.75" font-family="Helvetica,sans-Serif" font-size="10.00">MonotoneCubicInterpolation.h</text>
</a>
</g>
</g>
<!-- Node1&#45;&gt;Node5 -->
<g id="edge4_Node000001_Node000005" class="edge">
<title>Node1&#45;&gt;Node5</title>
<g id="a_edge4_Node000001_Node000005"><a xlink:title=" ">
<path fill="none" stroke="#63b8ff" d="M436.9,-54.95C448.47,-46.33 463.13,-35.4 475.01,-26.55"/>
<polygon fill="#63b8ff" stroke="#63b8ff" points="477.06,-29.39 482.98,-20.61 472.87,-23.77 477.06,-29.39"/>
</a>
</g>
</g>
<!-- Node6 -->
<g id="Node000006" class="node">
<title>Node6</title>
<g id="a_Node000006"><a xlink:title=" ">
<polygon fill="#e0e0e0" stroke="#999999" points="690.25,-19.25 586.5,-19.25 586.5,0 690.25,0 690.25,-19.25"/>
<text text-anchor="middle" x="638.38" y="-5.75" font-family="Helvetica,sans-Serif" font-size="10.00">LinearInterpolation.h</text>
</a>
</g>
</g>
<!-- Node1&#45;&gt;Node6 -->
<g id="edge5_Node000001_Node000006" class="edge">
<title>Node1&#45;&gt;Node6</title>
<g id="a_edge5_Node000001_Node000006"><a xlink:title=" ">
<path fill="none" stroke="#63b8ff" d="M472.57,-54.8C509.84,-44.87 558.4,-31.93 593.33,-22.63"/>
<polygon fill="#63b8ff" stroke="#63b8ff" points="593.93,-26.09 602.69,-20.13 592.13,-19.32 593.93,-26.09"/>
</a>
</g>
</g>
<!-- Node7 -->
<g id="Node000007" class="node">
<title>Node7</title>
<g id="a_Node000007"><a xlink:title=" ">
<polygon fill="#e0e0e0" stroke="#999999" points="750.12,-19.25 708.62,-19.25 708.62,0 750.12,0 750.12,-19.25"/>
<text text-anchor="middle" x="729.38" y="-5.75" font-family="Helvetica,sans-Serif" font-size="10.00">json.h</text>
</a>
</g>
</g>
<!-- Node1&#45;&gt;Node7 -->
<g id="edge6_Node000001_Node000007" class="edge">
<title>Node1&#45;&gt;Node7</title>
<g id="a_edge6_Node000001_Node000007"><a xlink:title=" ">
<path fill="none" stroke="#63b8ff" d="M480.76,-60.13C535.69,-51.57 617.5,-37.79 697.39,-19.51"/>
<polygon fill="#63b8ff" stroke="#63b8ff" points="697.71,-23.03 706.67,-17.37 696.13,-16.21 697.71,-23.03"/>
</a>
</g>
</g>
</g>
</svg>
