<?xml version="1.0" encoding="UTF-8" standalone="no"?>
<!DOCTYPE svg PUBLIC "-//W3C//DTD SVG 1.1//EN"
 "http://www.w3.org/Graphics/SVG/1.1/DTD/svg11.dtd">
<!-- Generated by graphviz version 3.0.0 (20220413.0242)
 -->
<!-- Title: include/materials/NuclearMaterial.h Pages: 1 -->
<svg width="892pt" height="229pt"
 viewBox="0.00 0.00 891.50 229.00" xmlns="http://www.w3.org/2000/svg" xmlns:xlink="http://www.w3.org/1999/xlink">
<g id="graph0" class="graph" transform="scale(1 1) rotate(0) translate(4 225)">
<title>include/materials/NuclearMaterial.h</title>
<polygon fill="white" stroke="transparent" points="-4,4 -4,-225 887.5,-225 887.5,4 -4,4"/>
<!-- Node1 -->
<g id="node1" class="node">
<title>Node1</title>
<g id="a_node1"><a xlink:title=" ">
<polygon fill="#bfbfbf" stroke="black" points="586.5,-190.5 586.5,-220.5 713.5,-220.5 713.5,-190.5 586.5,-190.5"/>
<text text-anchor="start" x="594.5" y="-208.5" font-family="Helvetica,sans-Serif" font-size="10.00">include/materials/Nuclear</text>
<text text-anchor="middle" x="650" y="-197.5" font-family="Helvetica,sans-Serif" font-size="10.00">Material.h</text>
</a>
</g>
</g>
<!-- Node2 -->
<g id="node2" class="node">
<title>Node2</title>
<g id="a_node2"><a xlink:href="_generic_moltres_material_8h.html" target="_top" xlink:title=" ">
<polygon fill="white" stroke="black" points="361.5,-123.5 361.5,-153.5 488.5,-153.5 488.5,-123.5 361.5,-123.5"/>
<text text-anchor="start" x="369.5" y="-141.5" font-family="Helvetica,sans-Serif" font-size="10.00">include/materials/Generic</text>
<text text-anchor="middle" x="425" y="-130.5" font-family="Helvetica,sans-Serif" font-size="10.00">MoltresMaterial.h</text>
</a>
</g>
</g>
<!-- Node1&#45;&gt;Node2 -->
<g id="edge1" class="edge">
<title>Node1&#45;&gt;Node2</title>
<path fill="none" stroke="midnightblue" d="M591.43,-187.58C554.89,-177.02 508.4,-163.59 473.85,-153.61"/>
<polygon fill="midnightblue" stroke="midnightblue" points="590.88,-191.06 601.46,-190.48 592.82,-184.34 590.88,-191.06"/>
</g>
<!-- Node10 -->
<g id="node10" class="node">
<title>Node10</title>
<g id="a_node10"><a xlink:href="_moltres_json_material_8h.html" target="_top" xlink:title=" ">
<polygon fill="white" stroke="black" points="587.5,-123.5 587.5,-153.5 712.5,-153.5 712.5,-123.5 587.5,-123.5"/>
<text text-anchor="start" x="595.5" y="-141.5" font-family="Helvetica,sans-Serif" font-size="10.00">include/materials/Moltres</text>
<text text-anchor="middle" x="650" y="-130.5" font-family="Helvetica,sans-Serif" font-size="10.00">JsonMaterial.h</text>
</a>
</g>
</g>
<!-- Node1&#45;&gt;Node10 -->
<g id="edge9" class="edge">
<title>Node1&#45;&gt;Node10</title>
<path fill="none" stroke="midnightblue" d="M650,-180.11C650,-171.15 650,-161.32 650,-153.58"/>
<polygon fill="midnightblue" stroke="midnightblue" points="646.5,-180.4 650,-190.4 653.5,-180.4 646.5,-180.4"/>
</g>
<!-- Node12 -->
<g id="node12" class="node">
<title>Node12</title>
<g id="a_node12"><a xlink:href="_nuclear_material_8_c.html" target="_top" xlink:title=" ">
<polygon fill="white" stroke="black" points="730.5,-129 730.5,-148 883.5,-148 883.5,-129 730.5,-129"/>
<text text-anchor="middle" x="807" y="-136" font-family="Helvetica,sans-Serif" font-size="10.00">src/materials/NuclearMaterial.C</text>
</a>
</g>
</g>
<!-- Node1&#45;&gt;Node12 -->
<g id="edge11" class="edge">
<title>Node1&#45;&gt;Node12</title>
<path fill="none" stroke="midnightblue" d="M693.58,-186.46C723.91,-173.9 762.98,-157.72 786.45,-148.01"/>
<polygon fill="midnightblue" stroke="midnightblue" points="691.97,-183.34 684.07,-190.4 694.64,-189.8 691.97,-183.34"/>
</g>
<!-- Node3 -->
<g id="node3" class="node">
<title>Node3</title>
<g id="a_node3"><a xlink:href="_cammi_fuel_8h.html" target="_top" xlink:title=" ">
<polygon fill="white" stroke="black" points="0,-62 0,-81 150,-81 150,-62 0,-62"/>
<text text-anchor="middle" x="75" y="-69" font-family="Helvetica,sans-Serif" font-size="10.00">include/materials/CammiFuel.h</text>
</a>
</g>
</g>
<!-- Node2&#45;&gt;Node3 -->
<g id="edge2" class="edge">
<title>Node2&#45;&gt;Node3</title>
<path fill="none" stroke="midnightblue" d="M351.18,-123.79C281.55,-110.86 179.36,-91.88 120.79,-81"/>
<polygon fill="midnightblue" stroke="midnightblue" points="350.74,-127.27 361.21,-125.65 352.02,-120.39 350.74,-127.27"/>
</g>
<!-- Node5 -->
<g id="node5" class="node">
<title>Node5</title>
<g id="a_node5"><a xlink:href="_cammi_moderator_8h.html" target="_top" xlink:title=" ">
<polygon fill="white" stroke="black" points="168.5,-62 168.5,-81 343.5,-81 343.5,-62 168.5,-62"/>
<text text-anchor="middle" x="256" y="-69" font-family="Helvetica,sans-Serif" font-size="10.00">include/materials/CammiModerator.h</text>
</a>
</g>
</g>
<!-- Node2&#45;&gt;Node5 -->
<g id="edge4" class="edge">
<title>Node2&#45;&gt;Node5</title>
<path fill="none" stroke="midnightblue" d="M378.94,-119.78C346.17,-107.18 303.6,-90.81 278.12,-81.01"/>
<polygon fill="midnightblue" stroke="midnightblue" points="377.74,-123.07 388.33,-123.4 380.25,-116.54 377.74,-123.07"/>
</g>
<!-- Node7 -->
<g id="node7" class="node">
<title>Node7</title>
<g id="a_node7"><a xlink:href="_rodded_material_8h.html" target="_top" xlink:title=" ">
<polygon fill="white" stroke="black" points="362,-56.5 362,-86.5 488,-86.5 488,-56.5 362,-56.5"/>
<text text-anchor="start" x="370" y="-74.5" font-family="Helvetica,sans-Serif" font-size="10.00">include/materials/Rodded</text>
<text text-anchor="middle" x="425" y="-63.5" font-family="Helvetica,sans-Serif" font-size="10.00">Material.h</text>
</a>
</g>
</g>
<!-- Node2&#45;&gt;Node7 -->
<g id="edge6" class="edge">
<title>Node2&#45;&gt;Node7</title>
<path fill="none" stroke="midnightblue" d="M425,-113.11C425,-104.15 425,-94.32 425,-86.58"/>
<polygon fill="midnightblue" stroke="midnightblue" points="421.5,-113.4 425,-123.4 428.5,-113.4 421.5,-113.4"/>
</g>
<!-- Node9 -->
<g id="node9" class="node">
<title>Node9</title>
<g id="a_node9"><a xlink:href="_generic_moltres_material_8_c.html" target="_top" xlink:title=" ">
<polygon fill="white" stroke="black" points="506,-56.5 506,-86.5 648,-86.5 648,-56.5 506,-56.5"/>
<text text-anchor="start" x="514" y="-74.5" font-family="Helvetica,sans-Serif" font-size="10.00">src/materials/GenericMoltres</text>
<text text-anchor="middle" x="577" y="-63.5" font-family="Helvetica,sans-Serif" font-size="10.00">Material.C</text>
</a>
</g>
</g>
<!-- Node2&#45;&gt;Node9 -->
<g id="edge8" class="edge">
<title>Node2&#45;&gt;Node9</title>
<path fill="none" stroke="midnightblue" d="M467.31,-119.41C491.58,-109.03 521.59,-96.2 544.08,-86.58"/>
<polygon fill="midnightblue" stroke="midnightblue" points="465.8,-116.25 457.98,-123.4 468.55,-122.68 465.8,-116.25"/>
</g>
<!-- Node4 -->
<g id="node4" class="node">
<title>Node4</title>
<g id="a_node4"><a xlink:href="_cammi_fuel_8_c.html" target="_top" xlink:title=" ">
<polygon fill="white" stroke="black" points="8,-0.5 8,-19.5 142,-19.5 142,-0.5 8,-0.5"/>
<text text-anchor="middle" x="75" y="-7.5" font-family="Helvetica,sans-Serif" font-size="10.00">src/materials/CammiFuel.C</text>
</a>
</g>
</g>
<!-- Node3&#45;&gt;Node4 -->
<g id="edge3" class="edge">
<title>Node3&#45;&gt;Node4</title>
<path fill="none" stroke="midnightblue" d="M75,-51.82C75,-41 75,-27.9 75,-19.51"/>
<polygon fill="midnightblue" stroke="midnightblue" points="71.5,-51.98 75,-61.98 78.5,-51.98 71.5,-51.98"/>
</g>
<!-- Node6 -->
<g id="node6" class="node">
<title>Node6</title>
<g id="a_node6"><a xlink:href="_cammi_moderator_8_c.html" target="_top" xlink:title=" ">
<polygon fill="white" stroke="black" points="173.5,-0.5 173.5,-19.5 332.5,-19.5 332.5,-0.5 173.5,-0.5"/>
<text text-anchor="middle" x="253" y="-7.5" font-family="Helvetica,sans-Serif" font-size="10.00">src/materials/CammiModerator.C</text>
</a>
</g>
</g>
<!-- Node5&#45;&gt;Node6 -->
<g id="edge5" class="edge">
<title>Node5&#45;&gt;Node6</title>
<path fill="none" stroke="midnightblue" d="M255.06,-51.82C254.51,-41 253.85,-27.9 253.43,-19.51"/>
<polygon fill="midnightblue" stroke="midnightblue" points="251.57,-52.16 255.57,-61.98 258.56,-51.81 251.57,-52.16"/>
</g>
<!-- Node8 -->
<g id="node8" class="node">
<title>Node8</title>
<g id="a_node8"><a xlink:href="_rodded_material_8_c.html" target="_top" xlink:title=" ">
<polygon fill="white" stroke="black" points="351,-0.5 351,-19.5 503,-19.5 503,-0.5 351,-0.5"/>
<text text-anchor="middle" x="427" y="-7.5" font-family="Helvetica,sans-Serif" font-size="10.00">src/materials/RoddedMaterial.C</text>
</a>
</g>
</g>
<!-- Node7&#45;&gt;Node8 -->
<g id="edge7" class="edge">
<title>Node7&#45;&gt;Node8</title>
<path fill="none" stroke="midnightblue" d="M425.81,-46.29C426.13,-36.86 426.47,-26.65 426.71,-19.66"/>
<polygon fill="midnightblue" stroke="midnightblue" points="422.31,-46.29 425.47,-56.4 429.31,-46.52 422.31,-46.29"/>
</g>
<!-- Node11 -->
<g id="node11" class="node">
<title>Node11</title>
<g id="a_node11"><a xlink:href="_moltres_json_material_8_c.html" target="_top" xlink:title=" ">
<polygon fill="white" stroke="black" points="666.5,-56.5 666.5,-86.5 795.5,-86.5 795.5,-56.5 666.5,-56.5"/>
<text text-anchor="start" x="674.5" y="-74.5" font-family="Helvetica,sans-Serif" font-size="10.00">src/materials/MoltresJson</text>
<text text-anchor="middle" x="731" y="-63.5" font-family="Helvetica,sans-Serif" font-size="10.00">Material.C</text>
</a>
</g>
</g>
<!-- Node10&#45;&gt;Node11 -->
<g id="edge10" class="edge">
<title>Node10&#45;&gt;Node11</title>
<path fill="none" stroke="midnightblue" d="M675.69,-116.88C688,-107.01 702.43,-95.43 713.46,-86.58"/>
<polygon fill="midnightblue" stroke="midnightblue" points="673.18,-114.41 667.58,-123.4 677.57,-119.87 673.18,-114.41"/>
</g>
</g>
</svg>
