<?xml version="1.0" encoding="UTF-8" standalone="no"?>
<!DOCTYPE svg PUBLIC "-//W3C//DTD SVG 1.1//EN"
 "http://www.w3.org/Graphics/SVG/1.1/DTD/svg11.dtd">
<!-- Generated by graphviz version 9.0.0 (20230911.1827)
 -->
<!-- Title: include/materials/NuclearMaterial.h Pages: 1 -->
<!--zoomable 227 -->

<svg id="main" version="1.1" xmlns="http://www.w3.org/2000/svg" xmlns:xlink="http://www.w3.org/1999/xlink" xml:space="preserve" onload="init(evt)">
<style type="text/css"><![CDATA[
.node, .edge {opacity: 0.7;}
.node.selected, .edge.selected {opacity: 1;}
.edge:hover path { stroke: red; }
.edge:hover polygon { stroke: red; fill: red; }
]]></style>

<defs>
  <circle id="rim" cx="0" cy="0" r="7"/>
  <circle id="rim2" cx="0" cy="0" r="3.5"/>
  <g id="zoomPlus">
    <use xlink:href="#rim" fill="#404040"><set attributeName="fill" to="#808080" begin="zoomplus.mouseover" end="zoomplus.mouseout"/></use>
    <path d="M-4,0h8M0,-4v8" fill="none" stroke="white" stroke-width="1.5" pointer-events="none"/>
  </g>
  <g id="zoomMin">
    <use xlink:href="#rim" fill="#404040"><set attributeName="fill" to="#808080" begin="zoomminus.mouseover" end="zoomminus.mouseout"/></use>
    <path d="M-4,0h8" fill="none" stroke="white" stroke-width="1.5" pointer-events="none"/>
  </g>
  <g id="arrowUp" transform="translate(30 24)">
    <use xlink:href="#rim"/>
    <path pointer-events="none" fill="none" stroke="white" stroke-width="1.5" d="M0,-3.0v7 M-2.5,-0.5L0,-3.0L2.5,-0.5"/>
  </g>
  <g id="arrowRight" transform="rotate(90) translate(36 -43)">
    <use xlink:href="#rim"/>
    <path pointer-events="none" fill="none" stroke="white" stroke-width="1.5" d="M0,-3.0v7 M-2.5,-0.5L0,-3.0L2.5,-0.5"/>
  </g>
  <g id="arrowDown" transform="rotate(180) translate(-30 -48)">
    <use xlink:href="#rim"/>
    <path pointer-events="none" fill="none" stroke="white" stroke-width="1.5" d="M0,-3.0v7 M-2.5,-0.5L0,-3.0L2.5,-0.5"/>
  </g>
  <g id="arrowLeft" transform="rotate(270) translate(-36 17)">
    <use xlink:href="#rim"/>
    <path pointer-events="none" fill="none" stroke="white" stroke-width="1.5" d="M0,-3.0v7 M-2.5,-0.5L0,-3.0L2.5,-0.5"/>
  </g>
  <g id="resetDef">
    <use xlink:href="#rim2" fill="#404040"><set attributeName="fill" to="#808080" begin="reset.mouseover" end="reset.mouseout"/></use>
  </g>
</defs>
<script type="application/ecmascript">
var viewWidth = 888;
var viewHeight = 227;
var sectionId = 'dynsection-1';
</script>
<script type="application/ecmascript" xlink:href="svg.min.js"/>
<svg id="graph" class="graph">
<g id="viewport">
<title>include/materials/NuclearMaterial.h</title>
<!-- Node1 -->
<g id="Node000001" class="node">
<title>Node1</title>
<g id="a_Node000001"><a xlink:title=" ">
<polygon fill="#999999" stroke="#666666" points="709.88,-218.75 583.62,-218.75 583.62,-188.25 709.88,-188.25 709.88,-218.75"/>
<text text-anchor="start" x="591.62" y="-205.25" font-family="Helvetica,sans-Serif" font-size="10.00">include/materials/Nuclear</text>
<text text-anchor="middle" x="646.75" y="-194" font-family="Helvetica,sans-Serif" font-size="10.00">Material.h</text>
</a>
</g>
</g>
<!-- Node2 -->
<g id="Node000002" class="node">
<title>Node2</title>
<g id="a_Node000002"><a xlink:href="_generic_moltres_material_8h.html" target="_top" xlink:title=" ">
<polygon fill="white" stroke="#666666" points="485.88,-152.25 359.62,-152.25 359.62,-121.75 485.88,-121.75 485.88,-152.25"/>
<text text-anchor="start" x="367.62" y="-138.75" font-family="Helvetica,sans-Serif" font-size="10.00">include/materials/Generic</text>
<text text-anchor="middle" x="422.75" y="-127.5" font-family="Helvetica,sans-Serif" font-size="10.00">MoltresMaterial.h</text>
</a>
</g>
</g>
<!-- Node1&#45;&gt;Node2 -->
<g id="edge1_Node000001_Node000002" class="edge">
<title>Node1&#45;&gt;Node2</title>
<g id="a_edge1_Node000001_Node000002"><a xlink:title=" ">
<path fill="none" stroke="#63b8ff" d="M584.6,-184.6C549.65,-174.54 506.57,-162.14 473.64,-152.65"/>
<polygon fill="#63b8ff" stroke="#63b8ff" points="583.61,-187.96 594.19,-187.36 585.55,-181.23 583.61,-187.96"/>
</a>
</g>
</g>
<!-- Node10 -->
<g id="Node000010" class="node">
<title>Node10</title>
<g id="a_Node000010"><a xlink:href="_moltres_json_material_8h.html" target="_top" xlink:title=" ">
<polygon fill="white" stroke="#666666" points="709.12,-152.25 584.38,-152.25 584.38,-121.75 709.12,-121.75 709.12,-152.25"/>
<text text-anchor="start" x="592.38" y="-138.75" font-family="Helvetica,sans-Serif" font-size="10.00">include/materials/Moltres</text>
<text text-anchor="middle" x="646.75" y="-127.5" font-family="Helvetica,sans-Serif" font-size="10.00">JsonMaterial.h</text>
</a>
</g>
</g>
<!-- Node1&#45;&gt;Node10 -->
<g id="edge9_Node000001_Node000010" class="edge">
<title>Node1&#45;&gt;Node10</title>
<g id="a_edge9_Node000001_Node000010"><a xlink:title=" ">
<path fill="none" stroke="#63b8ff" d="M646.75,-176.56C646.75,-168.39 646.75,-159.66 646.75,-152.58"/>
<polygon fill="#63b8ff" stroke="#63b8ff" points="643.25,-176.35 646.75,-186.35 650.25,-176.35 643.25,-176.35"/>
</a>
</g>
</g>
<!-- Node12 -->
<g id="Node000012" class="node">
<title>Node12</title>
<g id="a_Node000012"><a xlink:href="_nuclear_material_8_c.html" target="_top" xlink:title=" ">
<polygon fill="white" stroke="#666666" points="880,-146.62 727.5,-146.62 727.5,-127.38 880,-127.38 880,-146.62"/>
<text text-anchor="middle" x="803.75" y="-133.12" font-family="Helvetica,sans-Serif" font-size="10.00">src/materials/NuclearMaterial.C</text>
</a>
</g>
</g>
<!-- Node1&#45;&gt;Node12 -->
<g id="edge11_Node000001_Node000012" class="edge">
<title>Node1&#45;&gt;Node12</title>
<g id="a_edge11_Node000001_Node000012"><a xlink:title=" ">
<path fill="none" stroke="#63b8ff" d="M692.82,-183.57C722.18,-171.51 758.87,-156.44 781.82,-147.01"/>
<polygon fill="#63b8ff" stroke="#63b8ff" points="691.7,-180.25 683.78,-187.29 694.36,-186.73 691.7,-180.25"/>
</a>
</g>
</g>
<!-- Node3 -->
<g id="Node000003" class="node">
<title>Node3</title>
<g id="a_Node000003"><a xlink:href="_cammi_fuel_8h.html" target="_top" xlink:title=" ">
<polygon fill="white" stroke="#666666" points="149.5,-80.12 0,-80.12 0,-60.88 149.5,-60.88 149.5,-80.12"/>
<text text-anchor="middle" x="74.75" y="-66.62" font-family="Helvetica,sans-Serif" font-size="10.00">include/materials/CammiFuel.h</text>
</a>
</g>
</g>
<!-- Node2&#45;&gt;Node3 -->
<g id="edge2_Node000002_Node000003" class="edge">
<title>Node2&#45;&gt;Node3</title>
<g id="a_edge2_Node000002_Node000003"><a xlink:title=" ">
<path fill="none" stroke="#63b8ff" d="M348.3,-122.2C280.55,-109.64 182.43,-91.46 123.97,-80.62"/>
<polygon fill="#63b8ff" stroke="#63b8ff" points="347.37,-125.59 357.84,-123.97 348.64,-118.7 347.37,-125.59"/>
</a>
</g>
</g>
<!-- Node5 -->
<g id="Node000005" class="node">
<title>Node5</title>
<g id="a_Node000005"><a xlink:href="_cammi_moderator_8h.html" target="_top" xlink:title=" ">
<polygon fill="white" stroke="#666666" points="341.88,-80.12 167.62,-80.12 167.62,-60.88 341.88,-60.88 341.88,-80.12"/>
<text text-anchor="middle" x="254.75" y="-66.62" font-family="Helvetica,sans-Serif" font-size="10.00">include/materials/CammiModerator.h</text>
</a>
</g>
</g>
<!-- Node2&#45;&gt;Node5 -->
<g id="edge4_Node000002_Node000005" class="edge">
<title>Node2&#45;&gt;Node5</title>
<g id="a_edge4_Node000002_Node000005"><a xlink:title=" ">
<path fill="none" stroke="#63b8ff" d="M374.28,-117.39C342.73,-105.28 302.99,-90.02 278.22,-80.51"/>
<polygon fill="#63b8ff" stroke="#63b8ff" points="372.63,-120.5 383.22,-120.82 375.13,-113.97 372.63,-120.5"/>
</a>
</g>
</g>
<!-- Node7 -->
<g id="Node000007" class="node">
<title>Node7</title>
<g id="a_Node000007"><a xlink:href="_rodded_material_8h.html" target="_top" xlink:title=" ">
<polygon fill="white" stroke="#666666" points="485.5,-85.75 360,-85.75 360,-55.25 485.5,-55.25 485.5,-85.75"/>
<text text-anchor="start" x="368" y="-72.25" font-family="Helvetica,sans-Serif" font-size="10.00">include/materials/Rodded</text>
<text text-anchor="middle" x="422.75" y="-61" font-family="Helvetica,sans-Serif" font-size="10.00">Material.h</text>
</a>
</g>
</g>
<!-- Node2&#45;&gt;Node7 -->
<g id="edge6_Node000002_Node000007" class="edge">
<title>Node2&#45;&gt;Node7</title>
<g id="a_edge6_Node000002_Node000007"><a xlink:title=" ">
<path fill="none" stroke="#63b8ff" d="M422.75,-110.06C422.75,-101.89 422.75,-93.16 422.75,-86.08"/>
<polygon fill="#63b8ff" stroke="#63b8ff" points="419.25,-109.85 422.75,-119.85 426.25,-109.85 419.25,-109.85"/>
</a>
</g>
</g>
<!-- Node9 -->
<g id="Node000009" class="node">
<title>Node9</title>
<g id="a_Node000009"><a xlink:href="_generic_moltres_material_8_c.html" target="_top" xlink:title=" ">
<polygon fill="white" stroke="#666666" points="644.38,-85.75 503.12,-85.75 503.12,-55.25 644.38,-55.25 644.38,-85.75"/>
<text text-anchor="start" x="511.12" y="-72.25" font-family="Helvetica,sans-Serif" font-size="10.00">src/materials/GenericMoltres</text>
<text text-anchor="middle" x="573.75" y="-61" font-family="Helvetica,sans-Serif" font-size="10.00">Material.C</text>
</a>
</g>
</g>
<!-- Node2&#45;&gt;Node9 -->
<g id="edge8_Node000002_Node000009" class="edge">
<title>Node2&#45;&gt;Node9</title>
<g id="a_edge8_Node000002_Node000009"><a xlink:title=" ">
<path fill="none" stroke="#63b8ff" d="M467.54,-116.87C490.52,-107.05 518.08,-95.28 539.36,-86.19"/>
<polygon fill="#63b8ff" stroke="#63b8ff" points="466.23,-113.62 458.41,-120.77 468.98,-120.06 466.23,-113.62"/>
</a>
</g>
</g>
<!-- Node4 -->
<g id="Node000004" class="node">
<title>Node4</title>
<g id="a_Node000004"><a xlink:href="_cammi_fuel_8_c.html" target="_top" xlink:title=" ">
<polygon fill="white" stroke="#666666" points="141.62,-19.25 7.88,-19.25 7.88,0 141.62,0 141.62,-19.25"/>
<text text-anchor="middle" x="74.75" y="-5.75" font-family="Helvetica,sans-Serif" font-size="10.00">src/materials/CammiFuel.C</text>
</a>
</g>
</g>
<!-- Node3&#45;&gt;Node4 -->
<g id="edge3_Node000003_Node000004" class="edge">
<title>Node3&#45;&gt;Node4</title>
<g id="a_edge3_Node000003_Node000004"><a xlink:title=" ">
<path fill="none" stroke="#63b8ff" d="M74.75,-49.07C74.75,-39.04 74.75,-27.46 74.75,-19.65"/>
<polygon fill="#63b8ff" stroke="#63b8ff" points="71.25,-49.04 74.75,-59.04 78.25,-49.04 71.25,-49.04"/>
</a>
</g>
</g>
<!-- Node6 -->
<g id="Node000006" class="node">
<title>Node6</title>
<g id="a_Node000006"><a xlink:href="_cammi_moderator_8_c.html" target="_top" xlink:title=" ">
<polygon fill="white" stroke="#666666" points="331,-19.25 172.5,-19.25 172.5,0 331,0 331,-19.25"/>
<text text-anchor="middle" x="251.75" y="-5.75" font-family="Helvetica,sans-Serif" font-size="10.00">src/materials/CammiModerator.C</text>
</a>
</g>
</g>
<!-- Node5&#45;&gt;Node6 -->
<g id="edge5_Node000005_Node000006" class="edge">
<title>Node5&#45;&gt;Node6</title>
<g id="a_edge5_Node000005_Node000006"><a xlink:title=" ">
<path fill="none" stroke="#63b8ff" d="M253.71,-49.07C253.2,-39.04 252.61,-27.46 252.21,-19.65"/>
<polygon fill="#63b8ff" stroke="#63b8ff" points="250.21,-49.24 254.22,-59.05 257.2,-48.88 250.21,-49.24"/>
</a>
</g>
</g>
<!-- Node8 -->
<g id="Node000008" class="node">
<title>Node8</title>
<g id="a_Node000008"><a xlink:href="_rodded_material_8_c.html" target="_top" xlink:title=" ">
<polygon fill="white" stroke="#666666" points="500.62,-19.25 348.88,-19.25 348.88,0 500.62,0 500.62,-19.25"/>
<text text-anchor="middle" x="424.75" y="-5.75" font-family="Helvetica,sans-Serif" font-size="10.00">src/materials/RoddedMaterial.C</text>
</a>
</g>
</g>
<!-- Node7&#45;&gt;Node8 -->
<g id="edge7_Node000007_Node000008" class="edge">
<title>Node7&#45;&gt;Node8</title>
<g id="a_edge7_Node000007_Node000008"><a xlink:title=" ">
<path fill="none" stroke="#63b8ff" d="M423.63,-43.48C423.92,-34.98 424.22,-26.09 424.44,-19.7"/>
<polygon fill="#63b8ff" stroke="#63b8ff" points="420.14,-43.32 423.3,-53.43 427.13,-43.56 420.14,-43.32"/>
</a>
</g>
</g>
<!-- Node11 -->
<g id="Node000011" class="node">
<title>Node11</title>
<g id="a_Node000011"><a xlink:href="_moltres_json_material_8_c.html" target="_top" xlink:title=" ">
<polygon fill="white" stroke="#666666" points="791,-85.75 662.5,-85.75 662.5,-55.25 791,-55.25 791,-85.75"/>
<text text-anchor="start" x="670.5" y="-72.25" font-family="Helvetica,sans-Serif" font-size="10.00">src/materials/MoltresJson</text>
<text text-anchor="middle" x="726.75" y="-61" font-family="Helvetica,sans-Serif" font-size="10.00">Material.C</text>
</a>
</g>
</g>
<!-- Node10&#45;&gt;Node11 -->
<g id="edge10_Node000010_Node000011" class="edge">
<title>Node10&#45;&gt;Node11</title>
<g id="a_edge10_Node000010_Node000011"><a xlink:title=" ">
<path fill="none" stroke="#63b8ff" d="M673.7,-114.27C685.22,-104.98 698.35,-94.4 708.67,-86.08"/>
<polygon fill="#63b8ff" stroke="#63b8ff" points="671.67,-111.41 666.08,-120.41 676.06,-116.86 671.67,-111.41"/>
</a>
</g>
</g>
</g>
</svg>

<g id="navigator" transform="translate(0 0)" fill="#404254">
  <rect fill="#f2f5e9" fill-opacity="0.5" stroke="#606060" stroke-width=".5" x="0" y="0" width="60" height="60"/>
  <use id="zoomplus" xlink:href="#zoomPlus" x="17" y="9" onmousedown="handleZoom(evt,'in')"/>
  <use id="zoomminus" xlink:href="#zoomMin" x="42" y="9" onmousedown="handleZoom(evt,'out')"/>
  <use id="reset" xlink:href="#resetDef" x="30" y="36" onmousedown="handleReset()"/>
   <use id="arrowup" xlink:href="#arrowUp" x="0" y="0" onmousedown="handlePan(0,-1)"/>
  <use id="arrowright" xlink:href="#arrowRight" x="0" y="0" onmousedown="handlePan(1,0)"/>
  <use id="arrowdown" xlink:href="#arrowDown" x="0" y="0" onmousedown="handlePan(0,1)"/>
  <use id="arrowleft" xlink:href="#arrowLeft" x="0" y="0" onmousedown="handlePan(-1,0)"/>
</g>
<svg viewBox="0 0 15 15" width="100%" height="30px" preserveAspectRatio="xMaxYMin meet">
 <g id="arrow_out" transform="scale(0.3 0.3)">
  <a xlink:href="_nuclear_material_8h__dep__incl_org.svg" target="_base">
   <rect id="button" ry="5" rx="5" y="6" x="6" height="38" width="38"
        fill="#f2f5e9" fill-opacity="0.5" stroke="#606060" stroke-width="1.0"/>
   <path id="arrow"
     d="M 11.500037,31.436501 C 11.940474,20.09759 22.043105,11.32322 32.158766,21.979434 L 37.068811,17.246167 C 37.068811,17.246167 37.088388,32 37.088388,32 L 22.160133,31.978069 C 22.160133,31.978069 26.997745,27.140456 26.997745,27.140456 C 18.528582,18.264221 13.291696,25.230495 11.500037,31.436501 z"
     style="fill:#404040;"/>
  </a>
 </g>
</svg>

<style type='text/css'>
<![CDATA[
[data-mouse-over-selected='false'] { opacity: 0.7; }
[data-mouse-over-selected='true']  { opacity: 1.0; }
]]>
</style>
<script type="application/ecmascript"><![CDATA[
document.addEventListener('DOMContentLoaded', (event) => {
  highlightEdges();
  highlightAdjacentNodes();
});
]]></script>
</svg>
