<?xml version="1.0" encoding="UTF-8" standalone="no"?>
<!DOCTYPE svg PUBLIC "-//W3C//DTD SVG 1.1//EN"
 "http://www.w3.org/Graphics/SVG/1.1/DTD/svg11.dtd">
<!-- Generated by graphviz version 2.49.3 (20211027.1534)
 -->
<!-- Title: include/materials/NuclearMaterial.h Pages: 1 -->
<svg width="763pt" height="95pt"
 viewBox="0.00 0.00 762.50 95.00" xmlns="http://www.w3.org/2000/svg" xmlns:xlink="http://www.w3.org/1999/xlink">
<g id="graph0" class="graph" transform="scale(1 1) rotate(0) translate(4 91)">
<title>include/materials/NuclearMaterial.h</title>
<polygon fill="white" stroke="transparent" points="-4,4 -4,-91 758.5,-91 758.5,4 -4,4"/>
<!-- Node1 -->
<g id="node1" class="node">
<title>Node1</title>
<g id="a_node1"><a xlink:title=" ">
<polygon fill="#bfbfbf" stroke="black" points="356,-56.5 356,-86.5 483,-86.5 483,-56.5 356,-56.5"/>
<text text-anchor="start" x="364" y="-74.5" font-family="Helvetica,sans-Serif" font-size="10.00">include/materials/Nuclear</text>
<text text-anchor="middle" x="419.5" y="-63.5" font-family="Helvetica,sans-Serif" font-size="10.00">Material.h</text>
</a>
</g>
</g>
<!-- Node2 -->
<g id="node2" class="node">
<title>Node2</title>
<g id="a_node2"><a xlink:title=" ">
<polygon fill="white" stroke="#bfbfbf" points="0,-0.5 0,-19.5 131,-19.5 131,-0.5 0,-0.5"/>
<text text-anchor="middle" x="65.5" y="-7.5" font-family="Helvetica,sans-Serif" font-size="10.00">GenericConstantMaterial.h</text>
</a>
</g>
</g>
<!-- Node1&#45;&gt;Node2 -->
<g id="edge1" class="edge">
<title>Node1&#45;&gt;Node2</title>
<path fill="none" stroke="midnightblue" d="M355.8,-59.79C290.61,-48.84 190.05,-31.93 126.04,-21.18"/>
<polygon fill="midnightblue" stroke="midnightblue" points="126.53,-17.71 116.09,-19.5 125.37,-24.61 126.53,-17.71"/>
</g>
<!-- Node3 -->
<g id="node3" class="node">
<title>Node3</title>
<g id="a_node3"><a xlink:title=" ">
<polygon fill="white" stroke="#bfbfbf" points="149.5,-0.5 149.5,-19.5 253.5,-19.5 253.5,-0.5 149.5,-0.5"/>
<text text-anchor="middle" x="201.5" y="-7.5" font-family="Helvetica,sans-Serif" font-size="10.00">SplineInterpolation.h</text>
</a>
</g>
</g>
<!-- Node1&#45;&gt;Node3 -->
<g id="edge2" class="edge">
<title>Node1&#45;&gt;Node3</title>
<path fill="none" stroke="midnightblue" d="M368.11,-56.47C329.85,-46.03 278.29,-31.96 242.71,-22.25"/>
<polygon fill="midnightblue" stroke="midnightblue" points="243.23,-18.76 232.67,-19.51 241.39,-25.52 243.23,-18.76"/>
</g>
<!-- Node4 -->
<g id="node4" class="node">
<title>Node4</title>
<g id="a_node4"><a xlink:title=" ">
<polygon fill="white" stroke="#bfbfbf" points="272,-0.5 272,-19.5 409,-19.5 409,-0.5 272,-0.5"/>
<text text-anchor="middle" x="340.5" y="-7.5" font-family="Helvetica,sans-Serif" font-size="10.00">BicubicSplineInterpolation.h</text>
</a>
</g>
</g>
<!-- Node1&#45;&gt;Node4 -->
<g id="edge3" class="edge">
<title>Node1&#45;&gt;Node4</title>
<path fill="none" stroke="midnightblue" d="M400.78,-56.4C388.59,-47.22 372.71,-35.26 360.31,-25.92"/>
<polygon fill="midnightblue" stroke="midnightblue" points="362.09,-22.88 352,-19.66 357.88,-28.47 362.09,-22.88"/>
</g>
<!-- Node5 -->
<g id="node5" class="node">
<title>Node5</title>
<g id="a_node5"><a xlink:title=" ">
<polygon fill="white" stroke="#bfbfbf" points="427,-0.5 427,-19.5 572,-19.5 572,-0.5 427,-0.5"/>
<text text-anchor="middle" x="499.5" y="-7.5" font-family="Helvetica,sans-Serif" font-size="10.00">MonotoneCubicInterpolation.h</text>
</a>
</g>
</g>
<!-- Node1&#45;&gt;Node5 -->
<g id="edge4" class="edge">
<title>Node1&#45;&gt;Node5</title>
<path fill="none" stroke="midnightblue" d="M438.46,-56.4C450.92,-47.13 467.2,-35.03 479.81,-25.65"/>
<polygon fill="midnightblue" stroke="midnightblue" points="481.92,-28.43 487.86,-19.66 477.75,-22.82 481.92,-28.43"/>
</g>
<!-- Node6 -->
<g id="node6" class="node">
<title>Node6</title>
<g id="a_node6"><a xlink:title=" ">
<polygon fill="white" stroke="#bfbfbf" points="590.5,-0.5 590.5,-19.5 694.5,-19.5 694.5,-0.5 590.5,-0.5"/>
<text text-anchor="middle" x="642.5" y="-7.5" font-family="Helvetica,sans-Serif" font-size="10.00">LinearInterpolation.h</text>
</a>
</g>
</g>
<!-- Node1&#45;&gt;Node6 -->
<g id="edge5" class="edge">
<title>Node1&#45;&gt;Node6</title>
<path fill="none" stroke="midnightblue" d="M472.07,-56.47C511.38,-45.99 564.41,-31.84 600.82,-22.12"/>
<polygon fill="midnightblue" stroke="midnightblue" points="601.86,-25.47 610.62,-19.51 600.05,-18.7 601.86,-25.47"/>
</g>
<!-- Node7 -->
<g id="node7" class="node">
<title>Node7</title>
<g id="a_node7"><a xlink:title=" ">
<polygon fill="white" stroke="#bfbfbf" points="712.5,-0.5 712.5,-19.5 754.5,-19.5 754.5,-0.5 712.5,-0.5"/>
<text text-anchor="middle" x="733.5" y="-7.5" font-family="Helvetica,sans-Serif" font-size="10.00">json.h</text>
</a>
</g>
</g>
<!-- Node1&#45;&gt;Node7 -->
<g id="edge6" class="edge">
<title>Node1&#45;&gt;Node7</title>
<path fill="none" stroke="midnightblue" d="M483.1,-61.34C538.68,-52.85 621.68,-39 702.44,-20.04"/>
<polygon fill="midnightblue" stroke="midnightblue" points="703.36,-23.41 712.28,-17.7 701.74,-16.6 703.36,-23.41"/>
</g>
</g>
</svg>
