<?xml version="1.0" encoding="UTF-8" standalone="no"?>
<!DOCTYPE svg PUBLIC "-//W3C//DTD SVG 1.1//EN"
 "http://www.w3.org/Graphics/SVG/1.1/DTD/svg11.dtd">
<!-- Generated by graphviz version 7.0.5 (20221223.1930)
 -->
<!-- Title: include/materials/NuclearMaterial.h Pages: 1 -->
<svg width="892pt" height="225pt"
 viewBox="0.00 0.00 891.50 225.00" xmlns="http://www.w3.org/2000/svg" xmlns:xlink="http://www.w3.org/1999/xlink">
<g id="graph0" class="graph" transform="scale(1 1) rotate(0) translate(4 221)">
<title>include/materials/NuclearMaterial.h</title>
<!-- Node1 -->
<g id="node1" class="node">
<title>Node1</title>
<g id="a_node1"><a xlink:title=" ">
<polygon fill="#999999" stroke="#666666" points="713.5,-217 586.5,-217 586.5,-187 713.5,-187 713.5,-217"/>
<text text-anchor="start" x="594.5" y="-205" font-family="Helvetica,sans-Serif" font-size="10.00">include/materials/Nuclear</text>
<text text-anchor="middle" x="650" y="-194" font-family="Helvetica,sans-Serif" font-size="10.00">Material.h</text>
</a>
</g>
</g>
<!-- Node2 -->
<g id="node2" class="node">
<title>Node2</title>
<g id="a_node2"><a xlink:href="_generic_moltres_material_8h.html" target="_top" xlink:title=" ">
<polygon fill="white" stroke="#666666" points="488.5,-151 361.5,-151 361.5,-121 488.5,-121 488.5,-151"/>
<text text-anchor="start" x="369.5" y="-139" font-family="Helvetica,sans-Serif" font-size="10.00">include/materials/Generic</text>
<text text-anchor="middle" x="425" y="-128" font-family="Helvetica,sans-Serif" font-size="10.00">MoltresMaterial.h</text>
</a>
</g>
</g>
<!-- Node1&#45;&gt;Node2 -->
<g id="edge1" class="edge">
<title>Node1&#45;&gt;Node2</title>
<path fill="none" stroke="#63b8ff" d="M588.52,-183.51C553.06,-173.43 509.03,-160.9 475.59,-151.39"/>
<polygon fill="#63b8ff" stroke="#63b8ff" points="587.19,-186.77 597.77,-186.14 589.11,-180.04 587.19,-186.77"/>
</g>
<!-- Node10 -->
<g id="node10" class="node">
<title>Node10</title>
<g id="a_node10"><a xlink:href="_moltres_json_material_8h.html" target="_top" xlink:title=" ">
<polygon fill="white" stroke="#666666" points="712.5,-151 587.5,-151 587.5,-121 712.5,-121 712.5,-151"/>
<text text-anchor="start" x="595.5" y="-139" font-family="Helvetica,sans-Serif" font-size="10.00">include/materials/Moltres</text>
<text text-anchor="middle" x="650" y="-128" font-family="Helvetica,sans-Serif" font-size="10.00">JsonMaterial.h</text>
</a>
</g>
</g>
<!-- Node1&#45;&gt;Node10 -->
<g id="edge9" class="edge">
<title>Node1&#45;&gt;Node10</title>
<path fill="none" stroke="#63b8ff" d="M650,-175.39C650,-167.13 650,-158.28 650,-151.16"/>
<polygon fill="#63b8ff" stroke="#63b8ff" points="646.5,-175.28 650,-185.28 653.5,-175.28 646.5,-175.28"/>
</g>
<!-- Node12 -->
<g id="node12" class="node">
<title>Node12</title>
<g id="a_node12"><a xlink:href="_nuclear_material_8_c.html" target="_top" xlink:title=" ">
<polygon fill="white" stroke="#666666" points="883.5,-145.5 730.5,-145.5 730.5,-126.5 883.5,-126.5 883.5,-145.5"/>
<text text-anchor="middle" x="807" y="-133.5" font-family="Helvetica,sans-Serif" font-size="10.00">src/materials/NuclearMaterial.C</text>
</a>
</g>
</g>
<!-- Node1&#45;&gt;Node12 -->
<g id="edge11" class="edge">
<title>Node1&#45;&gt;Node12</title>
<path fill="none" stroke="#63b8ff" d="M695.68,-182.38C725.05,-170.41 761.9,-155.38 784.96,-145.99"/>
<polygon fill="#63b8ff" stroke="#63b8ff" points="694.57,-179.05 686.64,-186.07 697.22,-185.53 694.57,-179.05"/>
</g>
<!-- Node3 -->
<g id="node3" class="node">
<title>Node3</title>
<g id="a_node3"><a xlink:href="_cammi_fuel_8h.html" target="_top" xlink:title=" ">
<polygon fill="white" stroke="#666666" points="150,-79.5 0,-79.5 0,-60.5 150,-60.5 150,-79.5"/>
<text text-anchor="middle" x="75" y="-67.5" font-family="Helvetica,sans-Serif" font-size="10.00">include/materials/CammiFuel.h</text>
</a>
</g>
</g>
<!-- Node2&#45;&gt;Node3 -->
<g id="edge2" class="edge">
<title>Node2&#45;&gt;Node3</title>
<path fill="none" stroke="#63b8ff" d="M350.09,-121.3C281.74,-108.8 182.69,-90.69 123.97,-79.95"/>
<polygon fill="#63b8ff" stroke="#63b8ff" points="349.26,-124.71 359.72,-123.06 350.52,-117.82 349.26,-124.71"/>
</g>
<!-- Node5 -->
<g id="node5" class="node">
<title>Node5</title>
<g id="a_node5"><a xlink:href="_cammi_moderator_8h.html" target="_top" xlink:title=" ">
<polygon fill="white" stroke="#666666" points="343.5,-79.5 168.5,-79.5 168.5,-60.5 343.5,-60.5 343.5,-79.5"/>
<text text-anchor="middle" x="256" y="-67.5" font-family="Helvetica,sans-Serif" font-size="10.00">include/materials/CammiModerator.h</text>
</a>
</g>
</g>
<!-- Node2&#45;&gt;Node5 -->
<g id="edge4" class="edge">
<title>Node2&#45;&gt;Node5</title>
<path fill="none" stroke="#63b8ff" d="M376.66,-116.69C344.91,-104.67 304.76,-89.47 279.73,-79.99"/>
<polygon fill="#63b8ff" stroke="#63b8ff" points="375.07,-119.83 385.66,-120.1 377.55,-113.29 375.07,-119.83"/>
</g>
<!-- Node7 -->
<g id="node7" class="node">
<title>Node7</title>
<g id="a_node7"><a xlink:href="_rodded_material_8h.html" target="_top" xlink:title=" ">
<polygon fill="white" stroke="#666666" points="488,-85 362,-85 362,-55 488,-55 488,-85"/>
<text text-anchor="start" x="370" y="-73" font-family="Helvetica,sans-Serif" font-size="10.00">include/materials/Rodded</text>
<text text-anchor="middle" x="425" y="-62" font-family="Helvetica,sans-Serif" font-size="10.00">Material.h</text>
</a>
</g>
</g>
<!-- Node2&#45;&gt;Node7 -->
<g id="edge6" class="edge">
<title>Node2&#45;&gt;Node7</title>
<path fill="none" stroke="#63b8ff" d="M425,-109.39C425,-101.13 425,-92.28 425,-85.16"/>
<polygon fill="#63b8ff" stroke="#63b8ff" points="421.5,-109.28 425,-119.28 428.5,-109.28 421.5,-109.28"/>
</g>
<!-- Node9 -->
<g id="node9" class="node">
<title>Node9</title>
<g id="a_node9"><a xlink:href="_generic_moltres_material_8_c.html" target="_top" xlink:title=" ">
<polygon fill="white" stroke="#666666" points="648,-85 506,-85 506,-55 648,-55 648,-85"/>
<text text-anchor="start" x="514" y="-73" font-family="Helvetica,sans-Serif" font-size="10.00">src/materials/GenericMoltres</text>
<text text-anchor="middle" x="577" y="-62" font-family="Helvetica,sans-Serif" font-size="10.00">Material.C</text>
</a>
</g>
</g>
<!-- Node2&#45;&gt;Node9 -->
<g id="edge8" class="edge">
<title>Node2&#45;&gt;Node9</title>
<path fill="none" stroke="#63b8ff" d="M469.47,-116.27C492.86,-106.43 521.08,-94.55 542.74,-85.43"/>
<polygon fill="#63b8ff" stroke="#63b8ff" points="468.36,-112.94 460.51,-120.05 471.08,-119.39 468.36,-112.94"/>
</g>
<!-- Node4 -->
<g id="node4" class="node">
<title>Node4</title>
<g id="a_node4"><a xlink:href="_cammi_fuel_8_c.html" target="_top" xlink:title=" ">
<polygon fill="white" stroke="#666666" points="142,-19 8,-19 8,0 142,0 142,-19"/>
<text text-anchor="middle" x="75" y="-7" font-family="Helvetica,sans-Serif" font-size="10.00">src/materials/CammiFuel.C</text>
</a>
</g>
</g>
<!-- Node3&#45;&gt;Node4 -->
<g id="edge3" class="edge">
<title>Node3&#45;&gt;Node4</title>
<path fill="none" stroke="#63b8ff" d="M75,-49.16C75,-38.95 75,-27.04 75,-19.17"/>
<polygon fill="#63b8ff" stroke="#63b8ff" points="71.5,-48.85 75,-58.85 78.5,-48.85 71.5,-48.85"/>
</g>
<!-- Node6 -->
<g id="node6" class="node">
<title>Node6</title>
<g id="a_node6"><a xlink:href="_cammi_moderator_8_c.html" target="_top" xlink:title=" ">
<polygon fill="white" stroke="#666666" points="332.5,-19 173.5,-19 173.5,0 332.5,0 332.5,-19"/>
<text text-anchor="middle" x="253" y="-7" font-family="Helvetica,sans-Serif" font-size="10.00">src/materials/CammiModerator.C</text>
</a>
</g>
</g>
<!-- Node5&#45;&gt;Node6 -->
<g id="edge5" class="edge">
<title>Node5&#45;&gt;Node6</title>
<path fill="none" stroke="#63b8ff" d="M254.98,-49.16C254.46,-38.95 253.85,-27.04 253.44,-19.17"/>
<polygon fill="#63b8ff" stroke="#63b8ff" points="251.47,-49.05 255.48,-58.86 258.46,-48.69 251.47,-49.05"/>
</g>
<!-- Node8 -->
<g id="node8" class="node">
<title>Node8</title>
<g id="a_node8"><a xlink:href="_rodded_material_8_c.html" target="_top" xlink:title=" ">
<polygon fill="white" stroke="#666666" points="503,-19 351,-19 351,0 503,0 503,-19"/>
<text text-anchor="middle" x="427" y="-7" font-family="Helvetica,sans-Serif" font-size="10.00">src/materials/RoddedMaterial.C</text>
</a>
</g>
</g>
<!-- Node7&#45;&gt;Node8 -->
<g id="edge7" class="edge">
<title>Node7&#45;&gt;Node8</title>
<path fill="none" stroke="#63b8ff" d="M425.88,-43.3C426.17,-34.65 426.48,-25.58 426.7,-19.18"/>
<polygon fill="#63b8ff" stroke="#63b8ff" points="422.39,-42.91 425.55,-53.03 429.39,-43.15 422.39,-42.91"/>
</g>
<!-- Node11 -->
<g id="node11" class="node">
<title>Node11</title>
<g id="a_node11"><a xlink:href="_moltres_json_material_8_c.html" target="_top" xlink:title=" ">
<polygon fill="white" stroke="#666666" points="795.5,-85 666.5,-85 666.5,-55 795.5,-55 795.5,-85"/>
<text text-anchor="start" x="674.5" y="-73" font-family="Helvetica,sans-Serif" font-size="10.00">src/materials/MoltresJson</text>
<text text-anchor="middle" x="731" y="-62" font-family="Helvetica,sans-Serif" font-size="10.00">Material.C</text>
</a>
</g>
</g>
<!-- Node10&#45;&gt;Node11 -->
<g id="edge10" class="edge">
<title>Node10&#45;&gt;Node11</title>
<path fill="none" stroke="#63b8ff" d="M676.96,-113.7C688.73,-104.4 702.23,-93.73 712.79,-85.39"/>
<polygon fill="#63b8ff" stroke="#63b8ff" points="674.84,-110.91 669.16,-119.86 679.18,-116.4 674.84,-110.91"/>
</g>
</g>
</svg>
