<?xml version="1.0" encoding="UTF-8" standalone="no"?>
<!DOCTYPE svg PUBLIC "-//W3C//DTD SVG 1.1//EN"
 "http://www.w3.org/Graphics/SVG/1.1/DTD/svg11.dtd">
<!-- Generated by graphviz version 2.49.3 (20211027.1534)
 -->
<!-- Title: src/materials/NuclearMaterial.C Pages: 1 -->
<!--zoomable 140 -->
<svg id="main" version="1.1" xmlns="http://www.w3.org/2000/svg" xmlns:xlink="http://www.w3.org/1999/xlink" xml:space="preserve" onload="init(evt)">
<style type="text/css"><![CDATA[
.edge:hover path { stroke: red; }
.edge:hover polygon { stroke: red; fill: red; }
]]></style>
<script type="text/javascript"><![CDATA[
var edges = document.getElementsByTagName('g');
if (edges && edges.length) {
  for (var i=0;i<edges.length;i++) {
    if (edges[i].id.substr(0,4)=='edge') {
      edges[i].setAttribute('class','edge');
    }
  }
}
]]></script>
        <defs>
                <circle id="rim" cx="0" cy="0" r="7"/>
                <circle id="rim2" cx="0" cy="0" r="3.5"/>
                <g id="zoomPlus">
                        <use xlink:href="#rim" fill="#404040">
                                <set attributeName="fill" to="#808080" begin="zoomplus.mouseover" end="zoomplus.mouseout"/>
                        </use>
                        <path d="M-4,0h8M0,-4v8" fill="none" stroke="white" stroke-width="1.5" pointer-events="none"/>
                </g>
                <g id="zoomMin">
                        <use xlink:href="#rim" fill="#404040">
                                <set attributeName="fill" to="#808080" begin="zoomminus.mouseover" end="zoomminus.mouseout"/>
                        </use>
                        <path d="M-4,0h8" fill="none" stroke="white" stroke-width="1.5" pointer-events="none"/>
                </g>
                <g id="dirArrow">
                        <path fill="none" stroke="white" stroke-width="1.5" d="M0,-3.0v7 M-2.5,-0.5L0,-3.0L2.5,-0.5"/>
                </g>
               <g id="resetDef">
                       <use xlink:href="#rim2" fill="#404040">
                               <set attributeName="fill" to="#808080" begin="reset.mouseover" end="reset.mouseout"/>
                       </use>
               </g>
        </defs>

<script type="text/javascript">
var viewWidth = 763;
var viewHeight = 140;
var sectionId = 'dynsection-0';
</script>
<script xlink:href="svgpan.js"/>
<svg id="graph" class="graph">
<g id="viewport">
<title>src/materials/NuclearMaterial.C</title>
<polygon fill="white" stroke="transparent" points="-4,4 -4,-136 758.5,-136 758.5,4 -4,4"/>
<!-- Node1 -->
<g id="node1" class="node">
<title>Node1</title>
<g id="a_node1"><a xlink:title=" ">
<polygon fill="#bfbfbf" stroke="black" points="393,-112.5 393,-131.5 546,-131.5 546,-112.5 393,-112.5"/>
<text text-anchor="middle" x="469.5" y="-119.5" font-family="Helvetica,sans-Serif" font-size="10.00">src/materials/NuclearMaterial.C</text>
</a>
</g>
</g>
<!-- Node2 -->
<g id="node2" class="node">
<title>Node2</title>
<g id="a_node2"><a xlink:href="_nuclear_material_8h.html" target="_top" xlink:title=" ">
<polygon fill="white" stroke="black" points="373.5,-56.5 373.5,-75.5 465.5,-75.5 465.5,-56.5 373.5,-56.5"/>
<text text-anchor="middle" x="419.5" y="-63.5" font-family="Helvetica,sans-Serif" font-size="10.00">NuclearMaterial.h</text>
</a>
</g>
</g>
<!-- Node1&#45;&gt;Node2 -->
<g id="edge1" class="edge">
<title>Node1&#45;&gt;Node2</title>
<path fill="none" stroke="midnightblue" d="M461.24,-112.08C454.04,-104.3 443.39,-92.8 434.65,-83.37"/>
<polygon fill="midnightblue" stroke="midnightblue" points="436.97,-80.71 427.6,-75.75 431.83,-85.47 436.97,-80.71"/>
</g>
<!-- Node9 -->
<g id="node9" class="node">
<title>Node9</title>
<g id="a_node9"><a xlink:title=" ">
<polygon fill="white" stroke="#bfbfbf" points="483.5,-56.5 483.5,-75.5 557.5,-75.5 557.5,-56.5 483.5,-56.5"/>
<text text-anchor="middle" x="520.5" y="-63.5" font-family="Helvetica,sans-Serif" font-size="10.00">MooseUtils.h</text>
</a>
</g>
</g>
<!-- Node1&#45;&gt;Node9 -->
<g id="edge8" class="edge">
<title>Node1&#45;&gt;Node9</title>
<path fill="none" stroke="midnightblue" d="M477.92,-112.08C485.35,-104.22 496.35,-92.57 505.31,-83.08"/>
<polygon fill="midnightblue" stroke="midnightblue" points="507.91,-85.42 512.24,-75.75 502.82,-80.62 507.91,-85.42"/>
</g>
<!-- Node3 -->
<g id="node3" class="node">
<title>Node3</title>
<g id="a_node3"><a xlink:title=" ">
<polygon fill="white" stroke="#bfbfbf" points="0,-0.5 0,-19.5 131,-19.5 131,-0.5 0,-0.5"/>
<text text-anchor="middle" x="65.5" y="-7.5" font-family="Helvetica,sans-Serif" font-size="10.00">GenericConstantMaterial.h</text>
</a>
</g>
</g>
<!-- Node2&#45;&gt;Node3 -->
<g id="edge2" class="edge">
<title>Node2&#45;&gt;Node3</title>
<path fill="none" stroke="midnightblue" d="M373.22,-57.94C311.5,-48.53 201.88,-31.8 131.51,-21.07"/>
<polygon fill="midnightblue" stroke="midnightblue" points="131.83,-17.58 121.42,-19.53 130.78,-24.5 131.83,-17.58"/>
</g>
<!-- Node4 -->
<g id="node4" class="node">
<title>Node4</title>
<g id="a_node4"><a xlink:title=" ">
<polygon fill="white" stroke="#bfbfbf" points="149.5,-0.5 149.5,-19.5 253.5,-19.5 253.5,-0.5 149.5,-0.5"/>
<text text-anchor="middle" x="201.5" y="-7.5" font-family="Helvetica,sans-Serif" font-size="10.00">SplineInterpolation.h</text>
</a>
</g>
</g>
<!-- Node2&#45;&gt;Node4 -->
<g id="edge3" class="edge">
<title>Node2&#45;&gt;Node4</title>
<path fill="none" stroke="midnightblue" d="M384.96,-56.44C347.25,-47.1 286.76,-32.12 245.64,-21.93"/>
<polygon fill="midnightblue" stroke="midnightblue" points="246.43,-18.52 235.88,-19.52 244.75,-25.32 246.43,-18.52"/>
</g>
<!-- Node5 -->
<g id="node5" class="node">
<title>Node5</title>
<g id="a_node5"><a xlink:title=" ">
<polygon fill="white" stroke="#bfbfbf" points="272,-0.5 272,-19.5 409,-19.5 409,-0.5 272,-0.5"/>
<text text-anchor="middle" x="340.5" y="-7.5" font-family="Helvetica,sans-Serif" font-size="10.00">BicubicSplineInterpolation.h</text>
</a>
</g>
</g>
<!-- Node2&#45;&gt;Node5 -->
<g id="edge4" class="edge">
<title>Node2&#45;&gt;Node5</title>
<path fill="none" stroke="midnightblue" d="M406.81,-56.32C394.6,-47.98 375.92,-35.21 361.5,-25.35"/>
<polygon fill="midnightblue" stroke="midnightblue" points="363.39,-22.41 353.16,-19.65 359.44,-28.19 363.39,-22.41"/>
</g>
<!-- Node6 -->
<g id="node6" class="node">
<title>Node6</title>
<g id="a_node6"><a xlink:title=" ">
<polygon fill="white" stroke="#bfbfbf" points="427,-0.5 427,-19.5 572,-19.5 572,-0.5 427,-0.5"/>
<text text-anchor="middle" x="499.5" y="-7.5" font-family="Helvetica,sans-Serif" font-size="10.00">MonotoneCubicInterpolation.h</text>
</a>
</g>
</g>
<!-- Node2&#45;&gt;Node6 -->
<g id="edge5" class="edge">
<title>Node2&#45;&gt;Node6</title>
<path fill="none" stroke="midnightblue" d="M432.35,-56.32C444.72,-47.98 463.63,-35.21 478.24,-25.35"/>
<polygon fill="midnightblue" stroke="midnightblue" points="480.35,-28.15 486.68,-19.65 476.43,-22.35 480.35,-28.15"/>
</g>
<!-- Node7 -->
<g id="node7" class="node">
<title>Node7</title>
<g id="a_node7"><a xlink:title=" ">
<polygon fill="white" stroke="#bfbfbf" points="590.5,-0.5 590.5,-19.5 694.5,-19.5 694.5,-0.5 590.5,-0.5"/>
<text text-anchor="middle" x="642.5" y="-7.5" font-family="Helvetica,sans-Serif" font-size="10.00">LinearInterpolation.h</text>
</a>
</g>
</g>
<!-- Node2&#45;&gt;Node7 -->
<g id="edge6" class="edge">
<title>Node2&#45;&gt;Node7</title>
<path fill="none" stroke="midnightblue" d="M454.84,-56.44C493.41,-47.1 555.28,-32.12 597.35,-21.93"/>
<polygon fill="midnightblue" stroke="midnightblue" points="598.43,-25.27 607.33,-19.52 596.79,-18.47 598.43,-25.27"/>
</g>
<!-- Node8 -->
<g id="node8" class="node">
<title>Node8</title>
<g id="a_node8"><a xlink:title=" ">
<polygon fill="white" stroke="#bfbfbf" points="712.5,-0.5 712.5,-19.5 754.5,-19.5 754.5,-0.5 712.5,-0.5"/>
<text text-anchor="middle" x="733.5" y="-7.5" font-family="Helvetica,sans-Serif" font-size="10.00">json.h</text>
</a>
</g>
</g>
<!-- Node2&#45;&gt;Node8 -->
<g id="edge7" class="edge">
<title>Node2&#45;&gt;Node8</title>
<path fill="none" stroke="midnightblue" d="M465.71,-57.42C468.68,-56.94 471.63,-56.46 474.5,-56 573.05,-40.19 601.29,-42.68 702.28,-20.02"/>
<polygon fill="midnightblue" stroke="midnightblue" points="703.31,-23.38 712.29,-17.75 701.76,-16.55 703.31,-23.38"/>
</g>
</g>
</svg>
        <g id="navigator" transform="translate(0 0)" fill="#404254">
                <rect fill="#f2f5e9" fill-opacity="0.5" stroke="#606060" stroke-width=".5" x="0" y="0" width="60" height="60"/>
                <use id="zoomplus" xlink:href="#zoomPlus" x="17" y="9" onmousedown="handleZoom(evt,'in')"/>
                <use id="zoomminus" xlink:href="#zoomMin" x="42" y="9" onmousedown="handleZoom(evt,'out')"/>
                <use id="reset" xlink:href="#resetDef" x="30" y="36" onmousedown="handleReset()"/>
                <g id="arrowUp" xlink:href="#dirArrow" transform="translate(30 24)" onmousedown="handlePan(0,-1)">
                  <use xlink:href="#rim" fill="#404040">
                        <set attributeName="fill" to="#808080" begin="arrowUp.mouseover" end="arrowUp.mouseout"/>
                  </use>
                  <path fill="none" stroke="white" stroke-width="1.5" d="M0,-3.0v7 M-2.5,-0.5L0,-3.0L2.5,-0.5"/>
                </g>
                <g id="arrowRight" xlink:href="#dirArrow" transform="rotate(90) translate(36 -43)" onmousedown="handlePan(1,0)">
                  <use xlink:href="#rim" fill="#404040">
                        <set attributeName="fill" to="#808080" begin="arrowRight.mouseover" end="arrowRight.mouseout"/>
                  </use>
                  <path fill="none" stroke="white" stroke-width="1.5" d="M0,-3.0v7 M-2.5,-0.5L0,-3.0L2.5,-0.5"/>
                </g>
                <g id="arrowDown" xlink:href="#dirArrow" transform="rotate(180) translate(-30 -48)" onmousedown="handlePan(0,1)">
                  <use xlink:href="#rim" fill="#404040">
                        <set attributeName="fill" to="#808080" begin="arrowDown.mouseover" end="arrowDown.mouseout"/>
                  </use>
                  <path fill="none" stroke="white" stroke-width="1.5" d="M0,-3.0v7 M-2.5,-0.5L0,-3.0L2.5,-0.5"/>
                </g>
                <g id="arrowLeft" xlink:href="#dirArrow" transform="rotate(270) translate(-36 17)" onmousedown="handlePan(-1,0)">
                  <use xlink:href="#rim" fill="#404040">
                        <set attributeName="fill" to="#808080" begin="arrowLeft.mouseover" end="arrowLeft.mouseout"/>
                  </use>
                  <path fill="none" stroke="white" stroke-width="1.5" d="M0,-3.0v7 M-2.5,-0.5L0,-3.0L2.5,-0.5"/>
                </g>
        </g>
        <svg viewBox="0 0 15 15" width="100%" height="30px" preserveAspectRatio="xMaxYMin meet">
         <g id="arrow_out" transform="scale(0.3 0.3)">
          <a xlink:href="_nuclear_material_8_c__incl_org.svg" target="_base">
           <rect id="button" ry="5" rx="5" y="6" x="6" height="38" width="38"
                fill="#f2f5e9" fill-opacity="0.5" stroke="#606060" stroke-width="1.0"/>
           <path id="arrow"
             d="M 11.500037,31.436501 C 11.940474,20.09759 22.043105,11.32322 32.158766,21.979434 L 37.068811,17.246167 C 37.068811,17.246167 37.088388,32 37.088388,32 L 22.160133,31.978069 C 22.160133,31.978069 26.997745,27.140456 26.997745,27.140456 C 18.528582,18.264221 13.291696,25.230495 11.500037,31.436501 z"
             style="fill:#404040;"/>
          </a>
         </g>
        </svg>
</svg>
