<?xml version="1.0" encoding="UTF-8" standalone="no"?>
<!DOCTYPE svg PUBLIC "-//W3C//DTD SVG 1.1//EN"
 "http://www.w3.org/Graphics/SVG/1.1/DTD/svg11.dtd">
<!-- Generated by graphviz version 12.2.0 (20241103.1931)
 -->
<!-- Title: include/materials/NuclearMaterial.h Pages: 1 -->
<svg width="969pt" height="238pt"
 viewBox="0.00 0.00 969.00 238.00" xmlns="http://www.w3.org/2000/svg" xmlns:xlink="http://www.w3.org/1999/xlink">
<g id="graph0" class="graph" transform="scale(1 1) rotate(0) translate(4 234)">
<title>include/materials/NuclearMaterial.h</title>
<!-- Node1 -->
<g id="Node000001" class="node">
<title>Node1</title>
<g id="a_Node000001"><a xlink:title=" ">
<polygon fill="#999999" stroke="#666666" points="790.88,-230 664.62,-230 664.62,-199.5 790.88,-199.5 790.88,-230"/>
<text text-anchor="start" x="672.62" y="-216.5" font-family="Helvetica,sans-Serif" font-size="10.00">include/materials/Nuclear</text>
<text text-anchor="middle" x="727.75" y="-205.25" font-family="Helvetica,sans-Serif" font-size="10.00">Material.h</text>
</a>
</g>
</g>
<!-- Node2 -->
<g id="Node000002" class="node">
<title>Node2</title>
<g id="a_Node000002"><a xlink:href="_generic_moltres_material_8h.html" target="_top" xlink:title=" ">
<polygon fill="white" stroke="#666666" points="485.88,-163.5 359.62,-163.5 359.62,-133 485.88,-133 485.88,-163.5"/>
<text text-anchor="start" x="367.62" y="-150" font-family="Helvetica,sans-Serif" font-size="10.00">include/materials/Generic</text>
<text text-anchor="middle" x="422.75" y="-138.75" font-family="Helvetica,sans-Serif" font-size="10.00">MoltresMaterial.h</text>
</a>
</g>
</g>
<!-- Node1&#45;&gt;Node2 -->
<g id="edge1_Node000001_Node000002" class="edge">
<title>Node1&#45;&gt;Node2</title>
<g id="a_edge1_Node000001_Node000002"><a xlink:title=" ">
<path fill="none" stroke="#63b8ff" d="M653.19,-197.98C602.02,-187.16 534.85,-172.96 486.23,-162.68"/>
<polygon fill="#63b8ff" stroke="#63b8ff" points="652.19,-201.35 662.7,-199.99 653.64,-194.5 652.19,-201.35"/>
</a>
</g>
</g>
<!-- Node10 -->
<g id="Node000010" class="node">
<title>Node10</title>
<g id="a_Node000010"><a xlink:href="_moltres_json_material_8h.html" target="_top" xlink:title=" ">
<polygon fill="white" stroke="#666666" points="790.12,-163.5 665.38,-163.5 665.38,-133 790.12,-133 790.12,-163.5"/>
<text text-anchor="start" x="673.38" y="-150" font-family="Helvetica,sans-Serif" font-size="10.00">include/materials/Moltres</text>
<text text-anchor="middle" x="727.75" y="-138.75" font-family="Helvetica,sans-Serif" font-size="10.00">JsonMaterial.h</text>
</a>
</g>
</g>
<!-- Node1&#45;&gt;Node10 -->
<g id="edge9_Node000001_Node000010" class="edge">
<title>Node1&#45;&gt;Node10</title>
<g id="a_edge9_Node000001_Node000010"><a xlink:title=" ">
<path fill="none" stroke="#63b8ff" d="M727.75,-187.81C727.75,-179.64 727.75,-170.91 727.75,-163.83"/>
<polygon fill="#63b8ff" stroke="#63b8ff" points="724.25,-187.6 727.75,-197.6 731.25,-187.6 724.25,-187.6"/>
</a>
</g>
</g>
<!-- Node14 -->
<g id="Node000014" class="node">
<title>Node14</title>
<g id="a_Node000014"><a xlink:href="_nuclear_material_8_c.html" target="_top" xlink:title=" ">
<polygon fill="white" stroke="#666666" points="961,-157.88 808.5,-157.88 808.5,-138.62 961,-138.62 961,-157.88"/>
<text text-anchor="middle" x="884.75" y="-144.38" font-family="Helvetica,sans-Serif" font-size="10.00">src/materials/NuclearMaterial.C</text>
</a>
</g>
</g>
<!-- Node1&#45;&gt;Node14 -->
<g id="edge13_Node000001_Node000014" class="edge">
<title>Node1&#45;&gt;Node14</title>
<g id="a_edge13_Node000001_Node000014"><a xlink:title=" ">
<path fill="none" stroke="#63b8ff" d="M773.82,-194.82C803.18,-182.76 839.87,-167.69 862.82,-158.26"/>
<polygon fill="#63b8ff" stroke="#63b8ff" points="772.7,-191.5 764.78,-198.54 775.36,-197.98 772.7,-191.5"/>
</a>
</g>
</g>
<!-- Node3 -->
<g id="Node000003" class="node">
<title>Node3</title>
<g id="a_Node000003"><a xlink:href="_cammi_fuel_8h.html" target="_top" xlink:title=" ">
<polygon fill="white" stroke="#666666" points="149.5,-91.38 0,-91.38 0,-72.12 149.5,-72.12 149.5,-91.38"/>
<text text-anchor="middle" x="74.75" y="-77.88" font-family="Helvetica,sans-Serif" font-size="10.00">include/materials/CammiFuel.h</text>
</a>
</g>
</g>
<!-- Node2&#45;&gt;Node3 -->
<g id="edge2_Node000002_Node000003" class="edge">
<title>Node2&#45;&gt;Node3</title>
<g id="a_edge2_Node000002_Node000003"><a xlink:title=" ">
<path fill="none" stroke="#63b8ff" d="M348.3,-133.45C280.55,-120.89 182.43,-102.71 123.97,-91.87"/>
<polygon fill="#63b8ff" stroke="#63b8ff" points="347.37,-136.84 357.84,-135.22 348.64,-129.95 347.37,-136.84"/>
</a>
</g>
</g>
<!-- Node5 -->
<g id="Node000005" class="node">
<title>Node5</title>
<g id="a_Node000005"><a xlink:href="_cammi_moderator_8h.html" target="_top" xlink:title=" ">
<polygon fill="white" stroke="#666666" points="341.88,-91.38 167.62,-91.38 167.62,-72.12 341.88,-72.12 341.88,-91.38"/>
<text text-anchor="middle" x="254.75" y="-77.88" font-family="Helvetica,sans-Serif" font-size="10.00">include/materials/CammiModerator.h</text>
</a>
</g>
</g>
<!-- Node2&#45;&gt;Node5 -->
<g id="edge4_Node000002_Node000005" class="edge">
<title>Node2&#45;&gt;Node5</title>
<g id="a_edge4_Node000002_Node000005"><a xlink:title=" ">
<path fill="none" stroke="#63b8ff" d="M374.28,-128.64C342.73,-116.53 302.99,-101.27 278.22,-91.76"/>
<polygon fill="#63b8ff" stroke="#63b8ff" points="372.63,-131.75 383.22,-132.07 375.13,-125.22 372.63,-131.75"/>
</a>
</g>
</g>
<!-- Node7 -->
<g id="Node000007" class="node">
<title>Node7</title>
<g id="a_Node000007"><a xlink:href="_rodded_material_8h.html" target="_top" xlink:title=" ">
<polygon fill="white" stroke="#666666" points="485.5,-97 360,-97 360,-66.5 485.5,-66.5 485.5,-97"/>
<text text-anchor="start" x="368" y="-83.5" font-family="Helvetica,sans-Serif" font-size="10.00">include/materials/Rodded</text>
<text text-anchor="middle" x="422.75" y="-72.25" font-family="Helvetica,sans-Serif" font-size="10.00">Material.h</text>
</a>
</g>
</g>
<!-- Node2&#45;&gt;Node7 -->
<g id="edge6_Node000002_Node000007" class="edge">
<title>Node2&#45;&gt;Node7</title>
<g id="a_edge6_Node000002_Node000007"><a xlink:title=" ">
<path fill="none" stroke="#63b8ff" d="M422.75,-121.31C422.75,-113.14 422.75,-104.41 422.75,-97.33"/>
<polygon fill="#63b8ff" stroke="#63b8ff" points="419.25,-121.1 422.75,-131.1 426.25,-121.1 419.25,-121.1"/>
</a>
</g>
</g>
<!-- Node9 -->
<g id="Node000009" class="node">
<title>Node9</title>
<g id="a_Node000009"><a xlink:href="_generic_moltres_material_8_c.html" target="_top" xlink:title=" ">
<polygon fill="white" stroke="#666666" points="644.38,-97 503.12,-97 503.12,-66.5 644.38,-66.5 644.38,-97"/>
<text text-anchor="start" x="511.12" y="-83.5" font-family="Helvetica,sans-Serif" font-size="10.00">src/materials/GenericMoltres</text>
<text text-anchor="middle" x="573.75" y="-72.25" font-family="Helvetica,sans-Serif" font-size="10.00">Material.C</text>
</a>
</g>
</g>
<!-- Node2&#45;&gt;Node9 -->
<g id="edge8_Node000002_Node000009" class="edge">
<title>Node2&#45;&gt;Node9</title>
<g id="a_edge8_Node000002_Node000009"><a xlink:title=" ">
<path fill="none" stroke="#63b8ff" d="M467.54,-128.12C490.52,-118.3 518.08,-106.53 539.36,-97.44"/>
<polygon fill="#63b8ff" stroke="#63b8ff" points="466.23,-124.87 458.41,-132.02 468.98,-131.31 466.23,-124.87"/>
</a>
</g>
</g>
<!-- Node4 -->
<g id="Node000004" class="node">
<title>Node4</title>
<g id="a_Node000004"><a xlink:href="_cammi_fuel_8_c.html" target="_top" xlink:title=" ">
<polygon fill="white" stroke="#666666" points="141.62,-24.88 7.88,-24.88 7.88,-5.63 141.62,-5.63 141.62,-24.88"/>
<text text-anchor="middle" x="74.75" y="-11.38" font-family="Helvetica,sans-Serif" font-size="10.00">src/materials/CammiFuel.C</text>
</a>
</g>
</g>
<!-- Node3&#45;&gt;Node4 -->
<g id="edge3_Node000003_Node000004" class="edge">
<title>Node3&#45;&gt;Node4</title>
<g id="a_edge3_Node000003_Node000004"><a xlink:title=" ">
<path fill="none" stroke="#63b8ff" d="M74.75,-60.27C74.75,-48.44 74.75,-34.16 74.75,-25.14"/>
<polygon fill="#63b8ff" stroke="#63b8ff" points="71.25,-60.27 74.75,-70.27 78.25,-60.27 71.25,-60.27"/>
</a>
</g>
</g>
<!-- Node6 -->
<g id="Node000006" class="node">
<title>Node6</title>
<g id="a_Node000006"><a xlink:href="_cammi_moderator_8_c.html" target="_top" xlink:title=" ">
<polygon fill="white" stroke="#666666" points="331,-24.88 172.5,-24.88 172.5,-5.63 331,-5.63 331,-24.88"/>
<text text-anchor="middle" x="251.75" y="-11.38" font-family="Helvetica,sans-Serif" font-size="10.00">src/materials/CammiModerator.C</text>
</a>
</g>
</g>
<!-- Node5&#45;&gt;Node6 -->
<g id="edge5_Node000005_Node000006" class="edge">
<title>Node5&#45;&gt;Node6</title>
<g id="a_edge5_Node000005_Node000006"><a xlink:title=" ">
<path fill="none" stroke="#63b8ff" d="M253.82,-60.65C253.26,-48.75 252.59,-34.26 252.16,-25.14"/>
<polygon fill="#63b8ff" stroke="#63b8ff" points="250.3,-60.44 254.26,-70.27 257.29,-60.12 250.3,-60.44"/>
</a>
</g>
</g>
<!-- Node8 -->
<g id="Node000008" class="node">
<title>Node8</title>
<g id="a_Node000008"><a xlink:href="_rodded_material_8_c.html" target="_top" xlink:title=" ">
<polygon fill="white" stroke="#666666" points="500.62,-24.88 348.88,-24.88 348.88,-5.63 500.62,-5.63 500.62,-24.88"/>
<text text-anchor="middle" x="424.75" y="-11.38" font-family="Helvetica,sans-Serif" font-size="10.00">src/materials/RoddedMaterial.C</text>
</a>
</g>
</g>
<!-- Node7&#45;&gt;Node8 -->
<g id="edge7_Node000007_Node000008" class="edge">
<title>Node7&#45;&gt;Node8</title>
<g id="a_edge7_Node000007_Node000008"><a xlink:title=" ">
<path fill="none" stroke="#63b8ff" d="M423.55,-54.84C423.88,-44.26 424.24,-32.75 424.48,-25.07"/>
<polygon fill="#63b8ff" stroke="#63b8ff" points="420.06,-54.5 423.25,-64.6 427.06,-54.71 420.06,-54.5"/>
</a>
</g>
</g>
<!-- Node11 -->
<g id="Node000011" class="node">
<title>Node11</title>
<g id="a_Node000011"><a xlink:href="_diffusion_rod_material_8h.html" target="_top" xlink:title=" ">
<polygon fill="white" stroke="#666666" points="792.75,-97 662.75,-97 662.75,-66.5 792.75,-66.5 792.75,-97"/>
<text text-anchor="start" x="670.75" y="-83.5" font-family="Helvetica,sans-Serif" font-size="10.00">include/materials/Diffusion</text>
<text text-anchor="middle" x="727.75" y="-72.25" font-family="Helvetica,sans-Serif" font-size="10.00">RodMaterial.h</text>
</a>
</g>
</g>
<!-- Node10&#45;&gt;Node11 -->
<g id="edge10_Node000010_Node000011" class="edge">
<title>Node10&#45;&gt;Node11</title>
<g id="a_edge10_Node000010_Node000011"><a xlink:title=" ">
<path fill="none" stroke="#63b8ff" d="M727.75,-121.31C727.75,-113.14 727.75,-104.41 727.75,-97.33"/>
<polygon fill="#63b8ff" stroke="#63b8ff" points="724.25,-121.1 727.75,-131.1 731.25,-121.1 724.25,-121.1"/>
</a>
</g>
</g>
<!-- Node13 -->
<g id="Node000013" class="node">
<title>Node13</title>
<g id="a_Node000013"><a xlink:href="_moltres_json_material_8_c.html" target="_top" xlink:title=" ">
<polygon fill="white" stroke="#666666" points="939,-97 810.5,-97 810.5,-66.5 939,-66.5 939,-97"/>
<text text-anchor="start" x="818.5" y="-83.5" font-family="Helvetica,sans-Serif" font-size="10.00">src/materials/MoltresJson</text>
<text text-anchor="middle" x="874.75" y="-72.25" font-family="Helvetica,sans-Serif" font-size="10.00">Material.C</text>
</a>
</g>
</g>
<!-- Node10&#45;&gt;Node13 -->
<g id="edge12_Node000010_Node000013" class="edge">
<title>Node10&#45;&gt;Node13</title>
<g id="a_edge12_Node000010_Node000013"><a xlink:title=" ">
<path fill="none" stroke="#63b8ff" d="M771.36,-128.12C793.73,-118.3 820.55,-106.53 841.27,-97.44"/>
<polygon fill="#63b8ff" stroke="#63b8ff" points="770.24,-124.78 762.49,-132.01 773.06,-131.19 770.24,-124.78"/>
</a>
</g>
</g>
<!-- Node12 -->
<g id="Node000012" class="node">
<title>Node12</title>
<g id="a_Node000012"><a xlink:href="_diffusion_rod_material_8_c.html" target="_top" xlink:title=" ">
<polygon fill="white" stroke="#666666" points="792.75,-30.5 662.75,-30.5 662.75,0 792.75,0 792.75,-30.5"/>
<text text-anchor="start" x="670.75" y="-17" font-family="Helvetica,sans-Serif" font-size="10.00">src/materials/DiffusionRod</text>
<text text-anchor="middle" x="727.75" y="-5.75" font-family="Helvetica,sans-Serif" font-size="10.00">Material.C</text>
</a>
</g>
</g>
<!-- Node11&#45;&gt;Node12 -->
<g id="edge11_Node000011_Node000012" class="edge">
<title>Node11&#45;&gt;Node12</title>
<g id="a_edge11_Node000011_Node000012"><a xlink:title=" ">
<path fill="none" stroke="#63b8ff" d="M727.75,-54.81C727.75,-46.64 727.75,-37.91 727.75,-30.83"/>
<polygon fill="#63b8ff" stroke="#63b8ff" points="724.25,-54.6 727.75,-64.6 731.25,-54.6 724.25,-54.6"/>
</a>
</g>
</g>
</g>
</svg>
