<?xml version="1.0" encoding="UTF-8" standalone="no"?>
<!DOCTYPE svg PUBLIC "-//W3C//DTD SVG 1.1//EN"
 "http://www.w3.org/Graphics/SVG/1.1/DTD/svg11.dtd">
<!-- Generated by graphviz version 12.2.0 (20241103.1931)
 -->
<!-- Title: include/materials/Nusselt.h Pages: 1 -->
<svg width="342pt" height="83pt"
 viewBox="0.00 0.00 342.00 82.50" xmlns="http://www.w3.org/2000/svg" xmlns:xlink="http://www.w3.org/1999/xlink">
<g id="graph0" class="graph" transform="scale(1 1) rotate(0) translate(4 78.5)">
<title>include/materials/Nusselt.h</title>
<!-- Node1 -->
<g id="Node000001" class="node">
<title>Node1</title>
<g id="a_Node000001"><a xlink:title=" ">
<polygon fill="#999999" stroke="#666666" points="194.88,-74.5 61.12,-74.5 61.12,-55.25 194.88,-55.25 194.88,-74.5"/>
<text text-anchor="middle" x="128" y="-61" font-family="Helvetica,sans-Serif" font-size="10.00">include/materials/Nusselt.h</text>
</a>
</g>
</g>
<!-- Node2 -->
<g id="Node000002" class="node">
<title>Node2</title>
<g id="a_Node000002"><a xlink:title=" ">
<polygon fill="#e0e0e0" stroke="#999999" points="58,-19.25 0,-19.25 0,0 58,0 58,-19.25"/>
<text text-anchor="middle" x="29" y="-5.75" font-family="Helvetica,sans-Serif" font-size="10.00">Material.h</text>
</a>
</g>
</g>
<!-- Node1&#45;&gt;Node2 -->
<g id="edge1_Node000001_Node000002" class="edge">
<title>Node1&#45;&gt;Node2</title>
<g id="a_edge1_Node000001_Node000002"><a xlink:title=" ">
<path fill="none" stroke="#63b8ff" d="M111.21,-54.84C95.99,-46.66 73.3,-34.46 55.62,-24.94"/>
<polygon fill="#63b8ff" stroke="#63b8ff" points="57.67,-22.07 47.21,-20.42 54.36,-28.24 57.67,-22.07"/>
</a>
</g>
</g>
<!-- Node3 -->
<g id="Node000003" class="node">
<title>Node3</title>
<g id="a_Node000003"><a xlink:title=" ">
<polygon fill="#e0e0e0" stroke="#999999" points="179.88,-19.25 76.12,-19.25 76.12,0 179.88,0 179.88,-19.25"/>
<text text-anchor="middle" x="128" y="-5.75" font-family="Helvetica,sans-Serif" font-size="10.00">SplineInterpolation.h</text>
</a>
</g>
</g>
<!-- Node1&#45;&gt;Node3 -->
<g id="edge2_Node000001_Node000003" class="edge">
<title>Node1&#45;&gt;Node3</title>
<g id="a_edge2_Node000001_Node000003"><a xlink:title=" ">
<path fill="none" stroke="#63b8ff" d="M128,-55.08C128,-48.57 128,-39.42 128,-31.12"/>
<polygon fill="#63b8ff" stroke="#63b8ff" points="131.5,-31.12 128,-21.12 124.5,-31.12 131.5,-31.12"/>
</a>
</g>
</g>
<!-- Node4 -->
<g id="Node000004" class="node">
<title>Node4</title>
<g id="a_Node000004"><a xlink:title=" ">
<polygon fill="#e0e0e0" stroke="#999999" points="334,-19.25 198,-19.25 198,0 334,0 334,-19.25"/>
<text text-anchor="middle" x="266" y="-5.75" font-family="Helvetica,sans-Serif" font-size="10.00">BicubicSplineInterpolation.h</text>
</a>
</g>
</g>
<!-- Node1&#45;&gt;Node4 -->
<g id="edge3_Node000001_Node000004" class="edge">
<title>Node1&#45;&gt;Node4</title>
<g id="a_edge3_Node000001_Node000004"><a xlink:title=" ">
<path fill="none" stroke="#63b8ff" d="M151.41,-54.84C173.52,-46.31 206.92,-33.42 231.97,-23.76"/>
<polygon fill="#63b8ff" stroke="#63b8ff" points="232.99,-27.11 241.06,-20.25 230.47,-20.58 232.99,-27.11"/>
</a>
</g>
</g>
</g>
</svg>
