<?xml version="1.0" encoding="UTF-8" standalone="no"?>
<!DOCTYPE svg PUBLIC "-//W3C//DTD SVG 1.1//EN"
 "http://www.w3.org/Graphics/SVG/1.1/DTD/svg11.dtd">
<!-- Generated by graphviz version 7.0.4 (20221203.1631)
 -->
<!-- Title: src/bcs/PostprocessorCoupledInflowBC.C Pages: 1 -->
<svg width="169pt" height="148pt"
 viewBox="0.00 0.00 169.00 148.00" xmlns="http://www.w3.org/2000/svg" xmlns:xlink="http://www.w3.org/1999/xlink">
<g id="graph0" class="graph" transform="scale(1 1) rotate(0) translate(4 144)">
<title>src/bcs/PostprocessorCoupledInflowBC.C</title>
<!-- Node1 -->
<g id="node1" class="node">
<title>Node1</title>
<g id="a_node1"><a xlink:title=" ">
<polygon fill="#999999" stroke="#666666" points="155.5,-140 5.5,-140 5.5,-110 155.5,-110 155.5,-140"/>
<text text-anchor="start" x="13.5" y="-128" font-family="Helvetica,sans-Serif" font-size="10.00">src/bcs/PostprocessorCoupled</text>
<text text-anchor="middle" x="80.5" y="-117" font-family="Helvetica,sans-Serif" font-size="10.00">InflowBC.C</text>
</a>
</g>
</g>
<!-- Node2 -->
<g id="node2" class="node">
<title>Node2</title>
<g id="a_node2"><a xlink:href="_postprocessor_coupled_inflow_b_c_8h.html" target="_top" xlink:title=" ">
<polygon fill="white" stroke="#666666" points="161,-74 0,-74 0,-55 161,-55 161,-74"/>
<text text-anchor="middle" x="80.5" y="-62" font-family="Helvetica,sans-Serif" font-size="10.00">PostprocessorCoupledInflowBC.h</text>
</a>
</g>
</g>
<!-- Node1&#45;&gt;Node2 -->
<g id="edge1" class="edge">
<title>Node1&#45;&gt;Node2</title>
<path fill="none" stroke="#63b8ff" d="M80.5,-109.54C80.5,-102.34 80.5,-93.53 80.5,-85.68"/>
<polygon fill="#63b8ff" stroke="#63b8ff" points="84,-85.69 80.5,-75.69 77,-85.69 84,-85.69"/>
</g>
<!-- Node3 -->
<g id="node3" class="node">
<title>Node3</title>
<g id="a_node3"><a xlink:title=" ">
<polygon fill="#e0e0e0" stroke="#999999" points="121,-19 40,-19 40,0 121,0 121,-19"/>
<text text-anchor="middle" x="80.5" y="-7" font-family="Helvetica,sans-Serif" font-size="10.00">IntegratedBC.h</text>
</a>
</g>
</g>
<!-- Node2&#45;&gt;Node3 -->
<g id="edge2" class="edge">
<title>Node2&#45;&gt;Node3</title>
<path fill="none" stroke="#63b8ff" d="M80.5,-54.75C80.5,-48.27 80.5,-39.16 80.5,-30.9"/>
<polygon fill="#63b8ff" stroke="#63b8ff" points="84,-30.96 80.5,-20.96 77,-30.96 84,-30.96"/>
</g>
</g>
</svg>
