<?xml version="1.0" encoding="UTF-8" standalone="no"?>
<!DOCTYPE svg PUBLIC "-//W3C//DTD SVG 1.1//EN"
 "http://www.w3.org/Graphics/SVG/1.1/DTD/svg11.dtd">
<!-- Generated by graphviz version 7.0.4 (20221203.1631)
 -->
<!-- Title: src/materials/RoddedMaterial.C Pages: 1 -->
<svg width="763pt" height="247pt"
 viewBox="0.00 0.00 763.00 247.00" xmlns="http://www.w3.org/2000/svg" xmlns:xlink="http://www.w3.org/1999/xlink">
<g id="graph0" class="graph" transform="scale(1 1) rotate(0) translate(4 243)">
<title>src/materials/RoddedMaterial.C</title>
<!-- Node1 -->
<g id="node1" class="node">
<title>Node1</title>
<g id="a_node1"><a xlink:title=" ">
<polygon fill="#999999" stroke="#666666" points="563,-239 411,-239 411,-220 563,-220 563,-239"/>
<text text-anchor="middle" x="487" y="-227" font-family="Helvetica,sans-Serif" font-size="10.00">src/materials/RoddedMaterial.C</text>
</a>
</g>
</g>
<!-- Node2 -->
<g id="node2" class="node">
<title>Node2</title>
<g id="a_node2"><a xlink:href="_rodded_material_8h.html" target="_top" xlink:title=" ">
<polygon fill="white" stroke="#666666" points="483,-184 391,-184 391,-165 483,-165 483,-184"/>
<text text-anchor="middle" x="437" y="-172" font-family="Helvetica,sans-Serif" font-size="10.00">RoddedMaterial.h</text>
</a>
</g>
</g>
<!-- Node1&#45;&gt;Node2 -->
<g id="edge1" class="edge">
<title>Node1&#45;&gt;Node2</title>
<path fill="none" stroke="#63b8ff" d="M478.74,-219.75C471.84,-212.43 461.78,-201.76 453.26,-192.74"/>
<polygon fill="#63b8ff" stroke="#63b8ff" points="455.88,-190.42 446.47,-185.54 450.79,-195.22 455.88,-190.42"/>
</g>
<!-- Node12 -->
<g id="node12" class="node">
<title>Node12</title>
<g id="a_node12"><a xlink:title=" ">
<polygon fill="#e0e0e0" stroke="#999999" points="575,-184 501,-184 501,-165 575,-165 575,-184"/>
<text text-anchor="middle" x="538" y="-172" font-family="Helvetica,sans-Serif" font-size="10.00">MooseUtils.h</text>
</a>
</g>
</g>
<!-- Node1&#45;&gt;Node12 -->
<g id="edge15" class="edge">
<title>Node1&#45;&gt;Node12</title>
<path fill="none" stroke="#63b8ff" d="M495.42,-219.75C502.47,-212.43 512.73,-201.76 521.41,-192.74"/>
<polygon fill="#63b8ff" stroke="#63b8ff" points="523.93,-195.17 528.35,-185.53 518.89,-190.31 523.93,-195.17"/>
</g>
<!-- Node3 -->
<g id="node3" class="node">
<title>Node3</title>
<g id="a_node3"><a xlink:href="_generic_moltres_material_8h.html" target="_top" xlink:title=" ">
<polygon fill="white" stroke="#666666" points="441.5,-129 316.5,-129 316.5,-110 441.5,-110 441.5,-129"/>
<text text-anchor="middle" x="379" y="-117" font-family="Helvetica,sans-Serif" font-size="10.00">GenericMoltresMaterial.h</text>
</a>
</g>
</g>
<!-- Node2&#45;&gt;Node3 -->
<g id="edge2" class="edge">
<title>Node2&#45;&gt;Node3</title>
<path fill="none" stroke="#63b8ff" d="M427.16,-164.51C418.95,-157 407.02,-146.1 397.09,-137.03"/>
<polygon fill="#63b8ff" stroke="#63b8ff" points="399.55,-134.54 389.81,-130.38 394.83,-139.71 399.55,-134.54"/>
</g>
<!-- Node11 -->
<g id="node11" class="node">
<title>Node11</title>
<g id="a_node11"><a xlink:title=" ">
<polygon fill="#e0e0e0" stroke="#999999" points="532,-129 460,-129 460,-110 532,-110 532,-129"/>
<text text-anchor="middle" x="496" y="-117" font-family="Helvetica,sans-Serif" font-size="10.00">ODEKernel.h</text>
</a>
</g>
</g>
<!-- Node2&#45;&gt;Node11 -->
<g id="edge14" class="edge">
<title>Node2&#45;&gt;Node11</title>
<path fill="none" stroke="#63b8ff" d="M447.01,-164.51C455.37,-157 467.5,-146.1 477.6,-137.03"/>
<polygon fill="#63b8ff" stroke="#63b8ff" points="479.91,-139.66 485.01,-130.37 475.24,-134.45 479.91,-139.66"/>
</g>
<!-- Node4 -->
<g id="node4" class="node">
<title>Node4</title>
<g id="a_node4"><a xlink:href="_nuclear_material_8h.html" target="_top" xlink:title=" ">
<polygon fill="white" stroke="#666666" points="425,-74 333,-74 333,-55 425,-55 425,-74"/>
<text text-anchor="middle" x="379" y="-62" font-family="Helvetica,sans-Serif" font-size="10.00">NuclearMaterial.h</text>
</a>
</g>
</g>
<!-- Node3&#45;&gt;Node4 -->
<g id="edge3" class="edge">
<title>Node3&#45;&gt;Node4</title>
<path fill="none" stroke="#63b8ff" d="M379,-109.75C379,-103.27 379,-94.16 379,-85.9"/>
<polygon fill="#63b8ff" stroke="#63b8ff" points="382.5,-85.96 379,-75.96 375.5,-85.96 382.5,-85.96"/>
</g>
<!-- Node6 -->
<g id="node6" class="node">
<title>Node6</title>
<g id="a_node6"><a xlink:title=" ">
<polygon fill="#e0e0e0" stroke="#999999" points="104,-19 0,-19 0,0 104,0 104,-19"/>
<text text-anchor="middle" x="52" y="-7" font-family="Helvetica,sans-Serif" font-size="10.00">SplineInterpolation.h</text>
</a>
</g>
</g>
<!-- Node3&#45;&gt;Node6 -->
<g id="edge10" class="edge">
<title>Node3&#45;&gt;Node6</title>
<path fill="none" stroke="#63b8ff" d="M351.96,-109.57C293.81,-90.36 156.74,-45.09 89.93,-23.03"/>
<polygon fill="#63b8ff" stroke="#63b8ff" points="91.1,-19.73 80.51,-19.92 88.9,-26.37 91.1,-19.73"/>
</g>
<!-- Node7 -->
<g id="node7" class="node">
<title>Node7</title>
<g id="a_node7"><a xlink:title=" ">
<polygon fill="#e0e0e0" stroke="#999999" points="259.5,-19 122.5,-19 122.5,0 259.5,0 259.5,-19"/>
<text text-anchor="middle" x="191" y="-7" font-family="Helvetica,sans-Serif" font-size="10.00">BicubicSplineInterpolation.h</text>
</a>
</g>
</g>
<!-- Node3&#45;&gt;Node7 -->
<g id="edge11" class="edge">
<title>Node3&#45;&gt;Node7</title>
<path fill="none" stroke="#63b8ff" d="M363.62,-109.66C331.32,-91.11 256.19,-47.95 216.55,-25.18"/>
<polygon fill="#63b8ff" stroke="#63b8ff" points="218.32,-22.16 207.91,-20.21 214.84,-28.23 218.32,-22.16"/>
</g>
<!-- Node8 -->
<g id="node8" class="node">
<title>Node8</title>
<g id="a_node8"><a xlink:title=" ">
<polygon fill="#e0e0e0" stroke="#999999" points="632.5,-19 487.5,-19 487.5,0 632.5,0 632.5,-19"/>
<text text-anchor="middle" x="560" y="-7" font-family="Helvetica,sans-Serif" font-size="10.00">MonotoneCubicInterpolation.h</text>
</a>
</g>
</g>
<!-- Node3&#45;&gt;Node8 -->
<g id="edge12" class="edge">
<title>Node3&#45;&gt;Node8</title>
<path fill="none" stroke="#63b8ff" d="M393.81,-109.66C424.84,-91.15 496.93,-48.13 535.16,-25.32"/>
<polygon fill="#63b8ff" stroke="#63b8ff" points="536.89,-28.37 543.68,-20.24 533.3,-22.35 536.89,-28.37"/>
</g>
<!-- Node9 -->
<g id="node9" class="node">
<title>Node9</title>
<g id="a_node9"><a xlink:title=" ">
<polygon fill="#e0e0e0" stroke="#999999" points="755,-19 651,-19 651,0 755,0 755,-19"/>
<text text-anchor="middle" x="703" y="-7" font-family="Helvetica,sans-Serif" font-size="10.00">LinearInterpolation.h</text>
</a>
</g>
</g>
<!-- Node3&#45;&gt;Node9 -->
<g id="edge13" class="edge">
<title>Node3&#45;&gt;Node9</title>
<path fill="none" stroke="#63b8ff" d="M405.79,-109.57C463.41,-90.36 599.22,-45.09 665.42,-23.03"/>
<polygon fill="#63b8ff" stroke="#63b8ff" points="666.36,-26.4 674.74,-19.92 664.15,-19.76 666.36,-26.4"/>
</g>
<!-- Node5 -->
<g id="node5" class="node">
<title>Node5</title>
<g id="a_node5"><a xlink:title=" ">
<polygon fill="#e0e0e0" stroke="#999999" points="408.5,-19 277.5,-19 277.5,0 408.5,0 408.5,-19"/>
<text text-anchor="middle" x="343" y="-7" font-family="Helvetica,sans-Serif" font-size="10.00">GenericConstantMaterial.h</text>
</a>
</g>
</g>
<!-- Node4&#45;&gt;Node5 -->
<g id="edge4" class="edge">
<title>Node4&#45;&gt;Node5</title>
<path fill="none" stroke="#63b8ff" d="M373.06,-54.75C368.29,-47.73 361.44,-37.64 355.48,-28.87"/>
<polygon fill="#63b8ff" stroke="#63b8ff" points="358.44,-27 349.92,-20.69 352.65,-30.93 358.44,-27"/>
</g>
<!-- Node4&#45;&gt;Node6 -->
<g id="edge5" class="edge">
<title>Node4&#45;&gt;Node6</title>
<path fill="none" stroke="#63b8ff" d="M332.84,-56.02C276.04,-46.81 179.31,-31.13 115.53,-20.8"/>
<polygon fill="#63b8ff" stroke="#63b8ff" points="116.34,-17.38 105.9,-19.24 115.22,-24.29 116.34,-17.38"/>
</g>
<!-- Node4&#45;&gt;Node7 -->
<g id="edge6" class="edge">
<title>Node4&#45;&gt;Node7</title>
<path fill="none" stroke="#63b8ff" d="M347.11,-54.51C315.82,-45.69 267.91,-32.18 233.42,-22.46"/>
<polygon fill="#63b8ff" stroke="#63b8ff" points="234.77,-19.2 224.19,-19.86 232.87,-25.94 234.77,-19.2"/>
</g>
<!-- Node4&#45;&gt;Node8 -->
<g id="edge7" class="edge">
<title>Node4&#45;&gt;Node8</title>
<path fill="none" stroke="#63b8ff" d="M409.7,-54.51C439.7,-45.73 485.55,-32.3 518.73,-22.59"/>
<polygon fill="#63b8ff" stroke="#63b8ff" points="519.38,-26.04 528,-19.87 517.41,-19.32 519.38,-26.04"/>
</g>
<!-- Node4&#45;&gt;Node9 -->
<g id="edge8" class="edge">
<title>Node4&#45;&gt;Node9</title>
<path fill="none" stroke="#63b8ff" d="M425.42,-55.91C481.71,-46.7 576.84,-31.14 639.79,-20.84"/>
<polygon fill="#63b8ff" stroke="#63b8ff" points="639.96,-24.36 649.27,-19.29 638.83,-17.45 639.96,-24.36"/>
</g>
<!-- Node10 -->
<g id="node10" class="node">
<title>Node10</title>
<g id="a_node10"><a xlink:title=" ">
<polygon fill="#e0e0e0" stroke="#999999" points="469,-19 427,-19 427,0 469,0 469,-19"/>
<text text-anchor="middle" x="448" y="-7" font-family="Helvetica,sans-Serif" font-size="10.00">json.h</text>
</a>
</g>
</g>
<!-- Node4&#45;&gt;Node10 -->
<g id="edge9" class="edge">
<title>Node4&#45;&gt;Node10</title>
<path fill="none" stroke="#63b8ff" d="M390.7,-54.51C400.78,-46.77 415.54,-35.43 427.56,-26.2"/>
<polygon fill="#63b8ff" stroke="#63b8ff" points="429.47,-29.15 435.27,-20.28 425.21,-23.6 429.47,-29.15"/>
</g>
</g>
</svg>
