<?xml version="1.0" encoding="UTF-8" standalone="no"?>
<!DOCTYPE svg PUBLIC "-//W3C//DTD SVG 1.1//EN"
 "http://www.w3.org/Graphics/SVG/1.1/DTD/svg11.dtd">
<!-- Generated by graphviz version 2.49.3 (20211027.1534)
 -->
<!-- Title: include/materials/RoddedMaterial.h Pages: 1 -->
<svg width="763pt" height="207pt"
 viewBox="0.00 0.00 763.00 207.00" xmlns="http://www.w3.org/2000/svg" xmlns:xlink="http://www.w3.org/1999/xlink">
<g id="graph0" class="graph" transform="scale(1 1) rotate(0) translate(4 203)">
<title>include/materials/RoddedMaterial.h</title>
<polygon fill="white" stroke="transparent" points="-4,4 -4,-203 759,-203 759,4 -4,4"/>
<!-- Node1 -->
<g id="node1" class="node">
<title>Node1</title>
<g id="a_node1"><a xlink:title=" ">
<polygon fill="#bfbfbf" stroke="black" points="374,-168.5 374,-198.5 500,-198.5 500,-168.5 374,-168.5"/>
<text text-anchor="start" x="382" y="-186.5" font-family="Helvetica,sans-Serif" font-size="10.00">include/materials/Rodded</text>
<text text-anchor="middle" x="437" y="-175.5" font-family="Helvetica,sans-Serif" font-size="10.00">Material.h</text>
</a>
</g>
</g>
<!-- Node2 -->
<g id="node2" class="node">
<title>Node2</title>
<g id="a_node2"><a xlink:href="_generic_moltres_material_8h.html" target="_top" xlink:title=" ">
<polygon fill="white" stroke="black" points="316.5,-112.5 316.5,-131.5 441.5,-131.5 441.5,-112.5 316.5,-112.5"/>
<text text-anchor="middle" x="379" y="-119.5" font-family="Helvetica,sans-Serif" font-size="10.00">GenericMoltresMaterial.h</text>
</a>
</g>
</g>
<!-- Node1&#45;&gt;Node2 -->
<g id="edge1" class="edge">
<title>Node1&#45;&gt;Node2</title>
<path fill="none" stroke="midnightblue" d="M423.25,-168.4C414.65,-159.58 403.55,-148.18 394.61,-139.02"/>
<polygon fill="midnightblue" stroke="midnightblue" points="396.93,-136.38 387.44,-131.66 391.91,-141.26 396.93,-136.38"/>
</g>
<!-- Node10 -->
<g id="node10" class="node">
<title>Node10</title>
<g id="a_node10"><a xlink:title=" ">
<polygon fill="white" stroke="#bfbfbf" points="460,-112.5 460,-131.5 532,-131.5 532,-112.5 460,-112.5"/>
<text text-anchor="middle" x="496" y="-119.5" font-family="Helvetica,sans-Serif" font-size="10.00">ODEKernel.h</text>
</a>
</g>
</g>
<!-- Node1&#45;&gt;Node10 -->
<g id="edge13" class="edge">
<title>Node1&#45;&gt;Node10</title>
<path fill="none" stroke="midnightblue" d="M450.98,-168.4C459.73,-159.58 471.03,-148.18 480.12,-139.02"/>
<polygon fill="midnightblue" stroke="midnightblue" points="482.86,-141.22 487.41,-131.66 477.89,-136.29 482.86,-141.22"/>
</g>
<!-- Node3 -->
<g id="node3" class="node">
<title>Node3</title>
<g id="a_node3"><a xlink:href="_nuclear_material_8h.html" target="_top" xlink:title=" ">
<polygon fill="white" stroke="black" points="333,-56.5 333,-75.5 425,-75.5 425,-56.5 333,-56.5"/>
<text text-anchor="middle" x="379" y="-63.5" font-family="Helvetica,sans-Serif" font-size="10.00">NuclearMaterial.h</text>
</a>
</g>
</g>
<!-- Node2&#45;&gt;Node3 -->
<g id="edge2" class="edge">
<title>Node2&#45;&gt;Node3</title>
<path fill="none" stroke="midnightblue" d="M379,-112.08C379,-105.01 379,-94.86 379,-85.99"/>
<polygon fill="midnightblue" stroke="midnightblue" points="382.5,-85.75 379,-75.75 375.5,-85.75 382.5,-85.75"/>
</g>
<!-- Node5 -->
<g id="node5" class="node">
<title>Node5</title>
<g id="a_node5"><a xlink:title=" ">
<polygon fill="white" stroke="#bfbfbf" points="0,-0.5 0,-19.5 104,-19.5 104,-0.5 0,-0.5"/>
<text text-anchor="middle" x="52" y="-7.5" font-family="Helvetica,sans-Serif" font-size="10.00">SplineInterpolation.h</text>
</a>
</g>
</g>
<!-- Node2&#45;&gt;Node5 -->
<g id="edge9" class="edge">
<title>Node2&#45;&gt;Node5</title>
<path fill="none" stroke="midnightblue" d="M353.61,-112.46C295.66,-92.97 153.55,-45.16 87.19,-22.84"/>
<polygon fill="midnightblue" stroke="midnightblue" points="88.19,-19.48 77.6,-19.61 85.96,-26.12 88.19,-19.48"/>
</g>
<!-- Node6 -->
<g id="node6" class="node">
<title>Node6</title>
<g id="a_node6"><a xlink:title=" ">
<polygon fill="white" stroke="#bfbfbf" points="122.5,-0.5 122.5,-19.5 259.5,-19.5 259.5,-0.5 122.5,-0.5"/>
<text text-anchor="middle" x="191" y="-7.5" font-family="Helvetica,sans-Serif" font-size="10.00">BicubicSplineInterpolation.h</text>
</a>
</g>
</g>
<!-- Node2&#45;&gt;Node6 -->
<g id="edge10" class="edge">
<title>Node2&#45;&gt;Node6</title>
<path fill="none" stroke="midnightblue" d="M364.25,-112.37C331.71,-93.33 253.58,-47.62 214.33,-24.65"/>
<polygon fill="midnightblue" stroke="midnightblue" points="216.08,-21.62 205.68,-19.59 212.55,-27.66 216.08,-21.62"/>
</g>
<!-- Node7 -->
<g id="node7" class="node">
<title>Node7</title>
<g id="a_node7"><a xlink:title=" ">
<polygon fill="white" stroke="#bfbfbf" points="487.5,-0.5 487.5,-19.5 632.5,-19.5 632.5,-0.5 487.5,-0.5"/>
<text text-anchor="middle" x="560" y="-7.5" font-family="Helvetica,sans-Serif" font-size="10.00">MonotoneCubicInterpolation.h</text>
</a>
</g>
</g>
<!-- Node2&#45;&gt;Node7 -->
<g id="edge11" class="edge">
<title>Node2&#45;&gt;Node7</title>
<path fill="none" stroke="midnightblue" d="M393.2,-112.37C424.39,-93.41 499.12,-48 537.06,-24.94"/>
<polygon fill="midnightblue" stroke="midnightblue" points="539.14,-27.78 545.86,-19.59 535.5,-21.79 539.14,-27.78"/>
</g>
<!-- Node8 -->
<g id="node8" class="node">
<title>Node8</title>
<g id="a_node8"><a xlink:title=" ">
<polygon fill="white" stroke="#bfbfbf" points="651,-0.5 651,-19.5 755,-19.5 755,-0.5 651,-0.5"/>
<text text-anchor="middle" x="703" y="-7.5" font-family="Helvetica,sans-Serif" font-size="10.00">LinearInterpolation.h</text>
</a>
</g>
</g>
<!-- Node2&#45;&gt;Node8 -->
<g id="edge12" class="edge">
<title>Node2&#45;&gt;Node8</title>
<path fill="none" stroke="midnightblue" d="M404.15,-112.46C461.57,-92.97 602.39,-45.16 668.13,-22.84"/>
<polygon fill="midnightblue" stroke="midnightblue" points="669.29,-26.14 677.64,-19.61 667.04,-19.51 669.29,-26.14"/>
</g>
<!-- Node4 -->
<g id="node4" class="node">
<title>Node4</title>
<g id="a_node4"><a xlink:title=" ">
<polygon fill="white" stroke="#bfbfbf" points="277.5,-0.5 277.5,-19.5 408.5,-19.5 408.5,-0.5 277.5,-0.5"/>
<text text-anchor="middle" x="343" y="-7.5" font-family="Helvetica,sans-Serif" font-size="10.00">GenericConstantMaterial.h</text>
</a>
</g>
</g>
<!-- Node3&#45;&gt;Node4 -->
<g id="edge3" class="edge">
<title>Node3&#45;&gt;Node4</title>
<path fill="none" stroke="midnightblue" d="M373.06,-56.08C368.02,-48.53 360.66,-37.49 354.49,-28.23"/>
<polygon fill="midnightblue" stroke="midnightblue" points="357.29,-26.13 348.83,-19.75 351.47,-30.01 357.29,-26.13"/>
</g>
<!-- Node3&#45;&gt;Node5 -->
<g id="edge4" class="edge">
<title>Node3&#45;&gt;Node5</title>
<path fill="none" stroke="midnightblue" d="M332.84,-57.38C275.44,-47.9 177.25,-31.68 113.51,-21.16"/>
<polygon fill="midnightblue" stroke="midnightblue" points="114.02,-17.69 103.58,-19.52 112.88,-24.6 114.02,-17.69"/>
</g>
<!-- Node3&#45;&gt;Node6 -->
<g id="edge5" class="edge">
<title>Node3&#45;&gt;Node6</title>
<path fill="none" stroke="midnightblue" d="M349.21,-56.44C317.17,-47.24 266.07,-32.56 230.65,-22.39"/>
<polygon fill="midnightblue" stroke="midnightblue" points="231.23,-18.91 220.65,-19.52 229.29,-25.64 231.23,-18.91"/>
</g>
<!-- Node3&#45;&gt;Node7 -->
<g id="edge6" class="edge">
<title>Node3&#45;&gt;Node7</title>
<path fill="none" stroke="midnightblue" d="M407.68,-56.44C438.53,-47.24 487.73,-32.56 521.83,-22.39"/>
<polygon fill="midnightblue" stroke="midnightblue" points="522.87,-25.73 531.45,-19.52 520.87,-19.02 522.87,-25.73"/>
</g>
<!-- Node3&#45;&gt;Node8 -->
<g id="edge7" class="edge">
<title>Node3&#45;&gt;Node8</title>
<path fill="none" stroke="midnightblue" d="M425.08,-57.32C481.84,-47.86 578.48,-31.75 641.53,-21.24"/>
<polygon fill="midnightblue" stroke="midnightblue" points="642.45,-24.64 651.74,-19.54 641.3,-17.74 642.45,-24.64"/>
</g>
<!-- Node9 -->
<g id="node9" class="node">
<title>Node9</title>
<g id="a_node9"><a xlink:title=" ">
<polygon fill="white" stroke="#bfbfbf" points="427,-0.5 427,-19.5 469,-19.5 469,-0.5 427,-0.5"/>
<text text-anchor="middle" x="448" y="-7.5" font-family="Helvetica,sans-Serif" font-size="10.00">json.h</text>
</a>
</g>
</g>
<!-- Node3&#45;&gt;Node9 -->
<g id="edge8" class="edge">
<title>Node3&#45;&gt;Node9</title>
<path fill="none" stroke="midnightblue" d="M390.09,-56.32C400.49,-48.18 416.26,-35.84 428.72,-26.09"/>
<polygon fill="midnightblue" stroke="midnightblue" points="430.99,-28.75 436.71,-19.83 426.68,-23.24 430.99,-28.75"/>
</g>
</g>
</svg>
