<?xml version="1.0" encoding="UTF-8" standalone="no"?>
<!DOCTYPE svg PUBLIC "-//W3C//DTD SVG 1.1//EN"
 "http://www.w3.org/Graphics/SVG/1.1/DTD/svg11.dtd">
<!-- Generated by graphviz version 12.2.0 (20241103.1931)
 -->
<!-- Title: include/materials/SATauStabilized3Eqn.h Pages: 1 -->
<svg width="241pt" height="149pt"
 viewBox="0.00 0.00 240.62 149.00" xmlns="http://www.w3.org/2000/svg" xmlns:xlink="http://www.w3.org/1999/xlink">
<g id="graph0" class="graph" transform="scale(1 1) rotate(0) translate(4 145)">
<title>include/materials/SATauStabilized3Eqn.h</title>
<!-- Node1 -->
<g id="Node000001" class="node">
<title>Node1</title>
<g id="a_Node000001"><a xlink:title=" ">
<polygon fill="#999999" stroke="#666666" points="197.5,-141 27.75,-141 27.75,-110.5 197.5,-110.5 197.5,-141"/>
<text text-anchor="start" x="35.75" y="-127.5" font-family="Helvetica,sans-Serif" font-size="10.00">include/materials/SATauStabilized3</text>
<text text-anchor="middle" x="112.62" y="-116.25" font-family="Helvetica,sans-Serif" font-size="10.00">Eqn.h</text>
</a>
</g>
</g>
<!-- Node2 -->
<g id="Node000002" class="node">
<title>Node2</title>
<g id="a_Node000002"><a xlink:href="_s_a_tau_material_8h.html" target="_top" xlink:title=" ">
<polygon fill="white" stroke="#666666" points="96.62,-74.5 8.62,-74.5 8.62,-55.25 96.62,-55.25 96.62,-74.5"/>
<text text-anchor="middle" x="52.62" y="-61" font-family="Helvetica,sans-Serif" font-size="10.00">SATauMaterial.h</text>
</a>
</g>
</g>
<!-- Node1&#45;&gt;Node2 -->
<g id="edge1_Node000001_Node000002" class="edge">
<title>Node1&#45;&gt;Node2</title>
<g id="a_edge1_Node000001_Node000002"><a xlink:title=" ">
<path fill="none" stroke="#63b8ff" d="M97.79,-110.2C89.36,-101.92 78.76,-91.52 69.94,-82.87"/>
<polygon fill="#63b8ff" stroke="#63b8ff" points="72.54,-80.52 62.95,-76.01 67.64,-85.51 72.54,-80.52"/>
</a>
</g>
</g>
<!-- Node4 -->
<g id="Node000004" class="node">
<title>Node4</title>
<g id="a_Node000004"><a xlink:title=" ">
<polygon fill="#e0e0e0" stroke="#999999" points="232.62,-74.5 114.62,-74.5 114.62,-55.25 232.62,-55.25 232.62,-74.5"/>
<text text-anchor="middle" x="173.62" y="-61" font-family="Helvetica,sans-Serif" font-size="10.00">INSADStabilized3Eqn.h</text>
</a>
</g>
</g>
<!-- Node1&#45;&gt;Node4 -->
<g id="edge3_Node000001_Node000004" class="edge">
<title>Node1&#45;&gt;Node4</title>
<g id="a_edge3_Node000001_Node000004"><a xlink:title=" ">
<path fill="none" stroke="#63b8ff" d="M127.7,-110.2C136.28,-101.92 147.06,-91.52 156.02,-82.87"/>
<polygon fill="#63b8ff" stroke="#63b8ff" points="158.37,-85.47 163.13,-76 153.51,-80.43 158.37,-85.47"/>
</a>
</g>
</g>
<!-- Node3 -->
<g id="Node000003" class="node">
<title>Node3</title>
<g id="a_Node000003"><a xlink:title=" ">
<polygon fill="#e0e0e0" stroke="#999999" points="105.25,-19.25 0,-19.25 0,0 105.25,0 105.25,-19.25"/>
<text text-anchor="middle" x="52.62" y="-5.75" font-family="Helvetica,sans-Serif" font-size="10.00">INSADTauMaterial.h</text>
</a>
</g>
</g>
<!-- Node2&#45;&gt;Node3 -->
<g id="edge2_Node000002_Node000003" class="edge">
<title>Node2&#45;&gt;Node3</title>
<g id="a_edge2_Node000002_Node000003"><a xlink:title=" ">
<path fill="none" stroke="#63b8ff" d="M52.62,-55.08C52.62,-48.57 52.62,-39.42 52.62,-31.12"/>
<polygon fill="#63b8ff" stroke="#63b8ff" points="56.13,-31.12 52.63,-21.12 49.13,-31.12 56.13,-31.12"/>
</a>
</g>
</g>
</g>
</svg>
