<?xml version="1.0" encoding="UTF-8" standalone="no"?>
<!DOCTYPE svg PUBLIC "-//W3C//DTD SVG 1.1//EN"
 "http://www.w3.org/Graphics/SVG/1.1/DTD/svg11.dtd">
<!-- Generated by graphviz version 9.0.0 (20230911.1827)
 -->
<!-- Title: src/kernels/SATurbulentViscosity.C Pages: 1 -->
<svg width="178pt" height="138pt"
 viewBox="0.00 0.00 177.75 137.75" xmlns="http://www.w3.org/2000/svg" xmlns:xlink="http://www.w3.org/1999/xlink">
<g id="graph0" class="graph" transform="scale(1 1) rotate(0) translate(4 133.75)">
<title>src/kernels/SATurbulentViscosity.C</title>
<!-- Node1 -->
<g id="Node000001" class="node">
<title>Node1</title>
<g id="a_Node000001"><a xlink:title=" ">
<polygon fill="#999999" stroke="#666666" points="169.75,-129.75 0,-129.75 0,-110.5 169.75,-110.5 169.75,-129.75"/>
<text text-anchor="middle" x="84.88" y="-116.25" font-family="Helvetica,sans-Serif" font-size="10.00">src/kernels/SATurbulentViscosity.C</text>
</a>
</g>
</g>
<!-- Node2 -->
<g id="Node000002" class="node">
<title>Node2</title>
<g id="a_Node000002"><a xlink:href="_s_a_turbulent_viscosity_8h.html" target="_top" xlink:title=" ">
<polygon fill="white" stroke="#666666" points="143.5,-74.5 26.25,-74.5 26.25,-55.25 143.5,-55.25 143.5,-74.5"/>
<text text-anchor="middle" x="84.88" y="-61" font-family="Helvetica,sans-Serif" font-size="10.00">SATurbulentViscosity.h</text>
</a>
</g>
</g>
<!-- Node1&#45;&gt;Node2 -->
<g id="edge1_Node000001_Node000002" class="edge">
<title>Node1&#45;&gt;Node2</title>
<g id="a_edge1_Node000001_Node000002"><a xlink:title=" ">
<path fill="none" stroke="#63b8ff" d="M84.88,-110.33C84.88,-103.82 84.88,-94.67 84.88,-86.37"/>
<polygon fill="#63b8ff" stroke="#63b8ff" points="88.38,-86.37 84.88,-76.37 81.38,-86.37 88.38,-86.37"/>
</a>
</g>
</g>
<!-- Node3 -->
<g id="Node000003" class="node">
<title>Node3</title>
<g id="a_Node000003"><a xlink:title=" ">
<polygon fill="#e0e0e0" stroke="#999999" points="117.25,-19.25 52.5,-19.25 52.5,0 117.25,0 117.25,-19.25"/>
<text text-anchor="middle" x="84.88" y="-5.75" font-family="Helvetica,sans-Serif" font-size="10.00">ADKernel.h</text>
</a>
</g>
</g>
<!-- Node2&#45;&gt;Node3 -->
<g id="edge2_Node000002_Node000003" class="edge">
<title>Node2&#45;&gt;Node3</title>
<g id="a_edge2_Node000002_Node000003"><a xlink:title=" ">
<path fill="none" stroke="#63b8ff" d="M84.88,-55.08C84.88,-48.57 84.88,-39.42 84.88,-31.12"/>
<polygon fill="#63b8ff" stroke="#63b8ff" points="88.38,-31.12 84.88,-21.12 81.38,-31.12 88.38,-31.12"/>
</a>
</g>
</g>
</g>
</svg>
