<?xml version="1.0" encoding="UTF-8" standalone="no"?>
<!DOCTYPE svg PUBLIC "-//W3C//DTD SVG 1.1//EN"
 "http://www.w3.org/Graphics/SVG/1.1/DTD/svg11.dtd">
<!-- Generated by graphviz version 9.0.0 (20230911.1827)
 -->
<!-- Title: src/materials/SATauStabilized3Eqn.C Pages: 1 -->
<svg width="241pt" height="204pt"
 viewBox="0.00 0.00 240.62 204.25" xmlns="http://www.w3.org/2000/svg" xmlns:xlink="http://www.w3.org/1999/xlink">
<g id="graph0" class="graph" transform="scale(1 1) rotate(0) translate(4 200.25)">
<title>src/materials/SATauStabilized3Eqn.C</title>
<!-- Node1 -->
<g id="Node000001" class="node">
<title>Node1</title>
<g id="a_Node000001"><a xlink:title=" ">
<polygon fill="#999999" stroke="#666666" points="188.88,-196.25 36.38,-196.25 36.38,-165.75 188.88,-165.75 188.88,-196.25"/>
<text text-anchor="start" x="44.38" y="-182.75" font-family="Helvetica,sans-Serif" font-size="10.00">src/materials/SATauStabilized3</text>
<text text-anchor="middle" x="112.62" y="-171.5" font-family="Helvetica,sans-Serif" font-size="10.00">Eqn.C</text>
</a>
</g>
</g>
<!-- Node2 -->
<g id="Node000002" class="node">
<title>Node2</title>
<g id="a_Node000002"><a xlink:href="_s_a_tau_stabilized3_eqn_8h.html" target="_top" xlink:title=" ">
<polygon fill="white" stroke="#666666" points="171.25,-129.75 54,-129.75 54,-110.5 171.25,-110.5 171.25,-129.75"/>
<text text-anchor="middle" x="112.62" y="-116.25" font-family="Helvetica,sans-Serif" font-size="10.00">SATauStabilized3Eqn.h</text>
</a>
</g>
</g>
<!-- Node1&#45;&gt;Node2 -->
<g id="edge1_Node000001_Node000002" class="edge">
<title>Node1&#45;&gt;Node2</title>
<g id="a_edge1_Node000001_Node000002"><a xlink:title=" ">
<path fill="none" stroke="#63b8ff" d="M112.62,-165.45C112.62,-158.21 112.62,-149.34 112.62,-141.44"/>
<polygon fill="#63b8ff" stroke="#63b8ff" points="116.13,-141.71 112.63,-131.71 109.13,-141.71 116.13,-141.71"/>
</a>
</g>
</g>
<!-- Node3 -->
<g id="Node000003" class="node">
<title>Node3</title>
<g id="a_Node000003"><a xlink:href="_s_a_tau_material_8h.html" target="_top" xlink:title=" ">
<polygon fill="white" stroke="#666666" points="96.62,-74.5 8.62,-74.5 8.62,-55.25 96.62,-55.25 96.62,-74.5"/>
<text text-anchor="middle" x="52.62" y="-61" font-family="Helvetica,sans-Serif" font-size="10.00">SATauMaterial.h</text>
</a>
</g>
</g>
<!-- Node2&#45;&gt;Node3 -->
<g id="edge2_Node000002_Node000003" class="edge">
<title>Node2&#45;&gt;Node3</title>
<g id="a_edge2_Node000002_Node000003"><a xlink:title=" ">
<path fill="none" stroke="#63b8ff" d="M102.45,-110.09C93.86,-102.47 81.36,-91.37 71.02,-82.2"/>
<polygon fill="#63b8ff" stroke="#63b8ff" points="73.59,-79.8 63.78,-75.78 68.94,-85.04 73.59,-79.8"/>
</a>
</g>
</g>
<!-- Node5 -->
<g id="Node000005" class="node">
<title>Node5</title>
<g id="a_Node000005"><a xlink:title=" ">
<polygon fill="#e0e0e0" stroke="#999999" points="232.62,-74.5 114.62,-74.5 114.62,-55.25 232.62,-55.25 232.62,-74.5"/>
<text text-anchor="middle" x="173.62" y="-61" font-family="Helvetica,sans-Serif" font-size="10.00">INSADStabilized3Eqn.h</text>
</a>
</g>
</g>
<!-- Node2&#45;&gt;Node5 -->
<g id="edge4_Node000002_Node000005" class="edge">
<title>Node2&#45;&gt;Node5</title>
<g id="a_edge4_Node000002_Node000005"><a xlink:title=" ">
<path fill="none" stroke="#63b8ff" d="M122.97,-110.09C131.7,-102.47 144.41,-91.37 154.92,-82.2"/>
<polygon fill="#63b8ff" stroke="#63b8ff" points="157.06,-84.98 162.29,-75.77 152.45,-79.71 157.06,-84.98"/>
</a>
</g>
</g>
<!-- Node4 -->
<g id="Node000004" class="node">
<title>Node4</title>
<g id="a_Node000004"><a xlink:title=" ">
<polygon fill="#e0e0e0" stroke="#999999" points="105.25,-19.25 0,-19.25 0,0 105.25,0 105.25,-19.25"/>
<text text-anchor="middle" x="52.62" y="-5.75" font-family="Helvetica,sans-Serif" font-size="10.00">INSADTauMaterial.h</text>
</a>
</g>
</g>
<!-- Node3&#45;&gt;Node4 -->
<g id="edge3_Node000003_Node000004" class="edge">
<title>Node3&#45;&gt;Node4</title>
<g id="a_edge3_Node000003_Node000004"><a xlink:title=" ">
<path fill="none" stroke="#63b8ff" d="M52.62,-55.08C52.62,-48.57 52.62,-39.42 52.62,-31.12"/>
<polygon fill="#63b8ff" stroke="#63b8ff" points="56.13,-31.12 52.63,-21.12 49.13,-31.12 56.13,-31.12"/>
</a>
</g>
</g>
</g>
</svg>
