<?xml version="1.0" encoding="UTF-8" standalone="no"?>
<!DOCTYPE svg PUBLIC "-//W3C//DTD SVG 1.1//EN"
 "http://www.w3.org/Graphics/SVG/1.1/DTD/svg11.dtd">
<!-- Generated by graphviz version 12.2.0 (20241103.1931)
 -->
<!-- Title: src/kernels/SATurbulentViscositySUPG.C Pages: 1 -->
<svg width="169pt" height="149pt"
 viewBox="0.00 0.00 168.75 149.00" xmlns="http://www.w3.org/2000/svg" xmlns:xlink="http://www.w3.org/1999/xlink">
<g id="graph0" class="graph" transform="scale(1 1) rotate(0) translate(4 145)">
<title>src/kernels/SATurbulentViscositySUPG.C</title>
<!-- Node1 -->
<g id="Node000001" class="node">
<title>Node1</title>
<g id="a_Node000001"><a xlink:title=" ">
<polygon fill="#999999" stroke="#666666" points="160.75,-141 0,-141 0,-110.5 160.75,-110.5 160.75,-141"/>
<text text-anchor="start" x="8" y="-127.5" font-family="Helvetica,sans-Serif" font-size="10.00">src/kernels/SATurbulentViscosity</text>
<text text-anchor="middle" x="80.38" y="-116.25" font-family="Helvetica,sans-Serif" font-size="10.00">SUPG.C</text>
</a>
</g>
</g>
<!-- Node2 -->
<g id="Node000002" class="node">
<title>Node2</title>
<g id="a_Node000002"><a xlink:href="_s_a_turbulent_viscosity_s_u_p_g_8h.html" target="_top" xlink:title=" ">
<polygon fill="white" stroke="#666666" points="153.25,-74.5 7.5,-74.5 7.5,-55.25 153.25,-55.25 153.25,-74.5"/>
<text text-anchor="middle" x="80.38" y="-61" font-family="Helvetica,sans-Serif" font-size="10.00">SATurbulentViscositySUPG.h</text>
</a>
</g>
</g>
<!-- Node1&#45;&gt;Node2 -->
<g id="edge1_Node000001_Node000002" class="edge">
<title>Node1&#45;&gt;Node2</title>
<g id="a_edge1_Node000001_Node000002"><a xlink:title=" ">
<path fill="none" stroke="#63b8ff" d="M80.38,-110.2C80.38,-102.96 80.38,-94.09 80.38,-86.19"/>
<polygon fill="#63b8ff" stroke="#63b8ff" points="83.88,-86.46 80.38,-76.46 76.88,-86.46 83.88,-86.46"/>
</a>
</g>
</g>
<!-- Node3 -->
<g id="Node000003" class="node">
<title>Node3</title>
<g id="a_Node000003"><a xlink:title=" ">
<polygon fill="#e0e0e0" stroke="#999999" points="127,-19.25 33.75,-19.25 33.75,0 127,0 127,-19.25"/>
<text text-anchor="middle" x="80.38" y="-5.75" font-family="Helvetica,sans-Serif" font-size="10.00">ADKernelSUPG.h</text>
</a>
</g>
</g>
<!-- Node2&#45;&gt;Node3 -->
<g id="edge2_Node000002_Node000003" class="edge">
<title>Node2&#45;&gt;Node3</title>
<g id="a_edge2_Node000002_Node000003"><a xlink:title=" ">
<path fill="none" stroke="#63b8ff" d="M80.38,-55.08C80.38,-48.57 80.38,-39.42 80.38,-31.12"/>
<polygon fill="#63b8ff" stroke="#63b8ff" points="83.88,-31.12 80.38,-21.12 76.88,-31.12 83.88,-31.12"/>
</a>
</g>
</g>
</g>
</svg>
