<?xml version="1.0" encoding="UTF-8" standalone="no"?>
<!DOCTYPE svg PUBLIC "-//W3C//DTD SVG 1.1//EN"
 "http://www.w3.org/Graphics/SVG/1.1/DTD/svg11.dtd">
<!-- Generated by graphviz version 9.0.0 (20230911.1827)
 -->
<!-- Title: src/materials/SATauMaterial.C Pages: 1 -->
<svg width="162pt" height="138pt"
 viewBox="0.00 0.00 162.38 137.75" xmlns="http://www.w3.org/2000/svg" xmlns:xlink="http://www.w3.org/1999/xlink">
<g id="graph0" class="graph" transform="scale(1 1) rotate(0) translate(4 133.75)">
<title>src/materials/SATauMaterial.C</title>
<!-- Node1 -->
<g id="Node000001" class="node">
<title>Node1</title>
<g id="a_Node000001"><a xlink:title=" ">
<polygon fill="#999999" stroke="#666666" points="154.38,-129.75 5.62,-129.75 5.62,-110.5 154.38,-110.5 154.38,-129.75"/>
<text text-anchor="middle" x="80" y="-116.25" font-family="Helvetica,sans-Serif" font-size="10.00">src/materials/SATauMaterial.C</text>
</a>
</g>
</g>
<!-- Node2 -->
<g id="Node000002" class="node">
<title>Node2</title>
<g id="a_Node000002"><a xlink:href="_s_a_tau_material_8h.html" target="_top" xlink:title=" ">
<polygon fill="white" stroke="#666666" points="88,-74.5 0,-74.5 0,-55.25 88,-55.25 88,-74.5"/>
<text text-anchor="middle" x="44" y="-61" font-family="Helvetica,sans-Serif" font-size="10.00">SATauMaterial.h</text>
</a>
</g>
</g>
<!-- Node1&#45;&gt;Node2 -->
<g id="edge1_Node000001_Node000002" class="edge">
<title>Node1&#45;&gt;Node2</title>
<g id="a_edge1_Node000001_Node000002"><a xlink:title=" ">
<path fill="none" stroke="#63b8ff" d="M74.06,-110.33C69.29,-103.28 62.44,-93.15 56.48,-84.33"/>
<polygon fill="#63b8ff" stroke="#63b8ff" points="59.42,-82.44 50.92,-76.11 53.62,-86.36 59.42,-82.44"/>
</a>
</g>
</g>
<!-- Node3 -->
<g id="Node000003" class="node">
<title>Node3</title>
<g id="a_Node000003"><a xlink:title=" ">
<polygon fill="#e0e0e0" stroke="#999999" points="132.62,-19.25 27.38,-19.25 27.38,0 132.62,0 132.62,-19.25"/>
<text text-anchor="middle" x="80" y="-5.75" font-family="Helvetica,sans-Serif" font-size="10.00">INSADTauMaterial.h</text>
</a>
</g>
</g>
<!-- Node1&#45;&gt;Node3 -->
<g id="edge3_Node000001_Node000003" class="edge">
<title>Node1&#45;&gt;Node3</title>
<g id="a_edge3_Node000001_Node000003"><a xlink:title=" ">
<path fill="none" stroke="#63b8ff" d="M84.52,-110.18C88.71,-101.36 94.63,-87.38 97,-74.5 99.8,-59.29 94.94,-42.4 89.71,-29.8"/>
<polygon fill="#63b8ff" stroke="#63b8ff" points="93.01,-28.61 85.65,-20.99 86.66,-31.54 93.01,-28.61"/>
</a>
</g>
</g>
<!-- Node2&#45;&gt;Node3 -->
<g id="edge2_Node000002_Node000003" class="edge">
<title>Node2&#45;&gt;Node3</title>
<g id="a_edge2_Node000002_Node000003"><a xlink:title=" ">
<path fill="none" stroke="#63b8ff" d="M49.94,-55.08C54.71,-48.03 61.56,-37.9 67.52,-29.08"/>
<polygon fill="#63b8ff" stroke="#63b8ff" points="70.38,-31.11 73.08,-20.86 64.58,-27.19 70.38,-31.11"/>
</a>
</g>
</g>
</g>
</svg>
