<?xml version="1.0" encoding="UTF-8" standalone="no"?>
<!DOCTYPE svg PUBLIC "-//W3C//DTD SVG 1.1//EN"
 "http://www.w3.org/Graphics/SVG/1.1/DTD/svg11.dtd">
<!-- Generated by graphviz version 12.2.0 (20241103.1931)
 -->
<!-- Title: src/kernels/SNScattering.C Pages: 1 -->
<svg width="333pt" height="138pt"
 viewBox="0.00 0.00 332.62 137.75" xmlns="http://www.w3.org/2000/svg" xmlns:xlink="http://www.w3.org/1999/xlink">
<g id="graph0" class="graph" transform="scale(1 1) rotate(0) translate(4 133.75)">
<title>src/kernels/SNScattering.C</title>
<!-- Node1 -->
<g id="Node000001" class="node">
<title>Node1</title>
<g id="a_Node000001"><a xlink:title=" ">
<polygon fill="#999999" stroke="#666666" points="186.12,-129.75 51.62,-129.75 51.62,-110.5 186.12,-110.5 186.12,-129.75"/>
<text text-anchor="middle" x="118.88" y="-116.25" font-family="Helvetica,sans-Serif" font-size="10.00">src/kernels/SNScattering.C</text>
</a>
</g>
</g>
<!-- Node2 -->
<g id="Node000002" class="node">
<title>Node2</title>
<g id="a_Node000002"><a xlink:href="_s_n_scattering_8h.html" target="_top" xlink:title=" ">
<polygon fill="white" stroke="#666666" points="111.88,-74.5 29.88,-74.5 29.88,-55.25 111.88,-55.25 111.88,-74.5"/>
<text text-anchor="middle" x="70.88" y="-61" font-family="Helvetica,sans-Serif" font-size="10.00">SNScattering.h</text>
</a>
</g>
</g>
<!-- Node1&#45;&gt;Node2 -->
<g id="edge1_Node000001_Node000002" class="edge">
<title>Node1&#45;&gt;Node2</title>
<g id="a_edge1_Node000001_Node000002"><a xlink:title=" ">
<path fill="none" stroke="#63b8ff" d="M110.95,-110.33C104.32,-102.98 94.66,-92.26 86.49,-83.19"/>
<polygon fill="#63b8ff" stroke="#63b8ff" points="89.28,-81.07 79.99,-75.98 84.08,-85.75 89.28,-81.07"/>
</a>
</g>
</g>
<!-- Node4 -->
<g id="Node000004" class="node">
<title>Node4</title>
<g id="a_Node000004"><a xlink:href="_moltres_utils_8h.html" target="_top" xlink:title=" ">
<polygon fill="white" stroke="#666666" points="222.88,-74.5 146.88,-74.5 146.88,-55.25 222.88,-55.25 222.88,-74.5"/>
<text text-anchor="middle" x="184.88" y="-61" font-family="Helvetica,sans-Serif" font-size="10.00">MoltresUtils.h</text>
</a>
</g>
</g>
<!-- Node1&#45;&gt;Node4 -->
<g id="edge3_Node000001_Node000004" class="edge">
<title>Node1&#45;&gt;Node4</title>
<g id="a_edge3_Node000001_Node000004"><a xlink:title=" ">
<path fill="none" stroke="#63b8ff" d="M130.07,-110.09C139.61,-102.4 153.55,-91.15 164.98,-81.93"/>
<polygon fill="#63b8ff" stroke="#63b8ff" points="167.08,-84.73 172.67,-75.73 162.69,-79.28 167.08,-84.73"/>
</a>
</g>
</g>
<!-- Node3 -->
<g id="Node000003" class="node">
<title>Node3</title>
<g id="a_Node000003"><a xlink:title=" ">
<polygon fill="#e0e0e0" stroke="#999999" points="73.75,-19.25 0,-19.25 0,0 73.75,0 73.75,-19.25"/>
<text text-anchor="middle" x="36.88" y="-5.75" font-family="Helvetica,sans-Serif" font-size="10.00">ArrayKernel.h</text>
</a>
</g>
</g>
<!-- Node2&#45;&gt;Node3 -->
<g id="edge2_Node000002_Node000003" class="edge">
<title>Node2&#45;&gt;Node3</title>
<g id="a_edge2_Node000002_Node000003"><a xlink:title=" ">
<path fill="none" stroke="#63b8ff" d="M65.26,-55.08C60.76,-48.03 54.29,-37.9 48.66,-29.08"/>
<polygon fill="#63b8ff" stroke="#63b8ff" points="51.76,-27.43 43.43,-20.88 45.86,-31.2 51.76,-27.43"/>
</a>
</g>
</g>
<!-- Node5 -->
<g id="Node000005" class="node">
<title>Node5</title>
<g id="a_Node000005"><a xlink:title=" ">
<polygon fill="#e0e0e0" stroke="#999999" points="144.25,-19.25 91.5,-19.25 91.5,0 144.25,0 144.25,-19.25"/>
<text text-anchor="middle" x="117.88" y="-5.75" font-family="Helvetica,sans-Serif" font-size="10.00">Moose.h</text>
</a>
</g>
</g>
<!-- Node4&#45;&gt;Node5 -->
<g id="edge4_Node000004_Node000005" class="edge">
<title>Node4&#45;&gt;Node5</title>
<g id="a_edge4_Node000004_Node000005"><a xlink:title=" ">
<path fill="none" stroke="#63b8ff" d="M173.51,-54.84C163.83,-47.15 149.68,-35.9 138.07,-26.68"/>
<polygon fill="#63b8ff" stroke="#63b8ff" points="140.26,-23.95 130.26,-20.47 135.91,-29.43 140.26,-23.95"/>
</a>
</g>
</g>
<!-- Node6 -->
<g id="Node000006" class="node">
<title>Node6</title>
<g id="a_Node000006"><a xlink:title=" ">
<polygon fill="#e0e0e0" stroke="#999999" points="241.38,-19.25 162.38,-19.25 162.38,0 241.38,0 241.38,-19.25"/>
<text text-anchor="middle" x="201.88" y="-5.75" font-family="Helvetica,sans-Serif" font-size="10.00">MooseTypes.h</text>
</a>
</g>
</g>
<!-- Node4&#45;&gt;Node6 -->
<g id="edge5_Node000004_Node000006" class="edge">
<title>Node4&#45;&gt;Node6</title>
<g id="a_edge5_Node000004_Node000006"><a xlink:title=" ">
<path fill="none" stroke="#63b8ff" d="M187.68,-55.08C189.81,-48.42 192.82,-38.99 195.52,-30.53"/>
<polygon fill="#63b8ff" stroke="#63b8ff" points="198.84,-31.64 198.55,-21.05 192.17,-29.51 198.84,-31.64"/>
</a>
</g>
</g>
<!-- Node7 -->
<g id="Node000007" class="node">
<title>Node7</title>
<g id="a_Node000007"><a xlink:title=" ">
<polygon fill="#e0e0e0" stroke="#999999" points="324.62,-19.25 259.12,-19.25 259.12,0 324.62,0 324.62,-19.25"/>
<text text-anchor="middle" x="291.88" y="-5.75" font-family="Helvetica,sans-Serif" font-size="10.00">MathUtils.h</text>
</a>
</g>
</g>
<!-- Node4&#45;&gt;Node7 -->
<g id="edge6_Node000004_Node000007" class="edge">
<title>Node4&#45;&gt;Node7</title>
<g id="a_edge6_Node000004_Node000007"><a xlink:title=" ">
<path fill="none" stroke="#63b8ff" d="M203.03,-54.84C219.55,-46.62 244.22,-34.34 263.37,-24.81"/>
<polygon fill="#63b8ff" stroke="#63b8ff" points="264.89,-27.97 272.28,-20.38 261.77,-21.7 264.89,-27.97"/>
</a>
</g>
</g>
</g>
</svg>
