<?xml version="1.0" encoding="UTF-8" standalone="no"?>
<!DOCTYPE svg PUBLIC "-//W3C//DTD SVG 1.1//EN"
 "http://www.w3.org/Graphics/SVG/1.1/DTD/svg11.dtd">
<!-- Generated by graphviz version 12.2.0 (20241103.1931)
 -->
<!-- Title: src/materials/SNRodMaterial.C Pages: 1 -->
<svg width="649pt" height="193pt"
 viewBox="0.00 0.00 648.62 193.00" xmlns="http://www.w3.org/2000/svg" xmlns:xlink="http://www.w3.org/1999/xlink">
<g id="graph0" class="graph" transform="scale(1 1) rotate(0) translate(4 189)">
<title>src/materials/SNRodMaterial.C</title>
<!-- Node1 -->
<g id="Node000001" class="node">
<title>Node1</title>
<g id="a_Node000001"><a xlink:title=" ">
<polygon fill="#999999" stroke="#666666" points="510.5,-185 360.25,-185 360.25,-165.75 510.5,-165.75 510.5,-185"/>
<text text-anchor="middle" x="435.38" y="-171.5" font-family="Helvetica,sans-Serif" font-size="10.00">src/materials/SNRodMaterial.C</text>
</a>
</g>
</g>
<!-- Node2 -->
<g id="Node000002" class="node">
<title>Node2</title>
<g id="a_Node000002"><a xlink:href="_s_n_rod_material_8h.html" target="_top" xlink:title=" ">
<polygon fill="white" stroke="#666666" points="387.12,-129.75 297.62,-129.75 297.62,-110.5 387.12,-110.5 387.12,-129.75"/>
<text text-anchor="middle" x="342.38" y="-116.25" font-family="Helvetica,sans-Serif" font-size="10.00">SNRodMaterial.h</text>
</a>
</g>
</g>
<!-- Node1&#45;&gt;Node2 -->
<g id="edge1_Node000001_Node000002" class="edge">
<title>Node1&#45;&gt;Node2</title>
<g id="a_edge1_Node000001_Node000002"><a xlink:title=" ">
<path fill="none" stroke="#63b8ff" d="M419.6,-165.34C405.44,-157.23 384.39,-145.18 367.85,-135.71"/>
<polygon fill="#63b8ff" stroke="#63b8ff" points="369.96,-132.89 359.54,-130.95 366.48,-138.96 369.96,-132.89"/>
</a>
</g>
</g>
<!-- Node9 -->
<g id="Node000009" class="node">
<title>Node9</title>
<g id="a_Node000009"><a xlink:title=" ">
<polygon fill="#e0e0e0" stroke="#999999" points="465.88,-129.75 404.88,-129.75 404.88,-110.5 465.88,-110.5 465.88,-129.75"/>
<text text-anchor="middle" x="435.38" y="-116.25" font-family="Helvetica,sans-Serif" font-size="10.00">Function.h</text>
</a>
</g>
</g>
<!-- Node1&#45;&gt;Node9 -->
<g id="edge8_Node000001_Node000009" class="edge">
<title>Node1&#45;&gt;Node9</title>
<g id="a_edge8_Node000001_Node000009"><a xlink:title=" ">
<path fill="none" stroke="#63b8ff" d="M435.38,-165.58C435.38,-159.07 435.38,-149.92 435.38,-141.62"/>
<polygon fill="#63b8ff" stroke="#63b8ff" points="438.88,-141.62 435.38,-131.62 431.88,-141.62 438.88,-141.62"/>
</a>
</g>
</g>
<!-- Node10 -->
<g id="Node000010" class="node">
<title>Node10</title>
<g id="a_Node000010"><a xlink:title=" ">
<polygon fill="#e0e0e0" stroke="#999999" points="556.88,-129.75 483.88,-129.75 483.88,-110.5 556.88,-110.5 556.88,-129.75"/>
<text text-anchor="middle" x="520.38" y="-116.25" font-family="Helvetica,sans-Serif" font-size="10.00">MooseUtils.h</text>
</a>
</g>
</g>
<!-- Node1&#45;&gt;Node10 -->
<g id="edge9_Node000001_Node000010" class="edge">
<title>Node1&#45;&gt;Node10</title>
<g id="a_edge9_Node000001_Node000010"><a xlink:title=" ">
<path fill="none" stroke="#63b8ff" d="M449.79,-165.34C462.49,-157.39 481.25,-145.64 496.23,-136.25"/>
<polygon fill="#63b8ff" stroke="#63b8ff" points="497.99,-139.28 504.6,-131.01 494.27,-133.35 497.99,-139.28"/>
</a>
</g>
</g>
<!-- Node3 -->
<g id="Node000003" class="node">
<title>Node3</title>
<g id="a_Node000003"><a xlink:href="_moltres_s_n_material_8h.html" target="_top" xlink:title=" ">
<polygon fill="white" stroke="#666666" points="394.62,-74.5 290.12,-74.5 290.12,-55.25 394.62,-55.25 394.62,-74.5"/>
<text text-anchor="middle" x="342.38" y="-61" font-family="Helvetica,sans-Serif" font-size="10.00">MoltresSNMaterial.h</text>
</a>
</g>
</g>
<!-- Node2&#45;&gt;Node3 -->
<g id="edge2_Node000002_Node000003" class="edge">
<title>Node2&#45;&gt;Node3</title>
<g id="a_edge2_Node000002_Node000003"><a xlink:title=" ">
<path fill="none" stroke="#63b8ff" d="M342.38,-110.33C342.38,-103.82 342.38,-94.67 342.38,-86.37"/>
<polygon fill="#63b8ff" stroke="#63b8ff" points="345.88,-86.37 342.38,-76.37 338.88,-86.37 345.88,-86.37"/>
</a>
</g>
</g>
<!-- Node4 -->
<g id="Node000004" class="node">
<title>Node4</title>
<g id="a_Node000004"><a xlink:title=" ">
<polygon fill="#e0e0e0" stroke="#999999" points="130.75,-19.25 0,-19.25 0,0 130.75,0 130.75,-19.25"/>
<text text-anchor="middle" x="65.38" y="-5.75" font-family="Helvetica,sans-Serif" font-size="10.00">GenericConstantMaterial.h</text>
</a>
</g>
</g>
<!-- Node3&#45;&gt;Node4 -->
<g id="edge3_Node000003_Node000004" class="edge">
<title>Node3&#45;&gt;Node4</title>
<g id="a_edge3_Node000003_Node000004"><a xlink:title=" ">
<path fill="none" stroke="#63b8ff" d="M295.07,-54.78C247.67,-45.67 174.6,-31.62 123.64,-21.83"/>
<polygon fill="#63b8ff" stroke="#63b8ff" points="124.45,-18.42 113.97,-19.97 123.13,-25.29 124.45,-18.42"/>
</a>
</g>
</g>
<!-- Node5 -->
<g id="Node000005" class="node">
<title>Node5</title>
<g id="a_Node000005"><a xlink:title=" ">
<polygon fill="#e0e0e0" stroke="#999999" points="252.25,-19.25 148.5,-19.25 148.5,0 252.25,0 252.25,-19.25"/>
<text text-anchor="middle" x="200.38" y="-5.75" font-family="Helvetica,sans-Serif" font-size="10.00">SplineInterpolation.h</text>
</a>
</g>
</g>
<!-- Node3&#45;&gt;Node5 -->
<g id="edge4_Node000003_Node000005" class="edge">
<title>Node3&#45;&gt;Node5</title>
<g id="a_edge4_Node000003_Node000005"><a xlink:title=" ">
<path fill="none" stroke="#63b8ff" d="M318.29,-54.84C295.44,-46.27 260.86,-33.31 235.05,-23.63"/>
<polygon fill="#63b8ff" stroke="#63b8ff" points="236.59,-20.47 226,-20.23 234.13,-27.02 236.59,-20.47"/>
</a>
</g>
</g>
<!-- Node6 -->
<g id="Node000006" class="node">
<title>Node6</title>
<g id="a_Node000006"><a xlink:title=" ">
<polygon fill="#e0e0e0" stroke="#999999" points="414.5,-19.25 270.25,-19.25 270.25,0 414.5,0 414.5,-19.25"/>
<text text-anchor="middle" x="342.38" y="-5.75" font-family="Helvetica,sans-Serif" font-size="10.00">MonotoneCubicInterpolation.h</text>
</a>
</g>
</g>
<!-- Node3&#45;&gt;Node6 -->
<g id="edge5_Node000003_Node000006" class="edge">
<title>Node3&#45;&gt;Node6</title>
<g id="a_edge5_Node000003_Node000006"><a xlink:title=" ">
<path fill="none" stroke="#63b8ff" d="M342.38,-55.08C342.38,-48.57 342.38,-39.42 342.38,-31.12"/>
<polygon fill="#63b8ff" stroke="#63b8ff" points="345.88,-31.12 342.38,-21.12 338.88,-31.12 345.88,-31.12"/>
</a>
</g>
</g>
<!-- Node7 -->
<g id="Node000007" class="node">
<title>Node7</title>
<g id="a_Node000007"><a xlink:title=" ">
<polygon fill="#e0e0e0" stroke="#999999" points="536.25,-19.25 432.5,-19.25 432.5,0 536.25,0 536.25,-19.25"/>
<text text-anchor="middle" x="484.38" y="-5.75" font-family="Helvetica,sans-Serif" font-size="10.00">LinearInterpolation.h</text>
</a>
</g>
</g>
<!-- Node3&#45;&gt;Node7 -->
<g id="edge6_Node000003_Node000007" class="edge">
<title>Node3&#45;&gt;Node7</title>
<g id="a_edge6_Node000003_Node000007"><a xlink:title=" ">
<path fill="none" stroke="#63b8ff" d="M366.46,-54.84C389.31,-46.27 423.89,-33.31 449.7,-23.63"/>
<polygon fill="#63b8ff" stroke="#63b8ff" points="450.62,-27.02 458.75,-20.23 448.16,-20.47 450.62,-27.02"/>
</a>
</g>
</g>
<!-- Node8 -->
<g id="Node000008" class="node">
<title>Node8</title>
<g id="a_Node000008"><a xlink:title=" ">
<polygon fill="#e0e0e0" stroke="#999999" points="640.62,-19.25 554.12,-19.25 554.12,0 640.62,0 640.62,-19.25"/>
<text text-anchor="middle" x="597.38" y="-5.75" font-family="Helvetica,sans-Serif" font-size="10.00">nlohmann/json.h</text>
</a>
</g>
</g>
<!-- Node3&#45;&gt;Node8 -->
<g id="edge7_Node000003_Node000008" class="edge">
<title>Node3&#45;&gt;Node8</title>
<g id="a_edge7_Node000003_Node000008"><a xlink:title=" ">
<path fill="none" stroke="#63b8ff" d="M385.92,-54.78C429.29,-45.73 495.98,-31.8 542.84,-22.01"/>
<polygon fill="#63b8ff" stroke="#63b8ff" points="543.45,-25.46 552.53,-19.99 542.02,-18.61 543.45,-25.46"/>
</a>
</g>
</g>
</g>
</svg>
