<?xml version="1.0" encoding="UTF-8" standalone="no"?>
<!DOCTYPE svg PUBLIC "-//W3C//DTD SVG 1.1//EN"
 "http://www.w3.org/Graphics/SVG/1.1/DTD/svg11.dtd">
<!-- Generated by graphviz version 12.2.0 (20241103.1931)
 -->
<!-- Title: src/auxkernels/SNScalarFluxAux.C Pages: 1 -->
<svg width="327pt" height="149pt"
 viewBox="0.00 0.00 326.62 149.00" xmlns="http://www.w3.org/2000/svg" xmlns:xlink="http://www.w3.org/1999/xlink">
<g id="graph0" class="graph" transform="scale(1 1) rotate(0) translate(4 145)">
<title>src/auxkernels/SNScalarFluxAux.C</title>
<!-- Node1 -->
<g id="Node000001" class="node">
<title>Node1</title>
<g id="a_Node000001"><a xlink:title=" ">
<polygon fill="#999999" stroke="#666666" points="185.88,-141 43.88,-141 43.88,-110.5 185.88,-110.5 185.88,-141"/>
<text text-anchor="start" x="51.88" y="-127.5" font-family="Helvetica,sans-Serif" font-size="10.00">src/auxkernels/SNScalarFlux</text>
<text text-anchor="middle" x="114.88" y="-116.25" font-family="Helvetica,sans-Serif" font-size="10.00">Aux.C</text>
</a>
</g>
</g>
<!-- Node2 -->
<g id="Node000002" class="node">
<title>Node2</title>
<g id="a_Node000002"><a xlink:href="_s_n_scalar_flux_aux_8h.html" target="_top" xlink:title=" ">
<polygon fill="white" stroke="#666666" points="111.88,-74.5 11.88,-74.5 11.88,-55.25 111.88,-55.25 111.88,-74.5"/>
<text text-anchor="middle" x="61.88" y="-61" font-family="Helvetica,sans-Serif" font-size="10.00">SNScalarFluxAux.h</text>
</a>
</g>
</g>
<!-- Node1&#45;&gt;Node2 -->
<g id="edge1_Node000001_Node000002" class="edge">
<title>Node1&#45;&gt;Node2</title>
<g id="a_edge1_Node000001_Node000002"><a xlink:title=" ">
<path fill="none" stroke="#63b8ff" d="M101.77,-110.2C94.48,-102.09 85.35,-91.95 77.66,-83.41"/>
<polygon fill="#63b8ff" stroke="#63b8ff" points="80.35,-81.17 71.06,-76.08 75.15,-85.85 80.35,-81.17"/>
</a>
</g>
</g>
<!-- Node4 -->
<g id="Node000004" class="node">
<title>Node4</title>
<g id="a_Node000004"><a xlink:href="_moltres_utils_8h.html" target="_top" xlink:title=" ">
<polygon fill="white" stroke="#666666" points="219.88,-74.5 143.88,-74.5 143.88,-55.25 219.88,-55.25 219.88,-74.5"/>
<text text-anchor="middle" x="181.88" y="-61" font-family="Helvetica,sans-Serif" font-size="10.00">MoltresUtils.h</text>
</a>
</g>
</g>
<!-- Node1&#45;&gt;Node4 -->
<g id="edge3_Node000001_Node000004" class="edge">
<title>Node1&#45;&gt;Node4</title>
<g id="a_edge3_Node000001_Node000004"><a xlink:title=" ">
<path fill="none" stroke="#63b8ff" d="M131.44,-110.2C141.05,-101.75 153.19,-91.08 163.15,-82.33"/>
<polygon fill="#63b8ff" stroke="#63b8ff" points="165.21,-85.18 170.41,-75.95 160.59,-79.92 165.21,-85.18"/>
</a>
</g>
</g>
<!-- Node3 -->
<g id="Node000003" class="node">
<title>Node3</title>
<g id="a_Node000003"><a xlink:title=" ">
<polygon fill="#e0e0e0" stroke="#999999" points="67.75,-19.25 0,-19.25 0,0 67.75,0 67.75,-19.25"/>
<text text-anchor="middle" x="33.88" y="-5.75" font-family="Helvetica,sans-Serif" font-size="10.00">AuxKernel.h</text>
</a>
</g>
</g>
<!-- Node2&#45;&gt;Node3 -->
<g id="edge2_Node000002_Node000003" class="edge">
<title>Node2&#45;&gt;Node3</title>
<g id="a_edge2_Node000002_Node000003"><a xlink:title=" ">
<path fill="none" stroke="#63b8ff" d="M57.25,-55.08C53.63,-48.19 48.45,-38.34 43.88,-29.66"/>
<polygon fill="#63b8ff" stroke="#63b8ff" points="47.06,-28.17 39.3,-20.95 40.86,-31.43 47.06,-28.17"/>
</a>
</g>
</g>
<!-- Node5 -->
<g id="Node000005" class="node">
<title>Node5</title>
<g id="a_Node000005"><a xlink:title=" ">
<polygon fill="#e0e0e0" stroke="#999999" points="138.25,-19.25 85.5,-19.25 85.5,0 138.25,0 138.25,-19.25"/>
<text text-anchor="middle" x="111.88" y="-5.75" font-family="Helvetica,sans-Serif" font-size="10.00">Moose.h</text>
</a>
</g>
</g>
<!-- Node4&#45;&gt;Node5 -->
<g id="edge4_Node000004_Node000005" class="edge">
<title>Node4&#45;&gt;Node5</title>
<g id="a_edge4_Node000004_Node000005"><a xlink:title=" ">
<path fill="none" stroke="#63b8ff" d="M170,-54.84C159.78,-47.07 144.8,-35.67 132.61,-26.4"/>
<polygon fill="#63b8ff" stroke="#63b8ff" points="134.86,-23.71 124.78,-20.44 130.62,-29.28 134.86,-23.71"/>
</a>
</g>
</g>
<!-- Node6 -->
<g id="Node000006" class="node">
<title>Node6</title>
<g id="a_Node000006"><a xlink:title=" ">
<polygon fill="#e0e0e0" stroke="#999999" points="235.38,-19.25 156.38,-19.25 156.38,0 235.38,0 235.38,-19.25"/>
<text text-anchor="middle" x="195.88" y="-5.75" font-family="Helvetica,sans-Serif" font-size="10.00">MooseTypes.h</text>
</a>
</g>
</g>
<!-- Node4&#45;&gt;Node6 -->
<g id="edge5_Node000004_Node000006" class="edge">
<title>Node4&#45;&gt;Node6</title>
<g id="a_edge5_Node000004_Node000006"><a xlink:title=" ">
<path fill="none" stroke="#63b8ff" d="M184.19,-55.08C185.94,-48.42 188.42,-38.99 190.64,-30.53"/>
<polygon fill="#63b8ff" stroke="#63b8ff" points="193.97,-31.63 193.13,-21.07 187.2,-29.85 193.97,-31.63"/>
</a>
</g>
</g>
<!-- Node7 -->
<g id="Node000007" class="node">
<title>Node7</title>
<g id="a_Node000007"><a xlink:title=" ">
<polygon fill="#e0e0e0" stroke="#999999" points="318.62,-19.25 253.12,-19.25 253.12,0 318.62,0 318.62,-19.25"/>
<text text-anchor="middle" x="285.88" y="-5.75" font-family="Helvetica,sans-Serif" font-size="10.00">MathUtils.h</text>
</a>
</g>
</g>
<!-- Node4&#45;&gt;Node7 -->
<g id="edge6_Node000004_Node000007" class="edge">
<title>Node4&#45;&gt;Node7</title>
<g id="a_edge6_Node000004_Node000007"><a xlink:title=" ">
<path fill="none" stroke="#63b8ff" d="M199.52,-54.84C215.5,-46.66 239.33,-34.46 257.91,-24.94"/>
<polygon fill="#63b8ff" stroke="#63b8ff" points="259.49,-28.07 266.8,-20.39 256.3,-21.83 259.49,-28.07"/>
</a>
</g>
</g>
</g>
</svg>
