<?xml version="1.0" encoding="UTF-8" standalone="no"?>
<!DOCTYPE svg PUBLIC "-//W3C//DTD SVG 1.1//EN"
 "http://www.w3.org/Graphics/SVG/1.1/DTD/svg11.dtd">
<!-- Generated by graphviz version 12.2.0 (20241103.1931)
 -->
<!-- Title: src/kernels/SNTimeDerivative.C Pages: 1 -->
<svg width="164pt" height="138pt"
 viewBox="0.00 0.00 163.50 137.75" xmlns="http://www.w3.org/2000/svg" xmlns:xlink="http://www.w3.org/1999/xlink">
<g id="graph0" class="graph" transform="scale(1 1) rotate(0) translate(4 133.75)">
<title>src/kernels/SNTimeDerivative.C</title>
<!-- Node1 -->
<g id="Node000001" class="node">
<title>Node1</title>
<g id="a_Node000001"><a xlink:title=" ">
<polygon fill="#999999" stroke="#666666" points="155.5,-129.75 0,-129.75 0,-110.5 155.5,-110.5 155.5,-129.75"/>
<text text-anchor="middle" x="77.75" y="-116.25" font-family="Helvetica,sans-Serif" font-size="10.00">src/kernels/SNTimeDerivative.C</text>
</a>
</g>
</g>
<!-- Node2 -->
<g id="Node000002" class="node">
<title>Node2</title>
<g id="a_Node000002"><a xlink:href="_s_n_time_derivative_8h.html" target="_top" xlink:title=" ">
<polygon fill="white" stroke="#666666" points="129.25,-74.5 26.25,-74.5 26.25,-55.25 129.25,-55.25 129.25,-74.5"/>
<text text-anchor="middle" x="77.75" y="-61" font-family="Helvetica,sans-Serif" font-size="10.00">SNTimeDerivative.h</text>
</a>
</g>
</g>
<!-- Node1&#45;&gt;Node2 -->
<g id="edge1_Node000001_Node000002" class="edge">
<title>Node1&#45;&gt;Node2</title>
<g id="a_edge1_Node000001_Node000002"><a xlink:title=" ">
<path fill="none" stroke="#63b8ff" d="M77.75,-110.33C77.75,-103.82 77.75,-94.67 77.75,-86.37"/>
<polygon fill="#63b8ff" stroke="#63b8ff" points="81.25,-86.37 77.75,-76.37 74.25,-86.37 81.25,-86.37"/>
</a>
</g>
</g>
<!-- Node3 -->
<g id="Node000003" class="node">
<title>Node3</title>
<g id="a_Node000003"><a xlink:title=" ">
<polygon fill="#e0e0e0" stroke="#999999" points="125.5,-19.25 30,-19.25 30,0 125.5,0 125.5,-19.25"/>
<text text-anchor="middle" x="77.75" y="-5.75" font-family="Helvetica,sans-Serif" font-size="10.00">ArrayTimeKernel.h</text>
</a>
</g>
</g>
<!-- Node2&#45;&gt;Node3 -->
<g id="edge2_Node000002_Node000003" class="edge">
<title>Node2&#45;&gt;Node3</title>
<g id="a_edge2_Node000002_Node000003"><a xlink:title=" ">
<path fill="none" stroke="#63b8ff" d="M77.75,-55.08C77.75,-48.57 77.75,-39.42 77.75,-31.12"/>
<polygon fill="#63b8ff" stroke="#63b8ff" points="81.25,-31.12 77.75,-21.12 74.25,-31.12 81.25,-31.12"/>
</a>
</g>
</g>
</g>
</svg>
