<?xml version="1.0" encoding="UTF-8" standalone="no"?>
<!DOCTYPE svg PUBLIC "-//W3C//DTD SVG 1.1//EN"
 "http://www.w3.org/Graphics/SVG/1.1/DTD/svg11.dtd">
<!-- Generated by graphviz version 12.2.0 (20241103.1931)
 -->
<!-- Title: src/kernels/SNDelayedNeutronSource.C Pages: 1 -->
<svg width="249pt" height="149pt"
 viewBox="0.00 0.00 248.75 149.00" xmlns="http://www.w3.org/2000/svg" xmlns:xlink="http://www.w3.org/1999/xlink">

<svg id="main" version="1.1" xmlns="http://www.w3.org/2000/svg" xmlns:xlink="http://www.w3.org/1999/xlink" xml:space="preserve">

<style type="text/css"><![CDATA[
.node, .edge {opacity: 0.7;}
.node.selected, .edge.selected {opacity: 1;}
.edge:hover path { stroke: red; }
.edge:hover polygon { stroke: red; fill: red; }
]]></style>
<script type="application/ecmascript" xlink:href="svg.min.js"/>
<svg id="graph" class="graph">
<g id="graph0" class="graph" transform="scale(1 1) rotate(0) translate(4 145)">
<title>src/kernels/SNDelayedNeutronSource.C</title>
<!-- Node1 -->
<g id="Node000001" class="node">
<title>Node1</title>
<g id="a_Node000001"><a xlink:title=" ">
<polygon fill="#999999" stroke="#666666" points="217,-141 66.75,-141 66.75,-110.5 217,-110.5 217,-141"/>
<text text-anchor="start" x="74.75" y="-127.5" font-family="Helvetica,sans-Serif" font-size="10.00">src/kernels/SNDelayedNeutron</text>
<text text-anchor="middle" x="141.88" y="-116.25" font-family="Helvetica,sans-Serif" font-size="10.00">Source.C</text>
</a>
</g>
</g>
<!-- Node2 -->
<g id="Node000002" class="node">
<title>Node2</title>
<g id="a_Node000002"><a xlink:href="_s_n_delayed_neutron_source_8h.html" target="_top" xlink:title=" ">
<polygon fill="white" stroke="#666666" points="148.62,-74.5 11.12,-74.5 11.12,-55.25 148.62,-55.25 148.62,-74.5"/>
<text text-anchor="middle" x="79.88" y="-61" font-family="Helvetica,sans-Serif" font-size="10.00">SNDelayedNeutronSource.h</text>
</a>
</g>
</g>
<!-- Node1&#45;&gt;Node2 -->
<g id="edge1_Node000001_Node000002" class="edge">
<title>Node1&#45;&gt;Node2</title>
<g id="a_edge1_Node000001_Node000002"><a xlink:title=" ">
<path fill="none" stroke="#63b8ff" d="M126.55,-110.2C117.84,-101.92 106.88,-91.52 97.77,-82.87"/>
<polygon fill="#63b8ff" stroke="#63b8ff" points="100.19,-80.34 90.53,-75.99 95.37,-85.42 100.19,-80.34"/>
</a>
</g>
</g>
<!-- Node5 -->
<g id="Node000005" class="node">
<title>Node5</title>
<g id="a_Node000005"><a xlink:title=" ">
<polygon fill="#e0e0e0" stroke="#999999" points="240.75,-74.5 167,-74.5 167,-55.25 240.75,-55.25 240.75,-74.5"/>
<text text-anchor="middle" x="203.88" y="-61" font-family="Helvetica,sans-Serif" font-size="10.00">Executioner.h</text>
</a>
</g>
</g>
<!-- Node1&#45;&gt;Node5 -->
<g id="edge4_Node000001_Node000005" class="edge">
<title>Node1&#45;&gt;Node5</title>
<g id="a_edge4_Node000001_Node000005"><a xlink:title=" ">
<path fill="none" stroke="#63b8ff" d="M157.2,-110.2C165.91,-101.92 176.87,-91.52 185.98,-82.87"/>
<polygon fill="#63b8ff" stroke="#63b8ff" points="188.38,-85.42 193.22,-75.99 183.56,-80.34 188.38,-85.42"/>
</a>
</g>
</g>
<!-- Node3 -->
<g id="Node000003" class="node">
<title>Node3</title>
<g id="a_Node000003"><a xlink:title=" ">
<polygon fill="#e0e0e0" stroke="#999999" points="73.75,-19.25 0,-19.25 0,0 73.75,0 73.75,-19.25"/>
<text text-anchor="middle" x="36.88" y="-5.75" font-family="Helvetica,sans-Serif" font-size="10.00">ArrayKernel.h</text>
</a>
</g>
</g>
<!-- Node2&#45;&gt;Node3 -->
<g id="edge2_Node000002_Node000003" class="edge">
<title>Node2&#45;&gt;Node3</title>
<g id="a_edge2_Node000002_Node000003"><a xlink:title=" ">
<path fill="none" stroke="#63b8ff" d="M72.77,-55.08C66.96,-47.88 58.54,-37.46 51.32,-28.51"/>
<polygon fill="#63b8ff" stroke="#63b8ff" points="54.09,-26.37 45.08,-20.79 48.64,-30.77 54.09,-26.37"/>
</a>
</g>
</g>
<!-- Node4 -->
<g id="Node000004" class="node">
<title>Node4</title>
<g id="a_Node000004"><a xlink:title=" ">
<polygon fill="#e0e0e0" stroke="#999999" points="155.5,-19.25 92.25,-19.25 92.25,0 155.5,0 155.5,-19.25"/>
<text text-anchor="middle" x="123.88" y="-5.75" font-family="Helvetica,sans-Serif" font-size="10.00">Eigen/Core</text>
</a>
</g>
</g>
<!-- Node2&#45;&gt;Node4 -->
<g id="edge3_Node000002_Node000004" class="edge">
<title>Node2&#45;&gt;Node4</title>
<g id="a_edge3_Node000002_Node000004"><a xlink:title=" ">
<path fill="none" stroke="#63b8ff" d="M87.14,-55.08C93.16,-47.8 101.89,-37.23 109.33,-28.23"/>
<polygon fill="#63b8ff" stroke="#63b8ff" points="111.82,-30.71 115.49,-20.78 106.42,-26.26 111.82,-30.71"/>
</a>
</g>
</g>
</g>
</svg>
</svg>

<style type='text/css'>
<![CDATA[
[data-mouse-over-selected='false'] { opacity: 0.7; }
[data-mouse-over-selected='true']  { opacity: 1.0; }
]]>
</style>
<script type="application/ecmascript"><![CDATA[
document.addEventListener('DOMContentLoaded', (event) => {
  highlightEdges();
  highlightAdjacentNodes();
});
]]></script>
</svg>
