<?xml version="1.0" encoding="UTF-8" standalone="no"?>
<!DOCTYPE svg PUBLIC "-//W3C//DTD SVG 1.1//EN"
 "http://www.w3.org/Graphics/SVG/1.1/DTD/svg11.dtd">
<!-- Generated by graphviz version 12.2.0 (20241103.1931)
 -->
<!-- Title: src/kernels/SNExternalSource.C Pages: 1 -->
<svg width="333pt" height="138pt"
 viewBox="0.00 0.00 332.62 137.75" xmlns="http://www.w3.org/2000/svg" xmlns:xlink="http://www.w3.org/1999/xlink">

<svg id="main" version="1.1" xmlns="http://www.w3.org/2000/svg" xmlns:xlink="http://www.w3.org/1999/xlink" xml:space="preserve">

<style type="text/css"><![CDATA[
.node, .edge {opacity: 0.7;}
.node.selected, .edge.selected {opacity: 1;}
.edge:hover path { stroke: red; }
.edge:hover polygon { stroke: red; fill: red; }
]]></style>
<script type="application/ecmascript" xlink:href="svg.min.js"/>
<svg id="graph" class="graph">
<g id="graph0" class="graph" transform="scale(1 1) rotate(0) translate(4 133.75)">
<title>src/kernels/SNExternalSource.C</title>
<!-- Node1 -->
<g id="Node000001" class="node">
<title>Node1</title>
<g id="a_Node000001"><a xlink:title=" ">
<polygon fill="#999999" stroke="#666666" points="196.62,-129.75 41.12,-129.75 41.12,-110.5 196.62,-110.5 196.62,-129.75"/>
<text text-anchor="middle" x="118.88" y="-116.25" font-family="Helvetica,sans-Serif" font-size="10.00">src/kernels/SNExternalSource.C</text>
</a>
</g>
</g>
<!-- Node2 -->
<g id="Node000002" class="node">
<title>Node2</title>
<g id="a_Node000002"><a xlink:href="_s_n_external_source_8h.html" target="_top" xlink:title=" ">
<polygon fill="white" stroke="#666666" points="116.38,-74.5 13.38,-74.5 13.38,-55.25 116.38,-55.25 116.38,-74.5"/>
<text text-anchor="middle" x="64.88" y="-61" font-family="Helvetica,sans-Serif" font-size="10.00">SNExternalSource.h</text>
</a>
</g>
</g>
<!-- Node1&#45;&gt;Node2 -->
<g id="edge1_Node000001_Node000002" class="edge">
<title>Node1&#45;&gt;Node2</title>
<g id="a_edge1_Node000001_Node000002"><a xlink:title=" ">
<path fill="none" stroke="#63b8ff" d="M109.96,-110.33C102.42,-102.9 91.41,-92.04 82.15,-82.91"/>
<polygon fill="#63b8ff" stroke="#63b8ff" points="84.64,-80.45 75.06,-75.92 79.73,-85.44 84.64,-80.45"/>
</a>
</g>
</g>
<!-- Node4 -->
<g id="Node000004" class="node">
<title>Node4</title>
<g id="a_Node000004"><a xlink:href="_moltres_utils_8h.html" target="_top" xlink:title=" ">
<polygon fill="white" stroke="#666666" points="224.88,-74.5 148.88,-74.5 148.88,-55.25 224.88,-55.25 224.88,-74.5"/>
<text text-anchor="middle" x="186.88" y="-61" font-family="Helvetica,sans-Serif" font-size="10.00">MoltresUtils.h</text>
</a>
</g>
</g>
<!-- Node1&#45;&gt;Node4 -->
<g id="edge3_Node000001_Node000004" class="edge">
<title>Node1&#45;&gt;Node4</title>
<g id="a_edge3_Node000001_Node000004"><a xlink:title=" ">
<path fill="none" stroke="#63b8ff" d="M130.41,-110.09C140.34,-102.32 154.89,-90.92 166.73,-81.65"/>
<polygon fill="#63b8ff" stroke="#63b8ff" points="168.6,-84.63 174.32,-75.71 164.29,-79.12 168.6,-84.63"/>
</a>
</g>
</g>
<!-- Node3 -->
<g id="Node000003" class="node">
<title>Node3</title>
<g id="a_Node000003"><a xlink:title=" ">
<polygon fill="#e0e0e0" stroke="#999999" points="73.75,-19.25 0,-19.25 0,0 73.75,0 73.75,-19.25"/>
<text text-anchor="middle" x="36.88" y="-5.75" font-family="Helvetica,sans-Serif" font-size="10.00">ArrayKernel.h</text>
</a>
</g>
</g>
<!-- Node2&#45;&gt;Node3 -->
<g id="edge2_Node000002_Node000003" class="edge">
<title>Node2&#45;&gt;Node3</title>
<g id="a_edge2_Node000002_Node000003"><a xlink:title=" ">
<path fill="none" stroke="#63b8ff" d="M60.25,-55.08C56.63,-48.19 51.45,-38.34 46.88,-29.66"/>
<polygon fill="#63b8ff" stroke="#63b8ff" points="50.06,-28.17 42.3,-20.95 43.86,-31.43 50.06,-28.17"/>
</a>
</g>
</g>
<!-- Node5 -->
<g id="Node000005" class="node">
<title>Node5</title>
<g id="a_Node000005"><a xlink:title=" ">
<polygon fill="#e0e0e0" stroke="#999999" points="144.25,-19.25 91.5,-19.25 91.5,0 144.25,0 144.25,-19.25"/>
<text text-anchor="middle" x="117.88" y="-5.75" font-family="Helvetica,sans-Serif" font-size="10.00">Moose.h</text>
</a>
</g>
</g>
<!-- Node4&#45;&gt;Node5 -->
<g id="edge4_Node000004_Node000005" class="edge">
<title>Node4&#45;&gt;Node5</title>
<g id="a_edge4_Node000004_Node000005"><a xlink:title=" ">
<path fill="none" stroke="#63b8ff" d="M175.17,-54.84C165.1,-47.07 150.33,-35.67 138.31,-26.4"/>
<polygon fill="#63b8ff" stroke="#63b8ff" points="140.66,-23.79 130.61,-20.45 136.38,-29.33 140.66,-23.79"/>
</a>
</g>
</g>
<!-- Node6 -->
<g id="Node000006" class="node">
<title>Node6</title>
<g id="a_Node000006"><a xlink:title=" ">
<polygon fill="#e0e0e0" stroke="#999999" points="241.38,-19.25 162.38,-19.25 162.38,0 241.38,0 241.38,-19.25"/>
<text text-anchor="middle" x="201.88" y="-5.75" font-family="Helvetica,sans-Serif" font-size="10.00">MooseTypes.h</text>
</a>
</g>
</g>
<!-- Node4&#45;&gt;Node6 -->
<g id="edge5_Node000004_Node000006" class="edge">
<title>Node4&#45;&gt;Node6</title>
<g id="a_edge5_Node000004_Node000006"><a xlink:title=" ">
<path fill="none" stroke="#63b8ff" d="M189.35,-55.08C191.23,-48.42 193.88,-38.99 196.27,-30.53"/>
<polygon fill="#63b8ff" stroke="#63b8ff" points="199.59,-31.64 198.93,-21.07 192.85,-29.74 199.59,-31.64"/>
</a>
</g>
</g>
<!-- Node7 -->
<g id="Node000007" class="node">
<title>Node7</title>
<g id="a_Node000007"><a xlink:title=" ">
<polygon fill="#e0e0e0" stroke="#999999" points="324.62,-19.25 259.12,-19.25 259.12,0 324.62,0 324.62,-19.25"/>
<text text-anchor="middle" x="291.88" y="-5.75" font-family="Helvetica,sans-Serif" font-size="10.00">MathUtils.h</text>
</a>
</g>
</g>
<!-- Node4&#45;&gt;Node7 -->
<g id="edge6_Node000004_Node000007" class="edge">
<title>Node4&#45;&gt;Node7</title>
<g id="a_edge6_Node000004_Node000007"><a xlink:title=" ">
<path fill="none" stroke="#63b8ff" d="M204.69,-54.84C220.9,-46.62 245.11,-34.34 263.91,-24.81"/>
<polygon fill="#63b8ff" stroke="#63b8ff" points="265.29,-28.03 272.63,-20.39 262.12,-21.79 265.29,-28.03"/>
</a>
</g>
</g>
</g>
</svg>
</svg>

<style type='text/css'>
<![CDATA[
[data-mouse-over-selected='false'] { opacity: 0.7; }
[data-mouse-over-selected='true']  { opacity: 1.0; }
]]>
</style>
<script type="application/ecmascript"><![CDATA[
document.addEventListener('DOMContentLoaded', (event) => {
  highlightEdges();
  highlightAdjacentNodes();
});
]]></script>
</svg>
