<?xml version="1.0" encoding="UTF-8" standalone="no"?>
<!DOCTYPE svg PUBLIC "-//W3C//DTD SVG 1.1//EN"
 "http://www.w3.org/Graphics/SVG/1.1/DTD/svg11.dtd">
<!-- Generated by graphviz version 12.2.0 (20241103.1931)
 -->
<!-- Title: src/bcs/SNVacuumBC.C Pages: 1 -->
<svg width="362pt" height="138pt"
 viewBox="0.00 0.00 362.25 137.75" xmlns="http://www.w3.org/2000/svg" xmlns:xlink="http://www.w3.org/1999/xlink">

<svg id="main" version="1.1" xmlns="http://www.w3.org/2000/svg" xmlns:xlink="http://www.w3.org/1999/xlink" xml:space="preserve">

<style type="text/css"><![CDATA[
.node, .edge {opacity: 0.7;}
.node.selected, .edge.selected {opacity: 1;}
.edge:hover path { stroke: red; }
.edge:hover polygon { stroke: red; fill: red; }
]]></style>
<script type="application/ecmascript" xlink:href="svg.min.js"/>
<svg id="graph" class="graph">
<g id="graph0" class="graph" transform="scale(1 1) rotate(0) translate(4 133.75)">
<title>src/bcs/SNVacuumBC.C</title>
<!-- Node1 -->
<g id="Node000001" class="node">
<title>Node1</title>
<g id="a_Node000001"><a xlink:title=" ">
<polygon fill="#999999" stroke="#666666" points="203.5,-129.75 79.5,-129.75 79.5,-110.5 203.5,-110.5 203.5,-129.75"/>
<text text-anchor="middle" x="141.5" y="-116.25" font-family="Helvetica,sans-Serif" font-size="10.00">src/bcs/SNVacuumBC.C</text>
</a>
</g>
</g>
<!-- Node2 -->
<g id="Node000002" class="node">
<title>Node2</title>
<g id="a_Node000002"><a xlink:href="_s_n_vacuum_b_c_8h.html" target="_top" xlink:title=" ">
<polygon fill="white" stroke="#666666" points="135.12,-74.5 47.88,-74.5 47.88,-55.25 135.12,-55.25 135.12,-74.5"/>
<text text-anchor="middle" x="91.5" y="-61" font-family="Helvetica,sans-Serif" font-size="10.00">SNVacuumBC.h</text>
</a>
</g>
</g>
<!-- Node1&#45;&gt;Node2 -->
<g id="edge1_Node000001_Node000002" class="edge">
<title>Node1&#45;&gt;Node2</title>
<g id="a_edge1_Node000001_Node000002"><a xlink:title=" ">
<path fill="none" stroke="#63b8ff" d="M133.24,-110.33C126.34,-102.98 116.28,-92.26 107.76,-83.19"/>
<polygon fill="#63b8ff" stroke="#63b8ff" points="110.37,-80.86 100.97,-75.96 105.27,-85.65 110.37,-80.86"/>
</a>
</g>
</g>
<!-- Node4 -->
<g id="Node000004" class="node">
<title>Node4</title>
<g id="a_Node000004"><a xlink:href="_moltres_utils_8h.html" target="_top" xlink:title=" ">
<polygon fill="white" stroke="#666666" points="249.5,-74.5 173.5,-74.5 173.5,-55.25 249.5,-55.25 249.5,-74.5"/>
<text text-anchor="middle" x="211.5" y="-61" font-family="Helvetica,sans-Serif" font-size="10.00">MoltresUtils.h</text>
</a>
</g>
</g>
<!-- Node1&#45;&gt;Node4 -->
<g id="edge3_Node000001_Node000004" class="edge">
<title>Node1&#45;&gt;Node4</title>
<g id="a_edge3_Node000001_Node000004"><a xlink:title=" ">
<path fill="none" stroke="#63b8ff" d="M153.37,-110.09C163.59,-102.32 178.57,-90.92 190.76,-81.65"/>
<polygon fill="#63b8ff" stroke="#63b8ff" points="192.76,-84.53 198.6,-75.69 188.52,-78.96 192.76,-84.53"/>
</a>
</g>
</g>
<!-- Node3 -->
<g id="Node000003" class="node">
<title>Node3</title>
<g id="a_Node000003"><a xlink:title=" ">
<polygon fill="#e0e0e0" stroke="#999999" points="103,-19.25 0,-19.25 0,0 103,0 103,-19.25"/>
<text text-anchor="middle" x="51.5" y="-5.75" font-family="Helvetica,sans-Serif" font-size="10.00">ArrayIntegratedBC.h</text>
</a>
</g>
</g>
<!-- Node2&#45;&gt;Node3 -->
<g id="edge2_Node000002_Node000003" class="edge">
<title>Node2&#45;&gt;Node3</title>
<g id="a_edge2_Node000002_Node000003"><a xlink:title=" ">
<path fill="none" stroke="#63b8ff" d="M84.89,-55.08C79.54,-47.96 71.82,-37.68 65.15,-28.8"/>
<polygon fill="#63b8ff" stroke="#63b8ff" points="67.96,-26.71 59.16,-20.82 62.37,-30.92 67.96,-26.71"/>
</a>
</g>
</g>
<!-- Node5 -->
<g id="Node000005" class="node">
<title>Node5</title>
<g id="a_Node000005"><a xlink:title=" ">
<polygon fill="#e0e0e0" stroke="#999999" points="173.88,-19.25 121.12,-19.25 121.12,0 173.88,0 173.88,-19.25"/>
<text text-anchor="middle" x="147.5" y="-5.75" font-family="Helvetica,sans-Serif" font-size="10.00">Moose.h</text>
</a>
</g>
</g>
<!-- Node4&#45;&gt;Node5 -->
<g id="edge4_Node000004_Node000005" class="edge">
<title>Node4&#45;&gt;Node5</title>
<g id="a_edge4_Node000004_Node000005"><a xlink:title=" ">
<path fill="none" stroke="#63b8ff" d="M200.64,-54.84C191.39,-47.15 177.88,-35.9 166.79,-26.68"/>
<polygon fill="#63b8ff" stroke="#63b8ff" points="169.29,-24.2 159.36,-20.49 164.81,-29.58 169.29,-24.2"/>
</a>
</g>
</g>
<!-- Node6 -->
<g id="Node000006" class="node">
<title>Node6</title>
<g id="a_Node000006"><a xlink:title=" ">
<polygon fill="#e0e0e0" stroke="#999999" points="271,-19.25 192,-19.25 192,0 271,0 271,-19.25"/>
<text text-anchor="middle" x="231.5" y="-5.75" font-family="Helvetica,sans-Serif" font-size="10.00">MooseTypes.h</text>
</a>
</g>
</g>
<!-- Node4&#45;&gt;Node6 -->
<g id="edge5_Node000004_Node000006" class="edge">
<title>Node4&#45;&gt;Node6</title>
<g id="a_edge5_Node000004_Node000006"><a xlink:title=" ">
<path fill="none" stroke="#63b8ff" d="M214.8,-55.08C217.33,-48.34 220.93,-38.77 224.13,-30.24"/>
<polygon fill="#63b8ff" stroke="#63b8ff" points="227.35,-31.62 227.59,-21.03 220.8,-29.16 227.35,-31.62"/>
</a>
</g>
</g>
<!-- Node7 -->
<g id="Node000007" class="node">
<title>Node7</title>
<g id="a_Node000007"><a xlink:title=" ">
<polygon fill="#e0e0e0" stroke="#999999" points="354.25,-19.25 288.75,-19.25 288.75,0 354.25,0 354.25,-19.25"/>
<text text-anchor="middle" x="321.5" y="-5.75" font-family="Helvetica,sans-Serif" font-size="10.00">MathUtils.h</text>
</a>
</g>
</g>
<!-- Node4&#45;&gt;Node7 -->
<g id="edge6_Node000004_Node000007" class="edge">
<title>Node4&#45;&gt;Node7</title>
<g id="a_edge6_Node000004_Node000007"><a xlink:title=" ">
<path fill="none" stroke="#63b8ff" d="M230.16,-54.84C247.23,-46.58 272.74,-34.23 292.47,-24.68"/>
<polygon fill="#63b8ff" stroke="#63b8ff" points="293.91,-27.87 301.39,-20.36 290.86,-21.57 293.91,-27.87"/>
</a>
</g>
</g>
</g>
</svg>
</svg>

<style type='text/css'>
<![CDATA[
[data-mouse-over-selected='false'] { opacity: 0.7; }
[data-mouse-over-selected='true']  { opacity: 1.0; }
]]>
</style>
<script type="application/ecmascript"><![CDATA[
document.addEventListener('DOMContentLoaded', (event) => {
  highlightEdges();
  highlightAdjacentNodes();
});
]]></script>
</svg>
