<?xml version="1.0" encoding="UTF-8" standalone="no"?>
<!DOCTYPE svg PUBLIC "-//W3C//DTD SVG 1.1//EN"
 "http://www.w3.org/Graphics/SVG/1.1/DTD/svg11.dtd">
<!-- Generated by graphviz version 12.2.0 (20241103.1931)
 -->
<!-- Title: src/kernels/SNFission.C Pages: 1 -->
<svg width="215pt" height="138pt"
 viewBox="0.00 0.00 214.75 137.75" xmlns="http://www.w3.org/2000/svg" xmlns:xlink="http://www.w3.org/1999/xlink">
<g id="graph0" class="graph" transform="scale(1 1) rotate(0) translate(4 133.75)">
<title>src/kernels/SNFission.C</title>
<!-- Node1 -->
<g id="Node000001" class="node">
<title>Node1</title>
<g id="a_Node000001"><a xlink:title=" ">
<polygon fill="#999999" stroke="#666666" points="185.75,-129.75 64,-129.75 64,-110.5 185.75,-110.5 185.75,-129.75"/>
<text text-anchor="middle" x="124.88" y="-116.25" font-family="Helvetica,sans-Serif" font-size="10.00">src/kernels/SNFission.C</text>
</a>
</g>
</g>
<!-- Node2 -->
<g id="Node000002" class="node">
<title>Node2</title>
<g id="a_Node000002"><a xlink:href="_s_n_fission_8h.html" target="_top" xlink:title=" ">
<polygon fill="white" stroke="#666666" points="114.5,-74.5 45.25,-74.5 45.25,-55.25 114.5,-55.25 114.5,-74.5"/>
<text text-anchor="middle" x="79.88" y="-61" font-family="Helvetica,sans-Serif" font-size="10.00">SNFission.h</text>
</a>
</g>
</g>
<!-- Node1&#45;&gt;Node2 -->
<g id="edge1_Node000001_Node000002" class="edge">
<title>Node1&#45;&gt;Node2</title>
<g id="a_edge1_Node000001_Node000002"><a xlink:title=" ">
<path fill="none" stroke="#63b8ff" d="M117.44,-110.33C111.29,-103.05 102.36,-92.48 94.75,-83.48"/>
<polygon fill="#63b8ff" stroke="#63b8ff" points="97.57,-81.39 88.44,-76.02 92.23,-85.91 97.57,-81.39"/>
</a>
</g>
</g>
<!-- Node5 -->
<g id="Node000005" class="node">
<title>Node5</title>
<g id="a_Node000005"><a xlink:title=" ">
<polygon fill="#e0e0e0" stroke="#999999" points="206.75,-74.5 133,-74.5 133,-55.25 206.75,-55.25 206.75,-74.5"/>
<text text-anchor="middle" x="169.88" y="-61" font-family="Helvetica,sans-Serif" font-size="10.00">Executioner.h</text>
</a>
</g>
</g>
<!-- Node1&#45;&gt;Node5 -->
<g id="edge4_Node000001_Node000005" class="edge">
<title>Node1&#45;&gt;Node5</title>
<g id="a_edge4_Node000001_Node000005"><a xlink:title=" ">
<path fill="none" stroke="#63b8ff" d="M132.31,-110.33C138.46,-103.05 147.39,-92.48 155,-83.48"/>
<polygon fill="#63b8ff" stroke="#63b8ff" points="157.52,-85.91 161.31,-76.02 152.18,-81.39 157.52,-85.91"/>
</a>
</g>
</g>
<!-- Node3 -->
<g id="Node000003" class="node">
<title>Node3</title>
<g id="a_Node000003"><a xlink:title=" ">
<polygon fill="#e0e0e0" stroke="#999999" points="73.75,-19.25 0,-19.25 0,0 73.75,0 73.75,-19.25"/>
<text text-anchor="middle" x="36.88" y="-5.75" font-family="Helvetica,sans-Serif" font-size="10.00">ArrayKernel.h</text>
</a>
</g>
</g>
<!-- Node2&#45;&gt;Node3 -->
<g id="edge2_Node000002_Node000003" class="edge">
<title>Node2&#45;&gt;Node3</title>
<g id="a_edge2_Node000002_Node000003"><a xlink:title=" ">
<path fill="none" stroke="#63b8ff" d="M72.77,-55.08C66.96,-47.88 58.54,-37.46 51.32,-28.51"/>
<polygon fill="#63b8ff" stroke="#63b8ff" points="54.09,-26.37 45.08,-20.79 48.64,-30.77 54.09,-26.37"/>
</a>
</g>
</g>
<!-- Node4 -->
<g id="Node000004" class="node">
<title>Node4</title>
<g id="a_Node000004"><a xlink:title=" ">
<polygon fill="#e0e0e0" stroke="#999999" points="155.5,-19.25 92.25,-19.25 92.25,0 155.5,0 155.5,-19.25"/>
<text text-anchor="middle" x="123.88" y="-5.75" font-family="Helvetica,sans-Serif" font-size="10.00">Eigen/Core</text>
</a>
</g>
</g>
<!-- Node2&#45;&gt;Node4 -->
<g id="edge3_Node000002_Node000004" class="edge">
<title>Node2&#45;&gt;Node4</title>
<g id="a_edge3_Node000002_Node000004"><a xlink:title=" ">
<path fill="none" stroke="#63b8ff" d="M87.14,-55.08C93.16,-47.8 101.89,-37.23 109.33,-28.23"/>
<polygon fill="#63b8ff" stroke="#63b8ff" points="111.82,-30.71 115.49,-20.78 106.42,-26.26 111.82,-30.71"/>
</a>
</g>
</g>
</g>
</svg>
