<?xml version="1.0" encoding="UTF-8" standalone="no"?>
<!DOCTYPE svg PUBLIC "-//W3C//DTD SVG 1.1//EN"
 "http://www.w3.org/Graphics/SVG/1.1/DTD/svg11.dtd">
<!-- Generated by graphviz version 7.0.4 (20221203.1631)
 -->
<!-- Title: src/base/ScalarTransportBase.C Pages: 1 -->
<svg width="309pt" height="148pt"
 viewBox="0.00 0.00 309.00 148.00" xmlns="http://www.w3.org/2000/svg" xmlns:xlink="http://www.w3.org/1999/xlink">
<g id="graph0" class="graph" transform="scale(1 1) rotate(0) translate(4 144)">
<title>src/base/ScalarTransportBase.C</title>
<!-- Node1 -->
<g id="node1" class="node">
<title>Node1</title>
<g id="a_node1"><a xlink:title=" ">
<polygon fill="#999999" stroke="#666666" points="239,-140 113,-140 113,-110 239,-110 239,-140"/>
<text text-anchor="start" x="121" y="-128" font-family="Helvetica,sans-Serif" font-size="10.00">src/base/ScalarTransport</text>
<text text-anchor="middle" x="176" y="-117" font-family="Helvetica,sans-Serif" font-size="10.00">Base.C</text>
</a>
</g>
</g>
<!-- Node2 -->
<g id="node2" class="node">
<title>Node2</title>
<g id="a_node2"><a xlink:href="_scalar_transport_base_8h.html" target="_top" xlink:title=" ">
<polygon fill="white" stroke="#666666" points="167,-74 51,-74 51,-55 167,-55 167,-74"/>
<text text-anchor="middle" x="109" y="-62" font-family="Helvetica,sans-Serif" font-size="10.00">ScalarTransportBase.h</text>
</a>
</g>
</g>
<!-- Node1&#45;&gt;Node2 -->
<g id="edge1" class="edge">
<title>Node1&#45;&gt;Node2</title>
<path fill="none" stroke="#63b8ff" d="M159.44,-109.54C149.71,-101.04 137.39,-90.29 127.36,-81.53"/>
<polygon fill="#63b8ff" stroke="#63b8ff" points="129.91,-79.11 120.08,-75.17 125.31,-84.38 129.91,-79.11"/>
</g>
<!-- Node5 -->
<g id="node5" class="node">
<title>Node5</title>
<g id="a_node5"><a xlink:title=" ">
<polygon fill="#e0e0e0" stroke="#999999" points="301,-74 185,-74 185,-55 301,-55 301,-74"/>
<text text-anchor="middle" x="243" y="-62" font-family="Helvetica,sans-Serif" font-size="10.00">libmesh/vector_value.h</text>
</a>
</g>
</g>
<!-- Node1&#45;&gt;Node5 -->
<g id="edge4" class="edge">
<title>Node1&#45;&gt;Node5</title>
<path fill="none" stroke="#63b8ff" d="M192.56,-109.54C202.29,-101.04 214.61,-90.29 224.64,-81.53"/>
<polygon fill="#63b8ff" stroke="#63b8ff" points="226.69,-84.38 231.92,-75.17 222.09,-79.11 226.69,-84.38"/>
</g>
<!-- Node3 -->
<g id="node3" class="node">
<title>Node3</title>
<g id="a_node3"><a xlink:title=" ">
<polygon fill="#e0e0e0" stroke="#999999" points="96,-19 0,-19 0,0 96,0 96,-19"/>
<text text-anchor="middle" x="48" y="-7" font-family="Helvetica,sans-Serif" font-size="10.00">InputParameters.h</text>
</a>
</g>
</g>
<!-- Node2&#45;&gt;Node3 -->
<g id="edge2" class="edge">
<title>Node2&#45;&gt;Node3</title>
<path fill="none" stroke="#63b8ff" d="M98.65,-54.51C89.92,-46.93 77.21,-35.88 66.7,-26.75"/>
<polygon fill="#63b8ff" stroke="#63b8ff" points="69.18,-24.27 59.34,-20.35 64.59,-29.55 69.18,-24.27"/>
</g>
<!-- Node4 -->
<g id="node4" class="node">
<title>Node4</title>
<g id="a_node4"><a xlink:title=" ">
<polygon fill="#e0e0e0" stroke="#999999" points="225.5,-19 114.5,-19 114.5,0 225.5,0 225.5,-19"/>
<text text-anchor="middle" x="170" y="-7" font-family="Helvetica,sans-Serif" font-size="10.00">MooseVariableBase.h</text>
</a>
</g>
</g>
<!-- Node2&#45;&gt;Node4 -->
<g id="edge3" class="edge">
<title>Node2&#45;&gt;Node4</title>
<path fill="none" stroke="#63b8ff" d="M119.35,-54.51C128.08,-46.93 140.79,-35.88 151.3,-26.75"/>
<polygon fill="#63b8ff" stroke="#63b8ff" points="153.41,-29.55 158.66,-20.35 148.82,-24.27 153.41,-29.55"/>
</g>
</g>
</svg>
