<?xml version="1.0" encoding="UTF-8" standalone="no"?>
<!DOCTYPE svg PUBLIC "-//W3C//DTD SVG 1.1//EN"
 "http://www.w3.org/Graphics/SVG/1.1/DTD/svg11.dtd">
<!-- Generated by graphviz version 7.0.5 (20221223.1930)
 -->
<!-- Title: include/base/ScalarTransportBase.h Pages: 1 -->
<!--zoomable 170 -->
<svg id="main" version="1.1" xmlns="http://www.w3.org/2000/svg" xmlns:xlink="http://www.w3.org/1999/xlink" xml:space="preserve" onload="init(evt)">
<style type="text/css"><![CDATA[
.edge:hover path { stroke: red; }
.edge:hover polygon { stroke: red; fill: red; }
]]></style>
<script type="text/javascript"><![CDATA[
var edges = document.getElementsByTagName('g');
if (edges && edges.length) {
  for (var i=0;i<edges.length;i++) {
    if (edges[i].id.substr(0,4)=='edge') {
      edges[i].setAttribute('class','edge');
    }
  }
}
]]></script>
        <defs>
                <circle id="rim" cx="0" cy="0" r="7"/>
                <circle id="rim2" cx="0" cy="0" r="3.5"/>
                <g id="zoomPlus">
                        <use xlink:href="#rim" fill="#404040">
                                <set attributeName="fill" to="#808080" begin="zoomplus.mouseover" end="zoomplus.mouseout"/>
                        </use>
                        <path d="M-4,0h8M0,-4v8" fill="none" stroke="white" stroke-width="1.5" pointer-events="none"/>
                </g>
                <g id="zoomMin">
                        <use xlink:href="#rim" fill="#404040">
                                <set attributeName="fill" to="#808080" begin="zoomminus.mouseover" end="zoomminus.mouseout"/>
                        </use>
                        <path d="M-4,0h8" fill="none" stroke="white" stroke-width="1.5" pointer-events="none"/>
                </g>
                <g id="dirArrow">
                        <path fill="none" stroke="white" stroke-width="1.5" d="M0,-3.0v7 M-2.5,-0.5L0,-3.0L2.5,-0.5"/>
                </g>
               <g id="resetDef">
                       <use xlink:href="#rim2" fill="#404040">
                               <set attributeName="fill" to="#808080" begin="reset.mouseover" end="reset.mouseout"/>
                       </use>
               </g>
        </defs>

<script type="text/javascript">
var viewWidth = 4247;
var viewHeight = 170;
var sectionId = 'dynsection-1';
</script>
<script xlink:href="svgpan.js"/>
<svg id="graph" class="graph">
<g id="viewport">
<title>include/base/ScalarTransportBase.h</title>
<!-- Node1 -->
<g id="node1" class="node">
<title>Node1</title>
<g id="a_node1"><a xlink:title=" ">
<polygon fill="#999999" stroke="#666666" points="2244.5,-162 2101.5,-162 2101.5,-132 2244.5,-132 2244.5,-162"/>
<text text-anchor="start" x="2109.5" y="-150" font-family="Helvetica,sans-Serif" font-size="10.00">include/base/ScalarTransport</text>
<text text-anchor="middle" x="2173" y="-139" font-family="Helvetica,sans-Serif" font-size="10.00">Base.h</text>
</a>
</g>
</g>
<!-- Node2 -->
<g id="node2" class="node">
<title>Node2</title>
<g id="a_node2"><a xlink:href="_coupled_scalar_advection_no_b_c_b_c_8h.html" target="_top" xlink:title=" ">
<polygon fill="white" stroke="#666666" points="164,-96 32,-96 32,-66 164,-66 164,-96"/>
<text text-anchor="start" x="40" y="-84" font-family="Helvetica,sans-Serif" font-size="10.00">include/bcs/CoupledScalar</text>
<text text-anchor="middle" x="98" y="-73" font-family="Helvetica,sans-Serif" font-size="10.00">AdvectionNoBCBC.h</text>
</a>
</g>
</g>
<!-- Node1&#45;&gt;Node2 -->
<g id="edge1" class="edge">
<title>Node1&#45;&gt;Node2</title>
<path fill="none" stroke="#63b8ff" d="M2089.9,-145.32C1763.27,-142.42 566.96,-129.7 189,-96 181.04,-95.29 172.72,-94.32 164.48,-93.23"/>
<polygon fill="#63b8ff" stroke="#63b8ff" points="2089.61,-148.82 2099.64,-145.4 2089.67,-141.82 2089.61,-148.82"/>
</g>
<!-- Node4 -->
<g id="node4" class="node">
<title>Node4</title>
<g id="a_node4"><a xlink:href="_lin_log_penalty_dirichlet_b_c_8h.html" target="_top" xlink:title=" ">
<polygon fill="white" stroke="#666666" points="329.5,-96 198.5,-96 198.5,-66 329.5,-66 329.5,-96"/>
<text text-anchor="start" x="206.5" y="-84" font-family="Helvetica,sans-Serif" font-size="10.00">include/bcs/LinLogPenalty</text>
<text text-anchor="middle" x="264" y="-73" font-family="Helvetica,sans-Serif" font-size="10.00">DirichletBC.h</text>
</a>
</g>
</g>
<!-- Node1&#45;&gt;Node4 -->
<g id="edge3" class="edge">
<title>Node1&#45;&gt;Node4</title>
<path fill="none" stroke="#63b8ff" d="M2089.94,-145.37C1779.68,-142.74 688.81,-131.17 343,-96 338.7,-95.56 334.29,-95.03 329.85,-94.42"/>
<polygon fill="#63b8ff" stroke="#63b8ff" points="2089.54,-148.86 2099.57,-145.45 2089.6,-141.86 2089.54,-148.86"/>
</g>
<!-- Node6 -->
<g id="node6" class="node">
<title>Node6</title>
<g id="a_node6"><a xlink:href="_scalar_advection_art_diff_no_b_c_b_c_8h.html" target="_top" xlink:title=" ">
<polygon fill="white" stroke="#666666" points="492,-96 352,-96 352,-66 492,-66 492,-96"/>
<text text-anchor="start" x="360" y="-84" font-family="Helvetica,sans-Serif" font-size="10.00">include/bcs/ScalarAdvection</text>
<text text-anchor="middle" x="422" y="-73" font-family="Helvetica,sans-Serif" font-size="10.00">ArtDiffNoBCBC.h</text>
</a>
</g>
</g>
<!-- Node1&#45;&gt;Node6 -->
<g id="edge5" class="edge">
<title>Node1&#45;&gt;Node6</title>
<path fill="none" stroke="#63b8ff" d="M2089.64,-145.11C1796.53,-141.74 814.22,-128.26 501,-96 498.09,-95.7 495.13,-95.36 492.14,-94.98"/>
<polygon fill="#63b8ff" stroke="#63b8ff" points="2089.46,-148.61 2099.5,-145.23 2089.54,-141.61 2089.46,-148.61"/>
</g>
<!-- Node8 -->
<g id="node8" class="node">
<title>Node8</title>
<g id="a_node8"><a xlink:href="_vacuum_conc_b_c_8h.html" target="_top" xlink:title=" ">
<polygon fill="white" stroke="#666666" points="659.5,-90.5 510.5,-90.5 510.5,-71.5 659.5,-71.5 659.5,-90.5"/>
<text text-anchor="middle" x="585" y="-78.5" font-family="Helvetica,sans-Serif" font-size="10.00">include/bcs/VacuumConcBC.h</text>
</a>
</g>
</g>
<!-- Node1&#45;&gt;Node8 -->
<g id="edge7" class="edge">
<title>Node1&#45;&gt;Node8</title>
<path fill="none" stroke="#63b8ff" d="M2089.86,-144.68C1816.65,-140.12 948.04,-123.77 669,-96 656.94,-94.8 643.98,-92.93 631.95,-90.95"/>
<polygon fill="#63b8ff" stroke="#63b8ff" points="2089.69,-148.18 2099.75,-144.85 2089.81,-141.18 2089.69,-148.18"/>
</g>
<!-- Node10 -->
<g id="node10" class="node">
<title>Node10</title>
<g id="a_node10"><a xlink:href="_coupled_fission_eigen_kernel_8h.html" target="_top" xlink:title=" ">
<polygon fill="white" stroke="#666666" points="830,-96 678,-96 678,-66 830,-66 830,-96"/>
<text text-anchor="start" x="686" y="-84" font-family="Helvetica,sans-Serif" font-size="10.00">include/kernels/CoupledFission</text>
<text text-anchor="middle" x="754" y="-73" font-family="Helvetica,sans-Serif" font-size="10.00">EigenKernel.h</text>
</a>
</g>
</g>
<!-- Node1&#45;&gt;Node10 -->
<g id="edge9" class="edge">
<title>Node1&#45;&gt;Node10</title>
<path fill="none" stroke="#63b8ff" d="M2089.97,-146.51C1879.92,-147.01 1310.54,-143.48 839,-96 836.17,-95.72 833.3,-95.4 830.4,-95.05"/>
<polygon fill="#63b8ff" stroke="#63b8ff" points="2089.7,-150.01 2099.69,-146.48 2089.68,-143.01 2089.7,-150.01"/>
</g>
<!-- Node12 -->
<g id="node12" class="node">
<title>Node12</title>
<g id="a_node12"><a xlink:href="_coupled_fission_kernel_8h.html" target="_top" xlink:title=" ">
<polygon fill="white" stroke="#666666" points="1000,-96 848,-96 848,-66 1000,-66 1000,-96"/>
<text text-anchor="start" x="856" y="-84" font-family="Helvetica,sans-Serif" font-size="10.00">include/kernels/CoupledFission</text>
<text text-anchor="middle" x="924" y="-73" font-family="Helvetica,sans-Serif" font-size="10.00">Kernel.h</text>
</a>
</g>
</g>
<!-- Node1&#45;&gt;Node12 -->
<g id="edge11" class="edge">
<title>Node1&#45;&gt;Node12</title>
<path fill="none" stroke="#63b8ff" d="M2089.91,-145.86C1898.65,-144.78 1412.7,-137.76 1009,-96 1006.17,-95.71 1003.3,-95.38 1000.4,-95.03"/>
<polygon fill="#63b8ff" stroke="#63b8ff" points="2089.72,-149.35 2099.74,-145.91 2089.76,-142.35 2089.72,-149.35"/>
</g>
<!-- Node14 -->
<g id="node14" class="node">
<title>Node14</title>
<g id="a_node14"><a xlink:href="_coupled_scalar_advection_8h.html" target="_top" xlink:title=" ">
<polygon fill="white" stroke="#666666" points="1166,-96 1018,-96 1018,-66 1166,-66 1166,-96"/>
<text text-anchor="start" x="1026" y="-84" font-family="Helvetica,sans-Serif" font-size="10.00">include/kernels/CoupledScalar</text>
<text text-anchor="middle" x="1092" y="-73" font-family="Helvetica,sans-Serif" font-size="10.00">Advection.h</text>
</a>
</g>
</g>
<!-- Node1&#45;&gt;Node14 -->
<g id="edge13" class="edge">
<title>Node1&#45;&gt;Node14</title>
<path fill="none" stroke="#63b8ff" d="M2089.61,-145.12C1917.94,-142.57 1512.8,-132.82 1175,-96 1172.09,-95.68 1169.14,-95.33 1166.15,-94.95"/>
<polygon fill="#63b8ff" stroke="#63b8ff" points="2089.5,-148.61 2099.55,-145.26 2089.6,-141.61 2089.5,-148.61"/>
</g>
<!-- Node16 -->
<g id="node16" class="node">
<title>Node16</title>
<g id="a_node16"><a xlink:href="_decay_heat_source_8h.html" target="_top" xlink:title=" ">
<polygon fill="white" stroke="#666666" points="1317.5,-96 1184.5,-96 1184.5,-66 1317.5,-66 1317.5,-96"/>
<text text-anchor="start" x="1192.5" y="-84" font-family="Helvetica,sans-Serif" font-size="10.00">include/kernels/DecayHeat</text>
<text text-anchor="middle" x="1251" y="-73" font-family="Helvetica,sans-Serif" font-size="10.00">Source.h</text>
</a>
</g>
</g>
<!-- Node1&#45;&gt;Node16 -->
<g id="edge15" class="edge">
<title>Node1&#45;&gt;Node16</title>
<path fill="none" stroke="#63b8ff" d="M2090.09,-144.48C1938.22,-140.96 1605.4,-129.74 1327,-96 1323.94,-95.63 1320.81,-95.21 1317.66,-94.76"/>
<polygon fill="#63b8ff" stroke="#63b8ff" points="2089.56,-147.97 2099.63,-144.7 2089.72,-140.97 2089.56,-147.97"/>
</g>
<!-- Node18 -->
<g id="node18" class="node">
<title>Node18</title>
<g id="a_node18"><a xlink:href="_delayed_neutron_source_8h.html" target="_top" xlink:title=" ">
<polygon fill="white" stroke="#666666" points="1490,-96 1336,-96 1336,-66 1490,-66 1490,-96"/>
<text text-anchor="start" x="1344" y="-84" font-family="Helvetica,sans-Serif" font-size="10.00">include/kernels/DelayedNeutron</text>
<text text-anchor="middle" x="1413" y="-73" font-family="Helvetica,sans-Serif" font-size="10.00">Source.h</text>
</a>
</g>
</g>
<!-- Node1&#45;&gt;Node18 -->
<g id="edge17" class="edge">
<title>Node1&#45;&gt;Node18</title>
<path fill="none" stroke="#63b8ff" d="M2090.29,-142.19C1962.95,-135.81 1711.36,-121.11 1499,-96 1496.15,-95.66 1493.24,-95.3 1490.31,-94.91"/>
<polygon fill="#63b8ff" stroke="#63b8ff" points="2089.8,-145.67 2099.96,-142.67 2090.15,-138.68 2089.8,-145.67"/>
</g>
<!-- Node20 -->
<g id="node20" class="node">
<title>Node20</title>
<g id="a_node20"><a xlink:href="_div_free_coupled_scalar_advection_8h.html" target="_top" xlink:title=" ">
<polygon fill="white" stroke="#666666" points="1662,-96 1508,-96 1508,-66 1662,-66 1662,-96"/>
<text text-anchor="start" x="1516" y="-84" font-family="Helvetica,sans-Serif" font-size="10.00">include/kernels/DivFreeCoupled</text>
<text text-anchor="middle" x="1585" y="-73" font-family="Helvetica,sans-Serif" font-size="10.00">ScalarAdvection.h</text>
</a>
</g>
</g>
<!-- Node1&#45;&gt;Node20 -->
<g id="edge19" class="edge">
<title>Node1&#45;&gt;Node20</title>
<path fill="none" stroke="#63b8ff" d="M2090.15,-139.34C1990.48,-130.95 1818.17,-115.29 1671,-96 1668.15,-95.63 1665.25,-95.23 1662.32,-94.82"/>
<polygon fill="#63b8ff" stroke="#63b8ff" points="2089.58,-142.8 2099.84,-140.15 2090.17,-135.82 2089.58,-142.8"/>
</g>
<!-- Node22 -->
<g id="node22" class="node">
<title>Node22</title>
<g id="a_node22"><a xlink:href="_group_diffusion_8h.html" target="_top" xlink:title=" ">
<polygon fill="white" stroke="#666666" points="1836,-90.5 1680,-90.5 1680,-71.5 1836,-71.5 1836,-90.5"/>
<text text-anchor="middle" x="1758" y="-78.5" font-family="Helvetica,sans-Serif" font-size="10.00">include/kernels/GroupDiffusion.h</text>
</a>
</g>
</g>
<!-- Node1&#45;&gt;Node22 -->
<g id="edge21" class="edge">
<title>Node1&#45;&gt;Node22</title>
<path fill="none" stroke="#63b8ff" d="M2090.1,-133.56C2023.77,-123.55 1928.38,-109.06 1845,-96 1834.72,-94.39 1823.77,-92.65 1813.22,-90.96"/>
<polygon fill="#63b8ff" stroke="#63b8ff" points="2089.4,-136.99 2099.81,-135.02 2090.45,-130.07 2089.4,-136.99"/>
</g>
<!-- Node24 -->
<g id="node24" class="node">
<title>Node24</title>
<g id="a_node24"><a xlink:href="_heat_precursor_decay_8h.html" target="_top" xlink:title=" ">
<polygon fill="white" stroke="#666666" points="2002,-96 1854,-96 1854,-66 2002,-66 2002,-96"/>
<text text-anchor="start" x="1862" y="-84" font-family="Helvetica,sans-Serif" font-size="10.00">include/kernels/HeatPrecursor</text>
<text text-anchor="middle" x="1928" y="-73" font-family="Helvetica,sans-Serif" font-size="10.00">Decay.h</text>
</a>
</g>
</g>
<!-- Node1&#45;&gt;Node24 -->
<g id="edge23" class="edge">
<title>Node1&#45;&gt;Node24</title>
<path fill="none" stroke="#63b8ff" d="M2107.05,-128.77C2068.27,-118.64 2019.81,-105.98 1983.09,-96.39"/>
<polygon fill="#63b8ff" stroke="#63b8ff" points="2105.69,-132.03 2116.25,-131.17 2107.46,-125.26 2105.69,-132.03"/>
</g>
<!-- Node26 -->
<g id="node26" class="node">
<title>Node26</title>
<g id="a_node26"><a xlink:href="_heat_precursor_source_8h.html" target="_top" xlink:title=" ">
<polygon fill="white" stroke="#666666" points="2168,-96 2020,-96 2020,-66 2168,-66 2168,-96"/>
<text text-anchor="start" x="2028" y="-84" font-family="Helvetica,sans-Serif" font-size="10.00">include/kernels/HeatPrecursor</text>
<text text-anchor="middle" x="2094" y="-73" font-family="Helvetica,sans-Serif" font-size="10.00">Source.h</text>
</a>
</g>
</g>
<!-- Node1&#45;&gt;Node26 -->
<g id="edge25" class="edge">
<title>Node1&#45;&gt;Node26</title>
<path fill="none" stroke="#63b8ff" d="M2146.71,-124.7C2135.22,-115.4 2122.06,-104.73 2111.76,-96.39"/>
<polygon fill="#63b8ff" stroke="#63b8ff" points="2144.32,-127.27 2154.29,-130.84 2148.72,-121.83 2144.32,-127.27"/>
</g>
<!-- Node28 -->
<g id="node28" class="node">
<title>Node28</title>
<g id="a_node28"><a xlink:href="_in_scatter_8h.html" target="_top" xlink:title=" ">
<polygon fill="white" stroke="#666666" points="2318,-90.5 2186,-90.5 2186,-71.5 2318,-71.5 2318,-90.5"/>
<text text-anchor="middle" x="2252" y="-78.5" font-family="Helvetica,sans-Serif" font-size="10.00">include/kernels/InScatter.h</text>
</a>
</g>
</g>
<!-- Node1&#45;&gt;Node28 -->
<g id="edge27" class="edge">
<title>Node1&#45;&gt;Node28</title>
<path fill="none" stroke="#63b8ff" d="M2199.41,-124.6C2213.62,-113.1 2230.37,-99.52 2241.08,-90.84"/>
<polygon fill="#63b8ff" stroke="#63b8ff" points="2197.28,-121.83 2191.71,-130.84 2201.68,-127.27 2197.28,-121.83"/>
</g>
<!-- Node30 -->
<g id="node30" class="node">
<title>Node30</title>
<g id="a_node30"><a xlink:href="_precursor_decay_8h.html" target="_top" xlink:title=" ">
<polygon fill="white" stroke="#666666" points="2463.5,-96 2336.5,-96 2336.5,-66 2463.5,-66 2463.5,-96"/>
<text text-anchor="start" x="2344.5" y="-84" font-family="Helvetica,sans-Serif" font-size="10.00">include/kernels/Precursor</text>
<text text-anchor="middle" x="2400" y="-73" font-family="Helvetica,sans-Serif" font-size="10.00">Decay.h</text>
</a>
</g>
</g>
<!-- Node1&#45;&gt;Node30 -->
<g id="edge29" class="edge">
<title>Node1&#45;&gt;Node30</title>
<path fill="none" stroke="#63b8ff" d="M2235.03,-128.51C2270.8,-118.43 2315.23,-105.9 2348.96,-96.39"/>
<polygon fill="#63b8ff" stroke="#63b8ff" points="2234.36,-125.06 2225.68,-131.15 2236.26,-131.8 2234.36,-125.06"/>
</g>
<!-- Node32 -->
<g id="node32" class="node">
<title>Node32</title>
<g id="a_node32"><a xlink:href="_precursor_eigen_source_8h.html" target="_top" xlink:title=" ">
<polygon fill="white" stroke="#666666" points="2608.5,-96 2481.5,-96 2481.5,-66 2608.5,-66 2608.5,-96"/>
<text text-anchor="start" x="2489.5" y="-84" font-family="Helvetica,sans-Serif" font-size="10.00">include/kernels/Precursor</text>
<text text-anchor="middle" x="2545" y="-73" font-family="Helvetica,sans-Serif" font-size="10.00">EigenSource.h</text>
</a>
</g>
</g>
<!-- Node1&#45;&gt;Node32 -->
<g id="edge31" class="edge">
<title>Node1&#45;&gt;Node32</title>
<path fill="none" stroke="#63b8ff" d="M2256.29,-132.62C2316.32,-122.84 2399.24,-109.06 2472,-96 2475.05,-95.45 2478.17,-94.89 2481.32,-94.31"/>
<polygon fill="#63b8ff" stroke="#63b8ff" points="2255.78,-129.15 2246.47,-134.21 2256.9,-136.06 2255.78,-129.15"/>
</g>
<!-- Node34 -->
<g id="node34" class="node">
<title>Node34</title>
<g id="a_node34"><a xlink:href="_precursor_source_8h.html" target="_top" xlink:title=" ">
<polygon fill="white" stroke="#666666" points="2753.5,-96 2626.5,-96 2626.5,-66 2753.5,-66 2753.5,-96"/>
<text text-anchor="start" x="2634.5" y="-84" font-family="Helvetica,sans-Serif" font-size="10.00">include/kernels/Precursor</text>
<text text-anchor="middle" x="2690" y="-73" font-family="Helvetica,sans-Serif" font-size="10.00">Source.h</text>
</a>
</g>
</g>
<!-- Node1&#45;&gt;Node34 -->
<g id="edge33" class="edge">
<title>Node1&#45;&gt;Node34</title>
<path fill="none" stroke="#63b8ff" d="M2256.16,-138.57C2345.56,-130.14 2491.73,-115.04 2617,-96 2620.06,-95.53 2623.19,-95.03 2626.35,-94.51"/>
<polygon fill="#63b8ff" stroke="#63b8ff" points="2255.88,-135.08 2246.25,-139.5 2256.53,-142.05 2255.88,-135.08"/>
</g>
<!-- Node36 -->
<g id="node36" class="node">
<title>Node36</title>
<g id="a_node36"><a xlink:href="_scalar_advection_art_diff_8h.html" target="_top" xlink:title=" ">
<polygon fill="white" stroke="#666666" points="2928,-96 2772,-96 2772,-66 2928,-66 2928,-96"/>
<text text-anchor="start" x="2780" y="-84" font-family="Helvetica,sans-Serif" font-size="10.00">include/kernels/ScalarAdvection</text>
<text text-anchor="middle" x="2850" y="-73" font-family="Helvetica,sans-Serif" font-size="10.00">ArtDiff.h</text>
</a>
</g>
</g>
<!-- Node1&#45;&gt;Node36 -->
<g id="edge35" class="edge">
<title>Node1&#45;&gt;Node36</title>
<path fill="none" stroke="#63b8ff" d="M2256.22,-140.86C2370.49,-133.36 2582.26,-117.9 2762,-96 2765.22,-95.61 2768.51,-95.18 2771.83,-94.74"/>
<polygon fill="#63b8ff" stroke="#63b8ff" points="2256.06,-137.36 2246.31,-141.5 2256.52,-144.35 2256.06,-137.36"/>
</g>
<!-- Node38 -->
<g id="node38" class="node">
<title>Node38</title>
<g id="a_node38"><a xlink:href="_scalar_transport_time_derivative_8h.html" target="_top" xlink:title=" ">
<polygon fill="white" stroke="#666666" points="3100,-96 2946,-96 2946,-66 3100,-66 3100,-96"/>
<text text-anchor="start" x="2954" y="-84" font-family="Helvetica,sans-Serif" font-size="10.00">include/kernels/ScalarTransport</text>
<text text-anchor="middle" x="3023" y="-73" font-family="Helvetica,sans-Serif" font-size="10.00">TimeDerivative.h</text>
</a>
</g>
</g>
<!-- Node1&#45;&gt;Node38 -->
<g id="edge37" class="edge">
<title>Node1&#45;&gt;Node38</title>
<path fill="none" stroke="#63b8ff" d="M2256.33,-143.17C2396.99,-137.8 2690.36,-124.08 2937,-96 2939.86,-95.67 2942.76,-95.32 2945.69,-94.94"/>
<polygon fill="#63b8ff" stroke="#63b8ff" points="2256.2,-139.67 2246.34,-143.54 2256.47,-146.66 2256.2,-139.67"/>
</g>
<!-- Node42 -->
<g id="node41" class="node">
<title>Node42</title>
<g id="a_node41"><a xlink:href="_sigma_r_8h.html" target="_top" xlink:title=" ">
<polygon fill="white" stroke="#666666" points="3245.5,-90.5 3118.5,-90.5 3118.5,-71.5 3245.5,-71.5 3245.5,-90.5"/>
<text text-anchor="middle" x="3182" y="-78.5" font-family="Helvetica,sans-Serif" font-size="10.00">include/kernels/SigmaR.h</text>
</a>
</g>
</g>
<!-- Node1&#45;&gt;Node42 -->
<g id="edge40" class="edge">
<title>Node1&#45;&gt;Node42</title>
<path fill="none" stroke="#63b8ff" d="M2256.35,-145.35C2420.27,-143.22 2795.87,-134.21 3109,-96 3119.25,-94.75 3130.22,-92.91 3140.46,-90.98"/>
<polygon fill="#63b8ff" stroke="#63b8ff" points="2256.39,-141.85 2246.43,-145.47 2256.48,-148.84 2256.39,-141.85"/>
</g>
<!-- Node44 -->
<g id="node43" class="node">
<title>Node44</title>
<g id="a_node43"><a xlink:href="_transient_fission_heat_source_8h.html" target="_top" xlink:title=" ">
<polygon fill="white" stroke="#666666" points="3388.5,-96 3263.5,-96 3263.5,-66 3388.5,-66 3388.5,-96"/>
<text text-anchor="start" x="3271.5" y="-84" font-family="Helvetica,sans-Serif" font-size="10.00">include/kernels/Transient</text>
<text text-anchor="middle" x="3326" y="-73" font-family="Helvetica,sans-Serif" font-size="10.00">FissionHeatSource.h</text>
</a>
</g>
</g>
<!-- Node1&#45;&gt;Node44 -->
<g id="edge42" class="edge">
<title>Node1&#45;&gt;Node44</title>
<path fill="none" stroke="#63b8ff" d="M2256.09,-146.27C2437.76,-145.97 2883.73,-140.32 3254,-96 3257.03,-95.64 3260.13,-95.22 3263.26,-94.76"/>
<polygon fill="#63b8ff" stroke="#63b8ff" points="2256.27,-142.77 2246.28,-146.28 2256.28,-149.77 2256.27,-142.77"/>
</g>
<!-- Node46 -->
<g id="node45" class="node">
<title>Node46</title>
<g id="a_node45"><a xlink:href="_elm_integ_tot_fiss_postprocessor_8h.html" target="_top" xlink:title=" ">
<polygon fill="#fff0f0" stroke="red" points="3567.5,-96 3406.5,-96 3406.5,-66 3567.5,-66 3567.5,-96"/>
<text text-anchor="start" x="3414.5" y="-84" font-family="Helvetica,sans-Serif" font-size="10.00">include/postprocessors</text>
<text text-anchor="middle" x="3487" y="-73" font-family="Helvetica,sans-Serif" font-size="10.00">/ElmIntegTotFissPostprocessor.h</text>
</a>
</g>
</g>
<!-- Node1&#45;&gt;Node46 -->
<g id="edge44" class="edge">
<title>Node1&#45;&gt;Node46</title>
<path fill="none" stroke="#63b8ff" d="M2256.48,-145.9C2454.9,-144.95 2970.17,-138.24 3398,-96 3400.65,-95.74 3403.33,-95.45 3406.04,-95.14"/>
<polygon fill="#63b8ff" stroke="#63b8ff" points="2256.5,-142.4 2246.51,-145.95 2256.53,-149.4 2256.5,-142.4"/>
</g>
<!-- Node52 -->
<g id="node47" class="node">
<title>Node52</title>
<g id="a_node47"><a xlink:href="_integral_new_variable_postprocessor_8h.html" target="_top" xlink:title=" ">
<polygon fill="#fff0f0" stroke="red" points="3764,-96 3586,-96 3586,-66 3764,-66 3764,-96"/>
<text text-anchor="start" x="3594" y="-84" font-family="Helvetica,sans-Serif" font-size="10.00">include/postprocessors</text>
<text text-anchor="middle" x="3675" y="-73" font-family="Helvetica,sans-Serif" font-size="10.00">/IntegralNewVariablePostprocessor.h</text>
</a>
</g>
</g>
<!-- Node1&#45;&gt;Node52 -->
<g id="edge46" class="edge">
<title>Node1&#45;&gt;Node52</title>
<path fill="none" stroke="#63b8ff" d="M2256.06,-146.12C2473.46,-145.76 3076.98,-140.49 3577,-96 3579.82,-95.75 3582.69,-95.47 3585.59,-95.17"/>
<polygon fill="#63b8ff" stroke="#63b8ff" points="2256.27,-142.62 2246.28,-146.13 2256.28,-149.62 2256.27,-142.62"/>
</g>
<!-- Node54 -->
<g id="node48" class="node">
<title>Node54</title>
<g id="a_node48"><a xlink:href="_integral_old_variable_postprocessor_8h.html" target="_top" xlink:title=" ">
<polygon fill="#fff0f0" stroke="red" points="3955.5,-96 3782.5,-96 3782.5,-66 3955.5,-66 3955.5,-96"/>
<text text-anchor="start" x="3790.5" y="-84" font-family="Helvetica,sans-Serif" font-size="10.00">include/postprocessors</text>
<text text-anchor="middle" x="3869" y="-73" font-family="Helvetica,sans-Serif" font-size="10.00">/IntegralOldVariablePostprocessor.h</text>
</a>
</g>
</g>
<!-- Node1&#45;&gt;Node54 -->
<g id="edge47" class="edge">
<title>Node1&#45;&gt;Node54</title>
<path fill="none" stroke="#63b8ff" d="M2256.06,-144.65C2540.45,-139.84 3474.01,-122.39 3773,-96 3776.02,-95.73 3779.09,-95.44 3782.19,-95.11"/>
<polygon fill="#63b8ff" stroke="#63b8ff" points="2256.06,-141.15 2246.12,-144.82 2256.18,-148.15 2256.06,-141.15"/>
</g>
<!-- Node56 -->
<g id="node49" class="node">
<title>Node56</title>
<g id="a_node49"><a xlink:href="_total_neutron_leakage_8h.html" target="_top" xlink:title=" ">
<polygon fill="#fff0f0" stroke="red" points="4094.5,-96 3973.5,-96 3973.5,-66 4094.5,-66 4094.5,-96"/>
<text text-anchor="start" x="3981.5" y="-84" font-family="Helvetica,sans-Serif" font-size="10.00">include/postprocessors</text>
<text text-anchor="middle" x="4034" y="-73" font-family="Helvetica,sans-Serif" font-size="10.00">/TotalNeutronLeakage.h</text>
</a>
</g>
</g>
<!-- Node1&#45;&gt;Node56 -->
<g id="edge48" class="edge">
<title>Node1&#45;&gt;Node56</title>
<path fill="none" stroke="#63b8ff" d="M2256.11,-145.58C2562.36,-143.74 3627.47,-134.66 3965,-96 3967.67,-95.69 3970.39,-95.34 3973.14,-94.94"/>
<polygon fill="#63b8ff" stroke="#63b8ff" points="2256.17,-142.08 2246.19,-145.64 2256.21,-149.08 2256.17,-142.08"/>
</g>
<!-- Node58 -->
<g id="node50" class="node">
<title>Node58</title>
<g id="a_node50"><a xlink:href="_scalar_transport_base_8_c.html" target="_top" xlink:title=" ">
<polygon fill="white" stroke="#666666" points="4239,-96 4113,-96 4113,-66 4239,-66 4239,-96"/>
<text text-anchor="start" x="4121" y="-84" font-family="Helvetica,sans-Serif" font-size="10.00">src/base/ScalarTransport</text>
<text text-anchor="middle" x="4176" y="-73" font-family="Helvetica,sans-Serif" font-size="10.00">Base.C</text>
</a>
</g>
</g>
<!-- Node1&#45;&gt;Node58 -->
<g id="edge49" class="edge">
<title>Node1&#45;&gt;Node58</title>
<path fill="none" stroke="#63b8ff" d="M2255.8,-145.69C2576.56,-144.2 3737.58,-136.09 4104,-96 4106.91,-95.68 4109.88,-95.31 4112.87,-94.89"/>
<polygon fill="#63b8ff" stroke="#63b8ff" points="2256.25,-142.19 2246.26,-145.73 2256.28,-149.19 2256.25,-142.19"/>
</g>
<!-- Node3 -->
<g id="node3" class="node">
<title>Node3</title>
<g id="a_node3"><a xlink:href="_coupled_scalar_advection_no_b_c_b_c_8_c.html" target="_top" xlink:title=" ">
<polygon fill="white" stroke="#666666" points="158,-30 0,-30 0,0 158,0 158,-30"/>
<text text-anchor="start" x="8" y="-18" font-family="Helvetica,sans-Serif" font-size="10.00">src/bcs/CoupledScalarAdvection</text>
<text text-anchor="middle" x="79" y="-7" font-family="Helvetica,sans-Serif" font-size="10.00">NoBCBC.C</text>
</a>
</g>
</g>
<!-- Node2&#45;&gt;Node3 -->
<g id="edge2" class="edge">
<title>Node2&#45;&gt;Node3</title>
<path fill="none" stroke="#63b8ff" d="M90.57,-54.97C88.07,-46.55 85.37,-37.45 83.2,-30.16"/>
<polygon fill="#63b8ff" stroke="#63b8ff" points="87.15,-55.76 93.35,-64.35 93.86,-53.76 87.15,-55.76"/>
</g>
<!-- Node5 -->
<g id="node5" class="node">
<title>Node5</title>
<g id="a_node5"><a xlink:href="_lin_log_penalty_dirichlet_b_c_8_c.html" target="_top" xlink:title=" ">
<polygon fill="white" stroke="#666666" points="348,-24.5 176,-24.5 176,-5.5 348,-5.5 348,-24.5"/>
<text text-anchor="middle" x="262" y="-12.5" font-family="Helvetica,sans-Serif" font-size="10.00">src/bcs/LinLogPenaltyDirichletBC.C</text>
</a>
</g>
</g>
<!-- Node4&#45;&gt;Node5 -->
<g id="edge4" class="edge">
<title>Node4&#45;&gt;Node5</title>
<path fill="none" stroke="#63b8ff" d="M263.21,-54.59C262.88,-44.06 262.52,-32.53 262.28,-24.84"/>
<polygon fill="#63b8ff" stroke="#63b8ff" points="259.7,-54.4 263.51,-64.28 266.69,-54.18 259.7,-54.4"/>
</g>
<!-- Node7 -->
<g id="node7" class="node">
<title>Node7</title>
<g id="a_node7"><a xlink:href="_scalar_advection_art_diff_no_b_c_b_c_8_c.html" target="_top" xlink:title=" ">
<polygon fill="white" stroke="#666666" points="502,-30 366,-30 366,0 502,0 502,-30"/>
<text text-anchor="start" x="374" y="-18" font-family="Helvetica,sans-Serif" font-size="10.00">src/bcs/ScalarAdvectionArt</text>
<text text-anchor="middle" x="434" y="-7" font-family="Helvetica,sans-Serif" font-size="10.00">DiffNoBCBC.C</text>
</a>
</g>
</g>
<!-- Node6&#45;&gt;Node7 -->
<g id="edge6" class="edge">
<title>Node6&#45;&gt;Node7</title>
<path fill="none" stroke="#63b8ff" d="M426.75,-54.68C428.31,-46.34 429.99,-37.37 431.34,-30.16"/>
<polygon fill="#63b8ff" stroke="#63b8ff" points="423.35,-53.83 424.94,-64.31 430.23,-55.13 423.35,-53.83"/>
</g>
<!-- Node9 -->
<g id="node9" class="node">
<title>Node9</title>
<g id="a_node9"><a xlink:href="_vacuum_conc_b_c_8_c.html" target="_top" xlink:title=" ">
<polygon fill="white" stroke="#666666" points="653.5,-24.5 520.5,-24.5 520.5,-5.5 653.5,-5.5 653.5,-24.5"/>
<text text-anchor="middle" x="587" y="-12.5" font-family="Helvetica,sans-Serif" font-size="10.00">src/bcs/VacuumConcBC.C</text>
</a>
</g>
</g>
<!-- Node8&#45;&gt;Node9 -->
<g id="edge8" class="edge">
<title>Node8&#45;&gt;Node9</title>
<path fill="none" stroke="#63b8ff" d="M585.64,-59.68C586,-47.94 586.44,-33.77 586.72,-24.82"/>
<polygon fill="#63b8ff" stroke="#63b8ff" points="582.14,-59.48 585.33,-69.59 589.14,-59.7 582.14,-59.48"/>
</g>
<!-- Node11 -->
<g id="node11" class="node">
<title>Node11</title>
<g id="a_node11"><a xlink:href="_coupled_fission_eigen_kernel_8_c.html" target="_top" xlink:title=" ">
<polygon fill="white" stroke="#666666" points="821,-30 687,-30 687,0 821,0 821,-30"/>
<text text-anchor="start" x="695" y="-18" font-family="Helvetica,sans-Serif" font-size="10.00">src/kernels/CoupledFission</text>
<text text-anchor="middle" x="754" y="-7" font-family="Helvetica,sans-Serif" font-size="10.00">EigenKernel.C</text>
</a>
</g>
</g>
<!-- Node10&#45;&gt;Node11 -->
<g id="edge10" class="edge">
<title>Node10&#45;&gt;Node11</title>
<path fill="none" stroke="#63b8ff" d="M754,-54.39C754,-46.13 754,-37.28 754,-30.16"/>
<polygon fill="#63b8ff" stroke="#63b8ff" points="750.5,-54.28 754,-64.28 757.5,-54.28 750.5,-54.28"/>
</g>
<!-- Node13 -->
<g id="node13" class="node">
<title>Node13</title>
<g id="a_node13"><a xlink:href="_coupled_fission_kernel_8_c.html" target="_top" xlink:title=" ">
<polygon fill="white" stroke="#666666" points="991,-30 857,-30 857,0 991,0 991,-30"/>
<text text-anchor="start" x="865" y="-18" font-family="Helvetica,sans-Serif" font-size="10.00">src/kernels/CoupledFission</text>
<text text-anchor="middle" x="924" y="-7" font-family="Helvetica,sans-Serif" font-size="10.00">Kernel.C</text>
</a>
</g>
</g>
<!-- Node12&#45;&gt;Node13 -->
<g id="edge12" class="edge">
<title>Node12&#45;&gt;Node13</title>
<path fill="none" stroke="#63b8ff" d="M924,-54.39C924,-46.13 924,-37.28 924,-30.16"/>
<polygon fill="#63b8ff" stroke="#63b8ff" points="920.5,-54.28 924,-64.28 927.5,-54.28 920.5,-54.28"/>
</g>
<!-- Node15 -->
<g id="node15" class="node">
<title>Node15</title>
<g id="a_node15"><a xlink:href="_coupled_scalar_advection_8_c.html" target="_top" xlink:title=" ">
<polygon fill="white" stroke="#666666" points="1155.5,-30 1024.5,-30 1024.5,0 1155.5,0 1155.5,-30"/>
<text text-anchor="start" x="1032.5" y="-18" font-family="Helvetica,sans-Serif" font-size="10.00">src/kernels/CoupledScalar</text>
<text text-anchor="middle" x="1090" y="-7" font-family="Helvetica,sans-Serif" font-size="10.00">Advection.C</text>
</a>
</g>
</g>
<!-- Node14&#45;&gt;Node15 -->
<g id="edge14" class="edge">
<title>Node14&#45;&gt;Node15</title>
<path fill="none" stroke="#63b8ff" d="M1091.2,-54.39C1090.94,-46.13 1090.67,-37.28 1090.44,-30.16"/>
<polygon fill="#63b8ff" stroke="#63b8ff" points="1087.7,-54.4 1091.51,-64.28 1094.69,-54.18 1087.7,-54.4"/>
</g>
<!-- Node17 -->
<g id="node17" class="node">
<title>Node17</title>
<g id="a_node17"><a xlink:href="_decay_heat_source_8_c.html" target="_top" xlink:title=" ">
<polygon fill="white" stroke="#666666" points="1328.5,-24.5 1173.5,-24.5 1173.5,-5.5 1328.5,-5.5 1328.5,-24.5"/>
<text text-anchor="middle" x="1251" y="-12.5" font-family="Helvetica,sans-Serif" font-size="10.00">src/kernels/DecayHeatSource.C</text>
</a>
</g>
</g>
<!-- Node16&#45;&gt;Node17 -->
<g id="edge16" class="edge">
<title>Node16&#45;&gt;Node17</title>
<path fill="none" stroke="#63b8ff" d="M1251,-54.59C1251,-44.06 1251,-32.53 1251,-24.84"/>
<polygon fill="#63b8ff" stroke="#63b8ff" points="1247.5,-54.28 1251,-64.28 1254.5,-54.28 1247.5,-54.28"/>
</g>
<!-- Node19 -->
<g id="node19" class="node">
<title>Node19</title>
<g id="a_node19"><a xlink:href="_delayed_neutron_source_8_c.html" target="_top" xlink:title=" ">
<polygon fill="white" stroke="#666666" points="1483.5,-30 1346.5,-30 1346.5,0 1483.5,0 1483.5,-30"/>
<text text-anchor="start" x="1354.5" y="-18" font-family="Helvetica,sans-Serif" font-size="10.00">src/kernels/DelayedNeutron</text>
<text text-anchor="middle" x="1415" y="-7" font-family="Helvetica,sans-Serif" font-size="10.00">Source.C</text>
</a>
</g>
</g>
<!-- Node18&#45;&gt;Node19 -->
<g id="edge18" class="edge">
<title>Node18&#45;&gt;Node19</title>
<path fill="none" stroke="#63b8ff" d="M1413.8,-54.39C1414.06,-46.13 1414.33,-37.28 1414.56,-30.16"/>
<polygon fill="#63b8ff" stroke="#63b8ff" points="1410.31,-54.18 1413.49,-64.28 1417.3,-54.4 1410.31,-54.18"/>
</g>
<!-- Node21 -->
<g id="node21" class="node">
<title>Node21</title>
<g id="a_node21"><a xlink:href="_div_free_coupled_scalar_advection_8_c.html" target="_top" xlink:title=" ">
<polygon fill="white" stroke="#666666" points="1653.5,-30 1516.5,-30 1516.5,0 1653.5,0 1653.5,-30"/>
<text text-anchor="start" x="1524.5" y="-18" font-family="Helvetica,sans-Serif" font-size="10.00">src/kernels/DivFreeCoupled</text>
<text text-anchor="middle" x="1585" y="-7" font-family="Helvetica,sans-Serif" font-size="10.00">ScalarAdvection.C</text>
</a>
</g>
</g>
<!-- Node20&#45;&gt;Node21 -->
<g id="edge20" class="edge">
<title>Node20&#45;&gt;Node21</title>
<path fill="none" stroke="#63b8ff" d="M1585,-54.39C1585,-46.13 1585,-37.28 1585,-30.16"/>
<polygon fill="#63b8ff" stroke="#63b8ff" points="1581.5,-54.28 1585,-64.28 1588.5,-54.28 1581.5,-54.28"/>
</g>
<!-- Node23 -->
<g id="node23" class="node">
<title>Node23</title>
<g id="a_node23"><a xlink:href="_group_diffusion_8_c.html" target="_top" xlink:title=" ">
<polygon fill="white" stroke="#666666" points="1828,-24.5 1688,-24.5 1688,-5.5 1828,-5.5 1828,-24.5"/>
<text text-anchor="middle" x="1758" y="-12.5" font-family="Helvetica,sans-Serif" font-size="10.00">src/kernels/GroupDiffusion.C</text>
</a>
</g>
</g>
<!-- Node22&#45;&gt;Node23 -->
<g id="edge22" class="edge">
<title>Node22&#45;&gt;Node23</title>
<path fill="none" stroke="#63b8ff" d="M1758,-59.68C1758,-47.94 1758,-33.77 1758,-24.82"/>
<polygon fill="#63b8ff" stroke="#63b8ff" points="1754.5,-59.59 1758,-69.59 1761.5,-59.59 1754.5,-59.59"/>
</g>
<!-- Node25 -->
<g id="node25" class="node">
<title>Node25</title>
<g id="a_node25"><a xlink:href="_heat_precursor_decay_8_c.html" target="_top" xlink:title=" ">
<polygon fill="white" stroke="#666666" points="1993.5,-30 1862.5,-30 1862.5,0 1993.5,0 1993.5,-30"/>
<text text-anchor="start" x="1870.5" y="-18" font-family="Helvetica,sans-Serif" font-size="10.00">src/kernels/HeatPrecursor</text>
<text text-anchor="middle" x="1928" y="-7" font-family="Helvetica,sans-Serif" font-size="10.00">Decay.C</text>
</a>
</g>
</g>
<!-- Node24&#45;&gt;Node25 -->
<g id="edge24" class="edge">
<title>Node24&#45;&gt;Node25</title>
<path fill="none" stroke="#63b8ff" d="M1928,-54.39C1928,-46.13 1928,-37.28 1928,-30.16"/>
<polygon fill="#63b8ff" stroke="#63b8ff" points="1924.5,-54.28 1928,-64.28 1931.5,-54.28 1924.5,-54.28"/>
</g>
<!-- Node27 -->
<g id="node27" class="node">
<title>Node27</title>
<g id="a_node27"><a xlink:href="_heat_precursor_source_8_c.html" target="_top" xlink:title=" ">
<polygon fill="white" stroke="#666666" points="2145.5,-30 2014.5,-30 2014.5,0 2145.5,0 2145.5,-30"/>
<text text-anchor="start" x="2022.5" y="-18" font-family="Helvetica,sans-Serif" font-size="10.00">src/kernels/HeatPrecursor</text>
<text text-anchor="middle" x="2080" y="-7" font-family="Helvetica,sans-Serif" font-size="10.00">Source.C</text>
</a>
</g>
</g>
<!-- Node26&#45;&gt;Node27 -->
<g id="edge26" class="edge">
<title>Node26&#45;&gt;Node27</title>
<path fill="none" stroke="#63b8ff" d="M2088.46,-54.68C2086.64,-46.34 2084.67,-37.37 2083.1,-30.16"/>
<polygon fill="#63b8ff" stroke="#63b8ff" points="2085.01,-55.3 2090.57,-64.32 2091.85,-53.8 2085.01,-55.3"/>
</g>
<!-- Node29 -->
<g id="node29" class="node">
<title>Node29</title>
<g id="a_node29"><a xlink:href="_in_scatter_8_c.html" target="_top" xlink:title=" ">
<polygon fill="white" stroke="#666666" points="2280,-24.5 2164,-24.5 2164,-5.5 2280,-5.5 2280,-24.5"/>
<text text-anchor="middle" x="2222" y="-12.5" font-family="Helvetica,sans-Serif" font-size="10.00">src/kernels/InScatter.C</text>
</a>
</g>
</g>
<!-- Node28&#45;&gt;Node29 -->
<g id="edge28" class="edge">
<title>Node28&#45;&gt;Node29</title>
<path fill="none" stroke="#63b8ff" d="M2243,-60.8C2237.4,-48.85 2230.47,-34.06 2226.14,-24.82"/>
<polygon fill="#63b8ff" stroke="#63b8ff" points="2239.77,-62.16 2247.19,-69.73 2246.11,-59.19 2239.77,-62.16"/>
</g>
<!-- Node31 -->
<g id="node31" class="node">
<title>Node31</title>
<g id="a_node31"><a xlink:href="_precursor_decay_8_c.html" target="_top" xlink:title=" ">
<polygon fill="white" stroke="#666666" points="2444,-24.5 2298,-24.5 2298,-5.5 2444,-5.5 2444,-24.5"/>
<text text-anchor="middle" x="2371" y="-12.5" font-family="Helvetica,sans-Serif" font-size="10.00">src/kernels/PrecursorDecay.C</text>
</a>
</g>
</g>
<!-- Node30&#45;&gt;Node31 -->
<g id="edge30" class="edge">
<title>Node30&#45;&gt;Node31</title>
<path fill="none" stroke="#63b8ff" d="M2388.95,-55.6C2384.05,-44.8 2378.6,-32.78 2375.01,-24.84"/>
<polygon fill="#63b8ff" stroke="#63b8ff" points="2385.62,-56.75 2392.94,-64.42 2392,-53.86 2385.62,-56.75"/>
</g>
<!-- Node33 -->
<g id="node33" class="node">
<title>Node33</title>
<g id="a_node33"><a xlink:href="_precursor_eigen_source_8_c.html" target="_top" xlink:title=" ">
<polygon fill="white" stroke="#666666" points="2596,-30 2462,-30 2462,0 2596,0 2596,-30"/>
<text text-anchor="start" x="2470" y="-18" font-family="Helvetica,sans-Serif" font-size="10.00">src/kernels/PrecursorEigen</text>
<text text-anchor="middle" x="2529" y="-7" font-family="Helvetica,sans-Serif" font-size="10.00">Source.C</text>
</a>
</g>
</g>
<!-- Node32&#45;&gt;Node33 -->
<g id="edge32" class="edge">
<title>Node32&#45;&gt;Node33</title>
<path fill="none" stroke="#63b8ff" d="M2538.67,-54.68C2536.58,-46.34 2534.34,-37.37 2532.54,-30.16"/>
<polygon fill="#63b8ff" stroke="#63b8ff" points="2535.26,-55.48 2541.08,-64.33 2542.05,-53.78 2535.26,-55.48"/>
</g>
<!-- Node35 -->
<g id="node35" class="node">
<title>Node35</title>
<g id="a_node35"><a xlink:href="_precursor_source_8_c.html" target="_top" xlink:title=" ">
<polygon fill="white" stroke="#666666" points="2763.5,-24.5 2614.5,-24.5 2614.5,-5.5 2763.5,-5.5 2763.5,-24.5"/>
<text text-anchor="middle" x="2689" y="-12.5" font-family="Helvetica,sans-Serif" font-size="10.00">src/kernels/PrecursorSource.C</text>
</a>
</g>
</g>
<!-- Node34&#45;&gt;Node35 -->
<g id="edge34" class="edge">
<title>Node34&#45;&gt;Node35</title>
<path fill="none" stroke="#63b8ff" d="M2689.6,-54.59C2689.44,-44.06 2689.26,-32.53 2689.14,-24.84"/>
<polygon fill="#63b8ff" stroke="#63b8ff" points="2686.1,-54.34 2689.75,-64.28 2693.1,-54.23 2686.1,-54.34"/>
</g>
<!-- Node37 -->
<g id="node37" class="node">
<title>Node37</title>
<g id="a_node37"><a xlink:href="_scalar_advection_art_diff_8_c.html" target="_top" xlink:title=" ">
<polygon fill="white" stroke="#666666" points="2920.5,-30 2781.5,-30 2781.5,0 2920.5,0 2920.5,-30"/>
<text text-anchor="start" x="2789.5" y="-18" font-family="Helvetica,sans-Serif" font-size="10.00">src/kernels/ScalarAdvection</text>
<text text-anchor="middle" x="2851" y="-7" font-family="Helvetica,sans-Serif" font-size="10.00">ArtDiff.C</text>
</a>
</g>
</g>
<!-- Node36&#45;&gt;Node37 -->
<g id="edge36" class="edge">
<title>Node36&#45;&gt;Node37</title>
<path fill="none" stroke="#63b8ff" d="M2850.4,-54.39C2850.53,-46.13 2850.67,-37.28 2850.78,-30.16"/>
<polygon fill="#63b8ff" stroke="#63b8ff" points="2846.9,-54.23 2850.25,-64.28 2853.9,-54.34 2846.9,-54.23"/>
</g>
<!-- Node39 -->
<g id="node39" class="node">
<title>Node39</title>
<g id="a_node39"><a xlink:href="_nt_time_derivative_8h.html" target="_top" xlink:title=" ">
<polygon fill="#fff0f0" stroke="red" points="3107,-24.5 2939,-24.5 2939,-5.5 3107,-5.5 3107,-24.5"/>
<text text-anchor="middle" x="3023" y="-12.5" font-family="Helvetica,sans-Serif" font-size="10.00">include/kernels/NtTimeDerivative.h</text>
</a>
</g>
</g>
<!-- Node38&#45;&gt;Node39 -->
<g id="edge38" class="edge">
<title>Node38&#45;&gt;Node39</title>
<path fill="none" stroke="#63b8ff" d="M3023,-54.59C3023,-44.06 3023,-32.53 3023,-24.84"/>
<polygon fill="#63b8ff" stroke="#63b8ff" points="3019.5,-54.28 3023,-64.28 3026.5,-54.28 3019.5,-54.28"/>
</g>
<!-- Node41 -->
<g id="node40" class="node">
<title>Node41</title>
<g id="a_node40"><a xlink:href="_scalar_transport_time_derivative_8_c.html" target="_top" xlink:title=" ">
<polygon fill="white" stroke="#666666" points="3262.5,-30 3125.5,-30 3125.5,0 3262.5,0 3262.5,-30"/>
<text text-anchor="start" x="3133.5" y="-18" font-family="Helvetica,sans-Serif" font-size="10.00">src/kernels/ScalarTransport</text>
<text text-anchor="middle" x="3194" y="-7" font-family="Helvetica,sans-Serif" font-size="10.00">TimeDerivative.C</text>
</a>
</g>
</g>
<!-- Node38&#45;&gt;Node41 -->
<g id="edge39" class="edge">
<title>Node38&#45;&gt;Node41</title>
<path fill="none" stroke="#63b8ff" d="M3071.97,-61.67C3098.48,-51.75 3130.76,-39.67 3155.46,-30.43"/>
<polygon fill="#63b8ff" stroke="#63b8ff" points="3070.93,-58.32 3062.79,-65.11 3073.39,-64.88 3070.93,-58.32"/>
</g>
<!-- Node43 -->
<g id="node42" class="node">
<title>Node43</title>
<g id="a_node42"><a xlink:href="_sigma_r_8_c.html" target="_top" xlink:title=" ">
<polygon fill="white" stroke="#666666" points="3391.5,-24.5 3280.5,-24.5 3280.5,-5.5 3391.5,-5.5 3391.5,-24.5"/>
<text text-anchor="middle" x="3336" y="-12.5" font-family="Helvetica,sans-Serif" font-size="10.00">src/kernels/SigmaR.C</text>
</a>
</g>
</g>
<!-- Node42&#45;&gt;Node43 -->
<g id="edge41" class="edge">
<title>Node42&#45;&gt;Node43</title>
<path fill="none" stroke="#63b8ff" d="M3213.84,-66.77C3244.06,-54.21 3288.65,-35.68 3314.77,-24.82"/>
<polygon fill="#63b8ff" stroke="#63b8ff" points="3212.7,-63.45 3204.81,-70.52 3215.39,-69.91 3212.7,-63.45"/>
</g>
<!-- Node45 -->
<g id="node44" class="node">
<title>Node45</title>
<g id="a_node44"><a xlink:href="_transient_fission_heat_source_8_c.html" target="_top" xlink:title=" ">
<polygon fill="white" stroke="#666666" points="3550,-30 3410,-30 3410,0 3550,0 3550,-30"/>
<text text-anchor="start" x="3418" y="-18" font-family="Helvetica,sans-Serif" font-size="10.00">src/kernels/TransientFission</text>
<text text-anchor="middle" x="3480" y="-7" font-family="Helvetica,sans-Serif" font-size="10.00">HeatSource.C</text>
</a>
</g>
</g>
<!-- Node44&#45;&gt;Node45 -->
<g id="edge43" class="edge">
<title>Node44&#45;&gt;Node45</title>
<path fill="none" stroke="#63b8ff" d="M3371.06,-61.27C3394.75,-51.43 3423.34,-39.55 3445.29,-30.43"/>
<polygon fill="#63b8ff" stroke="#63b8ff" points="3369.85,-57.99 3361.96,-65.06 3372.54,-64.45 3369.85,-57.99"/>
</g>
<!-- Node47 -->
<g id="node46" class="node">
<title>Node47</title>
<g id="a_node46"><a xlink:href="_elm_integ_tot_fiss_heat_postprocessor_8h.html" target="_top" xlink:title=" ">
<polygon fill="#fff0f0" stroke="red" points="3750,-30 3568,-30 3568,0 3750,0 3750,-30"/>
<text text-anchor="start" x="3576" y="-18" font-family="Helvetica,sans-Serif" font-size="10.00">include/postprocessors</text>
<text text-anchor="middle" x="3659" y="-7" font-family="Helvetica,sans-Serif" font-size="10.00">/ElmIntegTotFissHeatPostprocessor.h</text>
</a>
</g>
</g>
<!-- Node46&#45;&gt;Node47 -->
<g id="edge45" class="edge">
<title>Node46&#45;&gt;Node47</title>
<path fill="none" stroke="#63b8ff" d="M3536.26,-61.67C3562.92,-51.75 3595.39,-39.67 3620.23,-30.43"/>
<polygon fill="#63b8ff" stroke="#63b8ff" points="3535.17,-58.34 3527.02,-65.11 3537.61,-64.9 3535.17,-58.34"/>
</g>
</g>
</svg>
        <g id="navigator" transform="translate(0 0)" fill="#404254">
                <rect fill="#f2f5e9" fill-opacity="0.5" stroke="#606060" stroke-width=".5" x="0" y="0" width="60" height="60"/>
                <use id="zoomplus" xlink:href="#zoomPlus" x="17" y="9" onmousedown="handleZoom(evt,'in')"/>
                <use id="zoomminus" xlink:href="#zoomMin" x="42" y="9" onmousedown="handleZoom(evt,'out')"/>
                <use id="reset" xlink:href="#resetDef" x="30" y="36" onmousedown="handleReset()"/>
                <g id="arrowUp" xlink:href="#dirArrow" transform="translate(30 24)" onmousedown="handlePan(0,-1)">
                  <use xlink:href="#rim" fill="#404040">
                        <set attributeName="fill" to="#808080" begin="arrowUp.mouseover" end="arrowUp.mouseout"/>
                  </use>
                  <path fill="none" stroke="white" stroke-width="1.5" d="M0,-3.0v7 M-2.5,-0.5L0,-3.0L2.5,-0.5"/>
                </g>
                <g id="arrowRight" xlink:href="#dirArrow" transform="rotate(90) translate(36 -43)" onmousedown="handlePan(1,0)">
                  <use xlink:href="#rim" fill="#404040">
                        <set attributeName="fill" to="#808080" begin="arrowRight.mouseover" end="arrowRight.mouseout"/>
                  </use>
                  <path fill="none" stroke="white" stroke-width="1.5" d="M0,-3.0v7 M-2.5,-0.5L0,-3.0L2.5,-0.5"/>
                </g>
                <g id="arrowDown" xlink:href="#dirArrow" transform="rotate(180) translate(-30 -48)" onmousedown="handlePan(0,1)">
                  <use xlink:href="#rim" fill="#404040">
                        <set attributeName="fill" to="#808080" begin="arrowDown.mouseover" end="arrowDown.mouseout"/>
                  </use>
                  <path fill="none" stroke="white" stroke-width="1.5" d="M0,-3.0v7 M-2.5,-0.5L0,-3.0L2.5,-0.5"/>
                </g>
                <g id="arrowLeft" xlink:href="#dirArrow" transform="rotate(270) translate(-36 17)" onmousedown="handlePan(-1,0)">
                  <use xlink:href="#rim" fill="#404040">
                        <set attributeName="fill" to="#808080" begin="arrowLeft.mouseover" end="arrowLeft.mouseout"/>
                  </use>
                  <path fill="none" stroke="white" stroke-width="1.5" d="M0,-3.0v7 M-2.5,-0.5L0,-3.0L2.5,-0.5"/>
                </g>
        </g>
        <svg viewBox="0 0 15 15" width="100%" height="30px" preserveAspectRatio="xMaxYMin meet">
         <g id="arrow_out" transform="scale(0.3 0.3)">
          <a xlink:href="_scalar_transport_base_8h__dep__incl_org.svg" target="_base">
           <rect id="button" ry="5" rx="5" y="6" x="6" height="38" width="38"
                fill="#f2f5e9" fill-opacity="0.5" stroke="#606060" stroke-width="1.0"/>
           <path id="arrow"
             d="M 11.500037,31.436501 C 11.940474,20.09759 22.043105,11.32322 32.158766,21.979434 L 37.068811,17.246167 C 37.068811,17.246167 37.088388,32 37.088388,32 L 22.160133,31.978069 C 22.160133,31.978069 26.997745,27.140456 26.997745,27.140456 C 18.528582,18.264221 13.291696,25.230495 11.500037,31.436501 z"
             style="fill:#404040;"/>
          </a>
         </g>
        </svg>
</svg>
