<?xml version="1.0" encoding="UTF-8" standalone="no"?>
<!DOCTYPE svg PUBLIC "-//W3C//DTD SVG 1.1//EN"
 "http://www.w3.org/Graphics/SVG/1.1/DTD/svg11.dtd">
<!-- Generated by graphviz version 7.0.4 (20221203.1631)
 -->
<!-- Title: include/kernels/ScalarTransportTimeDerivative.h Pages: 1 -->
<svg width="332pt" height="159pt"
 viewBox="0.00 0.00 331.50 159.00" xmlns="http://www.w3.org/2000/svg" xmlns:xlink="http://www.w3.org/1999/xlink">
<g id="graph0" class="graph" transform="scale(1 1) rotate(0) translate(4 155)">
<title>include/kernels/ScalarTransportTimeDerivative.h</title>
<!-- Node1 -->
<g id="node1" class="node">
<title>Node1</title>
<g id="a_node1"><a xlink:title=" ">
<polygon fill="#999999" stroke="#666666" points="246,-151 92,-151 92,-121 246,-121 246,-151"/>
<text text-anchor="start" x="100" y="-139" font-family="Helvetica,sans-Serif" font-size="10.00">include/kernels/ScalarTransport</text>
<text text-anchor="middle" x="169" y="-128" font-family="Helvetica,sans-Serif" font-size="10.00">TimeDerivative.h</text>
</a>
</g>
</g>
<!-- Node2 -->
<g id="node2" class="node">
<title>Node2</title>
<g id="a_node2"><a xlink:href="_nt_time_derivative_8h.html" target="_top" xlink:title=" ">
<polygon fill="white" stroke="#666666" points="168,-79.5 0,-79.5 0,-60.5 168,-60.5 168,-79.5"/>
<text text-anchor="middle" x="84" y="-67.5" font-family="Helvetica,sans-Serif" font-size="10.00">include/kernels/NtTimeDerivative.h</text>
</a>
</g>
</g>
<!-- Node1&#45;&gt;Node2 -->
<g id="edge1" class="edge">
<title>Node1&#45;&gt;Node2</title>
<path fill="none" stroke="#63b8ff" d="M141.02,-113.93C125.64,-102.35 107.38,-88.61 95.75,-79.84"/>
<polygon fill="#63b8ff" stroke="#63b8ff" points="138.83,-116.67 148.93,-119.89 143.04,-111.07 138.83,-116.67"/>
</g>
<!-- Node4 -->
<g id="node4" class="node">
<title>Node4</title>
<g id="a_node4"><a xlink:href="_scalar_transport_time_derivative_8_c.html" target="_top" xlink:title=" ">
<polygon fill="white" stroke="#666666" points="323.5,-85 186.5,-85 186.5,-55 323.5,-55 323.5,-85"/>
<text text-anchor="start" x="194.5" y="-73" font-family="Helvetica,sans-Serif" font-size="10.00">src/kernels/ScalarTransport</text>
<text text-anchor="middle" x="255" y="-62" font-family="Helvetica,sans-Serif" font-size="10.00">TimeDerivative.C</text>
</a>
</g>
</g>
<!-- Node1&#45;&gt;Node4 -->
<g id="edge3" class="edge">
<title>Node1&#45;&gt;Node4</title>
<path fill="none" stroke="#63b8ff" d="M197.25,-113.97C209.84,-104.61 224.35,-93.81 235.67,-85.39"/>
<polygon fill="#63b8ff" stroke="#63b8ff" points="195.23,-111.11 189.3,-119.89 199.41,-116.73 195.23,-111.11"/>
</g>
<!-- Node3 -->
<g id="node3" class="node">
<title>Node3</title>
<g id="a_node3"><a xlink:href="_nt_time_derivative_8_c.html" target="_top" xlink:title=" ">
<polygon fill="white" stroke="#666666" points="160,-19 8,-19 8,0 160,0 160,-19"/>
<text text-anchor="middle" x="84" y="-7" font-family="Helvetica,sans-Serif" font-size="10.00">src/kernels/NtTimeDerivative.C</text>
</a>
</g>
</g>
<!-- Node2&#45;&gt;Node3 -->
<g id="edge2" class="edge">
<title>Node2&#45;&gt;Node3</title>
<path fill="none" stroke="#63b8ff" d="M84,-49.16C84,-38.95 84,-27.04 84,-19.17"/>
<polygon fill="#63b8ff" stroke="#63b8ff" points="80.5,-48.85 84,-58.85 87.5,-48.85 80.5,-48.85"/>
</g>
</g>
</svg>
