<?xml version="1.0" encoding="UTF-8" standalone="no"?>
<!DOCTYPE svg PUBLIC "-//W3C//DTD SVG 1.1//EN"
 "http://www.w3.org/Graphics/SVG/1.1/DTD/svg11.dtd">
<!-- Generated by graphviz version 9.0.0 (20230911.1827)
 -->
<!-- Title: include/base/ScalarTransportBase.h Pages: 1 -->
<svg width="4225pt" height="172pt"
 viewBox="0.00 0.00 4224.62 171.50" xmlns="http://www.w3.org/2000/svg" xmlns:xlink="http://www.w3.org/1999/xlink">
<g id="graph0" class="graph" transform="scale(1 1) rotate(0) translate(4 167.5)">
<title>include/base/ScalarTransportBase.h</title>
<!-- Node1 -->
<g id="Node000001" class="node">
<title>Node1</title>
<g id="a_Node000001"><a xlink:title=" ">
<polygon fill="#999999" stroke="#666666" points="2232.25,-163.5 2089.5,-163.5 2089.5,-133 2232.25,-133 2232.25,-163.5"/>
<text text-anchor="start" x="2097.5" y="-150" font-family="Helvetica,sans-Serif" font-size="10.00">include/base/ScalarTransport</text>
<text text-anchor="middle" x="2160.88" y="-138.75" font-family="Helvetica,sans-Serif" font-size="10.00">Base.h</text>
</a>
</g>
</g>
<!-- Node2 -->
<g id="Node000002" class="node">
<title>Node2</title>
<g id="a_Node000002"><a xlink:href="_coupled_scalar_advection_no_b_c_b_c_8h.html" target="_top" xlink:title=" ">
<polygon fill="white" stroke="#666666" points="163.62,-97 32.12,-97 32.12,-66.5 163.62,-66.5 163.62,-97"/>
<text text-anchor="start" x="40.12" y="-83.5" font-family="Helvetica,sans-Serif" font-size="10.00">include/bcs/CoupledScalar</text>
<text text-anchor="middle" x="97.88" y="-72.25" font-family="Helvetica,sans-Serif" font-size="10.00">AdvectionNoBCBC.h</text>
</a>
</g>
</g>
<!-- Node1&#45;&gt;Node2 -->
<g id="edge1_Node000001_Node000002" class="edge">
<title>Node1&#45;&gt;Node2</title>
<g id="a_edge1_Node000001_Node000002"><a xlink:title=" ">
<path fill="none" stroke="#63b8ff" d="M2078.05,-146.55C1753.16,-143.61 565.24,-130.72 189.88,-97 181.5,-96.25 172.74,-95.21 164.08,-94.04"/>
<polygon fill="#63b8ff" stroke="#63b8ff" points="2077.69,-150.05 2087.72,-146.64 2077.76,-143.05 2077.69,-150.05"/>
</a>
</g>
</g>
<!-- Node4 -->
<g id="Node000004" class="node">
<title>Node4</title>
<g id="a_Node000004"><a xlink:href="_lin_log_penalty_dirichlet_b_c_8h.html" target="_top" xlink:title=" ">
<polygon fill="white" stroke="#666666" points="329.25,-97 198.5,-97 198.5,-66.5 329.25,-66.5 329.25,-97"/>
<text text-anchor="start" x="206.5" y="-83.5" font-family="Helvetica,sans-Serif" font-size="10.00">include/bcs/LinLogPenalty</text>
<text text-anchor="middle" x="263.88" y="-72.25" font-family="Helvetica,sans-Serif" font-size="10.00">DirichletBC.h</text>
</a>
</g>
</g>
<!-- Node1&#45;&gt;Node4 -->
<g id="edge3_Node000001_Node000004" class="edge">
<title>Node1&#45;&gt;Node4</title>
<g id="a_edge3_Node000001_Node000004"><a xlink:title=" ">
<path fill="none" stroke="#63b8ff" d="M2078.05,-146.65C1769.28,-144.14 685.42,-132.91 341.88,-97 337.9,-96.58 333.83,-96.08 329.73,-95.51"/>
<polygon fill="#63b8ff" stroke="#63b8ff" points="2077.59,-150.14 2087.62,-146.72 2077.65,-143.14 2077.59,-150.14"/>
</a>
</g>
</g>
<!-- Node6 -->
<g id="Node000006" class="node">
<title>Node6</title>
<g id="a_Node000006"><a xlink:href="_scalar_advection_art_diff_no_b_c_b_c_8h.html" target="_top" xlink:title=" ">
<polygon fill="white" stroke="#666666" points="490.75,-97 351,-97 351,-66.5 490.75,-66.5 490.75,-97"/>
<text text-anchor="start" x="359" y="-83.5" font-family="Helvetica,sans-Serif" font-size="10.00">include/bcs/ScalarAdvection</text>
<text text-anchor="middle" x="420.88" y="-72.25" font-family="Helvetica,sans-Serif" font-size="10.00">ArtDiffNoBCBC.h</text>
</a>
</g>
</g>
<!-- Node1&#45;&gt;Node6 -->
<g id="edge5_Node000001_Node000006" class="edge">
<title>Node1&#45;&gt;Node6</title>
<g id="a_edge5_Node000001_Node000006"><a xlink:title=" ">
<path fill="none" stroke="#63b8ff" d="M2078.06,-146.37C1786.87,-143.02 810.98,-129.58 499.88,-97 496.96,-96.7 494,-96.34 491.01,-95.96"/>
<polygon fill="#63b8ff" stroke="#63b8ff" points="2077.8,-149.87 2087.84,-146.48 2077.88,-142.87 2077.8,-149.87"/>
</a>
</g>
</g>
<!-- Node8 -->
<g id="Node000008" class="node">
<title>Node8</title>
<g id="a_Node000008"><a xlink:href="_vacuum_conc_b_c_8h.html" target="_top" xlink:title=" ">
<polygon fill="white" stroke="#666666" points="656.88,-91.38 508.88,-91.38 508.88,-72.12 656.88,-72.12 656.88,-91.38"/>
<text text-anchor="middle" x="582.88" y="-77.88" font-family="Helvetica,sans-Serif" font-size="10.00">include/bcs/VacuumConcBC.h</text>
</a>
</g>
</g>
<!-- Node1&#45;&gt;Node8 -->
<g id="edge7_Node000001_Node000008" class="edge">
<title>Node1&#45;&gt;Node8</title>
<g id="a_edge7_Node000001_Node000008"><a xlink:title=" ">
<path fill="none" stroke="#63b8ff" d="M2077.76,-145.95C1805.64,-141.46 943.01,-125.31 665.88,-97 653.95,-95.78 641.15,-93.88 629.25,-91.86"/>
<polygon fill="#63b8ff" stroke="#63b8ff" points="2077.55,-149.45 2087.6,-146.11 2077.66,-142.45 2077.55,-149.45"/>
</a>
</g>
</g>
<!-- Node10 -->
<g id="Node000010" class="node">
<title>Node10</title>
<g id="a_Node000010"><a xlink:href="_coupled_fission_eigen_kernel_8h.html" target="_top" xlink:title=" ">
<polygon fill="white" stroke="#666666" points="826.38,-97 675.38,-97 675.38,-66.5 826.38,-66.5 826.38,-97"/>
<text text-anchor="start" x="683.38" y="-83.5" font-family="Helvetica,sans-Serif" font-size="10.00">include/kernels/CoupledFission</text>
<text text-anchor="middle" x="750.88" y="-72.25" font-family="Helvetica,sans-Serif" font-size="10.00">EigenKernel.h</text>
</a>
</g>
</g>
<!-- Node1&#45;&gt;Node10 -->
<g id="edge9_Node000001_Node000010" class="edge">
<title>Node1&#45;&gt;Node10</title>
<g id="a_edge9_Node000001_Node000010"><a xlink:title=" ">
<path fill="none" stroke="#63b8ff" d="M2077.64,-147.85C1868.27,-148.54 1302.95,-145.36 834.88,-97 832.23,-96.73 829.54,-96.42 826.82,-96.09"/>
<polygon fill="#63b8ff" stroke="#63b8ff" points="2077.63,-151.35 2087.62,-147.81 2077.61,-144.35 2077.63,-151.35"/>
</a>
</g>
</g>
<!-- Node12 -->
<g id="Node000012" class="node">
<title>Node12</title>
<g id="a_Node000012"><a xlink:href="_coupled_fission_kernel_8h.html" target="_top" xlink:title=" ">
<polygon fill="white" stroke="#666666" points="995.38,-97 844.38,-97 844.38,-66.5 995.38,-66.5 995.38,-97"/>
<text text-anchor="start" x="852.38" y="-83.5" font-family="Helvetica,sans-Serif" font-size="10.00">include/kernels/CoupledFission</text>
<text text-anchor="middle" x="919.88" y="-72.25" font-family="Helvetica,sans-Serif" font-size="10.00">Kernel.h</text>
</a>
</g>
</g>
<!-- Node1&#45;&gt;Node12 -->
<g id="edge11_Node000001_Node000012" class="edge">
<title>Node1&#45;&gt;Node12</title>
<g id="a_edge11_Node000001_Node000012"><a xlink:title=" ">
<path fill="none" stroke="#63b8ff" d="M2077.92,-147.19C1887.54,-146.27 1404.8,-139.55 1003.88,-97 1001.23,-96.72 998.54,-96.41 995.82,-96.07"/>
<polygon fill="#63b8ff" stroke="#63b8ff" points="2077.69,-150.69 2087.7,-147.23 2077.72,-143.69 2077.69,-150.69"/>
</a>
</g>
</g>
<!-- Node14 -->
<g id="Node000014" class="node">
<title>Node14</title>
<g id="a_Node000014"><a xlink:href="_coupled_scalar_advection_8h.html" target="_top" xlink:title=" ">
<polygon fill="white" stroke="#666666" points="1160.5,-97 1013.25,-97 1013.25,-66.5 1160.5,-66.5 1160.5,-97"/>
<text text-anchor="start" x="1021.25" y="-83.5" font-family="Helvetica,sans-Serif" font-size="10.00">include/kernels/CoupledScalar</text>
<text text-anchor="middle" x="1086.88" y="-72.25" font-family="Helvetica,sans-Serif" font-size="10.00">Advection.h</text>
</a>
</g>
</g>
<!-- Node1&#45;&gt;Node14 -->
<g id="edge13_Node000001_Node000014" class="edge">
<title>Node1&#45;&gt;Node14</title>
<g id="a_edge13_Node000001_Node000014"><a xlink:title=" ">
<path fill="none" stroke="#63b8ff" d="M2077.74,-146.38C1907.07,-143.86 1505.05,-134.14 1169.88,-97 1166.82,-96.66 1163.71,-96.28 1160.58,-95.87"/>
<polygon fill="#63b8ff" stroke="#63b8ff" points="2077.57,-149.88 2087.62,-146.52 2077.67,-142.88 2077.57,-149.88"/>
</a>
</g>
</g>
<!-- Node16 -->
<g id="Node000016" class="node">
<title>Node16</title>
<g id="a_Node000016"><a xlink:href="_decay_heat_source_8h.html" target="_top" xlink:title=" ">
<polygon fill="white" stroke="#666666" points="1311,-97 1178.75,-97 1178.75,-66.5 1311,-66.5 1311,-97"/>
<text text-anchor="start" x="1186.75" y="-83.5" font-family="Helvetica,sans-Serif" font-size="10.00">include/kernels/DecayHeat</text>
<text text-anchor="middle" x="1244.88" y="-72.25" font-family="Helvetica,sans-Serif" font-size="10.00">Source.h</text>
</a>
</g>
</g>
<!-- Node1&#45;&gt;Node16 -->
<g id="edge15_Node000001_Node000016" class="edge">
<title>Node1&#45;&gt;Node16</title>
<g id="a_edge15_Node000001_Node000016"><a xlink:title=" ">
<path fill="none" stroke="#63b8ff" d="M2077.69,-145.81C1926.35,-142.4 1596.08,-131.35 1319.88,-97 1317.11,-96.66 1314.3,-96.27 1311.46,-95.86"/>
<polygon fill="#63b8ff" stroke="#63b8ff" points="2077.56,-149.3 2087.64,-146.02 2077.72,-142.31 2077.56,-149.3"/>
</a>
</g>
</g>
<!-- Node18 -->
<g id="Node000018" class="node">
<title>Node18</title>
<g id="a_Node000018"><a xlink:href="_delayed_neutron_source_8h.html" target="_top" xlink:title=" ">
<polygon fill="white" stroke="#666666" points="1482.5,-97 1329.25,-97 1329.25,-66.5 1482.5,-66.5 1482.5,-97"/>
<text text-anchor="start" x="1337.25" y="-83.5" font-family="Helvetica,sans-Serif" font-size="10.00">include/kernels/DelayedNeutron</text>
<text text-anchor="middle" x="1405.88" y="-72.25" font-family="Helvetica,sans-Serif" font-size="10.00">Source.h</text>
</a>
</g>
</g>
<!-- Node1&#45;&gt;Node18 -->
<g id="edge17_Node000001_Node000018" class="edge">
<title>Node1&#45;&gt;Node18</title>
<g id="a_edge17_Node000001_Node000018"><a xlink:title=" ">
<path fill="none" stroke="#63b8ff" d="M2078.14,-143.48C1951.38,-137.15 1701.64,-122.52 1490.88,-97 1488.2,-96.68 1485.48,-96.33 1482.74,-95.96"/>
<polygon fill="#63b8ff" stroke="#63b8ff" points="2077.6,-146.96 2087.76,-143.95 2077.95,-139.96 2077.6,-146.96"/>
</a>
</g>
</g>
<!-- Node20 -->
<g id="Node000020" class="node">
<title>Node20</title>
<g id="a_Node000020"><a xlink:href="_div_free_coupled_scalar_advection_8h.html" target="_top" xlink:title=" ">
<polygon fill="white" stroke="#666666" points="1653.5,-97 1500.25,-97 1500.25,-66.5 1653.5,-66.5 1653.5,-97"/>
<text text-anchor="start" x="1508.25" y="-83.5" font-family="Helvetica,sans-Serif" font-size="10.00">include/kernels/DivFreeCoupled</text>
<text text-anchor="middle" x="1576.88" y="-72.25" font-family="Helvetica,sans-Serif" font-size="10.00">ScalarAdvection.h</text>
</a>
</g>
</g>
<!-- Node1&#45;&gt;Node20 -->
<g id="edge19_Node000001_Node000020" class="edge">
<title>Node1&#45;&gt;Node20</title>
<g id="a_edge19_Node000001_Node000020"><a xlink:title=" ">
<path fill="none" stroke="#63b8ff" d="M2077.78,-140.56C1978.58,-132.2 1807.77,-116.55 1661.88,-97 1659.21,-96.64 1656.49,-96.26 1653.75,-95.87"/>
<polygon fill="#63b8ff" stroke="#63b8ff" points="2077.46,-144.05 2087.72,-141.4 2078.04,-137.07 2077.46,-144.05"/>
</a>
</g>
</g>
<!-- Node22 -->
<g id="Node000022" class="node">
<title>Node22</title>
<g id="a_Node000022"><a xlink:href="_group_diffusion_8h.html" target="_top" xlink:title=" ">
<polygon fill="white" stroke="#666666" points="1826.62,-91.38 1671.12,-91.38 1671.12,-72.12 1826.62,-72.12 1826.62,-91.38"/>
<text text-anchor="middle" x="1748.88" y="-77.88" font-family="Helvetica,sans-Serif" font-size="10.00">include/kernels/GroupDiffusion.h</text>
</a>
</g>
</g>
<!-- Node1&#45;&gt;Node22 -->
<g id="edge21_Node000001_Node000022" class="edge">
<title>Node1&#45;&gt;Node22</title>
<g id="a_edge21_Node000001_Node000022"><a xlink:title=" ">
<path fill="none" stroke="#63b8ff" d="M2078.15,-134.76C2012.23,-124.75 1917.6,-110.23 1834.88,-97 1824.56,-95.35 1813.56,-93.56 1802.99,-91.81"/>
<polygon fill="#63b8ff" stroke="#63b8ff" points="2077.38,-138.19 2087.8,-136.23 2078.44,-131.26 2077.38,-138.19"/>
</a>
</g>
</g>
<!-- Node24 -->
<g id="Node000024" class="node">
<title>Node24</title>
<g id="a_Node000024"><a xlink:href="_heat_precursor_decay_8h.html" target="_top" xlink:title=" ">
<polygon fill="white" stroke="#666666" points="1991.5,-97 1844.25,-97 1844.25,-66.5 1991.5,-66.5 1991.5,-97"/>
<text text-anchor="start" x="1852.25" y="-83.5" font-family="Helvetica,sans-Serif" font-size="10.00">include/kernels/HeatPrecursor</text>
<text text-anchor="middle" x="1917.88" y="-72.25" font-family="Helvetica,sans-Serif" font-size="10.00">Decay.h</text>
</a>
</g>
</g>
<!-- Node1&#45;&gt;Node24 -->
<g id="edge23_Node000001_Node000024" class="edge">
<title>Node1&#45;&gt;Node24</title>
<g id="a_edge23_Node000001_Node000024"><a xlink:title=" ">
<path fill="none" stroke="#63b8ff" d="M2094.44,-129.62C2056.35,-119.51 2009.11,-106.97 1973.08,-97.4"/>
<polygon fill="#63b8ff" stroke="#63b8ff" points="2093.4,-132.96 2103.97,-132.14 2095.2,-126.2 2093.4,-132.96"/>
</a>
</g>
</g>
<!-- Node26 -->
<g id="Node000026" class="node">
<title>Node26</title>
<g id="a_Node000026"><a xlink:href="_heat_precursor_source_8h.html" target="_top" xlink:title=" ">
<polygon fill="white" stroke="#666666" points="2156.5,-97 2009.25,-97 2009.25,-66.5 2156.5,-66.5 2156.5,-97"/>
<text text-anchor="start" x="2017.25" y="-83.5" font-family="Helvetica,sans-Serif" font-size="10.00">include/kernels/HeatPrecursor</text>
<text text-anchor="middle" x="2082.88" y="-72.25" font-family="Helvetica,sans-Serif" font-size="10.00">Source.h</text>
</a>
</g>
</g>
<!-- Node1&#45;&gt;Node26 -->
<g id="edge25_Node000001_Node000026" class="edge">
<title>Node1&#45;&gt;Node26</title>
<g id="a_edge25_Node000001_Node000026"><a xlink:title=" ">
<path fill="none" stroke="#63b8ff" d="M2134.59,-125.52C2123.37,-116.23 2110.56,-105.65 2100.5,-97.33"/>
<polygon fill="#63b8ff" stroke="#63b8ff" points="2132.07,-127.97 2142.01,-131.65 2136.53,-122.58 2132.07,-127.97"/>
</a>
</g>
</g>
<!-- Node28 -->
<g id="Node000028" class="node">
<title>Node28</title>
<g id="a_Node000028"><a xlink:href="_in_scatter_8h.html" target="_top" xlink:title=" ">
<polygon fill="white" stroke="#666666" points="2305.62,-91.38 2174.12,-91.38 2174.12,-72.12 2305.62,-72.12 2305.62,-91.38"/>
<text text-anchor="middle" x="2239.88" y="-77.88" font-family="Helvetica,sans-Serif" font-size="10.00">include/kernels/InScatter.h</text>
</a>
</g>
</g>
<!-- Node1&#45;&gt;Node28 -->
<g id="edge27_Node000001_Node000028" class="edge">
<title>Node1&#45;&gt;Node28</title>
<g id="a_edge27_Node000001_Node000028"><a xlink:title=" ">
<path fill="none" stroke="#63b8ff" d="M2187.67,-125.37C2201.85,-113.8 2218.46,-100.24 2229.07,-91.57"/>
<polygon fill="#63b8ff" stroke="#63b8ff" points="2185.51,-122.62 2179.97,-131.66 2189.93,-128.04 2185.51,-122.62"/>
</a>
</g>
</g>
<!-- Node30 -->
<g id="Node000030" class="node">
<title>Node30</title>
<g id="a_Node000030"><a xlink:href="_precursor_decay_8h.html" target="_top" xlink:title=" ">
<polygon fill="white" stroke="#666666" points="2450,-97 2323.75,-97 2323.75,-66.5 2450,-66.5 2450,-97"/>
<text text-anchor="start" x="2331.75" y="-83.5" font-family="Helvetica,sans-Serif" font-size="10.00">include/kernels/Precursor</text>
<text text-anchor="middle" x="2386.88" y="-72.25" font-family="Helvetica,sans-Serif" font-size="10.00">Decay.h</text>
</a>
</g>
</g>
<!-- Node1&#45;&gt;Node30 -->
<g id="edge29_Node000001_Node000030" class="edge">
<title>Node1&#45;&gt;Node30</title>
<g id="a_edge29_Node000001_Node000030"><a xlink:title=" ">
<path fill="none" stroke="#63b8ff" d="M2223.12,-129.49C2258.46,-119.4 2302.16,-106.93 2335.53,-97.4"/>
<polygon fill="#63b8ff" stroke="#63b8ff" points="2222.55,-126.01 2213.9,-132.12 2224.47,-132.74 2222.55,-126.01"/>
</a>
</g>
</g>
<!-- Node32 -->
<g id="Node000032" class="node">
<title>Node32</title>
<g id="a_Node000032"><a xlink:href="_precursor_eigen_source_8h.html" target="_top" xlink:title=" ">
<polygon fill="white" stroke="#666666" points="2594,-97 2467.75,-97 2467.75,-66.5 2594,-66.5 2594,-97"/>
<text text-anchor="start" x="2475.75" y="-83.5" font-family="Helvetica,sans-Serif" font-size="10.00">include/kernels/Precursor</text>
<text text-anchor="middle" x="2530.88" y="-72.25" font-family="Helvetica,sans-Serif" font-size="10.00">EigenSource.h</text>
</a>
</g>
</g>
<!-- Node1&#45;&gt;Node32 -->
<g id="edge31_Node000001_Node000032" class="edge">
<title>Node1&#45;&gt;Node32</title>
<g id="a_edge31_Node000001_Node000032"><a xlink:title=" ">
<path fill="none" stroke="#63b8ff" d="M2243.91,-133.9C2303.75,-124.11 2386.39,-110.28 2458.88,-97 2461.63,-96.49 2464.45,-95.97 2467.29,-95.44"/>
<polygon fill="#63b8ff" stroke="#63b8ff" points="2243.43,-130.43 2234.12,-135.49 2244.56,-137.34 2243.43,-130.43"/>
</a>
</g>
</g>
<!-- Node34 -->
<g id="Node000034" class="node">
<title>Node34</title>
<g id="a_Node000034"><a xlink:href="_precursor_source_8h.html" target="_top" xlink:title=" ">
<polygon fill="white" stroke="#666666" points="2738,-97 2611.75,-97 2611.75,-66.5 2738,-66.5 2738,-97"/>
<text text-anchor="start" x="2619.75" y="-83.5" font-family="Helvetica,sans-Serif" font-size="10.00">include/kernels/Precursor</text>
<text text-anchor="middle" x="2674.88" y="-72.25" font-family="Helvetica,sans-Serif" font-size="10.00">Source.h</text>
</a>
</g>
</g>
<!-- Node1&#45;&gt;Node34 -->
<g id="edge33_Node000001_Node000034" class="edge">
<title>Node1&#45;&gt;Node34</title>
<g id="a_edge33_Node000001_Node000034"><a xlink:title=" ">
<path fill="none" stroke="#63b8ff" d="M2244.08,-139.85C2333.13,-131.45 2478.41,-116.36 2602.88,-97 2605.65,-96.57 2608.47,-96.11 2611.32,-95.62"/>
<polygon fill="#63b8ff" stroke="#63b8ff" points="2243.83,-136.36 2234.2,-140.77 2244.49,-143.33 2243.83,-136.36"/>
</a>
</g>
</g>
<!-- Node36 -->
<g id="Node000036" class="node">
<title>Node36</title>
<g id="a_Node000036"><a xlink:href="_scalar_advection_art_diff_8h.html" target="_top" xlink:title=" ">
<polygon fill="white" stroke="#666666" points="2911.62,-97 2756.12,-97 2756.12,-66.5 2911.62,-66.5 2911.62,-97"/>
<text text-anchor="start" x="2764.12" y="-83.5" font-family="Helvetica,sans-Serif" font-size="10.00">include/kernels/ScalarAdvection</text>
<text text-anchor="middle" x="2833.88" y="-72.25" font-family="Helvetica,sans-Serif" font-size="10.00">ArtDiff.h</text>
</a>
</g>
</g>
<!-- Node1&#45;&gt;Node36 -->
<g id="edge35_Node000001_Node000036" class="edge">
<title>Node1&#45;&gt;Node36</title>
<g id="a_edge35_Node000001_Node000036"><a xlink:title=" ">
<path fill="none" stroke="#63b8ff" d="M2243.69,-142.16C2357.39,-134.71 2568.09,-119.27 2746.88,-97 2749.76,-96.64 2752.7,-96.26 2755.66,-95.85"/>
<polygon fill="#63b8ff" stroke="#63b8ff" points="2243.58,-138.66 2233.83,-142.8 2244.04,-145.64 2243.58,-138.66"/>
</a>
</g>
</g>
<!-- Node38 -->
<g id="Node000038" class="node">
<title>Node38</title>
<g id="a_Node000038"><a xlink:href="_scalar_transport_time_derivative_8h.html" target="_top" xlink:title=" ">
<polygon fill="white" stroke="#666666" points="3082.5,-97 2929.25,-97 2929.25,-66.5 3082.5,-66.5 3082.5,-97"/>
<text text-anchor="start" x="2937.25" y="-83.5" font-family="Helvetica,sans-Serif" font-size="10.00">include/kernels/ScalarTransport</text>
<text text-anchor="middle" x="3005.88" y="-72.25" font-family="Helvetica,sans-Serif" font-size="10.00">TimeDerivative.h</text>
</a>
</g>
</g>
<!-- Node1&#45;&gt;Node38 -->
<g id="edge37_Node000001_Node000038" class="edge">
<title>Node1&#45;&gt;Node38</title>
<g id="a_edge37_Node000001_Node000038"><a xlink:title=" ">
<path fill="none" stroke="#63b8ff" d="M2244.05,-144.48C2384.11,-139.19 2675.75,-125.58 2920.88,-97 2923.55,-96.69 2926.27,-96.35 2929.01,-95.99"/>
<polygon fill="#63b8ff" stroke="#63b8ff" points="2243.98,-140.98 2234.12,-144.85 2244.24,-147.97 2243.98,-140.98"/>
</a>
</g>
</g>
<!-- Node42 -->
<g id="Node000042" class="node">
<title>Node42</title>
<g id="a_Node000042"><a xlink:href="_sigma_r_8h.html" target="_top" xlink:title=" ">
<polygon fill="white" stroke="#666666" points="3227,-91.38 3100.75,-91.38 3100.75,-72.12 3227,-72.12 3227,-91.38"/>
<text text-anchor="middle" x="3163.88" y="-77.88" font-family="Helvetica,sans-Serif" font-size="10.00">include/kernels/SigmaR.h</text>
</a>
</g>
</g>
<!-- Node1&#45;&gt;Node42 -->
<g id="edge40_Node000001_Node000042" class="edge">
<title>Node1&#45;&gt;Node42</title>
<g id="a_edge40_Node000001_Node000042"><a xlink:title=" ">
<path fill="none" stroke="#63b8ff" d="M2244.11,-146.7C2407.35,-144.74 2780.73,-135.99 3091.88,-97 3102.12,-95.72 3113.08,-93.82 3123.3,-91.82"/>
<polygon fill="#63b8ff" stroke="#63b8ff" points="2244.2,-143.2 2234.24,-146.81 2244.28,-150.2 2244.2,-143.2"/>
</a>
</g>
</g>
<!-- Node44 -->
<g id="Node000044" class="node">
<title>Node44</title>
<g id="a_Node000044"><a xlink:href="_transient_fission_heat_source_8h.html" target="_top" xlink:title=" ">
<polygon fill="white" stroke="#666666" points="3370.25,-97 3245.5,-97 3245.5,-66.5 3370.25,-66.5 3370.25,-97"/>
<text text-anchor="start" x="3253.5" y="-83.5" font-family="Helvetica,sans-Serif" font-size="10.00">include/kernels/Transient</text>
<text text-anchor="middle" x="3307.88" y="-72.25" font-family="Helvetica,sans-Serif" font-size="10.00">FissionHeatSource.h</text>
</a>
</g>
</g>
<!-- Node1&#45;&gt;Node44 -->
<g id="edge42_Node000001_Node000044" class="edge">
<title>Node1&#45;&gt;Node44</title>
<g id="a_edge42_Node000001_Node000044"><a xlink:title=" ">
<path fill="none" stroke="#63b8ff" d="M2243.85,-147.56C2424.75,-147.32 2867.96,-141.76 3235.88,-97 3238.91,-96.63 3242.01,-96.21 3245.13,-95.74"/>
<polygon fill="#63b8ff" stroke="#63b8ff" points="2244.08,-144.06 2234.09,-147.57 2244.09,-151.06 2244.08,-144.06"/>
</a>
</g>
</g>
<!-- Node46 -->
<g id="Node000046" class="node">
<title>Node46</title>
<g id="a_Node000046"><a xlink:href="_elm_integ_tot_fiss_postprocessor_8h.html" target="_top" xlink:title=" ">
<polygon fill="#fff0f0" stroke="red" points="3549.25,-97 3388.5,-97 3388.5,-66.5 3549.25,-66.5 3549.25,-97"/>
<text text-anchor="start" x="3396.5" y="-83.5" font-family="Helvetica,sans-Serif" font-size="10.00">include/postprocessors</text>
<text text-anchor="middle" x="3468.88" y="-72.25" font-family="Helvetica,sans-Serif" font-size="10.00">/ElmIntegTotFissPostprocessor.h</text>
</a>
</g>
</g>
<!-- Node1&#45;&gt;Node46 -->
<g id="edge44_Node000001_Node000046" class="edge">
<title>Node1&#45;&gt;Node46</title>
<g id="a_edge44_Node000001_Node000046"><a xlink:title=" ">
<path fill="none" stroke="#63b8ff" d="M2243.88,-147.13C2441.17,-146.13 2953.51,-139.31 3378.88,-97 3382.02,-96.69 3385.23,-96.34 3388.46,-95.95"/>
<polygon fill="#63b8ff" stroke="#63b8ff" points="2243.96,-143.63 2233.98,-147.18 2244,-150.63 2243.96,-143.63"/>
</a>
</g>
</g>
<!-- Node52 -->
<g id="Node000052" class="node">
<title>Node52</title>
<g id="a_Node000052"><a xlink:href="_integral_new_variable_postprocessor_8h.html" target="_top" xlink:title=" ">
<polygon fill="#fff0f0" stroke="red" points="3744.5,-97 3567.25,-97 3567.25,-66.5 3744.5,-66.5 3744.5,-97"/>
<text text-anchor="start" x="3575.25" y="-83.5" font-family="Helvetica,sans-Serif" font-size="10.00">include/postprocessors</text>
<text text-anchor="middle" x="3655.88" y="-72.25" font-family="Helvetica,sans-Serif" font-size="10.00">/IntegralNewVariablePostprocessor.h</text>
</a>
</g>
</g>
<!-- Node1&#45;&gt;Node52 -->
<g id="edge46_Node000001_Node000052" class="edge">
<title>Node1&#45;&gt;Node52</title>
<g id="a_edge46_Node000001_Node000052"><a xlink:title=" ">
<path fill="none" stroke="#63b8ff" d="M2243.91,-147.4C2460.57,-147.11 3060.7,-141.95 3557.88,-97 3560.87,-96.73 3563.92,-96.43 3566.99,-96.1"/>
<polygon fill="#63b8ff" stroke="#63b8ff" points="2244.16,-143.9 2234.17,-147.41 2244.17,-150.9 2244.16,-143.9"/>
</a>
</g>
</g>
<!-- Node54 -->
<g id="Node000054" class="node">
<title>Node54</title>
<g id="a_Node000054"><a xlink:href="_integral_old_variable_postprocessor_8h.html" target="_top" xlink:title=" ">
<polygon fill="#fff0f0" stroke="red" points="3934.88,-97 3762.88,-97 3762.88,-66.5 3934.88,-66.5 3934.88,-97"/>
<text text-anchor="start" x="3770.88" y="-83.5" font-family="Helvetica,sans-Serif" font-size="10.00">include/postprocessors</text>
<text text-anchor="middle" x="3848.88" y="-72.25" font-family="Helvetica,sans-Serif" font-size="10.00">/IntegralOldVariablePostprocessor.h</text>
</a>
</g>
</g>
<!-- Node1&#45;&gt;Node54 -->
<g id="edge47_Node000001_Node000054" class="edge">
<title>Node1&#45;&gt;Node54</title>
<g id="a_edge47_Node000001_Node000054"><a xlink:title=" ">
<path fill="none" stroke="#63b8ff" d="M2244.06,-145.92C2527.8,-141.17 3456.42,-123.91 3753.88,-97 3756.7,-96.74 3759.57,-96.46 3762.46,-96.15"/>
<polygon fill="#63b8ff" stroke="#63b8ff" points="2244.09,-142.42 2234.15,-146.08 2244.21,-149.41 2244.09,-142.42"/>
</a>
</g>
</g>
<!-- Node56 -->
<g id="Node000056" class="node">
<title>Node56</title>
<g id="a_Node000056"><a xlink:href="_total_neutron_leakage_8h.html" target="_top" xlink:title=" ">
<polygon fill="#fff0f0" stroke="red" points="4073,-97 3952.75,-97 3952.75,-66.5 4073,-66.5 4073,-97"/>
<text text-anchor="start" x="3960.75" y="-83.5" font-family="Helvetica,sans-Serif" font-size="10.00">include/postprocessors</text>
<text text-anchor="middle" x="4012.88" y="-72.25" font-family="Helvetica,sans-Serif" font-size="10.00">/TotalNeutronLeakage.h</text>
</a>
</g>
</g>
<!-- Node1&#45;&gt;Node56 -->
<g id="edge48_Node000001_Node000056" class="edge">
<title>Node1&#45;&gt;Node56</title>
<g id="a_edge48_Node000001_Node000056"><a xlink:title=" ">
<path fill="none" stroke="#63b8ff" d="M2244.09,-146.84C2549.5,-145.05 3608.3,-136.07 3943.88,-97 3946.67,-96.67 3949.52,-96.29 3952.39,-95.87"/>
<polygon fill="#63b8ff" stroke="#63b8ff" points="2244.18,-143.34 2234.2,-146.9 2244.22,-150.34 2244.18,-143.34"/>
</a>
</g>
</g>
<!-- Node58 -->
<g id="Node000058" class="node">
<title>Node58</title>
<g id="a_Node000058"><a xlink:href="_scalar_transport_base_8_c.html" target="_top" xlink:title=" ">
<polygon fill="white" stroke="#666666" points="4216.62,-97 4091.12,-97 4091.12,-66.5 4216.62,-66.5 4216.62,-97"/>
<text text-anchor="start" x="4099.12" y="-83.5" font-family="Helvetica,sans-Serif" font-size="10.00">src/base/ScalarTransport</text>
<text text-anchor="middle" x="4153.88" y="-72.25" font-family="Helvetica,sans-Serif" font-size="10.00">Base.C</text>
</a>
</g>
</g>
<!-- Node1&#45;&gt;Node58 -->
<g id="edge49_Node000001_Node000058" class="edge">
<title>Node1&#45;&gt;Node58</title>
<g id="a_edge49_Node000001_Node000058"><a xlink:title=" ">
<path fill="none" stroke="#63b8ff" d="M2244,-146.95C2564.15,-145.5 3717.7,-137.51 4081.88,-97 4084.79,-96.68 4087.76,-96.3 4090.75,-95.87"/>
<polygon fill="#63b8ff" stroke="#63b8ff" points="2244.01,-143.45 2234.03,-146.99 2244.04,-150.45 2244.01,-143.45"/>
</a>
</g>
</g>
<!-- Node3 -->
<g id="Node000003" class="node">
<title>Node3</title>
<g id="a_Node000003"><a xlink:href="_coupled_scalar_advection_no_b_c_b_c_8_c.html" target="_top" xlink:title=" ">
<polygon fill="white" stroke="#666666" points="157.75,-30.5 0,-30.5 0,0 157.75,0 157.75,-30.5"/>
<text text-anchor="start" x="8" y="-17" font-family="Helvetica,sans-Serif" font-size="10.00">src/bcs/CoupledScalarAdvection</text>
<text text-anchor="middle" x="78.88" y="-5.75" font-family="Helvetica,sans-Serif" font-size="10.00">NoBCBC.C</text>
</a>
</g>
</g>
<!-- Node2&#45;&gt;Node3 -->
<g id="edge2_Node000002_Node000003" class="edge">
<title>Node2&#45;&gt;Node3</title>
<g id="a_edge2_Node000002_Node000003"><a xlink:title=" ">
<path fill="none" stroke="#63b8ff" d="M90.32,-55.09C87.89,-46.84 85.28,-37.99 83.17,-30.83"/>
<polygon fill="#63b8ff" stroke="#63b8ff" points="86.95,-56.06 93.14,-64.66 93.67,-54.08 86.95,-56.06"/>
</a>
</g>
</g>
<!-- Node5 -->
<g id="Node000005" class="node">
<title>Node5</title>
<g id="a_Node000005"><a xlink:href="_lin_log_penalty_dirichlet_b_c_8_c.html" target="_top" xlink:title=" ">
<polygon fill="white" stroke="#666666" points="347.5,-24.88 176.25,-24.88 176.25,-5.63 347.5,-5.63 347.5,-24.88"/>
<text text-anchor="middle" x="261.88" y="-11.38" font-family="Helvetica,sans-Serif" font-size="10.00">src/bcs/LinLogPenaltyDirichletBC.C</text>
</a>
</g>
</g>
<!-- Node4&#45;&gt;Node5 -->
<g id="edge4_Node000004_Node000005" class="edge">
<title>Node4&#45;&gt;Node5</title>
<g id="a_edge4_Node000004_Node000005"><a xlink:title=" ">
<path fill="none" stroke="#63b8ff" d="M263.07,-54.84C262.74,-44.26 262.39,-32.75 262.15,-25.07"/>
<polygon fill="#63b8ff" stroke="#63b8ff" points="259.57,-54.71 263.37,-64.6 266.56,-54.5 259.57,-54.71"/>
</a>
</g>
</g>
<!-- Node7 -->
<g id="Node000007" class="node">
<title>Node7</title>
<g id="a_Node000007"><a xlink:href="_scalar_advection_art_diff_no_b_c_b_c_8_c.html" target="_top" xlink:title=" ">
<polygon fill="white" stroke="#666666" points="500.5,-30.5 365.25,-30.5 365.25,0 500.5,0 500.5,-30.5"/>
<text text-anchor="start" x="373.25" y="-17" font-family="Helvetica,sans-Serif" font-size="10.00">src/bcs/ScalarAdvectionArt</text>
<text text-anchor="middle" x="432.88" y="-5.75" font-family="Helvetica,sans-Serif" font-size="10.00">DiffNoBCBC.C</text>
</a>
</g>
</g>
<!-- Node6&#45;&gt;Node7 -->
<g id="edge6_Node000006_Node000007" class="edge">
<title>Node6&#45;&gt;Node7</title>
<g id="a_edge6_Node000006_Node000007"><a xlink:title=" ">
<path fill="none" stroke="#63b8ff" d="M425.7,-54.81C427.22,-46.64 428.84,-37.91 430.16,-30.83"/>
<polygon fill="#63b8ff" stroke="#63b8ff" points="422.26,-54.15 423.87,-64.63 429.14,-55.43 422.26,-54.15"/>
</a>
</g>
</g>
<!-- Node9 -->
<g id="Node000009" class="node">
<title>Node9</title>
<g id="a_Node000009"><a xlink:href="_vacuum_conc_b_c_8_c.html" target="_top" xlink:title=" ">
<polygon fill="white" stroke="#666666" points="651,-24.88 518.75,-24.88 518.75,-5.63 651,-5.63 651,-24.88"/>
<text text-anchor="middle" x="584.88" y="-11.38" font-family="Helvetica,sans-Serif" font-size="10.00">src/bcs/VacuumConcBC.C</text>
</a>
</g>
</g>
<!-- Node8&#45;&gt;Node9 -->
<g id="edge8_Node000008_Node000009" class="edge">
<title>Node8&#45;&gt;Node9</title>
<g id="a_edge8_Node000008_Node000009"><a xlink:title=" ">
<path fill="none" stroke="#63b8ff" d="M583.5,-60.65C583.87,-48.75 584.32,-34.26 584.6,-25.14"/>
<polygon fill="#63b8ff" stroke="#63b8ff" points="580.01,-60.17 583.2,-70.27 587.01,-60.38 580.01,-60.17"/>
</a>
</g>
</g>
<!-- Node11 -->
<g id="Node000011" class="node">
<title>Node11</title>
<g id="a_Node000011"><a xlink:href="_coupled_fission_eigen_kernel_8_c.html" target="_top" xlink:title=" ">
<polygon fill="white" stroke="#666666" points="817.75,-30.5 684,-30.5 684,0 817.75,0 817.75,-30.5"/>
<text text-anchor="start" x="692" y="-17" font-family="Helvetica,sans-Serif" font-size="10.00">src/kernels/CoupledFission</text>
<text text-anchor="middle" x="750.88" y="-5.75" font-family="Helvetica,sans-Serif" font-size="10.00">EigenKernel.C</text>
</a>
</g>
</g>
<!-- Node10&#45;&gt;Node11 -->
<g id="edge10_Node000010_Node000011" class="edge">
<title>Node10&#45;&gt;Node11</title>
<g id="a_edge10_Node000010_Node000011"><a xlink:title=" ">
<path fill="none" stroke="#63b8ff" d="M750.88,-54.81C750.88,-46.64 750.88,-37.91 750.88,-30.83"/>
<polygon fill="#63b8ff" stroke="#63b8ff" points="747.38,-54.6 750.88,-64.6 754.38,-54.6 747.38,-54.6"/>
</a>
</g>
</g>
<!-- Node13 -->
<g id="Node000013" class="node">
<title>Node13</title>
<g id="a_Node000013"><a xlink:href="_coupled_fission_kernel_8_c.html" target="_top" xlink:title=" ">
<polygon fill="white" stroke="#666666" points="986.75,-30.5 853,-30.5 853,0 986.75,0 986.75,-30.5"/>
<text text-anchor="start" x="861" y="-17" font-family="Helvetica,sans-Serif" font-size="10.00">src/kernels/CoupledFission</text>
<text text-anchor="middle" x="919.88" y="-5.75" font-family="Helvetica,sans-Serif" font-size="10.00">Kernel.C</text>
</a>
</g>
</g>
<!-- Node12&#45;&gt;Node13 -->
<g id="edge12_Node000012_Node000013" class="edge">
<title>Node12&#45;&gt;Node13</title>
<g id="a_edge12_Node000012_Node000013"><a xlink:title=" ">
<path fill="none" stroke="#63b8ff" d="M919.88,-54.81C919.88,-46.64 919.88,-37.91 919.88,-30.83"/>
<polygon fill="#63b8ff" stroke="#63b8ff" points="916.38,-54.6 919.88,-64.6 923.38,-54.6 916.38,-54.6"/>
</a>
</g>
</g>
<!-- Node15 -->
<g id="Node000015" class="node">
<title>Node15</title>
<g id="a_Node000015"><a xlink:href="_coupled_scalar_advection_8_c.html" target="_top" xlink:title=" ">
<polygon fill="white" stroke="#666666" points="1149.88,-30.5 1019.88,-30.5 1019.88,0 1149.88,0 1149.88,-30.5"/>
<text text-anchor="start" x="1027.88" y="-17" font-family="Helvetica,sans-Serif" font-size="10.00">src/kernels/CoupledScalar</text>
<text text-anchor="middle" x="1084.88" y="-5.75" font-family="Helvetica,sans-Serif" font-size="10.00">Advection.C</text>
</a>
</g>
</g>
<!-- Node14&#45;&gt;Node15 -->
<g id="edge14_Node000014_Node000015" class="edge">
<title>Node14&#45;&gt;Node15</title>
<g id="a_edge14_Node000014_Node000015"><a xlink:title=" ">
<path fill="none" stroke="#63b8ff" d="M1086.07,-54.81C1085.82,-46.64 1085.55,-37.91 1085.33,-30.83"/>
<polygon fill="#63b8ff" stroke="#63b8ff" points="1082.57,-54.71 1086.37,-64.6 1089.56,-54.5 1082.57,-54.71"/>
</a>
</g>
</g>
<!-- Node17 -->
<g id="Node000017" class="node">
<title>Node17</title>
<g id="a_Node000017"><a xlink:href="_decay_heat_source_8_c.html" target="_top" xlink:title=" ">
<polygon fill="white" stroke="#666666" points="1322.25,-24.88 1167.5,-24.88 1167.5,-5.63 1322.25,-5.63 1322.25,-24.88"/>
<text text-anchor="middle" x="1244.88" y="-11.38" font-family="Helvetica,sans-Serif" font-size="10.00">src/kernels/DecayHeatSource.C</text>
</a>
</g>
</g>
<!-- Node16&#45;&gt;Node17 -->
<g id="edge16_Node000016_Node000017" class="edge">
<title>Node16&#45;&gt;Node17</title>
<g id="a_edge16_Node000016_Node000017"><a xlink:title=" ">
<path fill="none" stroke="#63b8ff" d="M1244.88,-54.84C1244.88,-44.26 1244.88,-32.75 1244.88,-25.07"/>
<polygon fill="#63b8ff" stroke="#63b8ff" points="1241.38,-54.6 1244.88,-64.6 1248.38,-54.6 1241.38,-54.6"/>
</a>
</g>
</g>
<!-- Node19 -->
<g id="Node000019" class="node">
<title>Node19</title>
<g id="a_Node000019"><a xlink:href="_delayed_neutron_source_8_c.html" target="_top" xlink:title=" ">
<polygon fill="white" stroke="#666666" points="1475.88,-30.5 1339.88,-30.5 1339.88,0 1475.88,0 1475.88,-30.5"/>
<text text-anchor="start" x="1347.88" y="-17" font-family="Helvetica,sans-Serif" font-size="10.00">src/kernels/DelayedNeutron</text>
<text text-anchor="middle" x="1407.88" y="-5.75" font-family="Helvetica,sans-Serif" font-size="10.00">Source.C</text>
</a>
</g>
</g>
<!-- Node18&#45;&gt;Node19 -->
<g id="edge18_Node000018_Node000019" class="edge">
<title>Node18&#45;&gt;Node19</title>
<g id="a_edge18_Node000018_Node000019"><a xlink:title=" ">
<path fill="none" stroke="#63b8ff" d="M1406.68,-54.81C1406.93,-46.64 1407.2,-37.91 1407.42,-30.83"/>
<polygon fill="#63b8ff" stroke="#63b8ff" points="1403.19,-54.5 1406.38,-64.6 1410.18,-54.71 1403.19,-54.5"/>
</a>
</g>
</g>
<!-- Node21 -->
<g id="Node000021" class="node">
<title>Node21</title>
<g id="a_Node000021"><a xlink:href="_div_free_coupled_scalar_advection_8_c.html" target="_top" xlink:title=" ">
<polygon fill="white" stroke="#666666" points="1644.88,-30.5 1508.88,-30.5 1508.88,0 1644.88,0 1644.88,-30.5"/>
<text text-anchor="start" x="1516.88" y="-17" font-family="Helvetica,sans-Serif" font-size="10.00">src/kernels/DivFreeCoupled</text>
<text text-anchor="middle" x="1576.88" y="-5.75" font-family="Helvetica,sans-Serif" font-size="10.00">ScalarAdvection.C</text>
</a>
</g>
</g>
<!-- Node20&#45;&gt;Node21 -->
<g id="edge20_Node000020_Node000021" class="edge">
<title>Node20&#45;&gt;Node21</title>
<g id="a_edge20_Node000020_Node000021"><a xlink:title=" ">
<path fill="none" stroke="#63b8ff" d="M1576.88,-54.81C1576.88,-46.64 1576.88,-37.91 1576.88,-30.83"/>
<polygon fill="#63b8ff" stroke="#63b8ff" points="1573.38,-54.6 1576.88,-64.6 1580.38,-54.6 1573.38,-54.6"/>
</a>
</g>
</g>
<!-- Node23 -->
<g id="Node000023" class="node">
<title>Node23</title>
<g id="a_Node000023"><a xlink:href="_group_diffusion_8_c.html" target="_top" xlink:title=" ">
<polygon fill="white" stroke="#666666" points="1818.75,-24.88 1679,-24.88 1679,-5.63 1818.75,-5.63 1818.75,-24.88"/>
<text text-anchor="middle" x="1748.88" y="-11.38" font-family="Helvetica,sans-Serif" font-size="10.00">src/kernels/GroupDiffusion.C</text>
</a>
</g>
</g>
<!-- Node22&#45;&gt;Node23 -->
<g id="edge22_Node000022_Node000023" class="edge">
<title>Node22&#45;&gt;Node23</title>
<g id="a_edge22_Node000022_Node000023"><a xlink:title=" ">
<path fill="none" stroke="#63b8ff" d="M1748.88,-60.27C1748.88,-48.44 1748.88,-34.16 1748.88,-25.14"/>
<polygon fill="#63b8ff" stroke="#63b8ff" points="1745.38,-60.27 1748.88,-70.27 1752.38,-60.27 1745.38,-60.27"/>
</a>
</g>
</g>
<!-- Node25 -->
<g id="Node000025" class="node">
<title>Node25</title>
<g id="a_Node000025"><a xlink:href="_heat_precursor_decay_8_c.html" target="_top" xlink:title=" ">
<polygon fill="white" stroke="#666666" points="1982.88,-30.5 1852.88,-30.5 1852.88,0 1982.88,0 1982.88,-30.5"/>
<text text-anchor="start" x="1860.88" y="-17" font-family="Helvetica,sans-Serif" font-size="10.00">src/kernels/HeatPrecursor</text>
<text text-anchor="middle" x="1917.88" y="-5.75" font-family="Helvetica,sans-Serif" font-size="10.00">Decay.C</text>
</a>
</g>
</g>
<!-- Node24&#45;&gt;Node25 -->
<g id="edge24_Node000024_Node000025" class="edge">
<title>Node24&#45;&gt;Node25</title>
<g id="a_edge24_Node000024_Node000025"><a xlink:title=" ">
<path fill="none" stroke="#63b8ff" d="M1917.88,-54.81C1917.88,-46.64 1917.88,-37.91 1917.88,-30.83"/>
<polygon fill="#63b8ff" stroke="#63b8ff" points="1914.38,-54.6 1917.88,-64.6 1921.38,-54.6 1914.38,-54.6"/>
</a>
</g>
</g>
<!-- Node27 -->
<g id="Node000027" class="node">
<title>Node27</title>
<g id="a_Node000027"><a xlink:href="_heat_precursor_source_8_c.html" target="_top" xlink:title=" ">
<polygon fill="white" stroke="#666666" points="2132.88,-30.5 2002.88,-30.5 2002.88,0 2132.88,0 2132.88,-30.5"/>
<text text-anchor="start" x="2010.88" y="-17" font-family="Helvetica,sans-Serif" font-size="10.00">src/kernels/HeatPrecursor</text>
<text text-anchor="middle" x="2067.88" y="-5.75" font-family="Helvetica,sans-Serif" font-size="10.00">Source.C</text>
</a>
</g>
</g>
<!-- Node26&#45;&gt;Node27 -->
<g id="edge26_Node000026_Node000027" class="edge">
<title>Node26&#45;&gt;Node27</title>
<g id="a_edge26_Node000026_Node000027"><a xlink:title=" ">
<path fill="none" stroke="#63b8ff" d="M2076.91,-55.09C2074.99,-46.84 2072.93,-37.99 2071.27,-30.83"/>
<polygon fill="#63b8ff" stroke="#63b8ff" points="2073.45,-55.69 2079.13,-64.64 2080.27,-54.11 2073.45,-55.69"/>
</a>
</g>
</g>
<!-- Node29 -->
<g id="Node000029" class="node">
<title>Node29</title>
<g id="a_Node000029"><a xlink:href="_in_scatter_8_c.html" target="_top" xlink:title=" ">
<polygon fill="white" stroke="#666666" points="2266.75,-24.88 2151,-24.88 2151,-5.63 2266.75,-5.63 2266.75,-24.88"/>
<text text-anchor="middle" x="2208.88" y="-11.38" font-family="Helvetica,sans-Serif" font-size="10.00">src/kernels/InScatter.C</text>
</a>
</g>
</g>
<!-- Node28&#45;&gt;Node29 -->
<g id="edge28_Node000028_Node000029" class="edge">
<title>Node28&#45;&gt;Node29</title>
<g id="a_edge28_Node000028_Node000029"><a xlink:title=" ">
<path fill="none" stroke="#63b8ff" d="M2230.75,-61.77C2224.94,-49.67 2217.67,-34.55 2213.15,-25.14"/>
<polygon fill="#63b8ff" stroke="#63b8ff" points="2227.42,-62.92 2234.91,-70.42 2233.73,-59.89 2227.42,-62.92"/>
</a>
</g>
</g>
<!-- Node31 -->
<g id="Node000031" class="node">
<title>Node31</title>
<g id="a_Node000031"><a xlink:href="_precursor_decay_8_c.html" target="_top" xlink:title=" ">
<polygon fill="white" stroke="#666666" points="2429.38,-24.88 2284.38,-24.88 2284.38,-5.63 2429.38,-5.63 2429.38,-24.88"/>
<text text-anchor="middle" x="2356.88" y="-11.38" font-family="Helvetica,sans-Serif" font-size="10.00">src/kernels/PrecursorDecay.C</text>
</a>
</g>
</g>
<!-- Node30&#45;&gt;Node31 -->
<g id="edge30_Node000030_Node000031" class="edge">
<title>Node30&#45;&gt;Node31</title>
<g id="a_edge30_Node000030_Node000031"><a xlink:title=" ">
<path fill="none" stroke="#63b8ff" d="M2375.3,-55.86C2370.25,-45.01 2364.66,-32.99 2360.98,-25.07"/>
<polygon fill="#63b8ff" stroke="#63b8ff" points="2372.04,-57.15 2379.43,-64.74 2378.39,-54.2 2372.04,-57.15"/>
</a>
</g>
</g>
<!-- Node33 -->
<g id="Node000033" class="node">
<title>Node33</title>
<g id="a_Node000033"><a xlink:href="_precursor_eigen_source_8_c.html" target="_top" xlink:title=" ">
<polygon fill="white" stroke="#666666" points="2580.38,-30.5 2447.38,-30.5 2447.38,0 2580.38,0 2580.38,-30.5"/>
<text text-anchor="start" x="2455.38" y="-17" font-family="Helvetica,sans-Serif" font-size="10.00">src/kernels/PrecursorEigen</text>
<text text-anchor="middle" x="2513.88" y="-5.75" font-family="Helvetica,sans-Serif" font-size="10.00">Source.C</text>
</a>
</g>
</g>
<!-- Node32&#45;&gt;Node33 -->
<g id="edge32_Node000032_Node000033" class="edge">
<title>Node32&#45;&gt;Node33</title>
<g id="a_edge32_Node000032_Node000033"><a xlink:title=" ">
<path fill="none" stroke="#63b8ff" d="M2524.11,-55.09C2521.94,-46.84 2519.61,-37.99 2517.72,-30.83"/>
<polygon fill="#63b8ff" stroke="#63b8ff" points="2520.7,-55.87 2526.63,-64.65 2527.47,-54.09 2520.7,-55.87"/>
</a>
</g>
</g>
<!-- Node35 -->
<g id="Node000035" class="node">
<title>Node35</title>
<g id="a_Node000035"><a xlink:href="_precursor_source_8_c.html" target="_top" xlink:title=" ">
<polygon fill="white" stroke="#666666" points="2747.25,-24.88 2598.5,-24.88 2598.5,-5.63 2747.25,-5.63 2747.25,-24.88"/>
<text text-anchor="middle" x="2672.88" y="-11.38" font-family="Helvetica,sans-Serif" font-size="10.00">src/kernels/PrecursorSource.C</text>
</a>
</g>
</g>
<!-- Node34&#45;&gt;Node35 -->
<g id="edge34_Node000034_Node000035" class="edge">
<title>Node34&#45;&gt;Node35</title>
<g id="a_edge34_Node000034_Node000035"><a xlink:title=" ">
<path fill="none" stroke="#63b8ff" d="M2674.07,-54.84C2673.74,-44.26 2673.39,-32.75 2673.15,-25.07"/>
<polygon fill="#63b8ff" stroke="#63b8ff" points="2670.57,-54.71 2674.37,-64.6 2677.56,-54.5 2670.57,-54.71"/>
</a>
</g>
</g>
<!-- Node37 -->
<g id="Node000037" class="node">
<title>Node37</title>
<g id="a_Node000037"><a xlink:href="_scalar_advection_art_diff_8_c.html" target="_top" xlink:title=" ">
<polygon fill="white" stroke="#666666" points="2904,-30.5 2765.75,-30.5 2765.75,0 2904,0 2904,-30.5"/>
<text text-anchor="start" x="2773.75" y="-17" font-family="Helvetica,sans-Serif" font-size="10.00">src/kernels/ScalarAdvection</text>
<text text-anchor="middle" x="2834.88" y="-5.75" font-family="Helvetica,sans-Serif" font-size="10.00">ArtDiff.C</text>
</a>
</g>
</g>
<!-- Node36&#45;&gt;Node37 -->
<g id="edge36_Node000036_Node000037" class="edge">
<title>Node36&#45;&gt;Node37</title>
<g id="a_edge36_Node000036_Node000037"><a xlink:title=" ">
<path fill="none" stroke="#63b8ff" d="M2834.28,-54.81C2834.4,-46.64 2834.54,-37.91 2834.65,-30.83"/>
<polygon fill="#63b8ff" stroke="#63b8ff" points="2830.78,-54.55 2834.13,-64.6 2837.78,-54.66 2830.78,-54.55"/>
</a>
</g>
</g>
<!-- Node39 -->
<g id="Node000039" class="node">
<title>Node39</title>
<g id="a_Node000039"><a xlink:href="_nt_time_derivative_8h.html" target="_top" xlink:title=" ">
<polygon fill="#fff0f0" stroke="red" points="3089.62,-24.88 2922.12,-24.88 2922.12,-5.63 3089.62,-5.63 3089.62,-24.88"/>
<text text-anchor="middle" x="3005.88" y="-11.38" font-family="Helvetica,sans-Serif" font-size="10.00">include/kernels/NtTimeDerivative.h</text>
</a>
</g>
</g>
<!-- Node38&#45;&gt;Node39 -->
<g id="edge38_Node000038_Node000039" class="edge">
<title>Node38&#45;&gt;Node39</title>
<g id="a_edge38_Node000038_Node000039"><a xlink:title=" ">
<path fill="none" stroke="#63b8ff" d="M3005.88,-54.84C3005.88,-44.26 3005.88,-32.75 3005.88,-25.07"/>
<polygon fill="#63b8ff" stroke="#63b8ff" points="3002.38,-54.6 3005.88,-64.6 3009.38,-54.6 3002.38,-54.6"/>
</a>
</g>
</g>
<!-- Node41 -->
<g id="Node000041" class="node">
<title>Node41</title>
<g id="a_Node000041"><a xlink:href="_scalar_transport_time_derivative_8_c.html" target="_top" xlink:title=" ">
<polygon fill="white" stroke="#666666" points="3243.88,-30.5 3107.88,-30.5 3107.88,0 3243.88,0 3243.88,-30.5"/>
<text text-anchor="start" x="3115.88" y="-17" font-family="Helvetica,sans-Serif" font-size="10.00">src/kernels/ScalarTransport</text>
<text text-anchor="middle" x="3175.88" y="-5.75" font-family="Helvetica,sans-Serif" font-size="10.00">TimeDerivative.C</text>
</a>
</g>
</g>
<!-- Node38&#45;&gt;Node41 -->
<g id="edge39_Node000038_Node000041" class="edge">
<title>Node38&#45;&gt;Node41</title>
<g id="a_edge39_Node000038_Node000041"><a xlink:title=" ">
<path fill="none" stroke="#63b8ff" d="M3054.91,-62.15C3081.05,-52.23 3112.76,-40.2 3137.16,-30.94"/>
<polygon fill="#63b8ff" stroke="#63b8ff" points="3053.97,-58.76 3045.87,-65.58 3056.46,-65.3 3053.97,-58.76"/>
</a>
</g>
</g>
<!-- Node43 -->
<g id="Node000043" class="node">
<title>Node43</title>
<g id="a_Node000043"><a xlink:href="_sigma_r_8_c.html" target="_top" xlink:title=" ">
<polygon fill="white" stroke="#666666" points="3372.12,-24.88 3261.62,-24.88 3261.62,-5.63 3372.12,-5.63 3372.12,-24.88"/>
<text text-anchor="middle" x="3316.88" y="-11.38" font-family="Helvetica,sans-Serif" font-size="10.00">src/kernels/SigmaR.C</text>
</a>
</g>
</g>
<!-- Node42&#45;&gt;Node43 -->
<g id="edge41_Node000042_Node000043" class="edge">
<title>Node42&#45;&gt;Node43</title>
<g id="a_edge41_Node000042_Node000043"><a xlink:title=" ">
<path fill="none" stroke="#63b8ff" d="M3195.79,-67.3C3225.66,-54.7 3269.47,-36.24 3295.39,-25.31"/>
<polygon fill="#63b8ff" stroke="#63b8ff" points="3194.72,-63.95 3186.87,-71.06 3197.44,-70.4 3194.72,-63.95"/>
</a>
</g>
</g>
<!-- Node45 -->
<g id="Node000045" class="node">
<title>Node45</title>
<g id="a_Node000045"><a xlink:href="_transient_fission_heat_source_8_c.html" target="_top" xlink:title=" ">
<polygon fill="white" stroke="#666666" points="3529.38,-30.5 3390.38,-30.5 3390.38,0 3529.38,0 3529.38,-30.5"/>
<text text-anchor="start" x="3398.38" y="-17" font-family="Helvetica,sans-Serif" font-size="10.00">src/kernels/TransientFission</text>
<text text-anchor="middle" x="3459.88" y="-5.75" font-family="Helvetica,sans-Serif" font-size="10.00">HeatSource.C</text>
</a>
</g>
</g>
<!-- Node44&#45;&gt;Node45 -->
<g id="edge43_Node000044_Node000045" class="edge">
<title>Node44&#45;&gt;Node45</title>
<g id="a_edge43_Node000044_Node000045"><a xlink:title=" ">
<path fill="none" stroke="#63b8ff" d="M3352.65,-61.75C3375.85,-51.91 3403.74,-40.07 3425.26,-30.94"/>
<polygon fill="#63b8ff" stroke="#63b8ff" points="3351.6,-58.39 3343.76,-65.52 3354.33,-64.84 3351.6,-58.39"/>
</a>
</g>
</g>
<!-- Node47 -->
<g id="Node000047" class="node">
<title>Node47</title>
<g id="a_Node000047"><a xlink:href="_elm_integ_tot_fiss_heat_postprocessor_8h.html" target="_top" xlink:title=" ">
<polygon fill="#fff0f0" stroke="red" points="3728.75,-30.5 3547,-30.5 3547,0 3728.75,0 3728.75,-30.5"/>
<text text-anchor="start" x="3555" y="-17" font-family="Helvetica,sans-Serif" font-size="10.00">include/postprocessors</text>
<text text-anchor="middle" x="3637.88" y="-5.75" font-family="Helvetica,sans-Serif" font-size="10.00">/ElmIntegTotFissHeatPostprocessor.h</text>
</a>
</g>
</g>
<!-- Node46&#45;&gt;Node47 -->
<g id="edge45_Node000046_Node000047" class="edge">
<title>Node46&#45;&gt;Node47</title>
<g id="a_edge45_Node000046_Node000047"><a xlink:title=" ">
<path fill="none" stroke="#63b8ff" d="M3517.96,-62.01C3543.89,-52.12 3575.24,-40.15 3599.39,-30.94"/>
<polygon fill="#63b8ff" stroke="#63b8ff" points="3516.73,-58.74 3508.64,-65.57 3519.23,-65.28 3516.73,-58.74"/>
</a>
</g>
</g>
</g>
</svg>
