<?xml version="1.0" encoding="UTF-8" standalone="no"?>
<!DOCTYPE svg PUBLIC "-//W3C//DTD SVG 1.1//EN"
 "http://www.w3.org/Graphics/SVG/1.1/DTD/svg11.dtd">
<!-- Generated by graphviz version 7.0.5 (20221223.1930)
 -->
<!-- Title: include/base/ScalarTransportBase.h Pages: 1 -->
<!--zoomable 170 -->
<svg id="main" version="1.1" xmlns="http://www.w3.org/2000/svg" xmlns:xlink="http://www.w3.org/1999/xlink" xml:space="preserve" onload="init(evt)">
<style type="text/css"><![CDATA[
.edge:hover path { stroke: red; }
.edge:hover polygon { stroke: red; fill: red; }
]]></style>
<script type="text/javascript"><![CDATA[
var edges = document.getElementsByTagName('g');
if (edges && edges.length) {
  for (var i=0;i<edges.length;i++) {
    if (edges[i].id.substr(0,4)=='edge') {
      edges[i].setAttribute('class','edge');
    }
  }
}
]]></script>
        <defs>
                <circle id="rim" cx="0" cy="0" r="7"/>
                <circle id="rim2" cx="0" cy="0" r="3.5"/>
                <g id="zoomPlus">
                        <use xlink:href="#rim" fill="#404040">
                                <set attributeName="fill" to="#808080" begin="zoomplus.mouseover" end="zoomplus.mouseout"/>
                        </use>
                        <path d="M-4,0h8M0,-4v8" fill="none" stroke="white" stroke-width="1.5" pointer-events="none"/>
                </g>
                <g id="zoomMin">
                        <use xlink:href="#rim" fill="#404040">
                                <set attributeName="fill" to="#808080" begin="zoomminus.mouseover" end="zoomminus.mouseout"/>
                        </use>
                        <path d="M-4,0h8" fill="none" stroke="white" stroke-width="1.5" pointer-events="none"/>
                </g>
                <g id="dirArrow">
                        <path fill="none" stroke="white" stroke-width="1.5" d="M0,-3.0v7 M-2.5,-0.5L0,-3.0L2.5,-0.5"/>
                </g>
               <g id="resetDef">
                       <use xlink:href="#rim2" fill="#404040">
                               <set attributeName="fill" to="#808080" begin="reset.mouseover" end="reset.mouseout"/>
                       </use>
               </g>
        </defs>

<script type="text/javascript">
var viewWidth = 4108;
var viewHeight = 170;
var sectionId = 'dynsection-1';
</script>
<script xlink:href="svgpan.js"/>
<svg id="graph" class="graph">
<g id="viewport">
<title>include/base/ScalarTransportBase.h</title>
<!-- Node1 -->
<g id="node1" class="node">
<title>Node1</title>
<g id="a_node1"><a xlink:title=" ">
<polygon fill="#999999" stroke="#666666" points="2165.5,-162 2022.5,-162 2022.5,-132 2165.5,-132 2165.5,-162"/>
<text text-anchor="start" x="2030.5" y="-150" font-family="Helvetica,sans-Serif" font-size="10.00">include/base/ScalarTransport</text>
<text text-anchor="middle" x="2094" y="-139" font-family="Helvetica,sans-Serif" font-size="10.00">Base.h</text>
</a>
</g>
</g>
<!-- Node2 -->
<g id="node2" class="node">
<title>Node2</title>
<g id="a_node2"><a xlink:href="_coupled_scalar_advection_no_b_c_b_c_8h.html" target="_top" xlink:title=" ">
<polygon fill="white" stroke="#666666" points="164,-96 32,-96 32,-66 164,-66 164,-96"/>
<text text-anchor="start" x="40" y="-84" font-family="Helvetica,sans-Serif" font-size="10.00">include/bcs/CoupledScalar</text>
<text text-anchor="middle" x="98" y="-73" font-family="Helvetica,sans-Serif" font-size="10.00">AdvectionNoBCBC.h</text>
</a>
</g>
</g>
<!-- Node1&#45;&gt;Node2 -->
<g id="edge1" class="edge">
<title>Node1&#45;&gt;Node2</title>
<path fill="none" stroke="#63b8ff" d="M2010.81,-145.22C1692.37,-142 550.61,-128.43 189,-96 181.04,-95.29 172.72,-94.32 164.48,-93.22"/>
<polygon fill="#63b8ff" stroke="#63b8ff" points="2010.69,-148.72 2020.73,-145.32 2010.76,-141.72 2010.69,-148.72"/>
</g>
<!-- Node4 -->
<g id="node4" class="node">
<title>Node4</title>
<g id="a_node4"><a xlink:href="_lin_log_penalty_dirichlet_b_c_8h.html" target="_top" xlink:title=" ">
<polygon fill="white" stroke="#666666" points="329.5,-96 198.5,-96 198.5,-66 329.5,-66 329.5,-96"/>
<text text-anchor="start" x="206.5" y="-84" font-family="Helvetica,sans-Serif" font-size="10.00">include/bcs/LinLogPenalty</text>
<text text-anchor="middle" x="264" y="-73" font-family="Helvetica,sans-Serif" font-size="10.00">DirichletBC.h</text>
</a>
</g>
</g>
<!-- Node1&#45;&gt;Node4 -->
<g id="edge3" class="edge">
<title>Node1&#45;&gt;Node4</title>
<path fill="none" stroke="#63b8ff" d="M2010.78,-145.25C1708.98,-142.26 672.5,-129.72 343,-96 338.7,-95.56 334.29,-95.02 329.85,-94.42"/>
<polygon fill="#63b8ff" stroke="#63b8ff" points="2010.51,-148.74 2020.54,-145.34 2010.57,-141.74 2010.51,-148.74"/>
</g>
<!-- Node6 -->
<g id="node6" class="node">
<title>Node6</title>
<g id="a_node6"><a xlink:href="_scalar_advection_art_diff_no_b_c_b_c_8h.html" target="_top" xlink:title=" ">
<polygon fill="white" stroke="#666666" points="492,-96 352,-96 352,-66 492,-66 492,-96"/>
<text text-anchor="start" x="360" y="-84" font-family="Helvetica,sans-Serif" font-size="10.00">include/bcs/ScalarAdvection</text>
<text text-anchor="middle" x="422" y="-73" font-family="Helvetica,sans-Serif" font-size="10.00">ArtDiffNoBCBC.h</text>
</a>
</g>
</g>
<!-- Node1&#45;&gt;Node6 -->
<g id="edge5" class="edge">
<title>Node1&#45;&gt;Node6</title>
<path fill="none" stroke="#63b8ff" d="M2010.79,-144.97C1726.96,-141.22 798.08,-126.82 501,-96 498.09,-95.7 495.13,-95.35 492.14,-94.97"/>
<polygon fill="#63b8ff" stroke="#63b8ff" points="2010.66,-148.47 2020.7,-145.1 2010.75,-141.47 2010.66,-148.47"/>
</g>
<!-- Node8 -->
<g id="node8" class="node">
<title>Node8</title>
<g id="a_node8"><a xlink:href="_vacuum_conc_b_c_8h.html" target="_top" xlink:title=" ">
<polygon fill="white" stroke="#666666" points="659.5,-90.5 510.5,-90.5 510.5,-71.5 659.5,-71.5 659.5,-90.5"/>
<text text-anchor="middle" x="585" y="-78.5" font-family="Helvetica,sans-Serif" font-size="10.00">include/bcs/VacuumConcBC.h</text>
</a>
</g>
</g>
<!-- Node1&#45;&gt;Node8 -->
<g id="edge7" class="edge">
<title>Node1&#45;&gt;Node8</title>
<path fill="none" stroke="#63b8ff" d="M2010.78,-144.5C1747.06,-139.54 931.88,-122.4 669,-96 656.94,-94.79 643.98,-92.92 631.95,-90.93"/>
<polygon fill="#63b8ff" stroke="#63b8ff" points="2010.59,-148 2020.66,-144.69 2010.72,-141 2010.59,-148"/>
</g>
<!-- Node10 -->
<g id="node10" class="node">
<title>Node10</title>
<g id="a_node10"><a xlink:href="_coupled_fission_eigen_kernel_8h.html" target="_top" xlink:title=" ">
<polygon fill="white" stroke="#666666" points="830,-96 678,-96 678,-66 830,-66 830,-96"/>
<text text-anchor="start" x="686" y="-84" font-family="Helvetica,sans-Serif" font-size="10.00">include/kernels/CoupledFission</text>
<text text-anchor="middle" x="754" y="-73" font-family="Helvetica,sans-Serif" font-size="10.00">EigenKernel.h</text>
</a>
</g>
</g>
<!-- Node1&#45;&gt;Node10 -->
<g id="edge9" class="edge">
<title>Node1&#45;&gt;Node10</title>
<path fill="none" stroke="#63b8ff" d="M2010.97,-146.23C1809.51,-146.01 1278.97,-140.82 839,-96 836.17,-95.71 833.3,-95.39 830.4,-95.04"/>
<polygon fill="#63b8ff" stroke="#63b8ff" points="2010.81,-149.73 2020.81,-146.23 2010.81,-142.73 2010.81,-149.73"/>
</g>
<!-- Node12 -->
<g id="node12" class="node">
<title>Node12</title>
<g id="a_node12"><a xlink:href="_coupled_fission_kernel_8h.html" target="_top" xlink:title=" ">
<polygon fill="white" stroke="#666666" points="1000,-96 848,-96 848,-66 1000,-66 1000,-96"/>
<text text-anchor="start" x="856" y="-84" font-family="Helvetica,sans-Serif" font-size="10.00">include/kernels/CoupledFission</text>
<text text-anchor="middle" x="924" y="-73" font-family="Helvetica,sans-Serif" font-size="10.00">Kernel.h</text>
</a>
</g>
</g>
<!-- Node1&#45;&gt;Node12 -->
<g id="edge11" class="edge">
<title>Node1&#45;&gt;Node12</title>
<path fill="none" stroke="#63b8ff" d="M2010.7,-145.48C1828.53,-143.62 1381.25,-135.1 1009,-96 1006.17,-95.7 1003.3,-95.37 1000.4,-95.02"/>
<polygon fill="#63b8ff" stroke="#63b8ff" points="2010.5,-148.98 2020.54,-145.58 2010.57,-141.98 2010.5,-148.98"/>
</g>
<!-- Node14 -->
<g id="node14" class="node">
<title>Node14</title>
<g id="a_node14"><a xlink:href="_coupled_scalar_advection_8h.html" target="_top" xlink:title=" ">
<polygon fill="white" stroke="#666666" points="1166,-96 1018,-96 1018,-66 1166,-66 1166,-96"/>
<text text-anchor="start" x="1026" y="-84" font-family="Helvetica,sans-Serif" font-size="10.00">include/kernels/CoupledScalar</text>
<text text-anchor="middle" x="1092" y="-73" font-family="Helvetica,sans-Serif" font-size="10.00">Advection.h</text>
</a>
</g>
</g>
<!-- Node1&#45;&gt;Node14 -->
<g id="edge13" class="edge">
<title>Node1&#45;&gt;Node14</title>
<path fill="none" stroke="#63b8ff" d="M2011.01,-144.62C1849.56,-141.23 1482.07,-130.14 1175,-96 1172.1,-95.68 1169.14,-95.32 1166.15,-94.93"/>
<polygon fill="#63b8ff" stroke="#63b8ff" points="2010.69,-148.11 2020.76,-144.82 2010.84,-141.11 2010.69,-148.11"/>
</g>
<!-- Node16 -->
<g id="node16" class="node">
<title>Node16</title>
<g id="a_node16"><a xlink:href="_decay_heat_source_8h.html" target="_top" xlink:title=" ">
<polygon fill="white" stroke="#666666" points="1317.5,-96 1184.5,-96 1184.5,-66 1317.5,-66 1317.5,-96"/>
<text text-anchor="start" x="1192.5" y="-84" font-family="Helvetica,sans-Serif" font-size="10.00">include/kernels/DecayHeat</text>
<text text-anchor="middle" x="1251" y="-73" font-family="Helvetica,sans-Serif" font-size="10.00">Source.h</text>
</a>
</g>
</g>
<!-- Node1&#45;&gt;Node16 -->
<g id="edge15" class="edge">
<title>Node1&#45;&gt;Node16</title>
<path fill="none" stroke="#63b8ff" d="M2010.98,-143.77C1869.94,-139.28 1574.71,-126.78 1327,-96 1323.94,-95.62 1320.81,-95.19 1317.66,-94.74"/>
<polygon fill="#63b8ff" stroke="#63b8ff" points="2010.48,-147.26 2020.58,-144.07 2010.7,-140.26 2010.48,-147.26"/>
</g>
<!-- Node18 -->
<g id="node18" class="node">
<title>Node18</title>
<g id="a_node18"><a xlink:href="_delayed_neutron_source_8h.html" target="_top" xlink:title=" ">
<polygon fill="white" stroke="#666666" points="1490,-96 1336,-96 1336,-66 1490,-66 1490,-96"/>
<text text-anchor="start" x="1344" y="-84" font-family="Helvetica,sans-Serif" font-size="10.00">include/kernels/DelayedNeutron</text>
<text text-anchor="middle" x="1413" y="-73" font-family="Helvetica,sans-Serif" font-size="10.00">Source.h</text>
</a>
</g>
</g>
<!-- Node1&#45;&gt;Node18 -->
<g id="edge17" class="edge">
<title>Node1&#45;&gt;Node18</title>
<path fill="none" stroke="#63b8ff" d="M2011.21,-141.08C1896.08,-133.77 1681.21,-118.45 1499,-96 1496.15,-95.65 1493.24,-95.27 1490.31,-94.88"/>
<polygon fill="#63b8ff" stroke="#63b8ff" points="2010.67,-144.55 2020.87,-141.69 2011.11,-137.56 2010.67,-144.55"/>
</g>
<!-- Node20 -->
<g id="node20" class="node">
<title>Node20</title>
<g id="a_node20"><a xlink:href="_div_free_coupled_scalar_advection_8h.html" target="_top" xlink:title=" ">
<polygon fill="white" stroke="#666666" points="1662,-96 1508,-96 1508,-66 1662,-66 1662,-96"/>
<text text-anchor="start" x="1516" y="-84" font-family="Helvetica,sans-Serif" font-size="10.00">include/kernels/DivFreeCoupled</text>
<text text-anchor="middle" x="1585" y="-73" font-family="Helvetica,sans-Serif" font-size="10.00">ScalarAdvection.h</text>
</a>
</g>
</g>
<!-- Node1&#45;&gt;Node20 -->
<g id="edge19" class="edge">
<title>Node1&#45;&gt;Node20</title>
<path fill="none" stroke="#63b8ff" d="M2010.84,-137.26C1925.44,-128.02 1788.74,-112.53 1671,-96 1668.15,-95.6 1665.26,-95.18 1662.33,-94.75"/>
<polygon fill="#63b8ff" stroke="#63b8ff" points="2010.2,-140.71 2020.52,-138.3 2010.95,-133.75 2010.2,-140.71"/>
</g>
<!-- Node22 -->
<g id="node22" class="node">
<title>Node22</title>
<g id="a_node22"><a xlink:href="_group_diffusion_8h.html" target="_top" xlink:title=" ">
<polygon fill="white" stroke="#666666" points="1836,-90.5 1680,-90.5 1680,-71.5 1836,-71.5 1836,-90.5"/>
<text text-anchor="middle" x="1758" y="-78.5" font-family="Helvetica,sans-Serif" font-size="10.00">include/kernels/GroupDiffusion.h</text>
</a>
</g>
</g>
<!-- Node1&#45;&gt;Node22 -->
<g id="edge21" class="edge">
<title>Node1&#45;&gt;Node22</title>
<path fill="none" stroke="#63b8ff" d="M2011.29,-130.25C1946.29,-117.86 1858.09,-101.07 1804.77,-90.91"/>
<polygon fill="#63b8ff" stroke="#63b8ff" points="2010.37,-133.63 2020.84,-132.07 2011.68,-126.76 2010.37,-133.63"/>
</g>
<!-- Node24 -->
<g id="node24" class="node">
<title>Node24</title>
<g id="a_node24"><a xlink:href="_heat_precursor_decay_8h.html" target="_top" xlink:title=" ">
<polygon fill="white" stroke="#666666" points="2002,-96 1854,-96 1854,-66 2002,-66 2002,-96"/>
<text text-anchor="start" x="1862" y="-84" font-family="Helvetica,sans-Serif" font-size="10.00">include/kernels/HeatPrecursor</text>
<text text-anchor="middle" x="1928" y="-73" font-family="Helvetica,sans-Serif" font-size="10.00">Decay.h</text>
</a>
</g>
</g>
<!-- Node1&#45;&gt;Node24 -->
<g id="edge23" class="edge">
<title>Node1&#45;&gt;Node24</title>
<path fill="none" stroke="#63b8ff" d="M2046.12,-127.54C2020.45,-117.64 1989.29,-105.63 1965.42,-96.43"/>
<polygon fill="#63b8ff" stroke="#63b8ff" points="2044.74,-130.76 2055.33,-131.09 2047.26,-124.23 2044.74,-130.76"/>
</g>
<!-- Node26 -->
<g id="node26" class="node">
<title>Node26</title>
<g id="a_node26"><a xlink:href="_heat_precursor_source_8h.html" target="_top" xlink:title=" ">
<polygon fill="white" stroke="#666666" points="2168,-96 2020,-96 2020,-66 2168,-66 2168,-96"/>
<text text-anchor="start" x="2028" y="-84" font-family="Helvetica,sans-Serif" font-size="10.00">include/kernels/HeatPrecursor</text>
<text text-anchor="middle" x="2094" y="-73" font-family="Helvetica,sans-Serif" font-size="10.00">Source.h</text>
</a>
</g>
</g>
<!-- Node1&#45;&gt;Node26 -->
<g id="edge25" class="edge">
<title>Node1&#45;&gt;Node26</title>
<path fill="none" stroke="#63b8ff" d="M2094,-120.39C2094,-112.13 2094,-103.28 2094,-96.16"/>
<polygon fill="#63b8ff" stroke="#63b8ff" points="2090.5,-120.28 2094,-130.28 2097.5,-120.28 2090.5,-120.28"/>
</g>
<!-- Node28 -->
<g id="node28" class="node">
<title>Node28</title>
<g id="a_node28"><a xlink:href="_in_scatter_8h.html" target="_top" xlink:title=" ">
<polygon fill="white" stroke="#666666" points="2318,-90.5 2186,-90.5 2186,-71.5 2318,-71.5 2318,-90.5"/>
<text text-anchor="middle" x="2252" y="-78.5" font-family="Helvetica,sans-Serif" font-size="10.00">include/kernels/InScatter.h</text>
</a>
</g>
</g>
<!-- Node1&#45;&gt;Node28 -->
<g id="edge27" class="edge">
<title>Node1&#45;&gt;Node28</title>
<path fill="none" stroke="#63b8ff" d="M2139.97,-127.38C2169.53,-115.41 2206.61,-100.38 2229.82,-90.99"/>
<polygon fill="#63b8ff" stroke="#63b8ff" points="2138.82,-124.07 2130.86,-131.07 2141.44,-130.56 2138.82,-124.07"/>
</g>
<!-- Node30 -->
<g id="node30" class="node">
<title>Node30</title>
<g id="a_node30"><a xlink:href="_precursor_decay_8h.html" target="_top" xlink:title=" ">
<polygon fill="white" stroke="#666666" points="2463.5,-96 2336.5,-96 2336.5,-66 2463.5,-66 2463.5,-96"/>
<text text-anchor="start" x="2344.5" y="-84" font-family="Helvetica,sans-Serif" font-size="10.00">include/kernels/Precursor</text>
<text text-anchor="middle" x="2400" y="-73" font-family="Helvetica,sans-Serif" font-size="10.00">Decay.h</text>
</a>
</g>
</g>
<!-- Node1&#45;&gt;Node30 -->
<g id="edge29" class="edge">
<title>Node1&#45;&gt;Node30</title>
<path fill="none" stroke="#63b8ff" d="M2174.27,-129.21C2224.79,-118.64 2289.11,-105.19 2336.16,-95.35"/>
<polygon fill="#63b8ff" stroke="#63b8ff" points="2173.61,-125.77 2164.54,-131.25 2175.04,-132.63 2173.61,-125.77"/>
</g>
<!-- Node32 -->
<g id="node32" class="node">
<title>Node32</title>
<g id="a_node32"><a xlink:href="_precursor_eigen_source_8h.html" target="_top" xlink:title=" ">
<polygon fill="white" stroke="#666666" points="2608.5,-96 2481.5,-96 2481.5,-66 2608.5,-66 2608.5,-96"/>
<text text-anchor="start" x="2489.5" y="-84" font-family="Helvetica,sans-Serif" font-size="10.00">include/kernels/Precursor</text>
<text text-anchor="middle" x="2545" y="-73" font-family="Helvetica,sans-Serif" font-size="10.00">EigenSource.h</text>
</a>
</g>
</g>
<!-- Node1&#45;&gt;Node32 -->
<g id="edge31" class="edge">
<title>Node1&#45;&gt;Node32</title>
<path fill="none" stroke="#63b8ff" d="M2176.96,-136.43C2253.68,-127.25 2370.79,-112.38 2472,-96 2475.06,-95.51 2478.18,-94.98 2481.34,-94.43"/>
<polygon fill="#63b8ff" stroke="#63b8ff" points="2176.96,-132.9 2167.45,-137.56 2177.79,-139.85 2176.96,-132.9"/>
</g>
<!-- Node34 -->
<g id="node34" class="node">
<title>Node34</title>
<g id="a_node34"><a xlink:href="_precursor_source_8h.html" target="_top" xlink:title=" ">
<polygon fill="white" stroke="#666666" points="2753.5,-96 2626.5,-96 2626.5,-66 2753.5,-66 2753.5,-96"/>
<text text-anchor="start" x="2634.5" y="-84" font-family="Helvetica,sans-Serif" font-size="10.00">include/kernels/Precursor</text>
<text text-anchor="middle" x="2690" y="-73" font-family="Helvetica,sans-Serif" font-size="10.00">Source.h</text>
</a>
</g>
</g>
<!-- Node1&#45;&gt;Node34 -->
<g id="edge33" class="edge">
<title>Node1&#45;&gt;Node34</title>
<path fill="none" stroke="#63b8ff" d="M2177.03,-140.49C2280.42,-133.07 2462.31,-118.18 2617,-96 2620.07,-95.56 2623.2,-95.08 2626.36,-94.57"/>
<polygon fill="#63b8ff" stroke="#63b8ff" points="2176.97,-136.98 2167.25,-141.18 2177.47,-143.96 2176.97,-136.98"/>
</g>
<!-- Node36 -->
<g id="node36" class="node">
<title>Node36</title>
<g id="a_node36"><a xlink:href="_scalar_advection_art_diff_8h.html" target="_top" xlink:title=" ">
<polygon fill="white" stroke="#666666" points="2928,-96 2772,-96 2772,-66 2928,-66 2928,-96"/>
<text text-anchor="start" x="2780" y="-84" font-family="Helvetica,sans-Serif" font-size="10.00">include/kernels/ScalarAdvection</text>
<text text-anchor="middle" x="2850" y="-73" font-family="Helvetica,sans-Serif" font-size="10.00">ArtDiff.h</text>
</a>
</g>
</g>
<!-- Node1&#45;&gt;Node36 -->
<g id="edge35" class="edge">
<title>Node1&#45;&gt;Node36</title>
<path fill="none" stroke="#63b8ff" d="M2176.97,-142.01C2303.48,-135.42 2552.04,-120.52 2762,-96 2765.23,-95.62 2768.52,-95.21 2771.84,-94.78"/>
<polygon fill="#63b8ff" stroke="#63b8ff" points="2177.17,-138.49 2167.37,-142.51 2177.54,-145.49 2177.17,-138.49"/>
</g>
<!-- Node38 -->
<g id="node38" class="node">
<title>Node38</title>
<g id="a_node38"><a xlink:href="_scalar_transport_time_derivative_8h.html" target="_top" xlink:title=" ">
<polygon fill="white" stroke="#666666" points="3100,-96 2946,-96 2946,-66 3100,-66 3100,-96"/>
<text text-anchor="start" x="2954" y="-84" font-family="Helvetica,sans-Serif" font-size="10.00">include/kernels/ScalarTransport</text>
<text text-anchor="middle" x="3023" y="-73" font-family="Helvetica,sans-Serif" font-size="10.00">TimeDerivative.h</text>
</a>
</g>
</g>
<!-- Node1&#45;&gt;Node38 -->
<g id="edge37" class="edge">
<title>Node1&#45;&gt;Node38</title>
<path fill="none" stroke="#63b8ff" d="M2177.3,-143.88C2328.86,-139.39 2659.71,-126.71 2937,-96 2939.86,-95.68 2942.76,-95.34 2945.7,-94.97"/>
<polygon fill="#63b8ff" stroke="#63b8ff" points="2177.23,-140.38 2167.33,-144.17 2177.43,-147.38 2177.23,-140.38"/>
</g>
<!-- Node42 -->
<g id="node41" class="node">
<title>Node42</title>
<g id="a_node41"><a xlink:href="_sigma_r_8h.html" target="_top" xlink:title=" ">
<polygon fill="white" stroke="#666666" points="3245.5,-90.5 3118.5,-90.5 3118.5,-71.5 3245.5,-71.5 3245.5,-90.5"/>
<text text-anchor="middle" x="3182" y="-78.5" font-family="Helvetica,sans-Serif" font-size="10.00">include/kernels/SigmaR.h</text>
</a>
</g>
</g>
<!-- Node1&#45;&gt;Node42 -->
<g id="edge40" class="edge">
<title>Node1&#45;&gt;Node42</title>
<path fill="none" stroke="#63b8ff" d="M2177.32,-145.84C2351.14,-144.64 2764.85,-137.27 3109,-96 3119.38,-94.76 3130.5,-92.9 3140.85,-90.94"/>
<polygon fill="#63b8ff" stroke="#63b8ff" points="2177.47,-142.34 2167.49,-145.9 2177.51,-149.34 2177.47,-142.34"/>
</g>
<!-- Node44 -->
<g id="node43" class="node">
<title>Node44</title>
<g id="a_node43"><a xlink:href="_transient_fission_heat_source_8h.html" target="_top" xlink:title=" ">
<polygon fill="white" stroke="#666666" points="3388.5,-96 3263.5,-96 3263.5,-66 3388.5,-66 3388.5,-96"/>
<text text-anchor="start" x="3271.5" y="-84" font-family="Helvetica,sans-Serif" font-size="10.00">include/kernels/Transient</text>
<text text-anchor="middle" x="3326" y="-73" font-family="Helvetica,sans-Serif" font-size="10.00">FissionHeatSource.h</text>
</a>
</g>
</g>
<!-- Node1&#45;&gt;Node44 -->
<g id="edge42" class="edge">
<title>Node1&#45;&gt;Node44</title>
<path fill="none" stroke="#63b8ff" d="M2177.25,-146.65C2368.28,-147.23 2852.57,-143.41 3254,-96 3257.04,-95.64 3260.13,-95.23 3263.26,-94.77"/>
<polygon fill="#63b8ff" stroke="#63b8ff" points="2177.44,-143.15 2167.42,-146.62 2177.41,-150.15 2177.44,-143.15"/>
</g>
<!-- Node46 -->
<g id="node45" class="node">
<title>Node46</title>
<g id="a_node45"><a xlink:href="_elm_integ_tot_fiss_postprocessor_8h.html" target="_top" xlink:title=" ">
<polygon fill="white" stroke="#666666" points="3567.5,-96 3406.5,-96 3406.5,-66 3567.5,-66 3567.5,-96"/>
<text text-anchor="start" x="3414.5" y="-84" font-family="Helvetica,sans-Serif" font-size="10.00">include/postprocessors</text>
<text text-anchor="middle" x="3487" y="-73" font-family="Helvetica,sans-Serif" font-size="10.00">/ElmIntegTotFissPostprocessor.h</text>
</a>
</g>
</g>
<!-- Node1&#45;&gt;Node46 -->
<g id="edge44" class="edge">
<title>Node1&#45;&gt;Node46</title>
<path fill="none" stroke="#63b8ff" d="M2177.24,-146.15C2384.07,-145.78 2937.83,-140.37 3397,-96 3399.99,-95.71 3403.03,-95.39 3406.1,-95.04"/>
<polygon fill="#63b8ff" stroke="#63b8ff" points="2177.39,-142.65 2167.39,-146.16 2177.4,-149.65 2177.39,-142.65"/>
</g>
<!-- Node52 -->
<g id="node48" class="node">
<title>Node52</title>
<g id="a_node48"><a xlink:href="_integral_new_variable_postprocessor_8h.html" target="_top" xlink:title=" ">
<polygon fill="#fff0f0" stroke="red" points="3764,-96 3586,-96 3586,-66 3764,-66 3764,-96"/>
<text text-anchor="start" x="3594" y="-84" font-family="Helvetica,sans-Serif" font-size="10.00">include/postprocessors</text>
<text text-anchor="middle" x="3675" y="-73" font-family="Helvetica,sans-Serif" font-size="10.00">/IntegralNewVariablePostprocessor.h</text>
</a>
</g>
</g>
<!-- Node1&#45;&gt;Node52 -->
<g id="edge47" class="edge">
<title>Node1&#45;&gt;Node52</title>
<path fill="none" stroke="#63b8ff" d="M2177.33,-146.34C2403.11,-146.6 3045.42,-142.79 3577,-96 3579.82,-95.75 3582.69,-95.48 3585.59,-95.18"/>
<polygon fill="#63b8ff" stroke="#63b8ff" points="2177.45,-142.84 2167.44,-146.33 2177.44,-149.84 2177.45,-142.84"/>
</g>
<!-- Node54 -->
<g id="node49" class="node">
<title>Node54</title>
<g id="a_node49"><a xlink:href="_integral_old_variable_postprocessor_8h.html" target="_top" xlink:title=" ">
<polygon fill="#fff0f0" stroke="red" points="3955.5,-96 3782.5,-96 3782.5,-66 3955.5,-66 3955.5,-96"/>
<text text-anchor="start" x="3790.5" y="-84" font-family="Helvetica,sans-Serif" font-size="10.00">include/postprocessors</text>
<text text-anchor="middle" x="3869" y="-73" font-family="Helvetica,sans-Serif" font-size="10.00">/IntegralOldVariablePostprocessor.h</text>
</a>
</g>
</g>
<!-- Node1&#45;&gt;Node54 -->
<g id="edge48" class="edge">
<title>Node1&#45;&gt;Node54</title>
<path fill="none" stroke="#63b8ff" d="M2177.18,-144.79C2470.78,-140.33 3457.83,-123.58 3773,-96 3776.02,-95.74 3779.09,-95.44 3782.19,-95.12"/>
<polygon fill="#63b8ff" stroke="#63b8ff" points="2177.25,-141.29 2167.3,-144.94 2177.35,-148.29 2177.25,-141.29"/>
</g>
<!-- Node56 -->
<g id="node50" class="node">
<title>Node56</title>
<g id="a_node50"><a xlink:href="_scalar_transport_base_8_c.html" target="_top" xlink:title=" ">
<polygon fill="white" stroke="#666666" points="4100,-96 3974,-96 3974,-66 4100,-66 4100,-96"/>
<text text-anchor="start" x="3982" y="-84" font-family="Helvetica,sans-Serif" font-size="10.00">src/base/ScalarTransport</text>
<text text-anchor="middle" x="4037" y="-73" font-family="Helvetica,sans-Serif" font-size="10.00">Base.C</text>
</a>
</g>
</g>
<!-- Node1&#45;&gt;Node56 -->
<g id="edge49" class="edge">
<title>Node1&#45;&gt;Node56</title>
<path fill="none" stroke="#63b8ff" d="M2177.07,-145.61C2491.81,-143.83 3611.05,-134.87 3965,-96 3967.91,-95.68 3970.88,-95.3 3973.87,-94.89"/>
<polygon fill="#63b8ff" stroke="#63b8ff" points="2177.27,-142.11 2167.29,-145.66 2177.31,-149.11 2177.27,-142.11"/>
</g>
<!-- Node3 -->
<g id="node3" class="node">
<title>Node3</title>
<g id="a_node3"><a xlink:href="_coupled_scalar_advection_no_b_c_b_c_8_c.html" target="_top" xlink:title=" ">
<polygon fill="white" stroke="#666666" points="158,-30 0,-30 0,0 158,0 158,-30"/>
<text text-anchor="start" x="8" y="-18" font-family="Helvetica,sans-Serif" font-size="10.00">src/bcs/CoupledScalarAdvection</text>
<text text-anchor="middle" x="79" y="-7" font-family="Helvetica,sans-Serif" font-size="10.00">NoBCBC.C</text>
</a>
</g>
</g>
<!-- Node2&#45;&gt;Node3 -->
<g id="edge2" class="edge">
<title>Node2&#45;&gt;Node3</title>
<path fill="none" stroke="#63b8ff" d="M90.57,-54.97C88.07,-46.55 85.37,-37.45 83.2,-30.16"/>
<polygon fill="#63b8ff" stroke="#63b8ff" points="87.15,-55.76 93.35,-64.35 93.86,-53.76 87.15,-55.76"/>
</g>
<!-- Node5 -->
<g id="node5" class="node">
<title>Node5</title>
<g id="a_node5"><a xlink:href="_lin_log_penalty_dirichlet_b_c_8_c.html" target="_top" xlink:title=" ">
<polygon fill="white" stroke="#666666" points="348,-24.5 176,-24.5 176,-5.5 348,-5.5 348,-24.5"/>
<text text-anchor="middle" x="262" y="-12.5" font-family="Helvetica,sans-Serif" font-size="10.00">src/bcs/LinLogPenaltyDirichletBC.C</text>
</a>
</g>
</g>
<!-- Node4&#45;&gt;Node5 -->
<g id="edge4" class="edge">
<title>Node4&#45;&gt;Node5</title>
<path fill="none" stroke="#63b8ff" d="M263.21,-54.59C262.88,-44.06 262.52,-32.53 262.28,-24.84"/>
<polygon fill="#63b8ff" stroke="#63b8ff" points="259.7,-54.4 263.51,-64.28 266.69,-54.18 259.7,-54.4"/>
</g>
<!-- Node7 -->
<g id="node7" class="node">
<title>Node7</title>
<g id="a_node7"><a xlink:href="_scalar_advection_art_diff_no_b_c_b_c_8_c.html" target="_top" xlink:title=" ">
<polygon fill="white" stroke="#666666" points="502,-30 366,-30 366,0 502,0 502,-30"/>
<text text-anchor="start" x="374" y="-18" font-family="Helvetica,sans-Serif" font-size="10.00">src/bcs/ScalarAdvectionArt</text>
<text text-anchor="middle" x="434" y="-7" font-family="Helvetica,sans-Serif" font-size="10.00">DiffNoBCBC.C</text>
</a>
</g>
</g>
<!-- Node6&#45;&gt;Node7 -->
<g id="edge6" class="edge">
<title>Node6&#45;&gt;Node7</title>
<path fill="none" stroke="#63b8ff" d="M426.75,-54.68C428.31,-46.34 429.99,-37.37 431.34,-30.16"/>
<polygon fill="#63b8ff" stroke="#63b8ff" points="423.35,-53.83 424.94,-64.31 430.23,-55.13 423.35,-53.83"/>
</g>
<!-- Node9 -->
<g id="node9" class="node">
<title>Node9</title>
<g id="a_node9"><a xlink:href="_vacuum_conc_b_c_8_c.html" target="_top" xlink:title=" ">
<polygon fill="white" stroke="#666666" points="653.5,-24.5 520.5,-24.5 520.5,-5.5 653.5,-5.5 653.5,-24.5"/>
<text text-anchor="middle" x="587" y="-12.5" font-family="Helvetica,sans-Serif" font-size="10.00">src/bcs/VacuumConcBC.C</text>
</a>
</g>
</g>
<!-- Node8&#45;&gt;Node9 -->
<g id="edge8" class="edge">
<title>Node8&#45;&gt;Node9</title>
<path fill="none" stroke="#63b8ff" d="M585.64,-59.68C586,-47.94 586.44,-33.77 586.72,-24.82"/>
<polygon fill="#63b8ff" stroke="#63b8ff" points="582.14,-59.48 585.33,-69.59 589.14,-59.7 582.14,-59.48"/>
</g>
<!-- Node11 -->
<g id="node11" class="node">
<title>Node11</title>
<g id="a_node11"><a xlink:href="_coupled_fission_eigen_kernel_8_c.html" target="_top" xlink:title=" ">
<polygon fill="white" stroke="#666666" points="821,-30 687,-30 687,0 821,0 821,-30"/>
<text text-anchor="start" x="695" y="-18" font-family="Helvetica,sans-Serif" font-size="10.00">src/kernels/CoupledFission</text>
<text text-anchor="middle" x="754" y="-7" font-family="Helvetica,sans-Serif" font-size="10.00">EigenKernel.C</text>
</a>
</g>
</g>
<!-- Node10&#45;&gt;Node11 -->
<g id="edge10" class="edge">
<title>Node10&#45;&gt;Node11</title>
<path fill="none" stroke="#63b8ff" d="M754,-54.39C754,-46.13 754,-37.28 754,-30.16"/>
<polygon fill="#63b8ff" stroke="#63b8ff" points="750.5,-54.28 754,-64.28 757.5,-54.28 750.5,-54.28"/>
</g>
<!-- Node13 -->
<g id="node13" class="node">
<title>Node13</title>
<g id="a_node13"><a xlink:href="_coupled_fission_kernel_8_c.html" target="_top" xlink:title=" ">
<polygon fill="white" stroke="#666666" points="991,-30 857,-30 857,0 991,0 991,-30"/>
<text text-anchor="start" x="865" y="-18" font-family="Helvetica,sans-Serif" font-size="10.00">src/kernels/CoupledFission</text>
<text text-anchor="middle" x="924" y="-7" font-family="Helvetica,sans-Serif" font-size="10.00">Kernel.C</text>
</a>
</g>
</g>
<!-- Node12&#45;&gt;Node13 -->
<g id="edge12" class="edge">
<title>Node12&#45;&gt;Node13</title>
<path fill="none" stroke="#63b8ff" d="M924,-54.39C924,-46.13 924,-37.28 924,-30.16"/>
<polygon fill="#63b8ff" stroke="#63b8ff" points="920.5,-54.28 924,-64.28 927.5,-54.28 920.5,-54.28"/>
</g>
<!-- Node15 -->
<g id="node15" class="node">
<title>Node15</title>
<g id="a_node15"><a xlink:href="_coupled_scalar_advection_8_c.html" target="_top" xlink:title=" ">
<polygon fill="white" stroke="#666666" points="1155.5,-30 1024.5,-30 1024.5,0 1155.5,0 1155.5,-30"/>
<text text-anchor="start" x="1032.5" y="-18" font-family="Helvetica,sans-Serif" font-size="10.00">src/kernels/CoupledScalar</text>
<text text-anchor="middle" x="1090" y="-7" font-family="Helvetica,sans-Serif" font-size="10.00">Advection.C</text>
</a>
</g>
</g>
<!-- Node14&#45;&gt;Node15 -->
<g id="edge14" class="edge">
<title>Node14&#45;&gt;Node15</title>
<path fill="none" stroke="#63b8ff" d="M1091.2,-54.39C1090.94,-46.13 1090.67,-37.28 1090.44,-30.16"/>
<polygon fill="#63b8ff" stroke="#63b8ff" points="1087.7,-54.4 1091.51,-64.28 1094.69,-54.18 1087.7,-54.4"/>
</g>
<!-- Node17 -->
<g id="node17" class="node">
<title>Node17</title>
<g id="a_node17"><a xlink:href="_decay_heat_source_8_c.html" target="_top" xlink:title=" ">
<polygon fill="white" stroke="#666666" points="1328.5,-24.5 1173.5,-24.5 1173.5,-5.5 1328.5,-5.5 1328.5,-24.5"/>
<text text-anchor="middle" x="1251" y="-12.5" font-family="Helvetica,sans-Serif" font-size="10.00">src/kernels/DecayHeatSource.C</text>
</a>
</g>
</g>
<!-- Node16&#45;&gt;Node17 -->
<g id="edge16" class="edge">
<title>Node16&#45;&gt;Node17</title>
<path fill="none" stroke="#63b8ff" d="M1251,-54.59C1251,-44.06 1251,-32.53 1251,-24.84"/>
<polygon fill="#63b8ff" stroke="#63b8ff" points="1247.5,-54.28 1251,-64.28 1254.5,-54.28 1247.5,-54.28"/>
</g>
<!-- Node19 -->
<g id="node19" class="node">
<title>Node19</title>
<g id="a_node19"><a xlink:href="_delayed_neutron_source_8_c.html" target="_top" xlink:title=" ">
<polygon fill="white" stroke="#666666" points="1483.5,-30 1346.5,-30 1346.5,0 1483.5,0 1483.5,-30"/>
<text text-anchor="start" x="1354.5" y="-18" font-family="Helvetica,sans-Serif" font-size="10.00">src/kernels/DelayedNeutron</text>
<text text-anchor="middle" x="1415" y="-7" font-family="Helvetica,sans-Serif" font-size="10.00">Source.C</text>
</a>
</g>
</g>
<!-- Node18&#45;&gt;Node19 -->
<g id="edge18" class="edge">
<title>Node18&#45;&gt;Node19</title>
<path fill="none" stroke="#63b8ff" d="M1413.8,-54.39C1414.06,-46.13 1414.33,-37.28 1414.56,-30.16"/>
<polygon fill="#63b8ff" stroke="#63b8ff" points="1410.31,-54.18 1413.49,-64.28 1417.3,-54.4 1410.31,-54.18"/>
</g>
<!-- Node21 -->
<g id="node21" class="node">
<title>Node21</title>
<g id="a_node21"><a xlink:href="_div_free_coupled_scalar_advection_8_c.html" target="_top" xlink:title=" ">
<polygon fill="white" stroke="#666666" points="1653.5,-30 1516.5,-30 1516.5,0 1653.5,0 1653.5,-30"/>
<text text-anchor="start" x="1524.5" y="-18" font-family="Helvetica,sans-Serif" font-size="10.00">src/kernels/DivFreeCoupled</text>
<text text-anchor="middle" x="1585" y="-7" font-family="Helvetica,sans-Serif" font-size="10.00">ScalarAdvection.C</text>
</a>
</g>
</g>
<!-- Node20&#45;&gt;Node21 -->
<g id="edge20" class="edge">
<title>Node20&#45;&gt;Node21</title>
<path fill="none" stroke="#63b8ff" d="M1585,-54.39C1585,-46.13 1585,-37.28 1585,-30.16"/>
<polygon fill="#63b8ff" stroke="#63b8ff" points="1581.5,-54.28 1585,-64.28 1588.5,-54.28 1581.5,-54.28"/>
</g>
<!-- Node23 -->
<g id="node23" class="node">
<title>Node23</title>
<g id="a_node23"><a xlink:href="_group_diffusion_8_c.html" target="_top" xlink:title=" ">
<polygon fill="white" stroke="#666666" points="1828,-24.5 1688,-24.5 1688,-5.5 1828,-5.5 1828,-24.5"/>
<text text-anchor="middle" x="1758" y="-12.5" font-family="Helvetica,sans-Serif" font-size="10.00">src/kernels/GroupDiffusion.C</text>
</a>
</g>
</g>
<!-- Node22&#45;&gt;Node23 -->
<g id="edge22" class="edge">
<title>Node22&#45;&gt;Node23</title>
<path fill="none" stroke="#63b8ff" d="M1758,-59.68C1758,-47.94 1758,-33.77 1758,-24.82"/>
<polygon fill="#63b8ff" stroke="#63b8ff" points="1754.5,-59.59 1758,-69.59 1761.5,-59.59 1754.5,-59.59"/>
</g>
<!-- Node25 -->
<g id="node25" class="node">
<title>Node25</title>
<g id="a_node25"><a xlink:href="_heat_precursor_decay_8_c.html" target="_top" xlink:title=" ">
<polygon fill="white" stroke="#666666" points="1993.5,-30 1862.5,-30 1862.5,0 1993.5,0 1993.5,-30"/>
<text text-anchor="start" x="1870.5" y="-18" font-family="Helvetica,sans-Serif" font-size="10.00">src/kernels/HeatPrecursor</text>
<text text-anchor="middle" x="1928" y="-7" font-family="Helvetica,sans-Serif" font-size="10.00">Decay.C</text>
</a>
</g>
</g>
<!-- Node24&#45;&gt;Node25 -->
<g id="edge24" class="edge">
<title>Node24&#45;&gt;Node25</title>
<path fill="none" stroke="#63b8ff" d="M1928,-54.39C1928,-46.13 1928,-37.28 1928,-30.16"/>
<polygon fill="#63b8ff" stroke="#63b8ff" points="1924.5,-54.28 1928,-64.28 1931.5,-54.28 1924.5,-54.28"/>
</g>
<!-- Node27 -->
<g id="node27" class="node">
<title>Node27</title>
<g id="a_node27"><a xlink:href="_heat_precursor_source_8_c.html" target="_top" xlink:title=" ">
<polygon fill="white" stroke="#666666" points="2144.5,-30 2013.5,-30 2013.5,0 2144.5,0 2144.5,-30"/>
<text text-anchor="start" x="2021.5" y="-18" font-family="Helvetica,sans-Serif" font-size="10.00">src/kernels/HeatPrecursor</text>
<text text-anchor="middle" x="2079" y="-7" font-family="Helvetica,sans-Serif" font-size="10.00">Source.C</text>
</a>
</g>
</g>
<!-- Node26&#45;&gt;Node27 -->
<g id="edge26" class="edge">
<title>Node26&#45;&gt;Node27</title>
<path fill="none" stroke="#63b8ff" d="M2088.07,-54.68C2086.11,-46.34 2084.01,-37.37 2082.32,-30.16"/>
<polygon fill="#63b8ff" stroke="#63b8ff" points="2084.64,-55.39 2090.33,-64.32 2091.45,-53.79 2084.64,-55.39"/>
</g>
<!-- Node29 -->
<g id="node29" class="node">
<title>Node29</title>
<g id="a_node29"><a xlink:href="_in_scatter_8_c.html" target="_top" xlink:title=" ">
<polygon fill="white" stroke="#666666" points="2279,-24.5 2163,-24.5 2163,-5.5 2279,-5.5 2279,-24.5"/>
<text text-anchor="middle" x="2221" y="-12.5" font-family="Helvetica,sans-Serif" font-size="10.00">src/kernels/InScatter.C</text>
</a>
</g>
</g>
<!-- Node28&#45;&gt;Node29 -->
<g id="edge28" class="edge">
<title>Node28&#45;&gt;Node29</title>
<path fill="none" stroke="#63b8ff" d="M2242.7,-60.8C2236.91,-48.85 2229.75,-34.06 2225.27,-24.82"/>
<polygon fill="#63b8ff" stroke="#63b8ff" points="2239.52,-62.26 2247.03,-69.74 2245.82,-59.21 2239.52,-62.26"/>
</g>
<!-- Node31 -->
<g id="node31" class="node">
<title>Node31</title>
<g id="a_node31"><a xlink:href="_precursor_decay_8_c.html" target="_top" xlink:title=" ">
<polygon fill="white" stroke="#666666" points="2443,-24.5 2297,-24.5 2297,-5.5 2443,-5.5 2443,-24.5"/>
<text text-anchor="middle" x="2370" y="-12.5" font-family="Helvetica,sans-Serif" font-size="10.00">src/kernels/PrecursorDecay.C</text>
</a>
</g>
</g>
<!-- Node30&#45;&gt;Node31 -->
<g id="edge30" class="edge">
<title>Node30&#45;&gt;Node31</title>
<path fill="none" stroke="#63b8ff" d="M2388.56,-55.6C2383.5,-44.8 2377.87,-32.78 2374.15,-24.84"/>
<polygon fill="#63b8ff" stroke="#63b8ff" points="2385.29,-56.86 2392.7,-64.43 2391.62,-53.89 2385.29,-56.86"/>
</g>
<!-- Node33 -->
<g id="node33" class="node">
<title>Node33</title>
<g id="a_node33"><a xlink:href="_precursor_eigen_source_8_c.html" target="_top" xlink:title=" ">
<polygon fill="white" stroke="#666666" points="2595,-30 2461,-30 2461,0 2595,0 2595,-30"/>
<text text-anchor="start" x="2469" y="-18" font-family="Helvetica,sans-Serif" font-size="10.00">src/kernels/PrecursorEigen</text>
<text text-anchor="middle" x="2528" y="-7" font-family="Helvetica,sans-Serif" font-size="10.00">Source.C</text>
</a>
</g>
</g>
<!-- Node32&#45;&gt;Node33 -->
<g id="edge32" class="edge">
<title>Node32&#45;&gt;Node33</title>
<path fill="none" stroke="#63b8ff" d="M2538.27,-54.68C2536.06,-46.34 2533.68,-37.37 2531.76,-30.16"/>
<polygon fill="#63b8ff" stroke="#63b8ff" points="2534.89,-55.57 2540.84,-64.33 2541.65,-53.77 2534.89,-55.57"/>
</g>
<!-- Node35 -->
<g id="node35" class="node">
<title>Node35</title>
<g id="a_node35"><a xlink:href="_precursor_source_8_c.html" target="_top" xlink:title=" ">
<polygon fill="white" stroke="#666666" points="2762.5,-24.5 2613.5,-24.5 2613.5,-5.5 2762.5,-5.5 2762.5,-24.5"/>
<text text-anchor="middle" x="2688" y="-12.5" font-family="Helvetica,sans-Serif" font-size="10.00">src/kernels/PrecursorSource.C</text>
</a>
</g>
</g>
<!-- Node34&#45;&gt;Node35 -->
<g id="edge34" class="edge">
<title>Node34&#45;&gt;Node35</title>
<path fill="none" stroke="#63b8ff" d="M2689.21,-54.59C2688.88,-44.06 2688.52,-32.53 2688.28,-24.84"/>
<polygon fill="#63b8ff" stroke="#63b8ff" points="2685.7,-54.4 2689.51,-64.28 2692.69,-54.18 2685.7,-54.4"/>
</g>
<!-- Node37 -->
<g id="node37" class="node">
<title>Node37</title>
<g id="a_node37"><a xlink:href="_scalar_advection_art_diff_8_c.html" target="_top" xlink:title=" ">
<polygon fill="white" stroke="#666666" points="2919.5,-30 2780.5,-30 2780.5,0 2919.5,0 2919.5,-30"/>
<text text-anchor="start" x="2788.5" y="-18" font-family="Helvetica,sans-Serif" font-size="10.00">src/kernels/ScalarAdvection</text>
<text text-anchor="middle" x="2850" y="-7" font-family="Helvetica,sans-Serif" font-size="10.00">ArtDiff.C</text>
</a>
</g>
</g>
<!-- Node36&#45;&gt;Node37 -->
<g id="edge36" class="edge">
<title>Node36&#45;&gt;Node37</title>
<path fill="none" stroke="#63b8ff" d="M2850,-54.39C2850,-46.13 2850,-37.28 2850,-30.16"/>
<polygon fill="#63b8ff" stroke="#63b8ff" points="2846.5,-54.28 2850,-64.28 2853.5,-54.28 2846.5,-54.28"/>
</g>
<!-- Node39 -->
<g id="node39" class="node">
<title>Node39</title>
<g id="a_node39"><a xlink:href="_nt_time_derivative_8h.html" target="_top" xlink:title=" ">
<polygon fill="#fff0f0" stroke="red" points="3106,-24.5 2938,-24.5 2938,-5.5 3106,-5.5 3106,-24.5"/>
<text text-anchor="middle" x="3022" y="-12.5" font-family="Helvetica,sans-Serif" font-size="10.00">include/kernels/NtTimeDerivative.h</text>
</a>
</g>
</g>
<!-- Node38&#45;&gt;Node39 -->
<g id="edge38" class="edge">
<title>Node38&#45;&gt;Node39</title>
<path fill="none" stroke="#63b8ff" d="M3022.6,-54.59C3022.44,-44.06 3022.26,-32.53 3022.14,-24.84"/>
<polygon fill="#63b8ff" stroke="#63b8ff" points="3019.1,-54.34 3022.75,-64.28 3026.1,-54.23 3019.1,-54.34"/>
</g>
<!-- Node41 -->
<g id="node40" class="node">
<title>Node41</title>
<g id="a_node40"><a xlink:href="_scalar_transport_time_derivative_8_c.html" target="_top" xlink:title=" ">
<polygon fill="white" stroke="#666666" points="3261.5,-30 3124.5,-30 3124.5,0 3261.5,0 3261.5,-30"/>
<text text-anchor="start" x="3132.5" y="-18" font-family="Helvetica,sans-Serif" font-size="10.00">src/kernels/ScalarTransport</text>
<text text-anchor="middle" x="3193" y="-7" font-family="Helvetica,sans-Serif" font-size="10.00">TimeDerivative.C</text>
</a>
</g>
</g>
<!-- Node38&#45;&gt;Node41 -->
<g id="edge39" class="edge">
<title>Node38&#45;&gt;Node41</title>
<path fill="none" stroke="#63b8ff" d="M3071.68,-61.67C3098.04,-51.75 3130.13,-39.67 3154.68,-30.43"/>
<polygon fill="#63b8ff" stroke="#63b8ff" points="3070.69,-58.3 3062.57,-65.1 3073.16,-64.86 3070.69,-58.3"/>
</g>
<!-- Node43 -->
<g id="node42" class="node">
<title>Node43</title>
<g id="a_node42"><a xlink:href="_sigma_r_8_c.html" target="_top" xlink:title=" ">
<polygon fill="white" stroke="#666666" points="3390.5,-24.5 3279.5,-24.5 3279.5,-5.5 3390.5,-5.5 3390.5,-24.5"/>
<text text-anchor="middle" x="3335" y="-12.5" font-family="Helvetica,sans-Serif" font-size="10.00">src/kernels/SigmaR.C</text>
</a>
</g>
</g>
<!-- Node42&#45;&gt;Node43 -->
<g id="edge41" class="edge">
<title>Node42&#45;&gt;Node43</title>
<path fill="none" stroke="#63b8ff" d="M3213.63,-66.77C3243.66,-54.21 3287.96,-35.68 3313.91,-24.82"/>
<polygon fill="#63b8ff" stroke="#63b8ff" points="3212.55,-63.43 3204.67,-70.52 3215.25,-69.89 3212.55,-63.43"/>
</g>
<!-- Node45 -->
<g id="node44" class="node">
<title>Node45</title>
<g id="a_node44"><a xlink:href="_transient_fission_heat_source_8_c.html" target="_top" xlink:title=" ">
<polygon fill="white" stroke="#666666" points="3549,-30 3409,-30 3409,0 3549,0 3549,-30"/>
<text text-anchor="start" x="3417" y="-18" font-family="Helvetica,sans-Serif" font-size="10.00">src/kernels/TransientFission</text>
<text text-anchor="middle" x="3479" y="-7" font-family="Helvetica,sans-Serif" font-size="10.00">HeatSource.C</text>
</a>
</g>
</g>
<!-- Node44&#45;&gt;Node45 -->
<g id="edge43" class="edge">
<title>Node44&#45;&gt;Node45</title>
<path fill="none" stroke="#63b8ff" d="M3370.77,-61.27C3394.3,-51.43 3422.71,-39.55 3444.51,-30.43"/>
<polygon fill="#63b8ff" stroke="#63b8ff" points="3369.61,-57.97 3361.73,-65.05 3372.31,-64.42 3369.61,-57.97"/>
</g>
<!-- Node47 -->
<g id="node46" class="node">
<title>Node47</title>
<g id="a_node46"><a xlink:href="_elm_integ_tot_fiss_heat_postprocessor_8h.html" target="_top" xlink:title=" ">
<polygon fill="#fff0f0" stroke="red" points="3749,-30 3567,-30 3567,0 3749,0 3749,-30"/>
<text text-anchor="start" x="3575" y="-18" font-family="Helvetica,sans-Serif" font-size="10.00">include/postprocessors</text>
<text text-anchor="middle" x="3658" y="-7" font-family="Helvetica,sans-Serif" font-size="10.00">/ElmIntegTotFissHeatPostprocessor.h</text>
</a>
</g>
</g>
<!-- Node46&#45;&gt;Node47 -->
<g id="edge45" class="edge">
<title>Node46&#45;&gt;Node47</title>
<path fill="none" stroke="#63b8ff" d="M3535.97,-61.67C3562.48,-51.75 3594.76,-39.67 3619.46,-30.43"/>
<polygon fill="#63b8ff" stroke="#63b8ff" points="3534.93,-58.32 3526.79,-65.11 3537.39,-64.88 3534.93,-58.32"/>
</g>
<!-- Node51 -->
<g id="node47" class="node">
<title>Node51</title>
<g id="a_node47"><a xlink:href="_elm_integ_tot_fiss_postprocessor_8_c.html" target="_top" xlink:title=" ">
<polygon fill="white" stroke="#666666" points="3930.5,-30 3767.5,-30 3767.5,0 3930.5,0 3930.5,-30"/>
<text text-anchor="start" x="3775.5" y="-18" font-family="Helvetica,sans-Serif" font-size="10.00">src/postprocessors</text>
<text text-anchor="middle" x="3849" y="-7" font-family="Helvetica,sans-Serif" font-size="10.00">/ElmIntegTotFissPostprocessor.C</text>
</a>
</g>
</g>
<!-- Node46&#45;&gt;Node51 -->
<g id="edge46" class="edge">
<title>Node46&#45;&gt;Node51</title>
<path fill="none" stroke="#63b8ff" d="M3578.8,-63.77C3636.84,-53.51 3711.19,-40.36 3767.21,-30.46"/>
<polygon fill="#63b8ff" stroke="#63b8ff" points="3578.52,-60.27 3569.28,-65.45 3579.74,-67.16 3578.52,-60.27"/>
</g>
</g>
</svg>
        <g id="navigator" transform="translate(0 0)" fill="#404254">
                <rect fill="#f2f5e9" fill-opacity="0.5" stroke="#606060" stroke-width=".5" x="0" y="0" width="60" height="60"/>
                <use id="zoomplus" xlink:href="#zoomPlus" x="17" y="9" onmousedown="handleZoom(evt,'in')"/>
                <use id="zoomminus" xlink:href="#zoomMin" x="42" y="9" onmousedown="handleZoom(evt,'out')"/>
                <use id="reset" xlink:href="#resetDef" x="30" y="36" onmousedown="handleReset()"/>
                <g id="arrowUp" xlink:href="#dirArrow" transform="translate(30 24)" onmousedown="handlePan(0,-1)">
                  <use xlink:href="#rim" fill="#404040">
                        <set attributeName="fill" to="#808080" begin="arrowUp.mouseover" end="arrowUp.mouseout"/>
                  </use>
                  <path fill="none" stroke="white" stroke-width="1.5" d="M0,-3.0v7 M-2.5,-0.5L0,-3.0L2.5,-0.5"/>
                </g>
                <g id="arrowRight" xlink:href="#dirArrow" transform="rotate(90) translate(36 -43)" onmousedown="handlePan(1,0)">
                  <use xlink:href="#rim" fill="#404040">
                        <set attributeName="fill" to="#808080" begin="arrowRight.mouseover" end="arrowRight.mouseout"/>
                  </use>
                  <path fill="none" stroke="white" stroke-width="1.5" d="M0,-3.0v7 M-2.5,-0.5L0,-3.0L2.5,-0.5"/>
                </g>
                <g id="arrowDown" xlink:href="#dirArrow" transform="rotate(180) translate(-30 -48)" onmousedown="handlePan(0,1)">
                  <use xlink:href="#rim" fill="#404040">
                        <set attributeName="fill" to="#808080" begin="arrowDown.mouseover" end="arrowDown.mouseout"/>
                  </use>
                  <path fill="none" stroke="white" stroke-width="1.5" d="M0,-3.0v7 M-2.5,-0.5L0,-3.0L2.5,-0.5"/>
                </g>
                <g id="arrowLeft" xlink:href="#dirArrow" transform="rotate(270) translate(-36 17)" onmousedown="handlePan(-1,0)">
                  <use xlink:href="#rim" fill="#404040">
                        <set attributeName="fill" to="#808080" begin="arrowLeft.mouseover" end="arrowLeft.mouseout"/>
                  </use>
                  <path fill="none" stroke="white" stroke-width="1.5" d="M0,-3.0v7 M-2.5,-0.5L0,-3.0L2.5,-0.5"/>
                </g>
        </g>
        <svg viewBox="0 0 15 15" width="100%" height="30px" preserveAspectRatio="xMaxYMin meet">
         <g id="arrow_out" transform="scale(0.3 0.3)">
          <a xlink:href="_scalar_transport_base_8h__dep__incl_org.svg" target="_base">
           <rect id="button" ry="5" rx="5" y="6" x="6" height="38" width="38"
                fill="#f2f5e9" fill-opacity="0.5" stroke="#606060" stroke-width="1.0"/>
           <path id="arrow"
             d="M 11.500037,31.436501 C 11.940474,20.09759 22.043105,11.32322 32.158766,21.979434 L 37.068811,17.246167 C 37.068811,17.246167 37.088388,32 37.088388,32 L 22.160133,31.978069 C 22.160133,31.978069 26.997745,27.140456 26.997745,27.140456 C 18.528582,18.264221 13.291696,25.230495 11.500037,31.436501 z"
             style="fill:#404040;"/>
          </a>
         </g>
        </svg>
</svg>
