<?xml version="1.0" encoding="UTF-8" standalone="no"?>
<!DOCTYPE svg PUBLIC "-//W3C//DTD SVG 1.1//EN"
 "http://www.w3.org/Graphics/SVG/1.1/DTD/svg11.dtd">
<!-- Generated by graphviz version 7.0.4 (20221203.1631)
 -->
<!-- Title: include/base/ScalarTransportBase.h Pages: 1 -->
<svg width="4135pt" height="170pt"
 viewBox="0.00 0.00 4135.00 170.00" xmlns="http://www.w3.org/2000/svg" xmlns:xlink="http://www.w3.org/1999/xlink">
<g id="graph0" class="graph" transform="scale(1 1) rotate(0) translate(4 166)">
<title>include/base/ScalarTransportBase.h</title>
<!-- Node1 -->
<g id="node1" class="node">
<title>Node1</title>
<g id="a_node1"><a xlink:title=" ">
<polygon fill="#999999" stroke="#666666" points="2171.5,-162 2028.5,-162 2028.5,-132 2171.5,-132 2171.5,-162"/>
<text text-anchor="start" x="2036.5" y="-150" font-family="Helvetica,sans-Serif" font-size="10.00">include/base/ScalarTransport</text>
<text text-anchor="middle" x="2100" y="-139" font-family="Helvetica,sans-Serif" font-size="10.00">Base.h</text>
</a>
</g>
</g>
<!-- Node2 -->
<g id="node2" class="node">
<title>Node2</title>
<g id="a_node2"><a xlink:href="_coupled_scalar_advection_no_b_c_b_c_8h.html" target="_top" xlink:title=" ">
<polygon fill="white" stroke="#666666" points="164,-96 32,-96 32,-66 164,-66 164,-96"/>
<text text-anchor="start" x="40" y="-84" font-family="Helvetica,sans-Serif" font-size="10.00">include/bcs/CoupledScalar</text>
<text text-anchor="middle" x="98" y="-73" font-family="Helvetica,sans-Serif" font-size="10.00">AdvectionNoBCBC.h</text>
</a>
</g>
</g>
<!-- Node1&#45;&gt;Node2 -->
<g id="edge1" class="edge">
<title>Node1&#45;&gt;Node2</title>
<path fill="none" stroke="#63b8ff" d="M2016.55,-145.22C1697.11,-142.03 551.75,-128.52 189,-96 181.04,-95.29 172.72,-94.32 164.48,-93.22"/>
<polygon fill="#63b8ff" stroke="#63b8ff" points="2016.46,-148.72 2026.5,-145.32 2016.53,-141.72 2016.46,-148.72"/>
</g>
<!-- Node4 -->
<g id="node4" class="node">
<title>Node4</title>
<g id="a_node4"><a xlink:href="_lin_log_penalty_dirichlet_b_c_8h.html" target="_top" xlink:title=" ">
<polygon fill="white" stroke="#666666" points="329.5,-96 198.5,-96 198.5,-66 329.5,-66 329.5,-96"/>
<text text-anchor="start" x="206.5" y="-84" font-family="Helvetica,sans-Serif" font-size="10.00">include/bcs/LinLogPenalty</text>
<text text-anchor="middle" x="264" y="-73" font-family="Helvetica,sans-Serif" font-size="10.00">DirichletBC.h</text>
</a>
</g>
</g>
<!-- Node1&#45;&gt;Node4 -->
<g id="edge3" class="edge">
<title>Node1&#45;&gt;Node4</title>
<path fill="none" stroke="#63b8ff" d="M2017.01,-145.26C1714.84,-142.3 673.82,-129.83 343,-96 338.7,-95.56 334.29,-95.02 329.85,-94.42"/>
<polygon fill="#63b8ff" stroke="#63b8ff" points="2016.75,-148.75 2026.78,-145.35 2016.82,-141.75 2016.75,-148.75"/>
</g>
<!-- Node6 -->
<g id="node6" class="node">
<title>Node6</title>
<g id="a_node6"><a xlink:href="_scalar_advection_art_diff_no_b_c_b_c_8h.html" target="_top" xlink:title=" ">
<polygon fill="white" stroke="#666666" points="492,-96 352,-96 352,-66 492,-66 492,-96"/>
<text text-anchor="start" x="360" y="-84" font-family="Helvetica,sans-Serif" font-size="10.00">include/bcs/ScalarAdvection</text>
<text text-anchor="middle" x="422" y="-73" font-family="Helvetica,sans-Serif" font-size="10.00">ArtDiffNoBCBC.h</text>
</a>
</g>
</g>
<!-- Node1&#45;&gt;Node6 -->
<g id="edge5" class="edge">
<title>Node1&#45;&gt;Node6</title>
<path fill="none" stroke="#63b8ff" d="M2016.96,-144.99C1732.64,-141.26 799.37,-126.94 501,-96 498.09,-95.7 495.13,-95.35 492.14,-94.97"/>
<polygon fill="#63b8ff" stroke="#63b8ff" points="2016.85,-148.48 2026.89,-145.11 2016.94,-141.49 2016.85,-148.48"/>
</g>
<!-- Node8 -->
<g id="node8" class="node">
<title>Node8</title>
<g id="a_node8"><a xlink:href="_vacuum_conc_b_c_8h.html" target="_top" xlink:title=" ">
<polygon fill="white" stroke="#666666" points="659.5,-90.5 510.5,-90.5 510.5,-71.5 659.5,-71.5 659.5,-90.5"/>
<text text-anchor="middle" x="585" y="-78.5" font-family="Helvetica,sans-Serif" font-size="10.00">include/bcs/VacuumConcBC.h</text>
</a>
</g>
</g>
<!-- Node1&#45;&gt;Node8 -->
<g id="edge7" class="edge">
<title>Node1&#45;&gt;Node8</title>
<path fill="none" stroke="#63b8ff" d="M2016.89,-144.52C1752.55,-139.59 933.13,-122.51 669,-96 656.94,-94.79 643.98,-92.92 631.95,-90.93"/>
<polygon fill="#63b8ff" stroke="#63b8ff" points="2016.73,-148.02 2026.79,-144.7 2016.86,-141.02 2016.73,-148.02"/>
</g>
<!-- Node10 -->
<g id="node10" class="node">
<title>Node10</title>
<g id="a_node10"><a xlink:href="_coupled_fission_eigen_kernel_8h.html" target="_top" xlink:title=" ">
<polygon fill="white" stroke="#666666" points="830,-96 678,-96 678,-66 830,-66 830,-96"/>
<text text-anchor="start" x="686" y="-84" font-family="Helvetica,sans-Serif" font-size="10.00">include/kernels/CoupledFission</text>
<text text-anchor="middle" x="754" y="-73" font-family="Helvetica,sans-Serif" font-size="10.00">EigenKernel.h</text>
</a>
</g>
</g>
<!-- Node1&#45;&gt;Node10 -->
<g id="edge9" class="edge">
<title>Node1&#45;&gt;Node10</title>
<path fill="none" stroke="#63b8ff" d="M2016.94,-146.25C1814.79,-146.09 1281.34,-141.02 839,-96 836.17,-95.71 833.3,-95.39 830.4,-95.04"/>
<polygon fill="#63b8ff" stroke="#63b8ff" points="2016.82,-149.75 2026.82,-146.25 2016.82,-142.75 2016.82,-149.75"/>
</g>
<!-- Node12 -->
<g id="node12" class="node">
<title>Node12</title>
<g id="a_node12"><a xlink:href="_coupled_fission_kernel_8h.html" target="_top" xlink:title=" ">
<polygon fill="white" stroke="#666666" points="1000,-96 848,-96 848,-66 1000,-66 1000,-96"/>
<text text-anchor="start" x="856" y="-84" font-family="Helvetica,sans-Serif" font-size="10.00">include/kernels/CoupledFission</text>
<text text-anchor="middle" x="924" y="-73" font-family="Helvetica,sans-Serif" font-size="10.00">Kernel.h</text>
</a>
</g>
</g>
<!-- Node1&#45;&gt;Node12 -->
<g id="edge11" class="edge">
<title>Node1&#45;&gt;Node12</title>
<path fill="none" stroke="#63b8ff" d="M2016.91,-145.52C1834.17,-143.72 1383.77,-135.31 1009,-96 1006.17,-95.7 1003.3,-95.37 1000.4,-95.02"/>
<polygon fill="#63b8ff" stroke="#63b8ff" points="2016.75,-149.01 2026.79,-145.61 2016.82,-142.01 2016.75,-149.01"/>
</g>
<!-- Node14 -->
<g id="node14" class="node">
<title>Node14</title>
<g id="a_node14"><a xlink:href="_coupled_scalar_advection_8h.html" target="_top" xlink:title=" ">
<polygon fill="white" stroke="#666666" points="1166,-96 1018,-96 1018,-66 1166,-66 1166,-96"/>
<text text-anchor="start" x="1026" y="-84" font-family="Helvetica,sans-Serif" font-size="10.00">include/kernels/CoupledScalar</text>
<text text-anchor="middle" x="1092" y="-73" font-family="Helvetica,sans-Serif" font-size="10.00">Advection.h</text>
</a>
</g>
</g>
<!-- Node1&#45;&gt;Node14 -->
<g id="edge13" class="edge">
<title>Node1&#45;&gt;Node14</title>
<path fill="none" stroke="#63b8ff" d="M2016.78,-144.65C1854.43,-141.33 1484.27,-130.33 1175,-96 1172.1,-95.68 1169.14,-95.32 1166.15,-94.93"/>
<polygon fill="#63b8ff" stroke="#63b8ff" points="2016.52,-148.15 2026.59,-144.85 2016.66,-141.15 2016.52,-148.15"/>
</g>
<!-- Node16 -->
<g id="node16" class="node">
<title>Node16</title>
<g id="a_node16"><a xlink:href="_decay_heat_source_8h.html" target="_top" xlink:title=" ">
<polygon fill="white" stroke="#666666" points="1317.5,-96 1184.5,-96 1184.5,-66 1317.5,-66 1317.5,-96"/>
<text text-anchor="start" x="1192.5" y="-84" font-family="Helvetica,sans-Serif" font-size="10.00">include/kernels/DecayHeat</text>
<text text-anchor="middle" x="1251" y="-73" font-family="Helvetica,sans-Serif" font-size="10.00">Source.h</text>
</a>
</g>
</g>
<!-- Node1&#45;&gt;Node16 -->
<g id="edge15" class="edge">
<title>Node1&#45;&gt;Node16</title>
<path fill="none" stroke="#63b8ff" d="M2016.88,-143.83C1874.96,-139.4 1576.97,-127 1327,-96 1323.94,-95.62 1320.81,-95.2 1317.66,-94.74"/>
<polygon fill="#63b8ff" stroke="#63b8ff" points="2016.45,-147.32 2026.55,-144.12 2016.67,-140.32 2016.45,-147.32"/>
</g>
<!-- Node18 -->
<g id="node18" class="node">
<title>Node18</title>
<g id="a_node18"><a xlink:href="_delayed_neutron_eigen_source_8h.html" target="_top" xlink:title=" ">
<polygon fill="white" stroke="#666666" points="1490,-96 1336,-96 1336,-66 1490,-66 1490,-96"/>
<text text-anchor="start" x="1344" y="-84" font-family="Helvetica,sans-Serif" font-size="10.00">include/kernels/DelayedNeutron</text>
<text text-anchor="middle" x="1413" y="-73" font-family="Helvetica,sans-Serif" font-size="10.00">EigenSource.h</text>
</a>
</g>
</g>
<!-- Node1&#45;&gt;Node18 -->
<g id="edge17" class="edge">
<title>Node1&#45;&gt;Node18</title>
<path fill="none" stroke="#63b8ff" d="M2016.85,-141.15C1900.67,-133.9 1683.3,-118.63 1499,-96 1496.15,-95.65 1493.24,-95.27 1490.31,-94.88"/>
<polygon fill="#63b8ff" stroke="#63b8ff" points="2016.41,-144.63 2026.61,-141.75 2016.84,-137.64 2016.41,-144.63"/>
</g>
<!-- Node20 -->
<g id="node20" class="node">
<title>Node20</title>
<g id="a_node20"><a xlink:href="_delayed_neutron_source_8h.html" target="_top" xlink:title=" ">
<polygon fill="white" stroke="#666666" points="1662,-96 1508,-96 1508,-66 1662,-66 1662,-96"/>
<text text-anchor="start" x="1516" y="-84" font-family="Helvetica,sans-Serif" font-size="10.00">include/kernels/DelayedNeutron</text>
<text text-anchor="middle" x="1585" y="-73" font-family="Helvetica,sans-Serif" font-size="10.00">Source.h</text>
</a>
</g>
</g>
<!-- Node1&#45;&gt;Node20 -->
<g id="edge19" class="edge">
<title>Node1&#45;&gt;Node20</title>
<path fill="none" stroke="#63b8ff" d="M2016.81,-137.43C1930.28,-128.26 1790.93,-112.74 1671,-96 1668.15,-95.6 1665.26,-95.19 1662.33,-94.76"/>
<polygon fill="#63b8ff" stroke="#63b8ff" points="2016.32,-140.9 2026.64,-138.47 2017.06,-133.94 2016.32,-140.9"/>
</g>
<!-- Node22 -->
<g id="node22" class="node">
<title>Node22</title>
<g id="a_node22"><a xlink:href="_div_free_coupled_scalar_advection_8h.html" target="_top" xlink:title=" ">
<polygon fill="white" stroke="#666666" points="1834,-96 1680,-96 1680,-66 1834,-66 1834,-96"/>
<text text-anchor="start" x="1688" y="-84" font-family="Helvetica,sans-Serif" font-size="10.00">include/kernels/DivFreeCoupled</text>
<text text-anchor="middle" x="1757" y="-73" font-family="Helvetica,sans-Serif" font-size="10.00">ScalarAdvection.h</text>
</a>
</g>
</g>
<!-- Node1&#45;&gt;Node22 -->
<g id="edge21" class="edge">
<title>Node1&#45;&gt;Node22</title>
<path fill="none" stroke="#63b8ff" d="M2016.87,-130.49C1961.34,-120.13 1888.8,-106.59 1834.48,-96.46"/>
<polygon fill="#63b8ff" stroke="#63b8ff" points="2016.14,-133.91 2026.61,-132.31 2017.42,-127.03 2016.14,-133.91"/>
</g>
<!-- Node24 -->
<g id="node24" class="node">
<title>Node24</title>
<g id="a_node24"><a xlink:href="_group_diffusion_8h.html" target="_top" xlink:title=" ">
<polygon fill="white" stroke="#666666" points="2008,-90.5 1852,-90.5 1852,-71.5 2008,-71.5 2008,-90.5"/>
<text text-anchor="middle" x="1930" y="-78.5" font-family="Helvetica,sans-Serif" font-size="10.00">include/kernels/GroupDiffusion.h</text>
</a>
</g>
</g>
<!-- Node1&#45;&gt;Node24 -->
<g id="edge23" class="edge">
<title>Node1&#45;&gt;Node24</title>
<path fill="none" stroke="#63b8ff" d="M2051.38,-127.69C2019.44,-115.67 1979.05,-100.47 1953.87,-90.99"/>
<polygon fill="#63b8ff" stroke="#63b8ff" points="2049.84,-130.86 2060.43,-131.1 2052.31,-124.3 2049.84,-130.86"/>
</g>
<!-- Node26 -->
<g id="node26" class="node">
<title>Node26</title>
<g id="a_node26"><a xlink:href="_heat_precursor_decay_8h.html" target="_top" xlink:title=" ">
<polygon fill="white" stroke="#666666" points="2174,-96 2026,-96 2026,-66 2174,-66 2174,-96"/>
<text text-anchor="start" x="2034" y="-84" font-family="Helvetica,sans-Serif" font-size="10.00">include/kernels/HeatPrecursor</text>
<text text-anchor="middle" x="2100" y="-73" font-family="Helvetica,sans-Serif" font-size="10.00">Decay.h</text>
</a>
</g>
</g>
<!-- Node1&#45;&gt;Node26 -->
<g id="edge25" class="edge">
<title>Node1&#45;&gt;Node26</title>
<path fill="none" stroke="#63b8ff" d="M2100,-120.39C2100,-112.13 2100,-103.28 2100,-96.16"/>
<polygon fill="#63b8ff" stroke="#63b8ff" points="2096.5,-120.28 2100,-130.28 2103.5,-120.28 2096.5,-120.28"/>
</g>
<!-- Node28 -->
<g id="node28" class="node">
<title>Node28</title>
<g id="a_node28"><a xlink:href="_heat_precursor_source_8h.html" target="_top" xlink:title=" ">
<polygon fill="white" stroke="#666666" points="2340,-96 2192,-96 2192,-66 2340,-66 2340,-96"/>
<text text-anchor="start" x="2200" y="-84" font-family="Helvetica,sans-Serif" font-size="10.00">include/kernels/HeatPrecursor</text>
<text text-anchor="middle" x="2266" y="-73" font-family="Helvetica,sans-Serif" font-size="10.00">Source.h</text>
</a>
</g>
</g>
<!-- Node1&#45;&gt;Node28 -->
<g id="edge27" class="edge">
<title>Node1&#45;&gt;Node28</title>
<path fill="none" stroke="#63b8ff" d="M2147.88,-127.54C2173.55,-117.64 2204.71,-105.63 2228.58,-96.43"/>
<polygon fill="#63b8ff" stroke="#63b8ff" points="2146.74,-124.23 2138.67,-131.09 2149.26,-130.76 2146.74,-124.23"/>
</g>
<!-- Node30 -->
<g id="node30" class="node">
<title>Node30</title>
<g id="a_node30"><a xlink:href="_in_scatter_8h.html" target="_top" xlink:title=" ">
<polygon fill="white" stroke="#666666" points="2490,-90.5 2358,-90.5 2358,-71.5 2490,-71.5 2490,-90.5"/>
<text text-anchor="middle" x="2424" y="-78.5" font-family="Helvetica,sans-Serif" font-size="10.00">include/kernels/InScatter.h</text>
</a>
</g>
</g>
<!-- Node1&#45;&gt;Node30 -->
<g id="edge29" class="edge">
<title>Node1&#45;&gt;Node30</title>
<path fill="none" stroke="#63b8ff" d="M2182.89,-129.63C2245.19,-117.32 2328.17,-100.93 2378.75,-90.94"/>
<polygon fill="#63b8ff" stroke="#63b8ff" points="2182.52,-126.13 2173.39,-131.5 2183.88,-133 2182.52,-126.13"/>
</g>
<!-- Node32 -->
<g id="node32" class="node">
<title>Node32</title>
<g id="a_node32"><a xlink:href="_precursor_decay_8h.html" target="_top" xlink:title=" ">
<polygon fill="white" stroke="#666666" points="2635.5,-96 2508.5,-96 2508.5,-66 2635.5,-66 2635.5,-96"/>
<text text-anchor="start" x="2516.5" y="-84" font-family="Helvetica,sans-Serif" font-size="10.00">include/kernels/Precursor</text>
<text text-anchor="middle" x="2572" y="-73" font-family="Helvetica,sans-Serif" font-size="10.00">Decay.h</text>
</a>
</g>
</g>
<!-- Node1&#45;&gt;Node32 -->
<g id="edge31" class="edge">
<title>Node1&#45;&gt;Node32</title>
<path fill="none" stroke="#63b8ff" d="M2183.02,-137.18C2263.88,-128.22 2390.17,-113.24 2499,-96 2502.06,-95.52 2505.19,-95 2508.34,-94.46"/>
<polygon fill="#63b8ff" stroke="#63b8ff" points="2182.98,-133.67 2173.42,-138.24 2183.74,-140.63 2182.98,-133.67"/>
</g>
<!-- Node34 -->
<g id="node34" class="node">
<title>Node34</title>
<g id="a_node34"><a xlink:href="_precursor_source_8h.html" target="_top" xlink:title=" ">
<polygon fill="white" stroke="#666666" points="2780.5,-96 2653.5,-96 2653.5,-66 2780.5,-66 2780.5,-96"/>
<text text-anchor="start" x="2661.5" y="-84" font-family="Helvetica,sans-Serif" font-size="10.00">include/kernels/Precursor</text>
<text text-anchor="middle" x="2717" y="-73" font-family="Helvetica,sans-Serif" font-size="10.00">Source.h</text>
</a>
</g>
</g>
<!-- Node1&#45;&gt;Node34 -->
<g id="edge33" class="edge">
<title>Node1&#45;&gt;Node34</title>
<path fill="none" stroke="#63b8ff" d="M2183.34,-140.88C2290.34,-133.73 2481.59,-118.98 2644,-96 2647.07,-95.57 2650.2,-95.09 2653.36,-94.58"/>
<polygon fill="#63b8ff" stroke="#63b8ff" points="2183.24,-137.38 2173.49,-141.53 2183.7,-144.37 2183.24,-137.38"/>
</g>
<!-- Node36 -->
<g id="node36" class="node">
<title>Node36</title>
<g id="a_node36"><a xlink:href="_scalar_advection_art_diff_8h.html" target="_top" xlink:title=" ">
<polygon fill="white" stroke="#666666" points="2955,-96 2799,-96 2799,-66 2955,-66 2955,-96"/>
<text text-anchor="start" x="2807" y="-84" font-family="Helvetica,sans-Serif" font-size="10.00">include/kernels/ScalarAdvection</text>
<text text-anchor="middle" x="2877" y="-73" font-family="Helvetica,sans-Serif" font-size="10.00">ArtDiff.h</text>
</a>
</g>
</g>
<!-- Node1&#45;&gt;Node36 -->
<g id="edge35" class="edge">
<title>Node1&#45;&gt;Node36</title>
<path fill="none" stroke="#63b8ff" d="M2182.99,-142.27C2312.64,-135.92 2571,-121.2 2789,-96 2792.23,-95.63 2795.52,-95.22 2798.84,-94.79"/>
<polygon fill="#63b8ff" stroke="#63b8ff" points="2182.93,-138.77 2173.12,-142.75 2183.27,-145.76 2182.93,-138.77"/>
</g>
<!-- Node38 -->
<g id="node38" class="node">
<title>Node38</title>
<g id="a_node38"><a xlink:href="_scalar_transport_time_derivative_8h.html" target="_top" xlink:title=" ">
<polygon fill="white" stroke="#666666" points="3127,-96 2973,-96 2973,-66 3127,-66 3127,-96"/>
<text text-anchor="start" x="2981" y="-84" font-family="Helvetica,sans-Serif" font-size="10.00">include/kernels/ScalarTransport</text>
<text text-anchor="middle" x="3050" y="-73" font-family="Helvetica,sans-Serif" font-size="10.00">TimeDerivative.h</text>
</a>
</g>
</g>
<!-- Node1&#45;&gt;Node38 -->
<g id="edge37" class="edge">
<title>Node1&#45;&gt;Node38</title>
<path fill="none" stroke="#63b8ff" d="M2183.13,-144.05C2337.43,-139.8 2678.42,-127.42 2964,-96 2966.86,-95.69 2969.76,-95.34 2972.7,-94.97"/>
<polygon fill="#63b8ff" stroke="#63b8ff" points="2183.31,-140.55 2173.41,-144.31 2183.5,-147.54 2183.31,-140.55"/>
</g>
<!-- Node42 -->
<g id="node41" class="node">
<title>Node42</title>
<g id="a_node41"><a xlink:href="_sigma_r_8h.html" target="_top" xlink:title=" ">
<polygon fill="white" stroke="#666666" points="3272.5,-90.5 3145.5,-90.5 3145.5,-71.5 3272.5,-71.5 3272.5,-90.5"/>
<text text-anchor="middle" x="3209" y="-78.5" font-family="Helvetica,sans-Serif" font-size="10.00">include/kernels/SigmaR.h</text>
</a>
</g>
</g>
<!-- Node1&#45;&gt;Node42 -->
<g id="edge40" class="edge">
<title>Node1&#45;&gt;Node42</title>
<path fill="none" stroke="#63b8ff" d="M2183.4,-145.96C2359.83,-145 2783.63,-138.08 3136,-96 3146.38,-94.76 3157.5,-92.9 3167.85,-90.94"/>
<polygon fill="#63b8ff" stroke="#63b8ff" points="2183.38,-142.46 2173.4,-146.01 2183.41,-149.46 2183.38,-142.46"/>
</g>
<!-- Node44 -->
<g id="node43" class="node">
<title>Node44</title>
<g id="a_node43"><a xlink:href="_transient_fission_heat_source_8h.html" target="_top" xlink:title=" ">
<polygon fill="white" stroke="#666666" points="3415.5,-96 3290.5,-96 3290.5,-66 3415.5,-66 3415.5,-96"/>
<text text-anchor="start" x="3298.5" y="-84" font-family="Helvetica,sans-Serif" font-size="10.00">include/kernels/Transient</text>
<text text-anchor="middle" x="3353" y="-73" font-family="Helvetica,sans-Serif" font-size="10.00">FissionHeatSource.h</text>
</a>
</g>
</g>
<!-- Node1&#45;&gt;Node44 -->
<g id="edge42" class="edge">
<title>Node1&#45;&gt;Node44</title>
<path fill="none" stroke="#63b8ff" d="M2183.33,-146.75C2376.83,-147.55 2871.3,-144.23 3281,-96 3284.04,-95.64 3287.13,-95.23 3290.26,-94.77"/>
<polygon fill="#63b8ff" stroke="#63b8ff" points="2183.38,-143.25 2173.37,-146.7 2183.35,-150.25 2183.38,-143.25"/>
</g>
<!-- Node46 -->
<g id="node45" class="node">
<title>Node46</title>
<g id="a_node45"><a xlink:href="_elm_integ_tot_fiss_postprocessor_8h.html" target="_top" xlink:title=" ">
<polygon fill="white" stroke="#666666" points="3594.5,-96 3433.5,-96 3433.5,-66 3594.5,-66 3594.5,-96"/>
<text text-anchor="start" x="3441.5" y="-84" font-family="Helvetica,sans-Serif" font-size="10.00">include/postprocessors</text>
<text text-anchor="middle" x="3514" y="-73" font-family="Helvetica,sans-Serif" font-size="10.00">/ElmIntegTotFissPostprocessor.h</text>
</a>
</g>
</g>
<!-- Node1&#45;&gt;Node46 -->
<g id="edge44" class="edge">
<title>Node1&#45;&gt;Node46</title>
<path fill="none" stroke="#63b8ff" d="M2183.44,-146.22C2392.72,-146.04 2956.59,-141.03 3424,-96 3426.99,-95.71 3430.03,-95.39 3433.1,-95.04"/>
<polygon fill="#63b8ff" stroke="#63b8ff" points="2183.47,-142.72 2173.47,-146.22 2183.47,-149.72 2183.47,-142.72"/>
</g>
<!-- Node52 -->
<g id="node48" class="node">
<title>Node52</title>
<g id="a_node48"><a xlink:href="_integral_new_variable_postprocessor_8h.html" target="_top" xlink:title=" ">
<polygon fill="#fff0f0" stroke="red" points="3791,-96 3613,-96 3613,-66 3791,-66 3791,-96"/>
<text text-anchor="start" x="3621" y="-84" font-family="Helvetica,sans-Serif" font-size="10.00">include/postprocessors</text>
<text text-anchor="middle" x="3702" y="-73" font-family="Helvetica,sans-Serif" font-size="10.00">/IntegralNewVariablePostprocessor.h</text>
</a>
</g>
</g>
<!-- Node1&#45;&gt;Node52 -->
<g id="edge47" class="edge">
<title>Node1&#45;&gt;Node52</title>
<path fill="none" stroke="#63b8ff" d="M2183.29,-146.4C2411.17,-146.81 3063.93,-143.41 3604,-96 3606.82,-95.75 3609.69,-95.48 3612.59,-95.18"/>
<polygon fill="#63b8ff" stroke="#63b8ff" points="2183.31,-142.9 2173.3,-146.38 2183.3,-149.9 2183.31,-142.9"/>
</g>
<!-- Node54 -->
<g id="node49" class="node">
<title>Node54</title>
<g id="a_node49"><a xlink:href="_integral_old_variable_postprocessor_8h.html" target="_top" xlink:title=" ">
<polygon fill="#fff0f0" stroke="red" points="3982.5,-96 3809.5,-96 3809.5,-66 3982.5,-66 3982.5,-96"/>
<text text-anchor="start" x="3817.5" y="-84" font-family="Helvetica,sans-Serif" font-size="10.00">include/postprocessors</text>
<text text-anchor="middle" x="3896" y="-73" font-family="Helvetica,sans-Serif" font-size="10.00">/IntegralOldVariablePostprocessor.h</text>
</a>
</g>
</g>
<!-- Node1&#45;&gt;Node54 -->
<g id="edge48" class="edge">
<title>Node1&#45;&gt;Node54</title>
<path fill="none" stroke="#63b8ff" d="M2183.21,-144.83C2479.22,-140.45 3480.52,-123.9 3800,-96 3803.02,-95.74 3806.09,-95.44 3809.19,-95.12"/>
<polygon fill="#63b8ff" stroke="#63b8ff" points="2183.19,-141.33 2173.24,-144.97 2183.29,-148.33 2183.19,-141.33"/>
</g>
<!-- Node56 -->
<g id="node50" class="node">
<title>Node56</title>
<g id="a_node50"><a xlink:href="_scalar_transport_base_8_c.html" target="_top" xlink:title=" ">
<polygon fill="white" stroke="#666666" points="4127,-96 4001,-96 4001,-66 4127,-66 4127,-96"/>
<text text-anchor="start" x="4009" y="-84" font-family="Helvetica,sans-Serif" font-size="10.00">src/base/ScalarTransport</text>
<text text-anchor="middle" x="4064" y="-73" font-family="Helvetica,sans-Serif" font-size="10.00">Base.C</text>
</a>
</g>
</g>
<!-- Node1&#45;&gt;Node56 -->
<g id="edge49" class="edge">
<title>Node1&#45;&gt;Node56</title>
<path fill="none" stroke="#63b8ff" d="M2183.2,-145.63C2500.36,-143.96 3633.77,-135.29 3992,-96 3994.91,-95.68 3997.88,-95.31 4000.87,-94.89"/>
<polygon fill="#63b8ff" stroke="#63b8ff" points="2183.31,-142.13 2173.33,-145.69 2183.35,-149.13 2183.31,-142.13"/>
</g>
<!-- Node3 -->
<g id="node3" class="node">
<title>Node3</title>
<g id="a_node3"><a xlink:href="_coupled_scalar_advection_no_b_c_b_c_8_c.html" target="_top" xlink:title=" ">
<polygon fill="white" stroke="#666666" points="158,-30 0,-30 0,0 158,0 158,-30"/>
<text text-anchor="start" x="8" y="-18" font-family="Helvetica,sans-Serif" font-size="10.00">src/bcs/CoupledScalarAdvection</text>
<text text-anchor="middle" x="79" y="-7" font-family="Helvetica,sans-Serif" font-size="10.00">NoBCBC.C</text>
</a>
</g>
</g>
<!-- Node2&#45;&gt;Node3 -->
<g id="edge2" class="edge">
<title>Node2&#45;&gt;Node3</title>
<path fill="none" stroke="#63b8ff" d="M90.57,-54.97C88.07,-46.55 85.37,-37.45 83.2,-30.16"/>
<polygon fill="#63b8ff" stroke="#63b8ff" points="87.15,-55.76 93.35,-64.35 93.86,-53.76 87.15,-55.76"/>
</g>
<!-- Node5 -->
<g id="node5" class="node">
<title>Node5</title>
<g id="a_node5"><a xlink:href="_lin_log_penalty_dirichlet_b_c_8_c.html" target="_top" xlink:title=" ">
<polygon fill="white" stroke="#666666" points="348,-24.5 176,-24.5 176,-5.5 348,-5.5 348,-24.5"/>
<text text-anchor="middle" x="262" y="-12.5" font-family="Helvetica,sans-Serif" font-size="10.00">src/bcs/LinLogPenaltyDirichletBC.C</text>
</a>
</g>
</g>
<!-- Node4&#45;&gt;Node5 -->
<g id="edge4" class="edge">
<title>Node4&#45;&gt;Node5</title>
<path fill="none" stroke="#63b8ff" d="M263.21,-54.59C262.88,-44.06 262.52,-32.53 262.28,-24.84"/>
<polygon fill="#63b8ff" stroke="#63b8ff" points="259.7,-54.4 263.51,-64.28 266.69,-54.18 259.7,-54.4"/>
</g>
<!-- Node7 -->
<g id="node7" class="node">
<title>Node7</title>
<g id="a_node7"><a xlink:href="_scalar_advection_art_diff_no_b_c_b_c_8_c.html" target="_top" xlink:title=" ">
<polygon fill="white" stroke="#666666" points="502,-30 366,-30 366,0 502,0 502,-30"/>
<text text-anchor="start" x="374" y="-18" font-family="Helvetica,sans-Serif" font-size="10.00">src/bcs/ScalarAdvectionArt</text>
<text text-anchor="middle" x="434" y="-7" font-family="Helvetica,sans-Serif" font-size="10.00">DiffNoBCBC.C</text>
</a>
</g>
</g>
<!-- Node6&#45;&gt;Node7 -->
<g id="edge6" class="edge">
<title>Node6&#45;&gt;Node7</title>
<path fill="none" stroke="#63b8ff" d="M426.75,-54.68C428.31,-46.34 429.99,-37.37 431.34,-30.16"/>
<polygon fill="#63b8ff" stroke="#63b8ff" points="423.35,-53.83 424.94,-64.31 430.23,-55.13 423.35,-53.83"/>
</g>
<!-- Node9 -->
<g id="node9" class="node">
<title>Node9</title>
<g id="a_node9"><a xlink:href="_vacuum_conc_b_c_8_c.html" target="_top" xlink:title=" ">
<polygon fill="white" stroke="#666666" points="653.5,-24.5 520.5,-24.5 520.5,-5.5 653.5,-5.5 653.5,-24.5"/>
<text text-anchor="middle" x="587" y="-12.5" font-family="Helvetica,sans-Serif" font-size="10.00">src/bcs/VacuumConcBC.C</text>
</a>
</g>
</g>
<!-- Node8&#45;&gt;Node9 -->
<g id="edge8" class="edge">
<title>Node8&#45;&gt;Node9</title>
<path fill="none" stroke="#63b8ff" d="M585.64,-59.68C586,-47.94 586.44,-33.77 586.72,-24.82"/>
<polygon fill="#63b8ff" stroke="#63b8ff" points="582.14,-59.48 585.33,-69.59 589.14,-59.7 582.14,-59.48"/>
</g>
<!-- Node11 -->
<g id="node11" class="node">
<title>Node11</title>
<g id="a_node11"><a xlink:href="_coupled_fission_eigen_kernel_8_c.html" target="_top" xlink:title=" ">
<polygon fill="white" stroke="#666666" points="821,-30 687,-30 687,0 821,0 821,-30"/>
<text text-anchor="start" x="695" y="-18" font-family="Helvetica,sans-Serif" font-size="10.00">src/kernels/CoupledFission</text>
<text text-anchor="middle" x="754" y="-7" font-family="Helvetica,sans-Serif" font-size="10.00">EigenKernel.C</text>
</a>
</g>
</g>
<!-- Node10&#45;&gt;Node11 -->
<g id="edge10" class="edge">
<title>Node10&#45;&gt;Node11</title>
<path fill="none" stroke="#63b8ff" d="M754,-54.39C754,-46.13 754,-37.28 754,-30.16"/>
<polygon fill="#63b8ff" stroke="#63b8ff" points="750.5,-54.28 754,-64.28 757.5,-54.28 750.5,-54.28"/>
</g>
<!-- Node13 -->
<g id="node13" class="node">
<title>Node13</title>
<g id="a_node13"><a xlink:href="_coupled_fission_kernel_8_c.html" target="_top" xlink:title=" ">
<polygon fill="white" stroke="#666666" points="991,-30 857,-30 857,0 991,0 991,-30"/>
<text text-anchor="start" x="865" y="-18" font-family="Helvetica,sans-Serif" font-size="10.00">src/kernels/CoupledFission</text>
<text text-anchor="middle" x="924" y="-7" font-family="Helvetica,sans-Serif" font-size="10.00">Kernel.C</text>
</a>
</g>
</g>
<!-- Node12&#45;&gt;Node13 -->
<g id="edge12" class="edge">
<title>Node12&#45;&gt;Node13</title>
<path fill="none" stroke="#63b8ff" d="M924,-54.39C924,-46.13 924,-37.28 924,-30.16"/>
<polygon fill="#63b8ff" stroke="#63b8ff" points="920.5,-54.28 924,-64.28 927.5,-54.28 920.5,-54.28"/>
</g>
<!-- Node15 -->
<g id="node15" class="node">
<title>Node15</title>
<g id="a_node15"><a xlink:href="_coupled_scalar_advection_8_c.html" target="_top" xlink:title=" ">
<polygon fill="white" stroke="#666666" points="1155.5,-30 1024.5,-30 1024.5,0 1155.5,0 1155.5,-30"/>
<text text-anchor="start" x="1032.5" y="-18" font-family="Helvetica,sans-Serif" font-size="10.00">src/kernels/CoupledScalar</text>
<text text-anchor="middle" x="1090" y="-7" font-family="Helvetica,sans-Serif" font-size="10.00">Advection.C</text>
</a>
</g>
</g>
<!-- Node14&#45;&gt;Node15 -->
<g id="edge14" class="edge">
<title>Node14&#45;&gt;Node15</title>
<path fill="none" stroke="#63b8ff" d="M1091.2,-54.39C1090.94,-46.13 1090.67,-37.28 1090.44,-30.16"/>
<polygon fill="#63b8ff" stroke="#63b8ff" points="1087.7,-54.4 1091.51,-64.28 1094.69,-54.18 1087.7,-54.4"/>
</g>
<!-- Node17 -->
<g id="node17" class="node">
<title>Node17</title>
<g id="a_node17"><a xlink:href="_decay_heat_source_8_c.html" target="_top" xlink:title=" ">
<polygon fill="white" stroke="#666666" points="1328.5,-24.5 1173.5,-24.5 1173.5,-5.5 1328.5,-5.5 1328.5,-24.5"/>
<text text-anchor="middle" x="1251" y="-12.5" font-family="Helvetica,sans-Serif" font-size="10.00">src/kernels/DecayHeatSource.C</text>
</a>
</g>
</g>
<!-- Node16&#45;&gt;Node17 -->
<g id="edge16" class="edge">
<title>Node16&#45;&gt;Node17</title>
<path fill="none" stroke="#63b8ff" d="M1251,-54.59C1251,-44.06 1251,-32.53 1251,-24.84"/>
<polygon fill="#63b8ff" stroke="#63b8ff" points="1247.5,-54.28 1251,-64.28 1254.5,-54.28 1247.5,-54.28"/>
</g>
<!-- Node19 -->
<g id="node19" class="node">
<title>Node19</title>
<g id="a_node19"><a xlink:href="_delayed_neutron_eigen_source_8_c.html" target="_top" xlink:title=" ">
<polygon fill="white" stroke="#666666" points="1483.5,-30 1346.5,-30 1346.5,0 1483.5,0 1483.5,-30"/>
<text text-anchor="start" x="1354.5" y="-18" font-family="Helvetica,sans-Serif" font-size="10.00">src/kernels/DelayedNeutron</text>
<text text-anchor="middle" x="1415" y="-7" font-family="Helvetica,sans-Serif" font-size="10.00">EigenSource.C</text>
</a>
</g>
</g>
<!-- Node18&#45;&gt;Node19 -->
<g id="edge18" class="edge">
<title>Node18&#45;&gt;Node19</title>
<path fill="none" stroke="#63b8ff" d="M1413.8,-54.39C1414.06,-46.13 1414.33,-37.28 1414.56,-30.16"/>
<polygon fill="#63b8ff" stroke="#63b8ff" points="1410.31,-54.18 1413.49,-64.28 1417.3,-54.4 1410.31,-54.18"/>
</g>
<!-- Node21 -->
<g id="node21" class="node">
<title>Node21</title>
<g id="a_node21"><a xlink:href="_delayed_neutron_source_8_c.html" target="_top" xlink:title=" ">
<polygon fill="white" stroke="#666666" points="1653.5,-30 1516.5,-30 1516.5,0 1653.5,0 1653.5,-30"/>
<text text-anchor="start" x="1524.5" y="-18" font-family="Helvetica,sans-Serif" font-size="10.00">src/kernels/DelayedNeutron</text>
<text text-anchor="middle" x="1585" y="-7" font-family="Helvetica,sans-Serif" font-size="10.00">Source.C</text>
</a>
</g>
</g>
<!-- Node20&#45;&gt;Node21 -->
<g id="edge20" class="edge">
<title>Node20&#45;&gt;Node21</title>
<path fill="none" stroke="#63b8ff" d="M1585,-54.39C1585,-46.13 1585,-37.28 1585,-30.16"/>
<polygon fill="#63b8ff" stroke="#63b8ff" points="1581.5,-54.28 1585,-64.28 1588.5,-54.28 1581.5,-54.28"/>
</g>
<!-- Node23 -->
<g id="node23" class="node">
<title>Node23</title>
<g id="a_node23"><a xlink:href="_div_free_coupled_scalar_advection_8_c.html" target="_top" xlink:title=" ">
<polygon fill="white" stroke="#666666" points="1825.5,-30 1688.5,-30 1688.5,0 1825.5,0 1825.5,-30"/>
<text text-anchor="start" x="1696.5" y="-18" font-family="Helvetica,sans-Serif" font-size="10.00">src/kernels/DivFreeCoupled</text>
<text text-anchor="middle" x="1757" y="-7" font-family="Helvetica,sans-Serif" font-size="10.00">ScalarAdvection.C</text>
</a>
</g>
</g>
<!-- Node22&#45;&gt;Node23 -->
<g id="edge22" class="edge">
<title>Node22&#45;&gt;Node23</title>
<path fill="none" stroke="#63b8ff" d="M1757,-54.39C1757,-46.13 1757,-37.28 1757,-30.16"/>
<polygon fill="#63b8ff" stroke="#63b8ff" points="1753.5,-54.28 1757,-64.28 1760.5,-54.28 1753.5,-54.28"/>
</g>
<!-- Node25 -->
<g id="node25" class="node">
<title>Node25</title>
<g id="a_node25"><a xlink:href="_group_diffusion_8_c.html" target="_top" xlink:title=" ">
<polygon fill="white" stroke="#666666" points="2000,-24.5 1860,-24.5 1860,-5.5 2000,-5.5 2000,-24.5"/>
<text text-anchor="middle" x="1930" y="-12.5" font-family="Helvetica,sans-Serif" font-size="10.00">src/kernels/GroupDiffusion.C</text>
</a>
</g>
</g>
<!-- Node24&#45;&gt;Node25 -->
<g id="edge24" class="edge">
<title>Node24&#45;&gt;Node25</title>
<path fill="none" stroke="#63b8ff" d="M1930,-59.68C1930,-47.94 1930,-33.77 1930,-24.82"/>
<polygon fill="#63b8ff" stroke="#63b8ff" points="1926.5,-59.59 1930,-69.59 1933.5,-59.59 1926.5,-59.59"/>
</g>
<!-- Node27 -->
<g id="node27" class="node">
<title>Node27</title>
<g id="a_node27"><a xlink:href="_heat_precursor_decay_8_c.html" target="_top" xlink:title=" ">
<polygon fill="white" stroke="#666666" points="2165.5,-30 2034.5,-30 2034.5,0 2165.5,0 2165.5,-30"/>
<text text-anchor="start" x="2042.5" y="-18" font-family="Helvetica,sans-Serif" font-size="10.00">src/kernels/HeatPrecursor</text>
<text text-anchor="middle" x="2100" y="-7" font-family="Helvetica,sans-Serif" font-size="10.00">Decay.C</text>
</a>
</g>
</g>
<!-- Node26&#45;&gt;Node27 -->
<g id="edge26" class="edge">
<title>Node26&#45;&gt;Node27</title>
<path fill="none" stroke="#63b8ff" d="M2100,-54.39C2100,-46.13 2100,-37.28 2100,-30.16"/>
<polygon fill="#63b8ff" stroke="#63b8ff" points="2096.5,-54.28 2100,-64.28 2103.5,-54.28 2096.5,-54.28"/>
</g>
<!-- Node29 -->
<g id="node29" class="node">
<title>Node29</title>
<g id="a_node29"><a xlink:href="_heat_precursor_source_8_c.html" target="_top" xlink:title=" ">
<polygon fill="white" stroke="#666666" points="2323.5,-30 2192.5,-30 2192.5,0 2323.5,0 2323.5,-30"/>
<text text-anchor="start" x="2200.5" y="-18" font-family="Helvetica,sans-Serif" font-size="10.00">src/kernels/HeatPrecursor</text>
<text text-anchor="middle" x="2258" y="-7" font-family="Helvetica,sans-Serif" font-size="10.00">Source.C</text>
</a>
</g>
</g>
<!-- Node28&#45;&gt;Node29 -->
<g id="edge28" class="edge">
<title>Node28&#45;&gt;Node29</title>
<path fill="none" stroke="#63b8ff" d="M2262.8,-54.39C2261.77,-46.13 2260.66,-37.28 2259.77,-30.16"/>
<polygon fill="#63b8ff" stroke="#63b8ff" points="2259.32,-54.81 2264.04,-64.29 2266.27,-53.94 2259.32,-54.81"/>
</g>
<!-- Node31 -->
<g id="node31" class="node">
<title>Node31</title>
<g id="a_node31"><a xlink:href="_in_scatter_8_c.html" target="_top" xlink:title=" ">
<polygon fill="white" stroke="#666666" points="2458,-24.5 2342,-24.5 2342,-5.5 2458,-5.5 2458,-24.5"/>
<text text-anchor="middle" x="2400" y="-12.5" font-family="Helvetica,sans-Serif" font-size="10.00">src/kernels/InScatter.C</text>
</a>
</g>
</g>
<!-- Node30&#45;&gt;Node31 -->
<g id="edge30" class="edge">
<title>Node30&#45;&gt;Node31</title>
<path fill="none" stroke="#63b8ff" d="M2416.66,-60.43C2412.21,-48.55 2406.74,-33.96 2403.31,-24.82"/>
<polygon fill="#63b8ff" stroke="#63b8ff" points="2413.34,-61.55 2420.13,-69.68 2419.9,-59.09 2413.34,-61.55"/>
</g>
<!-- Node33 -->
<g id="node33" class="node">
<title>Node33</title>
<g id="a_node33"><a xlink:href="_precursor_decay_8_c.html" target="_top" xlink:title=" ">
<polygon fill="white" stroke="#666666" points="2622,-24.5 2476,-24.5 2476,-5.5 2622,-5.5 2622,-24.5"/>
<text text-anchor="middle" x="2549" y="-12.5" font-family="Helvetica,sans-Serif" font-size="10.00">src/kernels/PrecursorDecay.C</text>
</a>
</g>
</g>
<!-- Node32&#45;&gt;Node33 -->
<g id="edge32" class="edge">
<title>Node32&#45;&gt;Node33</title>
<path fill="none" stroke="#63b8ff" d="M2563.11,-55.27C2559.26,-44.55 2555,-32.7 2552.18,-24.84"/>
<polygon fill="#63b8ff" stroke="#63b8ff" points="2559.71,-56.14 2566.38,-64.37 2566.3,-53.78 2559.71,-56.14"/>
</g>
<!-- Node35 -->
<g id="node35" class="node">
<title>Node35</title>
<g id="a_node35"><a xlink:href="_precursor_source_8_c.html" target="_top" xlink:title=" ">
<polygon fill="white" stroke="#666666" points="2789.5,-24.5 2640.5,-24.5 2640.5,-5.5 2789.5,-5.5 2789.5,-24.5"/>
<text text-anchor="middle" x="2715" y="-12.5" font-family="Helvetica,sans-Serif" font-size="10.00">src/kernels/PrecursorSource.C</text>
</a>
</g>
</g>
<!-- Node34&#45;&gt;Node35 -->
<g id="edge34" class="edge">
<title>Node34&#45;&gt;Node35</title>
<path fill="none" stroke="#63b8ff" d="M2716.21,-54.59C2715.88,-44.06 2715.52,-32.53 2715.28,-24.84"/>
<polygon fill="#63b8ff" stroke="#63b8ff" points="2712.7,-54.4 2716.51,-64.28 2719.69,-54.18 2712.7,-54.4"/>
</g>
<!-- Node37 -->
<g id="node37" class="node">
<title>Node37</title>
<g id="a_node37"><a xlink:href="_scalar_advection_art_diff_8_c.html" target="_top" xlink:title=" ">
<polygon fill="white" stroke="#666666" points="2946.5,-30 2807.5,-30 2807.5,0 2946.5,0 2946.5,-30"/>
<text text-anchor="start" x="2815.5" y="-18" font-family="Helvetica,sans-Serif" font-size="10.00">src/kernels/ScalarAdvection</text>
<text text-anchor="middle" x="2877" y="-7" font-family="Helvetica,sans-Serif" font-size="10.00">ArtDiff.C</text>
</a>
</g>
</g>
<!-- Node36&#45;&gt;Node37 -->
<g id="edge36" class="edge">
<title>Node36&#45;&gt;Node37</title>
<path fill="none" stroke="#63b8ff" d="M2877,-54.39C2877,-46.13 2877,-37.28 2877,-30.16"/>
<polygon fill="#63b8ff" stroke="#63b8ff" points="2873.5,-54.28 2877,-64.28 2880.5,-54.28 2873.5,-54.28"/>
</g>
<!-- Node39 -->
<g id="node39" class="node">
<title>Node39</title>
<g id="a_node39"><a xlink:href="_nt_time_derivative_8h.html" target="_top" xlink:title=" ">
<polygon fill="#fff0f0" stroke="red" points="3133,-24.5 2965,-24.5 2965,-5.5 3133,-5.5 3133,-24.5"/>
<text text-anchor="middle" x="3049" y="-12.5" font-family="Helvetica,sans-Serif" font-size="10.00">include/kernels/NtTimeDerivative.h</text>
</a>
</g>
</g>
<!-- Node38&#45;&gt;Node39 -->
<g id="edge38" class="edge">
<title>Node38&#45;&gt;Node39</title>
<path fill="none" stroke="#63b8ff" d="M3049.6,-54.59C3049.44,-44.06 3049.26,-32.53 3049.14,-24.84"/>
<polygon fill="#63b8ff" stroke="#63b8ff" points="3046.1,-54.34 3049.75,-64.28 3053.1,-54.23 3046.1,-54.34"/>
</g>
<!-- Node41 -->
<g id="node40" class="node">
<title>Node41</title>
<g id="a_node40"><a xlink:href="_scalar_transport_time_derivative_8_c.html" target="_top" xlink:title=" ">
<polygon fill="white" stroke="#666666" points="3288.5,-30 3151.5,-30 3151.5,0 3288.5,0 3288.5,-30"/>
<text text-anchor="start" x="3159.5" y="-18" font-family="Helvetica,sans-Serif" font-size="10.00">src/kernels/ScalarTransport</text>
<text text-anchor="middle" x="3220" y="-7" font-family="Helvetica,sans-Serif" font-size="10.00">TimeDerivative.C</text>
</a>
</g>
</g>
<!-- Node38&#45;&gt;Node41 -->
<g id="edge39" class="edge">
<title>Node38&#45;&gt;Node41</title>
<path fill="none" stroke="#63b8ff" d="M3098.68,-61.67C3125.04,-51.75 3157.13,-39.67 3181.68,-30.43"/>
<polygon fill="#63b8ff" stroke="#63b8ff" points="3097.69,-58.3 3089.57,-65.1 3100.16,-64.86 3097.69,-58.3"/>
</g>
<!-- Node43 -->
<g id="node42" class="node">
<title>Node43</title>
<g id="a_node42"><a xlink:href="_sigma_r_8_c.html" target="_top" xlink:title=" ">
<polygon fill="white" stroke="#666666" points="3417.5,-24.5 3306.5,-24.5 3306.5,-5.5 3417.5,-5.5 3417.5,-24.5"/>
<text text-anchor="middle" x="3362" y="-12.5" font-family="Helvetica,sans-Serif" font-size="10.00">src/kernels/SigmaR.C</text>
</a>
</g>
</g>
<!-- Node42&#45;&gt;Node43 -->
<g id="edge41" class="edge">
<title>Node42&#45;&gt;Node43</title>
<path fill="none" stroke="#63b8ff" d="M3240.63,-66.77C3270.66,-54.21 3314.96,-35.68 3340.91,-24.82"/>
<polygon fill="#63b8ff" stroke="#63b8ff" points="3239.55,-63.43 3231.67,-70.52 3242.25,-69.89 3239.55,-63.43"/>
</g>
<!-- Node45 -->
<g id="node44" class="node">
<title>Node45</title>
<g id="a_node44"><a xlink:href="_transient_fission_heat_source_8_c.html" target="_top" xlink:title=" ">
<polygon fill="white" stroke="#666666" points="3576,-30 3436,-30 3436,0 3576,0 3576,-30"/>
<text text-anchor="start" x="3444" y="-18" font-family="Helvetica,sans-Serif" font-size="10.00">src/kernels/TransientFission</text>
<text text-anchor="middle" x="3506" y="-7" font-family="Helvetica,sans-Serif" font-size="10.00">HeatSource.C</text>
</a>
</g>
</g>
<!-- Node44&#45;&gt;Node45 -->
<g id="edge43" class="edge">
<title>Node44&#45;&gt;Node45</title>
<path fill="none" stroke="#63b8ff" d="M3397.77,-61.27C3421.3,-51.43 3449.71,-39.55 3471.51,-30.43"/>
<polygon fill="#63b8ff" stroke="#63b8ff" points="3396.61,-57.97 3388.73,-65.05 3399.31,-64.42 3396.61,-57.97"/>
</g>
<!-- Node47 -->
<g id="node46" class="node">
<title>Node47</title>
<g id="a_node46"><a xlink:href="_elm_integ_tot_fiss_heat_postprocessor_8h.html" target="_top" xlink:title=" ">
<polygon fill="#fff0f0" stroke="red" points="3776,-30 3594,-30 3594,0 3776,0 3776,-30"/>
<text text-anchor="start" x="3602" y="-18" font-family="Helvetica,sans-Serif" font-size="10.00">include/postprocessors</text>
<text text-anchor="middle" x="3685" y="-7" font-family="Helvetica,sans-Serif" font-size="10.00">/ElmIntegTotFissHeatPostprocessor.h</text>
</a>
</g>
</g>
<!-- Node46&#45;&gt;Node47 -->
<g id="edge45" class="edge">
<title>Node46&#45;&gt;Node47</title>
<path fill="none" stroke="#63b8ff" d="M3562.97,-61.67C3589.48,-51.75 3621.76,-39.67 3646.46,-30.43"/>
<polygon fill="#63b8ff" stroke="#63b8ff" points="3561.93,-58.32 3553.79,-65.11 3564.39,-64.88 3561.93,-58.32"/>
</g>
<!-- Node51 -->
<g id="node47" class="node">
<title>Node51</title>
<g id="a_node47"><a xlink:href="_elm_integ_tot_fiss_postprocessor_8_c.html" target="_top" xlink:title=" ">
<polygon fill="white" stroke="#666666" points="3957.5,-30 3794.5,-30 3794.5,0 3957.5,0 3957.5,-30"/>
<text text-anchor="start" x="3802.5" y="-18" font-family="Helvetica,sans-Serif" font-size="10.00">src/postprocessors</text>
<text text-anchor="middle" x="3876" y="-7" font-family="Helvetica,sans-Serif" font-size="10.00">/ElmIntegTotFissPostprocessor.C</text>
</a>
</g>
</g>
<!-- Node46&#45;&gt;Node51 -->
<g id="edge46" class="edge">
<title>Node46&#45;&gt;Node51</title>
<path fill="none" stroke="#63b8ff" d="M3605.8,-63.77C3663.84,-53.51 3738.19,-40.36 3794.21,-30.46"/>
<polygon fill="#63b8ff" stroke="#63b8ff" points="3605.52,-60.27 3596.28,-65.45 3606.74,-67.16 3605.52,-60.27"/>
</g>
</g>
</svg>
