<?xml version="1.0" encoding="UTF-8" standalone="no"?>
<!DOCTYPE svg PUBLIC "-//W3C//DTD SVG 1.1//EN"
 "http://www.w3.org/Graphics/SVG/1.1/DTD/svg11.dtd">
<!-- Generated by graphviz version 12.2.0 (20241103.1931)
 -->
<!-- Title: include/kernels/ScalarTransportTimeDerivative.h Pages: 1 -->
<svg width="272pt" height="149pt"
 viewBox="0.00 0.00 271.75 149.00" xmlns="http://www.w3.org/2000/svg" xmlns:xlink="http://www.w3.org/1999/xlink">

<svg id="main" version="1.1" xmlns="http://www.w3.org/2000/svg" xmlns:xlink="http://www.w3.org/1999/xlink" xml:space="preserve">

<style type="text/css"><![CDATA[
.node, .edge {opacity: 0.7;}
.node.selected, .edge.selected {opacity: 1;}
.edge:hover path { stroke: red; }
.edge:hover polygon { stroke: red; fill: red; }
]]></style>
<script type="application/ecmascript" xlink:href="svg.min.js"/>
<svg id="graph" class="graph">
<g id="graph0" class="graph" transform="scale(1 1) rotate(0) translate(4 145)">
<title>include/kernels/ScalarTransportTimeDerivative.h</title>
<!-- Node1 -->
<g id="Node000001" class="node">
<title>Node1</title>
<g id="a_Node000001"><a xlink:title=" ">
<polygon fill="#999999" stroke="#666666" points="169.12,-141 15.88,-141 15.88,-110.5 169.12,-110.5 169.12,-141"/>
<text text-anchor="start" x="23.88" y="-127.5" font-family="Helvetica,sans-Serif" font-size="10.00">include/kernels/ScalarTransport</text>
<text text-anchor="middle" x="92.5" y="-116.25" font-family="Helvetica,sans-Serif" font-size="10.00">TimeDerivative.h</text>
</a>
</g>
</g>
<!-- Node2 -->
<g id="Node000002" class="node">
<title>Node2</title>
<g id="a_Node000002"><a xlink:title=" ">
<polygon fill="#e0e0e0" stroke="#999999" points="73,-74.5 0,-74.5 0,-55.25 73,-55.25 73,-74.5"/>
<text text-anchor="middle" x="36.5" y="-61" font-family="Helvetica,sans-Serif" font-size="10.00">TimeKernel.h</text>
</a>
</g>
</g>
<!-- Node1&#45;&gt;Node2 -->
<g id="edge1_Node000001_Node000002" class="edge">
<title>Node1&#45;&gt;Node2</title>
<g id="a_edge1_Node000001_Node000002"><a xlink:title=" ">
<path fill="none" stroke="#63b8ff" d="M78.66,-110.2C70.87,-102.01 61.1,-91.73 52.92,-83.14"/>
<polygon fill="#63b8ff" stroke="#63b8ff" points="55.6,-80.88 46.18,-76.05 50.53,-85.71 55.6,-80.88"/>
</a>
</g>
</g>
<!-- Node3 -->
<g id="Node000003" class="node">
<title>Node3</title>
<g id="a_Node000003"><a xlink:href="_scalar_transport_base_8h.html" target="_top" xlink:title=" ">
<polygon fill="white" stroke="#666666" points="206,-74.5 91,-74.5 91,-55.25 206,-55.25 206,-74.5"/>
<text text-anchor="middle" x="148.5" y="-61" font-family="Helvetica,sans-Serif" font-size="10.00">ScalarTransportBase.h</text>
</a>
</g>
</g>
<!-- Node1&#45;&gt;Node3 -->
<g id="edge2_Node000001_Node000003" class="edge">
<title>Node1&#45;&gt;Node3</title>
<g id="a_edge2_Node000001_Node000003"><a xlink:title=" ">
<path fill="none" stroke="#63b8ff" d="M106.34,-110.2C114.13,-102.01 123.9,-91.73 132.08,-83.14"/>
<polygon fill="#63b8ff" stroke="#63b8ff" points="134.47,-85.71 138.82,-76.05 129.4,-80.88 134.47,-85.71"/>
</a>
</g>
</g>
<!-- Node4 -->
<g id="Node000004" class="node">
<title>Node4</title>
<g id="a_Node000004"><a xlink:title=" ">
<polygon fill="#e0e0e0" stroke="#999999" points="135.25,-19.25 39.75,-19.25 39.75,0 135.25,0 135.25,-19.25"/>
<text text-anchor="middle" x="87.5" y="-5.75" font-family="Helvetica,sans-Serif" font-size="10.00">InputParameters.h</text>
</a>
</g>
</g>
<!-- Node3&#45;&gt;Node4 -->
<g id="edge3_Node000003_Node000004" class="edge">
<title>Node3&#45;&gt;Node4</title>
<g id="a_edge3_Node000003_Node000004"><a xlink:title=" ">
<path fill="none" stroke="#63b8ff" d="M138.15,-54.84C129.42,-47.22 116.71,-36.12 106.2,-26.95"/>
<polygon fill="#63b8ff" stroke="#63b8ff" points="108.67,-24.46 98.84,-20.52 104.07,-29.73 108.67,-24.46"/>
</a>
</g>
</g>
<!-- Node5 -->
<g id="Node000005" class="node">
<title>Node5</title>
<g id="a_Node000005"><a xlink:title=" ">
<polygon fill="#e0e0e0" stroke="#999999" points="263.75,-19.25 153.25,-19.25 153.25,0 263.75,0 263.75,-19.25"/>
<text text-anchor="middle" x="208.5" y="-5.75" font-family="Helvetica,sans-Serif" font-size="10.00">MooseVariableBase.h</text>
</a>
</g>
</g>
<!-- Node3&#45;&gt;Node5 -->
<g id="edge4_Node000003_Node000005" class="edge">
<title>Node3&#45;&gt;Node5</title>
<g id="a_edge4_Node000003_Node000005"><a xlink:title=" ">
<path fill="none" stroke="#63b8ff" d="M158.68,-54.84C167.26,-47.22 179.77,-36.12 190.1,-26.95"/>
<polygon fill="#63b8ff" stroke="#63b8ff" points="192.18,-29.79 197.34,-20.53 187.54,-24.55 192.18,-29.79"/>
</a>
</g>
</g>
</g>
</svg>
</svg>

<style type='text/css'>
<![CDATA[
[data-mouse-over-selected='false'] { opacity: 0.7; }
[data-mouse-over-selected='true']  { opacity: 1.0; }
]]>
</style>
<script type="application/ecmascript"><![CDATA[
document.addEventListener('DOMContentLoaded', (event) => {
  highlightEdges();
  highlightAdjacentNodes();
});
]]></script>
</svg>
