<?xml version="1.0" encoding="UTF-8" standalone="no"?>
<!DOCTYPE svg PUBLIC "-//W3C//DTD SVG 1.1//EN"
 "http://www.w3.org/Graphics/SVG/1.1/DTD/svg11.dtd">
<!-- Generated by graphviz version 3.0.0 (20220413.0242)
 -->
<!-- Title: src/base/ScalarTransportBase.C Pages: 1 -->
<svg width="309pt" height="151pt"
 viewBox="0.00 0.00 309.00 151.00" xmlns="http://www.w3.org/2000/svg" xmlns:xlink="http://www.w3.org/1999/xlink">
<g id="graph0" class="graph" transform="scale(1 1) rotate(0) translate(4 147)">
<title>src/base/ScalarTransportBase.C</title>
<polygon fill="white" stroke="transparent" points="-4,4 -4,-147 305,-147 305,4 -4,4"/>
<!-- Node1 -->
<g id="node1" class="node">
<title>Node1</title>
<g id="a_node1"><a xlink:title=" ">
<polygon fill="#bfbfbf" stroke="black" points="113,-112.5 113,-142.5 239,-142.5 239,-112.5 113,-112.5"/>
<text text-anchor="start" x="121" y="-130.5" font-family="Helvetica,sans-Serif" font-size="10.00">src/base/ScalarTransport</text>
<text text-anchor="middle" x="176" y="-119.5" font-family="Helvetica,sans-Serif" font-size="10.00">Base.C</text>
</a>
</g>
</g>
<!-- Node2 -->
<g id="node2" class="node">
<title>Node2</title>
<g id="a_node2"><a xlink:href="_scalar_transport_base_8h.html" target="_top" xlink:title=" ">
<polygon fill="white" stroke="black" points="51,-56.5 51,-75.5 167,-75.5 167,-56.5 51,-56.5"/>
<text text-anchor="middle" x="109" y="-63.5" font-family="Helvetica,sans-Serif" font-size="10.00">ScalarTransportBase.h</text>
</a>
</g>
</g>
<!-- Node1&#45;&gt;Node2 -->
<g id="edge1" class="edge">
<title>Node1&#45;&gt;Node2</title>
<path fill="none" stroke="midnightblue" d="M160.12,-112.4C149.98,-103.4 136.84,-91.72 126.41,-82.47"/>
<polygon fill="midnightblue" stroke="midnightblue" points="128.55,-79.68 118.75,-75.66 123.9,-84.92 128.55,-79.68"/>
</g>
<!-- Node5 -->
<g id="node5" class="node">
<title>Node5</title>
<g id="a_node5"><a xlink:title=" ">
<polygon fill="white" stroke="#bfbfbf" points="185,-56.5 185,-75.5 301,-75.5 301,-56.5 185,-56.5"/>
<text text-anchor="middle" x="243" y="-63.5" font-family="Helvetica,sans-Serif" font-size="10.00">libmesh/vector_value.h</text>
</a>
</g>
</g>
<!-- Node1&#45;&gt;Node5 -->
<g id="edge4" class="edge">
<title>Node1&#45;&gt;Node5</title>
<path fill="none" stroke="midnightblue" d="M191.88,-112.4C202.02,-103.4 215.16,-91.72 225.59,-82.47"/>
<polygon fill="midnightblue" stroke="midnightblue" points="228.1,-84.92 233.25,-75.66 223.45,-79.68 228.1,-84.92"/>
</g>
<!-- Node3 -->
<g id="node3" class="node">
<title>Node3</title>
<g id="a_node3"><a xlink:title=" ">
<polygon fill="white" stroke="#bfbfbf" points="0,-0.5 0,-19.5 96,-19.5 96,-0.5 0,-0.5"/>
<text text-anchor="middle" x="48" y="-7.5" font-family="Helvetica,sans-Serif" font-size="10.00">InputParameters.h</text>
</a>
</g>
</g>
<!-- Node2&#45;&gt;Node3 -->
<g id="edge2" class="edge">
<title>Node2&#45;&gt;Node3</title>
<path fill="none" stroke="midnightblue" d="M99.2,-56.32C90.18,-48.34 76.59,-36.31 65.68,-26.65"/>
<polygon fill="midnightblue" stroke="midnightblue" points="67.79,-23.84 57.98,-19.83 63.15,-29.08 67.79,-23.84"/>
</g>
<!-- Node4 -->
<g id="node4" class="node">
<title>Node4</title>
<g id="a_node4"><a xlink:title=" ">
<polygon fill="white" stroke="#bfbfbf" points="114.5,-0.5 114.5,-19.5 225.5,-19.5 225.5,-0.5 114.5,-0.5"/>
<text text-anchor="middle" x="170" y="-7.5" font-family="Helvetica,sans-Serif" font-size="10.00">MooseVariableBase.h</text>
</a>
</g>
</g>
<!-- Node2&#45;&gt;Node4 -->
<g id="edge3" class="edge">
<title>Node2&#45;&gt;Node4</title>
<path fill="none" stroke="midnightblue" d="M118.8,-56.32C127.82,-48.34 141.41,-36.31 152.32,-26.65"/>
<polygon fill="midnightblue" stroke="midnightblue" points="154.85,-29.08 160.02,-19.83 150.21,-23.84 154.85,-29.08"/>
</g>
</g>
</svg>
