<?xml version="1.0" encoding="UTF-8" standalone="no"?>
<!DOCTYPE svg PUBLIC "-//W3C//DTD SVG 1.1//EN"
 "http://www.w3.org/Graphics/SVG/1.1/DTD/svg11.dtd">
<!-- Generated by graphviz version 3.0.0 (20220413.0242)
 -->
<!-- Title: src/kernels/ScalarAdvectionArtDiff.C Pages: 1 -->
<svg width="253pt" height="207pt"
 viewBox="0.00 0.00 252.50 207.00" xmlns="http://www.w3.org/2000/svg" xmlns:xlink="http://www.w3.org/1999/xlink">
<g id="graph0" class="graph" transform="scale(1 1) rotate(0) translate(4 203)">
<title>src/kernels/ScalarAdvectionArtDiff.C</title>
<polygon fill="white" stroke="transparent" points="-4,4 -4,-203 248.5,-203 248.5,4 -4,4"/>
<!-- Node1 -->
<g id="node1" class="node">
<title>Node1</title>
<g id="a_node1"><a xlink:title=" ">
<polygon fill="#bfbfbf" stroke="black" points="63.5,-168.5 63.5,-198.5 202.5,-198.5 202.5,-168.5 63.5,-168.5"/>
<text text-anchor="start" x="71.5" y="-186.5" font-family="Helvetica,sans-Serif" font-size="10.00">src/kernels/ScalarAdvection</text>
<text text-anchor="middle" x="133" y="-175.5" font-family="Helvetica,sans-Serif" font-size="10.00">ArtDiff.C</text>
</a>
</g>
</g>
<!-- Node2 -->
<g id="node2" class="node">
<title>Node2</title>
<g id="a_node2"><a xlink:href="_scalar_advection_art_diff_8h.html" target="_top" xlink:title=" ">
<polygon fill="white" stroke="black" points="16,-112.5 16,-131.5 138,-131.5 138,-112.5 16,-112.5"/>
<text text-anchor="middle" x="77" y="-119.5" font-family="Helvetica,sans-Serif" font-size="10.00">ScalarAdvectionArtDiff.h</text>
</a>
</g>
</g>
<!-- Node1&#45;&gt;Node2 -->
<g id="edge1" class="edge">
<title>Node1&#45;&gt;Node2</title>
<path fill="none" stroke="midnightblue" d="M119.73,-168.4C111.42,-159.58 100.7,-148.18 92.08,-139.02"/>
<polygon fill="midnightblue" stroke="midnightblue" points="94.55,-136.54 85.15,-131.66 89.45,-141.34 94.55,-136.54"/>
</g>
<!-- Node7 -->
<g id="node7" class="node">
<title>Node7</title>
<g id="a_node7"><a xlink:title=" ">
<polygon fill="white" stroke="#bfbfbf" points="156.5,-112.5 156.5,-131.5 223.5,-131.5 223.5,-112.5 156.5,-112.5"/>
<text text-anchor="middle" x="190" y="-119.5" font-family="Helvetica,sans-Serif" font-size="10.00">Assembly.h</text>
</a>
</g>
</g>
<!-- Node1&#45;&gt;Node7 -->
<g id="edge6" class="edge">
<title>Node1&#45;&gt;Node7</title>
<path fill="none" stroke="midnightblue" d="M146.51,-168.4C154.96,-159.58 165.88,-148.18 174.66,-139.02"/>
<polygon fill="midnightblue" stroke="midnightblue" points="177.32,-141.3 181.71,-131.66 172.26,-136.46 177.32,-141.3"/>
</g>
<!-- Node3 -->
<g id="node3" class="node">
<title>Node3</title>
<g id="a_node3"><a xlink:title=" ">
<polygon fill="white" stroke="#bfbfbf" points="0,-56.5 0,-75.5 52,-75.5 52,-56.5 0,-56.5"/>
<text text-anchor="middle" x="26" y="-63.5" font-family="Helvetica,sans-Serif" font-size="10.00">Kernel.h</text>
</a>
</g>
</g>
<!-- Node2&#45;&gt;Node3 -->
<g id="edge2" class="edge">
<title>Node2&#45;&gt;Node3</title>
<path fill="none" stroke="midnightblue" d="M68.58,-112.08C61.15,-104.22 50.15,-92.57 41.19,-83.08"/>
<polygon fill="midnightblue" stroke="midnightblue" points="43.68,-80.62 34.26,-75.75 38.59,-85.42 43.68,-80.62"/>
</g>
<!-- Node4 -->
<g id="node4" class="node">
<title>Node4</title>
<g id="a_node4"><a xlink:href="_scalar_transport_base_8h.html" target="_top" xlink:title=" ">
<polygon fill="white" stroke="black" points="70,-56.5 70,-75.5 186,-75.5 186,-56.5 70,-56.5"/>
<text text-anchor="middle" x="128" y="-63.5" font-family="Helvetica,sans-Serif" font-size="10.00">ScalarTransportBase.h</text>
</a>
</g>
</g>
<!-- Node2&#45;&gt;Node4 -->
<g id="edge3" class="edge">
<title>Node2&#45;&gt;Node4</title>
<path fill="none" stroke="midnightblue" d="M85.42,-112.08C92.85,-104.22 103.85,-92.57 112.81,-83.08"/>
<polygon fill="midnightblue" stroke="midnightblue" points="115.41,-85.42 119.74,-75.75 110.32,-80.62 115.41,-85.42"/>
</g>
<!-- Node5 -->
<g id="node5" class="node">
<title>Node5</title>
<g id="a_node5"><a xlink:title=" ">
<polygon fill="white" stroke="#bfbfbf" points="19,-0.5 19,-19.5 115,-19.5 115,-0.5 19,-0.5"/>
<text text-anchor="middle" x="67" y="-7.5" font-family="Helvetica,sans-Serif" font-size="10.00">InputParameters.h</text>
</a>
</g>
</g>
<!-- Node4&#45;&gt;Node5 -->
<g id="edge4" class="edge">
<title>Node4&#45;&gt;Node5</title>
<path fill="none" stroke="midnightblue" d="M118.2,-56.32C109.18,-48.34 95.59,-36.31 84.68,-26.65"/>
<polygon fill="midnightblue" stroke="midnightblue" points="86.79,-23.84 76.98,-19.83 82.15,-29.08 86.79,-23.84"/>
</g>
<!-- Node6 -->
<g id="node6" class="node">
<title>Node6</title>
<g id="a_node6"><a xlink:title=" ">
<polygon fill="white" stroke="#bfbfbf" points="133.5,-0.5 133.5,-19.5 244.5,-19.5 244.5,-0.5 133.5,-0.5"/>
<text text-anchor="middle" x="189" y="-7.5" font-family="Helvetica,sans-Serif" font-size="10.00">MooseVariableBase.h</text>
</a>
</g>
</g>
<!-- Node4&#45;&gt;Node6 -->
<g id="edge5" class="edge">
<title>Node4&#45;&gt;Node6</title>
<path fill="none" stroke="midnightblue" d="M137.8,-56.32C146.82,-48.34 160.41,-36.31 171.32,-26.65"/>
<polygon fill="midnightblue" stroke="midnightblue" points="173.85,-29.08 179.02,-19.83 169.21,-23.84 173.85,-29.08"/>
</g>
</g>
</svg>
