<?xml version="1.0" encoding="UTF-8" standalone="no"?>
<!DOCTYPE svg PUBLIC "-//W3C//DTD SVG 1.1//EN"
 "http://www.w3.org/Graphics/SVG/1.1/DTD/svg11.dtd">
<!-- Generated by graphviz version 7.0.4 (20221203.1631)
 -->
<!-- Title: include/base/ScalarTransportBase.h Pages: 1 -->
<svg width="234pt" height="93pt"
 viewBox="0.00 0.00 233.50 93.00" xmlns="http://www.w3.org/2000/svg" xmlns:xlink="http://www.w3.org/1999/xlink">
<g id="graph0" class="graph" transform="scale(1 1) rotate(0) translate(4 89)">
<title>include/base/ScalarTransportBase.h</title>
<!-- Node1 -->
<g id="node1" class="node">
<title>Node1</title>
<g id="a_node1"><a xlink:title=" ">
<polygon fill="#999999" stroke="#666666" points="180.5,-85 37.5,-85 37.5,-55 180.5,-55 180.5,-85"/>
<text text-anchor="start" x="45.5" y="-73" font-family="Helvetica,sans-Serif" font-size="10.00">include/base/ScalarTransport</text>
<text text-anchor="middle" x="109" y="-62" font-family="Helvetica,sans-Serif" font-size="10.00">Base.h</text>
</a>
</g>
</g>
<!-- Node2 -->
<g id="node2" class="node">
<title>Node2</title>
<g id="a_node2"><a xlink:title=" ">
<polygon fill="#e0e0e0" stroke="#999999" points="96,-19 0,-19 0,0 96,0 96,-19"/>
<text text-anchor="middle" x="48" y="-7" font-family="Helvetica,sans-Serif" font-size="10.00">InputParameters.h</text>
</a>
</g>
</g>
<!-- Node1&#45;&gt;Node2 -->
<g id="edge1" class="edge">
<title>Node1&#45;&gt;Node2</title>
<path fill="none" stroke="#63b8ff" d="M93.92,-54.54C85.24,-46.22 74.3,-35.72 65.28,-27.07"/>
<polygon fill="#63b8ff" stroke="#63b8ff" points="67.78,-24.62 58.14,-20.22 62.93,-29.67 67.78,-24.62"/>
</g>
<!-- Node3 -->
<g id="node3" class="node">
<title>Node3</title>
<g id="a_node3"><a xlink:title=" ">
<polygon fill="#e0e0e0" stroke="#999999" points="225.5,-19 114.5,-19 114.5,0 225.5,0 225.5,-19"/>
<text text-anchor="middle" x="170" y="-7" font-family="Helvetica,sans-Serif" font-size="10.00">MooseVariableBase.h</text>
</a>
</g>
</g>
<!-- Node1&#45;&gt;Node3 -->
<g id="edge2" class="edge">
<title>Node1&#45;&gt;Node3</title>
<path fill="none" stroke="#63b8ff" d="M124.08,-54.54C132.76,-46.22 143.7,-35.72 152.72,-27.07"/>
<polygon fill="#63b8ff" stroke="#63b8ff" points="155.07,-29.67 159.86,-20.22 150.22,-24.62 155.07,-29.67"/>
</g>
</g>
</svg>
