<?xml version="1.0" encoding="UTF-8" standalone="no"?>
<!DOCTYPE svg PUBLIC "-//W3C//DTD SVG 1.1//EN"
 "http://www.w3.org/Graphics/SVG/1.1/DTD/svg11.dtd">
<!-- Generated by graphviz version 7.0.5 (20221223.1930)
 -->
<!-- Title: src/kernels/SelfFissionEigenKernel.C Pages: 1 -->
<svg width="148pt" height="148pt"
 viewBox="0.00 0.00 148.00 148.00" xmlns="http://www.w3.org/2000/svg" xmlns:xlink="http://www.w3.org/1999/xlink">
<g id="graph0" class="graph" transform="scale(1 1) rotate(0) translate(4 144)">
<title>src/kernels/SelfFissionEigenKernel.C</title>
<!-- Node1 -->
<g id="node1" class="node">
<title>Node1</title>
<g id="a_node1"><a xlink:title=" ">
<polygon fill="#999999" stroke="#666666" points="140,-140 0,-140 0,-110 140,-110 140,-140"/>
<text text-anchor="start" x="8" y="-128" font-family="Helvetica,sans-Serif" font-size="10.00">src/kernels/SelfFissionEigen</text>
<text text-anchor="middle" x="70" y="-117" font-family="Helvetica,sans-Serif" font-size="10.00">Kernel.C</text>
</a>
</g>
</g>
<!-- Node2 -->
<g id="node2" class="node">
<title>Node2</title>
<g id="a_node2"><a xlink:href="_self_fission_eigen_kernel_8h.html" target="_top" xlink:title=" ">
<polygon fill="white" stroke="#666666" points="132.5,-74 7.5,-74 7.5,-55 132.5,-55 132.5,-74"/>
<text text-anchor="middle" x="70" y="-62" font-family="Helvetica,sans-Serif" font-size="10.00">SelfFissionEigenKernel.h</text>
</a>
</g>
</g>
<!-- Node1&#45;&gt;Node2 -->
<g id="edge1" class="edge">
<title>Node1&#45;&gt;Node2</title>
<path fill="none" stroke="#63b8ff" d="M70,-109.54C70,-102.34 70,-93.53 70,-85.68"/>
<polygon fill="#63b8ff" stroke="#63b8ff" points="73.5,-85.69 70,-75.69 66.5,-85.69 73.5,-85.69"/>
</g>
<!-- Node3 -->
<g id="node3" class="node">
<title>Node3</title>
<g id="a_node3"><a xlink:title=" ">
<polygon fill="#e0e0e0" stroke="#999999" points="108,-19 32,-19 32,0 108,0 108,-19"/>
<text text-anchor="middle" x="70" y="-7" font-family="Helvetica,sans-Serif" font-size="10.00">EigenKernel.h</text>
</a>
</g>
</g>
<!-- Node2&#45;&gt;Node3 -->
<g id="edge2" class="edge">
<title>Node2&#45;&gt;Node3</title>
<path fill="none" stroke="#63b8ff" d="M70,-54.75C70,-48.27 70,-39.16 70,-30.9"/>
<polygon fill="#63b8ff" stroke="#63b8ff" points="73.5,-30.96 70,-20.96 66.5,-30.96 73.5,-30.96"/>
</g>
</g>
</svg>
