<?xml version="1.0" encoding="UTF-8" standalone="no"?>
<!DOCTYPE svg PUBLIC "-//W3C//DTD SVG 1.1//EN"
 "http://www.w3.org/Graphics/SVG/1.1/DTD/svg11.dtd">
<!-- Generated by graphviz version 12.2.0 (20241103.1931)
 -->
<!-- Title: src/postprocessors/SideFunctionWeightedIntegralPostprocessor.C Pages: 1 -->
<svg width="246pt" height="172pt"
 viewBox="0.00 0.00 246.25 171.50" xmlns="http://www.w3.org/2000/svg" xmlns:xlink="http://www.w3.org/1999/xlink">
<g id="graph0" class="graph" transform="scale(1 1) rotate(0) translate(4 167.5)">
<title>src/postprocessors/SideFunctionWeightedIntegralPostprocessor.C</title>
<!-- Node1 -->
<g id="Node000001" class="node">
<title>Node1</title>
<g id="a_Node000001"><a xlink:title=" ">
<polygon fill="#999999" stroke="#666666" points="221.12,-163.5 72.38,-163.5 72.38,-121.75 221.12,-121.75 221.12,-163.5"/>
<text text-anchor="start" x="80.38" y="-150" font-family="Helvetica,sans-Serif" font-size="10.00">src/postprocessors</text>
<text text-anchor="start" x="80.38" y="-138.75" font-family="Helvetica,sans-Serif" font-size="10.00">/SideFunctionWeightedIntegral</text>
<text text-anchor="middle" x="146.75" y="-127.5" font-family="Helvetica,sans-Serif" font-size="10.00">Postprocessor.C</text>
</a>
</g>
</g>
<!-- Node2 -->
<g id="Node000002" class="node">
<title>Node2</title>
<g id="a_Node000002"><a xlink:href="_side_function_weighted_integral_postprocessor_8h.html" target="_top" xlink:title=" ">
<polygon fill="white" stroke="#666666" points="159.62,-85.75 13.88,-85.75 13.88,-55.25 159.62,-55.25 159.62,-85.75"/>
<text text-anchor="start" x="21.88" y="-72.25" font-family="Helvetica,sans-Serif" font-size="10.00">SideFunctionWeightedIntegral</text>
<text text-anchor="middle" x="86.75" y="-61" font-family="Helvetica,sans-Serif" font-size="10.00">Postprocessor.h</text>
</a>
</g>
</g>
<!-- Node1&#45;&gt;Node2 -->
<g id="edge1_Node000001_Node000002" class="edge">
<title>Node1&#45;&gt;Node2</title>
<g id="a_edge1_Node000001_Node000002"><a xlink:title=" ">
<path fill="none" stroke="#63b8ff" d="M129.4,-121.34C122.2,-112.94 113.82,-103.14 106.41,-94.47"/>
<polygon fill="#63b8ff" stroke="#63b8ff" points="109.26,-92.42 100.1,-87.1 103.94,-96.97 109.26,-92.42"/>
</a>
</g>
</g>
<!-- Node4 -->
<g id="Node000004" class="node">
<title>Node4</title>
<g id="a_Node000004"><a xlink:title=" ">
<polygon fill="#e0e0e0" stroke="#999999" points="238.25,-80.12 177.25,-80.12 177.25,-60.88 238.25,-60.88 238.25,-80.12"/>
<text text-anchor="middle" x="207.75" y="-66.62" font-family="Helvetica,sans-Serif" font-size="10.00">Function.h</text>
</a>
</g>
</g>
<!-- Node1&#45;&gt;Node4 -->
<g id="edge3_Node000001_Node000004" class="edge">
<title>Node1&#45;&gt;Node4</title>
<g id="a_edge3_Node000001_Node000004"><a xlink:title=" ">
<path fill="none" stroke="#63b8ff" d="M164.39,-121.34C173.35,-111.04 184.12,-98.66 192.69,-88.81"/>
<polygon fill="#63b8ff" stroke="#63b8ff" points="195.18,-91.29 199.1,-81.44 189.9,-86.69 195.18,-91.29"/>
</a>
</g>
</g>
<!-- Node3 -->
<g id="Node000003" class="node">
<title>Node3</title>
<g id="a_Node000003"><a xlink:title=" ">
<polygon fill="#e0e0e0" stroke="#999999" points="173.5,-19.25 0,-19.25 0,0 173.5,0 173.5,-19.25"/>
<text text-anchor="middle" x="86.75" y="-5.75" font-family="Helvetica,sans-Serif" font-size="10.00">SideIntegralVariablePostprocessor.h</text>
</a>
</g>
</g>
<!-- Node2&#45;&gt;Node3 -->
<g id="edge2_Node000002_Node000003" class="edge">
<title>Node2&#45;&gt;Node3</title>
<g id="a_edge2_Node000002_Node000003"><a xlink:title=" ">
<path fill="none" stroke="#63b8ff" d="M86.75,-54.95C86.75,-47.71 86.75,-38.84 86.75,-30.94"/>
<polygon fill="#63b8ff" stroke="#63b8ff" points="90.25,-31.21 86.75,-21.21 83.25,-31.21 90.25,-31.21"/>
</a>
</g>
</g>
</g>
</svg>
