<?xml version="1.0" encoding="UTF-8" standalone="no"?>
<!DOCTYPE svg PUBLIC "-//W3C//DTD SVG 1.1//EN"
 "http://www.w3.org/Graphics/SVG/1.1/DTD/svg11.dtd">
<!-- Generated by graphviz version 12.2.0 (20241103.1931)
 -->
<!-- Title: src/postprocessors/SideWeightedIntegralPostprocessor.C Pages: 1 -->
<svg width="191pt" height="149pt"
 viewBox="0.00 0.00 191.25 149.00" xmlns="http://www.w3.org/2000/svg" xmlns:xlink="http://www.w3.org/1999/xlink">
<g id="graph0" class="graph" transform="scale(1 1) rotate(0) translate(4 145)">
<title>src/postprocessors/SideWeightedIntegralPostprocessor.C</title>
<!-- Node1 -->
<g id="Node000001" class="node">
<title>Node1</title>
<g id="a_Node000001"><a xlink:title=" ">
<polygon fill="#999999" stroke="#666666" points="183.25,-141 0,-141 0,-110.5 183.25,-110.5 183.25,-141"/>
<text text-anchor="start" x="8" y="-127.5" font-family="Helvetica,sans-Serif" font-size="10.00">src/postprocessors</text>
<text text-anchor="middle" x="91.62" y="-116.25" font-family="Helvetica,sans-Serif" font-size="10.00">/SideWeightedIntegralPostprocessor.C</text>
</a>
</g>
</g>
<!-- Node2 -->
<g id="Node000002" class="node">
<title>Node2</title>
<g id="a_Node000002"><a xlink:href="_side_weighted_integral_postprocessor_8h.html" target="_top" xlink:title=" ">
<polygon fill="white" stroke="#666666" points="181,-74.5 2.25,-74.5 2.25,-55.25 181,-55.25 181,-74.5"/>
<text text-anchor="middle" x="91.62" y="-61" font-family="Helvetica,sans-Serif" font-size="10.00">SideWeightedIntegralPostprocessor.h</text>
</a>
</g>
</g>
<!-- Node1&#45;&gt;Node2 -->
<g id="edge1_Node000001_Node000002" class="edge">
<title>Node1&#45;&gt;Node2</title>
<g id="a_edge1_Node000001_Node000002"><a xlink:title=" ">
<path fill="none" stroke="#63b8ff" d="M91.62,-110.2C91.62,-102.96 91.62,-94.09 91.62,-86.19"/>
<polygon fill="#63b8ff" stroke="#63b8ff" points="95.13,-86.46 91.63,-76.46 88.13,-86.46 95.13,-86.46"/>
</a>
</g>
</g>
<!-- Node3 -->
<g id="Node000003" class="node">
<title>Node3</title>
<g id="a_Node000003"><a xlink:title=" ">
<polygon fill="#e0e0e0" stroke="#999999" points="178.38,-19.25 4.88,-19.25 4.88,0 178.38,0 178.38,-19.25"/>
<text text-anchor="middle" x="91.62" y="-5.75" font-family="Helvetica,sans-Serif" font-size="10.00">SideIntegralVariablePostprocessor.h</text>
</a>
</g>
</g>
<!-- Node2&#45;&gt;Node3 -->
<g id="edge2_Node000002_Node000003" class="edge">
<title>Node2&#45;&gt;Node3</title>
<g id="a_edge2_Node000002_Node000003"><a xlink:title=" ">
<path fill="none" stroke="#63b8ff" d="M91.62,-55.08C91.62,-48.57 91.62,-39.42 91.62,-31.12"/>
<polygon fill="#63b8ff" stroke="#63b8ff" points="95.13,-31.12 91.63,-21.12 88.13,-31.12 95.13,-31.12"/>
</a>
</g>
</g>
</g>
</svg>
