<?xml version="1.0" encoding="UTF-8" standalone="no"?>
<!DOCTYPE svg PUBLIC "-//W3C//DTD SVG 1.1//EN"
 "http://www.w3.org/Graphics/SVG/1.1/DTD/svg11.dtd">
<!-- Generated by graphviz version 7.0.5 (20221223.1930)
 -->
<!-- Title: include/postprocessors/TotalNeutronLeakage.h Pages: 1 -->
<svg width="340pt" height="148pt"
 viewBox="0.00 0.00 340.00 148.00" xmlns="http://www.w3.org/2000/svg" xmlns:xlink="http://www.w3.org/1999/xlink">
<g id="graph0" class="graph" transform="scale(1 1) rotate(0) translate(4 144)">
<title>include/postprocessors/TotalNeutronLeakage.h</title>
<!-- Node1 -->
<g id="node1" class="node">
<title>Node1</title>
<g id="a_node1"><a xlink:title=" ">
<polygon fill="#999999" stroke="#666666" points="203,-140 82,-140 82,-110 203,-110 203,-140"/>
<text text-anchor="start" x="90" y="-128" font-family="Helvetica,sans-Serif" font-size="10.00">include/postprocessors</text>
<text text-anchor="middle" x="142.5" y="-117" font-family="Helvetica,sans-Serif" font-size="10.00">/TotalNeutronLeakage.h</text>
</a>
</g>
</g>
<!-- Node2 -->
<g id="node2" class="node">
<title>Node2</title>
<g id="a_node2"><a xlink:title=" ">
<polygon fill="#e0e0e0" stroke="#999999" points="139,-74 0,-74 0,-55 139,-55 139,-74"/>
<text text-anchor="middle" x="69.5" y="-62" font-family="Helvetica,sans-Serif" font-size="10.00">SideIntegralPostprocessor.h</text>
</a>
</g>
</g>
<!-- Node1&#45;&gt;Node2 -->
<g id="edge1" class="edge">
<title>Node1&#45;&gt;Node2</title>
<path fill="none" stroke="#63b8ff" d="M124.46,-109.54C113.74,-100.96 100.16,-90.07 89.17,-81.26"/>
<polygon fill="#63b8ff" stroke="#63b8ff" points="91.5,-78.64 81.51,-75.12 87.12,-84.11 91.5,-78.64"/>
</g>
<!-- Node3 -->
<g id="node3" class="node">
<title>Node3</title>
<g id="a_node3"><a xlink:href="_scalar_transport_base_8h.html" target="_top" xlink:title=" ">
<polygon fill="white" stroke="#666666" points="273.5,-74 157.5,-74 157.5,-55 273.5,-55 273.5,-74"/>
<text text-anchor="middle" x="215.5" y="-62" font-family="Helvetica,sans-Serif" font-size="10.00">ScalarTransportBase.h</text>
</a>
</g>
</g>
<!-- Node1&#45;&gt;Node3 -->
<g id="edge2" class="edge">
<title>Node1&#45;&gt;Node3</title>
<path fill="none" stroke="#63b8ff" d="M160.54,-109.54C171.26,-100.96 184.84,-90.07 195.83,-81.26"/>
<polygon fill="#63b8ff" stroke="#63b8ff" points="197.88,-84.11 203.49,-75.12 193.5,-78.64 197.88,-84.11"/>
</g>
<!-- Node4 -->
<g id="node4" class="node">
<title>Node4</title>
<g id="a_node4"><a xlink:title=" ">
<polygon fill="#e0e0e0" stroke="#999999" points="202.5,-19 106.5,-19 106.5,0 202.5,0 202.5,-19"/>
<text text-anchor="middle" x="154.5" y="-7" font-family="Helvetica,sans-Serif" font-size="10.00">InputParameters.h</text>
</a>
</g>
</g>
<!-- Node3&#45;&gt;Node4 -->
<g id="edge3" class="edge">
<title>Node3&#45;&gt;Node4</title>
<path fill="none" stroke="#63b8ff" d="M205.15,-54.51C196.42,-46.93 183.71,-35.88 173.2,-26.75"/>
<polygon fill="#63b8ff" stroke="#63b8ff" points="175.68,-24.27 165.84,-20.35 171.09,-29.55 175.68,-24.27"/>
</g>
<!-- Node5 -->
<g id="node5" class="node">
<title>Node5</title>
<g id="a_node5"><a xlink:title=" ">
<polygon fill="#e0e0e0" stroke="#999999" points="332,-19 221,-19 221,0 332,0 332,-19"/>
<text text-anchor="middle" x="276.5" y="-7" font-family="Helvetica,sans-Serif" font-size="10.00">MooseVariableBase.h</text>
</a>
</g>
</g>
<!-- Node3&#45;&gt;Node5 -->
<g id="edge4" class="edge">
<title>Node3&#45;&gt;Node5</title>
<path fill="none" stroke="#63b8ff" d="M225.85,-54.51C234.58,-46.93 247.29,-35.88 257.8,-26.75"/>
<polygon fill="#63b8ff" stroke="#63b8ff" points="259.91,-29.55 265.16,-20.35 255.32,-24.27 259.91,-29.55"/>
</g>
</g>
</svg>
