<?xml version="1.0" encoding="UTF-8" standalone="no"?>
<!DOCTYPE svg PUBLIC "-//W3C//DTD SVG 1.1//EN"
 "http://www.w3.org/Graphics/SVG/1.1/DTD/svg11.dtd">
<!-- Generated by graphviz version 9.0.0 (20230911.1827)
 -->
<!-- Title: include/postprocessors/TotalNeutronLeakage.h Pages: 1 -->
<svg width="337pt" height="149pt"
 viewBox="0.00 0.00 337.38 149.00" xmlns="http://www.w3.org/2000/svg" xmlns:xlink="http://www.w3.org/1999/xlink">
<g id="graph0" class="graph" transform="scale(1 1) rotate(0) translate(4 145)">
<title>include/postprocessors/TotalNeutronLeakage.h</title>
<!-- Node1 -->
<g id="Node000001" class="node">
<title>Node1</title>
<g id="a_Node000001"><a xlink:title=" ">
<polygon fill="#999999" stroke="#666666" points="201.25,-141 81,-141 81,-110.5 201.25,-110.5 201.25,-141"/>
<text text-anchor="start" x="89" y="-127.5" font-family="Helvetica,sans-Serif" font-size="10.00">include/postprocessors</text>
<text text-anchor="middle" x="141.12" y="-116.25" font-family="Helvetica,sans-Serif" font-size="10.00">/TotalNeutronLeakage.h</text>
</a>
</g>
</g>
<!-- Node2 -->
<g id="Node000002" class="node">
<title>Node2</title>
<g id="a_Node000002"><a xlink:title=" ">
<polygon fill="#e0e0e0" stroke="#999999" points="138.25,-74.5 0,-74.5 0,-55.25 138.25,-55.25 138.25,-74.5"/>
<text text-anchor="middle" x="69.12" y="-61" font-family="Helvetica,sans-Serif" font-size="10.00">SideIntegralPostprocessor.h</text>
</a>
</g>
</g>
<!-- Node1&#45;&gt;Node2 -->
<g id="edge1_Node000001_Node000002" class="edge">
<title>Node1&#45;&gt;Node2</title>
<g id="a_edge1_Node000001_Node000002"><a xlink:title=" ">
<path fill="none" stroke="#63b8ff" d="M123.33,-110.2C112.89,-101.66 99.69,-90.87 88.92,-82.06"/>
<polygon fill="#63b8ff" stroke="#63b8ff" points="91.35,-79.53 81.4,-75.91 86.92,-84.95 91.35,-79.53"/>
</a>
</g>
</g>
<!-- Node3 -->
<g id="Node000003" class="node">
<title>Node3</title>
<g id="a_Node000003"><a xlink:href="_scalar_transport_base_8h.html" target="_top" xlink:title=" ">
<polygon fill="white" stroke="#666666" points="271.62,-74.5 156.62,-74.5 156.62,-55.25 271.62,-55.25 271.62,-74.5"/>
<text text-anchor="middle" x="214.12" y="-61" font-family="Helvetica,sans-Serif" font-size="10.00">ScalarTransportBase.h</text>
</a>
</g>
</g>
<!-- Node1&#45;&gt;Node3 -->
<g id="edge2_Node000001_Node000003" class="edge">
<title>Node1&#45;&gt;Node3</title>
<g id="a_edge2_Node000001_Node000003"><a xlink:title=" ">
<path fill="none" stroke="#63b8ff" d="M159.17,-110.2C169.75,-101.66 183.14,-90.87 194.05,-82.06"/>
<polygon fill="#63b8ff" stroke="#63b8ff" points="196.11,-84.9 201.69,-75.9 191.71,-79.45 196.11,-84.9"/>
</a>
</g>
</g>
<!-- Node4 -->
<g id="Node000004" class="node">
<title>Node4</title>
<g id="a_Node000004"><a xlink:title=" ">
<polygon fill="#e0e0e0" stroke="#999999" points="200.88,-19.25 105.38,-19.25 105.38,0 200.88,0 200.88,-19.25"/>
<text text-anchor="middle" x="153.12" y="-5.75" font-family="Helvetica,sans-Serif" font-size="10.00">InputParameters.h</text>
</a>
</g>
</g>
<!-- Node3&#45;&gt;Node4 -->
<g id="edge3_Node000003_Node000004" class="edge">
<title>Node3&#45;&gt;Node4</title>
<g id="a_edge3_Node000003_Node000004"><a xlink:title=" ">
<path fill="none" stroke="#63b8ff" d="M203.78,-54.84C195.05,-47.22 182.34,-36.12 171.83,-26.95"/>
<polygon fill="#63b8ff" stroke="#63b8ff" points="174.3,-24.46 164.46,-20.52 169.69,-29.73 174.3,-24.46"/>
</a>
</g>
</g>
<!-- Node5 -->
<g id="Node000005" class="node">
<title>Node5</title>
<g id="a_Node000005"><a xlink:title=" ">
<polygon fill="#e0e0e0" stroke="#999999" points="329.38,-19.25 218.88,-19.25 218.88,0 329.38,0 329.38,-19.25"/>
<text text-anchor="middle" x="274.12" y="-5.75" font-family="Helvetica,sans-Serif" font-size="10.00">MooseVariableBase.h</text>
</a>
</g>
</g>
<!-- Node3&#45;&gt;Node5 -->
<g id="edge4_Node000003_Node000005" class="edge">
<title>Node3&#45;&gt;Node5</title>
<g id="a_edge4_Node000003_Node000005"><a xlink:title=" ">
<path fill="none" stroke="#63b8ff" d="M224.3,-54.84C232.89,-47.22 245.39,-36.12 255.73,-26.95"/>
<polygon fill="#63b8ff" stroke="#63b8ff" points="257.81,-29.79 262.97,-20.53 253.16,-24.55 257.81,-29.79"/>
</a>
</g>
</g>
</g>
</svg>
