<?xml version="1.0" encoding="UTF-8" standalone="no"?>
<!DOCTYPE svg PUBLIC "-//W3C//DTD SVG 1.1//EN"
 "http://www.w3.org/Graphics/SVG/1.1/DTD/svg11.dtd">
<!-- Generated by graphviz version 7.0.5 (20221223.1930)
 -->
<!-- Title: src/postprocessors/TotalNeutronLeakage.C Pages: 1 -->
<svg width="340pt" height="203pt"
 viewBox="0.00 0.00 340.00 203.00" xmlns="http://www.w3.org/2000/svg" xmlns:xlink="http://www.w3.org/1999/xlink">
<g id="graph0" class="graph" transform="scale(1 1) rotate(0) translate(4 199)">
<title>src/postprocessors/TotalNeutronLeakage.C</title>
<!-- Node1 -->
<g id="node1" class="node">
<title>Node1</title>
<g id="a_node1"><a xlink:title=" ">
<polygon fill="#999999" stroke="#666666" points="203.5,-195 81.5,-195 81.5,-165 203.5,-165 203.5,-195"/>
<text text-anchor="start" x="89.5" y="-183" font-family="Helvetica,sans-Serif" font-size="10.00">src/postprocessors</text>
<text text-anchor="middle" x="142.5" y="-172" font-family="Helvetica,sans-Serif" font-size="10.00">/TotalNeutronLeakage.C</text>
</a>
</g>
</g>
<!-- Node2 -->
<g id="node2" class="node">
<title>Node2</title>
<g id="a_node2"><a xlink:href="_total_neutron_leakage_8h.html" target="_top" xlink:title=" ">
<polygon fill="white" stroke="#666666" points="201.5,-129 83.5,-129 83.5,-110 201.5,-110 201.5,-129"/>
<text text-anchor="middle" x="142.5" y="-117" font-family="Helvetica,sans-Serif" font-size="10.00">TotalNeutronLeakage.h</text>
</a>
</g>
</g>
<!-- Node1&#45;&gt;Node2 -->
<g id="edge1" class="edge">
<title>Node1&#45;&gt;Node2</title>
<path fill="none" stroke="#63b8ff" d="M142.5,-164.54C142.5,-157.34 142.5,-148.53 142.5,-140.68"/>
<polygon fill="#63b8ff" stroke="#63b8ff" points="146,-140.69 142.5,-130.69 139,-140.69 146,-140.69"/>
</g>
<!-- Node3 -->
<g id="node3" class="node">
<title>Node3</title>
<g id="a_node3"><a xlink:title=" ">
<polygon fill="#e0e0e0" stroke="#999999" points="139,-74 0,-74 0,-55 139,-55 139,-74"/>
<text text-anchor="middle" x="69.5" y="-62" font-family="Helvetica,sans-Serif" font-size="10.00">SideIntegralPostprocessor.h</text>
</a>
</g>
</g>
<!-- Node2&#45;&gt;Node3 -->
<g id="edge2" class="edge">
<title>Node2&#45;&gt;Node3</title>
<path fill="none" stroke="#63b8ff" d="M130.12,-109.51C119.35,-101.7 103.53,-90.21 90.75,-80.93"/>
<polygon fill="#63b8ff" stroke="#63b8ff" points="93.07,-78.29 82.93,-75.25 88.96,-83.95 93.07,-78.29"/>
</g>
<!-- Node4 -->
<g id="node4" class="node">
<title>Node4</title>
<g id="a_node4"><a xlink:href="_scalar_transport_base_8h.html" target="_top" xlink:title=" ">
<polygon fill="white" stroke="#666666" points="273.5,-74 157.5,-74 157.5,-55 273.5,-55 273.5,-74"/>
<text text-anchor="middle" x="215.5" y="-62" font-family="Helvetica,sans-Serif" font-size="10.00">ScalarTransportBase.h</text>
</a>
</g>
</g>
<!-- Node2&#45;&gt;Node4 -->
<g id="edge3" class="edge">
<title>Node2&#45;&gt;Node4</title>
<path fill="none" stroke="#63b8ff" d="M154.88,-109.51C165.65,-101.7 181.47,-90.21 194.25,-80.93"/>
<polygon fill="#63b8ff" stroke="#63b8ff" points="196.04,-83.95 202.07,-75.25 191.93,-78.29 196.04,-83.95"/>
</g>
<!-- Node5 -->
<g id="node5" class="node">
<title>Node5</title>
<g id="a_node5"><a xlink:title=" ">
<polygon fill="#e0e0e0" stroke="#999999" points="202.5,-19 106.5,-19 106.5,0 202.5,0 202.5,-19"/>
<text text-anchor="middle" x="154.5" y="-7" font-family="Helvetica,sans-Serif" font-size="10.00">InputParameters.h</text>
</a>
</g>
</g>
<!-- Node4&#45;&gt;Node5 -->
<g id="edge4" class="edge">
<title>Node4&#45;&gt;Node5</title>
<path fill="none" stroke="#63b8ff" d="M205.15,-54.51C196.42,-46.93 183.71,-35.88 173.2,-26.75"/>
<polygon fill="#63b8ff" stroke="#63b8ff" points="175.68,-24.27 165.84,-20.35 171.09,-29.55 175.68,-24.27"/>
</g>
<!-- Node6 -->
<g id="node6" class="node">
<title>Node6</title>
<g id="a_node6"><a xlink:title=" ">
<polygon fill="#e0e0e0" stroke="#999999" points="332,-19 221,-19 221,0 332,0 332,-19"/>
<text text-anchor="middle" x="276.5" y="-7" font-family="Helvetica,sans-Serif" font-size="10.00">MooseVariableBase.h</text>
</a>
</g>
</g>
<!-- Node4&#45;&gt;Node6 -->
<g id="edge5" class="edge">
<title>Node4&#45;&gt;Node6</title>
<path fill="none" stroke="#63b8ff" d="M225.85,-54.51C234.58,-46.93 247.29,-35.88 257.8,-26.75"/>
<polygon fill="#63b8ff" stroke="#63b8ff" points="259.91,-29.55 265.16,-20.35 255.32,-24.27 259.91,-29.55"/>
</g>
</g>
</svg>
