<?xml version="1.0" encoding="UTF-8" standalone="no"?>
<!DOCTYPE svg PUBLIC "-//W3C//DTD SVG 1.1//EN"
 "http://www.w3.org/Graphics/SVG/1.1/DTD/svg11.dtd">
<!-- Generated by graphviz version 12.2.0 (20241103.1931)
 -->
<!-- Title: src/postprocessors/TotalNeutronLeakage.C Pages: 1 -->
<svg width="337pt" height="204pt"
 viewBox="0.00 0.00 337.38 204.25" xmlns="http://www.w3.org/2000/svg" xmlns:xlink="http://www.w3.org/1999/xlink">

<svg id="main" version="1.1" xmlns="http://www.w3.org/2000/svg" xmlns:xlink="http://www.w3.org/1999/xlink" xml:space="preserve">

<style type="text/css"><![CDATA[
.node, .edge {opacity: 0.7;}
.node.selected, .edge.selected {opacity: 1;}
.edge:hover path { stroke: red; }
.edge:hover polygon { stroke: red; fill: red; }
]]></style>
<script type="application/ecmascript" xlink:href="svg.min.js"/>
<svg id="graph" class="graph">
<g id="graph0" class="graph" transform="scale(1 1) rotate(0) translate(4 200.25)">
<title>src/postprocessors/TotalNeutronLeakage.C</title>
<!-- Node1 -->
<g id="Node000001" class="node">
<title>Node1</title>
<g id="a_Node000001"><a xlink:title=" ">
<polygon fill="#999999" stroke="#666666" points="202,-196.25 80.25,-196.25 80.25,-165.75 202,-165.75 202,-196.25"/>
<text text-anchor="start" x="88.25" y="-182.75" font-family="Helvetica,sans-Serif" font-size="10.00">src/postprocessors</text>
<text text-anchor="middle" x="141.12" y="-171.5" font-family="Helvetica,sans-Serif" font-size="10.00">/TotalNeutronLeakage.C</text>
</a>
</g>
</g>
<!-- Node2 -->
<g id="Node000002" class="node">
<title>Node2</title>
<g id="a_Node000002"><a xlink:href="_total_neutron_leakage_8h.html" target="_top" xlink:title=" ">
<polygon fill="white" stroke="#666666" points="199.75,-129.75 82.5,-129.75 82.5,-110.5 199.75,-110.5 199.75,-129.75"/>
<text text-anchor="middle" x="141.12" y="-116.25" font-family="Helvetica,sans-Serif" font-size="10.00">TotalNeutronLeakage.h</text>
</a>
</g>
</g>
<!-- Node1&#45;&gt;Node2 -->
<g id="edge1_Node000001_Node000002" class="edge">
<title>Node1&#45;&gt;Node2</title>
<g id="a_edge1_Node000001_Node000002"><a xlink:title=" ">
<path fill="none" stroke="#63b8ff" d="M141.12,-165.45C141.12,-158.21 141.12,-149.34 141.12,-141.44"/>
<polygon fill="#63b8ff" stroke="#63b8ff" points="144.63,-141.71 141.13,-131.71 137.63,-141.71 144.63,-141.71"/>
</a>
</g>
</g>
<!-- Node3 -->
<g id="Node000003" class="node">
<title>Node3</title>
<g id="a_Node000003"><a xlink:title=" ">
<polygon fill="#e0e0e0" stroke="#999999" points="138.25,-74.5 0,-74.5 0,-55.25 138.25,-55.25 138.25,-74.5"/>
<text text-anchor="middle" x="69.12" y="-61" font-family="Helvetica,sans-Serif" font-size="10.00">SideIntegralPostprocessor.h</text>
</a>
</g>
</g>
<!-- Node2&#45;&gt;Node3 -->
<g id="edge2_Node000002_Node000003" class="edge">
<title>Node2&#45;&gt;Node3</title>
<g id="a_edge2_Node000002_Node000003"><a xlink:title=" ">
<path fill="none" stroke="#63b8ff" d="M128.91,-110.09C118.3,-102.24 102.69,-90.7 90.08,-81.37"/>
<polygon fill="#63b8ff" stroke="#63b8ff" points="92.5,-78.81 82.38,-75.67 88.33,-84.44 92.5,-78.81"/>
</a>
</g>
</g>
<!-- Node4 -->
<g id="Node000004" class="node">
<title>Node4</title>
<g id="a_Node000004"><a xlink:href="_scalar_transport_base_8h.html" target="_top" xlink:title=" ">
<polygon fill="white" stroke="#666666" points="271.62,-74.5 156.62,-74.5 156.62,-55.25 271.62,-55.25 271.62,-74.5"/>
<text text-anchor="middle" x="214.12" y="-61" font-family="Helvetica,sans-Serif" font-size="10.00">ScalarTransportBase.h</text>
</a>
</g>
</g>
<!-- Node2&#45;&gt;Node4 -->
<g id="edge3_Node000002_Node000004" class="edge">
<title>Node2&#45;&gt;Node4</title>
<g id="a_edge3_Node000002_Node000004"><a xlink:title=" ">
<path fill="none" stroke="#63b8ff" d="M153.51,-110.09C164.27,-102.24 180.1,-90.7 192.88,-81.37"/>
<polygon fill="#63b8ff" stroke="#63b8ff" points="194.69,-84.39 200.7,-75.67 190.56,-78.73 194.69,-84.39"/>
</a>
</g>
</g>
<!-- Node5 -->
<g id="Node000005" class="node">
<title>Node5</title>
<g id="a_Node000005"><a xlink:title=" ">
<polygon fill="#e0e0e0" stroke="#999999" points="200.88,-19.25 105.38,-19.25 105.38,0 200.88,0 200.88,-19.25"/>
<text text-anchor="middle" x="153.12" y="-5.75" font-family="Helvetica,sans-Serif" font-size="10.00">InputParameters.h</text>
</a>
</g>
</g>
<!-- Node4&#45;&gt;Node5 -->
<g id="edge4_Node000004_Node000005" class="edge">
<title>Node4&#45;&gt;Node5</title>
<g id="a_edge4_Node000004_Node000005"><a xlink:title=" ">
<path fill="none" stroke="#63b8ff" d="M203.78,-54.84C195.05,-47.22 182.34,-36.12 171.83,-26.95"/>
<polygon fill="#63b8ff" stroke="#63b8ff" points="174.3,-24.46 164.46,-20.52 169.69,-29.73 174.3,-24.46"/>
</a>
</g>
</g>
<!-- Node6 -->
<g id="Node000006" class="node">
<title>Node6</title>
<g id="a_Node000006"><a xlink:title=" ">
<polygon fill="#e0e0e0" stroke="#999999" points="329.38,-19.25 218.88,-19.25 218.88,0 329.38,0 329.38,-19.25"/>
<text text-anchor="middle" x="274.12" y="-5.75" font-family="Helvetica,sans-Serif" font-size="10.00">MooseVariableBase.h</text>
</a>
</g>
</g>
<!-- Node4&#45;&gt;Node6 -->
<g id="edge5_Node000004_Node000006" class="edge">
<title>Node4&#45;&gt;Node6</title>
<g id="a_edge5_Node000004_Node000006"><a xlink:title=" ">
<path fill="none" stroke="#63b8ff" d="M224.3,-54.84C232.89,-47.22 245.39,-36.12 255.73,-26.95"/>
<polygon fill="#63b8ff" stroke="#63b8ff" points="257.81,-29.79 262.97,-20.53 253.16,-24.55 257.81,-29.79"/>
</a>
</g>
</g>
</g>
</svg>
</svg>

<style type='text/css'>
<![CDATA[
[data-mouse-over-selected='false'] { opacity: 0.7; }
[data-mouse-over-selected='true']  { opacity: 1.0; }
]]>
</style>
<script type="application/ecmascript"><![CDATA[
document.addEventListener('DOMContentLoaded', (event) => {
  highlightEdges();
  highlightAdjacentNodes();
});
]]></script>
</svg>
