<?xml version="1.0" encoding="UTF-8" standalone="no"?>
<!DOCTYPE svg PUBLIC "-//W3C//DTD SVG 1.1//EN"
 "http://www.w3.org/Graphics/SVG/1.1/DTD/svg11.dtd">
<!-- Generated by graphviz version 9.0.0 (20230911.1827)
 -->
<!-- Title: src/bcs/VacuumConcBC.C Pages: 1 -->
<svg width="280pt" height="193pt"
 viewBox="0.00 0.00 279.50 193.00" xmlns="http://www.w3.org/2000/svg" xmlns:xlink="http://www.w3.org/1999/xlink">
<g id="graph0" class="graph" transform="scale(1 1) rotate(0) translate(4 189)">
<title>src/bcs/VacuumConcBC.C</title>
<!-- Node1 -->
<g id="Node000001" class="node">
<title>Node1</title>
<g id="a_Node000001"><a xlink:title=" ">
<polygon fill="#999999" stroke="#666666" points="164.38,-185 32.12,-185 32.12,-165.75 164.38,-165.75 164.38,-185"/>
<text text-anchor="middle" x="98.25" y="-171.5" font-family="Helvetica,sans-Serif" font-size="10.00">src/bcs/VacuumConcBC.C</text>
</a>
</g>
</g>
<!-- Node2 -->
<g id="Node000002" class="node">
<title>Node2</title>
<g id="a_Node000002"><a xlink:href="_vacuum_conc_b_c_8h.html" target="_top" xlink:title=" ">
<polygon fill="white" stroke="#666666" points="146,-129.75 50.5,-129.75 50.5,-110.5 146,-110.5 146,-129.75"/>
<text text-anchor="middle" x="98.25" y="-116.25" font-family="Helvetica,sans-Serif" font-size="10.00">VacuumConcBC.h</text>
</a>
</g>
</g>
<!-- Node1&#45;&gt;Node2 -->
<g id="edge1_Node000001_Node000002" class="edge">
<title>Node1&#45;&gt;Node2</title>
<g id="a_edge1_Node000001_Node000002"><a xlink:title=" ">
<path fill="none" stroke="#63b8ff" d="M98.25,-165.58C98.25,-159.07 98.25,-149.92 98.25,-141.62"/>
<polygon fill="#63b8ff" stroke="#63b8ff" points="101.75,-141.62 98.25,-131.62 94.75,-141.62 101.75,-141.62"/>
</a>
</g>
</g>
<!-- Node3 -->
<g id="Node000003" class="node">
<title>Node3</title>
<g id="a_Node000003"><a xlink:title=" ">
<polygon fill="#e0e0e0" stroke="#999999" points="80.5,-74.5 0,-74.5 0,-55.25 80.5,-55.25 80.5,-74.5"/>
<text text-anchor="middle" x="40.25" y="-61" font-family="Helvetica,sans-Serif" font-size="10.00">IntegratedBC.h</text>
</a>
</g>
</g>
<!-- Node2&#45;&gt;Node3 -->
<g id="edge2_Node000002_Node000003" class="edge">
<title>Node2&#45;&gt;Node3</title>
<g id="a_edge2_Node000002_Node000003"><a xlink:title=" ">
<path fill="none" stroke="#63b8ff" d="M88.41,-110.09C80.2,-102.55 68.27,-91.6 58.34,-82.48"/>
<polygon fill="#63b8ff" stroke="#63b8ff" points="60.79,-79.98 51.06,-75.8 56.06,-85.14 60.79,-79.98"/>
</a>
</g>
</g>
<!-- Node4 -->
<g id="Node000004" class="node">
<title>Node4</title>
<g id="a_Node000004"><a xlink:href="_scalar_transport_base_8h.html" target="_top" xlink:title=" ">
<polygon fill="white" stroke="#666666" points="213.75,-74.5 98.75,-74.5 98.75,-55.25 213.75,-55.25 213.75,-74.5"/>
<text text-anchor="middle" x="156.25" y="-61" font-family="Helvetica,sans-Serif" font-size="10.00">ScalarTransportBase.h</text>
</a>
</g>
</g>
<!-- Node2&#45;&gt;Node4 -->
<g id="edge3_Node000002_Node000004" class="edge">
<title>Node2&#45;&gt;Node4</title>
<g id="a_edge3_Node000002_Node000004"><a xlink:title=" ">
<path fill="none" stroke="#63b8ff" d="M108.09,-110.09C116.3,-102.55 128.23,-91.6 138.16,-82.48"/>
<polygon fill="#63b8ff" stroke="#63b8ff" points="140.44,-85.14 145.44,-75.8 135.71,-79.98 140.44,-85.14"/>
</a>
</g>
</g>
<!-- Node5 -->
<g id="Node000005" class="node">
<title>Node5</title>
<g id="a_Node000005"><a xlink:title=" ">
<polygon fill="#e0e0e0" stroke="#999999" points="143,-19.25 47.5,-19.25 47.5,0 143,0 143,-19.25"/>
<text text-anchor="middle" x="95.25" y="-5.75" font-family="Helvetica,sans-Serif" font-size="10.00">InputParameters.h</text>
</a>
</g>
</g>
<!-- Node4&#45;&gt;Node5 -->
<g id="edge4_Node000004_Node000005" class="edge">
<title>Node4&#45;&gt;Node5</title>
<g id="a_edge4_Node000004_Node000005"><a xlink:title=" ">
<path fill="none" stroke="#63b8ff" d="M145.9,-54.84C137.17,-47.22 124.46,-36.12 113.95,-26.95"/>
<polygon fill="#63b8ff" stroke="#63b8ff" points="116.42,-24.46 106.59,-20.52 111.82,-29.73 116.42,-24.46"/>
</a>
</g>
</g>
<!-- Node6 -->
<g id="Node000006" class="node">
<title>Node6</title>
<g id="a_Node000006"><a xlink:title=" ">
<polygon fill="#e0e0e0" stroke="#999999" points="271.5,-19.25 161,-19.25 161,0 271.5,0 271.5,-19.25"/>
<text text-anchor="middle" x="216.25" y="-5.75" font-family="Helvetica,sans-Serif" font-size="10.00">MooseVariableBase.h</text>
</a>
</g>
</g>
<!-- Node4&#45;&gt;Node6 -->
<g id="edge5_Node000004_Node000006" class="edge">
<title>Node4&#45;&gt;Node6</title>
<g id="a_edge5_Node000004_Node000006"><a xlink:title=" ">
<path fill="none" stroke="#63b8ff" d="M166.43,-54.84C175.01,-47.22 187.52,-36.12 197.85,-26.95"/>
<polygon fill="#63b8ff" stroke="#63b8ff" points="199.93,-29.79 205.09,-20.53 195.29,-24.55 199.93,-29.79"/>
</a>
</g>
</g>
</g>
</svg>
