<?xml version="1.0" encoding="UTF-8" standalone="no"?>
<!DOCTYPE svg PUBLIC "-//W3C//DTD SVG 1.1//EN"
 "http://www.w3.org/Graphics/SVG/1.1/DTD/svg11.dtd">
<!-- Generated by graphviz version 12.2.0 (20241103.1931)
 -->
<!-- Title: src/auxkernels/VacuumCoefAux.C Pages: 1 -->
<svg width="367pt" height="149pt"
 viewBox="0.00 0.00 366.88 149.00" xmlns="http://www.w3.org/2000/svg" xmlns:xlink="http://www.w3.org/1999/xlink">
<g id="graph0" class="graph" transform="scale(1 1) rotate(0) translate(4 145)">
<title>src/auxkernels/VacuumCoefAux.C</title>
<!-- Node1 -->
<g id="Node000001" class="node">
<title>Node1</title>
<g id="a_Node000001"><a xlink:title=" ">
<polygon fill="#999999" stroke="#666666" points="216.25,-141 78,-141 78,-110.5 216.25,-110.5 216.25,-141"/>
<text text-anchor="start" x="86" y="-127.5" font-family="Helvetica,sans-Serif" font-size="10.00">src/auxkernels/VacuumCoef</text>
<text text-anchor="middle" x="147.12" y="-116.25" font-family="Helvetica,sans-Serif" font-size="10.00">Aux.C</text>
</a>
</g>
</g>
<!-- Node2 -->
<g id="Node000002" class="node">
<title>Node2</title>
<g id="a_Node000002"><a xlink:href="_vacuum_coef_aux_8h.html" target="_top" xlink:title=" ">
<polygon fill="white" stroke="#666666" points="96.25,-74.5 0,-74.5 0,-55.25 96.25,-55.25 96.25,-74.5"/>
<text text-anchor="middle" x="48.12" y="-61" font-family="Helvetica,sans-Serif" font-size="10.00">VacuumCoefAux.h</text>
</a>
</g>
</g>
<!-- Node1&#45;&gt;Node2 -->
<g id="edge1_Node000001_Node000002" class="edge">
<title>Node1&#45;&gt;Node2</title>
<g id="a_edge1_Node000001_Node000002"><a xlink:title=" ">
<path fill="none" stroke="#63b8ff" d="M122.4,-110.05C107.32,-101.08 88.11,-89.66 73.01,-80.67"/>
<polygon fill="#63b8ff" stroke="#63b8ff" points="74.99,-77.78 64.61,-75.68 71.41,-83.8 74.99,-77.78"/>
</a>
</g>
</g>
<!-- Node4 -->
<g id="Node000004" class="node">
<title>Node4</title>
<g id="a_Node000004"><a xlink:title=" ">
<polygon fill="#e0e0e0" stroke="#999999" points="180.25,-74.5 114,-74.5 114,-55.25 180.25,-55.25 180.25,-74.5"/>
<text text-anchor="middle" x="147.12" y="-61" font-family="Helvetica,sans-Serif" font-size="10.00">Assembly.h</text>
</a>
</g>
</g>
<!-- Node1&#45;&gt;Node4 -->
<g id="edge3_Node000001_Node000004" class="edge">
<title>Node1&#45;&gt;Node4</title>
<g id="a_edge3_Node000001_Node000004"><a xlink:title=" ">
<path fill="none" stroke="#63b8ff" d="M147.12,-110.2C147.12,-102.96 147.12,-94.09 147.12,-86.19"/>
<polygon fill="#63b8ff" stroke="#63b8ff" points="150.63,-86.46 147.13,-76.46 143.63,-86.46 150.63,-86.46"/>
</a>
</g>
</g>
<!-- Node5 -->
<g id="Node000005" class="node">
<title>Node5</title>
<g id="a_Node000005"><a xlink:href="_moltres_utils_8h.html" target="_top" xlink:title=" ">
<polygon fill="white" stroke="#666666" points="274.12,-74.5 198.12,-74.5 198.12,-55.25 274.12,-55.25 274.12,-74.5"/>
<text text-anchor="middle" x="236.12" y="-61" font-family="Helvetica,sans-Serif" font-size="10.00">MoltresUtils.h</text>
</a>
</g>
</g>
<!-- Node1&#45;&gt;Node5 -->
<g id="edge4_Node000001_Node000005" class="edge">
<title>Node1&#45;&gt;Node5</title>
<g id="a_edge4_Node000001_Node000005"><a xlink:title=" ">
<path fill="none" stroke="#63b8ff" d="M169.13,-110.2C182.42,-101.4 199.34,-90.21 212.85,-81.27"/>
<polygon fill="#63b8ff" stroke="#63b8ff" points="214.73,-84.22 221.14,-75.79 210.87,-78.38 214.73,-84.22"/>
</a>
</g>
</g>
<!-- Node3 -->
<g id="Node000003" class="node">
<title>Node3</title>
<g id="a_Node000003"><a xlink:title=" ">
<polygon fill="#e0e0e0" stroke="#999999" points="82,-19.25 14.25,-19.25 14.25,0 82,0 82,-19.25"/>
<text text-anchor="middle" x="48.12" y="-5.75" font-family="Helvetica,sans-Serif" font-size="10.00">AuxKernel.h</text>
</a>
</g>
</g>
<!-- Node2&#45;&gt;Node3 -->
<g id="edge2_Node000002_Node000003" class="edge">
<title>Node2&#45;&gt;Node3</title>
<g id="a_edge2_Node000002_Node000003"><a xlink:title=" ">
<path fill="none" stroke="#63b8ff" d="M48.12,-55.08C48.12,-48.57 48.12,-39.42 48.12,-31.12"/>
<polygon fill="#63b8ff" stroke="#63b8ff" points="51.63,-31.12 48.13,-21.12 44.63,-31.12 51.63,-31.12"/>
</a>
</g>
</g>
<!-- Node6 -->
<g id="Node000006" class="node">
<title>Node6</title>
<g id="a_Node000006"><a xlink:title=" ">
<polygon fill="#e0e0e0" stroke="#999999" points="178.5,-19.25 125.75,-19.25 125.75,0 178.5,0 178.5,-19.25"/>
<text text-anchor="middle" x="152.12" y="-5.75" font-family="Helvetica,sans-Serif" font-size="10.00">Moose.h</text>
</a>
</g>
</g>
<!-- Node5&#45;&gt;Node6 -->
<g id="edge5_Node000005_Node000006" class="edge">
<title>Node5&#45;&gt;Node6</title>
<g id="a_edge5_Node000005_Node000006"><a xlink:title=" ">
<path fill="none" stroke="#63b8ff" d="M221.88,-54.84C209.33,-46.89 190.79,-35.14 175.98,-25.75"/>
<polygon fill="#63b8ff" stroke="#63b8ff" points="178.04,-22.91 167.72,-20.51 174.29,-28.82 178.04,-22.91"/>
</a>
</g>
</g>
<!-- Node7 -->
<g id="Node000007" class="node">
<title>Node7</title>
<g id="a_Node000007"><a xlink:title=" ">
<polygon fill="#e0e0e0" stroke="#999999" points="275.62,-19.25 196.62,-19.25 196.62,0 275.62,0 275.62,-19.25"/>
<text text-anchor="middle" x="236.12" y="-5.75" font-family="Helvetica,sans-Serif" font-size="10.00">MooseTypes.h</text>
</a>
</g>
</g>
<!-- Node5&#45;&gt;Node7 -->
<g id="edge6_Node000005_Node000007" class="edge">
<title>Node5&#45;&gt;Node7</title>
<g id="a_edge6_Node000005_Node000007"><a xlink:title=" ">
<path fill="none" stroke="#63b8ff" d="M236.12,-55.08C236.12,-48.57 236.12,-39.42 236.12,-31.12"/>
<polygon fill="#63b8ff" stroke="#63b8ff" points="239.63,-31.12 236.13,-21.12 232.63,-31.12 239.63,-31.12"/>
</a>
</g>
</g>
<!-- Node8 -->
<g id="Node000008" class="node">
<title>Node8</title>
<g id="a_Node000008"><a xlink:title=" ">
<polygon fill="#e0e0e0" stroke="#999999" points="358.88,-19.25 293.38,-19.25 293.38,0 358.88,0 358.88,-19.25"/>
<text text-anchor="middle" x="326.12" y="-5.75" font-family="Helvetica,sans-Serif" font-size="10.00">MathUtils.h</text>
</a>
</g>
</g>
<!-- Node5&#45;&gt;Node8 -->
<g id="edge7_Node000005_Node000008" class="edge">
<title>Node5&#45;&gt;Node8</title>
<g id="a_edge7_Node000005_Node000008"><a xlink:title=" ">
<path fill="none" stroke="#63b8ff" d="M251.39,-54.84C264.97,-46.81 285.08,-34.91 301.02,-25.48"/>
<polygon fill="#63b8ff" stroke="#63b8ff" points="302.66,-28.58 309.48,-20.47 299.09,-22.55 302.66,-28.58"/>
</a>
</g>
</g>
</g>
</svg>
