<?xml version="1.0" encoding="UTF-8" standalone="no"?>
<!DOCTYPE svg PUBLIC "-//W3C//DTD SVG 1.1//EN"
 "http://www.w3.org/Graphics/SVG/1.1/DTD/svg11.dtd">
<!-- Generated by graphviz version 7.0.4 (20221203.1631)
 -->
<!-- Title: include/actions/VariableNotAMooseObjectAction.h Pages: 1 -->
<svg width="457pt" height="159pt"
 viewBox="0.00 0.00 457.00 159.00" xmlns="http://www.w3.org/2000/svg" xmlns:xlink="http://www.w3.org/1999/xlink">
<g id="graph0" class="graph" transform="scale(1 1) rotate(0) translate(4 155)">
<title>include/actions/VariableNotAMooseObjectAction.h</title>
<!-- Node1 -->
<g id="node1" class="node">
<title>Node1</title>
<g id="a_node1"><a xlink:title=" ">
<polygon fill="#999999" stroke="#666666" points="278.5,-151 146.5,-151 146.5,-121 278.5,-121 278.5,-151"/>
<text text-anchor="start" x="154.5" y="-139" font-family="Helvetica,sans-Serif" font-size="10.00">include/actions/Variable</text>
<text text-anchor="middle" x="212.5" y="-128" font-family="Helvetica,sans-Serif" font-size="10.00">NotAMooseObjectAction.h</text>
</a>
</g>
</g>
<!-- Node2 -->
<g id="node2" class="node">
<title>Node2</title>
<g id="a_node2"><a xlink:href="_nt_action_8h.html" target="_top" xlink:title=" ">
<polygon fill="white" stroke="#666666" points="131,-79.5 0,-79.5 0,-60.5 131,-60.5 131,-79.5"/>
<text text-anchor="middle" x="65.5" y="-67.5" font-family="Helvetica,sans-Serif" font-size="10.00">include/actions/NtAction.h</text>
</a>
</g>
</g>
<!-- Node1&#45;&gt;Node2 -->
<g id="edge1" class="edge">
<title>Node1&#45;&gt;Node2</title>
<path fill="none" stroke="#63b8ff" d="M169.01,-116.06C141.63,-104.14 107.54,-89.3 86.14,-79.99"/>
<polygon fill="#63b8ff" stroke="#63b8ff" points="167.56,-119.25 178.12,-120.03 170.35,-112.83 167.56,-119.25"/>
</g>
<!-- Node4 -->
<g id="node4" class="node">
<title>Node4</title>
<g id="a_node4"><a xlink:href="_precursor_action_8h.html" target="_top" xlink:title=" ">
<polygon fill="white" stroke="#666666" points="276,-85 149,-85 149,-55 276,-55 276,-85"/>
<text text-anchor="start" x="157" y="-73" font-family="Helvetica,sans-Serif" font-size="10.00">include/actions/Precursor</text>
<text text-anchor="middle" x="212.5" y="-62" font-family="Helvetica,sans-Serif" font-size="10.00">Action.h</text>
</a>
</g>
</g>
<!-- Node1&#45;&gt;Node4 -->
<g id="edge3" class="edge">
<title>Node1&#45;&gt;Node4</title>
<path fill="none" stroke="#63b8ff" d="M212.5,-109.39C212.5,-101.13 212.5,-92.28 212.5,-85.16"/>
<polygon fill="#63b8ff" stroke="#63b8ff" points="209,-109.28 212.5,-119.28 216,-109.28 209,-109.28"/>
</g>
<!-- Node6 -->
<g id="node6" class="node">
<title>Node6</title>
<g id="a_node6"><a xlink:href="_variable_not_a_moose_object_action_8_c.html" target="_top" xlink:title=" ">
<polygon fill="white" stroke="#666666" points="449,-85 294,-85 294,-55 449,-55 449,-85"/>
<text text-anchor="start" x="302" y="-73" font-family="Helvetica,sans-Serif" font-size="10.00">src/actions/VariableNotAMoose</text>
<text text-anchor="middle" x="371.5" y="-62" font-family="Helvetica,sans-Serif" font-size="10.00">ObjectAction.C</text>
</a>
</g>
</g>
<!-- Node1&#45;&gt;Node6 -->
<g id="edge5" class="edge">
<title>Node1&#45;&gt;Node6</title>
<path fill="none" stroke="#63b8ff" d="M258.69,-116.41C283.21,-106.54 312.9,-94.59 335.66,-85.43"/>
<polygon fill="#63b8ff" stroke="#63b8ff" points="257.56,-113.09 249.59,-120.07 260.17,-119.58 257.56,-113.09"/>
</g>
<!-- Node3 -->
<g id="node3" class="node">
<title>Node3</title>
<g id="a_node3"><a xlink:href="_nt_action_8_c.html" target="_top" xlink:title=" ">
<polygon fill="white" stroke="#666666" points="122,-19 7,-19 7,0 122,0 122,-19"/>
<text text-anchor="middle" x="64.5" y="-7" font-family="Helvetica,sans-Serif" font-size="10.00">src/actions/NtAction.C</text>
</a>
</g>
</g>
<!-- Node2&#45;&gt;Node3 -->
<g id="edge2" class="edge">
<title>Node2&#45;&gt;Node3</title>
<path fill="none" stroke="#63b8ff" d="M65.16,-49.16C64.99,-38.95 64.78,-27.04 64.65,-19.17"/>
<polygon fill="#63b8ff" stroke="#63b8ff" points="61.66,-48.92 65.33,-58.85 68.66,-48.8 61.66,-48.92"/>
</g>
<!-- Node5 -->
<g id="node5" class="node">
<title>Node5</title>
<g id="a_node5"><a xlink:href="_precursor_action_8_c.html" target="_top" xlink:title=" ">
<polygon fill="white" stroke="#666666" points="286.5,-19 140.5,-19 140.5,0 286.5,0 286.5,-19"/>
<text text-anchor="middle" x="213.5" y="-7" font-family="Helvetica,sans-Serif" font-size="10.00">src/actions/PrecursorAction.C</text>
</a>
</g>
</g>
<!-- Node4&#45;&gt;Node5 -->
<g id="edge4" class="edge">
<title>Node4&#45;&gt;Node5</title>
<path fill="none" stroke="#63b8ff" d="M212.94,-43.3C213.09,-34.65 213.24,-25.58 213.35,-19.18"/>
<polygon fill="#63b8ff" stroke="#63b8ff" points="209.44,-42.97 212.77,-53.03 216.44,-43.09 209.44,-42.97"/>
</g>
</g>
</svg>
