<?xml version="1.0" encoding="UTF-8" standalone="no"?>
<!DOCTYPE svg PUBLIC "-//W3C//DTD SVG 1.1//EN"
 "http://www.w3.org/Graphics/SVG/1.1/DTD/svg11.dtd">
<!-- Generated by graphviz version 12.2.0 (20241103.1931)
 -->
<!-- Title: include/actions/VariableNotAMooseObjectAction.h Pages: 1 -->
<svg width="455pt" height="160pt"
 viewBox="0.00 0.00 455.00 160.25" xmlns="http://www.w3.org/2000/svg" xmlns:xlink="http://www.w3.org/1999/xlink">
<g id="graph0" class="graph" transform="scale(1 1) rotate(0) translate(4 156.25)">
<title>include/actions/VariableNotAMooseObjectAction.h</title>
<!-- Node1 -->
<g id="Node000001" class="node">
<title>Node1</title>
<g id="a_Node000001"><a xlink:title=" ">
<polygon fill="#999999" stroke="#666666" points="277.75,-152.25 146.25,-152.25 146.25,-121.75 277.75,-121.75 277.75,-152.25"/>
<text text-anchor="start" x="154.25" y="-138.75" font-family="Helvetica,sans-Serif" font-size="10.00">include/actions/Variable</text>
<text text-anchor="middle" x="212" y="-127.5" font-family="Helvetica,sans-Serif" font-size="10.00">NotAMooseObjectAction.h</text>
</a>
</g>
</g>
<!-- Node2 -->
<g id="Node000002" class="node">
<title>Node2</title>
<g id="a_Node000002"><a xlink:href="_nt_action_8h.html" target="_top" xlink:title=" ">
<polygon fill="white" stroke="#666666" points="130,-80.12 0,-80.12 0,-60.88 130,-60.88 130,-80.12"/>
<text text-anchor="middle" x="65" y="-66.62" font-family="Helvetica,sans-Serif" font-size="10.00">include/actions/NtAction.h</text>
</a>
</g>
</g>
<!-- Node1&#45;&gt;Node2 -->
<g id="edge1_Node000001_Node000002" class="edge">
<title>Node1&#45;&gt;Node2</title>
<g id="a_edge1_Node000001_Node000002"><a xlink:title=" ">
<path fill="none" stroke="#63b8ff" d="M168.14,-116.76C140.78,-104.75 106.83,-89.85 85.53,-80.51"/>
<polygon fill="#63b8ff" stroke="#63b8ff" points="166.69,-119.94 177.26,-120.76 169.51,-113.53 166.69,-119.94"/>
</a>
</g>
</g>
<!-- Node4 -->
<g id="Node000004" class="node">
<title>Node4</title>
<g id="a_Node000004"><a xlink:href="_precursor_action_8h.html" target="_top" xlink:title=" ">
<polygon fill="white" stroke="#666666" points="275.12,-85.75 148.88,-85.75 148.88,-55.25 275.12,-55.25 275.12,-85.75"/>
<text text-anchor="start" x="156.88" y="-72.25" font-family="Helvetica,sans-Serif" font-size="10.00">include/actions/Precursor</text>
<text text-anchor="middle" x="212" y="-61" font-family="Helvetica,sans-Serif" font-size="10.00">Action.h</text>
</a>
</g>
</g>
<!-- Node1&#45;&gt;Node4 -->
<g id="edge3_Node000001_Node000004" class="edge">
<title>Node1&#45;&gt;Node4</title>
<g id="a_edge3_Node000001_Node000004"><a xlink:title=" ">
<path fill="none" stroke="#63b8ff" d="M212,-110.06C212,-101.89 212,-93.16 212,-86.08"/>
<polygon fill="#63b8ff" stroke="#63b8ff" points="208.5,-109.85 212,-119.85 215.5,-109.85 208.5,-109.85"/>
</a>
</g>
</g>
<!-- Node6 -->
<g id="Node000006" class="node">
<title>Node6</title>
<g id="a_Node000006"><a xlink:href="_variable_not_a_moose_object_action_8_c.html" target="_top" xlink:title=" ">
<polygon fill="white" stroke="#666666" points="447,-85.75 293,-85.75 293,-55.25 447,-55.25 447,-85.75"/>
<text text-anchor="start" x="301" y="-72.25" font-family="Helvetica,sans-Serif" font-size="10.00">src/actions/VariableNotAMoose</text>
<text text-anchor="middle" x="370" y="-61" font-family="Helvetica,sans-Serif" font-size="10.00">ObjectAction.C</text>
</a>
</g>
</g>
<!-- Node1&#45;&gt;Node6 -->
<g id="edge5_Node000001_Node000006" class="edge">
<title>Node1&#45;&gt;Node6</title>
<g id="a_edge5_Node000001_Node000006"><a xlink:title=" ">
<path fill="none" stroke="#63b8ff" d="M258.22,-117.13C282.39,-107.26 311.54,-95.36 334.02,-86.19"/>
<polygon fill="#63b8ff" stroke="#63b8ff" points="257.19,-113.77 249.25,-120.79 259.84,-120.25 257.19,-113.77"/>
</a>
</g>
</g>
<!-- Node3 -->
<g id="Node000003" class="node">
<title>Node3</title>
<g id="a_Node000003"><a xlink:href="_nt_action_8_c.html" target="_top" xlink:title=" ">
<polygon fill="white" stroke="#666666" points="122.12,-19.25 7.87,-19.25 7.87,0 122.12,0 122.12,-19.25"/>
<text text-anchor="middle" x="65" y="-5.75" font-family="Helvetica,sans-Serif" font-size="10.00">src/actions/NtAction.C</text>
</a>
</g>
</g>
<!-- Node2&#45;&gt;Node3 -->
<g id="edge2_Node000002_Node000003" class="edge">
<title>Node2&#45;&gt;Node3</title>
<g id="a_edge2_Node000002_Node000003"><a xlink:title=" ">
<path fill="none" stroke="#63b8ff" d="M65,-49.07C65,-39.04 65,-27.46 65,-19.65"/>
<polygon fill="#63b8ff" stroke="#63b8ff" points="61.5,-49.04 65,-59.04 68.5,-49.04 61.5,-49.04"/>
</a>
</g>
</g>
<!-- Node5 -->
<g id="Node000005" class="node">
<title>Node5</title>
<g id="a_Node000005"><a xlink:href="_precursor_action_8_c.html" target="_top" xlink:title=" ">
<polygon fill="white" stroke="#666666" points="285.88,-19.25 140.12,-19.25 140.12,0 285.88,0 285.88,-19.25"/>
<text text-anchor="middle" x="213" y="-5.75" font-family="Helvetica,sans-Serif" font-size="10.00">src/actions/PrecursorAction.C</text>
</a>
</g>
</g>
<!-- Node4&#45;&gt;Node5 -->
<g id="edge4_Node000004_Node000005" class="edge">
<title>Node4&#45;&gt;Node5</title>
<g id="a_edge4_Node000004_Node000005"><a xlink:title=" ">
<path fill="none" stroke="#63b8ff" d="M212.44,-43.48C212.59,-34.98 212.74,-26.09 212.85,-19.7"/>
<polygon fill="#63b8ff" stroke="#63b8ff" points="208.94,-43.38 212.27,-53.43 215.94,-43.49 208.94,-43.38"/>
</a>
</g>
</g>
</g>
</svg>
