<?xml version="1.0" encoding="UTF-8" standalone="no"?>
<!DOCTYPE svg PUBLIC "-//W3C//DTD SVG 1.1//EN"
 "http://www.w3.org/Graphics/SVG/1.1/DTD/svg11.dtd">
<!-- Generated by graphviz version 9.0.0 (20230911.1827)
 -->
<!-- Title: src/actions/VariableNotAMooseObjectAction.C Pages: 1 -->
<svg width="663pt" height="149pt"
 viewBox="0.00 0.00 663.25 149.00" xmlns="http://www.w3.org/2000/svg" xmlns:xlink="http://www.w3.org/1999/xlink">
<g id="graph0" class="graph" transform="scale(1 1) rotate(0) translate(4 145)">
<title>src/actions/VariableNotAMooseObjectAction.C</title>
<!-- Node1 -->
<g id="Node000001" class="node">
<title>Node1</title>
<g id="a_Node000001"><a xlink:title=" ">
<polygon fill="#999999" stroke="#666666" points="430.38,-141 276.38,-141 276.38,-110.5 430.38,-110.5 430.38,-141"/>
<text text-anchor="start" x="284.38" y="-127.5" font-family="Helvetica,sans-Serif" font-size="10.00">src/actions/VariableNotAMoose</text>
<text text-anchor="middle" x="353.38" y="-116.25" font-family="Helvetica,sans-Serif" font-size="10.00">ObjectAction.C</text>
</a>
</g>
</g>
<!-- Node2 -->
<g id="Node000002" class="node">
<title>Node2</title>
<g id="a_Node000002"><a xlink:href="_variable_not_a_moose_object_action_8h.html" target="_top" xlink:title=" ">
<polygon fill="white" stroke="#666666" points="166.75,-74.5 0,-74.5 0,-55.25 166.75,-55.25 166.75,-74.5"/>
<text text-anchor="middle" x="83.38" y="-61" font-family="Helvetica,sans-Serif" font-size="10.00">VariableNotAMooseObjectAction.h</text>
</a>
</g>
</g>
<!-- Node1&#45;&gt;Node2 -->
<g id="edge1_Node000001_Node000002" class="edge">
<title>Node1&#45;&gt;Node2</title>
<g id="a_edge1_Node000001_Node000002"><a xlink:title=" ">
<path fill="none" stroke="#63b8ff" d="M285.94,-110.05C239.63,-99.95 179.02,-86.73 136.21,-77.4"/>
<polygon fill="#63b8ff" stroke="#63b8ff" points="137.17,-74.02 126.66,-75.31 135.68,-80.86 137.17,-74.02"/>
</a>
</g>
</g>
<!-- Node4 -->
<g id="Node000004" class="node">
<title>Node4</title>
<g id="a_Node000004"><a xlink:title=" ">
<polygon fill="#e0e0e0" stroke="#999999" points="288.25,-74.5 184.5,-74.5 184.5,-55.25 288.25,-55.25 288.25,-74.5"/>
<text text-anchor="middle" x="236.38" y="-61" font-family="Helvetica,sans-Serif" font-size="10.00">AddVariableAction.h</text>
</a>
</g>
</g>
<!-- Node1&#45;&gt;Node4 -->
<g id="edge3_Node000001_Node000004" class="edge">
<title>Node1&#45;&gt;Node4</title>
<g id="a_edge3_Node000001_Node000004"><a xlink:title=" ">
<path fill="none" stroke="#63b8ff" d="M324.15,-110.05C305.91,-100.86 282.54,-89.11 264.5,-80.03"/>
<polygon fill="#63b8ff" stroke="#63b8ff" points="266.18,-76.95 255.67,-75.58 263.03,-83.21 266.18,-76.95"/>
</a>
</g>
</g>
<!-- Node5 -->
<g id="Node000005" class="node">
<title>Node5</title>
<g id="a_Node000005"><a xlink:title=" ">
<polygon fill="#e0e0e0" stroke="#999999" points="400.38,-74.5 306.38,-74.5 306.38,-55.25 400.38,-55.25 400.38,-74.5"/>
<text text-anchor="middle" x="353.38" y="-61" font-family="Helvetica,sans-Serif" font-size="10.00">FEProblemBase.h</text>
</a>
</g>
</g>
<!-- Node1&#45;&gt;Node5 -->
<g id="edge4_Node000001_Node000005" class="edge">
<title>Node1&#45;&gt;Node5</title>
<g id="a_edge4_Node000001_Node000005"><a xlink:title=" ">
<path fill="none" stroke="#63b8ff" d="M353.38,-110.2C353.38,-102.96 353.38,-94.09 353.38,-86.19"/>
<polygon fill="#63b8ff" stroke="#63b8ff" points="356.88,-86.46 353.38,-76.46 349.88,-86.46 356.88,-86.46"/>
</a>
</g>
</g>
<!-- Node6 -->
<g id="Node000006" class="node">
<title>Node6</title>
<g id="a_Node000006"><a xlink:title=" ">
<polygon fill="#e0e0e0" stroke="#999999" points="545.88,-74.5 418.88,-74.5 418.88,-55.25 545.88,-55.25 545.88,-74.5"/>
<text text-anchor="middle" x="482.38" y="-61" font-family="Helvetica,sans-Serif" font-size="10.00">libmesh/string_to_enum.h</text>
</a>
</g>
</g>
<!-- Node1&#45;&gt;Node6 -->
<g id="edge5_Node000001_Node000006" class="edge">
<title>Node1&#45;&gt;Node6</title>
<g id="a_edge5_Node000001_Node000006"><a xlink:title=" ">
<path fill="none" stroke="#63b8ff" d="M385.59,-110.05C406,-100.73 432.2,-88.77 452.2,-79.65"/>
<polygon fill="#63b8ff" stroke="#63b8ff" points="453.57,-82.87 461.21,-75.53 450.66,-76.5 453.57,-82.87"/>
</a>
</g>
</g>
<!-- Node7 -->
<g id="Node000007" class="node">
<title>Node7</title>
<g id="a_Node000007"><a xlink:title=" ">
<polygon fill="#e0e0e0" stroke="#999999" points="655.25,-74.5 563.5,-74.5 563.5,-55.25 655.25,-55.25 655.25,-74.5"/>
<text text-anchor="middle" x="609.38" y="-61" font-family="Helvetica,sans-Serif" font-size="10.00">libmesh/fe_type.h</text>
</a>
</g>
</g>
<!-- Node1&#45;&gt;Node7 -->
<g id="edge6_Node000001_Node000007" class="edge">
<title>Node1&#45;&gt;Node7</title>
<g id="a_edge6_Node000001_Node000007"><a xlink:title=" ">
<path fill="none" stroke="#63b8ff" d="M417.31,-110.05C461.04,-99.99 518.2,-86.84 558.76,-77.51"/>
<polygon fill="#63b8ff" stroke="#63b8ff" points="559.3,-80.98 568.26,-75.33 557.73,-74.16 559.3,-80.98"/>
</a>
</g>
</g>
<!-- Node3 -->
<g id="Node000003" class="node">
<title>Node3</title>
<g id="a_Node000003"><a xlink:title=" ">
<polygon fill="#e0e0e0" stroke="#999999" points="109,-19.25 57.75,-19.25 57.75,0 109,0 109,-19.25"/>
<text text-anchor="middle" x="83.38" y="-5.75" font-family="Helvetica,sans-Serif" font-size="10.00">Action.h</text>
</a>
</g>
</g>
<!-- Node2&#45;&gt;Node3 -->
<g id="edge2_Node000002_Node000003" class="edge">
<title>Node2&#45;&gt;Node3</title>
<g id="a_edge2_Node000002_Node000003"><a xlink:title=" ">
<path fill="none" stroke="#63b8ff" d="M83.38,-55.08C83.38,-48.57 83.38,-39.42 83.38,-31.12"/>
<polygon fill="#63b8ff" stroke="#63b8ff" points="86.88,-31.12 83.38,-21.12 79.88,-31.12 86.88,-31.12"/>
</a>
</g>
</g>
</g>
</svg>
