<?xml version="1.0" encoding="UTF-8" standalone="no"?>
<!DOCTYPE svg PUBLIC "-//W3C//DTD SVG 1.1//EN"
 "http://www.w3.org/Graphics/SVG/1.1/DTD/svg11.dtd">
<!-- Generated by graphviz version 2.49.3 (20211027.1534)
 -->
<!-- Title: include/actions/VariableNotAMooseObjectAction.h Pages: 1 -->
<svg width="457pt" height="162pt"
 viewBox="0.00 0.00 457.00 162.00" xmlns="http://www.w3.org/2000/svg" xmlns:xlink="http://www.w3.org/1999/xlink">
<g id="graph0" class="graph" transform="scale(1 1) rotate(0) translate(4 158)">
<title>include/actions/VariableNotAMooseObjectAction.h</title>
<polygon fill="white" stroke="transparent" points="-4,4 -4,-158 453,-158 453,4 -4,4"/>
<!-- Node1 -->
<g id="node1" class="node">
<title>Node1</title>
<g id="a_node1"><a xlink:title=" ">
<polygon fill="#bfbfbf" stroke="black" points="146.5,-123.5 146.5,-153.5 278.5,-153.5 278.5,-123.5 146.5,-123.5"/>
<text text-anchor="start" x="154.5" y="-141.5" font-family="Helvetica,sans-Serif" font-size="10.00">include/actions/Variable</text>
<text text-anchor="middle" x="212.5" y="-130.5" font-family="Helvetica,sans-Serif" font-size="10.00">NotAMooseObjectAction.h</text>
</a>
</g>
</g>
<!-- Node2 -->
<g id="node2" class="node">
<title>Node2</title>
<g id="a_node2"><a xlink:href="_nt_action_8h.html" target="_top" xlink:title=" ">
<polygon fill="white" stroke="black" points="0,-62 0,-81 131,-81 131,-62 0,-62"/>
<text text-anchor="middle" x="65.5" y="-69" font-family="Helvetica,sans-Serif" font-size="10.00">include/actions/NtAction.h</text>
</a>
</g>
</g>
<!-- Node1&#45;&gt;Node2 -->
<g id="edge1" class="edge">
<title>Node1&#45;&gt;Node2</title>
<path fill="none" stroke="midnightblue" d="M171.33,-119.3C142.98,-106.76 106.62,-90.68 84.74,-81.01"/>
<polygon fill="midnightblue" stroke="midnightblue" points="170.04,-122.55 180.6,-123.4 172.87,-116.15 170.04,-122.55"/>
</g>
<!-- Node4 -->
<g id="node4" class="node">
<title>Node4</title>
<g id="a_node4"><a xlink:href="_precursor_action_8h.html" target="_top" xlink:title=" ">
<polygon fill="white" stroke="black" points="149,-56.5 149,-86.5 276,-86.5 276,-56.5 149,-56.5"/>
<text text-anchor="start" x="157" y="-74.5" font-family="Helvetica,sans-Serif" font-size="10.00">include/actions/Precursor</text>
<text text-anchor="middle" x="212.5" y="-63.5" font-family="Helvetica,sans-Serif" font-size="10.00">Action.h</text>
</a>
</g>
</g>
<!-- Node1&#45;&gt;Node4 -->
<g id="edge3" class="edge">
<title>Node1&#45;&gt;Node4</title>
<path fill="none" stroke="midnightblue" d="M212.5,-113.11C212.5,-104.15 212.5,-94.32 212.5,-86.58"/>
<polygon fill="midnightblue" stroke="midnightblue" points="209,-113.4 212.5,-123.4 216,-113.4 209,-113.4"/>
</g>
<!-- Node6 -->
<g id="node6" class="node">
<title>Node6</title>
<g id="a_node6"><a xlink:href="_variable_not_a_moose_object_action_8_c.html" target="_top" xlink:title=" ">
<polygon fill="white" stroke="black" points="294,-56.5 294,-86.5 449,-86.5 449,-56.5 294,-56.5"/>
<text text-anchor="start" x="302" y="-74.5" font-family="Helvetica,sans-Serif" font-size="10.00">src/actions/VariableNotAMoose</text>
<text text-anchor="middle" x="371.5" y="-63.5" font-family="Helvetica,sans-Serif" font-size="10.00">ObjectAction.C</text>
</a>
</g>
</g>
<!-- Node1&#45;&gt;Node6 -->
<g id="edge5" class="edge">
<title>Node1&#45;&gt;Node6</title>
<path fill="none" stroke="midnightblue" d="M256.42,-119.54C281.87,-109.14 313.43,-96.24 337.07,-86.58"/>
<polygon fill="midnightblue" stroke="midnightblue" points="254.93,-116.37 247,-123.4 257.58,-122.85 254.93,-116.37"/>
</g>
<!-- Node3 -->
<g id="node3" class="node">
<title>Node3</title>
<g id="a_node3"><a xlink:href="_nt_action_8_c.html" target="_top" xlink:title=" ">
<polygon fill="white" stroke="black" points="7,-0.5 7,-19.5 122,-19.5 122,-0.5 7,-0.5"/>
<text text-anchor="middle" x="64.5" y="-7.5" font-family="Helvetica,sans-Serif" font-size="10.00">src/actions/NtAction.C</text>
</a>
</g>
</g>
<!-- Node2&#45;&gt;Node3 -->
<g id="edge2" class="edge">
<title>Node2&#45;&gt;Node3</title>
<path fill="none" stroke="midnightblue" d="M65.19,-51.82C65,-41 64.78,-27.9 64.64,-19.51"/>
<polygon fill="midnightblue" stroke="midnightblue" points="61.69,-52.04 65.36,-61.98 68.69,-51.92 61.69,-52.04"/>
</g>
<!-- Node5 -->
<g id="node5" class="node">
<title>Node5</title>
<g id="a_node5"><a xlink:href="_precursor_action_8_c.html" target="_top" xlink:title=" ">
<polygon fill="white" stroke="black" points="140.5,-0.5 140.5,-19.5 286.5,-19.5 286.5,-0.5 140.5,-0.5"/>
<text text-anchor="middle" x="213.5" y="-7.5" font-family="Helvetica,sans-Serif" font-size="10.00">src/actions/PrecursorAction.C</text>
</a>
</g>
</g>
<!-- Node4&#45;&gt;Node5 -->
<g id="edge4" class="edge">
<title>Node4&#45;&gt;Node5</title>
<path fill="none" stroke="midnightblue" d="M212.91,-46.29C213.07,-36.86 213.24,-26.65 213.35,-19.66"/>
<polygon fill="midnightblue" stroke="midnightblue" points="209.41,-46.34 212.74,-56.4 216.4,-46.46 209.41,-46.34"/>
</g>
</g>
</svg>
