<?xml version="1.0" encoding="UTF-8" standalone="no"?>
<!DOCTYPE svg PUBLIC "-//W3C//DTD SVG 1.1//EN"
 "http://www.w3.org/Graphics/SVG/1.1/DTD/svg11.dtd">
<!-- Generated by graphviz version 9.0.0 (20230911.1827)
 -->
<!-- Title: src/auxkernels/WallShearStressAux.C Pages: 1 -->
<svg width="206pt" height="149pt"
 viewBox="0.00 0.00 205.50 149.00" xmlns="http://www.w3.org/2000/svg" xmlns:xlink="http://www.w3.org/1999/xlink">
<g id="graph0" class="graph" transform="scale(1 1) rotate(0) translate(4 145)">
<title>src/auxkernels/WallShearStressAux.C</title>
<!-- Node1 -->
<g id="Node000001" class="node">
<title>Node1</title>
<g id="a_Node000001"><a xlink:title=" ">
<polygon fill="#999999" stroke="#666666" points="173.5,-141 47.25,-141 47.25,-110.5 173.5,-110.5 173.5,-141"/>
<text text-anchor="start" x="55.25" y="-127.5" font-family="Helvetica,sans-Serif" font-size="10.00">src/auxkernels/WallShear</text>
<text text-anchor="middle" x="110.38" y="-116.25" font-family="Helvetica,sans-Serif" font-size="10.00">StressAux.C</text>
</a>
</g>
</g>
<!-- Node2 -->
<g id="Node000002" class="node">
<title>Node2</title>
<g id="a_Node000002"><a xlink:href="_wall_shear_stress_aux_8h.html" target="_top" xlink:title=" ">
<polygon fill="white" stroke="#666666" points="112.75,-74.5 0,-74.5 0,-55.25 112.75,-55.25 112.75,-74.5"/>
<text text-anchor="middle" x="56.38" y="-61" font-family="Helvetica,sans-Serif" font-size="10.00">WallShearStressAux.h</text>
</a>
</g>
</g>
<!-- Node1&#45;&gt;Node2 -->
<g id="edge1_Node000001_Node000002" class="edge">
<title>Node1&#45;&gt;Node2</title>
<g id="a_edge1_Node000001_Node000002"><a xlink:title=" ">
<path fill="none" stroke="#63b8ff" d="M97.03,-110.2C89.6,-102.09 80.29,-91.95 72.46,-83.41"/>
<polygon fill="#63b8ff" stroke="#63b8ff" points="75.06,-81.07 65.72,-76.07 69.9,-85.8 75.06,-81.07"/>
</a>
</g>
</g>
<!-- Node4 -->
<g id="Node000004" class="node">
<title>Node4</title>
<g id="a_Node000004"><a xlink:title=" ">
<polygon fill="#e0e0e0" stroke="#999999" points="197.5,-74.5 131.25,-74.5 131.25,-55.25 197.5,-55.25 197.5,-74.5"/>
<text text-anchor="middle" x="164.38" y="-61" font-family="Helvetica,sans-Serif" font-size="10.00">Assembly.h</text>
</a>
</g>
</g>
<!-- Node1&#45;&gt;Node4 -->
<g id="edge3_Node000001_Node000004" class="edge">
<title>Node1&#45;&gt;Node4</title>
<g id="a_edge3_Node000001_Node000004"><a xlink:title=" ">
<path fill="none" stroke="#63b8ff" d="M123.72,-110.2C131.15,-102.09 140.46,-91.95 148.29,-83.41"/>
<polygon fill="#63b8ff" stroke="#63b8ff" points="150.85,-85.8 155.03,-76.07 145.69,-81.07 150.85,-85.8"/>
</a>
</g>
</g>
<!-- Node3 -->
<g id="Node000003" class="node">
<title>Node3</title>
<g id="a_Node000003"><a xlink:title=" ">
<polygon fill="#e0e0e0" stroke="#999999" points="90.25,-19.25 22.5,-19.25 22.5,0 90.25,0 90.25,-19.25"/>
<text text-anchor="middle" x="56.38" y="-5.75" font-family="Helvetica,sans-Serif" font-size="10.00">AuxKernel.h</text>
</a>
</g>
</g>
<!-- Node2&#45;&gt;Node3 -->
<g id="edge2_Node000002_Node000003" class="edge">
<title>Node2&#45;&gt;Node3</title>
<g id="a_edge2_Node000002_Node000003"><a xlink:title=" ">
<path fill="none" stroke="#63b8ff" d="M56.38,-55.08C56.38,-48.57 56.38,-39.42 56.38,-31.12"/>
<polygon fill="#63b8ff" stroke="#63b8ff" points="59.88,-31.12 56.38,-21.12 52.88,-31.12 59.88,-31.12"/>
</a>
</g>
</g>
</g>
</svg>
