<?xml version="1.0" encoding="UTF-8" standalone="no"?>
<!DOCTYPE svg PUBLIC "-//W3C//DTD SVG 1.1//EN"
 "http://www.w3.org/Graphics/SVG/1.1/DTD/svg11.dtd">
<!-- Generated by graphviz version 12.2.0 (20241103.1931)
 -->
<!-- Title: TotalNeutronLeakage Pages: 1 -->
<svg width="264pt" height="83pt"
 viewBox="0.00 0.00 264.12 82.50" xmlns="http://www.w3.org/2000/svg" xmlns:xlink="http://www.w3.org/1999/xlink">
<g id="graph0" class="graph" transform="scale(1 1) rotate(0) translate(4 78.5)">
<title>TotalNeutronLeakage</title>
<!-- Node1 -->
<g id="Node000001" class="node">
<title>Node1</title>
<g id="a_Node000001"><a xlink:title=" ">
<polygon fill="#999999" stroke="#666666" points="188.25,-19.25 78.5,-19.25 78.5,0 188.25,0 188.25,-19.25"/>
<text text-anchor="middle" x="133.38" y="-5.75" font-family="Helvetica,sans-Serif" font-size="10.00">TotalNeutronLeakage</text>
</a>
</g>
</g>
<!-- Node2 -->
<g id="Node000002" class="node">
<title>Node2</title>
<g id="a_Node000002"><a xlink:title=" ">
<polygon fill="white" stroke="#666666" points="130.75,-74.5 0,-74.5 0,-55.25 130.75,-55.25 130.75,-74.5"/>
<text text-anchor="middle" x="65.38" y="-61" font-family="Helvetica,sans-Serif" font-size="10.00">SideIntegralPostprocessor</text>
</a>
</g>
</g>
<!-- Node2&#45;&gt;Node1 -->
<g id="edge1_Node000001_Node000002" class="edge">
<title>Node2&#45;&gt;Node1</title>
<g id="a_edge1_Node000001_Node000002"><a xlink:title=" ">
<path fill="none" stroke="#63b8ff" d="M85.72,-47.94C97.6,-38.64 112.14,-27.26 122.01,-19.52"/>
<polygon fill="#63b8ff" stroke="#63b8ff" points="83.82,-44.99 78.1,-53.91 88.13,-50.5 83.82,-44.99"/>
</a>
</g>
</g>
<!-- Node3 -->
<g id="Node000003" class="node">
<title>Node3</title>
<g id="a_Node000003"><a xlink:href="class_scalar_transport_base.html" target="_top" xlink:title=" ">
<polygon fill="white" stroke="#666666" points="256.12,-74.5 148.62,-74.5 148.62,-55.25 256.12,-55.25 256.12,-74.5"/>
<text text-anchor="middle" x="202.38" y="-61" font-family="Helvetica,sans-Serif" font-size="10.00">ScalarTransportBase</text>
</a>
</g>
</g>
<!-- Node3&#45;&gt;Node1 -->
<g id="edge2_Node000001_Node000003" class="edge">
<title>Node3&#45;&gt;Node1</title>
<g id="a_edge2_Node000001_Node000003"><a xlink:title=" ">
<path fill="none" stroke="#63b8ff" d="M181.73,-47.94C169.68,-38.64 154.93,-27.26 144.91,-19.52"/>
<polygon fill="#63b8ff" stroke="#63b8ff" points="179.42,-50.58 189.47,-53.92 183.69,-45.04 179.42,-50.58"/>
</a>
</g>
</g>
</g>
</svg>
