<?xml version="1.0" encoding="UTF-8" standalone="no"?>
<!DOCTYPE svg PUBLIC "-//W3C//DTD SVG 1.1//EN"
 "http://www.w3.org/Graphics/SVG/1.1/DTD/svg11.dtd">
<!-- Generated by graphviz version 12.2.0 (20241103.1931)
 -->
<!-- Title: ScalarTransportTimeDerivative Pages: 1 -->
<svg width="200pt" height="138pt"
 viewBox="0.00 0.00 199.50 137.75" xmlns="http://www.w3.org/2000/svg" xmlns:xlink="http://www.w3.org/1999/xlink">
<g id="graph0" class="graph" transform="scale(1 1) rotate(0) translate(4 133.75)">
<title>ScalarTransportTimeDerivative</title>
<!-- Node1 -->
<g id="Node000001" class="node">
<title>Node1</title>
<g id="a_Node000001"><a xlink:title=" ">
<polygon fill="#999999" stroke="#666666" points="159.88,-74.5 9.62,-74.5 9.62,-55.25 159.88,-55.25 159.88,-74.5"/>
<text text-anchor="middle" x="84.75" y="-61" font-family="Helvetica,sans-Serif" font-size="10.00">ScalarTransportTimeDerivative</text>
</a>
</g>
</g>
<!-- Node4 -->
<g id="Node000004" class="node">
<title>Node4</title>
<g id="a_Node000004"><a xlink:href="class_nt_time_derivative.html" target="_top" xlink:title=" ">
<polygon fill="white" stroke="#666666" points="130.62,-19.25 38.88,-19.25 38.88,0 130.62,0 130.62,-19.25"/>
<text text-anchor="middle" x="84.75" y="-5.75" font-family="Helvetica,sans-Serif" font-size="10.00">NtTimeDerivative</text>
</a>
</g>
</g>
<!-- Node1&#45;&gt;Node4 -->
<g id="edge3_Node000001_Node000004" class="edge">
<title>Node1&#45;&gt;Node4</title>
<g id="a_edge3_Node000001_Node000004"><a xlink:title=" ">
<path fill="none" stroke="#63b8ff" d="M84.75,-43.63C84.75,-35.34 84.75,-26.17 84.75,-19.61"/>
<polygon fill="#63b8ff" stroke="#63b8ff" points="81.25,-43.57 84.75,-53.57 88.25,-43.57 81.25,-43.57"/>
</a>
</g>
</g>
<!-- Node2 -->
<g id="Node000002" class="node">
<title>Node2</title>
<g id="a_Node000002"><a xlink:title=" ">
<polygon fill="white" stroke="#666666" points="65.5,-129.75 0,-129.75 0,-110.5 65.5,-110.5 65.5,-129.75"/>
<text text-anchor="middle" x="32.75" y="-116.25" font-family="Helvetica,sans-Serif" font-size="10.00">TimeKernel</text>
</a>
</g>
</g>
<!-- Node2&#45;&gt;Node1 -->
<g id="edge1_Node000001_Node000002" class="edge">
<title>Node2&#45;&gt;Node1</title>
<g id="a_edge1_Node000001_Node000002"><a xlink:title=" ">
<path fill="none" stroke="#63b8ff" d="M49.16,-102.32C58.04,-93.23 68.66,-82.35 75.98,-74.86"/>
<polygon fill="#63b8ff" stroke="#63b8ff" points="46.88,-99.65 42.39,-109.25 51.88,-104.54 46.88,-99.65"/>
</a>
</g>
</g>
<!-- Node3 -->
<g id="Node000003" class="node">
<title>Node3</title>
<g id="a_Node000003"><a xlink:href="class_scalar_transport_base.html" target="_top" xlink:title=" ">
<polygon fill="white" stroke="#666666" points="191.5,-129.75 84,-129.75 84,-110.5 191.5,-110.5 191.5,-129.75"/>
<text text-anchor="middle" x="137.75" y="-116.25" font-family="Helvetica,sans-Serif" font-size="10.00">ScalarTransportBase</text>
</a>
</g>
</g>
<!-- Node3&#45;&gt;Node1 -->
<g id="edge2_Node000001_Node000003" class="edge">
<title>Node3&#45;&gt;Node1</title>
<g id="a_edge2_Node000001_Node000003"><a xlink:title=" ">
<path fill="none" stroke="#63b8ff" d="M121.03,-102.32C111.97,-93.23 101.15,-82.35 93.69,-74.86"/>
<polygon fill="#63b8ff" stroke="#63b8ff" points="118.4,-104.64 127.93,-109.26 123.36,-99.7 118.4,-104.64"/>
</a>
</g>
</g>
</g>
</svg>
