<?xml version="1.0" encoding="UTF-8" standalone="no"?>
<!DOCTYPE svg PUBLIC "-//W3C//DTD SVG 1.1//EN"
 "http://www.w3.org/Graphics/SVG/1.1/DTD/svg11.dtd">
<!-- Generated by graphviz version 7.0.5 (20221223.1930)
 -->
<!-- Title: TransientFissionHeatSource Pages: 1 -->
<svg width="179pt" height="82pt"
 viewBox="0.00 0.00 179.00 82.00" xmlns="http://www.w3.org/2000/svg" xmlns:xlink="http://www.w3.org/1999/xlink">
<g id="graph0" class="graph" transform="scale(1 1) rotate(0) translate(4 78)">
<title>TransientFissionHeatSource</title>
<!-- Node1 -->
<g id="node1" class="node">
<title>Node1</title>
<g id="a_node1"><a xlink:title=" ">
<polygon fill="#999999" stroke="#666666" points="140,-19 0,-19 0,0 140,0 140,-19"/>
<text text-anchor="middle" x="70" y="-7" font-family="Helvetica,sans-Serif" font-size="10.00">TransientFissionHeatSource</text>
</a>
</g>
</g>
<!-- Node2 -->
<g id="node2" class="node">
<title>Node2</title>
<g id="a_node2"><a xlink:title=" ">
<polygon fill="white" stroke="#666666" points="45,-74 1,-74 1,-55 45,-55 45,-74"/>
<text text-anchor="middle" x="23" y="-62" font-family="Helvetica,sans-Serif" font-size="10.00">Kernel</text>
</a>
</g>
</g>
<!-- Node2&#45;&gt;Node1 -->
<g id="edge1" class="edge">
<title>Node2&#45;&gt;Node1</title>
<path fill="none" stroke="#63b8ff" d="M38.33,-46.22C46.25,-37.28 55.6,-26.74 62.07,-19.44"/>
<polygon fill="#63b8ff" stroke="#63b8ff" points="35.78,-43.81 31.77,-53.62 41.02,-48.46 35.78,-43.81"/>
</g>
<!-- Node3 -->
<g id="node3" class="node">
<title>Node3</title>
<g id="a_node3"><a xlink:href="class_scalar_transport_base.html" target="_top" xlink:title=" ">
<polygon fill="white" stroke="#666666" points="171,-74 63,-74 63,-55 171,-55 171,-74"/>
<text text-anchor="middle" x="117" y="-62" font-family="Helvetica,sans-Serif" font-size="10.00">ScalarTransportBase</text>
</a>
</g>
</g>
<!-- Node3&#45;&gt;Node1 -->
<g id="edge2" class="edge">
<title>Node3&#45;&gt;Node1</title>
<path fill="none" stroke="#63b8ff" d="M101.67,-46.22C93.75,-37.28 84.4,-26.74 77.93,-19.44"/>
<polygon fill="#63b8ff" stroke="#63b8ff" points="98.98,-48.46 108.23,-53.62 104.22,-43.81 98.98,-48.46"/>
</g>
</g>
</svg>
