<?xml version="1.0" encoding="UTF-8" standalone="no"?>
<!DOCTYPE svg PUBLIC "-//W3C//DTD SVG 1.1//EN"
 "http://www.w3.org/Graphics/SVG/1.1/DTD/svg11.dtd">
<!-- Generated by graphviz version 12.2.0 (20241103.1931)
 -->
<!-- Title: NuclearMaterial Pages: 1 -->
<svg width="406pt" height="193pt"
 viewBox="0.00 0.00 406.38 193.00" xmlns="http://www.w3.org/2000/svg" xmlns:xlink="http://www.w3.org/1999/xlink">
<g id="graph0" class="graph" transform="scale(1 1) rotate(0) translate(4 189)">
<title>NuclearMaterial</title>
<!-- Node1 -->
<g id="Node000001" class="node">
<title>Node1</title>
<g id="a_Node000001"><a xlink:title=" ">
<polygon fill="#999999" stroke="#666666" points="278.88,-129.75 194.62,-129.75 194.62,-110.5 278.88,-110.5 278.88,-129.75"/>
<text text-anchor="middle" x="236.75" y="-116.25" font-family="Helvetica,sans-Serif" font-size="10.00">NuclearMaterial</text>
</a>
</g>
</g>
<!-- Node3 -->
<g id="Node000003" class="node">
<title>Node3</title>
<g id="a_Node000003"><a xlink:href="class_generic_moltres_material.html" target="_top" xlink:title=" ">
<polygon fill="white" stroke="#666666" points="231,-74.5 114.5,-74.5 114.5,-55.25 231,-55.25 231,-74.5"/>
<text text-anchor="middle" x="172.75" y="-61" font-family="Helvetica,sans-Serif" font-size="10.00">GenericMoltresMaterial</text>
</a>
</g>
</g>
<!-- Node1&#45;&gt;Node3 -->
<g id="edge2_Node000001_Node000003" class="edge">
<title>Node1&#45;&gt;Node3</title>
<g id="a_edge2_Node000001_Node000003"><a xlink:title=" ">
<path fill="none" stroke="#63b8ff" d="M217.27,-102.91C206.15,-93.67 192.65,-82.43 183.45,-74.77"/>
<polygon fill="#63b8ff" stroke="#63b8ff" points="214.8,-105.42 224.73,-109.12 219.28,-100.04 214.8,-105.42"/>
</a>
</g>
</g>
<!-- Node7 -->
<g id="Node000007" class="node">
<title>Node7</title>
<g id="a_Node000007"><a xlink:href="class_moltres_json_material.html" target="_top" xlink:title=" ">
<polygon fill="white" stroke="#666666" points="374.62,-74.5 270.88,-74.5 270.88,-55.25 374.62,-55.25 374.62,-74.5"/>
<text text-anchor="middle" x="322.75" y="-61" font-family="Helvetica,sans-Serif" font-size="10.00">MoltresJsonMaterial</text>
</a>
</g>
</g>
<!-- Node1&#45;&gt;Node7 -->
<g id="edge6_Node000001_Node000007" class="edge">
<title>Node1&#45;&gt;Node7</title>
<g id="a_edge6_Node000001_Node000007"><a xlink:title=" ">
<path fill="none" stroke="#63b8ff" d="M261.09,-104.05C276.24,-94.67 295.22,-82.92 308.09,-74.95"/>
<polygon fill="#63b8ff" stroke="#63b8ff" points="259.29,-101.05 252.63,-109.3 262.97,-107.01 259.29,-101.05"/>
</a>
</g>
</g>
<!-- Node2 -->
<g id="Node000002" class="node">
<title>Node2</title>
<g id="a_Node000002"><a xlink:title=" ">
<polygon fill="white" stroke="#666666" points="298.38,-185 175.12,-185 175.12,-165.75 298.38,-165.75 298.38,-185"/>
<text text-anchor="middle" x="236.75" y="-171.5" font-family="Helvetica,sans-Serif" font-size="10.00">GenericConstantMaterial</text>
</a>
</g>
</g>
<!-- Node2&#45;&gt;Node1 -->
<g id="edge1_Node000001_Node000002" class="edge">
<title>Node2&#45;&gt;Node1</title>
<g id="a_edge1_Node000001_Node000002"><a xlink:title=" ">
<path fill="none" stroke="#63b8ff" d="M236.75,-154.13C236.75,-145.84 236.75,-136.67 236.75,-130.11"/>
<polygon fill="#63b8ff" stroke="#63b8ff" points="233.25,-154.07 236.75,-164.07 240.25,-154.07 233.25,-154.07"/>
</a>
</g>
</g>
<!-- Node4 -->
<g id="Node000004" class="node">
<title>Node4</title>
<g id="a_Node000004"><a xlink:href="class_cammi_fuel.html" target="_top" xlink:title=" ">
<polygon fill="white" stroke="#666666" points="65.5,-19.25 0,-19.25 0,0 65.5,0 65.5,-19.25"/>
<text text-anchor="middle" x="32.75" y="-5.75" font-family="Helvetica,sans-Serif" font-size="10.00">CammiFuel</text>
</a>
</g>
</g>
<!-- Node3&#45;&gt;Node4 -->
<g id="edge3_Node000003_Node000004" class="edge">
<title>Node3&#45;&gt;Node4</title>
<g id="a_edge3_Node000003_Node000004"><a xlink:title=" ">
<path fill="none" stroke="#63b8ff" d="M138.36,-50.79C112.97,-41.14 79.08,-28.25 56.62,-19.7"/>
<polygon fill="#63b8ff" stroke="#63b8ff" points="137,-54.02 147.59,-54.3 139.48,-47.48 137,-54.02"/>
</a>
</g>
</g>
<!-- Node5 -->
<g id="Node000005" class="node">
<title>Node5</title>
<g id="a_Node000005"><a xlink:href="class_cammi_moderator.html" target="_top" xlink:title=" ">
<polygon fill="white" stroke="#666666" points="173.88,-19.25 83.62,-19.25 83.62,0 173.88,0 173.88,-19.25"/>
<text text-anchor="middle" x="128.75" y="-5.75" font-family="Helvetica,sans-Serif" font-size="10.00">CammiModerator</text>
</a>
</g>
</g>
<!-- Node3&#45;&gt;Node5 -->
<g id="edge4_Node000003_Node000005" class="edge">
<title>Node3&#45;&gt;Node5</title>
<g id="a_edge4_Node000003_Node000005"><a xlink:title=" ">
<path fill="none" stroke="#63b8ff" d="M158.17,-46.22C150.8,-37.31 142.17,-26.87 136.17,-19.61"/>
<polygon fill="#63b8ff" stroke="#63b8ff" points="155.45,-48.44 164.52,-53.92 160.85,-43.98 155.45,-48.44"/>
</a>
</g>
</g>
<!-- Node6 -->
<g id="Node000006" class="node">
<title>Node6</title>
<g id="a_Node000006"><a xlink:href="class_rodded_material.html" target="_top" xlink:title=" ">
<polygon fill="white" stroke="#666666" points="275.5,-19.25 192,-19.25 192,0 275.5,0 275.5,-19.25"/>
<text text-anchor="middle" x="233.75" y="-5.75" font-family="Helvetica,sans-Serif" font-size="10.00">RoddedMaterial</text>
</a>
</g>
</g>
<!-- Node3&#45;&gt;Node6 -->
<g id="edge5_Node000003_Node000006" class="edge">
<title>Node3&#45;&gt;Node6</title>
<g id="a_edge5_Node000003_Node000006"><a xlink:title=" ">
<path fill="none" stroke="#63b8ff" d="M191.64,-47.39C202.17,-38.19 214.87,-27.1 223.56,-19.52"/>
<polygon fill="#63b8ff" stroke="#63b8ff" points="189.47,-44.63 184.24,-53.85 194.07,-49.91 189.47,-44.63"/>
</a>
</g>
</g>
<!-- Node8 -->
<g id="Node000008" class="node">
<title>Node8</title>
<g id="a_Node000008"><a xlink:href="class_diffusion_rod_material.html" target="_top" xlink:title=" ">
<polygon fill="white" stroke="#666666" points="398.38,-19.25 293.12,-19.25 293.12,0 398.38,0 398.38,-19.25"/>
<text text-anchor="middle" x="345.75" y="-5.75" font-family="Helvetica,sans-Serif" font-size="10.00">DiffusionRodMaterial</text>
</a>
</g>
</g>
<!-- Node7&#45;&gt;Node8 -->
<g id="edge7_Node000007_Node000008" class="edge">
<title>Node7&#45;&gt;Node8</title>
<g id="a_edge7_Node000007_Node000008"><a xlink:title=" ">
<path fill="none" stroke="#63b8ff" d="M330.99,-44.79C334.7,-36.21 338.9,-26.48 341.87,-19.61"/>
<polygon fill="#63b8ff" stroke="#63b8ff" points="327.9,-43.12 327.15,-53.69 334.33,-45.9 327.9,-43.12"/>
</a>
</g>
</g>
</g>
</svg>
