<?xml version="1.0" encoding="UTF-8" standalone="no"?>
<!DOCTYPE svg PUBLIC "-//W3C//DTD SVG 1.1//EN"
 "http://www.w3.org/Graphics/SVG/1.1/DTD/svg11.dtd">
<!-- Generated by graphviz version 2.49.3 (20211027.1534)
 -->
<!-- Title: ScalarTransportBase Pages: 1 -->
<svg width="668pt" height="902pt"
 viewBox="0.00 0.00 668.00 902.00" xmlns="http://www.w3.org/2000/svg" xmlns:xlink="http://www.w3.org/1999/xlink">
<g id="graph0" class="graph" transform="scale(1 1) rotate(0) translate(4 898)">
<title>ScalarTransportBase</title>
<polygon fill="white" stroke="transparent" points="-4,4 -4,-898 664,-898 664,4 -4,4"/>
<!-- Node1 -->
<g id="node1" class="node">
<title>Node1</title>
<g id="a_node1"><a xlink:title=" ">
<polygon fill="#bfbfbf" stroke="black" points="0,-437.5 0,-456.5 108,-456.5 108,-437.5 0,-437.5"/>
<text text-anchor="middle" x="54" y="-444.5" font-family="Helvetica,sans-Serif" font-size="10.00">ScalarTransportBase</text>
</a>
</g>
</g>
<!-- Node2 -->
<g id="node2" class="node">
<title>Node2</title>
<g id="a_node2"><a xlink:href="class_coupled_fission_eigen_kernel.html" target="_top" xlink:title=" ">
<polygon fill="white" stroke="black" points="160,-874.5 160,-893.5 295,-893.5 295,-874.5 160,-874.5"/>
<text text-anchor="middle" x="227.5" y="-881.5" font-family="Helvetica,sans-Serif" font-size="10.00">CoupledFissionEigenKernel</text>
</a>
</g>
</g>
<!-- Node1&#45;&gt;Node2 -->
<g id="edge1" class="edge">
<title>Node1&#45;&gt;Node2</title>
<path fill="none" stroke="midnightblue" d="M56.45,-466.79C62.34,-541.76 86.97,-807.01 144,-865 148.53,-869.61 153.95,-873.2 159.8,-875.98"/>
<polygon fill="midnightblue" stroke="midnightblue" points="59.94,-466.51 55.69,-456.8 52.96,-467.04 59.94,-466.51"/>
</g>
<!-- Node3 -->
<g id="node3" class="node">
<title>Node3</title>
<g id="a_node3"><a xlink:href="class_coupled_fission_kernel.html" target="_top" xlink:title=" ">
<polygon fill="white" stroke="black" points="172,-836.5 172,-855.5 283,-855.5 283,-836.5 172,-836.5"/>
<text text-anchor="middle" x="227.5" y="-843.5" font-family="Helvetica,sans-Serif" font-size="10.00">CoupledFissionKernel</text>
</a>
</g>
</g>
<!-- Node1&#45;&gt;Node3 -->
<g id="edge2" class="edge">
<title>Node1&#45;&gt;Node3</title>
<path fill="none" stroke="midnightblue" d="M56.9,-466.77C64.08,-537.28 91.82,-775.02 144,-827 151.6,-834.57 161.58,-839.37 171.95,-842.36"/>
<polygon fill="midnightblue" stroke="midnightblue" points="60.36,-466.21 55.89,-456.61 53.4,-466.91 60.36,-466.21"/>
</g>
<!-- Node4 -->
<g id="node4" class="node">
<title>Node4</title>
<g id="a_node4"><a xlink:href="class_coupled_scalar_advection.html" target="_top" xlink:title=" ">
<polygon fill="white" stroke="black" points="166,-798.5 166,-817.5 289,-817.5 289,-798.5 166,-798.5"/>
<text text-anchor="middle" x="227.5" y="-805.5" font-family="Helvetica,sans-Serif" font-size="10.00">CoupledScalarAdvection</text>
</a>
</g>
</g>
<!-- Node1&#45;&gt;Node4 -->
<g id="edge3" class="edge">
<title>Node1&#45;&gt;Node4</title>
<path fill="none" stroke="midnightblue" d="M57.47,-466.89C66.05,-532.88 96.69,-743.01 144,-789 150.11,-794.94 157.69,-799.17 165.75,-802.15"/>
<polygon fill="midnightblue" stroke="midnightblue" points="60.9,-466.11 56.16,-456.63 53.95,-466.99 60.9,-466.11"/>
</g>
<!-- Node5 -->
<g id="node5" class="node">
<title>Node5</title>
<g id="a_node5"><a xlink:href="class_coupled_scalar_advection_no_b_c_b_c.html" target="_top" xlink:title=" ">
<polygon fill="white" stroke="black" points="146,-760.5 146,-779.5 309,-779.5 309,-760.5 146,-760.5"/>
<text text-anchor="middle" x="227.5" y="-767.5" font-family="Helvetica,sans-Serif" font-size="10.00">CoupledScalarAdvectionNoBCBC</text>
</a>
</g>
</g>
<!-- Node1&#45;&gt;Node5 -->
<g id="edge4" class="edge">
<title>Node1&#45;&gt;Node5</title>
<path fill="none" stroke="midnightblue" d="M54.44,-466.97C54.06,-521.24 60.89,-672.61 144,-751 148.06,-754.83 152.74,-757.95 157.75,-760.47"/>
<polygon fill="midnightblue" stroke="midnightblue" points="57.94,-466.71 54.61,-456.66 50.94,-466.6 57.94,-466.71"/>
</g>
<!-- Node6 -->
<g id="node6" class="node">
<title>Node6</title>
<g id="a_node6"><a xlink:href="class_decay_heat_source.html" target="_top" xlink:title=" ">
<polygon fill="white" stroke="black" points="180,-722.5 180,-741.5 275,-741.5 275,-722.5 180,-722.5"/>
<text text-anchor="middle" x="227.5" y="-729.5" font-family="Helvetica,sans-Serif" font-size="10.00">DecayHeatSource</text>
</a>
</g>
</g>
<!-- Node1&#45;&gt;Node6 -->
<g id="edge5" class="edge">
<title>Node1&#45;&gt;Node6</title>
<path fill="none" stroke="midnightblue" d="M55.4,-466.77C57.53,-516.2 70.23,-646.03 144,-713 153.79,-721.89 166.9,-726.88 179.77,-729.61"/>
<polygon fill="midnightblue" stroke="midnightblue" points="58.89,-466.38 55.07,-456.5 51.89,-466.61 58.89,-466.38"/>
</g>
<!-- Node7 -->
<g id="node7" class="node">
<title>Node7</title>
<g id="a_node7"><a xlink:href="class_delayed_neutron_eigen_source.html" target="_top" xlink:title=" ">
<polygon fill="white" stroke="black" points="157.5,-684.5 157.5,-703.5 297.5,-703.5 297.5,-684.5 157.5,-684.5"/>
<text text-anchor="middle" x="227.5" y="-691.5" font-family="Helvetica,sans-Serif" font-size="10.00">DelayedNeutronEigenSource</text>
</a>
</g>
</g>
<!-- Node1&#45;&gt;Node7 -->
<g id="edge6" class="edge">
<title>Node1&#45;&gt;Node7</title>
<path fill="none" stroke="midnightblue" d="M56.64,-466.62C61.44,-510.95 79.51,-619.29 144,-675 148.45,-678.84 153.52,-681.95 158.91,-684.46"/>
<polygon fill="midnightblue" stroke="midnightblue" points="60.12,-466.19 55.67,-456.58 53.15,-466.87 60.12,-466.19"/>
</g>
<!-- Node8 -->
<g id="node8" class="node">
<title>Node8</title>
<g id="a_node8"><a xlink:href="class_delayed_neutron_source.html" target="_top" xlink:title=" ">
<polygon fill="white" stroke="black" points="169.5,-646.5 169.5,-665.5 285.5,-665.5 285.5,-646.5 169.5,-646.5"/>
<text text-anchor="middle" x="227.5" y="-653.5" font-family="Helvetica,sans-Serif" font-size="10.00">DelayedNeutronSource</text>
</a>
</g>
</g>
<!-- Node1&#45;&gt;Node8 -->
<g id="edge7" class="edge">
<title>Node1&#45;&gt;Node8</title>
<path fill="none" stroke="midnightblue" d="M58.37,-466.75C66.08,-505.69 88.81,-592.41 144,-637 151.32,-642.91 160.13,-647.05 169.24,-649.94"/>
<polygon fill="midnightblue" stroke="midnightblue" points="61.77,-465.9 56.5,-456.71 54.89,-467.18 61.77,-465.9"/>
</g>
<!-- Node9 -->
<g id="node9" class="node">
<title>Node9</title>
<g id="a_node9"><a xlink:href="class_div_free_coupled_scalar_advection.html" target="_top" xlink:title=" ">
<polygon fill="white" stroke="black" points="149,-608.5 149,-627.5 306,-627.5 306,-608.5 149,-608.5"/>
<text text-anchor="middle" x="227.5" y="-615.5" font-family="Helvetica,sans-Serif" font-size="10.00">DivFreeCoupledScalarAdvection</text>
</a>
</g>
</g>
<!-- Node1&#45;&gt;Node9 -->
<g id="edge8" class="edge">
<title>Node1&#45;&gt;Node9</title>
<path fill="none" stroke="midnightblue" d="M60.74,-466.39C71.45,-499.1 97.73,-565 144,-599 149.21,-602.83 155.07,-605.9 161.2,-608.37"/>
<polygon fill="midnightblue" stroke="midnightblue" points="64.02,-465.16 57.69,-456.66 57.34,-467.25 64.02,-465.16"/>
</g>
<!-- Node10 -->
<g id="node10" class="node">
<title>Node10</title>
<g id="a_node10"><a xlink:href="class_elm_integ_tot_fiss_postprocessor.html" target="_top" xlink:title=" ">
<polygon fill="white" stroke="black" points="152,-570.5 152,-589.5 303,-589.5 303,-570.5 152,-570.5"/>
<text text-anchor="middle" x="227.5" y="-577.5" font-family="Helvetica,sans-Serif" font-size="10.00">ElmIntegTotFissPostprocessor</text>
</a>
</g>
</g>
<!-- Node1&#45;&gt;Node10 -->
<g id="edge9" class="edge">
<title>Node1&#45;&gt;Node10</title>
<path fill="none" stroke="midnightblue" d="M64.38,-465.85C78.18,-491.54 106.42,-537.06 144,-561 150.07,-564.87 156.85,-567.95 163.83,-570.41"/>
<polygon fill="midnightblue" stroke="midnightblue" points="67.38,-464.03 59.66,-456.77 61.17,-467.26 67.38,-464.03"/>
</g>
<!-- Node13 -->
<g id="node13" class="node">
<title>Node13</title>
<g id="a_node13"><a xlink:href="class_group_diffusion.html" target="_top" xlink:title=" ">
<polygon fill="white" stroke="black" points="187.5,-532.5 187.5,-551.5 267.5,-551.5 267.5,-532.5 187.5,-532.5"/>
<text text-anchor="middle" x="227.5" y="-539.5" font-family="Helvetica,sans-Serif" font-size="10.00">GroupDiffusion</text>
</a>
</g>
</g>
<!-- Node1&#45;&gt;Node13 -->
<g id="edge12" class="edge">
<title>Node1&#45;&gt;Node13</title>
<path fill="none" stroke="midnightblue" d="M70.43,-464.37C86.92,-481.84 114.68,-508.23 144,-523 157.39,-529.74 173.21,-534.13 187.39,-536.97"/>
<polygon fill="midnightblue" stroke="midnightblue" points="72.63,-461.59 63.28,-456.6 67.48,-466.33 72.63,-461.59"/>
</g>
<!-- Node14 -->
<g id="node14" class="node">
<title>Node14</title>
<g id="a_node14"><a xlink:href="class_heat_precursor_decay.html" target="_top" xlink:title=" ">
<polygon fill="white" stroke="black" points="174,-494.5 174,-513.5 281,-513.5 281,-494.5 174,-494.5"/>
<text text-anchor="middle" x="227.5" y="-501.5" font-family="Helvetica,sans-Serif" font-size="10.00">HeatPrecursorDecay</text>
</a>
</g>
</g>
<!-- Node1&#45;&gt;Node14 -->
<g id="edge13" class="edge">
<title>Node1&#45;&gt;Node14</title>
<path fill="none" stroke="midnightblue" d="M84.21,-461.02C101.34,-468.85 123.57,-478.34 144,-485 155.04,-488.6 167.12,-491.78 178.55,-494.47"/>
<polygon fill="midnightblue" stroke="midnightblue" points="85.3,-457.67 74.76,-456.64 82.36,-464.02 85.3,-457.67"/>
</g>
<!-- Node15 -->
<g id="node15" class="node">
<title>Node15</title>
<g id="a_node15"><a xlink:href="class_heat_precursor_source.html" target="_top" xlink:title=" ">
<polygon fill="white" stroke="black" points="172.5,-456.5 172.5,-475.5 282.5,-475.5 282.5,-456.5 172.5,-456.5"/>
<text text-anchor="middle" x="227.5" y="-463.5" font-family="Helvetica,sans-Serif" font-size="10.00">HeatPrecursorSource</text>
</a>
</g>
</g>
<!-- Node1&#45;&gt;Node15 -->
<g id="edge14" class="edge">
<title>Node1&#45;&gt;Node15</title>
<path fill="none" stroke="midnightblue" d="M118.55,-454.04C136.22,-456 155.24,-458.11 172.32,-460"/>
<polygon fill="midnightblue" stroke="midnightblue" points="118.65,-450.53 108.32,-452.91 117.88,-457.49 118.65,-450.53"/>
</g>
<!-- Node16 -->
<g id="node16" class="node">
<title>Node16</title>
<g id="a_node16"><a xlink:href="class_in_scatter.html" target="_top" xlink:title=" ">
<polygon fill="white" stroke="black" points="199.5,-418.5 199.5,-437.5 255.5,-437.5 255.5,-418.5 199.5,-418.5"/>
<text text-anchor="middle" x="227.5" y="-425.5" font-family="Helvetica,sans-Serif" font-size="10.00">InScatter</text>
</a>
</g>
</g>
<!-- Node1&#45;&gt;Node16 -->
<g id="edge15" class="edge">
<title>Node1&#45;&gt;Node16</title>
<path fill="none" stroke="midnightblue" d="M118.4,-439.98C146.22,-436.89 177.41,-433.44 199.11,-431.03"/>
<polygon fill="midnightblue" stroke="midnightblue" points="117.88,-436.51 108.32,-441.09 118.65,-443.47 117.88,-436.51"/>
</g>
<!-- Node17 -->
<g id="node17" class="node">
<title>Node17</title>
<g id="a_node17"><a xlink:href="class_integral_new_variable_postprocessor.html" target="_top" xlink:title=" ">
<polygon fill="white" stroke="black" points="144,-380.5 144,-399.5 311,-399.5 311,-380.5 144,-380.5"/>
<text text-anchor="middle" x="227.5" y="-387.5" font-family="Helvetica,sans-Serif" font-size="10.00">IntegralNewVariablePostprocessor</text>
</a>
</g>
</g>
<!-- Node1&#45;&gt;Node17 -->
<g id="edge16" class="edge">
<title>Node1&#45;&gt;Node17</title>
<path fill="none" stroke="midnightblue" d="M84.21,-432.98C101.34,-425.15 123.57,-415.66 144,-409 155.04,-405.4 167.12,-402.22 178.55,-399.53"/>
<polygon fill="midnightblue" stroke="midnightblue" points="82.36,-429.98 74.76,-437.36 85.3,-436.33 82.36,-429.98"/>
</g>
<!-- Node18 -->
<g id="node18" class="node">
<title>Node18</title>
<g id="a_node18"><a xlink:href="class_integral_old_variable_postprocessor.html" target="_top" xlink:title=" ">
<polygon fill="white" stroke="black" points="146.5,-342.5 146.5,-361.5 308.5,-361.5 308.5,-342.5 146.5,-342.5"/>
<text text-anchor="middle" x="227.5" y="-349.5" font-family="Helvetica,sans-Serif" font-size="10.00">IntegralOldVariablePostprocessor</text>
</a>
</g>
</g>
<!-- Node1&#45;&gt;Node18 -->
<g id="edge17" class="edge">
<title>Node1&#45;&gt;Node18</title>
<path fill="none" stroke="midnightblue" d="M70.43,-429.63C86.92,-412.16 114.68,-385.77 144,-371 151.74,-367.1 160.3,-363.99 168.89,-361.51"/>
<polygon fill="midnightblue" stroke="midnightblue" points="67.48,-427.67 63.28,-437.4 72.63,-432.41 67.48,-427.67"/>
</g>
<!-- Node19 -->
<g id="node19" class="node">
<title>Node19</title>
<g id="a_node19"><a xlink:href="class_lin_log_penalty_dirichlet_b_c.html" target="_top" xlink:title=" ">
<polygon fill="white" stroke="black" points="163.5,-304.5 163.5,-323.5 291.5,-323.5 291.5,-304.5 163.5,-304.5"/>
<text text-anchor="middle" x="227.5" y="-311.5" font-family="Helvetica,sans-Serif" font-size="10.00">LinLogPenaltyDirichletBC</text>
</a>
</g>
</g>
<!-- Node1&#45;&gt;Node19 -->
<g id="edge18" class="edge">
<title>Node1&#45;&gt;Node19</title>
<path fill="none" stroke="midnightblue" d="M64.38,-428.15C78.18,-402.46 106.42,-356.94 144,-333 150.07,-329.13 156.85,-326.05 163.83,-323.59"/>
<polygon fill="midnightblue" stroke="midnightblue" points="61.17,-426.74 59.66,-437.23 67.38,-429.97 61.17,-426.74"/>
</g>
<!-- Node20 -->
<g id="node20" class="node">
<title>Node20</title>
<g id="a_node20"><a xlink:href="class_precursor_decay.html" target="_top" xlink:title=" ">
<polygon fill="white" stroke="black" points="184.5,-266.5 184.5,-285.5 270.5,-285.5 270.5,-266.5 184.5,-266.5"/>
<text text-anchor="middle" x="227.5" y="-273.5" font-family="Helvetica,sans-Serif" font-size="10.00">PrecursorDecay</text>
</a>
</g>
</g>
<!-- Node1&#45;&gt;Node20 -->
<g id="edge19" class="edge">
<title>Node1&#45;&gt;Node20</title>
<path fill="none" stroke="midnightblue" d="M60.74,-427.61C71.45,-394.9 97.73,-329 144,-295 155.61,-286.47 170.42,-281.69 184.28,-279.03"/>
<polygon fill="midnightblue" stroke="midnightblue" points="57.34,-426.75 57.69,-437.34 64.02,-428.84 57.34,-426.75"/>
</g>
<!-- Node21 -->
<g id="node21" class="node">
<title>Node21</title>
<g id="a_node21"><a xlink:href="class_precursor_source.html" target="_top" xlink:title=" ">
<polygon fill="white" stroke="black" points="183,-228.5 183,-247.5 272,-247.5 272,-228.5 183,-228.5"/>
<text text-anchor="middle" x="227.5" y="-235.5" font-family="Helvetica,sans-Serif" font-size="10.00">PrecursorSource</text>
</a>
</g>
</g>
<!-- Node1&#45;&gt;Node21 -->
<g id="edge20" class="edge">
<title>Node1&#45;&gt;Node21</title>
<path fill="none" stroke="midnightblue" d="M58.37,-427.25C66.08,-388.31 88.81,-301.59 144,-257 154.98,-248.13 169.32,-243.24 182.97,-240.6"/>
<polygon fill="midnightblue" stroke="midnightblue" points="54.89,-426.82 56.5,-437.29 61.77,-428.1 54.89,-426.82"/>
</g>
<!-- Node22 -->
<g id="node22" class="node">
<title>Node22</title>
<g id="a_node22"><a xlink:href="class_scalar_advection_art_diff.html" target="_top" xlink:title=" ">
<polygon fill="white" stroke="black" points="170,-190.5 170,-209.5 285,-209.5 285,-190.5 170,-190.5"/>
<text text-anchor="middle" x="227.5" y="-197.5" font-family="Helvetica,sans-Serif" font-size="10.00">ScalarAdvectionArtDiff</text>
</a>
</g>
</g>
<!-- Node1&#45;&gt;Node22 -->
<g id="edge21" class="edge">
<title>Node1&#45;&gt;Node22</title>
<path fill="none" stroke="midnightblue" d="M56.64,-427.38C61.44,-383.05 79.51,-274.71 144,-219 151.34,-212.66 160.38,-208.32 169.75,-205.38"/>
<polygon fill="midnightblue" stroke="midnightblue" points="53.15,-427.13 55.67,-437.42 60.12,-427.81 53.15,-427.13"/>
</g>
<!-- Node23 -->
<g id="node23" class="node">
<title>Node23</title>
<g id="a_node23"><a xlink:href="class_scalar_advection_art_diff_no_b_c_b_c.html" target="_top" xlink:title=" ">
<polygon fill="white" stroke="black" points="150,-152.5 150,-171.5 305,-171.5 305,-152.5 150,-152.5"/>
<text text-anchor="middle" x="227.5" y="-159.5" font-family="Helvetica,sans-Serif" font-size="10.00">ScalarAdvectionArtDiffNoBCBC</text>
</a>
</g>
</g>
<!-- Node1&#45;&gt;Node23 -->
<g id="edge22" class="edge">
<title>Node1&#45;&gt;Node23</title>
<path fill="none" stroke="midnightblue" d="M55.4,-427.23C57.53,-377.8 70.23,-247.97 144,-181 148.24,-177.15 153.11,-174.03 158.31,-171.51"/>
<polygon fill="midnightblue" stroke="midnightblue" points="51.89,-427.39 55.07,-437.5 58.89,-427.62 51.89,-427.39"/>
</g>
<!-- Node24 -->
<g id="node24" class="node">
<title>Node24</title>
<g id="a_node24"><a xlink:href="class_scalar_transport_time_derivative.html" target="_top" xlink:title=" ">
<polygon fill="white" stroke="black" points="152,-114.5 152,-133.5 303,-133.5 303,-114.5 152,-114.5"/>
<text text-anchor="middle" x="227.5" y="-121.5" font-family="Helvetica,sans-Serif" font-size="10.00">ScalarTransportTimeDerivative</text>
</a>
</g>
</g>
<!-- Node1&#45;&gt;Node24 -->
<g id="edge23" class="edge">
<title>Node1&#45;&gt;Node24</title>
<path fill="none" stroke="midnightblue" d="M54.44,-427.03C54.06,-372.76 60.89,-221.39 144,-143 148.06,-139.17 152.74,-136.05 157.75,-133.53"/>
<polygon fill="midnightblue" stroke="midnightblue" points="50.94,-427.4 54.61,-437.34 57.94,-427.29 50.94,-427.4"/>
</g>
<!-- Node26 -->
<g id="node26" class="node">
<title>Node26</title>
<g id="a_node26"><a xlink:href="class_sigma_r.html" target="_top" xlink:title=" ">
<polygon fill="white" stroke="black" points="202,-76.5 202,-95.5 253,-95.5 253,-76.5 202,-76.5"/>
<text text-anchor="middle" x="227.5" y="-83.5" font-family="Helvetica,sans-Serif" font-size="10.00">SigmaR</text>
</a>
</g>
</g>
<!-- Node1&#45;&gt;Node26 -->
<g id="edge25" class="edge">
<title>Node1&#45;&gt;Node26</title>
<path fill="none" stroke="midnightblue" d="M57.47,-427.11C66.05,-361.12 96.69,-150.99 144,-105 159.18,-90.25 183.38,-86.08 201.66,-85.26"/>
<polygon fill="midnightblue" stroke="midnightblue" points="53.95,-427.01 56.16,-437.37 60.9,-427.89 53.95,-427.01"/>
</g>
<!-- Node27 -->
<g id="node27" class="node">
<title>Node27</title>
<g id="a_node27"><a xlink:href="class_transient_fission_heat_source.html" target="_top" xlink:title=" ">
<polygon fill="white" stroke="black" points="157.5,-38.5 157.5,-57.5 297.5,-57.5 297.5,-38.5 157.5,-38.5"/>
<text text-anchor="middle" x="227.5" y="-45.5" font-family="Helvetica,sans-Serif" font-size="10.00">TransientFissionHeatSource</text>
</a>
</g>
</g>
<!-- Node1&#45;&gt;Node27 -->
<g id="edge26" class="edge">
<title>Node1&#45;&gt;Node27</title>
<path fill="none" stroke="midnightblue" d="M56.9,-427.23C64.08,-356.72 91.82,-118.98 144,-67 147.85,-63.16 152.31,-60.04 157.13,-57.5"/>
<polygon fill="midnightblue" stroke="midnightblue" points="53.4,-427.09 55.89,-437.39 60.36,-427.79 53.4,-427.09"/>
</g>
<!-- Node28 -->
<g id="node28" class="node">
<title>Node28</title>
<g id="a_node28"><a xlink:href="class_vacuum_conc_b_c.html" target="_top" xlink:title=" ">
<polygon fill="white" stroke="black" points="183,-0.5 183,-19.5 272,-19.5 272,-0.5 183,-0.5"/>
<text text-anchor="middle" x="227.5" y="-7.5" font-family="Helvetica,sans-Serif" font-size="10.00">VacuumConcBC</text>
</a>
</g>
</g>
<!-- Node1&#45;&gt;Node28 -->
<g id="edge27" class="edge">
<title>Node1&#45;&gt;Node28</title>
<path fill="none" stroke="midnightblue" d="M56.45,-427.21C62.34,-352.24 86.97,-86.99 144,-29 154.2,-18.63 168.85,-13.43 182.98,-10.97"/>
<polygon fill="midnightblue" stroke="midnightblue" points="52.96,-426.96 55.69,-437.2 59.94,-427.49 52.96,-426.96"/>
</g>
<!-- Node11 -->
<g id="node11" class="node">
<title>Node11</title>
<g id="a_node11"><a xlink:href="class_elm_integ_tot_fiss_heat_postprocessor.html" target="_top" xlink:title=" ">
<polygon fill="white" stroke="black" points="347,-570.5 347,-589.5 519,-589.5 519,-570.5 347,-570.5"/>
<text text-anchor="middle" x="433" y="-577.5" font-family="Helvetica,sans-Serif" font-size="10.00">ElmIntegTotFissHeatPostprocessor</text>
</a>
</g>
</g>
<!-- Node10&#45;&gt;Node11 -->
<g id="edge10" class="edge">
<title>Node10&#45;&gt;Node11</title>
<path fill="none" stroke="midnightblue" d="M313.2,-580C324.28,-580 335.63,-580 346.72,-580"/>
<polygon fill="midnightblue" stroke="midnightblue" points="313.12,-576.5 303.12,-580 313.12,-583.5 313.12,-576.5"/>
</g>
<!-- Node12 -->
<g id="node12" class="node">
<title>Node12</title>
<g id="a_node12"><a xlink:href="class_average_fission_heat.html" target="_top" xlink:title=" ">
<polygon fill="white" stroke="black" points="555,-570.5 555,-589.5 660,-589.5 660,-570.5 555,-570.5"/>
<text text-anchor="middle" x="607.5" y="-577.5" font-family="Helvetica,sans-Serif" font-size="10.00">AverageFissionHeat</text>
</a>
</g>
</g>
<!-- Node11&#45;&gt;Node12 -->
<g id="edge11" class="edge">
<title>Node11&#45;&gt;Node12</title>
<path fill="none" stroke="midnightblue" d="M529.39,-580C538.01,-580 546.51,-580 554.54,-580"/>
<polygon fill="midnightblue" stroke="midnightblue" points="529.24,-576.5 519.24,-580 529.24,-583.5 529.24,-576.5"/>
</g>
<!-- Node25 -->
<g id="node25" class="node">
<title>Node25</title>
<g id="a_node25"><a xlink:href="class_nt_time_derivative.html" target="_top" xlink:title=" ">
<polygon fill="white" stroke="black" points="387,-114.5 387,-133.5 479,-133.5 479,-114.5 387,-114.5"/>
<text text-anchor="middle" x="433" y="-121.5" font-family="Helvetica,sans-Serif" font-size="10.00">NtTimeDerivative</text>
</a>
</g>
</g>
<!-- Node24&#45;&gt;Node25 -->
<g id="edge24" class="edge">
<title>Node24&#45;&gt;Node25</title>
<path fill="none" stroke="midnightblue" d="M313.45,-124C338.69,-124 365.35,-124 386.98,-124"/>
<polygon fill="midnightblue" stroke="midnightblue" points="313.12,-120.5 303.12,-124 313.12,-127.5 313.12,-120.5"/>
</g>
</g>
</svg>
