<?xml version="1.0" encoding="UTF-8" standalone="no"?>
<!DOCTYPE svg PUBLIC "-//W3C//DTD SVG 1.1//EN"
 "http://www.w3.org/Graphics/SVG/1.1/DTD/svg11.dtd">
<!-- Generated by graphviz version 2.49.3 (20211027.1534)
 -->
<!-- Title: DelayedNeutronEigenSource Pages: 1 -->
<svg width="202pt" height="84pt"
 viewBox="0.00 0.00 202.00 84.00" xmlns="http://www.w3.org/2000/svg" xmlns:xlink="http://www.w3.org/1999/xlink">
<g id="graph0" class="graph" transform="scale(1 1) rotate(0) translate(4 80)">
<title>DelayedNeutronEigenSource</title>
<polygon fill="white" stroke="transparent" points="-4,4 -4,-80 198,-80 198,4 -4,4"/>
<!-- Node1 -->
<g id="node1" class="node">
<title>Node1</title>
<g id="a_node1"><a xlink:title=" ">
<polygon fill="#bfbfbf" stroke="black" points="17,-0.5 17,-19.5 157,-19.5 157,-0.5 17,-0.5"/>
<text text-anchor="middle" x="87" y="-7.5" font-family="Helvetica,sans-Serif" font-size="10.00">DelayedNeutronEigenSource</text>
</a>
</g>
</g>
<!-- Node2 -->
<g id="node2" class="node">
<title>Node2</title>
<g id="a_node2"><a xlink:title=" ">
<polygon fill="white" stroke="#bfbfbf" points="0,-56.5 0,-75.5 68,-75.5 68,-56.5 0,-56.5"/>
<text text-anchor="middle" x="34" y="-63.5" font-family="Helvetica,sans-Serif" font-size="10.00">EigenKernel</text>
</a>
</g>
</g>
<!-- Node2&#45;&gt;Node1 -->
<g id="edge1" class="edge">
<title>Node2&#45;&gt;Node1</title>
<path fill="none" stroke="midnightblue" d="M49.98,-48.72C59.32,-39.2 70.75,-27.56 78.41,-19.75"/>
<polygon fill="midnightblue" stroke="midnightblue" points="47.26,-46.49 42.75,-56.08 52.25,-51.4 47.26,-46.49"/>
</g>
<!-- Node3 -->
<g id="node3" class="node">
<title>Node3</title>
<g id="a_node3"><a xlink:href="class_scalar_transport_base.html" target="_top" xlink:title=" ">
<polygon fill="white" stroke="black" points="86,-56.5 86,-75.5 194,-75.5 194,-56.5 86,-56.5"/>
<text text-anchor="middle" x="140" y="-63.5" font-family="Helvetica,sans-Serif" font-size="10.00">ScalarTransportBase</text>
</a>
</g>
</g>
<!-- Node3&#45;&gt;Node1 -->
<g id="edge2" class="edge">
<title>Node3&#45;&gt;Node1</title>
<path fill="none" stroke="midnightblue" d="M124.02,-48.72C114.68,-39.2 103.25,-27.56 95.59,-19.75"/>
<polygon fill="midnightblue" stroke="midnightblue" points="121.75,-51.4 131.25,-56.08 126.74,-46.49 121.75,-51.4"/>
</g>
</g>
</svg>
