<?xml version="1.0" encoding="UTF-8" standalone="no"?>
<!DOCTYPE svg PUBLIC "-//W3C//DTD SVG 1.1//EN"
 "http://www.w3.org/Graphics/SVG/1.1/DTD/svg11.dtd">
<!-- Generated by graphviz version 9.0.0 (20230911.1827)
 -->
<!-- Title: LinLogPenaltyDirichletBC Pages: 1 -->
<svg width="206pt" height="83pt"
 viewBox="0.00 0.00 206.25 82.50" xmlns="http://www.w3.org/2000/svg" xmlns:xlink="http://www.w3.org/1999/xlink">
<g id="graph0" class="graph" transform="scale(1 1) rotate(0) translate(4 78.5)">
<title>LinLogPenaltyDirichletBC</title>
<!-- Node1 -->
<g id="Node000001" class="node">
<title>Node1</title>
<g id="a_Node000001"><a xlink:title=" ">
<polygon fill="#999999" stroke="#666666" points="154,-19.25 27,-19.25 27,0 154,0 154,-19.25"/>
<text text-anchor="middle" x="90.5" y="-5.75" font-family="Helvetica,sans-Serif" font-size="10.00">LinLogPenaltyDirichletBC</text>
</a>
</g>
</g>
<!-- Node2 -->
<g id="Node000002" class="node">
<title>Node2</title>
<g id="a_Node000002"><a xlink:title=" ">
<polygon fill="white" stroke="#666666" points="73,-74.5 0,-74.5 0,-55.25 73,-55.25 73,-74.5"/>
<text text-anchor="middle" x="36.5" y="-61" font-family="Helvetica,sans-Serif" font-size="10.00">IntegratedBC</text>
</a>
</g>
</g>
<!-- Node2&#45;&gt;Node1 -->
<g id="edge1_Node000001_Node000002" class="edge">
<title>Node2&#45;&gt;Node1</title>
<g id="a_edge1_Node000001_Node000002"><a xlink:title=" ">
<path fill="none" stroke="#63b8ff" d="M53.54,-47.07C62.76,-37.98 73.79,-27.1 81.39,-19.61"/>
<polygon fill="#63b8ff" stroke="#63b8ff" points="51.16,-44.51 46.49,-54.02 56.07,-49.49 51.16,-44.51"/>
</a>
</g>
</g>
<!-- Node3 -->
<g id="Node000003" class="node">
<title>Node3</title>
<g id="a_Node000003"><a xlink:href="class_scalar_transport_base.html" target="_top" xlink:title=" ">
<polygon fill="white" stroke="#666666" points="198.25,-74.5 90.75,-74.5 90.75,-55.25 198.25,-55.25 198.25,-74.5"/>
<text text-anchor="middle" x="144.5" y="-61" font-family="Helvetica,sans-Serif" font-size="10.00">ScalarTransportBase</text>
</a>
</g>
</g>
<!-- Node3&#45;&gt;Node1 -->
<g id="edge2_Node000001_Node000003" class="edge">
<title>Node3&#45;&gt;Node1</title>
<g id="a_edge2_Node000001_Node000003"><a xlink:title=" ">
<path fill="none" stroke="#63b8ff" d="M127.46,-47.07C118.24,-37.98 107.21,-27.1 99.61,-19.61"/>
<polygon fill="#63b8ff" stroke="#63b8ff" points="124.93,-49.49 134.51,-54.02 129.84,-44.51 124.93,-49.49"/>
</a>
</g>
</g>
</g>
</svg>
