<?xml version="1.0" encoding="UTF-8" standalone="no"?>
<!DOCTYPE svg PUBLIC "-//W3C//DTD SVG 1.1//EN"
 "http://www.w3.org/Graphics/SVG/1.1/DTD/svg11.dtd">
<!-- Generated by graphviz version 7.0.4 (20221203.1631)
 -->
<!-- Title: ScalarTransportBase Pages: 1 -->
<!--zoomable 878 -->
<svg id="main" version="1.1" xmlns="http://www.w3.org/2000/svg" xmlns:xlink="http://www.w3.org/1999/xlink" xml:space="preserve" onload="init(evt)">
<style type="text/css"><![CDATA[
.edge:hover path { stroke: red; }
.edge:hover polygon { stroke: red; fill: red; }
]]></style>
<script type="text/javascript"><![CDATA[
var edges = document.getElementsByTagName('g');
if (edges && edges.length) {
  for (var i=0;i<edges.length;i++) {
    if (edges[i].id.substr(0,4)=='edge') {
      edges[i].setAttribute('class','edge');
    }
  }
}
]]></script>
        <defs>
                <circle id="rim" cx="0" cy="0" r="7"/>
                <circle id="rim2" cx="0" cy="0" r="3.5"/>
                <g id="zoomPlus">
                        <use xlink:href="#rim" fill="#404040">
                                <set attributeName="fill" to="#808080" begin="zoomplus.mouseover" end="zoomplus.mouseout"/>
                        </use>
                        <path d="M-4,0h8M0,-4v8" fill="none" stroke="white" stroke-width="1.5" pointer-events="none"/>
                </g>
                <g id="zoomMin">
                        <use xlink:href="#rim" fill="#404040">
                                <set attributeName="fill" to="#808080" begin="zoomminus.mouseover" end="zoomminus.mouseout"/>
                        </use>
                        <path d="M-4,0h8" fill="none" stroke="white" stroke-width="1.5" pointer-events="none"/>
                </g>
                <g id="dirArrow">
                        <path fill="none" stroke="white" stroke-width="1.5" d="M0,-3.0v7 M-2.5,-0.5L0,-3.0L2.5,-0.5"/>
                </g>
               <g id="resetDef">
                       <use xlink:href="#rim2" fill="#404040">
                               <set attributeName="fill" to="#808080" begin="reset.mouseover" end="reset.mouseout"/>
                       </use>
               </g>
        </defs>

<script type="text/javascript">
var viewWidth = 668;
var viewHeight = 878;
var sectionId = 'dynsection-0';
</script>
<script xlink:href="svgpan.js"/>
<svg id="graph" class="graph">
<g id="viewport">
<title>ScalarTransportBase</title>
<!-- Node1 -->
<g id="node1" class="node">
<title>Node1</title>
<g id="a_node1"><a xlink:title=" ">
<polygon fill="#999999" stroke="#666666" points="108,-444 0,-444 0,-425 108,-425 108,-444"/>
<text text-anchor="middle" x="54" y="-432" font-family="Helvetica,sans-Serif" font-size="10.00">ScalarTransportBase</text>
</a>
</g>
</g>
<!-- Node2 -->
<g id="node2" class="node">
<title>Node2</title>
<g id="a_node2"><a xlink:href="class_coupled_fission_eigen_kernel.html" target="_top" xlink:title=" ">
<polygon fill="white" stroke="#666666" points="295,-870 160,-870 160,-851 295,-851 295,-870"/>
<text text-anchor="middle" x="227.5" y="-858" font-family="Helvetica,sans-Serif" font-size="10.00">CoupledFissionEigenKernel</text>
</a>
</g>
</g>
<!-- Node1&#45;&gt;Node2 -->
<g id="edge1" class="edge">
<title>Node1&#45;&gt;Node2</title>
<path fill="none" stroke="#63b8ff" d="M56.66,-455.71C63.01,-531.41 88.27,-786.77 144,-842.5 148.56,-847.06 153.99,-850.59 159.86,-853.3"/>
<polygon fill="#63b8ff" stroke="#63b8ff" points="60.16,-455.64 55.87,-445.95 53.19,-456.21 60.16,-455.64"/>
</g>
<!-- Node3 -->
<g id="node3" class="node">
<title>Node3</title>
<g id="a_node3"><a xlink:href="class_coupled_fission_kernel.html" target="_top" xlink:title=" ">
<polygon fill="white" stroke="#666666" points="283,-833 172,-833 172,-814 283,-814 283,-833"/>
<text text-anchor="middle" x="227.5" y="-821" font-family="Helvetica,sans-Serif" font-size="10.00">CoupledFissionKernel</text>
</a>
</g>
</g>
<!-- Node1&#45;&gt;Node3 -->
<g id="edge2" class="edge">
<title>Node1&#45;&gt;Node3</title>
<path fill="none" stroke="#63b8ff" d="M57.14,-455.59C64.78,-526.62 93,-755.54 144,-805.5 151.54,-812.89 161.36,-817.54 171.59,-820.42"/>
<polygon fill="#63b8ff" stroke="#63b8ff" points="60.63,-455.33 56.11,-445.74 53.67,-456.05 60.63,-455.33"/>
</g>
<!-- Node4 -->
<g id="node4" class="node">
<title>Node4</title>
<g id="a_node4"><a xlink:href="class_coupled_scalar_advection.html" target="_top" xlink:title=" ">
<polygon fill="white" stroke="#666666" points="289,-796 166,-796 166,-777 289,-777 289,-796"/>
<text text-anchor="middle" x="227.5" y="-784" font-family="Helvetica,sans-Serif" font-size="10.00">CoupledScalarAdvection</text>
</a>
</g>
</g>
<!-- Node1&#45;&gt;Node4 -->
<g id="edge3" class="edge">
<title>Node1&#45;&gt;Node4</title>
<path fill="none" stroke="#63b8ff" d="M57.74,-455.6C66.78,-521.91 97.73,-724.29 144,-768.5 150.15,-774.37 157.74,-778.51 165.82,-781.39"/>
<polygon fill="#63b8ff" stroke="#63b8ff" points="61.22,-455.19 56.43,-445.74 54.28,-456.12 61.22,-455.19"/>
</g>
<!-- Node5 -->
<g id="node5" class="node">
<title>Node5</title>
<g id="a_node5"><a xlink:href="class_coupled_scalar_advection_no_b_c_b_c.html" target="_top" xlink:title=" ">
<polygon fill="white" stroke="#666666" points="309,-759 146,-759 146,-740 309,-740 309,-759"/>
<text text-anchor="middle" x="227.5" y="-747" font-family="Helvetica,sans-Serif" font-size="10.00">CoupledScalarAdvectionNoBCBC</text>
</a>
</g>
</g>
<!-- Node1&#45;&gt;Node5 -->
<g id="edge4" class="edge">
<title>Node1&#45;&gt;Node5</title>
<path fill="none" stroke="#63b8ff" d="M54.55,-455.45C54.6,-509.77 62.66,-656.15 144,-731.5 147.44,-734.69 151.31,-737.36 155.45,-739.6"/>
<polygon fill="#63b8ff" stroke="#63b8ff" points="58.05,-455.79 54.64,-445.76 51.05,-455.72 58.05,-455.79"/>
</g>
<!-- Node6 -->
<g id="node6" class="node">
<title>Node6</title>
<g id="a_node6"><a xlink:href="class_decay_heat_source.html" target="_top" xlink:title=" ">
<polygon fill="white" stroke="#666666" points="275,-722 180,-722 180,-703 275,-703 275,-722"/>
<text text-anchor="middle" x="227.5" y="-710" font-family="Helvetica,sans-Serif" font-size="10.00">DecayHeatSource</text>
</a>
</g>
</g>
<!-- Node1&#45;&gt;Node6 -->
<g id="edge5" class="edge">
<title>Node1&#45;&gt;Node6</title>
<path fill="none" stroke="#63b8ff" d="M55.61,-455.8C58.24,-505.63 72.07,-630.4 144,-694.5 153.85,-703.28 166.97,-708.11 179.85,-710.68"/>
<polygon fill="#63b8ff" stroke="#63b8ff" points="59.11,-455.7 55.2,-445.85 52.11,-455.98 59.11,-455.7"/>
</g>
<!-- Node7 -->
<g id="node7" class="node">
<title>Node7</title>
<g id="a_node7"><a xlink:href="class_delayed_neutron_eigen_source.html" target="_top" xlink:title=" ">
<polygon fill="white" stroke="#666666" points="297.5,-685 157.5,-685 157.5,-666 297.5,-666 297.5,-685"/>
<text text-anchor="middle" x="227.5" y="-673" font-family="Helvetica,sans-Serif" font-size="10.00">DelayedNeutronEigenSource</text>
</a>
</g>
</g>
<!-- Node1&#45;&gt;Node7 -->
<g id="edge6" class="edge">
<title>Node1&#45;&gt;Node7</title>
<path fill="none" stroke="#63b8ff" d="M56.98,-455.77C62.32,-500.44 81.19,-604.28 144,-657.5 148.03,-660.91 152.55,-663.72 157.36,-666.03"/>
<polygon fill="#63b8ff" stroke="#63b8ff" points="60.46,-455.46 55.92,-445.88 53.5,-456.2 60.46,-455.46"/>
</g>
<!-- Node8 -->
<g id="node8" class="node">
<title>Node8</title>
<g id="a_node8"><a xlink:href="class_delayed_neutron_source.html" target="_top" xlink:title=" ">
<polygon fill="white" stroke="#666666" points="285.5,-648 169.5,-648 169.5,-629 285.5,-629 285.5,-648"/>
<text text-anchor="middle" x="227.5" y="-636" font-family="Helvetica,sans-Serif" font-size="10.00">DelayedNeutronSource</text>
</a>
</g>
</g>
<!-- Node1&#45;&gt;Node8 -->
<g id="edge7" class="edge">
<title>Node1&#45;&gt;Node8</title>
<path fill="none" stroke="#63b8ff" d="M58.83,-455.7C67.05,-494.73 90.17,-577.88 144,-620.5 151.36,-626.32 160.19,-630.36 169.3,-633.14"/>
<polygon fill="#63b8ff" stroke="#63b8ff" points="62.28,-455.1 56.92,-445.96 55.41,-456.45 62.28,-455.1"/>
</g>
<!-- Node9 -->
<g id="node9" class="node">
<title>Node9</title>
<g id="a_node9"><a xlink:href="class_div_free_coupled_scalar_advection.html" target="_top" xlink:title=" ">
<polygon fill="white" stroke="#666666" points="306,-611 149,-611 149,-592 306,-592 306,-611"/>
<text text-anchor="middle" x="227.5" y="-599" font-family="Helvetica,sans-Serif" font-size="10.00">DivFreeCoupledScalarAdvection</text>
</a>
</g>
</g>
<!-- Node1&#45;&gt;Node9 -->
<g id="edge8" class="edge">
<title>Node1&#45;&gt;Node9</title>
<path fill="none" stroke="#63b8ff" d="M61.4,-455.31C72.58,-488.02 98.89,-551.05 144,-583.5 148.52,-586.75 153.52,-589.44 158.75,-591.65"/>
<polygon fill="#63b8ff" stroke="#63b8ff" points="64.74,-454.26 58.32,-445.83 58.08,-456.42 64.74,-454.26"/>
</g>
<!-- Node10 -->
<g id="node10" class="node">
<title>Node10</title>
<g id="a_node10"><a xlink:href="class_elm_integ_tot_fiss_postprocessor.html" target="_top" xlink:title=" ">
<polygon fill="white" stroke="#666666" points="303,-574 152,-574 152,-555 303,-555 303,-574"/>
<text text-anchor="middle" x="227.5" y="-562" font-family="Helvetica,sans-Serif" font-size="10.00">ElmIntegTotFissPostprocessor</text>
</a>
</g>
</g>
<!-- Node1&#45;&gt;Node10 -->
<g id="edge9" class="edge">
<title>Node1&#45;&gt;Node10</title>
<path fill="none" stroke="#63b8ff" d="M65.2,-454.48C79.32,-480.01 107.27,-523.62 144,-546.5 149.23,-549.76 154.96,-552.43 160.89,-554.62"/>
<polygon fill="#63b8ff" stroke="#63b8ff" points="68.36,-452.98 60.57,-445.8 62.19,-456.27 68.36,-452.98"/>
</g>
<!-- Node13 -->
<g id="node13" class="node">
<title>Node13</title>
<g id="a_node13"><a xlink:href="class_group_diffusion.html" target="_top" xlink:title=" ">
<polygon fill="white" stroke="#666666" points="267.5,-537 187.5,-537 187.5,-518 267.5,-518 267.5,-537"/>
<text text-anchor="middle" x="227.5" y="-525" font-family="Helvetica,sans-Serif" font-size="10.00">GroupDiffusion</text>
</a>
</g>
</g>
<!-- Node1&#45;&gt;Node13 -->
<g id="edge12" class="edge">
<title>Node1&#45;&gt;Node13</title>
<path fill="none" stroke="#63b8ff" d="M71.16,-452.45C87.74,-469.74 115.13,-495.29 144,-509.5 157.28,-516.04 172.93,-520.22 187,-522.89"/>
<polygon fill="#63b8ff" stroke="#63b8ff" points="73.94,-450.3 64.56,-445.38 68.82,-455.08 73.94,-450.3"/>
</g>
<!-- Node14 -->
<g id="node14" class="node">
<title>Node14</title>
<g id="a_node14"><a xlink:href="class_heat_precursor_decay.html" target="_top" xlink:title=" ">
<polygon fill="white" stroke="#666666" points="281,-500 174,-500 174,-481 281,-481 281,-500"/>
<text text-anchor="middle" x="227.5" y="-488" font-family="Helvetica,sans-Serif" font-size="10.00">HeatPrecursorDecay</text>
</a>
</g>
</g>
<!-- Node1&#45;&gt;Node14 -->
<g id="edge13" class="edge">
<title>Node1&#45;&gt;Node14</title>
<path fill="none" stroke="#63b8ff" d="M85.48,-449.21C102.42,-456.95 124.04,-466.13 144,-472.5 153.5,-475.53 163.77,-478.23 173.73,-480.54"/>
<polygon fill="#63b8ff" stroke="#63b8ff" points="87,-446.06 76.46,-445.01 84.05,-452.4 87,-446.06"/>
</g>
<!-- Node15 -->
<g id="node15" class="node">
<title>Node15</title>
<g id="a_node15"><a xlink:href="class_heat_precursor_source.html" target="_top" xlink:title=" ">
<polygon fill="white" stroke="#666666" points="282.5,-463 172.5,-463 172.5,-444 282.5,-444 282.5,-463"/>
<text text-anchor="middle" x="227.5" y="-451" font-family="Helvetica,sans-Serif" font-size="10.00">HeatPrecursorSource</text>
</a>
</g>
</g>
<!-- Node1&#45;&gt;Node15 -->
<g id="edge14" class="edge">
<title>Node1&#45;&gt;Node15</title>
<path fill="none" stroke="#63b8ff" d="M119.48,-441.64C136.79,-443.56 155.32,-445.61 172.03,-447.47"/>
<polygon fill="#63b8ff" stroke="#63b8ff" points="120.15,-438.2 109.83,-440.57 119.38,-445.15 120.15,-438.2"/>
</g>
<!-- Node16 -->
<g id="node16" class="node">
<title>Node16</title>
<g id="a_node16"><a xlink:href="class_in_scatter.html" target="_top" xlink:title=" ">
<polygon fill="white" stroke="#666666" points="255.5,-426 199.5,-426 199.5,-407 255.5,-407 255.5,-426"/>
<text text-anchor="middle" x="227.5" y="-414" font-family="Helvetica,sans-Serif" font-size="10.00">InScatter</text>
</a>
</g>
</g>
<!-- Node1&#45;&gt;Node16 -->
<g id="edge15" class="edge">
<title>Node1&#45;&gt;Node16</title>
<path fill="none" stroke="#63b8ff" d="M119.5,-427.73C147.04,-424.84 177.7,-421.62 199.11,-419.37"/>
<polygon fill="#63b8ff" stroke="#63b8ff" points="119.41,-424.22 109.83,-428.75 120.14,-431.18 119.41,-424.22"/>
</g>
<!-- Node17 -->
<g id="node17" class="node">
<title>Node17</title>
<g id="a_node17"><a xlink:href="class_integral_new_variable_postprocessor.html" target="_top" xlink:title=" ">
<polygon fill="white" stroke="#666666" points="311,-389 144,-389 144,-370 311,-370 311,-389"/>
<text text-anchor="middle" x="227.5" y="-377" font-family="Helvetica,sans-Serif" font-size="10.00">IntegralNewVariablePostprocessor</text>
</a>
</g>
</g>
<!-- Node1&#45;&gt;Node17 -->
<g id="edge16" class="edge">
<title>Node1&#45;&gt;Node17</title>
<path fill="none" stroke="#63b8ff" d="M86.93,-420.16C103.69,-412.99 124.7,-404.58 144,-398.5 154.65,-395.14 166.25,-392.1 177.3,-389.49"/>
<polygon fill="#63b8ff" stroke="#63b8ff" points="85.76,-416.85 77.98,-424.04 88.55,-423.27 85.76,-416.85"/>
</g>
<!-- Node18 -->
<g id="node18" class="node">
<title>Node18</title>
<g id="a_node18"><a xlink:href="class_integral_old_variable_postprocessor.html" target="_top" xlink:title=" ">
<polygon fill="white" stroke="#666666" points="308.5,-352 146.5,-352 146.5,-333 308.5,-333 308.5,-352"/>
<text text-anchor="middle" x="227.5" y="-340" font-family="Helvetica,sans-Serif" font-size="10.00">IntegralOldVariablePostprocessor</text>
</a>
</g>
</g>
<!-- Node1&#45;&gt;Node18 -->
<g id="edge17" class="edge">
<title>Node1&#45;&gt;Node18</title>
<path fill="none" stroke="#63b8ff" d="M71.83,-416.57C88.56,-399.82 115.74,-375.38 144,-361.5 151.52,-357.81 159.78,-354.81 168.08,-352.4"/>
<polygon fill="#63b8ff" stroke="#63b8ff" points="69.6,-413.84 65.14,-423.45 74.62,-418.72 69.6,-413.84"/>
</g>
<!-- Node19 -->
<g id="node19" class="node">
<title>Node19</title>
<g id="a_node19"><a xlink:href="class_lin_log_penalty_dirichlet_b_c.html" target="_top" xlink:title=" ">
<polygon fill="white" stroke="#666666" points="291.5,-315 163.5,-315 163.5,-296 291.5,-296 291.5,-315"/>
<text text-anchor="middle" x="227.5" y="-303" font-family="Helvetica,sans-Serif" font-size="10.00">LinLogPenaltyDirichletBC</text>
</a>
</g>
</g>
<!-- Node1&#45;&gt;Node19 -->
<g id="edge18" class="edge">
<title>Node1&#45;&gt;Node19</title>
<path fill="none" stroke="#63b8ff" d="M65.33,-414.94C79.59,-389.93 107.7,-347.18 144,-324.5 149.86,-320.84 156.35,-317.88 163.04,-315.49"/>
<polygon fill="#63b8ff" stroke="#63b8ff" points="62.42,-412.97 60.66,-423.42 68.55,-416.35 62.42,-412.97"/>
</g>
<!-- Node20 -->
<g id="node20" class="node">
<title>Node20</title>
<g id="a_node20"><a xlink:href="class_precursor_decay.html" target="_top" xlink:title=" ">
<polygon fill="white" stroke="#666666" points="270.5,-278 184.5,-278 184.5,-259 270.5,-259 270.5,-278"/>
<text text-anchor="middle" x="227.5" y="-266" font-family="Helvetica,sans-Serif" font-size="10.00">PrecursorDecay</text>
</a>
</g>
</g>
<!-- Node1&#45;&gt;Node20 -->
<g id="edge19" class="edge">
<title>Node1&#45;&gt;Node20</title>
<path fill="none" stroke="#63b8ff" d="M61.53,-414.02C72.88,-381.84 99.42,-319.76 144,-287.5 155.67,-279.06 170.49,-274.29 184.35,-271.63"/>
<polygon fill="#63b8ff" stroke="#63b8ff" points="58.26,-412.74 58.39,-423.34 64.9,-414.97 58.26,-412.74"/>
</g>
<!-- Node21 -->
<g id="node21" class="node">
<title>Node21</title>
<g id="a_node21"><a xlink:href="class_precursor_source.html" target="_top" xlink:title=" ">
<polygon fill="white" stroke="#666666" points="272,-241 183,-241 183,-222 272,-222 272,-241"/>
<text text-anchor="middle" x="227.5" y="-229" font-family="Helvetica,sans-Serif" font-size="10.00">PrecursorSource</text>
</a>
</g>
</g>
<!-- Node1&#45;&gt;Node21 -->
<g id="edge20" class="edge">
<title>Node1&#45;&gt;Node21</title>
<path fill="none" stroke="#63b8ff" d="M58.95,-413.59C67.36,-375.06 90.8,-292.94 144,-250.5 154.92,-241.79 169.09,-236.93 182.6,-234.26"/>
<polygon fill="#63b8ff" stroke="#63b8ff" points="55.56,-412.68 56.99,-423.18 62.42,-414.08 55.56,-412.68"/>
</g>
<!-- Node22 -->
<g id="node22" class="node">
<title>Node22</title>
<g id="a_node22"><a xlink:href="class_scalar_advection_art_diff.html" target="_top" xlink:title=" ">
<polygon fill="white" stroke="#666666" points="285,-204 170,-204 170,-185 285,-185 285,-204"/>
<text text-anchor="middle" x="227.5" y="-192" font-family="Helvetica,sans-Serif" font-size="10.00">ScalarAdvectionArtDiff</text>
</a>
</g>
</g>
<!-- Node1&#45;&gt;Node22 -->
<g id="edge21" class="edge">
<title>Node1&#45;&gt;Node22</title>
<path fill="none" stroke="#63b8ff" d="M57.09,-413.47C62.64,-369.3 81.9,-266.57 144,-213.5 151.37,-207.2 160.43,-202.88 169.81,-199.95"/>
<polygon fill="#63b8ff" stroke="#63b8ff" points="53.63,-412.9 55.99,-423.23 60.59,-413.69 53.63,-412.9"/>
</g>
<!-- Node23 -->
<g id="node23" class="node">
<title>Node23</title>
<g id="a_node23"><a xlink:href="class_scalar_advection_art_diff_no_b_c_b_c.html" target="_top" xlink:title=" ">
<polygon fill="white" stroke="#666666" points="305,-167 150,-167 150,-148 305,-148 305,-167"/>
<text text-anchor="middle" x="227.5" y="-155" font-family="Helvetica,sans-Serif" font-size="10.00">ScalarAdvectionArtDiffNoBCBC</text>
</a>
</g>
</g>
<!-- Node1&#45;&gt;Node23 -->
<g id="edge22" class="edge">
<title>Node1&#45;&gt;Node23</title>
<path fill="none" stroke="#63b8ff" d="M55.73,-413.08C58.64,-363.52 73.02,-240.34 144,-176.5 148.04,-172.86 152.64,-169.88 157.55,-167.44"/>
<polygon fill="#63b8ff" stroke="#63b8ff" points="52.24,-412.84 55.27,-422.99 59.23,-413.17 52.24,-412.84"/>
</g>
<!-- Node24 -->
<g id="node24" class="node">
<title>Node24</title>
<g id="a_node24"><a xlink:href="class_scalar_transport_time_derivative.html" target="_top" xlink:title=" ">
<polygon fill="white" stroke="#666666" points="303,-130 152,-130 152,-111 303,-111 303,-130"/>
<text text-anchor="middle" x="227.5" y="-118" font-family="Helvetica,sans-Serif" font-size="10.00">ScalarTransportTimeDerivative</text>
</a>
</g>
</g>
<!-- Node1&#45;&gt;Node24 -->
<g id="edge23" class="edge">
<title>Node1&#45;&gt;Node24</title>
<path fill="none" stroke="#63b8ff" d="M54.58,-413.25C54.72,-358.82 63.06,-213.41 144,-138.5 147.44,-135.31 151.31,-132.64 155.45,-130.41"/>
<polygon fill="#63b8ff" stroke="#63b8ff" points="51.07,-413.02 54.65,-422.99 58.07,-412.96 51.07,-413.02"/>
</g>
<!-- Node26 -->
<g id="node26" class="node">
<title>Node26</title>
<g id="a_node26"><a xlink:href="class_sigma_r.html" target="_top" xlink:title=" ">
<polygon fill="white" stroke="#666666" points="253,-93 202,-93 202,-74 253,-74 253,-93"/>
<text text-anchor="middle" x="227.5" y="-81" font-family="Helvetica,sans-Serif" font-size="10.00">SigmaR</text>
</a>
</g>
</g>
<!-- Node1&#45;&gt;Node26 -->
<g id="edge25" class="edge">
<title>Node1&#45;&gt;Node26</title>
<path fill="none" stroke="#63b8ff" d="M57.75,-413.46C66.82,-347.34 97.84,-145.57 144,-101.5 159.27,-86.92 183.46,-83.05 201.71,-82.45"/>
<polygon fill="#63b8ff" stroke="#63b8ff" points="54.29,-412.91 56.43,-423.28 61.23,-413.84 54.29,-412.91"/>
</g>
<!-- Node27 -->
<g id="node27" class="node">
<title>Node27</title>
<g id="a_node27"><a xlink:href="class_transient_fission_heat_source.html" target="_top" xlink:title=" ">
<polygon fill="white" stroke="#666666" points="297.5,-56 157.5,-56 157.5,-37 297.5,-37 297.5,-56"/>
<text text-anchor="middle" x="227.5" y="-44" font-family="Helvetica,sans-Serif" font-size="10.00">TransientFissionHeatSource</text>
</a>
</g>
</g>
<!-- Node1&#45;&gt;Node27 -->
<g id="edge26" class="edge">
<title>Node1&#45;&gt;Node27</title>
<path fill="none" stroke="#63b8ff" d="M57.15,-413.47C64.82,-342.62 93.11,-114.32 144,-64.5 147.88,-60.71 152.35,-57.63 157.18,-55.15"/>
<polygon fill="#63b8ff" stroke="#63b8ff" points="53.68,-412.97 56.12,-423.28 60.64,-413.7 53.68,-412.97"/>
</g>
<!-- Node28 -->
<g id="node28" class="node">
<title>Node28</title>
<g id="a_node28"><a xlink:href="class_vacuum_conc_b_c.html" target="_top" xlink:title=" ">
<polygon fill="white" stroke="#666666" points="272,-19 183,-19 183,0 272,0 272,-19"/>
<text text-anchor="middle" x="227.5" y="-7" font-family="Helvetica,sans-Serif" font-size="10.00">VacuumConcBC</text>
</a>
</g>
</g>
<!-- Node1&#45;&gt;Node28 -->
<g id="edge27" class="edge">
<title>Node1&#45;&gt;Node28</title>
<path fill="none" stroke="#63b8ff" d="M56.67,-413.34C63.04,-337.83 88.39,-83.09 144,-27.5 154.16,-17.34 168.63,-12.33 182.63,-10"/>
<polygon fill="#63b8ff" stroke="#63b8ff" points="53.2,-412.82 55.87,-423.07 60.17,-413.39 53.2,-412.82"/>
</g>
<!-- Node11 -->
<g id="node11" class="node">
<title>Node11</title>
<g id="a_node11"><a xlink:href="class_elm_integ_tot_fiss_heat_postprocessor.html" target="_top" xlink:title=" ">
<polygon fill="white" stroke="#666666" points="519,-574 347,-574 347,-555 519,-555 519,-574"/>
<text text-anchor="middle" x="433" y="-562" font-family="Helvetica,sans-Serif" font-size="10.00">ElmIntegTotFissHeatPostprocessor</text>
</a>
</g>
</g>
<!-- Node10&#45;&gt;Node11 -->
<g id="edge10" class="edge">
<title>Node10&#45;&gt;Node11</title>
<path fill="none" stroke="#63b8ff" d="M314.74,-564.5C325.29,-564.5 336.06,-564.5 346.59,-564.5"/>
<polygon fill="#63b8ff" stroke="#63b8ff" points="314.92,-561 304.92,-564.5 314.92,-568 314.92,-561"/>
</g>
<!-- Node12 -->
<g id="node12" class="node">
<title>Node12</title>
<g id="a_node12"><a xlink:href="class_average_fission_heat.html" target="_top" xlink:title=" ">
<polygon fill="white" stroke="#666666" points="660,-574 555,-574 555,-555 660,-555 660,-574"/>
<text text-anchor="middle" x="607.5" y="-562" font-family="Helvetica,sans-Serif" font-size="10.00">AverageFissionHeat</text>
</a>
</g>
</g>
<!-- Node11&#45;&gt;Node12 -->
<g id="edge11" class="edge">
<title>Node11&#45;&gt;Node12</title>
<path fill="none" stroke="#63b8ff" d="M530.75,-564.5C538.96,-564.5 547.05,-564.5 554.71,-564.5"/>
<polygon fill="#63b8ff" stroke="#63b8ff" points="531.01,-561 521.01,-564.5 531.01,-568 531.01,-561"/>
</g>
<!-- Node25 -->
<g id="node25" class="node">
<title>Node25</title>
<g id="a_node25"><a xlink:href="class_nt_time_derivative.html" target="_top" xlink:title=" ">
<polygon fill="white" stroke="#666666" points="479,-130 387,-130 387,-111 479,-111 479,-130"/>
<text text-anchor="middle" x="433" y="-118" font-family="Helvetica,sans-Serif" font-size="10.00">NtTimeDerivative</text>
</a>
</g>
</g>
<!-- Node24&#45;&gt;Node25 -->
<g id="edge24" class="edge">
<title>Node24&#45;&gt;Node25</title>
<path fill="none" stroke="#63b8ff" d="M314.65,-120.5C339.35,-120.5 365.31,-120.5 386.51,-120.5"/>
<polygon fill="#63b8ff" stroke="#63b8ff" points="314.92,-117 304.92,-120.5 314.92,-124 314.92,-117"/>
</g>
</g>
</svg>
        <g id="navigator" transform="translate(0 0)" fill="#404254">
                <rect fill="#f2f5e9" fill-opacity="0.5" stroke="#606060" stroke-width=".5" x="0" y="0" width="60" height="60"/>
                <use id="zoomplus" xlink:href="#zoomPlus" x="17" y="9" onmousedown="handleZoom(evt,'in')"/>
                <use id="zoomminus" xlink:href="#zoomMin" x="42" y="9" onmousedown="handleZoom(evt,'out')"/>
                <use id="reset" xlink:href="#resetDef" x="30" y="36" onmousedown="handleReset()"/>
                <g id="arrowUp" xlink:href="#dirArrow" transform="translate(30 24)" onmousedown="handlePan(0,-1)">
                  <use xlink:href="#rim" fill="#404040">
                        <set attributeName="fill" to="#808080" begin="arrowUp.mouseover" end="arrowUp.mouseout"/>
                  </use>
                  <path fill="none" stroke="white" stroke-width="1.5" d="M0,-3.0v7 M-2.5,-0.5L0,-3.0L2.5,-0.5"/>
                </g>
                <g id="arrowRight" xlink:href="#dirArrow" transform="rotate(90) translate(36 -43)" onmousedown="handlePan(1,0)">
                  <use xlink:href="#rim" fill="#404040">
                        <set attributeName="fill" to="#808080" begin="arrowRight.mouseover" end="arrowRight.mouseout"/>
                  </use>
                  <path fill="none" stroke="white" stroke-width="1.5" d="M0,-3.0v7 M-2.5,-0.5L0,-3.0L2.5,-0.5"/>
                </g>
                <g id="arrowDown" xlink:href="#dirArrow" transform="rotate(180) translate(-30 -48)" onmousedown="handlePan(0,1)">
                  <use xlink:href="#rim" fill="#404040">
                        <set attributeName="fill" to="#808080" begin="arrowDown.mouseover" end="arrowDown.mouseout"/>
                  </use>
                  <path fill="none" stroke="white" stroke-width="1.5" d="M0,-3.0v7 M-2.5,-0.5L0,-3.0L2.5,-0.5"/>
                </g>
                <g id="arrowLeft" xlink:href="#dirArrow" transform="rotate(270) translate(-36 17)" onmousedown="handlePan(-1,0)">
                  <use xlink:href="#rim" fill="#404040">
                        <set attributeName="fill" to="#808080" begin="arrowLeft.mouseover" end="arrowLeft.mouseout"/>
                  </use>
                  <path fill="none" stroke="white" stroke-width="1.5" d="M0,-3.0v7 M-2.5,-0.5L0,-3.0L2.5,-0.5"/>
                </g>
        </g>
        <svg viewBox="0 0 15 15" width="100%" height="30px" preserveAspectRatio="xMaxYMin meet">
         <g id="arrow_out" transform="scale(0.3 0.3)">
          <a xlink:href="class_scalar_transport_base__inherit__graph_org.svg" target="_base">
           <rect id="button" ry="5" rx="5" y="6" x="6" height="38" width="38"
                fill="#f2f5e9" fill-opacity="0.5" stroke="#606060" stroke-width="1.0"/>
           <path id="arrow"
             d="M 11.500037,31.436501 C 11.940474,20.09759 22.043105,11.32322 32.158766,21.979434 L 37.068811,17.246167 C 37.068811,17.246167 37.088388,32 37.088388,32 L 22.160133,31.978069 C 22.160133,31.978069 26.997745,27.140456 26.997745,27.140456 C 18.528582,18.264221 13.291696,25.230495 11.500037,31.436501 z"
             style="fill:#404040;"/>
          </a>
         </g>
        </svg>
</svg>
