<?xml version="1.0" encoding="UTF-8" standalone="no"?>
<!DOCTYPE svg PUBLIC "-//W3C//DTD SVG 1.1//EN"
 "http://www.w3.org/Graphics/SVG/1.1/DTD/svg11.dtd">
<!-- Generated by graphviz version 12.2.0 (20241103.1931)
 -->
<!-- Title: ScalarTransportBase Pages: 1 -->
<svg width="666pt" height="841pt"
 viewBox="0.00 0.00 666.00 841.25" xmlns="http://www.w3.org/2000/svg" xmlns:xlink="http://www.w3.org/1999/xlink">
<g id="graph0" class="graph" transform="scale(1 1) rotate(0) translate(4 837.25)">
<title>ScalarTransportBase</title>
<!-- Node1 -->
<g id="Node000001" class="node">
<title>Node1</title>
<g id="a_Node000001"><a xlink:title=" ">
<polygon fill="#999999" stroke="#666666" points="107.5,-426.25 0,-426.25 0,-407 107.5,-407 107.5,-426.25"/>
<text text-anchor="middle" x="53.75" y="-412.75" font-family="Helvetica,sans-Serif" font-size="10.00">ScalarTransportBase</text>
</a>
</g>
</g>
<!-- Node2 -->
<g id="Node000002" class="node">
<title>Node2</title>
<g id="a_Node000002"><a xlink:href="class_coupled_fission_kernel.html" target="_top" xlink:title=" ">
<polygon fill="white" stroke="#666666" points="282.12,-833.25 171.62,-833.25 171.62,-814 282.12,-814 282.12,-833.25"/>
<text text-anchor="middle" x="226.88" y="-819.75" font-family="Helvetica,sans-Serif" font-size="10.00">CoupledFissionKernel</text>
</a>
</g>
</g>
<!-- Node1&#45;&gt;Node2 -->
<g id="edge1_Node000001_Node000002" class="edge">
<title>Node1&#45;&gt;Node2</title>
<g id="a_edge1_Node000001_Node000002"><a xlink:title=" ">
<path fill="none" stroke="#63b8ff" d="M56.63,-437.78C63.59,-511.12 90.23,-752.85 143.5,-805.62 151.09,-813.15 161.05,-817.84 171.41,-820.71"/>
<polygon fill="#63b8ff" stroke="#63b8ff" points="60.13,-437.61 55.73,-427.98 53.16,-438.25 60.13,-437.61"/>
</a>
</g>
</g>
<!-- Node3 -->
<g id="Node000003" class="node">
<title>Node3</title>
<g id="a_Node000003"><a xlink:href="class_coupled_scalar_advection.html" target="_top" xlink:title=" ">
<polygon fill="white" stroke="#666666" points="288.12,-796.25 165.62,-796.25 165.62,-777 288.12,-777 288.12,-796.25"/>
<text text-anchor="middle" x="226.88" y="-782.75" font-family="Helvetica,sans-Serif" font-size="10.00">CoupledScalarAdvection</text>
</a>
</g>
</g>
<!-- Node1&#45;&gt;Node3 -->
<g id="edge2_Node000001_Node000003" class="edge">
<title>Node1&#45;&gt;Node3</title>
<g id="a_edge2_Node000001_Node000003"><a xlink:title=" ">
<path fill="none" stroke="#63b8ff" d="M57.2,-437.96C65.53,-506.86 95.02,-721.66 143.5,-768.62 149.6,-774.53 157.16,-778.69 165.21,-781.58"/>
<polygon fill="#63b8ff" stroke="#63b8ff" points="60.68,-437.57 56.03,-428.05 53.72,-438.39 60.68,-437.57"/>
</a>
</g>
</g>
<!-- Node4 -->
<g id="Node000004" class="node">
<title>Node4</title>
<g id="a_Node000004"><a xlink:href="class_coupled_scalar_advection_no_b_c_b_c.html" target="_top" xlink:title=" ">
<polygon fill="white" stroke="#666666" points="308,-759.25 145.75,-759.25 145.75,-740 308,-740 308,-759.25"/>
<text text-anchor="middle" x="226.88" y="-745.75" font-family="Helvetica,sans-Serif" font-size="10.00">CoupledScalarAdvectionNoBCBC</text>
</a>
</g>
</g>
<!-- Node1&#45;&gt;Node4 -->
<g id="edge3_Node000001_Node000004" class="edge">
<title>Node1&#45;&gt;Node4</title>
<g id="a_edge3_Node000001_Node000004"><a xlink:title=" ">
<path fill="none" stroke="#63b8ff" d="M57.84,-437.77C67.6,-501.58 99.69,-690.34 143.5,-731.62 146.8,-734.74 150.51,-737.36 154.49,-739.56"/>
<polygon fill="#63b8ff" stroke="#63b8ff" points="61.31,-437.32 56.37,-427.95 54.39,-438.36 61.31,-437.32"/>
</a>
</g>
</g>
<!-- Node5 -->
<g id="Node000005" class="node">
<title>Node5</title>
<g id="a_Node000005"><a xlink:href="class_decay_heat_source.html" target="_top" xlink:title=" ">
<polygon fill="white" stroke="#666666" points="274.25,-722.25 179.5,-722.25 179.5,-703 274.25,-703 274.25,-722.25"/>
<text text-anchor="middle" x="226.88" y="-708.75" font-family="Helvetica,sans-Serif" font-size="10.00">DecayHeatSource</text>
</a>
</g>
</g>
<!-- Node1&#45;&gt;Node5 -->
<g id="edge4_Node000001_Node000005" class="edge">
<title>Node1&#45;&gt;Node5</title>
<g id="a_edge4_Node000001_Node000005"><a xlink:title=" ">
<path fill="none" stroke="#63b8ff" d="M54.79,-437.97C56.12,-490.18 67.17,-625.14 143.5,-694.62 153.24,-703.49 166.32,-708.35 179.17,-710.92"/>
<polygon fill="#63b8ff" stroke="#63b8ff" points="58.29,-438.03 54.65,-428.08 51.29,-438.13 58.29,-438.03"/>
</a>
</g>
</g>
<!-- Node6 -->
<g id="Node000006" class="node">
<title>Node6</title>
<g id="a_Node000006"><a xlink:href="class_delayed_neutron_source.html" target="_top" xlink:title=" ">
<polygon fill="white" stroke="#666666" points="284.75,-685.25 169,-685.25 169,-666 284.75,-666 284.75,-685.25"/>
<text text-anchor="middle" x="226.88" y="-671.75" font-family="Helvetica,sans-Serif" font-size="10.00">DelayedNeutronSource</text>
</a>
</g>
</g>
<!-- Node1&#45;&gt;Node6 -->
<g id="edge5_Node000001_Node000006" class="edge">
<title>Node1&#45;&gt;Node6</title>
<g id="a_edge5_Node000001_Node000006"><a xlink:title=" ">
<path fill="none" stroke="#63b8ff" d="M56,-437.97C59.96,-485.22 76.35,-599.14 143.5,-657.62 150.68,-663.87 159.52,-668.11 168.72,-670.95"/>
<polygon fill="#63b8ff" stroke="#63b8ff" points="59.49,-437.74 55.28,-428.01 52.51,-438.24 59.49,-437.74"/>
</a>
</g>
</g>
<!-- Node7 -->
<g id="Node000007" class="node">
<title>Node7</title>
<g id="a_Node000007"><a xlink:href="class_div_free_coupled_scalar_advection.html" target="_top" xlink:title=" ">
<polygon fill="white" stroke="#666666" points="305,-648.25 148.75,-648.25 148.75,-629 305,-629 305,-648.25"/>
<text text-anchor="middle" x="226.88" y="-634.75" font-family="Helvetica,sans-Serif" font-size="10.00">DivFreeCoupledScalarAdvection</text>
</a>
</g>
</g>
<!-- Node1&#45;&gt;Node7 -->
<g id="edge6_Node000001_Node000007" class="edge">
<title>Node1&#45;&gt;Node7</title>
<g id="a_edge6_Node000001_Node000007"><a xlink:title=" ">
<path fill="none" stroke="#63b8ff" d="M57.57,-437.81C64.31,-479.63 85.35,-572.85 143.5,-620.62 147.35,-623.78 151.62,-626.42 156.15,-628.62"/>
<polygon fill="#63b8ff" stroke="#63b8ff" points="61.06,-437.47 56.13,-428.09 54.13,-438.49 61.06,-437.47"/>
</a>
</g>
</g>
<!-- Node8 -->
<g id="Node000008" class="node">
<title>Node8</title>
<g id="a_Node000008"><a xlink:href="class_elm_integ_tot_fiss_postprocessor.html" target="_top" xlink:title=" ">
<polygon fill="white" stroke="#666666" points="302,-611.25 151.75,-611.25 151.75,-592 302,-592 302,-611.25"/>
<text text-anchor="middle" x="226.88" y="-597.75" font-family="Helvetica,sans-Serif" font-size="10.00">ElmIntegTotFissPostprocessor</text>
</a>
</g>
</g>
<!-- Node1&#45;&gt;Node8 -->
<g id="edge7_Node000001_Node000008" class="edge">
<title>Node1&#45;&gt;Node8</title>
<g id="a_edge7_Node000001_Node000008"><a xlink:title=" ">
<path fill="none" stroke="#63b8ff" d="M59.68,-437.39C69.31,-473.17 94.12,-546.18 143.5,-583.62 147.7,-586.81 152.35,-589.45 157.23,-591.65"/>
<polygon fill="#63b8ff" stroke="#63b8ff" points="63.12,-436.71 57.27,-427.88 56.34,-438.43 63.12,-436.71"/>
</a>
</g>
</g>
<!-- Node11 -->
<g id="Node000011" class="node">
<title>Node11</title>
<g id="a_Node000011"><a xlink:href="class_group_diffusion.html" target="_top" xlink:title=" ">
<polygon fill="white" stroke="#666666" points="266.75,-574.25 187,-574.25 187,-555 266.75,-555 266.75,-574.25"/>
<text text-anchor="middle" x="226.88" y="-560.75" font-family="Helvetica,sans-Serif" font-size="10.00">GroupDiffusion</text>
</a>
</g>
</g>
<!-- Node1&#45;&gt;Node11 -->
<g id="edge10_Node000001_Node000011" class="edge">
<title>Node1&#45;&gt;Node11</title>
<g id="a_edge10_Node000001_Node000011"><a xlink:title=" ">
<path fill="none" stroke="#63b8ff" d="M62.94,-437.26C75.62,-466.44 102.88,-519.22 143.5,-546.62 156.12,-555.14 172.08,-559.71 186.59,-562.13"/>
<polygon fill="#63b8ff" stroke="#63b8ff" points="66.19,-435.96 59.11,-428.08 59.73,-438.65 66.19,-435.96"/>
</a>
</g>
</g>
<!-- Node12 -->
<g id="Node000012" class="node">
<title>Node12</title>
<g id="a_Node000012"><a xlink:href="class_heat_precursor_decay.html" target="_top" xlink:title=" ">
<polygon fill="white" stroke="#666666" points="279.88,-537.25 173.88,-537.25 173.88,-518 279.88,-518 279.88,-537.25"/>
<text text-anchor="middle" x="226.88" y="-523.75" font-family="Helvetica,sans-Serif" font-size="10.00">HeatPrecursorDecay</text>
</a>
</g>
</g>
<!-- Node1&#45;&gt;Node12 -->
<g id="edge11_Node000001_Node000012" class="edge">
<title>Node1&#45;&gt;Node12</title>
<g id="a_edge11_Node000001_Node000012"><a xlink:title=" ">
<path fill="none" stroke="#63b8ff" d="M67.77,-436.02C83.23,-457.47 111.06,-491.4 143.5,-509.62 152.69,-514.79 163.22,-518.47 173.62,-521.1"/>
<polygon fill="#63b8ff" stroke="#63b8ff" points="70.66,-434.05 62.07,-427.86 64.92,-438.06 70.66,-434.05"/>
</a>
</g>
</g>
<!-- Node13 -->
<g id="Node000013" class="node">
<title>Node13</title>
<g id="a_Node000013"><a xlink:href="class_heat_precursor_source.html" target="_top" xlink:title=" ">
<polygon fill="white" stroke="#666666" points="281.75,-500.25 172,-500.25 172,-481 281.75,-481 281.75,-500.25"/>
<text text-anchor="middle" x="226.88" y="-486.75" font-family="Helvetica,sans-Serif" font-size="10.00">HeatPrecursorSource</text>
</a>
</g>
</g>
<!-- Node1&#45;&gt;Node13 -->
<g id="edge12_Node000001_Node000013" class="edge">
<title>Node1&#45;&gt;Node13</title>
<g id="a_edge12_Node000001_Node000013"><a xlink:title=" ">
<path fill="none" stroke="#63b8ff" d="M76.69,-433.53C93.96,-446.06 119.12,-462.63 143.5,-472.62 152.44,-476.29 162.25,-479.26 171.88,-481.65"/>
<polygon fill="#63b8ff" stroke="#63b8ff" points="78.82,-430.75 68.71,-427.6 74.65,-436.37 78.82,-430.75"/>
</a>
</g>
</g>
<!-- Node14 -->
<g id="Node000014" class="node">
<title>Node14</title>
<g id="a_Node000014"><a xlink:href="class_in_scatter.html" target="_top" xlink:title=" ">
<polygon fill="white" stroke="#666666" points="254.75,-463.25 199,-463.25 199,-444 254.75,-444 254.75,-463.25"/>
<text text-anchor="middle" x="226.88" y="-449.75" font-family="Helvetica,sans-Serif" font-size="10.00">InScatter</text>
</a>
</g>
</g>
<!-- Node1&#45;&gt;Node14 -->
<g id="edge13_Node000001_Node000014" class="edge">
<title>Node1&#45;&gt;Node14</title>
<g id="a_edge13_Node000001_Node000014"><a xlink:title=" ">
<path fill="none" stroke="#63b8ff" d="M112.44,-429.1C141.67,-435.42 175.78,-442.79 198.9,-447.79"/>
<polygon fill="#63b8ff" stroke="#63b8ff" points="113.5,-425.75 102.99,-427.06 112.02,-432.59 113.5,-425.75"/>
</a>
</g>
</g>
<!-- Node15 -->
<g id="Node000015" class="node">
<title>Node15</title>
<g id="a_Node000015"><a xlink:href="class_integral_new_variable_postprocessor.html" target="_top" xlink:title=" ">
<polygon fill="white" stroke="#666666" points="310.25,-426.25 143.5,-426.25 143.5,-407 310.25,-407 310.25,-426.25"/>
<text text-anchor="middle" x="226.88" y="-412.75" font-family="Helvetica,sans-Serif" font-size="10.00">IntegralNewVariablePostprocessor</text>
</a>
</g>
</g>
<!-- Node1&#45;&gt;Node15 -->
<g id="edge14_Node000001_Node000015" class="edge">
<title>Node1&#45;&gt;Node15</title>
<g id="a_edge14_Node000001_Node000015"><a xlink:title=" ">
<path fill="none" stroke="#63b8ff" d="M119.21,-416.62C127.04,-416.62 135.12,-416.62 143.17,-416.62"/>
<polygon fill="#63b8ff" stroke="#63b8ff" points="119.47,-413.13 109.47,-416.63 119.47,-420.13 119.47,-413.13"/>
</a>
</g>
</g>
<!-- Node16 -->
<g id="Node000016" class="node">
<title>Node16</title>
<g id="a_Node000016"><a xlink:href="class_integral_old_variable_postprocessor.html" target="_top" xlink:title=" ">
<polygon fill="white" stroke="#666666" points="307.62,-389.25 146.12,-389.25 146.12,-370 307.62,-370 307.62,-389.25"/>
<text text-anchor="middle" x="226.88" y="-375.75" font-family="Helvetica,sans-Serif" font-size="10.00">IntegralOldVariablePostprocessor</text>
</a>
</g>
</g>
<!-- Node1&#45;&gt;Node16 -->
<g id="edge15_Node000001_Node000016" class="edge">
<title>Node1&#45;&gt;Node16</title>
<g id="a_edge15_Node000001_Node000016"><a xlink:title=" ">
<path fill="none" stroke="#63b8ff" d="M112.57,-404.12C134.26,-399.43 158.62,-394.17 179.17,-389.72"/>
<polygon fill="#63b8ff" stroke="#63b8ff" points="112.02,-400.66 102.99,-406.19 113.5,-407.5 112.02,-400.66"/>
</a>
</g>
</g>
<!-- Node17 -->
<g id="Node000017" class="node">
<title>Node17</title>
<g id="a_Node000017"><a xlink:href="class_lin_log_penalty_dirichlet_b_c.html" target="_top" xlink:title=" ">
<polygon fill="white" stroke="#666666" points="290.38,-352.25 163.38,-352.25 163.38,-333 290.38,-333 290.38,-352.25"/>
<text text-anchor="middle" x="226.88" y="-338.75" font-family="Helvetica,sans-Serif" font-size="10.00">LinLogPenaltyDirichletBC</text>
</a>
</g>
</g>
<!-- Node1&#45;&gt;Node17 -->
<g id="edge16_Node000001_Node000017" class="edge">
<title>Node1&#45;&gt;Node17</title>
<g id="a_edge16_Node000001_Node000017"><a xlink:title=" ">
<path fill="none" stroke="#63b8ff" d="M76.69,-399.72C93.96,-387.19 119.12,-370.62 143.5,-360.62 151.09,-357.52 159.29,-354.91 167.49,-352.72"/>
<polygon fill="#63b8ff" stroke="#63b8ff" points="74.65,-396.88 68.71,-405.65 78.82,-402.5 74.65,-396.88"/>
</a>
</g>
</g>
<!-- Node18 -->
<g id="Node000018" class="node">
<title>Node18</title>
<g id="a_Node000018"><a xlink:href="class_precursor_decay.html" target="_top" xlink:title=" ">
<polygon fill="white" stroke="#666666" points="269.38,-315.25 184.38,-315.25 184.38,-296 269.38,-296 269.38,-315.25"/>
<text text-anchor="middle" x="226.88" y="-301.75" font-family="Helvetica,sans-Serif" font-size="10.00">PrecursorDecay</text>
</a>
</g>
</g>
<!-- Node1&#45;&gt;Node18 -->
<g id="edge17_Node000001_Node000018" class="edge">
<title>Node1&#45;&gt;Node18</title>
<g id="a_edge17_Node000001_Node000018"><a xlink:title=" ">
<path fill="none" stroke="#63b8ff" d="M67.77,-397.23C83.23,-375.78 111.06,-341.85 143.5,-323.62 155.75,-316.74 170.4,-312.49 183.92,-309.86"/>
<polygon fill="#63b8ff" stroke="#63b8ff" points="64.92,-395.19 62.07,-405.39 70.66,-399.2 64.92,-395.19"/>
</a>
</g>
</g>
<!-- Node19 -->
<g id="Node000019" class="node">
<title>Node19</title>
<g id="a_Node000019"><a xlink:href="class_precursor_source.html" target="_top" xlink:title=" ">
<polygon fill="white" stroke="#666666" points="271.25,-278.25 182.5,-278.25 182.5,-259 271.25,-259 271.25,-278.25"/>
<text text-anchor="middle" x="226.88" y="-264.75" font-family="Helvetica,sans-Serif" font-size="10.00">PrecursorSource</text>
</a>
</g>
</g>
<!-- Node1&#45;&gt;Node19 -->
<g id="edge18_Node000001_Node000019" class="edge">
<title>Node1&#45;&gt;Node19</title>
<g id="a_edge18_Node000001_Node000019"><a xlink:title=" ">
<path fill="none" stroke="#63b8ff" d="M62.94,-395.99C75.62,-366.81 102.88,-314.03 143.5,-286.62 154.91,-278.93 169.04,-274.46 182.37,-271.88"/>
<polygon fill="#63b8ff" stroke="#63b8ff" points="59.73,-394.6 59.11,-405.17 66.19,-397.29 59.73,-394.6"/>
</a>
</g>
</g>
<!-- Node20 -->
<g id="Node000020" class="node">
<title>Node20</title>
<g id="a_Node000020"><a xlink:href="class_scalar_advection_art_diff.html" target="_top" xlink:title=" ">
<polygon fill="white" stroke="#666666" points="284,-241.25 169.75,-241.25 169.75,-222 284,-222 284,-241.25"/>
<text text-anchor="middle" x="226.88" y="-227.75" font-family="Helvetica,sans-Serif" font-size="10.00">ScalarAdvectionArtDiff</text>
</a>
</g>
</g>
<!-- Node1&#45;&gt;Node20 -->
<g id="edge19_Node000001_Node000020" class="edge">
<title>Node1&#45;&gt;Node20</title>
<g id="a_edge19_Node000001_Node000020"><a xlink:title=" ">
<path fill="none" stroke="#63b8ff" d="M59.68,-395.86C69.31,-360.08 94.12,-287.07 143.5,-249.62 151.08,-243.88 160.12,-239.89 169.4,-237.13"/>
<polygon fill="#63b8ff" stroke="#63b8ff" points="56.34,-394.82 57.27,-405.37 63.12,-396.54 56.34,-394.82"/>
</a>
</g>
</g>
<!-- Node21 -->
<g id="Node000021" class="node">
<title>Node21</title>
<g id="a_Node000021"><a xlink:href="class_scalar_advection_art_diff_no_b_c_b_c.html" target="_top" xlink:title=" ">
<polygon fill="white" stroke="#666666" points="303.88,-204.25 149.88,-204.25 149.88,-185 303.88,-185 303.88,-204.25"/>
<text text-anchor="middle" x="226.88" y="-190.75" font-family="Helvetica,sans-Serif" font-size="10.00">ScalarAdvectionArtDiffNoBCBC</text>
</a>
</g>
</g>
<!-- Node1&#45;&gt;Node21 -->
<g id="edge20_Node000001_Node000021" class="edge">
<title>Node1&#45;&gt;Node21</title>
<g id="a_edge20_Node000001_Node000021"><a xlink:title=" ">
<path fill="none" stroke="#63b8ff" d="M57.57,-395.44C64.31,-353.62 85.35,-260.4 143.5,-212.62 147.35,-209.47 151.62,-206.83 156.15,-204.63"/>
<polygon fill="#63b8ff" stroke="#63b8ff" points="54.13,-394.76 56.13,-405.16 61.06,-395.78 54.13,-394.76"/>
</a>
</g>
</g>
<!-- Node22 -->
<g id="Node000022" class="node">
<title>Node22</title>
<g id="a_Node000022"><a xlink:href="class_scalar_transport_time_derivative.html" target="_top" xlink:title=" ">
<polygon fill="white" stroke="#666666" points="302,-167.25 151.75,-167.25 151.75,-148 302,-148 302,-167.25"/>
<text text-anchor="middle" x="226.88" y="-153.75" font-family="Helvetica,sans-Serif" font-size="10.00">ScalarTransportTimeDerivative</text>
</a>
</g>
</g>
<!-- Node1&#45;&gt;Node22 -->
<g id="edge21_Node000001_Node000022" class="edge">
<title>Node1&#45;&gt;Node22</title>
<g id="a_edge21_Node000001_Node000022"><a xlink:title=" ">
<path fill="none" stroke="#63b8ff" d="M56,-395.28C59.96,-348.03 76.35,-234.11 143.5,-175.62 147.14,-172.45 151.22,-169.8 155.55,-167.58"/>
<polygon fill="#63b8ff" stroke="#63b8ff" points="52.51,-395.01 55.28,-405.24 59.49,-395.51 52.51,-395.01"/>
</a>
</g>
</g>
<!-- Node24 -->
<g id="Node000024" class="node">
<title>Node24</title>
<g id="a_Node000024"><a xlink:href="class_sigma_r.html" target="_top" xlink:title=" ">
<polygon fill="white" stroke="#666666" points="252.12,-130.25 201.62,-130.25 201.62,-111 252.12,-111 252.12,-130.25"/>
<text text-anchor="middle" x="226.88" y="-116.75" font-family="Helvetica,sans-Serif" font-size="10.00">SigmaR</text>
</a>
</g>
</g>
<!-- Node1&#45;&gt;Node24 -->
<g id="edge23_Node000001_Node000024" class="edge">
<title>Node1&#45;&gt;Node24</title>
<g id="a_edge23_Node000001_Node000024"><a xlink:title=" ">
<path fill="none" stroke="#63b8ff" d="M54.79,-395.28C56.12,-343.07 67.17,-208.11 143.5,-138.62 159.09,-124.44 183.2,-120.51 201.32,-119.8"/>
<polygon fill="#63b8ff" stroke="#63b8ff" points="51.29,-395.12 54.65,-405.17 58.29,-395.22 51.29,-395.12"/>
</a>
</g>
</g>
<!-- Node25 -->
<g id="Node000025" class="node">
<title>Node25</title>
<g id="a_Node000025"><a xlink:href="class_total_neutron_leakage.html" target="_top" xlink:title=" ">
<polygon fill="white" stroke="#666666" points="281.75,-93.25 172,-93.25 172,-74 281.75,-74 281.75,-93.25"/>
<text text-anchor="middle" x="226.88" y="-79.75" font-family="Helvetica,sans-Serif" font-size="10.00">TotalNeutronLeakage</text>
</a>
</g>
</g>
<!-- Node1&#45;&gt;Node25 -->
<g id="edge24_Node000001_Node000025" class="edge">
<title>Node1&#45;&gt;Node25</title>
<g id="a_edge24_Node000001_Node000025"><a xlink:title=" ">
<path fill="none" stroke="#63b8ff" d="M57.84,-395.48C67.6,-331.67 99.69,-142.91 143.5,-101.62 151.28,-94.3 161.32,-89.68 171.7,-86.83"/>
<polygon fill="#63b8ff" stroke="#63b8ff" points="54.39,-394.89 56.37,-405.3 61.31,-395.93 54.39,-394.89"/>
</a>
</g>
</g>
<!-- Node26 -->
<g id="Node000026" class="node">
<title>Node26</title>
<g id="a_Node000026"><a xlink:href="class_transient_fission_heat_source.html" target="_top" xlink:title=" ">
<polygon fill="white" stroke="#666666" points="296.75,-56.25 157,-56.25 157,-37 296.75,-37 296.75,-56.25"/>
<text text-anchor="middle" x="226.88" y="-42.75" font-family="Helvetica,sans-Serif" font-size="10.00">TransientFissionHeatSource</text>
</a>
</g>
</g>
<!-- Node1&#45;&gt;Node26 -->
<g id="edge25_Node000001_Node000026" class="edge">
<title>Node1&#45;&gt;Node26</title>
<g id="a_edge25_Node000001_Node000026"><a xlink:title=" ">
<path fill="none" stroke="#63b8ff" d="M57.2,-395.29C65.53,-326.39 95.02,-111.59 143.5,-64.62 147.39,-60.86 151.88,-57.8 156.71,-55.33"/>
<polygon fill="#63b8ff" stroke="#63b8ff" points="53.72,-394.86 56.03,-405.2 60.68,-395.68 53.72,-394.86"/>
</a>
</g>
</g>
<!-- Node27 -->
<g id="Node000027" class="node">
<title>Node27</title>
<g id="a_Node000027"><a xlink:href="class_vacuum_conc_b_c.html" target="_top" xlink:title=" ">
<polygon fill="white" stroke="#666666" points="270.88,-19.25 182.88,-19.25 182.88,0 270.88,0 270.88,-19.25"/>
<text text-anchor="middle" x="226.88" y="-5.75" font-family="Helvetica,sans-Serif" font-size="10.00">VacuumConcBC</text>
</a>
</g>
</g>
<!-- Node1&#45;&gt;Node27 -->
<g id="edge26_Node000001_Node000027" class="edge">
<title>Node1&#45;&gt;Node27</title>
<g id="a_edge26_Node000001_Node000027"><a xlink:title=" ">
<path fill="none" stroke="#63b8ff" d="M56.63,-395.47C63.59,-322.13 90.23,-80.4 143.5,-27.62 153.79,-17.42 168.45,-12.42 182.55,-10.12"/>
<polygon fill="#63b8ff" stroke="#63b8ff" points="53.16,-395 55.73,-405.27 60.13,-395.64 53.16,-395"/>
</a>
</g>
</g>
<!-- Node9 -->
<g id="Node000009" class="node">
<title>Node9</title>
<g id="a_Node000009"><a xlink:href="class_elm_integ_tot_fiss_heat_postprocessor.html" target="_top" xlink:title=" ">
<polygon fill="white" stroke="#666666" points="517.5,-611.25 346.25,-611.25 346.25,-592 517.5,-592 517.5,-611.25"/>
<text text-anchor="middle" x="431.88" y="-597.75" font-family="Helvetica,sans-Serif" font-size="10.00">ElmIntegTotFissHeatPostprocessor</text>
</a>
</g>
</g>
<!-- Node8&#45;&gt;Node9 -->
<g id="edge8_Node000008_Node000009" class="edge">
<title>Node8&#45;&gt;Node9</title>
<g id="a_edge8_Node000008_Node000009"><a xlink:title=" ">
<path fill="none" stroke="#63b8ff" d="M313.72,-601.62C324.34,-601.62 335.19,-601.62 345.8,-601.62"/>
<polygon fill="#63b8ff" stroke="#63b8ff" points="313.83,-598.13 303.83,-601.63 313.83,-605.13 313.83,-598.13"/>
</a>
</g>
</g>
<!-- Node10 -->
<g id="Node000010" class="node">
<title>Node10</title>
<g id="a_Node000010"><a xlink:href="class_average_fission_heat.html" target="_top" xlink:title=" ">
<polygon fill="white" stroke="#666666" points="658,-611.25 553.5,-611.25 553.5,-592 658,-592 658,-611.25"/>
<text text-anchor="middle" x="605.75" y="-597.75" font-family="Helvetica,sans-Serif" font-size="10.00">AverageFissionHeat</text>
</a>
</g>
</g>
<!-- Node9&#45;&gt;Node10 -->
<g id="edge9_Node000009_Node000010" class="edge">
<title>Node9&#45;&gt;Node10</title>
<g id="a_edge9_Node000009_Node000010"><a xlink:title=" ">
<path fill="none" stroke="#63b8ff" d="M529.2,-601.62C537.52,-601.62 545.71,-601.62 553.44,-601.62"/>
<polygon fill="#63b8ff" stroke="#63b8ff" points="529.32,-598.13 519.32,-601.63 529.32,-605.13 529.32,-598.13"/>
</a>
</g>
</g>
<!-- Node23 -->
<g id="Node000023" class="node">
<title>Node23</title>
<g id="a_Node000023"><a xlink:href="class_nt_time_derivative.html" target="_top" xlink:title=" ">
<polygon fill="white" stroke="#666666" points="477.75,-167.25 386,-167.25 386,-148 477.75,-148 477.75,-167.25"/>
<text text-anchor="middle" x="431.88" y="-153.75" font-family="Helvetica,sans-Serif" font-size="10.00">NtTimeDerivative</text>
</a>
</g>
</g>
<!-- Node22&#45;&gt;Node23 -->
<g id="edge22_Node000022_Node000023" class="edge">
<title>Node22&#45;&gt;Node23</title>
<g id="a_edge22_Node000022_Node000023"><a xlink:title=" ">
<path fill="none" stroke="#63b8ff" d="M313.58,-157.62C338.36,-157.62 364.42,-157.62 385.67,-157.62"/>
<polygon fill="#63b8ff" stroke="#63b8ff" points="313.83,-154.13 303.83,-157.63 313.83,-161.13 313.83,-154.13"/>
</a>
</g>
</g>
</g>
</svg>
