<?xml version="1.0" encoding="UTF-8" standalone="no"?>
<!DOCTYPE svg PUBLIC "-//W3C//DTD SVG 1.1//EN"
 "http://www.w3.org/Graphics/SVG/1.1/DTD/svg11.dtd">
<!-- Generated by graphviz version 7.0.4 (20221203.1631)
 -->
<!-- Title: IntegralNewVariablePostprocessor Pages: 1 -->
<svg width="419pt" height="93pt"
 viewBox="0.00 0.00 419.00 93.00" xmlns="http://www.w3.org/2000/svg" xmlns:xlink="http://www.w3.org/1999/xlink">
<g id="graph0" class="graph" transform="scale(1 1) rotate(0) translate(4 89)">
<title>IntegralNewVariablePostprocessor</title>
<!-- Node1 -->
<g id="node1" class="node">
<title>Node1</title>
<g id="a_node1"><a xlink:title=" ">
<polygon fill="#999999" stroke="#666666" points="303,-19 136,-19 136,0 303,0 303,-19"/>
<text text-anchor="middle" x="219.5" y="-7" font-family="Helvetica,sans-Serif" font-size="10.00">IntegralNewVariablePostprocessor</text>
</a>
</g>
</g>
<!-- Node2 -->
<g id="node2" class="node">
<title>Node2</title>
<g id="a_node2"><a xlink:title=" ">
<polygon fill="white" stroke="#666666" points="147,-79.5 0,-79.5 0,-60.5 147,-60.5 147,-79.5"/>
<text text-anchor="middle" x="73.5" y="-67.5" font-family="Helvetica,sans-Serif" font-size="10.00">ElementIntegralPostprocessor</text>
</a>
</g>
</g>
<!-- Node2&#45;&gt;Node1 -->
<g id="edge1" class="edge">
<title>Node2&#45;&gt;Node1</title>
<path fill="none" stroke="#63b8ff" d="M106.04,-55.96C133.75,-44.86 172.81,-29.21 197.12,-19.47"/>
<polygon fill="#63b8ff" stroke="#63b8ff" points="105.06,-52.58 97.08,-59.55 107.66,-59.08 105.06,-52.58"/>
</g>
<!-- Node3 -->
<g id="node3" class="node">
<title>Node3</title>
<g id="a_node3"><a xlink:href="class_scalar_transport_base.html" target="_top" xlink:title=" ">
<polygon fill="white" stroke="#666666" points="273.5,-79.5 165.5,-79.5 165.5,-60.5 273.5,-60.5 273.5,-79.5"/>
<text text-anchor="middle" x="219.5" y="-67.5" font-family="Helvetica,sans-Serif" font-size="10.00">ScalarTransportBase</text>
</a>
</g>
</g>
<!-- Node3&#45;&gt;Node1 -->
<g id="edge2" class="edge">
<title>Node3&#45;&gt;Node1</title>
<path fill="none" stroke="#63b8ff" d="M219.5,-49.16C219.5,-38.95 219.5,-27.04 219.5,-19.17"/>
<polygon fill="#63b8ff" stroke="#63b8ff" points="216,-48.85 219.5,-58.85 223,-48.85 216,-48.85"/>
</g>
<!-- Node4 -->
<g id="node4" class="node">
<title>Node4</title>
<g id="a_node4"><a xlink:title=" ">
<polygon fill="white" stroke="#666666" points="411,-85 292,-85 292,-55 411,-55 411,-85"/>
<text text-anchor="start" x="300" y="-73" font-family="Helvetica,sans-Serif" font-size="10.00">MooseVariableInterface</text>
<text text-anchor="middle" x="351.5" y="-62" font-family="Helvetica,sans-Serif" font-size="10.00">&lt; Real &gt;</text>
</a>
</g>
</g>
<!-- Node4&#45;&gt;Node1 -->
<g id="edge3" class="edge">
<title>Node4&#45;&gt;Node1</title>
<path fill="none" stroke="#63b8ff" d="M308.55,-49.96C285.31,-39.67 257.71,-27.43 239.46,-19.35"/>
<polygon fill="#63b8ff" stroke="#63b8ff" points="306.93,-53.07 317.49,-53.93 309.76,-46.67 306.93,-53.07"/>
</g>
</g>
</svg>
