<?xml version="1.0" encoding="UTF-8" standalone="no"?>
<!DOCTYPE svg PUBLIC "-//W3C//DTD SVG 1.1//EN"
 "http://www.w3.org/Graphics/SVG/1.1/DTD/svg11.dtd">
<!-- Generated by graphviz version 12.2.0 (20241103.1931)
 -->
<!-- Title: ScalarTransportBase Pages: 1 -->
<!--zoomable 1026 -->

<svg id="main" version="1.1" xmlns="http://www.w3.org/2000/svg" xmlns:xlink="http://www.w3.org/1999/xlink" xml:space="preserve" onload="init(evt)">

<style type="text/css"><![CDATA[
.node, .edge {opacity: 0.7;}
.node.selected, .edge.selected {opacity: 1;}
.edge:hover path { stroke: red; }
.edge:hover polygon { stroke: red; fill: red; }
]]></style>

<defs>
  <circle id="rim" cx="0" cy="0" r="7"/>
  <circle id="rim2" cx="0" cy="0" r="3.5"/>
  <g id="zoomPlus">
    <use xlink:href="#rim" fill="#404040"><set attributeName="fill" to="#808080" begin="zoomplus.mouseover" end="zoomplus.mouseout"/></use>
    <path d="M-4,0h8M0,-4v8" fill="none" stroke="white" stroke-width="1.5" pointer-events="none"/>
  </g>
  <g id="zoomMin">
    <use xlink:href="#rim" fill="#404040"><set attributeName="fill" to="#808080" begin="zoomminus.mouseover" end="zoomminus.mouseout"/></use>
    <path d="M-4,0h8" fill="none" stroke="white" stroke-width="1.5" pointer-events="none"/>
  </g>
  <g id="arrowUp" transform="translate(30 24)">
    <use xlink:href="#rim"/>
    <path pointer-events="none" fill="none" stroke="white" stroke-width="1.5" d="M0,-3.0v7 M-2.5,-0.5L0,-3.0L2.5,-0.5"/>
  </g>
  <g id="arrowRight" transform="rotate(90) translate(36 -43)">
    <use xlink:href="#rim"/>
    <path pointer-events="none" fill="none" stroke="white" stroke-width="1.5" d="M0,-3.0v7 M-2.5,-0.5L0,-3.0L2.5,-0.5"/>
  </g>
  <g id="arrowDown" transform="rotate(180) translate(-30 -48)">
    <use xlink:href="#rim"/>
    <path pointer-events="none" fill="none" stroke="white" stroke-width="1.5" d="M0,-3.0v7 M-2.5,-0.5L0,-3.0L2.5,-0.5"/>
  </g>
  <g id="arrowLeft" transform="rotate(270) translate(-36 17)">
    <use xlink:href="#rim"/>
    <path pointer-events="none" fill="none" stroke="white" stroke-width="1.5" d="M0,-3.0v7 M-2.5,-0.5L0,-3.0L2.5,-0.5"/>
  </g>
  <g id="resetDef">
    <use xlink:href="#rim2" fill="#404040"><set attributeName="fill" to="#808080" begin="reset.mouseover" end="reset.mouseout"/></use>
  </g>
</defs>
<script type="application/ecmascript">
var viewWidth = 666;
var viewHeight = 1026;
var sectionId = 'dynsection-0';
</script>
<script type="application/ecmascript" xlink:href="svg.min.js"/>
<svg id="graph" class="graph">
<g id="viewport">
<title>ScalarTransportBase</title>
<!-- Node1 -->
<g id="Node000001" class="node">
<title>Node1</title>
<g id="a_Node000001"><a xlink:title=" ">
<polygon fill="#999999" stroke="#666666" points="107.5,-518.25 0,-518.25 0,-499 107.5,-499 107.5,-518.25"/>
<text text-anchor="middle" x="53.75" y="-504.75" font-family="Helvetica,sans-Serif" font-size="10.00">ScalarTransportBase</text>
</a>
</g>
</g>
<!-- Node2 -->
<g id="Node000002" class="node">
<title>Node2</title>
<g id="a_Node000002"><a xlink:href="class_coupled_fission_kernel.html" target="_top" xlink:title=" ">
<polygon fill="white" stroke="#666666" points="282.12,-1018.25 171.62,-1018.25 171.62,-999 282.12,-999 282.12,-1018.25"/>
<text text-anchor="middle" x="226.88" y="-1004.75" font-family="Helvetica,sans-Serif" font-size="10.00">CoupledFissionKernel</text>
</a>
</g>
</g>
<!-- Node1&#45;&gt;Node2 -->
<g id="edge1_Node000001_Node000002" class="edge">
<title>Node1&#45;&gt;Node2</title>
<g id="a_edge1_Node000001_Node000002"><a xlink:title=" ">
<path fill="none" stroke="#63b8ff" d="M55.64,-530.03C59.58,-614.49 78.29,-923.22 143.5,-990.62 150.93,-998.31 160.82,-1003.07 171.17,-1005.95"/>
<polygon fill="#63b8ff" stroke="#63b8ff" points="59.14,-530.02 55.2,-520.18 52.15,-530.33 59.14,-530.02"/>
</a>
</g>
</g>
<!-- Node3 -->
<g id="Node000003" class="node">
<title>Node3</title>
<g id="a_Node000003"><a xlink:href="class_coupled_scalar_advection.html" target="_top" xlink:title=" ">
<polygon fill="white" stroke="#666666" points="288.12,-981.25 165.62,-981.25 165.62,-962 288.12,-962 288.12,-981.25"/>
<text text-anchor="middle" x="226.88" y="-967.75" font-family="Helvetica,sans-Serif" font-size="10.00">CoupledScalarAdvection</text>
</a>
</g>
</g>
<!-- Node1&#45;&gt;Node3 -->
<g id="edge2_Node000001_Node000003" class="edge">
<title>Node1&#45;&gt;Node3</title>
<g id="a_edge2_Node000001_Node000003"><a xlink:title=" ">
<path fill="none" stroke="#63b8ff" d="M55.97,-529.67C61.03,-609.48 82.99,-892 143.5,-953.62 149.55,-959.79 157.19,-964.07 165.36,-967"/>
<polygon fill="#63b8ff" stroke="#63b8ff" points="59.49,-529.95 55.39,-520.18 52.51,-530.38 59.49,-529.95"/>
</a>
</g>
</g>
<!-- Node4 -->
<g id="Node000004" class="node">
<title>Node4</title>
<g id="a_Node000004"><a xlink:href="class_coupled_scalar_advection_no_b_c_b_c.html" target="_top" xlink:title=" ">
<polygon fill="white" stroke="#666666" points="308,-944.25 145.75,-944.25 145.75,-925 308,-925 308,-944.25"/>
<text text-anchor="middle" x="226.88" y="-930.75" font-family="Helvetica,sans-Serif" font-size="10.00">CoupledScalarAdvectionNoBCBC</text>
</a>
</g>
</g>
<!-- Node1&#45;&gt;Node4 -->
<g id="edge3_Node000001_Node000004" class="edge">
<title>Node1&#45;&gt;Node4</title>
<g id="a_edge3_Node000001_Node000004"><a xlink:title=" ">
<path fill="none" stroke="#63b8ff" d="M56.39,-529.83C62.7,-605.53 87.8,-860.88 143.5,-916.62 146.6,-919.73 150.11,-922.36 153.89,-924.57"/>
<polygon fill="#63b8ff" stroke="#63b8ff" points="59.9,-529.77 55.61,-520.08 52.92,-530.33 59.9,-529.77"/>
</a>
</g>
</g>
<!-- Node5 -->
<g id="Node000005" class="node">
<title>Node5</title>
<g id="a_Node000005"><a xlink:href="class_decay_heat_source.html" target="_top" xlink:title=" ">
<polygon fill="white" stroke="#666666" points="274.25,-907.25 179.5,-907.25 179.5,-888 274.25,-888 274.25,-907.25"/>
<text text-anchor="middle" x="226.88" y="-893.75" font-family="Helvetica,sans-Serif" font-size="10.00">DecayHeatSource</text>
</a>
</g>
</g>
<!-- Node1&#45;&gt;Node5 -->
<g id="edge4_Node000001_Node000005" class="edge">
<title>Node1&#45;&gt;Node5</title>
<g id="a_edge4_Node000001_Node000005"><a xlink:title=" ">
<path fill="none" stroke="#63b8ff" d="M56.88,-529.74C64.47,-600.8 92.53,-829.65 143.5,-879.62 153.01,-888.95 166.17,-893.92 179.18,-896.45"/>
<polygon fill="#63b8ff" stroke="#63b8ff" points="60.41,-529.8 55.89,-520.22 53.44,-530.53 60.41,-529.8"/>
</a>
</g>
</g>
<!-- Node6 -->
<g id="Node000006" class="node">
<title>Node6</title>
<g id="a_Node000006"><a xlink:href="class_delayed_neutron_source.html" target="_top" xlink:title=" ">
<polygon fill="white" stroke="#666666" points="284.75,-870.25 169,-870.25 169,-851 284.75,-851 284.75,-870.25"/>
<text text-anchor="middle" x="226.88" y="-856.75" font-family="Helvetica,sans-Serif" font-size="10.00">DelayedNeutronSource</text>
</a>
</g>
</g>
<!-- Node1&#45;&gt;Node6 -->
<g id="edge5_Node000001_Node000006" class="edge">
<title>Node1&#45;&gt;Node6</title>
<g id="a_edge5_Node000001_Node000006"><a xlink:title=" ">
<path fill="none" stroke="#63b8ff" d="M57.48,-529.75C66.47,-596.08 97.27,-798.41 143.5,-842.62 150.48,-849.3 159.34,-853.73 168.64,-856.63"/>
<polygon fill="#63b8ff" stroke="#63b8ff" points="61,-529.65 56.21,-520.2 54.06,-530.57 61,-529.65"/>
</a>
</g>
</g>
<!-- Node7 -->
<g id="Node000007" class="node">
<title>Node7</title>
<g id="a_Node000007"><a xlink:href="class_delayed_neutron_source_aux.html" target="_top" xlink:title=" ">
<polygon fill="white" stroke="#666666" points="293,-833.25 160.75,-833.25 160.75,-814 293,-814 293,-833.25"/>
<text text-anchor="middle" x="226.88" y="-819.75" font-family="Helvetica,sans-Serif" font-size="10.00">DelayedNeutronSourceAux</text>
</a>
</g>
</g>
<!-- Node1&#45;&gt;Node7 -->
<g id="edge6_Node000001_Node000007" class="edge">
<title>Node1&#45;&gt;Node7</title>
<g id="a_edge6_Node000001_Node000007"><a xlink:title=" ">
<path fill="none" stroke="#63b8ff" d="M54.28,-529.94C54.32,-584.54 62.41,-730.41 143.5,-805.62 148.44,-810.2 154.26,-813.72 160.49,-816.4"/>
<polygon fill="#63b8ff" stroke="#63b8ff" points="57.78,-530.2 54.38,-520.16 50.78,-530.13 57.78,-530.2"/>
</a>
</g>
</g>
<!-- Node8 -->
<g id="Node000008" class="node">
<title>Node8</title>
<g id="a_Node000008"><a xlink:href="class_div_free_coupled_scalar_advection.html" target="_top" xlink:title=" ">
<polygon fill="white" stroke="#666666" points="305,-796.25 148.75,-796.25 148.75,-777 305,-777 305,-796.25"/>
<text text-anchor="middle" x="226.88" y="-782.75" font-family="Helvetica,sans-Serif" font-size="10.00">DivFreeCoupledScalarAdvection</text>
</a>
</g>
</g>
<!-- Node1&#45;&gt;Node8 -->
<g id="edge7_Node000001_Node000008" class="edge">
<title>Node1&#45;&gt;Node8</title>
<g id="a_edge7_Node000001_Node000008"><a xlink:title=" ">
<path fill="none" stroke="#63b8ff" d="M55.34,-529.95C57.92,-579.78 71.64,-704.51 143.5,-768.62 147,-771.74 150.9,-774.36 155.07,-776.56"/>
<polygon fill="#63b8ff" stroke="#63b8ff" points="58.85,-530.09 54.94,-520.24 51.85,-530.37 58.85,-530.09"/>
</a>
</g>
</g>
<!-- Node9 -->
<g id="Node000009" class="node">
<title>Node9</title>
<g id="a_Node000009"><a xlink:href="class_elm_integ_tot_fiss_postprocessor.html" target="_top" xlink:title=" ">
<polygon fill="white" stroke="#666666" points="302,-759.25 151.75,-759.25 151.75,-740 302,-740 302,-759.25"/>
<text text-anchor="middle" x="226.88" y="-745.75" font-family="Helvetica,sans-Serif" font-size="10.00">ElmIntegTotFissPostprocessor</text>
</a>
</g>
</g>
<!-- Node1&#45;&gt;Node9 -->
<g id="edge8_Node000001_Node000009" class="edge">
<title>Node1&#45;&gt;Node9</title>
<g id="a_edge8_Node000001_Node000009"><a xlink:title=" ">
<path fill="none" stroke="#63b8ff" d="M56.7,-529.89C62,-574.56 80.75,-678.38 143.5,-731.62 147.18,-734.75 151.29,-737.37 155.64,-739.56"/>
<polygon fill="#63b8ff" stroke="#63b8ff" points="60.19,-529.58 55.66,-520.01 53.23,-530.32 60.19,-529.58"/>
</a>
</g>
</g>
<!-- Node12 -->
<g id="Node000012" class="node">
<title>Node12</title>
<g id="a_Node000012"><a xlink:href="class_group_diffusion.html" target="_top" xlink:title=" ">
<polygon fill="white" stroke="#666666" points="266.75,-722.25 187,-722.25 187,-703 266.75,-703 266.75,-722.25"/>
<text text-anchor="middle" x="226.88" y="-708.75" font-family="Helvetica,sans-Serif" font-size="10.00">GroupDiffusion</text>
</a>
</g>
</g>
<!-- Node1&#45;&gt;Node12 -->
<g id="edge11_Node000001_Node000012" class="edge">
<title>Node1&#45;&gt;Node12</title>
<g id="a_edge11_Node000001_Node000012"><a xlink:title=" ">
<path fill="none" stroke="#63b8ff" d="M58.55,-529.82C66.72,-568.85 89.73,-651.99 143.5,-694.62 155.66,-704.27 171.87,-709.01 186.7,-711.26"/>
<polygon fill="#63b8ff" stroke="#63b8ff" points="62,-529.23 56.66,-520.08 55.13,-530.57 62,-529.23"/>
</a>
</g>
</g>
<!-- Node13 -->
<g id="Node000013" class="node">
<title>Node13</title>
<g id="a_Node000013"><a xlink:href="class_group_drift.html" target="_top" xlink:title=" ">
<polygon fill="white" stroke="#666666" points="257,-685.25 196.75,-685.25 196.75,-666 257,-666 257,-685.25"/>
<text text-anchor="middle" x="226.88" y="-671.75" font-family="Helvetica,sans-Serif" font-size="10.00">GroupDrift</text>
</a>
</g>
</g>
<!-- Node1&#45;&gt;Node13 -->
<g id="edge12_Node000001_Node000013" class="edge">
<title>Node1&#45;&gt;Node13</title>
<g id="a_edge12_Node000001_Node000013"><a xlink:title=" ">
<path fill="none" stroke="#63b8ff" d="M61.12,-529.44C72.24,-562.14 98.44,-625.16 143.5,-657.62 158.82,-668.66 179.62,-673.15 196.48,-674.88"/>
<polygon fill="#63b8ff" stroke="#63b8ff" points="64.46,-528.39 58.05,-519.95 57.8,-530.55 64.46,-528.39"/>
</a>
</g>
</g>
<!-- Node14 -->
<g id="Node000014" class="node">
<title>Node14</title>
<g id="a_Node000014"><a xlink:href="class_group_drift_aux.html" target="_top" xlink:title=" ">
<polygon fill="white" stroke="#666666" points="265.25,-648.25 188.5,-648.25 188.5,-629 265.25,-629 265.25,-648.25"/>
<text text-anchor="middle" x="226.88" y="-634.75" font-family="Helvetica,sans-Serif" font-size="10.00">GroupDriftAux</text>
</a>
</g>
</g>
<!-- Node1&#45;&gt;Node14 -->
<g id="edge13_Node000001_Node000014" class="edge">
<title>Node1&#45;&gt;Node14</title>
<g id="a_edge13_Node000001_Node000014"><a xlink:title=" ">
<path fill="none" stroke="#63b8ff" d="M64.91,-528.61C78.97,-554.13 106.83,-597.74 143.5,-620.62 156.79,-628.92 173.36,-633.42 188.15,-635.86"/>
<polygon fill="#63b8ff" stroke="#63b8ff" points="68.08,-527.12 60.3,-519.92 61.9,-530.4 68.08,-527.12"/>
</a>
</g>
</g>
<!-- Node15 -->
<g id="Node000015" class="node">
<title>Node15</title>
<g id="a_Node000015"><a xlink:href="class_heat_precursor_decay.html" target="_top" xlink:title=" ">
<polygon fill="white" stroke="#666666" points="279.88,-611.25 173.88,-611.25 173.88,-592 279.88,-592 279.88,-611.25"/>
<text text-anchor="middle" x="226.88" y="-597.75" font-family="Helvetica,sans-Serif" font-size="10.00">HeatPrecursorDecay</text>
</a>
</g>
</g>
<!-- Node1&#45;&gt;Node15 -->
<g id="edge14_Node000001_Node000015" class="edge">
<title>Node1&#45;&gt;Node15</title>
<g id="a_edge14_Node000001_Node000015"><a xlink:title=" ">
<path fill="none" stroke="#63b8ff" d="M71.12,-526.85C87.68,-544.13 114.85,-569.49 143.5,-583.62 152.82,-588.22 163.31,-591.66 173.6,-594.22"/>
<polygon fill="#63b8ff" stroke="#63b8ff" points="73.89,-524.69 64.51,-519.76 68.77,-529.47 73.89,-524.69"/>
</a>
</g>
</g>
<!-- Node16 -->
<g id="Node000016" class="node">
<title>Node16</title>
<g id="a_Node000016"><a xlink:href="class_heat_precursor_source.html" target="_top" xlink:title=" ">
<polygon fill="white" stroke="#666666" points="281.75,-574.25 172,-574.25 172,-555 281.75,-555 281.75,-574.25"/>
<text text-anchor="middle" x="226.88" y="-560.75" font-family="Helvetica,sans-Serif" font-size="10.00">HeatPrecursorSource</text>
</a>
</g>
</g>
<!-- Node1&#45;&gt;Node16 -->
<g id="edge15_Node000001_Node000016" class="edge">
<title>Node1&#45;&gt;Node16</title>
<g id="a_edge15_Node000001_Node000016"><a xlink:title=" ">
<path fill="none" stroke="#63b8ff" d="M85.47,-523.49C102.31,-531.19 123.73,-540.29 143.5,-546.62 152.84,-549.62 162.93,-552.27 172.75,-554.57"/>
<polygon fill="#63b8ff" stroke="#63b8ff" points="87.04,-520.36 76.5,-519.3 84.09,-526.7 87.04,-520.36"/>
</a>
</g>
</g>
<!-- Node17 -->
<g id="Node000017" class="node">
<title>Node17</title>
<g id="a_Node000017"><a xlink:href="class_in_scatter.html" target="_top" xlink:title=" ">
<polygon fill="white" stroke="#666666" points="254.75,-537.25 199,-537.25 199,-518 254.75,-518 254.75,-537.25"/>
<text text-anchor="middle" x="226.88" y="-523.75" font-family="Helvetica,sans-Serif" font-size="10.00">InScatter</text>
</a>
</g>
</g>
<!-- Node1&#45;&gt;Node17 -->
<g id="edge16_Node000001_Node000017" class="edge">
<title>Node1&#45;&gt;Node17</title>
<g id="a_edge16_Node000001_Node000017"><a xlink:title=" ">
<path fill="none" stroke="#63b8ff" d="M119.11,-515.77C146.59,-518.82 177.18,-522.22 198.55,-524.59"/>
<polygon fill="#63b8ff" stroke="#63b8ff" points="119.79,-512.32 109.46,-514.7 119.01,-519.28 119.79,-512.32"/>
</a>
</g>
</g>
<!-- Node18 -->
<g id="Node000018" class="node">
<title>Node18</title>
<g id="a_Node000018"><a xlink:href="class_integral_new_variable_postprocessor.html" target="_top" xlink:title=" ">
<polygon fill="white" stroke="#666666" points="310.25,-500.25 143.5,-500.25 143.5,-481 310.25,-481 310.25,-500.25"/>
<text text-anchor="middle" x="226.88" y="-486.75" font-family="Helvetica,sans-Serif" font-size="10.00">IntegralNewVariablePostprocessor</text>
</a>
</g>
</g>
<!-- Node1&#45;&gt;Node18 -->
<g id="edge17_Node000001_Node000018" class="edge">
<title>Node1&#45;&gt;Node18</title>
<g id="a_edge17_Node000001_Node000018"><a xlink:title=" ">
<path fill="none" stroke="#63b8ff" d="M119.21,-501.84C127.04,-501.02 135.12,-500.17 143.17,-499.32"/>
<polygon fill="#63b8ff" stroke="#63b8ff" points="119.04,-498.34 109.46,-502.87 119.77,-505.3 119.04,-498.34"/>
</a>
</g>
</g>
<!-- Node19 -->
<g id="Node000019" class="node">
<title>Node19</title>
<g id="a_Node000019"><a xlink:href="class_integral_old_variable_postprocessor.html" target="_top" xlink:title=" ">
<polygon fill="white" stroke="#666666" points="307.62,-463.25 146.12,-463.25 146.12,-444 307.62,-444 307.62,-463.25"/>
<text text-anchor="middle" x="226.88" y="-449.75" font-family="Helvetica,sans-Serif" font-size="10.00">IntegralOldVariablePostprocessor</text>
</a>
</g>
</g>
<!-- Node1&#45;&gt;Node19 -->
<g id="edge18_Node000001_Node000019" class="edge">
<title>Node1&#45;&gt;Node19</title>
<g id="a_edge18_Node000001_Node000019"><a xlink:title=" ">
<path fill="none" stroke="#63b8ff" d="M86.18,-493.89C102.93,-486.46 124.04,-477.75 143.5,-471.62 152.99,-468.64 163.26,-465.96 173.21,-463.65"/>
<polygon fill="#63b8ff" stroke="#63b8ff" points="84.92,-490.62 77.25,-497.93 87.8,-497 84.92,-490.62"/>
</a>
</g>
</g>
<!-- Node20 -->
<g id="Node000020" class="node">
<title>Node20</title>
<g id="a_Node000020"><a xlink:href="class_lin_log_penalty_dirichlet_b_c.html" target="_top" xlink:title=" ">
<polygon fill="white" stroke="#666666" points="290.38,-426.25 163.38,-426.25 163.38,-407 290.38,-407 290.38,-426.25"/>
<text text-anchor="middle" x="226.88" y="-412.75" font-family="Helvetica,sans-Serif" font-size="10.00">LinLogPenaltyDirichletBC</text>
</a>
</g>
</g>
<!-- Node1&#45;&gt;Node20 -->
<g id="edge19_Node000001_Node000020" class="edge">
<title>Node1&#45;&gt;Node20</title>
<g id="a_edge19_Node000001_Node000020"><a xlink:title=" ">
<path fill="none" stroke="#63b8ff" d="M71.17,-490.65C87.76,-473.6 114.96,-448.59 143.5,-434.62 149.94,-431.47 156.94,-428.87 164.04,-426.72"/>
<polygon fill="#63b8ff" stroke="#63b8ff" points="68.89,-487.97 64.55,-497.63 73.97,-492.78 68.89,-487.97"/>
</a>
</g>
</g>
<!-- Node21 -->
<g id="Node000021" class="node">
<title>Node21</title>
<g id="a_Node000021"><a xlink:href="class_neutron_source_aux.html" target="_top" xlink:title=" ">
<polygon fill="white" stroke="#666666" points="275.75,-389.25 178,-389.25 178,-370 275.75,-370 275.75,-389.25"/>
<text text-anchor="middle" x="226.88" y="-375.75" font-family="Helvetica,sans-Serif" font-size="10.00">NeutronSourceAux</text>
</a>
</g>
</g>
<!-- Node1&#45;&gt;Node21 -->
<g id="edge20_Node000001_Node000021" class="edge">
<title>Node1&#45;&gt;Node21</title>
<g id="a_edge20_Node000001_Node000021"><a xlink:title=" ">
<path fill="none" stroke="#63b8ff" d="M64.95,-488.82C79.07,-463.52 106.98,-420.3 143.5,-397.62 153.7,-391.29 165.81,-387.17 177.57,-384.49"/>
<polygon fill="#63b8ff" stroke="#63b8ff" points="61.99,-486.95 60.33,-497.42 68.15,-490.27 61.99,-486.95"/>
</a>
</g>
</g>
<!-- Node22 -->
<g id="Node000022" class="node">
<title>Node22</title>
<g id="a_Node000022"><a xlink:href="class_precursor_decay.html" target="_top" xlink:title=" ">
<polygon fill="white" stroke="#666666" points="269.38,-352.25 184.38,-352.25 184.38,-333 269.38,-333 269.38,-352.25"/>
<text text-anchor="middle" x="226.88" y="-338.75" font-family="Helvetica,sans-Serif" font-size="10.00">PrecursorDecay</text>
</a>
</g>
</g>
<!-- Node1&#45;&gt;Node22 -->
<g id="edge21_Node000001_Node000022" class="edge">
<title>Node1&#45;&gt;Node22</title>
<g id="a_edge21_Node000001_Node000022"><a xlink:title=" ">
<path fill="none" stroke="#63b8ff" d="M61.16,-487.95C72.34,-455.47 98.62,-392.86 143.5,-360.62 155.27,-352.17 170.26,-347.56 184.21,-345.09"/>
<polygon fill="#63b8ff" stroke="#63b8ff" points="57.86,-486.77 58.07,-497.36 64.51,-488.95 57.86,-486.77"/>
</a>
</g>
</g>
<!-- Node23 -->
<g id="Node000023" class="node">
<title>Node23</title>
<g id="a_Node000023"><a xlink:href="class_precursor_source.html" target="_top" xlink:title=" ">
<polygon fill="white" stroke="#666666" points="271.25,-315.25 182.5,-315.25 182.5,-296 271.25,-296 271.25,-315.25"/>
<text text-anchor="middle" x="226.88" y="-301.75" font-family="Helvetica,sans-Serif" font-size="10.00">PrecursorSource</text>
</a>
</g>
</g>
<!-- Node1&#45;&gt;Node23 -->
<g id="edge22_Node000001_Node000023" class="edge">
<title>Node1&#45;&gt;Node23</title>
<g id="a_edge22_Node000001_Node000023"><a xlink:title=" ">
<path fill="none" stroke="#63b8ff" d="M58.59,-487.54C66.81,-448.72 89.92,-366.01 143.5,-323.62 154.41,-315 168.56,-310.29 182.05,-307.79"/>
<polygon fill="#63b8ff" stroke="#63b8ff" points="55.18,-486.73 56.68,-497.22 62.05,-488.09 55.18,-486.73"/>
</a>
</g>
</g>
<!-- Node24 -->
<g id="Node000024" class="node">
<title>Node24</title>
<g id="a_Node000024"><a xlink:href="class_scalar_advection_art_diff.html" target="_top" xlink:title=" ">
<polygon fill="white" stroke="#666666" points="284,-278.25 169.75,-278.25 169.75,-259 284,-259 284,-278.25"/>
<text text-anchor="middle" x="226.88" y="-264.75" font-family="Helvetica,sans-Serif" font-size="10.00">ScalarAdvectionArtDiff</text>
</a>
</g>
</g>
<!-- Node1&#45;&gt;Node24 -->
<g id="edge23_Node000001_Node000024" class="edge">
<title>Node1&#45;&gt;Node24</title>
<g id="a_edge23_Node000001_Node000024"><a xlink:title=" ">
<path fill="none" stroke="#63b8ff" d="M56.74,-487.45C62.09,-442.98 80.95,-339.61 143.5,-286.62 150.87,-280.38 159.92,-276.16 169.29,-273.33"/>
<polygon fill="#63b8ff" stroke="#63b8ff" points="53.27,-486.97 55.68,-497.29 60.23,-487.72 53.27,-486.97"/>
</a>
</g>
</g>
<!-- Node25 -->
<g id="Node000025" class="node">
<title>Node25</title>
<g id="a_Node000025"><a xlink:href="class_scalar_advection_art_diff_no_b_c_b_c.html" target="_top" xlink:title=" ">
<polygon fill="white" stroke="#666666" points="303.88,-241.25 149.88,-241.25 149.88,-222 303.88,-222 303.88,-241.25"/>
<text text-anchor="middle" x="226.88" y="-227.75" font-family="Helvetica,sans-Serif" font-size="10.00">ScalarAdvectionArtDiffNoBCBC</text>
</a>
</g>
</g>
<!-- Node1&#45;&gt;Node25 -->
<g id="edge24_Node000001_Node000025" class="edge">
<title>Node1&#45;&gt;Node25</title>
<g id="a_edge24_Node000001_Node000025"><a xlink:title=" ">
<path fill="none" stroke="#63b8ff" d="M55.38,-487.07C58.07,-437.21 72,-313.34 143.5,-249.62 147,-246.51 150.91,-243.89 155.07,-241.69"/>
<polygon fill="#63b8ff" stroke="#63b8ff" points="51.89,-486.91 54.96,-497.05 58.88,-487.21 51.89,-486.91"/>
</a>
</g>
</g>
<!-- Node26 -->
<g id="Node000026" class="node">
<title>Node26</title>
<g id="a_Node000026"><a xlink:href="class_scalar_transport_time_derivative.html" target="_top" xlink:title=" ">
<polygon fill="white" stroke="#666666" points="302,-204.25 151.75,-204.25 151.75,-185 302,-185 302,-204.25"/>
<text text-anchor="middle" x="226.88" y="-190.75" font-family="Helvetica,sans-Serif" font-size="10.00">ScalarTransportTimeDerivative</text>
</a>
</g>
</g>
<!-- Node1&#45;&gt;Node26 -->
<g id="edge25_Node000001_Node000026" class="edge">
<title>Node1&#45;&gt;Node26</title>
<g id="a_edge25_Node000001_Node000026"><a xlink:title=" ">
<path fill="none" stroke="#63b8ff" d="M54.31,-487.38C54.4,-432.96 62.62,-287.57 143.5,-212.62 146.83,-209.54 150.56,-206.94 154.55,-204.75"/>
<polygon fill="#63b8ff" stroke="#63b8ff" points="50.81,-487.15 54.39,-497.12 57.8,-487.09 50.81,-487.15"/>
</a>
</g>
</g>
<!-- Node28 -->
<g id="Node000028" class="node">
<title>Node28</title>
<g id="a_Node000028"><a xlink:href="class_sigma_r.html" target="_top" xlink:title=" ">
<polygon fill="white" stroke="#666666" points="252.12,-167.25 201.62,-167.25 201.62,-148 252.12,-148 252.12,-167.25"/>
<text text-anchor="middle" x="226.88" y="-153.75" font-family="Helvetica,sans-Serif" font-size="10.00">SigmaR</text>
</a>
</g>
</g>
<!-- Node1&#45;&gt;Node28 -->
<g id="edge27_Node000001_Node000028" class="edge">
<title>Node1&#45;&gt;Node28</title>
<g id="a_edge27_Node000001_Node000028"><a xlink:title=" ">
<path fill="none" stroke="#63b8ff" d="M57.49,-487.56C66.51,-421.43 97.38,-219.7 143.5,-175.62 158.85,-160.96 183.23,-157.13 201.5,-156.57"/>
<polygon fill="#63b8ff" stroke="#63b8ff" points="54.07,-486.7 56.22,-497.08 61.01,-487.63 54.07,-486.7"/>
</a>
</g>
</g>
<!-- Node29 -->
<g id="Node000029" class="node">
<title>Node29</title>
<g id="a_Node000029"><a xlink:href="class_total_neutron_leakage.html" target="_top" xlink:title=" ">
<polygon fill="white" stroke="#666666" points="281.75,-130.25 172,-130.25 172,-111 281.75,-111 281.75,-130.25"/>
<text text-anchor="middle" x="226.88" y="-116.75" font-family="Helvetica,sans-Serif" font-size="10.00">TotalNeutronLeakage</text>
</a>
</g>
</g>
<!-- Node1&#45;&gt;Node29 -->
<g id="edge28_Node000001_Node000029" class="edge">
<title>Node1&#45;&gt;Node29</title>
<g id="a_edge28_Node000001_Node000029"><a xlink:title=" ">
<path fill="none" stroke="#63b8ff" d="M56.94,-487.13C64.63,-415.76 92.75,-188.35 143.5,-138.62 151.24,-131.04 161.38,-126.34 171.9,-123.49"/>
<polygon fill="#63b8ff" stroke="#63b8ff" points="53.46,-486.75 55.89,-497.06 60.42,-487.48 53.46,-486.75"/>
</a>
</g>
</g>
<!-- Node30 -->
<g id="Node000030" class="node">
<title>Node30</title>
<g id="a_Node000030"><a xlink:href="class_transient_fission_heat_source.html" target="_top" xlink:title=" ">
<polygon fill="white" stroke="#666666" points="296.75,-93.25 157,-93.25 157,-74 296.75,-74 296.75,-93.25"/>
<text text-anchor="middle" x="226.88" y="-79.75" font-family="Helvetica,sans-Serif" font-size="10.00">TransientFissionHeatSource</text>
</a>
</g>
</g>
<!-- Node1&#45;&gt;Node30 -->
<g id="edge29_Node000001_Node000030" class="edge">
<title>Node1&#45;&gt;Node30</title>
<g id="a_edge29_Node000001_Node000030"><a xlink:title=" ">
<path fill="none" stroke="#63b8ff" d="M56.4,-487.47C62.73,-411.96 87.92,-157.23 143.5,-101.62 147.33,-97.79 151.77,-94.69 156.57,-92.2"/>
<polygon fill="#63b8ff" stroke="#63b8ff" points="52.93,-486.94 55.61,-497.19 59.91,-487.51 52.93,-486.94"/>
</a>
</g>
</g>
<!-- Node31 -->
<g id="Node000031" class="node">
<title>Node31</title>
<g id="a_Node000031"><a xlink:href="class_vacuum_conc_b_c.html" target="_top" xlink:title=" ">
<polygon fill="white" stroke="#666666" points="270.88,-56.25 182.88,-56.25 182.88,-37 270.88,-37 270.88,-56.25"/>
<text text-anchor="middle" x="226.88" y="-42.75" font-family="Helvetica,sans-Serif" font-size="10.00">VacuumConcBC</text>
</a>
</g>
</g>
<!-- Node1&#45;&gt;Node31 -->
<g id="edge30_Node000001_Node000031" class="edge">
<title>Node1&#45;&gt;Node31</title>
<g id="a_edge30_Node000001_Node000031"><a xlink:title=" ">
<path fill="none" stroke="#63b8ff" d="M56.01,-487.13C61.15,-406.84 83.23,-125.98 143.5,-64.62 153.66,-54.29 168.28,-49.25 182.39,-46.97"/>
<polygon fill="#63b8ff" stroke="#63b8ff" points="52.52,-486.9 55.4,-497.09 59.5,-487.33 52.52,-486.9"/>
</a>
</g>
</g>
<!-- Node32 -->
<g id="Node000032" class="node">
<title>Node32</title>
<g id="a_Node000032"><a xlink:href="class_vacuum_correction_b_c.html" target="_top" xlink:title=" ">
<polygon fill="white" stroke="#666666" points="281.75,-19.25 172,-19.25 172,0 281.75,0 281.75,-19.25"/>
<text text-anchor="middle" x="226.88" y="-5.75" font-family="Helvetica,sans-Serif" font-size="10.00">VacuumCorrectionBC</text>
</a>
</g>
</g>
<!-- Node1&#45;&gt;Node32 -->
<g id="edge31_Node000001_Node000032" class="edge">
<title>Node1&#45;&gt;Node32</title>
<g id="a_edge31_Node000001_Node000032"><a xlink:title=" ">
<path fill="none" stroke="#63b8ff" d="M55.64,-487.26C59.61,-402.98 78.41,-94.88 143.5,-27.62 151.03,-19.84 161.09,-15.05 171.59,-12.18"/>
<polygon fill="#63b8ff" stroke="#63b8ff" points="52.15,-486.94 55.21,-497.09 59.15,-487.26 52.15,-486.94"/>
</a>
</g>
</g>
<!-- Node10 -->
<g id="Node000010" class="node">
<title>Node10</title>
<g id="a_Node000010"><a xlink:href="class_elm_integ_tot_fiss_heat_postprocessor.html" target="_top" xlink:title=" ">
<polygon fill="white" stroke="#666666" points="517.5,-759.25 346.25,-759.25 346.25,-740 517.5,-740 517.5,-759.25"/>
<text text-anchor="middle" x="431.88" y="-745.75" font-family="Helvetica,sans-Serif" font-size="10.00">ElmIntegTotFissHeatPostprocessor</text>
</a>
</g>
</g>
<!-- Node9&#45;&gt;Node10 -->
<g id="edge9_Node000009_Node000010" class="edge">
<title>Node9&#45;&gt;Node10</title>
<g id="a_edge9_Node000009_Node000010"><a xlink:title=" ">
<path fill="none" stroke="#63b8ff" d="M313.72,-749.62C324.34,-749.62 335.19,-749.62 345.8,-749.62"/>
<polygon fill="#63b8ff" stroke="#63b8ff" points="313.83,-746.13 303.83,-749.63 313.83,-753.13 313.83,-746.13"/>
</a>
</g>
</g>
<!-- Node11 -->
<g id="Node000011" class="node">
<title>Node11</title>
<g id="a_Node000011"><a xlink:href="class_average_fission_heat.html" target="_top" xlink:title=" ">
<polygon fill="white" stroke="#666666" points="658,-759.25 553.5,-759.25 553.5,-740 658,-740 658,-759.25"/>
<text text-anchor="middle" x="605.75" y="-745.75" font-family="Helvetica,sans-Serif" font-size="10.00">AverageFissionHeat</text>
</a>
</g>
</g>
<!-- Node10&#45;&gt;Node11 -->
<g id="edge10_Node000010_Node000011" class="edge">
<title>Node10&#45;&gt;Node11</title>
<g id="a_edge10_Node000010_Node000011"><a xlink:title=" ">
<path fill="none" stroke="#63b8ff" d="M529.2,-749.62C537.52,-749.62 545.71,-749.62 553.44,-749.62"/>
<polygon fill="#63b8ff" stroke="#63b8ff" points="529.32,-746.13 519.32,-749.63 529.32,-753.13 529.32,-746.13"/>
</a>
</g>
</g>
<!-- Node27 -->
<g id="Node000027" class="node">
<title>Node27</title>
<g id="a_Node000027"><a xlink:href="class_nt_time_derivative.html" target="_top" xlink:title=" ">
<polygon fill="white" stroke="#666666" points="477.75,-204.25 386,-204.25 386,-185 477.75,-185 477.75,-204.25"/>
<text text-anchor="middle" x="431.88" y="-190.75" font-family="Helvetica,sans-Serif" font-size="10.00">NtTimeDerivative</text>
</a>
</g>
</g>
<!-- Node26&#45;&gt;Node27 -->
<g id="edge26_Node000026_Node000027" class="edge">
<title>Node26&#45;&gt;Node27</title>
<g id="a_edge26_Node000026_Node000027"><a xlink:title=" ">
<path fill="none" stroke="#63b8ff" d="M313.58,-194.62C338.36,-194.62 364.42,-194.62 385.67,-194.62"/>
<polygon fill="#63b8ff" stroke="#63b8ff" points="313.83,-191.13 303.83,-194.63 313.83,-198.13 313.83,-191.13"/>
</a>
</g>
</g>
</g>
</svg>

<g id="navigator" transform="translate(0 0)" fill="#404254">
  <rect fill="#f2f5e9" fill-opacity="0.5" stroke="#606060" stroke-width=".5" x="0" y="0" width="60" height="60"/>
  <use id="zoomplus" xlink:href="#zoomPlus" x="17" y="9" onmousedown="handleZoom(evt,'in')"/>
  <use id="zoomminus" xlink:href="#zoomMin" x="42" y="9" onmousedown="handleZoom(evt,'out')"/>
  <use id="reset" xlink:href="#resetDef" x="30" y="36" onmousedown="handleReset()"/>
   <use id="arrowup" xlink:href="#arrowUp" x="0" y="0" onmousedown="handlePan(0,-1)"/>
  <use id="arrowright" xlink:href="#arrowRight" x="0" y="0" onmousedown="handlePan(1,0)"/>
  <use id="arrowdown" xlink:href="#arrowDown" x="0" y="0" onmousedown="handlePan(0,1)"/>
  <use id="arrowleft" xlink:href="#arrowLeft" x="0" y="0" onmousedown="handlePan(-1,0)"/>
</g>
<svg viewBox="0 0 15 15" width="100%" height="30px" preserveAspectRatio="xMaxYMin meet">
 <g id="arrow_out" transform="scale(0.3 0.3)">
  <a xlink:href="class_scalar_transport_base__inherit__graph_org.svg" target="_base">
   <rect id="button" ry="5" rx="5" y="6" x="6" height="38" width="38"
        fill="#f2f5e9" fill-opacity="0.5" stroke="#606060" stroke-width="1.0"/>
   <path id="arrow"
     d="M 11.500037,31.436501 C 11.940474,20.09759 22.043105,11.32322 32.158766,21.979434 L 37.068811,17.246167 C 37.068811,17.246167 37.088388,32 37.088388,32 L 22.160133,31.978069 C 22.160133,31.978069 26.997745,27.140456 26.997745,27.140456 C 18.528582,18.264221 13.291696,25.230495 11.500037,31.436501 z"
     style="fill:#404040;"/>
  </a>
 </g>
</svg>

<style type='text/css'>
<![CDATA[
[data-mouse-over-selected='false'] { opacity: 0.7; }
[data-mouse-over-selected='true']  { opacity: 1.0; }
]]>
</style>
<script type="application/ecmascript"><![CDATA[
document.addEventListener('DOMContentLoaded', (event) => {
  highlightEdges();
  highlightAdjacentNodes();
});
]]></script>
</svg>
