<?xml version="1.0" encoding="UTF-8" standalone="no"?>
<!DOCTYPE svg PUBLIC "-//W3C//DTD SVG 1.1//EN"
 "http://www.w3.org/Graphics/SVG/1.1/DTD/svg11.dtd">
<!-- Generated by graphviz version 7.0.5 (20221223.1930)
 -->
<!-- Title: NuclearMaterial Pages: 1 -->
<svg width="319pt" height="192pt"
 viewBox="0.00 0.00 319.00 192.00" xmlns="http://www.w3.org/2000/svg" xmlns:xlink="http://www.w3.org/1999/xlink">
<g id="graph0" class="graph" transform="scale(1 1) rotate(0) translate(4 188)">
<title>NuclearMaterial</title>
<!-- Node1 -->
<g id="node1" class="node">
<title>Node1</title>
<g id="a_node1"><a xlink:title=" ">
<polygon fill="#999999" stroke="#666666" points="236.5,-129 151.5,-129 151.5,-110 236.5,-110 236.5,-129"/>
<text text-anchor="middle" x="194" y="-117" font-family="Helvetica,sans-Serif" font-size="10.00">NuclearMaterial</text>
</a>
</g>
</g>
<!-- Node3 -->
<g id="node3" class="node">
<title>Node3</title>
<g id="a_node3"><a xlink:href="class_generic_moltres_material.html" target="_top" xlink:title=" ">
<polygon fill="white" stroke="#666666" points="188.5,-74 71.5,-74 71.5,-55 188.5,-55 188.5,-74"/>
<text text-anchor="middle" x="130" y="-62" font-family="Helvetica,sans-Serif" font-size="10.00">GenericMoltresMaterial</text>
</a>
</g>
</g>
<!-- Node1&#45;&gt;Node3 -->
<g id="edge2" class="edge">
<title>Node1&#45;&gt;Node3</title>
<path fill="none" stroke="#63b8ff" d="M174.52,-102.37C163.4,-93.16 149.9,-81.98 140.7,-74.36"/>
<polygon fill="#63b8ff" stroke="#63b8ff" points="172.04,-104.86 181.98,-108.54 176.51,-99.47 172.04,-104.86"/>
</g>
<!-- Node7 -->
<g id="node7" class="node">
<title>Node7</title>
<g id="a_node7"><a xlink:href="class_moltres_json_material.html" target="_top" xlink:title=" ">
<polygon fill="white" stroke="#666666" points="311,-74 207,-74 207,-55 311,-55 311,-74"/>
<text text-anchor="middle" x="259" y="-62" font-family="Helvetica,sans-Serif" font-size="10.00">MoltresJsonMaterial</text>
</a>
</g>
</g>
<!-- Node1&#45;&gt;Node7 -->
<g id="edge6" class="edge">
<title>Node1&#45;&gt;Node7</title>
<path fill="none" stroke="#63b8ff" d="M213.79,-102.37C225.08,-93.16 238.79,-81.98 248.14,-74.36"/>
<polygon fill="#63b8ff" stroke="#63b8ff" points="211.74,-99.52 206.2,-108.55 216.16,-104.95 211.74,-99.52"/>
</g>
<!-- Node2 -->
<g id="node2" class="node">
<title>Node2</title>
<g id="a_node2"><a xlink:title=" ">
<polygon fill="white" stroke="#666666" points="256,-184 132,-184 132,-165 256,-165 256,-184"/>
<text text-anchor="middle" x="194" y="-172" font-family="Helvetica,sans-Serif" font-size="10.00">GenericConstantMaterial</text>
</a>
</g>
</g>
<!-- Node2&#45;&gt;Node1 -->
<g id="edge1" class="edge">
<title>Node2&#45;&gt;Node1</title>
<path fill="none" stroke="#63b8ff" d="M194,-153.35C194,-145.1 194,-135.97 194,-129.44"/>
<polygon fill="#63b8ff" stroke="#63b8ff" points="190.5,-153.23 194,-163.23 197.5,-153.23 190.5,-153.23"/>
</g>
<!-- Node4 -->
<g id="node4" class="node">
<title>Node4</title>
<g id="a_node4"><a xlink:href="class_cammi_fuel.html" target="_top" xlink:title=" ">
<polygon fill="white" stroke="#666666" points="66,-19 0,-19 0,0 66,0 66,-19"/>
<text text-anchor="middle" x="33" y="-7" font-family="Helvetica,sans-Serif" font-size="10.00">CammiFuel</text>
</a>
</g>
</g>
<!-- Node3&#45;&gt;Node4 -->
<g id="edge3" class="edge">
<title>Node3&#45;&gt;Node4</title>
<path fill="none" stroke="#63b8ff" d="M103.46,-49C86.11,-39.52 63.99,-27.43 49.21,-19.36"/>
<polygon fill="#63b8ff" stroke="#63b8ff" points="101.76,-52.06 112.22,-53.78 105.12,-45.92 101.76,-52.06"/>
</g>
<!-- Node5 -->
<g id="node5" class="node">
<title>Node5</title>
<g id="a_node5"><a xlink:href="class_cammi_moderator.html" target="_top" xlink:title=" ">
<polygon fill="white" stroke="#666666" points="175.5,-19 84.5,-19 84.5,0 175.5,0 175.5,-19"/>
<text text-anchor="middle" x="130" y="-7" font-family="Helvetica,sans-Serif" font-size="10.00">CammiModerator</text>
</a>
</g>
</g>
<!-- Node3&#45;&gt;Node5 -->
<g id="edge4" class="edge">
<title>Node3&#45;&gt;Node5</title>
<path fill="none" stroke="#63b8ff" d="M130,-43.35C130,-35.1 130,-25.97 130,-19.44"/>
<polygon fill="#63b8ff" stroke="#63b8ff" points="126.5,-43.23 130,-53.23 133.5,-43.23 126.5,-43.23"/>
</g>
<!-- Node6 -->
<g id="node6" class="node">
<title>Node6</title>
<g id="a_node6"><a xlink:href="class_rodded_material.html" target="_top" xlink:title=" ">
<polygon fill="white" stroke="#666666" points="278,-19 194,-19 194,0 278,0 278,-19"/>
<text text-anchor="middle" x="236" y="-7" font-family="Helvetica,sans-Serif" font-size="10.00">RoddedMaterial</text>
</a>
</g>
</g>
<!-- Node3&#45;&gt;Node6 -->
<g id="edge5" class="edge">
<title>Node3&#45;&gt;Node6</title>
<path fill="none" stroke="#63b8ff" d="M158.2,-49.4C177.28,-39.86 201.9,-27.55 218.28,-19.36"/>
<polygon fill="#63b8ff" stroke="#63b8ff" points="156.71,-46.23 149.34,-53.83 159.84,-52.49 156.71,-46.23"/>
</g>
</g>
</svg>
