<?xml version="1.0" encoding="UTF-8" standalone="no"?>
<!DOCTYPE svg PUBLIC "-//W3C//DTD SVG 1.1//EN"
 "http://www.w3.org/Graphics/SVG/1.1/DTD/svg11.dtd">
<!-- Generated by graphviz version 12.2.0 (20241103.1931)
 -->
<!-- Title: SATauStabilized3Eqn Pages: 1 -->
<svg width="135pt" height="149pt"
 viewBox="0.00 0.00 135.00 149.00" xmlns="http://www.w3.org/2000/svg" xmlns:xlink="http://www.w3.org/1999/xlink">
<g id="graph0" class="graph" transform="scale(1 1) rotate(0) translate(4 145)">
<title>SATauStabilized3Eqn</title>
<!-- Node1 -->
<g id="Node000001" class="node">
<title>Node1</title>
<g id="a_Node000001"><a xlink:title=" ">
<polygon fill="#999999" stroke="#666666" points="118.38,-19.25 8.63,-19.25 8.63,0 118.38,0 118.38,-19.25"/>
<text text-anchor="middle" x="63.5" y="-5.75" font-family="Helvetica,sans-Serif" font-size="10.00">SATauStabilized3Eqn</text>
</a>
</g>
</g>
<!-- Node2 -->
<g id="Node000002" class="node">
<title>Node2</title>
<g id="a_Node000002"><a xlink:href="class_s_a_tau_material_templ.html" target="_top" xlink:title=" ">
<polygon fill="white" stroke="#666666" points="127,-85.75 0,-85.75 0,-55.25 127,-55.25 127,-85.75"/>
<text text-anchor="start" x="8" y="-72.25" font-family="Helvetica,sans-Serif" font-size="10.00">SATauMaterialTempl</text>
<text text-anchor="middle" x="63.5" y="-61" font-family="Helvetica,sans-Serif" font-size="10.00">&lt; INSADStabilized3Eqn &gt;</text>
</a>
</g>
</g>
<!-- Node2&#45;&gt;Node1 -->
<g id="edge1_Node000001_Node000002" class="edge">
<title>Node2&#45;&gt;Node1</title>
<g id="a_edge1_Node000001_Node000002"><a xlink:title=" ">
<path fill="none" stroke="#63b8ff" d="M63.5,-43.48C63.5,-34.98 63.5,-26.09 63.5,-19.7"/>
<polygon fill="#63b8ff" stroke="#63b8ff" points="60,-43.43 63.5,-53.43 67,-43.43 60,-43.43"/>
</a>
</g>
</g>
<!-- Node3 -->
<g id="Node000003" class="node">
<title>Node3</title>
<g id="a_Node000003"><a xlink:title=" ">
<polygon fill="white" stroke="#666666" points="118.75,-141 8.25,-141 8.25,-121.75 118.75,-121.75 118.75,-141"/>
<text text-anchor="middle" x="63.5" y="-127.5" font-family="Helvetica,sans-Serif" font-size="10.00">INSADStabilized3Eqn</text>
</a>
</g>
</g>
<!-- Node3&#45;&gt;Node2 -->
<g id="edge2_Node000002_Node000003" class="edge">
<title>Node3&#45;&gt;Node2</title>
<g id="a_edge2_Node000002_Node000003"><a xlink:title=" ">
<path fill="none" stroke="#63b8ff" d="M63.5,-110.17C63.5,-102.24 63.5,-93.31 63.5,-86.03"/>
<polygon fill="#63b8ff" stroke="#63b8ff" points="60,-109.92 63.5,-119.92 67,-109.92 60,-109.92"/>
</a>
</g>
</g>
</g>
</svg>
