<?xml version="1.0" encoding="UTF-8" standalone="no"?>
<!DOCTYPE svg PUBLIC "-//W3C//DTD SVG 1.1//EN"
 "http://www.w3.org/Graphics/SVG/1.1/DTD/svg11.dtd">
<!-- Generated by graphviz version 7.0.5 (20221223.1930)
 -->
<!-- Title: ScalarTransportBase Pages: 1 -->
<!--zoomable 915 -->
<svg id="main" version="1.1" xmlns="http://www.w3.org/2000/svg" xmlns:xlink="http://www.w3.org/1999/xlink" xml:space="preserve" onload="init(evt)">
<style type="text/css"><![CDATA[
.edge:hover path { stroke: red; }
.edge:hover polygon { stroke: red; fill: red; }
]]></style>
<script type="text/javascript"><![CDATA[
var edges = document.getElementsByTagName('g');
if (edges && edges.length) {
  for (var i=0;i<edges.length;i++) {
    if (edges[i].id.substr(0,4)=='edge') {
      edges[i].setAttribute('class','edge');
    }
  }
}
]]></script>
        <defs>
                <circle id="rim" cx="0" cy="0" r="7"/>
                <circle id="rim2" cx="0" cy="0" r="3.5"/>
                <g id="zoomPlus">
                        <use xlink:href="#rim" fill="#404040">
                                <set attributeName="fill" to="#808080" begin="zoomplus.mouseover" end="zoomplus.mouseout"/>
                        </use>
                        <path d="M-4,0h8M0,-4v8" fill="none" stroke="white" stroke-width="1.5" pointer-events="none"/>
                </g>
                <g id="zoomMin">
                        <use xlink:href="#rim" fill="#404040">
                                <set attributeName="fill" to="#808080" begin="zoomminus.mouseover" end="zoomminus.mouseout"/>
                        </use>
                        <path d="M-4,0h8" fill="none" stroke="white" stroke-width="1.5" pointer-events="none"/>
                </g>
                <g id="dirArrow">
                        <path fill="none" stroke="white" stroke-width="1.5" d="M0,-3.0v7 M-2.5,-0.5L0,-3.0L2.5,-0.5"/>
                </g>
               <g id="resetDef">
                       <use xlink:href="#rim2" fill="#404040">
                               <set attributeName="fill" to="#808080" begin="reset.mouseover" end="reset.mouseout"/>
                       </use>
               </g>
        </defs>

<script type="text/javascript">
var viewWidth = 668;
var viewHeight = 915;
var sectionId = 'dynsection-0';
</script>
<script xlink:href="svgpan.js"/>
<svg id="graph" class="graph">
<g id="viewport">
<title>ScalarTransportBase</title>
<!-- Node1 -->
<g id="node1" class="node">
<title>Node1</title>
<g id="a_node1"><a xlink:title=" ">
<polygon fill="#999999" stroke="#666666" points="108,-463 0,-463 0,-444 108,-444 108,-463"/>
<text text-anchor="middle" x="54" y="-451" font-family="Helvetica,sans-Serif" font-size="10.00">ScalarTransportBase</text>
</a>
</g>
</g>
<!-- Node2 -->
<g id="node2" class="node">
<title>Node2</title>
<g id="a_node2"><a xlink:href="class_coupled_fission_eigen_kernel.html" target="_top" xlink:title=" ">
<polygon fill="white" stroke="#666666" points="295,-907 160,-907 160,-888 295,-888 295,-907"/>
<text text-anchor="middle" x="227.5" y="-895" font-family="Helvetica,sans-Serif" font-size="10.00">CoupledFissionEigenKernel</text>
</a>
</g>
</g>
<!-- Node1&#45;&gt;Node2 -->
<g id="edge1" class="edge">
<title>Node1&#45;&gt;Node2</title>
<path fill="none" stroke="#63b8ff" d="M56.44,-474.64C62.17,-552.37 85.93,-820.92 144,-879.5 148.54,-884.08 153.96,-887.62 159.82,-890.34"/>
<polygon fill="#63b8ff" stroke="#63b8ff" points="59.96,-474.73 55.76,-465.01 52.97,-475.23 59.96,-474.73"/>
</g>
<!-- Node3 -->
<g id="node3" class="node">
<title>Node3</title>
<g id="a_node3"><a xlink:href="class_coupled_fission_kernel.html" target="_top" xlink:title=" ">
<polygon fill="white" stroke="#666666" points="283,-870 172,-870 172,-851 283,-851 283,-870"/>
<text text-anchor="middle" x="227.5" y="-858" font-family="Helvetica,sans-Serif" font-size="10.00">CoupledFissionKernel</text>
</a>
</g>
</g>
<!-- Node1&#45;&gt;Node3 -->
<g id="edge2" class="edge">
<title>Node1&#45;&gt;Node3</title>
<path fill="none" stroke="#63b8ff" d="M56.9,-474.66C63.9,-548 90.7,-789.74 144,-842.5 151.5,-849.93 161.31,-854.6 171.53,-857.48"/>
<polygon fill="#63b8ff" stroke="#63b8ff" points="60.4,-474.49 55.99,-464.85 53.43,-475.13 60.4,-474.49"/>
</g>
<!-- Node4 -->
<g id="node4" class="node">
<title>Node4</title>
<g id="a_node4"><a xlink:href="class_coupled_scalar_advection.html" target="_top" xlink:title=" ">
<polygon fill="white" stroke="#666666" points="289,-833 166,-833 166,-814 289,-814 289,-833"/>
<text text-anchor="middle" x="227.5" y="-821" font-family="Helvetica,sans-Serif" font-size="10.00">CoupledScalarAdvection</text>
</a>
</g>
</g>
<!-- Node1&#45;&gt;Node4 -->
<g id="edge3" class="edge">
<title>Node1&#45;&gt;Node4</title>
<path fill="none" stroke="#63b8ff" d="M57.46,-474.84C65.85,-543.74 95.49,-758.55 144,-805.5 150.11,-811.41 157.69,-815.57 165.75,-818.46"/>
<polygon fill="#63b8ff" stroke="#63b8ff" points="60.94,-474.44 56.29,-464.92 53.99,-475.26 60.94,-474.44"/>
</g>
<!-- Node5 -->
<g id="node5" class="node">
<title>Node5</title>
<g id="a_node5"><a xlink:href="class_coupled_scalar_advection_no_b_c_b_c.html" target="_top" xlink:title=" ">
<polygon fill="white" stroke="#666666" points="309,-796 146,-796 146,-777 309,-777 309,-796"/>
<text text-anchor="middle" x="227.5" y="-784" font-family="Helvetica,sans-Serif" font-size="10.00">CoupledScalarAdvectionNoBCBC</text>
</a>
</g>
</g>
<!-- Node1&#45;&gt;Node5 -->
<g id="edge4" class="edge">
<title>Node1&#45;&gt;Node5</title>
<path fill="none" stroke="#63b8ff" d="M54.12,-474.56C53,-531.16 58.2,-687.74 144,-768.5 147.42,-771.72 151.27,-774.41 155.39,-776.66"/>
<polygon fill="#63b8ff" stroke="#63b8ff" points="57.62,-474.85 54.42,-464.75 50.62,-474.63 57.62,-474.85"/>
</g>
<!-- Node6 -->
<g id="node6" class="node">
<title>Node6</title>
<g id="a_node6"><a xlink:href="class_decay_heat_source.html" target="_top" xlink:title=" ">
<polygon fill="white" stroke="#666666" points="275,-759 180,-759 180,-740 275,-740 275,-759"/>
<text text-anchor="middle" x="227.5" y="-747" font-family="Helvetica,sans-Serif" font-size="10.00">DecayHeatSource</text>
</a>
</g>
</g>
<!-- Node1&#45;&gt;Node6 -->
<g id="edge5" class="edge">
<title>Node1&#45;&gt;Node6</title>
<path fill="none" stroke="#63b8ff" d="M55.06,-474.85C56.44,-527.07 67.61,-662.04 144,-731.5 153.76,-740.38 166.86,-745.24 179.73,-747.81"/>
<polygon fill="#63b8ff" stroke="#63b8ff" points="58.56,-474.9 54.91,-464.96 51.56,-475.01 58.56,-474.9"/>
</g>
<!-- Node7 -->
<g id="node7" class="node">
<title>Node7</title>
<g id="a_node7"><a xlink:href="class_delayed_neutron_source.html" target="_top" xlink:title=" ">
<polygon fill="white" stroke="#666666" points="285.5,-722 169.5,-722 169.5,-703 285.5,-703 285.5,-722"/>
<text text-anchor="middle" x="227.5" y="-710" font-family="Helvetica,sans-Serif" font-size="10.00">DelayedNeutronSource</text>
</a>
</g>
</g>
<!-- Node1&#45;&gt;Node7 -->
<g id="edge6" class="edge">
<title>Node1&#45;&gt;Node7</title>
<path fill="none" stroke="#63b8ff" d="M56.27,-474.84C60.28,-522.11 76.79,-636.03 144,-694.5 151.19,-700.75 160.05,-704.99 169.26,-707.84"/>
<polygon fill="#63b8ff" stroke="#63b8ff" points="59.76,-474.61 55.55,-464.89 52.78,-475.12 59.76,-474.61"/>
</g>
<!-- Node8 -->
<g id="node8" class="node">
<title>Node8</title>
<g id="a_node8"><a xlink:href="class_div_free_coupled_scalar_advection.html" target="_top" xlink:title=" ">
<polygon fill="white" stroke="#666666" points="306,-685 149,-685 149,-666 306,-666 306,-685"/>
<text text-anchor="middle" x="227.5" y="-673" font-family="Helvetica,sans-Serif" font-size="10.00">DivFreeCoupledScalarAdvection</text>
</a>
</g>
</g>
<!-- Node1&#45;&gt;Node8 -->
<g id="edge7" class="edge">
<title>Node1&#45;&gt;Node8</title>
<path fill="none" stroke="#63b8ff" d="M57.85,-474.69C64.63,-516.51 85.8,-609.74 144,-657.5 147.85,-660.66 152.14,-663.3 156.67,-665.5"/>
<polygon fill="#63b8ff" stroke="#63b8ff" points="61.33,-474.34 56.4,-464.96 54.41,-475.37 61.33,-474.34"/>
</g>
<!-- Node9 -->
<g id="node9" class="node">
<title>Node9</title>
<g id="a_node9"><a xlink:href="class_elm_integ_tot_fiss_postprocessor.html" target="_top" xlink:title=" ">
<polygon fill="white" stroke="#666666" points="303,-648 152,-648 152,-629 303,-629 303,-648"/>
<text text-anchor="middle" x="227.5" y="-636" font-family="Helvetica,sans-Serif" font-size="10.00">ElmIntegTotFissPostprocessor</text>
</a>
</g>
</g>
<!-- Node1&#45;&gt;Node9 -->
<g id="edge8" class="edge">
<title>Node1&#45;&gt;Node9</title>
<path fill="none" stroke="#63b8ff" d="M59.96,-474.27C69.64,-510.05 94.56,-583.07 144,-620.5 148.21,-623.69 152.86,-626.33 157.76,-628.53"/>
<polygon fill="#63b8ff" stroke="#63b8ff" points="63.4,-473.58 57.53,-464.75 56.62,-475.31 63.4,-473.58"/>
</g>
<!-- Node12 -->
<g id="node12" class="node">
<title>Node12</title>
<g id="a_node12"><a xlink:href="class_group_diffusion.html" target="_top" xlink:title=" ">
<polygon fill="white" stroke="#666666" points="267.5,-611 187.5,-611 187.5,-592 267.5,-592 267.5,-611"/>
<text text-anchor="middle" x="227.5" y="-599" font-family="Helvetica,sans-Serif" font-size="10.00">GroupDiffusion</text>
</a>
</g>
</g>
<!-- Node1&#45;&gt;Node12 -->
<g id="edge11" class="edge">
<title>Node1&#45;&gt;Node12</title>
<path fill="none" stroke="#63b8ff" d="M63.04,-473.71C75.7,-502.8 103.12,-555.97 144,-583.5 156.65,-592.02 172.63,-596.58 187.16,-599"/>
<polygon fill="#63b8ff" stroke="#63b8ff" points="66.31,-472.47 59.23,-464.59 59.85,-475.17 66.31,-472.47"/>
</g>
<!-- Node13 -->
<g id="node13" class="node">
<title>Node13</title>
<g id="a_node13"><a xlink:href="class_heat_precursor_decay.html" target="_top" xlink:title=" ">
<polygon fill="white" stroke="#666666" points="281,-574 174,-574 174,-555 281,-555 281,-574"/>
<text text-anchor="middle" x="227.5" y="-562" font-family="Helvetica,sans-Serif" font-size="10.00">HeatPrecursorDecay</text>
</a>
</g>
</g>
<!-- Node1&#45;&gt;Node13 -->
<g id="edge12" class="edge">
<title>Node1&#45;&gt;Node13</title>
<path fill="none" stroke="#63b8ff" d="M68.07,-472.89C83.59,-494.35 111.5,-528.28 144,-546.5 153.08,-551.59 163.47,-555.24 173.74,-557.86"/>
<polygon fill="#63b8ff" stroke="#63b8ff" points="70.95,-470.91 62.35,-464.73 65.22,-474.93 70.95,-470.91"/>
</g>
<!-- Node14 -->
<g id="node14" class="node">
<title>Node14</title>
<g id="a_node14"><a xlink:href="class_heat_precursor_source.html" target="_top" xlink:title=" ">
<polygon fill="white" stroke="#666666" points="282.5,-537 172.5,-537 172.5,-518 282.5,-518 282.5,-537"/>
<text text-anchor="middle" x="227.5" y="-525" font-family="Helvetica,sans-Serif" font-size="10.00">HeatPrecursorSource</text>
</a>
</g>
</g>
<!-- Node1&#45;&gt;Node14 -->
<g id="edge13" class="edge">
<title>Node1&#45;&gt;Node14</title>
<path fill="none" stroke="#63b8ff" d="M76.71,-470.19C94.04,-482.74 119.42,-499.45 144,-509.5 152.96,-513.16 162.78,-516.13 172.42,-518.52"/>
<polygon fill="#63b8ff" stroke="#63b8ff" points="78.83,-467.4 68.71,-464.26 74.66,-473.02 78.83,-467.4"/>
</g>
<!-- Node15 -->
<g id="node15" class="node">
<title>Node15</title>
<g id="a_node15"><a xlink:href="class_in_scatter.html" target="_top" xlink:title=" ">
<polygon fill="white" stroke="#666666" points="255.5,-500 199.5,-500 199.5,-481 255.5,-481 255.5,-500"/>
<text text-anchor="middle" x="227.5" y="-488" font-family="Helvetica,sans-Serif" font-size="10.00">InScatter</text>
</a>
</g>
</g>
<!-- Node1&#45;&gt;Node15 -->
<g id="edge14" class="edge">
<title>Node1&#45;&gt;Node15</title>
<path fill="none" stroke="#63b8ff" d="M111.93,-465.78C141.3,-472.12 175.77,-479.56 199.18,-484.61"/>
<polygon fill="#63b8ff" stroke="#63b8ff" points="112.95,-462.42 102.44,-463.73 111.48,-469.26 112.95,-462.42"/>
</g>
<!-- Node16 -->
<g id="node16" class="node">
<title>Node16</title>
<g id="a_node16"><a xlink:href="class_integral_new_variable_postprocessor.html" target="_top" xlink:title=" ">
<polygon fill="white" stroke="#666666" points="311,-463 144,-463 144,-444 311,-444 311,-463"/>
<text text-anchor="middle" x="227.5" y="-451" font-family="Helvetica,sans-Serif" font-size="10.00">IntegralNewVariablePostprocessor</text>
</a>
</g>
</g>
<!-- Node1&#45;&gt;Node16 -->
<g id="edge15" class="edge">
<title>Node1&#45;&gt;Node16</title>
<path fill="none" stroke="#63b8ff" d="M119.6,-453.5C127.45,-453.5 135.55,-453.5 143.61,-453.5"/>
<polygon fill="#63b8ff" stroke="#63b8ff" points="119.84,-450 109.84,-453.5 119.84,-457 119.84,-450"/>
</g>
<!-- Node17 -->
<g id="node17" class="node">
<title>Node17</title>
<g id="a_node17"><a xlink:href="class_integral_old_variable_postprocessor.html" target="_top" xlink:title=" ">
<polygon fill="white" stroke="#666666" points="308.5,-426 146.5,-426 146.5,-407 308.5,-407 308.5,-426"/>
<text text-anchor="middle" x="227.5" y="-414" font-family="Helvetica,sans-Serif" font-size="10.00">IntegralOldVariablePostprocessor</text>
</a>
</g>
</g>
<!-- Node1&#45;&gt;Node17 -->
<g id="edge16" class="edge">
<title>Node1&#45;&gt;Node17</title>
<path fill="none" stroke="#63b8ff" d="M111.95,-441.21C134.18,-436.42 159.35,-430.99 180.41,-426.44"/>
<polygon fill="#63b8ff" stroke="#63b8ff" points="111.48,-437.74 102.44,-443.27 112.95,-444.58 111.48,-437.74"/>
</g>
<!-- Node18 -->
<g id="node18" class="node">
<title>Node18</title>
<g id="a_node18"><a xlink:href="class_lin_log_penalty_dirichlet_b_c.html" target="_top" xlink:title=" ">
<polygon fill="white" stroke="#666666" points="291.5,-389 163.5,-389 163.5,-370 291.5,-370 291.5,-389"/>
<text text-anchor="middle" x="227.5" y="-377" font-family="Helvetica,sans-Serif" font-size="10.00">LinLogPenaltyDirichletBC</text>
</a>
</g>
</g>
<!-- Node1&#45;&gt;Node18 -->
<g id="edge17" class="edge">
<title>Node1&#45;&gt;Node18</title>
<path fill="none" stroke="#63b8ff" d="M77.09,-437C94.46,-424.74 119.7,-408.49 144,-398.5 152.7,-394.92 162.21,-391.95 171.57,-389.5"/>
<polygon fill="#63b8ff" stroke="#63b8ff" points="75.12,-434.1 69.06,-442.79 79.22,-439.77 75.12,-434.1"/>
</g>
<!-- Node19 -->
<g id="node19" class="node">
<title>Node19</title>
<g id="a_node19"><a xlink:href="class_precursor_decay.html" target="_top" xlink:title=" ">
<polygon fill="white" stroke="#666666" points="270.5,-352 184.5,-352 184.5,-333 270.5,-333 270.5,-352"/>
<text text-anchor="middle" x="227.5" y="-340" font-family="Helvetica,sans-Serif" font-size="10.00">PrecursorDecay</text>
</a>
</g>
</g>
<!-- Node1&#45;&gt;Node19 -->
<g id="edge18" class="edge">
<title>Node1&#45;&gt;Node19</title>
<path fill="none" stroke="#63b8ff" d="M68.15,-434.38C83.75,-413.23 111.74,-379.72 144,-361.5 156.16,-354.63 170.65,-350.25 184.08,-347.44"/>
<polygon fill="#63b8ff" stroke="#63b8ff" points="65.37,-432.25 62.41,-442.42 71.07,-436.32 65.37,-432.25"/>
</g>
<!-- Node20 -->
<g id="node20" class="node">
<title>Node20</title>
<g id="a_node20"><a xlink:href="class_precursor_eigen_source.html" target="_top" xlink:title=" ">
<polygon fill="white" stroke="#666666" points="284,-315 171,-315 171,-296 284,-296 284,-315"/>
<text text-anchor="middle" x="227.5" y="-303" font-family="Helvetica,sans-Serif" font-size="10.00">PrecursorEigenSource</text>
</a>
</g>
</g>
<!-- Node1&#45;&gt;Node20 -->
<g id="edge19" class="edge">
<title>Node1&#45;&gt;Node20</title>
<path fill="none" stroke="#63b8ff" d="M63.31,-433.08C76.16,-404.2 103.64,-351.91 144,-324.5 152.02,-319.05 161.4,-315.15 170.88,-312.36"/>
<polygon fill="#63b8ff" stroke="#63b8ff" points="60.14,-431.59 59.44,-442.16 66.58,-434.34 60.14,-431.59"/>
</g>
<!-- Node21 -->
<g id="node21" class="node">
<title>Node21</title>
<g id="a_node21"><a xlink:href="class_precursor_source.html" target="_top" xlink:title=" ">
<polygon fill="white" stroke="#666666" points="272,-278 183,-278 183,-259 272,-259 272,-278"/>
<text text-anchor="middle" x="227.5" y="-266" font-family="Helvetica,sans-Serif" font-size="10.00">PrecursorSource</text>
</a>
</g>
</g>
<!-- Node1&#45;&gt;Node21 -->
<g id="edge20" class="edge">
<title>Node1&#45;&gt;Node21</title>
<path fill="none" stroke="#63b8ff" d="M60.05,-432.91C69.85,-397.43 94.96,-324.98 144,-287.5 155.09,-279.02 169.32,-274.22 182.82,-271.53"/>
<polygon fill="#63b8ff" stroke="#63b8ff" points="56.72,-431.77 57.58,-442.33 63.5,-433.54 56.72,-431.77"/>
</g>
<!-- Node22 -->
<g id="node22" class="node">
<title>Node22</title>
<g id="a_node22"><a xlink:href="class_scalar_advection_art_diff.html" target="_top" xlink:title=" ">
<polygon fill="white" stroke="#666666" points="285,-241 170,-241 170,-222 285,-222 285,-241"/>
<text text-anchor="middle" x="227.5" y="-229" font-family="Helvetica,sans-Serif" font-size="10.00">ScalarAdvectionArtDiff</text>
</a>
</g>
</g>
<!-- Node1&#45;&gt;Node22 -->
<g id="edge21" class="edge">
<title>Node1&#45;&gt;Node22</title>
<path fill="none" stroke="#63b8ff" d="M57.93,-432.47C64.86,-390.95 86.27,-298.34 144,-250.5 151.36,-244.4 160.3,-240.18 169.54,-237.27"/>
<polygon fill="#63b8ff" stroke="#63b8ff" points="54.5,-431.7 56.45,-442.11 61.42,-432.76 54.5,-431.7"/>
</g>
<!-- Node23 -->
<g id="node23" class="node">
<title>Node23</title>
<g id="a_node23"><a xlink:href="class_scalar_advection_art_diff_no_b_c_b_c.html" target="_top" xlink:title=" ">
<polygon fill="white" stroke="#666666" points="305,-204 150,-204 150,-185 305,-185 305,-204"/>
<text text-anchor="middle" x="227.5" y="-192" font-family="Helvetica,sans-Serif" font-size="10.00">ScalarAdvectionArtDiffNoBCBC</text>
</a>
</g>
</g>
<!-- Node1&#45;&gt;Node23 -->
<g id="edge22" class="edge">
<title>Node1&#45;&gt;Node23</title>
<path fill="none" stroke="#63b8ff" d="M56.35,-432.3C60.52,-385.34 77.33,-272.09 144,-213.5 148.2,-209.81 152.96,-206.8 158.04,-204.35"/>
<polygon fill="#63b8ff" stroke="#63b8ff" points="52.86,-431.94 55.59,-442.18 59.84,-432.47 52.86,-431.94"/>
</g>
<!-- Node24 -->
<g id="node24" class="node">
<title>Node24</title>
<g id="a_node24"><a xlink:href="class_scalar_transport_time_derivative.html" target="_top" xlink:title=" ">
<polygon fill="white" stroke="#666666" points="303,-167 152,-167 152,-148 303,-148 303,-167"/>
<text text-anchor="middle" x="227.5" y="-155" font-family="Helvetica,sans-Serif" font-size="10.00">ScalarTransportTimeDerivative</text>
</a>
</g>
</g>
<!-- Node1&#45;&gt;Node24 -->
<g id="edge23" class="edge">
<title>Node1&#45;&gt;Node24</title>
<path fill="none" stroke="#63b8ff" d="M55.06,-432.15C56.44,-379.93 67.61,-244.96 144,-175.5 147.47,-172.34 151.36,-169.7 155.52,-167.48"/>
<polygon fill="#63b8ff" stroke="#63b8ff" points="51.56,-431.99 54.91,-442.04 58.56,-432.1 51.56,-431.99"/>
</g>
<!-- Node26 -->
<g id="node26" class="node">
<title>Node26</title>
<g id="a_node26"><a xlink:href="class_sigma_r.html" target="_top" xlink:title=" ">
<polygon fill="white" stroke="#666666" points="253,-130 202,-130 202,-111 253,-111 253,-130"/>
<text text-anchor="middle" x="227.5" y="-118" font-family="Helvetica,sans-Serif" font-size="10.00">SigmaR</text>
</a>
</g>
</g>
<!-- Node1&#45;&gt;Node26 -->
<g id="edge25" class="edge">
<title>Node1&#45;&gt;Node26</title>
<path fill="none" stroke="#63b8ff" d="M54.12,-432.44C53,-375.84 58.2,-219.26 144,-138.5 159.37,-124.03 183.55,-120.14 201.77,-119.51"/>
<polygon fill="#63b8ff" stroke="#63b8ff" points="50.62,-432.37 54.42,-442.25 57.62,-432.15 50.62,-432.37"/>
</g>
<!-- Node27 -->
<g id="node27" class="node">
<title>Node27</title>
<g id="a_node27"><a xlink:href="class_total_neutron_leakage.html" target="_top" xlink:title=" ">
<polygon fill="white" stroke="#666666" points="282.5,-93 172.5,-93 172.5,-74 282.5,-74 282.5,-93"/>
<text text-anchor="middle" x="227.5" y="-81" font-family="Helvetica,sans-Serif" font-size="10.00">TotalNeutronLeakage</text>
</a>
</g>
</g>
<!-- Node1&#45;&gt;Node27 -->
<g id="edge26" class="edge">
<title>Node1&#45;&gt;Node27</title>
<path fill="none" stroke="#63b8ff" d="M57.46,-432.16C65.85,-363.26 95.49,-148.45 144,-101.5 151.69,-94.06 161.7,-89.4 172.09,-86.54"/>
<polygon fill="#63b8ff" stroke="#63b8ff" points="53.99,-431.74 56.29,-442.08 60.94,-432.56 53.99,-431.74"/>
</g>
<!-- Node28 -->
<g id="node28" class="node">
<title>Node28</title>
<g id="a_node28"><a xlink:href="class_transient_fission_heat_source.html" target="_top" xlink:title=" ">
<polygon fill="white" stroke="#666666" points="297.5,-56 157.5,-56 157.5,-37 297.5,-37 297.5,-56"/>
<text text-anchor="middle" x="227.5" y="-44" font-family="Helvetica,sans-Serif" font-size="10.00">TransientFissionHeatSource</text>
</a>
</g>
</g>
<!-- Node1&#45;&gt;Node28 -->
<g id="edge27" class="edge">
<title>Node1&#45;&gt;Node28</title>
<path fill="none" stroke="#63b8ff" d="M56.9,-432.34C63.9,-359 90.7,-117.26 144,-64.5 147.85,-60.68 152.32,-57.6 157.14,-55.1"/>
<polygon fill="#63b8ff" stroke="#63b8ff" points="53.43,-431.87 55.99,-442.15 60.4,-432.51 53.43,-431.87"/>
</g>
<!-- Node29 -->
<g id="node29" class="node">
<title>Node29</title>
<g id="a_node29"><a xlink:href="class_vacuum_conc_b_c.html" target="_top" xlink:title=" ">
<polygon fill="white" stroke="#666666" points="272,-19 183,-19 183,0 272,0 272,-19"/>
<text text-anchor="middle" x="227.5" y="-7" font-family="Helvetica,sans-Serif" font-size="10.00">VacuumConcBC</text>
</a>
</g>
</g>
<!-- Node1&#45;&gt;Node29 -->
<g id="edge28" class="edge">
<title>Node1&#45;&gt;Node29</title>
<path fill="none" stroke="#63b8ff" d="M56.44,-432.36C62.17,-354.63 85.93,-86.08 144,-27.5 154.11,-17.3 168.57,-12.27 182.57,-9.95"/>
<polygon fill="#63b8ff" stroke="#63b8ff" points="52.97,-431.77 55.76,-441.99 59.96,-432.27 52.97,-431.77"/>
</g>
<!-- Node10 -->
<g id="node10" class="node">
<title>Node10</title>
<g id="a_node10"><a xlink:href="class_elm_integ_tot_fiss_heat_postprocessor.html" target="_top" xlink:title=" ">
<polygon fill="white" stroke="#666666" points="519,-648 347,-648 347,-629 519,-629 519,-648"/>
<text text-anchor="middle" x="433" y="-636" font-family="Helvetica,sans-Serif" font-size="10.00">ElmIntegTotFissHeatPostprocessor</text>
</a>
</g>
</g>
<!-- Node9&#45;&gt;Node10 -->
<g id="edge9" class="edge">
<title>Node9&#45;&gt;Node10</title>
<path fill="none" stroke="#63b8ff" d="M314.74,-638.5C325.29,-638.5 336.06,-638.5 346.59,-638.5"/>
<polygon fill="#63b8ff" stroke="#63b8ff" points="314.92,-635 304.92,-638.5 314.92,-642 314.92,-635"/>
</g>
<!-- Node11 -->
<g id="node11" class="node">
<title>Node11</title>
<g id="a_node11"><a xlink:href="class_average_fission_heat.html" target="_top" xlink:title=" ">
<polygon fill="white" stroke="#666666" points="660,-648 555,-648 555,-629 660,-629 660,-648"/>
<text text-anchor="middle" x="607.5" y="-636" font-family="Helvetica,sans-Serif" font-size="10.00">AverageFissionHeat</text>
</a>
</g>
</g>
<!-- Node10&#45;&gt;Node11 -->
<g id="edge10" class="edge">
<title>Node10&#45;&gt;Node11</title>
<path fill="none" stroke="#63b8ff" d="M530.75,-638.5C538.96,-638.5 547.05,-638.5 554.71,-638.5"/>
<polygon fill="#63b8ff" stroke="#63b8ff" points="531.01,-635 521.01,-638.5 531.01,-642 531.01,-635"/>
</g>
<!-- Node25 -->
<g id="node25" class="node">
<title>Node25</title>
<g id="a_node25"><a xlink:href="class_nt_time_derivative.html" target="_top" xlink:title=" ">
<polygon fill="white" stroke="#666666" points="479,-167 387,-167 387,-148 479,-148 479,-167"/>
<text text-anchor="middle" x="433" y="-155" font-family="Helvetica,sans-Serif" font-size="10.00">NtTimeDerivative</text>
</a>
</g>
</g>
<!-- Node24&#45;&gt;Node25 -->
<g id="edge24" class="edge">
<title>Node24&#45;&gt;Node25</title>
<path fill="none" stroke="#63b8ff" d="M314.65,-157.5C339.35,-157.5 365.31,-157.5 386.51,-157.5"/>
<polygon fill="#63b8ff" stroke="#63b8ff" points="314.92,-154 304.92,-157.5 314.92,-161 314.92,-154"/>
</g>
</g>
</svg>
        <g id="navigator" transform="translate(0 0)" fill="#404254">
                <rect fill="#f2f5e9" fill-opacity="0.5" stroke="#606060" stroke-width=".5" x="0" y="0" width="60" height="60"/>
                <use id="zoomplus" xlink:href="#zoomPlus" x="17" y="9" onmousedown="handleZoom(evt,'in')"/>
                <use id="zoomminus" xlink:href="#zoomMin" x="42" y="9" onmousedown="handleZoom(evt,'out')"/>
                <use id="reset" xlink:href="#resetDef" x="30" y="36" onmousedown="handleReset()"/>
                <g id="arrowUp" xlink:href="#dirArrow" transform="translate(30 24)" onmousedown="handlePan(0,-1)">
                  <use xlink:href="#rim" fill="#404040">
                        <set attributeName="fill" to="#808080" begin="arrowUp.mouseover" end="arrowUp.mouseout"/>
                  </use>
                  <path fill="none" stroke="white" stroke-width="1.5" d="M0,-3.0v7 M-2.5,-0.5L0,-3.0L2.5,-0.5"/>
                </g>
                <g id="arrowRight" xlink:href="#dirArrow" transform="rotate(90) translate(36 -43)" onmousedown="handlePan(1,0)">
                  <use xlink:href="#rim" fill="#404040">
                        <set attributeName="fill" to="#808080" begin="arrowRight.mouseover" end="arrowRight.mouseout"/>
                  </use>
                  <path fill="none" stroke="white" stroke-width="1.5" d="M0,-3.0v7 M-2.5,-0.5L0,-3.0L2.5,-0.5"/>
                </g>
                <g id="arrowDown" xlink:href="#dirArrow" transform="rotate(180) translate(-30 -48)" onmousedown="handlePan(0,1)">
                  <use xlink:href="#rim" fill="#404040">
                        <set attributeName="fill" to="#808080" begin="arrowDown.mouseover" end="arrowDown.mouseout"/>
                  </use>
                  <path fill="none" stroke="white" stroke-width="1.5" d="M0,-3.0v7 M-2.5,-0.5L0,-3.0L2.5,-0.5"/>
                </g>
                <g id="arrowLeft" xlink:href="#dirArrow" transform="rotate(270) translate(-36 17)" onmousedown="handlePan(-1,0)">
                  <use xlink:href="#rim" fill="#404040">
                        <set attributeName="fill" to="#808080" begin="arrowLeft.mouseover" end="arrowLeft.mouseout"/>
                  </use>
                  <path fill="none" stroke="white" stroke-width="1.5" d="M0,-3.0v7 M-2.5,-0.5L0,-3.0L2.5,-0.5"/>
                </g>
        </g>
        <svg viewBox="0 0 15 15" width="100%" height="30px" preserveAspectRatio="xMaxYMin meet">
         <g id="arrow_out" transform="scale(0.3 0.3)">
          <a xlink:href="class_scalar_transport_base__inherit__graph_org.svg" target="_base">
           <rect id="button" ry="5" rx="5" y="6" x="6" height="38" width="38"
                fill="#f2f5e9" fill-opacity="0.5" stroke="#606060" stroke-width="1.0"/>
           <path id="arrow"
             d="M 11.500037,31.436501 C 11.940474,20.09759 22.043105,11.32322 32.158766,21.979434 L 37.068811,17.246167 C 37.068811,17.246167 37.088388,32 37.088388,32 L 22.160133,31.978069 C 22.160133,31.978069 26.997745,27.140456 26.997745,27.140456 C 18.528582,18.264221 13.291696,25.230495 11.500037,31.436501 z"
             style="fill:#404040;"/>
          </a>
         </g>
        </svg>
</svg>
