<?xml version="1.0" encoding="UTF-8" standalone="no"?>
<!DOCTYPE svg PUBLIC "-//W3C//DTD SVG 1.1//EN"
 "http://www.w3.org/Graphics/SVG/1.1/DTD/svg11.dtd">
<!-- Generated by graphviz version 12.2.0 (20241103.1931)
 -->
<!-- Title: VariableNotAMooseObjectAction Pages: 1 -->
<svg width="175pt" height="138pt"
 viewBox="0.00 0.00 174.50 137.75" xmlns="http://www.w3.org/2000/svg" xmlns:xlink="http://www.w3.org/1999/xlink">

<svg id="main" version="1.1" xmlns="http://www.w3.org/2000/svg" xmlns:xlink="http://www.w3.org/1999/xlink" xml:space="preserve">

<style type="text/css"><![CDATA[
.node, .edge {opacity: 0.7;}
.node.selected, .edge.selected {opacity: 1;}
.edge:hover path { stroke: red; }
.edge:hover polygon { stroke: red; fill: red; }
]]></style>
<script type="application/ecmascript" xlink:href="svg.min.js"/>
<svg id="graph" class="graph">
<g id="graph0" class="graph" transform="scale(1 1) rotate(0) translate(4 133.75)">
<title>VariableNotAMooseObjectAction</title>
<!-- Node1 -->
<g id="Node000001" class="node">
<title>Node1</title>
<g id="a_Node000001"><a xlink:title=" ">
<polygon fill="#999999" stroke="#666666" points="159.25,-74.5 0,-74.5 0,-55.25 159.25,-55.25 159.25,-74.5"/>
<text text-anchor="middle" x="79.62" y="-61" font-family="Helvetica,sans-Serif" font-size="10.00">VariableNotAMooseObjectAction</text>
</a>
</g>
</g>
<!-- Node3 -->
<g id="Node000003" class="node">
<title>Node3</title>
<g id="a_Node000003"><a xlink:href="class_nt_action.html" target="_top" xlink:title=" ">
<polygon fill="white" stroke="#666666" points="62.75,-19.25 8.5,-19.25 8.5,0 62.75,0 62.75,-19.25"/>
<text text-anchor="middle" x="35.62" y="-5.75" font-family="Helvetica,sans-Serif" font-size="10.00">NtAction</text>
</a>
</g>
</g>
<!-- Node1&#45;&gt;Node3 -->
<g id="edge2_Node000001_Node000003" class="edge">
<title>Node1&#45;&gt;Node3</title>
<g id="a_edge2_Node000001_Node000003"><a xlink:title=" ">
<path fill="none" stroke="#63b8ff" d="M65.04,-46.22C57.67,-37.31 49.05,-26.87 43.05,-19.61"/>
<polygon fill="#63b8ff" stroke="#63b8ff" points="62.33,-48.44 71.4,-53.92 67.72,-43.98 62.33,-48.44"/>
</a>
</g>
</g>
<!-- Node4 -->
<g id="Node000004" class="node">
<title>Node4</title>
<g id="a_Node000004"><a xlink:href="class_precursor_action.html" target="_top" xlink:title=" ">
<polygon fill="white" stroke="#666666" points="166.5,-19.25 80.75,-19.25 80.75,0 166.5,0 166.5,-19.25"/>
<text text-anchor="middle" x="123.62" y="-5.75" font-family="Helvetica,sans-Serif" font-size="10.00">PrecursorAction</text>
</a>
</g>
</g>
<!-- Node1&#45;&gt;Node4 -->
<g id="edge3_Node000001_Node000004" class="edge">
<title>Node1&#45;&gt;Node4</title>
<g id="a_edge3_Node000001_Node000004"><a xlink:title=" ">
<path fill="none" stroke="#63b8ff" d="M94.21,-46.22C101.58,-37.31 110.2,-26.87 116.2,-19.61"/>
<polygon fill="#63b8ff" stroke="#63b8ff" points="91.53,-43.98 87.85,-53.92 96.92,-48.44 91.53,-43.98"/>
</a>
</g>
</g>
<!-- Node2 -->
<g id="Node000002" class="node">
<title>Node2</title>
<g id="a_Node000002"><a xlink:title=" ">
<polygon fill="white" stroke="#666666" points="101.5,-129.75 57.75,-129.75 57.75,-110.5 101.5,-110.5 101.5,-129.75"/>
<text text-anchor="middle" x="79.62" y="-116.25" font-family="Helvetica,sans-Serif" font-size="10.00">Action</text>
</a>
</g>
</g>
<!-- Node2&#45;&gt;Node1 -->
<g id="edge1_Node000001_Node000002" class="edge">
<title>Node2&#45;&gt;Node1</title>
<g id="a_edge1_Node000001_Node000002"><a xlink:title=" ">
<path fill="none" stroke="#63b8ff" d="M79.62,-98.88C79.62,-90.59 79.62,-81.42 79.62,-74.86"/>
<polygon fill="#63b8ff" stroke="#63b8ff" points="76.13,-98.82 79.63,-108.82 83.13,-98.82 76.13,-98.82"/>
</a>
</g>
</g>
</g>
</svg>
</svg>

<style type='text/css'>
<![CDATA[
[data-mouse-over-selected='false'] { opacity: 0.7; }
[data-mouse-over-selected='true']  { opacity: 1.0; }
]]>
</style>
<script type="application/ecmascript"><![CDATA[
document.addEventListener('DOMContentLoaded', (event) => {
  highlightEdges();
  highlightAdjacentNodes();
});
]]></script>
</svg>
