<?xml version="1.0" encoding="UTF-8" standalone="no"?>
<!DOCTYPE svg PUBLIC "-//W3C//DTD SVG 1.1//EN"
 "http://www.w3.org/Graphics/SVG/1.1/DTD/svg11.dtd">
<!-- Generated by graphviz version 12.2.0 (20241103.1931)
 -->
<!-- Title: CammiModerator Pages: 1 -->
<svg width="131pt" height="193pt"
 viewBox="0.00 0.00 131.25 193.00" xmlns="http://www.w3.org/2000/svg" xmlns:xlink="http://www.w3.org/1999/xlink">
<g id="graph0" class="graph" transform="scale(1 1) rotate(0) translate(4 189)">
<title>CammiModerator</title>
<!-- Node1 -->
<g id="Node000001" class="node">
<title>Node1</title>
<g id="a_Node000001"><a xlink:title=" ">
<polygon fill="#999999" stroke="#666666" points="106.75,-19.25 16.5,-19.25 16.5,0 106.75,0 106.75,-19.25"/>
<text text-anchor="middle" x="61.62" y="-5.75" font-family="Helvetica,sans-Serif" font-size="10.00">CammiModerator</text>
</a>
</g>
</g>
<!-- Node2 -->
<g id="Node000002" class="node">
<title>Node2</title>
<g id="a_Node000002"><a xlink:href="class_generic_moltres_material.html" target="_top" xlink:title=" ">
<polygon fill="white" stroke="#666666" points="119.88,-74.5 3.38,-74.5 3.38,-55.25 119.88,-55.25 119.88,-74.5"/>
<text text-anchor="middle" x="61.62" y="-61" font-family="Helvetica,sans-Serif" font-size="10.00">GenericMoltresMaterial</text>
</a>
</g>
</g>
<!-- Node2&#45;&gt;Node1 -->
<g id="edge1_Node000001_Node000002" class="edge">
<title>Node2&#45;&gt;Node1</title>
<g id="a_edge1_Node000001_Node000002"><a xlink:title=" ">
<path fill="none" stroke="#63b8ff" d="M61.62,-43.63C61.62,-35.34 61.62,-26.17 61.62,-19.61"/>
<polygon fill="#63b8ff" stroke="#63b8ff" points="58.13,-43.57 61.63,-53.57 65.13,-43.57 58.13,-43.57"/>
</a>
</g>
</g>
<!-- Node3 -->
<g id="Node000003" class="node">
<title>Node3</title>
<g id="a_Node000003"><a xlink:href="class_nuclear_material.html" target="_top" xlink:title=" ">
<polygon fill="white" stroke="#666666" points="103.75,-129.75 19.5,-129.75 19.5,-110.5 103.75,-110.5 103.75,-129.75"/>
<text text-anchor="middle" x="61.62" y="-116.25" font-family="Helvetica,sans-Serif" font-size="10.00">NuclearMaterial</text>
</a>
</g>
</g>
<!-- Node3&#45;&gt;Node2 -->
<g id="edge2_Node000002_Node000003" class="edge">
<title>Node3&#45;&gt;Node2</title>
<g id="a_edge2_Node000002_Node000003"><a xlink:title=" ">
<path fill="none" stroke="#63b8ff" d="M61.62,-98.88C61.62,-90.59 61.62,-81.42 61.62,-74.86"/>
<polygon fill="#63b8ff" stroke="#63b8ff" points="58.13,-98.82 61.63,-108.82 65.13,-98.82 58.13,-98.82"/>
</a>
</g>
</g>
<!-- Node4 -->
<g id="Node000004" class="node">
<title>Node4</title>
<g id="a_Node000004"><a xlink:title=" ">
<polygon fill="white" stroke="#666666" points="123.25,-185 0,-185 0,-165.75 123.25,-165.75 123.25,-185"/>
<text text-anchor="middle" x="61.62" y="-171.5" font-family="Helvetica,sans-Serif" font-size="10.00">GenericConstantMaterial</text>
</a>
</g>
</g>
<!-- Node4&#45;&gt;Node3 -->
<g id="edge3_Node000003_Node000004" class="edge">
<title>Node4&#45;&gt;Node3</title>
<g id="a_edge3_Node000003_Node000004"><a xlink:title=" ">
<path fill="none" stroke="#63b8ff" d="M61.62,-154.13C61.62,-145.84 61.62,-136.67 61.62,-130.11"/>
<polygon fill="#63b8ff" stroke="#63b8ff" points="58.13,-154.07 61.63,-164.07 65.13,-154.07 58.13,-154.07"/>
</a>
</g>
</g>
</g>
</svg>
