<?xml version="1.0" encoding="UTF-8" standalone="no"?>
<!DOCTYPE svg PUBLIC "-//W3C//DTD SVG 1.1//EN"
 "http://www.w3.org/Graphics/SVG/1.1/DTD/svg11.dtd">
<!-- Generated by graphviz version 7.0.5 (20221223.1930)
 -->
<!-- Title: TotalNeutronLeakage Pages: 1 -->
<svg width="266pt" height="82pt"
 viewBox="0.00 0.00 265.50 82.00" xmlns="http://www.w3.org/2000/svg" xmlns:xlink="http://www.w3.org/1999/xlink">
<g id="graph0" class="graph" transform="scale(1 1) rotate(0) translate(4 78)">
<title>TotalNeutronLeakage</title>
<!-- Node1 -->
<g id="node1" class="node">
<title>Node1</title>
<g id="a_node1"><a xlink:title=" ">
<polygon fill="#999999" stroke="#666666" points="189.5,-19 79.5,-19 79.5,0 189.5,0 189.5,-19"/>
<text text-anchor="middle" x="134.5" y="-7" font-family="Helvetica,sans-Serif" font-size="10.00">TotalNeutronLeakage</text>
</a>
</g>
</g>
<!-- Node2 -->
<g id="node2" class="node">
<title>Node2</title>
<g id="a_node2"><a xlink:title=" ">
<polygon fill="white" stroke="#666666" points="131,-74 0,-74 0,-55 131,-55 131,-74"/>
<text text-anchor="middle" x="65.5" y="-62" font-family="Helvetica,sans-Serif" font-size="10.00">SideIntegralPostprocessor</text>
</a>
</g>
</g>
<!-- Node2&#45;&gt;Node1 -->
<g id="edge1" class="edge">
<title>Node2&#45;&gt;Node1</title>
<path fill="none" stroke="#63b8ff" d="M86.15,-47.64C98.2,-38.39 112.95,-27.05 122.97,-19.36"/>
<polygon fill="#63b8ff" stroke="#63b8ff" points="84.2,-44.72 78.41,-53.59 88.47,-50.27 84.2,-44.72"/>
</g>
<!-- Node3 -->
<g id="node3" class="node">
<title>Node3</title>
<g id="a_node3"><a xlink:href="class_scalar_transport_base.html" target="_top" xlink:title=" ">
<polygon fill="white" stroke="#666666" points="257.5,-74 149.5,-74 149.5,-55 257.5,-55 257.5,-74"/>
<text text-anchor="middle" x="203.5" y="-62" font-family="Helvetica,sans-Serif" font-size="10.00">ScalarTransportBase</text>
</a>
</g>
</g>
<!-- Node3&#45;&gt;Node1 -->
<g id="edge2" class="edge">
<title>Node3&#45;&gt;Node1</title>
<path fill="none" stroke="#63b8ff" d="M182.85,-47.64C170.8,-38.39 156.05,-27.05 146.03,-19.36"/>
<polygon fill="#63b8ff" stroke="#63b8ff" points="180.53,-50.27 190.59,-53.59 184.8,-44.72 180.53,-50.27"/>
</g>
</g>
</svg>
