<?xml version="1.0" encoding="UTF-8" standalone="no"?>
<!DOCTYPE svg PUBLIC "-//W3C//DTD SVG 1.1//EN"
 "http://www.w3.org/Graphics/SVG/1.1/DTD/svg11.dtd">
<!-- Generated by graphviz version 3.0.0 (20220413.0242)
 -->
<!-- Title: IntegralOldVariablePostprocessor Pages: 1 -->
<svg width="419pt" height="95pt"
 viewBox="0.00 0.00 419.00 95.00" xmlns="http://www.w3.org/2000/svg" xmlns:xlink="http://www.w3.org/1999/xlink">
<g id="graph0" class="graph" transform="scale(1 1) rotate(0) translate(4 91)">
<title>IntegralOldVariablePostprocessor</title>
<polygon fill="white" stroke="transparent" points="-4,4 -4,-91 415,-91 415,4 -4,4"/>
<!-- Node1 -->
<g id="node1" class="node">
<title>Node1</title>
<g id="a_node1"><a xlink:title=" ">
<polygon fill="#bfbfbf" stroke="black" points="138.5,-0.5 138.5,-19.5 300.5,-19.5 300.5,-0.5 138.5,-0.5"/>
<text text-anchor="middle" x="219.5" y="-7.5" font-family="Helvetica,sans-Serif" font-size="10.00">IntegralOldVariablePostprocessor</text>
</a>
</g>
</g>
<!-- Node2 -->
<g id="node2" class="node">
<title>Node2</title>
<g id="a_node2"><a xlink:title=" ">
<polygon fill="white" stroke="black" points="0,-62 0,-81 147,-81 147,-62 0,-62"/>
<text text-anchor="middle" x="73.5" y="-69" font-family="Helvetica,sans-Serif" font-size="10.00">ElementIntegralPostprocessor</text>
</a>
</g>
</g>
<!-- Node2&#45;&gt;Node1 -->
<g id="edge1" class="edge">
<title>Node2&#45;&gt;Node1</title>
<path fill="none" stroke="midnightblue" d="M103.85,-58.13C132.21,-46.57 173.81,-29.62 198.62,-19.51"/>
<polygon fill="midnightblue" stroke="midnightblue" points="102.36,-54.96 94.42,-61.98 105,-61.44 102.36,-54.96"/>
</g>
<!-- Node3 -->
<g id="node3" class="node">
<title>Node3</title>
<g id="a_node3"><a xlink:href="class_scalar_transport_base.html" target="_top" xlink:title=" ">
<polygon fill="white" stroke="black" points="165.5,-62 165.5,-81 273.5,-81 273.5,-62 165.5,-62"/>
<text text-anchor="middle" x="219.5" y="-69" font-family="Helvetica,sans-Serif" font-size="10.00">ScalarTransportBase</text>
</a>
</g>
</g>
<!-- Node3&#45;&gt;Node1 -->
<g id="edge2" class="edge">
<title>Node3&#45;&gt;Node1</title>
<path fill="none" stroke="midnightblue" d="M219.5,-51.82C219.5,-41 219.5,-27.9 219.5,-19.51"/>
<polygon fill="midnightblue" stroke="midnightblue" points="216,-51.98 219.5,-61.98 223,-51.98 216,-51.98"/>
</g>
<!-- Node4 -->
<g id="node4" class="node">
<title>Node4</title>
<g id="a_node4"><a xlink:title=" ">
<polygon fill="white" stroke="black" points="292,-56.5 292,-86.5 411,-86.5 411,-56.5 292,-56.5"/>
<text text-anchor="start" x="300" y="-74.5" font-family="Helvetica,sans-Serif" font-size="10.00">MooseVariableInterface</text>
<text text-anchor="middle" x="351.5" y="-63.5" font-family="Helvetica,sans-Serif" font-size="10.00">&lt; Real &gt;</text>
</a>
</g>
</g>
<!-- Node4&#45;&gt;Node1 -->
<g id="edge3" class="edge">
<title>Node4&#45;&gt;Node1</title>
<path fill="none" stroke="midnightblue" d="M310.96,-52.23C286.93,-41.39 257.57,-28.16 238.71,-19.66"/>
<polygon fill="midnightblue" stroke="midnightblue" points="309.66,-55.48 320.22,-56.4 312.54,-49.1 309.66,-55.48"/>
</g>
</g>
</svg>
