<?xml version="1.0" encoding="UTF-8" standalone="no"?>
<!DOCTYPE svg PUBLIC "-//W3C//DTD SVG 1.1//EN"
 "http://www.w3.org/Graphics/SVG/1.1/DTD/svg11.dtd">
<!-- Generated by graphviz version 9.0.0 (20230911.1827)
 -->
<!-- Title: GenericMoltresMaterial Pages: 1 -->
<svg width="284pt" height="193pt"
 viewBox="0.00 0.00 283.50 193.00" xmlns="http://www.w3.org/2000/svg" xmlns:xlink="http://www.w3.org/1999/xlink">

<svg id="main" version="1.1" xmlns="http://www.w3.org/2000/svg" xmlns:xlink="http://www.w3.org/1999/xlink" xml:space="preserve" onload="init(evt)">
<style type="text/css"><![CDATA[
.node, .edge {opacity: 0.7;}
.node.selected, .edge.selected {opacity: 1;}
.edge:hover path { stroke: red; }
.edge:hover polygon { stroke: red; fill: red; }
]]></style>
<script type="application/ecmascript" xlink:href="svg.min.js"/>
<svg id="graph" class="graph">
<g id="graph0" class="graph" transform="scale(1 1) rotate(0) translate(4 189)">
<title>GenericMoltresMaterial</title>
<!-- Node1 -->
<g id="Node000001" class="node">
<title>Node1</title>
<g id="a_Node000001"><a xlink:title=" ">
<polygon fill="#999999" stroke="#666666" points="187,-74.5 70.5,-74.5 70.5,-55.25 187,-55.25 187,-74.5"/>
<text text-anchor="middle" x="128.75" y="-61" font-family="Helvetica,sans-Serif" font-size="10.00">GenericMoltresMaterial</text>
</a>
</g>
</g>
<!-- Node4 -->
<g id="Node000004" class="node">
<title>Node4</title>
<g id="a_Node000004"><a xlink:href="class_cammi_fuel.html" target="_top" xlink:title=" ">
<polygon fill="white" stroke="#666666" points="65.5,-19.25 0,-19.25 0,0 65.5,0 65.5,-19.25"/>
<text text-anchor="middle" x="32.75" y="-5.75" font-family="Helvetica,sans-Serif" font-size="10.00">CammiFuel</text>
</a>
</g>
</g>
<!-- Node1&#45;&gt;Node4 -->
<g id="edge3_Node000001_Node000004" class="edge">
<title>Node1&#45;&gt;Node4</title>
<g id="a_edge3_Node000001_Node000004"><a xlink:title=" ">
<path fill="none" stroke="#63b8ff" d="M102.55,-49.34C85.49,-39.88 63.76,-27.83 49.11,-19.7"/>
<polygon fill="#63b8ff" stroke="#63b8ff" points="100.7,-52.32 111.14,-54.11 104.09,-46.2 100.7,-52.32"/>
</a>
</g>
</g>
<!-- Node5 -->
<g id="Node000005" class="node">
<title>Node5</title>
<g id="a_Node000005"><a xlink:href="class_cammi_moderator.html" target="_top" xlink:title=" ">
<polygon fill="white" stroke="#666666" points="173.88,-19.25 83.62,-19.25 83.62,0 173.88,0 173.88,-19.25"/>
<text text-anchor="middle" x="128.75" y="-5.75" font-family="Helvetica,sans-Serif" font-size="10.00">CammiModerator</text>
</a>
</g>
</g>
<!-- Node1&#45;&gt;Node5 -->
<g id="edge4_Node000001_Node000005" class="edge">
<title>Node1&#45;&gt;Node5</title>
<g id="a_edge4_Node000001_Node000005"><a xlink:title=" ">
<path fill="none" stroke="#63b8ff" d="M128.75,-43.63C128.75,-35.34 128.75,-26.17 128.75,-19.61"/>
<polygon fill="#63b8ff" stroke="#63b8ff" points="125.25,-43.57 128.75,-53.57 132.25,-43.57 125.25,-43.57"/>
</a>
</g>
</g>
<!-- Node6 -->
<g id="Node000006" class="node">
<title>Node6</title>
<g id="a_Node000006"><a xlink:href="class_rodded_material.html" target="_top" xlink:title=" ">
<polygon fill="white" stroke="#666666" points="275.5,-19.25 192,-19.25 192,0 275.5,0 275.5,-19.25"/>
<text text-anchor="middle" x="233.75" y="-5.75" font-family="Helvetica,sans-Serif" font-size="10.00">RoddedMaterial</text>
</a>
</g>
</g>
<!-- Node1&#45;&gt;Node6 -->
<g id="edge5_Node000001_Node000006" class="edge">
<title>Node1&#45;&gt;Node6</title>
<g id="a_edge5_Node000001_Node000006"><a xlink:title=" ">
<path fill="none" stroke="#63b8ff" d="M156.62,-49.74C175.39,-40.22 199.61,-27.94 215.85,-19.7"/>
<polygon fill="#63b8ff" stroke="#63b8ff" points="155.25,-46.51 147.91,-54.16 158.41,-52.76 155.25,-46.51"/>
</a>
</g>
</g>
<!-- Node2 -->
<g id="Node000002" class="node">
<title>Node2</title>
<g id="a_Node000002"><a xlink:href="class_nuclear_material.html" target="_top" xlink:title=" ">
<polygon fill="white" stroke="#666666" points="170.88,-129.75 86.62,-129.75 86.62,-110.5 170.88,-110.5 170.88,-129.75"/>
<text text-anchor="middle" x="128.75" y="-116.25" font-family="Helvetica,sans-Serif" font-size="10.00">NuclearMaterial</text>
</a>
</g>
</g>
<!-- Node2&#45;&gt;Node1 -->
<g id="edge1_Node000001_Node000002" class="edge">
<title>Node2&#45;&gt;Node1</title>
<g id="a_edge1_Node000001_Node000002"><a xlink:title=" ">
<path fill="none" stroke="#63b8ff" d="M128.75,-98.88C128.75,-90.59 128.75,-81.42 128.75,-74.86"/>
<polygon fill="#63b8ff" stroke="#63b8ff" points="125.25,-98.82 128.75,-108.82 132.25,-98.82 125.25,-98.82"/>
</a>
</g>
</g>
<!-- Node3 -->
<g id="Node000003" class="node">
<title>Node3</title>
<g id="a_Node000003"><a xlink:title=" ">
<polygon fill="white" stroke="#666666" points="190.38,-185 67.12,-185 67.12,-165.75 190.38,-165.75 190.38,-185"/>
<text text-anchor="middle" x="128.75" y="-171.5" font-family="Helvetica,sans-Serif" font-size="10.00">GenericConstantMaterial</text>
</a>
</g>
</g>
<!-- Node3&#45;&gt;Node2 -->
<g id="edge2_Node000002_Node000003" class="edge">
<title>Node3&#45;&gt;Node2</title>
<g id="a_edge2_Node000002_Node000003"><a xlink:title=" ">
<path fill="none" stroke="#63b8ff" d="M128.75,-154.13C128.75,-145.84 128.75,-136.67 128.75,-130.11"/>
<polygon fill="#63b8ff" stroke="#63b8ff" points="125.25,-154.07 128.75,-164.07 132.25,-154.07 125.25,-154.07"/>
</a>
</g>
</g>
</g>
</svg>
</svg>

<style type='text/css'>
<![CDATA[
[data-mouse-over-selected='false'] { opacity: 0.7; }
[data-mouse-over-selected='true']  { opacity: 1.0; }
]]>
</style>
<script type="application/ecmascript"><![CDATA[
document.addEventListener('DOMContentLoaded', (event) => {
  highlightEdges();
  highlightAdjacentNodes();
});
]]></script>
</svg>
