<?xml version="1.0" encoding="UTF-8" standalone="no"?>
<!DOCTYPE svg PUBLIC "-//W3C//DTD SVG 1.1//EN"
 "http://www.w3.org/Graphics/SVG/1.1/DTD/svg11.dtd">
<!-- Generated by graphviz version 9.0.0 (20230911.1827)
 -->
<!-- Title: ScalarTransportBase Pages: 1 -->
<svg width="666pt" height="915pt"
 viewBox="0.00 0.00 666.00 915.25" xmlns="http://www.w3.org/2000/svg" xmlns:xlink="http://www.w3.org/1999/xlink">
<g id="graph0" class="graph" transform="scale(1 1) rotate(0) translate(4 911.25)">
<title>ScalarTransportBase</title>
<!-- Node1 -->
<g id="Node000001" class="node">
<title>Node1</title>
<g id="a_Node000001"><a xlink:title=" ">
<polygon fill="#999999" stroke="#666666" points="107.5,-463.25 0,-463.25 0,-444 107.5,-444 107.5,-463.25"/>
<text text-anchor="middle" x="53.75" y="-449.75" font-family="Helvetica,sans-Serif" font-size="10.00">ScalarTransportBase</text>
</a>
</g>
</g>
<!-- Node2 -->
<g id="Node000002" class="node">
<title>Node2</title>
<g id="a_Node000002"><a xlink:href="class_coupled_fission_eigen_kernel.html" target="_top" xlink:title=" ">
<polygon fill="white" stroke="#666666" points="294.12,-907.25 159.62,-907.25 159.62,-888 294.12,-888 294.12,-907.25"/>
<text text-anchor="middle" x="226.88" y="-893.75" font-family="Helvetica,sans-Serif" font-size="10.00">CoupledFissionEigenKernel</text>
</a>
</g>
</g>
<!-- Node1&#45;&gt;Node2 -->
<g id="edge1_Node000001_Node000002" class="edge">
<title>Node1&#45;&gt;Node2</title>
<g id="a_edge1_Node000001_Node000002"><a xlink:title=" ">
<path fill="none" stroke="#63b8ff" d="M56.18,-474.76C61.87,-552.49 85.47,-821.02 143.5,-879.62 148.03,-884.2 153.44,-887.74 159.29,-890.45"/>
<polygon fill="#63b8ff" stroke="#63b8ff" points="59.69,-474.86 55.5,-465.13 52.71,-475.35 59.69,-474.86"/>
</a>
</g>
</g>
<!-- Node3 -->
<g id="Node000003" class="node">
<title>Node3</title>
<g id="a_Node000003"><a xlink:href="class_coupled_fission_kernel.html" target="_top" xlink:title=" ">
<polygon fill="white" stroke="#666666" points="282.12,-870.25 171.62,-870.25 171.62,-851 282.12,-851 282.12,-870.25"/>
<text text-anchor="middle" x="226.88" y="-856.75" font-family="Helvetica,sans-Serif" font-size="10.00">CoupledFissionKernel</text>
</a>
</g>
</g>
<!-- Node1&#45;&gt;Node3 -->
<g id="edge2_Node000001_Node000003" class="edge">
<title>Node1&#45;&gt;Node3</title>
<g id="a_edge2_Node000001_Node000003"><a xlink:title=" ">
<path fill="none" stroke="#63b8ff" d="M56.63,-474.78C63.59,-548.12 90.23,-789.85 143.5,-842.62 151.09,-850.15 161.05,-854.84 171.41,-857.71"/>
<polygon fill="#63b8ff" stroke="#63b8ff" points="60.13,-474.61 55.73,-464.98 53.16,-475.25 60.13,-474.61"/>
</a>
</g>
</g>
<!-- Node4 -->
<g id="Node000004" class="node">
<title>Node4</title>
<g id="a_Node000004"><a xlink:href="class_coupled_scalar_advection.html" target="_top" xlink:title=" ">
<polygon fill="white" stroke="#666666" points="288.12,-833.25 165.62,-833.25 165.62,-814 288.12,-814 288.12,-833.25"/>
<text text-anchor="middle" x="226.88" y="-819.75" font-family="Helvetica,sans-Serif" font-size="10.00">CoupledScalarAdvection</text>
</a>
</g>
</g>
<!-- Node1&#45;&gt;Node4 -->
<g id="edge3_Node000001_Node000004" class="edge">
<title>Node1&#45;&gt;Node4</title>
<g id="a_edge3_Node000001_Node000004"><a xlink:title=" ">
<path fill="none" stroke="#63b8ff" d="M57.2,-474.96C65.53,-543.86 95.02,-758.66 143.5,-805.62 149.6,-811.53 157.16,-815.69 165.21,-818.58"/>
<polygon fill="#63b8ff" stroke="#63b8ff" points="60.68,-474.57 56.03,-465.05 53.72,-475.39 60.68,-474.57"/>
</a>
</g>
</g>
<!-- Node5 -->
<g id="Node000005" class="node">
<title>Node5</title>
<g id="a_Node000005"><a xlink:href="class_coupled_scalar_advection_no_b_c_b_c.html" target="_top" xlink:title=" ">
<polygon fill="white" stroke="#666666" points="308,-796.25 145.75,-796.25 145.75,-777 308,-777 308,-796.25"/>
<text text-anchor="middle" x="226.88" y="-782.75" font-family="Helvetica,sans-Serif" font-size="10.00">CoupledScalarAdvectionNoBCBC</text>
</a>
</g>
</g>
<!-- Node1&#45;&gt;Node5 -->
<g id="edge4_Node000001_Node000005" class="edge">
<title>Node1&#45;&gt;Node5</title>
<g id="a_edge4_Node000001_Node000005"><a xlink:title=" ">
<path fill="none" stroke="#63b8ff" d="M57.84,-474.77C67.6,-538.58 99.69,-727.34 143.5,-768.62 146.8,-771.74 150.51,-774.36 154.49,-776.56"/>
<polygon fill="#63b8ff" stroke="#63b8ff" points="61.31,-474.32 56.37,-464.95 54.39,-475.36 61.31,-474.32"/>
</a>
</g>
</g>
<!-- Node6 -->
<g id="Node000006" class="node">
<title>Node6</title>
<g id="a_Node000006"><a xlink:href="class_decay_heat_source.html" target="_top" xlink:title=" ">
<polygon fill="white" stroke="#666666" points="274.25,-759.25 179.5,-759.25 179.5,-740 274.25,-740 274.25,-759.25"/>
<text text-anchor="middle" x="226.88" y="-745.75" font-family="Helvetica,sans-Serif" font-size="10.00">DecayHeatSource</text>
</a>
</g>
</g>
<!-- Node1&#45;&gt;Node6 -->
<g id="edge5_Node000001_Node000006" class="edge">
<title>Node1&#45;&gt;Node6</title>
<g id="a_edge5_Node000001_Node000006"><a xlink:title=" ">
<path fill="none" stroke="#63b8ff" d="M54.79,-474.97C56.12,-527.18 67.17,-662.14 143.5,-731.62 153.24,-740.49 166.32,-745.35 179.17,-747.92"/>
<polygon fill="#63b8ff" stroke="#63b8ff" points="58.29,-475.03 54.65,-465.08 51.29,-475.13 58.29,-475.03"/>
</a>
</g>
</g>
<!-- Node7 -->
<g id="Node000007" class="node">
<title>Node7</title>
<g id="a_Node000007"><a xlink:href="class_delayed_neutron_source.html" target="_top" xlink:title=" ">
<polygon fill="white" stroke="#666666" points="284.75,-722.25 169,-722.25 169,-703 284.75,-703 284.75,-722.25"/>
<text text-anchor="middle" x="226.88" y="-708.75" font-family="Helvetica,sans-Serif" font-size="10.00">DelayedNeutronSource</text>
</a>
</g>
</g>
<!-- Node1&#45;&gt;Node7 -->
<g id="edge6_Node000001_Node000007" class="edge">
<title>Node1&#45;&gt;Node7</title>
<g id="a_edge6_Node000001_Node000007"><a xlink:title=" ">
<path fill="none" stroke="#63b8ff" d="M56,-474.97C59.96,-522.22 76.35,-636.14 143.5,-694.62 150.68,-700.87 159.52,-705.11 168.72,-707.95"/>
<polygon fill="#63b8ff" stroke="#63b8ff" points="59.49,-474.74 55.28,-465.01 52.51,-475.24 59.49,-474.74"/>
</a>
</g>
</g>
<!-- Node8 -->
<g id="Node000008" class="node">
<title>Node8</title>
<g id="a_Node000008"><a xlink:href="class_div_free_coupled_scalar_advection.html" target="_top" xlink:title=" ">
<polygon fill="white" stroke="#666666" points="305,-685.25 148.75,-685.25 148.75,-666 305,-666 305,-685.25"/>
<text text-anchor="middle" x="226.88" y="-671.75" font-family="Helvetica,sans-Serif" font-size="10.00">DivFreeCoupledScalarAdvection</text>
</a>
</g>
</g>
<!-- Node1&#45;&gt;Node8 -->
<g id="edge7_Node000001_Node000008" class="edge">
<title>Node1&#45;&gt;Node8</title>
<g id="a_edge7_Node000001_Node000008"><a xlink:title=" ">
<path fill="none" stroke="#63b8ff" d="M57.57,-474.81C64.31,-516.63 85.35,-609.85 143.5,-657.62 147.35,-660.78 151.62,-663.42 156.15,-665.62"/>
<polygon fill="#63b8ff" stroke="#63b8ff" points="61.06,-474.47 56.13,-465.09 54.13,-475.49 61.06,-474.47"/>
</a>
</g>
</g>
<!-- Node9 -->
<g id="Node000009" class="node">
<title>Node9</title>
<g id="a_Node000009"><a xlink:href="class_elm_integ_tot_fiss_postprocessor.html" target="_top" xlink:title=" ">
<polygon fill="white" stroke="#666666" points="302,-648.25 151.75,-648.25 151.75,-629 302,-629 302,-648.25"/>
<text text-anchor="middle" x="226.88" y="-634.75" font-family="Helvetica,sans-Serif" font-size="10.00">ElmIntegTotFissPostprocessor</text>
</a>
</g>
</g>
<!-- Node1&#45;&gt;Node9 -->
<g id="edge8_Node000001_Node000009" class="edge">
<title>Node1&#45;&gt;Node9</title>
<g id="a_edge8_Node000001_Node000009"><a xlink:title=" ">
<path fill="none" stroke="#63b8ff" d="M59.68,-474.39C69.31,-510.17 94.12,-583.18 143.5,-620.62 147.7,-623.81 152.35,-626.45 157.23,-628.65"/>
<polygon fill="#63b8ff" stroke="#63b8ff" points="63.12,-473.71 57.27,-464.88 56.34,-475.43 63.12,-473.71"/>
</a>
</g>
</g>
<!-- Node12 -->
<g id="Node000012" class="node">
<title>Node12</title>
<g id="a_Node000012"><a xlink:href="class_group_diffusion.html" target="_top" xlink:title=" ">
<polygon fill="white" stroke="#666666" points="266.75,-611.25 187,-611.25 187,-592 266.75,-592 266.75,-611.25"/>
<text text-anchor="middle" x="226.88" y="-597.75" font-family="Helvetica,sans-Serif" font-size="10.00">GroupDiffusion</text>
</a>
</g>
</g>
<!-- Node1&#45;&gt;Node12 -->
<g id="edge11_Node000001_Node000012" class="edge">
<title>Node1&#45;&gt;Node12</title>
<g id="a_edge11_Node000001_Node000012"><a xlink:title=" ">
<path fill="none" stroke="#63b8ff" d="M62.94,-474.26C75.62,-503.44 102.88,-556.22 143.5,-583.62 156.12,-592.14 172.08,-596.71 186.59,-599.13"/>
<polygon fill="#63b8ff" stroke="#63b8ff" points="66.19,-472.96 59.11,-465.08 59.73,-475.65 66.19,-472.96"/>
</a>
</g>
</g>
<!-- Node13 -->
<g id="Node000013" class="node">
<title>Node13</title>
<g id="a_Node000013"><a xlink:href="class_heat_precursor_decay.html" target="_top" xlink:title=" ">
<polygon fill="white" stroke="#666666" points="279.88,-574.25 173.88,-574.25 173.88,-555 279.88,-555 279.88,-574.25"/>
<text text-anchor="middle" x="226.88" y="-560.75" font-family="Helvetica,sans-Serif" font-size="10.00">HeatPrecursorDecay</text>
</a>
</g>
</g>
<!-- Node1&#45;&gt;Node13 -->
<g id="edge12_Node000001_Node000013" class="edge">
<title>Node1&#45;&gt;Node13</title>
<g id="a_edge12_Node000001_Node000013"><a xlink:title=" ">
<path fill="none" stroke="#63b8ff" d="M67.77,-473.02C83.23,-494.47 111.06,-528.4 143.5,-546.62 152.69,-551.79 163.22,-555.47 173.62,-558.1"/>
<polygon fill="#63b8ff" stroke="#63b8ff" points="70.66,-471.05 62.07,-464.86 64.92,-475.06 70.66,-471.05"/>
</a>
</g>
</g>
<!-- Node14 -->
<g id="Node000014" class="node">
<title>Node14</title>
<g id="a_Node000014"><a xlink:href="class_heat_precursor_source.html" target="_top" xlink:title=" ">
<polygon fill="white" stroke="#666666" points="281.75,-537.25 172,-537.25 172,-518 281.75,-518 281.75,-537.25"/>
<text text-anchor="middle" x="226.88" y="-523.75" font-family="Helvetica,sans-Serif" font-size="10.00">HeatPrecursorSource</text>
</a>
</g>
</g>
<!-- Node1&#45;&gt;Node14 -->
<g id="edge13_Node000001_Node000014" class="edge">
<title>Node1&#45;&gt;Node14</title>
<g id="a_edge13_Node000001_Node000014"><a xlink:title=" ">
<path fill="none" stroke="#63b8ff" d="M76.69,-470.53C93.96,-483.06 119.12,-499.63 143.5,-509.62 152.44,-513.29 162.25,-516.26 171.88,-518.65"/>
<polygon fill="#63b8ff" stroke="#63b8ff" points="78.82,-467.75 68.71,-464.6 74.65,-473.37 78.82,-467.75"/>
</a>
</g>
</g>
<!-- Node15 -->
<g id="Node000015" class="node">
<title>Node15</title>
<g id="a_Node000015"><a xlink:href="class_in_scatter.html" target="_top" xlink:title=" ">
<polygon fill="white" stroke="#666666" points="254.75,-500.25 199,-500.25 199,-481 254.75,-481 254.75,-500.25"/>
<text text-anchor="middle" x="226.88" y="-486.75" font-family="Helvetica,sans-Serif" font-size="10.00">InScatter</text>
</a>
</g>
</g>
<!-- Node1&#45;&gt;Node15 -->
<g id="edge14_Node000001_Node000015" class="edge">
<title>Node1&#45;&gt;Node15</title>
<g id="a_edge14_Node000001_Node000015"><a xlink:title=" ">
<path fill="none" stroke="#63b8ff" d="M112.44,-466.1C141.67,-472.42 175.78,-479.79 198.9,-484.79"/>
<polygon fill="#63b8ff" stroke="#63b8ff" points="113.5,-462.75 102.99,-464.06 112.02,-469.59 113.5,-462.75"/>
</a>
</g>
</g>
<!-- Node16 -->
<g id="Node000016" class="node">
<title>Node16</title>
<g id="a_Node000016"><a xlink:href="class_integral_new_variable_postprocessor.html" target="_top" xlink:title=" ">
<polygon fill="white" stroke="#666666" points="310.25,-463.25 143.5,-463.25 143.5,-444 310.25,-444 310.25,-463.25"/>
<text text-anchor="middle" x="226.88" y="-449.75" font-family="Helvetica,sans-Serif" font-size="10.00">IntegralNewVariablePostprocessor</text>
</a>
</g>
</g>
<!-- Node1&#45;&gt;Node16 -->
<g id="edge15_Node000001_Node000016" class="edge">
<title>Node1&#45;&gt;Node16</title>
<g id="a_edge15_Node000001_Node000016"><a xlink:title=" ">
<path fill="none" stroke="#63b8ff" d="M119.21,-453.62C127.04,-453.62 135.12,-453.62 143.17,-453.62"/>
<polygon fill="#63b8ff" stroke="#63b8ff" points="119.47,-450.13 109.47,-453.63 119.47,-457.13 119.47,-450.13"/>
</a>
</g>
</g>
<!-- Node17 -->
<g id="Node000017" class="node">
<title>Node17</title>
<g id="a_Node000017"><a xlink:href="class_integral_old_variable_postprocessor.html" target="_top" xlink:title=" ">
<polygon fill="white" stroke="#666666" points="307.62,-426.25 146.12,-426.25 146.12,-407 307.62,-407 307.62,-426.25"/>
<text text-anchor="middle" x="226.88" y="-412.75" font-family="Helvetica,sans-Serif" font-size="10.00">IntegralOldVariablePostprocessor</text>
</a>
</g>
</g>
<!-- Node1&#45;&gt;Node17 -->
<g id="edge16_Node000001_Node000017" class="edge">
<title>Node1&#45;&gt;Node17</title>
<g id="a_edge16_Node000001_Node000017"><a xlink:title=" ">
<path fill="none" stroke="#63b8ff" d="M112.57,-441.12C134.26,-436.43 158.62,-431.17 179.17,-426.72"/>
<polygon fill="#63b8ff" stroke="#63b8ff" points="112.02,-437.66 102.99,-443.19 113.5,-444.5 112.02,-437.66"/>
</a>
</g>
</g>
<!-- Node18 -->
<g id="Node000018" class="node">
<title>Node18</title>
<g id="a_Node000018"><a xlink:href="class_lin_log_penalty_dirichlet_b_c.html" target="_top" xlink:title=" ">
<polygon fill="white" stroke="#666666" points="290.38,-389.25 163.38,-389.25 163.38,-370 290.38,-370 290.38,-389.25"/>
<text text-anchor="middle" x="226.88" y="-375.75" font-family="Helvetica,sans-Serif" font-size="10.00">LinLogPenaltyDirichletBC</text>
</a>
</g>
</g>
<!-- Node1&#45;&gt;Node18 -->
<g id="edge17_Node000001_Node000018" class="edge">
<title>Node1&#45;&gt;Node18</title>
<g id="a_edge17_Node000001_Node000018"><a xlink:title=" ">
<path fill="none" stroke="#63b8ff" d="M76.69,-436.72C93.96,-424.19 119.12,-407.62 143.5,-397.62 151.09,-394.52 159.29,-391.91 167.49,-389.72"/>
<polygon fill="#63b8ff" stroke="#63b8ff" points="74.65,-433.88 68.71,-442.65 78.82,-439.5 74.65,-433.88"/>
</a>
</g>
</g>
<!-- Node19 -->
<g id="Node000019" class="node">
<title>Node19</title>
<g id="a_Node000019"><a xlink:href="class_precursor_decay.html" target="_top" xlink:title=" ">
<polygon fill="white" stroke="#666666" points="269.38,-352.25 184.38,-352.25 184.38,-333 269.38,-333 269.38,-352.25"/>
<text text-anchor="middle" x="226.88" y="-338.75" font-family="Helvetica,sans-Serif" font-size="10.00">PrecursorDecay</text>
</a>
</g>
</g>
<!-- Node1&#45;&gt;Node19 -->
<g id="edge18_Node000001_Node000019" class="edge">
<title>Node1&#45;&gt;Node19</title>
<g id="a_edge18_Node000001_Node000019"><a xlink:title=" ">
<path fill="none" stroke="#63b8ff" d="M67.77,-434.23C83.23,-412.78 111.06,-378.85 143.5,-360.62 155.75,-353.74 170.4,-349.49 183.92,-346.86"/>
<polygon fill="#63b8ff" stroke="#63b8ff" points="64.92,-432.19 62.07,-442.39 70.66,-436.2 64.92,-432.19"/>
</a>
</g>
</g>
<!-- Node20 -->
<g id="Node000020" class="node">
<title>Node20</title>
<g id="a_Node000020"><a xlink:href="class_precursor_eigen_source.html" target="_top" xlink:title=" ">
<polygon fill="white" stroke="#666666" points="283.25,-315.25 170.5,-315.25 170.5,-296 283.25,-296 283.25,-315.25"/>
<text text-anchor="middle" x="226.88" y="-301.75" font-family="Helvetica,sans-Serif" font-size="10.00">PrecursorEigenSource</text>
</a>
</g>
</g>
<!-- Node1&#45;&gt;Node20 -->
<g id="edge19_Node000001_Node000020" class="edge">
<title>Node1&#45;&gt;Node20</title>
<g id="a_edge19_Node000001_Node000020"><a xlink:title=" ">
<path fill="none" stroke="#63b8ff" d="M62.94,-432.99C75.62,-403.81 102.88,-351.03 143.5,-323.62 151.51,-318.22 160.86,-314.41 170.34,-311.72"/>
<polygon fill="#63b8ff" stroke="#63b8ff" points="59.73,-431.6 59.11,-442.17 66.19,-434.29 59.73,-431.6"/>
</a>
</g>
</g>
<!-- Node21 -->
<g id="Node000021" class="node">
<title>Node21</title>
<g id="a_Node000021"><a xlink:href="class_precursor_source.html" target="_top" xlink:title=" ">
<polygon fill="white" stroke="#666666" points="271.25,-278.25 182.5,-278.25 182.5,-259 271.25,-259 271.25,-278.25"/>
<text text-anchor="middle" x="226.88" y="-264.75" font-family="Helvetica,sans-Serif" font-size="10.00">PrecursorSource</text>
</a>
</g>
</g>
<!-- Node1&#45;&gt;Node21 -->
<g id="edge20_Node000001_Node000021" class="edge">
<title>Node1&#45;&gt;Node21</title>
<g id="a_edge20_Node000001_Node000021"><a xlink:title=" ">
<path fill="none" stroke="#63b8ff" d="M59.68,-432.86C69.31,-397.08 94.12,-324.07 143.5,-286.62 154.58,-278.22 168.78,-273.58 182.26,-271.06"/>
<polygon fill="#63b8ff" stroke="#63b8ff" points="56.34,-431.82 57.27,-442.37 63.12,-433.54 56.34,-431.82"/>
</a>
</g>
</g>
<!-- Node22 -->
<g id="Node000022" class="node">
<title>Node22</title>
<g id="a_Node000022"><a xlink:href="class_scalar_advection_art_diff.html" target="_top" xlink:title=" ">
<polygon fill="white" stroke="#666666" points="284,-241.25 169.75,-241.25 169.75,-222 284,-222 284,-241.25"/>
<text text-anchor="middle" x="226.88" y="-227.75" font-family="Helvetica,sans-Serif" font-size="10.00">ScalarAdvectionArtDiff</text>
</a>
</g>
</g>
<!-- Node1&#45;&gt;Node22 -->
<g id="edge21_Node000001_Node000022" class="edge">
<title>Node1&#45;&gt;Node22</title>
<g id="a_edge21_Node000001_Node000022"><a xlink:title=" ">
<path fill="none" stroke="#63b8ff" d="M57.57,-432.44C64.31,-390.62 85.35,-297.4 143.5,-249.62 150.96,-243.49 160.06,-239.32 169.44,-236.52"/>
<polygon fill="#63b8ff" stroke="#63b8ff" points="54.13,-431.76 56.13,-442.16 61.06,-432.78 54.13,-431.76"/>
</a>
</g>
</g>
<!-- Node23 -->
<g id="Node000023" class="node">
<title>Node23</title>
<g id="a_Node000023"><a xlink:href="class_scalar_advection_art_diff_no_b_c_b_c.html" target="_top" xlink:title=" ">
<polygon fill="white" stroke="#666666" points="303.88,-204.25 149.88,-204.25 149.88,-185 303.88,-185 303.88,-204.25"/>
<text text-anchor="middle" x="226.88" y="-190.75" font-family="Helvetica,sans-Serif" font-size="10.00">ScalarAdvectionArtDiffNoBCBC</text>
</a>
</g>
</g>
<!-- Node1&#45;&gt;Node23 -->
<g id="edge22_Node000001_Node000023" class="edge">
<title>Node1&#45;&gt;Node23</title>
<g id="a_edge22_Node000001_Node000023"><a xlink:title=" ">
<path fill="none" stroke="#63b8ff" d="M56,-432.28C59.96,-385.03 76.35,-271.11 143.5,-212.62 147.14,-209.45 151.22,-206.8 155.55,-204.58"/>
<polygon fill="#63b8ff" stroke="#63b8ff" points="52.51,-432.01 55.28,-442.24 59.49,-432.51 52.51,-432.01"/>
</a>
</g>
</g>
<!-- Node24 -->
<g id="Node000024" class="node">
<title>Node24</title>
<g id="a_Node000024"><a xlink:href="class_scalar_transport_time_derivative.html" target="_top" xlink:title=" ">
<polygon fill="white" stroke="#666666" points="302,-167.25 151.75,-167.25 151.75,-148 302,-148 302,-167.25"/>
<text text-anchor="middle" x="226.88" y="-153.75" font-family="Helvetica,sans-Serif" font-size="10.00">ScalarTransportTimeDerivative</text>
</a>
</g>
</g>
<!-- Node1&#45;&gt;Node24 -->
<g id="edge23_Node000001_Node000024" class="edge">
<title>Node1&#45;&gt;Node24</title>
<g id="a_edge23_Node000001_Node000024"><a xlink:title=" ">
<path fill="none" stroke="#63b8ff" d="M54.79,-432.28C56.12,-380.07 67.17,-245.11 143.5,-175.62 146.96,-172.47 150.85,-169.83 155,-167.61"/>
<polygon fill="#63b8ff" stroke="#63b8ff" points="51.29,-432.12 54.65,-442.17 58.29,-432.22 51.29,-432.12"/>
</a>
</g>
</g>
<!-- Node26 -->
<g id="Node000026" class="node">
<title>Node26</title>
<g id="a_Node000026"><a xlink:href="class_sigma_r.html" target="_top" xlink:title=" ">
<polygon fill="white" stroke="#666666" points="252.12,-130.25 201.62,-130.25 201.62,-111 252.12,-111 252.12,-130.25"/>
<text text-anchor="middle" x="226.88" y="-116.75" font-family="Helvetica,sans-Serif" font-size="10.00">SigmaR</text>
</a>
</g>
</g>
<!-- Node1&#45;&gt;Node26 -->
<g id="edge25_Node000001_Node000026" class="edge">
<title>Node1&#45;&gt;Node26</title>
<g id="a_edge25_Node000001_Node000026"><a xlink:title=" ">
<path fill="none" stroke="#63b8ff" d="M57.84,-432.48C67.6,-368.67 99.69,-179.91 143.5,-138.62 158.84,-124.17 182.99,-120.28 201.18,-119.65"/>
<polygon fill="#63b8ff" stroke="#63b8ff" points="54.39,-431.89 56.37,-442.3 61.31,-432.93 54.39,-431.89"/>
</a>
</g>
</g>
<!-- Node27 -->
<g id="Node000027" class="node">
<title>Node27</title>
<g id="a_Node000027"><a xlink:href="class_total_neutron_leakage.html" target="_top" xlink:title=" ">
<polygon fill="white" stroke="#666666" points="281.75,-93.25 172,-93.25 172,-74 281.75,-74 281.75,-93.25"/>
<text text-anchor="middle" x="226.88" y="-79.75" font-family="Helvetica,sans-Serif" font-size="10.00">TotalNeutronLeakage</text>
</a>
</g>
</g>
<!-- Node1&#45;&gt;Node27 -->
<g id="edge26_Node000001_Node000027" class="edge">
<title>Node1&#45;&gt;Node27</title>
<g id="a_edge26_Node000001_Node000027"><a xlink:title=" ">
<path fill="none" stroke="#63b8ff" d="M57.2,-432.29C65.53,-363.39 95.02,-148.59 143.5,-101.62 151.18,-94.19 161.17,-89.53 171.54,-86.67"/>
<polygon fill="#63b8ff" stroke="#63b8ff" points="53.72,-431.86 56.03,-442.2 60.68,-432.68 53.72,-431.86"/>
</a>
</g>
</g>
<!-- Node28 -->
<g id="Node000028" class="node">
<title>Node28</title>
<g id="a_Node000028"><a xlink:href="class_transient_fission_heat_source.html" target="_top" xlink:title=" ">
<polygon fill="white" stroke="#666666" points="296.75,-56.25 157,-56.25 157,-37 296.75,-37 296.75,-56.25"/>
<text text-anchor="middle" x="226.88" y="-42.75" font-family="Helvetica,sans-Serif" font-size="10.00">TransientFissionHeatSource</text>
</a>
</g>
</g>
<!-- Node1&#45;&gt;Node28 -->
<g id="edge27_Node000001_Node000028" class="edge">
<title>Node1&#45;&gt;Node28</title>
<g id="a_edge27_Node000001_Node000028"><a xlink:title=" ">
<path fill="none" stroke="#63b8ff" d="M56.63,-432.47C63.59,-359.13 90.23,-117.4 143.5,-64.62 147.35,-60.81 151.8,-57.73 156.61,-55.24"/>
<polygon fill="#63b8ff" stroke="#63b8ff" points="53.16,-432 55.73,-442.27 60.13,-432.64 53.16,-432"/>
</a>
</g>
</g>
<!-- Node29 -->
<g id="Node000029" class="node">
<title>Node29</title>
<g id="a_Node000029"><a xlink:href="class_vacuum_conc_b_c.html" target="_top" xlink:title=" ">
<polygon fill="white" stroke="#666666" points="270.88,-19.25 182.88,-19.25 182.88,0 270.88,0 270.88,-19.25"/>
<text text-anchor="middle" x="226.88" y="-5.75" font-family="Helvetica,sans-Serif" font-size="10.00">VacuumConcBC</text>
</a>
</g>
</g>
<!-- Node1&#45;&gt;Node29 -->
<g id="edge28_Node000001_Node000029" class="edge">
<title>Node1&#45;&gt;Node29</title>
<g id="a_edge28_Node000001_Node000029"><a xlink:title=" ">
<path fill="none" stroke="#63b8ff" d="M56.18,-432.49C61.87,-354.76 85.47,-86.23 143.5,-27.62 153.7,-17.33 168.33,-12.3 182.44,-10.01"/>
<polygon fill="#63b8ff" stroke="#63b8ff" points="52.71,-431.9 55.5,-442.12 59.69,-432.39 52.71,-431.9"/>
</a>
</g>
</g>
<!-- Node10 -->
<g id="Node000010" class="node">
<title>Node10</title>
<g id="a_Node000010"><a xlink:href="class_elm_integ_tot_fiss_heat_postprocessor.html" target="_top" xlink:title=" ">
<polygon fill="white" stroke="#666666" points="517.5,-648.25 346.25,-648.25 346.25,-629 517.5,-629 517.5,-648.25"/>
<text text-anchor="middle" x="431.88" y="-634.75" font-family="Helvetica,sans-Serif" font-size="10.00">ElmIntegTotFissHeatPostprocessor</text>
</a>
</g>
</g>
<!-- Node9&#45;&gt;Node10 -->
<g id="edge9_Node000009_Node000010" class="edge">
<title>Node9&#45;&gt;Node10</title>
<g id="a_edge9_Node000009_Node000010"><a xlink:title=" ">
<path fill="none" stroke="#63b8ff" d="M313.72,-638.62C324.34,-638.62 335.19,-638.62 345.8,-638.62"/>
<polygon fill="#63b8ff" stroke="#63b8ff" points="313.83,-635.13 303.83,-638.63 313.83,-642.13 313.83,-635.13"/>
</a>
</g>
</g>
<!-- Node11 -->
<g id="Node000011" class="node">
<title>Node11</title>
<g id="a_Node000011"><a xlink:href="class_average_fission_heat.html" target="_top" xlink:title=" ">
<polygon fill="white" stroke="#666666" points="658,-648.25 553.5,-648.25 553.5,-629 658,-629 658,-648.25"/>
<text text-anchor="middle" x="605.75" y="-634.75" font-family="Helvetica,sans-Serif" font-size="10.00">AverageFissionHeat</text>
</a>
</g>
</g>
<!-- Node10&#45;&gt;Node11 -->
<g id="edge10_Node000010_Node000011" class="edge">
<title>Node10&#45;&gt;Node11</title>
<g id="a_edge10_Node000010_Node000011"><a xlink:title=" ">
<path fill="none" stroke="#63b8ff" d="M529.2,-638.62C537.52,-638.62 545.71,-638.62 553.44,-638.62"/>
<polygon fill="#63b8ff" stroke="#63b8ff" points="529.32,-635.13 519.32,-638.63 529.32,-642.13 529.32,-635.13"/>
</a>
</g>
</g>
<!-- Node25 -->
<g id="Node000025" class="node">
<title>Node25</title>
<g id="a_Node000025"><a xlink:href="class_nt_time_derivative.html" target="_top" xlink:title=" ">
<polygon fill="white" stroke="#666666" points="477.75,-167.25 386,-167.25 386,-148 477.75,-148 477.75,-167.25"/>
<text text-anchor="middle" x="431.88" y="-153.75" font-family="Helvetica,sans-Serif" font-size="10.00">NtTimeDerivative</text>
</a>
</g>
</g>
<!-- Node24&#45;&gt;Node25 -->
<g id="edge24_Node000024_Node000025" class="edge">
<title>Node24&#45;&gt;Node25</title>
<g id="a_edge24_Node000024_Node000025"><a xlink:title=" ">
<path fill="none" stroke="#63b8ff" d="M313.58,-157.62C338.36,-157.62 364.42,-157.62 385.67,-157.62"/>
<polygon fill="#63b8ff" stroke="#63b8ff" points="313.83,-154.13 303.83,-157.63 313.83,-161.13 313.83,-154.13"/>
</a>
</g>
</g>
</g>
</svg>
