<?xml version="1.0" encoding="UTF-8" standalone="no"?>
<!DOCTYPE svg PUBLIC "-//W3C//DTD SVG 1.1//EN"
 "http://www.w3.org/Graphics/SVG/1.1/DTD/svg11.dtd">
<!-- Generated by graphviz version 7.0.4 (20221203.1631)
 -->
<!-- Title: VariableNotAMooseObjectAction Pages: 1 -->
<svg width="176pt" height="137pt"
 viewBox="0.00 0.00 176.00 137.00" xmlns="http://www.w3.org/2000/svg" xmlns:xlink="http://www.w3.org/1999/xlink">
<g id="graph0" class="graph" transform="scale(1 1) rotate(0) translate(4 133)">
<title>VariableNotAMooseObjectAction</title>
<!-- Node1 -->
<g id="node1" class="node">
<title>Node1</title>
<g id="a_node1"><a xlink:title=" ">
<polygon fill="#999999" stroke="#666666" points="160,-74 0,-74 0,-55 160,-55 160,-74"/>
<text text-anchor="middle" x="80" y="-62" font-family="Helvetica,sans-Serif" font-size="10.00">VariableNotAMooseObjectAction</text>
</a>
</g>
</g>
<!-- Node3 -->
<g id="node3" class="node">
<title>Node3</title>
<g id="a_node3"><a xlink:href="class_nt_action.html" target="_top" xlink:title=" ">
<polygon fill="white" stroke="#666666" points="63.5,-19 8.5,-19 8.5,0 63.5,0 63.5,-19"/>
<text text-anchor="middle" x="36" y="-7" font-family="Helvetica,sans-Serif" font-size="10.00">NtAction</text>
</a>
</g>
</g>
<!-- Node1&#45;&gt;Node3 -->
<g id="edge2" class="edge">
<title>Node1&#45;&gt;Node3</title>
<path fill="none" stroke="#63b8ff" d="M65.42,-45.93C58.05,-37.06 49.42,-26.67 43.42,-19.44"/>
<polygon fill="#63b8ff" stroke="#63b8ff" points="62.69,-48.13 71.77,-53.58 68.07,-43.65 62.69,-48.13"/>
</g>
<!-- Node4 -->
<g id="node4" class="node">
<title>Node4</title>
<g id="a_node4"><a xlink:href="class_precursor_action.html" target="_top" xlink:title=" ">
<polygon fill="white" stroke="#666666" points="168,-19 82,-19 82,0 168,0 168,-19"/>
<text text-anchor="middle" x="125" y="-7" font-family="Helvetica,sans-Serif" font-size="10.00">PrecursorAction</text>
</a>
</g>
</g>
<!-- Node1&#45;&gt;Node4 -->
<g id="edge3" class="edge">
<title>Node1&#45;&gt;Node4</title>
<path fill="none" stroke="#63b8ff" d="M94.68,-46.22C102.26,-37.28 111.21,-26.74 117.41,-19.44"/>
<polygon fill="#63b8ff" stroke="#63b8ff" points="92.21,-43.71 88.41,-53.59 97.55,-48.24 92.21,-43.71"/>
</g>
<!-- Node2 -->
<g id="node2" class="node">
<title>Node2</title>
<g id="a_node2"><a xlink:title=" ">
<polygon fill="white" stroke="#666666" points="102,-129 58,-129 58,-110 102,-110 102,-129"/>
<text text-anchor="middle" x="80" y="-117" font-family="Helvetica,sans-Serif" font-size="10.00">Action</text>
</a>
</g>
</g>
<!-- Node2&#45;&gt;Node1 -->
<g id="edge1" class="edge">
<title>Node2&#45;&gt;Node1</title>
<path fill="none" stroke="#63b8ff" d="M80,-98.35C80,-90.1 80,-80.97 80,-74.44"/>
<polygon fill="#63b8ff" stroke="#63b8ff" points="76.5,-98.23 80,-108.23 83.5,-98.23 76.5,-98.23"/>
</g>
</g>
</svg>
