<?xml version="1.0" encoding="UTF-8" standalone="no"?>
<!DOCTYPE svg PUBLIC "-//W3C//DTD SVG 1.1//EN"
 "http://www.w3.org/Graphics/SVG/1.1/DTD/svg11.dtd">
<!-- Generated by graphviz version 7.0.5 (20221223.1930)
 -->
<!-- Title: ElmIntegTotFissHeatPostprocessor Pages: 1 -->
<svg width="282pt" height="192pt"
 viewBox="0.00 0.00 281.50 192.00" xmlns="http://www.w3.org/2000/svg" xmlns:xlink="http://www.w3.org/1999/xlink">
<g id="graph0" class="graph" transform="scale(1 1) rotate(0) translate(4 188)">
<title>ElmIntegTotFissHeatPostprocessor</title>
<!-- Node1 -->
<g id="node1" class="node">
<title>Node1</title>
<g id="a_node1"><a xlink:title=" ">
<polygon fill="#999999" stroke="#666666" points="232.5,-74 60.5,-74 60.5,-55 232.5,-55 232.5,-74"/>
<text text-anchor="middle" x="146.5" y="-62" font-family="Helvetica,sans-Serif" font-size="10.00">ElmIntegTotFissHeatPostprocessor</text>
</a>
</g>
</g>
<!-- Node5 -->
<g id="node5" class="node">
<title>Node5</title>
<g id="a_node5"><a xlink:href="class_average_fission_heat.html" target="_top" xlink:title=" ">
<polygon fill="white" stroke="#666666" points="199,-19 94,-19 94,0 199,0 199,-19"/>
<text text-anchor="middle" x="146.5" y="-7" font-family="Helvetica,sans-Serif" font-size="10.00">AverageFissionHeat</text>
</a>
</g>
</g>
<!-- Node1&#45;&gt;Node5 -->
<g id="edge4" class="edge">
<title>Node1&#45;&gt;Node5</title>
<path fill="none" stroke="#63b8ff" d="M146.5,-43.35C146.5,-35.1 146.5,-25.97 146.5,-19.44"/>
<polygon fill="#63b8ff" stroke="#63b8ff" points="143,-43.23 146.5,-53.23 150,-43.23 143,-43.23"/>
</g>
<!-- Node2 -->
<g id="node2" class="node">
<title>Node2</title>
<g id="a_node2"><a xlink:href="class_elm_integ_tot_fiss_postprocessor.html" target="_top" xlink:title=" ">
<polygon fill="white" stroke="#666666" points="222,-129 71,-129 71,-110 222,-110 222,-129"/>
<text text-anchor="middle" x="146.5" y="-117" font-family="Helvetica,sans-Serif" font-size="10.00">ElmIntegTotFissPostprocessor</text>
</a>
</g>
</g>
<!-- Node2&#45;&gt;Node1 -->
<g id="edge1" class="edge">
<title>Node2&#45;&gt;Node1</title>
<path fill="none" stroke="#63b8ff" d="M146.5,-98.35C146.5,-90.1 146.5,-80.97 146.5,-74.44"/>
<polygon fill="#63b8ff" stroke="#63b8ff" points="143,-98.23 146.5,-108.23 150,-98.23 143,-98.23"/>
</g>
<!-- Node3 -->
<g id="node3" class="node">
<title>Node3</title>
<g id="a_node3"><a xlink:title=" ">
<polygon fill="white" stroke="#666666" points="147,-184 0,-184 0,-165 147,-165 147,-184"/>
<text text-anchor="middle" x="73.5" y="-172" font-family="Helvetica,sans-Serif" font-size="10.00">ElementIntegralPostprocessor</text>
</a>
</g>
</g>
<!-- Node3&#45;&gt;Node2 -->
<g id="edge2" class="edge">
<title>Node3&#45;&gt;Node2</title>
<path fill="none" stroke="#63b8ff" d="M94.97,-157.92C107.78,-148.61 123.6,-137.13 134.3,-129.36"/>
<polygon fill="#63b8ff" stroke="#63b8ff" points="93.14,-154.91 87.11,-163.62 97.26,-160.58 93.14,-154.91"/>
</g>
<!-- Node4 -->
<g id="node4" class="node">
<title>Node4</title>
<g id="a_node4"><a xlink:href="class_scalar_transport_base.html" target="_top" xlink:title=" ">
<polygon fill="white" stroke="#666666" points="273.5,-184 165.5,-184 165.5,-165 273.5,-165 273.5,-184"/>
<text text-anchor="middle" x="219.5" y="-172" font-family="Helvetica,sans-Serif" font-size="10.00">ScalarTransportBase</text>
</a>
</g>
</g>
<!-- Node4&#45;&gt;Node2 -->
<g id="edge3" class="edge">
<title>Node4&#45;&gt;Node2</title>
<path fill="none" stroke="#63b8ff" d="M198.03,-157.92C185.22,-148.61 169.4,-137.13 158.7,-129.36"/>
<polygon fill="#63b8ff" stroke="#63b8ff" points="195.74,-160.58 205.89,-163.62 199.86,-154.91 195.74,-160.58"/>
</g>
</g>
</svg>
