<?xml version="1.0" encoding="UTF-8" standalone="no"?>
<!DOCTYPE svg PUBLIC "-//W3C//DTD SVG 1.1//EN"
 "http://www.w3.org/Graphics/SVG/1.1/DTD/svg11.dtd">
<!-- Generated by graphviz version 9.0.0 (20230911.1827)
 -->
<!-- Title: src Pages: 1 -->
<svg width="723pt" height="100pt"
 viewBox="0.00 0.00 723.00 99.89" xmlns="http://www.w3.org/2000/svg" xmlns:xlink="http://www.w3.org/1999/xlink">
<g id="graph0" class="graph" transform="scale(1 1) rotate(0) translate(4 95.89)">
<title>src</title>
<g id="clust1" class="cluster">
<title>clusterdir_68267d1309a1af8e8297ef4c3efbcdba</title>
<g id="a_clust1"><a xlink:href="dir_68267d1309a1af8e8297ef4c3efbcdba.html" target="_top">
<polygon fill="#edf0f7" stroke="#404040" stroke-width="2" points="8,-48.64 8,-83.89 707,-83.89 707,-48.64 8,-48.64"/>
</a>
</g>
</g>
<!-- dir_68267d1309a1af8e8297ef4c3efbcdba -->
<g id="node1" class="node">
<title>dir_68267d1309a1af8e8297ef4c3efbcdba</title>
<text text-anchor="middle" x="684" y="-62.39" font-family="Helvetica,sans-Serif" font-size="10.00">src</text>
</g>
<!-- dir_d44c64559bbebec7f509842c48db8b23 -->
<g id="node11" class="node">
<title>dir_d44c64559bbebec7f509842c48db8b23</title>
<g id="a_node11"><a xlink:href="dir_d44c64559bbebec7f509842c48db8b23.html" target="_top" xlink:title="include">
<polygon fill="#edf0f7" stroke="red" points="425.38,-20.64 378.62,-20.64 378.62,-1.39 425.38,-1.39 425.38,-20.64"/>
<text text-anchor="middle" x="402" y="-7.14" font-family="Helvetica,sans-Serif" font-size="10.00">include</text>
</a>
</g>
</g>
<!-- dir_68267d1309a1af8e8297ef4c3efbcdba&#45;&gt;dir_d44c64559bbebec7f509842c48db8b23 -->
<g id="edge1" class="edge">
<title>dir_68267d1309a1af8e8297ef4c3efbcdba&#45;&gt;dir_d44c64559bbebec7f509842c48db8b23</title>
<g id="a_edge1"><a xlink:href="dir_000019_000012.html" target="_top">
<path fill="none" stroke="#63b8ff" d="M673.86,-56.68C669.79,-53.67 664.91,-50.56 660,-48.64 584.35,-19 487.86,-12.92 437.01,-11.93"/>
<polygon fill="#63b8ff" stroke="#63b8ff" points="437.25,-8.44 427.2,-11.8 437.16,-15.44 437.25,-8.44"/>
</a>
</g>
<g id="a_edge1&#45;headlabel"><a xlink:href="dir_000019_000012.html" target="_top" xlink:title="82">
<text text-anchor="middle" x="439.37" y="-1.75" font-family="Helvetica,sans-Serif" font-size="10.00" fill="#63b8ff">82</text>
</a>
</g>
</g>
<!-- dir_d2b8d8eda696fb67dda800ae051affdc -->
<g id="node2" class="node">
<title>dir_d2b8d8eda696fb67dda800ae051affdc</title>
<g id="a_node2"><a xlink:href="dir_d2b8d8eda696fb67dda800ae051affdc.html" target="_top" xlink:title="actions">
<polygon fill="#a2b4d6" stroke="#404040" points="650.75,-75.89 603.25,-75.89 603.25,-56.64 650.75,-56.64 650.75,-75.89"/>
<text text-anchor="middle" x="627" y="-62.39" font-family="Helvetica,sans-Serif" font-size="10.00">actions</text>
</a>
</g>
</g>
<!-- dir_d2b8d8eda696fb67dda800ae051affdc&#45;&gt;dir_d44c64559bbebec7f509842c48db8b23 -->
<g id="edge2" class="edge">
<title>dir_d2b8d8eda696fb67dda800ae051affdc&#45;&gt;dir_d44c64559bbebec7f509842c48db8b23</title>
<g id="a_edge2"><a xlink:href="dir_000001_000012.html" target="_top">
<path fill="none" stroke="#63b8ff" d="M611.27,-56.22C605.93,-53.45 599.83,-50.62 594,-48.64 540.71,-30.53 475.89,-20.51 436.84,-15.71"/>
<polygon fill="#63b8ff" stroke="#63b8ff" points="437.43,-12.25 427.09,-14.55 436.61,-19.2 437.43,-12.25"/>
</a>
</g>
<g id="a_edge2&#45;headlabel"><a xlink:href="dir_000001_000012.html" target="_top" xlink:title="3">
<text text-anchor="middle" x="439.83" y="-5.8" font-family="Helvetica,sans-Serif" font-size="10.00" fill="#63b8ff">3</text>
</a>
</g>
</g>
<!-- dir_52afe6394927cedcb1ddeb1178eb9949 -->
<g id="node3" class="node">
<title>dir_52afe6394927cedcb1ddeb1178eb9949</title>
<g id="a_node3"><a xlink:href="dir_52afe6394927cedcb1ddeb1178eb9949.html" target="_top" xlink:title="auxkernels">
<polygon fill="#a2b4d6" stroke="#404040" points="585.25,-75.89 522.75,-75.89 522.75,-56.64 585.25,-56.64 585.25,-75.89"/>
<text text-anchor="middle" x="554" y="-62.39" font-family="Helvetica,sans-Serif" font-size="10.00">auxkernels</text>
</a>
</g>
</g>
<!-- dir_52afe6394927cedcb1ddeb1178eb9949&#45;&gt;dir_d44c64559bbebec7f509842c48db8b23 -->
<g id="edge3" class="edge">
<title>dir_52afe6394927cedcb1ddeb1178eb9949&#45;&gt;dir_d44c64559bbebec7f509842c48db8b23</title>
<g id="a_edge3"><a xlink:href="dir_000003_000012.html" target="_top">
<path fill="none" stroke="#63b8ff" d="M532.95,-56.15C526.87,-53.62 520.21,-50.94 514,-48.64 488.35,-39.13 458.95,-29.57 436.7,-22.6"/>
<polygon fill="#63b8ff" stroke="#63b8ff" points="437.82,-19.28 427.23,-19.65 435.74,-25.96 437.82,-19.28"/>
</a>
</g>
<g id="a_edge3&#45;headlabel"><a xlink:href="dir_000003_000012.html" target="_top" xlink:title="9">
<text text-anchor="middle" x="440.65" y="-13.31" font-family="Helvetica,sans-Serif" font-size="10.00" fill="#63b8ff">9</text>
</a>
</g>
</g>
<!-- dir_0af1587c8378955de40f48b4bd1869f0 -->
<g id="node4" class="node">
<title>dir_0af1587c8378955de40f48b4bd1869f0</title>
<g id="a_node4"><a xlink:href="dir_0af1587c8378955de40f48b4bd1869f0.html" target="_top" xlink:title="base">
<polygon fill="#a2b4d6" stroke="#404040" points="504.5,-75.89 467.5,-75.89 467.5,-56.64 504.5,-56.64 504.5,-75.89"/>
<text text-anchor="middle" x="486" y="-62.39" font-family="Helvetica,sans-Serif" font-size="10.00">base</text>
</a>
</g>
</g>
<!-- dir_0af1587c8378955de40f48b4bd1869f0&#45;&gt;dir_d44c64559bbebec7f509842c48db8b23 -->
<g id="edge4" class="edge">
<title>dir_0af1587c8378955de40f48b4bd1869f0&#45;&gt;dir_d44c64559bbebec7f509842c48db8b23</title>
<g id="a_edge4"><a xlink:href="dir_000005_000012.html" target="_top">
<path fill="none" stroke="#63b8ff" d="M471.75,-56.23C459.2,-48.28 440.67,-36.53 425.86,-27.14"/>
<polygon fill="#63b8ff" stroke="#63b8ff" points="427.92,-24.3 417.6,-21.9 424.17,-30.21 427.92,-24.3"/>
</a>
</g>
<g id="a_edge4&#45;headlabel"><a xlink:href="dir_000005_000012.html" target="_top" xlink:title="2">
<text text-anchor="middle" x="431.2" y="-19.14" font-family="Helvetica,sans-Serif" font-size="10.00" fill="#63b8ff">2</text>
</a>
</g>
</g>
<!-- dir_b42fa4734c76de29a4b97f55d0ce97b5 -->
<g id="node5" class="node">
<title>dir_b42fa4734c76de29a4b97f55d0ce97b5</title>
<g id="a_node5"><a xlink:href="dir_b42fa4734c76de29a4b97f55d0ce97b5.html" target="_top" xlink:title="bcs">
<polygon fill="#a2b4d6" stroke="#404040" points="449.88,-75.89 418.12,-75.89 418.12,-56.64 449.88,-56.64 449.88,-75.89"/>
<text text-anchor="middle" x="434" y="-62.39" font-family="Helvetica,sans-Serif" font-size="10.00">bcs</text>
</a>
</g>
</g>
<!-- dir_b42fa4734c76de29a4b97f55d0ce97b5&#45;&gt;dir_d44c64559bbebec7f509842c48db8b23 -->
<g id="edge5" class="edge">
<title>dir_b42fa4734c76de29a4b97f55d0ce97b5&#45;&gt;dir_d44c64559bbebec7f509842c48db8b23</title>
<g id="a_edge5"><a xlink:href="dir_000007_000012.html" target="_top">
<path fill="none" stroke="#63b8ff" d="M428.72,-56.47C424.53,-49.5 418.52,-39.51 413.27,-30.76"/>
<polygon fill="#63b8ff" stroke="#63b8ff" points="416.33,-29.06 408.18,-22.3 410.33,-32.67 416.33,-29.06"/>
</a>
</g>
<g id="a_edge5&#45;headlabel"><a xlink:href="dir_000007_000012.html" target="_top" xlink:title="14">
<text text-anchor="middle" x="419.84" y="-25.51" font-family="Helvetica,sans-Serif" font-size="10.00" fill="#63b8ff">14</text>
</a>
</g>
</g>
<!-- dir_a0ffb46312fd942a3bdda3379138cd3d -->
<g id="node6" class="node">
<title>dir_a0ffb46312fd942a3bdda3379138cd3d</title>
<g id="a_node6"><a xlink:href="dir_a0ffb46312fd942a3bdda3379138cd3d.html" target="_top" xlink:title="dgkernels">
<polygon fill="#a2b4d6" stroke="#404040" points="400,-75.89 342,-75.89 342,-56.64 400,-56.64 400,-75.89"/>
<text text-anchor="middle" x="371" y="-62.39" font-family="Helvetica,sans-Serif" font-size="10.00">dgkernels</text>
</a>
</g>
</g>
<!-- dir_a0ffb46312fd942a3bdda3379138cd3d&#45;&gt;dir_d44c64559bbebec7f509842c48db8b23 -->
<g id="edge6" class="edge">
<title>dir_a0ffb46312fd942a3bdda3379138cd3d&#45;&gt;dir_d44c64559bbebec7f509842c48db8b23</title>
<g id="a_edge6"><a xlink:href="dir_000009_000012.html" target="_top">
<path fill="none" stroke="#63b8ff" d="M376.12,-56.47C380.18,-49.5 385.99,-39.51 391.09,-30.76"/>
<polygon fill="#63b8ff" stroke="#63b8ff" points="394,-32.71 396.01,-22.31 387.95,-29.19 394,-32.71"/>
</a>
</g>
<g id="a_edge6&#45;headlabel"><a xlink:href="dir_000009_000012.html" target="_top" xlink:title="1">
<text text-anchor="middle" x="395.41" y="-32.06" font-family="Helvetica,sans-Serif" font-size="10.00" fill="#63b8ff">1</text>
</a>
</g>
</g>
<!-- dir_5cafbbc4d3ca7520a589c9bb006faf2e -->
<g id="node7" class="node">
<title>dir_5cafbbc4d3ca7520a589c9bb006faf2e</title>
<g id="a_node7"><a xlink:href="dir_5cafbbc4d3ca7520a589c9bb006faf2e.html" target="_top" xlink:title="dirackernels">
<polygon fill="#a2b4d6" stroke="#404040" points="324.25,-75.89 255.75,-75.89 255.75,-56.64 324.25,-56.64 324.25,-75.89"/>
<text text-anchor="middle" x="290" y="-62.39" font-family="Helvetica,sans-Serif" font-size="10.00">dirackernels</text>
</a>
</g>
</g>
<!-- dir_5cafbbc4d3ca7520a589c9bb006faf2e&#45;&gt;dir_d44c64559bbebec7f509842c48db8b23 -->
<g id="edge7" class="edge">
<title>dir_5cafbbc4d3ca7520a589c9bb006faf2e&#45;&gt;dir_d44c64559bbebec7f509842c48db8b23</title>
<g id="a_edge7"><a xlink:href="dir_000011_000012.html" target="_top">
<path fill="none" stroke="#63b8ff" d="M309,-56.23C326.46,-47.93 352.6,-35.5 372.72,-25.93"/>
<polygon fill="#63b8ff" stroke="#63b8ff" points="374.01,-29.2 381.54,-21.74 371.01,-22.87 374.01,-29.2"/>
</a>
</g>
<g id="a_edge7&#45;headlabel"><a xlink:href="dir_000011_000012.html" target="_top" xlink:title="1">
<text text-anchor="middle" x="373.35" y="-28.78" font-family="Helvetica,sans-Serif" font-size="10.00" fill="#63b8ff">1</text>
</a>
</g>
</g>
<!-- dir_40856f0cdd4bcafd28810d9265a200f7 -->
<g id="node8" class="node">
<title>dir_40856f0cdd4bcafd28810d9265a200f7</title>
<g id="a_node8"><a xlink:href="dir_40856f0cdd4bcafd28810d9265a200f7.html" target="_top" xlink:title="kernels">
<polygon fill="#a2b4d6" stroke="#404040" points="237.75,-75.89 190.25,-75.89 190.25,-56.64 237.75,-56.64 237.75,-75.89"/>
<text text-anchor="middle" x="214" y="-62.39" font-family="Helvetica,sans-Serif" font-size="10.00">kernels</text>
</a>
</g>
</g>
<!-- dir_40856f0cdd4bcafd28810d9265a200f7&#45;&gt;dir_d44c64559bbebec7f509842c48db8b23 -->
<g id="edge8" class="edge">
<title>dir_40856f0cdd4bcafd28810d9265a200f7&#45;&gt;dir_d44c64559bbebec7f509842c48db8b23</title>
<g id="a_edge8"><a xlink:href="dir_000014_000012.html" target="_top">
<path fill="none" stroke="#63b8ff" d="M230.11,-56.2C235.38,-53.49 241.33,-50.7 247,-48.64 287.15,-34.01 335.3,-23.7 367.17,-17.82"/>
<polygon fill="#63b8ff" stroke="#63b8ff" points="367.41,-21.33 376.64,-16.12 366.18,-14.44 367.41,-21.33"/>
</a>
</g>
<g id="a_edge8&#45;headlabel"><a xlink:href="dir_000014_000012.html" target="_top" xlink:title="28">
<text text-anchor="middle" x="365.86" y="-20.62" font-family="Helvetica,sans-Serif" font-size="10.00" fill="#63b8ff">28</text>
</a>
</g>
</g>
<!-- dir_79fa9b12a48436e6d1fb80a586e19af1 -->
<g id="node9" class="node">
<title>dir_79fa9b12a48436e6d1fb80a586e19af1</title>
<g id="a_node9"><a xlink:href="dir_79fa9b12a48436e6d1fb80a586e19af1.html" target="_top" xlink:title="materials">
<polygon fill="#a2b4d6" stroke="#404040" points="171.88,-75.89 116.12,-75.89 116.12,-56.64 171.88,-56.64 171.88,-75.89"/>
<text text-anchor="middle" x="144" y="-62.39" font-family="Helvetica,sans-Serif" font-size="10.00">materials</text>
</a>
</g>
</g>
<!-- dir_79fa9b12a48436e6d1fb80a586e19af1&#45;&gt;dir_d44c64559bbebec7f509842c48db8b23 -->
<g id="edge9" class="edge">
<title>dir_79fa9b12a48436e6d1fb80a586e19af1&#45;&gt;dir_d44c64559bbebec7f509842c48db8b23</title>
<g id="a_edge9"><a xlink:href="dir_000016_000012.html" target="_top">
<path fill="none" stroke="#63b8ff" d="M161.71,-56.19C167.71,-53.42 174.53,-50.59 181,-48.64 245.12,-29.28 322.98,-19.39 367.08,-14.99"/>
<polygon fill="#63b8ff" stroke="#63b8ff" points="367.19,-18.5 376.81,-14.06 366.53,-11.53 367.19,-18.5"/>
</a>
</g>
<g id="a_edge9&#45;headlabel"><a xlink:href="dir_000016_000012.html" target="_top" xlink:title="11">
<text text-anchor="middle" x="365.39" y="-17.65" font-family="Helvetica,sans-Serif" font-size="10.00" fill="#63b8ff">11</text>
</a>
</g>
</g>
<!-- dir_88ecfc89524da6b1e182c4fbbebb4797 -->
<g id="node10" class="node">
<title>dir_88ecfc89524da6b1e182c4fbbebb4797</title>
<g id="a_node10"><a xlink:href="dir_88ecfc89524da6b1e182c4fbbebb4797.html" target="_top" xlink:title="postprocessors">
<polygon fill="#a2b4d6" stroke="#404040" points="98.38,-75.89 15.62,-75.89 15.62,-56.64 98.38,-56.64 98.38,-75.89"/>
<text text-anchor="middle" x="57" y="-62.39" font-family="Helvetica,sans-Serif" font-size="10.00">postprocessors</text>
</a>
</g>
</g>
<!-- dir_88ecfc89524da6b1e182c4fbbebb4797&#45;&gt;dir_d44c64559bbebec7f509842c48db8b23 -->
<g id="edge10" class="edge">
<title>dir_88ecfc89524da6b1e182c4fbbebb4797&#45;&gt;dir_d44c64559bbebec7f509842c48db8b23</title>
<g id="a_edge10"><a xlink:href="dir_000018_000012.html" target="_top">
<path fill="none" stroke="#63b8ff" d="M81.14,-56.17C89.26,-53.4 98.43,-50.58 107,-48.64 199.62,-27.71 311.5,-17.94 367.1,-14.11"/>
<polygon fill="#63b8ff" stroke="#63b8ff" points="367.14,-17.61 376.89,-13.46 366.68,-10.63 367.14,-17.61"/>
</a>
</g>
<g id="a_edge10&#45;headlabel"><a xlink:href="dir_000018_000012.html" target="_top" xlink:title="12">
<text text-anchor="middle" x="365.26" y="-16.71" font-family="Helvetica,sans-Serif" font-size="10.00" fill="#63b8ff">12</text>
</a>
</g>
</g>
</g>
</svg>
