<?xml version="1.0" encoding="UTF-8" standalone="no"?>
<!DOCTYPE svg PUBLIC "-//W3C//DTD SVG 1.1//EN"
 "http://www.w3.org/Graphics/SVG/1.1/DTD/svg11.dtd">
<!-- Generated by graphviz version 12.2.0 (20241103.1931)
 -->
<!-- Title: src Pages: 1 -->
<!--zoomable 99 -->

<svg id="main" version="1.1" xmlns="http://www.w3.org/2000/svg" xmlns:xlink="http://www.w3.org/1999/xlink" xml:space="preserve" onload="init(evt)">

<style type="text/css"><![CDATA[
.node, .edge {opacity: 0.7;}
.node.selected, .edge.selected {opacity: 1;}
.edge:hover path { stroke: red; }
.edge:hover polygon { stroke: red; fill: red; }
]]></style>

<defs>
  <circle id="rim" cx="0" cy="0" r="7"/>
  <circle id="rim2" cx="0" cy="0" r="3.5"/>
  <g id="zoomPlus">
    <use xlink:href="#rim" fill="#404040"><set attributeName="fill" to="#808080" begin="zoomplus.mouseover" end="zoomplus.mouseout"/></use>
    <path d="M-4,0h8M0,-4v8" fill="none" stroke="white" stroke-width="1.5" pointer-events="none"/>
  </g>
  <g id="zoomMin">
    <use xlink:href="#rim" fill="#404040"><set attributeName="fill" to="#808080" begin="zoomminus.mouseover" end="zoomminus.mouseout"/></use>
    <path d="M-4,0h8" fill="none" stroke="white" stroke-width="1.5" pointer-events="none"/>
  </g>
  <g id="arrowUp" transform="translate(30 24)">
    <use xlink:href="#rim"/>
    <path pointer-events="none" fill="none" stroke="white" stroke-width="1.5" d="M0,-3.0v7 M-2.5,-0.5L0,-3.0L2.5,-0.5"/>
  </g>
  <g id="arrowRight" transform="rotate(90) translate(36 -43)">
    <use xlink:href="#rim"/>
    <path pointer-events="none" fill="none" stroke="white" stroke-width="1.5" d="M0,-3.0v7 M-2.5,-0.5L0,-3.0L2.5,-0.5"/>
  </g>
  <g id="arrowDown" transform="rotate(180) translate(-30 -48)">
    <use xlink:href="#rim"/>
    <path pointer-events="none" fill="none" stroke="white" stroke-width="1.5" d="M0,-3.0v7 M-2.5,-0.5L0,-3.0L2.5,-0.5"/>
  </g>
  <g id="arrowLeft" transform="rotate(270) translate(-36 17)">
    <use xlink:href="#rim"/>
    <path pointer-events="none" fill="none" stroke="white" stroke-width="1.5" d="M0,-3.0v7 M-2.5,-0.5L0,-3.0L2.5,-0.5"/>
  </g>
  <g id="resetDef">
    <use xlink:href="#rim2" fill="#404040"><set attributeName="fill" to="#808080" begin="reset.mouseover" end="reset.mouseout"/></use>
  </g>
</defs>
<script type="application/ecmascript">
var viewWidth = 775;
var viewHeight = 99;
var sectionId = 'dynsection-0';
</script>
<script type="application/ecmascript" xlink:href="svg.min.js"/>
<svg id="graph" class="graph">
<g id="viewport">
<title>src</title>
<g id="clust1" class="cluster">
<title>clusterdir_68267d1309a1af8e8297ef4c3efbcdba</title>
<g id="a_clust1"><a xlink:href="dir_68267d1309a1af8e8297ef4c3efbcdba.html" target="_top">
<polygon fill="#edf0f7" stroke="#404040" stroke-width="2" points="8,-47.25 8,-82.5 759,-82.5 759,-47.25 8,-47.25"/>
</a>
</g>
</g>
<!-- dir_68267d1309a1af8e8297ef4c3efbcdba -->
<g id="node1" class="node">
<title>dir_68267d1309a1af8e8297ef4c3efbcdba</title>
<text text-anchor="middle" x="31" y="-61" font-family="Helvetica,sans-Serif" font-size="10.00">src</text>
</g>
<!-- dir_d44c64559bbebec7f509842c48db8b23 -->
<g id="node12" class="node">
<title>dir_d44c64559bbebec7f509842c48db8b23</title>
<g id="a_node12"><a xlink:href="dir_d44c64559bbebec7f509842c48db8b23.html" target="_top" xlink:title="include">
<polygon fill="#edf0f7" stroke="red" points="367.38,-19.25 320.62,-19.25 320.62,0 367.38,0 367.38,-19.25"/>
<text text-anchor="middle" x="344" y="-5.75" font-family="Helvetica,sans-Serif" font-size="10.00">include</text>
</a>
</g>
</g>
<!-- dir_68267d1309a1af8e8297ef4c3efbcdba&#45;&gt;dir_d44c64559bbebec7f509842c48db8b23 -->
<g id="edge1" class="edge">
<title>dir_68267d1309a1af8e8297ef4c3efbcdba&#45;&gt;dir_d44c64559bbebec7f509842c48db8b23</title>
<g id="a_edge1"><a xlink:href="dir_000019_000012.html" target="_top">
<path fill="none" stroke="#63b8ff" d="M40.66,-55.59C44.82,-52.47 49.89,-49.21 55,-47.25 141.9,-13.95 253.18,-9.6 308.9,-9.78"/>
<polygon fill="#63b8ff" stroke="#63b8ff" points="308.69,-13.28 318.72,-9.88 308.75,-6.28 308.69,-13.28"/>
</a>
</g>
<g id="a_edge1&#45;headlabel"><a xlink:href="dir_000019_000012.html" target="_top" xlink:title="112">
<text text-anchor="middle" x="306.58" y="-12.23" font-family="Helvetica,sans-Serif" font-size="10.00" fill="#63b8ff">112</text>
</a>
</g>
</g>
<!-- dir_d2b8d8eda696fb67dda800ae051affdc -->
<g id="node2" class="node">
<title>dir_d2b8d8eda696fb67dda800ae051affdc</title>
<g id="a_node2"><a xlink:href="dir_d2b8d8eda696fb67dda800ae051affdc.html" target="_top" xlink:title="actions">
<polygon fill="#a2b4d6" stroke="#404040" points="111.75,-74.5 64.25,-74.5 64.25,-55.25 111.75,-55.25 111.75,-74.5"/>
<text text-anchor="middle" x="88" y="-61" font-family="Helvetica,sans-Serif" font-size="10.00">actions</text>
</a>
</g>
</g>
<!-- dir_d2b8d8eda696fb67dda800ae051affdc&#45;&gt;dir_d44c64559bbebec7f509842c48db8b23 -->
<g id="edge2" class="edge">
<title>dir_d2b8d8eda696fb67dda800ae051affdc&#45;&gt;dir_d44c64559bbebec7f509842c48db8b23</title>
<g id="a_edge2"><a xlink:href="dir_000001_000012.html" target="_top">
<path fill="none" stroke="#63b8ff" d="M103.36,-54.92C108.78,-52.09 115.02,-49.2 121,-47.25 185.42,-26.28 264.39,-16.94 308.97,-13.07"/>
<polygon fill="#63b8ff" stroke="#63b8ff" points="309.14,-16.57 318.82,-12.27 308.57,-9.6 309.14,-16.57"/>
</a>
</g>
<g id="a_edge2&#45;headlabel"><a xlink:href="dir_000001_000012.html" target="_top" xlink:title="3">
<text text-anchor="middle" x="307.3" y="-15.7" font-family="Helvetica,sans-Serif" font-size="10.00" fill="#63b8ff">3</text>
</a>
</g>
</g>
<!-- dir_52afe6394927cedcb1ddeb1178eb9949 -->
<g id="node3" class="node">
<title>dir_52afe6394927cedcb1ddeb1178eb9949</title>
<g id="a_node3"><a xlink:href="dir_52afe6394927cedcb1ddeb1178eb9949.html" target="_top" xlink:title="auxkernels">
<polygon fill="#a2b4d6" stroke="#404040" points="192.25,-74.5 129.75,-74.5 129.75,-55.25 192.25,-55.25 192.25,-74.5"/>
<text text-anchor="middle" x="161" y="-61" font-family="Helvetica,sans-Serif" font-size="10.00">auxkernels</text>
</a>
</g>
</g>
<!-- dir_52afe6394927cedcb1ddeb1178eb9949&#45;&gt;dir_d44c64559bbebec7f509842c48db8b23 -->
<g id="edge3" class="edge">
<title>dir_52afe6394927cedcb1ddeb1178eb9949&#45;&gt;dir_d44c64559bbebec7f509842c48db8b23</title>
<g id="a_edge3"><a xlink:href="dir_000003_000012.html" target="_top">
<path fill="none" stroke="#63b8ff" d="M181.66,-54.88C188.11,-52.24 195.29,-49.46 202,-47.25 238.02,-35.36 280.2,-24.91 309.18,-18.24"/>
<polygon fill="#63b8ff" stroke="#63b8ff" points="309.9,-21.67 318.88,-16.05 308.35,-14.84 309.9,-21.67"/>
</a>
</g>
<g id="a_edge3&#45;headlabel"><a xlink:href="dir_000003_000012.html" target="_top" xlink:title="18">
<text text-anchor="middle" x="308.5" y="-21.02" font-family="Helvetica,sans-Serif" font-size="10.00" fill="#63b8ff">18</text>
</a>
</g>
</g>
<!-- dir_0af1587c8378955de40f48b4bd1869f0 -->
<g id="node4" class="node">
<title>dir_0af1587c8378955de40f48b4bd1869f0</title>
<g id="a_node4"><a xlink:href="dir_0af1587c8378955de40f48b4bd1869f0.html" target="_top" xlink:title="base">
<polygon fill="#a2b4d6" stroke="#404040" points="247.5,-74.5 210.5,-74.5 210.5,-55.25 247.5,-55.25 247.5,-74.5"/>
<text text-anchor="middle" x="229" y="-61" font-family="Helvetica,sans-Serif" font-size="10.00">base</text>
</a>
</g>
</g>
<!-- dir_0af1587c8378955de40f48b4bd1869f0&#45;&gt;dir_d44c64559bbebec7f509842c48db8b23 -->
<g id="edge4" class="edge">
<title>dir_0af1587c8378955de40f48b4bd1869f0&#45;&gt;dir_d44c64559bbebec7f509842c48db8b23</title>
<g id="a_edge4"><a xlink:href="dir_000005_000012.html" target="_top">
<path fill="none" stroke="#63b8ff" d="M242.77,-54.82C246.94,-52.23 251.59,-49.51 256,-47.25 273.4,-38.34 293.48,-29.86 310.06,-23.3"/>
<polygon fill="#63b8ff" stroke="#63b8ff" points="310.92,-26.72 318.98,-19.83 308.39,-20.2 310.92,-26.72"/>
</a>
</g>
<g id="a_edge4&#45;headlabel"><a xlink:href="dir_000005_000012.html" target="_top" xlink:title="2">
<text text-anchor="middle" x="310.01" y="-26.25" font-family="Helvetica,sans-Serif" font-size="10.00" fill="#63b8ff">2</text>
</a>
</g>
</g>
<!-- dir_b42fa4734c76de29a4b97f55d0ce97b5 -->
<g id="node5" class="node">
<title>dir_b42fa4734c76de29a4b97f55d0ce97b5</title>
<g id="a_node5"><a xlink:href="dir_b42fa4734c76de29a4b97f55d0ce97b5.html" target="_top" xlink:title="bcs">
<polygon fill="#a2b4d6" stroke="#404040" points="296.88,-74.5 265.12,-74.5 265.12,-55.25 296.88,-55.25 296.88,-74.5"/>
<text text-anchor="middle" x="281" y="-61" font-family="Helvetica,sans-Serif" font-size="10.00">bcs</text>
</a>
</g>
</g>
<!-- dir_b42fa4734c76de29a4b97f55d0ce97b5&#45;&gt;dir_d44c64559bbebec7f509842c48db8b23 -->
<g id="edge5" class="edge">
<title>dir_b42fa4734c76de29a4b97f55d0ce97b5&#45;&gt;dir_d44c64559bbebec7f509842c48db8b23</title>
<g id="a_edge5"><a xlink:href="dir_000007_000012.html" target="_top">
<path fill="none" stroke="#63b8ff" d="M291.69,-54.84C300.7,-47.22 313.83,-36.12 324.68,-26.95"/>
<polygon fill="#63b8ff" stroke="#63b8ff" points="326.94,-29.63 332.31,-20.5 322.42,-24.28 326.94,-29.63"/>
</a>
</g>
<g id="a_edge5&#45;headlabel"><a xlink:href="dir_000007_000012.html" target="_top" xlink:title="21">
<text text-anchor="middle" x="327.18" y="-29.27" font-family="Helvetica,sans-Serif" font-size="10.00" fill="#63b8ff">21</text>
</a>
</g>
</g>
<!-- dir_a0ffb46312fd942a3bdda3379138cd3d -->
<g id="node6" class="node">
<title>dir_a0ffb46312fd942a3bdda3379138cd3d</title>
<g id="a_node6"><a xlink:href="dir_a0ffb46312fd942a3bdda3379138cd3d.html" target="_top" xlink:title="dgkernels">
<polygon fill="#a2b4d6" stroke="#404040" points="373,-74.5 315,-74.5 315,-55.25 373,-55.25 373,-74.5"/>
<text text-anchor="middle" x="344" y="-61" font-family="Helvetica,sans-Serif" font-size="10.00">dgkernels</text>
</a>
</g>
</g>
<!-- dir_a0ffb46312fd942a3bdda3379138cd3d&#45;&gt;dir_d44c64559bbebec7f509842c48db8b23 -->
<g id="edge6" class="edge">
<title>dir_a0ffb46312fd942a3bdda3379138cd3d&#45;&gt;dir_d44c64559bbebec7f509842c48db8b23</title>
<g id="a_edge6"><a xlink:href="dir_000009_000012.html" target="_top">
<path fill="none" stroke="#63b8ff" d="M344,-55.08C344,-48.57 344,-39.42 344,-31.12"/>
<polygon fill="#63b8ff" stroke="#63b8ff" points="347.5,-31.12 344,-21.12 340.5,-31.12 347.5,-31.12"/>
</a>
</g>
<g id="a_edge6&#45;headlabel"><a xlink:href="dir_000009_000012.html" target="_top" xlink:title="1">
<text text-anchor="middle" x="350.34" y="-29.33" font-family="Helvetica,sans-Serif" font-size="10.00" fill="#63b8ff">1</text>
</a>
</g>
</g>
<!-- dir_5cafbbc4d3ca7520a589c9bb006faf2e -->
<g id="node7" class="node">
<title>dir_5cafbbc4d3ca7520a589c9bb006faf2e</title>
<g id="a_node7"><a xlink:href="dir_5cafbbc4d3ca7520a589c9bb006faf2e.html" target="_top" xlink:title="dirackernels">
<polygon fill="#a2b4d6" stroke="#404040" points="459.25,-74.5 390.75,-74.5 390.75,-55.25 459.25,-55.25 459.25,-74.5"/>
<text text-anchor="middle" x="425" y="-61" font-family="Helvetica,sans-Serif" font-size="10.00">dirackernels</text>
</a>
</g>
</g>
<!-- dir_5cafbbc4d3ca7520a589c9bb006faf2e&#45;&gt;dir_d44c64559bbebec7f509842c48db8b23 -->
<g id="edge7" class="edge">
<title>dir_5cafbbc4d3ca7520a589c9bb006faf2e&#45;&gt;dir_d44c64559bbebec7f509842c48db8b23</title>
<g id="a_edge7"><a xlink:href="dir_000011_000012.html" target="_top">
<path fill="none" stroke="#63b8ff" d="M411.26,-54.84C399.27,-46.96 381.63,-35.36 367.42,-26.02"/>
<polygon fill="#63b8ff" stroke="#63b8ff" points="369.35,-23.1 359.07,-20.53 365.51,-28.95 369.35,-23.1"/>
</a>
</g>
<g id="a_edge7&#45;headlabel"><a xlink:href="dir_000011_000012.html" target="_top" xlink:title="1">
<text text-anchor="middle" x="372.65" y="-18" font-family="Helvetica,sans-Serif" font-size="10.00" fill="#63b8ff">1</text>
</a>
</g>
</g>
<!-- dir_40856f0cdd4bcafd28810d9265a200f7 -->
<g id="node8" class="node">
<title>dir_40856f0cdd4bcafd28810d9265a200f7</title>
<g id="a_node8"><a xlink:href="dir_40856f0cdd4bcafd28810d9265a200f7.html" target="_top" xlink:title="kernels">
<polygon fill="#a2b4d6" stroke="#404040" points="524.75,-74.5 477.25,-74.5 477.25,-55.25 524.75,-55.25 524.75,-74.5"/>
<text text-anchor="middle" x="501" y="-61" font-family="Helvetica,sans-Serif" font-size="10.00">kernels</text>
</a>
</g>
</g>
<!-- dir_40856f0cdd4bcafd28810d9265a200f7&#45;&gt;dir_d44c64559bbebec7f509842c48db8b23 -->
<g id="edge8" class="edge">
<title>dir_40856f0cdd4bcafd28810d9265a200f7&#45;&gt;dir_d44c64559bbebec7f509842c48db8b23</title>
<g id="a_edge8"><a xlink:href="dir_000014_000012.html" target="_top">
<path fill="none" stroke="#63b8ff" d="M484.48,-54.82C479.29,-52.18 473.49,-49.42 468,-47.25 438.5,-35.57 403.77,-25.62 378.58,-19.06"/>
<polygon fill="#63b8ff" stroke="#63b8ff" points="379.76,-15.74 369.2,-16.66 378.02,-22.52 379.76,-15.74"/>
</a>
</g>
<g id="a_edge8&#45;headlabel"><a xlink:href="dir_000014_000012.html" target="_top" xlink:title="37">
<text text-anchor="middle" x="382.48" y="-9.63" font-family="Helvetica,sans-Serif" font-size="10.00" fill="#63b8ff">37</text>
</a>
</g>
</g>
<!-- dir_79fa9b12a48436e6d1fb80a586e19af1 -->
<g id="node9" class="node">
<title>dir_79fa9b12a48436e6d1fb80a586e19af1</title>
<g id="a_node9"><a xlink:href="dir_79fa9b12a48436e6d1fb80a586e19af1.html" target="_top" xlink:title="materials">
<polygon fill="#a2b4d6" stroke="#404040" points="598.88,-74.5 543.12,-74.5 543.12,-55.25 598.88,-55.25 598.88,-74.5"/>
<text text-anchor="middle" x="571" y="-61" font-family="Helvetica,sans-Serif" font-size="10.00">materials</text>
</a>
</g>
</g>
<!-- dir_79fa9b12a48436e6d1fb80a586e19af1&#45;&gt;dir_d44c64559bbebec7f509842c48db8b23 -->
<g id="edge9" class="edge">
<title>dir_79fa9b12a48436e6d1fb80a586e19af1&#45;&gt;dir_d44c64559bbebec7f509842c48db8b23</title>
<g id="a_edge9"><a xlink:href="dir_000016_000012.html" target="_top">
<path fill="none" stroke="#63b8ff" d="M553.26,-54.9C547.26,-52.14 540.45,-49.29 534,-47.25 481.29,-30.58 417.82,-20.2 379.22,-14.92"/>
<polygon fill="#63b8ff" stroke="#63b8ff" points="379.71,-11.46 369.34,-13.61 378.79,-18.4 379.71,-11.46"/>
</a>
</g>
<g id="a_edge9&#45;headlabel"><a xlink:href="dir_000016_000012.html" target="_top" xlink:title="14">
<text text-anchor="middle" x="382.15" y="-5.04" font-family="Helvetica,sans-Serif" font-size="10.00" fill="#63b8ff">14</text>
</a>
</g>
</g>
<!-- dir_88ecfc89524da6b1e182c4fbbebb4797 -->
<g id="node10" class="node">
<title>dir_88ecfc89524da6b1e182c4fbbebb4797</title>
<g id="a_node10"><a xlink:href="dir_88ecfc89524da6b1e182c4fbbebb4797.html" target="_top" xlink:title="postprocessors">
<polygon fill="#a2b4d6" stroke="#404040" points="699.38,-74.5 616.62,-74.5 616.62,-55.25 699.38,-55.25 699.38,-74.5"/>
<text text-anchor="middle" x="658" y="-61" font-family="Helvetica,sans-Serif" font-size="10.00">postprocessors</text>
</a>
</g>
</g>
<!-- dir_88ecfc89524da6b1e182c4fbbebb4797&#45;&gt;dir_d44c64559bbebec7f509842c48db8b23 -->
<g id="edge10" class="edge">
<title>dir_88ecfc89524da6b1e182c4fbbebb4797&#45;&gt;dir_d44c64559bbebec7f509842c48db8b23</title>
<g id="a_edge10"><a xlink:href="dir_000018_000012.html" target="_top">
<path fill="none" stroke="#63b8ff" d="M633.59,-54.76C625.53,-52.03 616.46,-49.23 608,-47.25 527.07,-28.35 429.76,-17.94 378.88,-13.41"/>
<polygon fill="#63b8ff" stroke="#63b8ff" points="379.34,-9.94 369.08,-12.57 378.74,-16.92 379.34,-9.94"/>
</a>
</g>
<g id="a_edge10&#45;headlabel"><a xlink:href="dir_000018_000012.html" target="_top" xlink:title="13">
<text text-anchor="middle" x="381.66" y="-3.42" font-family="Helvetica,sans-Serif" font-size="10.00" fill="#63b8ff">13</text>
</a>
</g>
</g>
<!-- dir_313caf1132e152dd9b58bea13a4052ca -->
<g id="node11" class="node">
<title>dir_313caf1132e152dd9b58bea13a4052ca</title>
<g id="a_node11"><a xlink:href="dir_313caf1132e152dd9b58bea13a4052ca.html" target="_top" xlink:title="utils">
<polygon fill="#a2b4d6" stroke="#404040" points="751,-74.5 717,-74.5 717,-55.25 751,-55.25 751,-74.5"/>
<text text-anchor="middle" x="734" y="-61" font-family="Helvetica,sans-Serif" font-size="10.00">utils</text>
</a>
</g>
</g>
<!-- dir_313caf1132e152dd9b58bea13a4052ca&#45;&gt;dir_d44c64559bbebec7f509842c48db8b23 -->
<g id="edge11" class="edge">
<title>dir_313caf1132e152dd9b58bea13a4052ca&#45;&gt;dir_d44c64559bbebec7f509842c48db8b23</title>
<g id="a_edge11"><a xlink:href="dir_000021_000012.html" target="_top">
<path fill="none" stroke="#63b8ff" d="M722.44,-54.84C718.13,-51.93 713.06,-49.01 708,-47.25 647.66,-26.27 457.37,-15.65 378.63,-12.06"/>
<polygon fill="#63b8ff" stroke="#63b8ff" points="379.08,-8.57 368.93,-11.63 378.77,-15.57 379.08,-8.57"/>
</a>
</g>
<g id="a_edge11&#45;headlabel"><a xlink:href="dir_000021_000012.html" target="_top" xlink:title="1">
<text text-anchor="middle" x="381.28" y="-1.96" font-family="Helvetica,sans-Serif" font-size="10.00" fill="#63b8ff">1</text>
</a>
</g>
</g>
</g>
</svg>

<g id="navigator" transform="translate(0 0)" fill="#404254">
  <rect fill="#f2f5e9" fill-opacity="0.5" stroke="#606060" stroke-width=".5" x="0" y="0" width="60" height="60"/>
  <use id="zoomplus" xlink:href="#zoomPlus" x="17" y="9" onmousedown="handleZoom(evt,'in')"/>
  <use id="zoomminus" xlink:href="#zoomMin" x="42" y="9" onmousedown="handleZoom(evt,'out')"/>
  <use id="reset" xlink:href="#resetDef" x="30" y="36" onmousedown="handleReset()"/>
   <use id="arrowup" xlink:href="#arrowUp" x="0" y="0" onmousedown="handlePan(0,-1)"/>
  <use id="arrowright" xlink:href="#arrowRight" x="0" y="0" onmousedown="handlePan(1,0)"/>
  <use id="arrowdown" xlink:href="#arrowDown" x="0" y="0" onmousedown="handlePan(0,1)"/>
  <use id="arrowleft" xlink:href="#arrowLeft" x="0" y="0" onmousedown="handlePan(-1,0)"/>
</g>
<svg viewBox="0 0 15 15" width="100%" height="30px" preserveAspectRatio="xMaxYMin meet">
 <g id="arrow_out" transform="scale(0.3 0.3)">
  <a xlink:href="dir_68267d1309a1af8e8297ef4c3efbcdba_dep_org.svg" target="_base">
   <rect id="button" ry="5" rx="5" y="6" x="6" height="38" width="38"
        fill="#f2f5e9" fill-opacity="0.5" stroke="#606060" stroke-width="1.0"/>
   <path id="arrow"
     d="M 11.500037,31.436501 C 11.940474,20.09759 22.043105,11.32322 32.158766,21.979434 L 37.068811,17.246167 C 37.068811,17.246167 37.088388,32 37.088388,32 L 22.160133,31.978069 C 22.160133,31.978069 26.997745,27.140456 26.997745,27.140456 C 18.528582,18.264221 13.291696,25.230495 11.500037,31.436501 z"
     style="fill:#404040;"/>
  </a>
 </g>
</svg>

<style type='text/css'>
<![CDATA[
[data-mouse-over-selected='false'] { opacity: 0.7; }
[data-mouse-over-selected='true']  { opacity: 1.0; }
]]>
</style>
<script type="application/ecmascript"><![CDATA[
document.addEventListener('DOMContentLoaded', (event) => {
  highlightEdges();
  highlightAdjacentNodes();
});
]]></script>
</svg>
