<?xml version="1.0" encoding="UTF-8" standalone="no"?>
<!DOCTYPE svg PUBLIC "-//W3C//DTD SVG 1.1//EN"
 "http://www.w3.org/Graphics/SVG/1.1/DTD/svg11.dtd">
<!-- Generated by graphviz version 12.2.0 (20241103.1931)
 -->
<!-- Title: src Pages: 1 -->
<svg width="723pt" height="99pt"
 viewBox="0.00 0.00 723.00 98.50" xmlns="http://www.w3.org/2000/svg" xmlns:xlink="http://www.w3.org/1999/xlink">
<g id="graph0" class="graph" transform="scale(1 1) rotate(0) translate(4 94.5)">
<title>src</title>
<g id="clust1" class="cluster">
<title>clusterdir_68267d1309a1af8e8297ef4c3efbcdba</title>
<g id="a_clust1"><a xlink:href="dir_68267d1309a1af8e8297ef4c3efbcdba.html" target="_top">
<polygon fill="#edf0f7" stroke="#404040" stroke-width="2" points="8,-47.25 8,-82.5 707,-82.5 707,-47.25 8,-47.25"/>
</a>
</g>
</g>
<!-- dir_68267d1309a1af8e8297ef4c3efbcdba -->
<g id="node1" class="node">
<title>dir_68267d1309a1af8e8297ef4c3efbcdba</title>
<text text-anchor="middle" x="31" y="-61" font-family="Helvetica,sans-Serif" font-size="10.00">src</text>
</g>
<!-- dir_d44c64559bbebec7f509842c48db8b23 -->
<g id="node11" class="node">
<title>dir_d44c64559bbebec7f509842c48db8b23</title>
<g id="a_node11"><a xlink:href="dir_d44c64559bbebec7f509842c48db8b23.html" target="_top" xlink:title="include">
<polygon fill="#edf0f7" stroke="red" points="335.38,-19.25 288.62,-19.25 288.62,0 335.38,0 335.38,-19.25"/>
<text text-anchor="middle" x="312" y="-5.75" font-family="Helvetica,sans-Serif" font-size="10.00">include</text>
</a>
</g>
</g>
<!-- dir_68267d1309a1af8e8297ef4c3efbcdba&#45;&gt;dir_d44c64559bbebec7f509842c48db8b23 -->
<g id="edge1" class="edge">
<title>dir_68267d1309a1af8e8297ef4c3efbcdba&#45;&gt;dir_d44c64559bbebec7f509842c48db8b23</title>
<g id="a_edge1"><a xlink:href="dir_000019_000012.html" target="_top">
<path fill="none" stroke="#63b8ff" d="M41.15,-55.29C45.21,-52.28 50.09,-49.17 55,-47.25 130.36,-17.7 226.47,-11.59 277.13,-10.57"/>
<polygon fill="#63b8ff" stroke="#63b8ff" points="276.94,-14.07 286.89,-10.43 276.84,-7.07 276.94,-14.07"/>
</a>
</g>
<g id="a_edge1&#45;headlabel"><a xlink:href="dir_000019_000012.html" target="_top" xlink:title="80">
<text text-anchor="middle" x="274.9" y="-13.06" font-family="Helvetica,sans-Serif" font-size="10.00" fill="#63b8ff">80</text>
</a>
</g>
</g>
<!-- dir_d2b8d8eda696fb67dda800ae051affdc -->
<g id="node2" class="node">
<title>dir_d2b8d8eda696fb67dda800ae051affdc</title>
<g id="a_node2"><a xlink:href="dir_d2b8d8eda696fb67dda800ae051affdc.html" target="_top" xlink:title="actions">
<polygon fill="#a2b4d6" stroke="#404040" points="111.75,-74.5 64.25,-74.5 64.25,-55.25 111.75,-55.25 111.75,-74.5"/>
<text text-anchor="middle" x="88" y="-61" font-family="Helvetica,sans-Serif" font-size="10.00">actions</text>
</a>
</g>
</g>
<!-- dir_d2b8d8eda696fb67dda800ae051affdc&#45;&gt;dir_d44c64559bbebec7f509842c48db8b23 -->
<g id="edge2" class="edge">
<title>dir_d2b8d8eda696fb67dda800ae051affdc&#45;&gt;dir_d44c64559bbebec7f509842c48db8b23</title>
<g id="a_edge2"><a xlink:href="dir_000001_000012.html" target="_top">
<path fill="none" stroke="#63b8ff" d="M103.73,-54.84C109.07,-52.07 115.17,-49.23 121,-47.25 173.86,-29.26 238.14,-19.23 277.02,-14.38"/>
<polygon fill="#63b8ff" stroke="#63b8ff" points="277.22,-17.88 286.73,-13.22 276.39,-10.93 277.22,-17.88"/>
</a>
</g>
<g id="a_edge2&#45;headlabel"><a xlink:href="dir_000001_000012.html" target="_top" xlink:title="3">
<text text-anchor="middle" x="275.49" y="-17.07" font-family="Helvetica,sans-Serif" font-size="10.00" fill="#63b8ff">3</text>
</a>
</g>
</g>
<!-- dir_52afe6394927cedcb1ddeb1178eb9949 -->
<g id="node3" class="node">
<title>dir_52afe6394927cedcb1ddeb1178eb9949</title>
<g id="a_node3"><a xlink:href="dir_52afe6394927cedcb1ddeb1178eb9949.html" target="_top" xlink:title="auxkernels">
<polygon fill="#a2b4d6" stroke="#404040" points="192.25,-74.5 129.75,-74.5 129.75,-55.25 192.25,-55.25 192.25,-74.5"/>
<text text-anchor="middle" x="161" y="-61" font-family="Helvetica,sans-Serif" font-size="10.00">auxkernels</text>
</a>
</g>
</g>
<!-- dir_52afe6394927cedcb1ddeb1178eb9949&#45;&gt;dir_d44c64559bbebec7f509842c48db8b23 -->
<g id="edge3" class="edge">
<title>dir_52afe6394927cedcb1ddeb1178eb9949&#45;&gt;dir_d44c64559bbebec7f509842c48db8b23</title>
<g id="a_edge3"><a xlink:href="dir_000003_000012.html" target="_top">
<path fill="none" stroke="#63b8ff" d="M182.6,-54.81C188.83,-52.28 195.66,-49.59 202,-47.25 227.09,-38 255.76,-28.49 277.54,-21.47"/>
<polygon fill="#63b8ff" stroke="#63b8ff" points="278.34,-24.89 286.8,-18.51 276.21,-18.22 278.34,-24.89"/>
</a>
</g>
<g id="a_edge3&#45;headlabel"><a xlink:href="dir_000003_000012.html" target="_top" xlink:title="9">
<text text-anchor="middle" x="277.23" y="-24.35" font-family="Helvetica,sans-Serif" font-size="10.00" fill="#63b8ff">9</text>
</a>
</g>
</g>
<!-- dir_0af1587c8378955de40f48b4bd1869f0 -->
<g id="node4" class="node">
<title>dir_0af1587c8378955de40f48b4bd1869f0</title>
<g id="a_node4"><a xlink:href="dir_0af1587c8378955de40f48b4bd1869f0.html" target="_top" xlink:title="base">
<polygon fill="#a2b4d6" stroke="#404040" points="247.5,-74.5 210.5,-74.5 210.5,-55.25 247.5,-55.25 247.5,-74.5"/>
<text text-anchor="middle" x="229" y="-61" font-family="Helvetica,sans-Serif" font-size="10.00">base</text>
</a>
</g>
</g>
<!-- dir_0af1587c8378955de40f48b4bd1869f0&#45;&gt;dir_d44c64559bbebec7f509842c48db8b23 -->
<g id="edge4" class="edge">
<title>dir_0af1587c8378955de40f48b4bd1869f0&#45;&gt;dir_d44c64559bbebec7f509842c48db8b23</title>
<g id="a_edge4"><a xlink:href="dir_000005_000012.html" target="_top">
<path fill="none" stroke="#63b8ff" d="M243.08,-54.84C255.48,-46.89 273.79,-35.14 288.43,-25.75"/>
<polygon fill="#63b8ff" stroke="#63b8ff" points="290.05,-28.87 296.58,-20.52 286.27,-22.97 290.05,-28.87"/>
</a>
</g>
<g id="a_edge4&#45;headlabel"><a xlink:href="dir_000005_000012.html" target="_top" xlink:title="2">
<text text-anchor="middle" x="289.83" y="-28.5" font-family="Helvetica,sans-Serif" font-size="10.00" fill="#63b8ff">2</text>
</a>
</g>
</g>
<!-- dir_b42fa4734c76de29a4b97f55d0ce97b5 -->
<g id="node5" class="node">
<title>dir_b42fa4734c76de29a4b97f55d0ce97b5</title>
<g id="a_node5"><a xlink:href="dir_b42fa4734c76de29a4b97f55d0ce97b5.html" target="_top" xlink:title="bcs">
<polygon fill="#a2b4d6" stroke="#404040" points="296.88,-74.5 265.12,-74.5 265.12,-55.25 296.88,-55.25 296.88,-74.5"/>
<text text-anchor="middle" x="281" y="-61" font-family="Helvetica,sans-Serif" font-size="10.00">bcs</text>
</a>
</g>
</g>
<!-- dir_b42fa4734c76de29a4b97f55d0ce97b5&#45;&gt;dir_d44c64559bbebec7f509842c48db8b23 -->
<g id="edge5" class="edge">
<title>dir_b42fa4734c76de29a4b97f55d0ce97b5&#45;&gt;dir_d44c64559bbebec7f509842c48db8b23</title>
<g id="a_edge5"><a xlink:href="dir_000007_000012.html" target="_top">
<path fill="none" stroke="#63b8ff" d="M286.12,-55.08C290.18,-48.11 295.99,-38.12 301.09,-29.37"/>
<polygon fill="#63b8ff" stroke="#63b8ff" points="304,-31.32 306.01,-20.92 297.95,-27.8 304,-31.32"/>
</a>
</g>
<g id="a_edge5&#45;headlabel"><a xlink:href="dir_000007_000012.html" target="_top" xlink:title="14">
<text text-anchor="middle" x="305.41" y="-30.67" font-family="Helvetica,sans-Serif" font-size="10.00" fill="#63b8ff">14</text>
</a>
</g>
</g>
<!-- dir_a0ffb46312fd942a3bdda3379138cd3d -->
<g id="node6" class="node">
<title>dir_a0ffb46312fd942a3bdda3379138cd3d</title>
<g id="a_node6"><a xlink:href="dir_a0ffb46312fd942a3bdda3379138cd3d.html" target="_top" xlink:title="dgkernels">
<polygon fill="#a2b4d6" stroke="#404040" points="373,-74.5 315,-74.5 315,-55.25 373,-55.25 373,-74.5"/>
<text text-anchor="middle" x="344" y="-61" font-family="Helvetica,sans-Serif" font-size="10.00">dgkernels</text>
</a>
</g>
</g>
<!-- dir_a0ffb46312fd942a3bdda3379138cd3d&#45;&gt;dir_d44c64559bbebec7f509842c48db8b23 -->
<g id="edge6" class="edge">
<title>dir_a0ffb46312fd942a3bdda3379138cd3d&#45;&gt;dir_d44c64559bbebec7f509842c48db8b23</title>
<g id="a_edge6"><a xlink:href="dir_000009_000012.html" target="_top">
<path fill="none" stroke="#63b8ff" d="M338.72,-55.08C334.53,-48.11 328.52,-38.12 323.27,-29.37"/>
<polygon fill="#63b8ff" stroke="#63b8ff" points="326.33,-27.68 318.18,-20.91 320.33,-31.28 326.33,-27.68"/>
</a>
</g>
<g id="a_edge6&#45;headlabel"><a xlink:href="dir_000009_000012.html" target="_top" xlink:title="1">
<text text-anchor="middle" x="329.84" y="-24.12" font-family="Helvetica,sans-Serif" font-size="10.00" fill="#63b8ff">1</text>
</a>
</g>
</g>
<!-- dir_5cafbbc4d3ca7520a589c9bb006faf2e -->
<g id="node7" class="node">
<title>dir_5cafbbc4d3ca7520a589c9bb006faf2e</title>
<g id="a_node7"><a xlink:href="dir_5cafbbc4d3ca7520a589c9bb006faf2e.html" target="_top" xlink:title="dirackernels">
<polygon fill="#a2b4d6" stroke="#404040" points="459.25,-74.5 390.75,-74.5 390.75,-55.25 459.25,-55.25 459.25,-74.5"/>
<text text-anchor="middle" x="425" y="-61" font-family="Helvetica,sans-Serif" font-size="10.00">dirackernels</text>
</a>
</g>
</g>
<!-- dir_5cafbbc4d3ca7520a589c9bb006faf2e&#45;&gt;dir_d44c64559bbebec7f509842c48db8b23 -->
<g id="edge7" class="edge">
<title>dir_5cafbbc4d3ca7520a589c9bb006faf2e&#45;&gt;dir_d44c64559bbebec7f509842c48db8b23</title>
<g id="a_edge7"><a xlink:href="dir_000011_000012.html" target="_top">
<path fill="none" stroke="#63b8ff" d="M405.83,-54.84C388.22,-46.54 361.84,-34.11 341.54,-24.54"/>
<polygon fill="#63b8ff" stroke="#63b8ff" points="343.17,-21.44 332.63,-20.35 340.19,-27.78 343.17,-21.44"/>
</a>
</g>
<g id="a_edge7&#45;headlabel"><a xlink:href="dir_000011_000012.html" target="_top" xlink:title="1">
<text text-anchor="middle" x="346.26" y="-15.89" font-family="Helvetica,sans-Serif" font-size="10.00" fill="#63b8ff">1</text>
</a>
</g>
</g>
<!-- dir_40856f0cdd4bcafd28810d9265a200f7 -->
<g id="node8" class="node">
<title>dir_40856f0cdd4bcafd28810d9265a200f7</title>
<g id="a_node8"><a xlink:href="dir_40856f0cdd4bcafd28810d9265a200f7.html" target="_top" xlink:title="kernels">
<polygon fill="#a2b4d6" stroke="#404040" points="524.75,-74.5 477.25,-74.5 477.25,-55.25 524.75,-55.25 524.75,-74.5"/>
<text text-anchor="middle" x="501" y="-61" font-family="Helvetica,sans-Serif" font-size="10.00">kernels</text>
</a>
</g>
</g>
<!-- dir_40856f0cdd4bcafd28810d9265a200f7&#45;&gt;dir_d44c64559bbebec7f509842c48db8b23 -->
<g id="edge8" class="edge">
<title>dir_40856f0cdd4bcafd28810d9265a200f7&#45;&gt;dir_d44c64559bbebec7f509842c48db8b23</title>
<g id="a_edge8"><a xlink:href="dir_000014_000012.html" target="_top">
<path fill="none" stroke="#63b8ff" d="M484.89,-54.8C479.62,-52.1 473.67,-49.31 468,-47.25 427.48,-32.52 378.85,-22.2 346.78,-16.35"/>
<polygon fill="#63b8ff" stroke="#63b8ff" points="347.71,-12.96 337.25,-14.67 346.49,-19.86 347.71,-12.96"/>
</a>
</g>
<g id="a_edge8&#45;headlabel"><a xlink:href="dir_000014_000012.html" target="_top" xlink:title="25">
<text text-anchor="middle" x="350.25" y="-6.66" font-family="Helvetica,sans-Serif" font-size="10.00" fill="#63b8ff">25</text>
</a>
</g>
</g>
<!-- dir_79fa9b12a48436e6d1fb80a586e19af1 -->
<g id="node9" class="node">
<title>dir_79fa9b12a48436e6d1fb80a586e19af1</title>
<g id="a_node9"><a xlink:href="dir_79fa9b12a48436e6d1fb80a586e19af1.html" target="_top" xlink:title="materials">
<polygon fill="#a2b4d6" stroke="#404040" points="598.88,-74.5 543.12,-74.5 543.12,-55.25 598.88,-55.25 598.88,-74.5"/>
<text text-anchor="middle" x="571" y="-61" font-family="Helvetica,sans-Serif" font-size="10.00">materials</text>
</a>
</g>
</g>
<!-- dir_79fa9b12a48436e6d1fb80a586e19af1&#45;&gt;dir_d44c64559bbebec7f509842c48db8b23 -->
<g id="edge9" class="edge">
<title>dir_79fa9b12a48436e6d1fb80a586e19af1&#45;&gt;dir_d44c64559bbebec7f509842c48db8b23</title>
<g id="a_edge9"><a xlink:href="dir_000016_000012.html" target="_top">
<path fill="none" stroke="#63b8ff" d="M553.29,-54.8C547.29,-52.03 540.47,-49.2 534,-47.25 469.59,-27.83 391.38,-17.96 347.08,-13.59"/>
<polygon fill="#63b8ff" stroke="#63b8ff" points="347.58,-10.12 337.29,-12.66 346.92,-17.09 347.58,-10.12"/>
</a>
</g>
<g id="a_edge9&#45;headlabel"><a xlink:href="dir_000016_000012.html" target="_top" xlink:title="11">
<text text-anchor="middle" x="349.92" y="-3.61" font-family="Helvetica,sans-Serif" font-size="10.00" fill="#63b8ff">11</text>
</a>
</g>
</g>
<!-- dir_88ecfc89524da6b1e182c4fbbebb4797 -->
<g id="node10" class="node">
<title>dir_88ecfc89524da6b1e182c4fbbebb4797</title>
<g id="a_node10"><a xlink:href="dir_88ecfc89524da6b1e182c4fbbebb4797.html" target="_top" xlink:title="postprocessors">
<polygon fill="#a2b4d6" stroke="#404040" points="699.38,-74.5 616.62,-74.5 616.62,-55.25 699.38,-55.25 699.38,-74.5"/>
<text text-anchor="middle" x="658" y="-61" font-family="Helvetica,sans-Serif" font-size="10.00">postprocessors</text>
</a>
</g>
</g>
<!-- dir_88ecfc89524da6b1e182c4fbbebb4797&#45;&gt;dir_d44c64559bbebec7f509842c48db8b23 -->
<g id="edge10" class="edge">
<title>dir_88ecfc89524da6b1e182c4fbbebb4797&#45;&gt;dir_d44c64559bbebec7f509842c48db8b23</title>
<g id="a_edge10"><a xlink:href="dir_000018_000012.html" target="_top">
<path fill="none" stroke="#63b8ff" d="M633.86,-54.78C625.74,-52.01 616.57,-49.18 608,-47.25 515.06,-26.27 402.81,-16.53 347.02,-12.71"/>
<polygon fill="#63b8ff" stroke="#63b8ff" points="347.4,-9.22 337.19,-12.06 346.94,-16.21 347.4,-9.22"/>
</a>
</g>
<g id="a_edge10&#45;headlabel"><a xlink:href="dir_000018_000012.html" target="_top" xlink:title="13">
<text text-anchor="middle" x="349.66" y="-2.65" font-family="Helvetica,sans-Serif" font-size="10.00" fill="#63b8ff">13</text>
</a>
</g>
</g>
</g>
</svg>
