<?xml version="1.0" encoding="UTF-8" standalone="no"?>
<!DOCTYPE svg PUBLIC "-//W3C//DTD SVG 1.1//EN"
 "http://www.w3.org/Graphics/SVG/1.1/DTD/svg11.dtd">
<!-- Generated by graphviz version 2.49.3 (20211027.1534)
 -->
<!-- Title: src Pages: 1 -->
<!--zoomable 132 -->
<svg id="main" version="1.1" xmlns="http://www.w3.org/2000/svg" xmlns:xlink="http://www.w3.org/1999/xlink" xml:space="preserve" onload="init(evt)">
<style type="text/css"><![CDATA[
.edge:hover path { stroke: red; }
.edge:hover polygon { stroke: red; fill: red; }
]]></style>
<script type="text/javascript"><![CDATA[
var edges = document.getElementsByTagName('g');
if (edges && edges.length) {
  for (var i=0;i<edges.length;i++) {
    if (edges[i].id.substr(0,4)=='edge') {
      edges[i].setAttribute('class','edge');
    }
  }
}
]]></script>
        <defs>
                <circle id="rim" cx="0" cy="0" r="7"/>
                <circle id="rim2" cx="0" cy="0" r="3.5"/>
                <g id="zoomPlus">
                        <use xlink:href="#rim" fill="#404040">
                                <set attributeName="fill" to="#808080" begin="zoomplus.mouseover" end="zoomplus.mouseout"/>
                        </use>
                        <path d="M-4,0h8M0,-4v8" fill="none" stroke="white" stroke-width="1.5" pointer-events="none"/>
                </g>
                <g id="zoomMin">
                        <use xlink:href="#rim" fill="#404040">
                                <set attributeName="fill" to="#808080" begin="zoomminus.mouseover" end="zoomminus.mouseout"/>
                        </use>
                        <path d="M-4,0h8" fill="none" stroke="white" stroke-width="1.5" pointer-events="none"/>
                </g>
                <g id="dirArrow">
                        <path fill="none" stroke="white" stroke-width="1.5" d="M0,-3.0v7 M-2.5,-0.5L0,-3.0L2.5,-0.5"/>
                </g>
               <g id="resetDef">
                       <use xlink:href="#rim2" fill="#404040">
                               <set attributeName="fill" to="#808080" begin="reset.mouseover" end="reset.mouseout"/>
                       </use>
               </g>
        </defs>

<script type="text/javascript">
var viewWidth = 728;
var viewHeight = 132;
var sectionId = 'dynsection-0';
</script>
<script xlink:href="svgpan.js"/>
<svg id="graph" class="graph">
<g id="viewport">
<title>src</title>
<polygon fill="white" stroke="transparent" points="-4,4 -4,-128 724,-128 724,4 -4,4"/>
<g id="clust1" class="cluster">
<title>clusterdir_68267d1309a1af8e8297ef4c3efbcdba</title>
<g id="a_clust1"><a xlink:href="dir_68267d1309a1af8e8297ef4c3efbcdba.html" target="_top">
<polygon fill="#eeeeff" stroke="black" points="8,-64 8,-116 712,-116 712,-64 8,-64"/>
</a>
</g>
</g>
<!-- dir_68267d1309a1af8e8297ef4c3efbcdba -->
<g id="node1" class="node">
<title>dir_68267d1309a1af8e8297ef4c3efbcdba</title>
<text text-anchor="middle" x="677" y="-87.5" font-family="Helvetica,sans-Serif" font-size="10.00">src</text>
</g>
<!-- dir_d2b8d8eda696fb67dda800ae051affdc -->
<g id="node2" class="node">
<title>dir_d2b8d8eda696fb67dda800ae051affdc</title>
<g id="a_node2"><a xlink:href="dir_d2b8d8eda696fb67dda800ae051affdc.html" target="_top" xlink:title="actions">
<polygon fill="white" stroke="black" points="632,-108 578,-108 578,-72 632,-72 632,-108"/>
<text text-anchor="middle" x="605" y="-87.5" font-family="Helvetica,sans-Serif" font-size="10.00">actions</text>
</a>
</g>
</g>
<!-- dir_d44c64559bbebec7f509842c48db8b23 -->
<g id="node10" class="node">
<title>dir_d44c64559bbebec7f509842c48db8b23</title>
<g id="a_node10"><a xlink:href="dir_d44c64559bbebec7f509842c48db8b23.html" target="_top" xlink:title="include">
<polygon fill="white" stroke="red" points="366,-36 312,-36 312,0 366,0 366,-36"/>
<text text-anchor="middle" x="339" y="-15.5" font-family="Helvetica,sans-Serif" font-size="10.00">include</text>
</a>
</g>
</g>
<!-- dir_d2b8d8eda696fb67dda800ae051affdc&#45;&gt;dir_d44c64559bbebec7f509842c48db8b23 -->
<g id="edge8" class="edge">
<title>dir_d2b8d8eda696fb67dda800ae051affdc&#45;&gt;dir_d44c64559bbebec7f509842c48db8b23</title>
<path fill="none" stroke="black" d="M583.37,-71.87C578.82,-68.88 573.91,-66.07 569,-64 504.68,-36.8 423.23,-25.84 376.52,-21.58"/>
<polygon fill="black" stroke="black" points="376.53,-18.07 366.26,-20.7 375.93,-25.04 376.53,-18.07"/>
<g id="a_edge8&#45;headlabel"><a xlink:href="dir_000010_000000.html" target="_top" xlink:title="3">
<text text-anchor="middle" x="380.35" y="-13.04" font-family="Helvetica,sans-Serif" font-size="10.00">3</text>
</a>
</g>
</g>
<!-- dir_52afe6394927cedcb1ddeb1178eb9949 -->
<g id="node3" class="node">
<title>dir_52afe6394927cedcb1ddeb1178eb9949</title>
<g id="a_node3"><a xlink:href="dir_52afe6394927cedcb1ddeb1178eb9949.html" target="_top" xlink:title="auxkernels">
<polygon fill="white" stroke="black" points="559.5,-108 496.5,-108 496.5,-72 559.5,-72 559.5,-108"/>
<text text-anchor="middle" x="528" y="-87.5" font-family="Helvetica,sans-Serif" font-size="10.00">auxkernels</text>
</a>
</g>
</g>
<!-- dir_52afe6394927cedcb1ddeb1178eb9949&#45;&gt;dir_d44c64559bbebec7f509842c48db8b23 -->
<g id="edge3" class="edge">
<title>dir_52afe6394927cedcb1ddeb1178eb9949&#45;&gt;dir_d44c64559bbebec7f509842c48db8b23</title>
<path fill="none" stroke="black" d="M502.07,-71.85C497.18,-69 492.02,-66.25 487,-64 450.56,-47.67 406.52,-35.13 376,-27.48"/>
<polygon fill="black" stroke="black" points="376.75,-24.06 366.2,-25.08 375.08,-30.86 376.75,-24.06"/>
<g id="a_edge3&#45;headlabel"><a xlink:href="dir_000011_000000.html" target="_top" xlink:title="5">
<text text-anchor="middle" x="380.92" y="-19.66" font-family="Helvetica,sans-Serif" font-size="10.00">5</text>
</a>
</g>
</g>
<!-- dir_0af1587c8378955de40f48b4bd1869f0 -->
<g id="node4" class="node">
<title>dir_0af1587c8378955de40f48b4bd1869f0</title>
<g id="a_node4"><a xlink:href="dir_0af1587c8378955de40f48b4bd1869f0.html" target="_top" xlink:title="base">
<polygon fill="white" stroke="black" points="478,-108 424,-108 424,-72 478,-72 478,-108"/>
<text text-anchor="middle" x="451" y="-87.5" font-family="Helvetica,sans-Serif" font-size="10.00">base</text>
</a>
</g>
</g>
<!-- dir_0af1587c8378955de40f48b4bd1869f0&#45;&gt;dir_d44c64559bbebec7f509842c48db8b23 -->
<g id="edge1" class="edge">
<title>dir_0af1587c8378955de40f48b4bd1869f0&#45;&gt;dir_d44c64559bbebec7f509842c48db8b23</title>
<path fill="none" stroke="black" d="M426.76,-71.81C422.86,-69.15 418.84,-66.47 415,-64 402.13,-55.73 387.74,-47.07 374.98,-39.58"/>
<polygon fill="black" stroke="black" points="376.42,-36.37 366.02,-34.36 372.89,-42.42 376.42,-36.37"/>
<g id="a_edge1&#45;headlabel"><a xlink:href="dir_000012_000000.html" target="_top" xlink:title="2">
<text text-anchor="middle" x="380.96" y="-33.23" font-family="Helvetica,sans-Serif" font-size="10.00">2</text>
</a>
</g>
</g>
<!-- dir_b42fa4734c76de29a4b97f55d0ce97b5 -->
<g id="node5" class="node">
<title>dir_b42fa4734c76de29a4b97f55d0ce97b5</title>
<g id="a_node5"><a xlink:href="dir_b42fa4734c76de29a4b97f55d0ce97b5.html" target="_top" xlink:title="bcs">
<polygon fill="white" stroke="black" points="406,-108 352,-108 352,-72 406,-72 406,-108"/>
<text text-anchor="middle" x="379" y="-87.5" font-family="Helvetica,sans-Serif" font-size="10.00">bcs</text>
</a>
</g>
</g>
<!-- dir_b42fa4734c76de29a4b97f55d0ce97b5&#45;&gt;dir_d44c64559bbebec7f509842c48db8b23 -->
<g id="edge7" class="edge">
<title>dir_b42fa4734c76de29a4b97f55d0ce97b5&#45;&gt;dir_d44c64559bbebec7f509842c48db8b23</title>
<path fill="none" stroke="black" d="M369.11,-71.7C364.51,-63.64 358.94,-53.89 353.85,-44.98"/>
<polygon fill="black" stroke="black" points="356.77,-43.05 348.77,-36.1 350.7,-46.52 356.77,-43.05"/>
<g id="a_edge7&#45;headlabel"><a xlink:href="dir_000013_000000.html" target="_top" xlink:title="11">
<text text-anchor="middle" x="361.02" y="-42.26" font-family="Helvetica,sans-Serif" font-size="10.00">11</text>
</a>
</g>
</g>
<!-- dir_5cafbbc4d3ca7520a589c9bb006faf2e -->
<g id="node6" class="node">
<title>dir_5cafbbc4d3ca7520a589c9bb006faf2e</title>
<g id="a_node6"><a xlink:href="dir_5cafbbc4d3ca7520a589c9bb006faf2e.html" target="_top" xlink:title="dirackernels">
<polygon fill="white" stroke="black" points="333.5,-108 264.5,-108 264.5,-72 333.5,-72 333.5,-108"/>
<text text-anchor="middle" x="299" y="-87.5" font-family="Helvetica,sans-Serif" font-size="10.00">dirackernels</text>
</a>
</g>
</g>
<!-- dir_5cafbbc4d3ca7520a589c9bb006faf2e&#45;&gt;dir_d44c64559bbebec7f509842c48db8b23 -->
<g id="edge4" class="edge">
<title>dir_5cafbbc4d3ca7520a589c9bb006faf2e&#45;&gt;dir_d44c64559bbebec7f509842c48db8b23</title>
<path fill="none" stroke="black" d="M308.89,-71.7C313.49,-63.64 319.06,-53.89 324.15,-44.98"/>
<polygon fill="black" stroke="black" points="327.3,-46.52 329.23,-36.1 321.23,-43.05 327.3,-46.52"/>
<g id="a_edge4&#45;headlabel"><a xlink:href="dir_000014_000000.html" target="_top" xlink:title="1">
<text text-anchor="middle" x="327.99" y="-48.55" font-family="Helvetica,sans-Serif" font-size="10.00">1</text>
</a>
</g>
</g>
<!-- dir_40856f0cdd4bcafd28810d9265a200f7 -->
<g id="node7" class="node">
<title>dir_40856f0cdd4bcafd28810d9265a200f7</title>
<g id="a_node7"><a xlink:href="dir_40856f0cdd4bcafd28810d9265a200f7.html" target="_top" xlink:title="kernels">
<polygon fill="white" stroke="black" points="246,-108 192,-108 192,-72 246,-72 246,-108"/>
<text text-anchor="middle" x="219" y="-87.5" font-family="Helvetica,sans-Serif" font-size="10.00">kernels</text>
</a>
</g>
</g>
<!-- dir_40856f0cdd4bcafd28810d9265a200f7&#45;&gt;dir_d44c64559bbebec7f509842c48db8b23 -->
<g id="edge2" class="edge">
<title>dir_40856f0cdd4bcafd28810d9265a200f7&#45;&gt;dir_d44c64559bbebec7f509842c48db8b23</title>
<path fill="none" stroke="black" d="M243.46,-71.99C247.6,-69.25 251.89,-66.49 256,-64 270.94,-54.93 287.84,-45.61 302.47,-37.82"/>
<polygon fill="black" stroke="black" points="304.5,-40.7 311.71,-32.94 301.23,-34.51 304.5,-40.7"/>
<g id="a_edge2&#45;headlabel"><a xlink:href="dir_000015_000000.html" target="_top" xlink:title="24">
<text text-anchor="middle" x="302.65" y="-42.39" font-family="Helvetica,sans-Serif" font-size="10.00">24</text>
</a>
</g>
</g>
<!-- dir_79fa9b12a48436e6d1fb80a586e19af1 -->
<g id="node8" class="node">
<title>dir_79fa9b12a48436e6d1fb80a586e19af1</title>
<g id="a_node8"><a xlink:href="dir_79fa9b12a48436e6d1fb80a586e19af1.html" target="_top" xlink:title="materials">
<polygon fill="white" stroke="black" points="174,-108 118,-108 118,-72 174,-72 174,-108"/>
<text text-anchor="middle" x="146" y="-87.5" font-family="Helvetica,sans-Serif" font-size="10.00">materials</text>
</a>
</g>
</g>
<!-- dir_79fa9b12a48436e6d1fb80a586e19af1&#45;&gt;dir_d44c64559bbebec7f509842c48db8b23 -->
<g id="edge5" class="edge">
<title>dir_79fa9b12a48436e6d1fb80a586e19af1&#45;&gt;dir_d44c64559bbebec7f509842c48db8b23</title>
<path fill="none" stroke="black" d="M168.83,-71.97C173.38,-69.04 178.22,-66.23 183,-64 221.82,-45.84 269.56,-33.38 301.92,-26.25"/>
<polygon fill="black" stroke="black" points="302.82,-29.64 311.86,-24.12 301.35,-22.8 302.82,-29.64"/>
<g id="a_edge5&#45;headlabel"><a xlink:href="dir_000016_000000.html" target="_top" xlink:title="9">
<text text-anchor="middle" x="299.9" y="-30.67" font-family="Helvetica,sans-Serif" font-size="10.00">9</text>
</a>
</g>
</g>
<!-- dir_88ecfc89524da6b1e182c4fbbebb4797 -->
<g id="node9" class="node">
<title>dir_88ecfc89524da6b1e182c4fbbebb4797</title>
<g id="a_node9"><a xlink:href="dir_88ecfc89524da6b1e182c4fbbebb4797.html" target="_top" xlink:title="postprocessors">
<polygon fill="white" stroke="black" points="99.5,-108 16.5,-108 16.5,-72 99.5,-72 99.5,-108"/>
<text text-anchor="middle" x="58" y="-87.5" font-family="Helvetica,sans-Serif" font-size="10.00">postprocessors</text>
</a>
</g>
</g>
<!-- dir_88ecfc89524da6b1e182c4fbbebb4797&#45;&gt;dir_d44c64559bbebec7f509842c48db8b23 -->
<g id="edge6" class="edge">
<title>dir_88ecfc89524da6b1e182c4fbbebb4797&#45;&gt;dir_d44c64559bbebec7f509842c48db8b23</title>
<path fill="none" stroke="black" d="M89.56,-71.94C95.87,-68.99 102.55,-66.17 109,-64 175.01,-41.8 255.57,-29.17 301.71,-23.23"/>
<polygon fill="black" stroke="black" points="302.36,-26.68 311.85,-21.97 301.49,-19.74 302.36,-26.68"/>
<g id="a_edge6&#45;headlabel"><a xlink:href="dir_000017_000000.html" target="_top" xlink:title="10">
<text text-anchor="middle" x="299.14" y="-27.44" font-family="Helvetica,sans-Serif" font-size="10.00">10</text>
</a>
</g>
</g>
</g>
</svg>
        <g id="navigator" transform="translate(0 0)" fill="#404254">
                <rect fill="#f2f5e9" fill-opacity="0.5" stroke="#606060" stroke-width=".5" x="0" y="0" width="60" height="60"/>
                <use id="zoomplus" xlink:href="#zoomPlus" x="17" y="9" onmousedown="handleZoom(evt,'in')"/>
                <use id="zoomminus" xlink:href="#zoomMin" x="42" y="9" onmousedown="handleZoom(evt,'out')"/>
                <use id="reset" xlink:href="#resetDef" x="30" y="36" onmousedown="handleReset()"/>
                <g id="arrowUp" xlink:href="#dirArrow" transform="translate(30 24)" onmousedown="handlePan(0,-1)">
                  <use xlink:href="#rim" fill="#404040">
                        <set attributeName="fill" to="#808080" begin="arrowUp.mouseover" end="arrowUp.mouseout"/>
                  </use>
                  <path fill="none" stroke="white" stroke-width="1.5" d="M0,-3.0v7 M-2.5,-0.5L0,-3.0L2.5,-0.5"/>
                </g>
                <g id="arrowRight" xlink:href="#dirArrow" transform="rotate(90) translate(36 -43)" onmousedown="handlePan(1,0)">
                  <use xlink:href="#rim" fill="#404040">
                        <set attributeName="fill" to="#808080" begin="arrowRight.mouseover" end="arrowRight.mouseout"/>
                  </use>
                  <path fill="none" stroke="white" stroke-width="1.5" d="M0,-3.0v7 M-2.5,-0.5L0,-3.0L2.5,-0.5"/>
                </g>
                <g id="arrowDown" xlink:href="#dirArrow" transform="rotate(180) translate(-30 -48)" onmousedown="handlePan(0,1)">
                  <use xlink:href="#rim" fill="#404040">
                        <set attributeName="fill" to="#808080" begin="arrowDown.mouseover" end="arrowDown.mouseout"/>
                  </use>
                  <path fill="none" stroke="white" stroke-width="1.5" d="M0,-3.0v7 M-2.5,-0.5L0,-3.0L2.5,-0.5"/>
                </g>
                <g id="arrowLeft" xlink:href="#dirArrow" transform="rotate(270) translate(-36 17)" onmousedown="handlePan(-1,0)">
                  <use xlink:href="#rim" fill="#404040">
                        <set attributeName="fill" to="#808080" begin="arrowLeft.mouseover" end="arrowLeft.mouseout"/>
                  </use>
                  <path fill="none" stroke="white" stroke-width="1.5" d="M0,-3.0v7 M-2.5,-0.5L0,-3.0L2.5,-0.5"/>
                </g>
        </g>
        <svg viewBox="0 0 15 15" width="100%" height="30px" preserveAspectRatio="xMaxYMin meet">
         <g id="arrow_out" transform="scale(0.3 0.3)">
          <a xlink:href="dir_68267d1309a1af8e8297ef4c3efbcdba_dep_org.svg" target="_base">
           <rect id="button" ry="5" rx="5" y="6" x="6" height="38" width="38"
                fill="#f2f5e9" fill-opacity="0.5" stroke="#606060" stroke-width="1.0"/>
           <path id="arrow"
             d="M 11.500037,31.436501 C 11.940474,20.09759 22.043105,11.32322 32.158766,21.979434 L 37.068811,17.246167 C 37.068811,17.246167 37.088388,32 37.088388,32 L 22.160133,31.978069 C 22.160133,31.978069 26.997745,27.140456 26.997745,27.140456 C 18.528582,18.264221 13.291696,25.230495 11.500037,31.436501 z"
             style="fill:#404040;"/>
          </a>
         </g>
        </svg>
</svg>
