<?xml version="1.0" encoding="UTF-8" standalone="no"?>
<!DOCTYPE svg PUBLIC "-//W3C//DTD SVG 1.1//EN"
 "http://www.w3.org/Graphics/SVG/1.1/DTD/svg11.dtd">
<!-- Generated by graphviz version 9.0.0 (20230911.1827)
 -->
<!-- Title: include Pages: 1 -->
<!--zoomable 115 -->

<svg id="main" version="1.1" xmlns="http://www.w3.org/2000/svg" xmlns:xlink="http://www.w3.org/1999/xlink" xml:space="preserve" onload="init(evt)">
<style type="text/css"><![CDATA[
.node, .edge {opacity: 0.7;}
.node.selected, .edge.selected {opacity: 1;}
.edge:hover path { stroke: red; }
.edge:hover polygon { stroke: red; fill: red; }
]]></style>

<defs>
  <circle id="rim" cx="0" cy="0" r="7"/>
  <circle id="rim2" cx="0" cy="0" r="3.5"/>
  <g id="zoomPlus">
    <use xlink:href="#rim" fill="#404040"><set attributeName="fill" to="#808080" begin="zoomplus.mouseover" end="zoomplus.mouseout"/></use>
    <path d="M-4,0h8M0,-4v8" fill="none" stroke="white" stroke-width="1.5" pointer-events="none"/>
  </g>
  <g id="zoomMin">
    <use xlink:href="#rim" fill="#404040"><set attributeName="fill" to="#808080" begin="zoomminus.mouseover" end="zoomminus.mouseout"/></use>
    <path d="M-4,0h8" fill="none" stroke="white" stroke-width="1.5" pointer-events="none"/>
  </g>
  <g id="arrowUp" transform="translate(30 24)">
    <use xlink:href="#rim"/>
    <path pointer-events="none" fill="none" stroke="white" stroke-width="1.5" d="M0,-3.0v7 M-2.5,-0.5L0,-3.0L2.5,-0.5"/>
  </g>
  <g id="arrowRight" transform="rotate(90) translate(36 -43)">
    <use xlink:href="#rim"/>
    <path pointer-events="none" fill="none" stroke="white" stroke-width="1.5" d="M0,-3.0v7 M-2.5,-0.5L0,-3.0L2.5,-0.5"/>
  </g>
  <g id="arrowDown" transform="rotate(180) translate(-30 -48)">
    <use xlink:href="#rim"/>
    <path pointer-events="none" fill="none" stroke="white" stroke-width="1.5" d="M0,-3.0v7 M-2.5,-0.5L0,-3.0L2.5,-0.5"/>
  </g>
  <g id="arrowLeft" transform="rotate(270) translate(-36 17)">
    <use xlink:href="#rim"/>
    <path pointer-events="none" fill="none" stroke="white" stroke-width="1.5" d="M0,-3.0v7 M-2.5,-0.5L0,-3.0L2.5,-0.5"/>
  </g>
  <g id="resetDef">
    <use xlink:href="#rim2" fill="#404040"><set attributeName="fill" to="#808080" begin="reset.mouseover" end="reset.mouseout"/></use>
  </g>
</defs>
<script type="application/ecmascript">
var viewWidth = 684;
var viewHeight = 115;
var sectionId = 'dynsection-0';
</script>
<script type="application/ecmascript" xlink:href="svg.min.js"/>
<svg id="graph" class="graph">
<g id="viewport">
<title>include</title>
<g id="clust1" class="cluster">
<title>clusterdir_d44c64559bbebec7f509842c48db8b23</title>
<g id="a_clust1"><a xlink:href="dir_d44c64559bbebec7f509842c48db8b23.html" target="_top">
<polygon fill="#edf0f7" stroke="#404040" stroke-width="2" points="8,-8 8,-98.5 668,-98.5 668,-8 8,-8"/>
</a>
</g>
</g>
<!-- dir_d44c64559bbebec7f509842c48db8b23 -->
<g id="node1" class="node">
<title>dir_d44c64559bbebec7f509842c48db8b23</title>
<text text-anchor="middle" x="637" y="-77" font-family="Helvetica,sans-Serif" font-size="10.00">include</text>
</g>
<!-- dir_0b9ed7732631b4e65a5030233eb5fc5a -->
<g id="node2" class="node">
<title>dir_0b9ed7732631b4e65a5030233eb5fc5a</title>
<g id="a_node2"><a xlink:href="dir_0b9ed7732631b4e65a5030233eb5fc5a.html" target="_top" xlink:title="actions">
<polygon fill="#a2b4d6" stroke="#404040" points="595.75,-90.5 548.25,-90.5 548.25,-71.25 595.75,-71.25 595.75,-90.5"/>
<text text-anchor="middle" x="572" y="-77" font-family="Helvetica,sans-Serif" font-size="10.00">actions</text>
</a>
</g>
</g>
<!-- dir_ad471e77ba5a72af0767bcb44d2be997 -->
<g id="node3" class="node">
<title>dir_ad471e77ba5a72af0767bcb44d2be997</title>
<g id="a_node3"><a xlink:href="dir_ad471e77ba5a72af0767bcb44d2be997.html" target="_top" xlink:title="auxkernels">
<polygon fill="#a2b4d6" stroke="#404040" points="530.25,-90.5 467.75,-90.5 467.75,-71.25 530.25,-71.25 530.25,-90.5"/>
<text text-anchor="middle" x="499" y="-77" font-family="Helvetica,sans-Serif" font-size="10.00">auxkernels</text>
</a>
</g>
</g>
<!-- dir_ab1c81409f0df724f17c9ef30afee877 -->
<g id="node4" class="node">
<title>dir_ab1c81409f0df724f17c9ef30afee877</title>
<g id="a_node4"><a xlink:href="dir_ab1c81409f0df724f17c9ef30afee877.html" target="_top" xlink:title="base">
<polygon fill="#a2b4d6" stroke="#404040" points="232.5,-35.25 195.5,-35.25 195.5,-16 232.5,-16 232.5,-35.25"/>
<text text-anchor="middle" x="214" y="-21.75" font-family="Helvetica,sans-Serif" font-size="10.00">base</text>
</a>
</g>
</g>
<!-- dir_6c5a344b9c03c6428d49f0b38500fe7f -->
<g id="node5" class="node">
<title>dir_6c5a344b9c03c6428d49f0b38500fe7f</title>
<g id="a_node5"><a xlink:href="dir_6c5a344b9c03c6428d49f0b38500fe7f.html" target="_top" xlink:title="bcs">
<polygon fill="#a2b4d6" stroke="#404040" points="449.88,-90.5 418.12,-90.5 418.12,-71.25 449.88,-71.25 449.88,-90.5"/>
<text text-anchor="middle" x="434" y="-77" font-family="Helvetica,sans-Serif" font-size="10.00">bcs</text>
</a>
</g>
</g>
<!-- dir_6c5a344b9c03c6428d49f0b38500fe7f&#45;&gt;dir_ab1c81409f0df724f17c9ef30afee877 -->
<g id="edge1" class="edge">
<title>dir_6c5a344b9c03c6428d49f0b38500fe7f&#45;&gt;dir_ab1c81409f0df724f17c9ef30afee877</title>
<g id="a_edge1"><a xlink:href="dir_000006_000004.html" target="_top">
<path fill="none" stroke="#63b8ff" d="M417.67,-73.96C414.8,-73 411.83,-72.06 409,-71.25 351.33,-54.75 282.71,-40.2 244.17,-32.48"/>
<polygon fill="#63b8ff" stroke="#63b8ff" points="244.97,-29.07 234.48,-30.56 243.61,-35.94 244.97,-29.07"/>
</a>
</g>
<g id="a_edge1&#45;headlabel"><a xlink:href="dir_000006_000004.html" target="_top" xlink:title="4">
<text text-anchor="middle" x="247.56" y="-22.82" font-family="Helvetica,sans-Serif" font-size="10.00" fill="#63b8ff">4</text>
</a>
</g>
</g>
<!-- dir_e313ae6235229141100fd0edcf178102 -->
<g id="node6" class="node">
<title>dir_e313ae6235229141100fd0edcf178102</title>
<g id="a_node6"><a xlink:href="dir_e313ae6235229141100fd0edcf178102.html" target="_top" xlink:title="dgkernels">
<polygon fill="#a2b4d6" stroke="#404040" points="400,-90.5 342,-90.5 342,-71.25 400,-71.25 400,-90.5"/>
<text text-anchor="middle" x="371" y="-77" font-family="Helvetica,sans-Serif" font-size="10.00">dgkernels</text>
</a>
</g>
</g>
<!-- dir_6c6f4828ced252df7a457d18180150c1 -->
<g id="node7" class="node">
<title>dir_6c6f4828ced252df7a457d18180150c1</title>
<g id="a_node7"><a xlink:href="dir_6c6f4828ced252df7a457d18180150c1.html" target="_top" xlink:title="dirackernels">
<polygon fill="#a2b4d6" stroke="#404040" points="324.25,-90.5 255.75,-90.5 255.75,-71.25 324.25,-71.25 324.25,-90.5"/>
<text text-anchor="middle" x="290" y="-77" font-family="Helvetica,sans-Serif" font-size="10.00">dirackernels</text>
</a>
</g>
</g>
<!-- dir_f2fd8bd6424c93166d6dd5f2b70706e7 -->
<g id="node8" class="node">
<title>dir_f2fd8bd6424c93166d6dd5f2b70706e7</title>
<g id="a_node8"><a xlink:href="dir_f2fd8bd6424c93166d6dd5f2b70706e7.html" target="_top" xlink:title="kernels">
<polygon fill="#a2b4d6" stroke="#404040" points="237.75,-90.5 190.25,-90.5 190.25,-71.25 237.75,-71.25 237.75,-90.5"/>
<text text-anchor="middle" x="214" y="-77" font-family="Helvetica,sans-Serif" font-size="10.00">kernels</text>
</a>
</g>
</g>
<!-- dir_f2fd8bd6424c93166d6dd5f2b70706e7&#45;&gt;dir_ab1c81409f0df724f17c9ef30afee877 -->
<g id="edge2" class="edge">
<title>dir_f2fd8bd6424c93166d6dd5f2b70706e7&#45;&gt;dir_ab1c81409f0df724f17c9ef30afee877</title>
<g id="a_edge2"><a xlink:href="dir_000013_000004.html" target="_top">
<path fill="none" stroke="#63b8ff" d="M214,-71.08C214,-64.57 214,-55.42 214,-47.12"/>
<polygon fill="#63b8ff" stroke="#63b8ff" points="217.5,-47.12 214,-37.12 210.5,-47.12 217.5,-47.12"/>
</a>
</g>
<g id="a_edge2&#45;headlabel"><a xlink:href="dir_000013_000004.html" target="_top" xlink:title="17">
<text text-anchor="middle" x="220.34" y="-45.33" font-family="Helvetica,sans-Serif" font-size="10.00" fill="#63b8ff">17</text>
</a>
</g>
</g>
<!-- dir_e8162cbcd2a0630786d64b00f43c2c71 -->
<g id="node9" class="node">
<title>dir_e8162cbcd2a0630786d64b00f43c2c71</title>
<g id="a_node9"><a xlink:href="dir_e8162cbcd2a0630786d64b00f43c2c71.html" target="_top" xlink:title="materials">
<polygon fill="#a2b4d6" stroke="#404040" points="171.88,-90.5 116.12,-90.5 116.12,-71.25 171.88,-71.25 171.88,-90.5"/>
<text text-anchor="middle" x="144" y="-77" font-family="Helvetica,sans-Serif" font-size="10.00">materials</text>
</a>
</g>
</g>
<!-- dir_b843596cc84dd0b637fa3210ef36d913 -->
<g id="node10" class="node">
<title>dir_b843596cc84dd0b637fa3210ef36d913</title>
<g id="a_node10"><a xlink:href="dir_b843596cc84dd0b637fa3210ef36d913.html" target="_top" xlink:title="postprocessors">
<polygon fill="#a2b4d6" stroke="#404040" points="98.38,-90.5 15.62,-90.5 15.62,-71.25 98.38,-71.25 98.38,-90.5"/>
<text text-anchor="middle" x="57" y="-77" font-family="Helvetica,sans-Serif" font-size="10.00">postprocessors</text>
</a>
</g>
</g>
<!-- dir_b843596cc84dd0b637fa3210ef36d913&#45;&gt;dir_ab1c81409f0df724f17c9ef30afee877 -->
<g id="edge3" class="edge">
<title>dir_b843596cc84dd0b637fa3210ef36d913&#45;&gt;dir_ab1c81409f0df724f17c9ef30afee877</title>
<g id="a_edge3"><a xlink:href="dir_000017_000004.html" target="_top">
<path fill="none" stroke="#63b8ff" d="M83.63,-70.84C111.59,-61.36 155.44,-46.49 184.45,-36.65"/>
<polygon fill="#63b8ff" stroke="#63b8ff" points="185.36,-40.03 193.71,-33.51 183.11,-33.4 185.36,-40.03"/>
</a>
</g>
<g id="a_edge3&#45;headlabel"><a xlink:href="dir_000017_000004.html" target="_top" xlink:title="4">
<text text-anchor="middle" x="184.3" y="-39.52" font-family="Helvetica,sans-Serif" font-size="10.00" fill="#63b8ff">4</text>
</a>
</g>
</g>
</g>
</svg>

<g id="navigator" transform="translate(0 0)" fill="#404254">
  <rect fill="#f2f5e9" fill-opacity="0.5" stroke="#606060" stroke-width=".5" x="0" y="0" width="60" height="60"/>
  <use id="zoomplus" xlink:href="#zoomPlus" x="17" y="9" onmousedown="handleZoom(evt,'in')"/>
  <use id="zoomminus" xlink:href="#zoomMin" x="42" y="9" onmousedown="handleZoom(evt,'out')"/>
  <use id="reset" xlink:href="#resetDef" x="30" y="36" onmousedown="handleReset()"/>
   <use id="arrowup" xlink:href="#arrowUp" x="0" y="0" onmousedown="handlePan(0,-1)"/>
  <use id="arrowright" xlink:href="#arrowRight" x="0" y="0" onmousedown="handlePan(1,0)"/>
  <use id="arrowdown" xlink:href="#arrowDown" x="0" y="0" onmousedown="handlePan(0,1)"/>
  <use id="arrowleft" xlink:href="#arrowLeft" x="0" y="0" onmousedown="handlePan(-1,0)"/>
</g>
<svg viewBox="0 0 15 15" width="100%" height="30px" preserveAspectRatio="xMaxYMin meet">
 <g id="arrow_out" transform="scale(0.3 0.3)">
  <a xlink:href="dir_d44c64559bbebec7f509842c48db8b23_dep_org.svg" target="_base">
   <rect id="button" ry="5" rx="5" y="6" x="6" height="38" width="38"
        fill="#f2f5e9" fill-opacity="0.5" stroke="#606060" stroke-width="1.0"/>
   <path id="arrow"
     d="M 11.500037,31.436501 C 11.940474,20.09759 22.043105,11.32322 32.158766,21.979434 L 37.068811,17.246167 C 37.068811,17.246167 37.088388,32 37.088388,32 L 22.160133,31.978069 C 22.160133,31.978069 26.997745,27.140456 26.997745,27.140456 C 18.528582,18.264221 13.291696,25.230495 11.500037,31.436501 z"
     style="fill:#404040;"/>
  </a>
 </g>
</svg>

<style type='text/css'>
<![CDATA[
[data-mouse-over-selected='false'] { opacity: 0.7; }
[data-mouse-over-selected='true']  { opacity: 1.0; }
]]>
</style>
<script type="application/ecmascript"><![CDATA[
document.addEventListener('DOMContentLoaded', (event) => {
  highlightEdges();
  highlightAdjacentNodes();
});
]]></script>
</svg>
