<?xml version="1.0" encoding="UTF-8" standalone="no"?>
<!DOCTYPE svg PUBLIC "-//W3C//DTD SVG 1.1//EN"
 "http://www.w3.org/Graphics/SVG/1.1/DTD/svg11.dtd">
<!-- Generated by graphviz version 7.0.4 (20221203.1631)
 -->
<!-- Title: src Pages: 1 -->
<svg width="654pt" height="98pt"
 viewBox="0.00 0.00 654.00 98.41" xmlns="http://www.w3.org/2000/svg" xmlns:xlink="http://www.w3.org/1999/xlink">
<g id="graph0" class="graph" transform="scale(1 1) rotate(0) translate(4 94.41)">
<title>src</title>
<g id="clust1" class="cluster">
<title>clusterdir_68267d1309a1af8e8297ef4c3efbcdba</title>
<g id="a_clust1"><a xlink:href="dir_68267d1309a1af8e8297ef4c3efbcdba.html" target="_top">
<polygon fill="#edf0f7" stroke="#404040" stroke-width="2" points="8,-47.41 8,-82.41 638,-82.41 638,-47.41 8,-47.41"/>
</a>
</g>
</g>
<!-- dir_68267d1309a1af8e8297ef4c3efbcdba -->
<g id="node1" class="node">
<title>dir_68267d1309a1af8e8297ef4c3efbcdba</title>
<text text-anchor="middle" x="615" y="-62.41" font-family="Helvetica,sans-Serif" font-size="10.00">src</text>
</g>
<!-- dir_d44c64559bbebec7f509842c48db8b23 -->
<g id="node10" class="node">
<title>dir_d44c64559bbebec7f509842c48db8b23</title>
<g id="a_node10"><a xlink:href="dir_d44c64559bbebec7f509842c48db8b23.html" target="_top" xlink:title="include">
<polygon fill="#edf0f7" stroke="red" points="385.5,-19.41 338.5,-19.41 338.5,-0.41 385.5,-0.41 385.5,-19.41"/>
<text text-anchor="middle" x="362" y="-7.41" font-family="Helvetica,sans-Serif" font-size="10.00">include</text>
</a>
</g>
</g>
<!-- dir_68267d1309a1af8e8297ef4c3efbcdba&#45;&gt;dir_d44c64559bbebec7f509842c48db8b23 -->
<g id="edge1" class="edge">
<title>dir_68267d1309a1af8e8297ef4c3efbcdba&#45;&gt;dir_d44c64559bbebec7f509842c48db8b23</title>
<path fill="none" stroke="#63b8ff" d="M604.83,-55.43C600.76,-52.45 595.88,-49.36 591,-47.41 525.97,-21.43 443.58,-13.9 397.45,-11.75"/>
<polygon fill="#63b8ff" stroke="#63b8ff" points="397.63,-8.25 387.5,-11.35 397.35,-15.25 397.63,-8.25"/>
<g id="a_edge1&#45;headlabel"><a xlink:href="dir_000017_000010.html" target="_top" xlink:title="66">
<text text-anchor="middle" x="399.83" y="-3" font-family="Helvetica,sans-Serif" font-size="10.00" fill="#63b8ff">66</text>
</a>
</g>
</g>
<!-- dir_d2b8d8eda696fb67dda800ae051affdc -->
<g id="node2" class="node">
<title>dir_d2b8d8eda696fb67dda800ae051affdc</title>
<g id="a_node2"><a xlink:href="dir_d2b8d8eda696fb67dda800ae051affdc.html" target="_top" xlink:title="actions">
<polygon fill="#a2b4d6" stroke="#404040" points="582,-74.41 534,-74.41 534,-55.41 582,-55.41 582,-74.41"/>
<text text-anchor="middle" x="558" y="-62.41" font-family="Helvetica,sans-Serif" font-size="10.00">actions</text>
</a>
</g>
</g>
<!-- dir_d2b8d8eda696fb67dda800ae051affdc&#45;&gt;dir_d44c64559bbebec7f509842c48db8b23 -->
<g id="edge2" class="edge">
<title>dir_d2b8d8eda696fb67dda800ae051affdc&#45;&gt;dir_d44c64559bbebec7f509842c48db8b23</title>
<path fill="none" stroke="#63b8ff" d="M542.23,-55.05C536.88,-52.31 530.79,-49.48 525,-47.41 482.11,-32.15 430.52,-21.88 397.04,-16.22"/>
<polygon fill="#63b8ff" stroke="#63b8ff" points="397.92,-12.82 387.49,-14.65 396.79,-19.72 397.92,-12.82"/>
<g id="a_edge2&#45;headlabel"><a xlink:href="dir_000001_000010.html" target="_top" xlink:title="3">
<text text-anchor="middle" x="400.43" y="-7.85" font-family="Helvetica,sans-Serif" font-size="10.00" fill="#63b8ff">3</text>
</a>
</g>
</g>
<!-- dir_52afe6394927cedcb1ddeb1178eb9949 -->
<g id="node3" class="node">
<title>dir_52afe6394927cedcb1ddeb1178eb9949</title>
<g id="a_node3"><a xlink:href="dir_52afe6394927cedcb1ddeb1178eb9949.html" target="_top" xlink:title="auxkernels">
<polygon fill="#a2b4d6" stroke="#404040" points="515.5,-74.41 452.5,-74.41 452.5,-55.41 515.5,-55.41 515.5,-74.41"/>
<text text-anchor="middle" x="484" y="-62.41" font-family="Helvetica,sans-Serif" font-size="10.00">auxkernels</text>
</a>
</g>
</g>
<!-- dir_52afe6394927cedcb1ddeb1178eb9949&#45;&gt;dir_d44c64559bbebec7f509842c48db8b23 -->
<g id="edge3" class="edge">
<title>dir_52afe6394927cedcb1ddeb1178eb9949&#45;&gt;dir_d44c64559bbebec7f509842c48db8b23</title>
<path fill="none" stroke="#63b8ff" d="M463.3,-54.92C444,-46.53 414.94,-33.91 392.89,-24.33"/>
<polygon fill="#63b8ff" stroke="#63b8ff" points="394.34,-21.15 383.78,-20.37 391.56,-27.57 394.34,-21.15"/>
<g id="a_edge3&#45;headlabel"><a xlink:href="dir_000003_000010.html" target="_top" xlink:title="5">
<text text-anchor="middle" x="397.38" y="-16.87" font-family="Helvetica,sans-Serif" font-size="10.00" fill="#63b8ff">5</text>
</a>
</g>
</g>
<!-- dir_0af1587c8378955de40f48b4bd1869f0 -->
<g id="node4" class="node">
<title>dir_0af1587c8378955de40f48b4bd1869f0</title>
<g id="a_node4"><a xlink:href="dir_0af1587c8378955de40f48b4bd1869f0.html" target="_top" xlink:title="base">
<polygon fill="#a2b4d6" stroke="#404040" points="434,-74.41 396,-74.41 396,-55.41 434,-55.41 434,-74.41"/>
<text text-anchor="middle" x="415" y="-62.41" font-family="Helvetica,sans-Serif" font-size="10.00">base</text>
</a>
</g>
</g>
<!-- dir_0af1587c8378955de40f48b4bd1869f0&#45;&gt;dir_d44c64559bbebec7f509842c48db8b23 -->
<g id="edge4" class="edge">
<title>dir_0af1587c8378955de40f48b4bd1869f0&#45;&gt;dir_d44c64559bbebec7f509842c48db8b23</title>
<path fill="none" stroke="#63b8ff" d="M406.25,-55.16C398.85,-47.76 388.04,-36.95 378.95,-27.87"/>
<polygon fill="#63b8ff" stroke="#63b8ff" points="381.56,-25.52 372.01,-20.93 376.61,-30.47 381.56,-25.52"/>
<g id="a_edge4&#45;headlabel"><a xlink:href="dir_000005_000010.html" target="_top" xlink:title="2">
<text text-anchor="middle" x="385.04" y="-22.49" font-family="Helvetica,sans-Serif" font-size="10.00" fill="#63b8ff">2</text>
</a>
</g>
</g>
<!-- dir_b42fa4734c76de29a4b97f55d0ce97b5 -->
<g id="node5" class="node">
<title>dir_b42fa4734c76de29a4b97f55d0ce97b5</title>
<g id="a_node5"><a xlink:href="dir_b42fa4734c76de29a4b97f55d0ce97b5.html" target="_top" xlink:title="bcs">
<polygon fill="#a2b4d6" stroke="#404040" points="378,-74.41 346,-74.41 346,-55.41 378,-55.41 378,-74.41"/>
<text text-anchor="middle" x="362" y="-62.41" font-family="Helvetica,sans-Serif" font-size="10.00">bcs</text>
</a>
</g>
</g>
<!-- dir_b42fa4734c76de29a4b97f55d0ce97b5&#45;&gt;dir_d44c64559bbebec7f509842c48db8b23 -->
<g id="edge5" class="edge">
<title>dir_b42fa4734c76de29a4b97f55d0ce97b5&#45;&gt;dir_d44c64559bbebec7f509842c48db8b23</title>
<path fill="none" stroke="#63b8ff" d="M362,-55.16C362,-48.68 362,-39.58 362,-31.31"/>
<polygon fill="#63b8ff" stroke="#63b8ff" points="365.5,-31.37 362,-21.37 358.5,-31.37 365.5,-31.37"/>
<g id="a_edge5&#45;headlabel"><a xlink:href="dir_000007_000010.html" target="_top" xlink:title="11">
<text text-anchor="middle" x="368.34" y="-30.95" font-family="Helvetica,sans-Serif" font-size="10.00" fill="#63b8ff">11</text>
</a>
</g>
</g>
<!-- dir_5cafbbc4d3ca7520a589c9bb006faf2e -->
<g id="node6" class="node">
<title>dir_5cafbbc4d3ca7520a589c9bb006faf2e</title>
<g id="a_node6"><a xlink:href="dir_5cafbbc4d3ca7520a589c9bb006faf2e.html" target="_top" xlink:title="dirackernels">
<polygon fill="#a2b4d6" stroke="#404040" points="327.5,-74.41 258.5,-74.41 258.5,-55.41 327.5,-55.41 327.5,-74.41"/>
<text text-anchor="middle" x="293" y="-62.41" font-family="Helvetica,sans-Serif" font-size="10.00">dirackernels</text>
</a>
</g>
</g>
<!-- dir_5cafbbc4d3ca7520a589c9bb006faf2e&#45;&gt;dir_d44c64559bbebec7f509842c48db8b23 -->
<g id="edge6" class="edge">
<title>dir_5cafbbc4d3ca7520a589c9bb006faf2e&#45;&gt;dir_d44c64559bbebec7f509842c48db8b23</title>
<path fill="none" stroke="#63b8ff" d="M304.7,-54.92C314.78,-47.19 329.54,-35.84 341.56,-26.61"/>
<polygon fill="#63b8ff" stroke="#63b8ff" points="343.47,-29.56 349.27,-20.69 339.21,-24.01 343.47,-29.56"/>
<g id="a_edge6&#45;headlabel"><a xlink:href="dir_000009_000010.html" target="_top" xlink:title="1">
<text text-anchor="middle" x="343.55" y="-30.58" font-family="Helvetica,sans-Serif" font-size="10.00" fill="#63b8ff">1</text>
</a>
</g>
</g>
<!-- dir_40856f0cdd4bcafd28810d9265a200f7 -->
<g id="node7" class="node">
<title>dir_40856f0cdd4bcafd28810d9265a200f7</title>
<g id="a_node7"><a xlink:href="dir_40856f0cdd4bcafd28810d9265a200f7.html" target="_top" xlink:title="kernels">
<polygon fill="#a2b4d6" stroke="#404040" points="240,-74.41 192,-74.41 192,-55.41 240,-55.41 240,-74.41"/>
<text text-anchor="middle" x="216" y="-62.41" font-family="Helvetica,sans-Serif" font-size="10.00">kernels</text>
</a>
</g>
</g>
<!-- dir_40856f0cdd4bcafd28810d9265a200f7&#45;&gt;dir_d44c64559bbebec7f509842c48db8b23 -->
<g id="edge7" class="edge">
<title>dir_40856f0cdd4bcafd28810d9265a200f7&#45;&gt;dir_d44c64559bbebec7f509842c48db8b23</title>
<path fill="none" stroke="#63b8ff" d="M233.09,-55.05C238.44,-52.44 244.4,-49.67 250,-47.41 275.36,-37.18 304.78,-27.68 327.1,-20.94"/>
<polygon fill="#63b8ff" stroke="#63b8ff" points="328.03,-24.32 336.61,-18.11 326.03,-17.61 328.03,-24.32"/>
<g id="a_edge7&#45;headlabel"><a xlink:href="dir_000012_000010.html" target="_top" xlink:title="24">
<text text-anchor="middle" x="326.84" y="-25.13" font-family="Helvetica,sans-Serif" font-size="10.00" fill="#63b8ff">24</text>
</a>
</g>
</g>
<!-- dir_79fa9b12a48436e6d1fb80a586e19af1 -->
<g id="node8" class="node">
<title>dir_79fa9b12a48436e6d1fb80a586e19af1</title>
<g id="a_node8"><a xlink:href="dir_79fa9b12a48436e6d1fb80a586e19af1.html" target="_top" xlink:title="materials">
<polygon fill="#a2b4d6" stroke="#404040" points="174,-74.41 118,-74.41 118,-55.41 174,-55.41 174,-74.41"/>
<text text-anchor="middle" x="146" y="-62.41" font-family="Helvetica,sans-Serif" font-size="10.00">materials</text>
</a>
</g>
</g>
<!-- dir_79fa9b12a48436e6d1fb80a586e19af1&#45;&gt;dir_d44c64559bbebec7f509842c48db8b23 -->
<g id="edge8" class="edge">
<title>dir_79fa9b12a48436e6d1fb80a586e19af1&#45;&gt;dir_d44c64559bbebec7f509842c48db8b23</title>
<path fill="none" stroke="#63b8ff" d="M163.76,-55.05C169.76,-52.31 176.57,-49.47 183,-47.41 231.92,-31.73 290.59,-21.28 327.09,-15.72"/>
<polygon fill="#63b8ff" stroke="#63b8ff" points="327.25,-19.23 336.63,-14.31 326.22,-12.31 327.25,-19.23"/>
<g id="a_edge8&#45;headlabel"><a xlink:href="dir_000014_000010.html" target="_top" xlink:title="9">
<text text-anchor="middle" x="325.6" y="-19.85" font-family="Helvetica,sans-Serif" font-size="10.00" fill="#63b8ff">9</text>
</a>
</g>
</g>
<!-- dir_88ecfc89524da6b1e182c4fbbebb4797 -->
<g id="node9" class="node">
<title>dir_88ecfc89524da6b1e182c4fbbebb4797</title>
<g id="a_node9"><a xlink:href="dir_88ecfc89524da6b1e182c4fbbebb4797.html" target="_top" xlink:title="postprocessors">
<polygon fill="#a2b4d6" stroke="#404040" points="99.5,-74.41 16.5,-74.41 16.5,-55.41 99.5,-55.41 99.5,-74.41"/>
<text text-anchor="middle" x="58" y="-62.41" font-family="Helvetica,sans-Serif" font-size="10.00">postprocessors</text>
</a>
</g>
</g>
<!-- dir_88ecfc89524da6b1e182c4fbbebb4797&#45;&gt;dir_d44c64559bbebec7f509842c48db8b23 -->
<g id="edge9" class="edge">
<title>dir_88ecfc89524da6b1e182c4fbbebb4797&#45;&gt;dir_d44c64559bbebec7f509842c48db8b23</title>
<path fill="none" stroke="#63b8ff" d="M82.92,-54.92C91.14,-52.2 100.39,-49.41 109,-47.41 185.68,-29.61 277.56,-18.96 326.76,-14.09"/>
<polygon fill="#63b8ff" stroke="#63b8ff" points="326.91,-17.59 336.52,-13.15 326.23,-10.63 326.91,-17.59"/>
<g id="a_edge9&#45;headlabel"><a xlink:href="dir_000016_000010.html" target="_top" xlink:title="10">
<text text-anchor="middle" x="325.11" y="-18.12" font-family="Helvetica,sans-Serif" font-size="10.00" fill="#63b8ff">10</text>
</a>
</g>
</g>
</g>
</svg>
