<?xml version="1.0" encoding="UTF-8" standalone="no"?>
<!DOCTYPE svg PUBLIC "-//W3C//DTD SVG 1.1//EN"
 "http://www.w3.org/Graphics/SVG/1.1/DTD/svg11.dtd">
<!-- Generated by graphviz version 3.0.0 (20220413.0242)
 -->
<!-- Title: src Pages: 1 -->
<svg width="728pt" height="132pt"
 viewBox="0.00 0.00 728.00 132.00" xmlns="http://www.w3.org/2000/svg" xmlns:xlink="http://www.w3.org/1999/xlink">
<g id="graph0" class="graph" transform="scale(1 1) rotate(0) translate(4 128)">
<title>src</title>
<polygon fill="white" stroke="transparent" points="-4,4 -4,-128 724,-128 724,4 -4,4"/>
<g id="clust1" class="cluster">
<title>clusterdir_68267d1309a1af8e8297ef4c3efbcdba</title>
<g id="a_clust1"><a xlink:href="dir_68267d1309a1af8e8297ef4c3efbcdba.html" target="_top">
<polygon fill="#edf0f7" stroke="#404040" stroke-width="2" points="8,-64 8,-116 712,-116 712,-64 8,-64"/>
</a>
</g>
</g>
<!-- dir_68267d1309a1af8e8297ef4c3efbcdba -->
<g id="node1" class="node">
<title>dir_68267d1309a1af8e8297ef4c3efbcdba</title>
<text text-anchor="middle" x="677" y="-87.5" font-family="Helvetica,sans-Serif" font-size="10.00">src</text>
</g>
<!-- dir_d44c64559bbebec7f509842c48db8b23 -->
<g id="node10" class="node">
<title>dir_d44c64559bbebec7f509842c48db8b23</title>
<g id="a_node10"><a xlink:href="dir_d44c64559bbebec7f509842c48db8b23.html" target="_top" xlink:title="include">
<polygon fill="none" stroke="red" points="406,-36 352,-36 352,0 406,0 406,-36"/>
<text text-anchor="middle" x="379" y="-15.5" font-family="Helvetica,sans-Serif" font-size="10.00">include</text>
</a>
</g>
</g>
<!-- dir_68267d1309a1af8e8297ef4c3efbcdba&#45;&gt;dir_d44c64559bbebec7f509842c48db8b23 -->
<g id="edge1" class="edge">
<title>dir_68267d1309a1af8e8297ef4c3efbcdba&#45;&gt;dir_d44c64559bbebec7f509842c48db8b23</title>
<path fill="none" stroke="black" d="M655.41,-71.78C650.85,-68.8 645.93,-66.02 641,-64 565.08,-32.92 468.27,-23.31 416.19,-20.33"/>
<polygon fill="black" stroke="black" points="416.25,-16.83 406.08,-19.81 415.89,-23.82 416.25,-16.83"/>
<g id="a_edge1&#45;headlabel"><a xlink:href="dir_000017_000010.html" target="_top" xlink:title="66">
<text text-anchor="middle" x="419.99" y="-11.68" font-family="Helvetica,sans-Serif" font-size="10.00">66</text>
</a>
</g>
</g>
<!-- dir_d2b8d8eda696fb67dda800ae051affdc -->
<g id="node2" class="node">
<title>dir_d2b8d8eda696fb67dda800ae051affdc</title>
<g id="a_node2"><a xlink:href="dir_d2b8d8eda696fb67dda800ae051affdc.html" target="_top" xlink:title="actions">
<polygon fill="#a2b4d6" stroke="#404040" points="632,-108 578,-108 578,-72 632,-72 632,-108"/>
<text text-anchor="middle" x="605" y="-87.5" font-family="Helvetica,sans-Serif" font-size="10.00">actions</text>
</a>
</g>
</g>
<!-- dir_d2b8d8eda696fb67dda800ae051affdc&#45;&gt;dir_d44c64559bbebec7f509842c48db8b23 -->
<g id="edge2" class="edge">
<title>dir_d2b8d8eda696fb67dda800ae051affdc&#45;&gt;dir_d44c64559bbebec7f509842c48db8b23</title>
<path fill="none" stroke="black" d="M582.92,-71.77C578.48,-68.86 573.73,-66.11 569,-64 518.56,-41.49 455.36,-29.4 416.07,-23.59"/>
<polygon fill="black" stroke="black" points="416.53,-20.12 406.14,-22.18 415.55,-27.05 416.53,-20.12"/>
<g id="a_edge2&#45;headlabel"><a xlink:href="dir_000001_000010.html" target="_top" xlink:title="3">
<text text-anchor="middle" x="420.49" y="-15.32" font-family="Helvetica,sans-Serif" font-size="10.00">3</text>
</a>
</g>
</g>
<!-- dir_52afe6394927cedcb1ddeb1178eb9949 -->
<g id="node3" class="node">
<title>dir_52afe6394927cedcb1ddeb1178eb9949</title>
<g id="a_node3"><a xlink:href="dir_52afe6394927cedcb1ddeb1178eb9949.html" target="_top" xlink:title="auxkernels">
<polygon fill="#a2b4d6" stroke="#404040" points="559.5,-108 496.5,-108 496.5,-72 559.5,-72 559.5,-108"/>
<text text-anchor="middle" x="528" y="-87.5" font-family="Helvetica,sans-Serif" font-size="10.00">auxkernels</text>
</a>
</g>
</g>
<!-- dir_52afe6394927cedcb1ddeb1178eb9949&#45;&gt;dir_d44c64559bbebec7f509842c48db8b23 -->
<g id="edge3" class="edge">
<title>dir_52afe6394927cedcb1ddeb1178eb9949&#45;&gt;dir_d44c64559bbebec7f509842c48db8b23</title>
<path fill="none" stroke="black" d="M501.43,-71.99C496.69,-69.2 491.75,-66.42 487,-64 463.88,-52.22 436.93,-40.99 415.74,-32.69"/>
<polygon fill="black" stroke="black" points="416.73,-29.33 406.14,-28.98 414.21,-35.85 416.73,-29.33"/>
<g id="a_edge3&#45;headlabel"><a xlink:href="dir_000003_000010.html" target="_top" xlink:title="5">
<text text-anchor="middle" x="421.11" y="-25.47" font-family="Helvetica,sans-Serif" font-size="10.00">5</text>
</a>
</g>
</g>
<!-- dir_0af1587c8378955de40f48b4bd1869f0 -->
<g id="node4" class="node">
<title>dir_0af1587c8378955de40f48b4bd1869f0</title>
<g id="a_node4"><a xlink:href="dir_0af1587c8378955de40f48b4bd1869f0.html" target="_top" xlink:title="base">
<polygon fill="#a2b4d6" stroke="#404040" points="478,-108 424,-108 424,-72 478,-72 478,-108"/>
<text text-anchor="middle" x="451" y="-87.5" font-family="Helvetica,sans-Serif" font-size="10.00">base</text>
</a>
</g>
</g>
<!-- dir_0af1587c8378955de40f48b4bd1869f0&#45;&gt;dir_d44c64559bbebec7f509842c48db8b23 -->
<g id="edge4" class="edge">
<title>dir_0af1587c8378955de40f48b4bd1869f0&#45;&gt;dir_d44c64559bbebec7f509842c48db8b23</title>
<path fill="none" stroke="black" d="M433.2,-71.7C424.4,-63.14 413.62,-52.66 404,-43.3"/>
<polygon fill="black" stroke="black" points="406.2,-40.57 396.59,-36.1 401.32,-45.58 406.2,-40.57"/>
<g id="a_edge4&#45;headlabel"><a xlink:href="dir_000005_000010.html" target="_top" xlink:title="2">
<text text-anchor="middle" x="410.76" y="-38.54" font-family="Helvetica,sans-Serif" font-size="10.00">2</text>
</a>
</g>
</g>
<!-- dir_b42fa4734c76de29a4b97f55d0ce97b5 -->
<g id="node5" class="node">
<title>dir_b42fa4734c76de29a4b97f55d0ce97b5</title>
<g id="a_node5"><a xlink:href="dir_b42fa4734c76de29a4b97f55d0ce97b5.html" target="_top" xlink:title="bcs">
<polygon fill="#a2b4d6" stroke="#404040" points="406,-108 352,-108 352,-72 406,-72 406,-108"/>
<text text-anchor="middle" x="379" y="-87.5" font-family="Helvetica,sans-Serif" font-size="10.00">bcs</text>
</a>
</g>
</g>
<!-- dir_b42fa4734c76de29a4b97f55d0ce97b5&#45;&gt;dir_d44c64559bbebec7f509842c48db8b23 -->
<g id="edge5" class="edge">
<title>dir_b42fa4734c76de29a4b97f55d0ce97b5&#45;&gt;dir_d44c64559bbebec7f509842c48db8b23</title>
<path fill="none" stroke="black" d="M379,-71.7C379,-63.98 379,-54.71 379,-46.11"/>
<polygon fill="black" stroke="black" points="382.5,-46.1 379,-36.1 375.5,-46.1 382.5,-46.1"/>
<g id="a_edge5&#45;headlabel"><a xlink:href="dir_000007_000010.html" target="_top" xlink:title="11">
<text text-anchor="middle" x="385.34" y="-47.2" font-family="Helvetica,sans-Serif" font-size="10.00">11</text>
</a>
</g>
</g>
<!-- dir_5cafbbc4d3ca7520a589c9bb006faf2e -->
<g id="node6" class="node">
<title>dir_5cafbbc4d3ca7520a589c9bb006faf2e</title>
<g id="a_node6"><a xlink:href="dir_5cafbbc4d3ca7520a589c9bb006faf2e.html" target="_top" xlink:title="dirackernels">
<polygon fill="#a2b4d6" stroke="#404040" points="333.5,-108 264.5,-108 264.5,-72 333.5,-72 333.5,-108"/>
<text text-anchor="middle" x="299" y="-87.5" font-family="Helvetica,sans-Serif" font-size="10.00">dirackernels</text>
</a>
</g>
</g>
<!-- dir_5cafbbc4d3ca7520a589c9bb006faf2e&#45;&gt;dir_d44c64559bbebec7f509842c48db8b23 -->
<g id="edge6" class="edge">
<title>dir_5cafbbc4d3ca7520a589c9bb006faf2e&#45;&gt;dir_d44c64559bbebec7f509842c48db8b23</title>
<path fill="none" stroke="black" d="M318.78,-71.7C328.75,-62.97 341.01,-52.24 351.86,-42.75"/>
<polygon fill="black" stroke="black" points="354.23,-45.32 359.45,-36.1 349.62,-40.06 354.23,-45.32"/>
<g id="a_edge6&#45;headlabel"><a xlink:href="dir_000009_000010.html" target="_top" xlink:title="1">
<text text-anchor="middle" x="353.4" y="-47.33" font-family="Helvetica,sans-Serif" font-size="10.00">1</text>
</a>
</g>
</g>
<!-- dir_40856f0cdd4bcafd28810d9265a200f7 -->
<g id="node7" class="node">
<title>dir_40856f0cdd4bcafd28810d9265a200f7</title>
<g id="a_node7"><a xlink:href="dir_40856f0cdd4bcafd28810d9265a200f7.html" target="_top" xlink:title="kernels">
<polygon fill="#a2b4d6" stroke="#404040" points="246,-108 192,-108 192,-72 246,-72 246,-108"/>
<text text-anchor="middle" x="219" y="-87.5" font-family="Helvetica,sans-Serif" font-size="10.00">kernels</text>
</a>
</g>
</g>
<!-- dir_40856f0cdd4bcafd28810d9265a200f7&#45;&gt;dir_d44c64559bbebec7f509842c48db8b23 -->
<g id="edge7" class="edge">
<title>dir_40856f0cdd4bcafd28810d9265a200f7&#45;&gt;dir_d44c64559bbebec7f509842c48db8b23</title>
<path fill="none" stroke="black" d="M242.36,-71.98C246.78,-69.12 251.44,-66.33 256,-64 283.76,-49.81 317.07,-37.91 342.02,-29.92"/>
<polygon fill="black" stroke="black" points="343.32,-33.18 351.82,-26.85 341.23,-26.5 343.32,-33.18"/>
<g id="a_edge7&#45;headlabel"><a xlink:href="dir_000012_000010.html" target="_top" xlink:title="24">
<text text-anchor="middle" x="340.74" y="-34.47" font-family="Helvetica,sans-Serif" font-size="10.00">24</text>
</a>
</g>
</g>
<!-- dir_79fa9b12a48436e6d1fb80a586e19af1 -->
<g id="node8" class="node">
<title>dir_79fa9b12a48436e6d1fb80a586e19af1</title>
<g id="a_node8"><a xlink:href="dir_79fa9b12a48436e6d1fb80a586e19af1.html" target="_top" xlink:title="materials">
<polygon fill="#a2b4d6" stroke="#404040" points="174,-108 118,-108 118,-72 174,-72 174,-108"/>
<text text-anchor="middle" x="146" y="-87.5" font-family="Helvetica,sans-Serif" font-size="10.00">materials</text>
</a>
</g>
</g>
<!-- dir_79fa9b12a48436e6d1fb80a586e19af1&#45;&gt;dir_d44c64559bbebec7f509842c48db8b23 -->
<g id="edge8" class="edge">
<title>dir_79fa9b12a48436e6d1fb80a586e19af1&#45;&gt;dir_d44c64559bbebec7f509842c48db8b23</title>
<path fill="none" stroke="black" d="M168.73,-71.75C173.29,-68.85 178.17,-66.1 183,-64 235.58,-41.15 301.35,-29.1 341.75,-23.39"/>
<polygon fill="black" stroke="black" points="342.26,-26.86 351.7,-22.05 341.32,-19.92 342.26,-26.86"/>
<g id="a_edge8&#45;headlabel"><a xlink:href="dir_000014_000010.html" target="_top" xlink:title="9">
<text text-anchor="middle" x="339.08" y="-27.65" font-family="Helvetica,sans-Serif" font-size="10.00">9</text>
</a>
</g>
</g>
<!-- dir_88ecfc89524da6b1e182c4fbbebb4797 -->
<g id="node9" class="node">
<title>dir_88ecfc89524da6b1e182c4fbbebb4797</title>
<g id="a_node9"><a xlink:href="dir_88ecfc89524da6b1e182c4fbbebb4797.html" target="_top" xlink:title="postprocessors">
<polygon fill="#a2b4d6" stroke="#404040" points="99.5,-108 16.5,-108 16.5,-72 99.5,-72 99.5,-108"/>
<text text-anchor="middle" x="58" y="-87.5" font-family="Helvetica,sans-Serif" font-size="10.00">postprocessors</text>
</a>
</g>
</g>
<!-- dir_88ecfc89524da6b1e182c4fbbebb4797&#45;&gt;dir_d44c64559bbebec7f509842c48db8b23 -->
<g id="edge9" class="edge">
<title>dir_88ecfc89524da6b1e182c4fbbebb4797&#45;&gt;dir_d44c64559bbebec7f509842c48db8b23</title>
<path fill="none" stroke="black" d="M89.24,-71.92C95.64,-68.93 102.43,-66.11 109,-64 189.64,-38.13 288.86,-26.47 341.71,-21.77"/>
<polygon fill="black" stroke="black" points="342.28,-25.24 351.95,-20.9 341.69,-18.26 342.28,-25.24"/>
<g id="a_edge9&#45;headlabel"><a xlink:href="dir_000016_000010.html" target="_top" xlink:title="10">
<text text-anchor="middle" x="338.94" y="-25.87" font-family="Helvetica,sans-Serif" font-size="10.00">10</text>
</a>
</g>
</g>
</g>
</svg>
