<?xml version="1.0" encoding="UTF-8" standalone="no"?>
<!DOCTYPE svg PUBLIC "-//W3C//DTD SVG 1.1//EN"
 "http://www.w3.org/Graphics/SVG/1.1/DTD/svg11.dtd">
<!-- Generated by graphviz version 7.0.5 (20221223.1930)
 -->
<!-- Title: include Pages: 1 -->
<svg width="616pt" height="114pt"
 viewBox="0.00 0.00 616.00 114.00" xmlns="http://www.w3.org/2000/svg" xmlns:xlink="http://www.w3.org/1999/xlink">
<g id="graph0" class="graph" transform="scale(1 1) rotate(0) translate(4 110)">
<title>include</title>
<g id="clust1" class="cluster">
<title>clusterdir_d44c64559bbebec7f509842c48db8b23</title>
<g id="a_clust1"><a xlink:href="dir_d44c64559bbebec7f509842c48db8b23.html" target="_top">
<polygon fill="#edf0f7" stroke="#404040" stroke-width="2" points="8,-8 8,-98 600,-98 600,-8 8,-8"/>
</a>
</g>
</g>
<!-- dir_d44c64559bbebec7f509842c48db8b23 -->
<g id="node1" class="node">
<title>dir_d44c64559bbebec7f509842c48db8b23</title>
<text text-anchor="middle" x="568" y="-78" font-family="Helvetica,sans-Serif" font-size="10.00">include</text>
</g>
<!-- dir_0b9ed7732631b4e65a5030233eb5fc5a -->
<g id="node2" class="node">
<title>dir_0b9ed7732631b4e65a5030233eb5fc5a</title>
<g id="a_node2"><a xlink:href="dir_0b9ed7732631b4e65a5030233eb5fc5a.html" target="_top" xlink:title="actions">
<polygon fill="#a2b4d6" stroke="#404040" points="526,-90 478,-90 478,-71 526,-71 526,-90"/>
<text text-anchor="middle" x="502" y="-78" font-family="Helvetica,sans-Serif" font-size="10.00">actions</text>
</a>
</g>
</g>
<!-- dir_ad471e77ba5a72af0767bcb44d2be997 -->
<g id="node3" class="node">
<title>dir_ad471e77ba5a72af0767bcb44d2be997</title>
<g id="a_node3"><a xlink:href="dir_ad471e77ba5a72af0767bcb44d2be997.html" target="_top" xlink:title="auxkernels">
<polygon fill="#a2b4d6" stroke="#404040" points="459.5,-90 396.5,-90 396.5,-71 459.5,-71 459.5,-90"/>
<text text-anchor="middle" x="428" y="-78" font-family="Helvetica,sans-Serif" font-size="10.00">auxkernels</text>
</a>
</g>
</g>
<!-- dir_ab1c81409f0df724f17c9ef30afee877 -->
<g id="node4" class="node">
<title>dir_ab1c81409f0df724f17c9ef30afee877</title>
<g id="a_node4"><a xlink:href="dir_ab1c81409f0df724f17c9ef30afee877.html" target="_top" xlink:title="base">
<polygon fill="#a2b4d6" stroke="#404040" points="235,-35 197,-35 197,-16 235,-16 235,-35"/>
<text text-anchor="middle" x="216" y="-23" font-family="Helvetica,sans-Serif" font-size="10.00">base</text>
</a>
</g>
</g>
<!-- dir_6c5a344b9c03c6428d49f0b38500fe7f -->
<g id="node5" class="node">
<title>dir_6c5a344b9c03c6428d49f0b38500fe7f</title>
<g id="a_node5"><a xlink:href="dir_6c5a344b9c03c6428d49f0b38500fe7f.html" target="_top" xlink:title="bcs">
<polygon fill="#a2b4d6" stroke="#404040" points="378,-90 346,-90 346,-71 378,-71 378,-90"/>
<text text-anchor="middle" x="362" y="-78" font-family="Helvetica,sans-Serif" font-size="10.00">bcs</text>
</a>
</g>
</g>
<!-- dir_6c5a344b9c03c6428d49f0b38500fe7f&#45;&gt;dir_ab1c81409f0df724f17c9ef30afee877 -->
<g id="edge1" class="edge">
<title>dir_6c5a344b9c03c6428d49f0b38500fe7f&#45;&gt;dir_ab1c81409f0df724f17c9ef30afee877</title>
<path fill="none" stroke="#63b8ff" d="M345.54,-73.52C321.47,-64.79 276.26,-48.38 246.14,-37.44"/>
<polygon fill="#63b8ff" stroke="#63b8ff" points="247.43,-34.18 236.83,-34.06 245.04,-40.76 247.43,-34.18"/>
<g id="a_edge1&#45;headlabel"><a xlink:href="dir_000006_000004.html" target="_top" xlink:title="4">
<text text-anchor="middle" x="250.35" y="-29.73" font-family="Helvetica,sans-Serif" font-size="10.00" fill="#63b8ff">4</text>
</a>
</g>
</g>
<!-- dir_6c6f4828ced252df7a457d18180150c1 -->
<g id="node6" class="node">
<title>dir_6c6f4828ced252df7a457d18180150c1</title>
<g id="a_node6"><a xlink:href="dir_6c6f4828ced252df7a457d18180150c1.html" target="_top" xlink:title="dirackernels">
<polygon fill="#a2b4d6" stroke="#404040" points="327.5,-90 258.5,-90 258.5,-71 327.5,-71 327.5,-90"/>
<text text-anchor="middle" x="293" y="-78" font-family="Helvetica,sans-Serif" font-size="10.00">dirackernels</text>
</a>
</g>
</g>
<!-- dir_f2fd8bd6424c93166d6dd5f2b70706e7 -->
<g id="node7" class="node">
<title>dir_f2fd8bd6424c93166d6dd5f2b70706e7</title>
<g id="a_node7"><a xlink:href="dir_f2fd8bd6424c93166d6dd5f2b70706e7.html" target="_top" xlink:title="kernels">
<polygon fill="#a2b4d6" stroke="#404040" points="240,-90 192,-90 192,-71 240,-71 240,-90"/>
<text text-anchor="middle" x="216" y="-78" font-family="Helvetica,sans-Serif" font-size="10.00">kernels</text>
</a>
</g>
</g>
<!-- dir_f2fd8bd6424c93166d6dd5f2b70706e7&#45;&gt;dir_ab1c81409f0df724f17c9ef30afee877 -->
<g id="edge2" class="edge">
<title>dir_f2fd8bd6424c93166d6dd5f2b70706e7&#45;&gt;dir_ab1c81409f0df724f17c9ef30afee877</title>
<path fill="none" stroke="#63b8ff" d="M216,-70.75C216,-64.27 216,-55.16 216,-46.9"/>
<polygon fill="#63b8ff" stroke="#63b8ff" points="219.5,-46.96 216,-36.96 212.5,-46.96 219.5,-46.96"/>
<g id="a_edge2&#45;headlabel"><a xlink:href="dir_000011_000004.html" target="_top" xlink:title="17">
<text text-anchor="middle" x="222.34" y="-46.54" font-family="Helvetica,sans-Serif" font-size="10.00" fill="#63b8ff">17</text>
</a>
</g>
</g>
<!-- dir_e8162cbcd2a0630786d64b00f43c2c71 -->
<g id="node8" class="node">
<title>dir_e8162cbcd2a0630786d64b00f43c2c71</title>
<g id="a_node8"><a xlink:href="dir_e8162cbcd2a0630786d64b00f43c2c71.html" target="_top" xlink:title="materials">
<polygon fill="#a2b4d6" stroke="#404040" points="174,-90 118,-90 118,-71 174,-71 174,-90"/>
<text text-anchor="middle" x="146" y="-78" font-family="Helvetica,sans-Serif" font-size="10.00">materials</text>
</a>
</g>
</g>
<!-- dir_b843596cc84dd0b637fa3210ef36d913 -->
<g id="node9" class="node">
<title>dir_b843596cc84dd0b637fa3210ef36d913</title>
<g id="a_node9"><a xlink:href="dir_b843596cc84dd0b637fa3210ef36d913.html" target="_top" xlink:title="postprocessors">
<polygon fill="#a2b4d6" stroke="#404040" points="99.5,-90 16.5,-90 16.5,-71 99.5,-71 99.5,-90"/>
<text text-anchor="middle" x="58" y="-78" font-family="Helvetica,sans-Serif" font-size="10.00">postprocessors</text>
</a>
</g>
</g>
<!-- dir_b843596cc84dd0b637fa3210ef36d913&#45;&gt;dir_ab1c81409f0df724f17c9ef30afee877 -->
<g id="edge3" class="edge">
<title>dir_b843596cc84dd0b637fa3210ef36d913&#45;&gt;dir_ab1c81409f0df724f17c9ef30afee877</title>
<path fill="none" stroke="#63b8ff" d="M84.8,-70.51C112.78,-61.12 156.58,-46.43 185.77,-36.64"/>
<polygon fill="#63b8ff" stroke="#63b8ff" points="186.75,-40 195.12,-33.5 184.53,-33.37 186.75,-40"/>
<g id="a_edge3&#45;headlabel"><a xlink:href="dir_000015_000004.html" target="_top" xlink:title="4">
<text text-anchor="middle" x="185.68" y="-40.86" font-family="Helvetica,sans-Serif" font-size="10.00" fill="#63b8ff">4</text>
</a>
</g>
</g>
</g>
</svg>
