<?xml version="1.0" encoding="UTF-8" standalone="no"?>
<!DOCTYPE svg PUBLIC "-//W3C//DTD SVG 1.1//EN"
 "http://www.w3.org/Graphics/SVG/1.1/DTD/svg11.dtd">
<!-- Generated by graphviz version 12.2.0 (20241103.1931)
 -->
<!-- Title: Graphical Class Hierarchy Pages: 1 -->
<svg width="603pt" height="180pt"
 viewBox="0.00 0.00 603.00 179.88" xmlns="http://www.w3.org/2000/svg" xmlns:xlink="http://www.w3.org/1999/xlink">
<g id="graph0" class="graph" transform="scale(1 1) rotate(0) translate(4 175.88)">
<title>Graphical Class Hierarchy</title>
<!-- Node0 -->
<g id="Node000000" class="node">
<title>Node0</title>
<g id="a_Node000000"><a xlink:title=" ">
<polygon fill="#e0e0e0" stroke="#999999" points="123.25,-101.25 0,-101.25 0,-82 123.25,-82 123.25,-101.25"/>
<text text-anchor="middle" x="61.62" y="-87.75" font-family="Helvetica,sans-Serif" font-size="10.00">GenericConstantMaterial</text>
</a>
</g>
</g>
<!-- Node1 -->
<g id="Node000001" class="node">
<title>Node1</title>
<g id="a_Node000001"><a xlink:href="class_graphite_two_grp_x_s_function_material.html" target="_top" xlink:title=" ">
<polygon fill="white" stroke="#666666" points="299.38,-171.88 161.12,-171.88 161.12,-141.38 299.38,-141.38 299.38,-171.88"/>
<text text-anchor="start" x="169.12" y="-158.38" font-family="Helvetica,sans-Serif" font-size="10.00">GraphiteTwoGrpXSFunction</text>
<text text-anchor="middle" x="230.25" y="-147.12" font-family="Helvetica,sans-Serif" font-size="10.00">Material</text>
</a>
</g>
</g>
<!-- Node0&#45;&gt;Node1 -->
<g id="edge109_Node000000_Node000001" class="edge">
<title>Node0&#45;&gt;Node1</title>
<g id="a_edge109_Node000000_Node000001"><a xlink:title=" ">
<path fill="none" stroke="#63b8ff" d="M95.38,-106.21C113.98,-114.32 137.77,-124.4 159.25,-132.62 166.57,-135.43 174.37,-138.26 182.02,-140.94"/>
<polygon fill="#63b8ff" stroke="#63b8ff" points="97.04,-103.11 86.47,-102.3 94.22,-109.52 97.04,-103.11"/>
</a>
</g>
</g>
<!-- Node2 -->
<g id="Node000002" class="node">
<title>Node2</title>
<g id="a_Node000002"><a xlink:href="class_moltres_s_n_material.html" target="_top" xlink:title=" ">
<polygon fill="white" stroke="#666666" points="278.75,-123.25 181.75,-123.25 181.75,-104 278.75,-104 278.75,-123.25"/>
<text text-anchor="middle" x="230.25" y="-109.75" font-family="Helvetica,sans-Serif" font-size="10.00">MoltresSNMaterial</text>
</a>
</g>
</g>
<!-- Node0&#45;&gt;Node2 -->
<g id="edge110_Node000000_Node000002" class="edge">
<title>Node0&#45;&gt;Node2</title>
<g id="a_edge110_Node000000_Node000002"><a xlink:title=" ">
<path fill="none" stroke="#63b8ff" d="M135.04,-101.19C150.75,-103.26 166.99,-105.4 181.47,-107.32"/>
<polygon fill="#63b8ff" stroke="#63b8ff" points="135.6,-97.73 125.22,-99.89 134.68,-104.67 135.6,-97.73"/>
</a>
</g>
</g>
<!-- Node4 -->
<g id="Node000004" class="node">
<title>Node4</title>
<g id="a_Node000004"><a xlink:href="class_msre_fuel_two_grp_x_s_function_material.html" target="_top" xlink:title=" ">
<polygon fill="white" stroke="#666666" points="301.25,-85.88 159.25,-85.88 159.25,-55.38 301.25,-55.38 301.25,-85.88"/>
<text text-anchor="start" x="167.25" y="-72.38" font-family="Helvetica,sans-Serif" font-size="10.00">MsreFuelTwoGrpXSFunction</text>
<text text-anchor="middle" x="230.25" y="-61.12" font-family="Helvetica,sans-Serif" font-size="10.00">Material</text>
</a>
</g>
</g>
<!-- Node0&#45;&gt;Node4 -->
<g id="edge112_Node000000_Node000004" class="edge">
<title>Node0&#45;&gt;Node4</title>
<g id="a_edge112_Node000000_Node000004"><a xlink:title=" ">
<path fill="none" stroke="#63b8ff" d="M135.13,-82.49C143,-81.49 151.01,-80.49 158.85,-79.5"/>
<polygon fill="#63b8ff" stroke="#63b8ff" points="134.71,-79.01 125.23,-83.74 135.58,-85.96 134.71,-79.01"/>
</a>
</g>
</g>
<!-- Node5 -->
<g id="Node000005" class="node">
<title>Node5</title>
<g id="a_Node000005"><a xlink:href="class_nuclear_material.html" target="_top" xlink:title=" ">
<polygon fill="white" stroke="#666666" points="272.38,-37.25 188.12,-37.25 188.12,-18 272.38,-18 272.38,-37.25"/>
<text text-anchor="middle" x="230.25" y="-23.75" font-family="Helvetica,sans-Serif" font-size="10.00">NuclearMaterial</text>
</a>
</g>
</g>
<!-- Node0&#45;&gt;Node5 -->
<g id="edge113_Node000000_Node000005" class="edge">
<title>Node0&#45;&gt;Node5</title>
<g id="a_edge113_Node000000_Node000005"><a xlink:title=" ">
<path fill="none" stroke="#63b8ff" d="M91.52,-76.59C110.44,-67.14 135.9,-55.16 159.25,-46.62 168.36,-43.3 178.32,-40.25 187.8,-37.62"/>
<polygon fill="#63b8ff" stroke="#63b8ff" points="90.16,-73.35 82.82,-80.99 93.32,-79.6 90.16,-73.35"/>
</a>
</g>
</g>
<!-- Node3 -->
<g id="Node000003" class="node">
<title>Node3</title>
<g id="a_Node000003"><a xlink:href="class_s_n_rod_material.html" target="_top" xlink:title=" ">
<polygon fill="white" stroke="#666666" points="436.5,-123.25 354.5,-123.25 354.5,-104 436.5,-104 436.5,-123.25"/>
<text text-anchor="middle" x="395.5" y="-109.75" font-family="Helvetica,sans-Serif" font-size="10.00">SNRodMaterial</text>
</a>
</g>
</g>
<!-- Node2&#45;&gt;Node3 -->
<g id="edge111_Node000002_Node000003" class="edge">
<title>Node2&#45;&gt;Node3</title>
<g id="a_edge111_Node000002_Node000003"><a xlink:title=" ">
<path fill="none" stroke="#63b8ff" d="M290.42,-113.62C311.62,-113.62 335.01,-113.62 354.24,-113.62"/>
<polygon fill="#63b8ff" stroke="#63b8ff" points="290.42,-110.13 280.42,-113.63 290.42,-117.13 290.42,-110.13"/>
</a>
</g>
</g>
<!-- Node6 -->
<g id="Node000006" class="node">
<title>Node6</title>
<g id="a_Node000006"><a xlink:href="class_generic_moltres_material.html" target="_top" xlink:title=" ">
<polygon fill="white" stroke="#666666" points="453.75,-71.25 337.25,-71.25 337.25,-52 453.75,-52 453.75,-71.25"/>
<text text-anchor="middle" x="395.5" y="-57.75" font-family="Helvetica,sans-Serif" font-size="10.00">GenericMoltresMaterial</text>
</a>
</g>
</g>
<!-- Node5&#45;&gt;Node6 -->
<g id="edge114_Node000005_Node000006" class="edge">
<title>Node5&#45;&gt;Node6</title>
<g id="a_edge114_Node000005_Node000006"><a xlink:title=" ">
<path fill="none" stroke="#63b8ff" d="M283.95,-38.6C303.89,-42.75 326.47,-47.46 346.01,-51.53"/>
<polygon fill="#63b8ff" stroke="#63b8ff" points="284.85,-35.21 274.35,-36.6 283.43,-42.07 284.85,-35.21"/>
</a>
</g>
</g>
<!-- Node10 -->
<g id="Node000010" class="node">
<title>Node10</title>
<g id="a_Node000010"><a xlink:href="class_moltres_json_material.html" target="_top" xlink:title=" ">
<polygon fill="white" stroke="#666666" points="447.38,-19.25 343.62,-19.25 343.62,0 447.38,0 447.38,-19.25"/>
<text text-anchor="middle" x="395.5" y="-5.75" font-family="Helvetica,sans-Serif" font-size="10.00">MoltresJsonMaterial</text>
</a>
</g>
</g>
<!-- Node5&#45;&gt;Node10 -->
<g id="edge118_Node000005_Node000010" class="edge">
<title>Node5&#45;&gt;Node10</title>
<g id="a_edge118_Node000005_Node000010"><a xlink:title=" ">
<path fill="none" stroke="#63b8ff" d="M284.05,-21.8C303.06,-19.71 324.46,-17.35 343.33,-15.27"/>
<polygon fill="#63b8ff" stroke="#63b8ff" points="283.93,-18.3 274.37,-22.87 284.7,-25.25 283.93,-18.3"/>
</a>
</g>
</g>
<!-- Node7 -->
<g id="Node000007" class="node">
<title>Node7</title>
<g id="a_Node000007"><a xlink:href="class_cammi_fuel.html" target="_top" xlink:title=" ">
<polygon fill="white" stroke="#666666" points="575.12,-130.25 509.62,-130.25 509.62,-111 575.12,-111 575.12,-130.25"/>
<text text-anchor="middle" x="542.38" y="-116.75" font-family="Helvetica,sans-Serif" font-size="10.00">CammiFuel</text>
</a>
</g>
</g>
<!-- Node6&#45;&gt;Node7 -->
<g id="edge115_Node000006_Node000007" class="edge">
<title>Node6&#45;&gt;Node7</title>
<g id="a_edge115_Node000006_Node000007"><a xlink:title=" ">
<path fill="none" stroke="#63b8ff" d="M428.58,-76.48C446.45,-84.56 469.17,-94.53 489.75,-102.62 496.64,-105.34 504.12,-108.07 511.2,-110.55"/>
<polygon fill="#63b8ff" stroke="#63b8ff" points="430.08,-73.31 419.53,-72.35 427.18,-79.68 430.08,-73.31"/>
</a>
</g>
</g>
<!-- Node8 -->
<g id="Node000008" class="node">
<title>Node8</title>
<g id="a_Node000008"><a xlink:href="class_cammi_moderator.html" target="_top" xlink:title=" ">
<polygon fill="white" stroke="#666666" points="587.5,-93.25 497.25,-93.25 497.25,-74 587.5,-74 587.5,-93.25"/>
<text text-anchor="middle" x="542.38" y="-79.75" font-family="Helvetica,sans-Serif" font-size="10.00">CammiModerator</text>
</a>
</g>
</g>
<!-- Node6&#45;&gt;Node8 -->
<g id="edge116_Node000006_Node000008" class="edge">
<title>Node6&#45;&gt;Node8</title>
<g id="a_edge116_Node000006_Node000008"><a xlink:title=" ">
<path fill="none" stroke="#63b8ff" d="M465.28,-72.07C476.01,-73.7 486.85,-75.34 496.85,-76.86"/>
<polygon fill="#63b8ff" stroke="#63b8ff" points="466.08,-68.65 455.67,-70.61 465.03,-75.57 466.08,-68.65"/>
</a>
</g>
</g>
<!-- Node9 -->
<g id="Node000009" class="node">
<title>Node9</title>
<g id="a_Node000009"><a xlink:href="class_rodded_material.html" target="_top" xlink:title=" ">
<polygon fill="white" stroke="#666666" points="584.12,-56.25 500.62,-56.25 500.62,-37 584.12,-37 584.12,-56.25"/>
<text text-anchor="middle" x="542.38" y="-42.75" font-family="Helvetica,sans-Serif" font-size="10.00">RoddedMaterial</text>
</a>
</g>
</g>
<!-- Node6&#45;&gt;Node9 -->
<g id="edge117_Node000006_Node000009" class="edge">
<title>Node6&#45;&gt;Node9</title>
<g id="a_edge117_Node000006_Node000009"><a xlink:title=" ">
<path fill="none" stroke="#63b8ff" d="M465.53,-54.48C477.47,-53.24 489.52,-51.99 500.4,-50.87"/>
<polygon fill="#63b8ff" stroke="#63b8ff" points="465.27,-50.99 455.68,-55.5 465.99,-57.95 465.27,-50.99"/>
</a>
</g>
</g>
<!-- Node11 -->
<g id="Node000011" class="node">
<title>Node11</title>
<g id="a_Node000011"><a xlink:href="class_diffusion_rod_material.html" target="_top" xlink:title=" ">
<polygon fill="white" stroke="#666666" points="595,-19.25 489.75,-19.25 489.75,0 595,0 595,-19.25"/>
<text text-anchor="middle" x="542.38" y="-5.75" font-family="Helvetica,sans-Serif" font-size="10.00">DiffusionRodMaterial</text>
</a>
</g>
</g>
<!-- Node10&#45;&gt;Node11 -->
<g id="edge119_Node000010_Node000011" class="edge">
<title>Node10&#45;&gt;Node11</title>
<g id="a_edge119_Node000010_Node000011"><a xlink:title=" ">
<path fill="none" stroke="#63b8ff" d="M458.87,-9.62C469.02,-9.62 479.43,-9.62 489.29,-9.62"/>
<polygon fill="#63b8ff" stroke="#63b8ff" points="459.09,-6.13 449.09,-9.63 459.09,-13.13 459.09,-6.13"/>
</a>
</g>
</g>
</g>
</svg>
