<?xml version="1.0" encoding="UTF-8" standalone="no"?>
<!DOCTYPE svg PUBLIC "-//W3C//DTD SVG 1.1//EN"
 "http://www.w3.org/Graphics/SVG/1.1/DTD/svg11.dtd">
<!-- Generated by graphviz version 12.2.0 (20241103.1931)
 -->
<!-- Title: Graphical Class Hierarchy Pages: 1 -->
<svg width="705pt" height="1211pt"
 viewBox="0.00 0.00 705.00 1211.25" xmlns="http://www.w3.org/2000/svg" xmlns:xlink="http://www.w3.org/1999/xlink">
<g id="graph0" class="graph" transform="scale(1 1) rotate(0) translate(4 1207.25)">
<title>Graphical Class Hierarchy</title>
<!-- Node0 -->
<g id="Node000000" class="node">
<title>Node0</title>
<g id="a_Node000000"><a xlink:title=" ">
<polygon fill="#e0e0e0" stroke="#999999" points="146.5,-1147.25 0,-1147.25 0,-1128 146.5,-1128 146.5,-1147.25"/>
<text text-anchor="middle" x="73.25" y="-1133.75" font-family="Helvetica,sans-Serif" font-size="10.00">ElementIntegralPostprocessor</text>
</a>
</g>
</g>
<!-- Node1 -->
<g id="Node000001" class="node">
<title>Node1</title>
<g id="a_Node000001"><a xlink:href="class_elm_integ_tot_fiss_nts_postprocessor.html" target="_top" xlink:title=" ">
<polygon fill="white" stroke="#666666" points="348.88,-1129.25 182.88,-1129.25 182.88,-1110 348.88,-1110 348.88,-1129.25"/>
<text text-anchor="middle" x="265.88" y="-1115.75" font-family="Helvetica,sans-Serif" font-size="10.00">ElmIntegTotFissNtsPostprocessor</text>
</a>
</g>
</g>
<!-- Node0&#45;&gt;Node1 -->
<g id="edge24_Node000000_Node000001" class="edge">
<title>Node0&#45;&gt;Node1</title>
<g id="a_edge24_Node000000_Node000001"><a xlink:title=" ">
<path fill="none" stroke="#63b8ff" d="M158.21,-1129.7C166.3,-1128.93 174.51,-1128.16 182.59,-1127.4"/>
<polygon fill="#63b8ff" stroke="#63b8ff" points="157.99,-1126.2 148.37,-1130.63 158.65,-1133.17 157.99,-1126.2"/>
</a>
</g>
</g>
<!-- Node2 -->
<g id="Node000002" class="node">
<title>Node2</title>
<g id="a_Node000002"><a xlink:href="class_elm_integ_tot_fiss_postprocessor.html" target="_top" xlink:title=" ">
<polygon fill="white" stroke="#666666" points="341,-1018.25 190.75,-1018.25 190.75,-999 341,-999 341,-1018.25"/>
<text text-anchor="middle" x="265.88" y="-1004.75" font-family="Helvetica,sans-Serif" font-size="10.00">ElmIntegTotFissPostprocessor</text>
</a>
</g>
</g>
<!-- Node0&#45;&gt;Node2 -->
<g id="edge25_Node000000_Node000002" class="edge">
<title>Node0&#45;&gt;Node2</title>
<g id="a_edge25_Node000000_Node000002"><a xlink:title=" ">
<path fill="none" stroke="#63b8ff" d="M87.29,-1118.52C105.53,-1093.35 141.13,-1049.58 182.5,-1026.62 188.26,-1023.43 194.54,-1020.8 200.98,-1018.64"/>
<polygon fill="#63b8ff" stroke="#63b8ff" points="84.54,-1116.34 81.64,-1126.53 90.26,-1120.37 84.54,-1116.34"/>
</a>
</g>
</g>
<!-- Node35 -->
<g id="Node000035" class="node">
<title>Node35</title>
<g id="a_Node000035"><a xlink:href="class_integral_new_variable_postprocessor.html" target="_top" xlink:title=" ">
<polygon fill="white" stroke="#666666" points="349.25,-1203.25 182.5,-1203.25 182.5,-1184 349.25,-1184 349.25,-1203.25"/>
<text text-anchor="middle" x="265.88" y="-1189.75" font-family="Helvetica,sans-Serif" font-size="10.00">IntegralNewVariablePostprocessor</text>
</a>
</g>
</g>
<!-- Node0&#45;&gt;Node35 -->
<g id="edge28_Node000000_Node000035" class="edge">
<title>Node0&#45;&gt;Node35</title>
<g id="a_edge28_Node000000_Node000035"><a xlink:title=" ">
<path fill="none" stroke="#63b8ff" d="M110.82,-1151.72C131.63,-1159.42 158.3,-1168.76 182.5,-1175.62 192.64,-1178.5 203.59,-1181.18 214.1,-1183.55"/>
<polygon fill="#63b8ff" stroke="#63b8ff" points="112.22,-1148.51 101.63,-1148.28 109.77,-1155.06 112.22,-1148.51"/>
</a>
</g>
</g>
<!-- Node37 -->
<g id="Node000037" class="node">
<title>Node37</title>
<g id="a_Node000037"><a xlink:href="class_integral_old_variable_postprocessor.html" target="_top" xlink:title=" ">
<polygon fill="white" stroke="#666666" points="346.62,-1166.25 185.12,-1166.25 185.12,-1147 346.62,-1147 346.62,-1166.25"/>
<text text-anchor="middle" x="265.88" y="-1152.75" font-family="Helvetica,sans-Serif" font-size="10.00">IntegralOldVariablePostprocessor</text>
</a>
</g>
</g>
<!-- Node0&#45;&gt;Node37 -->
<g id="edge29_Node000000_Node000037" class="edge">
<title>Node0&#45;&gt;Node37</title>
<g id="a_edge29_Node000000_Node000037"><a xlink:title=" ">
<path fill="none" stroke="#63b8ff" d="M158.04,-1145.98C166.94,-1146.86 175.98,-1147.76 184.83,-1148.65"/>
<polygon fill="#63b8ff" stroke="#63b8ff" points="158.66,-1142.52 148.37,-1145.01 157.97,-1149.49 158.66,-1142.52"/>
</a>
</g>
</g>
<!-- Node3 -->
<g id="Node000003" class="node">
<title>Node3</title>
<g id="a_Node000003"><a xlink:href="class_elm_integ_tot_fiss_heat_postprocessor.html" target="_top" xlink:title=" ">
<polygon fill="white" stroke="#666666" points="556.5,-1018.25 385.25,-1018.25 385.25,-999 556.5,-999 556.5,-1018.25"/>
<text text-anchor="middle" x="470.88" y="-1004.75" font-family="Helvetica,sans-Serif" font-size="10.00">ElmIntegTotFissHeatPostprocessor</text>
</a>
</g>
</g>
<!-- Node2&#45;&gt;Node3 -->
<g id="edge26_Node000002_Node000003" class="edge">
<title>Node2&#45;&gt;Node3</title>
<g id="a_edge26_Node000002_Node000003"><a xlink:title=" ">
<path fill="none" stroke="#63b8ff" d="M352.72,-1008.62C363.34,-1008.62 374.19,-1008.62 384.8,-1008.62"/>
<polygon fill="#63b8ff" stroke="#63b8ff" points="352.83,-1005.13 342.83,-1008.63 352.83,-1012.13 352.83,-1005.13"/>
</a>
</g>
</g>
<!-- Node4 -->
<g id="Node000004" class="node">
<title>Node4</title>
<g id="a_Node000004"><a xlink:href="class_average_fission_heat.html" target="_top" xlink:title=" ">
<polygon fill="white" stroke="#666666" points="697,-1018.25 592.5,-1018.25 592.5,-999 697,-999 697,-1018.25"/>
<text text-anchor="middle" x="644.75" y="-1004.75" font-family="Helvetica,sans-Serif" font-size="10.00">AverageFissionHeat</text>
</a>
</g>
</g>
<!-- Node3&#45;&gt;Node4 -->
<g id="edge27_Node000003_Node000004" class="edge">
<title>Node3&#45;&gt;Node4</title>
<g id="a_edge27_Node000003_Node000004"><a xlink:title=" ">
<path fill="none" stroke="#63b8ff" d="M568.2,-1008.62C576.52,-1008.62 584.71,-1008.62 592.44,-1008.62"/>
<polygon fill="#63b8ff" stroke="#63b8ff" points="568.32,-1005.13 558.32,-1008.63 568.32,-1012.13 568.32,-1005.13"/>
</a>
</g>
</g>
<!-- Node26 -->
<g id="Node000026" class="node">
<title>Node26</title>
<g id="a_Node000026"><a xlink:title=" ">
<polygon fill="#e0e0e0" stroke="#999999" points="109.75,-907.25 36.75,-907.25 36.75,-888 109.75,-888 109.75,-907.25"/>
<text text-anchor="middle" x="73.25" y="-893.75" font-family="Helvetica,sans-Serif" font-size="10.00">IntegratedBC</text>
</a>
</g>
</g>
<!-- Node27 -->
<g id="Node000027" class="node">
<title>Node27</title>
<g id="a_Node000027"><a xlink:href="class_conservative_advection_no_b_c_b_c.html" target="_top" xlink:title=" ">
<polygon fill="white" stroke="#666666" points="344,-907.25 187.75,-907.25 187.75,-888 344,-888 344,-907.25"/>
<text text-anchor="middle" x="265.88" y="-893.75" font-family="Helvetica,sans-Serif" font-size="10.00">ConservativeAdvectionNoBCBC</text>
</a>
</g>
</g>
<!-- Node26&#45;&gt;Node27 -->
<g id="edge30_Node000026_Node000027" class="edge">
<title>Node26&#45;&gt;Node27</title>
<g id="a_edge30_Node000026_Node000027"><a xlink:title=" ">
<path fill="none" stroke="#63b8ff" d="M121.35,-897.62C141.25,-897.62 164.97,-897.62 187.33,-897.62"/>
<polygon fill="#63b8ff" stroke="#63b8ff" points="121.62,-894.13 111.62,-897.63 121.62,-901.13 121.62,-894.13"/>
</a>
</g>
</g>
<!-- Node28 -->
<g id="Node000028" class="node">
<title>Node28</title>
<g id="a_Node000028"><a xlink:href="class_coupled_outflow_b_c.html" target="_top" xlink:title=" ">
<polygon fill="white" stroke="#666666" points="314.75,-1092.25 217,-1092.25 217,-1073 314.75,-1073 314.75,-1092.25"/>
<text text-anchor="middle" x="265.88" y="-1078.75" font-family="Helvetica,sans-Serif" font-size="10.00">CoupledOutflowBC</text>
</a>
</g>
</g>
<!-- Node26&#45;&gt;Node28 -->
<g id="edge31_Node000026_Node000028" class="edge">
<title>Node26&#45;&gt;Node28</title>
<g id="a_edge31_Node000026_Node000028"><a xlink:title=" ">
<path fill="none" stroke="#63b8ff" d="M81.45,-917.99C95.19,-953.7 128.64,-1027.35 182.5,-1064.62 192.49,-1071.54 204.66,-1075.86 216.55,-1078.55"/>
<polygon fill="#63b8ff" stroke="#63b8ff" points="84.83,-917.03 78.08,-908.86 78.26,-919.46 84.83,-917.03"/>
</a>
</g>
</g>
<!-- Node25 -->
<g id="Node000025" class="node">
<title>Node25</title>
<g id="a_Node000025"><a xlink:href="class_coupled_scalar_advection_no_b_c_b_c.html" target="_top" xlink:title=" ">
<polygon fill="white" stroke="#666666" points="347,-833.25 184.75,-833.25 184.75,-814 347,-814 347,-833.25"/>
<text text-anchor="middle" x="265.88" y="-819.75" font-family="Helvetica,sans-Serif" font-size="10.00">CoupledScalarAdvectionNoBCBC</text>
</a>
</g>
</g>
<!-- Node26&#45;&gt;Node25 -->
<g id="edge32_Node000026_Node000025" class="edge">
<title>Node26&#45;&gt;Node25</title>
<g id="a_edge32_Node000026_Node000025"><a xlink:title=" ">
<path fill="none" stroke="#63b8ff" d="M99.77,-881.98C121.18,-869.46 152.91,-852.3 182.5,-841.62 191.04,-838.54 200.27,-835.9 209.36,-833.66"/>
<polygon fill="#63b8ff" stroke="#63b8ff" points="98.26,-878.81 91.45,-886.93 101.84,-884.83 98.26,-878.81"/>
</a>
</g>
</g>
<!-- Node29 -->
<g id="Node000029" class="node">
<title>Node29</title>
<g id="a_Node000029"><a xlink:href="class_diffusion_no_b_c_b_c.html" target="_top" xlink:title=" ">
<polygon fill="white" stroke="#666666" points="312.5,-1055.25 219.25,-1055.25 219.25,-1036 312.5,-1036 312.5,-1055.25"/>
<text text-anchor="middle" x="265.88" y="-1041.75" font-family="Helvetica,sans-Serif" font-size="10.00">DiffusionNoBCBC</text>
</a>
</g>
</g>
<!-- Node26&#45;&gt;Node29 -->
<g id="edge33_Node000026_Node000029" class="edge">
<title>Node26&#45;&gt;Node29</title>
<g id="a_edge33_Node000026_Node000029"><a xlink:title=" ">
<path fill="none" stroke="#63b8ff" d="M85.01,-917.51C101.81,-946.54 137.09,-1000.05 182.5,-1027.62 193.39,-1034.24 206.39,-1038.43 218.81,-1041.09"/>
<polygon fill="#63b8ff" stroke="#63b8ff" points="88.18,-916.01 80.24,-909.01 82.08,-919.44 88.18,-916.01"/>
</a>
</g>
</g>
<!-- Node30 -->
<g id="Node000030" class="node">
<title>Node30</title>
<g id="a_Node000030"><a xlink:href="class_lin_log_penalty_dirichlet_b_c.html" target="_top" xlink:title=" ">
<polygon fill="white" stroke="#666666" points="329.38,-796.25 202.38,-796.25 202.38,-777 329.38,-777 329.38,-796.25"/>
<text text-anchor="middle" x="265.88" y="-782.75" font-family="Helvetica,sans-Serif" font-size="10.00">LinLogPenaltyDirichletBC</text>
</a>
</g>
</g>
<!-- Node26&#45;&gt;Node30 -->
<g id="edge34_Node000026_Node000030" class="edge">
<title>Node26&#45;&gt;Node30</title>
<g id="a_edge34_Node000026_Node000030"><a xlink:title=" ">
<path fill="none" stroke="#63b8ff" d="M90.28,-879.17C109.86,-857.85 145.03,-823.31 182.5,-804.62 188.92,-801.42 195.9,-798.79 202.99,-796.62"/>
<polygon fill="#63b8ff" stroke="#63b8ff" points="87.73,-876.77 83.66,-886.55 92.95,-881.44 87.73,-876.77"/>
</a>
</g>
</g>
<!-- Node31 -->
<g id="Node000031" class="node">
<title>Node31</title>
<g id="a_Node000031"><a xlink:href="class_mat_diffusion_flux_b_c.html" target="_top" xlink:title=" ">
<polygon fill="white" stroke="#666666" points="316.62,-981.25 215.12,-981.25 215.12,-962 316.62,-962 316.62,-981.25"/>
<text text-anchor="middle" x="265.88" y="-967.75" font-family="Helvetica,sans-Serif" font-size="10.00">MatDiffusionFluxBC</text>
</a>
</g>
</g>
<!-- Node26&#45;&gt;Node31 -->
<g id="edge35_Node000026_Node000031" class="edge">
<title>Node26&#45;&gt;Node31</title>
<g id="a_edge35_Node000026_Node000031"><a xlink:title=" ">
<path fill="none" stroke="#63b8ff" d="M99.77,-913.27C121.18,-925.79 152.91,-942.95 182.5,-953.62 192.83,-957.35 204.17,-960.44 215.06,-962.94"/>
<polygon fill="#63b8ff" stroke="#63b8ff" points="101.84,-910.42 91.45,-908.32 98.26,-916.44 101.84,-910.42"/>
</a>
</g>
</g>
<!-- Node32 -->
<g id="Node000032" class="node">
<title>Node32</title>
<g id="a_Node000032"><a xlink:href="class_postprocessor_coupled_inflow_b_c.html" target="_top" xlink:title=" ">
<polygon fill="white" stroke="#666666" points="342.5,-944.25 189.25,-944.25 189.25,-925 342.5,-925 342.5,-944.25"/>
<text text-anchor="middle" x="265.88" y="-930.75" font-family="Helvetica,sans-Serif" font-size="10.00">PostprocessorCoupledInflowBC</text>
</a>
</g>
</g>
<!-- Node26&#45;&gt;Node32 -->
<g id="edge36_Node000026_Node000032" class="edge">
<title>Node26&#45;&gt;Node32</title>
<g id="a_edge36_Node000026_Node000032"><a xlink:title=" ">
<path fill="none" stroke="#63b8ff" d="M121.15,-906.73C148.98,-912.13 184.32,-918.99 212.98,-924.55"/>
<polygon fill="#63b8ff" stroke="#63b8ff" points="122.07,-903.34 111.59,-904.87 120.74,-910.21 122.07,-903.34"/>
</a>
</g>
</g>
<!-- Node33 -->
<g id="Node000033" class="node">
<title>Node33</title>
<g id="a_Node000033"><a xlink:href="class_scalar_advection_art_diff_no_b_c_b_c.html" target="_top" xlink:title=" ">
<polygon fill="white" stroke="#666666" points="342.88,-759.25 188.88,-759.25 188.88,-740 342.88,-740 342.88,-759.25"/>
<text text-anchor="middle" x="265.88" y="-745.75" font-family="Helvetica,sans-Serif" font-size="10.00">ScalarAdvectionArtDiffNoBCBC</text>
</a>
</g>
</g>
<!-- Node26&#45;&gt;Node33 -->
<g id="edge37_Node000026_Node000033" class="edge">
<title>Node26&#45;&gt;Node33</title>
<g id="a_edge37_Node000026_Node000033"><a xlink:title=" ">
<path fill="none" stroke="#63b8ff" d="M85.01,-877.74C101.81,-848.71 137.09,-795.2 182.5,-767.62 187.76,-764.43 193.5,-761.8 199.44,-759.64"/>
<polygon fill="#63b8ff" stroke="#63b8ff" points="82.08,-875.81 80.24,-886.24 88.18,-879.24 82.08,-875.81"/>
</a>
</g>
</g>
<!-- Node34 -->
<g id="Node000034" class="node">
<title>Node34</title>
<g id="a_Node000034"><a xlink:href="class_vacuum_conc_b_c.html" target="_top" xlink:title=" ">
<polygon fill="white" stroke="#666666" points="309.88,-870.25 221.88,-870.25 221.88,-851 309.88,-851 309.88,-870.25"/>
<text text-anchor="middle" x="265.88" y="-856.75" font-family="Helvetica,sans-Serif" font-size="10.00">VacuumConcBC</text>
</a>
</g>
</g>
<!-- Node26&#45;&gt;Node34 -->
<g id="edge38_Node000026_Node000034" class="edge">
<title>Node26&#45;&gt;Node34</title>
<g id="a_edge38_Node000026_Node000034"><a xlink:title=" ">
<path fill="none" stroke="#63b8ff" d="M121.36,-888.48C151.99,-882.53 191.64,-874.84 221.49,-869.05"/>
<polygon fill="#63b8ff" stroke="#63b8ff" points="120.74,-885.04 111.59,-890.38 122.07,-891.91 120.74,-885.04"/>
</a>
</g>
</g>
<!-- Node7 -->
<g id="Node000007" class="node">
<title>Node7</title>
<g id="a_Node000007"><a xlink:title=" ">
<polygon fill="#e0e0e0" stroke="#999999" points="95.12,-408.25 51.38,-408.25 51.38,-389 95.12,-389 95.12,-408.25"/>
<text text-anchor="middle" x="73.25" y="-394.75" font-family="Helvetica,sans-Serif" font-size="10.00">Kernel</text>
</a>
</g>
</g>
<!-- Node8 -->
<g id="Node000008" class="node">
<title>Node8</title>
<g id="a_Node000008"><a xlink:href="class_convective_heat_exchanger.html" target="_top" xlink:title=" ">
<polygon fill="white" stroke="#666666" points="331.25,-204.25 200.5,-204.25 200.5,-185 331.25,-185 331.25,-204.25"/>
<text text-anchor="middle" x="265.88" y="-190.75" font-family="Helvetica,sans-Serif" font-size="10.00">ConvectiveHeatExchanger</text>
</a>
</g>
</g>
<!-- Node7&#45;&gt;Node8 -->
<g id="edge39_Node000007_Node000008" class="edge">
<title>Node7&#45;&gt;Node8</title>
<g id="a_edge39_Node000007_Node000008"><a xlink:title=" ">
<path fill="none" stroke="#63b8ff" d="M80.25,-377.6C92.55,-338.54 124.45,-254.9 182.5,-212.62 187.83,-208.75 193.82,-205.68 200.09,-203.25"/>
<polygon fill="#63b8ff" stroke="#63b8ff" points="76.91,-376.58 77.38,-387.16 83.61,-378.59 76.91,-376.58"/>
</a>
</g>
</g>
<!-- Node6 -->
<g id="Node000006" class="node">
<title>Node6</title>
<g id="a_Node000006"><a xlink:href="class_coupled_fission_kernel.html" target="_top" xlink:title=" ">
<polygon fill="white" stroke="#666666" points="321.12,-463.25 210.62,-463.25 210.62,-444 321.12,-444 321.12,-463.25"/>
<text text-anchor="middle" x="265.88" y="-449.75" font-family="Helvetica,sans-Serif" font-size="10.00">CoupledFissionKernel</text>
</a>
</g>
</g>
<!-- Node7&#45;&gt;Node6 -->
<g id="edge40_Node000007_Node000006" class="edge">
<title>Node7&#45;&gt;Node6</title>
<g id="a_edge40_Node000007_Node000006"><a xlink:title=" ">
<path fill="none" stroke="#63b8ff" d="M106.34,-410.67C127.72,-418.43 156.56,-428.38 182.5,-435.62 192.79,-438.5 203.91,-441.2 214.55,-443.59"/>
<polygon fill="#63b8ff" stroke="#63b8ff" points="107.6,-407.41 97.01,-407.25 105.19,-413.98 107.6,-407.41"/>
</a>
</g>
</g>
<!-- Node9 -->
<g id="Node000009" class="node">
<title>Node9</title>
<g id="a_Node000009"><a xlink:href="class_coupled_scalar_advection.html" target="_top" xlink:title=" ">
<polygon fill="white" stroke="#666666" points="327.12,-426.25 204.62,-426.25 204.62,-407 327.12,-407 327.12,-426.25"/>
<text text-anchor="middle" x="265.88" y="-412.75" font-family="Helvetica,sans-Serif" font-size="10.00">CoupledScalarAdvection</text>
</a>
</g>
</g>
<!-- Node7&#45;&gt;Node9 -->
<g id="edge41_Node000007_Node000009" class="edge">
<title>Node7&#45;&gt;Node9</title>
<g id="a_edge41_Node000007_Node000009"><a xlink:title=" ">
<path fill="none" stroke="#63b8ff" d="M106.73,-401.69C133.39,-404.21 171.87,-407.84 204.2,-410.9"/>
<polygon fill="#63b8ff" stroke="#63b8ff" points="107.17,-398.22 96.89,-400.76 106.51,-405.19 107.17,-398.22"/>
</a>
</g>
</g>
<!-- Node10 -->
<g id="Node000010" class="node">
<title>Node10</title>
<g id="a_Node000010"><a xlink:href="class_decay_heat_source.html" target="_top" xlink:title=" ">
<polygon fill="white" stroke="#666666" points="313.25,-389.25 218.5,-389.25 218.5,-370 313.25,-370 313.25,-389.25"/>
<text text-anchor="middle" x="265.88" y="-375.75" font-family="Helvetica,sans-Serif" font-size="10.00">DecayHeatSource</text>
</a>
</g>
</g>
<!-- Node7&#45;&gt;Node10 -->
<g id="edge42_Node000007_Node000010" class="edge">
<title>Node7&#45;&gt;Node10</title>
<g id="a_edge42_Node000007_Node000010"><a xlink:title=" ">
<path fill="none" stroke="#63b8ff" d="M106.69,-395.39C137.35,-392.34 183.67,-387.72 218.27,-384.27"/>
<polygon fill="#63b8ff" stroke="#63b8ff" points="106.49,-391.89 96.88,-396.37 107.18,-398.86 106.49,-391.89"/>
</a>
</g>
</g>
<!-- Node11 -->
<g id="Node000011" class="node">
<title>Node11</title>
<g id="a_Node000011"><a xlink:href="class_delayed_neutron_source.html" target="_top" xlink:title=" ">
<polygon fill="white" stroke="#666666" points="323.75,-352.25 208,-352.25 208,-333 323.75,-333 323.75,-352.25"/>
<text text-anchor="middle" x="265.88" y="-338.75" font-family="Helvetica,sans-Serif" font-size="10.00">DelayedNeutronSource</text>
</a>
</g>
</g>
<!-- Node7&#45;&gt;Node11 -->
<g id="edge43_Node000007_Node000011" class="edge">
<title>Node7&#45;&gt;Node11</title>
<g id="a_edge43_Node000007_Node000011"><a xlink:title=" ">
<path fill="none" stroke="#63b8ff" d="M106.31,-386.21C127.68,-378.22 156.51,-368 182.5,-360.62 192.64,-357.75 203.59,-355.07 214.1,-352.7"/>
<polygon fill="#63b8ff" stroke="#63b8ff" points="105.1,-382.92 96.98,-389.73 107.57,-389.47 105.1,-382.92"/>
</a>
</g>
</g>
<!-- Node12 -->
<g id="Node000012" class="node">
<title>Node12</title>
<g id="a_Node000012"><a xlink:href="class_div_free_coupled_scalar_advection.html" target="_top" xlink:title=" ">
<polygon fill="white" stroke="#666666" points="344,-315.25 187.75,-315.25 187.75,-296 344,-296 344,-315.25"/>
<text text-anchor="middle" x="265.88" y="-301.75" font-family="Helvetica,sans-Serif" font-size="10.00">DivFreeCoupledScalarAdvection</text>
</a>
</g>
</g>
<!-- Node7&#45;&gt;Node12 -->
<g id="edge44_Node000007_Node000012" class="edge">
<title>Node7&#45;&gt;Node12</title>
<g id="a_edge44_Node000007_Node000012"><a xlink:title=" ">
<path fill="none" stroke="#63b8ff" d="M94.13,-381.24C114.82,-364.05 148.84,-338.28 182.5,-323.62 189.75,-320.47 197.6,-317.85 205.49,-315.67"/>
<polygon fill="#63b8ff" stroke="#63b8ff" points="91.88,-378.56 86.51,-387.7 96.4,-383.9 91.88,-378.56"/>
</a>
</g>
</g>
<!-- Node13 -->
<g id="Node000013" class="node">
<title>Node13</title>
<g id="a_Node000013"><a xlink:href="class_fission_heat_source.html" target="_top" xlink:title=" ">
<polygon fill="white" stroke="#666666" points="315.5,-130.25 216.25,-130.25 216.25,-111 315.5,-111 315.5,-130.25"/>
<text text-anchor="middle" x="265.88" y="-116.75" font-family="Helvetica,sans-Serif" font-size="10.00">FissionHeatSource</text>
</a>
</g>
</g>
<!-- Node7&#45;&gt;Node13 -->
<g id="edge45_Node000007_Node000013" class="edge">
<title>Node7&#45;&gt;Node13</title>
<g id="a_edge45_Node000007_Node000013"><a xlink:title=" ">
<path fill="none" stroke="#63b8ff" d="M76.51,-377.53C83.03,-327.69 106.54,-202.05 182.5,-138.62 191.94,-130.74 204.05,-126.1 216.07,-123.41"/>
<polygon fill="#63b8ff" stroke="#63b8ff" points="73.06,-376.89 75.35,-387.23 80.01,-377.72 73.06,-376.89"/>
</a>
</g>
</g>
<!-- Node14 -->
<g id="Node000014" class="node">
<title>Node14</title>
<g id="a_Node000014"><a xlink:href="class_gamma_heat_source.html" target="_top" xlink:title=" ">
<polygon fill="white" stroke="#666666" points="317,-93.25 214.75,-93.25 214.75,-74 317,-74 317,-93.25"/>
<text text-anchor="middle" x="265.88" y="-79.75" font-family="Helvetica,sans-Serif" font-size="10.00">GammaHeatSource</text>
</a>
</g>
</g>
<!-- Node7&#45;&gt;Node14 -->
<g id="edge46_Node000007_Node000014" class="edge">
<title>Node7&#45;&gt;Node14</title>
<g id="a_edge46_Node000007_Node000014"><a xlink:title=" ">
<path fill="none" stroke="#63b8ff" d="M80.58,-377.74C100.29,-313.3 160.52,-120.84 182.5,-101.62 191.43,-93.82 202.95,-89.16 214.54,-86.42"/>
<polygon fill="#63b8ff" stroke="#63b8ff" points="77.31,-376.48 77.74,-387.07 84,-378.52 77.31,-376.48"/>
</a>
</g>
</g>
<!-- Node15 -->
<g id="Node000015" class="node">
<title>Node15</title>
<g id="a_Node000015"><a xlink:href="class_group_diffusion.html" target="_top" xlink:title=" ">
<polygon fill="white" stroke="#666666" points="305.75,-278.25 226,-278.25 226,-259 305.75,-259 305.75,-278.25"/>
<text text-anchor="middle" x="265.88" y="-264.75" font-family="Helvetica,sans-Serif" font-size="10.00">GroupDiffusion</text>
</a>
</g>
</g>
<!-- Node7&#45;&gt;Node15 -->
<g id="edge47_Node000007_Node000015" class="edge">
<title>Node7&#45;&gt;Node15</title>
<g id="a_edge47_Node000007_Node000015"><a xlink:title=" ">
<path fill="none" stroke="#63b8ff" d="M87.25,-379.35C105.44,-353.94 140.99,-309.78 182.5,-286.62 195.67,-279.28 211.57,-274.93 225.88,-272.36"/>
<polygon fill="#63b8ff" stroke="#63b8ff" points="84.46,-377.23 81.61,-387.43 90.2,-381.23 84.46,-377.23"/>
</a>
</g>
</g>
<!-- Node16 -->
<g id="Node000016" class="node">
<title>Node16</title>
<g id="a_Node000016"><a xlink:href="class_heat_precursor_decay.html" target="_top" xlink:title=" ">
<polygon fill="white" stroke="#666666" points="318.88,-241.25 212.88,-241.25 212.88,-222 318.88,-222 318.88,-241.25"/>
<text text-anchor="middle" x="265.88" y="-227.75" font-family="Helvetica,sans-Serif" font-size="10.00">HeatPrecursorDecay</text>
</a>
</g>
</g>
<!-- Node7&#45;&gt;Node16 -->
<g id="edge48_Node000007_Node000016" class="edge">
<title>Node7&#45;&gt;Node16</title>
<g id="a_edge48_Node000007_Node000016"><a xlink:title=" ">
<path fill="none" stroke="#63b8ff" d="M82.92,-378.63C98.11,-346.12 132.7,-282.17 182.5,-249.62 191.45,-243.78 201.99,-239.8 212.49,-237.11"/>
<polygon fill="#63b8ff" stroke="#63b8ff" points="79.92,-376.78 78.99,-387.33 86.3,-379.66 79.92,-376.78"/>
</a>
</g>
</g>
<!-- Node17 -->
<g id="Node000017" class="node">
<title>Node17</title>
<g id="a_Node000017"><a xlink:href="class_heat_precursor_source.html" target="_top" xlink:title=" ">
<polygon fill="white" stroke="#666666" points="320.75,-722.25 211,-722.25 211,-703 320.75,-703 320.75,-722.25"/>
<text text-anchor="middle" x="265.88" y="-708.75" font-family="Helvetica,sans-Serif" font-size="10.00">HeatPrecursorSource</text>
</a>
</g>
</g>
<!-- Node7&#45;&gt;Node17 -->
<g id="edge49_Node000007_Node000017" class="edge">
<title>Node7&#45;&gt;Node17</title>
<g id="a_edge49_Node000007_Node000017"><a xlink:title=" ">
<path fill="none" stroke="#63b8ff" d="M85.64,-418.25C101.26,-445.88 129.34,-498.17 146.5,-545.62 169.67,-609.69 133.8,-646.98 182.5,-694.62 190.24,-702.2 200.39,-706.9 210.91,-709.75"/>
<polygon fill="#63b8ff" stroke="#63b8ff" points="88.88,-416.88 80.88,-409.94 82.81,-420.35 88.88,-416.88"/>
</a>
</g>
</g>
<!-- Node18 -->
<g id="Node000018" class="node">
<title>Node18</title>
<g id="a_Node000018"><a xlink:href="class_i_n_s_boussinesq_body_force.html" target="_top" xlink:title=" ">
<polygon fill="white" stroke="#666666" points="331.25,-56.25 200.5,-56.25 200.5,-37 331.25,-37 331.25,-56.25"/>
<text text-anchor="middle" x="265.88" y="-42.75" font-family="Helvetica,sans-Serif" font-size="10.00">INSBoussinesqBodyForce</text>
</a>
</g>
</g>
<!-- Node7&#45;&gt;Node18 -->
<g id="edge50_Node000007_Node000018" class="edge">
<title>Node7&#45;&gt;Node18</title>
<g id="a_edge50_Node000007_Node000018"><a xlink:title=" ">
<path fill="none" stroke="#63b8ff" d="M80.93,-378.2C93.7,-339.09 122.47,-250.91 146.5,-176.62 162.59,-126.88 143.8,-99.78 182.5,-64.62 187.7,-59.9 193.85,-56.31 200.4,-53.61"/>
<polygon fill="#63b8ff" stroke="#63b8ff" points="77.68,-376.86 77.9,-387.45 84.33,-379.03 77.68,-376.86"/>
</a>
</g>
</g>
<!-- Node19 -->
<g id="Node000019" class="node">
<title>Node19</title>
<g id="a_Node000019"><a xlink:href="class_in_scatter.html" target="_top" xlink:title=" ">
<polygon fill="white" stroke="#666666" points="293.75,-685.25 238,-685.25 238,-666 293.75,-666 293.75,-685.25"/>
<text text-anchor="middle" x="265.88" y="-671.75" font-family="Helvetica,sans-Serif" font-size="10.00">InScatter</text>
</a>
</g>
</g>
<!-- Node7&#45;&gt;Node19 -->
<g id="edge51_Node000007_Node000019" class="edge">
<title>Node7&#45;&gt;Node19</title>
<g id="a_edge51_Node000007_Node000019"><a xlink:title=" ">
<path fill="none" stroke="#63b8ff" d="M85.35,-418.81C100.43,-446.75 127.68,-499.05 146.5,-545.62 166.08,-594.1 143.8,-622.47 182.5,-657.62 197.34,-671.11 219.89,-675.32 237.65,-676.31"/>
<polygon fill="#63b8ff" stroke="#63b8ff" points="88.44,-417.17 80.58,-410.06 82.29,-420.51 88.44,-417.17"/>
</a>
</g>
</g>
<!-- Node20 -->
<g id="Node000020" class="node">
<title>Node20</title>
<g id="a_Node000020"><a xlink:href="class_precursor_decay.html" target="_top" xlink:title=" ">
<polygon fill="white" stroke="#666666" points="308.38,-648.25 223.38,-648.25 223.38,-629 308.38,-629 308.38,-648.25"/>
<text text-anchor="middle" x="265.88" y="-634.75" font-family="Helvetica,sans-Serif" font-size="10.00">PrecursorDecay</text>
</a>
</g>
</g>
<!-- Node7&#45;&gt;Node20 -->
<g id="edge52_Node000007_Node000020" class="edge">
<title>Node7&#45;&gt;Node20</title>
<g id="a_edge52_Node000007_Node000020"><a xlink:title=" ">
<path fill="none" stroke="#63b8ff" d="M84.23,-418.79C98.23,-447.09 124.44,-500.21 146.5,-545.62 162.65,-578.88 153.5,-597.69 182.5,-620.62 193.98,-629.71 209.06,-634.44 223.18,-636.84"/>
<polygon fill="#63b8ff" stroke="#63b8ff" points="87.43,-417.36 79.86,-409.95 81.16,-420.46 87.43,-417.36"/>
</a>
</g>
</g>
<!-- Node21 -->
<g id="Node000021" class="node">
<title>Node21</title>
<g id="a_Node000021"><a xlink:href="class_precursor_source.html" target="_top" xlink:title=" ">
<polygon fill="white" stroke="#666666" points="310.25,-611.25 221.5,-611.25 221.5,-592 310.25,-592 310.25,-611.25"/>
<text text-anchor="middle" x="265.88" y="-597.75" font-family="Helvetica,sans-Serif" font-size="10.00">PrecursorSource</text>
</a>
</g>
</g>
<!-- Node7&#45;&gt;Node21 -->
<g id="edge53_Node000007_Node000021" class="edge">
<title>Node7&#45;&gt;Node21</title>
<g id="a_edge53_Node000007_Node000021"><a xlink:title=" ">
<path fill="none" stroke="#63b8ff" d="M83.57,-418.97C103.86,-462.37 152.58,-561.89 182.5,-583.62 193.63,-591.71 207.7,-596.29 221.04,-598.84"/>
<polygon fill="#63b8ff" stroke="#63b8ff" points="86.76,-417.52 79.38,-409.92 80.41,-420.46 86.76,-417.52"/>
</a>
</g>
</g>
<!-- Node22 -->
<g id="Node000022" class="node">
<title>Node22</title>
<g id="a_Node000022"><a xlink:href="class_scalar_advection_art_diff.html" target="_top" xlink:title=" ">
<polygon fill="white" stroke="#666666" points="323,-574.25 208.75,-574.25 208.75,-555 323,-555 323,-574.25"/>
<text text-anchor="middle" x="265.88" y="-560.75" font-family="Helvetica,sans-Serif" font-size="10.00">ScalarAdvectionArtDiff</text>
</a>
</g>
</g>
<!-- Node7&#45;&gt;Node22 -->
<g id="edge54_Node000007_Node000022" class="edge">
<title>Node7&#45;&gt;Node22</title>
<g id="a_edge54_Node000007_Node000022"><a xlink:title=" ">
<path fill="none" stroke="#63b8ff" d="M83.16,-418.92C98.5,-451.34 133.08,-514.44 182.5,-546.62 190.35,-551.74 199.42,-555.42 208.62,-558.06"/>
<polygon fill="#63b8ff" stroke="#63b8ff" points="86.36,-417.49 79.02,-409.85 79.99,-420.4 86.36,-417.49"/>
</a>
</g>
</g>
<!-- Node23 -->
<g id="Node000023" class="node">
<title>Node23</title>
<g id="a_Node000023"><a xlink:href="class_sigma_r.html" target="_top" xlink:title=" ">
<polygon fill="white" stroke="#666666" points="291.12,-537.25 240.62,-537.25 240.62,-518 291.12,-518 291.12,-537.25"/>
<text text-anchor="middle" x="265.88" y="-523.75" font-family="Helvetica,sans-Serif" font-size="10.00">SigmaR</text>
</a>
</g>
</g>
<!-- Node7&#45;&gt;Node23 -->
<g id="edge55_Node000007_Node000023" class="edge">
<title>Node7&#45;&gt;Node23</title>
<g id="a_edge55_Node000007_Node000023"><a xlink:title=" ">
<path fill="none" stroke="#63b8ff" d="M87.29,-417.73C105.53,-442.9 141.13,-486.67 182.5,-509.62 200.29,-519.5 223.05,-523.96 240.13,-525.97"/>
<polygon fill="#63b8ff" stroke="#63b8ff" points="90.26,-415.88 81.64,-409.72 84.54,-419.91 90.26,-415.88"/>
</a>
</g>
</g>
<!-- Node24 -->
<g id="Node000024" class="node">
<title>Node24</title>
<g id="a_Node000024"><a xlink:href="class_transient_fission_heat_source.html" target="_top" xlink:title=" ">
<polygon fill="white" stroke="#666666" points="335.75,-500.25 196,-500.25 196,-481 335.75,-481 335.75,-500.25"/>
<text text-anchor="middle" x="265.88" y="-486.75" font-family="Helvetica,sans-Serif" font-size="10.00">TransientFissionHeatSource</text>
</a>
</g>
</g>
<!-- Node7&#45;&gt;Node24 -->
<g id="edge56_Node000007_Node000024" class="edge">
<title>Node7&#45;&gt;Node24</title>
<g id="a_edge56_Node000007_Node000024"><a xlink:title=" ">
<path fill="none" stroke="#63b8ff" d="M94.51,-416.04C115.26,-432.99 149.12,-458.22 182.5,-472.62 189.76,-475.76 197.62,-478.37 205.51,-480.54"/>
<polygon fill="#63b8ff" stroke="#63b8ff" points="96.77,-413.38 86.85,-409.66 92.29,-418.75 96.77,-413.38"/>
</a>
</g>
</g>
<!-- Node36 -->
<g id="Node000036" class="node">
<title>Node36</title>
<g id="a_Node000036"><a xlink:title=" ">
<polygon fill="#e0e0e0" stroke="#999999" points="132.62,-1193.25 13.88,-1193.25 13.88,-1174 132.62,-1174 132.62,-1193.25"/>
<text text-anchor="middle" x="73.25" y="-1179.75" font-family="Helvetica,sans-Serif" font-size="10.00">MooseVariableInterface</text>
</a>
</g>
</g>
<!-- Node36&#45;&gt;Node35 -->
<g id="edge57_Node000036_Node000035" class="edge">
<title>Node36&#45;&gt;Node35</title>
<g id="a_edge57_Node000036_Node000035"><a xlink:title=" ">
<path fill="none" stroke="#63b8ff" d="M144.15,-1187.29C156.5,-1187.94 169.47,-1188.62 182.14,-1189.28"/>
<polygon fill="#63b8ff" stroke="#63b8ff" points="144.68,-1183.81 134.51,-1186.79 144.31,-1190.81 144.68,-1183.81"/>
</a>
</g>
</g>
<!-- Node36&#45;&gt;Node37 -->
<g id="edge58_Node000036_Node000037" class="edge">
<title>Node36&#45;&gt;Node37</title>
<g id="a_edge58_Node000036_Node000037"><a xlink:title=" ">
<path fill="none" stroke="#63b8ff" d="M143.99,-1173.75C160.14,-1171.46 177.35,-1169.02 193.57,-1166.72"/>
<polygon fill="#63b8ff" stroke="#63b8ff" points="143.91,-1170.22 134.5,-1175.09 144.89,-1177.15 143.91,-1170.22"/>
</a>
</g>
</g>
<!-- Node5 -->
<g id="Node000005" class="node">
<title>Node5</title>
<g id="a_Node000005"><a xlink:href="class_scalar_transport_base.html" target="_top" xlink:title=" ">
<polygon fill="white" stroke="#666666" points="127,-574.25 19.5,-574.25 19.5,-555 127,-555 127,-574.25"/>
<text text-anchor="middle" x="73.25" y="-560.75" font-family="Helvetica,sans-Serif" font-size="10.00">ScalarTransportBase</text>
</a>
</g>
</g>
<!-- Node5&#45;&gt;Node2 -->
<g id="edge65_Node000005_Node000002" class="edge">
<title>Node5&#45;&gt;Node2</title>
<g id="a_edge65_Node000005_Node000002"><a xlink:title=" ">
<path fill="none" stroke="#63b8ff" d="M79,-585.89C97.89,-670.05 167.37,-975.99 182.5,-990.62 185.76,-993.78 189.44,-996.43 193.39,-998.66"/>
<polygon fill="#63b8ff" stroke="#63b8ff" points="82.44,-585.22 76.84,-576.23 75.61,-586.75 82.44,-585.22"/>
</a>
</g>
</g>
<!-- Node5&#45;&gt;Node35 -->
<g id="edge70_Node000005_Node000035" class="edge">
<title>Node5&#45;&gt;Node35</title>
<g id="a_edge70_Node000005_Node000035"><a xlink:title=" ">
<path fill="none" stroke="#63b8ff" d="M79.87,-585.53C93.17,-635.71 126.97,-767.13 146.5,-878.62 157.97,-944.11 137.76,-1126.45 182.5,-1175.62 185.36,-1178.77 188.62,-1181.43 192.17,-1183.67"/>
<polygon fill="#63b8ff" stroke="#63b8ff" points="83.3,-584.8 77.34,-576.04 76.53,-586.61 83.3,-584.8"/>
</a>
</g>
</g>
<!-- Node5&#45;&gt;Node37 -->
<g id="edge71_Node000005_Node000037" class="edge">
<title>Node5&#45;&gt;Node37</title>
<g id="a_edge71_Node000005_Node000037"><a xlink:title=" ">
<path fill="none" stroke="#63b8ff" d="M79.74,-585.55C92.78,-635.78 126.03,-767.3 146.5,-878.62 157.05,-935.99 142.88,-1095.81 182.5,-1138.62 185.38,-1141.74 188.67,-1144.38 192.23,-1146.62"/>
<polygon fill="#63b8ff" stroke="#63b8ff" points="83.18,-584.85 77.27,-576.05 76.4,-586.61 83.18,-584.85"/>
</a>
</g>
</g>
<!-- Node5&#45;&gt;Node25 -->
<g id="edge61_Node000005_Node000025" class="edge">
<title>Node5&#45;&gt;Node25</title>
<g id="a_edge61_Node000005_Node000025"><a xlink:title=" ">
<path fill="none" stroke="#63b8ff" d="M77.28,-585.77C85.23,-633.06 111.23,-747.77 182.5,-805.62 186.36,-808.76 190.65,-811.38 195.19,-813.57"/>
<polygon fill="#63b8ff" stroke="#63b8ff" points="80.77,-585.39 75.76,-576.05 73.85,-586.47 80.77,-585.39"/>
</a>
</g>
</g>
<!-- Node5&#45;&gt;Node30 -->
<g id="edge72_Node000005_Node000030" class="edge">
<title>Node5&#45;&gt;Node30</title>
<g id="a_edge72_Node000005_Node000030"><a xlink:title=" ">
<path fill="none" stroke="#63b8ff" d="M79.11,-585.63C89.93,-627.49 120.13,-721.31 182.5,-768.62 188.33,-773.05 195.03,-776.43 202.03,-779.01"/>
<polygon fill="#63b8ff" stroke="#63b8ff" points="82.55,-584.98 76.77,-576.11 75.75,-586.65 82.55,-584.98"/>
</a>
</g>
</g>
<!-- Node5&#45;&gt;Node33 -->
<g id="edge76_Node000005_Node000033" class="edge">
<title>Node5&#45;&gt;Node33</title>
<g id="a_edge76_Node000005_Node000033"><a xlink:title=" ">
<path fill="none" stroke="#63b8ff" d="M81.45,-584.99C95.19,-620.7 128.64,-694.35 182.5,-731.62 187.07,-734.79 192.11,-737.41 197.36,-739.58"/>
<polygon fill="#63b8ff" stroke="#63b8ff" points="84.83,-584.03 78.08,-575.86 78.26,-586.46 84.83,-584.03"/>
</a>
</g>
</g>
<!-- Node5&#45;&gt;Node34 -->
<g id="edge82_Node000005_Node000034" class="edge">
<title>Node5&#45;&gt;Node34</title>
<g id="a_edge82_Node000005_Node000034"><a xlink:title=" ">
<path fill="none" stroke="#63b8ff" d="M75.91,-586.08C81.19,-638.55 102.29,-774.06 182.5,-842.62 193.29,-851.85 207.73,-856.67 221.51,-859.1"/>
<polygon fill="#63b8ff" stroke="#63b8ff" points="79.4,-585.78 75.02,-576.13 72.43,-586.4 79.4,-585.78"/>
</a>
</g>
</g>
<!-- Node5&#45;&gt;Node6 -->
<g id="edge59_Node000005_Node000006" class="edge">
<title>Node5&#45;&gt;Node6</title>
<g id="a_edge59_Node000005_Node000006"><a xlink:title=" ">
<path fill="none" stroke="#63b8ff" d="M90.28,-546.17C109.86,-524.85 145.03,-490.31 182.5,-471.62 191.15,-467.31 200.81,-464.03 210.39,-461.53"/>
<polygon fill="#63b8ff" stroke="#63b8ff" points="87.73,-543.77 83.66,-553.55 92.95,-548.44 87.73,-543.77"/>
</a>
</g>
</g>
<!-- Node5&#45;&gt;Node9 -->
<g id="edge60_Node000005_Node000009" class="edge">
<title>Node5&#45;&gt;Node9</title>
<g id="a_edge60_Node000005_Node000009"><a xlink:title=" ">
<path fill="none" stroke="#63b8ff" d="M85.01,-544.74C101.81,-515.71 137.09,-462.2 182.5,-434.62 189.13,-430.6 196.55,-427.47 204.14,-425.03"/>
<polygon fill="#63b8ff" stroke="#63b8ff" points="82.08,-542.81 80.24,-553.24 88.18,-546.24 82.08,-542.81"/>
</a>
</g>
</g>
<!-- Node5&#45;&gt;Node10 -->
<g id="edge62_Node000005_Node000010" class="edge">
<title>Node5&#45;&gt;Node10</title>
<g id="a_edge62_Node000005_Node000010"><a xlink:title=" ">
<path fill="none" stroke="#63b8ff" d="M81.45,-544.26C95.19,-508.55 128.64,-434.9 182.5,-397.62 192.97,-390.38 205.84,-385.98 218.27,-383.33"/>
<polygon fill="#63b8ff" stroke="#63b8ff" points="78.26,-542.79 78.08,-553.39 84.83,-545.22 78.26,-542.79"/>
</a>
</g>
</g>
<!-- Node5&#45;&gt;Node11 -->
<g id="edge63_Node000005_Node000011" class="edge">
<title>Node5&#45;&gt;Node11</title>
<g id="a_edge63_Node000005_Node000011"><a xlink:title=" ">
<path fill="none" stroke="#63b8ff" d="M83.77,-544.42C107.06,-495.35 166.2,-372.99 182.5,-360.62 189.85,-355.05 198.57,-351.13 207.54,-348.39"/>
<polygon fill="#63b8ff" stroke="#63b8ff" points="80.66,-542.81 79.55,-553.35 86.99,-545.8 80.66,-542.81"/>
</a>
</g>
</g>
<!-- Node5&#45;&gt;Node12 -->
<g id="edge64_Node000005_Node000012" class="edge">
<title>Node5&#45;&gt;Node12</title>
<g id="a_edge64_Node000005_Node000012"><a xlink:title=" ">
<path fill="none" stroke="#63b8ff" d="M84.76,-544.7C99.38,-516.69 126.32,-463.9 146.5,-417.62 164.39,-376.62 148.58,-352.79 182.5,-323.62 186.16,-320.48 190.25,-317.84 194.59,-315.64"/>
<polygon fill="#63b8ff" stroke="#63b8ff" points="81.72,-542.97 80.18,-553.45 87.92,-546.22 81.72,-542.97"/>
</a>
</g>
</g>
<!-- Node5&#45;&gt;Node15 -->
<g id="edge66_Node000005_Node000015" class="edge">
<title>Node5&#45;&gt;Node15</title>
<g id="a_edge66_Node000005_Node000015"><a xlink:title=" ">
<path fill="none" stroke="#63b8ff" d="M85.63,-544.55C101.05,-516.74 128.69,-464.6 146.5,-417.62 167.91,-361.17 138.69,-328.17 182.5,-286.62 193.97,-275.75 210.43,-270.84 225.62,-268.81"/>
<polygon fill="#63b8ff" stroke="#63b8ff" points="82.59,-542.83 80.75,-553.26 88.7,-546.25 82.59,-542.83"/>
</a>
</g>
</g>
<!-- Node5&#45;&gt;Node16 -->
<g id="edge67_Node000005_Node000016" class="edge">
<title>Node5&#45;&gt;Node16</title>
<g id="a_edge67_Node000005_Node000016"><a xlink:title=" ">
<path fill="none" stroke="#63b8ff" d="M85.81,-545.06C101.64,-517.51 129.96,-465.3 146.5,-417.62 171.53,-345.48 128.61,-303.73 182.5,-249.62 190.56,-241.53 201.35,-236.7 212.47,-233.9"/>
<polygon fill="#63b8ff" stroke="#63b8ff" points="82.99,-542.95 80.99,-553.35 89.04,-546.47 82.99,-542.95"/>
</a>
</g>
</g>
<!-- Node5&#45;&gt;Node17 -->
<g id="edge68_Node000005_Node000017" class="edge">
<title>Node5&#45;&gt;Node17</title>
<g id="a_edge68_Node000005_Node000017"><a xlink:title=" ">
<path fill="none" stroke="#63b8ff" d="M85.01,-584.51C101.81,-613.54 137.09,-667.05 182.5,-694.62 191.01,-699.79 200.81,-703.48 210.61,-706.12"/>
<polygon fill="#63b8ff" stroke="#63b8ff" points="88.18,-583.01 80.24,-576.01 82.08,-586.44 88.18,-583.01"/>
</a>
</g>
</g>
<!-- Node5&#45;&gt;Node19 -->
<g id="edge69_Node000005_Node000019" class="edge">
<title>Node5&#45;&gt;Node19</title>
<g id="a_edge69_Node000005_Node000019"><a xlink:title=" ">
<path fill="none" stroke="#63b8ff" d="M90.28,-583.08C109.86,-604.4 145.03,-638.94 182.5,-657.62 199.79,-666.25 221.15,-670.76 237.79,-673.11"/>
<polygon fill="#63b8ff" stroke="#63b8ff" points="92.95,-580.81 83.66,-575.7 87.73,-585.48 92.95,-580.81"/>
</a>
</g>
</g>
<!-- Node5&#45;&gt;Node20 -->
<g id="edge73_Node000005_Node000020" class="edge">
<title>Node5&#45;&gt;Node20</title>
<g id="a_edge73_Node000005_Node000020"><a xlink:title=" ">
<path fill="none" stroke="#63b8ff" d="M99.77,-580.27C121.18,-592.79 152.91,-609.95 182.5,-620.62 195.44,-625.3 209.99,-628.96 223.21,-631.73"/>
<polygon fill="#63b8ff" stroke="#63b8ff" points="101.84,-577.42 91.45,-575.32 98.26,-583.44 101.84,-577.42"/>
</a>
</g>
</g>
<!-- Node5&#45;&gt;Node21 -->
<g id="edge74_Node000005_Node000021" class="edge">
<title>Node5&#45;&gt;Node21</title>
<g id="a_edge74_Node000005_Node000021"><a xlink:title=" ">
<path fill="none" stroke="#63b8ff" d="M137.44,-576.89C164.91,-582.22 196.42,-588.34 221.23,-593.15"/>
<polygon fill="#63b8ff" stroke="#63b8ff" points="138.31,-573.49 127.82,-575.02 136.97,-580.37 138.31,-573.49"/>
</a>
</g>
</g>
<!-- Node5&#45;&gt;Node22 -->
<g id="edge75_Node000005_Node000022" class="edge">
<title>Node5&#45;&gt;Node22</title>
<g id="a_edge75_Node000005_Node000022"><a xlink:title=" ">
<path fill="none" stroke="#63b8ff" d="M138.57,-564.62C161.2,-564.62 186.46,-564.62 208.4,-564.62"/>
<polygon fill="#63b8ff" stroke="#63b8ff" points="138.86,-561.13 128.86,-564.63 138.86,-568.13 138.86,-561.13"/>
</a>
</g>
</g>
<!-- Node5&#45;&gt;Node23 -->
<g id="edge79_Node000005_Node000023" class="edge">
<title>Node5&#45;&gt;Node23</title>
<g id="a_edge79_Node000005_Node000023"><a xlink:title=" ">
<path fill="none" stroke="#63b8ff" d="M137.48,-552.35C172.59,-545.54 214.27,-537.45 240.15,-532.42"/>
<polygon fill="#63b8ff" stroke="#63b8ff" points="136.97,-548.88 127.82,-554.23 138.31,-555.76 136.97,-548.88"/>
</a>
</g>
</g>
<!-- Node5&#45;&gt;Node24 -->
<g id="edge81_Node000005_Node000024" class="edge">
<title>Node5&#45;&gt;Node24</title>
<g id="a_edge81_Node000005_Node000024"><a xlink:title=" ">
<path fill="none" stroke="#63b8ff" d="M99.77,-548.98C121.18,-536.46 152.91,-519.3 182.5,-508.62 191.04,-505.54 200.27,-502.9 209.36,-500.66"/>
<polygon fill="#63b8ff" stroke="#63b8ff" points="98.26,-545.81 91.45,-553.93 101.84,-551.83 98.26,-545.81"/>
</a>
</g>
</g>
<!-- Node38 -->
<g id="Node000038" class="node">
<title>Node38</title>
<g id="a_Node000038"><a xlink:href="class_scalar_transport_time_derivative.html" target="_top" xlink:title=" ">
<polygon fill="white" stroke="#666666" points="341,-167.25 190.75,-167.25 190.75,-148 341,-148 341,-167.25"/>
<text text-anchor="middle" x="265.88" y="-153.75" font-family="Helvetica,sans-Serif" font-size="10.00">ScalarTransportTimeDerivative</text>
</a>
</g>
</g>
<!-- Node5&#45;&gt;Node38 -->
<g id="edge77_Node000005_Node000038" class="edge">
<title>Node5&#45;&gt;Node38</title>
<g id="a_edge77_Node000005_Node000038"><a xlink:title=" ">
<path fill="none" stroke="#63b8ff" d="M86.24,-545.2C102.57,-517.82 131.48,-465.8 146.5,-417.62 178.87,-313.82 108.25,-255.06 182.5,-175.62 185.4,-172.52 188.7,-169.89 192.27,-167.67"/>
<polygon fill="#63b8ff" stroke="#63b8ff" points="83.44,-543.08 81.25,-553.45 89.42,-546.71 83.44,-543.08"/>
</a>
</g>
</g>
<!-- Node41 -->
<g id="Node000041" class="node">
<title>Node41</title>
<g id="a_Node000041"><a xlink:href="class_total_neutron_leakage.html" target="_top" xlink:title=" ">
<polygon fill="white" stroke="#666666" points="320.75,-19.25 211,-19.25 211,0 320.75,0 320.75,-19.25"/>
<text text-anchor="middle" x="265.88" y="-5.75" font-family="Helvetica,sans-Serif" font-size="10.00">TotalNeutronLeakage</text>
</a>
</g>
</g>
<!-- Node5&#45;&gt;Node41 -->
<g id="edge80_Node000005_Node000041" class="edge">
<title>Node5&#45;&gt;Node41</title>
<g id="a_edge80_Node000005_Node000041"><a xlink:title=" ">
<path fill="none" stroke="#63b8ff" d="M86.62,-545.32C103.4,-518.06 132.83,-466.2 146.5,-417.62 170.09,-333.85 124.86,-92.84 182.5,-27.62 189.87,-19.29 200.12,-14.32 210.9,-11.44"/>
<polygon fill="#63b8ff" stroke="#63b8ff" points="83.82,-543.19 81.48,-553.52 89.76,-546.91 83.82,-543.19"/>
</a>
</g>
</g>
<!-- Node39 -->
<g id="Node000039" class="node">
<title>Node39</title>
<g id="a_Node000039"><a xlink:href="class_nt_time_derivative.html" target="_top" xlink:title=" ">
<polygon fill="white" stroke="#666666" points="516.75,-167.25 425,-167.25 425,-148 516.75,-148 516.75,-167.25"/>
<text text-anchor="middle" x="470.88" y="-153.75" font-family="Helvetica,sans-Serif" font-size="10.00">NtTimeDerivative</text>
</a>
</g>
</g>
<!-- Node38&#45;&gt;Node39 -->
<g id="edge78_Node000038_Node000039" class="edge">
<title>Node38&#45;&gt;Node39</title>
<g id="a_edge78_Node000038_Node000039"><a xlink:title=" ">
<path fill="none" stroke="#63b8ff" d="M352.58,-157.62C377.36,-157.62 403.42,-157.62 424.67,-157.62"/>
<polygon fill="#63b8ff" stroke="#63b8ff" points="352.83,-154.13 342.83,-157.63 352.83,-161.13 352.83,-154.13"/>
</a>
</g>
</g>
<!-- Node42 -->
<g id="Node000042" class="node">
<title>Node42</title>
<g id="a_Node000042"><a xlink:title=" ">
<polygon fill="#e0e0e0" stroke="#999999" points="138.62,-19.25 7.88,-19.25 7.88,0 138.62,0 138.62,-19.25"/>
<text text-anchor="middle" x="73.25" y="-5.75" font-family="Helvetica,sans-Serif" font-size="10.00">SideIntegralPostprocessor</text>
</a>
</g>
</g>
<!-- Node42&#45;&gt;Node41 -->
<g id="edge83_Node000042_Node000041" class="edge">
<title>Node42&#45;&gt;Node41</title>
<g id="a_edge83_Node000042_Node000041"><a xlink:title=" ">
<path fill="none" stroke="#63b8ff" d="M150.44,-9.62C170.61,-9.62 191.98,-9.62 210.72,-9.62"/>
<polygon fill="#63b8ff" stroke="#63b8ff" points="150.57,-6.13 140.57,-9.63 150.57,-13.13 150.57,-6.13"/>
</a>
</g>
</g>
<!-- Node40 -->
<g id="Node000040" class="node">
<title>Node40</title>
<g id="a_Node000040"><a xlink:title=" ">
<polygon fill="#e0e0e0" stroke="#999999" points="106,-167.25 40.5,-167.25 40.5,-148 106,-148 106,-167.25"/>
<text text-anchor="middle" x="73.25" y="-153.75" font-family="Helvetica,sans-Serif" font-size="10.00">TimeKernel</text>
</a>
</g>
</g>
<!-- Node40&#45;&gt;Node38 -->
<g id="edge84_Node000040_Node000038" class="edge">
<title>Node40&#45;&gt;Node38</title>
<g id="a_edge84_Node000040_Node000038"><a xlink:title=" ">
<path fill="none" stroke="#63b8ff" d="M117.55,-157.62C139.09,-157.62 165.74,-157.62 190.43,-157.62"/>
<polygon fill="#63b8ff" stroke="#63b8ff" points="117.67,-154.13 107.67,-157.63 117.67,-161.13 117.67,-154.13"/>
</a>
</g>
</g>
</g>
</svg>
