<?xml version="1.0" encoding="UTF-8" standalone="no"?>
<!DOCTYPE svg PUBLIC "-//W3C//DTD SVG 1.1//EN"
 "http://www.w3.org/Graphics/SVG/1.1/DTD/svg11.dtd">
<!-- Generated by graphviz version 9.0.0 (20230911.1827)
 -->
<!-- Title: Graphical Class Hierarchy Pages: 1 -->
<svg width="282pt" height="101pt"
 viewBox="0.00 0.00 282.25 101.25" xmlns="http://www.w3.org/2000/svg" xmlns:xlink="http://www.w3.org/1999/xlink">
<g id="graph0" class="graph" transform="scale(1 1) rotate(0) translate(4 97.25)">
<title>Graphical Class Hierarchy</title>
<!-- Node0 -->
<g id="Node000000" class="node">
<title>Node0</title>
<g id="a_Node000000"><a xlink:title=" ">
<polygon fill="#e0e0e0" stroke="#999999" points="86.5,-56.25 0,-56.25 0,-37 86.5,-37 86.5,-56.25"/>
<text text-anchor="middle" x="43.25" y="-42.75" font-family="Helvetica,sans-Serif" font-size="10.00">ADIntegratedBC</text>
</a>
</g>
</g>
<!-- Node1 -->
<g id="Node000001" class="node">
<title>Node1</title>
<g id="a_Node000001"><a xlink:href="class_i_n_s_a_d_mass_p_s_p_g_b_c.html" target="_top" xlink:title=" ">
<polygon fill="white" stroke="#666666" points="254.38,-93.25 142.38,-93.25 142.38,-74 254.38,-74 254.38,-93.25"/>
<text text-anchor="middle" x="198.38" y="-79.75" font-family="Helvetica,sans-Serif" font-size="10.00">INSADMassPSPGBC</text>
</a>
</g>
</g>
<!-- Node0&#45;&gt;Node1 -->
<g id="edge5_Node000000_Node000001" class="edge">
<title>Node0&#45;&gt;Node1</title>
<g id="a_edge5_Node000000_Node000001"><a xlink:title=" ">
<path fill="none" stroke="#63b8ff" d="M96.78,-59.4C105.38,-61.48 114.19,-63.62 122.5,-65.62 133.16,-68.2 144.67,-70.97 155.39,-73.55"/>
<polygon fill="#63b8ff" stroke="#63b8ff" points="97.68,-56.01 87.14,-57.06 96.03,-62.82 97.68,-56.01"/>
</a>
</g>
</g>
<!-- Node2 -->
<g id="Node000002" class="node">
<title>Node2</title>
<g id="a_Node000002"><a xlink:href="class_s_a_turbulent_viscosity_no_b_c_b_c.html" target="_top" xlink:title=" ">
<polygon fill="white" stroke="#666666" points="273.12,-56.25 123.62,-56.25 123.62,-37 273.12,-37 273.12,-56.25"/>
<text text-anchor="middle" x="198.38" y="-42.75" font-family="Helvetica,sans-Serif" font-size="10.00">SATurbulentViscosityNoBCBC</text>
</a>
</g>
</g>
<!-- Node0&#45;&gt;Node2 -->
<g id="edge6_Node000000_Node000002" class="edge">
<title>Node0&#45;&gt;Node2</title>
<g id="a_edge6_Node000000_Node000002"><a xlink:title=" ">
<path fill="none" stroke="#63b8ff" d="M98.41,-46.62C106.47,-46.62 114.89,-46.62 123.28,-46.62"/>
<polygon fill="#63b8ff" stroke="#63b8ff" points="98.42,-43.13 88.42,-46.63 98.42,-50.13 98.42,-43.13"/>
</a>
</g>
</g>
<!-- Node3 -->
<g id="Node000003" class="node">
<title>Node3</title>
<g id="a_Node000003"><a xlink:href="class_s_a_turbulent_viscosity_s_u_p_g_b_c.html" target="_top" xlink:title=" ">
<polygon fill="white" stroke="#666666" points="274.25,-19.25 122.5,-19.25 122.5,0 274.25,0 274.25,-19.25"/>
<text text-anchor="middle" x="198.38" y="-5.75" font-family="Helvetica,sans-Serif" font-size="10.00">SATurbulentViscositySUPGBC</text>
</a>
</g>
</g>
<!-- Node0&#45;&gt;Node3 -->
<g id="edge7_Node000000_Node000003" class="edge">
<title>Node0&#45;&gt;Node3</title>
<g id="a_edge7_Node000000_Node000003"><a xlink:title=" ">
<path fill="none" stroke="#63b8ff" d="M96.78,-33.85C105.38,-31.77 114.19,-29.63 122.5,-27.62 133.16,-25.05 144.67,-22.28 155.39,-19.7"/>
<polygon fill="#63b8ff" stroke="#63b8ff" points="96.03,-30.43 87.14,-36.19 97.68,-37.24 96.03,-30.43"/>
</a>
</g>
</g>
</g>
</svg>
