<?xml version="1.0" encoding="UTF-8" standalone="no"?>
<!DOCTYPE svg PUBLIC "-//W3C//DTD SVG 1.1//EN"
 "http://www.w3.org/Graphics/SVG/1.1/DTD/svg11.dtd">
<!-- Generated by graphviz version 7.0.5 (20221223.1930)
 -->
<!-- Title: Graphical Class Hierarchy Pages: 1 -->
<svg width="383pt" height="64pt"
 viewBox="0.00 0.00 383.00 64.00" xmlns="http://www.w3.org/2000/svg" xmlns:xlink="http://www.w3.org/1999/xlink">
<g id="graph0" class="graph" transform="scale(1 1) rotate(0) translate(4 60)">
<title>Graphical Class Hierarchy</title>
<!-- Node0 -->
<g id="node1" class="node">
<title>Node0</title>
<g id="a_node1"><a xlink:title=" ">
<polygon fill="#e0e0e0" stroke="#999999" points="167,-37 0,-37 0,-18 167,-18 167,-37"/>
<text text-anchor="middle" x="83.5" y="-25" font-family="Helvetica,sans-Serif" font-size="10.00">SideIntegralVariablePostprocessor</text>
</a>
</g>
</g>
<!-- Node1 -->
<g id="node2" class="node">
<title>Node1</title>
<g id="a_node2"><a xlink:href="class_neutron_leakage.html" target="_top" xlink:title=" ">
<polygon fill="white" stroke="#666666" points="333.5,-56 244.5,-56 244.5,-37 333.5,-37 333.5,-56"/>
<text text-anchor="middle" x="289" y="-44" font-family="Helvetica,sans-Serif" font-size="10.00">NeutronLeakage</text>
</a>
</g>
</g>
<!-- Node0&#45;&gt;Node1 -->
<g id="edge1" class="edge">
<title>Node0&#45;&gt;Node1</title>
<path fill="none" stroke="#63b8ff" d="M178.45,-36.27C201.35,-38.41 224.78,-40.6 244.06,-42.4"/>
<polygon fill="#63b8ff" stroke="#63b8ff" points="179.06,-32.81 168.78,-35.37 178.41,-39.78 179.06,-32.81"/>
</g>
<!-- Node2 -->
<g id="node3" class="node">
<title>Node2</title>
<g id="a_node3"><a xlink:href="class_side_weighted_integral_postprocessor.html" target="_top" xlink:title=" ">
<polygon fill="white" stroke="#666666" points="375,-19 203,-19 203,0 375,0 375,-19"/>
<text text-anchor="middle" x="289" y="-7" font-family="Helvetica,sans-Serif" font-size="10.00">SideWeightedIntegralPostprocessor</text>
</a>
</g>
</g>
<!-- Node0&#45;&gt;Node2 -->
<g id="edge2" class="edge">
<title>Node0&#45;&gt;Node2</title>
<path fill="none" stroke="#63b8ff" d="M178.56,-19.18C186.6,-18.47 194.7,-17.75 202.66,-17.05"/>
<polygon fill="#63b8ff" stroke="#63b8ff" points="178.43,-15.68 168.78,-20.05 179.05,-22.65 178.43,-15.68"/>
</g>
</g>
</svg>
