<?xml version="1.0" encoding="UTF-8" standalone="no"?>
<!DOCTYPE svg PUBLIC "-//W3C//DTD SVG 1.1//EN"
 "http://www.w3.org/Graphics/SVG/1.1/DTD/svg11.dtd">
<!-- Generated by graphviz version 9.0.0 (20230911.1827)
 -->
<!-- Title: Graphical Class Hierarchy Pages: 1 -->
<svg width="381pt" height="64pt"
 viewBox="0.00 0.00 381.25 64.25" xmlns="http://www.w3.org/2000/svg" xmlns:xlink="http://www.w3.org/1999/xlink">
<g id="graph0" class="graph" transform="scale(1 1) rotate(0) translate(4 60.25)">
<title>Graphical Class Hierarchy</title>
<!-- Node0 -->
<g id="Node000000" class="node">
<title>Node0</title>
<g id="a_Node000000"><a xlink:title=" ">
<polygon fill="#e0e0e0" stroke="#999999" points="166,-37.25 0,-37.25 0,-18 166,-18 166,-37.25"/>
<text text-anchor="middle" x="83" y="-23.75" font-family="Helvetica,sans-Serif" font-size="10.00">SideIntegralVariablePostprocessor</text>
</a>
</g>
</g>
<!-- Node1 -->
<g id="Node000001" class="node">
<title>Node1</title>
<g id="a_Node000001"><a xlink:href="class_neutron_leakage.html" target="_top" xlink:title=" ">
<polygon fill="white" stroke="#666666" points="331.62,-56.25 243.62,-56.25 243.62,-37 331.62,-37 331.62,-56.25"/>
<text text-anchor="middle" x="287.62" y="-42.75" font-family="Helvetica,sans-Serif" font-size="10.00">NeutronLeakage</text>
</a>
</g>
</g>
<!-- Node0&#45;&gt;Node1 -->
<g id="edge100_Node000000_Node000001" class="edge">
<title>Node0&#45;&gt;Node1</title>
<g id="a_edge100_Node000000_Node000001"><a xlink:title=" ">
<path fill="none" stroke="#63b8ff" d="M177.59,-36.4C200.49,-38.55 223.92,-40.74 243.16,-42.55"/>
<polygon fill="#63b8ff" stroke="#63b8ff" points="178.21,-32.94 167.92,-35.49 177.55,-39.91 178.21,-32.94"/>
</a>
</g>
</g>
<!-- Node2 -->
<g id="Node000002" class="node">
<title>Node2</title>
<g id="a_Node000002"><a xlink:href="class_side_weighted_integral_postprocessor.html" target="_top" xlink:title=" ">
<polygon fill="white" stroke="#666666" points="373.25,-19.25 202,-19.25 202,0 373.25,0 373.25,-19.25"/>
<text text-anchor="middle" x="287.62" y="-5.75" font-family="Helvetica,sans-Serif" font-size="10.00">SideWeightedIntegralPostprocessor</text>
</a>
</g>
</g>
<!-- Node0&#45;&gt;Node2 -->
<g id="edge101_Node000000_Node000002" class="edge">
<title>Node0&#45;&gt;Node2</title>
<g id="a_edge101_Node000000_Node000002"><a xlink:title=" ">
<path fill="none" stroke="#63b8ff" d="M177.66,-19.3C185.66,-18.59 193.72,-17.88 201.65,-17.17"/>
<polygon fill="#63b8ff" stroke="#63b8ff" points="177.57,-15.8 167.92,-20.17 178.19,-22.77 177.57,-15.8"/>
</a>
</g>
</g>
</g>
</svg>
