<?xml version="1.0" encoding="UTF-8" standalone="no"?>
<!DOCTYPE svg PUBLIC "-//W3C//DTD SVG 1.1//EN"
 "http://www.w3.org/Graphics/SVG/1.1/DTD/svg11.dtd">
<!-- Generated by graphviz version 12.2.0 (20241103.1931)
 -->
<!-- Title: Graphical Class Hierarchy Pages: 1 -->
<svg width="369pt" height="64pt"
 viewBox="0.00 0.00 368.75 64.25" xmlns="http://www.w3.org/2000/svg" xmlns:xlink="http://www.w3.org/1999/xlink">
<g id="graph0" class="graph" transform="scale(1 1) rotate(0) translate(4 60.25)">
<title>Graphical Class Hierarchy</title>
<!-- Node0 -->
<g id="Node000000" class="node">
<title>Node0</title>
<g id="a_Node000000"><a xlink:title=" ">
<polygon fill="#e0e0e0" stroke="#999999" points="43.75,-37.25 0,-37.25 0,-18 43.75,-18 43.75,-37.25"/>
<text text-anchor="middle" x="21.88" y="-23.75" font-family="Helvetica,sans-Serif" font-size="10.00">Action</text>
</a>
</g>
</g>
<!-- Node1 -->
<g id="Node000001" class="node">
<title>Node1</title>
<g id="a_Node000001"><a xlink:href="class_variable_not_a_moose_object_action.html" target="_top" xlink:title=" ">
<polygon fill="white" stroke="#666666" points="239,-37.25 79.75,-37.25 79.75,-18 239,-18 239,-37.25"/>
<text text-anchor="middle" x="159.38" y="-23.75" font-family="Helvetica,sans-Serif" font-size="10.00">VariableNotAMooseObjectAction</text>
</a>
</g>
</g>
<!-- Node0&#45;&gt;Node1 -->
<g id="edge1_Node000000_Node000001" class="edge">
<title>Node0&#45;&gt;Node1</title>
<g id="a_edge1_Node000000_Node000001"><a xlink:title=" ">
<path fill="none" stroke="#63b8ff" d="M55.35,-27.62C62.79,-27.62 71,-27.62 79.46,-27.62"/>
<polygon fill="#63b8ff" stroke="#63b8ff" points="55.56,-24.13 45.56,-27.63 55.56,-31.13 55.56,-24.13"/>
</a>
</g>
</g>
<!-- Node2 -->
<g id="Node000002" class="node">
<title>Node2</title>
<g id="a_Node000002"><a xlink:href="class_nt_action.html" target="_top" xlink:title=" ">
<polygon fill="white" stroke="#666666" points="345,-56.25 290.75,-56.25 290.75,-37 345,-37 345,-56.25"/>
<text text-anchor="middle" x="317.88" y="-42.75" font-family="Helvetica,sans-Serif" font-size="10.00">NtAction</text>
</a>
</g>
</g>
<!-- Node1&#45;&gt;Node2 -->
<g id="edge2_Node000001_Node000002" class="edge">
<title>Node1&#45;&gt;Node2</title>
<g id="a_edge2_Node000001_Node000002"><a xlink:title=" ">
<path fill="none" stroke="#63b8ff" d="M250.36,-38.55C265.01,-40.33 279.1,-42.04 290.51,-43.42"/>
<polygon fill="#63b8ff" stroke="#63b8ff" points="250.93,-35.09 240.59,-37.36 250.09,-42.04 250.93,-35.09"/>
</a>
</g>
</g>
<!-- Node3 -->
<g id="Node000003" class="node">
<title>Node3</title>
<g id="a_Node000003"><a xlink:href="class_precursor_action.html" target="_top" xlink:title=" ">
<polygon fill="white" stroke="#666666" points="360.75,-19.25 275,-19.25 275,0 360.75,0 360.75,-19.25"/>
<text text-anchor="middle" x="317.88" y="-5.75" font-family="Helvetica,sans-Serif" font-size="10.00">PrecursorAction</text>
</a>
</g>
</g>
<!-- Node1&#45;&gt;Node3 -->
<g id="edge3_Node000001_Node000003" class="edge">
<title>Node1&#45;&gt;Node3</title>
<g id="a_edge3_Node000001_Node000003"><a xlink:title=" ">
<path fill="none" stroke="#63b8ff" d="M250.32,-17.28C258.8,-16.3 267.1,-15.35 274.81,-14.46"/>
<polygon fill="#63b8ff" stroke="#63b8ff" points="250.12,-13.78 240.59,-18.4 250.92,-20.73 250.12,-13.78"/>
</a>
</g>
</g>
</g>
</svg>
