<?xml version="1.0" encoding="UTF-8" standalone="no"?>
<!DOCTYPE svg PUBLIC "-//W3C//DTD SVG 1.1//EN"
 "http://www.w3.org/Graphics/SVG/1.1/DTD/svg11.dtd">
<!-- Generated by graphviz version 12.2.0 (20241103.1931)
 -->
<!-- Title: Graphical Class Hierarchy Pages: 1 -->
<svg width="381pt" height="113pt"
 viewBox="0.00 0.00 381.25 113.25" xmlns="http://www.w3.org/2000/svg" xmlns:xlink="http://www.w3.org/1999/xlink">
<g id="graph0" class="graph" transform="scale(1 1) rotate(0) translate(4 109.25)">
<title>Graphical Class Hierarchy</title>
<!-- Node0 -->
<g id="Node000000" class="node">
<title>Node0</title>
<g id="a_Node000000"><a xlink:title=" ">
<polygon fill="#e0e0e0" stroke="#999999" points="166,-62.25 0,-62.25 0,-43 166,-43 166,-62.25"/>
<text text-anchor="middle" x="83" y="-48.75" font-family="Helvetica,sans-Serif" font-size="10.00">SideIntegralVariablePostprocessor</text>
</a>
</g>
</g>
<!-- Node1 -->
<g id="Node000001" class="node">
<title>Node1</title>
<g id="a_Node000001"><a xlink:href="class_neutron_leakage.html" target="_top" xlink:title=" ">
<polygon fill="white" stroke="#666666" points="331.62,-105.25 243.62,-105.25 243.62,-86 331.62,-86 331.62,-105.25"/>
<text text-anchor="middle" x="287.62" y="-91.75" font-family="Helvetica,sans-Serif" font-size="10.00">NeutronLeakage</text>
</a>
</g>
</g>
<!-- Node0&#45;&gt;Node1 -->
<g id="edge126_Node000000_Node000001" class="edge">
<title>Node0&#45;&gt;Node1</title>
<g id="a_edge126_Node000000_Node000001"><a xlink:title=" ">
<path fill="none" stroke="#63b8ff" d="M142.55,-65.05C174.68,-71.87 213.84,-80.18 243.22,-86.41"/>
<polygon fill="#63b8ff" stroke="#63b8ff" points="143.5,-61.67 132.99,-63.02 142.04,-68.52 143.5,-61.67"/>
</a>
</g>
</g>
<!-- Node2 -->
<g id="Node000002" class="node">
<title>Node2</title>
<g id="a_Node000002"><a xlink:href="class_side_function_weighted_integral_postprocessor.html" target="_top" xlink:title=" ">
<polygon fill="white" stroke="#666666" points="360.5,-67.88 214.75,-67.88 214.75,-37.38 360.5,-37.38 360.5,-67.88"/>
<text text-anchor="start" x="222.75" y="-54.38" font-family="Helvetica,sans-Serif" font-size="10.00">SideFunctionWeightedIntegral</text>
<text text-anchor="middle" x="287.62" y="-43.12" font-family="Helvetica,sans-Serif" font-size="10.00">Postprocessor</text>
</a>
</g>
</g>
<!-- Node0&#45;&gt;Node2 -->
<g id="edge127_Node000000_Node000002" class="edge">
<title>Node0&#45;&gt;Node2</title>
<g id="a_edge127_Node000000_Node000002"><a xlink:title=" ">
<path fill="none" stroke="#63b8ff" d="M177.67,-52.62C190,-52.62 202.47,-52.62 214.37,-52.62"/>
<polygon fill="#63b8ff" stroke="#63b8ff" points="177.93,-49.13 167.93,-52.63 177.93,-56.13 177.93,-49.13"/>
</a>
</g>
</g>
<!-- Node3 -->
<g id="Node000003" class="node">
<title>Node3</title>
<g id="a_Node000003"><a xlink:href="class_side_weighted_integral_postprocessor.html" target="_top" xlink:title=" ">
<polygon fill="white" stroke="#666666" points="373.25,-19.25 202,-19.25 202,0 373.25,0 373.25,-19.25"/>
<text text-anchor="middle" x="287.62" y="-5.75" font-family="Helvetica,sans-Serif" font-size="10.00">SideWeightedIntegralPostprocessor</text>
</a>
</g>
</g>
<!-- Node0&#45;&gt;Node3 -->
<g id="edge128_Node000000_Node000003" class="edge">
<title>Node0&#45;&gt;Node3</title>
<g id="a_edge128_Node000000_Node000003"><a xlink:title=" ">
<path fill="none" stroke="#63b8ff" d="M142.48,-40.21C173.13,-33.71 210.2,-25.84 239.07,-19.72"/>
<polygon fill="#63b8ff" stroke="#63b8ff" points="142.04,-36.73 132.99,-42.23 143.5,-43.58 142.04,-36.73"/>
</a>
</g>
</g>
</g>
</svg>
