<?xml version="1.0" encoding="UTF-8" standalone="no"?>
<!DOCTYPE svg PUBLIC "-//W3C//DTD SVG 1.1//EN"
 "http://www.w3.org/Graphics/SVG/1.1/DTD/svg11.dtd">
<!-- Generated by graphviz version 12.2.0 (20241103.1931)
 -->
<!-- Title: Graphical Class Hierarchy Pages: 1 -->
<svg width="226pt" height="101pt"
 viewBox="0.00 0.00 226.00 101.25" xmlns="http://www.w3.org/2000/svg" xmlns:xlink="http://www.w3.org/1999/xlink">
<g id="graph0" class="graph" transform="scale(1 1) rotate(0) translate(4 97.25)">
<title>Graphical Class Hierarchy</title>
<!-- Node0 -->
<g id="Node000000" class="node">
<title>Node0</title>
<g id="a_Node000000"><a xlink:title=" ">
<polygon fill="#e0e0e0" stroke="#999999" points="95.5,-56.25 0,-56.25 0,-37 95.5,-37 95.5,-56.25"/>
<text text-anchor="middle" x="47.75" y="-42.75" font-family="Helvetica,sans-Serif" font-size="10.00">ArrayIntegratedBC</text>
</a>
</g>
</g>
<!-- Node1 -->
<g id="Node000001" class="node">
<title>Node1</title>
<g id="a_Node000001"><a xlink:href="class_s_n_diffusion_b_c.html" target="_top" xlink:title=" ">
<polygon fill="white" stroke="#666666" points="215.38,-93.25 134.12,-93.25 134.12,-74 215.38,-74 215.38,-93.25"/>
<text text-anchor="middle" x="174.75" y="-79.75" font-family="Helvetica,sans-Serif" font-size="10.00">SNDiffusionBC</text>
</a>
</g>
</g>
<!-- Node0&#45;&gt;Node1 -->
<g id="edge95_Node000000_Node000001" class="edge">
<title>Node0&#45;&gt;Node1</title>
<g id="a_edge95_Node000000_Node000001"><a xlink:title=" ">
<path fill="none" stroke="#63b8ff" d="M93.62,-59.91C108.78,-64.39 125.45,-69.33 139.63,-73.53"/>
<polygon fill="#63b8ff" stroke="#63b8ff" points="94.94,-56.65 84.36,-57.17 92.95,-63.36 94.94,-56.65"/>
</a>
</g>
</g>
<!-- Node2 -->
<g id="Node000002" class="node">
<title>Node2</title>
<g id="a_Node000002"><a xlink:href="class_s_n_reflecting_b_c.html" target="_top" xlink:title=" ">
<polygon fill="white" stroke="#666666" points="218,-56.25 131.5,-56.25 131.5,-37 218,-37 218,-56.25"/>
<text text-anchor="middle" x="174.75" y="-42.75" font-family="Helvetica,sans-Serif" font-size="10.00">SNReflectingBC</text>
</a>
</g>
</g>
<!-- Node0&#45;&gt;Node2 -->
<g id="edge96_Node000000_Node000002" class="edge">
<title>Node0&#45;&gt;Node2</title>
<g id="a_edge96_Node000000_Node000002"><a xlink:title=" ">
<path fill="none" stroke="#63b8ff" d="M107.01,-46.62C115.14,-46.62 123.36,-46.62 131.12,-46.62"/>
<polygon fill="#63b8ff" stroke="#63b8ff" points="107.16,-43.13 97.16,-46.63 107.16,-50.13 107.16,-43.13"/>
</a>
</g>
</g>
<!-- Node3 -->
<g id="Node000003" class="node">
<title>Node3</title>
<g id="a_Node000003"><a xlink:href="class_s_n_vacuum_b_c.html" target="_top" xlink:title=" ">
<polygon fill="white" stroke="#666666" points="214.62,-19.25 134.88,-19.25 134.88,0 214.62,0 214.62,-19.25"/>
<text text-anchor="middle" x="174.75" y="-5.75" font-family="Helvetica,sans-Serif" font-size="10.00">SNVacuumBC</text>
</a>
</g>
</g>
<!-- Node0&#45;&gt;Node3 -->
<g id="edge97_Node000000_Node000003" class="edge">
<title>Node0&#45;&gt;Node3</title>
<g id="a_edge97_Node000000_Node000003"><a xlink:title=" ">
<path fill="none" stroke="#63b8ff" d="M93.62,-33.34C108.78,-28.86 125.45,-23.92 139.63,-19.72"/>
<polygon fill="#63b8ff" stroke="#63b8ff" points="92.95,-29.89 84.36,-36.08 94.94,-36.6 92.95,-29.89"/>
</a>
</g>
</g>
</g>
</svg>
