<?xml version="1.0" encoding="UTF-8" standalone="no"?>
<!DOCTYPE svg PUBLIC "-//W3C//DTD SVG 1.1//EN"
 "http://www.w3.org/Graphics/SVG/1.1/DTD/svg11.dtd">
<!-- Generated by graphviz version 7.0.5 (20221223.1930)
 -->
<!-- Title: Graphical Class Hierarchy Pages: 1 -->
<svg width="707pt" height="1396pt"
 viewBox="0.00 0.00 707.00 1396.00" xmlns="http://www.w3.org/2000/svg" xmlns:xlink="http://www.w3.org/1999/xlink">
<g id="graph0" class="graph" transform="scale(1 1) rotate(0) translate(4 1392)">
<title>Graphical Class Hierarchy</title>
<!-- Node0 -->
<g id="node1" class="node">
<title>Node0</title>
<g id="a_node1"><a xlink:title=" ">
<polygon fill="#e0e0e0" stroke="#999999" points="107.5,-1203 39.5,-1203 39.5,-1184 107.5,-1184 107.5,-1203"/>
<text text-anchor="middle" x="73.5" y="-1191" font-family="Helvetica,sans-Serif" font-size="10.00">EigenKernel</text>
</a>
</g>
</g>
<!-- Node1 -->
<g id="node2" class="node">
<title>Node1</title>
<g id="a_node2"><a xlink:href="class_coupled_fission_eigen_kernel.html" target="_top" xlink:title=" ">
<polygon fill="white" stroke="#666666" points="334,-907 199,-907 199,-888 334,-888 334,-907"/>
<text text-anchor="middle" x="266.5" y="-895" font-family="Helvetica,sans-Serif" font-size="10.00">CoupledFissionEigenKernel</text>
</a>
</g>
</g>
<!-- Node0&#45;&gt;Node1 -->
<g id="edge1" class="edge">
<title>Node0&#45;&gt;Node1</title>
<path fill="none" stroke="#63b8ff" d="M81.84,-1173.25C104.53,-1110.91 172.6,-925.47 183,-916.5 187.67,-912.47 193.03,-909.25 198.73,-906.68"/>
<polygon fill="#63b8ff" stroke="#63b8ff" points="78.69,-1171.68 78.57,-1182.27 85.27,-1174.07 78.69,-1171.68"/>
</g>
<!-- Node35 -->
<g id="node3" class="node">
<title>Node35</title>
<g id="a_node3"><a xlink:href="class_delayed_neutron_eigen_source.html" target="_top" xlink:title=" ">
<polygon fill="white" stroke="#666666" points="336.5,-1203 196.5,-1203 196.5,-1184 336.5,-1184 336.5,-1203"/>
<text text-anchor="middle" x="266.5" y="-1191" font-family="Helvetica,sans-Serif" font-size="10.00">DelayedNeutronEigenSource</text>
</a>
</g>
</g>
<!-- Node0&#45;&gt;Node35 -->
<g id="edge2" class="edge">
<title>Node0&#45;&gt;Node35</title>
<path fill="none" stroke="#63b8ff" d="M119.21,-1193.5C142.13,-1193.5 170.56,-1193.5 196.24,-1193.5"/>
<polygon fill="#63b8ff" stroke="#63b8ff" points="119.28,-1190 109.28,-1193.5 119.28,-1197 119.28,-1190"/>
</g>
<!-- Node47 -->
<g id="node4" class="node">
<title>Node47</title>
<g id="a_node4"><a xlink:href="class_self_fission_eigen_kernel.html" target="_top" xlink:title=" ">
<polygon fill="white" stroke="#666666" points="325,-1277 208,-1277 208,-1258 325,-1258 325,-1277"/>
<text text-anchor="middle" x="266.5" y="-1265" font-family="Helvetica,sans-Serif" font-size="10.00">SelfFissionEigenKernel</text>
</a>
</g>
</g>
<!-- Node0&#45;&gt;Node47 -->
<g id="edge3" class="edge">
<title>Node0&#45;&gt;Node47</title>
<path fill="none" stroke="#63b8ff" d="M100.09,-1209.15C121.54,-1221.66 153.35,-1238.82 183,-1249.5 191.69,-1252.63 201.1,-1255.31 210.35,-1257.57"/>
<polygon fill="#63b8ff" stroke="#63b8ff" points="102.13,-1206.29 91.74,-1204.2 98.56,-1212.31 102.13,-1206.29"/>
</g>
<!-- Node39 -->
<g id="node5" class="node">
<title>Node39</title>
<g id="a_node5"><a xlink:title=" ">
<polygon fill="#e0e0e0" stroke="#999999" points="147,-1332 0,-1332 0,-1313 147,-1313 147,-1332"/>
<text text-anchor="middle" x="73.5" y="-1320" font-family="Helvetica,sans-Serif" font-size="10.00">ElementIntegralPostprocessor</text>
</a>
</g>
</g>
<!-- Node40 -->
<g id="node6" class="node">
<title>Node40</title>
<g id="a_node6"><a xlink:href="class_elm_integ_tot_fiss_nts_postprocessor.html" target="_top" xlink:title=" ">
<polygon fill="white" stroke="#666666" points="350,-1314 183,-1314 183,-1295 350,-1295 350,-1314"/>
<text text-anchor="middle" x="266.5" y="-1302" font-family="Helvetica,sans-Serif" font-size="10.00">ElmIntegTotFissNtsPostprocessor</text>
</a>
</g>
</g>
<!-- Node39&#45;&gt;Node40 -->
<g id="edge4" class="edge">
<title>Node39&#45;&gt;Node40</title>
<path fill="none" stroke="#63b8ff" d="M158.52,-1314.58C166.56,-1313.82 174.7,-1313.06 182.73,-1312.3"/>
<polygon fill="#63b8ff" stroke="#63b8ff" points="158.39,-1311.08 148.76,-1315.5 159.04,-1318.05 158.39,-1311.08"/>
</g>
<!-- Node36 -->
<g id="node7" class="node">
<title>Node36</title>
<g id="a_node7"><a xlink:href="class_elm_integ_tot_fiss_postprocessor.html" target="_top" xlink:title=" ">
<polygon fill="white" stroke="#666666" points="342,-1240 191,-1240 191,-1221 342,-1221 342,-1240"/>
<text text-anchor="middle" x="266.5" y="-1228" font-family="Helvetica,sans-Serif" font-size="10.00">ElmIntegTotFissPostprocessor</text>
</a>
</g>
</g>
<!-- Node39&#45;&gt;Node36 -->
<g id="edge5" class="edge">
<title>Node39&#45;&gt;Node36</title>
<path fill="none" stroke="#63b8ff" d="M94.89,-1305.41C115.75,-1288.77 149.74,-1263.93 183,-1249.5 191.36,-1245.87 200.51,-1242.89 209.58,-1240.45"/>
<polygon fill="#63b8ff" stroke="#63b8ff" points="92.74,-1302.64 87.19,-1311.67 97.16,-1308.07 92.74,-1302.64"/>
</g>
<!-- Node41 -->
<g id="node10" class="node">
<title>Node41</title>
<g id="a_node10"><a xlink:href="class_integral_new_variable_postprocessor.html" target="_top" xlink:title=" ">
<polygon fill="white" stroke="#666666" points="350,-1388 183,-1388 183,-1369 350,-1369 350,-1388"/>
<text text-anchor="middle" x="266.5" y="-1376" font-family="Helvetica,sans-Serif" font-size="10.00">IntegralNewVariablePostprocessor</text>
</a>
</g>
</g>
<!-- Node39&#45;&gt;Node41 -->
<g id="edge8" class="edge">
<title>Node39&#45;&gt;Node41</title>
<path fill="none" stroke="#63b8ff" d="M110.73,-1336.44C131.65,-1344.17 158.58,-1353.59 183,-1360.5 193.3,-1363.41 204.43,-1366.13 215.08,-1368.52"/>
<polygon fill="#63b8ff" stroke="#63b8ff" points="112.1,-1333.21 101.5,-1332.99 109.64,-1339.77 112.1,-1333.21"/>
</g>
<!-- Node43 -->
<g id="node11" class="node">
<title>Node43</title>
<g id="a_node11"><a xlink:href="class_integral_old_variable_postprocessor.html" target="_top" xlink:title=" ">
<polygon fill="white" stroke="#666666" points="347.5,-1351 185.5,-1351 185.5,-1332 347.5,-1332 347.5,-1351"/>
<text text-anchor="middle" x="266.5" y="-1339" font-family="Helvetica,sans-Serif" font-size="10.00">IntegralOldVariablePostprocessor</text>
</a>
</g>
</g>
<!-- Node39&#45;&gt;Node43 -->
<g id="edge9" class="edge">
<title>Node39&#45;&gt;Node43</title>
<path fill="none" stroke="#63b8ff" d="M158.45,-1330.85C167.37,-1331.74 176.43,-1332.64 185.3,-1333.52"/>
<polygon fill="#63b8ff" stroke="#63b8ff" points="159.06,-1327.39 148.76,-1329.89 158.36,-1334.36 159.06,-1327.39"/>
</g>
<!-- Node37 -->
<g id="node8" class="node">
<title>Node37</title>
<g id="a_node8"><a xlink:href="class_elm_integ_tot_fiss_heat_postprocessor.html" target="_top" xlink:title=" ">
<polygon fill="white" stroke="#666666" points="558,-1240 386,-1240 386,-1221 558,-1221 558,-1240"/>
<text text-anchor="middle" x="472" y="-1228" font-family="Helvetica,sans-Serif" font-size="10.00">ElmIntegTotFissHeatPostprocessor</text>
</a>
</g>
</g>
<!-- Node36&#45;&gt;Node37 -->
<g id="edge6" class="edge">
<title>Node36&#45;&gt;Node37</title>
<path fill="none" stroke="#63b8ff" d="M353.74,-1230.5C364.29,-1230.5 375.06,-1230.5 385.59,-1230.5"/>
<polygon fill="#63b8ff" stroke="#63b8ff" points="353.92,-1227 343.92,-1230.5 353.92,-1234 353.92,-1227"/>
</g>
<!-- Node38 -->
<g id="node9" class="node">
<title>Node38</title>
<g id="a_node9"><a xlink:href="class_average_fission_heat.html" target="_top" xlink:title=" ">
<polygon fill="white" stroke="#666666" points="699,-1240 594,-1240 594,-1221 699,-1221 699,-1240"/>
<text text-anchor="middle" x="646.5" y="-1228" font-family="Helvetica,sans-Serif" font-size="10.00">AverageFissionHeat</text>
</a>
</g>
</g>
<!-- Node37&#45;&gt;Node38 -->
<g id="edge7" class="edge">
<title>Node37&#45;&gt;Node38</title>
<path fill="none" stroke="#63b8ff" d="M569.75,-1230.5C577.96,-1230.5 586.05,-1230.5 593.71,-1230.5"/>
<polygon fill="#63b8ff" stroke="#63b8ff" points="570.01,-1227 560.01,-1230.5 570.01,-1234 570.01,-1227"/>
</g>
<!-- Node24 -->
<g id="node12" class="node">
<title>Node24</title>
<g id="a_node12"><a xlink:title=" ">
<polygon fill="#e0e0e0" stroke="#999999" points="110.5,-981 36.5,-981 36.5,-962 110.5,-962 110.5,-981"/>
<text text-anchor="middle" x="73.5" y="-969" font-family="Helvetica,sans-Serif" font-size="10.00">IntegratedBC</text>
</a>
</g>
</g>
<!-- Node25 -->
<g id="node13" class="node">
<title>Node25</title>
<g id="a_node13"><a xlink:href="class_conservative_advection_no_b_c_b_c.html" target="_top" xlink:title=" ">
<polygon fill="white" stroke="#666666" points="345,-1055 188,-1055 188,-1036 345,-1036 345,-1055"/>
<text text-anchor="middle" x="266.5" y="-1043" font-family="Helvetica,sans-Serif" font-size="10.00">ConservativeAdvectionNoBCBC</text>
</a>
</g>
</g>
<!-- Node24&#45;&gt;Node25 -->
<g id="edge10" class="edge">
<title>Node24&#45;&gt;Node25</title>
<path fill="none" stroke="#63b8ff" d="M100.09,-987.15C121.54,-999.66 153.35,-1016.82 183,-1027.5 191.69,-1030.63 201.1,-1033.31 210.35,-1035.57"/>
<polygon fill="#63b8ff" stroke="#63b8ff" points="102.13,-984.29 91.74,-982.2 98.56,-990.31 102.13,-984.29"/>
</g>
<!-- Node26 -->
<g id="node14" class="node">
<title>Node26</title>
<g id="a_node14"><a xlink:href="class_coupled_outflow_b_c.html" target="_top" xlink:title=" ">
<polygon fill="white" stroke="#666666" points="315.5,-981 217.5,-981 217.5,-962 315.5,-962 315.5,-981"/>
<text text-anchor="middle" x="266.5" y="-969" font-family="Helvetica,sans-Serif" font-size="10.00">CoupledOutflowBC</text>
</a>
</g>
</g>
<!-- Node24&#45;&gt;Node26 -->
<g id="edge11" class="edge">
<title>Node24&#45;&gt;Node26</title>
<path fill="none" stroke="#63b8ff" d="M122.38,-971.5C151.39,-971.5 188.28,-971.5 217.34,-971.5"/>
<polygon fill="#63b8ff" stroke="#63b8ff" points="122.39,-968 112.39,-971.5 122.39,-975 122.39,-968"/>
</g>
<!-- Node23 -->
<g id="node15" class="node">
<title>Node23</title>
<g id="a_node15"><a xlink:href="class_coupled_scalar_advection_no_b_c_b_c.html" target="_top" xlink:title=" ">
<polygon fill="white" stroke="#666666" points="348,-796 185,-796 185,-777 348,-777 348,-796"/>
<text text-anchor="middle" x="266.5" y="-784" font-family="Helvetica,sans-Serif" font-size="10.00">CoupledScalarAdvectionNoBCBC</text>
</a>
</g>
</g>
<!-- Node24&#45;&gt;Node23 -->
<g id="edge12" class="edge">
<title>Node24&#45;&gt;Node23</title>
<path fill="none" stroke="#63b8ff" d="M81.81,-951.31C95.72,-915.91 129.47,-842.84 183,-805.5 188.3,-801.8 194.22,-798.81 200.39,-796.4"/>
<polygon fill="#63b8ff" stroke="#63b8ff" points="78.66,-949.76 78.39,-960.35 85.2,-952.24 78.66,-949.76"/>
</g>
<!-- Node27 -->
<g id="node16" class="node">
<title>Node27</title>
<g id="a_node16"><a xlink:href="class_diffusion_no_b_c_b_c.html" target="_top" xlink:title=" ">
<polygon fill="white" stroke="#666666" points="313.5,-944 219.5,-944 219.5,-925 313.5,-925 313.5,-944"/>
<text text-anchor="middle" x="266.5" y="-932" font-family="Helvetica,sans-Serif" font-size="10.00">DiffusionNoBCBC</text>
</a>
</g>
</g>
<!-- Node24&#45;&gt;Node27 -->
<g id="edge13" class="edge">
<title>Node24&#45;&gt;Node27</title>
<path fill="none" stroke="#63b8ff" d="M121.8,-962.34C151.49,-956.59 189.6,-949.2 219.11,-943.49"/>
<polygon fill="#63b8ff" stroke="#63b8ff" points="121.51,-958.83 112.36,-964.17 122.84,-965.7 121.51,-958.83"/>
</g>
<!-- Node28 -->
<g id="node17" class="node">
<title>Node28</title>
<g id="a_node17"><a xlink:href="class_i_n_s_outflow_b_c.html" target="_top" xlink:title=" ">
<polygon fill="white" stroke="#666666" points="306.5,-1092 226.5,-1092 226.5,-1073 306.5,-1073 306.5,-1092"/>
<text text-anchor="middle" x="266.5" y="-1080" font-family="Helvetica,sans-Serif" font-size="10.00">INSOutflowBC</text>
</a>
</g>
</g>
<!-- Node24&#45;&gt;Node28 -->
<g id="edge14" class="edge">
<title>Node24&#45;&gt;Node28</title>
<path fill="none" stroke="#63b8ff" d="M90.57,-989.95C110.2,-1011.28 145.46,-1045.82 183,-1064.5 196.39,-1071.16 212.2,-1075.37 226.39,-1078.03"/>
<polygon fill="#63b8ff" stroke="#63b8ff" points="93.23,-987.67 83.94,-982.58 88.02,-992.35 93.23,-987.67"/>
</g>
<!-- Node29 -->
<g id="node18" class="node">
<title>Node29</title>
<g id="a_node18"><a xlink:href="class_i_n_s_symmetry_axis_b_c.html" target="_top" xlink:title=" ">
<polygon fill="white" stroke="#666666" points="321.5,-1166 211.5,-1166 211.5,-1147 321.5,-1147 321.5,-1166"/>
<text text-anchor="middle" x="266.5" y="-1154" font-family="Helvetica,sans-Serif" font-size="10.00">INSSymmetryAxisBC</text>
</a>
</g>
</g>
<!-- Node24&#45;&gt;Node29 -->
<g id="edge15" class="edge">
<title>Node24&#45;&gt;Node29</title>
<path fill="none" stroke="#63b8ff" d="M81.73,-991.87C95.52,-1027.59 129.08,-1101.24 183,-1138.5 191.32,-1144.25 201.15,-1148.21 211.07,-1150.92"/>
<polygon fill="#63b8ff" stroke="#63b8ff" points="85.11,-990.9 78.34,-982.74 78.54,-993.33 85.11,-990.9"/>
</g>
<!-- Node30 -->
<g id="node19" class="node">
<title>Node30</title>
<g id="a_node19"><a xlink:href="class_lin_log_penalty_dirichlet_b_c.html" target="_top" xlink:title=" ">
<polygon fill="white" stroke="#666666" points="330.5,-759 202.5,-759 202.5,-740 330.5,-740 330.5,-759"/>
<text text-anchor="middle" x="266.5" y="-747" font-family="Helvetica,sans-Serif" font-size="10.00">LinLogPenaltyDirichletBC</text>
</a>
</g>
</g>
<!-- Node24&#45;&gt;Node30 -->
<g id="edge16" class="edge">
<title>Node24&#45;&gt;Node30</title>
<path fill="none" stroke="#63b8ff" d="M79.46,-950.65C90.47,-909.1 121.03,-815.92 183,-768.5 188.72,-764.12 195.27,-760.73 202.13,-758.09"/>
<polygon fill="#63b8ff" stroke="#63b8ff" points="76.13,-949.54 77.08,-960.1 82.92,-951.26 76.13,-949.54"/>
</g>
<!-- Node31 -->
<g id="node20" class="node">
<title>Node31</title>
<g id="a_node20"><a xlink:href="class_mat_diffusion_flux_b_c.html" target="_top" xlink:title=" ">
<polygon fill="white" stroke="#666666" points="317.5,-1018 215.5,-1018 215.5,-999 317.5,-999 317.5,-1018"/>
<text text-anchor="middle" x="266.5" y="-1006" font-family="Helvetica,sans-Serif" font-size="10.00">MatDiffusionFluxBC</text>
</a>
</g>
</g>
<!-- Node24&#45;&gt;Node31 -->
<g id="edge17" class="edge">
<title>Node24&#45;&gt;Node31</title>
<path fill="none" stroke="#63b8ff" d="M122.12,-980.72C150.46,-986.21 186.39,-993.18 215.19,-998.75"/>
<polygon fill="#63b8ff" stroke="#63b8ff" points="122.84,-977.3 112.36,-978.83 121.51,-984.17 122.84,-977.3"/>
</g>
<!-- Node32 -->
<g id="node21" class="node">
<title>Node32</title>
<g id="a_node21"><a xlink:href="class_postprocessor_coupled_inflow_b_c.html" target="_top" xlink:title=" ">
<polygon fill="white" stroke="#666666" points="343.5,-1129 189.5,-1129 189.5,-1110 343.5,-1110 343.5,-1129"/>
<text text-anchor="middle" x="266.5" y="-1117" font-family="Helvetica,sans-Serif" font-size="10.00">PostprocessorCoupledInflowBC</text>
</a>
</g>
</g>
<!-- Node24&#45;&gt;Node32 -->
<g id="edge18" class="edge">
<title>Node24&#45;&gt;Node32</title>
<path fill="none" stroke="#63b8ff" d="M85.05,-990.96C101.8,-1019.89 137.31,-1073.79 183,-1101.5 188.39,-1104.77 194.3,-1107.45 200.4,-1109.64"/>
<polygon fill="#63b8ff" stroke="#63b8ff" points="88.26,-989.53 80.31,-982.52 82.16,-992.95 88.26,-989.53"/>
</g>
<!-- Node33 -->
<g id="node22" class="node">
<title>Node33</title>
<g id="a_node22"><a xlink:href="class_scalar_advection_art_diff_no_b_c_b_c.html" target="_top" xlink:title=" ">
<polygon fill="white" stroke="#666666" points="344,-870 189,-870 189,-851 344,-851 344,-870"/>
<text text-anchor="middle" x="266.5" y="-858" font-family="Helvetica,sans-Serif" font-size="10.00">ScalarAdvectionArtDiffNoBCBC</text>
</a>
</g>
</g>
<!-- Node24&#45;&gt;Node33 -->
<g id="edge19" class="edge">
<title>Node24&#45;&gt;Node33</title>
<path fill="none" stroke="#63b8ff" d="M90.65,-953.33C110.36,-932.31 145.69,-898.21 183,-879.5 190.36,-875.81 198.44,-872.83 206.59,-870.41"/>
<polygon fill="#63b8ff" stroke="#63b8ff" points="88.17,-950.85 84,-960.59 93.33,-955.58 88.17,-950.85"/>
</g>
<!-- Node34 -->
<g id="node23" class="node">
<title>Node34</title>
<g id="a_node23"><a xlink:href="class_vacuum_conc_b_c.html" target="_top" xlink:title=" ">
<polygon fill="white" stroke="#666666" points="311,-833 222,-833 222,-814 311,-814 311,-833"/>
<text text-anchor="middle" x="266.5" y="-821" font-family="Helvetica,sans-Serif" font-size="10.00">VacuumConcBC</text>
</a>
</g>
</g>
<!-- Node24&#45;&gt;Node34 -->
<g id="edge20" class="edge">
<title>Node24&#45;&gt;Node34</title>
<path fill="none" stroke="#63b8ff" d="M85.38,-951.84C102.33,-923.12 137.84,-870.12 183,-842.5 194.54,-835.44 208.43,-831.01 221.51,-828.22"/>
<polygon fill="#63b8ff" stroke="#63b8ff" points="82.5,-949.82 80.56,-960.24 88.57,-953.3 82.5,-949.82"/>
</g>
<!-- Node4 -->
<g id="node24" class="node">
<title>Node4</title>
<g id="a_node24"><a xlink:title=" ">
<polygon fill="#e0e0e0" stroke="#999999" points="95.5,-389 51.5,-389 51.5,-370 95.5,-370 95.5,-389"/>
<text text-anchor="middle" x="73.5" y="-377" font-family="Helvetica,sans-Serif" font-size="10.00">Kernel</text>
</a>
</g>
</g>
<!-- Node5 -->
<g id="node25" class="node">
<title>Node5</title>
<g id="a_node25"><a xlink:href="class_convective_heat_exchanger.html" target="_top" xlink:title=" ">
<polygon fill="white" stroke="#666666" points="332,-130 201,-130 201,-111 332,-111 332,-130"/>
<text text-anchor="middle" x="266.5" y="-118" font-family="Helvetica,sans-Serif" font-size="10.00">ConvectiveHeatExchanger</text>
</a>
</g>
</g>
<!-- Node4&#45;&gt;Node5 -->
<g id="edge21" class="edge">
<title>Node4&#45;&gt;Node5</title>
<path fill="none" stroke="#63b8ff" d="M77.55,-358.35C85.55,-311.05 111.66,-196.34 183,-138.5 188.24,-134.25 194.26,-130.95 200.61,-128.39"/>
<polygon fill="#63b8ff" stroke="#63b8ff" points="74.12,-357.65 76.02,-368.07 81.04,-358.74 74.12,-357.65"/>
</g>
<!-- Node3 -->
<g id="node26" class="node">
<title>Node3</title>
<g id="a_node26"><a xlink:href="class_coupled_fission_kernel.html" target="_top" xlink:title=" ">
<polygon fill="white" stroke="#666666" points="322,-574 211,-574 211,-555 322,-555 322,-574"/>
<text text-anchor="middle" x="266.5" y="-562" font-family="Helvetica,sans-Serif" font-size="10.00">CoupledFissionKernel</text>
</a>
</g>
</g>
<!-- Node4&#45;&gt;Node3 -->
<g id="edge22" class="edge">
<title>Node4&#45;&gt;Node3</title>
<path fill="none" stroke="#63b8ff" d="M81.73,-399.87C95.52,-435.59 129.08,-509.24 183,-546.5 191.2,-552.17 200.87,-556.09 210.64,-558.81"/>
<polygon fill="#63b8ff" stroke="#63b8ff" points="85.11,-398.9 78.34,-390.74 78.54,-401.33 85.11,-398.9"/>
</g>
<!-- Node6 -->
<g id="node27" class="node">
<title>Node6</title>
<g id="a_node27"><a xlink:href="class_coupled_scalar_advection.html" target="_top" xlink:title=" ">
<polygon fill="white" stroke="#666666" points="328,-537 205,-537 205,-518 328,-518 328,-537"/>
<text text-anchor="middle" x="266.5" y="-525" font-family="Helvetica,sans-Serif" font-size="10.00">CoupledScalarAdvection</text>
</a>
</g>
</g>
<!-- Node4&#45;&gt;Node6 -->
<g id="edge23" class="edge">
<title>Node4&#45;&gt;Node6</title>
<path fill="none" stroke="#63b8ff" d="M85.05,-398.96C101.8,-427.89 137.31,-481.79 183,-509.5 189.64,-513.53 197.07,-516.66 204.68,-519.09"/>
<polygon fill="#63b8ff" stroke="#63b8ff" points="88.26,-397.53 80.31,-390.52 82.16,-400.95 88.26,-397.53"/>
</g>
<!-- Node7 -->
<g id="node28" class="node">
<title>Node7</title>
<g id="a_node28"><a xlink:href="class_decay_heat_source.html" target="_top" xlink:title=" ">
<polygon fill="white" stroke="#666666" points="314,-500 219,-500 219,-481 314,-481 314,-500"/>
<text text-anchor="middle" x="266.5" y="-488" font-family="Helvetica,sans-Serif" font-size="10.00">DecayHeatSource</text>
</a>
</g>
</g>
<!-- Node4&#45;&gt;Node7 -->
<g id="edge24" class="edge">
<title>Node4&#45;&gt;Node7</title>
<path fill="none" stroke="#63b8ff" d="M90.57,-397.95C110.2,-419.28 145.46,-453.82 183,-472.5 194.02,-477.99 206.7,-481.81 218.75,-484.47"/>
<polygon fill="#63b8ff" stroke="#63b8ff" points="93.23,-395.67 83.94,-390.58 88.02,-400.35 93.23,-395.67"/>
</g>
<!-- Node8 -->
<g id="node29" class="node">
<title>Node8</title>
<g id="a_node29"><a xlink:href="class_delayed_neutron_source.html" target="_top" xlink:title=" ">
<polygon fill="white" stroke="#666666" points="324.5,-463 208.5,-463 208.5,-444 324.5,-444 324.5,-463"/>
<text text-anchor="middle" x="266.5" y="-451" font-family="Helvetica,sans-Serif" font-size="10.00">DelayedNeutronSource</text>
</a>
</g>
</g>
<!-- Node4&#45;&gt;Node8 -->
<g id="edge25" class="edge">
<title>Node4&#45;&gt;Node8</title>
<path fill="none" stroke="#63b8ff" d="M100.09,-395.15C121.54,-407.66 153.35,-424.82 183,-435.5 191.69,-438.63 201.1,-441.31 210.35,-443.57"/>
<polygon fill="#63b8ff" stroke="#63b8ff" points="102.13,-392.29 91.74,-390.2 98.56,-398.31 102.13,-392.29"/>
</g>
<!-- Node9 -->
<g id="node30" class="node">
<title>Node9</title>
<g id="a_node30"><a xlink:href="class_div_free_coupled_scalar_advection.html" target="_top" xlink:title=" ">
<polygon fill="white" stroke="#666666" points="345,-426 188,-426 188,-407 345,-407 345,-426"/>
<text text-anchor="middle" x="266.5" y="-414" font-family="Helvetica,sans-Serif" font-size="10.00">DivFreeCoupledScalarAdvection</text>
</a>
</g>
</g>
<!-- Node4&#45;&gt;Node9 -->
<g id="edge26" class="edge">
<title>Node4&#45;&gt;Node9</title>
<path fill="none" stroke="#63b8ff" d="M106.92,-385.78C136.26,-391.46 179.98,-399.93 214.09,-406.54"/>
<polygon fill="#63b8ff" stroke="#63b8ff" points="107.64,-382.35 97.16,-383.89 106.31,-389.23 107.64,-382.35"/>
</g>
<!-- Node10 -->
<g id="node31" class="node">
<title>Node10</title>
<g id="a_node31"><a xlink:href="class_fission_heat_source.html" target="_top" xlink:title=" ">
<polygon fill="white" stroke="#666666" points="316.5,-93 216.5,-93 216.5,-74 316.5,-74 316.5,-93"/>
<text text-anchor="middle" x="266.5" y="-81" font-family="Helvetica,sans-Serif" font-size="10.00">FissionHeatSource</text>
</a>
</g>
</g>
<!-- Node4&#45;&gt;Node10 -->
<g id="edge27" class="edge">
<title>Node4&#45;&gt;Node10</title>
<path fill="none" stroke="#63b8ff" d="M81.84,-359.17C104.5,-296.59 172.52,-110.45 183,-101.5 192.25,-93.6 204.18,-88.93 216.07,-86.23"/>
<polygon fill="#63b8ff" stroke="#63b8ff" points="78.67,-357.64 78.56,-368.23 85.25,-360.02 78.67,-357.64"/>
</g>
<!-- Node11 -->
<g id="node32" class="node">
<title>Node11</title>
<g id="a_node32"><a xlink:href="class_gamma_heat_source.html" target="_top" xlink:title=" ">
<polygon fill="white" stroke="#666666" points="318,-56 215,-56 215,-37 318,-37 318,-56"/>
<text text-anchor="middle" x="266.5" y="-44" font-family="Helvetica,sans-Serif" font-size="10.00">GammaHeatSource</text>
</a>
</g>
</g>
<!-- Node4&#45;&gt;Node11 -->
<g id="edge28" class="edge">
<title>Node4&#45;&gt;Node11</title>
<path fill="none" stroke="#63b8ff" d="M81.98,-359.05C95.35,-322.38 124.08,-242.97 147,-175.5 163.69,-126.39 144.56,-99.32 183,-64.5 191.8,-56.53 203.29,-51.8 214.89,-49.06"/>
<polygon fill="#63b8ff" stroke="#63b8ff" points="78.73,-357.75 78.59,-368.34 85.3,-360.15 78.73,-357.75"/>
</g>
<!-- Node12 -->
<g id="node33" class="node">
<title>Node12</title>
<g id="a_node33"><a xlink:href="class_group_diffusion.html" target="_top" xlink:title=" ">
<polygon fill="white" stroke="#666666" points="306.5,-389 226.5,-389 226.5,-370 306.5,-370 306.5,-389"/>
<text text-anchor="middle" x="266.5" y="-377" font-family="Helvetica,sans-Serif" font-size="10.00">GroupDiffusion</text>
</a>
</g>
</g>
<!-- Node4&#45;&gt;Node12 -->
<g id="edge29" class="edge">
<title>Node4&#45;&gt;Node12</title>
<path fill="none" stroke="#63b8ff" d="M106.94,-379.5C139.95,-379.5 191.12,-379.5 226.35,-379.5"/>
<polygon fill="#63b8ff" stroke="#63b8ff" points="107.18,-376 97.18,-379.5 107.18,-383 107.18,-376"/>
</g>
<!-- Node13 -->
<g id="node34" class="node">
<title>Node13</title>
<g id="a_node34"><a xlink:href="class_heat_precursor_decay.html" target="_top" xlink:title=" ">
<polygon fill="white" stroke="#666666" points="320,-352 213,-352 213,-333 320,-333 320,-352"/>
<text text-anchor="middle" x="266.5" y="-340" font-family="Helvetica,sans-Serif" font-size="10.00">HeatPrecursorDecay</text>
</a>
</g>
</g>
<!-- Node4&#45;&gt;Node13 -->
<g id="edge30" class="edge">
<title>Node4&#45;&gt;Node13</title>
<path fill="none" stroke="#63b8ff" d="M106.92,-373.22C136.26,-367.54 179.98,-359.07 214.09,-352.46"/>
<polygon fill="#63b8ff" stroke="#63b8ff" points="106.31,-369.77 97.16,-375.11 107.64,-376.65 106.31,-369.77"/>
</g>
<!-- Node14 -->
<g id="node35" class="node">
<title>Node14</title>
<g id="a_node35"><a xlink:href="class_heat_precursor_source.html" target="_top" xlink:title=" ">
<polygon fill="white" stroke="#666666" points="321.5,-315 211.5,-315 211.5,-296 321.5,-296 321.5,-315"/>
<text text-anchor="middle" x="266.5" y="-303" font-family="Helvetica,sans-Serif" font-size="10.00">HeatPrecursorSource</text>
</a>
</g>
</g>
<!-- Node4&#45;&gt;Node14 -->
<g id="edge31" class="edge">
<title>Node4&#45;&gt;Node14</title>
<path fill="none" stroke="#63b8ff" d="M100.53,-364.03C122.02,-351.83 153.65,-335.14 183,-324.5 192.67,-320.99 203.22,-317.98 213.45,-315.46"/>
<polygon fill="#63b8ff" stroke="#63b8ff" points="99.07,-360.83 92.16,-368.86 102.57,-366.9 99.07,-360.83"/>
</g>
<!-- Node15 -->
<g id="node36" class="node">
<title>Node15</title>
<g id="a_node36"><a xlink:href="class_i_n_s_boussinesq_body_force.html" target="_top" xlink:title=" ">
<polygon fill="white" stroke="#666666" points="332,-19 201,-19 201,0 332,0 332,-19"/>
<text text-anchor="middle" x="266.5" y="-7" font-family="Helvetica,sans-Serif" font-size="10.00">INSBoussinesqBodyForce</text>
</a>
</g>
</g>
<!-- Node4&#45;&gt;Node15 -->
<g id="edge32" class="edge">
<title>Node4&#45;&gt;Node15</title>
<path fill="none" stroke="#63b8ff" d="M82.5,-359.21C96.67,-322.8 126.62,-243.78 147,-175.5 166.36,-110.63 134.57,-74.8 183,-27.5 188.03,-22.58 194.08,-18.88 200.58,-16.1"/>
<polygon fill="#63b8ff" stroke="#63b8ff" points="79.27,-357.85 78.88,-368.44 85.79,-360.41 79.27,-357.85"/>
</g>
<!-- Node16 -->
<g id="node37" class="node">
<title>Node16</title>
<g id="a_node37"><a xlink:href="class_i_n_s_momentum_k_epsilon.html" target="_top" xlink:title=" ">
<polygon fill="white" stroke="#666666" points="327,-204 206,-204 206,-185 327,-185 327,-204"/>
<text text-anchor="middle" x="266.5" y="-192" font-family="Helvetica,sans-Serif" font-size="10.00">INSMomentumKEpsilon</text>
</a>
</g>
</g>
<!-- Node4&#45;&gt;Node16 -->
<g id="edge33" class="edge">
<title>Node4&#45;&gt;Node16</title>
<path fill="none" stroke="#63b8ff" d="M81.73,-359.13C95.52,-323.41 129.08,-249.76 183,-212.5 189.87,-207.75 197.78,-204.22 205.91,-201.61"/>
<polygon fill="#63b8ff" stroke="#63b8ff" points="78.54,-357.67 78.34,-368.26 85.11,-360.1 78.54,-357.67"/>
</g>
<!-- Node17 -->
<g id="node38" class="node">
<title>Node17</title>
<g id="a_node38"><a xlink:href="class_in_scatter.html" target="_top" xlink:title=" ">
<polygon fill="white" stroke="#666666" points="294.5,-278 238.5,-278 238.5,-259 294.5,-259 294.5,-278"/>
<text text-anchor="middle" x="266.5" y="-266" font-family="Helvetica,sans-Serif" font-size="10.00">InScatter</text>
</a>
</g>
</g>
<!-- Node4&#45;&gt;Node17 -->
<g id="edge34" class="edge">
<title>Node4&#45;&gt;Node17</title>
<path fill="none" stroke="#63b8ff" d="M90.57,-361.05C110.2,-339.72 145.46,-305.18 183,-286.5 200.32,-277.88 221.72,-273.36 238.38,-271.01"/>
<polygon fill="#63b8ff" stroke="#63b8ff" points="88.02,-358.65 83.94,-368.42 93.23,-363.33 88.02,-358.65"/>
</g>
<!-- Node18 -->
<g id="node39" class="node">
<title>Node18</title>
<g id="a_node39"><a xlink:href="class_precursor_decay.html" target="_top" xlink:title=" ">
<polygon fill="white" stroke="#666666" points="309.5,-241 223.5,-241 223.5,-222 309.5,-222 309.5,-241"/>
<text text-anchor="middle" x="266.5" y="-229" font-family="Helvetica,sans-Serif" font-size="10.00">PrecursorDecay</text>
</a>
</g>
</g>
<!-- Node4&#45;&gt;Node18 -->
<g id="edge35" class="edge">
<title>Node4&#45;&gt;Node18</title>
<path fill="none" stroke="#63b8ff" d="M85.05,-360.04C101.8,-331.11 137.31,-277.21 183,-249.5 195.03,-242.2 209.64,-237.85 223.21,-235.25"/>
<polygon fill="#63b8ff" stroke="#63b8ff" points="82.16,-358.05 80.31,-368.48 88.26,-361.47 82.16,-358.05"/>
</g>
<!-- Node19 -->
<g id="node40" class="node">
<title>Node19</title>
<g id="a_node40"><a xlink:href="class_precursor_source.html" target="_top" xlink:title=" ">
<polygon fill="white" stroke="#666666" points="311,-722 222,-722 222,-703 311,-703 311,-722"/>
<text text-anchor="middle" x="266.5" y="-710" font-family="Helvetica,sans-Serif" font-size="10.00">PrecursorSource</text>
</a>
</g>
</g>
<!-- Node4&#45;&gt;Node19 -->
<g id="edge36" class="edge">
<title>Node4&#45;&gt;Node19</title>
<path fill="none" stroke="#63b8ff" d="M80.9,-399.83C102.39,-467.89 171.35,-684.14 183,-694.5 193.63,-703.95 208.04,-708.82 221.85,-711.23"/>
<polygon fill="#63b8ff" stroke="#63b8ff" points="84.36,-399.17 78.01,-390.69 77.68,-401.28 84.36,-399.17"/>
</g>
<!-- Node20 -->
<g id="node41" class="node">
<title>Node20</title>
<g id="a_node41"><a xlink:href="class_scalar_advection_art_diff.html" target="_top" xlink:title=" ">
<polygon fill="white" stroke="#666666" points="324,-685 209,-685 209,-666 324,-666 324,-685"/>
<text text-anchor="middle" x="266.5" y="-673" font-family="Helvetica,sans-Serif" font-size="10.00">ScalarAdvectionArtDiff</text>
</a>
</g>
</g>
<!-- Node4&#45;&gt;Node20 -->
<g id="edge37" class="edge">
<title>Node4&#45;&gt;Node20</title>
<path fill="none" stroke="#63b8ff" d="M79.93,-400.49C95.5,-459.06 141.8,-622.32 183,-657.5 190.36,-663.78 199.41,-668.02 208.78,-670.86"/>
<polygon fill="#63b8ff" stroke="#63b8ff" points="83.32,-399.62 77.4,-390.84 76.55,-401.4 83.32,-399.62"/>
</g>
<!-- Node21 -->
<g id="node42" class="node">
<title>Node21</title>
<g id="a_node42"><a xlink:href="class_sigma_r.html" target="_top" xlink:title=" ">
<polygon fill="white" stroke="#666666" points="292,-648 241,-648 241,-629 292,-629 292,-648"/>
<text text-anchor="middle" x="266.5" y="-636" font-family="Helvetica,sans-Serif" font-size="10.00">SigmaR</text>
</a>
</g>
</g>
<!-- Node4&#45;&gt;Node21 -->
<g id="edge38" class="edge">
<title>Node4&#45;&gt;Node21</title>
<path fill="none" stroke="#63b8ff" d="M77.55,-400.65C85.55,-447.95 111.66,-562.66 183,-620.5 199.17,-633.61 222.78,-637.71 240.61,-638.77"/>
<polygon fill="#63b8ff" stroke="#63b8ff" points="81.04,-400.26 76.02,-390.93 74.12,-401.35 81.04,-400.26"/>
</g>
<!-- Node22 -->
<g id="node43" class="node">
<title>Node22</title>
<g id="a_node43"><a xlink:href="class_transient_fission_heat_source.html" target="_top" xlink:title=" ">
<polygon fill="white" stroke="#666666" points="336.5,-611 196.5,-611 196.5,-592 336.5,-592 336.5,-611"/>
<text text-anchor="middle" x="266.5" y="-599" font-family="Helvetica,sans-Serif" font-size="10.00">TransientFissionHeatSource</text>
</a>
</g>
</g>
<!-- Node4&#45;&gt;Node22 -->
<g id="edge39" class="edge">
<title>Node4&#45;&gt;Node22</title>
<path fill="none" stroke="#63b8ff" d="M79.3,-400.2C90.1,-441.9 120.41,-536.08 183,-583.5 187.21,-586.69 191.86,-589.33 196.76,-591.53"/>
<polygon fill="#63b8ff" stroke="#63b8ff" points="82.71,-399.4 76.92,-390.52 75.91,-401.07 82.71,-399.4"/>
</g>
<!-- Node42 -->
<g id="node44" class="node">
<title>Node42</title>
<g id="a_node44"><a xlink:title=" ">
<polygon fill="#e0e0e0" stroke="#999999" points="133,-1378 14,-1378 14,-1359 133,-1359 133,-1378"/>
<text text-anchor="middle" x="73.5" y="-1366" font-family="Helvetica,sans-Serif" font-size="10.00">MooseVariableInterface</text>
</a>
</g>
</g>
<!-- Node42&#45;&gt;Node41 -->
<g id="edge40" class="edge">
<title>Node42&#45;&gt;Node41</title>
<path fill="none" stroke="#63b8ff" d="M144.53,-1372.17C156.91,-1372.81 169.91,-1373.5 182.6,-1374.16"/>
<polygon fill="#63b8ff" stroke="#63b8ff" points="145.05,-1368.69 134.88,-1371.66 144.68,-1375.68 145.05,-1368.69"/>
</g>
<!-- Node42&#45;&gt;Node43 -->
<g id="edge41" class="edge">
<title>Node42&#45;&gt;Node43</title>
<path fill="none" stroke="#63b8ff" d="M144.57,-1358.6C161.04,-1356.27 178.59,-1353.79 195.08,-1351.45"/>
<polygon fill="#63b8ff" stroke="#63b8ff" points="144.28,-1355.1 134.86,-1359.97 145.25,-1362.03 144.28,-1355.1"/>
</g>
<!-- Node2 -->
<g id="node45" class="node">
<title>Node2</title>
<g id="a_node45"><a xlink:href="class_scalar_transport_base.html" target="_top" xlink:title=" ">
<polygon fill="white" stroke="#666666" points="127.5,-630 19.5,-630 19.5,-611 127.5,-611 127.5,-630"/>
<text text-anchor="middle" x="73.5" y="-618" font-family="Helvetica,sans-Serif" font-size="10.00">ScalarTransportBase</text>
</a>
</g>
</g>
<!-- Node2&#45;&gt;Node1 -->
<g id="edge42" class="edge">
<title>Node2&#45;&gt;Node1</title>
<path fill="none" stroke="#63b8ff" d="M76.81,-641.52C83.43,-691.18 107.19,-816.36 183,-879.5 187.73,-883.44 193.13,-886.57 198.85,-889.05"/>
<polygon fill="#63b8ff" stroke="#63b8ff" points="80.31,-641.36 75.63,-631.86 73.37,-642.21 80.31,-641.36"/>
</g>
<!-- Node2&#45;&gt;Node35 -->
<g id="edge47" class="edge">
<title>Node2&#45;&gt;Node35</title>
<path fill="none" stroke="#63b8ff" d="M79.44,-641.33C91.77,-693.64 124.47,-834.82 147,-953.5 156.32,-1002.6 148.63,-1139.22 183,-1175.5 186.83,-1179.54 191.34,-1182.78 196.25,-1185.37"/>
<polygon fill="#63b8ff" stroke="#63b8ff" points="82.88,-640.67 77.18,-631.74 76.07,-642.28 82.88,-640.67"/>
</g>
<!-- Node2&#45;&gt;Node36 -->
<g id="edge50" class="edge">
<title>Node2&#45;&gt;Node36</title>
<path fill="none" stroke="#63b8ff" d="M79.61,-641.3C92.31,-693.54 125.82,-834.57 147,-953.5 157.19,-1010.71 143.52,-1169.87 183,-1212.5 185.99,-1215.73 189.41,-1218.44 193.12,-1220.73"/>
<polygon fill="#63b8ff" stroke="#63b8ff" points="83.04,-640.61 77.27,-631.72 76.24,-642.27 83.04,-640.61"/>
</g>
<!-- Node2&#45;&gt;Node41 -->
<g id="edge55" class="edge">
<title>Node2&#45;&gt;Node41</title>
<path fill="none" stroke="#63b8ff" d="M80.07,-641.6C93.67,-693.98 128.83,-834.35 147,-953.5 160.69,-1043.26 122.99,-1292.36 183,-1360.5 185.81,-1363.69 189.04,-1366.39 192.56,-1368.67"/>
<polygon fill="#63b8ff" stroke="#63b8ff" points="83.46,-640.75 77.54,-631.96 76.69,-642.52 83.46,-640.75"/>
</g>
<!-- Node2&#45;&gt;Node43 -->
<g id="edge56" class="edge">
<title>Node2&#45;&gt;Node43</title>
<path fill="none" stroke="#63b8ff" d="M80,-641.61C93.46,-694.01 128.31,-834.43 147,-953.5 159.81,-1035.11 128.13,-1261.75 183,-1323.5 185.82,-1326.68 189.07,-1329.37 192.6,-1331.64"/>
<polygon fill="#63b8ff" stroke="#63b8ff" points="83.4,-640.77 77.51,-631.96 76.62,-642.52 83.4,-640.77"/>
</g>
<!-- Node2&#45;&gt;Node23 -->
<g id="edge45" class="edge">
<title>Node2&#45;&gt;Node23</title>
<path fill="none" stroke="#63b8ff" d="M83.44,-640.79C98.83,-673.22 133.52,-736.33 183,-768.5 187.92,-771.7 193.31,-774.33 198.91,-776.51"/>
<polygon fill="#63b8ff" stroke="#63b8ff" points="86.63,-639.35 79.28,-631.72 80.27,-642.27 86.63,-639.35"/>
</g>
<!-- Node2&#45;&gt;Node30 -->
<g id="edge57" class="edge">
<title>Node2&#45;&gt;Node30</title>
<path fill="none" stroke="#63b8ff" d="M87.58,-639.61C105.87,-664.78 141.56,-708.55 183,-731.5 189.03,-734.84 195.62,-737.56 202.37,-739.77"/>
<polygon fill="#63b8ff" stroke="#63b8ff" points="90.54,-637.74 81.91,-631.6 84.83,-641.78 90.54,-637.74"/>
</g>
<!-- Node2&#45;&gt;Node33 -->
<g id="edge61" class="edge">
<title>Node2&#45;&gt;Node33</title>
<path fill="none" stroke="#63b8ff" d="M78.41,-641.5C87.84,-686.01 116.21,-790.07 183,-842.5 187.04,-845.67 191.51,-848.31 196.23,-850.5"/>
<polygon fill="#63b8ff" stroke="#63b8ff" points="81.87,-640.99 76.49,-631.87 75.01,-642.36 81.87,-640.99"/>
</g>
<!-- Node2&#45;&gt;Node34 -->
<g id="edge66" class="edge">
<title>Node2&#45;&gt;Node34</title>
<path fill="none" stroke="#63b8ff" d="M80.56,-641.41C92.97,-680.28 125.07,-763.48 183,-805.5 194.15,-813.59 208.24,-818.17 221.6,-820.72"/>
<polygon fill="#63b8ff" stroke="#63b8ff" points="83.93,-640.45 77.66,-631.91 77.24,-642.5 83.93,-640.45"/>
</g>
<!-- Node2&#45;&gt;Node3 -->
<g id="edge43" class="edge">
<title>Node2&#45;&gt;Node3</title>
<path fill="none" stroke="#63b8ff" d="M111.64,-606.78C132.45,-599.36 158.99,-590.34 183,-583.5 194.45,-580.24 206.91,-577.14 218.6,-574.42"/>
<polygon fill="#63b8ff" stroke="#63b8ff" points="110.66,-603.42 102.44,-610.1 113.03,-610 110.66,-603.42"/>
</g>
<!-- Node2&#45;&gt;Node6 -->
<g id="edge44" class="edge">
<title>Node2&#45;&gt;Node6</title>
<path fill="none" stroke="#63b8ff" d="M94.51,-603.44C115.31,-586.55 149.46,-561.18 183,-546.5 191.35,-542.85 200.49,-539.85 209.56,-537.4"/>
<polygon fill="#63b8ff" stroke="#63b8ff" points="92.32,-600.7 86.85,-609.78 96.79,-606.09 92.32,-600.7"/>
</g>
<!-- Node2&#45;&gt;Node7 -->
<g id="edge46" class="edge">
<title>Node2&#45;&gt;Node7</title>
<path fill="none" stroke="#63b8ff" d="M87.62,-601.46C105.96,-576.37 141.7,-532.69 183,-509.5 193.89,-503.38 206.65,-499.23 218.83,-496.42"/>
<polygon fill="#63b8ff" stroke="#63b8ff" points="84.88,-599.27 81.94,-609.44 90.59,-603.33 84.88,-599.27"/>
</g>
<!-- Node2&#45;&gt;Node8 -->
<g id="edge48" class="edge">
<title>Node2&#45;&gt;Node8</title>
<path fill="none" stroke="#63b8ff" d="M83.49,-600.27C98.94,-567.94 133.71,-504.96 183,-472.5 190.61,-467.49 199.37,-463.79 208.29,-461.06"/>
<polygon fill="#63b8ff" stroke="#63b8ff" points="80.33,-598.77 79.31,-609.31 86.68,-601.7 80.33,-598.77"/>
</g>
<!-- Node2&#45;&gt;Node9 -->
<g id="edge49" class="edge">
<title>Node2&#45;&gt;Node9</title>
<path fill="none" stroke="#63b8ff" d="M80.61,-599.65C93.09,-560.89 125.32,-477.86 183,-435.5 187.98,-431.85 193.54,-428.88 199.36,-426.47"/>
<polygon fill="#63b8ff" stroke="#63b8ff" points="77.29,-598.53 77.69,-609.12 83.98,-600.6 77.29,-598.53"/>
</g>
<!-- Node2&#45;&gt;Node12 -->
<g id="edge51" class="edge">
<title>Node2&#45;&gt;Node12</title>
<path fill="none" stroke="#63b8ff" d="M78.45,-599.56C87.98,-555.16 116.51,-451.31 183,-398.5 195.2,-388.81 211.44,-383.89 226.28,-381.44"/>
<polygon fill="#63b8ff" stroke="#63b8ff" points="75.06,-598.67 76.51,-609.16 81.93,-600.05 75.06,-598.67"/>
</g>
<!-- Node2&#45;&gt;Node13 -->
<g id="edge52" class="edge">
<title>Node2&#45;&gt;Node13</title>
<path fill="none" stroke="#63b8ff" d="M76.86,-599.54C83.59,-550 107.55,-425.08 183,-361.5 191.43,-354.4 202,-349.82 212.74,-346.91"/>
<polygon fill="#63b8ff" stroke="#63b8ff" points="73.42,-598.82 75.65,-609.17 80.37,-599.68 73.42,-598.82"/>
</g>
<!-- Node2&#45;&gt;Node14 -->
<g id="edge53" class="edge">
<title>Node2&#45;&gt;Node14</title>
<path fill="none" stroke="#63b8ff" d="M80.73,-600.11C100.4,-536.35 161.12,-343.8 183,-324.5 190.94,-317.5 200.93,-312.93 211.21,-309.99"/>
<polygon fill="#63b8ff" stroke="#63b8ff" points="77.5,-598.72 77.91,-609.31 84.19,-600.78 77.5,-598.72"/>
</g>
<!-- Node2&#45;&gt;Node17 -->
<g id="edge54" class="edge">
<title>Node2&#45;&gt;Node17</title>
<path fill="none" stroke="#63b8ff" d="M81.21,-600.07C94.04,-560.97 122.93,-472.79 147,-398.5 163.12,-348.76 144.29,-321.65 183,-286.5 197.87,-273 220.45,-268.79 238.23,-267.8"/>
<polygon fill="#63b8ff" stroke="#63b8ff" points="77.96,-598.74 78.17,-609.33 84.61,-600.92 77.96,-598.74"/>
</g>
<!-- Node2&#45;&gt;Node18 -->
<g id="edge58" class="edge">
<title>Node2&#45;&gt;Node18</title>
<path fill="none" stroke="#63b8ff" d="M81.71,-600.23C95.4,-561.38 125.69,-473.63 147,-398.5 165.59,-332.96 134.29,-297.13 183,-249.5 193.59,-239.15 208.66,-234.16 223.03,-231.92"/>
<polygon fill="#63b8ff" stroke="#63b8ff" points="78.5,-598.82 78.46,-609.42 85.1,-601.16 78.5,-598.82"/>
</g>
<!-- Node2&#45;&gt;Node19 -->
<g id="edge59" class="edge">
<title>Node2&#45;&gt;Node19</title>
<path fill="none" stroke="#63b8ff" d="M94.47,-637.65C115.25,-654.59 149.37,-680.02 183,-694.5 195.12,-699.72 208.91,-703.49 221.71,-706.19"/>
<polygon fill="#63b8ff" stroke="#63b8ff" points="96.75,-634.99 86.83,-631.28 92.27,-640.37 96.75,-634.99"/>
</g>
<!-- Node2&#45;&gt;Node20 -->
<g id="edge60" class="edge">
<title>Node2&#45;&gt;Node20</title>
<path fill="none" stroke="#63b8ff" d="M111.61,-634.32C132.41,-641.78 158.95,-650.8 183,-657.5 193.45,-660.41 204.75,-663.14 215.54,-665.56"/>
<polygon fill="#63b8ff" stroke="#63b8ff" points="113.01,-631.11 102.41,-630.99 110.62,-637.69 113.01,-631.11"/>
</g>
<!-- Node2&#45;&gt;Node21 -->
<g id="edge64" class="edge">
<title>Node2&#45;&gt;Node21</title>
<path fill="none" stroke="#63b8ff" d="M139.03,-626.58C173.88,-629.87 214.9,-633.73 240.55,-636.15"/>
<polygon fill="#63b8ff" stroke="#63b8ff" points="139.75,-623.13 129.46,-625.68 139.09,-630.1 139.75,-623.13"/>
</g>
<!-- Node2&#45;&gt;Node22 -->
<g id="edge65" class="edge">
<title>Node2&#45;&gt;Node22</title>
<path fill="none" stroke="#63b8ff" d="M139.16,-614.07C157.55,-612.24 177.66,-610.24 196.31,-608.38"/>
<polygon fill="#63b8ff" stroke="#63b8ff" points="139.07,-610.56 129.46,-615.03 139.76,-617.53 139.07,-610.56"/>
</g>
<!-- Node44 -->
<g id="node46" class="node">
<title>Node44</title>
<g id="a_node46"><a xlink:href="class_scalar_transport_time_derivative.html" target="_top" xlink:title=" ">
<polygon fill="white" stroke="#666666" points="342,-167 191,-167 191,-148 342,-148 342,-167"/>
<text text-anchor="middle" x="266.5" y="-155" font-family="Helvetica,sans-Serif" font-size="10.00">ScalarTransportTimeDerivative</text>
</a>
</g>
</g>
<!-- Node2&#45;&gt;Node44 -->
<g id="edge62" class="edge">
<title>Node2&#45;&gt;Node44</title>
<path fill="none" stroke="#63b8ff" d="M82.25,-600.37C96.85,-561.76 128.6,-474.4 147,-398.5 170.65,-300.93 113.98,-248.41 183,-175.5 186.02,-172.31 189.47,-169.61 193.2,-167.35"/>
<polygon fill="#63b8ff" stroke="#63b8ff" points="79.06,-598.91 78.77,-609.5 85.6,-601.41 79.06,-598.91"/>
</g>
<!-- Node45 -->
<g id="node47" class="node">
<title>Node45</title>
<g id="a_node47"><a xlink:href="class_nt_time_derivative.html" target="_top" xlink:title=" ">
<polygon fill="white" stroke="#666666" points="518,-167 426,-167 426,-148 518,-148 518,-167"/>
<text text-anchor="middle" x="472" y="-155" font-family="Helvetica,sans-Serif" font-size="10.00">NtTimeDerivative</text>
</a>
</g>
</g>
<!-- Node44&#45;&gt;Node45 -->
<g id="edge63" class="edge">
<title>Node44&#45;&gt;Node45</title>
<path fill="none" stroke="#63b8ff" d="M353.65,-157.5C378.35,-157.5 404.31,-157.5 425.51,-157.5"/>
<polygon fill="#63b8ff" stroke="#63b8ff" points="353.92,-154 343.92,-157.5 353.92,-161 353.92,-154"/>
</g>
<!-- Node46 -->
<g id="node48" class="node">
<title>Node46</title>
<g id="a_node48"><a xlink:title=" ">
<polygon fill="#e0e0e0" stroke="#999999" points="106.5,-167 40.5,-167 40.5,-148 106.5,-148 106.5,-167"/>
<text text-anchor="middle" x="73.5" y="-155" font-family="Helvetica,sans-Serif" font-size="10.00">TimeKernel</text>
</a>
</g>
</g>
<!-- Node46&#45;&gt;Node44 -->
<g id="edge67" class="edge">
<title>Node46&#45;&gt;Node44</title>
<path fill="none" stroke="#63b8ff" d="M118.28,-157.5C139.77,-157.5 166.26,-157.5 190.82,-157.5"/>
<polygon fill="#63b8ff" stroke="#63b8ff" points="118.41,-154 108.41,-157.5 118.41,-161 118.41,-154"/>
</g>
</g>
</svg>
