<?xml version="1.0" encoding="UTF-8" standalone="no"?>
<!DOCTYPE svg PUBLIC "-//W3C//DTD SVG 1.1//EN"
 "http://www.w3.org/Graphics/SVG/1.1/DTD/svg11.dtd">
<!-- Generated by graphviz version 12.2.0 (20241103.1931)
 -->
<!-- Title: Graphical Class Hierarchy Pages: 1 -->
<svg width="427pt" height="39pt"
 viewBox="0.00 0.00 427.25 38.50" xmlns="http://www.w3.org/2000/svg" xmlns:xlink="http://www.w3.org/1999/xlink">
<g id="graph0" class="graph" transform="scale(1 1) rotate(0) translate(4 34.5)">
<title>Graphical Class Hierarchy</title>
<!-- Node0 -->
<g id="Node000000" class="node">
<title>Node0</title>
<g id="a_Node000000"><a xlink:title=" ">
<polygon fill="#e0e0e0" stroke="#999999" points="110.5,-24.88 0,-24.88 0,-5.63 110.5,-5.63 110.5,-24.88"/>
<text text-anchor="middle" x="55.25" y="-11.38" font-family="Helvetica,sans-Serif" font-size="10.00">INSADStabilized3Eqn</text>
</a>
</g>
</g>
<!-- Node1 -->
<g id="Node000001" class="node">
<title>Node1</title>
<g id="a_Node000001"><a xlink:href="class_s_a_tau_material_templ.html" target="_top" xlink:title=" ">
<polygon fill="white" stroke="#666666" points="273.5,-30.5 146.5,-30.5 146.5,0 273.5,0 273.5,-30.5"/>
<text text-anchor="start" x="154.5" y="-17" font-family="Helvetica,sans-Serif" font-size="10.00">SATauMaterialTempl</text>
<text text-anchor="middle" x="210" y="-5.75" font-family="Helvetica,sans-Serif" font-size="10.00">&lt; INSADStabilized3Eqn &gt;</text>
</a>
</g>
</g>
<!-- Node0&#45;&gt;Node1 -->
<g id="edge122_Node000000_Node000001" class="edge">
<title>Node0&#45;&gt;Node1</title>
<g id="a_edge122_Node000000_Node000001"><a xlink:title=" ">
<path fill="none" stroke="#63b8ff" d="M122.36,-15.25C130.24,-15.25 138.26,-15.25 146.09,-15.25"/>
<polygon fill="#63b8ff" stroke="#63b8ff" points="122.48,-11.75 112.48,-15.25 122.48,-18.75 122.48,-11.75"/>
</a>
</g>
</g>
<!-- Node2 -->
<g id="Node000002" class="node">
<title>Node2</title>
<g id="a_Node000002"><a xlink:href="class_s_a_tau_stabilized3_eqn.html" target="_top" xlink:title=" ">
<polygon fill="white" stroke="#666666" points="419.25,-24.88 309.5,-24.88 309.5,-5.63 419.25,-5.63 419.25,-24.88"/>
<text text-anchor="middle" x="364.38" y="-11.38" font-family="Helvetica,sans-Serif" font-size="10.00">SATauStabilized3Eqn</text>
</a>
</g>
</g>
<!-- Node1&#45;&gt;Node2 -->
<g id="edge123_Node000001_Node000002" class="edge">
<title>Node1&#45;&gt;Node2</title>
<g id="a_edge123_Node000001_Node000002"><a xlink:title=" ">
<path fill="none" stroke="#63b8ff" d="M285.3,-15.25C293.43,-15.25 301.59,-15.25 309.41,-15.25"/>
<polygon fill="#63b8ff" stroke="#63b8ff" points="285.37,-11.75 275.37,-15.25 285.37,-18.75 285.37,-11.75"/>
</a>
</g>
</g>
</g>
</svg>
