<?xml version="1.0" encoding="UTF-8" standalone="no"?>
<!DOCTYPE svg PUBLIC "-//W3C//DTD SVG 1.1//EN"
 "http://www.w3.org/Graphics/SVG/1.1/DTD/svg11.dtd">
<!-- Generated by graphviz version 7.0.4 (20221203.1631)
 -->
<!-- Title: Graphical Class Hierarchy Pages: 1 -->
<svg width="591pt" height="142pt"
 viewBox="0.00 0.00 591.00 141.50" xmlns="http://www.w3.org/2000/svg" xmlns:xlink="http://www.w3.org/1999/xlink">
<g id="graph0" class="graph" transform="scale(1 1) rotate(0) translate(4 137.5)">
<title>Graphical Class Hierarchy</title>
<!-- Node0 -->
<g id="node1" class="node">
<title>Node0</title>
<g id="a_node1"><a xlink:title=" ">
<polygon fill="#e0e0e0" stroke="#999999" points="124,-80 0,-80 0,-61 124,-61 124,-80"/>
<text text-anchor="middle" x="62" y="-68" font-family="Helvetica,sans-Serif" font-size="10.00">GenericConstantMaterial</text>
</a>
</g>
</g>
<!-- Node1 -->
<g id="node2" class="node">
<title>Node1</title>
<g id="a_node2"><a xlink:href="class_graphite_two_grp_x_s_function_material.html" target="_top" xlink:title=" ">
<polygon fill="white" stroke="#666666" points="301,-133.5 162,-133.5 162,-103.5 301,-103.5 301,-133.5"/>
<text text-anchor="start" x="170" y="-121.5" font-family="Helvetica,sans-Serif" font-size="10.00">GraphiteTwoGrpXSFunction</text>
<text text-anchor="middle" x="231.5" y="-110.5" font-family="Helvetica,sans-Serif" font-size="10.00">Material</text>
</a>
</g>
</g>
<!-- Node0&#45;&gt;Node1 -->
<g id="edge1" class="edge">
<title>Node0&#45;&gt;Node1</title>
<path fill="none" stroke="#63b8ff" d="M108.61,-83.57C129.64,-89.6 154.75,-96.79 176.71,-103.08"/>
<polygon fill="#63b8ff" stroke="#63b8ff" points="109.74,-80.25 99.16,-80.86 107.81,-86.98 109.74,-80.25"/>
</g>
<!-- Node2 -->
<g id="node3" class="node">
<title>Node2</title>
<g id="a_node3"><a xlink:href="class_msre_fuel_two_grp_x_s_function_material.html" target="_top" xlink:title=" ">
<polygon fill="white" stroke="#666666" points="303,-85.5 160,-85.5 160,-55.5 303,-55.5 303,-85.5"/>
<text text-anchor="start" x="168" y="-73.5" font-family="Helvetica,sans-Serif" font-size="10.00">MsreFuelTwoGrpXSFunction</text>
<text text-anchor="middle" x="231.5" y="-62.5" font-family="Helvetica,sans-Serif" font-size="10.00">Material</text>
</a>
</g>
</g>
<!-- Node0&#45;&gt;Node2 -->
<g id="edge2" class="edge">
<title>Node0&#45;&gt;Node2</title>
<path fill="none" stroke="#63b8ff" d="M135.89,-70.5C143.8,-70.5 151.84,-70.5 159.73,-70.5"/>
<polygon fill="#63b8ff" stroke="#63b8ff" points="135.93,-67 125.93,-70.5 135.93,-74 135.93,-67"/>
</g>
<!-- Node3 -->
<g id="node4" class="node">
<title>Node3</title>
<g id="a_node4"><a xlink:href="class_nuclear_material.html" target="_top" xlink:title=" ">
<polygon fill="white" stroke="#666666" points="274,-37 189,-37 189,-18 274,-18 274,-37"/>
<text text-anchor="middle" x="231.5" y="-25" font-family="Helvetica,sans-Serif" font-size="10.00">NuclearMaterial</text>
</a>
</g>
</g>
<!-- Node0&#45;&gt;Node3 -->
<g id="edge3" class="edge">
<title>Node0&#45;&gt;Node3</title>
<path fill="none" stroke="#63b8ff" d="M112.68,-57.75C137.89,-51.27 168.07,-43.53 191.57,-37.49"/>
<polygon fill="#63b8ff" stroke="#63b8ff" points="112.13,-54.27 103.31,-60.15 113.87,-61.05 112.13,-54.27"/>
</g>
<!-- Node4 -->
<g id="node5" class="node">
<title>Node4</title>
<g id="a_node5"><a xlink:href="class_generic_moltres_material.html" target="_top" xlink:title=" ">
<polygon fill="white" stroke="#666666" points="456,-56 339,-56 339,-37 456,-37 456,-56"/>
<text text-anchor="middle" x="397.5" y="-44" font-family="Helvetica,sans-Serif" font-size="10.00">GenericMoltresMaterial</text>
</a>
</g>
</g>
<!-- Node3&#45;&gt;Node4 -->
<g id="edge4" class="edge">
<title>Node3&#45;&gt;Node4</title>
<path fill="none" stroke="#63b8ff" d="M285.69,-33.66C302.62,-35.62 321.44,-37.8 338.68,-39.8"/>
<polygon fill="#63b8ff" stroke="#63b8ff" points="286.15,-30.19 275.81,-32.52 285.34,-37.15 286.15,-30.19"/>
</g>
<!-- Node8 -->
<g id="node9" class="node">
<title>Node8</title>
<g id="a_node9"><a xlink:href="class_moltres_json_material.html" target="_top" xlink:title=" ">
<polygon fill="white" stroke="#666666" points="449.5,-19 345.5,-19 345.5,0 449.5,0 449.5,-19"/>
<text text-anchor="middle" x="397.5" y="-7" font-family="Helvetica,sans-Serif" font-size="10.00">MoltresJsonMaterial</text>
</a>
</g>
</g>
<!-- Node3&#45;&gt;Node8 -->
<g id="edge8" class="edge">
<title>Node3&#45;&gt;Node8</title>
<path fill="none" stroke="#63b8ff" d="M285.54,-21.68C304.64,-19.58 326.14,-17.22 345.09,-15.14"/>
<polygon fill="#63b8ff" stroke="#63b8ff" points="285.37,-18.18 275.81,-22.75 286.14,-25.13 285.37,-18.18"/>
</g>
<!-- Node5 -->
<g id="node6" class="node">
<title>Node5</title>
<g id="a_node6"><a xlink:href="class_cammi_fuel.html" target="_top" xlink:title=" ">
<polygon fill="white" stroke="#666666" points="570.5,-93 504.5,-93 504.5,-74 570.5,-74 570.5,-93"/>
<text text-anchor="middle" x="537.5" y="-81" font-family="Helvetica,sans-Serif" font-size="10.00">CammiFuel</text>
</a>
</g>
</g>
<!-- Node4&#45;&gt;Node5 -->
<g id="edge5" class="edge">
<title>Node4&#45;&gt;Node5</title>
<path fill="none" stroke="#63b8ff" d="M446.39,-59.34C465.47,-64.45 486.93,-70.21 504.12,-74.82"/>
<polygon fill="#63b8ff" stroke="#63b8ff" points="447.51,-56.02 436.94,-56.81 445.7,-62.78 447.51,-56.02"/>
</g>
<!-- Node6 -->
<g id="node7" class="node">
<title>Node6</title>
<g id="a_node7"><a xlink:href="class_cammi_moderator.html" target="_top" xlink:title=" ">
<polygon fill="white" stroke="#666666" points="583,-56 492,-56 492,-37 583,-37 583,-56"/>
<text text-anchor="middle" x="537.5" y="-44" font-family="Helvetica,sans-Serif" font-size="10.00">CammiModerator</text>
</a>
</g>
</g>
<!-- Node4&#45;&gt;Node6 -->
<g id="edge6" class="edge">
<title>Node4&#45;&gt;Node6</title>
<path fill="none" stroke="#63b8ff" d="M467.67,-46.5C475.8,-46.5 483.93,-46.5 491.6,-46.5"/>
<polygon fill="#63b8ff" stroke="#63b8ff" points="467.74,-43 457.74,-46.5 467.74,-50 467.74,-43"/>
</g>
<!-- Node7 -->
<g id="node8" class="node">
<title>Node7</title>
<g id="a_node8"><a xlink:href="class_rodded_material.html" target="_top" xlink:title=" ">
<polygon fill="white" stroke="#666666" points="579.5,-19 495.5,-19 495.5,0 579.5,0 579.5,-19"/>
<text text-anchor="middle" x="537.5" y="-7" font-family="Helvetica,sans-Serif" font-size="10.00">RoddedMaterial</text>
</a>
</g>
</g>
<!-- Node4&#45;&gt;Node7 -->
<g id="edge7" class="edge">
<title>Node4&#45;&gt;Node7</title>
<path fill="none" stroke="#63b8ff" d="M446.54,-33.62C463.88,-28.97 483.16,-23.8 499.42,-19.44"/>
<polygon fill="#63b8ff" stroke="#63b8ff" points="445.7,-30.22 436.94,-36.19 447.51,-36.98 445.7,-30.22"/>
</g>
</g>
</svg>
