<?xml version="1.0" encoding="UTF-8" standalone="no"?>
<!DOCTYPE svg PUBLIC "-//W3C//DTD SVG 1.1//EN"
 "http://www.w3.org/Graphics/SVG/1.1/DTD/svg11.dtd">
<!-- Generated by graphviz version 12.2.0 (20241103.1931)
 -->
<!-- Title: Graphical Class Hierarchy Pages: 1 -->
<svg width="273pt" height="323pt"
 viewBox="0.00 0.00 272.50 323.25" xmlns="http://www.w3.org/2000/svg" xmlns:xlink="http://www.w3.org/1999/xlink">
<g id="graph0" class="graph" transform="scale(1 1) rotate(0) translate(4 319.25)">
<title>Graphical Class Hierarchy</title>
<!-- Node0 -->
<g id="Node000000" class="node">
<title>Node0</title>
<g id="a_Node000000"><a xlink:title=" ">
<polygon fill="#e0e0e0" stroke="#999999" points="60.25,-167.25 0,-167.25 0,-148 60.25,-148 60.25,-167.25"/>
<text text-anchor="middle" x="30.12" y="-153.75" font-family="Helvetica,sans-Serif" font-size="10.00">AuxKernel</text>
</a>
</g>
</g>
<!-- Node1 -->
<g id="Node000001" class="node">
<title>Node1</title>
<g id="a_Node000001"><a xlink:href="class_constant_difference_aux.html" target="_top" xlink:title=" ">
<polygon fill="white" stroke="#666666" points="237.88,-315.25 122.88,-315.25 122.88,-296 237.88,-296 237.88,-315.25"/>
<text text-anchor="middle" x="180.38" y="-301.75" font-family="Helvetica,sans-Serif" font-size="10.00">ConstantDifferenceAux</text>
</a>
</g>
</g>
<!-- Node0&#45;&gt;Node1 -->
<g id="edge12_Node000000_Node000001" class="edge">
<title>Node0&#45;&gt;Node1</title>
<g id="a_edge12_Node000000_Node000001"><a xlink:title=" ">
<path fill="none" stroke="#63b8ff" d="M35.63,-178.56C43.03,-207.7 60.65,-260.01 96.25,-287.62 103.95,-293.6 113.2,-297.69 122.7,-300.47"/>
<polygon fill="#63b8ff" stroke="#63b8ff" points="39.1,-178.04 33.4,-169.1 32.29,-179.64 39.1,-178.04"/>
</a>
</g>
</g>
<!-- Node2 -->
<g id="Node000002" class="node">
<title>Node2</title>
<g id="a_Node000002"><a xlink:href="class_fission_heat_source_aux.html" target="_top" xlink:title=" ">
<polygon fill="white" stroke="#666666" points="238.25,-278.25 122.5,-278.25 122.5,-259 238.25,-259 238.25,-278.25"/>
<text text-anchor="middle" x="180.38" y="-264.75" font-family="Helvetica,sans-Serif" font-size="10.00">FissionHeatSourceAux</text>
</a>
</g>
</g>
<!-- Node0&#45;&gt;Node2 -->
<g id="edge13_Node000000_Node000002" class="edge">
<title>Node0&#45;&gt;Node2</title>
<g id="a_edge13_Node000000_Node000002"><a xlink:title=" ">
<path fill="none" stroke="#63b8ff" d="M39.8,-177.92C50.07,-199.42 69.25,-232.68 96.25,-250.62 104,-255.77 112.97,-259.48 122.09,-262.14"/>
<polygon fill="#63b8ff" stroke="#63b8ff" points="43.07,-176.66 35.76,-169 36.7,-179.55 43.07,-176.66"/>
</a>
</g>
</g>
<!-- Node3 -->
<g id="Node000003" class="node">
<title>Node3</title>
<g id="a_Node000003"><a xlink:href="class_fission_heat_source_transient_aux.html" target="_top" xlink:title=" ">
<polygon fill="white" stroke="#666666" points="258.5,-241.25 102.25,-241.25 102.25,-222 258.5,-222 258.5,-241.25"/>
<text text-anchor="middle" x="180.38" y="-227.75" font-family="Helvetica,sans-Serif" font-size="10.00">FissionHeatSourceTransientAux</text>
</a>
</g>
</g>
<!-- Node0&#45;&gt;Node3 -->
<g id="edge14_Node000000_Node000003" class="edge">
<title>Node0&#45;&gt;Node3</title>
<g id="a_edge14_Node000000_Node000003"><a xlink:title=" ">
<path fill="none" stroke="#63b8ff" d="M47.61,-175.97C59.83,-188.45 77.56,-204.32 96.25,-213.62 102.6,-216.78 109.48,-219.39 116.49,-221.54"/>
<polygon fill="#63b8ff" stroke="#63b8ff" points="50.18,-173.6 40.78,-168.72 45.09,-178.4 50.18,-173.6"/>
</a>
</g>
</g>
<!-- Node4 -->
<g id="Node000004" class="node">
<title>Node4</title>
<g id="a_Node000004"><a xlink:href="class_mat_diffusion_aux.html" target="_top" xlink:title=" ">
<polygon fill="white" stroke="#666666" points="223.62,-204.25 137.12,-204.25 137.12,-185 223.62,-185 223.62,-204.25"/>
<text text-anchor="middle" x="180.38" y="-190.75" font-family="Helvetica,sans-Serif" font-size="10.00">MatDiffusionAux</text>
</a>
</g>
</g>
<!-- Node0&#45;&gt;Node4 -->
<g id="edge15_Node000000_Node000004" class="edge">
<title>Node0&#45;&gt;Node4</title>
<g id="a_edge15_Node000000_Node000004"><a xlink:title=" ">
<path fill="none" stroke="#63b8ff" d="M71.37,-169.85C79.57,-172.2 88.17,-174.57 96.25,-176.62 109.42,-179.97 123.86,-183.23 136.95,-186.04"/>
<polygon fill="#63b8ff" stroke="#63b8ff" points="72.54,-166.54 61.96,-167.1 70.58,-173.26 72.54,-166.54"/>
</a>
</g>
</g>
<!-- Node5 -->
<g id="Node000005" class="node">
<title>Node5</title>
<g id="a_Node000005"><a xlink:href="class_moderator_heat_source_transient_aux.html" target="_top" xlink:title=" ">
<polygon fill="white" stroke="#666666" points="264.5,-167.25 96.25,-167.25 96.25,-148 264.5,-148 264.5,-167.25"/>
<text text-anchor="middle" x="180.38" y="-153.75" font-family="Helvetica,sans-Serif" font-size="10.00">ModeratorHeatSourceTransientAux</text>
</a>
</g>
</g>
<!-- Node0&#45;&gt;Node5 -->
<g id="edge16_Node000000_Node000005" class="edge">
<title>Node0&#45;&gt;Node5</title>
<g id="a_edge16_Node000000_Node000005"><a xlink:title=" ">
<path fill="none" stroke="#63b8ff" d="M71.82,-157.62C79.43,-157.62 87.63,-157.62 95.99,-157.62"/>
<polygon fill="#63b8ff" stroke="#63b8ff" points="71.93,-154.13 61.93,-157.63 71.93,-161.13 71.93,-154.13"/>
</a>
</g>
</g>
<!-- Node6 -->
<g id="Node000006" class="node">
<title>Node6</title>
<g id="a_Node000006"><a xlink:href="class_s_a_turbulent_viscosity_aux.html" target="_top" xlink:title=" ">
<polygon fill="white" stroke="#666666" points="243.5,-130.25 117.25,-130.25 117.25,-111 243.5,-111 243.5,-130.25"/>
<text text-anchor="middle" x="180.38" y="-116.75" font-family="Helvetica,sans-Serif" font-size="10.00">SATurbulentViscosityAux</text>
</a>
</g>
</g>
<!-- Node0&#45;&gt;Node6 -->
<g id="edge17_Node000000_Node000006" class="edge">
<title>Node0&#45;&gt;Node6</title>
<g id="a_edge17_Node000000_Node000006"><a xlink:title=" ">
<path fill="none" stroke="#63b8ff" d="M71.37,-145.4C79.57,-143.05 88.17,-140.68 96.25,-138.62 107.13,-135.86 118.87,-133.16 130.01,-130.71"/>
<polygon fill="#63b8ff" stroke="#63b8ff" points="70.58,-141.99 61.96,-148.15 72.54,-148.71 70.58,-141.99"/>
</a>
</g>
</g>
<!-- Node7 -->
<g id="Node000007" class="node">
<title>Node7</title>
<g id="a_Node000007"><a xlink:href="class_turbulent_stress_aux.html" target="_top" xlink:title=" ">
<polygon fill="white" stroke="#666666" points="231.12,-93.25 129.62,-93.25 129.62,-74 231.12,-74 231.12,-93.25"/>
<text text-anchor="middle" x="180.38" y="-79.75" font-family="Helvetica,sans-Serif" font-size="10.00">TurbulentStressAux</text>
</a>
</g>
</g>
<!-- Node0&#45;&gt;Node7 -->
<g id="edge18_Node000000_Node000007" class="edge">
<title>Node0&#45;&gt;Node7</title>
<g id="a_edge18_Node000000_Node000007"><a xlink:title=" ">
<path fill="none" stroke="#63b8ff" d="M47.61,-139.28C59.83,-126.8 77.56,-110.93 96.25,-101.62 106.43,-96.56 118.01,-92.91 129.22,-90.29"/>
<polygon fill="#63b8ff" stroke="#63b8ff" points="45.09,-136.85 40.78,-146.53 50.18,-141.65 45.09,-136.85"/>
</a>
</g>
</g>
<!-- Node8 -->
<g id="Node000008" class="node">
<title>Node8</title>
<g id="a_Node000008"><a xlink:href="class_wall_distance_aux.html" target="_top" xlink:title=" ">
<polygon fill="white" stroke="#666666" points="225.12,-56.25 135.62,-56.25 135.62,-37 225.12,-37 225.12,-56.25"/>
<text text-anchor="middle" x="180.38" y="-42.75" font-family="Helvetica,sans-Serif" font-size="10.00">WallDistanceAux</text>
</a>
</g>
</g>
<!-- Node0&#45;&gt;Node8 -->
<g id="edge19_Node000000_Node000008" class="edge">
<title>Node0&#45;&gt;Node8</title>
<g id="a_edge19_Node000000_Node000008"><a xlink:title=" ">
<path fill="none" stroke="#63b8ff" d="M39.8,-137.33C50.07,-115.83 69.25,-82.57 96.25,-64.62 107.81,-56.94 122.09,-52.47 135.53,-49.9"/>
<polygon fill="#63b8ff" stroke="#63b8ff" points="36.7,-135.7 35.76,-146.25 43.07,-138.59 36.7,-135.7"/>
</a>
</g>
</g>
<!-- Node9 -->
<g id="Node000009" class="node">
<title>Node9</title>
<g id="a_Node000009"><a xlink:href="class_wall_shear_stress_aux.html" target="_top" xlink:title=" ">
<polygon fill="white" stroke="#666666" points="233,-19.25 127.75,-19.25 127.75,0 233,0 233,-19.25"/>
<text text-anchor="middle" x="180.38" y="-5.75" font-family="Helvetica,sans-Serif" font-size="10.00">WallShearStressAux</text>
</a>
</g>
</g>
<!-- Node0&#45;&gt;Node9 -->
<g id="edge20_Node000000_Node000009" class="edge">
<title>Node0&#45;&gt;Node9</title>
<g id="a_edge20_Node000000_Node000009"><a xlink:title=" ">
<path fill="none" stroke="#63b8ff" d="M35.63,-136.69C43.03,-107.55 60.65,-55.24 96.25,-27.62 105.23,-20.66 116.33,-16.25 127.46,-13.5"/>
<polygon fill="#63b8ff" stroke="#63b8ff" points="32.29,-135.61 33.4,-146.15 39.1,-137.21 32.29,-135.61"/>
</a>
</g>
</g>
</g>
</svg>
