<?xml version="1.0" encoding="UTF-8" standalone="no"?>
<!DOCTYPE svg PUBLIC "-//W3C//DTD SVG 1.1//EN"
 "http://www.w3.org/Graphics/SVG/1.1/DTD/svg11.dtd">
<!-- Generated by graphviz version 7.0.5 (20221223.1930)
 -->
<!-- Title: Graphical Class Hierarchy Pages: 1 -->
<svg width="274pt" height="175pt"
 viewBox="0.00 0.00 274.00 175.00" xmlns="http://www.w3.org/2000/svg" xmlns:xlink="http://www.w3.org/1999/xlink">
<g id="graph0" class="graph" transform="scale(1 1) rotate(0) translate(4 171)">
<title>Graphical Class Hierarchy</title>
<!-- Node0 -->
<g id="node1" class="node">
<title>Node0</title>
<g id="a_node1"><a xlink:title=" ">
<polygon fill="#e0e0e0" stroke="#999999" points="61,-93 0,-93 0,-74 61,-74 61,-93"/>
<text text-anchor="middle" x="30.5" y="-81" font-family="Helvetica,sans-Serif" font-size="10.00">AuxKernel</text>
</a>
</g>
</g>
<!-- Node1 -->
<g id="node2" class="node">
<title>Node1</title>
<g id="a_node2"><a xlink:href="class_constant_difference_aux.html" target="_top" xlink:title=" ">
<polygon fill="white" stroke="#666666" points="239.5,-167 123.5,-167 123.5,-148 239.5,-148 239.5,-167"/>
<text text-anchor="middle" x="181.5" y="-155" font-family="Helvetica,sans-Serif" font-size="10.00">ConstantDifferenceAux</text>
</a>
</g>
</g>
<!-- Node0&#45;&gt;Node1 -->
<g id="edge1" class="edge">
<title>Node0&#45;&gt;Node1</title>
<path fill="none" stroke="#63b8ff" d="M48.09,-101.84C60.4,-114.32 78.23,-130.2 97,-139.5 105.11,-143.51 114.09,-146.64 123.07,-149.07"/>
<polygon fill="#63b8ff" stroke="#63b8ff" points="50.64,-99.44 41.22,-94.6 45.56,-104.26 50.64,-99.44"/>
</g>
<!-- Node2 -->
<g id="node3" class="node">
<title>Node2</title>
<g id="a_node3"><a xlink:href="class_fission_heat_source_aux.html" target="_top" xlink:title=" ">
<polygon fill="white" stroke="#666666" points="239.5,-130 123.5,-130 123.5,-111 239.5,-111 239.5,-130"/>
<text text-anchor="middle" x="181.5" y="-118" font-family="Helvetica,sans-Serif" font-size="10.00">FissionHeatSourceAux</text>
</a>
</g>
</g>
<!-- Node0&#45;&gt;Node2 -->
<g id="edge2" class="edge">
<title>Node0&#45;&gt;Node2</title>
<path fill="none" stroke="#63b8ff" d="M72.22,-95.79C80.39,-98.12 88.95,-100.47 97,-102.5 108.07,-105.3 120.04,-108.04 131.36,-110.51"/>
<polygon fill="#63b8ff" stroke="#63b8ff" points="73.41,-92.49 62.83,-93.07 71.46,-99.21 73.41,-92.49"/>
</g>
<!-- Node3 -->
<g id="node4" class="node">
<title>Node3</title>
<g id="a_node4"><a xlink:href="class_fission_heat_source_transient_aux.html" target="_top" xlink:title=" ">
<polygon fill="white" stroke="#666666" points="260,-93 103,-93 103,-74 260,-74 260,-93"/>
<text text-anchor="middle" x="181.5" y="-81" font-family="Helvetica,sans-Serif" font-size="10.00">FissionHeatSourceTransientAux</text>
</a>
</g>
</g>
<!-- Node0&#45;&gt;Node3 -->
<g id="edge3" class="edge">
<title>Node0&#45;&gt;Node3</title>
<path fill="none" stroke="#63b8ff" d="M72.63,-83.5C82,-83.5 92.26,-83.5 102.61,-83.5"/>
<polygon fill="#63b8ff" stroke="#63b8ff" points="72.81,-80 62.81,-83.5 72.81,-87 72.81,-80"/>
</g>
<!-- Node4 -->
<g id="node5" class="node">
<title>Node4</title>
<g id="a_node5"><a xlink:href="class_mat_diffusion_aux.html" target="_top" xlink:title=" ">
<polygon fill="white" stroke="#666666" points="225,-56 138,-56 138,-37 225,-37 225,-56"/>
<text text-anchor="middle" x="181.5" y="-44" font-family="Helvetica,sans-Serif" font-size="10.00">MatDiffusionAux</text>
</a>
</g>
</g>
<!-- Node0&#45;&gt;Node4 -->
<g id="edge4" class="edge">
<title>Node0&#45;&gt;Node4</title>
<path fill="none" stroke="#63b8ff" d="M72.26,-72C80.44,-69.77 88.98,-67.51 97,-65.5 110.12,-62.21 124.47,-58.85 137.5,-55.9"/>
<polygon fill="#63b8ff" stroke="#63b8ff" points="71.6,-68.55 62.88,-74.57 73.45,-75.3 71.6,-68.55"/>
</g>
<!-- Node5 -->
<g id="node6" class="node">
<title>Node5</title>
<g id="a_node6"><a xlink:href="class_moderator_heat_source_transient_aux.html" target="_top" xlink:title=" ">
<polygon fill="white" stroke="#666666" points="266,-19 97,-19 97,0 266,0 266,-19"/>
<text text-anchor="middle" x="181.5" y="-7" font-family="Helvetica,sans-Serif" font-size="10.00">ModeratorHeatSourceTransientAux</text>
</a>
</g>
</g>
<!-- Node0&#45;&gt;Node5 -->
<g id="edge5" class="edge">
<title>Node0&#45;&gt;Node5</title>
<path fill="none" stroke="#63b8ff" d="M48.19,-65.56C60.53,-53.33 78.38,-37.75 97,-28.5 104.46,-24.8 112.65,-21.8 120.89,-19.39"/>
<polygon fill="#63b8ff" stroke="#63b8ff" points="45.76,-63.03 41.29,-72.64 50.77,-67.92 45.76,-63.03"/>
</g>
</g>
</svg>
