<?xml version="1.0" encoding="UTF-8" standalone="no"?>
<!DOCTYPE svg PUBLIC "-//W3C//DTD SVG 1.1//EN"
 "http://www.w3.org/Graphics/SVG/1.1/DTD/svg11.dtd">
<!-- Generated by graphviz version 9.0.0 (20230911.1827)
 -->
<!-- Title: Graphical Class Hierarchy Pages: 1 -->
<svg width="705pt" height="1322pt"
 viewBox="0.00 0.00 705.00 1322.25" xmlns="http://www.w3.org/2000/svg" xmlns:xlink="http://www.w3.org/1999/xlink">
<g id="graph0" class="graph" transform="scale(1 1) rotate(0) translate(4 1318.25)">
<title>Graphical Class Hierarchy</title>
<!-- Node0 -->
<g id="Node000000" class="node">
<title>Node0</title>
<g id="a_Node000000"><a xlink:title=" ">
<polygon fill="#e0e0e0" stroke="#999999" points="107.12,-1277.25 39.38,-1277.25 39.38,-1258 107.12,-1258 107.12,-1277.25"/>
<text text-anchor="middle" x="73.25" y="-1263.75" font-family="Helvetica,sans-Serif" font-size="10.00">EigenKernel</text>
</a>
</g>
</g>
<!-- Node1 -->
<g id="Node000001" class="node">
<title>Node1</title>
<g id="a_Node000001"><a xlink:href="class_coupled_fission_eigen_kernel.html" target="_top" xlink:title=" ">
<polygon fill="white" stroke="#666666" points="333.12,-1277.25 198.62,-1277.25 198.62,-1258 333.12,-1258 333.12,-1277.25"/>
<text text-anchor="middle" x="265.88" y="-1263.75" font-family="Helvetica,sans-Serif" font-size="10.00">CoupledFissionEigenKernel</text>
</a>
</g>
</g>
<!-- Node0&#45;&gt;Node1 -->
<g id="edge24_Node000000_Node000001" class="edge">
<title>Node0&#45;&gt;Node1</title>
<g id="a_edge24_Node000000_Node000001"><a xlink:title=" ">
<path fill="none" stroke="#63b8ff" d="M118.92,-1267.62C142.61,-1267.62 172.19,-1267.62 198.51,-1267.62"/>
<polygon fill="#63b8ff" stroke="#63b8ff" points="118.97,-1264.13 108.97,-1267.63 118.97,-1271.13 118.97,-1264.13"/>
</a>
</g>
</g>
<!-- Node40 -->
<g id="Node000040" class="node">
<title>Node40</title>
<g id="a_Node000040"><a xlink:href="class_precursor_eigen_source.html" target="_top" xlink:title=" ">
<polygon fill="white" stroke="#666666" points="322.25,-1240.25 209.5,-1240.25 209.5,-1221 322.25,-1221 322.25,-1240.25"/>
<text text-anchor="middle" x="265.88" y="-1226.75" font-family="Helvetica,sans-Serif" font-size="10.00">PrecursorEigenSource</text>
</a>
</g>
</g>
<!-- Node0&#45;&gt;Node40 -->
<g id="edge25_Node000000_Node000040" class="edge">
<title>Node0&#45;&gt;Node40</title>
<g id="a_edge25_Node000000_Node000040"><a xlink:title=" ">
<path fill="none" stroke="#63b8ff" d="M118.6,-1259.02C146.81,-1253.54 183.47,-1246.43 213.03,-1240.69"/>
<polygon fill="#63b8ff" stroke="#63b8ff" points="118.09,-1255.55 108.94,-1260.89 119.42,-1262.42 118.09,-1255.55"/>
</a>
</g>
</g>
<!-- Node46 -->
<g id="Node000046" class="node">
<title>Node46</title>
<g id="a_Node000046"><a xlink:href="class_self_fission_eigen_kernel.html" target="_top" xlink:title=" ">
<polygon fill="white" stroke="#666666" points="324.12,-1314.25 207.62,-1314.25 207.62,-1295 324.12,-1295 324.12,-1314.25"/>
<text text-anchor="middle" x="265.88" y="-1300.75" font-family="Helvetica,sans-Serif" font-size="10.00">SelfFissionEigenKernel</text>
</a>
</g>
</g>
<!-- Node0&#45;&gt;Node46 -->
<g id="edge26_Node000000_Node000046" class="edge">
<title>Node0&#45;&gt;Node46</title>
<g id="a_edge26_Node000000_Node000046"><a xlink:title=" ">
<path fill="none" stroke="#63b8ff" d="M118.6,-1276.23C146.81,-1281.71 183.47,-1288.82 213.03,-1294.56"/>
<polygon fill="#63b8ff" stroke="#63b8ff" points="119.42,-1272.83 108.94,-1274.36 118.09,-1279.7 119.42,-1272.83"/>
</a>
</g>
</g>
<!-- Node35 -->
<g id="Node000035" class="node">
<title>Node35</title>
<g id="a_Node000035"><a xlink:title=" ">
<polygon fill="#e0e0e0" stroke="#999999" points="146.5,-1166.25 0,-1166.25 0,-1147 146.5,-1147 146.5,-1166.25"/>
<text text-anchor="middle" x="73.25" y="-1152.75" font-family="Helvetica,sans-Serif" font-size="10.00">ElementIntegralPostprocessor</text>
</a>
</g>
</g>
<!-- Node36 -->
<g id="Node000036" class="node">
<title>Node36</title>
<g id="a_Node000036"><a xlink:href="class_elm_integ_tot_fiss_nts_postprocessor.html" target="_top" xlink:title=" ">
<polygon fill="white" stroke="#666666" points="348.88,-1203.25 182.88,-1203.25 182.88,-1184 348.88,-1184 348.88,-1203.25"/>
<text text-anchor="middle" x="265.88" y="-1189.75" font-family="Helvetica,sans-Serif" font-size="10.00">ElmIntegTotFissNtsPostprocessor</text>
</a>
</g>
</g>
<!-- Node35&#45;&gt;Node36 -->
<g id="edge27_Node000035_Node000036" class="edge">
<title>Node35&#45;&gt;Node36</title>
<g id="a_edge27_Node000035_Node000036"><a xlink:title=" ">
<path fill="none" stroke="#63b8ff" d="M137.34,-1168.87C161.83,-1173.62 189.53,-1179 212.85,-1183.53"/>
<polygon fill="#63b8ff" stroke="#63b8ff" points="138.31,-1165.49 127.82,-1167.02 136.97,-1172.37 138.31,-1165.49"/>
</a>
</g>
</g>
<!-- Node32 -->
<g id="Node000032" class="node">
<title>Node32</title>
<g id="a_Node000032"><a xlink:href="class_elm_integ_tot_fiss_postprocessor.html" target="_top" xlink:title=" ">
<polygon fill="white" stroke="#666666" points="341,-1018.25 190.75,-1018.25 190.75,-999 341,-999 341,-1018.25"/>
<text text-anchor="middle" x="265.88" y="-1004.75" font-family="Helvetica,sans-Serif" font-size="10.00">ElmIntegTotFissPostprocessor</text>
</a>
</g>
</g>
<!-- Node35&#45;&gt;Node32 -->
<g id="edge28_Node000035_Node000032" class="edge">
<title>Node35&#45;&gt;Node32</title>
<g id="a_edge28_Node000035_Node000032"><a xlink:title=" ">
<path fill="none" stroke="#63b8ff" d="M144.54,-1140.36C145.21,-1139.8 145.86,-1139.22 146.5,-1138.62 184.69,-1102.91 143.8,-1061.78 182.5,-1026.62 185.97,-1023.48 189.85,-1020.83 194,-1018.62"/>
<polygon fill="#63b8ff" stroke="#63b8ff" points="142.74,-1137.35 136.35,-1145.8 146.61,-1143.18 142.74,-1137.35"/>
</a>
</g>
</g>
<!-- Node37 -->
<g id="Node000037" class="node">
<title>Node37</title>
<g id="a_Node000037"><a xlink:href="class_integral_new_variable_postprocessor.html" target="_top" xlink:title=" ">
<polygon fill="white" stroke="#666666" points="349.25,-1166.25 182.5,-1166.25 182.5,-1147 349.25,-1147 349.25,-1166.25"/>
<text text-anchor="middle" x="265.88" y="-1152.75" font-family="Helvetica,sans-Serif" font-size="10.00">IntegralNewVariablePostprocessor</text>
</a>
</g>
</g>
<!-- Node35&#45;&gt;Node37 -->
<g id="edge31_Node000035_Node000037" class="edge">
<title>Node35&#45;&gt;Node37</title>
<g id="a_edge31_Node000035_Node000037"><a xlink:title=" ">
<path fill="none" stroke="#63b8ff" d="M158.1,-1156.62C166.13,-1156.62 174.26,-1156.62 182.27,-1156.62"/>
<polygon fill="#63b8ff" stroke="#63b8ff" points="158.37,-1153.13 148.37,-1156.63 158.37,-1160.13 158.37,-1153.13"/>
</a>
</g>
</g>
<!-- Node39 -->
<g id="Node000039" class="node">
<title>Node39</title>
<g id="a_Node000039"><a xlink:href="class_integral_old_variable_postprocessor.html" target="_top" xlink:title=" ">
<polygon fill="white" stroke="#666666" points="346.62,-1129.25 185.12,-1129.25 185.12,-1110 346.62,-1110 346.62,-1129.25"/>
<text text-anchor="middle" x="265.88" y="-1115.75" font-family="Helvetica,sans-Serif" font-size="10.00">IntegralOldVariablePostprocessor</text>
</a>
</g>
</g>
<!-- Node35&#45;&gt;Node39 -->
<g id="edge32_Node000035_Node000039" class="edge">
<title>Node35&#45;&gt;Node39</title>
<g id="a_edge32_Node000035_Node000039"><a xlink:title=" ">
<path fill="none" stroke="#63b8ff" d="M137.34,-1144.38C161.83,-1139.63 189.53,-1134.25 212.85,-1129.72"/>
<polygon fill="#63b8ff" stroke="#63b8ff" points="136.97,-1140.88 127.82,-1146.23 138.31,-1147.76 136.97,-1140.88"/>
</a>
</g>
</g>
<!-- Node33 -->
<g id="Node000033" class="node">
<title>Node33</title>
<g id="a_Node000033"><a xlink:href="class_elm_integ_tot_fiss_heat_postprocessor.html" target="_top" xlink:title=" ">
<polygon fill="white" stroke="#666666" points="556.5,-1018.25 385.25,-1018.25 385.25,-999 556.5,-999 556.5,-1018.25"/>
<text text-anchor="middle" x="470.88" y="-1004.75" font-family="Helvetica,sans-Serif" font-size="10.00">ElmIntegTotFissHeatPostprocessor</text>
</a>
</g>
</g>
<!-- Node32&#45;&gt;Node33 -->
<g id="edge29_Node000032_Node000033" class="edge">
<title>Node32&#45;&gt;Node33</title>
<g id="a_edge29_Node000032_Node000033"><a xlink:title=" ">
<path fill="none" stroke="#63b8ff" d="M352.72,-1008.62C363.34,-1008.62 374.19,-1008.62 384.8,-1008.62"/>
<polygon fill="#63b8ff" stroke="#63b8ff" points="352.83,-1005.13 342.83,-1008.63 352.83,-1012.13 352.83,-1005.13"/>
</a>
</g>
</g>
<!-- Node34 -->
<g id="Node000034" class="node">
<title>Node34</title>
<g id="a_Node000034"><a xlink:href="class_average_fission_heat.html" target="_top" xlink:title=" ">
<polygon fill="white" stroke="#666666" points="697,-1018.25 592.5,-1018.25 592.5,-999 697,-999 697,-1018.25"/>
<text text-anchor="middle" x="644.75" y="-1004.75" font-family="Helvetica,sans-Serif" font-size="10.00">AverageFissionHeat</text>
</a>
</g>
</g>
<!-- Node33&#45;&gt;Node34 -->
<g id="edge30_Node000033_Node000034" class="edge">
<title>Node33&#45;&gt;Node34</title>
<g id="a_edge30_Node000033_Node000034"><a xlink:title=" ">
<path fill="none" stroke="#63b8ff" d="M568.2,-1008.62C576.52,-1008.62 584.71,-1008.62 592.44,-1008.62"/>
<polygon fill="#63b8ff" stroke="#63b8ff" points="568.32,-1005.13 558.32,-1008.63 568.32,-1012.13 568.32,-1005.13"/>
</a>
</g>
</g>
<!-- Node23 -->
<g id="Node000023" class="node">
<title>Node23</title>
<g id="a_Node000023"><a xlink:title=" ">
<polygon fill="#e0e0e0" stroke="#999999" points="109.75,-907.25 36.75,-907.25 36.75,-888 109.75,-888 109.75,-907.25"/>
<text text-anchor="middle" x="73.25" y="-893.75" font-family="Helvetica,sans-Serif" font-size="10.00">IntegratedBC</text>
</a>
</g>
</g>
<!-- Node24 -->
<g id="Node000024" class="node">
<title>Node24</title>
<g id="a_Node000024"><a xlink:href="class_conservative_advection_no_b_c_b_c.html" target="_top" xlink:title=" ">
<polygon fill="white" stroke="#666666" points="344,-1055.25 187.75,-1055.25 187.75,-1036 344,-1036 344,-1055.25"/>
<text text-anchor="middle" x="265.88" y="-1041.75" font-family="Helvetica,sans-Serif" font-size="10.00">ConservativeAdvectionNoBCBC</text>
</a>
</g>
</g>
<!-- Node23&#45;&gt;Node24 -->
<g id="edge33_Node000023_Node000024" class="edge">
<title>Node23&#45;&gt;Node24</title>
<g id="a_edge33_Node000023_Node000024"><a xlink:title=" ">
<path fill="none" stroke="#63b8ff" d="M85.01,-917.51C101.81,-946.54 137.09,-1000.05 182.5,-1027.62 187.76,-1030.82 193.5,-1033.45 199.44,-1035.61"/>
<polygon fill="#63b8ff" stroke="#63b8ff" points="88.18,-916.01 80.24,-909.01 82.08,-919.44 88.18,-916.01"/>
</a>
</g>
</g>
<!-- Node25 -->
<g id="Node000025" class="node">
<title>Node25</title>
<g id="a_Node000025"><a xlink:href="class_coupled_outflow_b_c.html" target="_top" xlink:title=" ">
<polygon fill="white" stroke="#666666" points="314.75,-981.25 217,-981.25 217,-962 314.75,-962 314.75,-981.25"/>
<text text-anchor="middle" x="265.88" y="-967.75" font-family="Helvetica,sans-Serif" font-size="10.00">CoupledOutflowBC</text>
</a>
</g>
</g>
<!-- Node23&#45;&gt;Node25 -->
<g id="edge34_Node000023_Node000025" class="edge">
<title>Node23&#45;&gt;Node25</title>
<g id="a_edge34_Node000023_Node000025"><a xlink:title=" ">
<path fill="none" stroke="#63b8ff" d="M99.77,-913.27C121.18,-925.79 152.91,-942.95 182.5,-953.62 193.38,-957.55 205.39,-960.77 216.79,-963.34"/>
<polygon fill="#63b8ff" stroke="#63b8ff" points="101.84,-910.42 91.45,-908.32 98.26,-916.44 101.84,-910.42"/>
</a>
</g>
</g>
<!-- Node22 -->
<g id="Node000022" class="node">
<title>Node22</title>
<g id="a_Node000022"><a xlink:href="class_coupled_scalar_advection_no_b_c_b_c.html" target="_top" xlink:title=" ">
<polygon fill="white" stroke="#666666" points="347,-796.25 184.75,-796.25 184.75,-777 347,-777 347,-796.25"/>
<text text-anchor="middle" x="265.88" y="-782.75" font-family="Helvetica,sans-Serif" font-size="10.00">CoupledScalarAdvectionNoBCBC</text>
</a>
</g>
</g>
<!-- Node23&#45;&gt;Node22 -->
<g id="edge35_Node000023_Node000022" class="edge">
<title>Node23&#45;&gt;Node22</title>
<g id="a_edge35_Node000023_Node000022"><a xlink:title=" ">
<path fill="none" stroke="#63b8ff" d="M90.28,-879.17C109.86,-857.85 145.03,-823.31 182.5,-804.62 188.92,-801.42 195.9,-798.79 202.99,-796.62"/>
<polygon fill="#63b8ff" stroke="#63b8ff" points="87.73,-876.77 83.66,-886.55 92.95,-881.44 87.73,-876.77"/>
</a>
</g>
</g>
<!-- Node26 -->
<g id="Node000026" class="node">
<title>Node26</title>
<g id="a_Node000026"><a xlink:href="class_diffusion_no_b_c_b_c.html" target="_top" xlink:title=" ">
<polygon fill="white" stroke="#666666" points="312.5,-944.25 219.25,-944.25 219.25,-925 312.5,-925 312.5,-944.25"/>
<text text-anchor="middle" x="265.88" y="-930.75" font-family="Helvetica,sans-Serif" font-size="10.00">DiffusionNoBCBC</text>
</a>
</g>
</g>
<!-- Node23&#45;&gt;Node26 -->
<g id="edge36_Node000023_Node000026" class="edge">
<title>Node23&#45;&gt;Node26</title>
<g id="a_edge36_Node000023_Node000026"><a xlink:title=" ">
<path fill="none" stroke="#63b8ff" d="M121.08,-906.72C150.93,-912.51 189.42,-919.98 219.06,-925.73"/>
<polygon fill="#63b8ff" stroke="#63b8ff" points="122.07,-903.34 111.59,-904.87 120.74,-910.21 122.07,-903.34"/>
</a>
</g>
</g>
<!-- Node27 -->
<g id="Node000027" class="node">
<title>Node27</title>
<g id="a_Node000027"><a xlink:href="class_lin_log_penalty_dirichlet_b_c.html" target="_top" xlink:title=" ">
<polygon fill="white" stroke="#666666" points="329.38,-759.25 202.38,-759.25 202.38,-740 329.38,-740 329.38,-759.25"/>
<text text-anchor="middle" x="265.88" y="-745.75" font-family="Helvetica,sans-Serif" font-size="10.00">LinLogPenaltyDirichletBC</text>
</a>
</g>
</g>
<!-- Node23&#45;&gt;Node27 -->
<g id="edge37_Node000023_Node000027" class="edge">
<title>Node23&#45;&gt;Node27</title>
<g id="a_edge37_Node000023_Node000027"><a xlink:title=" ">
<path fill="none" stroke="#63b8ff" d="M85.01,-877.74C101.81,-848.71 137.09,-795.2 182.5,-767.62 188.51,-763.98 195.16,-761.07 202,-758.74"/>
<polygon fill="#63b8ff" stroke="#63b8ff" points="82.08,-875.81 80.24,-886.24 88.18,-879.24 82.08,-875.81"/>
</a>
</g>
</g>
<!-- Node28 -->
<g id="Node000028" class="node">
<title>Node28</title>
<g id="a_Node000028"><a xlink:href="class_mat_diffusion_flux_b_c.html" target="_top" xlink:title=" ">
<polygon fill="white" stroke="#666666" points="316.62,-907.25 215.12,-907.25 215.12,-888 316.62,-888 316.62,-907.25"/>
<text text-anchor="middle" x="265.88" y="-893.75" font-family="Helvetica,sans-Serif" font-size="10.00">MatDiffusionFluxBC</text>
</a>
</g>
</g>
<!-- Node23&#45;&gt;Node28 -->
<g id="edge38_Node000023_Node000028" class="edge">
<title>Node23&#45;&gt;Node28</title>
<g id="a_edge38_Node000023_Node000028"><a xlink:title=" ">
<path fill="none" stroke="#63b8ff" d="M121.36,-897.62C149.75,-897.62 185.89,-897.62 214.79,-897.62"/>
<polygon fill="#63b8ff" stroke="#63b8ff" points="121.62,-894.13 111.62,-897.63 121.62,-901.13 121.62,-894.13"/>
</a>
</g>
</g>
<!-- Node29 -->
<g id="Node000029" class="node">
<title>Node29</title>
<g id="a_Node000029"><a xlink:href="class_postprocessor_coupled_inflow_b_c.html" target="_top" xlink:title=" ">
<polygon fill="white" stroke="#666666" points="342.5,-1092.25 189.25,-1092.25 189.25,-1073 342.5,-1073 342.5,-1092.25"/>
<text text-anchor="middle" x="265.88" y="-1078.75" font-family="Helvetica,sans-Serif" font-size="10.00">PostprocessorCoupledInflowBC</text>
</a>
</g>
</g>
<!-- Node23&#45;&gt;Node29 -->
<g id="edge39_Node000023_Node000029" class="edge">
<title>Node23&#45;&gt;Node29</title>
<g id="a_edge39_Node000023_Node000029"><a xlink:title=" ">
<path fill="none" stroke="#63b8ff" d="M81.45,-917.99C95.19,-953.7 128.64,-1027.35 182.5,-1064.62 187.07,-1067.79 192.11,-1070.41 197.36,-1072.58"/>
<polygon fill="#63b8ff" stroke="#63b8ff" points="84.83,-917.03 78.08,-908.86 78.26,-919.46 84.83,-917.03"/>
</a>
</g>
</g>
<!-- Node30 -->
<g id="Node000030" class="node">
<title>Node30</title>
<g id="a_Node000030"><a xlink:href="class_scalar_advection_art_diff_no_b_c_b_c.html" target="_top" xlink:title=" ">
<polygon fill="white" stroke="#666666" points="342.88,-870.25 188.88,-870.25 188.88,-851 342.88,-851 342.88,-870.25"/>
<text text-anchor="middle" x="265.88" y="-856.75" font-family="Helvetica,sans-Serif" font-size="10.00">ScalarAdvectionArtDiffNoBCBC</text>
</a>
</g>
</g>
<!-- Node23&#45;&gt;Node30 -->
<g id="edge40_Node000023_Node000030" class="edge">
<title>Node23&#45;&gt;Node30</title>
<g id="a_edge40_Node000023_Node000030"><a xlink:title=" ">
<path fill="none" stroke="#63b8ff" d="M121.15,-888.52C148.98,-883.12 184.32,-876.26 212.98,-870.7"/>
<polygon fill="#63b8ff" stroke="#63b8ff" points="120.74,-885.04 111.59,-890.38 122.07,-891.91 120.74,-885.04"/>
</a>
</g>
</g>
<!-- Node31 -->
<g id="Node000031" class="node">
<title>Node31</title>
<g id="a_Node000031"><a xlink:href="class_vacuum_conc_b_c.html" target="_top" xlink:title=" ">
<polygon fill="white" stroke="#666666" points="309.88,-833.25 221.88,-833.25 221.88,-814 309.88,-814 309.88,-833.25"/>
<text text-anchor="middle" x="265.88" y="-819.75" font-family="Helvetica,sans-Serif" font-size="10.00">VacuumConcBC</text>
</a>
</g>
</g>
<!-- Node23&#45;&gt;Node31 -->
<g id="edge41_Node000023_Node000031" class="edge">
<title>Node23&#45;&gt;Node31</title>
<g id="a_edge41_Node000023_Node000031"><a xlink:title=" ">
<path fill="none" stroke="#63b8ff" d="M99.77,-881.98C121.18,-869.46 152.91,-852.3 182.5,-841.62 194.89,-837.15 208.75,-833.6 221.52,-830.87"/>
<polygon fill="#63b8ff" stroke="#63b8ff" points="98.26,-878.81 91.45,-886.93 101.84,-884.83 98.26,-878.81"/>
</a>
</g>
</g>
<!-- Node4 -->
<g id="Node000004" class="node">
<title>Node4</title>
<g id="a_Node000004"><a xlink:title=" ">
<polygon fill="#e0e0e0" stroke="#999999" points="95.12,-408.25 51.38,-408.25 51.38,-389 95.12,-389 95.12,-408.25"/>
<text text-anchor="middle" x="73.25" y="-394.75" font-family="Helvetica,sans-Serif" font-size="10.00">Kernel</text>
</a>
</g>
</g>
<!-- Node5 -->
<g id="Node000005" class="node">
<title>Node5</title>
<g id="a_Node000005"><a xlink:href="class_convective_heat_exchanger.html" target="_top" xlink:title=" ">
<polygon fill="white" stroke="#666666" points="331.25,-93.25 200.5,-93.25 200.5,-74 331.25,-74 331.25,-93.25"/>
<text text-anchor="middle" x="265.88" y="-79.75" font-family="Helvetica,sans-Serif" font-size="10.00">ConvectiveHeatExchanger</text>
</a>
</g>
</g>
<!-- Node4&#45;&gt;Node5 -->
<g id="edge42_Node000004_Node000005" class="edge">
<title>Node4&#45;&gt;Node5</title>
<g id="a_edge42_Node000004_Node000005"><a xlink:title=" ">
<path fill="none" stroke="#63b8ff" d="M80.58,-377.74C100.29,-313.3 160.52,-120.84 182.5,-101.62 187.68,-97.1 193.74,-93.63 200.17,-90.97"/>
<polygon fill="#63b8ff" stroke="#63b8ff" points="77.31,-376.48 77.74,-387.07 84,-378.52 77.31,-376.48"/>
</a>
</g>
</g>
<!-- Node3 -->
<g id="Node000003" class="node">
<title>Node3</title>
<g id="a_Node000003"><a xlink:href="class_coupled_fission_kernel.html" target="_top" xlink:title=" ">
<polygon fill="white" stroke="#666666" points="321.12,-648.25 210.62,-648.25 210.62,-629 321.12,-629 321.12,-648.25"/>
<text text-anchor="middle" x="265.88" y="-634.75" font-family="Helvetica,sans-Serif" font-size="10.00">CoupledFissionKernel</text>
</a>
</g>
</g>
<!-- Node4&#45;&gt;Node3 -->
<g id="edge43_Node000004_Node000003" class="edge">
<title>Node4&#45;&gt;Node3</title>
<g id="a_edge43_Node000004_Node000003"><a xlink:title=" ">
<path fill="none" stroke="#63b8ff" d="M81.66,-419.25C99.93,-469.04 148.16,-593.64 182.5,-620.62 190.56,-626.96 200.37,-631.17 210.37,-633.95"/>
<polygon fill="#63b8ff" stroke="#63b8ff" points="84.99,-418.19 78.29,-409.99 78.42,-420.58 84.99,-418.19"/>
</a>
</g>
</g>
<!-- Node6 -->
<g id="Node000006" class="node">
<title>Node6</title>
<g id="a_Node000006"><a xlink:href="class_coupled_scalar_advection.html" target="_top" xlink:title=" ">
<polygon fill="white" stroke="#666666" points="327.12,-611.25 204.62,-611.25 204.62,-592 327.12,-592 327.12,-611.25"/>
<text text-anchor="middle" x="265.88" y="-597.75" font-family="Helvetica,sans-Serif" font-size="10.00">CoupledScalarAdvection</text>
</a>
</g>
</g>
<!-- Node4&#45;&gt;Node6 -->
<g id="edge44_Node000004_Node000006" class="edge">
<title>Node4&#45;&gt;Node6</title>
<g id="a_edge44_Node000004_Node000006"><a xlink:title=" ">
<path fill="none" stroke="#63b8ff" d="M80.29,-419.54C92.64,-458.39 124.63,-541.59 182.5,-583.62 189.01,-588.36 196.53,-591.89 204.32,-594.51"/>
<polygon fill="#63b8ff" stroke="#63b8ff" points="83.66,-418.58 77.4,-410.04 76.96,-420.62 83.66,-418.58"/>
</a>
</g>
</g>
<!-- Node7 -->
<g id="Node000007" class="node">
<title>Node7</title>
<g id="a_Node000007"><a xlink:href="class_decay_heat_source.html" target="_top" xlink:title=" ">
<polygon fill="white" stroke="#666666" points="313.25,-574.25 218.5,-574.25 218.5,-555 313.25,-555 313.25,-574.25"/>
<text text-anchor="middle" x="265.88" y="-560.75" font-family="Helvetica,sans-Serif" font-size="10.00">DecayHeatSource</text>
</a>
</g>
</g>
<!-- Node4&#45;&gt;Node7 -->
<g id="edge45_Node000004_Node000007" class="edge">
<title>Node4&#45;&gt;Node7</title>
<g id="a_edge45_Node000004_Node000007"><a xlink:title=" ">
<path fill="none" stroke="#63b8ff" d="M83.16,-418.92C98.5,-451.34 133.08,-514.44 182.5,-546.62 193.05,-553.49 205.81,-557.78 218.1,-560.44"/>
<polygon fill="#63b8ff" stroke="#63b8ff" points="86.36,-417.49 79.02,-409.85 79.99,-420.4 86.36,-417.49"/>
</a>
</g>
</g>
<!-- Node8 -->
<g id="Node000008" class="node">
<title>Node8</title>
<g id="a_Node000008"><a xlink:href="class_delayed_neutron_source.html" target="_top" xlink:title=" ">
<polygon fill="white" stroke="#666666" points="323.75,-537.25 208,-537.25 208,-518 323.75,-518 323.75,-537.25"/>
<text text-anchor="middle" x="265.88" y="-523.75" font-family="Helvetica,sans-Serif" font-size="10.00">DelayedNeutronSource</text>
</a>
</g>
</g>
<!-- Node4&#45;&gt;Node8 -->
<g id="edge46_Node000004_Node000008" class="edge">
<title>Node4&#45;&gt;Node8</title>
<g id="a_edge46_Node000004_Node000008"><a xlink:title=" ">
<path fill="none" stroke="#63b8ff" d="M87.29,-417.73C105.53,-442.9 141.13,-486.67 182.5,-509.62 190.31,-513.96 199.07,-517.25 207.89,-519.74"/>
<polygon fill="#63b8ff" stroke="#63b8ff" points="90.26,-415.88 81.64,-409.72 84.54,-419.91 90.26,-415.88"/>
</a>
</g>
</g>
<!-- Node9 -->
<g id="Node000009" class="node">
<title>Node9</title>
<g id="a_Node000009"><a xlink:href="class_div_free_coupled_scalar_advection.html" target="_top" xlink:title=" ">
<polygon fill="white" stroke="#666666" points="344,-500.25 187.75,-500.25 187.75,-481 344,-481 344,-500.25"/>
<text text-anchor="middle" x="265.88" y="-486.75" font-family="Helvetica,sans-Serif" font-size="10.00">DivFreeCoupledScalarAdvection</text>
</a>
</g>
</g>
<!-- Node4&#45;&gt;Node9 -->
<g id="edge47_Node000004_Node000009" class="edge">
<title>Node4&#45;&gt;Node9</title>
<g id="a_edge47_Node000004_Node000009"><a xlink:title=" ">
<path fill="none" stroke="#63b8ff" d="M94.51,-416.04C115.26,-432.99 149.12,-458.22 182.5,-472.62 189.76,-475.76 197.62,-478.37 205.51,-480.54"/>
<polygon fill="#63b8ff" stroke="#63b8ff" points="96.77,-413.38 86.85,-409.66 92.29,-418.75 96.77,-413.38"/>
</a>
</g>
</g>
<!-- Node10 -->
<g id="Node000010" class="node">
<title>Node10</title>
<g id="a_Node000010"><a xlink:href="class_fission_heat_source.html" target="_top" xlink:title=" ">
<polygon fill="white" stroke="#666666" points="315.5,-19.25 216.25,-19.25 216.25,0 315.5,0 315.5,-19.25"/>
<text text-anchor="middle" x="265.88" y="-5.75" font-family="Helvetica,sans-Serif" font-size="10.00">FissionHeatSource</text>
</a>
</g>
</g>
<!-- Node4&#45;&gt;Node10 -->
<g id="edge48_Node000004_Node000010" class="edge">
<title>Node4&#45;&gt;Node10</title>
<g id="a_edge48_Node000004_Node000010"><a xlink:title=" ">
<path fill="none" stroke="#63b8ff" d="M81.63,-377.8C95.35,-338.68 125.34,-251.39 146.5,-176.62 165.06,-111.07 133.8,-75.27 182.5,-27.62 191.5,-18.82 203.75,-13.9 216.05,-11.25"/>
<polygon fill="#63b8ff" stroke="#63b8ff" points="78.37,-376.51 78.35,-387.1 84.97,-378.84 78.37,-376.51"/>
</a>
</g>
</g>
<!-- Node11 -->
<g id="Node000011" class="node">
<title>Node11</title>
<g id="a_Node000011"><a xlink:href="class_gamma_heat_source.html" target="_top" xlink:title=" ">
<polygon fill="white" stroke="#666666" points="317,-204.25 214.75,-204.25 214.75,-185 317,-185 317,-204.25"/>
<text text-anchor="middle" x="265.88" y="-190.75" font-family="Helvetica,sans-Serif" font-size="10.00">GammaHeatSource</text>
</a>
</g>
</g>
<!-- Node4&#45;&gt;Node11 -->
<g id="edge49_Node000004_Node000011" class="edge">
<title>Node4&#45;&gt;Node11</title>
<g id="a_edge49_Node000004_Node000011"><a xlink:title=" ">
<path fill="none" stroke="#63b8ff" d="M80.25,-377.6C92.55,-338.54 124.45,-254.9 182.5,-212.62 191.85,-205.82 203.27,-201.5 214.6,-198.78"/>
<polygon fill="#63b8ff" stroke="#63b8ff" points="76.91,-376.58 77.38,-387.16 83.61,-378.59 76.91,-376.58"/>
</a>
</g>
</g>
<!-- Node12 -->
<g id="Node000012" class="node">
<title>Node12</title>
<g id="a_Node000012"><a xlink:href="class_group_diffusion.html" target="_top" xlink:title=" ">
<polygon fill="white" stroke="#666666" points="305.75,-463.25 226,-463.25 226,-444 305.75,-444 305.75,-463.25"/>
<text text-anchor="middle" x="265.88" y="-449.75" font-family="Helvetica,sans-Serif" font-size="10.00">GroupDiffusion</text>
</a>
</g>
</g>
<!-- Node4&#45;&gt;Node12 -->
<g id="edge50_Node000004_Node000012" class="edge">
<title>Node4&#45;&gt;Node12</title>
<g id="a_edge50_Node000004_Node000012"><a xlink:title=" ">
<path fill="none" stroke="#63b8ff" d="M106.34,-410.67C127.72,-418.43 156.56,-428.38 182.5,-435.62 196.46,-439.52 211.94,-443.1 225.68,-446.02"/>
<polygon fill="#63b8ff" stroke="#63b8ff" points="107.6,-407.41 97.01,-407.25 105.19,-413.98 107.6,-407.41"/>
</a>
</g>
</g>
<!-- Node13 -->
<g id="Node000013" class="node">
<title>Node13</title>
<g id="a_Node000013"><a xlink:href="class_heat_precursor_decay.html" target="_top" xlink:title=" ">
<polygon fill="white" stroke="#666666" points="318.88,-426.25 212.88,-426.25 212.88,-407 318.88,-407 318.88,-426.25"/>
<text text-anchor="middle" x="265.88" y="-412.75" font-family="Helvetica,sans-Serif" font-size="10.00">HeatPrecursorDecay</text>
</a>
</g>
</g>
<!-- Node4&#45;&gt;Node13 -->
<g id="edge51_Node000004_Node000013" class="edge">
<title>Node4&#45;&gt;Node13</title>
<g id="a_edge51_Node000004_Node000013"><a xlink:title=" ">
<path fill="none" stroke="#63b8ff" d="M106.52,-401.67C135.58,-404.42 178.81,-408.5 212.77,-411.7"/>
<polygon fill="#63b8ff" stroke="#63b8ff" points="107.17,-398.22 96.89,-400.76 106.51,-405.19 107.17,-398.22"/>
</a>
</g>
</g>
<!-- Node14 -->
<g id="Node000014" class="node">
<title>Node14</title>
<g id="a_Node000014"><a xlink:href="class_heat_precursor_source.html" target="_top" xlink:title=" ">
<polygon fill="white" stroke="#666666" points="320.75,-389.25 211,-389.25 211,-370 320.75,-370 320.75,-389.25"/>
<text text-anchor="middle" x="265.88" y="-375.75" font-family="Helvetica,sans-Serif" font-size="10.00">HeatPrecursorSource</text>
</a>
</g>
</g>
<!-- Node4&#45;&gt;Node14 -->
<g id="edge52_Node000004_Node000014" class="edge">
<title>Node4&#45;&gt;Node14</title>
<g id="a_edge52_Node000004_Node000014"><a xlink:title=" ">
<path fill="none" stroke="#63b8ff" d="M106.69,-395.39C135.18,-392.55 177.19,-388.36 210.76,-385.02"/>
<polygon fill="#63b8ff" stroke="#63b8ff" points="106.49,-391.89 96.88,-396.37 107.18,-398.86 106.49,-391.89"/>
</a>
</g>
</g>
<!-- Node15 -->
<g id="Node000015" class="node">
<title>Node15</title>
<g id="a_Node000015"><a xlink:href="class_i_n_s_boussinesq_body_force.html" target="_top" xlink:title=" ">
<polygon fill="white" stroke="#666666" points="331.25,-130.25 200.5,-130.25 200.5,-111 331.25,-111 331.25,-130.25"/>
<text text-anchor="middle" x="265.88" y="-116.75" font-family="Helvetica,sans-Serif" font-size="10.00">INSBoussinesqBodyForce</text>
</a>
</g>
</g>
<!-- Node4&#45;&gt;Node15 -->
<g id="edge53_Node000004_Node000015" class="edge">
<title>Node4&#45;&gt;Node15</title>
<g id="a_edge53_Node000004_Node000015"><a xlink:title=" ">
<path fill="none" stroke="#63b8ff" d="M76.51,-377.53C83.03,-327.69 106.54,-202.05 182.5,-138.62 187.78,-134.22 193.9,-130.82 200.37,-128.21"/>
<polygon fill="#63b8ff" stroke="#63b8ff" points="73.06,-376.89 75.35,-387.23 80.01,-377.72 73.06,-376.89"/>
</a>
</g>
</g>
<!-- Node16 -->
<g id="Node000016" class="node">
<title>Node16</title>
<g id="a_Node000016"><a xlink:href="class_in_scatter.html" target="_top" xlink:title=" ">
<polygon fill="white" stroke="#666666" points="293.75,-352.25 238,-352.25 238,-333 293.75,-333 293.75,-352.25"/>
<text text-anchor="middle" x="265.88" y="-338.75" font-family="Helvetica,sans-Serif" font-size="10.00">InScatter</text>
</a>
</g>
</g>
<!-- Node4&#45;&gt;Node16 -->
<g id="edge54_Node000004_Node000016" class="edge">
<title>Node4&#45;&gt;Node16</title>
<g id="a_edge54_Node000004_Node000016"><a xlink:title=" ">
<path fill="none" stroke="#63b8ff" d="M106.31,-386.21C127.68,-378.22 156.51,-368 182.5,-360.62 200.67,-355.47 221.44,-350.94 237.58,-347.72"/>
<polygon fill="#63b8ff" stroke="#63b8ff" points="105.1,-382.92 96.98,-389.73 107.57,-389.47 105.1,-382.92"/>
</a>
</g>
</g>
<!-- Node17 -->
<g id="Node000017" class="node">
<title>Node17</title>
<g id="a_Node000017"><a xlink:href="class_precursor_decay.html" target="_top" xlink:title=" ">
<polygon fill="white" stroke="#666666" points="308.38,-315.25 223.38,-315.25 223.38,-296 308.38,-296 308.38,-315.25"/>
<text text-anchor="middle" x="265.88" y="-301.75" font-family="Helvetica,sans-Serif" font-size="10.00">PrecursorDecay</text>
</a>
</g>
</g>
<!-- Node4&#45;&gt;Node17 -->
<g id="edge55_Node000004_Node000017" class="edge">
<title>Node4&#45;&gt;Node17</title>
<g id="a_edge55_Node000004_Node000017"><a xlink:title=" ">
<path fill="none" stroke="#63b8ff" d="M94.13,-381.24C114.82,-364.05 148.84,-338.28 182.5,-323.62 195.25,-318.08 209.88,-314.17 223.24,-311.44"/>
<polygon fill="#63b8ff" stroke="#63b8ff" points="91.88,-378.56 86.51,-387.7 96.4,-383.9 91.88,-378.56"/>
</a>
</g>
</g>
<!-- Node18 -->
<g id="Node000018" class="node">
<title>Node18</title>
<g id="a_Node000018"><a xlink:href="class_precursor_source.html" target="_top" xlink:title=" ">
<polygon fill="white" stroke="#666666" points="310.25,-278.25 221.5,-278.25 221.5,-259 310.25,-259 310.25,-278.25"/>
<text text-anchor="middle" x="265.88" y="-264.75" font-family="Helvetica,sans-Serif" font-size="10.00">PrecursorSource</text>
</a>
</g>
</g>
<!-- Node4&#45;&gt;Node18 -->
<g id="edge56_Node000004_Node000018" class="edge">
<title>Node4&#45;&gt;Node18</title>
<g id="a_edge56_Node000004_Node000018"><a xlink:title=" ">
<path fill="none" stroke="#63b8ff" d="M87.25,-379.35C105.44,-353.94 140.99,-309.78 182.5,-286.62 194.26,-280.06 208.21,-275.9 221.25,-273.24"/>
<polygon fill="#63b8ff" stroke="#63b8ff" points="84.46,-377.23 81.61,-387.43 90.2,-381.23 84.46,-377.23"/>
</a>
</g>
</g>
<!-- Node19 -->
<g id="Node000019" class="node">
<title>Node19</title>
<g id="a_Node000019"><a xlink:href="class_scalar_advection_art_diff.html" target="_top" xlink:title=" ">
<polygon fill="white" stroke="#666666" points="323,-241.25 208.75,-241.25 208.75,-222 323,-222 323,-241.25"/>
<text text-anchor="middle" x="265.88" y="-227.75" font-family="Helvetica,sans-Serif" font-size="10.00">ScalarAdvectionArtDiff</text>
</a>
</g>
</g>
<!-- Node4&#45;&gt;Node19 -->
<g id="edge57_Node000004_Node000019" class="edge">
<title>Node4&#45;&gt;Node19</title>
<g id="a_edge57_Node000004_Node000019"><a xlink:title=" ">
<path fill="none" stroke="#63b8ff" d="M82.92,-378.63C98.11,-346.12 132.7,-282.17 182.5,-249.62 190.34,-244.5 199.41,-240.81 208.61,-238.16"/>
<polygon fill="#63b8ff" stroke="#63b8ff" points="79.92,-376.78 78.99,-387.33 86.3,-379.66 79.92,-376.78"/>
</a>
</g>
</g>
<!-- Node20 -->
<g id="Node000020" class="node">
<title>Node20</title>
<g id="a_Node000020"><a xlink:href="class_sigma_r.html" target="_top" xlink:title=" ">
<polygon fill="white" stroke="#666666" points="291.12,-722.25 240.62,-722.25 240.62,-703 291.12,-703 291.12,-722.25"/>
<text text-anchor="middle" x="265.88" y="-708.75" font-family="Helvetica,sans-Serif" font-size="10.00">SigmaR</text>
</a>
</g>
</g>
<!-- Node4&#45;&gt;Node20 -->
<g id="edge58_Node000004_Node000020" class="edge">
<title>Node4&#45;&gt;Node20</title>
<g id="a_edge58_Node000004_Node000020"><a xlink:title=" ">
<path fill="none" stroke="#63b8ff" d="M82.68,-418.85C96.61,-452.57 125.05,-522.48 146.5,-582.62 164.06,-631.87 143.8,-659.47 182.5,-694.62 198.1,-708.8 222.22,-712.72 240.33,-713.44"/>
<polygon fill="#63b8ff" stroke="#63b8ff" points="86.03,-417.81 78.97,-409.91 79.57,-420.49 86.03,-417.81"/>
</a>
</g>
</g>
<!-- Node21 -->
<g id="Node000021" class="node">
<title>Node21</title>
<g id="a_Node000021"><a xlink:href="class_transient_fission_heat_source.html" target="_top" xlink:title=" ">
<polygon fill="white" stroke="#666666" points="335.75,-685.25 196,-685.25 196,-666 335.75,-666 335.75,-685.25"/>
<text text-anchor="middle" x="265.88" y="-671.75" font-family="Helvetica,sans-Serif" font-size="10.00">TransientFissionHeatSource</text>
</a>
</g>
</g>
<!-- Node4&#45;&gt;Node21 -->
<g id="edge59_Node000004_Node000021" class="edge">
<title>Node4&#45;&gt;Node21</title>
<g id="a_edge59_Node000004_Node000021"><a xlink:title=" ">
<path fill="none" stroke="#63b8ff" d="M82.21,-419.11C105.53,-478.88 172.63,-649.4 182.5,-657.62 186.55,-661 191.09,-663.78 195.9,-666.07"/>
<polygon fill="#63b8ff" stroke="#63b8ff" points="85.6,-418.17 78.71,-410.12 79.08,-420.71 85.6,-418.17"/>
</a>
</g>
</g>
<!-- Node38 -->
<g id="Node000038" class="node">
<title>Node38</title>
<g id="a_Node000038"><a xlink:title=" ">
<polygon fill="#e0e0e0" stroke="#999999" points="132.62,-1129.25 13.88,-1129.25 13.88,-1110 132.62,-1110 132.62,-1129.25"/>
<text text-anchor="middle" x="73.25" y="-1115.75" font-family="Helvetica,sans-Serif" font-size="10.00">MooseVariableInterface</text>
</a>
</g>
</g>
<!-- Node38&#45;&gt;Node37 -->
<g id="edge60_Node000038_Node000037" class="edge">
<title>Node38&#45;&gt;Node37</title>
<g id="a_edge60_Node000038_Node000037"><a xlink:title=" ">
<path fill="none" stroke="#63b8ff" d="M137.34,-1131.87C161.83,-1136.62 189.53,-1142 212.85,-1146.53"/>
<polygon fill="#63b8ff" stroke="#63b8ff" points="138.31,-1128.49 127.82,-1130.02 136.97,-1135.37 138.31,-1128.49"/>
</a>
</g>
</g>
<!-- Node38&#45;&gt;Node39 -->
<g id="edge61_Node000038_Node000039" class="edge">
<title>Node38&#45;&gt;Node39</title>
<g id="a_edge61_Node000038_Node000039"><a xlink:title=" ">
<path fill="none" stroke="#63b8ff" d="M144.39,-1119.62C157.58,-1119.62 171.47,-1119.62 184.93,-1119.62"/>
<polygon fill="#63b8ff" stroke="#63b8ff" points="144.51,-1116.13 134.51,-1119.63 144.51,-1123.13 144.51,-1116.13"/>
</a>
</g>
</g>
<!-- Node2 -->
<g id="Node000002" class="node">
<title>Node2</title>
<g id="a_Node000002"><a xlink:href="class_scalar_transport_base.html" target="_top" xlink:title=" ">
<polygon fill="white" stroke="#666666" points="127,-611.25 19.5,-611.25 19.5,-592 127,-592 127,-611.25"/>
<text text-anchor="middle" x="73.25" y="-597.75" font-family="Helvetica,sans-Serif" font-size="10.00">ScalarTransportBase</text>
</a>
</g>
</g>
<!-- Node2&#45;&gt;Node1 -->
<g id="edge62_Node000002_Node000001" class="edge">
<title>Node2&#45;&gt;Node1</title>
<g id="a_edge62_Node000002_Node000001"><a xlink:title=" ">
<path fill="none" stroke="#63b8ff" d="M80.87,-622.38C95.21,-668.14 129.21,-781.36 146.5,-878.62 161,-960.18 127.5,-1187.69 182.5,-1249.62 186.87,-1254.55 192.26,-1258.3 198.16,-1261.14"/>
<polygon fill="#63b8ff" stroke="#63b8ff" points="84.26,-621.48 77.91,-613 77.59,-623.59 84.26,-621.48"/>
</a>
</g>
</g>
<!-- Node2&#45;&gt;Node40 -->
<g id="edge78_Node000002_Node000040" class="edge">
<title>Node2&#45;&gt;Node40</title>
<g id="a_edge78_Node000002_Node000040"><a xlink:title=" ">
<path fill="none" stroke="#63b8ff" d="M80.8,-622.39C94.98,-668.18 128.69,-781.45 146.5,-878.62 159.96,-952.05 132.63,-1157.07 182.5,-1212.62 189.54,-1220.47 199.14,-1225.32 209.29,-1228.25"/>
<polygon fill="#63b8ff" stroke="#63b8ff" points="84.19,-621.51 77.87,-613.01 77.51,-623.6 84.19,-621.51"/>
</a>
</g>
</g>
<!-- Node2&#45;&gt;Node32 -->
<g id="edge69_Node000002_Node000032" class="edge">
<title>Node2&#45;&gt;Node32</title>
<g id="a_edge69_Node000002_Node000032"><a xlink:title=" ">
<path fill="none" stroke="#63b8ff" d="M79.73,-622.42C100.76,-702.13 175.5,-984.01 182.5,-990.62 185.8,-993.74 189.5,-996.37 193.47,-998.58"/>
<polygon fill="#63b8ff" stroke="#63b8ff" points="83.15,-621.68 77.22,-612.9 76.38,-623.47 83.15,-621.68"/>
</a>
</g>
</g>
<!-- Node2&#45;&gt;Node37 -->
<g id="edge74_Node000002_Node000037" class="edge">
<title>Node2&#45;&gt;Node37</title>
<g id="a_edge74_Node000002_Node000037"><a xlink:title=" ">
<path fill="none" stroke="#63b8ff" d="M80.58,-622.44C94.32,-668.3 127.23,-781.73 146.5,-878.62 157.88,-935.83 142.88,-1095.81 182.5,-1138.62 185.38,-1141.74 188.67,-1144.38 192.23,-1146.62"/>
<polygon fill="#63b8ff" stroke="#63b8ff" points="83.98,-621.6 77.74,-613.04 77.28,-623.62 83.98,-621.6"/>
</a>
</g>
</g>
<!-- Node2&#45;&gt;Node39 -->
<g id="edge75_Node000002_Node000039" class="edge">
<title>Node2&#45;&gt;Node39</title>
<g id="a_edge75_Node000002_Node000039"><a xlink:title=" ">
<path fill="none" stroke="#63b8ff" d="M80.41,-622.47C93.84,-668.4 126.14,-781.96 146.5,-878.62 156.85,-927.74 148,-1065.17 182.5,-1101.62 185.42,-1104.71 188.73,-1107.32 192.31,-1109.54"/>
<polygon fill="#63b8ff" stroke="#63b8ff" points="83.83,-621.66 77.65,-613.06 77.11,-623.64 83.83,-621.66"/>
</a>
</g>
</g>
<!-- Node2&#45;&gt;Node22 -->
<g id="edge65_Node000002_Node000022" class="edge">
<title>Node2&#45;&gt;Node22</title>
<g id="a_edge65_Node000002_Node000022"><a xlink:title=" ">
<path fill="none" stroke="#63b8ff" d="M81.45,-621.99C95.19,-657.7 128.64,-731.35 182.5,-768.62 187.07,-771.79 192.11,-774.41 197.36,-776.58"/>
<polygon fill="#63b8ff" stroke="#63b8ff" points="84.83,-621.03 78.08,-612.86 78.26,-623.46 84.83,-621.03"/>
</a>
</g>
</g>
<!-- Node2&#45;&gt;Node27 -->
<g id="edge76_Node000002_Node000027" class="edge">
<title>Node2&#45;&gt;Node27</title>
<g id="a_edge76_Node000002_Node000027"><a xlink:title=" ">
<path fill="none" stroke="#63b8ff" d="M85.01,-621.51C101.81,-650.54 137.09,-704.05 182.5,-731.62 188.51,-735.27 195.16,-738.18 202,-740.51"/>
<polygon fill="#63b8ff" stroke="#63b8ff" points="88.18,-620.01 80.24,-613.01 82.08,-623.44 88.18,-620.01"/>
</a>
</g>
</g>
<!-- Node2&#45;&gt;Node30 -->
<g id="edge81_Node000002_Node000030" class="edge">
<title>Node2&#45;&gt;Node30</title>
<g id="a_edge81_Node000002_Node000030"><a xlink:title=" ">
<path fill="none" stroke="#63b8ff" d="M77.28,-622.77C85.23,-670.06 111.23,-784.77 182.5,-842.62 186.36,-845.76 190.65,-848.38 195.19,-850.57"/>
<polygon fill="#63b8ff" stroke="#63b8ff" points="80.77,-622.39 75.76,-613.05 73.85,-623.47 80.77,-622.39"/>
</a>
</g>
</g>
<!-- Node2&#45;&gt;Node31 -->
<g id="edge87_Node000002_Node000031" class="edge">
<title>Node2&#45;&gt;Node31</title>
<g id="a_edge87_Node000002_Node000031"><a xlink:title=" ">
<path fill="none" stroke="#63b8ff" d="M79.11,-622.63C89.93,-664.49 120.13,-758.31 182.5,-805.62 193.7,-814.12 208.08,-818.77 221.68,-821.27"/>
<polygon fill="#63b8ff" stroke="#63b8ff" points="82.55,-621.98 76.77,-613.11 75.75,-623.65 82.55,-621.98"/>
</a>
</g>
</g>
<!-- Node2&#45;&gt;Node3 -->
<g id="edge63_Node000002_Node000003" class="edge">
<title>Node2&#45;&gt;Node3</title>
<g id="a_edge63_Node000002_Node000003"><a xlink:title=" ">
<path fill="none" stroke="#63b8ff" d="M137.34,-613.87C161.83,-618.62 189.53,-624 212.85,-628.53"/>
<polygon fill="#63b8ff" stroke="#63b8ff" points="138.31,-610.49 127.82,-612.02 136.97,-617.37 138.31,-610.49"/>
</a>
</g>
</g>
<!-- Node2&#45;&gt;Node6 -->
<g id="edge64_Node000002_Node000006" class="edge">
<title>Node2&#45;&gt;Node6</title>
<g id="a_edge64_Node000002_Node000006"><a xlink:title=" ">
<path fill="none" stroke="#63b8ff" d="M138.85,-601.62C160.03,-601.62 183.46,-601.62 204.33,-601.62"/>
<polygon fill="#63b8ff" stroke="#63b8ff" points="138.86,-598.13 128.86,-601.63 138.86,-605.13 138.86,-598.13"/>
</a>
</g>
</g>
<!-- Node2&#45;&gt;Node7 -->
<g id="edge66_Node000002_Node000007" class="edge">
<title>Node2&#45;&gt;Node7</title>
<g id="a_edge66_Node000002_Node000007"><a xlink:title=" ">
<path fill="none" stroke="#63b8ff" d="M137.37,-589.37C163.7,-584.26 193.75,-578.43 218.06,-573.71"/>
<polygon fill="#63b8ff" stroke="#63b8ff" points="136.97,-585.88 127.82,-591.23 138.31,-592.76 136.97,-585.88"/>
</a>
</g>
</g>
<!-- Node2&#45;&gt;Node8 -->
<g id="edge67_Node000002_Node000008" class="edge">
<title>Node2&#45;&gt;Node8</title>
<g id="a_edge67_Node000002_Node000008"><a xlink:title=" ">
<path fill="none" stroke="#63b8ff" d="M99.77,-585.98C121.18,-573.46 152.91,-556.3 182.5,-545.62 191.04,-542.54 200.27,-539.9 209.36,-537.66"/>
<polygon fill="#63b8ff" stroke="#63b8ff" points="98.26,-582.81 91.45,-590.93 101.84,-588.83 98.26,-582.81"/>
</a>
</g>
</g>
<!-- Node2&#45;&gt;Node9 -->
<g id="edge68_Node000002_Node000009" class="edge">
<title>Node2&#45;&gt;Node9</title>
<g id="a_edge68_Node000002_Node000009"><a xlink:title=" ">
<path fill="none" stroke="#63b8ff" d="M90.28,-583.17C109.86,-561.85 145.03,-527.31 182.5,-508.62 188.92,-505.42 195.9,-502.79 202.99,-500.62"/>
<polygon fill="#63b8ff" stroke="#63b8ff" points="87.73,-580.77 83.66,-590.55 92.95,-585.44 87.73,-580.77"/>
</a>
</g>
</g>
<!-- Node2&#45;&gt;Node12 -->
<g id="edge70_Node000002_Node000012" class="edge">
<title>Node2&#45;&gt;Node12</title>
<g id="a_edge70_Node000002_Node000012"><a xlink:title=" ">
<path fill="none" stroke="#63b8ff" d="M85.01,-581.74C101.81,-552.71 137.09,-499.2 182.5,-471.62 195.39,-463.8 211.24,-459.36 225.58,-456.84"/>
<polygon fill="#63b8ff" stroke="#63b8ff" points="82.08,-579.81 80.24,-590.24 88.18,-583.24 82.08,-579.81"/>
</a>
</g>
</g>
<!-- Node2&#45;&gt;Node13 -->
<g id="edge71_Node000002_Node000013" class="edge">
<title>Node2&#45;&gt;Node13</title>
<g id="a_edge71_Node000002_Node000013"><a xlink:title=" ">
<path fill="none" stroke="#63b8ff" d="M81.45,-581.26C95.19,-545.55 128.64,-471.9 182.5,-434.62 191.41,-428.46 202.05,-424.36 212.68,-421.63"/>
<polygon fill="#63b8ff" stroke="#63b8ff" points="78.26,-579.79 78.08,-590.39 84.83,-582.22 78.26,-579.79"/>
</a>
</g>
</g>
<!-- Node2&#45;&gt;Node14 -->
<g id="edge72_Node000002_Node000014" class="edge">
<title>Node2&#45;&gt;Node14</title>
<g id="a_edge72_Node000002_Node000014"><a xlink:title=" ">
<path fill="none" stroke="#63b8ff" d="M79.11,-580.62C89.93,-538.76 120.13,-444.94 182.5,-397.62 190.66,-391.43 200.52,-387.28 210.54,-384.51"/>
<polygon fill="#63b8ff" stroke="#63b8ff" points="75.75,-579.6 76.77,-590.14 82.55,-581.27 75.75,-579.6"/>
</a>
</g>
</g>
<!-- Node2&#45;&gt;Node16 -->
<g id="edge73_Node000002_Node000016" class="edge">
<title>Node2&#45;&gt;Node16</title>
<g id="a_edge73_Node000002_Node000016"><a xlink:title=" ">
<path fill="none" stroke="#63b8ff" d="M82.22,-581.15C103.97,-525.68 163.96,-375.67 182.5,-360.62 197.96,-348.08 220.24,-343.78 237.73,-342.51"/>
<polygon fill="#63b8ff" stroke="#63b8ff" points="79.01,-579.74 78.63,-590.33 85.53,-582.29 79.01,-579.74"/>
</a>
</g>
</g>
<!-- Node2&#45;&gt;Node17 -->
<g id="edge77_Node000002_Node000017" class="edge">
<title>Node2&#45;&gt;Node17</title>
<g id="a_edge77_Node000002_Node000017"><a xlink:title=" ">
<path fill="none" stroke="#63b8ff" d="M82.31,-581.26C95.72,-547.35 123.41,-477.16 146.5,-417.62 162.68,-375.91 148.58,-352.79 182.5,-323.62 193.71,-313.99 208.9,-309.15 223.18,-306.83"/>
<polygon fill="#63b8ff" stroke="#63b8ff" points="79.18,-579.67 78.75,-590.26 85.69,-582.25 79.18,-579.67"/>
</a>
</g>
</g>
<!-- Node2&#45;&gt;Node18 -->
<g id="edge79_Node000002_Node000018" class="edge">
<title>Node2&#45;&gt;Node18</title>
<g id="a_edge79_Node000002_Node000018"><a xlink:title=" ">
<path fill="none" stroke="#63b8ff" d="M82.97,-581.5C97.32,-547.93 126.34,-478.21 146.5,-417.62 165.56,-360.33 138.69,-328.17 182.5,-286.62 192.91,-276.75 207.42,-271.8 221.37,-269.45"/>
<polygon fill="#63b8ff" stroke="#63b8ff" points="79.87,-579.83 79.14,-590.4 86.31,-582.59 79.87,-579.83"/>
</a>
</g>
</g>
<!-- Node2&#45;&gt;Node19 -->
<g id="edge80_Node000002_Node000019" class="edge">
<title>Node2&#45;&gt;Node19</title>
<g id="a_edge80_Node000002_Node000019"><a xlink:title=" ">
<path fill="none" stroke="#63b8ff" d="M83.36,-581.62C98.27,-548.23 128.08,-478.76 146.5,-417.62 168.53,-344.51 128.61,-303.73 182.5,-249.62 189.63,-242.47 198.9,-237.86 208.64,-234.95"/>
<polygon fill="#63b8ff" stroke="#63b8ff" points="80.28,-579.92 79.37,-590.47 86.67,-582.79 80.28,-579.92"/>
</a>
</g>
</g>
<!-- Node2&#45;&gt;Node20 -->
<g id="edge84_Node000002_Node000020" class="edge">
<title>Node2&#45;&gt;Node20</title>
<g id="a_edge84_Node000002_Node000020"><a xlink:title=" ">
<path fill="none" stroke="#63b8ff" d="M90.28,-620.08C109.86,-641.4 145.03,-675.94 182.5,-694.62 200.71,-703.7 223.43,-708.23 240.4,-710.47"/>
<polygon fill="#63b8ff" stroke="#63b8ff" points="92.95,-617.81 83.66,-612.7 87.73,-622.48 92.95,-617.81"/>
</a>
</g>
</g>
<!-- Node2&#45;&gt;Node21 -->
<g id="edge86_Node000002_Node000021" class="edge">
<title>Node2&#45;&gt;Node21</title>
<g id="a_edge86_Node000002_Node000021"><a xlink:title=" ">
<path fill="none" stroke="#63b8ff" d="M99.77,-617.27C121.18,-629.79 152.91,-646.95 182.5,-657.62 191.04,-660.71 200.27,-663.35 209.36,-665.59"/>
<polygon fill="#63b8ff" stroke="#63b8ff" points="101.84,-614.42 91.45,-612.32 98.26,-620.44 101.84,-614.42"/>
</a>
</g>
</g>
<!-- Node41 -->
<g id="Node000041" class="node">
<title>Node41</title>
<g id="a_Node000041"><a xlink:href="class_scalar_transport_time_derivative.html" target="_top" xlink:title=" ">
<polygon fill="white" stroke="#666666" points="341,-167.25 190.75,-167.25 190.75,-148 341,-148 341,-167.25"/>
<text text-anchor="middle" x="265.88" y="-153.75" font-family="Helvetica,sans-Serif" font-size="10.00">ScalarTransportTimeDerivative</text>
</a>
</g>
</g>
<!-- Node2&#45;&gt;Node41 -->
<g id="edge82_Node000002_Node000041" class="edge">
<title>Node2&#45;&gt;Node41</title>
<g id="a_edge82_Node000002_Node000041"><a xlink:title=" ">
<path fill="none" stroke="#63b8ff" d="M84.02,-581.26C99.63,-547.87 130.11,-479.02 146.5,-417.62 160.53,-365.1 145.37,-215.34 182.5,-175.62 185.4,-172.52 188.7,-169.89 192.27,-167.67"/>
<polygon fill="#63b8ff" stroke="#63b8ff" points="80.92,-579.62 79.81,-590.16 87.25,-582.61 80.92,-579.62"/>
</a>
</g>
</g>
<!-- Node44 -->
<g id="Node000044" class="node">
<title>Node44</title>
<g id="a_Node000044"><a xlink:href="class_total_neutron_leakage.html" target="_top" xlink:title=" ">
<polygon fill="white" stroke="#666666" points="320.75,-56.25 211,-56.25 211,-37 320.75,-37 320.75,-56.25"/>
<text text-anchor="middle" x="265.88" y="-42.75" font-family="Helvetica,sans-Serif" font-size="10.00">TotalNeutronLeakage</text>
</a>
</g>
</g>
<!-- Node2&#45;&gt;Node44 -->
<g id="edge85_Node000002_Node000044" class="edge">
<title>Node2&#45;&gt;Node44</title>
<g id="a_edge85_Node000002_Node000044"><a xlink:title=" ">
<path fill="none" stroke="#63b8ff" d="M84.34,-581.34C100.41,-548.07 131.52,-479.38 146.5,-417.62 165.08,-340.99 130,-123.45 182.5,-64.62 189.81,-56.43 199.91,-51.5 210.53,-48.61"/>
<polygon fill="#63b8ff" stroke="#63b8ff" points="81.26,-579.69 80,-590.21 87.54,-582.77 81.26,-579.69"/>
</a>
</g>
</g>
<!-- Node42 -->
<g id="Node000042" class="node">
<title>Node42</title>
<g id="a_Node000042"><a xlink:href="class_nt_time_derivative.html" target="_top" xlink:title=" ">
<polygon fill="white" stroke="#666666" points="516.75,-167.25 425,-167.25 425,-148 516.75,-148 516.75,-167.25"/>
<text text-anchor="middle" x="470.88" y="-153.75" font-family="Helvetica,sans-Serif" font-size="10.00">NtTimeDerivative</text>
</a>
</g>
</g>
<!-- Node41&#45;&gt;Node42 -->
<g id="edge83_Node000041_Node000042" class="edge">
<title>Node41&#45;&gt;Node42</title>
<g id="a_edge83_Node000041_Node000042"><a xlink:title=" ">
<path fill="none" stroke="#63b8ff" d="M352.58,-157.62C377.36,-157.62 403.42,-157.62 424.67,-157.62"/>
<polygon fill="#63b8ff" stroke="#63b8ff" points="352.83,-154.13 342.83,-157.63 352.83,-161.13 352.83,-154.13"/>
</a>
</g>
</g>
<!-- Node45 -->
<g id="Node000045" class="node">
<title>Node45</title>
<g id="a_Node000045"><a xlink:title=" ">
<polygon fill="#e0e0e0" stroke="#999999" points="138.62,-56.25 7.88,-56.25 7.88,-37 138.62,-37 138.62,-56.25"/>
<text text-anchor="middle" x="73.25" y="-42.75" font-family="Helvetica,sans-Serif" font-size="10.00">SideIntegralPostprocessor</text>
</a>
</g>
</g>
<!-- Node45&#45;&gt;Node44 -->
<g id="edge88_Node000045_Node000044" class="edge">
<title>Node45&#45;&gt;Node44</title>
<g id="a_edge88_Node000045_Node000044"><a xlink:title=" ">
<path fill="none" stroke="#63b8ff" d="M150.44,-46.62C170.61,-46.62 191.98,-46.62 210.72,-46.62"/>
<polygon fill="#63b8ff" stroke="#63b8ff" points="150.57,-43.13 140.57,-46.63 150.57,-50.13 150.57,-43.13"/>
</a>
</g>
</g>
<!-- Node43 -->
<g id="Node000043" class="node">
<title>Node43</title>
<g id="a_Node000043"><a xlink:title=" ">
<polygon fill="#e0e0e0" stroke="#999999" points="106,-167.25 40.5,-167.25 40.5,-148 106,-148 106,-167.25"/>
<text text-anchor="middle" x="73.25" y="-153.75" font-family="Helvetica,sans-Serif" font-size="10.00">TimeKernel</text>
</a>
</g>
</g>
<!-- Node43&#45;&gt;Node41 -->
<g id="edge89_Node000043_Node000041" class="edge">
<title>Node43&#45;&gt;Node41</title>
<g id="a_edge89_Node000043_Node000041"><a xlink:title=" ">
<path fill="none" stroke="#63b8ff" d="M117.55,-157.62C139.09,-157.62 165.74,-157.62 190.43,-157.62"/>
<polygon fill="#63b8ff" stroke="#63b8ff" points="117.67,-154.13 107.67,-157.63 117.67,-161.13 117.67,-154.13"/>
</a>
</g>
</g>
</g>
</svg>
