<?xml version="1.0" encoding="UTF-8" standalone="no"?>
<!DOCTYPE svg PUBLIC "-//W3C//DTD SVG 1.1//EN"
 "http://www.w3.org/Graphics/SVG/1.1/DTD/svg11.dtd">
<!-- Generated by graphviz version 12.2.0 (20241103.1931)
 -->
<!-- Title: Graphical Class Hierarchy Pages: 1 -->
<svg width="588pt" height="143pt"
 viewBox="0.00 0.00 588.00 142.88" xmlns="http://www.w3.org/2000/svg" xmlns:xlink="http://www.w3.org/1999/xlink">
<g id="graph0" class="graph" transform="scale(1 1) rotate(0) translate(4 138.88)">
<title>Graphical Class Hierarchy</title>
<!-- Node0 -->
<g id="Node000000" class="node">
<title>Node0</title>
<g id="a_Node000000"><a xlink:title=" ">
<polygon fill="#e0e0e0" stroke="#999999" points="123.25,-80.25 0,-80.25 0,-61 123.25,-61 123.25,-80.25"/>
<text text-anchor="middle" x="61.62" y="-66.75" font-family="Helvetica,sans-Serif" font-size="10.00">GenericConstantMaterial</text>
</a>
</g>
</g>
<!-- Node1 -->
<g id="Node000001" class="node">
<title>Node1</title>
<g id="a_Node000001"><a xlink:href="class_graphite_two_grp_x_s_function_material.html" target="_top" xlink:title=" ">
<polygon fill="white" stroke="#666666" points="299.38,-134.88 161.12,-134.88 161.12,-104.38 299.38,-104.38 299.38,-134.88"/>
<text text-anchor="start" x="169.12" y="-121.38" font-family="Helvetica,sans-Serif" font-size="10.00">GraphiteTwoGrpXSFunction</text>
<text text-anchor="middle" x="230.25" y="-110.12" font-family="Helvetica,sans-Serif" font-size="10.00">Material</text>
</a>
</g>
</g>
<!-- Node0&#45;&gt;Node1 -->
<g id="edge86_Node000000_Node000001" class="edge">
<title>Node0&#45;&gt;Node1</title>
<g id="a_edge86_Node000000_Node000001"><a xlink:title=" ">
<path fill="none" stroke="#63b8ff" d="M107.63,-83.86C128.66,-90.04 153.84,-97.45 175.82,-103.91"/>
<polygon fill="#63b8ff" stroke="#63b8ff" points="108.78,-80.55 98.2,-81.09 106.8,-87.27 108.78,-80.55"/>
</a>
</g>
</g>
<!-- Node2 -->
<g id="Node000002" class="node">
<title>Node2</title>
<g id="a_Node000002"><a xlink:href="class_msre_fuel_two_grp_x_s_function_material.html" target="_top" xlink:title=" ">
<polygon fill="white" stroke="#666666" points="301.25,-85.88 159.25,-85.88 159.25,-55.38 301.25,-55.38 301.25,-85.88"/>
<text text-anchor="start" x="167.25" y="-72.38" font-family="Helvetica,sans-Serif" font-size="10.00">MsreFuelTwoGrpXSFunction</text>
<text text-anchor="middle" x="230.25" y="-61.12" font-family="Helvetica,sans-Serif" font-size="10.00">Material</text>
</a>
</g>
</g>
<!-- Node0&#45;&gt;Node2 -->
<g id="edge87_Node000000_Node000002" class="edge">
<title>Node0&#45;&gt;Node2</title>
<g id="a_edge87_Node000000_Node000002"><a xlink:title=" ">
<path fill="none" stroke="#63b8ff" d="M135.13,-70.62C143,-70.62 151.01,-70.62 158.85,-70.62"/>
<polygon fill="#63b8ff" stroke="#63b8ff" points="135.24,-67.13 125.24,-70.63 135.24,-74.13 135.24,-67.13"/>
</a>
</g>
</g>
<!-- Node3 -->
<g id="Node000003" class="node">
<title>Node3</title>
<g id="a_Node000003"><a xlink:href="class_nuclear_material.html" target="_top" xlink:title=" ">
<polygon fill="white" stroke="#666666" points="272.38,-37.25 188.12,-37.25 188.12,-18 272.38,-18 272.38,-37.25"/>
<text text-anchor="middle" x="230.25" y="-23.75" font-family="Helvetica,sans-Serif" font-size="10.00">NuclearMaterial</text>
</a>
</g>
</g>
<!-- Node0&#45;&gt;Node3 -->
<g id="edge88_Node000000_Node000003" class="edge">
<title>Node0&#45;&gt;Node3</title>
<g id="a_edge88_Node000000_Node000003"><a xlink:title=" ">
<path fill="none" stroke="#63b8ff" d="M112.72,-57.7C137.52,-51.3 167.03,-43.68 190.14,-37.72"/>
<polygon fill="#63b8ff" stroke="#63b8ff" points="111.96,-54.28 103.16,-60.17 113.71,-61.06 111.96,-54.28"/>
</a>
</g>
</g>
<!-- Node4 -->
<g id="Node000004" class="node">
<title>Node4</title>
<g id="a_Node000004"><a xlink:href="class_generic_moltres_material.html" target="_top" xlink:title=" ">
<polygon fill="white" stroke="#666666" points="453.75,-56.25 337.25,-56.25 337.25,-37 453.75,-37 453.75,-56.25"/>
<text text-anchor="middle" x="395.5" y="-42.75" font-family="Helvetica,sans-Serif" font-size="10.00">GenericMoltresMaterial</text>
</a>
</g>
</g>
<!-- Node3&#45;&gt;Node4 -->
<g id="edge89_Node000003_Node000004" class="edge">
<title>Node3&#45;&gt;Node4</title>
<g id="a_edge89_Node000003_Node000004"><a xlink:title=" ">
<path fill="none" stroke="#63b8ff" d="M284.2,-33.79C301.05,-35.75 319.78,-37.93 336.95,-39.93"/>
<polygon fill="#63b8ff" stroke="#63b8ff" points="284.71,-30.32 274.37,-32.64 283.9,-37.28 284.71,-30.32"/>
</a>
</g>
</g>
<!-- Node8 -->
<g id="Node000008" class="node">
<title>Node8</title>
<g id="a_Node000008"><a xlink:href="class_moltres_json_material.html" target="_top" xlink:title=" ">
<polygon fill="white" stroke="#666666" points="447.38,-19.25 343.62,-19.25 343.62,0 447.38,0 447.38,-19.25"/>
<text text-anchor="middle" x="395.5" y="-5.75" font-family="Helvetica,sans-Serif" font-size="10.00">MoltresJsonMaterial</text>
</a>
</g>
</g>
<!-- Node3&#45;&gt;Node8 -->
<g id="edge93_Node000003_Node000008" class="edge">
<title>Node3&#45;&gt;Node8</title>
<g id="a_edge93_Node000003_Node000008"><a xlink:title=" ">
<path fill="none" stroke="#63b8ff" d="M284.05,-21.8C303.06,-19.71 324.46,-17.35 343.33,-15.27"/>
<polygon fill="#63b8ff" stroke="#63b8ff" points="283.93,-18.3 274.37,-22.87 284.7,-25.25 283.93,-18.3"/>
</a>
</g>
</g>
<!-- Node5 -->
<g id="Node000005" class="node">
<title>Node5</title>
<g id="a_Node000005"><a xlink:href="class_cammi_fuel.html" target="_top" xlink:title=" ">
<polygon fill="white" stroke="#666666" points="567.62,-93.25 502.12,-93.25 502.12,-74 567.62,-74 567.62,-93.25"/>
<text text-anchor="middle" x="534.88" y="-79.75" font-family="Helvetica,sans-Serif" font-size="10.00">CammiFuel</text>
</a>
</g>
</g>
<!-- Node4&#45;&gt;Node5 -->
<g id="edge90_Node000004_Node000005" class="edge">
<title>Node4&#45;&gt;Node5</title>
<g id="a_edge90_Node000004_Node000005"><a xlink:title=" ">
<path fill="none" stroke="#63b8ff" d="M445.14,-59.73C464.01,-64.81 485.09,-70.49 501.97,-75.03"/>
<polygon fill="#63b8ff" stroke="#63b8ff" points="446.07,-56.35 435.5,-57.13 444.25,-63.11 446.07,-56.35"/>
</a>
</g>
</g>
<!-- Node6 -->
<g id="Node000006" class="node">
<title>Node6</title>
<g id="a_Node000006"><a xlink:href="class_cammi_moderator.html" target="_top" xlink:title=" ">
<polygon fill="white" stroke="#666666" points="580,-56.25 489.75,-56.25 489.75,-37 580,-37 580,-56.25"/>
<text text-anchor="middle" x="534.88" y="-42.75" font-family="Helvetica,sans-Serif" font-size="10.00">CammiModerator</text>
</a>
</g>
</g>
<!-- Node4&#45;&gt;Node6 -->
<g id="edge91_Node000004_Node000006" class="edge">
<title>Node4&#45;&gt;Node6</title>
<g id="a_edge91_Node000004_Node000006"><a xlink:title=" ">
<path fill="none" stroke="#63b8ff" d="M465.22,-46.62C473.51,-46.62 481.8,-46.62 489.6,-46.62"/>
<polygon fill="#63b8ff" stroke="#63b8ff" points="465.48,-43.13 455.48,-46.63 465.48,-50.13 465.48,-43.13"/>
</a>
</g>
</g>
<!-- Node7 -->
<g id="Node000007" class="node">
<title>Node7</title>
<g id="a_Node000007"><a xlink:href="class_rodded_material.html" target="_top" xlink:title=" ">
<polygon fill="white" stroke="#666666" points="576.62,-19.25 493.12,-19.25 493.12,0 576.62,0 576.62,-19.25"/>
<text text-anchor="middle" x="534.88" y="-5.75" font-family="Helvetica,sans-Serif" font-size="10.00">RoddedMaterial</text>
</a>
</g>
</g>
<!-- Node4&#45;&gt;Node7 -->
<g id="edge92_Node000004_Node000007" class="edge">
<title>Node4&#45;&gt;Node7</title>
<g id="a_edge92_Node000004_Node000007"><a xlink:title=" ">
<path fill="none" stroke="#63b8ff" d="M444.85,-33.6C461.76,-29.05 480.49,-24 496.38,-19.72"/>
<polygon fill="#63b8ff" stroke="#63b8ff" points="444.25,-30.14 435.5,-36.12 446.07,-36.9 444.25,-30.14"/>
</a>
</g>
</g>
</g>
</svg>
