<?xml version="1.0" encoding="UTF-8" standalone="no"?>
<!DOCTYPE svg PUBLIC "-//W3C//DTD SVG 1.1//EN"
 "http://www.w3.org/Graphics/SVG/1.1/DTD/svg11.dtd">
<!-- Generated by graphviz version 12.2.0 (20241103.1931)
 -->
<!-- Title: Graphical Class Hierarchy Pages: 1 -->
<svg width="240pt" height="212pt"
 viewBox="0.00 0.00 240.25 212.25" xmlns="http://www.w3.org/2000/svg" xmlns:xlink="http://www.w3.org/1999/xlink">
<g id="graph0" class="graph" transform="scale(1 1) rotate(0) translate(4 208.25)">
<title>Graphical Class Hierarchy</title>
<!-- Node0 -->
<g id="Node000000" class="node">
<title>Node0</title>
<g id="a_Node000000"><a xlink:title=" ">
<polygon fill="#e0e0e0" stroke="#999999" points="66.25,-111.25 0,-111.25 0,-92 66.25,-92 66.25,-111.25"/>
<text text-anchor="middle" x="33.12" y="-97.75" font-family="Helvetica,sans-Serif" font-size="10.00">ArrayKernel</text>
</a>
</g>
</g>
<!-- Node1 -->
<g id="Node000001" class="node">
<title>Node1</title>
<g id="a_Node000001"><a xlink:href="class_s_n_collision.html" target="_top" xlink:title=" ">
<polygon fill="white" stroke="#666666" points="200.75,-204.25 133.75,-204.25 133.75,-185 200.75,-185 200.75,-204.25"/>
<text text-anchor="middle" x="167.25" y="-190.75" font-family="Helvetica,sans-Serif" font-size="10.00">SNCollision</text>
</a>
</g>
</g>
<!-- Node0&#45;&gt;Node1 -->
<g id="edge98_Node000000_Node000001" class="edge">
<title>Node0&#45;&gt;Node1</title>
<g id="a_edge98_Node000000_Node000001"><a xlink:title=" ">
<path fill="none" stroke="#63b8ff" d="M46.63,-120.58C58.85,-137.66 78.99,-162.24 102.25,-176.62 111.67,-182.45 123.03,-186.44 133.54,-189.15"/>
<polygon fill="#63b8ff" stroke="#63b8ff" points="49.8,-119.01 41.24,-112.77 44.03,-122.99 49.8,-119.01"/>
</a>
</g>
</g>
<!-- Node2 -->
<g id="Node000002" class="node">
<title>Node2</title>
<g id="a_Node000002"><a xlink:href="class_s_n_delayed_neutron_source.html" target="_top" xlink:title=" ">
<polygon fill="white" stroke="#666666" points="232.25,-167.25 102.25,-167.25 102.25,-148 232.25,-148 232.25,-167.25"/>
<text text-anchor="middle" x="167.25" y="-153.75" font-family="Helvetica,sans-Serif" font-size="10.00">SNDelayedNeutronSource</text>
</a>
</g>
</g>
<!-- Node0&#45;&gt;Node2 -->
<g id="edge99_Node000000_Node000002" class="edge">
<title>Node0&#45;&gt;Node2</title>
<g id="a_edge99_Node000000_Node000002"><a xlink:title=" ">
<path fill="none" stroke="#63b8ff" d="M59.3,-117.54C71.86,-124.98 87.48,-133.53 102.25,-139.62 109.4,-142.58 117.19,-145.21 124.8,-147.5"/>
<polygon fill="#63b8ff" stroke="#63b8ff" points="61.22,-114.61 50.86,-112.41 57.59,-120.59 61.22,-114.61"/>
</a>
</g>
</g>
<!-- Node3 -->
<g id="Node000003" class="node">
<title>Node3</title>
<g id="a_Node000003"><a xlink:href="class_s_n_external_source.html" target="_top" xlink:title=" ">
<polygon fill="white" stroke="#666666" points="215,-130.25 119.5,-130.25 119.5,-111 215,-111 215,-130.25"/>
<text text-anchor="middle" x="167.25" y="-116.75" font-family="Helvetica,sans-Serif" font-size="10.00">SNExternalSource</text>
</a>
</g>
</g>
<!-- Node0&#45;&gt;Node3 -->
<g id="edge100_Node000000_Node000003" class="edge">
<title>Node0&#45;&gt;Node3</title>
<g id="a_edge100_Node000000_Node000003"><a xlink:title=" ">
<path fill="none" stroke="#63b8ff" d="M77.67,-107.89C90.93,-109.79 105.55,-111.9 119.03,-113.83"/>
<polygon fill="#63b8ff" stroke="#63b8ff" points="78.34,-104.45 67.94,-106.49 77.34,-111.38 78.34,-104.45"/>
</a>
</g>
</g>
<!-- Node4 -->
<g id="Node000004" class="node">
<title>Node4</title>
<g id="a_Node000004"><a xlink:href="class_s_n_fission.html" target="_top" xlink:title=" ">
<polygon fill="white" stroke="#666666" points="198.12,-93.25 136.38,-93.25 136.38,-74 198.12,-74 198.12,-93.25"/>
<text text-anchor="middle" x="167.25" y="-79.75" font-family="Helvetica,sans-Serif" font-size="10.00">SNFission</text>
</a>
</g>
</g>
<!-- Node0&#45;&gt;Node4 -->
<g id="edge101_Node000000_Node000004" class="edge">
<title>Node0&#45;&gt;Node4</title>
<g id="a_edge101_Node000000_Node000004"><a xlink:title=" ">
<path fill="none" stroke="#63b8ff" d="M77.62,-95.7C96.76,-93.09 118.78,-90.09 136.07,-87.74"/>
<polygon fill="#63b8ff" stroke="#63b8ff" points="77.38,-92.2 67.95,-97.02 78.33,-99.14 77.38,-92.2"/>
</a>
</g>
</g>
<!-- Node5 -->
<g id="Node000005" class="node">
<title>Node5</title>
<g id="a_Node000005"><a xlink:href="class_s_n_scattering.html" target="_top" xlink:title=" ">
<polygon fill="white" stroke="#666666" points="204.5,-56.25 130,-56.25 130,-37 204.5,-37 204.5,-56.25"/>
<text text-anchor="middle" x="167.25" y="-42.75" font-family="Helvetica,sans-Serif" font-size="10.00">SNScattering</text>
</a>
</g>
</g>
<!-- Node0&#45;&gt;Node5 -->
<g id="edge102_Node000000_Node000005" class="edge">
<title>Node0&#45;&gt;Node5</title>
<g id="a_edge102_Node000000_Node000005"><a xlink:title=" ">
<path fill="none" stroke="#63b8ff" d="M59.85,-85.88C72.33,-78.71 87.73,-70.52 102.25,-64.62 110.91,-61.11 120.5,-58.01 129.56,-55.43"/>
<polygon fill="#63b8ff" stroke="#63b8ff" points="58.29,-82.74 51.45,-90.82 61.84,-88.77 58.29,-82.74"/>
</a>
</g>
</g>
<!-- Node6 -->
<g id="Node000006" class="node">
<title>Node6</title>
<g id="a_Node000006"><a xlink:href="class_s_n_streaming.html" target="_top" xlink:title=" ">
<polygon fill="white" stroke="#666666" points="204.5,-19.25 130,-19.25 130,0 204.5,0 204.5,-19.25"/>
<text text-anchor="middle" x="167.25" y="-5.75" font-family="Helvetica,sans-Serif" font-size="10.00">SNStreaming</text>
</a>
</g>
</g>
<!-- Node0&#45;&gt;Node6 -->
<g id="edge103_Node000000_Node000006" class="edge">
<title>Node0&#45;&gt;Node6</title>
<g id="a_edge103_Node000000_Node000006"><a xlink:title=" ">
<path fill="none" stroke="#63b8ff" d="M46.88,-82.65C59.16,-65.81 79.23,-41.75 102.25,-27.62 110.51,-22.55 120.24,-18.87 129.59,-16.22"/>
<polygon fill="#63b8ff" stroke="#63b8ff" points="44.35,-80.17 41.46,-90.37 50.07,-84.2 44.35,-80.17"/>
</a>
</g>
</g>
</g>
</svg>
