<?xml version="1.0" encoding="UTF-8" standalone="no"?>
<!DOCTYPE svg PUBLIC "-//W3C//DTD SVG 1.1//EN"
 "http://www.w3.org/Graphics/SVG/1.1/DTD/svg11.dtd">
<!-- Generated by graphviz version 7.0.5 (20221223.1930)
 -->
<!-- Title: Graphical Class Hierarchy Pages: 1 -->
<svg width="707pt" height="1433pt"
 viewBox="0.00 0.00 707.00 1433.00" xmlns="http://www.w3.org/2000/svg" xmlns:xlink="http://www.w3.org/1999/xlink">
<g id="graph0" class="graph" transform="scale(1 1) rotate(0) translate(4 1429)">
<title>Graphical Class Hierarchy</title>
<!-- Node0 -->
<g id="node1" class="node">
<title>Node0</title>
<g id="a_node1"><a xlink:title=" ">
<polygon fill="#e0e0e0" stroke="#999999" points="107.5,-1351 39.5,-1351 39.5,-1332 107.5,-1332 107.5,-1351"/>
<text text-anchor="middle" x="73.5" y="-1339" font-family="Helvetica,sans-Serif" font-size="10.00">EigenKernel</text>
</a>
</g>
</g>
<!-- Node1 -->
<g id="node2" class="node">
<title>Node1</title>
<g id="a_node2"><a xlink:href="class_coupled_fission_eigen_kernel.html" target="_top" xlink:title=" ">
<polygon fill="white" stroke="#666666" points="334,-1351 199,-1351 199,-1332 334,-1332 334,-1351"/>
<text text-anchor="middle" x="266.5" y="-1339" font-family="Helvetica,sans-Serif" font-size="10.00">CoupledFissionEigenKernel</text>
</a>
</g>
</g>
<!-- Node0&#45;&gt;Node1 -->
<g id="edge1" class="edge">
<title>Node0&#45;&gt;Node1</title>
<path fill="none" stroke="#63b8ff" d="M119.2,-1341.5C142.83,-1341.5 172.32,-1341.5 198.61,-1341.5"/>
<polygon fill="#63b8ff" stroke="#63b8ff" points="119.28,-1338 109.28,-1341.5 119.28,-1345 119.28,-1338"/>
</g>
<!-- Node43 -->
<g id="node3" class="node">
<title>Node43</title>
<g id="a_node3"><a xlink:href="class_precursor_eigen_source.html" target="_top" xlink:title=" ">
<polygon fill="white" stroke="#666666" points="323,-1314 210,-1314 210,-1295 323,-1295 323,-1314"/>
<text text-anchor="middle" x="266.5" y="-1302" font-family="Helvetica,sans-Serif" font-size="10.00">PrecursorEigenSource</text>
</a>
</g>
</g>
<!-- Node0&#45;&gt;Node43 -->
<g id="edge2" class="edge">
<title>Node0&#45;&gt;Node43</title>
<path fill="none" stroke="#63b8ff" d="M118.98,-1332.88C147.36,-1327.39 184.26,-1320.24 213.92,-1314.49"/>
<polygon fill="#63b8ff" stroke="#63b8ff" points="118.41,-1329.43 109.26,-1334.77 119.74,-1336.3 118.41,-1329.43"/>
</g>
<!-- Node49 -->
<g id="node4" class="node">
<title>Node49</title>
<g id="a_node4"><a xlink:href="class_self_fission_eigen_kernel.html" target="_top" xlink:title=" ">
<polygon fill="white" stroke="#666666" points="325,-1425 208,-1425 208,-1406 325,-1406 325,-1425"/>
<text text-anchor="middle" x="266.5" y="-1413" font-family="Helvetica,sans-Serif" font-size="10.00">SelfFissionEigenKernel</text>
</a>
</g>
</g>
<!-- Node0&#45;&gt;Node49 -->
<g id="edge3" class="edge">
<title>Node0&#45;&gt;Node49</title>
<path fill="none" stroke="#63b8ff" d="M100.09,-1357.15C121.54,-1369.66 153.35,-1386.82 183,-1397.5 191.69,-1400.63 201.1,-1403.31 210.35,-1405.57"/>
<polygon fill="#63b8ff" stroke="#63b8ff" points="102.13,-1354.29 91.74,-1352.2 98.56,-1360.31 102.13,-1354.29"/>
</g>
<!-- Node38 -->
<g id="node5" class="node">
<title>Node38</title>
<g id="a_node5"><a xlink:title=" ">
<polygon fill="#e0e0e0" stroke="#999999" points="147,-1240 0,-1240 0,-1221 147,-1221 147,-1240"/>
<text text-anchor="middle" x="73.5" y="-1228" font-family="Helvetica,sans-Serif" font-size="10.00">ElementIntegralPostprocessor</text>
</a>
</g>
</g>
<!-- Node39 -->
<g id="node6" class="node">
<title>Node39</title>
<g id="a_node6"><a xlink:href="class_elm_integ_tot_fiss_nts_postprocessor.html" target="_top" xlink:title=" ">
<polygon fill="white" stroke="#666666" points="350,-1388 183,-1388 183,-1369 350,-1369 350,-1388"/>
<text text-anchor="middle" x="266.5" y="-1376" font-family="Helvetica,sans-Serif" font-size="10.00">ElmIntegTotFissNtsPostprocessor</text>
</a>
</g>
</g>
<!-- Node38&#45;&gt;Node39 -->
<g id="edge4" class="edge">
<title>Node38&#45;&gt;Node39</title>
<path fill="none" stroke="#63b8ff" d="M143.19,-1246.26C144.52,-1247.28 145.79,-1248.36 147,-1249.5 184.71,-1285.11 144.56,-1325.68 183,-1360.5 186.48,-1363.65 190.37,-1366.29 194.53,-1368.51"/>
<polygon fill="#63b8ff" stroke="#63b8ff" points="145.44,-1243.54 135.1,-1241.24 141.75,-1249.49 145.44,-1243.54"/>
</g>
<!-- Node35 -->
<g id="node7" class="node">
<title>Node35</title>
<g id="a_node7"><a xlink:href="class_elm_integ_tot_fiss_postprocessor.html" target="_top" xlink:title=" ">
<polygon fill="white" stroke="#666666" points="342,-1018 191,-1018 191,-999 342,-999 342,-1018"/>
<text text-anchor="middle" x="266.5" y="-1006" font-family="Helvetica,sans-Serif" font-size="10.00">ElmIntegTotFissPostprocessor</text>
</a>
</g>
</g>
<!-- Node38&#45;&gt;Node35 -->
<g id="edge5" class="edge">
<title>Node38&#45;&gt;Node35</title>
<path fill="none" stroke="#63b8ff" d="M79.46,-1209.65C90.47,-1168.1 121.03,-1074.92 183,-1027.5 187.79,-1023.84 193.15,-1020.86 198.8,-1018.45"/>
<polygon fill="#63b8ff" stroke="#63b8ff" points="76.13,-1208.54 77.08,-1219.1 82.92,-1210.26 76.13,-1208.54"/>
</g>
<!-- Node40 -->
<g id="node10" class="node">
<title>Node40</title>
<g id="a_node10"><a xlink:href="class_integral_new_variable_postprocessor.html" target="_top" xlink:title=" ">
<polygon fill="white" stroke="#666666" points="350,-1277 183,-1277 183,-1258 350,-1258 350,-1277"/>
<text text-anchor="middle" x="266.5" y="-1265" font-family="Helvetica,sans-Serif" font-size="10.00">IntegralNewVariablePostprocessor</text>
</a>
</g>
</g>
<!-- Node38&#45;&gt;Node40 -->
<g id="edge8" class="edge">
<title>Node38&#45;&gt;Node40</title>
<path fill="none" stroke="#63b8ff" d="M137.11,-1242.63C162,-1247.45 190.29,-1252.93 213.97,-1257.52"/>
<polygon fill="#63b8ff" stroke="#63b8ff" points="137.9,-1239.22 127.42,-1240.75 136.57,-1246.09 137.9,-1239.22"/>
</g>
<!-- Node42 -->
<g id="node11" class="node">
<title>Node42</title>
<g id="a_node11"><a xlink:href="class_integral_old_variable_postprocessor.html" target="_top" xlink:title=" ">
<polygon fill="white" stroke="#666666" points="347.5,-1240 185.5,-1240 185.5,-1221 347.5,-1221 347.5,-1240"/>
<text text-anchor="middle" x="266.5" y="-1228" font-family="Helvetica,sans-Serif" font-size="10.00">IntegralOldVariablePostprocessor</text>
</a>
</g>
</g>
<!-- Node38&#45;&gt;Node42 -->
<g id="edge9" class="edge">
<title>Node38&#45;&gt;Node42</title>
<path fill="none" stroke="#63b8ff" d="M158.75,-1230.5C167.57,-1230.5 176.53,-1230.5 185.3,-1230.5"/>
<polygon fill="#63b8ff" stroke="#63b8ff" points="158.77,-1227 148.77,-1230.5 158.77,-1234 158.77,-1227"/>
</g>
<!-- Node36 -->
<g id="node8" class="node">
<title>Node36</title>
<g id="a_node8"><a xlink:href="class_elm_integ_tot_fiss_heat_postprocessor.html" target="_top" xlink:title=" ">
<polygon fill="white" stroke="#666666" points="558,-1018 386,-1018 386,-999 558,-999 558,-1018"/>
<text text-anchor="middle" x="472" y="-1006" font-family="Helvetica,sans-Serif" font-size="10.00">ElmIntegTotFissHeatPostprocessor</text>
</a>
</g>
</g>
<!-- Node35&#45;&gt;Node36 -->
<g id="edge6" class="edge">
<title>Node35&#45;&gt;Node36</title>
<path fill="none" stroke="#63b8ff" d="M353.74,-1008.5C364.29,-1008.5 375.06,-1008.5 385.59,-1008.5"/>
<polygon fill="#63b8ff" stroke="#63b8ff" points="353.92,-1005 343.92,-1008.5 353.92,-1012 353.92,-1005"/>
</g>
<!-- Node37 -->
<g id="node9" class="node">
<title>Node37</title>
<g id="a_node9"><a xlink:href="class_average_fission_heat.html" target="_top" xlink:title=" ">
<polygon fill="white" stroke="#666666" points="699,-1018 594,-1018 594,-999 699,-999 699,-1018"/>
<text text-anchor="middle" x="646.5" y="-1006" font-family="Helvetica,sans-Serif" font-size="10.00">AverageFissionHeat</text>
</a>
</g>
</g>
<!-- Node36&#45;&gt;Node37 -->
<g id="edge7" class="edge">
<title>Node36&#45;&gt;Node37</title>
<path fill="none" stroke="#63b8ff" d="M569.75,-1008.5C577.96,-1008.5 586.05,-1008.5 593.71,-1008.5"/>
<polygon fill="#63b8ff" stroke="#63b8ff" points="570.01,-1005 560.01,-1008.5 570.01,-1012 570.01,-1005"/>
</g>
<!-- Node24 -->
<g id="node12" class="node">
<title>Node24</title>
<g id="a_node12"><a xlink:title=" ">
<polygon fill="#e0e0e0" stroke="#999999" points="110.5,-981 36.5,-981 36.5,-962 110.5,-962 110.5,-981"/>
<text text-anchor="middle" x="73.5" y="-969" font-family="Helvetica,sans-Serif" font-size="10.00">IntegratedBC</text>
</a>
</g>
</g>
<!-- Node25 -->
<g id="node13" class="node">
<title>Node25</title>
<g id="a_node13"><a xlink:href="class_conservative_advection_no_b_c_b_c.html" target="_top" xlink:title=" ">
<polygon fill="white" stroke="#666666" points="345,-1129 188,-1129 188,-1110 345,-1110 345,-1129"/>
<text text-anchor="middle" x="266.5" y="-1117" font-family="Helvetica,sans-Serif" font-size="10.00">ConservativeAdvectionNoBCBC</text>
</a>
</g>
</g>
<!-- Node24&#45;&gt;Node25 -->
<g id="edge10" class="edge">
<title>Node24&#45;&gt;Node25</title>
<path fill="none" stroke="#63b8ff" d="M85.05,-990.96C101.8,-1019.89 137.31,-1073.79 183,-1101.5 188.39,-1104.77 194.3,-1107.45 200.4,-1109.64"/>
<polygon fill="#63b8ff" stroke="#63b8ff" points="88.26,-989.53 80.31,-982.52 82.16,-992.95 88.26,-989.53"/>
</g>
<!-- Node26 -->
<g id="node14" class="node">
<title>Node26</title>
<g id="a_node14"><a xlink:href="class_coupled_outflow_b_c.html" target="_top" xlink:title=" ">
<polygon fill="white" stroke="#666666" points="315.5,-1092 217.5,-1092 217.5,-1073 315.5,-1073 315.5,-1092"/>
<text text-anchor="middle" x="266.5" y="-1080" font-family="Helvetica,sans-Serif" font-size="10.00">CoupledOutflowBC</text>
</a>
</g>
</g>
<!-- Node24&#45;&gt;Node26 -->
<g id="edge11" class="edge">
<title>Node24&#45;&gt;Node26</title>
<path fill="none" stroke="#63b8ff" d="M90.57,-989.95C110.2,-1011.28 145.46,-1045.82 183,-1064.5 193.5,-1069.72 205.49,-1073.44 217.02,-1076.08"/>
<polygon fill="#63b8ff" stroke="#63b8ff" points="93.23,-987.67 83.94,-982.58 88.02,-992.35 93.23,-987.67"/>
</g>
<!-- Node23 -->
<g id="node15" class="node">
<title>Node23</title>
<g id="a_node15"><a xlink:href="class_coupled_scalar_advection_no_b_c_b_c.html" target="_top" xlink:title=" ">
<polygon fill="white" stroke="#666666" points="348,-907 185,-907 185,-888 348,-888 348,-907"/>
<text text-anchor="middle" x="266.5" y="-895" font-family="Helvetica,sans-Serif" font-size="10.00">CoupledScalarAdvectionNoBCBC</text>
</a>
</g>
</g>
<!-- Node24&#45;&gt;Node23 -->
<g id="edge12" class="edge">
<title>Node24&#45;&gt;Node23</title>
<path fill="none" stroke="#63b8ff" d="M100.53,-956.03C122.02,-943.83 153.65,-927.14 183,-916.5 192.67,-912.99 203.22,-909.98 213.45,-907.46"/>
<polygon fill="#63b8ff" stroke="#63b8ff" points="99.07,-952.83 92.16,-960.86 102.57,-958.9 99.07,-952.83"/>
</g>
<!-- Node27 -->
<g id="node16" class="node">
<title>Node27</title>
<g id="a_node16"><a xlink:href="class_diffusion_no_b_c_b_c.html" target="_top" xlink:title=" ">
<polygon fill="white" stroke="#666666" points="313.5,-1055 219.5,-1055 219.5,-1036 313.5,-1036 313.5,-1055"/>
<text text-anchor="middle" x="266.5" y="-1043" font-family="Helvetica,sans-Serif" font-size="10.00">DiffusionNoBCBC</text>
</a>
</g>
</g>
<!-- Node24&#45;&gt;Node27 -->
<g id="edge13" class="edge">
<title>Node24&#45;&gt;Node27</title>
<path fill="none" stroke="#63b8ff" d="M100.09,-987.15C121.54,-999.66 153.35,-1016.82 183,-1027.5 194.45,-1031.62 207.14,-1034.96 219.08,-1037.6"/>
<polygon fill="#63b8ff" stroke="#63b8ff" points="102.13,-984.29 91.74,-982.2 98.56,-990.31 102.13,-984.29"/>
</g>
<!-- Node28 -->
<g id="node17" class="node">
<title>Node28</title>
<g id="a_node17"><a xlink:href="class_i_n_s_outflow_b_c.html" target="_top" xlink:title=" ">
<polygon fill="white" stroke="#666666" points="306.5,-981 226.5,-981 226.5,-962 306.5,-962 306.5,-981"/>
<text text-anchor="middle" x="266.5" y="-969" font-family="Helvetica,sans-Serif" font-size="10.00">INSOutflowBC</text>
</a>
</g>
</g>
<!-- Node24&#45;&gt;Node28 -->
<g id="edge14" class="edge">
<title>Node24&#45;&gt;Node28</title>
<path fill="none" stroke="#63b8ff" d="M122.23,-971.5C154.33,-971.5 196.14,-971.5 226.3,-971.5"/>
<polygon fill="#63b8ff" stroke="#63b8ff" points="122.39,-968 112.39,-971.5 122.39,-975 122.39,-968"/>
</g>
<!-- Node29 -->
<g id="node18" class="node">
<title>Node29</title>
<g id="a_node18"><a xlink:href="class_i_n_s_symmetry_axis_b_c.html" target="_top" xlink:title=" ">
<polygon fill="white" stroke="#666666" points="321.5,-944 211.5,-944 211.5,-925 321.5,-925 321.5,-944"/>
<text text-anchor="middle" x="266.5" y="-932" font-family="Helvetica,sans-Serif" font-size="10.00">INSSymmetryAxisBC</text>
</a>
</g>
</g>
<!-- Node24&#45;&gt;Node29 -->
<g id="edge15" class="edge">
<title>Node24&#45;&gt;Node29</title>
<path fill="none" stroke="#63b8ff" d="M121.99,-962.3C150,-956.87 185.45,-950.01 214.11,-944.46"/>
<polygon fill="#63b8ff" stroke="#63b8ff" points="121.51,-958.83 112.36,-964.17 122.84,-965.7 121.51,-958.83"/>
</g>
<!-- Node30 -->
<g id="node19" class="node">
<title>Node30</title>
<g id="a_node19"><a xlink:href="class_lin_log_penalty_dirichlet_b_c.html" target="_top" xlink:title=" ">
<polygon fill="white" stroke="#666666" points="330.5,-870 202.5,-870 202.5,-851 330.5,-851 330.5,-870"/>
<text text-anchor="middle" x="266.5" y="-858" font-family="Helvetica,sans-Serif" font-size="10.00">LinLogPenaltyDirichletBC</text>
</a>
</g>
</g>
<!-- Node24&#45;&gt;Node30 -->
<g id="edge16" class="edge">
<title>Node24&#45;&gt;Node30</title>
<path fill="none" stroke="#63b8ff" d="M90.65,-953.33C110.36,-932.31 145.69,-898.21 183,-879.5 190.36,-875.81 198.44,-872.83 206.59,-870.41"/>
<polygon fill="#63b8ff" stroke="#63b8ff" points="88.17,-950.85 84,-960.59 93.33,-955.58 88.17,-950.85"/>
</g>
<!-- Node31 -->
<g id="node20" class="node">
<title>Node31</title>
<g id="a_node20"><a xlink:href="class_mat_diffusion_flux_b_c.html" target="_top" xlink:title=" ">
<polygon fill="white" stroke="#666666" points="317.5,-1203 215.5,-1203 215.5,-1184 317.5,-1184 317.5,-1203"/>
<text text-anchor="middle" x="266.5" y="-1191" font-family="Helvetica,sans-Serif" font-size="10.00">MatDiffusionFluxBC</text>
</a>
</g>
</g>
<!-- Node24&#45;&gt;Node31 -->
<g id="edge17" class="edge">
<title>Node24&#45;&gt;Node31</title>
<path fill="none" stroke="#63b8ff" d="M79.3,-992.2C90.1,-1033.9 120.41,-1128.08 183,-1175.5 192.35,-1182.58 203.91,-1187 215.39,-1189.72"/>
<polygon fill="#63b8ff" stroke="#63b8ff" points="82.71,-991.4 76.92,-982.52 75.91,-993.07 82.71,-991.4"/>
</g>
<!-- Node32 -->
<g id="node21" class="node">
<title>Node32</title>
<g id="a_node21"><a xlink:href="class_postprocessor_coupled_inflow_b_c.html" target="_top" xlink:title=" ">
<polygon fill="white" stroke="#666666" points="343.5,-1166 189.5,-1166 189.5,-1147 343.5,-1147 343.5,-1166"/>
<text text-anchor="middle" x="266.5" y="-1154" font-family="Helvetica,sans-Serif" font-size="10.00">PostprocessorCoupledInflowBC</text>
</a>
</g>
</g>
<!-- Node24&#45;&gt;Node32 -->
<g id="edge18" class="edge">
<title>Node24&#45;&gt;Node32</title>
<path fill="none" stroke="#63b8ff" d="M81.73,-991.87C95.52,-1027.59 129.08,-1101.24 183,-1138.5 187.7,-1141.75 192.89,-1144.43 198.3,-1146.63"/>
<polygon fill="#63b8ff" stroke="#63b8ff" points="85.11,-990.9 78.34,-982.74 78.54,-993.33 85.11,-990.9"/>
</g>
<!-- Node33 -->
<g id="node22" class="node">
<title>Node33</title>
<g id="a_node22"><a xlink:href="class_scalar_advection_art_diff_no_b_c_b_c.html" target="_top" xlink:title=" ">
<polygon fill="white" stroke="#666666" points="344,-833 189,-833 189,-814 344,-814 344,-833"/>
<text text-anchor="middle" x="266.5" y="-821" font-family="Helvetica,sans-Serif" font-size="10.00">ScalarAdvectionArtDiffNoBCBC</text>
</a>
</g>
</g>
<!-- Node24&#45;&gt;Node33 -->
<g id="edge19" class="edge">
<title>Node24&#45;&gt;Node33</title>
<path fill="none" stroke="#63b8ff" d="M85.38,-951.84C102.33,-923.12 137.84,-870.12 183,-842.5 189.02,-838.82 195.68,-835.85 202.53,-833.46"/>
<polygon fill="#63b8ff" stroke="#63b8ff" points="82.5,-949.82 80.56,-960.24 88.57,-953.3 82.5,-949.82"/>
</g>
<!-- Node34 -->
<g id="node23" class="node">
<title>Node34</title>
<g id="a_node23"><a xlink:href="class_vacuum_conc_b_c.html" target="_top" xlink:title=" ">
<polygon fill="white" stroke="#666666" points="311,-796 222,-796 222,-777 311,-777 311,-796"/>
<text text-anchor="middle" x="266.5" y="-784" font-family="Helvetica,sans-Serif" font-size="10.00">VacuumConcBC</text>
</a>
</g>
</g>
<!-- Node24&#45;&gt;Node34 -->
<g id="edge20" class="edge">
<title>Node24&#45;&gt;Node34</title>
<path fill="none" stroke="#63b8ff" d="M81.81,-951.31C95.72,-915.91 129.47,-842.84 183,-805.5 194.33,-797.6 208.46,-792.93 221.81,-790.2"/>
<polygon fill="#63b8ff" stroke="#63b8ff" points="78.66,-949.76 78.39,-960.35 85.2,-952.24 78.66,-949.76"/>
</g>
<!-- Node4 -->
<g id="node24" class="node">
<title>Node4</title>
<g id="a_node24"><a xlink:title=" ">
<polygon fill="#e0e0e0" stroke="#999999" points="95.5,-426 51.5,-426 51.5,-407 95.5,-407 95.5,-426"/>
<text text-anchor="middle" x="73.5" y="-414" font-family="Helvetica,sans-Serif" font-size="10.00">Kernel</text>
</a>
</g>
</g>
<!-- Node5 -->
<g id="node25" class="node">
<title>Node5</title>
<g id="a_node25"><a xlink:href="class_convective_heat_exchanger.html" target="_top" xlink:title=" ">
<polygon fill="white" stroke="#666666" points="332,-56 201,-56 201,-37 332,-37 332,-56"/>
<text text-anchor="middle" x="266.5" y="-44" font-family="Helvetica,sans-Serif" font-size="10.00">ConvectiveHeatExchanger</text>
</a>
</g>
</g>
<!-- Node4&#45;&gt;Node5 -->
<g id="edge21" class="edge">
<title>Node4&#45;&gt;Node5</title>
<path fill="none" stroke="#63b8ff" d="M84.75,-396.77C100.31,-366.06 129.9,-304.62 147,-249.5 171.83,-169.5 124.44,-124.4 183,-64.5 188.02,-59.36 194.14,-55.53 200.76,-52.7"/>
<polygon fill="#63b8ff" stroke="#63b8ff" points="81.84,-394.78 80.39,-405.28 88.06,-397.97 81.84,-394.78"/>
</g>
<!-- Node3 -->
<g id="node26" class="node">
<title>Node3</title>
<g id="a_node26"><a xlink:href="class_coupled_fission_kernel.html" target="_top" xlink:title=" ">
<polygon fill="white" stroke="#666666" points="322,-315 211,-315 211,-296 322,-296 322,-315"/>
<text text-anchor="middle" x="266.5" y="-303" font-family="Helvetica,sans-Serif" font-size="10.00">CoupledFissionKernel</text>
</a>
</g>
</g>
<!-- Node4&#45;&gt;Node3 -->
<g id="edge22" class="edge">
<title>Node4&#45;&gt;Node3</title>
<path fill="none" stroke="#63b8ff" d="M90.57,-398.05C110.2,-376.72 145.46,-342.18 183,-323.5 191.53,-319.25 201.05,-316.01 210.5,-313.52"/>
<polygon fill="#63b8ff" stroke="#63b8ff" points="88.02,-395.65 83.94,-405.42 93.23,-400.33 88.02,-395.65"/>
</g>
<!-- Node6 -->
<g id="node27" class="node">
<title>Node6</title>
<g id="a_node27"><a xlink:href="class_coupled_scalar_advection.html" target="_top" xlink:title=" ">
<polygon fill="white" stroke="#666666" points="328,-278 205,-278 205,-259 328,-259 328,-278"/>
<text text-anchor="middle" x="266.5" y="-266" font-family="Helvetica,sans-Serif" font-size="10.00">CoupledScalarAdvection</text>
</a>
</g>
</g>
<!-- Node4&#45;&gt;Node6 -->
<g id="edge23" class="edge">
<title>Node4&#45;&gt;Node6</title>
<path fill="none" stroke="#63b8ff" d="M85.05,-397.04C101.8,-368.11 137.31,-314.21 183,-286.5 189.64,-282.47 197.07,-279.34 204.68,-276.91"/>
<polygon fill="#63b8ff" stroke="#63b8ff" points="82.16,-395.05 80.31,-405.48 88.26,-398.47 82.16,-395.05"/>
</g>
<!-- Node7 -->
<g id="node28" class="node">
<title>Node7</title>
<g id="a_node28"><a xlink:href="class_decay_heat_source.html" target="_top" xlink:title=" ">
<polygon fill="white" stroke="#666666" points="314,-759 219,-759 219,-740 314,-740 314,-759"/>
<text text-anchor="middle" x="266.5" y="-747" font-family="Helvetica,sans-Serif" font-size="10.00">DecayHeatSource</text>
</a>
</g>
</g>
<!-- Node4&#45;&gt;Node7 -->
<g id="edge24" class="edge">
<title>Node4&#45;&gt;Node7</title>
<path fill="none" stroke="#63b8ff" d="M81.98,-436.95C95.35,-473.62 124.08,-553.03 147,-620.5 163.69,-669.61 144.56,-696.68 183,-731.5 192.78,-740.36 205.88,-745.21 218.76,-747.78"/>
<polygon fill="#63b8ff" stroke="#63b8ff" points="85.3,-435.85 78.59,-427.66 78.73,-438.25 85.3,-435.85"/>
</g>
<!-- Node8 -->
<g id="node29" class="node">
<title>Node8</title>
<g id="a_node29"><a xlink:href="class_delayed_neutron_source.html" target="_top" xlink:title=" ">
<polygon fill="white" stroke="#666666" points="324.5,-722 208.5,-722 208.5,-703 324.5,-703 324.5,-722"/>
<text text-anchor="middle" x="266.5" y="-710" font-family="Helvetica,sans-Serif" font-size="10.00">DelayedNeutronSource</text>
</a>
</g>
</g>
<!-- Node4&#45;&gt;Node8 -->
<g id="edge25" class="edge">
<title>Node4&#45;&gt;Node8</title>
<path fill="none" stroke="#63b8ff" d="M81.84,-436.83C104.5,-499.41 172.52,-685.55 183,-694.5 190.25,-700.69 199.13,-704.89 208.36,-707.73"/>
<polygon fill="#63b8ff" stroke="#63b8ff" points="85.25,-435.98 78.56,-427.77 78.67,-438.36 85.25,-435.98"/>
</g>
<!-- Node9 -->
<g id="node30" class="node">
<title>Node9</title>
<g id="a_node30"><a xlink:href="class_div_free_coupled_scalar_advection.html" target="_top" xlink:title=" ">
<polygon fill="white" stroke="#666666" points="345,-685 188,-685 188,-666 345,-666 345,-685"/>
<text text-anchor="middle" x="266.5" y="-673" font-family="Helvetica,sans-Serif" font-size="10.00">DivFreeCoupledScalarAdvection</text>
</a>
</g>
</g>
<!-- Node4&#45;&gt;Node9 -->
<g id="edge26" class="edge">
<title>Node4&#45;&gt;Node9</title>
<path fill="none" stroke="#63b8ff" d="M77.55,-437.65C85.55,-484.95 111.66,-599.66 183,-657.5 186.99,-660.73 191.42,-663.42 196.12,-665.64"/>
<polygon fill="#63b8ff" stroke="#63b8ff" points="81.04,-437.26 76.02,-427.93 74.12,-438.35 81.04,-437.26"/>
</g>
<!-- Node10 -->
<g id="node31" class="node">
<title>Node10</title>
<g id="a_node31"><a xlink:href="class_fission_heat_source.html" target="_top" xlink:title=" ">
<polygon fill="white" stroke="#666666" points="316.5,-19 216.5,-19 216.5,0 316.5,0 316.5,-19"/>
<text text-anchor="middle" x="266.5" y="-7" font-family="Helvetica,sans-Serif" font-size="10.00">FissionHeatSource</text>
</a>
</g>
</g>
<!-- Node4&#45;&gt;Node10 -->
<g id="edge27" class="edge">
<title>Node4&#45;&gt;Node10</title>
<path fill="none" stroke="#63b8ff" d="M84.96,-396.83C100.81,-366.21 130.77,-304.88 147,-249.5 175.12,-153.58 114.26,-100.06 183,-27.5 191.67,-18.35 203.83,-13.31 216.15,-10.66"/>
<polygon fill="#63b8ff" stroke="#63b8ff" points="82.06,-394.84 80.52,-405.32 88.26,-398.09 82.06,-394.84"/>
</g>
<!-- Node11 -->
<g id="node32" class="node">
<title>Node11</title>
<g id="a_node32"><a xlink:href="class_gamma_heat_source.html" target="_top" xlink:title=" ">
<polygon fill="white" stroke="#666666" points="318,-204 215,-204 215,-185 318,-185 318,-204"/>
<text text-anchor="middle" x="266.5" y="-192" font-family="Helvetica,sans-Serif" font-size="10.00">GammaHeatSource</text>
</a>
</g>
</g>
<!-- Node4&#45;&gt;Node11 -->
<g id="edge28" class="edge">
<title>Node4&#45;&gt;Node11</title>
<path fill="none" stroke="#63b8ff" d="M82.79,-395.99C102.08,-349.24 150.79,-236.9 183,-212.5 192.11,-205.59 203.33,-201.23 214.53,-198.49"/>
<polygon fill="#63b8ff" stroke="#63b8ff" points="79.57,-394.63 79.02,-405.21 86.05,-397.28 79.57,-394.63"/>
</g>
<!-- Node12 -->
<g id="node33" class="node">
<title>Node12</title>
<g id="a_node33"><a xlink:href="class_group_diffusion.html" target="_top" xlink:title=" ">
<polygon fill="white" stroke="#666666" points="306.5,-648 226.5,-648 226.5,-629 306.5,-629 306.5,-648"/>
<text text-anchor="middle" x="266.5" y="-636" font-family="Helvetica,sans-Serif" font-size="10.00">GroupDiffusion</text>
</a>
</g>
</g>
<!-- Node4&#45;&gt;Node12 -->
<g id="edge29" class="edge">
<title>Node4&#45;&gt;Node12</title>
<path fill="none" stroke="#63b8ff" d="M79.3,-437.2C90.1,-478.9 120.41,-573.08 183,-620.5 195.27,-629.8 211.35,-634.49 226.06,-636.8"/>
<polygon fill="#63b8ff" stroke="#63b8ff" points="82.71,-436.4 76.92,-427.52 75.91,-438.07 82.71,-436.4"/>
</g>
<!-- Node13 -->
<g id="node34" class="node">
<title>Node13</title>
<g id="a_node34"><a xlink:href="class_heat_precursor_decay.html" target="_top" xlink:title=" ">
<polygon fill="white" stroke="#666666" points="320,-611 213,-611 213,-592 320,-592 320,-611"/>
<text text-anchor="middle" x="266.5" y="-599" font-family="Helvetica,sans-Serif" font-size="10.00">HeatPrecursorDecay</text>
</a>
</g>
</g>
<!-- Node4&#45;&gt;Node13 -->
<g id="edge30" class="edge">
<title>Node4&#45;&gt;Node13</title>
<path fill="none" stroke="#63b8ff" d="M81.73,-436.87C95.52,-472.59 129.08,-546.24 183,-583.5 191.8,-589.58 202.3,-593.66 212.8,-596.38"/>
<polygon fill="#63b8ff" stroke="#63b8ff" points="85.11,-435.9 78.34,-427.74 78.54,-438.33 85.11,-435.9"/>
</g>
<!-- Node14 -->
<g id="node35" class="node">
<title>Node14</title>
<g id="a_node35"><a xlink:href="class_heat_precursor_source.html" target="_top" xlink:title=" ">
<polygon fill="white" stroke="#666666" points="321.5,-574 211.5,-574 211.5,-555 321.5,-555 321.5,-574"/>
<text text-anchor="middle" x="266.5" y="-562" font-family="Helvetica,sans-Serif" font-size="10.00">HeatPrecursorSource</text>
</a>
</g>
</g>
<!-- Node4&#45;&gt;Node14 -->
<g id="edge31" class="edge">
<title>Node4&#45;&gt;Node14</title>
<path fill="none" stroke="#63b8ff" d="M85.05,-435.96C101.8,-464.89 137.31,-518.79 183,-546.5 191.52,-551.67 201.34,-555.36 211.16,-558"/>
<polygon fill="#63b8ff" stroke="#63b8ff" points="88.26,-434.53 80.31,-427.52 82.16,-437.95 88.26,-434.53"/>
</g>
<!-- Node15 -->
<g id="node36" class="node">
<title>Node15</title>
<g id="a_node36"><a xlink:href="class_i_n_s_boussinesq_body_force.html" target="_top" xlink:title=" ">
<polygon fill="white" stroke="#666666" points="332,-130 201,-130 201,-111 332,-111 332,-130"/>
<text text-anchor="middle" x="266.5" y="-118" font-family="Helvetica,sans-Serif" font-size="10.00">INSBoussinesqBodyForce</text>
</a>
</g>
</g>
<!-- Node4&#45;&gt;Node15 -->
<g id="edge32" class="edge">
<title>Node4&#45;&gt;Node15</title>
<path fill="none" stroke="#63b8ff" d="M83.91,-396.53C98.39,-365.46 126.57,-303.5 147,-249.5 165.35,-200.99 144.56,-173.32 183,-138.5 188.11,-133.87 194.12,-130.34 200.53,-127.65"/>
<polygon fill="#63b8ff" stroke="#63b8ff" points="80.79,-394.94 79.72,-405.48 87.13,-397.9 80.79,-394.94"/>
</g>
<!-- Node16 -->
<g id="node37" class="node">
<title>Node16</title>
<g id="a_node37"><a xlink:href="class_i_n_s_momentum_k_epsilon.html" target="_top" xlink:title=" ">
<polygon fill="white" stroke="#666666" points="327,-93 206,-93 206,-74 327,-74 327,-93"/>
<text text-anchor="middle" x="266.5" y="-81" font-family="Helvetica,sans-Serif" font-size="10.00">INSMomentumKEpsilon</text>
</a>
</g>
</g>
<!-- Node4&#45;&gt;Node16 -->
<g id="edge33" class="edge">
<title>Node4&#45;&gt;Node16</title>
<path fill="none" stroke="#63b8ff" d="M84.64,-396.26C99.84,-365.28 128.7,-303.96 147,-249.5 168.56,-185.33 134.57,-148.8 183,-101.5 189.29,-95.35 197.17,-91.1 205.54,-88.19"/>
<polygon fill="#63b8ff" stroke="#63b8ff" points="81.5,-394.7 80.2,-405.21 87.78,-397.81 81.5,-394.7"/>
</g>
<!-- Node17 -->
<g id="node38" class="node">
<title>Node17</title>
<g id="a_node38"><a xlink:href="class_in_scatter.html" target="_top" xlink:title=" ">
<polygon fill="white" stroke="#666666" points="294.5,-537 238.5,-537 238.5,-518 294.5,-518 294.5,-537"/>
<text text-anchor="middle" x="266.5" y="-525" font-family="Helvetica,sans-Serif" font-size="10.00">InScatter</text>
</a>
</g>
</g>
<!-- Node4&#45;&gt;Node17 -->
<g id="edge34" class="edge">
<title>Node4&#45;&gt;Node17</title>
<path fill="none" stroke="#63b8ff" d="M90.57,-434.95C110.2,-456.28 145.46,-490.82 183,-509.5 200.32,-518.12 221.72,-522.64 238.38,-524.99"/>
<polygon fill="#63b8ff" stroke="#63b8ff" points="93.23,-432.67 83.94,-427.58 88.02,-437.35 93.23,-432.67"/>
</g>
<!-- Node18 -->
<g id="node39" class="node">
<title>Node18</title>
<g id="a_node39"><a xlink:href="class_precursor_decay.html" target="_top" xlink:title=" ">
<polygon fill="white" stroke="#666666" points="309.5,-500 223.5,-500 223.5,-481 309.5,-481 309.5,-500"/>
<text text-anchor="middle" x="266.5" y="-488" font-family="Helvetica,sans-Serif" font-size="10.00">PrecursorDecay</text>
</a>
</g>
</g>
<!-- Node4&#45;&gt;Node18 -->
<g id="edge35" class="edge">
<title>Node4&#45;&gt;Node18</title>
<path fill="none" stroke="#63b8ff" d="M100.09,-432.15C121.54,-444.66 153.35,-461.82 183,-472.5 195.83,-477.12 210.22,-480.76 223.35,-483.52"/>
<polygon fill="#63b8ff" stroke="#63b8ff" points="102.13,-429.29 91.74,-427.2 98.56,-435.31 102.13,-429.29"/>
</g>
<!-- Node19 -->
<g id="node40" class="node">
<title>Node19</title>
<g id="a_node40"><a xlink:href="class_precursor_source.html" target="_top" xlink:title=" ">
<polygon fill="white" stroke="#666666" points="311,-463 222,-463 222,-444 311,-444 311,-463"/>
<text text-anchor="middle" x="266.5" y="-451" font-family="Helvetica,sans-Serif" font-size="10.00">PrecursorSource</text>
</a>
</g>
</g>
<!-- Node4&#45;&gt;Node19 -->
<g id="edge36" class="edge">
<title>Node4&#45;&gt;Node19</title>
<path fill="none" stroke="#63b8ff" d="M106.91,-422.78C138.54,-428.91 186.88,-438.27 221.88,-445.05"/>
<polygon fill="#63b8ff" stroke="#63b8ff" points="107.64,-419.35 97.16,-420.89 106.31,-426.23 107.64,-419.35"/>
</g>
<!-- Node20 -->
<g id="node41" class="node">
<title>Node20</title>
<g id="a_node41"><a xlink:href="class_scalar_advection_art_diff.html" target="_top" xlink:title=" ">
<polygon fill="white" stroke="#666666" points="324,-426 209,-426 209,-407 324,-407 324,-426"/>
<text text-anchor="middle" x="266.5" y="-414" font-family="Helvetica,sans-Serif" font-size="10.00">ScalarAdvectionArtDiff</text>
</a>
</g>
</g>
<!-- Node4&#45;&gt;Node20 -->
<g id="edge37" class="edge">
<title>Node4&#45;&gt;Node20</title>
<path fill="none" stroke="#63b8ff" d="M107.13,-416.5C134.98,-416.5 175.67,-416.5 208.83,-416.5"/>
<polygon fill="#63b8ff" stroke="#63b8ff" points="107.18,-413 97.18,-416.5 107.18,-420 107.18,-413"/>
</g>
<!-- Node21 -->
<g id="node42" class="node">
<title>Node21</title>
<g id="a_node42"><a xlink:href="class_sigma_r.html" target="_top" xlink:title=" ">
<polygon fill="white" stroke="#666666" points="292,-389 241,-389 241,-370 292,-370 292,-389"/>
<text text-anchor="middle" x="266.5" y="-377" font-family="Helvetica,sans-Serif" font-size="10.00">SigmaR</text>
</a>
</g>
</g>
<!-- Node4&#45;&gt;Node21 -->
<g id="edge38" class="edge">
<title>Node4&#45;&gt;Node21</title>
<path fill="none" stroke="#63b8ff" d="M106.56,-410.29C144.33,-402.97 206.28,-390.97 240.62,-384.32"/>
<polygon fill="#63b8ff" stroke="#63b8ff" points="106.31,-406.77 97.16,-412.11 107.64,-413.65 106.31,-406.77"/>
</g>
<!-- Node22 -->
<g id="node43" class="node">
<title>Node22</title>
<g id="a_node43"><a xlink:href="class_transient_fission_heat_source.html" target="_top" xlink:title=" ">
<polygon fill="white" stroke="#666666" points="336.5,-352 196.5,-352 196.5,-333 336.5,-333 336.5,-352"/>
<text text-anchor="middle" x="266.5" y="-340" font-family="Helvetica,sans-Serif" font-size="10.00">TransientFissionHeatSource</text>
</a>
</g>
</g>
<!-- Node4&#45;&gt;Node22 -->
<g id="edge39" class="edge">
<title>Node4&#45;&gt;Node22</title>
<path fill="none" stroke="#63b8ff" d="M100.09,-400.85C121.54,-388.34 153.35,-371.18 183,-360.5 191.69,-357.37 201.1,-354.69 210.35,-352.43"/>
<polygon fill="#63b8ff" stroke="#63b8ff" points="98.56,-397.69 91.74,-405.8 102.13,-403.71 98.56,-397.69"/>
</g>
<!-- Node41 -->
<g id="node44" class="node">
<title>Node41</title>
<g id="a_node44"><a xlink:title=" ">
<polygon fill="#e0e0e0" stroke="#999999" points="133,-1277 14,-1277 14,-1258 133,-1258 133,-1277"/>
<text text-anchor="middle" x="73.5" y="-1265" font-family="Helvetica,sans-Serif" font-size="10.00">MooseVariableInterface</text>
</a>
</g>
</g>
<!-- Node41&#45;&gt;Node40 -->
<g id="edge40" class="edge">
<title>Node41&#45;&gt;Node40</title>
<path fill="none" stroke="#63b8ff" d="M144.53,-1267.5C156.91,-1267.5 169.91,-1267.5 182.6,-1267.5"/>
<polygon fill="#63b8ff" stroke="#63b8ff" points="144.88,-1264 134.88,-1267.5 144.88,-1271 144.88,-1264"/>
</g>
<!-- Node41&#45;&gt;Node42 -->
<g id="edge41" class="edge">
<title>Node41&#45;&gt;Node42</title>
<path fill="none" stroke="#63b8ff" d="M137.11,-1255.37C162,-1250.55 190.29,-1245.07 213.97,-1240.48"/>
<polygon fill="#63b8ff" stroke="#63b8ff" points="136.57,-1251.91 127.42,-1257.25 137.9,-1258.78 136.57,-1251.91"/>
</g>
<!-- Node2 -->
<g id="node45" class="node">
<title>Node2</title>
<g id="a_node45"><a xlink:href="class_scalar_transport_base.html" target="_top" xlink:title=" ">
<polygon fill="white" stroke="#666666" points="127.5,-648 19.5,-648 19.5,-629 127.5,-629 127.5,-648"/>
<text text-anchor="middle" x="73.5" y="-636" font-family="Helvetica,sans-Serif" font-size="10.00">ScalarTransportBase</text>
</a>
</g>
</g>
<!-- Node2&#45;&gt;Node1 -->
<g id="edge42" class="edge">
<title>Node2&#45;&gt;Node1</title>
<path fill="none" stroke="#63b8ff" d="M80.31,-659.44C94.04,-709.72 128.73,-841.43 147,-953.5 160.29,-1035.03 128.13,-1261.75 183,-1323.5 187.38,-1328.43 192.77,-1332.19 198.68,-1335.02"/>
<polygon fill="#63b8ff" stroke="#63b8ff" points="83.72,-658.64 77.69,-649.93 76.97,-660.5 83.72,-658.64"/>
</g>
<!-- Node2&#45;&gt;Node43 -->
<g id="edge58" class="edge">
<title>Node2&#45;&gt;Node43</title>
<path fill="none" stroke="#63b8ff" d="M80.23,-659.45C93.79,-709.76 128.13,-841.52 147,-953.5 159.37,-1026.9 133.26,-1231.13 183,-1286.5 190.05,-1294.35 199.66,-1299.21 209.84,-1302.14"/>
<polygon fill="#63b8ff" stroke="#63b8ff" points="83.65,-658.67 77.65,-649.94 76.89,-660.51 83.65,-658.67"/>
</g>
<!-- Node2&#45;&gt;Node35 -->
<g id="edge49" class="edge">
<title>Node2&#45;&gt;Node35</title>
<path fill="none" stroke="#63b8ff" d="M74.17,-659.66C74.45,-720.88 84.1,-899.6 183,-990.5 186.45,-993.67 190.33,-996.34 194.48,-998.57"/>
<polygon fill="#63b8ff" stroke="#63b8ff" points="77.67,-659.98 74.22,-649.96 70.67,-659.95 77.67,-659.98"/>
</g>
<!-- Node2&#45;&gt;Node40 -->
<g id="edge54" class="edge">
<title>Node2&#45;&gt;Node40</title>
<path fill="none" stroke="#63b8ff" d="M80.13,-659.47C93.48,-709.81 127.38,-841.65 147,-953.5 158.45,-1018.77 138.39,-1200.5 183,-1249.5 185.86,-1252.64 189.13,-1255.31 192.69,-1257.56"/>
<polygon fill="#63b8ff" stroke="#63b8ff" points="83.55,-658.71 77.59,-649.95 76.79,-660.51 83.55,-658.71"/>
</g>
<!-- Node2&#45;&gt;Node42 -->
<g id="edge55" class="edge">
<title>Node2&#45;&gt;Node42</title>
<path fill="none" stroke="#63b8ff" d="M80.01,-659.49C93.08,-709.89 126.43,-841.82 147,-953.5 157.53,-1010.65 143.52,-1169.87 183,-1212.5 185.99,-1215.73 189.41,-1218.44 193.12,-1220.73"/>
<polygon fill="#63b8ff" stroke="#63b8ff" points="83.43,-658.75 77.52,-649.96 76.66,-660.52 83.43,-658.75"/>
</g>
<!-- Node2&#45;&gt;Node23 -->
<g id="edge45" class="edge">
<title>Node2&#45;&gt;Node23</title>
<path fill="none" stroke="#63b8ff" d="M77.55,-659.65C85.55,-706.95 111.66,-821.66 183,-879.5 186.99,-882.73 191.42,-885.42 196.12,-887.64"/>
<polygon fill="#63b8ff" stroke="#63b8ff" points="81.04,-659.26 76.02,-649.93 74.12,-660.35 81.04,-659.26"/>
</g>
<!-- Node2&#45;&gt;Node30 -->
<g id="edge56" class="edge">
<title>Node2&#45;&gt;Node30</title>
<path fill="none" stroke="#63b8ff" d="M79.3,-659.2C90.1,-700.9 120.41,-795.08 183,-842.5 188.73,-846.84 195.28,-850.17 202.14,-852.73"/>
<polygon fill="#63b8ff" stroke="#63b8ff" points="82.71,-658.4 76.92,-649.52 75.91,-660.07 82.71,-658.4"/>
</g>
<!-- Node2&#45;&gt;Node33 -->
<g id="edge61" class="edge">
<title>Node2&#45;&gt;Node33</title>
<path fill="none" stroke="#63b8ff" d="M81.73,-658.87C95.52,-694.59 129.08,-768.24 183,-805.5 187.7,-808.75 192.89,-811.43 198.3,-813.63"/>
<polygon fill="#63b8ff" stroke="#63b8ff" points="85.11,-657.9 78.34,-649.74 78.54,-660.33 85.11,-657.9"/>
</g>
<!-- Node2&#45;&gt;Node34 -->
<g id="edge67" class="edge">
<title>Node2&#45;&gt;Node34</title>
<path fill="none" stroke="#63b8ff" d="M85.05,-657.96C101.8,-686.89 137.31,-740.79 183,-768.5 194.53,-775.49 208.43,-779.78 221.51,-782.41"/>
<polygon fill="#63b8ff" stroke="#63b8ff" points="88.26,-656.53 80.31,-649.52 82.16,-659.95 88.26,-656.53"/>
</g>
<!-- Node2&#45;&gt;Node3 -->
<g id="edge43" class="edge">
<title>Node2&#45;&gt;Node3</title>
<path fill="none" stroke="#63b8ff" d="M82.01,-618.16C95.42,-581.68 124.21,-502.68 147,-435.5 163.79,-385.98 144.29,-358.65 183,-323.5 190.71,-316.5 200.48,-312 210.59,-309.15"/>
<polygon fill="#63b8ff" stroke="#63b8ff" points="78.78,-616.81 78.6,-627.4 85.35,-619.23 78.78,-616.81"/>
</g>
<!-- Node2&#45;&gt;Node6 -->
<g id="edge44" class="edge">
<title>Node2&#45;&gt;Node6</title>
<path fill="none" stroke="#63b8ff" d="M82.51,-618.32C96.71,-582.1 126.71,-503.48 147,-435.5 166.48,-370.22 134.29,-334.13 183,-286.5 189.08,-280.55 196.64,-276.38 204.69,-273.48"/>
<polygon fill="#63b8ff" stroke="#63b8ff" points="79.31,-616.91 78.89,-627.49 85.82,-619.48 79.31,-616.91"/>
</g>
<!-- Node2&#45;&gt;Node7 -->
<g id="edge46" class="edge">
<title>Node2&#45;&gt;Node7</title>
<path fill="none" stroke="#63b8ff" d="M90.57,-656.95C110.2,-678.28 145.46,-712.82 183,-731.5 194.02,-736.99 206.7,-740.81 218.75,-743.47"/>
<polygon fill="#63b8ff" stroke="#63b8ff" points="93.23,-654.67 83.94,-649.58 88.02,-659.35 93.23,-654.67"/>
</g>
<!-- Node2&#45;&gt;Node8 -->
<g id="edge47" class="edge">
<title>Node2&#45;&gt;Node8</title>
<path fill="none" stroke="#63b8ff" d="M100.09,-654.15C121.54,-666.66 153.35,-683.82 183,-694.5 191.69,-697.63 201.1,-700.31 210.35,-702.57"/>
<polygon fill="#63b8ff" stroke="#63b8ff" points="102.13,-651.29 91.74,-649.2 98.56,-657.31 102.13,-651.29"/>
</g>
<!-- Node2&#45;&gt;Node9 -->
<g id="edge48" class="edge">
<title>Node2&#45;&gt;Node9</title>
<path fill="none" stroke="#63b8ff" d="M137.11,-650.63C162,-655.45 190.29,-660.93 213.97,-665.52"/>
<polygon fill="#63b8ff" stroke="#63b8ff" points="137.9,-647.22 127.42,-648.75 136.57,-654.09 137.9,-647.22"/>
</g>
<!-- Node2&#45;&gt;Node12 -->
<g id="edge50" class="edge">
<title>Node2&#45;&gt;Node12</title>
<path fill="none" stroke="#63b8ff" d="M139.18,-638.5C167.98,-638.5 200.97,-638.5 226.01,-638.5"/>
<polygon fill="#63b8ff" stroke="#63b8ff" points="139.47,-635 129.47,-638.5 139.47,-642 139.47,-635"/>
</g>
<!-- Node2&#45;&gt;Node13 -->
<g id="edge51" class="edge">
<title>Node2&#45;&gt;Node13</title>
<path fill="none" stroke="#63b8ff" d="M137.11,-626.37C162,-621.55 190.29,-616.07 213.97,-611.48"/>
<polygon fill="#63b8ff" stroke="#63b8ff" points="136.57,-622.91 127.42,-628.25 137.9,-629.78 136.57,-622.91"/>
</g>
<!-- Node2&#45;&gt;Node14 -->
<g id="edge52" class="edge">
<title>Node2&#45;&gt;Node14</title>
<path fill="none" stroke="#63b8ff" d="M100.53,-623.03C122.02,-610.83 153.65,-594.14 183,-583.5 192.67,-579.99 203.22,-576.98 213.45,-574.46"/>
<polygon fill="#63b8ff" stroke="#63b8ff" points="99.07,-619.83 92.16,-627.86 102.57,-625.9 99.07,-619.83"/>
</g>
<!-- Node2&#45;&gt;Node17 -->
<g id="edge53" class="edge">
<title>Node2&#45;&gt;Node17</title>
<path fill="none" stroke="#63b8ff" d="M90.65,-620.33C110.36,-599.31 145.69,-565.21 183,-546.5 200.21,-537.87 221.41,-533.1 238.01,-530.49"/>
<polygon fill="#63b8ff" stroke="#63b8ff" points="88.17,-617.85 84,-627.59 93.33,-622.58 88.17,-617.85"/>
</g>
<!-- Node2&#45;&gt;Node18 -->
<g id="edge57" class="edge">
<title>Node2&#45;&gt;Node18</title>
<path fill="none" stroke="#63b8ff" d="M85.38,-618.84C102.33,-590.12 137.84,-537.12 183,-509.5 195.04,-502.14 209.65,-497.63 223.21,-494.86"/>
<polygon fill="#63b8ff" stroke="#63b8ff" points="82.5,-616.82 80.56,-627.24 88.57,-620.3 82.5,-616.82"/>
</g>
<!-- Node2&#45;&gt;Node19 -->
<g id="edge59" class="edge">
<title>Node2&#45;&gt;Node19</title>
<path fill="none" stroke="#63b8ff" d="M81.81,-618.31C95.72,-582.91 129.47,-509.84 183,-472.5 194.33,-464.6 208.46,-459.93 221.81,-457.2"/>
<polygon fill="#63b8ff" stroke="#63b8ff" points="78.66,-616.76 78.39,-627.35 85.2,-619.24 78.66,-616.76"/>
</g>
<!-- Node2&#45;&gt;Node20 -->
<g id="edge60" class="edge">
<title>Node2&#45;&gt;Node20</title>
<path fill="none" stroke="#63b8ff" d="M79.46,-617.65C90.47,-576.1 121.03,-482.92 183,-435.5 190.59,-429.69 199.64,-425.61 208.93,-422.75"/>
<polygon fill="#63b8ff" stroke="#63b8ff" points="76.13,-616.54 77.08,-627.1 82.92,-618.26 76.13,-616.54"/>
</g>
<!-- Node2&#45;&gt;Node21 -->
<g id="edge64" class="edge">
<title>Node2&#45;&gt;Node21</title>
<path fill="none" stroke="#63b8ff" d="M77.63,-617.5C85.78,-570.51 112.2,-456.49 183,-398.5 199.15,-385.27 222.76,-380.88 240.6,-379.58"/>
<polygon fill="#63b8ff" stroke="#63b8ff" points="74.21,-616.71 76.07,-627.14 81.12,-617.83 74.21,-616.71"/>
</g>
<!-- Node2&#45;&gt;Node22 -->
<g id="edge66" class="edge">
<title>Node2&#45;&gt;Node22</title>
<path fill="none" stroke="#63b8ff" d="M81.84,-618.17C104.5,-555.59 172.52,-369.45 183,-360.5 187.01,-357.07 191.53,-354.25 196.33,-351.94"/>
<polygon fill="#63b8ff" stroke="#63b8ff" points="78.67,-616.64 78.56,-627.23 85.25,-619.02 78.67,-616.64"/>
</g>
<!-- Node44 -->
<g id="node46" class="node">
<title>Node44</title>
<g id="a_node46"><a xlink:href="class_scalar_transport_time_derivative.html" target="_top" xlink:title=" ">
<polygon fill="white" stroke="#666666" points="342,-241 191,-241 191,-222 342,-222 342,-241"/>
<text text-anchor="middle" x="266.5" y="-229" font-family="Helvetica,sans-Serif" font-size="10.00">ScalarTransportTimeDerivative</text>
</a>
</g>
</g>
<!-- Node2&#45;&gt;Node44 -->
<g id="edge62" class="edge">
<title>Node2&#45;&gt;Node44</title>
<path fill="none" stroke="#63b8ff" d="M83.04,-617.89C97.82,-581.59 128.36,-503.6 147,-435.5 169.22,-354.29 124.17,-309.74 183,-249.5 186.07,-246.35 189.56,-243.7 193.32,-241.46"/>
<polygon fill="#63b8ff" stroke="#63b8ff" points="79.81,-616.55 79.25,-627.13 86.28,-619.21 79.81,-616.55"/>
</g>
<!-- Node47 -->
<g id="node48" class="node">
<title>Node47</title>
<g id="a_node48"><a xlink:href="class_total_neutron_leakage.html" target="_top" xlink:title=" ">
<polygon fill="white" stroke="#666666" points="321.5,-167 211.5,-167 211.5,-148 321.5,-148 321.5,-167"/>
<text text-anchor="middle" x="266.5" y="-155" font-family="Helvetica,sans-Serif" font-size="10.00">TotalNeutronLeakage</text>
</a>
</g>
</g>
<!-- Node2&#45;&gt;Node47 -->
<g id="edge65" class="edge">
<title>Node2&#45;&gt;Node47</title>
<path fill="none" stroke="#63b8ff" d="M83.22,-618.46C98.51,-582.51 130.12,-504.38 147,-435.5 160.88,-378.85 143.38,-218.31 183,-175.5 190.47,-167.43 200.64,-162.55 211.29,-159.67"/>
<polygon fill="#63b8ff" stroke="#63b8ff" points="80.2,-616.63 79.47,-627.2 86.63,-619.39 80.2,-616.63"/>
</g>
<!-- Node45 -->
<g id="node47" class="node">
<title>Node45</title>
<g id="a_node47"><a xlink:href="class_nt_time_derivative.html" target="_top" xlink:title=" ">
<polygon fill="white" stroke="#666666" points="518,-241 426,-241 426,-222 518,-222 518,-241"/>
<text text-anchor="middle" x="472" y="-229" font-family="Helvetica,sans-Serif" font-size="10.00">NtTimeDerivative</text>
</a>
</g>
</g>
<!-- Node44&#45;&gt;Node45 -->
<g id="edge63" class="edge">
<title>Node44&#45;&gt;Node45</title>
<path fill="none" stroke="#63b8ff" d="M353.65,-231.5C378.35,-231.5 404.31,-231.5 425.51,-231.5"/>
<polygon fill="#63b8ff" stroke="#63b8ff" points="353.92,-228 343.92,-231.5 353.92,-235 353.92,-228"/>
</g>
<!-- Node48 -->
<g id="node49" class="node">
<title>Node48</title>
<g id="a_node49"><a xlink:title=" ">
<polygon fill="#e0e0e0" stroke="#999999" points="139,-167 8,-167 8,-148 139,-148 139,-167"/>
<text text-anchor="middle" x="73.5" y="-155" font-family="Helvetica,sans-Serif" font-size="10.00">SideIntegralPostprocessor</text>
</a>
</g>
</g>
<!-- Node48&#45;&gt;Node47 -->
<g id="edge68" class="edge">
<title>Node48&#45;&gt;Node47</title>
<path fill="none" stroke="#63b8ff" d="M150.84,-157.5C171.05,-157.5 192.46,-157.5 211.23,-157.5"/>
<polygon fill="#63b8ff" stroke="#63b8ff" points="150.94,-154 140.94,-157.5 150.94,-161 150.94,-154"/>
</g>
<!-- Node46 -->
<g id="node50" class="node">
<title>Node46</title>
<g id="a_node50"><a xlink:title=" ">
<polygon fill="#e0e0e0" stroke="#999999" points="106.5,-241 40.5,-241 40.5,-222 106.5,-222 106.5,-241"/>
<text text-anchor="middle" x="73.5" y="-229" font-family="Helvetica,sans-Serif" font-size="10.00">TimeKernel</text>
</a>
</g>
</g>
<!-- Node46&#45;&gt;Node44 -->
<g id="edge69" class="edge">
<title>Node46&#45;&gt;Node44</title>
<path fill="none" stroke="#63b8ff" d="M118.28,-231.5C139.77,-231.5 166.26,-231.5 190.82,-231.5"/>
<polygon fill="#63b8ff" stroke="#63b8ff" points="118.41,-228 108.41,-231.5 118.41,-235 118.41,-228"/>
</g>
</g>
</svg>
