<?xml version="1.0" encoding="UTF-8" standalone="no"?>
<!DOCTYPE svg PUBLIC "-//W3C//DTD SVG 1.1//EN"
 "http://www.w3.org/Graphics/SVG/1.1/DTD/svg11.dtd">
<!-- Generated by graphviz version 2.49.3 (20211027.1534)
 -->
<!-- Title: src/main.C Pages: 1 -->
<svg width="369pt" height="140pt"
 viewBox="0.00 0.00 369.00 140.00" xmlns="http://www.w3.org/2000/svg" xmlns:xlink="http://www.w3.org/1999/xlink">
<g id="graph0" class="graph" transform="scale(1 1) rotate(0) translate(4 136)">
<title>src/main.C</title>
<polygon fill="white" stroke="transparent" points="-4,4 -4,-136 365,-136 365,4 -4,4"/>
<!-- Node1 -->
<g id="node1" class="node">
<title>Node1</title>
<g id="a_node1"><a xlink:title=" ">
<polygon fill="#bfbfbf" stroke="black" points="132.5,-112.5 132.5,-131.5 195.5,-131.5 195.5,-112.5 132.5,-112.5"/>
<text text-anchor="middle" x="164" y="-119.5" font-family="Helvetica,sans-Serif" font-size="10.00">src/main.C</text>
</a>
</g>
</g>
<!-- Node2 -->
<g id="node2" class="node">
<title>Node2</title>
<g id="a_node2"><a xlink:href="_moltres_app_8h.html" target="_top" xlink:title=" ">
<polygon fill="white" stroke="black" points="0,-56.5 0,-75.5 74,-75.5 74,-56.5 0,-56.5"/>
<text text-anchor="middle" x="37" y="-63.5" font-family="Helvetica,sans-Serif" font-size="10.00">MoltresApp.h</text>
</a>
</g>
</g>
<!-- Node1&#45;&gt;Node2 -->
<g id="edge1" class="edge">
<title>Node1&#45;&gt;Node2</title>
<path fill="none" stroke="midnightblue" d="M143.88,-112.44C122.98,-103.56 90.07,-89.56 66.28,-79.45"/>
<polygon fill="midnightblue" stroke="midnightblue" points="67.6,-76.21 57.03,-75.52 64.86,-82.65 67.6,-76.21"/>
</g>
<!-- Node3 -->
<g id="node3" class="node">
<title>Node3</title>
<g id="a_node3"><a xlink:title=" ">
<polygon fill="white" stroke="#bfbfbf" points="33.5,-0.5 33.5,-19.5 104.5,-19.5 104.5,-0.5 33.5,-0.5"/>
<text text-anchor="middle" x="69" y="-7.5" font-family="Helvetica,sans-Serif" font-size="10.00">MooseApp.h</text>
</a>
</g>
</g>
<!-- Node1&#45;&gt;Node3 -->
<g id="edge5" class="edge">
<title>Node1&#45;&gt;Node3</title>
<path fill="none" stroke="midnightblue" d="M155.45,-112.2C146.84,-103.24 133.24,-88.88 122,-76 108,-59.96 92.7,-41.03 82.15,-27.75"/>
<polygon fill="midnightblue" stroke="midnightblue" points="84.63,-25.24 75.68,-19.56 79.14,-29.58 84.63,-25.24"/>
</g>
<!-- Node4 -->
<g id="node4" class="node">
<title>Node4</title>
<g id="a_node4"><a xlink:title=" ">
<polygon fill="white" stroke="#bfbfbf" points="130.5,-56.5 130.5,-75.5 197.5,-75.5 197.5,-56.5 130.5,-56.5"/>
<text text-anchor="middle" x="164" y="-63.5" font-family="Helvetica,sans-Serif" font-size="10.00">MooseInit.h</text>
</a>
</g>
</g>
<!-- Node1&#45;&gt;Node4 -->
<g id="edge3" class="edge">
<title>Node1&#45;&gt;Node4</title>
<path fill="none" stroke="midnightblue" d="M164,-112.08C164,-105.01 164,-94.86 164,-85.99"/>
<polygon fill="midnightblue" stroke="midnightblue" points="167.5,-85.75 164,-75.75 160.5,-85.75 167.5,-85.75"/>
</g>
<!-- Node5 -->
<g id="node5" class="node">
<title>Node5</title>
<g id="a_node5"><a xlink:title=" ">
<polygon fill="white" stroke="#bfbfbf" points="215.5,-56.5 215.5,-75.5 268.5,-75.5 268.5,-56.5 215.5,-56.5"/>
<text text-anchor="middle" x="242" y="-63.5" font-family="Helvetica,sans-Serif" font-size="10.00">Moose.h</text>
</a>
</g>
</g>
<!-- Node1&#45;&gt;Node5 -->
<g id="edge4" class="edge">
<title>Node1&#45;&gt;Node5</title>
<path fill="none" stroke="midnightblue" d="M176.53,-112.32C188.59,-103.98 207.03,-91.21 221.27,-81.35"/>
<polygon fill="midnightblue" stroke="midnightblue" points="223.27,-84.22 229.5,-75.65 219.28,-78.47 223.27,-84.22"/>
</g>
<!-- Node6 -->
<g id="node6" class="node">
<title>Node6</title>
<g id="a_node6"><a xlink:title=" ">
<polygon fill="white" stroke="#bfbfbf" points="287,-56.5 287,-75.5 361,-75.5 361,-56.5 287,-56.5"/>
<text text-anchor="middle" x="324" y="-63.5" font-family="Helvetica,sans-Serif" font-size="10.00">AppFactory.h</text>
</a>
</g>
</g>
<!-- Node1&#45;&gt;Node6 -->
<g id="edge6" class="edge">
<title>Node1&#45;&gt;Node6</title>
<path fill="none" stroke="midnightblue" d="M189.35,-112.44C216.27,-103.36 259,-88.94 289.09,-78.78"/>
<polygon fill="midnightblue" stroke="midnightblue" points="290.41,-82.03 298.77,-75.52 288.17,-75.4 290.41,-82.03"/>
</g>
<!-- Node2&#45;&gt;Node3 -->
<g id="edge2" class="edge">
<title>Node2&#45;&gt;Node3</title>
<path fill="none" stroke="midnightblue" d="M42.28,-56.08C46.71,-48.61 53.16,-37.72 58.62,-28.52"/>
<polygon fill="midnightblue" stroke="midnightblue" points="61.73,-30.14 63.81,-19.75 55.71,-26.57 61.73,-30.14"/>
</g>
</g>
</svg>
