<?xml version="1.0" encoding="UTF-8" standalone="no"?>
<!DOCTYPE svg PUBLIC "-//W3C//DTD SVG 1.1//EN"
 "http://www.w3.org/Graphics/SVG/1.1/DTD/svg11.dtd">
<!-- Generated by graphviz version 7.0.4 (20221203.1631)
 -->
<!-- Title: src/main.C Pages: 1 -->
<svg width="369pt" height="137pt"
 viewBox="0.00 0.00 369.00 137.00" xmlns="http://www.w3.org/2000/svg" xmlns:xlink="http://www.w3.org/1999/xlink">
<g id="graph0" class="graph" transform="scale(1 1) rotate(0) translate(4 133)">
<title>src/main.C</title>
<!-- Node1 -->
<g id="node1" class="node">
<title>Node1</title>
<g id="a_node1"><a xlink:title=" ">
<polygon fill="#999999" stroke="#666666" points="195.5,-129 132.5,-129 132.5,-110 195.5,-110 195.5,-129"/>
<text text-anchor="middle" x="164" y="-117" font-family="Helvetica,sans-Serif" font-size="10.00">src/main.C</text>
</a>
</g>
</g>
<!-- Node2 -->
<g id="node2" class="node">
<title>Node2</title>
<g id="a_node2"><a xlink:href="_moltres_app_8h.html" target="_top" xlink:title=" ">
<polygon fill="white" stroke="#666666" points="74,-74 0,-74 0,-55 74,-55 74,-74"/>
<text text-anchor="middle" x="37" y="-62" font-family="Helvetica,sans-Serif" font-size="10.00">MoltresApp.h</text>
</a>
</g>
</g>
<!-- Node1&#45;&gt;Node2 -->
<g id="edge1" class="edge">
<title>Node1&#45;&gt;Node2</title>
<path fill="none" stroke="#63b8ff" d="M142.46,-109.51C122.26,-101.08 91.83,-88.38 68.84,-78.79"/>
<polygon fill="#63b8ff" stroke="#63b8ff" points="70.2,-75.56 59.62,-74.94 67.5,-82.02 70.2,-75.56"/>
</g>
<!-- Node3 -->
<g id="node3" class="node">
<title>Node3</title>
<g id="a_node3"><a xlink:title=" ">
<polygon fill="#e0e0e0" stroke="#999999" points="104.5,-19 33.5,-19 33.5,0 104.5,0 104.5,-19"/>
<text text-anchor="middle" x="69" y="-7" font-family="Helvetica,sans-Serif" font-size="10.00">MooseApp.h</text>
</a>
</g>
</g>
<!-- Node1&#45;&gt;Node3 -->
<g id="edge5" class="edge">
<title>Node1&#45;&gt;Node3</title>
<path fill="none" stroke="#63b8ff" d="M155.47,-109.78C146.87,-100.92 133.28,-86.71 122,-74 108.48,-58.77 93.67,-40.92 83.15,-28.03"/>
<polygon fill="#63b8ff" stroke="#63b8ff" points="86.01,-26 76.99,-20.44 80.58,-30.41 86.01,-26"/>
</g>
<!-- Node4 -->
<g id="node4" class="node">
<title>Node4</title>
<g id="a_node4"><a xlink:title=" ">
<polygon fill="#e0e0e0" stroke="#999999" points="197.5,-74 130.5,-74 130.5,-55 197.5,-55 197.5,-74"/>
<text text-anchor="middle" x="164" y="-62" font-family="Helvetica,sans-Serif" font-size="10.00">MooseInit.h</text>
</a>
</g>
</g>
<!-- Node1&#45;&gt;Node4 -->
<g id="edge3" class="edge">
<title>Node1&#45;&gt;Node4</title>
<path fill="none" stroke="#63b8ff" d="M164,-109.75C164,-103.27 164,-94.16 164,-85.9"/>
<polygon fill="#63b8ff" stroke="#63b8ff" points="167.5,-85.96 164,-75.96 160.5,-85.96 167.5,-85.96"/>
</g>
<!-- Node5 -->
<g id="node5" class="node">
<title>Node5</title>
<g id="a_node5"><a xlink:title=" ">
<polygon fill="#e0e0e0" stroke="#999999" points="268.5,-74 215.5,-74 215.5,-55 268.5,-55 268.5,-74"/>
<text text-anchor="middle" x="242" y="-62" font-family="Helvetica,sans-Serif" font-size="10.00">Moose.h</text>
</a>
</g>
</g>
<!-- Node1&#45;&gt;Node5 -->
<g id="edge4" class="edge">
<title>Node1&#45;&gt;Node5</title>
<path fill="none" stroke="#63b8ff" d="M177.23,-109.51C188.84,-101.62 205.97,-89.98 219.7,-80.65"/>
<polygon fill="#63b8ff" stroke="#63b8ff" points="221.41,-83.72 227.71,-75.21 217.47,-77.93 221.41,-83.72"/>
</g>
<!-- Node6 -->
<g id="node6" class="node">
<title>Node6</title>
<g id="a_node6"><a xlink:title=" ">
<polygon fill="#e0e0e0" stroke="#999999" points="361,-74 287,-74 287,-55 361,-55 361,-74"/>
<text text-anchor="middle" x="324" y="-62" font-family="Helvetica,sans-Serif" font-size="10.00">AppFactory.h</text>
</a>
</g>
</g>
<!-- Node1&#45;&gt;Node6 -->
<g id="edge6" class="edge">
<title>Node1&#45;&gt;Node6</title>
<path fill="none" stroke="#63b8ff" d="M191.14,-109.51C217.31,-100.84 257.14,-87.65 286.36,-77.97"/>
<polygon fill="#63b8ff" stroke="#63b8ff" points="287.16,-81.39 295.56,-74.92 284.96,-74.74 287.16,-81.39"/>
</g>
<!-- Node2&#45;&gt;Node3 -->
<g id="edge2" class="edge">
<title>Node2&#45;&gt;Node3</title>
<path fill="none" stroke="#63b8ff" d="M42.28,-54.75C46.47,-47.81 52.48,-37.86 57.73,-29.16"/>
<polygon fill="#63b8ff" stroke="#63b8ff" points="60.65,-31.11 62.82,-20.74 54.65,-27.49 60.65,-31.11"/>
</g>
</g>
</svg>
