<?xml version="1.0" encoding="UTF-8" standalone="no"?>
<!DOCTYPE svg PUBLIC "-//W3C//DTD SVG 1.1//EN"
 "http://www.w3.org/Graphics/SVG/1.1/DTD/svg11.dtd">
<!-- Generated by graphviz version 7.0.5 (20221223.1930)
 -->
<!-- Title: src/main.C Pages: 1 -->
<svg width="174pt" height="137pt"
 viewBox="0.00 0.00 174.00 137.00" xmlns="http://www.w3.org/2000/svg" xmlns:xlink="http://www.w3.org/1999/xlink">
<g id="graph0" class="graph" transform="scale(1 1) rotate(0) translate(4 133)">
<title>src/main.C</title>
<!-- Node1 -->
<g id="node1" class="node">
<title>Node1</title>
<g id="a_node1"><a xlink:title=" ">
<polygon fill="#999999" stroke="#666666" points="114.5,-129 51.5,-129 51.5,-110 114.5,-110 114.5,-129"/>
<text text-anchor="middle" x="83" y="-117" font-family="Helvetica,sans-Serif" font-size="10.00">src/main.C</text>
</a>
</g>
</g>
<!-- Node2 -->
<g id="node2" class="node">
<title>Node2</title>
<g id="a_node2"><a xlink:href="_moltres_app_8h.html" target="_top" xlink:title=" ">
<polygon fill="white" stroke="#666666" points="74,-74 0,-74 0,-55 74,-55 74,-74"/>
<text text-anchor="middle" x="37" y="-62" font-family="Helvetica,sans-Serif" font-size="10.00">MoltresApp.h</text>
</a>
</g>
</g>
<!-- Node1&#45;&gt;Node2 -->
<g id="edge1" class="edge">
<title>Node1&#45;&gt;Node2</title>
<path fill="none" stroke="#63b8ff" d="M75.4,-109.75C69.12,-102.5 59.99,-91.98 52.2,-83.02"/>
<polygon fill="#63b8ff" stroke="#63b8ff" points="54.95,-80.84 45.75,-75.59 49.66,-85.43 54.95,-80.84"/>
</g>
<!-- Node4 -->
<g id="node4" class="node">
<title>Node4</title>
<g id="a_node4"><a xlink:title=" ">
<polygon fill="#e0e0e0" stroke="#999999" points="166,-74 92,-74 92,-55 166,-55 166,-74"/>
<text text-anchor="middle" x="129" y="-62" font-family="Helvetica,sans-Serif" font-size="10.00">MooseMain.h</text>
</a>
</g>
</g>
<!-- Node1&#45;&gt;Node4 -->
<g id="edge3" class="edge">
<title>Node1&#45;&gt;Node4</title>
<path fill="none" stroke="#63b8ff" d="M90.6,-109.75C96.88,-102.5 106.01,-91.98 113.8,-83.02"/>
<polygon fill="#63b8ff" stroke="#63b8ff" points="116.34,-85.43 120.25,-75.59 111.05,-80.84 116.34,-85.43"/>
</g>
<!-- Node3 -->
<g id="node3" class="node">
<title>Node3</title>
<g id="a_node3"><a xlink:title=" ">
<polygon fill="#e0e0e0" stroke="#999999" points="72.5,-19 1.5,-19 1.5,0 72.5,0 72.5,-19"/>
<text text-anchor="middle" x="37" y="-7" font-family="Helvetica,sans-Serif" font-size="10.00">MooseApp.h</text>
</a>
</g>
</g>
<!-- Node2&#45;&gt;Node3 -->
<g id="edge2" class="edge">
<title>Node2&#45;&gt;Node3</title>
<path fill="none" stroke="#63b8ff" d="M37,-54.75C37,-48.27 37,-39.16 37,-30.9"/>
<polygon fill="#63b8ff" stroke="#63b8ff" points="40.5,-30.96 37,-20.96 33.5,-30.96 40.5,-30.96"/>
</g>
</g>
</svg>
