<?xml version="1.0" encoding="UTF-8" standalone="no"?>
<!DOCTYPE svg PUBLIC "-//W3C//DTD SVG 1.1//EN"
 "http://www.w3.org/Graphics/SVG/1.1/DTD/svg11.dtd">
<!-- Generated by graphviz version 2.38.0 (20140413.2041)
 -->
<!-- Title: include/bcs/ConservativeAdvectionNoBCBC.h Pages: 1 -->
<svg width="296pt" height="106pt"
 viewBox="0.00 0.00 296.00 106.00" xmlns="http://www.w3.org/2000/svg" xmlns:xlink="http://www.w3.org/1999/xlink">
<g id="graph0" class="graph" transform="scale(1 1) rotate(0) translate(4 102)">
<title>include/bcs/ConservativeAdvectionNoBCBC.h</title>
<polygon fill="white" stroke="none" points="-4,4 -4,-102 292,-102 292,4 -4,4"/>
<!-- Node2 -->
<g id="node1" class="node"><title>Node2</title>
<polygon fill="#bfbfbf" stroke="black" points="71,-67.5 71,-97.5 198,-97.5 198,-67.5 71,-67.5"/>
<text text-anchor="start" x="79" y="-85.5" font-family="Helvetica,sans-Serif" font-size="10.00">include/bcs/Conservative</text>
<text text-anchor="middle" x="134.5" y="-74.5" font-family="Helvetica,sans-Serif" font-size="10.00">AdvectionNoBCBC.h</text>
</g>
<!-- Node3 -->
<g id="node2" class="node"><title>Node3</title>
<g id="a_node2"><a xlink:href="_moltres_app_8_c.html" target="_top" xlink:title="src/base/MoltresApp.C">
<polygon fill="white" stroke="black" points="0,-6 0,-25 117,-25 117,-6 0,-6"/>
<text text-anchor="middle" x="58.5" y="-13" font-family="Helvetica,sans-Serif" font-size="10.00">src/base/MoltresApp.C</text>
</a>
</g>
</g>
<!-- Node2&#45;&gt;Node3 -->
<g id="edge1" class="edge"><title>Node2&#45;&gt;Node3</title>
<path fill="none" stroke="midnightblue" d="M110.147,-60.6722C96.1149,-48.6707 79.2191,-34.2203 68.6659,-25.1945"/>
<polygon fill="midnightblue" stroke="midnightblue" points="108.135,-63.5561 118.009,-67.396 112.684,-58.2364 108.135,-63.5561"/>
</g>
<!-- Node4 -->
<g id="node3" class="node"><title>Node4</title>
<g id="a_node3"><a xlink:href="_conservative_advection_no_b_c_b_c_8_c.html" target="_top" xlink:title="src/bcs/ConservativeAdvection\lNoBCBC.C">
<polygon fill="white" stroke="black" points="135,-0.5 135,-30.5 288,-30.5 288,-0.5 135,-0.5"/>
<text text-anchor="start" x="143" y="-18.5" font-family="Helvetica,sans-Serif" font-size="10.00">src/bcs/ConservativeAdvection</text>
<text text-anchor="middle" x="211.5" y="-7.5" font-family="Helvetica,sans-Serif" font-size="10.00">NoBCBC.C</text>
</a>
</g>
</g>
<!-- Node2&#45;&gt;Node4 -->
<g id="edge2" class="edge"><title>Node2&#45;&gt;Node4</title>
<path fill="none" stroke="midnightblue" d="M158.923,-60.8832C170.624,-51.0054 184.338,-39.4293 194.825,-30.5765"/>
<polygon fill="midnightblue" stroke="midnightblue" points="156.592,-58.2709 151.208,-67.396 161.107,-63.6199 156.592,-58.2709"/>
</g>
</g>
</svg>
