<?xml version="1.0" encoding="UTF-8" standalone="no"?>
<!DOCTYPE svg PUBLIC "-//W3C//DTD SVG 1.1//EN"
 "http://www.w3.org/Graphics/SVG/1.1/DTD/svg11.dtd">
<!-- Generated by graphviz version 2.43.0 (0)
 -->
<!-- Title: src/auxkernels/ConstantDifferenceAux.C Pages: 1 -->
<svg width="176pt" height="151pt"
 viewBox="0.00 0.00 176.00 151.00" xmlns="http://www.w3.org/2000/svg" xmlns:xlink="http://www.w3.org/1999/xlink">
<g id="graph0" class="graph" transform="scale(1 1) rotate(0) translate(4 147)">
<title>src/auxkernels/ConstantDifferenceAux.C</title>
<polygon fill="white" stroke="transparent" points="-4,4 -4,-147 172,-147 172,4 -4,4"/>
<!-- Node1 -->
<g id="node1" class="node">
<title>Node1</title>
<g id="a_node1"><a xlink:title=" ">
<polygon fill="#bfbfbf" stroke="black" points="0,-112.5 0,-142.5 168,-142.5 168,-112.5 0,-112.5"/>
<text text-anchor="start" x="8" y="-130.5" font-family="Helvetica,sans-Serif" font-size="10.00">src/auxkernels/ConstantDifference</text>
<text text-anchor="middle" x="84" y="-119.5" font-family="Helvetica,sans-Serif" font-size="10.00">Aux.C</text>
</a>
</g>
</g>
<!-- Node2 -->
<g id="node2" class="node">
<title>Node2</title>
<g id="a_node2"><a xlink:href="_constant_difference_aux_8h.html" target="_top" xlink:title=" ">
<polygon fill="white" stroke="black" points="20.5,-56.5 20.5,-75.5 147.5,-75.5 147.5,-56.5 20.5,-56.5"/>
<text text-anchor="middle" x="84" y="-63.5" font-family="Helvetica,sans-Serif" font-size="10.00">ConstantDifferenceAux.h</text>
</a>
</g>
</g>
<!-- Node1&#45;&gt;Node2 -->
<g id="edge1" class="edge">
<title>Node1&#45;&gt;Node2</title>
<path fill="none" stroke="midnightblue" d="M84,-112.4C84,-104.47 84,-94.46 84,-85.86"/>
<polygon fill="midnightblue" stroke="midnightblue" points="87.5,-85.66 84,-75.66 80.5,-85.66 87.5,-85.66"/>
</g>
<!-- Node3 -->
<g id="node3" class="node">
<title>Node3</title>
<g id="a_node3"><a xlink:title=" ">
<polygon fill="white" stroke="#bfbfbf" points="49,-0.5 49,-19.5 119,-19.5 119,-0.5 49,-0.5"/>
<text text-anchor="middle" x="84" y="-7.5" font-family="Helvetica,sans-Serif" font-size="10.00">AuxKernel.h</text>
</a>
</g>
</g>
<!-- Node2&#45;&gt;Node3 -->
<g id="edge2" class="edge">
<title>Node2&#45;&gt;Node3</title>
<path fill="none" stroke="midnightblue" d="M84,-56.08C84,-49.01 84,-38.86 84,-29.99"/>
<polygon fill="midnightblue" stroke="midnightblue" points="87.5,-29.75 84,-19.75 80.5,-29.75 87.5,-29.75"/>
</g>
</g>
</svg>
