<?xml version="1.0" encoding="UTF-8" standalone="no"?>
<!DOCTYPE svg PUBLIC "-//W3C//DTD SVG 1.1//EN"
 "http://www.w3.org/Graphics/SVG/1.1/DTD/svg11.dtd">
<!-- Generated by graphviz version 2.38.0 (20140413.2041)
 -->
<!-- Title: include/kernels/CoupledScalarAdvection.h Pages: 1 -->
<svg width="274pt" height="106pt"
 viewBox="0.00 0.00 274.00 106.00" xmlns="http://www.w3.org/2000/svg" xmlns:xlink="http://www.w3.org/1999/xlink">
<g id="graph0" class="graph" transform="scale(1 1) rotate(0) translate(4 102)">
<title>include/kernels/CoupledScalarAdvection.h</title>
<polygon fill="white" stroke="none" points="-4,4 -4,-102 270,-102 270,4 -4,4"/>
<!-- Node5 -->
<g id="node1" class="node"><title>Node5</title>
<polygon fill="#bfbfbf" stroke="black" points="55,-67.5 55,-97.5 204,-97.5 204,-67.5 55,-67.5"/>
<text text-anchor="start" x="63" y="-85.5" font-family="Helvetica,sans-Serif" font-size="10.00">include/kernels/CoupledScalar</text>
<text text-anchor="middle" x="129.5" y="-74.5" font-family="Helvetica,sans-Serif" font-size="10.00">Advection.h</text>
</g>
<!-- Node6 -->
<g id="node2" class="node"><title>Node6</title>
<g id="a_node2"><a xlink:href="_moltres_app_8_c.html" target="_top" xlink:title="src/base/MoltresApp.C">
<polygon fill="white" stroke="black" points="0,-6 0,-25 117,-25 117,-6 0,-6"/>
<text text-anchor="middle" x="58.5" y="-13" font-family="Helvetica,sans-Serif" font-size="10.00">src/base/MoltresApp.C</text>
</a>
</g>
</g>
<!-- Node5&#45;&gt;Node6 -->
<g id="edge1" class="edge"><title>Node5&#45;&gt;Node6</title>
<path fill="none" stroke="midnightblue" d="M106.381,-60.335C93.3457,-48.401 77.7638,-34.1359 67.9971,-25.1945"/>
<polygon fill="midnightblue" stroke="midnightblue" points="104.355,-63.225 114.094,-67.396 109.082,-58.0618 104.355,-63.225"/>
</g>
<!-- Node7 -->
<g id="node3" class="node"><title>Node7</title>
<g id="a_node3"><a xlink:href="_coupled_scalar_advection_8_c.html" target="_top" xlink:title="src/kernels/CoupledScalar\lAdvection.C">
<polygon fill="white" stroke="black" points="135,-0.5 135,-30.5 266,-30.5 266,-0.5 135,-0.5"/>
<text text-anchor="start" x="143" y="-18.5" font-family="Helvetica,sans-Serif" font-size="10.00">src/kernels/CoupledScalar</text>
<text text-anchor="middle" x="200.5" y="-7.5" font-family="Helvetica,sans-Serif" font-size="10.00">Advection.C</text>
</a>
</g>
</g>
<!-- Node5&#45;&gt;Node7 -->
<g id="edge2" class="edge"><title>Node5&#45;&gt;Node7</title>
<path fill="none" stroke="midnightblue" d="M152.332,-60.5978C163.052,-50.7831 175.547,-39.3442 185.124,-30.5765"/>
<polygon fill="midnightblue" stroke="midnightblue" points="149.918,-58.0618 144.906,-67.396 154.645,-63.225 149.918,-58.0618"/>
</g>
</g>
</svg>
