<?xml version="1.0" encoding="UTF-8" standalone="no"?>
<!DOCTYPE svg PUBLIC "-//W3C//DTD SVG 1.1//EN"
 "http://www.w3.org/Graphics/SVG/1.1/DTD/svg11.dtd">
<!-- Generated by graphviz version 2.38.0 (20140413.2041)
 -->
<!-- Title: include/kernels/CoupledFissionKernel.h Pages: 1 -->
<svg width="256pt" height="151pt"
 viewBox="0.00 0.00 255.50 151.00" xmlns="http://www.w3.org/2000/svg" xmlns:xlink="http://www.w3.org/1999/xlink">
<g id="graph0" class="graph" transform="scale(1 1) rotate(0) translate(4 147)">
<title>include/kernels/CoupledFissionKernel.h</title>
<polygon fill="white" stroke="none" points="-4,4 -4,-147 251.5,-147 251.5,4 -4,4"/>
<!-- Node0 -->
<g id="node1" class="node"><title>Node0</title>
<polygon fill="#bfbfbf" stroke="black" points="1.5,-112.5 1.5,-142.5 153.5,-142.5 153.5,-112.5 1.5,-112.5"/>
<text text-anchor="start" x="9.5" y="-130.5" font-family="Helvetica,sans-Serif" font-size="10.00">include/kernels/CoupledFission</text>
<text text-anchor="middle" x="77.5" y="-119.5" font-family="Helvetica,sans-Serif" font-size="10.00">Kernel.h</text>
</g>
<!-- Node1 -->
<g id="node2" class="node"><title>Node1</title>
<polygon fill="white" stroke="#bfbfbf" points="0,-56.5 0,-75.5 53,-75.5 53,-56.5 0,-56.5"/>
<text text-anchor="middle" x="26.5" y="-63.5" font-family="Helvetica,sans-Serif" font-size="10.00">Kernel.h</text>
</g>
<!-- Node0&#45;&gt;Node1 -->
<g id="edge1" class="edge"><title>Node0&#45;&gt;Node1</title>
<path fill="none" stroke="midnightblue" d="M65.4137,-112.399C57.9264,-103.664 48.2822,-92.4126 40.4682,-83.2962"/>
<polygon fill="midnightblue" stroke="midnightblue" points="43.0863,-80.9726 33.921,-75.6578 37.7715,-85.5281 43.0863,-80.9726"/>
</g>
<!-- Node2 -->
<g id="node3" class="node"><title>Node2</title>
<g id="a_node3"><a xlink:href="_scalar_transport_base_8h.html" target="_top" xlink:title="ScalarTransportBase.h">
<polygon fill="white" stroke="black" points="71.5,-56.5 71.5,-75.5 187.5,-75.5 187.5,-56.5 71.5,-56.5"/>
<text text-anchor="middle" x="129.5" y="-63.5" font-family="Helvetica,sans-Serif" font-size="10.00">ScalarTransportBase.h</text>
</a>
</g>
</g>
<!-- Node0&#45;&gt;Node2 -->
<g id="edge2" class="edge"><title>Node0&#45;&gt;Node2</title>
<path fill="none" stroke="midnightblue" d="M89.8233,-112.399C97.4574,-103.664 107.291,-92.4126 115.258,-83.2962"/>
<polygon fill="midnightblue" stroke="midnightblue" points="117.988,-85.4907 121.934,-75.6578 112.718,-80.8843 117.988,-85.4907"/>
</g>
<!-- Node3 -->
<g id="node4" class="node"><title>Node3</title>
<polygon fill="white" stroke="#bfbfbf" points="20,-0.5 20,-19.5 117,-19.5 117,-0.5 20,-0.5"/>
<text text-anchor="middle" x="68.5" y="-7.5" font-family="Helvetica,sans-Serif" font-size="10.00">InputParameters.h</text>
</g>
<!-- Node2&#45;&gt;Node3 -->
<g id="edge3" class="edge"><title>Node2&#45;&gt;Node3</title>
<path fill="none" stroke="midnightblue" d="M119.699,-56.324C110.682,-48.3414 97.094,-36.3128 86.182,-26.6529"/>
<polygon fill="midnightblue" stroke="midnightblue" points="88.2866,-23.8416 78.479,-19.8339 83.6467,-29.083 88.2866,-23.8416"/>
</g>
<!-- Node4 -->
<g id="node5" class="node"><title>Node4</title>
<polygon fill="white" stroke="#bfbfbf" points="135.5,-0.5 135.5,-19.5 247.5,-19.5 247.5,-0.5 135.5,-0.5"/>
<text text-anchor="middle" x="191.5" y="-7.5" font-family="Helvetica,sans-Serif" font-size="10.00">MooseVariableBase.h</text>
</g>
<!-- Node2&#45;&gt;Node4 -->
<g id="edge4" class="edge"><title>Node2&#45;&gt;Node4</title>
<path fill="none" stroke="midnightblue" d="M139.461,-56.324C148.627,-48.3414 162.437,-36.3128 173.528,-26.6529"/>
<polygon fill="midnightblue" stroke="midnightblue" points="176.115,-29.041 181.357,-19.8339 171.518,-23.7624 176.115,-29.041"/>
</g>
</g>
</svg>
