<?xml version="1.0" encoding="UTF-8" standalone="no"?>
<!DOCTYPE svg PUBLIC "-//W3C//DTD SVG 1.1//EN"
 "http://www.w3.org/Graphics/SVG/1.1/DTD/svg11.dtd">
<!-- Generated by graphviz version 2.43.0 (0)
 -->
<!-- Title: include/kernels/DelayedNeutronEigenSource.h Pages: 1 -->
<svg width="278pt" height="151pt"
 viewBox="0.00 0.00 278.00 151.00" xmlns="http://www.w3.org/2000/svg" xmlns:xlink="http://www.w3.org/1999/xlink">
<g id="graph0" class="graph" transform="scale(1 1) rotate(0) translate(4 147)">
<title>include/kernels/DelayedNeutronEigenSource.h</title>
<polygon fill="white" stroke="transparent" points="-4,4 -4,-147 274,-147 274,4 -4,4"/>
<!-- Node1 -->
<g id="node1" class="node">
<title>Node1</title>
<g id="a_node1"><a xlink:title=" ">
<polygon fill="#bfbfbf" stroke="black" points="18,-112.5 18,-142.5 173,-142.5 173,-112.5 18,-112.5"/>
<text text-anchor="start" x="26" y="-130.5" font-family="Helvetica,sans-Serif" font-size="10.00">include/kernels/DelayedNeutron</text>
<text text-anchor="middle" x="95.5" y="-119.5" font-family="Helvetica,sans-Serif" font-size="10.00">EigenSource.h</text>
</a>
</g>
</g>
<!-- Node2 -->
<g id="node2" class="node">
<title>Node2</title>
<g id="a_node2"><a xlink:title=" ">
<polygon fill="white" stroke="#bfbfbf" points="0,-56.5 0,-75.5 77,-75.5 77,-56.5 0,-56.5"/>
<text text-anchor="middle" x="38.5" y="-63.5" font-family="Helvetica,sans-Serif" font-size="10.00">EigenKernel.h</text>
</a>
</g>
</g>
<!-- Node1&#45;&gt;Node2 -->
<g id="edge1" class="edge">
<title>Node1&#45;&gt;Node2</title>
<path fill="none" stroke="midnightblue" d="M81.99,-112.4C73.54,-103.58 62.62,-92.18 53.84,-83.02"/>
<polygon fill="midnightblue" stroke="midnightblue" points="56.24,-80.46 46.79,-75.66 51.18,-85.3 56.24,-80.46"/>
</g>
<!-- Node3 -->
<g id="node3" class="node">
<title>Node3</title>
<g id="a_node3"><a xlink:href="_scalar_transport_base_8h.html" target="_top" xlink:title=" ">
<polygon fill="white" stroke="black" points="95.5,-56.5 95.5,-75.5 211.5,-75.5 211.5,-56.5 95.5,-56.5"/>
<text text-anchor="middle" x="153.5" y="-63.5" font-family="Helvetica,sans-Serif" font-size="10.00">ScalarTransportBase.h</text>
</a>
</g>
</g>
<!-- Node1&#45;&gt;Node3 -->
<g id="edge2" class="edge">
<title>Node1&#45;&gt;Node3</title>
<path fill="none" stroke="midnightblue" d="M109.25,-112.4C117.85,-103.58 128.95,-92.18 137.89,-83.02"/>
<polygon fill="midnightblue" stroke="midnightblue" points="140.59,-85.26 145.06,-75.66 135.57,-80.38 140.59,-85.26"/>
</g>
<!-- Node4 -->
<g id="node4" class="node">
<title>Node4</title>
<g id="a_node4"><a xlink:title=" ">
<polygon fill="white" stroke="#bfbfbf" points="44,-0.5 44,-19.5 141,-19.5 141,-0.5 44,-0.5"/>
<text text-anchor="middle" x="92.5" y="-7.5" font-family="Helvetica,sans-Serif" font-size="10.00">InputParameters.h</text>
</a>
</g>
</g>
<!-- Node3&#45;&gt;Node4 -->
<g id="edge3" class="edge">
<title>Node3&#45;&gt;Node4</title>
<path fill="none" stroke="midnightblue" d="M143.7,-56.32C134.68,-48.34 121.09,-36.31 110.18,-26.65"/>
<polygon fill="midnightblue" stroke="midnightblue" points="112.29,-23.84 102.48,-19.83 107.65,-29.08 112.29,-23.84"/>
</g>
<!-- Node5 -->
<g id="node5" class="node">
<title>Node5</title>
<g id="a_node5"><a xlink:title=" ">
<polygon fill="white" stroke="#bfbfbf" points="159,-0.5 159,-19.5 270,-19.5 270,-0.5 159,-0.5"/>
<text text-anchor="middle" x="214.5" y="-7.5" font-family="Helvetica,sans-Serif" font-size="10.00">MooseVariableBase.h</text>
</a>
</g>
</g>
<!-- Node3&#45;&gt;Node5 -->
<g id="edge4" class="edge">
<title>Node3&#45;&gt;Node5</title>
<path fill="none" stroke="midnightblue" d="M163.3,-56.32C172.32,-48.34 185.91,-36.31 196.82,-26.65"/>
<polygon fill="midnightblue" stroke="midnightblue" points="199.35,-29.08 204.52,-19.83 194.71,-23.84 199.35,-29.08"/>
</g>
</g>
</svg>
