<?xml version="1.0" encoding="UTF-8" standalone="no"?>
<!DOCTYPE svg PUBLIC "-//W3C//DTD SVG 1.1//EN"
 "http://www.w3.org/Graphics/SVG/1.1/DTD/svg11.dtd">
<!-- Generated by graphviz version 2.43.0 (0)
 -->
<!-- Title: src/kernels/DivFreeCoupledScalarAdvection.C Pages: 1 -->
<svg width="272pt" height="207pt"
 viewBox="0.00 0.00 271.50 207.00" xmlns="http://www.w3.org/2000/svg" xmlns:xlink="http://www.w3.org/1999/xlink">
<g id="graph0" class="graph" transform="scale(1 1) rotate(0) translate(4 203)">
<title>src/kernels/DivFreeCoupledScalarAdvection.C</title>
<polygon fill="white" stroke="transparent" points="-4,4 -4,-203 267.5,-203 267.5,4 -4,4"/>
<!-- Node1 -->
<g id="node1" class="node">
<title>Node1</title>
<g id="a_node1"><a xlink:title=" ">
<polygon fill="#bfbfbf" stroke="black" points="84.5,-168.5 84.5,-198.5 222.5,-198.5 222.5,-168.5 84.5,-168.5"/>
<text text-anchor="start" x="92.5" y="-186.5" font-family="Helvetica,sans-Serif" font-size="10.00">src/kernels/DivFreeCoupled</text>
<text text-anchor="middle" x="153.5" y="-175.5" font-family="Helvetica,sans-Serif" font-size="10.00">ScalarAdvection.C</text>
</a>
</g>
</g>
<!-- Node2 -->
<g id="node2" class="node">
<title>Node2</title>
<g id="a_node2"><a xlink:href="_div_free_coupled_scalar_advection_8h.html" target="_top" xlink:title=" ">
<polygon fill="white" stroke="black" points="0,-112.5 0,-131.5 167,-131.5 167,-112.5 0,-112.5"/>
<text text-anchor="middle" x="83.5" y="-119.5" font-family="Helvetica,sans-Serif" font-size="10.00">DivFreeCoupledScalarAdvection.h</text>
</a>
</g>
</g>
<!-- Node1&#45;&gt;Node2 -->
<g id="edge1" class="edge">
<title>Node1&#45;&gt;Node2</title>
<path fill="none" stroke="midnightblue" d="M136.91,-168.4C126.21,-159.31 112.31,-147.49 101.37,-138.19"/>
<polygon fill="midnightblue" stroke="midnightblue" points="103.57,-135.47 93.69,-131.66 99.04,-140.8 103.57,-135.47"/>
</g>
<!-- Node7 -->
<g id="node7" class="node">
<title>Node7</title>
<g id="a_node7"><a xlink:title=" ">
<polygon fill="white" stroke="#bfbfbf" points="185.5,-112.5 185.5,-131.5 263.5,-131.5 263.5,-112.5 185.5,-112.5"/>
<text text-anchor="middle" x="224.5" y="-119.5" font-family="Helvetica,sans-Serif" font-size="10.00">MooseMesh.h</text>
</a>
</g>
</g>
<!-- Node1&#45;&gt;Node7 -->
<g id="edge6" class="edge">
<title>Node1&#45;&gt;Node7</title>
<path fill="none" stroke="midnightblue" d="M170.33,-168.4C181.17,-159.31 195.28,-147.49 206.37,-138.19"/>
<polygon fill="midnightblue" stroke="midnightblue" points="208.75,-140.76 214.17,-131.66 204.26,-135.4 208.75,-140.76"/>
</g>
<!-- Node3 -->
<g id="node3" class="node">
<title>Node3</title>
<g id="a_node3"><a xlink:title=" ">
<polygon fill="white" stroke="#bfbfbf" points="6,-56.5 6,-75.5 59,-75.5 59,-56.5 6,-56.5"/>
<text text-anchor="middle" x="32.5" y="-63.5" font-family="Helvetica,sans-Serif" font-size="10.00">Kernel.h</text>
</a>
</g>
</g>
<!-- Node2&#45;&gt;Node3 -->
<g id="edge2" class="edge">
<title>Node2&#45;&gt;Node3</title>
<path fill="none" stroke="midnightblue" d="M75.08,-112.08C67.65,-104.22 56.65,-92.57 47.69,-83.08"/>
<polygon fill="midnightblue" stroke="midnightblue" points="50.18,-80.62 40.76,-75.75 45.09,-85.42 50.18,-80.62"/>
</g>
<!-- Node4 -->
<g id="node4" class="node">
<title>Node4</title>
<g id="a_node4"><a xlink:href="_scalar_transport_base_8h.html" target="_top" xlink:title=" ">
<polygon fill="white" stroke="black" points="77.5,-56.5 77.5,-75.5 193.5,-75.5 193.5,-56.5 77.5,-56.5"/>
<text text-anchor="middle" x="135.5" y="-63.5" font-family="Helvetica,sans-Serif" font-size="10.00">ScalarTransportBase.h</text>
</a>
</g>
</g>
<!-- Node2&#45;&gt;Node4 -->
<g id="edge3" class="edge">
<title>Node2&#45;&gt;Node4</title>
<path fill="none" stroke="midnightblue" d="M92.09,-112.08C99.66,-104.22 110.88,-92.57 120.01,-83.08"/>
<polygon fill="midnightblue" stroke="midnightblue" points="122.66,-85.38 127.07,-75.75 117.62,-80.53 122.66,-85.38"/>
</g>
<!-- Node5 -->
<g id="node5" class="node">
<title>Node5</title>
<g id="a_node5"><a xlink:title=" ">
<polygon fill="white" stroke="#bfbfbf" points="26,-0.5 26,-19.5 123,-19.5 123,-0.5 26,-0.5"/>
<text text-anchor="middle" x="74.5" y="-7.5" font-family="Helvetica,sans-Serif" font-size="10.00">InputParameters.h</text>
</a>
</g>
</g>
<!-- Node4&#45;&gt;Node5 -->
<g id="edge4" class="edge">
<title>Node4&#45;&gt;Node5</title>
<path fill="none" stroke="midnightblue" d="M125.7,-56.32C116.68,-48.34 103.09,-36.31 92.18,-26.65"/>
<polygon fill="midnightblue" stroke="midnightblue" points="94.29,-23.84 84.48,-19.83 89.65,-29.08 94.29,-23.84"/>
</g>
<!-- Node6 -->
<g id="node6" class="node">
<title>Node6</title>
<g id="a_node6"><a xlink:title=" ">
<polygon fill="white" stroke="#bfbfbf" points="141,-0.5 141,-19.5 252,-19.5 252,-0.5 141,-0.5"/>
<text text-anchor="middle" x="196.5" y="-7.5" font-family="Helvetica,sans-Serif" font-size="10.00">MooseVariableBase.h</text>
</a>
</g>
</g>
<!-- Node4&#45;&gt;Node6 -->
<g id="edge5" class="edge">
<title>Node4&#45;&gt;Node6</title>
<path fill="none" stroke="midnightblue" d="M145.3,-56.32C154.32,-48.34 167.91,-36.31 178.82,-26.65"/>
<polygon fill="midnightblue" stroke="midnightblue" points="181.35,-29.08 186.52,-19.83 176.71,-23.84 181.35,-29.08"/>
</g>
</g>
</svg>
