<?xml version="1.0" encoding="UTF-8" standalone="no"?>
<!DOCTYPE svg PUBLIC "-//W3C//DTD SVG 1.1//EN"
 "http://www.w3.org/Graphics/SVG/1.1/DTD/svg11.dtd">
<!-- Generated by graphviz version 2.43.0 (0)
 -->
<!-- Title: include/postprocessors/ElmIntegTotFissHeatPostprocessor.h Pages: 1 -->
<svg width="329pt" height="173pt"
 viewBox="0.00 0.00 329.00 173.00" xmlns="http://www.w3.org/2000/svg" xmlns:xlink="http://www.w3.org/1999/xlink">
<g id="graph0" class="graph" transform="scale(1 1) rotate(0) translate(4 169)">
<title>include/postprocessors/ElmIntegTotFissHeatPostprocessor.h</title>
<polygon fill="white" stroke="transparent" points="-4,4 -4,-169 325,-169 325,4 -4,4"/>
<!-- Node1 -->
<g id="node1" class="node">
<title>Node1</title>
<g id="a_node1"><a xlink:title=" ">
<polygon fill="#bfbfbf" stroke="black" points="85.5,-134.5 85.5,-164.5 267.5,-164.5 267.5,-134.5 85.5,-134.5"/>
<text text-anchor="start" x="93.5" y="-152.5" font-family="Helvetica,sans-Serif" font-size="10.00">include/postprocessors</text>
<text text-anchor="middle" x="176.5" y="-141.5" font-family="Helvetica,sans-Serif" font-size="10.00">/ElmIntegTotFissHeatPostprocessor.h</text>
</a>
</g>
</g>
<!-- Node2 -->
<g id="node2" class="node">
<title>Node2</title>
<g id="a_node2"><a xlink:href="_elm_integ_tot_fiss_heat_postprocessor_8_c.html" target="_top" xlink:title=" ">
<polygon fill="white" stroke="black" points="0,-67.5 0,-97.5 185,-97.5 185,-67.5 0,-67.5"/>
<text text-anchor="start" x="8" y="-85.5" font-family="Helvetica,sans-Serif" font-size="10.00">src/postprocessors</text>
<text text-anchor="middle" x="92.5" y="-74.5" font-family="Helvetica,sans-Serif" font-size="10.00">/ElmIntegTotFissHeatPostprocessor.C</text>
</a>
</g>
</g>
<!-- Node1&#45;&gt;Node2 -->
<g id="edge1" class="edge">
<title>Node1&#45;&gt;Node2</title>
<path fill="none" stroke="midnightblue" d="M150.22,-128.17C137.38,-118.23 122.24,-106.51 110.69,-97.58"/>
<polygon fill="midnightblue" stroke="midnightblue" points="148.22,-131.04 158.27,-134.4 152.51,-125.51 148.22,-131.04"/>
</g>
<!-- Node3 -->
<g id="node3" class="node">
<title>Node3</title>
<g id="a_node3"><a xlink:href="_average_fission_heat_8h.html" target="_top" xlink:title=" ">
<polygon fill="white" stroke="black" points="203,-67.5 203,-97.5 320,-97.5 320,-67.5 203,-67.5"/>
<text text-anchor="start" x="211" y="-85.5" font-family="Helvetica,sans-Serif" font-size="10.00">include/postprocessors</text>
<text text-anchor="middle" x="261.5" y="-74.5" font-family="Helvetica,sans-Serif" font-size="10.00">/AverageFissionHeat.h</text>
</a>
</g>
</g>
<!-- Node1&#45;&gt;Node3 -->
<g id="edge2" class="edge">
<title>Node1&#45;&gt;Node3</title>
<path fill="none" stroke="midnightblue" d="M203.09,-128.17C216.09,-118.23 231.4,-106.51 243.09,-97.58"/>
<polygon fill="midnightblue" stroke="midnightblue" points="200.76,-125.54 194.94,-134.4 205.01,-131.1 200.76,-125.54"/>
</g>
<!-- Node4 -->
<g id="node4" class="node">
<title>Node4</title>
<g id="a_node4"><a xlink:href="_average_fission_heat_8_c.html" target="_top" xlink:title=" ">
<polygon fill="white" stroke="black" points="202,-0.5 202,-30.5 321,-30.5 321,-0.5 202,-0.5"/>
<text text-anchor="start" x="210" y="-18.5" font-family="Helvetica,sans-Serif" font-size="10.00">src/postprocessors</text>
<text text-anchor="middle" x="261.5" y="-7.5" font-family="Helvetica,sans-Serif" font-size="10.00">/AverageFissionHeat.C</text>
</a>
</g>
</g>
<!-- Node3&#45;&gt;Node4 -->
<g id="edge3" class="edge">
<title>Node3&#45;&gt;Node4</title>
<path fill="none" stroke="midnightblue" d="M261.5,-57.11C261.5,-48.15 261.5,-38.32 261.5,-30.58"/>
<polygon fill="midnightblue" stroke="midnightblue" points="258,-57.4 261.5,-67.4 265,-57.4 258,-57.4"/>
</g>
</g>
</svg>
