<?xml version="1.0" encoding="UTF-8" standalone="no"?>
<!DOCTYPE svg PUBLIC "-//W3C//DTD SVG 1.1//EN"
 "http://www.w3.org/Graphics/SVG/1.1/DTD/svg11.dtd">
<!-- Generated by graphviz version 2.38.0 (20140413.2041)
 -->
<!-- Title: include/postprocessors/ElmIntegTotFissPostprocessor.h Pages: 1 -->
<svg width="357pt" height="151pt"
 viewBox="0.00 0.00 357.00 151.00" xmlns="http://www.w3.org/2000/svg" xmlns:xlink="http://www.w3.org/1999/xlink">
<g id="graph0" class="graph" transform="scale(1 1) rotate(0) translate(4 147)">
<title>include/postprocessors/ElmIntegTotFissPostprocessor.h</title>
<polygon fill="white" stroke="none" points="-4,4 -4,-147 353,-147 353,4 -4,4"/>
<!-- Node0 -->
<g id="node1" class="node"><title>Node0</title>
<polygon fill="#bfbfbf" stroke="black" points="73.5,-112.5 73.5,-142.5 236.5,-142.5 236.5,-112.5 73.5,-112.5"/>
<text text-anchor="start" x="81.5" y="-130.5" font-family="Helvetica,sans-Serif" font-size="10.00">include/postprocessors</text>
<text text-anchor="middle" x="155" y="-119.5" font-family="Helvetica,sans-Serif" font-size="10.00">/ElmIntegTotFissPostprocessor.h</text>
</g>
<!-- Node1 -->
<g id="node2" class="node"><title>Node1</title>
<polygon fill="white" stroke="#bfbfbf" points="0,-56.5 0,-75.5 156,-75.5 156,-56.5 0,-56.5"/>
<text text-anchor="middle" x="78" y="-63.5" font-family="Helvetica,sans-Serif" font-size="10.00">ElementIntegralPostprocessor.h</text>
</g>
<!-- Node0&#45;&gt;Node1 -->
<g id="edge1" class="edge"><title>Node0&#45;&gt;Node1</title>
<path fill="none" stroke="midnightblue" d="M136.752,-112.399C124.871,-103.218 109.393,-91.2579 97.3059,-81.9182"/>
<polygon fill="midnightblue" stroke="midnightblue" points="99.2571,-79.0028 89.2042,-75.6578 94.977,-84.5418 99.2571,-79.0028"/>
</g>
<!-- Node2 -->
<g id="node3" class="node"><title>Node2</title>
<g id="a_node3"><a xlink:href="_scalar_transport_base_8h.html" target="_top" xlink:title="ScalarTransportBase.h">
<polygon fill="white" stroke="black" points="174,-56.5 174,-75.5 290,-75.5 290,-56.5 174,-56.5"/>
<text text-anchor="middle" x="232" y="-63.5" font-family="Helvetica,sans-Serif" font-size="10.00">ScalarTransportBase.h</text>
</a>
</g>
</g>
<!-- Node0&#45;&gt;Node2 -->
<g id="edge2" class="edge"><title>Node0&#45;&gt;Node2</title>
<path fill="none" stroke="midnightblue" d="M173.248,-112.399C185.129,-103.218 200.607,-91.2579 212.694,-81.9182"/>
<polygon fill="midnightblue" stroke="midnightblue" points="215.023,-84.5418 220.796,-75.6578 210.743,-79.0028 215.023,-84.5418"/>
</g>
<!-- Node3 -->
<g id="node4" class="node"><title>Node3</title>
<polygon fill="white" stroke="#bfbfbf" points="121.5,-0.5 121.5,-19.5 218.5,-19.5 218.5,-0.5 121.5,-0.5"/>
<text text-anchor="middle" x="170" y="-7.5" font-family="Helvetica,sans-Serif" font-size="10.00">InputParameters.h</text>
</g>
<!-- Node2&#45;&gt;Node3 -->
<g id="edge3" class="edge"><title>Node2&#45;&gt;Node3</title>
<path fill="none" stroke="midnightblue" d="M222.039,-56.324C212.873,-48.3414 199.063,-36.3128 187.972,-26.6529"/>
<polygon fill="midnightblue" stroke="midnightblue" points="189.982,-23.7624 180.143,-19.8339 185.385,-29.041 189.982,-23.7624"/>
</g>
<!-- Node4 -->
<g id="node5" class="node"><title>Node4</title>
<polygon fill="white" stroke="#bfbfbf" points="237,-0.5 237,-19.5 349,-19.5 349,-0.5 237,-0.5"/>
<text text-anchor="middle" x="293" y="-7.5" font-family="Helvetica,sans-Serif" font-size="10.00">MooseVariableBase.h</text>
</g>
<!-- Node2&#45;&gt;Node4 -->
<g id="edge4" class="edge"><title>Node2&#45;&gt;Node4</title>
<path fill="none" stroke="midnightblue" d="M241.801,-56.324C250.818,-48.3414 264.406,-36.3128 275.318,-26.6529"/>
<polygon fill="midnightblue" stroke="midnightblue" points="277.853,-29.083 283.021,-19.8339 273.213,-23.8416 277.853,-29.083"/>
</g>
</g>
</svg>
