<?xml version="1.0" encoding="UTF-8" standalone="no"?>
<!DOCTYPE svg PUBLIC "-//W3C//DTD SVG 1.1//EN"
 "http://www.w3.org/Graphics/SVG/1.1/DTD/svg11.dtd">
<!-- Generated by graphviz version 2.43.0 (0)
 -->
<!-- Title: include/postprocessors/ElmIntegTotFissPostprocessor.h Pages: 1 -->
<svg width="425pt" height="240pt"
 viewBox="0.00 0.00 424.50 240.00" xmlns="http://www.w3.org/2000/svg" xmlns:xlink="http://www.w3.org/1999/xlink">
<g id="graph0" class="graph" transform="scale(1 1) rotate(0) translate(4 236)">
<title>include/postprocessors/ElmIntegTotFissPostprocessor.h</title>
<polygon fill="white" stroke="transparent" points="-4,4 -4,-236 420.5,-236 420.5,4 -4,4"/>
<!-- Node1 -->
<g id="node1" class="node">
<title>Node1</title>
<g id="a_node1"><a xlink:title=" ">
<polygon fill="#bfbfbf" stroke="black" points="96.5,-201.5 96.5,-231.5 257.5,-231.5 257.5,-201.5 96.5,-201.5"/>
<text text-anchor="start" x="104.5" y="-219.5" font-family="Helvetica,sans-Serif" font-size="10.00">include/postprocessors</text>
<text text-anchor="middle" x="177" y="-208.5" font-family="Helvetica,sans-Serif" font-size="10.00">/ElmIntegTotFissPostprocessor.h</text>
</a>
</g>
</g>
<!-- Node2 -->
<g id="node2" class="node">
<title>Node2</title>
<g id="a_node2"><a xlink:href="_elm_integ_tot_fiss_postprocessor_8_c.html" target="_top" xlink:title=" ">
<polygon fill="white" stroke="black" points="0,-134.5 0,-164.5 164,-164.5 164,-134.5 0,-134.5"/>
<text text-anchor="start" x="8" y="-152.5" font-family="Helvetica,sans-Serif" font-size="10.00">src/postprocessors</text>
<text text-anchor="middle" x="82" y="-141.5" font-family="Helvetica,sans-Serif" font-size="10.00">/ElmIntegTotFissPostprocessor.C</text>
</a>
</g>
</g>
<!-- Node1&#45;&gt;Node2 -->
<g id="edge1" class="edge">
<title>Node1&#45;&gt;Node2</title>
<path fill="none" stroke="midnightblue" d="M148.11,-195.73C133.41,-185.68 115.89,-173.68 102.57,-164.58"/>
<polygon fill="midnightblue" stroke="midnightblue" points="146.16,-198.64 156.39,-201.4 150.11,-192.86 146.16,-198.64"/>
</g>
<!-- Node3 -->
<g id="node3" class="node">
<title>Node3</title>
<g id="a_node3"><a xlink:href="_elm_integ_tot_fiss_heat_postprocessor_8h.html" target="_top" xlink:title=" ">
<polygon fill="white" stroke="black" points="182,-134.5 182,-164.5 364,-164.5 364,-134.5 182,-134.5"/>
<text text-anchor="start" x="190" y="-152.5" font-family="Helvetica,sans-Serif" font-size="10.00">include/postprocessors</text>
<text text-anchor="middle" x="273" y="-141.5" font-family="Helvetica,sans-Serif" font-size="10.00">/ElmIntegTotFissHeatPostprocessor.h</text>
</a>
</g>
</g>
<!-- Node1&#45;&gt;Node3 -->
<g id="edge2" class="edge">
<title>Node1&#45;&gt;Node3</title>
<path fill="none" stroke="midnightblue" d="M206.19,-195.73C221.05,-185.68 238.76,-173.68 252.21,-164.58"/>
<polygon fill="midnightblue" stroke="midnightblue" points="204.15,-192.89 197.83,-201.4 208.07,-198.69 204.15,-192.89"/>
</g>
<!-- Node4 -->
<g id="node4" class="node">
<title>Node4</title>
<g id="a_node4"><a xlink:href="_elm_integ_tot_fiss_heat_postprocessor_8_c.html" target="_top" xlink:title=" ">
<polygon fill="white" stroke="black" points="95.5,-67.5 95.5,-97.5 280.5,-97.5 280.5,-67.5 95.5,-67.5"/>
<text text-anchor="start" x="103.5" y="-85.5" font-family="Helvetica,sans-Serif" font-size="10.00">src/postprocessors</text>
<text text-anchor="middle" x="188" y="-74.5" font-family="Helvetica,sans-Serif" font-size="10.00">/ElmIntegTotFissHeatPostprocessor.C</text>
</a>
</g>
</g>
<!-- Node3&#45;&gt;Node4 -->
<g id="edge3" class="edge">
<title>Node3&#45;&gt;Node4</title>
<path fill="none" stroke="midnightblue" d="M246.41,-128.17C233.41,-118.23 218.1,-106.51 206.41,-97.58"/>
<polygon fill="midnightblue" stroke="midnightblue" points="244.49,-131.1 254.56,-134.4 248.74,-125.54 244.49,-131.1"/>
</g>
<!-- Node5 -->
<g id="node5" class="node">
<title>Node5</title>
<g id="a_node5"><a xlink:href="_average_fission_heat_8h.html" target="_top" xlink:title=" ">
<polygon fill="white" stroke="black" points="298.5,-67.5 298.5,-97.5 415.5,-97.5 415.5,-67.5 298.5,-67.5"/>
<text text-anchor="start" x="306.5" y="-85.5" font-family="Helvetica,sans-Serif" font-size="10.00">include/postprocessors</text>
<text text-anchor="middle" x="357" y="-74.5" font-family="Helvetica,sans-Serif" font-size="10.00">/AverageFissionHeat.h</text>
</a>
</g>
</g>
<!-- Node3&#45;&gt;Node5 -->
<g id="edge4" class="edge">
<title>Node3&#45;&gt;Node5</title>
<path fill="none" stroke="midnightblue" d="M299.28,-128.17C312.12,-118.23 327.26,-106.51 338.81,-97.58"/>
<polygon fill="midnightblue" stroke="midnightblue" points="296.99,-125.51 291.23,-134.4 301.28,-131.04 296.99,-125.51"/>
</g>
<!-- Node6 -->
<g id="node6" class="node">
<title>Node6</title>
<g id="a_node6"><a xlink:href="_average_fission_heat_8_c.html" target="_top" xlink:title=" ">
<polygon fill="white" stroke="black" points="297.5,-0.5 297.5,-30.5 416.5,-30.5 416.5,-0.5 297.5,-0.5"/>
<text text-anchor="start" x="305.5" y="-18.5" font-family="Helvetica,sans-Serif" font-size="10.00">src/postprocessors</text>
<text text-anchor="middle" x="357" y="-7.5" font-family="Helvetica,sans-Serif" font-size="10.00">/AverageFissionHeat.C</text>
</a>
</g>
</g>
<!-- Node5&#45;&gt;Node6 -->
<g id="edge5" class="edge">
<title>Node5&#45;&gt;Node6</title>
<path fill="none" stroke="midnightblue" d="M357,-57.11C357,-48.15 357,-38.32 357,-30.58"/>
<polygon fill="midnightblue" stroke="midnightblue" points="353.5,-57.4 357,-67.4 360.5,-57.4 353.5,-57.4"/>
</g>
</g>
</svg>
