<?xml version="1.0" encoding="UTF-8" standalone="no"?>
<!DOCTYPE svg PUBLIC "-//W3C//DTD SVG 1.1//EN"
 "http://www.w3.org/Graphics/SVG/1.1/DTD/svg11.dtd">
<!-- Generated by graphviz version 2.38.0 (20140413.2041)
 -->
<!-- Title: include/postprocessors/ElmIntegTotFissPostprocessor.h Pages: 1 -->
<svg width="457pt" height="240pt"
 viewBox="0.00 0.00 457.38 240.00" xmlns="http://www.w3.org/2000/svg" xmlns:xlink="http://www.w3.org/1999/xlink">
<g id="graph0" class="graph" transform="scale(1 1) rotate(0) translate(4 236)">
<title>include/postprocessors/ElmIntegTotFissPostprocessor.h</title>
<polygon fill="white" stroke="none" points="-4,4 -4,-236 453.381,-236 453.381,4 -4,4"/>
<!-- Node5 -->
<g id="node1" class="node"><title>Node5</title>
<polygon fill="#bfbfbf" stroke="black" points="18.3811,-201.5 18.3811,-231.5 181.381,-231.5 181.381,-201.5 18.3811,-201.5"/>
<text text-anchor="start" x="26.3811" y="-219.5" font-family="Helvetica,sans-Serif" font-size="10.00">include/postprocessors</text>
<text text-anchor="middle" x="99.8811" y="-208.5" font-family="Helvetica,sans-Serif" font-size="10.00">/ElmIntegTotFissPostprocessor.h</text>
</g>
<!-- Node6 -->
<g id="node2" class="node"><title>Node6</title>
<g id="a_node2"><a xlink:href="_moltres_app_8_c.html" target="_top" xlink:title="src/base/MoltresApp.C">
<polygon fill="white" stroke="black" points="40.3811,-6 40.3811,-25 157.381,-25 157.381,-6 40.3811,-6"/>
<text text-anchor="middle" x="98.8811" y="-13" font-family="Helvetica,sans-Serif" font-size="10.00">src/base/MoltresApp.C</text>
</a>
</g>
</g>
<!-- Node5&#45;&gt;Node6 -->
<g id="edge1" class="edge"><title>Node5&#45;&gt;Node6</title>
<path fill="none" stroke="midnightblue" d="M43.8569,-196.779C29.6519,-189.216 16.1026,-178.891 7.88114,-165 -23.8434,-111.396 54.4133,-47.9041 86.1924,-25.1472"/>
<polygon fill="midnightblue" stroke="midnightblue" points="42.7152,-200.117 53.2369,-201.36 45.7871,-193.827 42.7152,-200.117"/>
</g>
<!-- Node7 -->
<g id="node3" class="node"><title>Node7</title>
<g id="a_node3"><a xlink:href="_elm_integ_tot_fiss_postprocessor_8_c.html" target="_top" xlink:title="src/postprocessors\l/ElmIntegTotFissPostprocessor.C">
<polygon fill="white" stroke="black" points="17.3811,-134.5 17.3811,-164.5 182.381,-164.5 182.381,-134.5 17.3811,-134.5"/>
<text text-anchor="start" x="25.3811" y="-152.5" font-family="Helvetica,sans-Serif" font-size="10.00">src/postprocessors</text>
<text text-anchor="middle" x="99.8811" y="-141.5" font-family="Helvetica,sans-Serif" font-size="10.00">/ElmIntegTotFissPostprocessor.C</text>
</a>
</g>
</g>
<!-- Node5&#45;&gt;Node7 -->
<g id="edge2" class="edge"><title>Node5&#45;&gt;Node7</title>
<path fill="none" stroke="midnightblue" d="M99.8811,-191.108C99.8811,-182.154 99.8811,-172.323 99.8811,-164.577"/>
<polygon fill="midnightblue" stroke="midnightblue" points="96.3812,-191.396 99.8811,-201.396 103.381,-191.396 96.3812,-191.396"/>
</g>
<!-- Node8 -->
<g id="node4" class="node"><title>Node8</title>
<g id="a_node4"><a xlink:href="_elm_integ_tot_fiss_heat_postprocessor_8h.html" target="_top" xlink:title="include/postprocessors\l/ElmIntegTotFissHeatPostprocessor.h">
<polygon fill="white" stroke="black" points="200.881,-134.5 200.881,-164.5 384.881,-164.5 384.881,-134.5 200.881,-134.5"/>
<text text-anchor="start" x="208.881" y="-152.5" font-family="Helvetica,sans-Serif" font-size="10.00">include/postprocessors</text>
<text text-anchor="middle" x="292.881" y="-141.5" font-family="Helvetica,sans-Serif" font-size="10.00">/ElmIntegTotFissHeatPostprocessor.h</text>
</a>
</g>
</g>
<!-- Node5&#45;&gt;Node8 -->
<g id="edge3" class="edge"><title>Node5&#45;&gt;Node8</title>
<path fill="none" stroke="midnightblue" d="M151.57,-198.092C182.726,-187.599 221.892,-174.408 251.085,-164.577"/>
<polygon fill="midnightblue" stroke="midnightblue" points="150.119,-194.887 141.759,-201.396 152.353,-201.521 150.119,-194.887"/>
</g>
<!-- Node8&#45;&gt;Node6 -->
<g id="edge4" class="edge"><title>Node8&#45;&gt;Node6</title>
<path fill="none" stroke="midnightblue" d="M206.744,-132.185C169.182,-123.4 130.772,-111.578 117.881,-98 98.6747,-77.77 97.5904,-42.0412 98.2487,-25.4412"/>
<polygon fill="midnightblue" stroke="midnightblue" points="206.248,-135.662 216.775,-134.467 207.8,-128.836 206.248,-135.662"/>
</g>
<!-- Node9 -->
<g id="node5" class="node"><title>Node9</title>
<g id="a_node5"><a xlink:href="_elm_integ_tot_fiss_heat_postprocessor_8_c.html" target="_top" xlink:title="src/postprocessors\l/ElmIntegTotFissHeatPostprocessor.C">
<polygon fill="white" stroke="black" points="126.881,-67.5 126.881,-97.5 312.881,-97.5 312.881,-67.5 126.881,-67.5"/>
<text text-anchor="start" x="134.881" y="-85.5" font-family="Helvetica,sans-Serif" font-size="10.00">src/postprocessors</text>
<text text-anchor="middle" x="219.881" y="-74.5" font-family="Helvetica,sans-Serif" font-size="10.00">/ElmIntegTotFissHeatPostprocessor.C</text>
</a>
</g>
</g>
<!-- Node8&#45;&gt;Node9 -->
<g id="edge5" class="edge"><title>Node8&#45;&gt;Node9</title>
<path fill="none" stroke="midnightblue" d="M269.406,-127.598C258.384,-117.783 245.537,-106.344 235.69,-97.5765"/>
<polygon fill="midnightblue" stroke="midnightblue" points="267.245,-130.36 277.041,-134.396 271.9,-125.132 267.245,-130.36"/>
</g>
<!-- Node10 -->
<g id="node6" class="node"><title>Node10</title>
<g id="a_node6"><a xlink:href="_average_fission_heat_8h.html" target="_top" xlink:title="include/postprocessors\l/AverageFissionHeat.h">
<polygon fill="white" stroke="black" points="331.381,-67.5 331.381,-97.5 448.381,-97.5 448.381,-67.5 331.381,-67.5"/>
<text text-anchor="start" x="339.381" y="-85.5" font-family="Helvetica,sans-Serif" font-size="10.00">include/postprocessors</text>
<text text-anchor="middle" x="389.881" y="-74.5" font-family="Helvetica,sans-Serif" font-size="10.00">/AverageFissionHeat.h</text>
</a>
</g>
</g>
<!-- Node8&#45;&gt;Node10 -->
<g id="edge6" class="edge"><title>Node8&#45;&gt;Node10</title>
<path fill="none" stroke="midnightblue" d="M322.379,-128.734C337.388,-118.676 355.282,-106.685 368.875,-97.5765"/>
<polygon fill="midnightblue" stroke="midnightblue" points="320.288,-125.922 313.929,-134.396 324.184,-131.737 320.288,-125.922"/>
</g>
<!-- Node10&#45;&gt;Node6 -->
<g id="edge7" class="edge"><title>Node10&#45;&gt;Node6</title>
<path fill="none" stroke="midnightblue" d="M321.233,-66.1662C263.688,-53.3125 183.648,-35.4343 136.949,-25.0032"/>
<polygon fill="midnightblue" stroke="midnightblue" points="320.82,-69.6603 331.343,-68.4245 322.347,-62.8286 320.82,-69.6603"/>
</g>
<!-- Node11 -->
<g id="node7" class="node"><title>Node11</title>
<g id="a_node7"><a xlink:href="_average_fission_heat_8_c.html" target="_top" xlink:title="src/postprocessors\l/AverageFissionHeat.C">
<polygon fill="white" stroke="black" points="330.381,-0.5 330.381,-30.5 449.381,-30.5 449.381,-0.5 330.381,-0.5"/>
<text text-anchor="start" x="338.381" y="-18.5" font-family="Helvetica,sans-Serif" font-size="10.00">src/postprocessors</text>
<text text-anchor="middle" x="389.881" y="-7.5" font-family="Helvetica,sans-Serif" font-size="10.00">/AverageFissionHeat.C</text>
</a>
</g>
</g>
<!-- Node10&#45;&gt;Node11 -->
<g id="edge8" class="edge"><title>Node10&#45;&gt;Node11</title>
<path fill="none" stroke="midnightblue" d="M389.881,-57.1081C389.881,-48.1539 389.881,-38.3227 389.881,-30.5765"/>
<polygon fill="midnightblue" stroke="midnightblue" points="386.381,-57.3959 389.881,-67.396 393.381,-57.396 386.381,-57.3959"/>
</g>
</g>
</svg>
