<?xml version="1.0" encoding="UTF-8" standalone="no"?>
<!DOCTYPE svg PUBLIC "-//W3C//DTD SVG 1.1//EN"
 "http://www.w3.org/Graphics/SVG/1.1/DTD/svg11.dtd">
<!-- Generated by graphviz version 2.38.0 (20140413.2041)
 -->
<!-- Title: src/postprocessors/ElmIntegTotFissNtsPostprocessor.C Pages: 1 -->
<svg width="310pt" height="151pt"
 viewBox="0.00 0.00 310.00 151.00" xmlns="http://www.w3.org/2000/svg" xmlns:xlink="http://www.w3.org/1999/xlink">
<g id="graph0" class="graph" transform="scale(1 1) rotate(0) translate(4 147)">
<title>src/postprocessors/ElmIntegTotFissNtsPostprocessor.C</title>
<polygon fill="white" stroke="none" points="-4,4 -4,-147 306,-147 306,4 -4,4"/>
<!-- Node0 -->
<g id="node1" class="node"><title>Node0</title>
<polygon fill="#bfbfbf" stroke="black" points="67.5,-112.5 67.5,-142.5 248.5,-142.5 248.5,-112.5 67.5,-112.5"/>
<text text-anchor="start" x="75.5" y="-130.5" font-family="Helvetica,sans-Serif" font-size="10.00">src/postprocessors</text>
<text text-anchor="middle" x="158" y="-119.5" font-family="Helvetica,sans-Serif" font-size="10.00">/ElmIntegTotFissNtsPostprocessor.C</text>
</g>
<!-- Node1 -->
<g id="node2" class="node"><title>Node1</title>
<g id="a_node2"><a xlink:href="_elm_integ_tot_fiss_nts_postprocessor_8h.html" target="_top" xlink:title="ElmIntegTotFissNtsPostprocessor.h">
<polygon fill="white" stroke="black" points="70,-56.5 70,-75.5 246,-75.5 246,-56.5 70,-56.5"/>
<text text-anchor="middle" x="158" y="-63.5" font-family="Helvetica,sans-Serif" font-size="10.00">ElmIntegTotFissNtsPostprocessor.h</text>
</a>
</g>
</g>
<!-- Node0&#45;&gt;Node1 -->
<g id="edge1" class="edge"><title>Node0&#45;&gt;Node1</title>
<path fill="none" stroke="midnightblue" d="M158,-112.399C158,-104.466 158,-94.458 158,-85.8583"/>
<polygon fill="midnightblue" stroke="midnightblue" points="161.5,-85.6577 158,-75.6578 154.5,-85.6578 161.5,-85.6577"/>
</g>
<!-- Node2 -->
<g id="node3" class="node"><title>Node2</title>
<polygon fill="white" stroke="#bfbfbf" points="0,-0.5 0,-19.5 156,-19.5 156,-0.5 0,-0.5"/>
<text text-anchor="middle" x="78" y="-7.5" font-family="Helvetica,sans-Serif" font-size="10.00">ElementIntegralPostprocessor.h</text>
</g>
<!-- Node1&#45;&gt;Node2 -->
<g id="edge2" class="edge"><title>Node1&#45;&gt;Node2</title>
<path fill="none" stroke="midnightblue" d="M145.147,-56.324C132.784,-47.979 113.87,-35.2122 99.2628,-25.3524"/>
<polygon fill="midnightblue" stroke="midnightblue" points="101.068,-22.3483 90.8215,-19.6545 97.1518,-28.1503 101.068,-22.3483"/>
</g>
<!-- Node3 -->
<g id="node4" class="node"><title>Node3</title>
<polygon fill="white" stroke="#bfbfbf" points="174,-0.5 174,-19.5 302,-19.5 302,-0.5 174,-0.5"/>
<text text-anchor="middle" x="238" y="-7.5" font-family="Helvetica,sans-Serif" font-size="10.00">MooseVariableInterface.h</text>
</g>
<!-- Node1&#45;&gt;Node3 -->
<g id="edge3" class="edge"><title>Node1&#45;&gt;Node3</title>
<path fill="none" stroke="midnightblue" d="M170.853,-56.324C183.216,-47.979 202.13,-35.2122 216.737,-25.3524"/>
<polygon fill="midnightblue" stroke="midnightblue" points="218.848,-28.1503 225.179,-19.6545 214.932,-22.3483 218.848,-28.1503"/>
</g>
</g>
</svg>
