<?xml version="1.0" encoding="UTF-8" standalone="no"?>
<!DOCTYPE svg PUBLIC "-//W3C//DTD SVG 1.1//EN"
 "http://www.w3.org/Graphics/SVG/1.1/DTD/svg11.dtd">
<!-- Generated by graphviz version 2.43.0 (0)
 -->
<!-- Title: src/postprocessors/ElmIntegTotFissPostprocessor.C Pages: 1 -->
<svg width="356pt" height="207pt"
 viewBox="0.00 0.00 356.00 207.00" xmlns="http://www.w3.org/2000/svg" xmlns:xlink="http://www.w3.org/1999/xlink">
<g id="graph0" class="graph" transform="scale(1 1) rotate(0) translate(4 203)">
<title>src/postprocessors/ElmIntegTotFissPostprocessor.C</title>
<polygon fill="white" stroke="transparent" points="-4,4 -4,-203 352,-203 352,4 -4,4"/>
<!-- Node1 -->
<g id="node1" class="node">
<title>Node1</title>
<g id="a_node1"><a xlink:title=" ">
<polygon fill="#bfbfbf" stroke="black" points="72.5,-168.5 72.5,-198.5 236.5,-198.5 236.5,-168.5 72.5,-168.5"/>
<text text-anchor="start" x="80.5" y="-186.5" font-family="Helvetica,sans-Serif" font-size="10.00">src/postprocessors</text>
<text text-anchor="middle" x="154.5" y="-175.5" font-family="Helvetica,sans-Serif" font-size="10.00">/ElmIntegTotFissPostprocessor.C</text>
</a>
</g>
</g>
<!-- Node2 -->
<g id="node2" class="node">
<title>Node2</title>
<g id="a_node2"><a xlink:href="_elm_integ_tot_fiss_postprocessor_8h.html" target="_top" xlink:title=" ">
<polygon fill="white" stroke="black" points="75.5,-112.5 75.5,-131.5 233.5,-131.5 233.5,-112.5 75.5,-112.5"/>
<text text-anchor="middle" x="154.5" y="-119.5" font-family="Helvetica,sans-Serif" font-size="10.00">ElmIntegTotFissPostprocessor.h</text>
</a>
</g>
</g>
<!-- Node1&#45;&gt;Node2 -->
<g id="edge1" class="edge">
<title>Node1&#45;&gt;Node2</title>
<path fill="none" stroke="midnightblue" d="M154.5,-168.4C154.5,-160.47 154.5,-150.46 154.5,-141.86"/>
<polygon fill="midnightblue" stroke="midnightblue" points="158,-141.66 154.5,-131.66 151,-141.66 158,-141.66"/>
</g>
<!-- Node3 -->
<g id="node3" class="node">
<title>Node3</title>
<g id="a_node3"><a xlink:title=" ">
<polygon fill="white" stroke="#bfbfbf" points="0,-56.5 0,-75.5 155,-75.5 155,-56.5 0,-56.5"/>
<text text-anchor="middle" x="77.5" y="-63.5" font-family="Helvetica,sans-Serif" font-size="10.00">ElementIntegralPostprocessor.h</text>
</a>
</g>
</g>
<!-- Node2&#45;&gt;Node3 -->
<g id="edge2" class="edge">
<title>Node2&#45;&gt;Node3</title>
<path fill="none" stroke="midnightblue" d="M142.13,-112.32C130.34,-104.06 112.37,-91.45 98.36,-81.63"/>
<polygon fill="midnightblue" stroke="midnightblue" points="100.04,-78.53 89.84,-75.65 96.02,-84.26 100.04,-78.53"/>
</g>
<!-- Node4 -->
<g id="node4" class="node">
<title>Node4</title>
<g id="a_node4"><a xlink:href="_scalar_transport_base_8h.html" target="_top" xlink:title=" ">
<polygon fill="white" stroke="black" points="173.5,-56.5 173.5,-75.5 289.5,-75.5 289.5,-56.5 173.5,-56.5"/>
<text text-anchor="middle" x="231.5" y="-63.5" font-family="Helvetica,sans-Serif" font-size="10.00">ScalarTransportBase.h</text>
</a>
</g>
</g>
<!-- Node2&#45;&gt;Node4 -->
<g id="edge3" class="edge">
<title>Node2&#45;&gt;Node4</title>
<path fill="none" stroke="midnightblue" d="M166.87,-112.32C178.66,-104.06 196.63,-91.45 210.64,-81.63"/>
<polygon fill="midnightblue" stroke="midnightblue" points="212.98,-84.26 219.16,-75.65 208.96,-78.53 212.98,-84.26"/>
</g>
<!-- Node5 -->
<g id="node5" class="node">
<title>Node5</title>
<g id="a_node5"><a xlink:title=" ">
<polygon fill="white" stroke="#bfbfbf" points="122,-0.5 122,-19.5 219,-19.5 219,-0.5 122,-0.5"/>
<text text-anchor="middle" x="170.5" y="-7.5" font-family="Helvetica,sans-Serif" font-size="10.00">InputParameters.h</text>
</a>
</g>
</g>
<!-- Node4&#45;&gt;Node5 -->
<g id="edge4" class="edge">
<title>Node4&#45;&gt;Node5</title>
<path fill="none" stroke="midnightblue" d="M221.7,-56.32C212.68,-48.34 199.09,-36.31 188.18,-26.65"/>
<polygon fill="midnightblue" stroke="midnightblue" points="190.29,-23.84 180.48,-19.83 185.65,-29.08 190.29,-23.84"/>
</g>
<!-- Node6 -->
<g id="node6" class="node">
<title>Node6</title>
<g id="a_node6"><a xlink:title=" ">
<polygon fill="white" stroke="#bfbfbf" points="237,-0.5 237,-19.5 348,-19.5 348,-0.5 237,-0.5"/>
<text text-anchor="middle" x="292.5" y="-7.5" font-family="Helvetica,sans-Serif" font-size="10.00">MooseVariableBase.h</text>
</a>
</g>
</g>
<!-- Node4&#45;&gt;Node6 -->
<g id="edge5" class="edge">
<title>Node4&#45;&gt;Node6</title>
<path fill="none" stroke="midnightblue" d="M241.3,-56.32C250.32,-48.34 263.91,-36.31 274.82,-26.65"/>
<polygon fill="midnightblue" stroke="midnightblue" points="277.35,-29.08 282.52,-19.83 272.71,-23.84 277.35,-29.08"/>
</g>
</g>
</svg>
