<?xml version="1.0" encoding="UTF-8" standalone="no"?>
<!DOCTYPE svg PUBLIC "-//W3C//DTD SVG 1.1//EN"
 "http://www.w3.org/Graphics/SVG/1.1/DTD/svg11.dtd">
<!-- Generated by graphviz version 2.43.0 (0)
 -->
<!-- Title: include/materials/GenericMoltresMaterial.h Pages: 1 -->
<svg width="767pt" height="151pt"
 viewBox="0.00 0.00 766.50 151.00" xmlns="http://www.w3.org/2000/svg" xmlns:xlink="http://www.w3.org/1999/xlink">
<g id="graph0" class="graph" transform="scale(1 1) rotate(0) translate(4 147)">
<title>include/materials/GenericMoltresMaterial.h</title>
<polygon fill="white" stroke="transparent" points="-4,4 -4,-147 762.5,-147 762.5,4 -4,4"/>
<!-- Node1 -->
<g id="node1" class="node">
<title>Node1</title>
<g id="a_node1"><a xlink:title=" ">
<polygon fill="#bfbfbf" stroke="black" points="317,-112.5 317,-142.5 444,-142.5 444,-112.5 317,-112.5"/>
<text text-anchor="start" x="325" y="-130.5" font-family="Helvetica,sans-Serif" font-size="10.00">include/materials/Generic</text>
<text text-anchor="middle" x="380.5" y="-119.5" font-family="Helvetica,sans-Serif" font-size="10.00">MoltresMaterial.h</text>
</a>
</g>
</g>
<!-- Node2 -->
<g id="node2" class="node">
<title>Node2</title>
<g id="a_node2"><a xlink:href="_nuclear_material_8h.html" target="_top" xlink:title=" ">
<polygon fill="white" stroke="black" points="334,-56.5 334,-75.5 427,-75.5 427,-56.5 334,-56.5"/>
<text text-anchor="middle" x="380.5" y="-63.5" font-family="Helvetica,sans-Serif" font-size="10.00">NuclearMaterial.h</text>
</a>
</g>
</g>
<!-- Node1&#45;&gt;Node2 -->
<g id="edge1" class="edge">
<title>Node1&#45;&gt;Node2</title>
<path fill="none" stroke="midnightblue" d="M380.5,-112.4C380.5,-104.47 380.5,-94.46 380.5,-85.86"/>
<polygon fill="midnightblue" stroke="midnightblue" points="384,-85.66 380.5,-75.66 377,-85.66 384,-85.66"/>
</g>
<!-- Node4 -->
<g id="node4" class="node">
<title>Node4</title>
<g id="a_node4"><a xlink:title=" ">
<polygon fill="white" stroke="#bfbfbf" points="0,-0.5 0,-19.5 105,-19.5 105,-0.5 0,-0.5"/>
<text text-anchor="middle" x="52.5" y="-7.5" font-family="Helvetica,sans-Serif" font-size="10.00">SplineInterpolation.h</text>
</a>
</g>
</g>
<!-- Node1&#45;&gt;Node4 -->
<g id="edge8" class="edge">
<title>Node1&#45;&gt;Node4</title>
<path fill="none" stroke="midnightblue" d="M340.61,-112.45C275.43,-89.5 147.28,-44.38 86.3,-22.9"/>
<polygon fill="midnightblue" stroke="midnightblue" points="87.35,-19.56 76.76,-19.54 85.03,-26.17 87.35,-19.56"/>
</g>
<!-- Node5 -->
<g id="node5" class="node">
<title>Node5</title>
<g id="a_node5"><a xlink:title=" ">
<polygon fill="white" stroke="#bfbfbf" points="123,-0.5 123,-19.5 260,-19.5 260,-0.5 123,-0.5"/>
<text text-anchor="middle" x="191.5" y="-7.5" font-family="Helvetica,sans-Serif" font-size="10.00">BicubicSplineInterpolation.h</text>
</a>
</g>
</g>
<!-- Node1&#45;&gt;Node5 -->
<g id="edge9" class="edge">
<title>Node1&#45;&gt;Node5</title>
<path fill="none" stroke="midnightblue" d="M357.32,-112.34C320.95,-90.11 250.87,-47.28 214.56,-25.09"/>
<polygon fill="midnightblue" stroke="midnightblue" points="216.04,-21.9 205.69,-19.67 212.39,-27.87 216.04,-21.9"/>
</g>
<!-- Node6 -->
<g id="node6" class="node">
<title>Node6</title>
<g id="a_node6"><a xlink:title=" ">
<polygon fill="white" stroke="#bfbfbf" points="490.5,-0.5 490.5,-19.5 636.5,-19.5 636.5,-0.5 490.5,-0.5"/>
<text text-anchor="middle" x="563.5" y="-7.5" font-family="Helvetica,sans-Serif" font-size="10.00">MonotoneCubicInterpolation.h</text>
</a>
</g>
</g>
<!-- Node1&#45;&gt;Node6 -->
<g id="edge10" class="edge">
<title>Node1&#45;&gt;Node6</title>
<path fill="none" stroke="midnightblue" d="M402.94,-112.34C438.16,-90.11 506.02,-47.28 541.17,-25.09"/>
<polygon fill="midnightblue" stroke="midnightblue" points="543.18,-27.97 549.76,-19.67 539.44,-22.05 543.18,-27.97"/>
</g>
<!-- Node7 -->
<g id="node7" class="node">
<title>Node7</title>
<g id="a_node7"><a xlink:title=" ">
<polygon fill="white" stroke="#bfbfbf" points="654.5,-0.5 654.5,-19.5 758.5,-19.5 758.5,-0.5 654.5,-0.5"/>
<text text-anchor="middle" x="706.5" y="-7.5" font-family="Helvetica,sans-Serif" font-size="10.00">LinearInterpolation.h</text>
</a>
</g>
</g>
<!-- Node1&#45;&gt;Node7 -->
<g id="edge11" class="edge">
<title>Node1&#45;&gt;Node7</title>
<path fill="none" stroke="midnightblue" d="M420.15,-112.45C484.93,-89.5 612.3,-44.38 672.91,-22.9"/>
<polygon fill="midnightblue" stroke="midnightblue" points="674.13,-26.18 682.39,-19.54 671.79,-19.58 674.13,-26.18"/>
</g>
<!-- Node3 -->
<g id="node3" class="node">
<title>Node3</title>
<g id="a_node3"><a xlink:title=" ">
<polygon fill="white" stroke="#bfbfbf" points="278,-0.5 278,-19.5 411,-19.5 411,-0.5 278,-0.5"/>
<text text-anchor="middle" x="344.5" y="-7.5" font-family="Helvetica,sans-Serif" font-size="10.00">GenericConstantMaterial.h</text>
</a>
</g>
</g>
<!-- Node2&#45;&gt;Node3 -->
<g id="edge2" class="edge">
<title>Node2&#45;&gt;Node3</title>
<path fill="none" stroke="midnightblue" d="M374.56,-56.08C369.52,-48.53 362.16,-37.49 355.99,-28.23"/>
<polygon fill="midnightblue" stroke="midnightblue" points="358.79,-26.13 350.33,-19.75 352.97,-30.01 358.79,-26.13"/>
</g>
<!-- Node2&#45;&gt;Node4 -->
<g id="edge3" class="edge">
<title>Node2&#45;&gt;Node4</title>
<path fill="none" stroke="midnightblue" d="M333.85,-57.32C276.27,-47.84 178.15,-31.69 114.33,-21.18"/>
<polygon fill="midnightblue" stroke="midnightblue" points="114.83,-17.72 104.4,-19.54 113.7,-24.62 114.83,-17.72"/>
</g>
<!-- Node2&#45;&gt;Node5 -->
<g id="edge4" class="edge">
<title>Node2&#45;&gt;Node5</title>
<path fill="none" stroke="midnightblue" d="M350.55,-56.44C318.34,-47.24 266.97,-32.56 231.36,-22.39"/>
<polygon fill="midnightblue" stroke="midnightblue" points="231.88,-18.9 221.31,-19.52 229.96,-25.63 231.88,-18.9"/>
</g>
<!-- Node2&#45;&gt;Node6 -->
<g id="edge5" class="edge">
<title>Node2&#45;&gt;Node6</title>
<path fill="none" stroke="midnightblue" d="M409.5,-56.44C440.68,-47.24 490.43,-32.56 524.91,-22.39"/>
<polygon fill="midnightblue" stroke="midnightblue" points="526.04,-25.7 534.64,-19.52 524.06,-18.99 526.04,-25.7"/>
</g>
<!-- Node2&#45;&gt;Node7 -->
<g id="edge6" class="edge">
<title>Node2&#45;&gt;Node7</title>
<path fill="none" stroke="midnightblue" d="M427.21,-57.26C484.41,-47.79 581.49,-31.71 644.79,-21.22"/>
<polygon fill="midnightblue" stroke="midnightblue" points="645.74,-24.61 655.04,-19.52 644.6,-17.71 645.74,-24.61"/>
</g>
<!-- Node8 -->
<g id="node8" class="node">
<title>Node8</title>
<g id="a_node8"><a xlink:title=" ">
<polygon fill="white" stroke="#bfbfbf" points="429,-0.5 429,-19.5 472,-19.5 472,-0.5 429,-0.5"/>
<text text-anchor="middle" x="450.5" y="-7.5" font-family="Helvetica,sans-Serif" font-size="10.00">json.h</text>
</a>
</g>
</g>
<!-- Node2&#45;&gt;Node8 -->
<g id="edge7" class="edge">
<title>Node2&#45;&gt;Node8</title>
<path fill="none" stroke="midnightblue" d="M391.75,-56.32C402.3,-48.18 418.3,-35.84 430.94,-26.09"/>
<polygon fill="midnightblue" stroke="midnightblue" points="433.27,-28.71 439.05,-19.83 428.99,-23.17 433.27,-28.71"/>
</g>
</g>
</svg>
