<?xml version="1.0" encoding="UTF-8" standalone="no"?>
<!DOCTYPE svg PUBLIC "-//W3C//DTD SVG 1.1//EN"
 "http://www.w3.org/Graphics/SVG/1.1/DTD/svg11.dtd">
<!-- Generated by graphviz version 2.43.0 (0)
 -->
<!-- Title: src/materials/GenericMoltresMaterial.C Pages: 1 -->
<svg width="767pt" height="207pt"
 viewBox="0.00 0.00 766.50 207.00" xmlns="http://www.w3.org/2000/svg" xmlns:xlink="http://www.w3.org/1999/xlink">
<g id="graph0" class="graph" transform="scale(1 1) rotate(0) translate(4 203)">
<title>src/materials/GenericMoltresMaterial.C</title>
<polygon fill="white" stroke="transparent" points="-4,4 -4,-203 762.5,-203 762.5,4 -4,4"/>
<!-- Node1 -->
<g id="node1" class="node">
<title>Node1</title>
<g id="a_node1"><a xlink:title=" ">
<polygon fill="#bfbfbf" stroke="black" points="368.5,-168.5 368.5,-198.5 510.5,-198.5 510.5,-168.5 368.5,-168.5"/>
<text text-anchor="start" x="376.5" y="-186.5" font-family="Helvetica,sans-Serif" font-size="10.00">src/materials/GenericMoltres</text>
<text text-anchor="middle" x="439.5" y="-175.5" font-family="Helvetica,sans-Serif" font-size="10.00">Material.C</text>
</a>
</g>
</g>
<!-- Node2 -->
<g id="node2" class="node">
<title>Node2</title>
<g id="a_node2"><a xlink:href="_generic_moltres_material_8h.html" target="_top" xlink:title=" ">
<polygon fill="white" stroke="black" points="318,-112.5 318,-131.5 443,-131.5 443,-112.5 318,-112.5"/>
<text text-anchor="middle" x="380.5" y="-119.5" font-family="Helvetica,sans-Serif" font-size="10.00">GenericMoltresMaterial.h</text>
</a>
</g>
</g>
<!-- Node1&#45;&gt;Node2 -->
<g id="edge1" class="edge">
<title>Node1&#45;&gt;Node2</title>
<path fill="none" stroke="midnightblue" d="M425.52,-168.4C416.77,-159.58 405.47,-148.18 396.38,-139.02"/>
<polygon fill="midnightblue" stroke="midnightblue" points="398.61,-136.29 389.09,-131.66 393.64,-141.22 398.61,-136.29"/>
</g>
<!-- Node10 -->
<g id="node10" class="node">
<title>Node10</title>
<g id="a_node10"><a xlink:title=" ">
<polygon fill="white" stroke="#bfbfbf" points="461.5,-112.5 461.5,-131.5 535.5,-131.5 535.5,-112.5 461.5,-112.5"/>
<text text-anchor="middle" x="498.5" y="-119.5" font-family="Helvetica,sans-Serif" font-size="10.00">MooseUtils.h</text>
</a>
</g>
</g>
<!-- Node1&#45;&gt;Node10 -->
<g id="edge13" class="edge">
<title>Node1&#45;&gt;Node10</title>
<path fill="none" stroke="midnightblue" d="M453.48,-168.4C462.23,-159.58 473.53,-148.18 482.62,-139.02"/>
<polygon fill="midnightblue" stroke="midnightblue" points="485.36,-141.22 489.91,-131.66 480.39,-136.29 485.36,-141.22"/>
</g>
<!-- Node3 -->
<g id="node3" class="node">
<title>Node3</title>
<g id="a_node3"><a xlink:href="_nuclear_material_8h.html" target="_top" xlink:title=" ">
<polygon fill="white" stroke="black" points="334,-56.5 334,-75.5 427,-75.5 427,-56.5 334,-56.5"/>
<text text-anchor="middle" x="380.5" y="-63.5" font-family="Helvetica,sans-Serif" font-size="10.00">NuclearMaterial.h</text>
</a>
</g>
</g>
<!-- Node2&#45;&gt;Node3 -->
<g id="edge2" class="edge">
<title>Node2&#45;&gt;Node3</title>
<path fill="none" stroke="midnightblue" d="M380.5,-112.08C380.5,-105.01 380.5,-94.86 380.5,-85.99"/>
<polygon fill="midnightblue" stroke="midnightblue" points="384,-85.75 380.5,-75.75 377,-85.75 384,-85.75"/>
</g>
<!-- Node5 -->
<g id="node5" class="node">
<title>Node5</title>
<g id="a_node5"><a xlink:title=" ">
<polygon fill="white" stroke="#bfbfbf" points="0,-0.5 0,-19.5 105,-19.5 105,-0.5 0,-0.5"/>
<text text-anchor="middle" x="52.5" y="-7.5" font-family="Helvetica,sans-Serif" font-size="10.00">SplineInterpolation.h</text>
</a>
</g>
</g>
<!-- Node2&#45;&gt;Node5 -->
<g id="edge9" class="edge">
<title>Node2&#45;&gt;Node5</title>
<path fill="none" stroke="midnightblue" d="M355.04,-112.46C296.91,-92.97 154.36,-45.16 87.8,-22.84"/>
<polygon fill="midnightblue" stroke="midnightblue" points="88.77,-19.47 78.17,-19.61 86.54,-26.11 88.77,-19.47"/>
</g>
<!-- Node6 -->
<g id="node6" class="node">
<title>Node6</title>
<g id="a_node6"><a xlink:title=" ">
<polygon fill="white" stroke="#bfbfbf" points="123,-0.5 123,-19.5 260,-19.5 260,-0.5 123,-0.5"/>
<text text-anchor="middle" x="191.5" y="-7.5" font-family="Helvetica,sans-Serif" font-size="10.00">BicubicSplineInterpolation.h</text>
</a>
</g>
</g>
<!-- Node2&#45;&gt;Node6 -->
<g id="edge10" class="edge">
<title>Node2&#45;&gt;Node6</title>
<path fill="none" stroke="midnightblue" d="M365.67,-112.37C332.96,-93.33 254.41,-47.62 214.95,-24.65"/>
<polygon fill="midnightblue" stroke="midnightblue" points="216.66,-21.6 206.26,-19.59 213.14,-27.65 216.66,-21.6"/>
</g>
<!-- Node7 -->
<g id="node7" class="node">
<title>Node7</title>
<g id="a_node7"><a xlink:title=" ">
<polygon fill="white" stroke="#bfbfbf" points="490.5,-0.5 490.5,-19.5 636.5,-19.5 636.5,-0.5 490.5,-0.5"/>
<text text-anchor="middle" x="563.5" y="-7.5" font-family="Helvetica,sans-Serif" font-size="10.00">MonotoneCubicInterpolation.h</text>
</a>
</g>
</g>
<!-- Node2&#45;&gt;Node7 -->
<g id="edge11" class="edge">
<title>Node2&#45;&gt;Node7</title>
<path fill="none" stroke="midnightblue" d="M394.86,-112.37C426.4,-93.41 501.94,-48 540.3,-24.94"/>
<polygon fill="midnightblue" stroke="midnightblue" points="542.44,-27.74 549.21,-19.59 538.83,-21.74 542.44,-27.74"/>
</g>
<!-- Node8 -->
<g id="node8" class="node">
<title>Node8</title>
<g id="a_node8"><a xlink:title=" ">
<polygon fill="white" stroke="#bfbfbf" points="654.5,-0.5 654.5,-19.5 758.5,-19.5 758.5,-0.5 654.5,-0.5"/>
<text text-anchor="middle" x="706.5" y="-7.5" font-family="Helvetica,sans-Serif" font-size="10.00">LinearInterpolation.h</text>
</a>
</g>
</g>
<!-- Node2&#45;&gt;Node8 -->
<g id="edge12" class="edge">
<title>Node2&#45;&gt;Node8</title>
<path fill="none" stroke="midnightblue" d="M405.81,-112.46C463.58,-92.97 605.26,-45.16 671.41,-22.84"/>
<polygon fill="midnightblue" stroke="midnightblue" points="672.63,-26.12 680.98,-19.61 670.39,-19.49 672.63,-26.12"/>
</g>
<!-- Node4 -->
<g id="node4" class="node">
<title>Node4</title>
<g id="a_node4"><a xlink:title=" ">
<polygon fill="white" stroke="#bfbfbf" points="278,-0.5 278,-19.5 411,-19.5 411,-0.5 278,-0.5"/>
<text text-anchor="middle" x="344.5" y="-7.5" font-family="Helvetica,sans-Serif" font-size="10.00">GenericConstantMaterial.h</text>
</a>
</g>
</g>
<!-- Node3&#45;&gt;Node4 -->
<g id="edge3" class="edge">
<title>Node3&#45;&gt;Node4</title>
<path fill="none" stroke="midnightblue" d="M374.56,-56.08C369.52,-48.53 362.16,-37.49 355.99,-28.23"/>
<polygon fill="midnightblue" stroke="midnightblue" points="358.79,-26.13 350.33,-19.75 352.97,-30.01 358.79,-26.13"/>
</g>
<!-- Node3&#45;&gt;Node5 -->
<g id="edge4" class="edge">
<title>Node3&#45;&gt;Node5</title>
<path fill="none" stroke="midnightblue" d="M333.85,-57.32C276.27,-47.84 178.15,-31.69 114.33,-21.18"/>
<polygon fill="midnightblue" stroke="midnightblue" points="114.83,-17.72 104.4,-19.54 113.7,-24.62 114.83,-17.72"/>
</g>
<!-- Node3&#45;&gt;Node6 -->
<g id="edge5" class="edge">
<title>Node3&#45;&gt;Node6</title>
<path fill="none" stroke="midnightblue" d="M350.55,-56.44C318.34,-47.24 266.97,-32.56 231.36,-22.39"/>
<polygon fill="midnightblue" stroke="midnightblue" points="231.88,-18.9 221.31,-19.52 229.96,-25.63 231.88,-18.9"/>
</g>
<!-- Node3&#45;&gt;Node7 -->
<g id="edge6" class="edge">
<title>Node3&#45;&gt;Node7</title>
<path fill="none" stroke="midnightblue" d="M409.5,-56.44C440.68,-47.24 490.43,-32.56 524.91,-22.39"/>
<polygon fill="midnightblue" stroke="midnightblue" points="526.04,-25.7 534.64,-19.52 524.06,-18.99 526.04,-25.7"/>
</g>
<!-- Node3&#45;&gt;Node8 -->
<g id="edge7" class="edge">
<title>Node3&#45;&gt;Node8</title>
<path fill="none" stroke="midnightblue" d="M427.21,-57.26C484.41,-47.79 581.49,-31.71 644.79,-21.22"/>
<polygon fill="midnightblue" stroke="midnightblue" points="645.74,-24.61 655.04,-19.52 644.6,-17.71 645.74,-24.61"/>
</g>
<!-- Node9 -->
<g id="node9" class="node">
<title>Node9</title>
<g id="a_node9"><a xlink:title=" ">
<polygon fill="white" stroke="#bfbfbf" points="429,-0.5 429,-19.5 472,-19.5 472,-0.5 429,-0.5"/>
<text text-anchor="middle" x="450.5" y="-7.5" font-family="Helvetica,sans-Serif" font-size="10.00">json.h</text>
</a>
</g>
</g>
<!-- Node3&#45;&gt;Node9 -->
<g id="edge8" class="edge">
<title>Node3&#45;&gt;Node9</title>
<path fill="none" stroke="midnightblue" d="M391.75,-56.32C402.3,-48.18 418.3,-35.84 430.94,-26.09"/>
<polygon fill="midnightblue" stroke="midnightblue" points="433.27,-28.71 439.05,-19.83 428.99,-23.17 433.27,-28.71"/>
</g>
</g>
</svg>
