<?xml version="1.0" encoding="UTF-8" standalone="no"?>
<!DOCTYPE svg PUBLIC "-//W3C//DTD SVG 1.1//EN"
 "http://www.w3.org/Graphics/SVG/1.1/DTD/svg11.dtd">
<!-- Generated by graphviz version 2.38.0 (20140413.2041)
 -->
<!-- Title: include/kernels/INSMomentumKEpsilon.h Pages: 1 -->
<svg width="326pt" height="95pt"
 viewBox="0.00 0.00 326.00 95.00" xmlns="http://www.w3.org/2000/svg" xmlns:xlink="http://www.w3.org/1999/xlink">
<g id="graph0" class="graph" transform="scale(1 1) rotate(0) translate(4 91)">
<title>include/kernels/INSMomentumKEpsilon.h</title>
<polygon fill="white" stroke="none" points="-4,4 -4,-91 322,-91 322,4 -4,4"/>
<!-- Node2 -->
<g id="node1" class="node"><title>Node2</title>
<polygon fill="#bfbfbf" stroke="black" points="67,-56.5 67,-86.5 218,-86.5 218,-56.5 67,-56.5"/>
<text text-anchor="start" x="75" y="-74.5" font-family="Helvetica,sans-Serif" font-size="10.00">include/kernels/INSMomentum</text>
<text text-anchor="middle" x="142.5" y="-63.5" font-family="Helvetica,sans-Serif" font-size="10.00">KEpsilon.h</text>
</g>
<!-- Node3 -->
<g id="node2" class="node"><title>Node3</title>
<g id="a_node2"><a xlink:href="_moltres_app_8_c.html" target="_top" xlink:title="src/base/MoltresApp.C">
<polygon fill="white" stroke="black" points="0,-0.5 0,-19.5 117,-19.5 117,-0.5 0,-0.5"/>
<text text-anchor="middle" x="58.5" y="-7.5" font-family="Helvetica,sans-Serif" font-size="10.00">src/base/MoltresApp.C</text>
</a>
</g>
</g>
<!-- Node2&#45;&gt;Node3 -->
<g id="edge1" class="edge"><title>Node2&#45;&gt;Node3</title>
<path fill="none" stroke="midnightblue" d="M114.241,-50.483C99.443,-40.0013 82.0879,-27.7081 70.7227,-19.6578"/>
<polygon fill="midnightblue" stroke="midnightblue" points="112.41,-53.4752 122.593,-56.3993 116.456,-47.763 112.41,-53.4752"/>
</g>
<!-- Node4 -->
<g id="node3" class="node"><title>Node4</title>
<g id="a_node3"><a xlink:href="_i_n_s_momentum_k_epsilon_8_c.html" target="_top" xlink:title="src/kernels/INSMomentumKEpsilon.C">
<polygon fill="white" stroke="black" points="135,-0.5 135,-19.5 318,-19.5 318,-0.5 135,-0.5"/>
<text text-anchor="middle" x="226.5" y="-7.5" font-family="Helvetica,sans-Serif" font-size="10.00">src/kernels/INSMomentumKEpsilon.C</text>
</a>
</g>
</g>
<!-- Node2&#45;&gt;Node4 -->
<g id="edge2" class="edge"><title>Node2&#45;&gt;Node4</title>
<path fill="none" stroke="midnightblue" d="M170.759,-50.483C185.557,-40.0013 202.912,-27.7081 214.277,-19.6578"/>
<polygon fill="midnightblue" stroke="midnightblue" points="168.544,-47.763 162.407,-56.3993 172.59,-53.4752 168.544,-47.763"/>
</g>
</g>
</svg>
