<?xml version="1.0" encoding="UTF-8" standalone="no"?>
<!DOCTYPE svg PUBLIC "-//W3C//DTD SVG 1.1//EN"
 "http://www.w3.org/Graphics/SVG/1.1/DTD/svg11.dtd">
<!-- Generated by graphviz version 2.38.0 (20140413.2041)
 -->
<!-- Title: include/bcs/INSOutflowBC.h Pages: 1 -->
<svg width="272pt" height="84pt"
 viewBox="0.00 0.00 271.50 84.00" xmlns="http://www.w3.org/2000/svg" xmlns:xlink="http://www.w3.org/1999/xlink">
<g id="graph0" class="graph" transform="scale(1 1) rotate(0) translate(4 80)">
<title>include/bcs/INSOutflowBC.h</title>
<polygon fill="white" stroke="none" points="-4,4 -4,-80 267.5,-80 267.5,4 -4,4"/>
<!-- Node2 -->
<g id="node1" class="node"><title>Node2</title>
<polygon fill="#bfbfbf" stroke="black" points="57,-56.5 57,-75.5 200,-75.5 200,-56.5 57,-56.5"/>
<text text-anchor="middle" x="128.5" y="-63.5" font-family="Helvetica,sans-Serif" font-size="10.00">include/bcs/INSOutflowBC.h</text>
</g>
<!-- Node3 -->
<g id="node2" class="node"><title>Node3</title>
<g id="a_node2"><a xlink:href="_moltres_app_8_c.html" target="_top" xlink:title="src/base/MoltresApp.C">
<polygon fill="white" stroke="black" points="0,-0.5 0,-19.5 117,-19.5 117,-0.5 0,-0.5"/>
<text text-anchor="middle" x="58.5" y="-7.5" font-family="Helvetica,sans-Serif" font-size="10.00">src/base/MoltresApp.C</text>
</a>
</g>
</g>
<!-- Node2&#45;&gt;Node3 -->
<g id="edge1" class="edge"><title>Node2&#45;&gt;Node3</title>
<path fill="none" stroke="midnightblue" d="M109.186,-50.1008C96.5883,-40.3824 80.5719,-28.0269 69.9513,-19.8339"/>
<polygon fill="midnightblue" stroke="midnightblue" points="107.198,-52.9871 117.253,-56.324 111.473,-47.4446 107.198,-52.9871"/>
</g>
<!-- Node4 -->
<g id="node3" class="node"><title>Node4</title>
<g id="a_node3"><a xlink:href="_i_n_s_outflow_b_c_8_c.html" target="_top" xlink:title="src/bcs/INSOutflowBC.C">
<polygon fill="white" stroke="black" points="135.5,-0.5 135.5,-19.5 263.5,-19.5 263.5,-0.5 135.5,-0.5"/>
<text text-anchor="middle" x="199.5" y="-7.5" font-family="Helvetica,sans-Serif" font-size="10.00">src/bcs/INSOutflowBC.C</text>
</a>
</g>
</g>
<!-- Node2&#45;&gt;Node4 -->
<g id="edge2" class="edge"><title>Node2&#45;&gt;Node4</title>
<path fill="none" stroke="midnightblue" d="M148.09,-50.1008C160.868,-40.3824 177.113,-28.0269 187.885,-19.8339"/>
<polygon fill="midnightblue" stroke="midnightblue" points="145.748,-47.4844 139.907,-56.324 149.986,-53.0561 145.748,-47.4844"/>
</g>
</g>
</svg>
