<?xml version="1.0" encoding="UTF-8" standalone="no"?>
<!DOCTYPE svg PUBLIC "-//W3C//DTD SVG 1.1//EN"
 "http://www.w3.org/Graphics/SVG/1.1/DTD/svg11.dtd">
<!-- Generated by graphviz version 2.38.0 (20140413.2041)
 -->
<!-- Title: include/bcs/INSSymmetryAxisBC.h Pages: 1 -->
<svg width="302pt" height="84pt"
 viewBox="0.00 0.00 301.50 84.00" xmlns="http://www.w3.org/2000/svg" xmlns:xlink="http://www.w3.org/1999/xlink">
<g id="graph0" class="graph" transform="scale(1 1) rotate(0) translate(4 80)">
<title>include/bcs/INSSymmetryAxisBC.h</title>
<polygon fill="white" stroke="none" points="-4,4 -4,-80 297.5,-80 297.5,4 -4,4"/>
<!-- Node2 -->
<g id="node1" class="node"><title>Node2</title>
<polygon fill="#bfbfbf" stroke="black" points="50,-56.5 50,-75.5 223,-75.5 223,-56.5 50,-56.5"/>
<text text-anchor="middle" x="136.5" y="-63.5" font-family="Helvetica,sans-Serif" font-size="10.00">include/bcs/INSSymmetryAxisBC.h</text>
</g>
<!-- Node3 -->
<g id="node2" class="node"><title>Node3</title>
<g id="a_node2"><a xlink:href="_moltres_app_8_c.html" target="_top" xlink:title="src/base/MoltresApp.C">
<polygon fill="white" stroke="black" points="0,-0.5 0,-19.5 117,-19.5 117,-0.5 0,-0.5"/>
<text text-anchor="middle" x="58.5" y="-7.5" font-family="Helvetica,sans-Serif" font-size="10.00">src/base/MoltresApp.C</text>
</a>
</g>
</g>
<!-- Node2&#45;&gt;Node3 -->
<g id="edge1" class="edge"><title>Node2&#45;&gt;Node3</title>
<path fill="none" stroke="midnightblue" d="M115.732,-50.6221C101.483,-40.7574 83.0438,-27.9919 71.0009,-19.6545"/>
<polygon fill="midnightblue" stroke="midnightblue" points="113.754,-53.5095 123.968,-56.324 117.738,-47.7541 113.754,-53.5095"/>
</g>
<!-- Node4 -->
<g id="node3" class="node"><title>Node4</title>
<g id="a_node3"><a xlink:href="_i_n_s_symmetry_axis_b_c_8_c.html" target="_top" xlink:title="src/bcs/INSSymmetryAxisBC.C">
<polygon fill="white" stroke="black" points="135.5,-0.5 135.5,-19.5 293.5,-19.5 293.5,-0.5 135.5,-0.5"/>
<text text-anchor="middle" x="214.5" y="-7.5" font-family="Helvetica,sans-Serif" font-size="10.00">src/bcs/INSSymmetryAxisBC.C</text>
</a>
</g>
</g>
<!-- Node2&#45;&gt;Node4 -->
<g id="edge2" class="edge"><title>Node2&#45;&gt;Node4</title>
<path fill="none" stroke="midnightblue" d="M157.268,-50.6221C171.517,-40.7574 189.956,-27.9919 201.999,-19.6545"/>
<polygon fill="midnightblue" stroke="midnightblue" points="155.262,-47.7541 149.032,-56.324 159.246,-53.5095 155.262,-47.7541"/>
</g>
</g>
</svg>
