<?xml version="1.0" encoding="UTF-8" standalone="no"?>
<!DOCTYPE svg PUBLIC "-//W3C//DTD SVG 1.1//EN"
 "http://www.w3.org/Graphics/SVG/1.1/DTD/svg11.dtd">
<!-- Generated by graphviz version 2.38.0 (20140413.2041)
 -->
<!-- Title: include/kernels/InScatter.h Pages: 1 -->
<svg width="262pt" height="84pt"
 viewBox="0.00 0.00 261.50 84.00" xmlns="http://www.w3.org/2000/svg" xmlns:xlink="http://www.w3.org/1999/xlink">
<g id="graph0" class="graph" transform="scale(1 1) rotate(0) translate(4 80)">
<title>include/kernels/InScatter.h</title>
<polygon fill="white" stroke="none" points="-4,4 -4,-80 257.5,-80 257.5,4 -4,4"/>
<!-- Node5 -->
<g id="node1" class="node"><title>Node5</title>
<polygon fill="#bfbfbf" stroke="black" points="60,-56.5 60,-75.5 193,-75.5 193,-56.5 60,-56.5"/>
<text text-anchor="middle" x="126.5" y="-63.5" font-family="Helvetica,sans-Serif" font-size="10.00">include/kernels/InScatter.h</text>
</g>
<!-- Node6 -->
<g id="node2" class="node"><title>Node6</title>
<g id="a_node2"><a xlink:href="_moltres_app_8_c.html" target="_top" xlink:title="src/base/MoltresApp.C">
<polygon fill="white" stroke="black" points="0,-0.5 0,-19.5 117,-19.5 117,-0.5 0,-0.5"/>
<text text-anchor="middle" x="58.5" y="-7.5" font-family="Helvetica,sans-Serif" font-size="10.00">src/base/MoltresApp.C</text>
</a>
</g>
</g>
<!-- Node5&#45;&gt;Node6 -->
<g id="edge1" class="edge"><title>Node5&#45;&gt;Node6</title>
<path fill="none" stroke="midnightblue" d="M107.738,-50.1008C95.5001,-40.3824 79.9413,-28.0269 69.6242,-19.8339"/>
<polygon fill="midnightblue" stroke="midnightblue" points="105.567,-52.846 115.575,-56.324 109.92,-47.3642 105.567,-52.846"/>
</g>
<!-- Node7 -->
<g id="node3" class="node"><title>Node7</title>
<g id="a_node3"><a xlink:href="_in_scatter_8_c.html" target="_top" xlink:title="src/kernels/InScatter.C">
<polygon fill="white" stroke="black" points="135.5,-0.5 135.5,-19.5 253.5,-19.5 253.5,-0.5 135.5,-0.5"/>
<text text-anchor="middle" x="194.5" y="-7.5" font-family="Helvetica,sans-Serif" font-size="10.00">src/kernels/InScatter.C</text>
</a>
</g>
</g>
<!-- Node5&#45;&gt;Node7 -->
<g id="edge2" class="edge"><title>Node5&#45;&gt;Node7</title>
<path fill="none" stroke="midnightblue" d="M145.262,-50.1008C157.5,-40.3824 173.059,-28.0269 183.376,-19.8339"/>
<polygon fill="midnightblue" stroke="midnightblue" points="143.08,-47.3642 137.425,-56.324 147.433,-52.846 143.08,-47.3642"/>
</g>
</g>
</svg>
