<?xml version="1.0" encoding="UTF-8" standalone="no"?>
<!DOCTYPE svg PUBLIC "-//W3C//DTD SVG 1.1//EN"
 "http://www.w3.org/Graphics/SVG/1.1/DTD/svg11.dtd">
<!-- Generated by graphviz version 2.38.0 (20140413.2041)
 -->
<!-- Title: src/postprocessors/IntegralNewVariablePostprocessor.C Pages: 1 -->
<svg width="503pt" height="207pt"
 viewBox="0.00 0.00 503.00 207.00" xmlns="http://www.w3.org/2000/svg" xmlns:xlink="http://www.w3.org/1999/xlink">
<g id="graph0" class="graph" transform="scale(1 1) rotate(0) translate(4 203)">
<title>src/postprocessors/IntegralNewVariablePostprocessor.C</title>
<polygon fill="white" stroke="none" points="-4,4 -4,-203 499,-203 499,4 -4,4"/>
<!-- Node0 -->
<g id="node1" class="node"><title>Node0</title>
<polygon fill="#bfbfbf" stroke="black" points="147.5,-168.5 147.5,-198.5 328.5,-198.5 328.5,-168.5 147.5,-168.5"/>
<text text-anchor="start" x="155.5" y="-186.5" font-family="Helvetica,sans-Serif" font-size="10.00">src/postprocessors</text>
<text text-anchor="middle" x="238" y="-175.5" font-family="Helvetica,sans-Serif" font-size="10.00">/IntegralNewVariablePostprocessor.C</text>
</g>
<!-- Node1 -->
<g id="node2" class="node"><title>Node1</title>
<g id="a_node2"><a xlink:href="_integral_new_variable_postprocessor_8h.html" target="_top" xlink:title="IntegralNewVariablePostprocessor.h">
<polygon fill="white" stroke="black" points="150,-112.5 150,-131.5 326,-131.5 326,-112.5 150,-112.5"/>
<text text-anchor="middle" x="238" y="-119.5" font-family="Helvetica,sans-Serif" font-size="10.00">IntegralNewVariablePostprocessor.h</text>
</a>
</g>
</g>
<!-- Node0&#45;&gt;Node1 -->
<g id="edge1" class="edge"><title>Node0&#45;&gt;Node1</title>
<path fill="none" stroke="midnightblue" d="M238,-168.399C238,-160.466 238,-150.458 238,-141.858"/>
<polygon fill="midnightblue" stroke="midnightblue" points="241.5,-141.658 238,-131.658 234.5,-141.658 241.5,-141.658"/>
</g>
<!-- Node2 -->
<g id="node3" class="node"><title>Node2</title>
<polygon fill="white" stroke="#bfbfbf" points="0,-56.5 0,-75.5 156,-75.5 156,-56.5 0,-56.5"/>
<text text-anchor="middle" x="78" y="-63.5" font-family="Helvetica,sans-Serif" font-size="10.00">ElementIntegralPostprocessor.h</text>
</g>
<!-- Node1&#45;&gt;Node2 -->
<g id="edge2" class="edge"><title>Node1&#45;&gt;Node2</title>
<path fill="none" stroke="midnightblue" d="M212.648,-112.444C185.731,-103.359 143.004,-88.9388 112.913,-78.7831"/>
<polygon fill="midnightblue" stroke="midnightblue" points="113.828,-75.3981 103.234,-75.5164 111.59,-82.0305 113.828,-75.3981"/>
</g>
<!-- Node3 -->
<g id="node4" class="node"><title>Node3</title>
<polygon fill="white" stroke="#bfbfbf" points="174,-56.5 174,-75.5 302,-75.5 302,-56.5 174,-56.5"/>
<text text-anchor="middle" x="238" y="-63.5" font-family="Helvetica,sans-Serif" font-size="10.00">MooseVariableInterface.h</text>
</g>
<!-- Node1&#45;&gt;Node3 -->
<g id="edge3" class="edge"><title>Node1&#45;&gt;Node3</title>
<path fill="none" stroke="midnightblue" d="M238,-112.083C238,-105.006 238,-94.8611 238,-85.9865"/>
<polygon fill="midnightblue" stroke="midnightblue" points="241.5,-85.751 238,-75.7511 234.5,-85.7511 241.5,-85.751"/>
</g>
<!-- Node4 -->
<g id="node5" class="node"><title>Node4</title>
<g id="a_node5"><a xlink:href="_scalar_transport_base_8h.html" target="_top" xlink:title="ScalarTransportBase.h">
<polygon fill="white" stroke="black" points="320,-56.5 320,-75.5 436,-75.5 436,-56.5 320,-56.5"/>
<text text-anchor="middle" x="378" y="-63.5" font-family="Helvetica,sans-Serif" font-size="10.00">ScalarTransportBase.h</text>
</a>
</g>
</g>
<!-- Node1&#45;&gt;Node4 -->
<g id="edge4" class="edge"><title>Node1&#45;&gt;Node4</title>
<path fill="none" stroke="midnightblue" d="M260.183,-112.444C283.428,-103.478 320.149,-89.314 346.415,-79.1827"/>
<polygon fill="midnightblue" stroke="midnightblue" points="347.85,-82.3807 355.92,-75.5164 345.331,-75.8497 347.85,-82.3807"/>
</g>
<!-- Node5 -->
<g id="node6" class="node"><title>Node5</title>
<polygon fill="white" stroke="#bfbfbf" points="267.5,-0.5 267.5,-19.5 364.5,-19.5 364.5,-0.5 267.5,-0.5"/>
<text text-anchor="middle" x="316" y="-7.5" font-family="Helvetica,sans-Serif" font-size="10.00">InputParameters.h</text>
</g>
<!-- Node4&#45;&gt;Node5 -->
<g id="edge5" class="edge"><title>Node4&#45;&gt;Node5</title>
<path fill="none" stroke="midnightblue" d="M368.039,-56.324C358.873,-48.3414 345.063,-36.3128 333.972,-26.6529"/>
<polygon fill="midnightblue" stroke="midnightblue" points="335.982,-23.7624 326.143,-19.8339 331.385,-29.041 335.982,-23.7624"/>
</g>
<!-- Node6 -->
<g id="node7" class="node"><title>Node6</title>
<polygon fill="white" stroke="#bfbfbf" points="383,-0.5 383,-19.5 495,-19.5 495,-0.5 383,-0.5"/>
<text text-anchor="middle" x="439" y="-7.5" font-family="Helvetica,sans-Serif" font-size="10.00">MooseVariableBase.h</text>
</g>
<!-- Node4&#45;&gt;Node6 -->
<g id="edge6" class="edge"><title>Node4&#45;&gt;Node6</title>
<path fill="none" stroke="midnightblue" d="M387.801,-56.324C396.818,-48.3414 410.406,-36.3128 421.318,-26.6529"/>
<polygon fill="midnightblue" stroke="midnightblue" points="423.853,-29.083 429.021,-19.8339 419.213,-23.8416 423.853,-29.083"/>
</g>
</g>
</svg>
