<?xml version="1.0" encoding="UTF-8" standalone="no"?>
<!DOCTYPE svg PUBLIC "-//W3C//DTD SVG 1.1//EN"
 "http://www.w3.org/Graphics/SVG/1.1/DTD/svg11.dtd">
<!-- Generated by graphviz version 2.38.0 (20140413.2041)
 -->
<!-- Title: include/bcs/LinLogPenaltyDirichletBC.h Pages: 1 -->
<svg width="318pt" height="95pt"
 viewBox="0.00 0.00 317.50 95.00" xmlns="http://www.w3.org/2000/svg" xmlns:xlink="http://www.w3.org/1999/xlink">
<g id="graph0" class="graph" transform="scale(1 1) rotate(0) translate(4 91)">
<title>include/bcs/LinLogPenaltyDirichletBC.h</title>
<polygon fill="white" stroke="none" points="-4,4 -4,-91 313.5,-91 313.5,4 -4,4"/>
<!-- Node5 -->
<g id="node1" class="node"><title>Node5</title>
<polygon fill="#bfbfbf" stroke="black" points="75,-56.5 75,-86.5 206,-86.5 206,-56.5 75,-56.5"/>
<text text-anchor="start" x="83" y="-74.5" font-family="Helvetica,sans-Serif" font-size="10.00">include/bcs/LinLogPenalty</text>
<text text-anchor="middle" x="140.5" y="-63.5" font-family="Helvetica,sans-Serif" font-size="10.00">DirichletBC.h</text>
</g>
<!-- Node6 -->
<g id="node2" class="node"><title>Node6</title>
<g id="a_node2"><a xlink:href="_moltres_app_8_c.html" target="_top" xlink:title="src/base/MoltresApp.C">
<polygon fill="white" stroke="black" points="0,-0.5 0,-19.5 117,-19.5 117,-0.5 0,-0.5"/>
<text text-anchor="middle" x="58.5" y="-7.5" font-family="Helvetica,sans-Serif" font-size="10.00">src/base/MoltresApp.C</text>
</a>
</g>
</g>
<!-- Node5&#45;&gt;Node6 -->
<g id="edge1" class="edge"><title>Node5&#45;&gt;Node6</title>
<path fill="none" stroke="midnightblue" d="M112.914,-50.483C98.4682,-40.0013 81.5263,-27.7081 70.4317,-19.6578"/>
<polygon fill="midnightblue" stroke="midnightblue" points="110.918,-53.3592 121.067,-56.3993 115.029,-47.6936 110.918,-53.3592"/>
</g>
<!-- Node7 -->
<g id="node3" class="node"><title>Node7</title>
<g id="a_node3"><a xlink:href="_lin_log_penalty_dirichlet_b_c_8_c.html" target="_top" xlink:title="src/bcs/LinLogPenaltyDirichletBC.C">
<polygon fill="white" stroke="black" points="135.5,-0.5 135.5,-19.5 309.5,-19.5 309.5,-0.5 135.5,-0.5"/>
<text text-anchor="middle" x="222.5" y="-7.5" font-family="Helvetica,sans-Serif" font-size="10.00">src/bcs/LinLogPenaltyDirichletBC.C</text>
</a>
</g>
</g>
<!-- Node5&#45;&gt;Node7 -->
<g id="edge2" class="edge"><title>Node5&#45;&gt;Node7</title>
<path fill="none" stroke="midnightblue" d="M168.086,-50.483C182.532,-40.0013 199.474,-27.7081 210.568,-19.6578"/>
<polygon fill="midnightblue" stroke="midnightblue" points="165.971,-47.6936 159.933,-56.3993 170.082,-53.3592 165.971,-47.6936"/>
</g>
</g>
</svg>
