<?xml version="1.0" encoding="UTF-8" standalone="no"?>
<!DOCTYPE svg PUBLIC "-//W3C//DTD SVG 1.1//EN"
 "http://www.w3.org/Graphics/SVG/1.1/DTD/svg11.dtd">
<!-- Generated by graphviz version 2.38.0 (20140413.2041)
 -->
<!-- Title: src/bcs/MatDiffusionFluxBC.C Pages: 1 -->
<svg width="159pt" height="140pt"
 viewBox="0.00 0.00 159.00 140.00" xmlns="http://www.w3.org/2000/svg" xmlns:xlink="http://www.w3.org/1999/xlink">
<g id="graph0" class="graph" transform="scale(1 1) rotate(0) translate(4 136)">
<title>src/bcs/MatDiffusionFluxBC.C</title>
<polygon fill="white" stroke="none" points="-4,4 -4,-136 155,-136 155,4 -4,4"/>
<!-- Node0 -->
<g id="node1" class="node"><title>Node0</title>
<polygon fill="#bfbfbf" stroke="black" points="0,-112.5 0,-131.5 151,-131.5 151,-112.5 0,-112.5"/>
<text text-anchor="middle" x="75.5" y="-119.5" font-family="Helvetica,sans-Serif" font-size="10.00">src/bcs/MatDiffusionFluxBC.C</text>
</g>
<!-- Node1 -->
<g id="node2" class="node"><title>Node1</title>
<g id="a_node2"><a xlink:href="_mat_diffusion_flux_b_c_8h.html" target="_top" xlink:title="MatDiffusionFluxBC.h">
<polygon fill="white" stroke="black" points="19,-56.5 19,-75.5 132,-75.5 132,-56.5 19,-56.5"/>
<text text-anchor="middle" x="75.5" y="-63.5" font-family="Helvetica,sans-Serif" font-size="10.00">MatDiffusionFluxBC.h</text>
</a>
</g>
</g>
<!-- Node0&#45;&gt;Node1 -->
<g id="edge1" class="edge"><title>Node0&#45;&gt;Node1</title>
<path fill="none" stroke="midnightblue" d="M75.5,-112.083C75.5,-105.006 75.5,-94.8611 75.5,-85.9865"/>
<polygon fill="midnightblue" stroke="midnightblue" points="79.0001,-85.751 75.5,-75.7511 72.0001,-85.7511 79.0001,-85.751"/>
</g>
<!-- Node2 -->
<g id="node3" class="node"><title>Node2</title>
<polygon fill="white" stroke="#bfbfbf" points="34,-0.5 34,-19.5 117,-19.5 117,-0.5 34,-0.5"/>
<text text-anchor="middle" x="75.5" y="-7.5" font-family="Helvetica,sans-Serif" font-size="10.00">IntegratedBC.h</text>
</g>
<!-- Node1&#45;&gt;Node2 -->
<g id="edge2" class="edge"><title>Node1&#45;&gt;Node2</title>
<path fill="none" stroke="midnightblue" d="M75.5,-56.083C75.5,-49.0059 75.5,-38.8611 75.5,-29.9865"/>
<polygon fill="midnightblue" stroke="midnightblue" points="79.0001,-29.751 75.5,-19.7511 72.0001,-29.7511 79.0001,-29.751"/>
</g>
</g>
</svg>
