<?xml version="1.0" encoding="UTF-8" standalone="no"?>
<!DOCTYPE svg PUBLIC "-//W3C//DTD SVG 1.1//EN"
 "http://www.w3.org/Graphics/SVG/1.1/DTD/svg11.dtd">
<!-- Generated by graphviz version 2.38.0 (20140413.2041)
 -->
<!-- Title: include/bcs/MatDiffusionFluxBC.h Pages: 1 -->
<svg width="294pt" height="95pt"
 viewBox="0.00 0.00 294.00 95.00" xmlns="http://www.w3.org/2000/svg" xmlns:xlink="http://www.w3.org/1999/xlink">
<g id="graph0" class="graph" transform="scale(1 1) rotate(0) translate(4 91)">
<title>include/bcs/MatDiffusionFluxBC.h</title>
<polygon fill="white" stroke="none" points="-4,4 -4,-91 290,-91 290,4 -4,4"/>
<!-- Node2 -->
<g id="node1" class="node"><title>Node2</title>
<polygon fill="#bfbfbf" stroke="black" points="72,-56.5 72,-86.5 197,-86.5 197,-56.5 72,-56.5"/>
<text text-anchor="start" x="80" y="-74.5" font-family="Helvetica,sans-Serif" font-size="10.00">include/bcs/MatDiffusion</text>
<text text-anchor="middle" x="134.5" y="-63.5" font-family="Helvetica,sans-Serif" font-size="10.00">FluxBC.h</text>
</g>
<!-- Node3 -->
<g id="node2" class="node"><title>Node3</title>
<g id="a_node2"><a xlink:href="_moltres_app_8_c.html" target="_top" xlink:title="src/base/MoltresApp.C">
<polygon fill="white" stroke="black" points="0,-0.5 0,-19.5 117,-19.5 117,-0.5 0,-0.5"/>
<text text-anchor="middle" x="58.5" y="-7.5" font-family="Helvetica,sans-Serif" font-size="10.00">src/base/MoltresApp.C</text>
</a>
</g>
</g>
<!-- Node2&#45;&gt;Node3 -->
<g id="edge1" class="edge"><title>Node2&#45;&gt;Node3</title>
<path fill="none" stroke="midnightblue" d="M108.556,-50.1886C95.2507,-39.7719 79.7454,-27.6329 69.5587,-19.6578"/>
<polygon fill="midnightblue" stroke="midnightblue" points="106.458,-52.9907 116.489,-56.3993 110.773,-47.4789 106.458,-52.9907"/>
</g>
<!-- Node4 -->
<g id="node3" class="node"><title>Node4</title>
<g id="a_node3"><a xlink:href="_mat_diffusion_flux_b_c_8_c.html" target="_top" xlink:title="src/bcs/MatDiffusionFluxBC.C">
<polygon fill="white" stroke="black" points="135,-0.5 135,-19.5 286,-19.5 286,-0.5 135,-0.5"/>
<text text-anchor="middle" x="210.5" y="-7.5" font-family="Helvetica,sans-Serif" font-size="10.00">src/bcs/MatDiffusionFluxBC.C</text>
</a>
</g>
</g>
<!-- Node2&#45;&gt;Node4 -->
<g id="edge2" class="edge"><title>Node2&#45;&gt;Node4</title>
<path fill="none" stroke="midnightblue" d="M160.444,-50.1886C173.749,-39.7719 189.255,-27.6329 199.441,-19.6578"/>
<polygon fill="midnightblue" stroke="midnightblue" points="158.227,-47.4789 152.511,-56.3993 162.542,-52.9907 158.227,-47.4789"/>
</g>
</g>
</svg>
