<?xml version="1.0" encoding="UTF-8" standalone="no"?>
<!DOCTYPE svg PUBLIC "-//W3C//DTD SVG 1.1//EN"
 "http://www.w3.org/Graphics/SVG/1.1/DTD/svg11.dtd">
<!-- Generated by graphviz version 2.43.0 (0)
 -->
<!-- Title: src/materials/MoltresJsonMaterial.C Pages: 1 -->
<svg width="767pt" height="207pt"
 viewBox="0.00 0.00 767.00 207.00" xmlns="http://www.w3.org/2000/svg" xmlns:xlink="http://www.w3.org/1999/xlink">
<g id="graph0" class="graph" transform="scale(1 1) rotate(0) translate(4 203)">
<title>src/materials/MoltresJsonMaterial.C</title>
<polygon fill="white" stroke="transparent" points="-4,4 -4,-203 763,-203 763,4 -4,4"/>
<!-- Node1 -->
<g id="node1" class="node">
<title>Node1</title>
<g id="a_node1"><a xlink:title=" ">
<polygon fill="#bfbfbf" stroke="black" points="468,-168.5 468,-198.5 597,-198.5 597,-168.5 468,-168.5"/>
<text text-anchor="start" x="476" y="-186.5" font-family="Helvetica,sans-Serif" font-size="10.00">src/materials/MoltresJson</text>
<text text-anchor="middle" x="532.5" y="-175.5" font-family="Helvetica,sans-Serif" font-size="10.00">Material.C</text>
</a>
</g>
</g>
<!-- Node2 -->
<g id="node2" class="node">
<title>Node2</title>
<g id="a_node2"><a xlink:href="_moltres_json_material_8h.html" target="_top" xlink:title=" ">
<polygon fill="white" stroke="black" points="420,-112.5 420,-131.5 533,-131.5 533,-112.5 420,-112.5"/>
<text text-anchor="middle" x="476.5" y="-119.5" font-family="Helvetica,sans-Serif" font-size="10.00">MoltresJsonMaterial.h</text>
</a>
</g>
</g>
<!-- Node1&#45;&gt;Node2 -->
<g id="edge1" class="edge">
<title>Node1&#45;&gt;Node2</title>
<path fill="none" stroke="midnightblue" d="M519.23,-168.4C510.92,-159.58 500.2,-148.18 491.58,-139.02"/>
<polygon fill="midnightblue" stroke="midnightblue" points="494.05,-136.54 484.65,-131.66 488.95,-141.34 494.05,-136.54"/>
</g>
<!-- Node11 -->
<g id="node11" class="node">
<title>Node11</title>
<g id="a_node11"><a xlink:title=" ">
<polygon fill="white" stroke="#bfbfbf" points="551.5,-112.5 551.5,-131.5 625.5,-131.5 625.5,-112.5 551.5,-112.5"/>
<text text-anchor="middle" x="588.5" y="-119.5" font-family="Helvetica,sans-Serif" font-size="10.00">MooseUtils.h</text>
</a>
</g>
</g>
<!-- Node1&#45;&gt;Node11 -->
<g id="edge10" class="edge">
<title>Node1&#45;&gt;Node11</title>
<path fill="none" stroke="midnightblue" d="M545.77,-168.4C554.08,-159.58 564.8,-148.18 573.42,-139.02"/>
<polygon fill="midnightblue" stroke="midnightblue" points="576.05,-141.34 580.35,-131.66 570.95,-136.54 576.05,-141.34"/>
</g>
<!-- Node3 -->
<g id="node3" class="node">
<title>Node3</title>
<g id="a_node3"><a xlink:href="_nuclear_material_8h.html" target="_top" xlink:title=" ">
<polygon fill="white" stroke="black" points="376,-56.5 376,-75.5 469,-75.5 469,-56.5 376,-56.5"/>
<text text-anchor="middle" x="422.5" y="-63.5" font-family="Helvetica,sans-Serif" font-size="10.00">NuclearMaterial.h</text>
</a>
</g>
</g>
<!-- Node2&#45;&gt;Node3 -->
<g id="edge2" class="edge">
<title>Node2&#45;&gt;Node3</title>
<path fill="none" stroke="midnightblue" d="M467.58,-112.08C459.72,-104.22 448.07,-92.57 438.58,-83.08"/>
<polygon fill="midnightblue" stroke="midnightblue" points="440.8,-80.35 431.25,-75.75 435.85,-85.3 440.8,-80.35"/>
</g>
<!-- Node10 -->
<g id="node10" class="node">
<title>Node10</title>
<g id="a_node10"><a xlink:title=" ">
<polygon fill="white" stroke="#bfbfbf" points="487.5,-56.5 487.5,-75.5 575.5,-75.5 575.5,-56.5 487.5,-56.5"/>
<text text-anchor="middle" x="531.5" y="-63.5" font-family="Helvetica,sans-Serif" font-size="10.00">nlohmann/json.h</text>
</a>
</g>
</g>
<!-- Node2&#45;&gt;Node10 -->
<g id="edge9" class="edge">
<title>Node2&#45;&gt;Node10</title>
<path fill="none" stroke="midnightblue" d="M485.58,-112.08C493.67,-104.14 505.7,-92.34 515.41,-82.8"/>
<polygon fill="midnightblue" stroke="midnightblue" points="517.9,-85.25 522.59,-75.75 513,-80.26 517.9,-85.25"/>
</g>
<!-- Node4 -->
<g id="node4" class="node">
<title>Node4</title>
<g id="a_node4"><a xlink:title=" ">
<polygon fill="white" stroke="#bfbfbf" points="0,-0.5 0,-19.5 133,-19.5 133,-0.5 0,-0.5"/>
<text text-anchor="middle" x="66.5" y="-7.5" font-family="Helvetica,sans-Serif" font-size="10.00">GenericConstantMaterial.h</text>
</a>
</g>
</g>
<!-- Node3&#45;&gt;Node4 -->
<g id="edge3" class="edge">
<title>Node3&#45;&gt;Node4</title>
<path fill="none" stroke="midnightblue" d="M375.96,-57.94C313.89,-48.53 203.65,-31.8 132.88,-21.07"/>
<polygon fill="midnightblue" stroke="midnightblue" points="133.15,-17.57 122.73,-19.53 132.1,-24.49 133.15,-17.57"/>
</g>
<!-- Node5 -->
<g id="node5" class="node">
<title>Node5</title>
<g id="a_node5"><a xlink:title=" ">
<polygon fill="white" stroke="#bfbfbf" points="151,-0.5 151,-19.5 256,-19.5 256,-0.5 151,-0.5"/>
<text text-anchor="middle" x="203.5" y="-7.5" font-family="Helvetica,sans-Serif" font-size="10.00">SplineInterpolation.h</text>
</a>
</g>
</g>
<!-- Node3&#45;&gt;Node5 -->
<g id="edge4" class="edge">
<title>Node3&#45;&gt;Node5</title>
<path fill="none" stroke="midnightblue" d="M387.8,-56.44C349.92,-47.1 289.15,-32.12 247.84,-21.93"/>
<polygon fill="midnightblue" stroke="midnightblue" points="248.59,-18.51 238.04,-19.52 246.91,-25.31 248.59,-18.51"/>
</g>
<!-- Node6 -->
<g id="node6" class="node">
<title>Node6</title>
<g id="a_node6"><a xlink:title=" ">
<polygon fill="white" stroke="#bfbfbf" points="274,-0.5 274,-19.5 411,-19.5 411,-0.5 274,-0.5"/>
<text text-anchor="middle" x="342.5" y="-7.5" font-family="Helvetica,sans-Serif" font-size="10.00">BicubicSplineInterpolation.h</text>
</a>
</g>
</g>
<!-- Node3&#45;&gt;Node6 -->
<g id="edge5" class="edge">
<title>Node3&#45;&gt;Node6</title>
<path fill="none" stroke="midnightblue" d="M409.65,-56.32C397.28,-47.98 378.37,-35.21 363.76,-25.35"/>
<polygon fill="midnightblue" stroke="midnightblue" points="365.57,-22.35 355.32,-19.65 361.65,-28.15 365.57,-22.35"/>
</g>
<!-- Node7 -->
<g id="node7" class="node">
<title>Node7</title>
<g id="a_node7"><a xlink:title=" ">
<polygon fill="white" stroke="#bfbfbf" points="429.5,-0.5 429.5,-19.5 575.5,-19.5 575.5,-0.5 429.5,-0.5"/>
<text text-anchor="middle" x="502.5" y="-7.5" font-family="Helvetica,sans-Serif" font-size="10.00">MonotoneCubicInterpolation.h</text>
</a>
</g>
</g>
<!-- Node3&#45;&gt;Node7 -->
<g id="edge6" class="edge">
<title>Node3&#45;&gt;Node7</title>
<path fill="none" stroke="midnightblue" d="M435.35,-56.32C447.72,-47.98 466.63,-35.21 481.24,-25.35"/>
<polygon fill="midnightblue" stroke="midnightblue" points="483.35,-28.15 489.68,-19.65 479.43,-22.35 483.35,-28.15"/>
</g>
<!-- Node8 -->
<g id="node8" class="node">
<title>Node8</title>
<g id="a_node8"><a xlink:title=" ">
<polygon fill="white" stroke="#bfbfbf" points="593.5,-0.5 593.5,-19.5 697.5,-19.5 697.5,-0.5 593.5,-0.5"/>
<text text-anchor="middle" x="645.5" y="-7.5" font-family="Helvetica,sans-Serif" font-size="10.00">LinearInterpolation.h</text>
</a>
</g>
</g>
<!-- Node3&#45;&gt;Node8 -->
<g id="edge7" class="edge">
<title>Node3&#45;&gt;Node8</title>
<path fill="none" stroke="midnightblue" d="M457.84,-56.44C496.41,-47.1 558.28,-32.12 600.35,-21.93"/>
<polygon fill="midnightblue" stroke="midnightblue" points="601.43,-25.27 610.33,-19.52 599.79,-18.47 601.43,-25.27"/>
</g>
<!-- Node9 -->
<g id="node9" class="node">
<title>Node9</title>
<g id="a_node9"><a xlink:title=" ">
<polygon fill="white" stroke="#bfbfbf" points="716,-0.5 716,-19.5 759,-19.5 759,-0.5 716,-0.5"/>
<text text-anchor="middle" x="737.5" y="-7.5" font-family="Helvetica,sans-Serif" font-size="10.00">json.h</text>
</a>
</g>
</g>
<!-- Node3&#45;&gt;Node9 -->
<g id="edge8" class="edge">
<title>Node3&#45;&gt;Node9</title>
<path fill="none" stroke="midnightblue" d="M469.25,-57.48C472.38,-56.98 475.49,-56.48 478.5,-56 576.65,-40.37 604.64,-42.21 705.88,-19.88"/>
<polygon fill="midnightblue" stroke="midnightblue" points="706.91,-23.24 715.91,-17.64 705.39,-16.41 706.91,-23.24"/>
</g>
</g>
</svg>
