<?xml version="1.0" encoding="UTF-8" standalone="no"?>
<!DOCTYPE svg PUBLIC "-//W3C//DTD SVG 1.1//EN"
 "http://www.w3.org/Graphics/SVG/1.1/DTD/svg11.dtd">
<!-- Generated by graphviz version 2.38.0 (20140413.2041)
 -->
<!-- Title: src/actions/NtAction.C Pages: 1 -->
<svg width="565pt" height="140pt"
 viewBox="0.00 0.00 564.50 140.00" xmlns="http://www.w3.org/2000/svg" xmlns:xlink="http://www.w3.org/1999/xlink">
<g id="graph0" class="graph" transform="scale(1 1) rotate(0) translate(4 136)">
<title>src/actions/NtAction.C</title>
<polygon fill="white" stroke="none" points="-4,4 -4,-136 560.5,-136 560.5,4 -4,4"/>
<!-- Node0 -->
<g id="node1" class="node"><title>Node0</title>
<polygon fill="#bfbfbf" stroke="black" points="188.5,-112.5 188.5,-131.5 304.5,-131.5 304.5,-112.5 188.5,-112.5"/>
<text text-anchor="middle" x="246.5" y="-119.5" font-family="Helvetica,sans-Serif" font-size="10.00">src/actions/NtAction.C</text>
</g>
<!-- Node1 -->
<g id="node2" class="node"><title>Node1</title>
<g id="a_node2"><a xlink:href="_nt_action_8h.html" target="_top" xlink:title="NtAction.h">
<polygon fill="white" stroke="black" points="21,-56.5 21,-75.5 84,-75.5 84,-56.5 21,-56.5"/>
<text text-anchor="middle" x="52.5" y="-63.5" font-family="Helvetica,sans-Serif" font-size="10.00">NtAction.h</text>
</a>
</g>
</g>
<!-- Node0&#45;&gt;Node1 -->
<g id="edge1" class="edge"><title>Node0&#45;&gt;Node1</title>
<path fill="none" stroke="midnightblue" d="M215.76,-112.444C182.556,-103.201 129.509,-88.4356 92.9425,-78.2572"/>
<polygon fill="midnightblue" stroke="midnightblue" points="93.6684,-74.8262 83.0961,-75.5164 91.7912,-81.5699 93.6684,-74.8262"/>
</g>
<!-- Node3 -->
<g id="node4" class="node"><title>Node3</title>
<polygon fill="white" stroke="#bfbfbf" points="102.5,-56.5 102.5,-75.5 160.5,-75.5 160.5,-56.5 102.5,-56.5"/>
<text text-anchor="middle" x="131.5" y="-63.5" font-family="Helvetica,sans-Serif" font-size="10.00">Factory.h</text>
</g>
<!-- Node0&#45;&gt;Node3 -->
<g id="edge3" class="edge"><title>Node0&#45;&gt;Node3</title>
<path fill="none" stroke="midnightblue" d="M228.278,-112.444C209.604,-103.675 180.344,-89.9355 158.883,-79.8579"/>
<polygon fill="midnightblue" stroke="midnightblue" points="160.176,-76.5988 149.637,-75.5164 157.201,-82.935 160.176,-76.5988"/>
</g>
<!-- Node4 -->
<g id="node5" class="node"><title>Node4</title>
<polygon fill="white" stroke="#bfbfbf" points="179,-56.5 179,-75.5 232,-75.5 232,-56.5 179,-56.5"/>
<text text-anchor="middle" x="205.5" y="-63.5" font-family="Helvetica,sans-Serif" font-size="10.00">Parser.h</text>
</g>
<!-- Node0&#45;&gt;Node4 -->
<g id="edge4" class="edge"><title>Node0&#45;&gt;Node4</title>
<path fill="none" stroke="midnightblue" d="M239.73,-112.083C233.938,-104.455 225.442,-93.2645 218.362,-83.9408"/>
<polygon fill="midnightblue" stroke="midnightblue" points="220.979,-81.5991 212.144,-75.7511 215.404,-85.8321 220.979,-81.5991"/>
</g>
<!-- Node5 -->
<g id="node6" class="node"><title>Node5</title>
<polygon fill="white" stroke="#bfbfbf" points="250.5,-56.5 250.5,-75.5 324.5,-75.5 324.5,-56.5 250.5,-56.5"/>
<text text-anchor="middle" x="287.5" y="-63.5" font-family="Helvetica,sans-Serif" font-size="10.00">Conversion.h</text>
</g>
<!-- Node0&#45;&gt;Node5 -->
<g id="edge5" class="edge"><title>Node0&#45;&gt;Node5</title>
<path fill="none" stroke="midnightblue" d="M253.27,-112.083C259.062,-104.455 267.558,-93.2645 274.638,-83.9408"/>
<polygon fill="midnightblue" stroke="midnightblue" points="277.596,-85.8321 280.856,-75.7511 272.021,-81.5991 277.596,-85.8321"/>
</g>
<!-- Node6 -->
<g id="node7" class="node"><title>Node6</title>
<polygon fill="white" stroke="#bfbfbf" points="342.5,-56.5 342.5,-75.5 416.5,-75.5 416.5,-56.5 342.5,-56.5"/>
<text text-anchor="middle" x="379.5" y="-63.5" font-family="Helvetica,sans-Serif" font-size="10.00">FEProblem.h</text>
</g>
<!-- Node0&#45;&gt;Node6 -->
<g id="edge6" class="edge"><title>Node0&#45;&gt;Node6</title>
<path fill="none" stroke="midnightblue" d="M267.574,-112.444C289.56,-103.517 324.234,-89.4387 349.164,-79.3168"/>
<polygon fill="midnightblue" stroke="midnightblue" points="350.576,-82.5213 358.524,-75.5164 347.942,-76.0355 350.576,-82.5213"/>
</g>
<!-- Node7 -->
<g id="node8" class="node"><title>Node7</title>
<polygon fill="white" stroke="#bfbfbf" points="434.5,-56.5 434.5,-75.5 556.5,-75.5 556.5,-56.5 434.5,-56.5"/>
<text text-anchor="middle" x="495.5" y="-63.5" font-family="Helvetica,sans-Serif" font-size="10.00">NonlinearSystemBase.h</text>
</g>
<!-- Node0&#45;&gt;Node7 -->
<g id="edge7" class="edge"><title>Node0&#45;&gt;Node7</title>
<path fill="none" stroke="midnightblue" d="M285.955,-112.444C329.392,-103.023 399.286,-87.8656 446.276,-77.6752"/>
<polygon fill="midnightblue" stroke="midnightblue" points="447.199,-81.0564 456.23,-75.5164 445.715,-74.2154 447.199,-81.0564"/>
</g>
<!-- Node2 -->
<g id="node3" class="node"><title>Node2</title>
<polygon fill="white" stroke="#bfbfbf" points="0,-0.5 0,-19.5 105,-19.5 105,-0.5 0,-0.5"/>
<text text-anchor="middle" x="52.5" y="-7.5" font-family="Helvetica,sans-Serif" font-size="10.00">AddVariableAction.h</text>
</g>
<!-- Node1&#45;&gt;Node2 -->
<g id="edge2" class="edge"><title>Node1&#45;&gt;Node2</title>
<path fill="none" stroke="midnightblue" d="M52.5,-56.083C52.5,-49.0059 52.5,-38.8611 52.5,-29.9865"/>
<polygon fill="midnightblue" stroke="midnightblue" points="56.0001,-29.751 52.5,-19.7511 49.0001,-29.7511 56.0001,-29.751"/>
</g>
</g>
</svg>
