<?xml version="1.0" encoding="UTF-8" standalone="no"?>
<!DOCTYPE svg PUBLIC "-//W3C//DTD SVG 1.1//EN"
 "http://www.w3.org/Graphics/SVG/1.1/DTD/svg11.dtd">
<!-- Generated by graphviz version 2.43.0 (0)
 -->
<!-- Title: src/actions/NtAction.C Pages: 1 -->
<svg width="594pt" height="196pt"
 viewBox="0.00 0.00 593.50 196.00" xmlns="http://www.w3.org/2000/svg" xmlns:xlink="http://www.w3.org/1999/xlink">
<g id="graph0" class="graph" transform="scale(1 1) rotate(0) translate(4 192)">
<title>src/actions/NtAction.C</title>
<polygon fill="white" stroke="transparent" points="-4,4 -4,-192 589.5,-192 589.5,4 -4,4"/>
<!-- Node1 -->
<g id="node1" class="node">
<title>Node1</title>
<g id="a_node1"><a xlink:title=" ">
<polygon fill="#bfbfbf" stroke="black" points="217.5,-168.5 217.5,-187.5 333.5,-187.5 333.5,-168.5 217.5,-168.5"/>
<text text-anchor="middle" x="275.5" y="-175.5" font-family="Helvetica,sans-Serif" font-size="10.00">src/actions/NtAction.C</text>
</a>
</g>
</g>
<!-- Node2 -->
<g id="node2" class="node">
<title>Node2</title>
<g id="a_node2"><a xlink:href="_nt_action_8h.html" target="_top" xlink:title=" ">
<polygon fill="white" stroke="black" points="52,-112.5 52,-131.5 115,-131.5 115,-112.5 52,-112.5"/>
<text text-anchor="middle" x="83.5" y="-119.5" font-family="Helvetica,sans-Serif" font-size="10.00">NtAction.h</text>
</a>
</g>
</g>
<!-- Node1&#45;&gt;Node2 -->
<g id="edge1" class="edge">
<title>Node1&#45;&gt;Node2</title>
<path fill="none" stroke="midnightblue" d="M245.08,-168.44C212.22,-159.2 159.72,-144.44 123.53,-134.26"/>
<polygon fill="midnightblue" stroke="midnightblue" points="124.35,-130.85 113.78,-131.52 122.46,-137.59 124.35,-130.85"/>
</g>
<!-- Node5 -->
<g id="node5" class="node">
<title>Node5</title>
<g id="a_node5"><a xlink:title=" ">
<polygon fill="white" stroke="#bfbfbf" points="133.5,-112.5 133.5,-131.5 189.5,-131.5 189.5,-112.5 133.5,-112.5"/>
<text text-anchor="middle" x="161.5" y="-119.5" font-family="Helvetica,sans-Serif" font-size="10.00">Factory.h</text>
</a>
</g>
</g>
<!-- Node1&#45;&gt;Node5 -->
<g id="edge4" class="edge">
<title>Node1&#45;&gt;Node5</title>
<path fill="none" stroke="midnightblue" d="M257.44,-168.44C238.93,-159.68 209.92,-145.94 188.64,-135.86"/>
<polygon fill="midnightblue" stroke="midnightblue" points="190.01,-132.63 179.48,-131.52 187.02,-138.96 190.01,-132.63"/>
</g>
<!-- Node6 -->
<g id="node6" class="node">
<title>Node6</title>
<g id="a_node6"><a xlink:title=" ">
<polygon fill="white" stroke="#bfbfbf" points="208,-112.5 208,-131.5 261,-131.5 261,-112.5 208,-112.5"/>
<text text-anchor="middle" x="234.5" y="-119.5" font-family="Helvetica,sans-Serif" font-size="10.00">Parser.h</text>
</a>
</g>
</g>
<!-- Node1&#45;&gt;Node6 -->
<g id="edge5" class="edge">
<title>Node1&#45;&gt;Node6</title>
<path fill="none" stroke="midnightblue" d="M268.73,-168.08C262.94,-160.46 254.44,-149.26 247.36,-139.94"/>
<polygon fill="midnightblue" stroke="midnightblue" points="249.98,-137.6 241.14,-131.75 244.4,-141.83 249.98,-137.6"/>
</g>
<!-- Node7 -->
<g id="node7" class="node">
<title>Node7</title>
<g id="a_node7"><a xlink:title=" ">
<polygon fill="white" stroke="#bfbfbf" points="279.5,-112.5 279.5,-131.5 353.5,-131.5 353.5,-112.5 279.5,-112.5"/>
<text text-anchor="middle" x="316.5" y="-119.5" font-family="Helvetica,sans-Serif" font-size="10.00">Conversion.h</text>
</a>
</g>
</g>
<!-- Node1&#45;&gt;Node7 -->
<g id="edge6" class="edge">
<title>Node1&#45;&gt;Node7</title>
<path fill="none" stroke="midnightblue" d="M282.27,-168.08C288.06,-160.46 296.56,-149.26 303.64,-139.94"/>
<polygon fill="midnightblue" stroke="midnightblue" points="306.6,-141.83 309.86,-131.75 301.02,-137.6 306.6,-141.83"/>
</g>
<!-- Node8 -->
<g id="node8" class="node">
<title>Node8</title>
<g id="a_node8"><a xlink:title=" ">
<polygon fill="white" stroke="#bfbfbf" points="371.5,-112.5 371.5,-131.5 445.5,-131.5 445.5,-112.5 371.5,-112.5"/>
<text text-anchor="middle" x="408.5" y="-119.5" font-family="Helvetica,sans-Serif" font-size="10.00">FEProblem.h</text>
</a>
</g>
</g>
<!-- Node1&#45;&gt;Node8 -->
<g id="edge7" class="edge">
<title>Node1&#45;&gt;Node8</title>
<path fill="none" stroke="midnightblue" d="M296.57,-168.44C318.56,-159.52 353.23,-145.44 378.16,-135.32"/>
<polygon fill="midnightblue" stroke="midnightblue" points="379.58,-138.52 387.52,-131.52 376.94,-132.04 379.58,-138.52"/>
</g>
<!-- Node9 -->
<g id="node9" class="node">
<title>Node9</title>
<g id="a_node9"><a xlink:title=" ">
<polygon fill="white" stroke="#bfbfbf" points="463.5,-112.5 463.5,-131.5 585.5,-131.5 585.5,-112.5 463.5,-112.5"/>
<text text-anchor="middle" x="524.5" y="-119.5" font-family="Helvetica,sans-Serif" font-size="10.00">NonlinearSystemBase.h</text>
</a>
</g>
</g>
<!-- Node1&#45;&gt;Node9 -->
<g id="edge8" class="edge">
<title>Node1&#45;&gt;Node9</title>
<path fill="none" stroke="midnightblue" d="M314.95,-168.44C358.39,-159.02 428.29,-143.87 475.28,-133.68"/>
<polygon fill="midnightblue" stroke="midnightblue" points="476.2,-137.06 485.23,-131.52 474.72,-130.22 476.2,-137.06"/>
</g>
<!-- Node3 -->
<g id="node3" class="node">
<title>Node3</title>
<g id="a_node3"><a xlink:href="_variable_not_a_moose_object_action_8h.html" target="_top" xlink:title=" ">
<polygon fill="white" stroke="black" points="0,-56.5 0,-75.5 167,-75.5 167,-56.5 0,-56.5"/>
<text text-anchor="middle" x="83.5" y="-63.5" font-family="Helvetica,sans-Serif" font-size="10.00">VariableNotAMooseObjectAction.h</text>
</a>
</g>
</g>
<!-- Node2&#45;&gt;Node3 -->
<g id="edge2" class="edge">
<title>Node2&#45;&gt;Node3</title>
<path fill="none" stroke="midnightblue" d="M83.5,-112.08C83.5,-105.01 83.5,-94.86 83.5,-85.99"/>
<polygon fill="midnightblue" stroke="midnightblue" points="87,-85.75 83.5,-75.75 80,-85.75 87,-85.75"/>
</g>
<!-- Node4 -->
<g id="node4" class="node">
<title>Node4</title>
<g id="a_node4"><a xlink:title=" ">
<polygon fill="white" stroke="#bfbfbf" points="57,-0.5 57,-19.5 110,-19.5 110,-0.5 57,-0.5"/>
<text text-anchor="middle" x="83.5" y="-7.5" font-family="Helvetica,sans-Serif" font-size="10.00">Action.h</text>
</a>
</g>
</g>
<!-- Node3&#45;&gt;Node4 -->
<g id="edge3" class="edge">
<title>Node3&#45;&gt;Node4</title>
<path fill="none" stroke="midnightblue" d="M83.5,-56.08C83.5,-49.01 83.5,-38.86 83.5,-29.99"/>
<polygon fill="midnightblue" stroke="midnightblue" points="87,-29.75 83.5,-19.75 80,-29.75 87,-29.75"/>
</g>
</g>
</svg>
