<?xml version="1.0" encoding="UTF-8" standalone="no"?>
<!DOCTYPE svg PUBLIC "-//W3C//DTD SVG 1.1//EN"
 "http://www.w3.org/Graphics/SVG/1.1/DTD/svg11.dtd">
<!-- Generated by graphviz version 2.43.0 (0)
 -->
<!-- Title: include/materials/NuclearMaterial.h Pages: 1 -->
<svg width="767pt" height="95pt"
 viewBox="0.00 0.00 767.00 95.00" xmlns="http://www.w3.org/2000/svg" xmlns:xlink="http://www.w3.org/1999/xlink">
<g id="graph0" class="graph" transform="scale(1 1) rotate(0) translate(4 91)">
<title>include/materials/NuclearMaterial.h</title>
<polygon fill="white" stroke="transparent" points="-4,4 -4,-91 763,-91 763,4 -4,4"/>
<!-- Node1 -->
<g id="node1" class="node">
<title>Node1</title>
<g id="a_node1"><a xlink:title=" ">
<polygon fill="#bfbfbf" stroke="black" points="359,-56.5 359,-86.5 486,-86.5 486,-56.5 359,-56.5"/>
<text text-anchor="start" x="367" y="-74.5" font-family="Helvetica,sans-Serif" font-size="10.00">include/materials/Nuclear</text>
<text text-anchor="middle" x="422.5" y="-63.5" font-family="Helvetica,sans-Serif" font-size="10.00">Material.h</text>
</a>
</g>
</g>
<!-- Node2 -->
<g id="node2" class="node">
<title>Node2</title>
<g id="a_node2"><a xlink:title=" ">
<polygon fill="white" stroke="#bfbfbf" points="0,-0.5 0,-19.5 133,-19.5 133,-0.5 0,-0.5"/>
<text text-anchor="middle" x="66.5" y="-7.5" font-family="Helvetica,sans-Serif" font-size="10.00">GenericConstantMaterial.h</text>
</a>
</g>
</g>
<!-- Node1&#45;&gt;Node2 -->
<g id="edge1" class="edge">
<title>Node1&#45;&gt;Node2</title>
<path fill="none" stroke="midnightblue" d="M358.85,-59.86C293.36,-48.92 192.04,-31.98 127.53,-21.2"/>
<polygon fill="midnightblue" stroke="midnightblue" points="127.94,-17.72 117.5,-19.52 126.78,-24.62 127.94,-17.72"/>
</g>
<!-- Node3 -->
<g id="node3" class="node">
<title>Node3</title>
<g id="a_node3"><a xlink:title=" ">
<polygon fill="white" stroke="#bfbfbf" points="151,-0.5 151,-19.5 256,-19.5 256,-0.5 151,-0.5"/>
<text text-anchor="middle" x="203.5" y="-7.5" font-family="Helvetica,sans-Serif" font-size="10.00">SplineInterpolation.h</text>
</a>
</g>
</g>
<!-- Node1&#45;&gt;Node3 -->
<g id="edge2" class="edge">
<title>Node1&#45;&gt;Node3</title>
<path fill="none" stroke="midnightblue" d="M370.88,-56.47C332.44,-46.03 280.64,-31.96 244.9,-22.25"/>
<polygon fill="midnightblue" stroke="midnightblue" points="245.38,-18.75 234.81,-19.51 243.54,-25.51 245.38,-18.75"/>
</g>
<!-- Node4 -->
<g id="node4" class="node">
<title>Node4</title>
<g id="a_node4"><a xlink:title=" ">
<polygon fill="white" stroke="#bfbfbf" points="274,-0.5 274,-19.5 411,-19.5 411,-0.5 274,-0.5"/>
<text text-anchor="middle" x="342.5" y="-7.5" font-family="Helvetica,sans-Serif" font-size="10.00">BicubicSplineInterpolation.h</text>
</a>
</g>
</g>
<!-- Node1&#45;&gt;Node4 -->
<g id="edge3" class="edge">
<title>Node1&#45;&gt;Node4</title>
<path fill="none" stroke="midnightblue" d="M403.54,-56.4C391.08,-47.13 374.8,-35.03 362.19,-25.65"/>
<polygon fill="midnightblue" stroke="midnightblue" points="364.25,-22.82 354.14,-19.66 360.08,-28.43 364.25,-22.82"/>
</g>
<!-- Node5 -->
<g id="node5" class="node">
<title>Node5</title>
<g id="a_node5"><a xlink:title=" ">
<polygon fill="white" stroke="#bfbfbf" points="429.5,-0.5 429.5,-19.5 575.5,-19.5 575.5,-0.5 429.5,-0.5"/>
<text text-anchor="middle" x="502.5" y="-7.5" font-family="Helvetica,sans-Serif" font-size="10.00">MonotoneCubicInterpolation.h</text>
</a>
</g>
</g>
<!-- Node1&#45;&gt;Node5 -->
<g id="edge4" class="edge">
<title>Node1&#45;&gt;Node5</title>
<path fill="none" stroke="midnightblue" d="M441.46,-56.4C453.92,-47.13 470.2,-35.03 482.81,-25.65"/>
<polygon fill="midnightblue" stroke="midnightblue" points="484.92,-28.43 490.86,-19.66 480.75,-22.82 484.92,-28.43"/>
</g>
<!-- Node6 -->
<g id="node6" class="node">
<title>Node6</title>
<g id="a_node6"><a xlink:title=" ">
<polygon fill="white" stroke="#bfbfbf" points="593.5,-0.5 593.5,-19.5 697.5,-19.5 697.5,-0.5 593.5,-0.5"/>
<text text-anchor="middle" x="645.5" y="-7.5" font-family="Helvetica,sans-Serif" font-size="10.00">LinearInterpolation.h</text>
</a>
</g>
</g>
<!-- Node1&#45;&gt;Node6 -->
<g id="edge5" class="edge">
<title>Node1&#45;&gt;Node6</title>
<path fill="none" stroke="midnightblue" d="M475.07,-56.47C514.38,-45.99 567.41,-31.84 603.82,-22.12"/>
<polygon fill="midnightblue" stroke="midnightblue" points="604.86,-25.47 613.62,-19.51 603.05,-18.7 604.86,-25.47"/>
</g>
<!-- Node7 -->
<g id="node7" class="node">
<title>Node7</title>
<g id="a_node7"><a xlink:title=" ">
<polygon fill="white" stroke="#bfbfbf" points="716,-0.5 716,-19.5 759,-19.5 759,-0.5 716,-0.5"/>
<text text-anchor="middle" x="737.5" y="-7.5" font-family="Helvetica,sans-Serif" font-size="10.00">json.h</text>
</a>
</g>
</g>
<!-- Node1&#45;&gt;Node7 -->
<g id="edge6" class="edge">
<title>Node1&#45;&gt;Node7</title>
<path fill="none" stroke="midnightblue" d="M486.06,-61.18C541.62,-52.59 624.6,-38.67 705.98,-19.9"/>
<polygon fill="midnightblue" stroke="midnightblue" points="706.95,-23.27 715.9,-17.59 705.36,-16.45 706.95,-23.27"/>
</g>
</g>
</svg>
