<?xml version="1.0" encoding="UTF-8" standalone="no"?>
<!DOCTYPE svg PUBLIC "-//W3C//DTD SVG 1.1//EN"
 "http://www.w3.org/Graphics/SVG/1.1/DTD/svg11.dtd">
<!-- Generated by graphviz version 2.43.0 (0)
 -->
<!-- Title: include/kernels/ScalarAdvectionArtDiff.h Pages: 1 -->
<svg width="255pt" height="151pt"
 viewBox="0.00 0.00 254.50 151.00" xmlns="http://www.w3.org/2000/svg" xmlns:xlink="http://www.w3.org/1999/xlink">
<g id="graph0" class="graph" transform="scale(1 1) rotate(0) translate(4 147)">
<title>include/kernels/ScalarAdvectionArtDiff.h</title>
<polygon fill="white" stroke="transparent" points="-4,4 -4,-147 250.5,-147 250.5,4 -4,4"/>
<!-- Node1 -->
<g id="node1" class="node">
<title>Node1</title>
<g id="a_node1"><a xlink:title=" ">
<polygon fill="#bfbfbf" stroke="black" points="0,-112.5 0,-142.5 156,-142.5 156,-112.5 0,-112.5"/>
<text text-anchor="start" x="8" y="-130.5" font-family="Helvetica,sans-Serif" font-size="10.00">include/kernels/ScalarAdvection</text>
<text text-anchor="middle" x="78" y="-119.5" font-family="Helvetica,sans-Serif" font-size="10.00">ArtDiff.h</text>
</a>
</g>
</g>
<!-- Node2 -->
<g id="node2" class="node">
<title>Node2</title>
<g id="a_node2"><a xlink:title=" ">
<polygon fill="white" stroke="#bfbfbf" points="0.5,-56.5 0.5,-75.5 53.5,-75.5 53.5,-56.5 0.5,-56.5"/>
<text text-anchor="middle" x="27" y="-63.5" font-family="Helvetica,sans-Serif" font-size="10.00">Kernel.h</text>
</a>
</g>
</g>
<!-- Node1&#45;&gt;Node2 -->
<g id="edge1" class="edge">
<title>Node1&#45;&gt;Node2</title>
<path fill="none" stroke="midnightblue" d="M65.91,-112.4C58.43,-103.66 48.78,-92.41 40.97,-83.3"/>
<polygon fill="midnightblue" stroke="midnightblue" points="43.59,-80.97 34.42,-75.66 38.27,-85.53 43.59,-80.97"/>
</g>
<!-- Node3 -->
<g id="node3" class="node">
<title>Node3</title>
<g id="a_node3"><a xlink:href="_scalar_transport_base_8h.html" target="_top" xlink:title=" ">
<polygon fill="white" stroke="black" points="72,-56.5 72,-75.5 188,-75.5 188,-56.5 72,-56.5"/>
<text text-anchor="middle" x="130" y="-63.5" font-family="Helvetica,sans-Serif" font-size="10.00">ScalarTransportBase.h</text>
</a>
</g>
</g>
<!-- Node1&#45;&gt;Node3 -->
<g id="edge2" class="edge">
<title>Node1&#45;&gt;Node3</title>
<path fill="none" stroke="midnightblue" d="M90.32,-112.4C97.96,-103.66 107.79,-92.41 115.76,-83.3"/>
<polygon fill="midnightblue" stroke="midnightblue" points="118.49,-85.49 122.43,-75.66 113.22,-80.88 118.49,-85.49"/>
</g>
<!-- Node4 -->
<g id="node4" class="node">
<title>Node4</title>
<g id="a_node4"><a xlink:title=" ">
<polygon fill="white" stroke="#bfbfbf" points="20.5,-0.5 20.5,-19.5 117.5,-19.5 117.5,-0.5 20.5,-0.5"/>
<text text-anchor="middle" x="69" y="-7.5" font-family="Helvetica,sans-Serif" font-size="10.00">InputParameters.h</text>
</a>
</g>
</g>
<!-- Node3&#45;&gt;Node4 -->
<g id="edge3" class="edge">
<title>Node3&#45;&gt;Node4</title>
<path fill="none" stroke="midnightblue" d="M120.2,-56.32C111.18,-48.34 97.59,-36.31 86.68,-26.65"/>
<polygon fill="midnightblue" stroke="midnightblue" points="88.79,-23.84 78.98,-19.83 84.15,-29.08 88.79,-23.84"/>
</g>
<!-- Node5 -->
<g id="node5" class="node">
<title>Node5</title>
<g id="a_node5"><a xlink:title=" ">
<polygon fill="white" stroke="#bfbfbf" points="135.5,-0.5 135.5,-19.5 246.5,-19.5 246.5,-0.5 135.5,-0.5"/>
<text text-anchor="middle" x="191" y="-7.5" font-family="Helvetica,sans-Serif" font-size="10.00">MooseVariableBase.h</text>
</a>
</g>
</g>
<!-- Node3&#45;&gt;Node5 -->
<g id="edge4" class="edge">
<title>Node3&#45;&gt;Node5</title>
<path fill="none" stroke="midnightblue" d="M139.8,-56.32C148.82,-48.34 162.41,-36.31 173.32,-26.65"/>
<polygon fill="midnightblue" stroke="midnightblue" points="175.85,-29.08 181.02,-19.83 171.21,-23.84 175.85,-29.08"/>
</g>
</g>
</svg>
