<?xml version="1.0" encoding="UTF-8" standalone="no"?>
<!DOCTYPE svg PUBLIC "-//W3C//DTD SVG 1.1//EN"
 "http://www.w3.org/Graphics/SVG/1.1/DTD/svg11.dtd">
<!-- Generated by graphviz version 2.38.0 (20140413.2041)
 -->
<!-- Title: include/kernels/ScalarTransportTimeDerivative.h Pages: 1 -->
<svg width="364pt" height="162pt"
 viewBox="0.00 0.00 363.50 162.00" xmlns="http://www.w3.org/2000/svg" xmlns:xlink="http://www.w3.org/1999/xlink">
<g id="graph0" class="graph" transform="scale(1 1) rotate(0) translate(4 158)">
<title>include/kernels/ScalarTransportTimeDerivative.h</title>
<polygon fill="white" stroke="none" points="-4,4 -4,-158 359.5,-158 359.5,4 -4,4"/>
<!-- Node5 -->
<g id="node1" class="node"><title>Node5</title>
<polygon fill="#bfbfbf" stroke="black" points="21.5,-123.5 21.5,-153.5 175.5,-153.5 175.5,-123.5 21.5,-123.5"/>
<text text-anchor="start" x="29.5" y="-141.5" font-family="Helvetica,sans-Serif" font-size="10.00">include/kernels/ScalarTransport</text>
<text text-anchor="middle" x="98.5" y="-130.5" font-family="Helvetica,sans-Serif" font-size="10.00">TimeDerivative.h</text>
</g>
<!-- Node6 -->
<g id="node2" class="node"><title>Node6</title>
<g id="a_node2"><a xlink:href="_moltres_app_8_c.html" target="_top" xlink:title="src/base/MoltresApp.C">
<polygon fill="white" stroke="black" points="0,-0.5 0,-19.5 117,-19.5 117,-0.5 0,-0.5"/>
<text text-anchor="middle" x="58.5" y="-7.5" font-family="Helvetica,sans-Serif" font-size="10.00">src/base/MoltresApp.C</text>
</a>
</g>
</g>
<!-- Node5&#45;&gt;Node6 -->
<g id="edge1" class="edge"><title>Node5&#45;&gt;Node6</title>
<path fill="none" stroke="midnightblue" d="M53.1326,-118.492C40.2521,-110.724 27.7642,-100.357 20.5,-87 13.9174,-74.8964 15.7675,-68.9395 20.5,-56 25.909,-41.211 38.5616,-27.9305 47.7855,-19.6955"/>
<polygon fill="midnightblue" stroke="midnightblue" points="51.6137,-121.652 62.0533,-123.459 55.0193,-115.536 51.6137,-121.652"/>
</g>
<!-- Node7 -->
<g id="node3" class="node"><title>Node7</title>
<g id="a_node3"><a xlink:href="_scalar_transport_time_derivative_8_c.html" target="_top" xlink:title="src/kernels/ScalarTransport\lTimeDerivative.C">
<polygon fill="white" stroke="black" points="30,-56.5 30,-86.5 167,-86.5 167,-56.5 30,-56.5"/>
<text text-anchor="start" x="38" y="-74.5" font-family="Helvetica,sans-Serif" font-size="10.00">src/kernels/ScalarTransport</text>
<text text-anchor="middle" x="98.5" y="-63.5" font-family="Helvetica,sans-Serif" font-size="10.00">TimeDerivative.C</text>
</a>
</g>
</g>
<!-- Node5&#45;&gt;Node7 -->
<g id="edge2" class="edge"><title>Node5&#45;&gt;Node7</title>
<path fill="none" stroke="midnightblue" d="M98.5,-113.108C98.5,-104.154 98.5,-94.3227 98.5,-86.5765"/>
<polygon fill="midnightblue" stroke="midnightblue" points="95.0001,-113.396 98.5,-123.396 102,-113.396 95.0001,-113.396"/>
</g>
<!-- Node8 -->
<g id="node4" class="node"><title>Node8</title>
<g id="a_node4"><a xlink:href="_nt_time_derivative_8h.html" target="_top" xlink:title="include/kernels/NtTimeDerivative.h">
<polygon fill="white" stroke="black" points="185.5,-62 185.5,-81 355.5,-81 355.5,-62 185.5,-62"/>
<text text-anchor="middle" x="270.5" y="-69" font-family="Helvetica,sans-Serif" font-size="10.00">include/kernels/NtTimeDerivative.h</text>
</a>
</g>
</g>
<!-- Node5&#45;&gt;Node8 -->
<g id="edge3" class="edge"><title>Node5&#45;&gt;Node8</title>
<path fill="none" stroke="midnightblue" d="M145.38,-119.784C178.73,-107.181 222.054,-90.8082 247.989,-81.007"/>
<polygon fill="midnightblue" stroke="midnightblue" points="143.938,-116.587 135.821,-123.396 146.413,-123.135 143.938,-116.587"/>
</g>
<!-- Node8&#45;&gt;Node6 -->
<g id="edge4" class="edge"><title>Node8&#45;&gt;Node6</title>
<path fill="none" stroke="midnightblue" d="M230.413,-59.2493C189.225,-47.6894 126.023,-29.9511 88.8181,-19.5091"/>
<polygon fill="midnightblue" stroke="midnightblue" points="229.552,-62.6426 240.126,-61.9751 231.443,-55.903 229.552,-62.6426"/>
</g>
<!-- Node9 -->
<g id="node5" class="node"><title>Node9</title>
<g id="a_node5"><a xlink:href="_nt_time_derivative_8_c.html" target="_top" xlink:title="src/kernels/NtTimeDerivative.C">
<polygon fill="white" stroke="black" points="193,-0.5 193,-19.5 348,-19.5 348,-0.5 193,-0.5"/>
<text text-anchor="middle" x="270.5" y="-7.5" font-family="Helvetica,sans-Serif" font-size="10.00">src/kernels/NtTimeDerivative.C</text>
</a>
</g>
</g>
<!-- Node8&#45;&gt;Node9 -->
<g id="edge5" class="edge"><title>Node8&#45;&gt;Node9</title>
<path fill="none" stroke="midnightblue" d="M270.5,-51.8165C270.5,-40.9962 270.5,-27.898 270.5,-19.5091"/>
<polygon fill="midnightblue" stroke="midnightblue" points="267,-51.9751 270.5,-61.9751 274,-51.9751 267,-51.9751"/>
</g>
</g>
</svg>
