<?xml version="1.0" encoding="UTF-8" standalone="no"?>
<!DOCTYPE svg PUBLIC "-//W3C//DTD SVG 1.1//EN"
 "http://www.w3.org/Graphics/SVG/1.1/DTD/svg11.dtd">
<!-- Generated by graphviz version 2.38.0 (20140413.2041)
 -->
<!-- Title: src/base/ScalarTransportBase.C Pages: 1 -->
<svg width="236pt" height="151pt"
 viewBox="0.00 0.00 235.50 151.00" xmlns="http://www.w3.org/2000/svg" xmlns:xlink="http://www.w3.org/1999/xlink">
<g id="graph0" class="graph" transform="scale(1 1) rotate(0) translate(4 147)">
<title>src/base/ScalarTransportBase.C</title>
<polygon fill="white" stroke="none" points="-4,4 -4,-147 231.5,-147 231.5,4 -4,4"/>
<!-- Node0 -->
<g id="node1" class="node"><title>Node0</title>
<polygon fill="#bfbfbf" stroke="black" points="46.5,-112.5 46.5,-142.5 172.5,-142.5 172.5,-112.5 46.5,-112.5"/>
<text text-anchor="start" x="54.5" y="-130.5" font-family="Helvetica,sans-Serif" font-size="10.00">src/base/ScalarTransport</text>
<text text-anchor="middle" x="109.5" y="-119.5" font-family="Helvetica,sans-Serif" font-size="10.00">Base.C</text>
</g>
<!-- Node1 -->
<g id="node2" class="node"><title>Node1</title>
<g id="a_node2"><a xlink:href="_scalar_transport_base_8h.html" target="_top" xlink:title="ScalarTransportBase.h">
<polygon fill="white" stroke="black" points="51.5,-56.5 51.5,-75.5 167.5,-75.5 167.5,-56.5 51.5,-56.5"/>
<text text-anchor="middle" x="109.5" y="-63.5" font-family="Helvetica,sans-Serif" font-size="10.00">ScalarTransportBase.h</text>
</a>
</g>
</g>
<!-- Node0&#45;&gt;Node1 -->
<g id="edge1" class="edge"><title>Node0&#45;&gt;Node1</title>
<path fill="none" stroke="midnightblue" d="M109.5,-112.399C109.5,-104.466 109.5,-94.458 109.5,-85.8583"/>
<polygon fill="midnightblue" stroke="midnightblue" points="113,-85.6577 109.5,-75.6578 106,-85.6578 113,-85.6577"/>
</g>
<!-- Node2 -->
<g id="node3" class="node"><title>Node2</title>
<polygon fill="white" stroke="#bfbfbf" points="0,-0.5 0,-19.5 97,-19.5 97,-0.5 0,-0.5"/>
<text text-anchor="middle" x="48.5" y="-7.5" font-family="Helvetica,sans-Serif" font-size="10.00">InputParameters.h</text>
</g>
<!-- Node1&#45;&gt;Node2 -->
<g id="edge2" class="edge"><title>Node1&#45;&gt;Node2</title>
<path fill="none" stroke="midnightblue" d="M99.6993,-56.324C90.6819,-48.3414 77.094,-36.3128 66.182,-26.6529"/>
<polygon fill="midnightblue" stroke="midnightblue" points="68.2866,-23.8416 58.479,-19.8339 63.6467,-29.083 68.2866,-23.8416"/>
</g>
<!-- Node3 -->
<g id="node4" class="node"><title>Node3</title>
<polygon fill="white" stroke="#bfbfbf" points="115.5,-0.5 115.5,-19.5 227.5,-19.5 227.5,-0.5 115.5,-0.5"/>
<text text-anchor="middle" x="171.5" y="-7.5" font-family="Helvetica,sans-Serif" font-size="10.00">MooseVariableBase.h</text>
</g>
<!-- Node1&#45;&gt;Node3 -->
<g id="edge3" class="edge"><title>Node1&#45;&gt;Node3</title>
<path fill="none" stroke="midnightblue" d="M119.461,-56.324C128.627,-48.3414 142.437,-36.3128 153.528,-26.6529"/>
<polygon fill="midnightblue" stroke="midnightblue" points="156.115,-29.041 161.357,-19.8339 151.518,-23.7624 156.115,-29.041"/>
</g>
</g>
</svg>
