<?xml version="1.0" encoding="UTF-8" standalone="no"?>
<!DOCTYPE svg PUBLIC "-//W3C//DTD SVG 1.1//EN"
 "http://www.w3.org/Graphics/SVG/1.1/DTD/svg11.dtd">
<!-- Generated by graphviz version 2.43.0 (0)
 -->
<!-- Title: src/bcs/ScalarAdvectionArtDiffNoBCBC.C Pages: 1 -->
<svg width="284pt" height="218pt"
 viewBox="0.00 0.00 284.00 218.00" xmlns="http://www.w3.org/2000/svg" xmlns:xlink="http://www.w3.org/1999/xlink">
<g id="graph0" class="graph" transform="scale(1 1) rotate(0) translate(4 214)">
<title>src/bcs/ScalarAdvectionArtDiffNoBCBC.C</title>
<polygon fill="white" stroke="transparent" points="-4,4 -4,-214 280,-214 280,4 -4,4"/>
<!-- Node1 -->
<g id="node1" class="node">
<title>Node1</title>
<g id="a_node1"><a xlink:title=" ">
<polygon fill="#bfbfbf" stroke="black" points="32.5,-179.5 32.5,-209.5 168.5,-209.5 168.5,-179.5 32.5,-179.5"/>
<text text-anchor="start" x="40.5" y="-197.5" font-family="Helvetica,sans-Serif" font-size="10.00">src/bcs/ScalarAdvectionArt</text>
<text text-anchor="middle" x="100.5" y="-186.5" font-family="Helvetica,sans-Serif" font-size="10.00">DiffNoBCBC.C</text>
</a>
</g>
</g>
<!-- Node2 -->
<g id="node2" class="node">
<title>Node2</title>
<g id="a_node2"><a xlink:href="_scalar_advection_art_diff_no_b_c_b_c_8h.html" target="_top" xlink:title=" ">
<polygon fill="white" stroke="black" points="36,-112.5 36,-142.5 165,-142.5 165,-112.5 36,-112.5"/>
<text text-anchor="start" x="44" y="-130.5" font-family="Helvetica,sans-Serif" font-size="10.00">ScalarAdvectionArtDiffNo</text>
<text text-anchor="middle" x="100.5" y="-119.5" font-family="Helvetica,sans-Serif" font-size="10.00">BCBC.h</text>
</a>
</g>
</g>
<!-- Node1&#45;&gt;Node2 -->
<g id="edge1" class="edge">
<title>Node1&#45;&gt;Node2</title>
<path fill="none" stroke="midnightblue" d="M100.5,-179.4C100.5,-171.64 100.5,-161.81 100.5,-152.86"/>
<polygon fill="midnightblue" stroke="midnightblue" points="104,-152.58 100.5,-142.58 97,-152.58 104,-152.58"/>
</g>
<!-- Node3 -->
<g id="node3" class="node">
<title>Node3</title>
<g id="a_node3"><a xlink:title=" ">
<polygon fill="white" stroke="#bfbfbf" points="0,-56.5 0,-75.5 83,-75.5 83,-56.5 0,-56.5"/>
<text text-anchor="middle" x="41.5" y="-63.5" font-family="Helvetica,sans-Serif" font-size="10.00">IntegratedBC.h</text>
</a>
</g>
</g>
<!-- Node2&#45;&gt;Node3 -->
<g id="edge2" class="edge">
<title>Node2&#45;&gt;Node3</title>
<path fill="none" stroke="midnightblue" d="M86.52,-112.4C77.77,-103.58 66.47,-92.18 57.38,-83.02"/>
<polygon fill="midnightblue" stroke="midnightblue" points="59.61,-80.29 50.09,-75.66 54.64,-85.22 59.61,-80.29"/>
</g>
<!-- Node4 -->
<g id="node4" class="node">
<title>Node4</title>
<g id="a_node4"><a xlink:href="_scalar_transport_base_8h.html" target="_top" xlink:title=" ">
<polygon fill="white" stroke="black" points="101.5,-56.5 101.5,-75.5 217.5,-75.5 217.5,-56.5 101.5,-56.5"/>
<text text-anchor="middle" x="159.5" y="-63.5" font-family="Helvetica,sans-Serif" font-size="10.00">ScalarTransportBase.h</text>
</a>
</g>
</g>
<!-- Node2&#45;&gt;Node4 -->
<g id="edge3" class="edge">
<title>Node2&#45;&gt;Node4</title>
<path fill="none" stroke="midnightblue" d="M114.48,-112.4C123.23,-103.58 134.53,-92.18 143.62,-83.02"/>
<polygon fill="midnightblue" stroke="midnightblue" points="146.36,-85.22 150.91,-75.66 141.39,-80.29 146.36,-85.22"/>
</g>
<!-- Node5 -->
<g id="node5" class="node">
<title>Node5</title>
<g id="a_node5"><a xlink:title=" ">
<polygon fill="white" stroke="#bfbfbf" points="50,-0.5 50,-19.5 147,-19.5 147,-0.5 50,-0.5"/>
<text text-anchor="middle" x="98.5" y="-7.5" font-family="Helvetica,sans-Serif" font-size="10.00">InputParameters.h</text>
</a>
</g>
</g>
<!-- Node4&#45;&gt;Node5 -->
<g id="edge4" class="edge">
<title>Node4&#45;&gt;Node5</title>
<path fill="none" stroke="midnightblue" d="M149.7,-56.32C140.68,-48.34 127.09,-36.31 116.18,-26.65"/>
<polygon fill="midnightblue" stroke="midnightblue" points="118.29,-23.84 108.48,-19.83 113.65,-29.08 118.29,-23.84"/>
</g>
<!-- Node6 -->
<g id="node6" class="node">
<title>Node6</title>
<g id="a_node6"><a xlink:title=" ">
<polygon fill="white" stroke="#bfbfbf" points="165,-0.5 165,-19.5 276,-19.5 276,-0.5 165,-0.5"/>
<text text-anchor="middle" x="220.5" y="-7.5" font-family="Helvetica,sans-Serif" font-size="10.00">MooseVariableBase.h</text>
</a>
</g>
</g>
<!-- Node4&#45;&gt;Node6 -->
<g id="edge5" class="edge">
<title>Node4&#45;&gt;Node6</title>
<path fill="none" stroke="midnightblue" d="M169.3,-56.32C178.32,-48.34 191.91,-36.31 202.82,-26.65"/>
<polygon fill="midnightblue" stroke="midnightblue" points="205.35,-29.08 210.52,-19.83 200.71,-23.84 205.35,-29.08"/>
</g>
</g>
</svg>
