<?xml version="1.0" encoding="UTF-8" standalone="no"?>
<!DOCTYPE svg PUBLIC "-//W3C//DTD SVG 1.1//EN"
 "http://www.w3.org/Graphics/SVG/1.1/DTD/svg11.dtd">
<!-- Generated by graphviz version 2.43.0 (0)
 -->
<!-- Title: src/base/ScalarTransportBase.C Pages: 1 -->
<svg width="311pt" height="151pt"
 viewBox="0.00 0.00 311.00 151.00" xmlns="http://www.w3.org/2000/svg" xmlns:xlink="http://www.w3.org/1999/xlink">
<g id="graph0" class="graph" transform="scale(1 1) rotate(0) translate(4 147)">
<title>src/base/ScalarTransportBase.C</title>
<polygon fill="white" stroke="transparent" points="-4,4 -4,-147 307,-147 307,4 -4,4"/>
<!-- Node1 -->
<g id="node1" class="node">
<title>Node1</title>
<g id="a_node1"><a xlink:title=" ">
<polygon fill="#bfbfbf" stroke="black" points="113.5,-112.5 113.5,-142.5 239.5,-142.5 239.5,-112.5 113.5,-112.5"/>
<text text-anchor="start" x="121.5" y="-130.5" font-family="Helvetica,sans-Serif" font-size="10.00">src/base/ScalarTransport</text>
<text text-anchor="middle" x="176.5" y="-119.5" font-family="Helvetica,sans-Serif" font-size="10.00">Base.C</text>
</a>
</g>
</g>
<!-- Node2 -->
<g id="node2" class="node">
<title>Node2</title>
<g id="a_node2"><a xlink:href="_scalar_transport_base_8h.html" target="_top" xlink:title=" ">
<polygon fill="white" stroke="black" points="51.5,-56.5 51.5,-75.5 167.5,-75.5 167.5,-56.5 51.5,-56.5"/>
<text text-anchor="middle" x="109.5" y="-63.5" font-family="Helvetica,sans-Serif" font-size="10.00">ScalarTransportBase.h</text>
</a>
</g>
</g>
<!-- Node1&#45;&gt;Node2 -->
<g id="edge1" class="edge">
<title>Node1&#45;&gt;Node2</title>
<path fill="none" stroke="midnightblue" d="M160.62,-112.4C150.48,-103.4 137.34,-91.72 126.91,-82.47"/>
<polygon fill="midnightblue" stroke="midnightblue" points="129.05,-79.68 119.25,-75.66 124.4,-84.92 129.05,-79.68"/>
</g>
<!-- Node5 -->
<g id="node5" class="node">
<title>Node5</title>
<g id="a_node5"><a xlink:title=" ">
<polygon fill="white" stroke="#bfbfbf" points="186,-56.5 186,-75.5 303,-75.5 303,-56.5 186,-56.5"/>
<text text-anchor="middle" x="244.5" y="-63.5" font-family="Helvetica,sans-Serif" font-size="10.00">libmesh/vector_value.h</text>
</a>
</g>
</g>
<!-- Node1&#45;&gt;Node5 -->
<g id="edge4" class="edge">
<title>Node1&#45;&gt;Node5</title>
<path fill="none" stroke="midnightblue" d="M192.62,-112.4C202.9,-103.4 216.25,-91.72 226.83,-82.47"/>
<polygon fill="midnightblue" stroke="midnightblue" points="229.38,-84.88 234.61,-75.66 224.77,-79.61 229.38,-84.88"/>
</g>
<!-- Node3 -->
<g id="node3" class="node">
<title>Node3</title>
<g id="a_node3"><a xlink:title=" ">
<polygon fill="white" stroke="#bfbfbf" points="0,-0.5 0,-19.5 97,-19.5 97,-0.5 0,-0.5"/>
<text text-anchor="middle" x="48.5" y="-7.5" font-family="Helvetica,sans-Serif" font-size="10.00">InputParameters.h</text>
</a>
</g>
</g>
<!-- Node2&#45;&gt;Node3 -->
<g id="edge2" class="edge">
<title>Node2&#45;&gt;Node3</title>
<path fill="none" stroke="midnightblue" d="M99.7,-56.32C90.68,-48.34 77.09,-36.31 66.18,-26.65"/>
<polygon fill="midnightblue" stroke="midnightblue" points="68.29,-23.84 58.48,-19.83 63.65,-29.08 68.29,-23.84"/>
</g>
<!-- Node4 -->
<g id="node4" class="node">
<title>Node4</title>
<g id="a_node4"><a xlink:title=" ">
<polygon fill="white" stroke="#bfbfbf" points="115,-0.5 115,-19.5 226,-19.5 226,-0.5 115,-0.5"/>
<text text-anchor="middle" x="170.5" y="-7.5" font-family="Helvetica,sans-Serif" font-size="10.00">MooseVariableBase.h</text>
</a>
</g>
</g>
<!-- Node2&#45;&gt;Node4 -->
<g id="edge3" class="edge">
<title>Node2&#45;&gt;Node4</title>
<path fill="none" stroke="midnightblue" d="M119.3,-56.32C128.32,-48.34 141.91,-36.31 152.82,-26.65"/>
<polygon fill="midnightblue" stroke="midnightblue" points="155.35,-29.08 160.52,-19.83 150.71,-23.84 155.35,-29.08"/>
</g>
</g>
</svg>
