<?xml version="1.0" encoding="UTF-8" standalone="no"?>
<!DOCTYPE svg PUBLIC "-//W3C//DTD SVG 1.1//EN"
 "http://www.w3.org/Graphics/SVG/1.1/DTD/svg11.dtd">
<!-- Generated by graphviz version 2.38.0 (20140413.2041)
 -->
<!-- Title: src/bcs/ScalarAdvectionArtDiffNoBCBC.C Pages: 1 -->
<svg width="286pt" height="218pt"
 viewBox="0.00 0.00 285.50 218.00" xmlns="http://www.w3.org/2000/svg" xmlns:xlink="http://www.w3.org/1999/xlink">
<g id="graph0" class="graph" transform="scale(1 1) rotate(0) translate(4 214)">
<title>src/bcs/ScalarAdvectionArtDiffNoBCBC.C</title>
<polygon fill="white" stroke="none" points="-4,4 -4,-214 281.5,-214 281.5,4 -4,4"/>
<!-- Node0 -->
<g id="node1" class="node"><title>Node0</title>
<polygon fill="#bfbfbf" stroke="black" points="32.5,-179.5 32.5,-209.5 168.5,-209.5 168.5,-179.5 32.5,-179.5"/>
<text text-anchor="start" x="40.5" y="-197.5" font-family="Helvetica,sans-Serif" font-size="10.00">src/bcs/ScalarAdvectionArt</text>
<text text-anchor="middle" x="100.5" y="-186.5" font-family="Helvetica,sans-Serif" font-size="10.00">DiffNoBCBC.C</text>
</g>
<!-- Node1 -->
<g id="node2" class="node"><title>Node1</title>
<g id="a_node2"><a xlink:href="_scalar_advection_art_diff_no_b_c_b_c_8h.html" target="_top" xlink:title="ScalarAdvectionArtDiffNo\lBCBC.h">
<polygon fill="white" stroke="black" points="36,-112.5 36,-142.5 165,-142.5 165,-112.5 36,-112.5"/>
<text text-anchor="start" x="44" y="-130.5" font-family="Helvetica,sans-Serif" font-size="10.00">ScalarAdvectionArtDiffNo</text>
<text text-anchor="middle" x="100.5" y="-119.5" font-family="Helvetica,sans-Serif" font-size="10.00">BCBC.h</text>
</a>
</g>
</g>
<!-- Node0&#45;&gt;Node1 -->
<g id="edge1" class="edge"><title>Node0&#45;&gt;Node1</title>
<path fill="none" stroke="midnightblue" d="M100.5,-179.396C100.5,-171.645 100.5,-161.812 100.5,-152.86"/>
<polygon fill="midnightblue" stroke="midnightblue" points="104,-152.576 100.5,-142.577 97.0001,-152.577 104,-152.576"/>
</g>
<!-- Node2 -->
<g id="node3" class="node"><title>Node2</title>
<polygon fill="white" stroke="#bfbfbf" points="0,-56.5 0,-75.5 83,-75.5 83,-56.5 0,-56.5"/>
<text text-anchor="middle" x="41.5" y="-63.5" font-family="Helvetica,sans-Serif" font-size="10.00">IntegratedBC.h</text>
</g>
<!-- Node1&#45;&gt;Node2 -->
<g id="edge2" class="edge"><title>Node1&#45;&gt;Node2</title>
<path fill="none" stroke="midnightblue" d="M86.5178,-112.399C77.7677,-103.575 66.4711,-92.1827 57.3832,-83.0178"/>
<polygon fill="midnightblue" stroke="midnightblue" points="59.6115,-80.2942 50.085,-75.6578 54.6409,-85.2231 59.6115,-80.2942"/>
</g>
<!-- Node3 -->
<g id="node4" class="node"><title>Node3</title>
<g id="a_node4"><a xlink:href="_scalar_transport_base_8h.html" target="_top" xlink:title="ScalarTransportBase.h">
<polygon fill="white" stroke="black" points="101.5,-56.5 101.5,-75.5 217.5,-75.5 217.5,-56.5 101.5,-56.5"/>
<text text-anchor="middle" x="159.5" y="-63.5" font-family="Helvetica,sans-Serif" font-size="10.00">ScalarTransportBase.h</text>
</a>
</g>
</g>
<!-- Node1&#45;&gt;Node3 -->
<g id="edge3" class="edge"><title>Node1&#45;&gt;Node3</title>
<path fill="none" stroke="midnightblue" d="M114.482,-112.399C123.232,-103.575 134.529,-92.1827 143.617,-83.0178"/>
<polygon fill="midnightblue" stroke="midnightblue" points="146.359,-85.2231 150.915,-75.6578 141.388,-80.2942 146.359,-85.2231"/>
</g>
<!-- Node4 -->
<g id="node5" class="node"><title>Node4</title>
<polygon fill="white" stroke="#bfbfbf" points="50,-0.5 50,-19.5 147,-19.5 147,-0.5 50,-0.5"/>
<text text-anchor="middle" x="98.5" y="-7.5" font-family="Helvetica,sans-Serif" font-size="10.00">InputParameters.h</text>
</g>
<!-- Node3&#45;&gt;Node4 -->
<g id="edge4" class="edge"><title>Node3&#45;&gt;Node4</title>
<path fill="none" stroke="midnightblue" d="M149.699,-56.324C140.682,-48.3414 127.094,-36.3128 116.182,-26.6529"/>
<polygon fill="midnightblue" stroke="midnightblue" points="118.287,-23.8416 108.479,-19.8339 113.647,-29.083 118.287,-23.8416"/>
</g>
<!-- Node5 -->
<g id="node6" class="node"><title>Node5</title>
<polygon fill="white" stroke="#bfbfbf" points="165.5,-0.5 165.5,-19.5 277.5,-19.5 277.5,-0.5 165.5,-0.5"/>
<text text-anchor="middle" x="221.5" y="-7.5" font-family="Helvetica,sans-Serif" font-size="10.00">MooseVariableBase.h</text>
</g>
<!-- Node3&#45;&gt;Node5 -->
<g id="edge5" class="edge"><title>Node3&#45;&gt;Node5</title>
<path fill="none" stroke="midnightblue" d="M169.461,-56.324C178.627,-48.3414 192.437,-36.3128 203.528,-26.6529"/>
<polygon fill="midnightblue" stroke="midnightblue" points="206.115,-29.041 211.357,-19.8339 201.518,-23.7624 206.115,-29.041"/>
</g>
</g>
</svg>
