<?xml version="1.0" encoding="UTF-8" standalone="no"?>
<!DOCTYPE svg PUBLIC "-//W3C//DTD SVG 1.1//EN"
 "http://www.w3.org/Graphics/SVG/1.1/DTD/svg11.dtd">
<!-- Generated by graphviz version 2.43.0 (0)
 -->
<!-- Title: include/base/ScalarTransportBase.h Pages: 1 -->
<svg width="234pt" height="95pt"
 viewBox="0.00 0.00 234.00 95.00" xmlns="http://www.w3.org/2000/svg" xmlns:xlink="http://www.w3.org/1999/xlink">
<g id="graph0" class="graph" transform="scale(1 1) rotate(0) translate(4 91)">
<title>include/base/ScalarTransportBase.h</title>
<polygon fill="white" stroke="transparent" points="-4,4 -4,-91 230,-91 230,4 -4,4"/>
<!-- Node1 -->
<g id="node1" class="node">
<title>Node1</title>
<g id="a_node1"><a xlink:title=" ">
<polygon fill="#bfbfbf" stroke="black" points="38,-56.5 38,-86.5 181,-86.5 181,-56.5 38,-56.5"/>
<text text-anchor="start" x="46" y="-74.5" font-family="Helvetica,sans-Serif" font-size="10.00">include/base/ScalarTransport</text>
<text text-anchor="middle" x="109.5" y="-63.5" font-family="Helvetica,sans-Serif" font-size="10.00">Base.h</text>
</a>
</g>
</g>
<!-- Node2 -->
<g id="node2" class="node">
<title>Node2</title>
<g id="a_node2"><a xlink:title=" ">
<polygon fill="white" stroke="#bfbfbf" points="0,-0.5 0,-19.5 97,-19.5 97,-0.5 0,-0.5"/>
<text text-anchor="middle" x="48.5" y="-7.5" font-family="Helvetica,sans-Serif" font-size="10.00">InputParameters.h</text>
</a>
</g>
</g>
<!-- Node1&#45;&gt;Node2 -->
<g id="edge1" class="edge">
<title>Node1&#45;&gt;Node2</title>
<path fill="none" stroke="midnightblue" d="M95.04,-56.4C85.91,-47.49 74.08,-35.95 64.64,-26.74"/>
<polygon fill="midnightblue" stroke="midnightblue" points="66.98,-24.13 57.38,-19.66 62.09,-29.15 66.98,-24.13"/>
</g>
<!-- Node3 -->
<g id="node3" class="node">
<title>Node3</title>
<g id="a_node3"><a xlink:title=" ">
<polygon fill="white" stroke="#bfbfbf" points="115,-0.5 115,-19.5 226,-19.5 226,-0.5 115,-0.5"/>
<text text-anchor="middle" x="170.5" y="-7.5" font-family="Helvetica,sans-Serif" font-size="10.00">MooseVariableBase.h</text>
</a>
</g>
</g>
<!-- Node1&#45;&gt;Node3 -->
<g id="edge2" class="edge">
<title>Node1&#45;&gt;Node3</title>
<path fill="none" stroke="midnightblue" d="M123.96,-56.4C133.09,-47.49 144.92,-35.95 154.36,-26.74"/>
<polygon fill="midnightblue" stroke="midnightblue" points="156.91,-29.15 161.62,-19.66 152.02,-24.13 156.91,-29.15"/>
</g>
</g>
</svg>
