<?xml version="1.0" encoding="UTF-8" standalone="no"?>
<!DOCTYPE svg PUBLIC "-//W3C//DTD SVG 1.1//EN"
 "http://www.w3.org/Graphics/SVG/1.1/DTD/svg11.dtd">
<!-- Generated by graphviz version 2.38.0 (20140413.2041)
 -->
<!-- Title: include/kernels/ScalarTransportTimeDerivative.h Pages: 1 -->
<svg width="276pt" height="151pt"
 viewBox="0.00 0.00 276.00 151.00" xmlns="http://www.w3.org/2000/svg" xmlns:xlink="http://www.w3.org/1999/xlink">
<g id="graph0" class="graph" transform="scale(1 1) rotate(0) translate(4 147)">
<title>include/kernels/ScalarTransportTimeDerivative.h</title>
<polygon fill="white" stroke="none" points="-4,4 -4,-147 272,-147 272,4 -4,4"/>
<!-- Node0 -->
<g id="node1" class="node"><title>Node0</title>
<polygon fill="#bfbfbf" stroke="black" points="16,-112.5 16,-142.5 170,-142.5 170,-112.5 16,-112.5"/>
<text text-anchor="start" x="24" y="-130.5" font-family="Helvetica,sans-Serif" font-size="10.00">include/kernels/ScalarTransport</text>
<text text-anchor="middle" x="93" y="-119.5" font-family="Helvetica,sans-Serif" font-size="10.00">TimeDerivative.h</text>
</g>
<!-- Node1 -->
<g id="node2" class="node"><title>Node1</title>
<polygon fill="white" stroke="#bfbfbf" points="0,-56.5 0,-75.5 74,-75.5 74,-56.5 0,-56.5"/>
<text text-anchor="middle" x="37" y="-63.5" font-family="Helvetica,sans-Serif" font-size="10.00">TimeKernel.h</text>
</g>
<!-- Node0&#45;&gt;Node1 -->
<g id="edge1" class="edge"><title>Node0&#45;&gt;Node1</title>
<path fill="none" stroke="midnightblue" d="M79.7288,-112.399C71.4235,-103.575 60.7014,-92.1827 52.0756,-83.0178"/>
<polygon fill="midnightblue" stroke="midnightblue" points="54.5509,-80.541 45.1485,-75.6578 49.4535,-85.3386 54.5509,-80.541"/>
</g>
<!-- Node2 -->
<g id="node3" class="node"><title>Node2</title>
<g id="a_node3"><a xlink:href="_scalar_transport_base_8h.html" target="_top" xlink:title="ScalarTransportBase.h">
<polygon fill="white" stroke="black" points="92,-56.5 92,-75.5 208,-75.5 208,-56.5 92,-56.5"/>
<text text-anchor="middle" x="150" y="-63.5" font-family="Helvetica,sans-Serif" font-size="10.00">ScalarTransportBase.h</text>
</a>
</g>
</g>
<!-- Node0&#45;&gt;Node2 -->
<g id="edge2" class="edge"><title>Node0&#45;&gt;Node2</title>
<path fill="none" stroke="midnightblue" d="M106.508,-112.399C114.962,-103.575 125.875,-92.1827 134.655,-83.0178"/>
<polygon fill="midnightblue" stroke="midnightblue" points="137.316,-85.3002 141.706,-75.6578 132.261,-80.4577 137.316,-85.3002"/>
</g>
<!-- Node3 -->
<g id="node4" class="node"><title>Node3</title>
<polygon fill="white" stroke="#bfbfbf" points="40.5,-0.5 40.5,-19.5 137.5,-19.5 137.5,-0.5 40.5,-0.5"/>
<text text-anchor="middle" x="89" y="-7.5" font-family="Helvetica,sans-Serif" font-size="10.00">InputParameters.h</text>
</g>
<!-- Node2&#45;&gt;Node3 -->
<g id="edge3" class="edge"><title>Node2&#45;&gt;Node3</title>
<path fill="none" stroke="midnightblue" d="M140.199,-56.324C131.182,-48.3414 117.594,-36.3128 106.682,-26.6529"/>
<polygon fill="midnightblue" stroke="midnightblue" points="108.787,-23.8416 98.979,-19.8339 104.147,-29.083 108.787,-23.8416"/>
</g>
<!-- Node4 -->
<g id="node5" class="node"><title>Node4</title>
<polygon fill="white" stroke="#bfbfbf" points="156,-0.5 156,-19.5 268,-19.5 268,-0.5 156,-0.5"/>
<text text-anchor="middle" x="212" y="-7.5" font-family="Helvetica,sans-Serif" font-size="10.00">MooseVariableBase.h</text>
</g>
<!-- Node2&#45;&gt;Node4 -->
<g id="edge4" class="edge"><title>Node2&#45;&gt;Node4</title>
<path fill="none" stroke="midnightblue" d="M159.961,-56.324C169.127,-48.3414 182.937,-36.3128 194.028,-26.6529"/>
<polygon fill="midnightblue" stroke="midnightblue" points="196.615,-29.041 201.857,-19.8339 192.018,-23.7624 196.615,-29.041"/>
</g>
</g>
</svg>
