<?xml version="1.0" encoding="UTF-8" standalone="no"?>
<!DOCTYPE svg PUBLIC "-//W3C//DTD SVG 1.1//EN"
 "http://www.w3.org/Graphics/SVG/1.1/DTD/svg11.dtd">
<!-- Generated by graphviz version 2.43.0 (0)
 -->
<!-- Title: src/postprocessors/SideWeightedIntegralPostprocessor.C Pages: 1 -->
<svg width="193pt" height="151pt"
 viewBox="0.00 0.00 193.00 151.00" xmlns="http://www.w3.org/2000/svg" xmlns:xlink="http://www.w3.org/1999/xlink">
<g id="graph0" class="graph" transform="scale(1 1) rotate(0) translate(4 147)">
<title>src/postprocessors/SideWeightedIntegralPostprocessor.C</title>
<polygon fill="white" stroke="transparent" points="-4,4 -4,-147 189,-147 189,4 -4,4"/>
<!-- Node1 -->
<g id="node1" class="node">
<title>Node1</title>
<g id="a_node1"><a xlink:title=" ">
<polygon fill="#bfbfbf" stroke="black" points="0,-112.5 0,-142.5 185,-142.5 185,-112.5 0,-112.5"/>
<text text-anchor="start" x="8" y="-130.5" font-family="Helvetica,sans-Serif" font-size="10.00">src/postprocessors</text>
<text text-anchor="middle" x="92.5" y="-119.5" font-family="Helvetica,sans-Serif" font-size="10.00">/SideWeightedIntegralPostprocessor.C</text>
</a>
</g>
</g>
<!-- Node2 -->
<g id="node2" class="node">
<title>Node2</title>
<g id="a_node2"><a xlink:href="_side_weighted_integral_postprocessor_8h.html" target="_top" xlink:title=" ">
<polygon fill="white" stroke="black" points="3,-56.5 3,-75.5 182,-75.5 182,-56.5 3,-56.5"/>
<text text-anchor="middle" x="92.5" y="-63.5" font-family="Helvetica,sans-Serif" font-size="10.00">SideWeightedIntegralPostprocessor.h</text>
</a>
</g>
</g>
<!-- Node1&#45;&gt;Node2 -->
<g id="edge1" class="edge">
<title>Node1&#45;&gt;Node2</title>
<path fill="none" stroke="midnightblue" d="M92.5,-112.4C92.5,-104.47 92.5,-94.46 92.5,-85.86"/>
<polygon fill="midnightblue" stroke="midnightblue" points="96,-85.66 92.5,-75.66 89,-85.66 96,-85.66"/>
</g>
<!-- Node3 -->
<g id="node3" class="node">
<title>Node3</title>
<g id="a_node3"><a xlink:title=" ">
<polygon fill="white" stroke="#bfbfbf" points="6,-0.5 6,-19.5 179,-19.5 179,-0.5 6,-0.5"/>
<text text-anchor="middle" x="92.5" y="-7.5" font-family="Helvetica,sans-Serif" font-size="10.00">SideIntegralVariablePostprocessor.h</text>
</a>
</g>
</g>
<!-- Node2&#45;&gt;Node3 -->
<g id="edge2" class="edge">
<title>Node2&#45;&gt;Node3</title>
<path fill="none" stroke="midnightblue" d="M92.5,-56.08C92.5,-49.01 92.5,-38.86 92.5,-29.99"/>
<polygon fill="midnightblue" stroke="midnightblue" points="96,-29.75 92.5,-19.75 89,-29.75 96,-29.75"/>
</g>
</g>
</svg>
