<?xml version="1.0" encoding="UTF-8" standalone="no"?>
<!DOCTYPE svg PUBLIC "-//W3C//DTD SVG 1.1//EN"
 "http://www.w3.org/Graphics/SVG/1.1/DTD/svg11.dtd">
<!-- Generated by graphviz version 2.43.0 (0)
 -->
<!-- Title: include/kernels/TransientFissionHeatSource.h Pages: 1 -->
<svg width="254pt" height="151pt"
 viewBox="0.00 0.00 254.00 151.00" xmlns="http://www.w3.org/2000/svg" xmlns:xlink="http://www.w3.org/1999/xlink">
<g id="graph0" class="graph" transform="scale(1 1) rotate(0) translate(4 147)">
<title>include/kernels/TransientFissionHeatSource.h</title>
<polygon fill="white" stroke="transparent" points="-4,4 -4,-147 250,-147 250,4 -4,4"/>
<!-- Node1 -->
<g id="node1" class="node">
<title>Node1</title>
<g id="a_node1"><a xlink:title=" ">
<polygon fill="#bfbfbf" stroke="black" points="15,-112.5 15,-142.5 140,-142.5 140,-112.5 15,-112.5"/>
<text text-anchor="start" x="23" y="-130.5" font-family="Helvetica,sans-Serif" font-size="10.00">include/kernels/Transient</text>
<text text-anchor="middle" x="77.5" y="-119.5" font-family="Helvetica,sans-Serif" font-size="10.00">FissionHeatSource.h</text>
</a>
</g>
</g>
<!-- Node2 -->
<g id="node2" class="node">
<title>Node2</title>
<g id="a_node2"><a xlink:title=" ">
<polygon fill="white" stroke="#bfbfbf" points="0,-56.5 0,-75.5 53,-75.5 53,-56.5 0,-56.5"/>
<text text-anchor="middle" x="26.5" y="-63.5" font-family="Helvetica,sans-Serif" font-size="10.00">Kernel.h</text>
</a>
</g>
</g>
<!-- Node1&#45;&gt;Node2 -->
<g id="edge1" class="edge">
<title>Node1&#45;&gt;Node2</title>
<path fill="none" stroke="midnightblue" d="M65.41,-112.4C57.93,-103.66 48.28,-92.41 40.47,-83.3"/>
<polygon fill="midnightblue" stroke="midnightblue" points="43.09,-80.97 33.92,-75.66 37.77,-85.53 43.09,-80.97"/>
</g>
<!-- Node3 -->
<g id="node3" class="node">
<title>Node3</title>
<g id="a_node3"><a xlink:href="_scalar_transport_base_8h.html" target="_top" xlink:title=" ">
<polygon fill="white" stroke="black" points="71.5,-56.5 71.5,-75.5 187.5,-75.5 187.5,-56.5 71.5,-56.5"/>
<text text-anchor="middle" x="129.5" y="-63.5" font-family="Helvetica,sans-Serif" font-size="10.00">ScalarTransportBase.h</text>
</a>
</g>
</g>
<!-- Node1&#45;&gt;Node3 -->
<g id="edge2" class="edge">
<title>Node1&#45;&gt;Node3</title>
<path fill="none" stroke="midnightblue" d="M89.82,-112.4C97.46,-103.66 107.29,-92.41 115.26,-83.3"/>
<polygon fill="midnightblue" stroke="midnightblue" points="117.99,-85.49 121.93,-75.66 112.72,-80.88 117.99,-85.49"/>
</g>
<!-- Node4 -->
<g id="node4" class="node">
<title>Node4</title>
<g id="a_node4"><a xlink:title=" ">
<polygon fill="white" stroke="#bfbfbf" points="20,-0.5 20,-19.5 117,-19.5 117,-0.5 20,-0.5"/>
<text text-anchor="middle" x="68.5" y="-7.5" font-family="Helvetica,sans-Serif" font-size="10.00">InputParameters.h</text>
</a>
</g>
</g>
<!-- Node3&#45;&gt;Node4 -->
<g id="edge3" class="edge">
<title>Node3&#45;&gt;Node4</title>
<path fill="none" stroke="midnightblue" d="M119.7,-56.32C110.68,-48.34 97.09,-36.31 86.18,-26.65"/>
<polygon fill="midnightblue" stroke="midnightblue" points="88.29,-23.84 78.48,-19.83 83.65,-29.08 88.29,-23.84"/>
</g>
<!-- Node5 -->
<g id="node5" class="node">
<title>Node5</title>
<g id="a_node5"><a xlink:title=" ">
<polygon fill="white" stroke="#bfbfbf" points="135,-0.5 135,-19.5 246,-19.5 246,-0.5 135,-0.5"/>
<text text-anchor="middle" x="190.5" y="-7.5" font-family="Helvetica,sans-Serif" font-size="10.00">MooseVariableBase.h</text>
</a>
</g>
</g>
<!-- Node3&#45;&gt;Node5 -->
<g id="edge4" class="edge">
<title>Node3&#45;&gt;Node5</title>
<path fill="none" stroke="midnightblue" d="M139.3,-56.32C148.32,-48.34 161.91,-36.31 172.82,-26.65"/>
<polygon fill="midnightblue" stroke="midnightblue" points="175.35,-29.08 180.52,-19.83 170.71,-23.84 175.35,-29.08"/>
</g>
</g>
</svg>
