<?xml version="1.0" encoding="UTF-8" standalone="no"?>
<!DOCTYPE svg PUBLIC "-//W3C//DTD SVG 1.1//EN"
 "http://www.w3.org/Graphics/SVG/1.1/DTD/svg11.dtd">
<!-- Generated by graphviz version 2.43.0 (0)
 -->
<!-- Title: include/actions/VariableNotAMooseObjectAction.h Pages: 1 -->
<svg width="469pt" height="162pt"
 viewBox="0.00 0.00 469.00 162.00" xmlns="http://www.w3.org/2000/svg" xmlns:xlink="http://www.w3.org/1999/xlink">
<g id="graph0" class="graph" transform="scale(1 1) rotate(0) translate(4 158)">
<title>include/actions/VariableNotAMooseObjectAction.h</title>
<polygon fill="white" stroke="transparent" points="-4,4 -4,-158 465,-158 465,4 -4,4"/>
<!-- Node1 -->
<g id="node1" class="node">
<title>Node1</title>
<g id="a_node1"><a xlink:title=" ">
<polygon fill="#bfbfbf" stroke="black" points="171.5,-123.5 171.5,-153.5 304.5,-153.5 304.5,-123.5 171.5,-123.5"/>
<text text-anchor="start" x="179.5" y="-141.5" font-family="Helvetica,sans-Serif" font-size="10.00">include/actions/Variable</text>
<text text-anchor="middle" x="238" y="-130.5" font-family="Helvetica,sans-Serif" font-size="10.00">NotAMooseObjectAction.h</text>
</a>
</g>
</g>
<!-- Node2 -->
<g id="node2" class="node">
<title>Node2</title>
<g id="a_node2"><a xlink:href="_variable_not_a_moose_object_action_8_c.html" target="_top" xlink:title=" ">
<polygon fill="white" stroke="black" points="0,-56.5 0,-86.5 154,-86.5 154,-56.5 0,-56.5"/>
<text text-anchor="start" x="8" y="-74.5" font-family="Helvetica,sans-Serif" font-size="10.00">src/actions/VariableNotAMoose</text>
<text text-anchor="middle" x="77" y="-63.5" font-family="Helvetica,sans-Serif" font-size="10.00">ObjectAction.C</text>
</a>
</g>
</g>
<!-- Node1&#45;&gt;Node2 -->
<g id="edge1" class="edge">
<title>Node1&#45;&gt;Node2</title>
<path fill="none" stroke="midnightblue" d="M193.52,-119.54C167.76,-109.14 135.8,-96.24 111.87,-86.58"/>
<polygon fill="midnightblue" stroke="midnightblue" points="192.48,-122.9 203.07,-123.4 195.1,-116.41 192.48,-122.9"/>
</g>
<!-- Node3 -->
<g id="node3" class="node">
<title>Node3</title>
<g id="a_node3"><a xlink:href="_nt_action_8h.html" target="_top" xlink:title=" ">
<polygon fill="white" stroke="black" points="172.5,-62 172.5,-81 303.5,-81 303.5,-62 172.5,-62"/>
<text text-anchor="middle" x="238" y="-69" font-family="Helvetica,sans-Serif" font-size="10.00">include/actions/NtAction.h</text>
</a>
</g>
</g>
<!-- Node1&#45;&gt;Node3 -->
<g id="edge2" class="edge">
<title>Node1&#45;&gt;Node3</title>
<path fill="none" stroke="midnightblue" d="M238,-113.25C238,-102.02 238,-89.38 238,-81.19"/>
<polygon fill="midnightblue" stroke="midnightblue" points="234.5,-113.4 238,-123.4 241.5,-113.4 234.5,-113.4"/>
</g>
<!-- Node5 -->
<g id="node5" class="node">
<title>Node5</title>
<g id="a_node5"><a xlink:href="_precursor_action_8h.html" target="_top" xlink:title=" ">
<polygon fill="white" stroke="black" points="322.5,-56.5 322.5,-86.5 449.5,-86.5 449.5,-56.5 322.5,-56.5"/>
<text text-anchor="start" x="330.5" y="-74.5" font-family="Helvetica,sans-Serif" font-size="10.00">include/actions/Precursor</text>
<text text-anchor="middle" x="386" y="-63.5" font-family="Helvetica,sans-Serif" font-size="10.00">Action.h</text>
</a>
</g>
</g>
<!-- Node1&#45;&gt;Node5 -->
<g id="edge4" class="edge">
<title>Node1&#45;&gt;Node5</title>
<path fill="none" stroke="midnightblue" d="M279.51,-119.27C303.08,-108.92 332.14,-96.15 353.95,-86.58"/>
<polygon fill="midnightblue" stroke="midnightblue" points="277.86,-116.17 270.11,-123.4 280.68,-122.58 277.86,-116.17"/>
</g>
<!-- Node4 -->
<g id="node4" class="node">
<title>Node4</title>
<g id="a_node4"><a xlink:href="_nt_action_8_c.html" target="_top" xlink:title=" ">
<polygon fill="white" stroke="black" points="179,-0.5 179,-19.5 295,-19.5 295,-0.5 179,-0.5"/>
<text text-anchor="middle" x="237" y="-7.5" font-family="Helvetica,sans-Serif" font-size="10.00">src/actions/NtAction.C</text>
</a>
</g>
</g>
<!-- Node3&#45;&gt;Node4 -->
<g id="edge3" class="edge">
<title>Node3&#45;&gt;Node4</title>
<path fill="none" stroke="midnightblue" d="M237.69,-51.82C237.5,-41 237.28,-27.9 237.14,-19.51"/>
<polygon fill="midnightblue" stroke="midnightblue" points="234.19,-52.04 237.86,-61.98 241.19,-51.92 234.19,-52.04"/>
</g>
<!-- Node6 -->
<g id="node6" class="node">
<title>Node6</title>
<g id="a_node6"><a xlink:href="_precursor_action_8_c.html" target="_top" xlink:title=" ">
<polygon fill="white" stroke="black" points="313,-0.5 313,-19.5 461,-19.5 461,-0.5 313,-0.5"/>
<text text-anchor="middle" x="387" y="-7.5" font-family="Helvetica,sans-Serif" font-size="10.00">src/actions/PrecursorAction.C</text>
</a>
</g>
</g>
<!-- Node5&#45;&gt;Node6 -->
<g id="edge5" class="edge">
<title>Node5&#45;&gt;Node6</title>
<path fill="none" stroke="midnightblue" d="M386.41,-46.29C386.57,-36.86 386.74,-26.65 386.85,-19.66"/>
<polygon fill="midnightblue" stroke="midnightblue" points="382.91,-46.34 386.24,-56.4 389.9,-46.46 382.91,-46.34"/>
</g>
</g>
</svg>
