<?xml version="1.0" encoding="UTF-8" standalone="no"?>
<!DOCTYPE svg PUBLIC "-//W3C//DTD SVG 1.1//EN"
 "http://www.w3.org/Graphics/SVG/1.1/DTD/svg11.dtd">
<!-- Generated by graphviz version 2.43.0 (0)
 -->
<!-- Title: IntegralNewVariablePostprocessor Pages: 1 -->
<svg width="420pt" height="95pt"
 viewBox="0.00 0.00 419.50 95.00" xmlns="http://www.w3.org/2000/svg" xmlns:xlink="http://www.w3.org/1999/xlink">
<g id="graph0" class="graph" transform="scale(1 1) rotate(0) translate(4 91)">
<title>IntegralNewVariablePostprocessor</title>
<polygon fill="white" stroke="transparent" points="-4,4 -4,-91 415.5,-91 415.5,4 -4,4"/>
<!-- Node1 -->
<g id="node1" class="node">
<title>Node1</title>
<g id="a_node1"><a xlink:title=" ">
<polygon fill="#bfbfbf" stroke="black" points="136.5,-0.5 136.5,-19.5 303.5,-19.5 303.5,-0.5 136.5,-0.5"/>
<text text-anchor="middle" x="220" y="-7.5" font-family="Helvetica,sans-Serif" font-size="10.00">IntegralNewVariablePostprocessor</text>
</a>
</g>
</g>
<!-- Node2 -->
<g id="node2" class="node">
<title>Node2</title>
<g id="a_node2"><a xlink:title=" ">
<polygon fill="white" stroke="#bfbfbf" points="0,-62 0,-81 148,-81 148,-62 0,-62"/>
<text text-anchor="middle" x="74" y="-69" font-family="Helvetica,sans-Serif" font-size="10.00">ElementIntegralPostprocessor</text>
</a>
</g>
</g>
<!-- Node2&#45;&gt;Node1 -->
<g id="edge1" class="edge">
<title>Node2&#45;&gt;Node1</title>
<path fill="none" stroke="midnightblue" d="M104.35,-58.13C132.71,-46.57 174.31,-29.62 199.12,-19.51"/>
<polygon fill="midnightblue" stroke="midnightblue" points="102.86,-54.96 94.92,-61.98 105.5,-61.44 102.86,-54.96"/>
</g>
<!-- Node3 -->
<g id="node3" class="node">
<title>Node3</title>
<g id="a_node3"><a xlink:href="class_scalar_transport_base.html" target="_top" xlink:title=" ">
<polygon fill="white" stroke="black" points="166,-62 166,-81 274,-81 274,-62 166,-62"/>
<text text-anchor="middle" x="220" y="-69" font-family="Helvetica,sans-Serif" font-size="10.00">ScalarTransportBase</text>
</a>
</g>
</g>
<!-- Node3&#45;&gt;Node1 -->
<g id="edge2" class="edge">
<title>Node3&#45;&gt;Node1</title>
<path fill="none" stroke="midnightblue" d="M220,-51.82C220,-41 220,-27.9 220,-19.51"/>
<polygon fill="midnightblue" stroke="midnightblue" points="216.5,-51.98 220,-61.98 223.5,-51.98 216.5,-51.98"/>
</g>
<!-- Node4 -->
<g id="node4" class="node">
<title>Node4</title>
<g id="a_node4"><a xlink:title=" ">
<polygon fill="white" stroke="#bfbfbf" points="292.5,-56.5 292.5,-86.5 411.5,-86.5 411.5,-56.5 292.5,-56.5"/>
<text text-anchor="start" x="300.5" y="-74.5" font-family="Helvetica,sans-Serif" font-size="10.00">MooseVariableInterface</text>
<text text-anchor="middle" x="352" y="-63.5" font-family="Helvetica,sans-Serif" font-size="10.00">&lt; Real &gt;</text>
</a>
</g>
</g>
<!-- Node4&#45;&gt;Node1 -->
<g id="edge3" class="edge">
<title>Node4&#45;&gt;Node1</title>
<path fill="none" stroke="midnightblue" d="M311.46,-52.23C287.43,-41.39 258.07,-28.16 239.21,-19.66"/>
<polygon fill="midnightblue" stroke="midnightblue" points="310.16,-55.48 320.72,-56.4 313.04,-49.1 310.16,-55.48"/>
</g>
</g>
</svg>
