<?xml version="1.0" encoding="UTF-8" standalone="no"?>
<!DOCTYPE svg PUBLIC "-//W3C//DTD SVG 1.1//EN"
 "http://www.w3.org/Graphics/SVG/1.1/DTD/svg11.dtd">
<!-- Generated by graphviz version 2.43.0 (0)
 -->
<!-- Title: NuclearMaterial Pages: 1 -->
<svg width="321pt" height="196pt"
 viewBox="0.00 0.00 320.50 196.00" xmlns="http://www.w3.org/2000/svg" xmlns:xlink="http://www.w3.org/1999/xlink">
<g id="graph0" class="graph" transform="scale(1 1) rotate(0) translate(4 192)">
<title>NuclearMaterial</title>
<polygon fill="white" stroke="transparent" points="-4,4 -4,-192 316.5,-192 316.5,4 -4,4"/>
<!-- Node1 -->
<g id="node1" class="node">
<title>Node1</title>
<g id="a_node1"><a xlink:title=" ">
<polygon fill="#bfbfbf" stroke="black" points="153,-112.5 153,-131.5 238,-131.5 238,-112.5 153,-112.5"/>
<text text-anchor="middle" x="195.5" y="-119.5" font-family="Helvetica,sans-Serif" font-size="10.00">NuclearMaterial</text>
</a>
</g>
</g>
<!-- Node3 -->
<g id="node3" class="node">
<title>Node3</title>
<g id="a_node3"><a xlink:href="class_generic_moltres_material.html" target="_top" xlink:title=" ">
<polygon fill="white" stroke="black" points="73,-56.5 73,-75.5 190,-75.5 190,-56.5 73,-56.5"/>
<text text-anchor="middle" x="131.5" y="-63.5" font-family="Helvetica,sans-Serif" font-size="10.00">GenericMoltresMaterial</text>
</a>
</g>
</g>
<!-- Node1&#45;&gt;Node3 -->
<g id="edge2" class="edge">
<title>Node1&#45;&gt;Node3</title>
<path fill="none" stroke="midnightblue" d="M177.51,-105.82C166.04,-96.15 151.59,-83.95 141.97,-75.83"/>
<polygon fill="midnightblue" stroke="midnightblue" points="175.32,-108.55 185.22,-112.32 179.83,-103.2 175.32,-108.55"/>
</g>
<!-- Node7 -->
<g id="node7" class="node">
<title>Node7</title>
<g id="a_node7"><a xlink:href="class_moltres_json_material.html" target="_top" xlink:title=" ">
<polygon fill="white" stroke="black" points="208.5,-56.5 208.5,-75.5 312.5,-75.5 312.5,-56.5 208.5,-56.5"/>
<text text-anchor="middle" x="260.5" y="-63.5" font-family="Helvetica,sans-Serif" font-size="10.00">MoltresJsonMaterial</text>
</a>
</g>
</g>
<!-- Node1&#45;&gt;Node7 -->
<g id="edge6" class="edge">
<title>Node1&#45;&gt;Node7</title>
<path fill="none" stroke="midnightblue" d="M213.77,-105.82C225.42,-96.15 240.1,-83.95 249.87,-75.83"/>
<polygon fill="midnightblue" stroke="midnightblue" points="211.4,-103.24 205.94,-112.32 215.87,-108.63 211.4,-103.24"/>
</g>
<!-- Node2 -->
<g id="node2" class="node">
<title>Node2</title>
<g id="a_node2"><a xlink:title=" ">
<polygon fill="white" stroke="#bfbfbf" points="133,-168.5 133,-187.5 258,-187.5 258,-168.5 133,-168.5"/>
<text text-anchor="middle" x="195.5" y="-175.5" font-family="Helvetica,sans-Serif" font-size="10.00">GenericConstantMaterial</text>
</a>
</g>
</g>
<!-- Node2&#45;&gt;Node1 -->
<g id="edge1" class="edge">
<title>Node2&#45;&gt;Node1</title>
<path fill="none" stroke="midnightblue" d="M195.5,-157.8C195.5,-148.91 195.5,-138.78 195.5,-131.75"/>
<polygon fill="midnightblue" stroke="midnightblue" points="192,-158.08 195.5,-168.08 199,-158.08 192,-158.08"/>
</g>
<!-- Node4 -->
<g id="node4" class="node">
<title>Node4</title>
<g id="a_node4"><a xlink:href="class_cammi_fuel.html" target="_top" xlink:title=" ">
<polygon fill="white" stroke="black" points="0,-0.5 0,-19.5 67,-19.5 67,-0.5 0,-0.5"/>
<text text-anchor="middle" x="33.5" y="-7.5" font-family="Helvetica,sans-Serif" font-size="10.00">CammiFuel</text>
</a>
</g>
</g>
<!-- Node3&#45;&gt;Node4 -->
<g id="edge3" class="edge">
<title>Node3&#45;&gt;Node4</title>
<path fill="none" stroke="midnightblue" d="M106.91,-51.45C88.82,-41.48 64.77,-28.23 49.21,-19.65"/>
<polygon fill="midnightblue" stroke="midnightblue" points="105.31,-54.56 115.75,-56.32 108.69,-48.43 105.31,-54.56"/>
</g>
<!-- Node5 -->
<g id="node5" class="node">
<title>Node5</title>
<g id="a_node5"><a xlink:href="class_cammi_moderator.html" target="_top" xlink:title=" ">
<polygon fill="white" stroke="black" points="85.5,-0.5 85.5,-19.5 177.5,-19.5 177.5,-0.5 85.5,-0.5"/>
<text text-anchor="middle" x="131.5" y="-7.5" font-family="Helvetica,sans-Serif" font-size="10.00">CammiModerator</text>
</a>
</g>
</g>
<!-- Node3&#45;&gt;Node5 -->
<g id="edge4" class="edge">
<title>Node3&#45;&gt;Node5</title>
<path fill="none" stroke="midnightblue" d="M131.5,-45.8C131.5,-36.91 131.5,-26.78 131.5,-19.75"/>
<polygon fill="midnightblue" stroke="midnightblue" points="128,-46.08 131.5,-56.08 135,-46.08 128,-46.08"/>
</g>
<!-- Node6 -->
<g id="node6" class="node">
<title>Node6</title>
<g id="a_node6"><a xlink:href="class_rodded_material.html" target="_top" xlink:title=" ">
<polygon fill="white" stroke="black" points="196,-0.5 196,-19.5 281,-19.5 281,-0.5 196,-0.5"/>
<text text-anchor="middle" x="238.5" y="-7.5" font-family="Helvetica,sans-Serif" font-size="10.00">RoddedMaterial</text>
</a>
</g>
</g>
<!-- Node3&#45;&gt;Node6 -->
<g id="edge5" class="edge">
<title>Node3&#45;&gt;Node6</title>
<path fill="none" stroke="midnightblue" d="M157.8,-51.73C177.61,-41.73 204.21,-28.31 221.35,-19.65"/>
<polygon fill="midnightblue" stroke="midnightblue" points="156.04,-48.69 148.69,-56.32 159.2,-54.94 156.04,-48.69"/>
</g>
</g>
</svg>
