<?xml version="1.0" encoding="UTF-8" standalone="no"?>
<!DOCTYPE svg PUBLIC "-//W3C//DTD SVG 1.1//EN"
 "http://www.w3.org/Graphics/SVG/1.1/DTD/svg11.dtd">
<!-- Generated by graphviz version 2.38.0 (20140413.2041)
 -->
<!-- Title: DivFreeCoupledScalarAdvection Pages: 1 -->
<svg width="188pt" height="84pt"
 viewBox="0.00 0.00 188.00 84.00" xmlns="http://www.w3.org/2000/svg" xmlns:xlink="http://www.w3.org/1999/xlink">
<g id="graph0" class="graph" transform="scale(1 1) rotate(0) translate(4 80)">
<title>DivFreeCoupledScalarAdvection</title>
<polygon fill="white" stroke="none" points="-4,4 -4,-80 184,-80 184,4 -4,4"/>
<!-- Node0 -->
<g id="node1" class="node"><title>Node0</title>
<polygon fill="#bfbfbf" stroke="black" points="-1.42109e-14,-0.5 -1.42109e-14,-19.5 158,-19.5 158,-0.5 -1.42109e-14,-0.5"/>
<text text-anchor="middle" x="79" y="-7.5" font-family="Helvetica,sans-Serif" font-size="10.00">DivFreeCoupledScalarAdvection</text>
</g>
<!-- Node1 -->
<g id="node2" class="node"><title>Node1</title>
<polygon fill="white" stroke="#bfbfbf" points="10,-56.5 10,-75.5 54,-75.5 54,-56.5 10,-56.5"/>
<text text-anchor="middle" x="32" y="-63.5" font-family="Helvetica,sans-Serif" font-size="10.00">Kernel</text>
</g>
<!-- Node1&#45;&gt;Node0 -->
<g id="edge1" class="edge"><title>Node1&#45;&gt;Node0</title>
<path fill="none" stroke="midnightblue" d="M46.4208,-48.4314C54.6581,-38.9673 64.6539,-27.4827 71.3833,-19.7511"/>
<polygon fill="midnightblue" stroke="midnightblue" points="43.6863,-46.2421 39.7611,-56.083 48.9664,-50.8378 43.6863,-46.2421"/>
</g>
<!-- Node2 -->
<g id="node3" class="node"><title>Node2</title>
<g id="a_node3"><a xlink:href="class_scalar_transport_base.html" target="_top" xlink:title="ScalarTransportBase">
<polygon fill="white" stroke="black" points="72,-56.5 72,-75.5 180,-75.5 180,-56.5 72,-56.5"/>
<text text-anchor="middle" x="126" y="-63.5" font-family="Helvetica,sans-Serif" font-size="10.00">ScalarTransportBase</text>
</a>
</g>
</g>
<!-- Node2&#45;&gt;Node0 -->
<g id="edge2" class="edge"><title>Node2&#45;&gt;Node0</title>
<path fill="none" stroke="midnightblue" d="M111.579,-48.4314C103.342,-38.9673 93.3461,-27.4827 86.6167,-19.7511"/>
<polygon fill="midnightblue" stroke="midnightblue" points="109.034,-50.8378 118.239,-56.083 114.314,-46.2421 109.034,-50.8378"/>
</g>
</g>
</svg>
