<?xml version="1.0" encoding="UTF-8" standalone="no"?>
<!DOCTYPE svg PUBLIC "-//W3C//DTD SVG 1.1//EN"
 "http://www.w3.org/Graphics/SVG/1.1/DTD/svg11.dtd">
<!-- Generated by graphviz version 2.43.0 (0)
 -->
<!-- Title: DelayedNeutronEigenSource Pages: 1 -->
<svg width="204pt" height="84pt"
 viewBox="0.00 0.00 203.50 84.00" xmlns="http://www.w3.org/2000/svg" xmlns:xlink="http://www.w3.org/1999/xlink">
<g id="graph0" class="graph" transform="scale(1 1) rotate(0) translate(4 80)">
<title>DelayedNeutronEigenSource</title>
<polygon fill="white" stroke="transparent" points="-4,4 -4,-80 199.5,-80 199.5,4 -4,4"/>
<!-- Node1 -->
<g id="node1" class="node">
<title>Node1</title>
<g id="a_node1"><a xlink:title=" ">
<polygon fill="#bfbfbf" stroke="black" points="16,-0.5 16,-19.5 159,-19.5 159,-0.5 16,-0.5"/>
<text text-anchor="middle" x="87.5" y="-7.5" font-family="Helvetica,sans-Serif" font-size="10.00">DelayedNeutronEigenSource</text>
</a>
</g>
</g>
<!-- Node2 -->
<g id="node2" class="node">
<title>Node2</title>
<g id="a_node2"><a xlink:title=" ">
<polygon fill="white" stroke="#bfbfbf" points="0,-56.5 0,-75.5 69,-75.5 69,-56.5 0,-56.5"/>
<text text-anchor="middle" x="34.5" y="-63.5" font-family="Helvetica,sans-Serif" font-size="10.00">EigenKernel</text>
</a>
</g>
</g>
<!-- Node2&#45;&gt;Node1 -->
<g id="edge1" class="edge">
<title>Node2&#45;&gt;Node1</title>
<path fill="none" stroke="midnightblue" d="M50.48,-48.72C59.82,-39.2 71.25,-27.56 78.91,-19.75"/>
<polygon fill="midnightblue" stroke="midnightblue" points="47.76,-46.49 43.25,-56.08 52.75,-51.4 47.76,-46.49"/>
</g>
<!-- Node3 -->
<g id="node3" class="node">
<title>Node3</title>
<g id="a_node3"><a xlink:href="class_scalar_transport_base.html" target="_top" xlink:title=" ">
<polygon fill="white" stroke="black" points="87.5,-56.5 87.5,-75.5 195.5,-75.5 195.5,-56.5 87.5,-56.5"/>
<text text-anchor="middle" x="141.5" y="-63.5" font-family="Helvetica,sans-Serif" font-size="10.00">ScalarTransportBase</text>
</a>
</g>
</g>
<!-- Node3&#45;&gt;Node1 -->
<g id="edge2" class="edge">
<title>Node3&#45;&gt;Node1</title>
<path fill="none" stroke="midnightblue" d="M125.5,-49C115.93,-39.43 104.14,-27.64 96.25,-19.75"/>
<polygon fill="midnightblue" stroke="midnightblue" points="123.04,-51.49 132.58,-56.08 127.99,-46.54 123.04,-51.49"/>
</g>
</g>
</svg>
