<?xml version="1.0" encoding="UTF-8" standalone="no"?>
<!DOCTYPE svg PUBLIC "-//W3C//DTD SVG 1.1//EN"
 "http://www.w3.org/Graphics/SVG/1.1/DTD/svg11.dtd">
<!-- Generated by graphviz version 2.43.0 (0)
 -->
<!-- Title: VariableNotAMooseObjectAction Pages: 1 -->
<svg width="176pt" height="140pt"
 viewBox="0.00 0.00 175.50 140.00" xmlns="http://www.w3.org/2000/svg" xmlns:xlink="http://www.w3.org/1999/xlink">
<g id="graph0" class="graph" transform="scale(1 1) rotate(0) translate(4 136)">
<title>VariableNotAMooseObjectAction</title>
<polygon fill="white" stroke="transparent" points="-4,4 -4,-136 171.5,-136 171.5,4 -4,4"/>
<!-- Node1 -->
<g id="node1" class="node">
<title>Node1</title>
<g id="a_node1"><a xlink:title=" ">
<polygon fill="#bfbfbf" stroke="black" points="0,-56.5 0,-75.5 159,-75.5 159,-56.5 0,-56.5"/>
<text text-anchor="middle" x="79.5" y="-63.5" font-family="Helvetica,sans-Serif" font-size="10.00">VariableNotAMooseObjectAction</text>
</a>
</g>
</g>
<!-- Node3 -->
<g id="node3" class="node">
<title>Node3</title>
<g id="a_node3"><a xlink:href="class_nt_action.html" target="_top" xlink:title=" ">
<polygon fill="white" stroke="black" points="8,-0.5 8,-19.5 63,-19.5 63,-0.5 8,-0.5"/>
<text text-anchor="middle" x="35.5" y="-7.5" font-family="Helvetica,sans-Serif" font-size="10.00">NtAction</text>
</a>
</g>
</g>
<!-- Node1&#45;&gt;Node3 -->
<g id="edge2" class="edge">
<title>Node1&#45;&gt;Node3</title>
<path fill="none" stroke="midnightblue" d="M65.77,-48.14C58.1,-38.74 48.87,-27.4 42.63,-19.75"/>
<polygon fill="midnightblue" stroke="midnightblue" points="63.2,-50.54 72.23,-56.08 68.63,-46.12 63.2,-50.54"/>
</g>
<!-- Node4 -->
<g id="node4" class="node">
<title>Node4</title>
<g id="a_node4"><a xlink:href="class_precursor_action.html" target="_top" xlink:title=" ">
<polygon fill="white" stroke="black" points="81.5,-0.5 81.5,-19.5 167.5,-19.5 167.5,-0.5 81.5,-0.5"/>
<text text-anchor="middle" x="124.5" y="-7.5" font-family="Helvetica,sans-Serif" font-size="10.00">PrecursorAction</text>
</a>
</g>
</g>
<!-- Node1&#45;&gt;Node4 -->
<g id="edge3" class="edge">
<title>Node1&#45;&gt;Node4</title>
<path fill="none" stroke="midnightblue" d="M93.55,-48.14C101.39,-38.74 110.83,-27.4 117.21,-19.75"/>
<polygon fill="midnightblue" stroke="midnightblue" points="90.64,-46.16 86.93,-56.08 96.02,-50.64 90.64,-46.16"/>
</g>
<!-- Node2 -->
<g id="node2" class="node">
<title>Node2</title>
<g id="a_node2"><a xlink:title=" ">
<polygon fill="white" stroke="#bfbfbf" points="57.5,-112.5 57.5,-131.5 101.5,-131.5 101.5,-112.5 57.5,-112.5"/>
<text text-anchor="middle" x="79.5" y="-119.5" font-family="Helvetica,sans-Serif" font-size="10.00">Action</text>
</a>
</g>
</g>
<!-- Node2&#45;&gt;Node1 -->
<g id="edge1" class="edge">
<title>Node2&#45;&gt;Node1</title>
<path fill="none" stroke="midnightblue" d="M79.5,-101.8C79.5,-92.91 79.5,-82.78 79.5,-75.75"/>
<polygon fill="midnightblue" stroke="midnightblue" points="76,-102.08 79.5,-112.08 83,-102.08 76,-102.08"/>
</g>
</g>
</svg>
