<?xml version="1.0" encoding="UTF-8" standalone="no"?>
<!DOCTYPE svg PUBLIC "-//W3C//DTD SVG 1.1//EN"
 "http://www.w3.org/Graphics/SVG/1.1/DTD/svg11.dtd">
<!-- Generated by graphviz version 2.43.0 (0)
 -->
<!-- Title: include Pages: 1 -->
<svg width="656pt" height="148pt"
 viewBox="0.00 0.00 656.00 148.00" xmlns="http://www.w3.org/2000/svg" xmlns:xlink="http://www.w3.org/1999/xlink">
<g id="graph0" class="graph" transform="scale(1 1) rotate(0) translate(4 144)">
<title>include</title>
<polygon fill="white" stroke="transparent" points="-4,4 -4,-144 652,-144 652,4 -4,4"/>
<g id="clust1" class="cluster">
<title>clusterdir_d44c64559bbebec7f509842c48db8b23</title>
<g id="a_clust1"><a xlink:href="dir_d44c64559bbebec7f509842c48db8b23.html" target="_top">
<polygon fill="#eeeeff" stroke="black" points="8,-8 8,-132 640,-132 640,-8 8,-8"/>
</a>
</g>
</g>
<!-- dir_d44c64559bbebec7f509842c48db8b23 -->
<g id="node1" class="node">
<title>dir_d44c64559bbebec7f509842c48db8b23</title>
<text text-anchor="middle" x="605" y="-103.5" font-family="Helvetica,sans-Serif" font-size="10.00">include</text>
</g>
<!-- dir_0b9ed7732631b4e65a5030233eb5fc5a -->
<g id="node2" class="node">
<title>dir_0b9ed7732631b4e65a5030233eb5fc5a</title>
<g id="a_node2"><a xlink:href="dir_0b9ed7732631b4e65a5030233eb5fc5a.html" target="_top" xlink:title="actions">
<polygon fill="white" stroke="black" points="560,-124 506,-124 506,-88 560,-88 560,-124"/>
<text text-anchor="middle" x="533" y="-103.5" font-family="Helvetica,sans-Serif" font-size="10.00">actions</text>
</a>
</g>
</g>
<!-- dir_ad471e77ba5a72af0767bcb44d2be997 -->
<g id="node3" class="node">
<title>dir_ad471e77ba5a72af0767bcb44d2be997</title>
<g id="a_node3"><a xlink:href="dir_ad471e77ba5a72af0767bcb44d2be997.html" target="_top" xlink:title="auxkernels">
<polygon fill="white" stroke="black" points="488,-124 424,-124 424,-88 488,-88 488,-124"/>
<text text-anchor="middle" x="456" y="-103.5" font-family="Helvetica,sans-Serif" font-size="10.00">auxkernels</text>
</a>
</g>
</g>
<!-- dir_ab1c81409f0df724f17c9ef30afee877 -->
<g id="node4" class="node">
<title>dir_ab1c81409f0df724f17c9ef30afee877</title>
<g id="a_node4"><a xlink:href="dir_ab1c81409f0df724f17c9ef30afee877.html" target="_top" xlink:title="base">
<polygon fill="white" stroke="black" points="246,-52 192,-52 192,-16 246,-16 246,-52"/>
<text text-anchor="middle" x="219" y="-31.5" font-family="Helvetica,sans-Serif" font-size="10.00">base</text>
</a>
</g>
</g>
<!-- dir_6c5a344b9c03c6428d49f0b38500fe7f -->
<g id="node5" class="node">
<title>dir_6c5a344b9c03c6428d49f0b38500fe7f</title>
<g id="a_node5"><a xlink:href="dir_6c5a344b9c03c6428d49f0b38500fe7f.html" target="_top" xlink:title="bcs">
<polygon fill="white" stroke="black" points="406,-124 352,-124 352,-88 406,-88 406,-124"/>
<text text-anchor="middle" x="379" y="-103.5" font-family="Helvetica,sans-Serif" font-size="10.00">bcs</text>
</a>
</g>
</g>
<!-- dir_6c5a344b9c03c6428d49f0b38500fe7f&#45;&gt;dir_ab1c81409f0df724f17c9ef30afee877 -->
<g id="edge1" class="edge">
<title>dir_6c5a344b9c03c6428d49f0b38500fe7f&#45;&gt;dir_ab1c81409f0df724f17c9ef30afee877</title>
<path fill="none" stroke="black" d="M351.92,-92.08C348.92,-90.69 345.9,-89.3 343,-88 313.78,-74.86 280.37,-60.63 255.6,-50.22"/>
<polygon fill="black" stroke="black" points="256.79,-46.93 246.22,-46.29 254.09,-53.38 256.79,-46.93"/>
<g id="a_edge1&#45;headlabel"><a xlink:href="dir_000004_000003.html" target="_top" xlink:title="4">
<text text-anchor="middle" x="261.21" y="-43.2" font-family="Helvetica,sans-Serif" font-size="10.00">4</text>
</a>
</g>
</g>
<!-- dir_6c6f4828ced252df7a457d18180150c1 -->
<g id="node6" class="node">
<title>dir_6c6f4828ced252df7a457d18180150c1</title>
<g id="a_node6"><a xlink:href="dir_6c6f4828ced252df7a457d18180150c1.html" target="_top" xlink:title="dirackernels">
<polygon fill="white" stroke="black" points="333.5,-124 264.5,-124 264.5,-88 333.5,-88 333.5,-124"/>
<text text-anchor="middle" x="299" y="-103.5" font-family="Helvetica,sans-Serif" font-size="10.00">dirackernels</text>
</a>
</g>
</g>
<!-- dir_f2fd8bd6424c93166d6dd5f2b70706e7 -->
<g id="node7" class="node">
<title>dir_f2fd8bd6424c93166d6dd5f2b70706e7</title>
<g id="a_node7"><a xlink:href="dir_f2fd8bd6424c93166d6dd5f2b70706e7.html" target="_top" xlink:title="kernels">
<polygon fill="white" stroke="black" points="246,-124 192,-124 192,-88 246,-88 246,-124"/>
<text text-anchor="middle" x="219" y="-103.5" font-family="Helvetica,sans-Serif" font-size="10.00">kernels</text>
</a>
</g>
</g>
<!-- dir_f2fd8bd6424c93166d6dd5f2b70706e7&#45;&gt;dir_ab1c81409f0df724f17c9ef30afee877 -->
<g id="edge2" class="edge">
<title>dir_f2fd8bd6424c93166d6dd5f2b70706e7&#45;&gt;dir_ab1c81409f0df724f17c9ef30afee877</title>
<path fill="none" stroke="black" d="M219,-87.7C219,-79.98 219,-70.71 219,-62.11"/>
<polygon fill="black" stroke="black" points="222.5,-62.1 219,-52.1 215.5,-62.1 222.5,-62.1"/>
<g id="a_edge2&#45;headlabel"><a xlink:href="dir_000006_000003.html" target="_top" xlink:title="17">
<text text-anchor="middle" x="225.34" y="-63.2" font-family="Helvetica,sans-Serif" font-size="10.00">17</text>
</a>
</g>
</g>
<!-- dir_e8162cbcd2a0630786d64b00f43c2c71 -->
<g id="node8" class="node">
<title>dir_e8162cbcd2a0630786d64b00f43c2c71</title>
<g id="a_node8"><a xlink:href="dir_e8162cbcd2a0630786d64b00f43c2c71.html" target="_top" xlink:title="materials">
<polygon fill="white" stroke="black" points="174,-124 118,-124 118,-88 174,-88 174,-124"/>
<text text-anchor="middle" x="146" y="-103.5" font-family="Helvetica,sans-Serif" font-size="10.00">materials</text>
</a>
</g>
</g>
<!-- dir_b843596cc84dd0b637fa3210ef36d913 -->
<g id="node9" class="node">
<title>dir_b843596cc84dd0b637fa3210ef36d913</title>
<g id="a_node9"><a xlink:href="dir_b843596cc84dd0b637fa3210ef36d913.html" target="_top" xlink:title="postprocessors">
<polygon fill="white" stroke="black" points="99.5,-124 16.5,-124 16.5,-88 99.5,-88 99.5,-124"/>
<text text-anchor="middle" x="58" y="-103.5" font-family="Helvetica,sans-Serif" font-size="10.00">postprocessors</text>
</a>
</g>
</g>
<!-- dir_b843596cc84dd0b637fa3210ef36d913&#45;&gt;dir_ab1c81409f0df724f17c9ef30afee877 -->
<g id="edge3" class="edge">
<title>dir_b843596cc84dd0b637fa3210ef36d913&#45;&gt;dir_ab1c81409f0df724f17c9ef30afee877</title>
<path fill="none" stroke="black" d="M97.39,-87.88C123.3,-76.61 157,-61.96 182.35,-50.94"/>
<polygon fill="black" stroke="black" points="183.84,-54.1 191.62,-46.9 181.05,-47.68 183.84,-54.1"/>
<g id="a_edge3&#45;headlabel"><a xlink:href="dir_000008_000003.html" target="_top" xlink:title="3">
<text text-anchor="middle" x="181.68" y="-55.64" font-family="Helvetica,sans-Serif" font-size="10.00">3</text>
</a>
</g>
</g>
</g>
</svg>
