<?xml version="1.0" encoding="UTF-8" standalone="no"?>
<!DOCTYPE svg PUBLIC "-//W3C//DTD SVG 1.1//EN"
 "http://www.w3.org/Graphics/SVG/1.1/DTD/svg11.dtd">
<!-- Generated by graphviz version 2.43.0 (0)
 -->
<!-- Title: Graphical Class Hierarchy Pages: 1 -->
<svg width="708pt" height="1434pt"
 viewBox="0.00 0.00 708.00 1434.00" xmlns="http://www.w3.org/2000/svg" xmlns:xlink="http://www.w3.org/1999/xlink">
<g id="graph0" class="graph" transform="scale(1 1) rotate(0) translate(4 1430)">
<title>Graphical Class Hierarchy</title>
<polygon fill="white" stroke="transparent" points="-4,4 -4,-1430 704,-1430 704,4 -4,4"/>
<!-- Node66 -->
<g id="node1" class="node">
<title>Node66</title>
<g id="a_node1"><a xlink:title=" ">
<polygon fill="white" stroke="#bfbfbf" points="39.5,-1216.5 39.5,-1235.5 108.5,-1235.5 108.5,-1216.5 39.5,-1216.5"/>
<text text-anchor="middle" x="74" y="-1223.5" font-family="Helvetica,sans-Serif" font-size="10.00">EigenKernel</text>
</a>
</g>
</g>
<!-- Node9 -->
<g id="node2" class="node">
<title>Node9</title>
<g id="a_node2"><a xlink:href="class_coupled_fission_eigen_kernel.html" target="_top" xlink:title=" ">
<polygon fill="white" stroke="black" points="199,-912.5 199,-931.5 336,-931.5 336,-912.5 199,-912.5"/>
<text text-anchor="middle" x="267.5" y="-919.5" font-family="Helvetica,sans-Serif" font-size="10.00">CoupledFissionEigenKernel</text>
</a>
</g>
</g>
<!-- Node66&#45;&gt;Node9 -->
<g id="edge1" class="edge">
<title>Node66&#45;&gt;Node9</title>
<path fill="none" stroke="midnightblue" d="M81.79,-1206.77C103.95,-1144.27 173.28,-950.33 184,-941 188.44,-937.14 193.5,-934.02 198.89,-931.51"/>
<polygon fill="midnightblue" stroke="midnightblue" points="78.48,-1205.64 78.44,-1216.24 85.08,-1207.98 78.48,-1205.64"/>
</g>
<!-- Node14 -->
<g id="node3" class="node">
<title>Node14</title>
<g id="a_node3"><a xlink:href="class_delayed_neutron_eigen_source.html" target="_top" xlink:title=" ">
<polygon fill="white" stroke="black" points="196,-1216.5 196,-1235.5 339,-1235.5 339,-1216.5 196,-1216.5"/>
<text text-anchor="middle" x="267.5" y="-1223.5" font-family="Helvetica,sans-Serif" font-size="10.00">DelayedNeutronEigenSource</text>
</a>
</g>
</g>
<!-- Node66&#45;&gt;Node14 -->
<g id="edge2" class="edge">
<title>Node66&#45;&gt;Node14</title>
<path fill="none" stroke="midnightblue" d="M118.83,-1226C141.6,-1226 169.99,-1226 195.77,-1226"/>
<polygon fill="midnightblue" stroke="midnightblue" points="118.8,-1222.5 108.8,-1226 118.8,-1229.5 118.8,-1222.5"/>
</g>
<!-- Node67 -->
<g id="node4" class="node">
<title>Node67</title>
<g id="a_node4"><a xlink:href="class_self_fission_eigen_kernel.html" target="_top" xlink:title=" ">
<polygon fill="white" stroke="black" points="208.5,-1292.5 208.5,-1311.5 326.5,-1311.5 326.5,-1292.5 208.5,-1292.5"/>
<text text-anchor="middle" x="267.5" y="-1299.5" font-family="Helvetica,sans-Serif" font-size="10.00">SelfFissionEigenKernel</text>
</a>
</g>
</g>
<!-- Node66&#45;&gt;Node67 -->
<g id="edge3" class="edge">
<title>Node66&#45;&gt;Node67</title>
<path fill="none" stroke="midnightblue" d="M99.09,-1240.89C120.65,-1253.66 153.47,-1271.71 184,-1283 194.06,-1286.72 205.1,-1289.86 215.73,-1292.46"/>
<polygon fill="midnightblue" stroke="midnightblue" points="100.68,-1237.77 90.3,-1235.62 97.07,-1243.77 100.68,-1237.77"/>
</g>
<!-- Node64 -->
<g id="node5" class="node">
<title>Node64</title>
<g id="a_node5"><a xlink:title=" ">
<polygon fill="white" stroke="#bfbfbf" points="0,-1349.5 0,-1368.5 148,-1368.5 148,-1349.5 0,-1349.5"/>
<text text-anchor="middle" x="74" y="-1356.5" font-family="Helvetica,sans-Serif" font-size="10.00">ElementIntegralPostprocessor</text>
</a>
</g>
</g>
<!-- Node65 -->
<g id="node6" class="node">
<title>Node65</title>
<g id="a_node6"><a xlink:href="class_elm_integ_tot_fiss_nts_postprocessor.html" target="_top" xlink:title=" ">
<polygon fill="white" stroke="black" points="184,-1330.5 184,-1349.5 351,-1349.5 351,-1330.5 184,-1330.5"/>
<text text-anchor="middle" x="267.5" y="-1337.5" font-family="Helvetica,sans-Serif" font-size="10.00">ElmIntegTotFissNtsPostprocessor</text>
</a>
</g>
</g>
<!-- Node64&#45;&gt;Node65 -->
<g id="edge4" class="edge">
<title>Node64&#45;&gt;Node65</title>
<path fill="none" stroke="midnightblue" d="M158.39,-1350.73C166.8,-1349.89 175.33,-1349.05 183.73,-1348.21"/>
<polygon fill="midnightblue" stroke="midnightblue" points="157.82,-1347.27 148.22,-1351.74 158.51,-1354.23 157.82,-1347.27"/>
</g>
<!-- Node17 -->
<g id="node7" class="node">
<title>Node17</title>
<g id="a_node7"><a xlink:href="class_elm_integ_tot_fiss_postprocessor.html" target="_top" xlink:title=" ">
<polygon fill="white" stroke="black" points="192,-1254.5 192,-1273.5 343,-1273.5 343,-1254.5 192,-1254.5"/>
<text text-anchor="middle" x="267.5" y="-1261.5" font-family="Helvetica,sans-Serif" font-size="10.00">ElmIntegTotFissPostprocessor</text>
</a>
</g>
</g>
<!-- Node64&#45;&gt;Node17 -->
<g id="edge5" class="edge">
<title>Node64&#45;&gt;Node17</title>
<path fill="none" stroke="midnightblue" d="M93.25,-1342.94C113.88,-1325.62 149.16,-1298.46 184,-1283 192.6,-1279.18 202.05,-1276.09 211.4,-1273.59"/>
<polygon fill="midnightblue" stroke="midnightblue" points="90.92,-1340.33 85.6,-1349.49 95.47,-1345.65 90.92,-1340.33"/>
</g>
<!-- Node24 -->
<g id="node10" class="node">
<title>Node24</title>
<g id="a_node10"><a xlink:href="class_integral_new_variable_postprocessor.html" target="_top" xlink:title=" ">
<polygon fill="white" stroke="black" points="184,-1406.5 184,-1425.5 351,-1425.5 351,-1406.5 184,-1406.5"/>
<text text-anchor="middle" x="267.5" y="-1413.5" font-family="Helvetica,sans-Serif" font-size="10.00">IntegralNewVariablePostprocessor</text>
</a>
</g>
</g>
<!-- Node64&#45;&gt;Node24 -->
<g id="edge8" class="edge">
<title>Node64&#45;&gt;Node24</title>
<path fill="none" stroke="midnightblue" d="M109.44,-1372.09C130.73,-1379.91 158.73,-1389.71 184,-1397 195.86,-1400.42 208.82,-1403.64 220.88,-1406.43"/>
<polygon fill="midnightblue" stroke="midnightblue" points="110.45,-1368.73 99.86,-1368.54 108.02,-1375.3 110.45,-1368.73"/>
</g>
<!-- Node25 -->
<g id="node11" class="node">
<title>Node25</title>
<g id="a_node11"><a xlink:href="class_integral_old_variable_postprocessor.html" target="_top" xlink:title=" ">
<polygon fill="white" stroke="black" points="187,-1368.5 187,-1387.5 348,-1387.5 348,-1368.5 187,-1368.5"/>
<text text-anchor="middle" x="267.5" y="-1375.5" font-family="Helvetica,sans-Serif" font-size="10.00">IntegralOldVariablePostprocessor</text>
</a>
</g>
</g>
<!-- Node64&#45;&gt;Node25 -->
<g id="edge9" class="edge">
<title>Node64&#45;&gt;Node25</title>
<path fill="none" stroke="midnightblue" d="M158.41,-1367.28C167.89,-1368.22 177.52,-1369.17 186.95,-1370.11"/>
<polygon fill="midnightblue" stroke="midnightblue" points="158.51,-1363.77 148.22,-1366.26 157.82,-1370.73 158.51,-1363.77"/>
</g>
<!-- Node18 -->
<g id="node8" class="node">
<title>Node18</title>
<g id="a_node8"><a xlink:href="class_elm_integ_tot_fiss_heat_postprocessor.html" target="_top" xlink:title=" ">
<polygon fill="white" stroke="black" points="387,-1254.5 387,-1273.5 559,-1273.5 559,-1254.5 387,-1254.5"/>
<text text-anchor="middle" x="473" y="-1261.5" font-family="Helvetica,sans-Serif" font-size="10.00">ElmIntegTotFissHeatPostprocessor</text>
</a>
</g>
</g>
<!-- Node17&#45;&gt;Node18 -->
<g id="edge6" class="edge">
<title>Node17&#45;&gt;Node18</title>
<path fill="none" stroke="midnightblue" d="M353.2,-1264C364.28,-1264 375.63,-1264 386.72,-1264"/>
<polygon fill="midnightblue" stroke="midnightblue" points="353.12,-1260.5 343.12,-1264 353.12,-1267.5 353.12,-1260.5"/>
</g>
<!-- Node19 -->
<g id="node9" class="node">
<title>Node19</title>
<g id="a_node9"><a xlink:href="class_average_fission_heat.html" target="_top" xlink:title=" ">
<polygon fill="white" stroke="black" points="595,-1254.5 595,-1273.5 700,-1273.5 700,-1254.5 595,-1254.5"/>
<text text-anchor="middle" x="647.5" y="-1261.5" font-family="Helvetica,sans-Serif" font-size="10.00">AverageFissionHeat</text>
</a>
</g>
</g>
<!-- Node18&#45;&gt;Node19 -->
<g id="edge7" class="edge">
<title>Node18&#45;&gt;Node19</title>
<path fill="none" stroke="midnightblue" d="M569.39,-1264C578.01,-1264 586.51,-1264 594.54,-1264"/>
<polygon fill="midnightblue" stroke="midnightblue" points="569.24,-1260.5 559.24,-1264 569.24,-1267.5 569.24,-1260.5"/>
</g>
<!-- Node45 -->
<g id="node12" class="node">
<title>Node45</title>
<g id="a_node12"><a xlink:title=" ">
<polygon fill="white" stroke="#bfbfbf" points="37,-988.5 37,-1007.5 111,-1007.5 111,-988.5 37,-988.5"/>
<text text-anchor="middle" x="74" y="-995.5" font-family="Helvetica,sans-Serif" font-size="10.00">IntegratedBC</text>
</a>
</g>
</g>
<!-- Node46 -->
<g id="node13" class="node">
<title>Node46</title>
<g id="a_node13"><a xlink:href="class_conservative_advection_no_b_c_b_c.html" target="_top" xlink:title=" ">
<polygon fill="white" stroke="black" points="188,-1064.5 188,-1083.5 347,-1083.5 347,-1064.5 188,-1064.5"/>
<text text-anchor="middle" x="267.5" y="-1071.5" font-family="Helvetica,sans-Serif" font-size="10.00">ConservativeAdvectionNoBCBC</text>
</a>
</g>
</g>
<!-- Node45&#45;&gt;Node46 -->
<g id="edge10" class="edge">
<title>Node45&#45;&gt;Node46</title>
<path fill="none" stroke="midnightblue" d="M99.09,-1012.89C120.65,-1025.66 153.47,-1043.71 184,-1055 194.06,-1058.72 205.1,-1061.86 215.73,-1064.46"/>
<polygon fill="midnightblue" stroke="midnightblue" points="100.68,-1009.77 90.3,-1007.62 97.07,-1015.77 100.68,-1009.77"/>
</g>
<!-- Node47 -->
<g id="node14" class="node">
<title>Node47</title>
<g id="a_node14"><a xlink:href="class_coupled_outflow_b_c.html" target="_top" xlink:title=" ">
<polygon fill="white" stroke="black" points="217,-988.5 217,-1007.5 318,-1007.5 318,-988.5 217,-988.5"/>
<text text-anchor="middle" x="267.5" y="-995.5" font-family="Helvetica,sans-Serif" font-size="10.00">CoupledOutflowBC</text>
</a>
</g>
</g>
<!-- Node45&#45;&gt;Node47 -->
<g id="edge11" class="edge">
<title>Node45&#45;&gt;Node47</title>
<path fill="none" stroke="midnightblue" d="M121.27,-998C150.18,-998 187.39,-998 216.91,-998"/>
<polygon fill="midnightblue" stroke="midnightblue" points="121.02,-994.5 111.02,-998 121.02,-1001.5 121.02,-994.5"/>
</g>
<!-- Node12 -->
<g id="node15" class="node">
<title>Node12</title>
<g id="a_node15"><a xlink:href="class_coupled_scalar_advection_no_b_c_b_c.html" target="_top" xlink:title=" ">
<polygon fill="white" stroke="black" points="185,-798.5 185,-817.5 350,-817.5 350,-798.5 185,-798.5"/>
<text text-anchor="middle" x="267.5" y="-805.5" font-family="Helvetica,sans-Serif" font-size="10.00">CoupledScalarAdvectionNoBCBC</text>
</a>
</g>
</g>
<!-- Node45&#45;&gt;Node12 -->
<g id="edge12" class="edge">
<title>Node45&#45;&gt;Node12</title>
<path fill="none" stroke="midnightblue" d="M81.65,-978.66C95.04,-942.78 128.75,-866.02 184,-827 189.52,-823.1 195.72,-819.99 202.18,-817.51"/>
<polygon fill="midnightblue" stroke="midnightblue" points="78.24,-977.8 78.15,-988.4 84.83,-980.17 78.24,-977.8"/>
</g>
<!-- Node48 -->
<g id="node16" class="node">
<title>Node48</title>
<g id="a_node16"><a xlink:href="class_diffusion_no_b_c_b_c.html" target="_top" xlink:title=" ">
<polygon fill="white" stroke="black" points="219,-950.5 219,-969.5 316,-969.5 316,-950.5 219,-950.5"/>
<text text-anchor="middle" x="267.5" y="-957.5" font-family="Helvetica,sans-Serif" font-size="10.00">DiffusionNoBCBC</text>
</a>
</g>
</g>
<!-- Node45&#45;&gt;Node48 -->
<g id="edge13" class="edge">
<title>Node45&#45;&gt;Node48</title>
<path fill="none" stroke="midnightblue" d="M121.07,-988.86C150.6,-983 188.84,-975.41 218.7,-969.48"/>
<polygon fill="midnightblue" stroke="midnightblue" points="120.15,-985.47 111.02,-990.85 121.51,-992.34 120.15,-985.47"/>
</g>
<!-- Node49 -->
<g id="node17" class="node">
<title>Node49</title>
<g id="a_node17"><a xlink:href="class_i_n_s_outflow_b_c.html" target="_top" xlink:title=" ">
<polygon fill="white" stroke="black" points="226.5,-1102.5 226.5,-1121.5 308.5,-1121.5 308.5,-1102.5 226.5,-1102.5"/>
<text text-anchor="middle" x="267.5" y="-1109.5" font-family="Helvetica,sans-Serif" font-size="10.00">INSOutflowBC</text>
</a>
</g>
</g>
<!-- Node45&#45;&gt;Node49 -->
<g id="edge14" class="edge">
<title>Node45&#45;&gt;Node49</title>
<path fill="none" stroke="midnightblue" d="M89.73,-1015.25C109.12,-1036.81 145.31,-1073.27 184,-1093 196.96,-1099.61 212.24,-1103.95 226.1,-1106.79"/>
<polygon fill="midnightblue" stroke="midnightblue" points="92.17,-1012.72 82.93,-1007.53 86.91,-1017.34 92.17,-1012.72"/>
</g>
<!-- Node50 -->
<g id="node18" class="node">
<title>Node50</title>
<g id="a_node18"><a xlink:href="class_i_n_s_symmetry_axis_b_c.html" target="_top" xlink:title=" ">
<polygon fill="white" stroke="black" points="211,-1178.5 211,-1197.5 324,-1197.5 324,-1178.5 211,-1178.5"/>
<text text-anchor="middle" x="267.5" y="-1185.5" font-family="Helvetica,sans-Serif" font-size="10.00">INSSymmetryAxisBC</text>
</a>
</g>
</g>
<!-- Node45&#45;&gt;Node50 -->
<g id="edge15" class="edge">
<title>Node45&#45;&gt;Node50</title>
<path fill="none" stroke="midnightblue" d="M81.65,-1017.34C95.04,-1053.22 128.75,-1129.98 184,-1169 191.92,-1174.6 201.25,-1178.57 210.72,-1181.38"/>
<polygon fill="midnightblue" stroke="midnightblue" points="84.83,-1015.83 78.15,-1007.6 78.24,-1018.2 84.83,-1015.83"/>
</g>
<!-- Node26 -->
<g id="node19" class="node">
<title>Node26</title>
<g id="a_node19"><a xlink:href="class_lin_log_penalty_dirichlet_b_c.html" target="_top" xlink:title=" ">
<polygon fill="white" stroke="black" points="203.5,-760.5 203.5,-779.5 331.5,-779.5 331.5,-760.5 203.5,-760.5"/>
<text text-anchor="middle" x="267.5" y="-767.5" font-family="Helvetica,sans-Serif" font-size="10.00">LinLogPenaltyDirichletBC</text>
</a>
</g>
</g>
<!-- Node45&#45;&gt;Node26 -->
<g id="edge16" class="edge">
<title>Node45&#45;&gt;Node26</title>
<path fill="none" stroke="midnightblue" d="M79.33,-978.49C89.66,-936.76 119.81,-838.64 184,-789 189.7,-784.59 196.24,-781.18 203.09,-778.54"/>
<polygon fill="midnightblue" stroke="midnightblue" points="75.92,-977.71 77.03,-988.25 82.73,-979.32 75.92,-977.71"/>
</g>
<!-- Node51 -->
<g id="node20" class="node">
<title>Node51</title>
<g id="a_node20"><a xlink:href="class_mat_diffusion_flux_b_c.html" target="_top" xlink:title=" ">
<polygon fill="white" stroke="black" points="215,-1026.5 215,-1045.5 320,-1045.5 320,-1026.5 215,-1026.5"/>
<text text-anchor="middle" x="267.5" y="-1033.5" font-family="Helvetica,sans-Serif" font-size="10.00">MatDiffusionFluxBC</text>
</a>
</g>
</g>
<!-- Node45&#45;&gt;Node51 -->
<g id="edge17" class="edge">
<title>Node45&#45;&gt;Node51</title>
<path fill="none" stroke="midnightblue" d="M121.04,-1007.13C150.45,-1012.97 188.53,-1020.53 218.35,-1026.44"/>
<polygon fill="midnightblue" stroke="midnightblue" points="121.51,-1003.66 111.02,-1005.15 120.15,-1010.53 121.51,-1003.66"/>
</g>
<!-- Node52 -->
<g id="node21" class="node">
<title>Node52</title>
<g id="a_node21"><a xlink:href="class_postprocessor_coupled_inflow_b_c.html" target="_top" xlink:title=" ">
<polygon fill="white" stroke="black" points="189.5,-1140.5 189.5,-1159.5 345.5,-1159.5 345.5,-1140.5 189.5,-1140.5"/>
<text text-anchor="middle" x="267.5" y="-1147.5" font-family="Helvetica,sans-Serif" font-size="10.00">PostprocessorCoupledInflowBC</text>
</a>
</g>
</g>
<!-- Node45&#45;&gt;Node52 -->
<g id="edge18" class="edge">
<title>Node45&#45;&gt;Node52</title>
<path fill="none" stroke="midnightblue" d="M84.87,-1016.64C101.33,-1045.84 137.25,-1102 184,-1131 190.24,-1134.87 197.2,-1137.96 204.34,-1140.42"/>
<polygon fill="midnightblue" stroke="midnightblue" points="87.75,-1014.61 79.87,-1007.53 81.61,-1017.98 87.75,-1014.61"/>
</g>
<!-- Node30 -->
<g id="node22" class="node">
<title>Node30</title>
<g id="a_node22"><a xlink:href="class_scalar_advection_art_diff_no_b_c_b_c.html" target="_top" xlink:title=" ">
<polygon fill="white" stroke="black" points="188.5,-874.5 188.5,-893.5 346.5,-893.5 346.5,-874.5 188.5,-874.5"/>
<text text-anchor="middle" x="267.5" y="-881.5" font-family="Helvetica,sans-Serif" font-size="10.00">ScalarAdvectionArtDiffNoBCBC</text>
</a>
</g>
</g>
<!-- Node45&#45;&gt;Node30 -->
<g id="edge19" class="edge">
<title>Node45&#45;&gt;Node30</title>
<path fill="none" stroke="midnightblue" d="M89.73,-980.75C109.12,-959.19 145.31,-922.73 184,-903 191.59,-899.13 199.98,-896.03 208.41,-893.57"/>
<polygon fill="midnightblue" stroke="midnightblue" points="86.91,-978.66 82.93,-988.47 92.17,-983.28 86.91,-978.66"/>
</g>
<!-- Node33 -->
<g id="node23" class="node">
<title>Node33</title>
<g id="a_node23"><a xlink:href="class_vacuum_conc_b_c.html" target="_top" xlink:title=" ">
<polygon fill="white" stroke="black" points="223,-836.5 223,-855.5 312,-855.5 312,-836.5 223,-836.5"/>
<text text-anchor="middle" x="267.5" y="-843.5" font-family="Helvetica,sans-Serif" font-size="10.00">VacuumConcBC</text>
</a>
</g>
</g>
<!-- Node45&#45;&gt;Node33 -->
<g id="edge20" class="edge">
<title>Node45&#45;&gt;Node33</title>
<path fill="none" stroke="midnightblue" d="M84.87,-979.36C101.33,-950.16 137.25,-894 184,-865 195.62,-857.79 209.68,-853.32 222.88,-850.53"/>
<polygon fill="midnightblue" stroke="midnightblue" points="81.61,-978.02 79.87,-988.47 87.75,-981.39 81.61,-978.02"/>
</g>
<!-- Node39 -->
<g id="node24" class="node">
<title>Node39</title>
<g id="a_node24"><a xlink:title=" ">
<polygon fill="white" stroke="#bfbfbf" points="52,-380.5 52,-399.5 96,-399.5 96,-380.5 52,-380.5"/>
<text text-anchor="middle" x="74" y="-387.5" font-family="Helvetica,sans-Serif" font-size="10.00">Kernel</text>
</a>
</g>
</g>
<!-- Node10 -->
<g id="node25" class="node">
<title>Node10</title>
<g id="a_node25"><a xlink:href="class_coupled_fission_kernel.html" target="_top" xlink:title=" ">
<polygon fill="white" stroke="black" points="211.5,-570.5 211.5,-589.5 323.5,-589.5 323.5,-570.5 211.5,-570.5"/>
<text text-anchor="middle" x="267.5" y="-577.5" font-family="Helvetica,sans-Serif" font-size="10.00">CoupledFissionKernel</text>
</a>
</g>
</g>
<!-- Node39&#45;&gt;Node10 -->
<g id="edge21" class="edge">
<title>Node39&#45;&gt;Node10</title>
<path fill="none" stroke="midnightblue" d="M81.65,-409.34C95.04,-445.22 128.75,-521.98 184,-561 192.04,-566.68 201.53,-570.69 211.15,-573.51"/>
<polygon fill="midnightblue" stroke="midnightblue" points="84.83,-407.83 78.15,-399.6 78.24,-410.2 84.83,-407.83"/>
</g>
<!-- Node11 -->
<g id="node26" class="node">
<title>Node11</title>
<g id="a_node26"><a xlink:href="class_coupled_scalar_advection.html" target="_top" xlink:title=" ">
<polygon fill="white" stroke="black" points="205.5,-532.5 205.5,-551.5 329.5,-551.5 329.5,-532.5 205.5,-532.5"/>
<text text-anchor="middle" x="267.5" y="-539.5" font-family="Helvetica,sans-Serif" font-size="10.00">CoupledScalarAdvection</text>
</a>
</g>
</g>
<!-- Node39&#45;&gt;Node11 -->
<g id="edge22" class="edge">
<title>Node39&#45;&gt;Node11</title>
<path fill="none" stroke="midnightblue" d="M84.87,-408.64C101.33,-437.84 137.25,-494 184,-523 190.49,-527.03 197.75,-530.21 205.2,-532.71"/>
<polygon fill="midnightblue" stroke="midnightblue" points="87.75,-406.61 79.87,-399.53 81.61,-409.98 87.75,-406.61"/>
</g>
<!-- Node13 -->
<g id="node27" class="node">
<title>Node13</title>
<g id="a_node27"><a xlink:href="class_decay_heat_source.html" target="_top" xlink:title=" ">
<polygon fill="white" stroke="black" points="219,-494.5 219,-513.5 316,-513.5 316,-494.5 219,-494.5"/>
<text text-anchor="middle" x="267.5" y="-501.5" font-family="Helvetica,sans-Serif" font-size="10.00">DecayHeatSource</text>
</a>
</g>
</g>
<!-- Node39&#45;&gt;Node13 -->
<g id="edge23" class="edge">
<title>Node39&#45;&gt;Node13</title>
<path fill="none" stroke="midnightblue" d="M89.73,-407.25C109.12,-428.81 145.31,-465.27 184,-485 194.74,-490.48 207.06,-494.39 218.85,-497.19"/>
<polygon fill="midnightblue" stroke="midnightblue" points="92.17,-404.72 82.93,-399.53 86.91,-409.34 92.17,-404.72"/>
</g>
<!-- Node15 -->
<g id="node28" class="node">
<title>Node15</title>
<g id="a_node28"><a xlink:href="class_delayed_neutron_source.html" target="_top" xlink:title=" ">
<polygon fill="white" stroke="black" points="208.5,-456.5 208.5,-475.5 326.5,-475.5 326.5,-456.5 208.5,-456.5"/>
<text text-anchor="middle" x="267.5" y="-463.5" font-family="Helvetica,sans-Serif" font-size="10.00">DelayedNeutronSource</text>
</a>
</g>
</g>
<!-- Node39&#45;&gt;Node15 -->
<g id="edge24" class="edge">
<title>Node39&#45;&gt;Node15</title>
<path fill="none" stroke="midnightblue" d="M99.09,-404.89C120.65,-417.66 153.47,-435.71 184,-447 194.06,-450.72 205.1,-453.86 215.73,-456.46"/>
<polygon fill="midnightblue" stroke="midnightblue" points="100.68,-401.77 90.3,-399.62 97.07,-407.77 100.68,-401.77"/>
</g>
<!-- Node16 -->
<g id="node29" class="node">
<title>Node16</title>
<g id="a_node29"><a xlink:href="class_div_free_coupled_scalar_advection.html" target="_top" xlink:title=" ">
<polygon fill="white" stroke="black" points="188.5,-418.5 188.5,-437.5 346.5,-437.5 346.5,-418.5 188.5,-418.5"/>
<text text-anchor="middle" x="267.5" y="-425.5" font-family="Helvetica,sans-Serif" font-size="10.00">DivFreeCoupledScalarAdvection</text>
</a>
</g>
</g>
<!-- Node39&#45;&gt;Node16 -->
<g id="edge25" class="edge">
<title>Node39&#45;&gt;Node16</title>
<path fill="none" stroke="midnightblue" d="M106.27,-396.2C136.7,-402.24 183.38,-411.51 218.51,-418.48"/>
<polygon fill="midnightblue" stroke="midnightblue" points="106.72,-392.73 96.23,-394.21 105.35,-399.59 106.72,-392.73"/>
</g>
<!-- Node40 -->
<g id="node30" class="node">
<title>Node40</title>
<g id="a_node30"><a xlink:href="class_fission_heat_source.html" target="_top" xlink:title=" ">
<polygon fill="white" stroke="black" points="217.5,-114.5 217.5,-133.5 317.5,-133.5 317.5,-114.5 217.5,-114.5"/>
<text text-anchor="middle" x="267.5" y="-121.5" font-family="Helvetica,sans-Serif" font-size="10.00">FissionHeatSource</text>
</a>
</g>
</g>
<!-- Node39&#45;&gt;Node40 -->
<g id="edge26" class="edge">
<title>Node39&#45;&gt;Node40</title>
<path fill="none" stroke="midnightblue" d="M77.68,-370.27C85.15,-323.16 110.74,-203.56 184,-143 193.4,-135.23 205.38,-130.5 217.28,-127.65"/>
<polygon fill="midnightblue" stroke="midnightblue" points="74.18,-369.96 76.18,-380.37 81.11,-370.99 74.18,-369.96"/>
</g>
<!-- Node41 -->
<g id="node31" class="node">
<title>Node41</title>
<g id="a_node31"><a xlink:href="class_gamma_heat_source.html" target="_top" xlink:title=" ">
<polygon fill="white" stroke="black" points="216,-76.5 216,-95.5 319,-95.5 319,-76.5 216,-76.5"/>
<text text-anchor="middle" x="267.5" y="-83.5" font-family="Helvetica,sans-Serif" font-size="10.00">GammaHeatSource</text>
</a>
</g>
</g>
<!-- Node39&#45;&gt;Node41 -->
<g id="edge27" class="edge">
<title>Node39&#45;&gt;Node41</title>
<path fill="none" stroke="midnightblue" d="M81.79,-370.77C103.95,-308.27 173.28,-114.33 184,-105 192.87,-97.28 204.25,-92.53 215.71,-89.65"/>
<polygon fill="midnightblue" stroke="midnightblue" points="78.48,-369.64 78.44,-380.24 85.08,-371.98 78.48,-369.64"/>
</g>
<!-- Node20 -->
<g id="node32" class="node">
<title>Node20</title>
<g id="a_node32"><a xlink:href="class_group_diffusion.html" target="_top" xlink:title=" ">
<polygon fill="white" stroke="black" points="226.5,-380.5 226.5,-399.5 308.5,-399.5 308.5,-380.5 226.5,-380.5"/>
<text text-anchor="middle" x="267.5" y="-387.5" font-family="Helvetica,sans-Serif" font-size="10.00">GroupDiffusion</text>
</a>
</g>
</g>
<!-- Node39&#45;&gt;Node20 -->
<g id="edge28" class="edge">
<title>Node39&#45;&gt;Node20</title>
<path fill="none" stroke="midnightblue" d="M106.56,-390C139.27,-390 190.51,-390 226.14,-390"/>
<polygon fill="midnightblue" stroke="midnightblue" points="106.23,-386.5 96.23,-390 106.23,-393.5 106.23,-386.5"/>
</g>
<!-- Node21 -->
<g id="node33" class="node">
<title>Node21</title>
<g id="a_node33"><a xlink:href="class_heat_precursor_decay.html" target="_top" xlink:title=" ">
<polygon fill="white" stroke="black" points="213.5,-342.5 213.5,-361.5 321.5,-361.5 321.5,-342.5 213.5,-342.5"/>
<text text-anchor="middle" x="267.5" y="-349.5" font-family="Helvetica,sans-Serif" font-size="10.00">HeatPrecursorDecay</text>
</a>
</g>
</g>
<!-- Node39&#45;&gt;Node21 -->
<g id="edge29" class="edge">
<title>Node39&#45;&gt;Node21</title>
<path fill="none" stroke="midnightblue" d="M106.27,-383.8C136.7,-377.76 183.38,-368.49 218.51,-361.52"/>
<polygon fill="midnightblue" stroke="midnightblue" points="105.35,-380.41 96.23,-385.79 106.72,-387.27 105.35,-380.41"/>
</g>
<!-- Node22 -->
<g id="node34" class="node">
<title>Node22</title>
<g id="a_node34"><a xlink:href="class_heat_precursor_source.html" target="_top" xlink:title=" ">
<polygon fill="white" stroke="black" points="212.5,-304.5 212.5,-323.5 322.5,-323.5 322.5,-304.5 212.5,-304.5"/>
<text text-anchor="middle" x="267.5" y="-311.5" font-family="Helvetica,sans-Serif" font-size="10.00">HeatPrecursorSource</text>
</a>
</g>
</g>
<!-- Node39&#45;&gt;Node22 -->
<g id="edge30" class="edge">
<title>Node39&#45;&gt;Node22</title>
<path fill="none" stroke="midnightblue" d="M99.09,-375.11C120.65,-362.34 153.47,-344.29 184,-333 194.06,-329.28 205.1,-326.14 215.73,-323.54"/>
<polygon fill="midnightblue" stroke="midnightblue" points="97.07,-372.23 90.3,-380.38 100.68,-378.23 97.07,-372.23"/>
</g>
<!-- Node42 -->
<g id="node35" class="node">
<title>Node42</title>
<g id="a_node35"><a xlink:href="class_i_n_s_boussinesq_body_force.html" target="_top" xlink:title=" ">
<polygon fill="white" stroke="black" points="201.5,-38.5 201.5,-57.5 333.5,-57.5 333.5,-38.5 201.5,-38.5"/>
<text text-anchor="middle" x="267.5" y="-45.5" font-family="Helvetica,sans-Serif" font-size="10.00">INSBoussinesqBodyForce</text>
</a>
</g>
</g>
<!-- Node39&#45;&gt;Node42 -->
<g id="edge31" class="edge">
<title>Node39&#45;&gt;Node42</title>
<path fill="none" stroke="midnightblue" d="M81.84,-371.02C95.01,-334.4 124.6,-251.37 148,-181 164.76,-130.58 144.97,-103.05 184,-67 189.07,-62.31 195.07,-58.71 201.47,-55.94"/>
<polygon fill="midnightblue" stroke="midnightblue" points="78.54,-369.86 78.45,-380.45 85.13,-372.23 78.54,-369.86"/>
</g>
<!-- Node23 -->
<g id="node36" class="node">
<title>Node23</title>
<g id="a_node36"><a xlink:href="class_in_scatter.html" target="_top" xlink:title=" ">
<polygon fill="white" stroke="black" points="239.5,-266.5 239.5,-285.5 295.5,-285.5 295.5,-266.5 239.5,-266.5"/>
<text text-anchor="middle" x="267.5" y="-273.5" font-family="Helvetica,sans-Serif" font-size="10.00">InScatter</text>
</a>
</g>
</g>
<!-- Node39&#45;&gt;Node23 -->
<g id="edge32" class="edge">
<title>Node39&#45;&gt;Node23</title>
<path fill="none" stroke="midnightblue" d="M89.73,-372.75C109.12,-351.19 145.31,-314.73 184,-295 201.28,-286.19 222.68,-281.41 239.35,-278.85"/>
<polygon fill="midnightblue" stroke="midnightblue" points="86.91,-370.66 82.93,-380.47 92.17,-375.28 86.91,-370.66"/>
</g>
<!-- Node43 -->
<g id="node37" class="node">
<title>Node43</title>
<g id="a_node37"><a xlink:href="class_i_n_s_momentum_k_epsilon.html" target="_top" xlink:title=" ">
<polygon fill="white" stroke="black" points="206.5,-0.5 206.5,-19.5 328.5,-19.5 328.5,-0.5 206.5,-0.5"/>
<text text-anchor="middle" x="267.5" y="-7.5" font-family="Helvetica,sans-Serif" font-size="10.00">INSMomentumKEpsilon</text>
</a>
</g>
</g>
<!-- Node39&#45;&gt;Node43 -->
<g id="edge33" class="edge">
<title>Node39&#45;&gt;Node43</title>
<path fill="none" stroke="midnightblue" d="M82.52,-370.65C96.57,-334.02 127.3,-251.85 148,-181 167.47,-114.36 134.76,-77.94 184,-29 190.26,-22.78 198.11,-18.44 206.47,-15.43"/>
<polygon fill="midnightblue" stroke="midnightblue" points="79.2,-369.52 78.87,-380.11 85.73,-372.04 79.2,-369.52"/>
</g>
<!-- Node44 -->
<g id="node38" class="node">
<title>Node44</title>
<g id="a_node38"><a xlink:href="class_manu_h_x.html" target="_top" xlink:title=" ">
<polygon fill="white" stroke="black" points="240,-190.5 240,-209.5 295,-209.5 295,-190.5 240,-190.5"/>
<text text-anchor="middle" x="267.5" y="-197.5" font-family="Helvetica,sans-Serif" font-size="10.00">ManuHX</text>
</a>
</g>
</g>
<!-- Node39&#45;&gt;Node44 -->
<g id="edge34" class="edge">
<title>Node39&#45;&gt;Node44</title>
<path fill="none" stroke="midnightblue" d="M81.65,-370.66C95.04,-334.78 128.75,-258.02 184,-219 200.33,-207.47 222.59,-202.83 239.88,-201.01"/>
<polygon fill="midnightblue" stroke="midnightblue" points="78.24,-369.8 78.15,-380.4 84.83,-372.17 78.24,-369.8"/>
</g>
<!-- Node27 -->
<g id="node39" class="node">
<title>Node27</title>
<g id="a_node39"><a xlink:href="class_precursor_decay.html" target="_top" xlink:title=" ">
<polygon fill="white" stroke="black" points="224,-228.5 224,-247.5 311,-247.5 311,-228.5 224,-228.5"/>
<text text-anchor="middle" x="267.5" y="-235.5" font-family="Helvetica,sans-Serif" font-size="10.00">PrecursorDecay</text>
</a>
</g>
</g>
<!-- Node39&#45;&gt;Node27 -->
<g id="edge35" class="edge">
<title>Node39&#45;&gt;Node27</title>
<path fill="none" stroke="midnightblue" d="M84.87,-371.36C101.33,-342.16 137.25,-286 184,-257 195.86,-249.64 210.28,-245.12 223.73,-242.36"/>
<polygon fill="midnightblue" stroke="midnightblue" points="81.61,-370.02 79.87,-380.47 87.75,-373.39 81.61,-370.02"/>
</g>
<!-- Node28 -->
<g id="node40" class="node">
<title>Node28</title>
<g id="a_node40"><a xlink:href="class_precursor_source.html" target="_top" xlink:title=" ">
<polygon fill="white" stroke="black" points="223,-722.5 223,-741.5 312,-741.5 312,-722.5 223,-722.5"/>
<text text-anchor="middle" x="267.5" y="-729.5" font-family="Helvetica,sans-Serif" font-size="10.00">PrecursorSource</text>
</a>
</g>
</g>
<!-- Node39&#45;&gt;Node28 -->
<g id="edge36" class="edge">
<title>Node39&#45;&gt;Node28</title>
<path fill="none" stroke="midnightblue" d="M81.29,-409.48C103.61,-478.49 178.04,-707.6 184,-713 194.57,-722.57 208.97,-727.61 222.79,-730.19"/>
<polygon fill="midnightblue" stroke="midnightblue" points="84.58,-408.27 78.17,-399.83 77.92,-410.42 84.58,-408.27"/>
</g>
<!-- Node29 -->
<g id="node41" class="node">
<title>Node29</title>
<g id="a_node41"><a xlink:href="class_scalar_advection_art_diff.html" target="_top" xlink:title=" ">
<polygon fill="white" stroke="black" points="209.5,-684.5 209.5,-703.5 325.5,-703.5 325.5,-684.5 209.5,-684.5"/>
<text text-anchor="middle" x="267.5" y="-691.5" font-family="Helvetica,sans-Serif" font-size="10.00">ScalarAdvectionArtDiff</text>
</a>
</g>
</g>
<!-- Node39&#45;&gt;Node29 -->
<g id="edge37" class="edge">
<title>Node39&#45;&gt;Node29</title>
<path fill="none" stroke="midnightblue" d="M79.83,-409.22C94.75,-467.13 141.66,-638.17 184,-675 191.21,-681.27 200.07,-685.58 209.29,-688.52"/>
<polygon fill="midnightblue" stroke="midnightblue" points="83.21,-408.33 77.35,-399.5 76.43,-410.06 83.21,-408.33"/>
</g>
<!-- Node31 -->
<g id="node42" class="node">
<title>Node31</title>
<g id="a_node42"><a xlink:href="class_sigma_r.html" target="_top" xlink:title=" ">
<polygon fill="white" stroke="black" points="241.5,-646.5 241.5,-665.5 293.5,-665.5 293.5,-646.5 241.5,-646.5"/>
<text text-anchor="middle" x="267.5" y="-653.5" font-family="Helvetica,sans-Serif" font-size="10.00">SigmaR</text>
</a>
</g>
</g>
<!-- Node39&#45;&gt;Node31 -->
<g id="edge38" class="edge">
<title>Node39&#45;&gt;Node31</title>
<path fill="none" stroke="midnightblue" d="M77.68,-409.73C85.15,-456.84 110.74,-576.44 184,-637 199.97,-650.2 223.38,-654.63 241.18,-655.94"/>
<polygon fill="midnightblue" stroke="midnightblue" points="81.11,-409.01 76.18,-399.63 74.18,-410.04 81.11,-409.01"/>
</g>
<!-- Node32 -->
<g id="node43" class="node">
<title>Node32</title>
<g id="a_node43"><a xlink:href="class_transient_fission_heat_source.html" target="_top" xlink:title=" ">
<polygon fill="white" stroke="black" points="197.5,-608.5 197.5,-627.5 337.5,-627.5 337.5,-608.5 197.5,-608.5"/>
<text text-anchor="middle" x="267.5" y="-615.5" font-family="Helvetica,sans-Serif" font-size="10.00">TransientFissionHeatSource</text>
</a>
</g>
</g>
<!-- Node39&#45;&gt;Node32 -->
<g id="edge39" class="edge">
<title>Node39&#45;&gt;Node32</title>
<path fill="none" stroke="midnightblue" d="M79.33,-409.51C89.66,-451.24 119.81,-549.36 184,-599 189,-602.87 194.65,-605.97 200.58,-608.46"/>
<polygon fill="midnightblue" stroke="midnightblue" points="82.73,-408.68 77.03,-399.75 75.92,-410.29 82.73,-408.68"/>
</g>
<!-- Node34 -->
<g id="node44" class="node">
<title>Node34</title>
<g id="a_node44"><a xlink:title=" ">
<polygon fill="white" stroke="#bfbfbf" points="14.5,-1396.5 14.5,-1415.5 133.5,-1415.5 133.5,-1396.5 14.5,-1396.5"/>
<text text-anchor="middle" x="74" y="-1403.5" font-family="Helvetica,sans-Serif" font-size="10.00">MooseVariableInterface</text>
</a>
</g>
</g>
<!-- Node34&#45;&gt;Node24 -->
<g id="edge40" class="edge">
<title>Node34&#45;&gt;Node24</title>
<path fill="none" stroke="midnightblue" d="M143.97,-1409.6C156.92,-1410.28 170.58,-1410.99 183.89,-1411.69"/>
<polygon fill="midnightblue" stroke="midnightblue" points="143.93,-1406.09 133.76,-1409.07 143.56,-1413.09 143.93,-1406.09"/>
</g>
<!-- Node34&#45;&gt;Node25 -->
<g id="edge41" class="edge">
<title>Node34&#45;&gt;Node25</title>
<path fill="none" stroke="midnightblue" d="M143.74,-1395.95C162.56,-1393.2 182.9,-1390.22 201.51,-1387.5"/>
<polygon fill="midnightblue" stroke="midnightblue" points="143.15,-1392.5 133.76,-1397.41 144.16,-1399.43 143.15,-1392.5"/>
</g>
<!-- Node8 -->
<g id="node45" class="node">
<title>Node8</title>
<g id="a_node45"><a xlink:href="class_scalar_transport_base.html" target="_top" xlink:title=" ">
<polygon fill="white" stroke="black" points="20,-627.5 20,-646.5 128,-646.5 128,-627.5 20,-627.5"/>
<text text-anchor="middle" x="74" y="-634.5" font-family="Helvetica,sans-Serif" font-size="10.00">ScalarTransportBase</text>
</a>
</g>
</g>
<!-- Node8&#45;&gt;Node9 -->
<g id="edge42" class="edge">
<title>Node8&#45;&gt;Node9</title>
<path fill="none" stroke="midnightblue" d="M76.97,-656.56C83.03,-706 106.01,-836.76 184,-903 188.48,-906.81 193.58,-909.89 198.98,-912.38"/>
<polygon fill="midnightblue" stroke="midnightblue" points="80.44,-656.1 75.84,-646.55 73.48,-656.88 80.44,-656.1"/>
</g>
<!-- Node8&#45;&gt;Node14 -->
<g id="edge47" class="edge">
<title>Node8&#45;&gt;Node14</title>
<path fill="none" stroke="midnightblue" d="M79.59,-656.7C91.7,-709 125.15,-855.82 148,-979 157.36,-1029.43 149.02,-1169.49 184,-1207 187.51,-1210.76 191.6,-1213.85 196.05,-1216.38"/>
<polygon fill="midnightblue" stroke="midnightblue" points="82.96,-655.7 77.28,-646.76 76.14,-657.29 82.96,-655.7"/>
</g>
<!-- Node8&#45;&gt;Node17 -->
<g id="edge50" class="edge">
<title>Node8&#45;&gt;Node17</title>
<path fill="none" stroke="midnightblue" d="M79.75,-656.67C92.23,-708.91 126.51,-855.57 148,-979 158.23,-1037.77 143.8,-1200.93 184,-1245 187.47,-1248.8 191.53,-1251.92 195.96,-1254.47"/>
<polygon fill="midnightblue" stroke="midnightblue" points="83.1,-655.65 77.36,-646.74 76.29,-657.28 83.1,-655.65"/>
</g>
<!-- Node8&#45;&gt;Node24 -->
<g id="edge55" class="edge">
<title>Node8&#45;&gt;Node24</title>
<path fill="none" stroke="midnightblue" d="M80.08,-656.61C93.4,-708.72 129.51,-855.09 148,-979 161.76,-1071.21 122.86,-1326.61 184,-1397 187.28,-1400.77 191.14,-1403.88 195.37,-1406.43"/>
<polygon fill="midnightblue" stroke="midnightblue" points="83.42,-655.53 77.54,-646.71 76.64,-657.27 83.42,-655.53"/>
</g>
<!-- Node8&#45;&gt;Node25 -->
<g id="edge56" class="edge">
<title>Node8&#45;&gt;Node25</title>
<path fill="none" stroke="midnightblue" d="M80.03,-656.62C93.19,-708.75 128.98,-855.17 148,-979 160.87,-1062.84 128.1,-1295.2 184,-1359 187.29,-1362.76 191.17,-1365.85 195.41,-1368.4"/>
<polygon fill="midnightblue" stroke="midnightblue" points="83.36,-655.55 77.51,-646.72 76.58,-657.27 83.36,-655.55"/>
</g>
<!-- Node8&#45;&gt;Node12 -->
<g id="edge45" class="edge">
<title>Node8&#45;&gt;Node12</title>
<path fill="none" stroke="midnightblue" d="M83.09,-656.01C98,-688.63 133.03,-755.05 184,-789 189.87,-792.91 196.44,-796.02 203.24,-798.5"/>
<polygon fill="midnightblue" stroke="midnightblue" points="86.21,-654.41 78.96,-646.68 79.81,-657.25 86.21,-654.41"/>
</g>
<!-- Node8&#45;&gt;Node26 -->
<g id="edge57" class="edge">
<title>Node8&#45;&gt;Node26</title>
<path fill="none" stroke="midnightblue" d="M87.08,-655.15C105.07,-680.68 141.39,-726.77 184,-751 190.77,-754.85 198.28,-757.92 205.92,-760.37"/>
<polygon fill="midnightblue" stroke="midnightblue" points="89.86,-653.01 81.31,-646.76 84.09,-656.98 89.86,-653.01"/>
</g>
<!-- Node8&#45;&gt;Node30 -->
<g id="edge61" class="edge">
<title>Node8&#45;&gt;Node30</title>
<path fill="none" stroke="midnightblue" d="M78.46,-656.72C87.36,-701.24 115.34,-809.98 184,-865 188.82,-868.86 194.27,-871.97 200.03,-874.46"/>
<polygon fill="midnightblue" stroke="midnightblue" points="81.85,-655.8 76.56,-646.63 74.97,-657.1 81.85,-655.8"/>
</g>
<!-- Node8&#45;&gt;Node33 -->
<g id="edge66" class="edge">
<title>Node8&#45;&gt;Node33</title>
<path fill="none" stroke="midnightblue" d="M80.44,-656.58C92.31,-695.54 124.38,-782.78 184,-827 195.22,-835.32 209.47,-840.08 222.96,-842.78"/>
<polygon fill="midnightblue" stroke="midnightblue" points="83.73,-655.37 77.56,-646.75 77.01,-657.33 83.73,-655.37"/>
</g>
<!-- Node8&#45;&gt;Node10 -->
<g id="edge43" class="edge">
<title>Node8&#45;&gt;Node10</title>
<path fill="none" stroke="midnightblue" d="M109.44,-623.91C130.73,-616.09 158.73,-606.29 184,-599 195.86,-595.58 208.82,-592.36 220.88,-589.57"/>
<polygon fill="midnightblue" stroke="midnightblue" points="108.02,-620.7 99.86,-627.46 110.45,-627.27 108.02,-620.7"/>
</g>
<!-- Node8&#45;&gt;Node11 -->
<g id="edge44" class="edge">
<title>Node8&#45;&gt;Node11</title>
<path fill="none" stroke="midnightblue" d="M93.25,-620.94C113.88,-603.62 149.16,-576.46 184,-561 192.6,-557.18 202.05,-554.09 211.4,-551.59"/>
<polygon fill="midnightblue" stroke="midnightblue" points="90.92,-618.33 85.6,-627.49 95.47,-623.65 90.92,-618.33"/>
</g>
<!-- Node8&#45;&gt;Node13 -->
<g id="edge46" class="edge">
<title>Node8&#45;&gt;Node13</title>
<path fill="none" stroke="midnightblue" d="M87.08,-618.85C105.07,-593.32 141.39,-547.23 184,-523 194.6,-516.97 207,-512.85 218.92,-510.04"/>
<polygon fill="midnightblue" stroke="midnightblue" points="84.09,-617.02 81.31,-627.24 89.86,-620.99 84.09,-617.02"/>
</g>
<!-- Node8&#45;&gt;Node15 -->
<g id="edge48" class="edge">
<title>Node8&#45;&gt;Node15</title>
<path fill="none" stroke="midnightblue" d="M83.09,-617.99C98,-585.37 133.03,-518.95 184,-485 191.34,-480.11 199.77,-476.47 208.38,-473.76"/>
<polygon fill="midnightblue" stroke="midnightblue" points="79.81,-616.75 78.96,-627.32 86.21,-619.59 79.81,-616.75"/>
</g>
<!-- Node8&#45;&gt;Node16 -->
<g id="edge49" class="edge">
<title>Node8&#45;&gt;Node16</title>
<path fill="none" stroke="midnightblue" d="M80.44,-617.42C92.31,-578.46 124.38,-491.22 184,-447 189.19,-443.15 195.04,-440.06 201.16,-437.58"/>
<polygon fill="midnightblue" stroke="midnightblue" points="77.01,-616.67 77.56,-627.25 83.73,-618.63 77.01,-616.67"/>
</g>
<!-- Node8&#45;&gt;Node20 -->
<g id="edge51" class="edge">
<title>Node8&#45;&gt;Node20</title>
<path fill="none" stroke="midnightblue" d="M78.46,-617.28C87.36,-572.76 115.34,-464.02 184,-409 195.93,-399.44 211.78,-394.51 226.4,-392.03"/>
<polygon fill="midnightblue" stroke="midnightblue" points="74.97,-616.9 76.56,-627.37 81.85,-618.2 74.97,-616.9"/>
</g>
<!-- Node8&#45;&gt;Node21 -->
<g id="edge52" class="edge">
<title>Node8&#45;&gt;Node21</title>
<path fill="none" stroke="midnightblue" d="M76.97,-617.44C83.03,-568 106.01,-437.24 184,-371 192.29,-363.96 202.68,-359.4 213.26,-356.48"/>
<polygon fill="midnightblue" stroke="midnightblue" points="73.48,-617.12 75.84,-627.45 80.44,-617.9 73.48,-617.12"/>
</g>
<!-- Node8&#45;&gt;Node22 -->
<g id="edge53" class="edge">
<title>Node8&#45;&gt;Node22</title>
<path fill="none" stroke="midnightblue" d="M80.74,-617.7C99.87,-553.94 161.47,-353.02 184,-333 191.91,-325.97 201.9,-321.39 212.17,-318.44"/>
<polygon fill="midnightblue" stroke="midnightblue" points="77.38,-616.74 77.87,-627.32 84.08,-618.74 77.38,-616.74"/>
</g>
<!-- Node8&#45;&gt;Node23 -->
<g id="edge54" class="edge">
<title>Node8&#45;&gt;Node23</title>
<path fill="none" stroke="midnightblue" d="M81.16,-617.86C93.76,-578.67 123.36,-486.48 148,-409 164.1,-358.37 144.97,-331.05 184,-295 198.79,-281.34 221.38,-276.86 239.18,-275.64"/>
<polygon fill="midnightblue" stroke="midnightblue" points="77.8,-616.86 78.07,-627.45 84.47,-619 77.8,-616.86"/>
</g>
<!-- Node8&#45;&gt;Node27 -->
<g id="edge58" class="edge">
<title>Node8&#45;&gt;Node27</title>
<path fill="none" stroke="midnightblue" d="M81.82,-617.45C95.39,-578.22 126.32,-486.96 148,-409 166.6,-342.11 134.76,-305.94 184,-257 194.53,-246.54 209.59,-241.37 223.97,-238.95"/>
<polygon fill="midnightblue" stroke="midnightblue" points="78.45,-616.49 78.48,-627.08 85.07,-618.78 78.45,-616.49"/>
</g>
<!-- Node8&#45;&gt;Node28 -->
<g id="edge59" class="edge">
<title>Node8&#45;&gt;Node28</title>
<path fill="none" stroke="midnightblue" d="M93.25,-653.06C113.88,-670.38 149.16,-697.54 184,-713 196.09,-718.37 209.88,-722.31 222.67,-725.16"/>
<polygon fill="midnightblue" stroke="midnightblue" points="95.47,-650.35 85.6,-646.51 90.92,-655.67 95.47,-650.35"/>
</g>
<!-- Node8&#45;&gt;Node29 -->
<g id="edge60" class="edge">
<title>Node8&#45;&gt;Node29</title>
<path fill="none" stroke="midnightblue" d="M109.44,-650.09C130.73,-657.91 158.73,-667.71 184,-675 195.86,-678.42 208.82,-681.64 220.88,-684.43"/>
<polygon fill="midnightblue" stroke="midnightblue" points="110.45,-646.73 99.86,-646.54 108.02,-653.3 110.45,-646.73"/>
</g>
<!-- Node8&#45;&gt;Node31 -->
<g id="edge64" class="edge">
<title>Node8&#45;&gt;Node31</title>
<path fill="none" stroke="midnightblue" d="M138.29,-643.28C173.47,-646.77 215.27,-650.92 241.35,-653.5"/>
<polygon fill="midnightblue" stroke="midnightblue" points="138.39,-639.77 128.09,-642.27 137.69,-646.74 138.39,-639.77"/>
</g>
<!-- Node8&#45;&gt;Node32 -->
<g id="edge65" class="edge">
<title>Node8&#45;&gt;Node32</title>
<path fill="none" stroke="midnightblue" d="M138.13,-630.74C157.15,-628.85 178.12,-626.77 197.5,-624.85"/>
<polygon fill="midnightblue" stroke="midnightblue" points="137.69,-627.26 128.09,-631.73 138.39,-634.23 137.69,-627.26"/>
</g>
<!-- Node0 -->
<g id="node46" class="node">
<title>Node0</title>
<g id="a_node46"><a xlink:href="class_scalar_transport_time_derivative.html" target="_top" xlink:title=" ">
<polygon fill="white" stroke="black" points="191.5,-152.5 191.5,-171.5 343.5,-171.5 343.5,-152.5 191.5,-152.5"/>
<text text-anchor="middle" x="267.5" y="-159.5" font-family="Helvetica,sans-Serif" font-size="10.00">ScalarTransportTimeDerivative</text>
</a>
</g>
</g>
<!-- Node8&#45;&gt;Node0 -->
<g id="edge62" class="edge">
<title>Node8&#45;&gt;Node0</title>
<path fill="none" stroke="midnightblue" d="M82.34,-617.58C96.82,-578.58 129.3,-487.73 148,-409 159.86,-359.09 149.02,-218.51 184,-181 187.51,-177.24 191.6,-174.15 196.05,-171.62"/>
<polygon fill="midnightblue" stroke="midnightblue" points="78.98,-616.56 78.76,-627.15 85.54,-619.01 78.98,-616.56"/>
</g>
<!-- Node1 -->
<g id="node47" class="node">
<title>Node1</title>
<g id="a_node47"><a xlink:href="class_nt_time_derivative.html" target="_top" xlink:title=" ">
<polygon fill="white" stroke="black" points="426.5,-152.5 426.5,-171.5 519.5,-171.5 519.5,-152.5 426.5,-152.5"/>
<text text-anchor="middle" x="473" y="-159.5" font-family="Helvetica,sans-Serif" font-size="10.00">NtTimeDerivative</text>
</a>
</g>
</g>
<!-- Node0&#45;&gt;Node1 -->
<g id="edge63" class="edge">
<title>Node0&#45;&gt;Node1</title>
<path fill="none" stroke="midnightblue" d="M353.88,-162C378.75,-162 404.95,-162 426.35,-162"/>
<polygon fill="midnightblue" stroke="midnightblue" points="353.7,-158.5 343.7,-162 353.7,-165.5 353.7,-158.5"/>
</g>
<!-- Node3 -->
<g id="node48" class="node">
<title>Node3</title>
<g id="a_node48"><a xlink:title=" ">
<polygon fill="white" stroke="#bfbfbf" points="41,-152.5 41,-171.5 107,-171.5 107,-152.5 41,-152.5"/>
<text text-anchor="middle" x="74" y="-159.5" font-family="Helvetica,sans-Serif" font-size="10.00">TimeKernel</text>
</a>
</g>
</g>
<!-- Node3&#45;&gt;Node0 -->
<g id="edge67" class="edge">
<title>Node3&#45;&gt;Node0</title>
<path fill="none" stroke="midnightblue" d="M117.26,-162C138.99,-162 166.14,-162 191.3,-162"/>
<polygon fill="midnightblue" stroke="midnightblue" points="117.05,-158.5 107.05,-162 117.05,-165.5 117.05,-158.5"/>
</g>
</g>
</svg>
