<?xml version="1.0" encoding="UTF-8" standalone="no"?>
<!DOCTYPE svg PUBLIC "-//W3C//DTD SVG 1.1//EN"
 "http://www.w3.org/Graphics/SVG/1.1/DTD/svg11.dtd">
<!-- Generated by graphviz version 2.38.0 (20140413.2041)
 -->
<!-- Title: Graphical Class Hierarchy Pages: 1 -->
<svg width="255pt" height="66pt"
 viewBox="0.00 0.00 255.00 66.00" xmlns="http://www.w3.org/2000/svg" xmlns:xlink="http://www.w3.org/1999/xlink">
<g id="graph0" class="graph" transform="scale(1 1) rotate(0) translate(4 62)">
<title>Graphical Class Hierarchy</title>
<polygon fill="white" stroke="none" points="-4,4 -4,-62 251,-62 251,4 -4,4"/>
<!-- Node53 -->
<g id="node1" class="node"><title>Node53</title>
<polygon fill="white" stroke="#bfbfbf" points="0,-19.5 0,-38.5 97,-38.5 97,-19.5 0,-19.5"/>
<text text-anchor="middle" x="48.5" y="-26.5" font-family="Helvetica,sans-Serif" font-size="10.00">AddVariableAction</text>
</g>
<!-- Node0 -->
<g id="node2" class="node"><title>Node0</title>
<g id="a_node2"><a xlink:href="class_nt_action.html" target="_top" xlink:title="NtAction">
<polygon fill="white" stroke="black" points="162.5,-38.5 162.5,-57.5 217.5,-57.5 217.5,-38.5 162.5,-38.5"/>
<text text-anchor="middle" x="190" y="-45.5" font-family="Helvetica,sans-Serif" font-size="10.00">NtAction</text>
</a>
</g>
</g>
<!-- Node53&#45;&gt;Node0 -->
<g id="edge1" class="edge"><title>Node53&#45;&gt;Node0</title>
<path fill="none" stroke="midnightblue" d="M107.263,-36.8674C126.366,-39.4692 146.706,-42.2395 162.317,-44.3658"/>
<polygon fill="midnightblue" stroke="midnightblue" points="107.499,-33.3672 97.1178,-35.4856 106.554,-40.3032 107.499,-33.3672"/>
</g>
<!-- Node55 -->
<g id="node3" class="node"><title>Node55</title>
<g id="a_node3"><a xlink:href="class_precursor_kernel_action.html" target="_top" xlink:title="PrecursorKernelAction">
<polygon fill="white" stroke="black" points="133,-0.5 133,-19.5 247,-19.5 247,-0.5 133,-0.5"/>
<text text-anchor="middle" x="190" y="-7.5" font-family="Helvetica,sans-Serif" font-size="10.00">PrecursorKernelAction</text>
</a>
</g>
</g>
<!-- Node53&#45;&gt;Node55 -->
<g id="edge2" class="edge"><title>Node53&#45;&gt;Node55</title>
<path fill="none" stroke="midnightblue" d="M107.301,-21.1274C115.778,-19.9729 124.496,-18.7854 132.937,-17.6359"/>
<polygon fill="midnightblue" stroke="midnightblue" points="106.554,-17.6968 97.1178,-22.5144 107.499,-24.6328 106.554,-17.6968"/>
</g>
</g>
</svg>
