<?xml version="1.0" encoding="UTF-8" standalone="no"?>
<!DOCTYPE svg PUBLIC "-//W3C//DTD SVG 1.1//EN"
 "http://www.w3.org/Graphics/SVG/1.1/DTD/svg11.dtd">
<!-- Generated by graphviz version 2.43.0 (0)
 -->
<!-- Title: Graphical Class Hierarchy Pages: 1 -->
<svg width="592pt" height="146pt"
 viewBox="0.00 0.00 592.00 145.50" xmlns="http://www.w3.org/2000/svg" xmlns:xlink="http://www.w3.org/1999/xlink">
<g id="graph0" class="graph" transform="scale(1 1) rotate(0) translate(4 141.5)">
<title>Graphical Class Hierarchy</title>
<polygon fill="white" stroke="transparent" points="-4,4 -4,-141.5 588,-141.5 588,4 -4,4"/>
<!-- Node53 -->
<g id="node1" class="node">
<title>Node53</title>
<g id="a_node1"><a xlink:title=" ">
<polygon fill="white" stroke="#bfbfbf" points="0,-63.5 0,-82.5 125,-82.5 125,-63.5 0,-63.5"/>
<text text-anchor="middle" x="62.5" y="-70.5" font-family="Helvetica,sans-Serif" font-size="10.00">GenericConstantMaterial</text>
</a>
</g>
</g>
<!-- Node0 -->
<g id="node2" class="node">
<title>Node0</title>
<g id="a_node2"><a xlink:href="class_graphite_two_grp_x_s_function_material.html" target="_top" xlink:title=" ">
<polygon fill="white" stroke="black" points="163,-107 163,-137 301,-137 301,-107 163,-107"/>
<text text-anchor="start" x="171" y="-125" font-family="Helvetica,sans-Serif" font-size="10.00">GraphiteTwoGrpXSFunction</text>
<text text-anchor="middle" x="232" y="-114" font-family="Helvetica,sans-Serif" font-size="10.00">Material</text>
</a>
</g>
</g>
<!-- Node53&#45;&gt;Node0 -->
<g id="edge1" class="edge">
<title>Node53&#45;&gt;Node0</title>
<path fill="none" stroke="midnightblue" d="M106.07,-85.45C128.45,-92 156.04,-100.07 179.6,-106.96"/>
<polygon fill="midnightblue" stroke="midnightblue" points="106.77,-82.01 96.19,-82.56 104.81,-88.73 106.77,-82.01"/>
</g>
<!-- Node55 -->
<g id="node3" class="node">
<title>Node55</title>
<g id="a_node3"><a xlink:href="class_msre_fuel_two_grp_x_s_function_material.html" target="_top" xlink:title=" ">
<polygon fill="white" stroke="black" points="161,-58 161,-88 303,-88 303,-58 161,-58"/>
<text text-anchor="start" x="169" y="-76" font-family="Helvetica,sans-Serif" font-size="10.00">MsreFuelTwoGrpXSFunction</text>
<text text-anchor="middle" x="232" y="-65" font-family="Helvetica,sans-Serif" font-size="10.00">Material</text>
</a>
</g>
</g>
<!-- Node53&#45;&gt;Node55 -->
<g id="edge2" class="edge">
<title>Node53&#45;&gt;Node55</title>
<path fill="none" stroke="midnightblue" d="M135.54,-73C143.95,-73 152.51,-73 160.89,-73"/>
<polygon fill="midnightblue" stroke="midnightblue" points="135.39,-69.5 125.39,-73 135.39,-76.5 135.39,-69.5"/>
</g>
<!-- Node56 -->
<g id="node4" class="node">
<title>Node56</title>
<g id="a_node4"><a xlink:href="class_nuclear_material.html" target="_top" xlink:title=" ">
<polygon fill="white" stroke="black" points="189.5,-19.5 189.5,-38.5 274.5,-38.5 274.5,-19.5 189.5,-19.5"/>
<text text-anchor="middle" x="232" y="-26.5" font-family="Helvetica,sans-Serif" font-size="10.00">NuclearMaterial</text>
</a>
</g>
</g>
<!-- Node53&#45;&gt;Node56 -->
<g id="edge3" class="edge">
<title>Node53&#45;&gt;Node56</title>
<path fill="none" stroke="midnightblue" d="M109.77,-60.85C136.57,-53.8 169.83,-45.07 194.73,-38.53"/>
<polygon fill="midnightblue" stroke="midnightblue" points="108.63,-57.53 99.85,-63.45 110.41,-64.3 108.63,-57.53"/>
</g>
<!-- Node57 -->
<g id="node5" class="node">
<title>Node57</title>
<g id="a_node5"><a xlink:href="class_generic_moltres_material.html" target="_top" xlink:title=" ">
<polygon fill="white" stroke="black" points="339,-38.5 339,-57.5 456,-57.5 456,-38.5 339,-38.5"/>
<text text-anchor="middle" x="397.5" y="-45.5" font-family="Helvetica,sans-Serif" font-size="10.00">GenericMoltresMaterial</text>
</a>
</g>
</g>
<!-- Node56&#45;&gt;Node57 -->
<g id="edge4" class="edge">
<title>Node56&#45;&gt;Node57</title>
<path fill="none" stroke="midnightblue" d="M285.06,-35.05C302.19,-37.04 321.33,-39.27 338.86,-41.3"/>
<polygon fill="midnightblue" stroke="midnightblue" points="285.02,-31.52 274.68,-33.84 284.21,-38.47 285.02,-31.52"/>
</g>
<!-- Node61 -->
<g id="node9" class="node">
<title>Node61</title>
<g id="a_node9"><a xlink:href="class_moltres_json_material.html" target="_top" xlink:title=" ">
<polygon fill="white" stroke="black" points="345.5,-0.5 345.5,-19.5 449.5,-19.5 449.5,-0.5 345.5,-0.5"/>
<text text-anchor="middle" x="397.5" y="-7.5" font-family="Helvetica,sans-Serif" font-size="10.00">MoltresJsonMaterial</text>
</a>
</g>
</g>
<!-- Node56&#45;&gt;Node61 -->
<g id="edge8" class="edge">
<title>Node56&#45;&gt;Node61</title>
<path fill="none" stroke="midnightblue" d="M284.81,-22.98C304.11,-20.74 326,-18.19 345.25,-15.96"/>
<polygon fill="midnightblue" stroke="midnightblue" points="284.21,-19.53 274.68,-24.16 285.02,-26.48 284.21,-19.53"/>
</g>
<!-- Node58 -->
<g id="node6" class="node">
<title>Node58</title>
<g id="a_node6"><a xlink:href="class_cammi_fuel.html" target="_top" xlink:title=" ">
<polygon fill="white" stroke="black" points="504.5,-76.5 504.5,-95.5 571.5,-95.5 571.5,-76.5 504.5,-76.5"/>
<text text-anchor="middle" x="538" y="-83.5" font-family="Helvetica,sans-Serif" font-size="10.00">CammiFuel</text>
</a>
</g>
</g>
<!-- Node57&#45;&gt;Node58 -->
<g id="edge5" class="edge">
<title>Node57&#45;&gt;Node58</title>
<path fill="none" stroke="midnightblue" d="M443.24,-60.28C463.16,-65.74 486.19,-72.06 504.44,-77.07"/>
<polygon fill="midnightblue" stroke="midnightblue" points="444.02,-56.86 433.45,-57.59 442.17,-63.61 444.02,-56.86"/>
</g>
<!-- Node59 -->
<g id="node7" class="node">
<title>Node59</title>
<g id="a_node7"><a xlink:href="class_cammi_moderator.html" target="_top" xlink:title=" ">
<polygon fill="white" stroke="black" points="492,-38.5 492,-57.5 584,-57.5 584,-38.5 492,-38.5"/>
<text text-anchor="middle" x="538" y="-45.5" font-family="Helvetica,sans-Serif" font-size="10.00">CammiModerator</text>
</a>
</g>
</g>
<!-- Node57&#45;&gt;Node59 -->
<g id="edge6" class="edge">
<title>Node57&#45;&gt;Node59</title>
<path fill="none" stroke="midnightblue" d="M466.15,-48C474.8,-48 483.49,-48 491.67,-48"/>
<polygon fill="midnightblue" stroke="midnightblue" points="466.03,-44.5 456.03,-48 466.03,-51.5 466.03,-44.5"/>
</g>
<!-- Node60 -->
<g id="node8" class="node">
<title>Node60</title>
<g id="a_node8"><a xlink:href="class_rodded_material.html" target="_top" xlink:title=" ">
<polygon fill="white" stroke="black" points="495.5,-0.5 495.5,-19.5 580.5,-19.5 580.5,-0.5 495.5,-0.5"/>
<text text-anchor="middle" x="538" y="-7.5" font-family="Helvetica,sans-Serif" font-size="10.00">RoddedMaterial</text>
</a>
</g>
</g>
<!-- Node57&#45;&gt;Node60 -->
<g id="edge7" class="edge">
<title>Node57&#45;&gt;Node60</title>
<path fill="none" stroke="midnightblue" d="M443.13,-35.75C462.22,-30.52 484.18,-24.49 502.06,-19.59"/>
<polygon fill="midnightblue" stroke="midnightblue" points="442.17,-32.39 433.45,-38.41 444.02,-39.14 442.17,-32.39"/>
</g>
</g>
</svg>
