<?xml version="1.0" encoding="UTF-8" standalone="no"?>
<!DOCTYPE svg PUBLIC "-//W3C//DTD SVG 1.1//EN"
 "http://www.w3.org/Graphics/SVG/1.1/DTD/svg11.dtd">
<!-- Generated by graphviz version 2.38.0 (20140413.2041)
 -->
<!-- Title: Graphical Class Hierarchy Pages: 1 -->
<svg width="223pt" height="66pt"
 viewBox="0.00 0.00 223.00 66.00" xmlns="http://www.w3.org/2000/svg" xmlns:xlink="http://www.w3.org/1999/xlink">
<g id="graph0" class="graph" transform="scale(1 1) rotate(0) translate(4 62)">
<title>Graphical Class Hierarchy</title>
<polygon fill="white" stroke="none" points="-4,4 -4,-62 219,-62 219,4 -4,4"/>
<!-- Node50 -->
<g id="node1" class="node"><title>Node50</title>
<polygon fill="white" stroke="#bfbfbf" points="0,-19.5 0,-38.5 62,-38.5 62,-19.5 0,-19.5"/>
<text text-anchor="middle" x="31" y="-26.5" font-family="Helvetica,sans-Serif" font-size="10.00">AuxKernel</text>
</g>
<!-- Node0 -->
<g id="node2" class="node"><title>Node0</title>
<g id="a_node2"><a xlink:href="class_fission_heat_source_aux.html" target="_top" xlink:title="FissionHeatSourceAux">
<polygon fill="white" stroke="black" points="98,-38.5 98,-57.5 215,-57.5 215,-38.5 98,-38.5"/>
<text text-anchor="middle" x="156.5" y="-45.5" font-family="Helvetica,sans-Serif" font-size="10.00">FissionHeatSourceAux</text>
</a>
</g>
</g>
<!-- Node50&#45;&gt;Node0 -->
<g id="edge1" class="edge"><title>Node50&#45;&gt;Node0</title>
<path fill="none" stroke="midnightblue" d="M72.1585,-35.1782C80.2927,-36.4297 88.9989,-37.7691 97.6048,-39.093"/>
<polygon fill="midnightblue" stroke="midnightblue" points="72.6274,-31.7093 62.2115,-33.6479 71.563,-38.6279 72.6274,-31.7093"/>
</g>
<!-- Node52 -->
<g id="node3" class="node"><title>Node52</title>
<g id="a_node3"><a xlink:href="class_mat_diffusion_aux.html" target="_top" xlink:title="MatDiffusionAux">
<polygon fill="white" stroke="black" points="112,-0.5 112,-19.5 201,-19.5 201,-0.5 112,-0.5"/>
<text text-anchor="middle" x="156.5" y="-7.5" font-family="Helvetica,sans-Serif" font-size="10.00">MatDiffusionAux</text>
</a>
</g>
</g>
<!-- Node50&#45;&gt;Node52 -->
<g id="edge2" class="edge"><title>Node50&#45;&gt;Node52</title>
<path fill="none" stroke="midnightblue" d="M72.3828,-22.7873C84.9317,-20.8567 98.8235,-18.7195 111.6,-16.7539"/>
<polygon fill="midnightblue" stroke="midnightblue" points="71.563,-19.3721 62.2115,-24.3521 72.6274,-26.2907 71.563,-19.3721"/>
</g>
</g>
</svg>
