<?xml version="1.0" encoding="UTF-8" standalone="no"?>
<!DOCTYPE svg PUBLIC "-//W3C//DTD SVG 1.1//EN"
 "http://www.w3.org/Graphics/SVG/1.1/DTD/svg11.dtd">
<!-- Generated by graphviz version 2.38.0 (20140413.2041)
 -->
<!-- Title: Graphical Class Hierarchy Pages: 1 -->
<svg width="709pt" height="1148pt"
 viewBox="0.00 0.00 709.00 1148.00" xmlns="http://www.w3.org/2000/svg" xmlns:xlink="http://www.w3.org/1999/xlink">
<g id="graph0" class="graph" transform="scale(1 1) rotate(0) translate(4 1144)">
<title>Graphical Class Hierarchy</title>
<polygon fill="white" stroke="none" points="-4,4 -4,-1144 705,-1144 705,4 -4,4"/>
<!-- Node46 -->
<g id="node1" class="node"><title>Node46</title>
<polygon fill="white" stroke="#bfbfbf" points="39.5,-1091.5 39.5,-1110.5 108.5,-1110.5 108.5,-1091.5 39.5,-1091.5"/>
<text text-anchor="middle" x="74" y="-1098.5" font-family="Helvetica,sans-Serif" font-size="10.00">EigenKernel</text>
</g>
<!-- Node4 -->
<g id="node2" class="node"><title>Node4</title>
<g id="a_node2"><a xlink:href="class_coupled_fission_eigen_kernel.html" target="_top" xlink:title="CoupledFissionEigenKernel">
<polygon fill="white" stroke="black" points="199,-1082.5 199,-1101.5 336,-1101.5 336,-1082.5 199,-1082.5"/>
<text text-anchor="middle" x="267.5" y="-1089.5" font-family="Helvetica,sans-Serif" font-size="10.00">CoupledFissionEigenKernel</text>
</a>
</g>
</g>
<!-- Node46&#45;&gt;Node4 -->
<g id="edge1" class="edge"><title>Node46&#45;&gt;Node4</title>
<path fill="none" stroke="midnightblue" d="M118.888,-1098.94C142.587,-1097.82 172.356,-1096.42 198.942,-1095.18"/>
<polygon fill="midnightblue" stroke="midnightblue" points="118.62,-1095.45 108.796,-1099.41 118.949,-1102.44 118.62,-1095.45"/>
</g>
<!-- Node47 -->
<g id="node3" class="node"><title>Node47</title>
<g id="a_node3"><a xlink:href="class_self_fission_eigen_kernel.html" target="_top" xlink:title="SelfFissionEigenKernel">
<polygon fill="white" stroke="black" points="208.5,-1120.5 208.5,-1139.5 326.5,-1139.5 326.5,-1120.5 208.5,-1120.5"/>
<text text-anchor="middle" x="267.5" y="-1127.5" font-family="Helvetica,sans-Serif" font-size="10.00">SelfFissionEigenKernel</text>
</a>
</g>
</g>
<!-- Node46&#45;&gt;Node47 -->
<g id="edge2" class="edge"><title>Node46&#45;&gt;Node47</title>
<path fill="none" stroke="midnightblue" d="M118.921,-1107.65C145.43,-1111.67 179.525,-1116.83 208.264,-1121.18"/>
<polygon fill="midnightblue" stroke="midnightblue" points="119.207,-1104.15 108.796,-1106.12 118.159,-1111.08 119.207,-1104.15"/>
</g>
<!-- Node44 -->
<g id="node4" class="node"><title>Node44</title>
<polygon fill="white" stroke="#bfbfbf" points="0,-982.5 0,-1001.5 148,-1001.5 148,-982.5 0,-982.5"/>
<text text-anchor="middle" x="74" y="-989.5" font-family="Helvetica,sans-Serif" font-size="10.00">ElementIntegralPostprocessor</text>
</g>
<!-- Node45 -->
<g id="node5" class="node"><title>Node45</title>
<g id="a_node5"><a xlink:href="class_elm_integ_tot_fiss_nts_postprocessor.html" target="_top" xlink:title="ElmIntegTotFissNtsPostprocessor">
<polygon fill="white" stroke="black" points="184,-1006.5 184,-1025.5 351,-1025.5 351,-1006.5 184,-1006.5"/>
<text text-anchor="middle" x="267.5" y="-1013.5" font-family="Helvetica,sans-Serif" font-size="10.00">ElmIntegTotFissNtsPostprocessor</text>
</a>
</g>
</g>
<!-- Node44&#45;&gt;Node45 -->
<g id="edge3" class="edge"><title>Node44&#45;&gt;Node45</title>
<path fill="none" stroke="midnightblue" d="M158.367,-1002.45C169.038,-1003.79 179.917,-1005.15 190.463,-1006.47"/>
<polygon fill="midnightblue" stroke="midnightblue" points="158.575,-998.947 148.218,-1001.18 157.705,-1005.89 158.575,-998.947"/>
</g>
<!-- Node10 -->
<g id="node6" class="node"><title>Node10</title>
<g id="a_node6"><a xlink:href="class_elm_integ_tot_fiss_postprocessor.html" target="_top" xlink:title="ElmIntegTotFissPostprocessor">
<polygon fill="white" stroke="black" points="191.5,-854.5 191.5,-873.5 343.5,-873.5 343.5,-854.5 191.5,-854.5"/>
<text text-anchor="middle" x="267.5" y="-861.5" font-family="Helvetica,sans-Serif" font-size="10.00">ElmIntegTotFissPostprocessor</text>
</a>
</g>
</g>
<!-- Node44&#45;&gt;Node10 -->
<g id="edge4" class="edge"><title>Node44&#45;&gt;Node10</title>
<path fill="none" stroke="midnightblue" d="M87.7888,-973.967C106.179,-949.442 142.484,-905.998 184,-883 191.071,-879.083 198.912,-875.972 206.866,-873.501"/>
<polygon fill="midnightblue" stroke="midnightblue" points="84.7285,-972.222 81.6443,-982.358 90.3762,-976.357 84.7285,-972.222"/>
</g>
<!-- Node15 -->
<g id="node9" class="node"><title>Node15</title>
<g id="a_node9"><a xlink:href="class_integral_new_variable_postprocessor.html" target="_top" xlink:title="IntegralNewVariablePostprocessor">
<polygon fill="white" stroke="black" points="184,-968.5 184,-987.5 351,-987.5 351,-968.5 184,-968.5"/>
<text text-anchor="middle" x="267.5" y="-975.5" font-family="Helvetica,sans-Serif" font-size="10.00">IntegralNewVariablePostprocessor</text>
</a>
</g>
</g>
<!-- Node44&#45;&gt;Node15 -->
<g id="edge7" class="edge"><title>Node44&#45;&gt;Node15</title>
<path fill="none" stroke="midnightblue" d="M158.39,-985.904C166.796,-985.289 175.331,-984.665 183.731,-984.051"/>
<polygon fill="midnightblue" stroke="midnightblue" points="157.936,-982.427 148.218,-986.647 158.446,-989.409 157.936,-982.427"/>
</g>
<!-- Node16 -->
<g id="node10" class="node"><title>Node16</title>
<g id="a_node10"><a xlink:href="class_integral_old_variable_postprocessor.html" target="_top" xlink:title="IntegralOldVariablePostprocessor">
<polygon fill="white" stroke="black" points="186.5,-1044.5 186.5,-1063.5 348.5,-1063.5 348.5,-1044.5 186.5,-1044.5"/>
<text text-anchor="middle" x="267.5" y="-1051.5" font-family="Helvetica,sans-Serif" font-size="10.00">IntegralOldVariablePostprocessor</text>
</a>
</g>
</g>
<!-- Node44&#45;&gt;Node16 -->
<g id="edge8" class="edge"><title>Node44&#45;&gt;Node16</title>
<path fill="none" stroke="midnightblue" d="M105.686,-1005.53C127.288,-1014.7 157.044,-1026.63 184,-1035 195.37,-1038.53 207.804,-1041.73 219.491,-1044.45"/>
<polygon fill="midnightblue" stroke="midnightblue" points="106.944,-1002.26 96.3744,-1001.53 104.183,-1008.69 106.944,-1002.26"/>
</g>
<!-- Node11 -->
<g id="node7" class="node"><title>Node11</title>
<g id="a_node7"><a xlink:href="class_elm_integ_tot_fiss_heat_postprocessor.html" target="_top" xlink:title="ElmIntegTotFissHeatPostprocessor">
<polygon fill="white" stroke="black" points="387,-854.5 387,-873.5 560,-873.5 560,-854.5 387,-854.5"/>
<text text-anchor="middle" x="473.5" y="-861.5" font-family="Helvetica,sans-Serif" font-size="10.00">ElmIntegTotFissHeatPostprocessor</text>
</a>
</g>
</g>
<!-- Node10&#45;&gt;Node11 -->
<g id="edge5" class="edge"><title>Node10&#45;&gt;Node11</title>
<path fill="none" stroke="midnightblue" d="M353.604,-864C364.605,-864 375.875,-864 386.884,-864"/>
<polygon fill="midnightblue" stroke="midnightblue" points="353.593,-860.5 343.593,-864 353.593,-867.5 353.593,-860.5"/>
</g>
<!-- Node12 -->
<g id="node8" class="node"><title>Node12</title>
<g id="a_node8"><a xlink:href="class_average_fission_heat.html" target="_top" xlink:title="AverageFissionHeat">
<polygon fill="white" stroke="black" points="596,-854.5 596,-873.5 701,-873.5 701,-854.5 596,-854.5"/>
<text text-anchor="middle" x="648.5" y="-861.5" font-family="Helvetica,sans-Serif" font-size="10.00">AverageFissionHeat</text>
</a>
</g>
</g>
<!-- Node11&#45;&gt;Node12 -->
<g id="edge6" class="edge"><title>Node11&#45;&gt;Node12</title>
<path fill="none" stroke="midnightblue" d="M570.403,-864C579.03,-864 587.53,-864 595.555,-864"/>
<polygon fill="midnightblue" stroke="midnightblue" points="570.24,-860.5 560.24,-864 570.24,-867.5 570.24,-860.5"/>
</g>
<!-- Node32 -->
<g id="node11" class="node"><title>Node32</title>
<polygon fill="white" stroke="#bfbfbf" points="37,-740.5 37,-759.5 111,-759.5 111,-740.5 37,-740.5"/>
<text text-anchor="middle" x="74" y="-747.5" font-family="Helvetica,sans-Serif" font-size="10.00">IntegratedBC</text>
</g>
<!-- Node33 -->
<g id="node12" class="node"><title>Node33</title>
<g id="a_node12"><a xlink:href="class_conservative_advection_no_b_c_b_c.html" target="_top" xlink:title="ConservativeAdvectionNoBCBC">
<polygon fill="white" stroke="black" points="188,-930.5 188,-949.5 347,-949.5 347,-930.5 188,-930.5"/>
<text text-anchor="middle" x="267.5" y="-937.5" font-family="Helvetica,sans-Serif" font-size="10.00">ConservativeAdvectionNoBCBC</text>
</a>
</g>
</g>
<!-- Node32&#45;&gt;Node33 -->
<g id="edge9" class="edge"><title>Node32&#45;&gt;Node33</title>
<path fill="none" stroke="midnightblue" d="M81.652,-769.338C95.0354,-805.217 128.748,-881.984 184,-921 189.523,-924.9 195.725,-928.012 202.183,-930.493"/>
<polygon fill="midnightblue" stroke="midnightblue" points="84.8283,-767.828 78.1499,-759.603 78.2416,-770.197 84.8283,-767.828"/>
</g>
<!-- Node7 -->
<g id="node13" class="node"><title>Node7</title>
<g id="a_node13"><a xlink:href="class_coupled_scalar_advection_no_b_c_b_c.html" target="_top" xlink:title="CoupledScalarAdvectionNoBCBC">
<polygon fill="white" stroke="black" points="185,-702.5 185,-721.5 350,-721.5 350,-702.5 185,-702.5"/>
<text text-anchor="middle" x="267.5" y="-709.5" font-family="Helvetica,sans-Serif" font-size="10.00">CoupledScalarAdvectionNoBCBC</text>
</a>
</g>
</g>
<!-- Node32&#45;&gt;Node7 -->
<g id="edge10" class="edge"><title>Node32&#45;&gt;Node7</title>
<path fill="none" stroke="midnightblue" d="M121.035,-740.865C150.45,-735.028 188.528,-727.472 218.346,-721.555"/>
<polygon fill="midnightblue" stroke="midnightblue" points="120.147,-737.473 111.02,-742.852 121.51,-744.339 120.147,-737.473"/>
</g>
<!-- Node34 -->
<g id="node14" class="node"><title>Node34</title>
<g id="a_node14"><a xlink:href="class_diffusion_no_b_c_b_c.html" target="_top" xlink:title="DiffusionNoBCBC">
<polygon fill="white" stroke="black" points="219,-892.5 219,-911.5 316,-911.5 316,-892.5 219,-892.5"/>
<text text-anchor="middle" x="267.5" y="-899.5" font-family="Helvetica,sans-Serif" font-size="10.00">DiffusionNoBCBC</text>
</a>
</g>
</g>
<!-- Node32&#45;&gt;Node34 -->
<g id="edge11" class="edge"><title>Node32&#45;&gt;Node34</title>
<path fill="none" stroke="midnightblue" d="M84.8661,-768.641C101.328,-797.835 137.253,-853.997 184,-883 194.366,-889.431 206.683,-893.69 218.595,-896.508"/>
<polygon fill="midnightblue" stroke="midnightblue" points="87.7462,-766.614 79.8693,-759.528 81.6083,-769.979 87.7462,-766.614"/>
</g>
<!-- Node35 -->
<g id="node15" class="node"><title>Node35</title>
<g id="a_node15"><a xlink:href="class_i_n_s_outflow_b_c.html" target="_top" xlink:title="INSOutflowBC">
<polygon fill="white" stroke="black" points="226.5,-816.5 226.5,-835.5 308.5,-835.5 308.5,-816.5 226.5,-816.5"/>
<text text-anchor="middle" x="267.5" y="-823.5" font-family="Helvetica,sans-Serif" font-size="10.00">INSOutflowBC</text>
</a>
</g>
</g>
<!-- Node32&#45;&gt;Node35 -->
<g id="edge12" class="edge"><title>Node32&#45;&gt;Node35</title>
<path fill="none" stroke="midnightblue" d="M99.0898,-764.895C120.646,-777.656 153.466,-795.712 184,-807 197.51,-811.994 212.767,-815.949 226.453,-818.929"/>
<polygon fill="midnightblue" stroke="midnightblue" points="100.678,-761.766 90.3038,-759.616 97.0734,-767.767 100.678,-761.766"/>
</g>
<!-- Node36 -->
<g id="node16" class="node"><title>Node36</title>
<g id="a_node16"><a xlink:href="class_i_n_s_symmetry_axis_b_c.html" target="_top" xlink:title="INSSymmetryAxisBC">
<polygon fill="white" stroke="black" points="211,-778.5 211,-797.5 324,-797.5 324,-778.5 211,-778.5"/>
<text text-anchor="middle" x="267.5" y="-785.5" font-family="Helvetica,sans-Serif" font-size="10.00">INSSymmetryAxisBC</text>
</a>
</g>
</g>
<!-- Node32&#45;&gt;Node36 -->
<g id="edge13" class="edge"><title>Node32&#45;&gt;Node36</title>
<path fill="none" stroke="midnightblue" d="M121.035,-759.135C150.45,-764.972 188.528,-772.528 218.346,-778.445"/>
<polygon fill="midnightblue" stroke="midnightblue" points="121.51,-755.661 111.02,-757.148 120.147,-762.527 121.51,-755.661"/>
</g>
<!-- Node17 -->
<g id="node17" class="node"><title>Node17</title>
<g id="a_node17"><a xlink:href="class_lin_log_penalty_dirichlet_b_c.html" target="_top" xlink:title="LinLogPenaltyDirichletBC">
<polygon fill="white" stroke="black" points="203.5,-664.5 203.5,-683.5 331.5,-683.5 331.5,-664.5 203.5,-664.5"/>
<text text-anchor="middle" x="267.5" y="-671.5" font-family="Helvetica,sans-Serif" font-size="10.00">LinLogPenaltyDirichletBC</text>
</a>
</g>
</g>
<!-- Node32&#45;&gt;Node17 -->
<g id="edge14" class="edge"><title>Node32&#45;&gt;Node17</title>
<path fill="none" stroke="midnightblue" d="M99.0898,-735.105C120.646,-722.344 153.466,-704.288 184,-693 194.064,-689.28 205.096,-686.136 215.727,-683.543"/>
<polygon fill="midnightblue" stroke="midnightblue" points="97.0734,-732.233 90.3038,-740.384 100.678,-738.234 97.0734,-732.233"/>
</g>
<!-- Node37 -->
<g id="node18" class="node"><title>Node37</title>
<g id="a_node18"><a xlink:href="class_mat_diffusion_flux_b_c.html" target="_top" xlink:title="MatDiffusionFluxBC">
<polygon fill="white" stroke="black" points="215,-740.5 215,-759.5 320,-759.5 320,-740.5 215,-740.5"/>
<text text-anchor="middle" x="267.5" y="-747.5" font-family="Helvetica,sans-Serif" font-size="10.00">MatDiffusionFluxBC</text>
</a>
</g>
</g>
<!-- Node32&#45;&gt;Node37 -->
<g id="edge15" class="edge"><title>Node32&#45;&gt;Node37</title>
<path fill="none" stroke="midnightblue" d="M121.035,-750C149.276,-750 185.501,-750 214.736,-750"/>
<polygon fill="midnightblue" stroke="midnightblue" points="121.02,-746.5 111.02,-750 121.02,-753.5 121.02,-746.5"/>
</g>
<!-- Node21 -->
<g id="node19" class="node"><title>Node21</title>
<g id="a_node19"><a xlink:href="class_scalar_advection_art_diff_no_b_c_b_c.html" target="_top" xlink:title="ScalarAdvectionArtDiffNoBCBC">
<polygon fill="white" stroke="black" points="188.5,-626.5 188.5,-645.5 346.5,-645.5 346.5,-626.5 188.5,-626.5"/>
<text text-anchor="middle" x="267.5" y="-633.5" font-family="Helvetica,sans-Serif" font-size="10.00">ScalarAdvectionArtDiffNoBCBC</text>
</a>
</g>
</g>
<!-- Node32&#45;&gt;Node21 -->
<g id="edge16" class="edge"><title>Node32&#45;&gt;Node21</title>
<path fill="none" stroke="midnightblue" d="M89.7335,-732.75C109.123,-711.191 145.307,-674.734 184,-655 191.594,-651.127 199.982,-648.034 208.414,-645.565"/>
<polygon fill="midnightblue" stroke="midnightblue" points="86.9143,-730.656 82.9331,-740.474 92.1682,-735.282 86.9143,-730.656"/>
</g>
<!-- Node24 -->
<g id="node20" class="node"><title>Node24</title>
<g id="a_node20"><a xlink:href="class_vacuum_conc_b_c.html" target="_top" xlink:title="VacuumConcBC">
<polygon fill="white" stroke="black" points="222.5,-588.5 222.5,-607.5 312.5,-607.5 312.5,-588.5 222.5,-588.5"/>
<text text-anchor="middle" x="267.5" y="-595.5" font-family="Helvetica,sans-Serif" font-size="10.00">VacuumConcBC</text>
</a>
</g>
</g>
<!-- Node32&#45;&gt;Node24 -->
<g id="edge17" class="edge"><title>Node32&#45;&gt;Node24</title>
<path fill="none" stroke="midnightblue" d="M84.8661,-731.359C101.328,-702.165 137.253,-646.003 184,-617 195.49,-609.871 209.377,-605.412 222.453,-602.625"/>
<polygon fill="midnightblue" stroke="midnightblue" points="81.6083,-730.021 79.8693,-740.472 87.7462,-733.386 81.6083,-730.021"/>
</g>
<!-- Node28 -->
<g id="node21" class="node"><title>Node28</title>
<polygon fill="white" stroke="#bfbfbf" points="52,-247.5 52,-266.5 96,-266.5 96,-247.5 52,-247.5"/>
<text text-anchor="middle" x="74" y="-254.5" font-family="Helvetica,sans-Serif" font-size="10.00">Kernel</text>
</g>
<!-- Node5 -->
<g id="node22" class="node"><title>Node5</title>
<g id="a_node22"><a xlink:href="class_coupled_fission_kernel.html" target="_top" xlink:title="CoupledFissionKernel">
<polygon fill="white" stroke="black" points="211.5,-190.5 211.5,-209.5 323.5,-209.5 323.5,-190.5 211.5,-190.5"/>
<text text-anchor="middle" x="267.5" y="-197.5" font-family="Helvetica,sans-Serif" font-size="10.00">CoupledFissionKernel</text>
</a>
</g>
</g>
<!-- Node28&#45;&gt;Node5 -->
<g id="edge18" class="edge"><title>Node28&#45;&gt;Node5</title>
<path fill="none" stroke="midnightblue" d="M105.726,-245.28C127.406,-237.26 157.238,-226.722 184,-219 195.862,-215.577 208.822,-212.355 220.883,-209.57"/>
<polygon fill="midnightblue" stroke="midnightblue" points="104.228,-242.104 96.0834,-248.88 106.676,-248.661 104.228,-242.104"/>
</g>
<!-- Node6 -->
<g id="node23" class="node"><title>Node6</title>
<g id="a_node23"><a xlink:href="class_coupled_scalar_advection.html" target="_top" xlink:title="CoupledScalarAdvection">
<polygon fill="white" stroke="black" points="205.5,-152.5 205.5,-171.5 329.5,-171.5 329.5,-152.5 205.5,-152.5"/>
<text text-anchor="middle" x="267.5" y="-159.5" font-family="Helvetica,sans-Serif" font-size="10.00">CoupledScalarAdvection</text>
</a>
</g>
</g>
<!-- Node28&#45;&gt;Node6 -->
<g id="edge19" class="edge"><title>Node28&#45;&gt;Node6</title>
<path fill="none" stroke="midnightblue" d="M93.2502,-240.944C113.883,-223.625 149.157,-196.46 184,-181 192.598,-177.185 202.054,-174.09 211.4,-171.593"/>
<polygon fill="midnightblue" stroke="midnightblue" points="90.9238,-238.328 85.5951,-247.485 95.4713,-243.65 90.9238,-238.328"/>
</g>
<!-- Node8 -->
<g id="node24" class="node"><title>Node8</title>
<g id="a_node24"><a xlink:href="class_delayed_neutron_source.html" target="_top" xlink:title="DelayedNeutronSource">
<polygon fill="white" stroke="black" points="208.5,-114.5 208.5,-133.5 326.5,-133.5 326.5,-114.5 208.5,-114.5"/>
<text text-anchor="middle" x="267.5" y="-121.5" font-family="Helvetica,sans-Serif" font-size="10.00">DelayedNeutronSource</text>
</a>
</g>
</g>
<!-- Node28&#45;&gt;Node8 -->
<g id="edge20" class="edge"><title>Node28&#45;&gt;Node8</title>
<path fill="none" stroke="midnightblue" d="M87.0828,-238.847C105.072,-213.32 141.389,-167.233 184,-143 191.41,-138.786 199.698,-135.506 208.084,-132.953"/>
<polygon fill="midnightblue" stroke="midnightblue" points="84.0911,-237.02 81.3067,-247.243 89.8581,-240.988 84.0911,-237.02"/>
</g>
<!-- Node9 -->
<g id="node25" class="node"><title>Node9</title>
<g id="a_node25"><a xlink:href="class_div_free_coupled_scalar_advection.html" target="_top" xlink:title="DivFreeCoupledScalarAdvection">
<polygon fill="white" stroke="black" points="188.5,-494.5 188.5,-513.5 346.5,-513.5 346.5,-494.5 188.5,-494.5"/>
<text text-anchor="middle" x="267.5" y="-501.5" font-family="Helvetica,sans-Serif" font-size="10.00">DivFreeCoupledScalarAdvection</text>
</a>
</g>
</g>
<!-- Node28&#45;&gt;Node9 -->
<g id="edge21" class="edge"><title>Node28&#45;&gt;Node9</title>
<path fill="none" stroke="midnightblue" d="M78.4632,-276.717C87.363,-321.244 115.341,-429.976 184,-485 188.817,-488.86 194.274,-491.966 200.032,-494.459"/>
<polygon fill="midnightblue" stroke="midnightblue" points="81.8527,-275.803 76.5585,-266.626 74.9742,-277.102 81.8527,-275.803"/>
</g>
<!-- Node29 -->
<g id="node26" class="node"><title>Node29</title>
<g id="a_node26"><a xlink:href="class_fission_heat_source.html" target="_top" xlink:title="FissionHeatSource">
<polygon fill="white" stroke="black" points="217.5,-76.5 217.5,-95.5 317.5,-95.5 317.5,-76.5 217.5,-76.5"/>
<text text-anchor="middle" x="267.5" y="-83.5" font-family="Helvetica,sans-Serif" font-size="10.00">FissionHeatSource</text>
</a>
</g>
</g>
<!-- Node28&#45;&gt;Node29 -->
<g id="edge22" class="edge"><title>Node28&#45;&gt;Node29</title>
<path fill="none" stroke="midnightblue" d="M83.0905,-237.993C98.0025,-205.367 133.029,-138.945 184,-105 193.909,-98.4009 205.807,-94.0757 217.443,-91.246"/>
<polygon fill="midnightblue" stroke="midnightblue" points="79.8114,-236.754 78.961,-247.315 86.2115,-239.59 79.8114,-236.754"/>
</g>
<!-- Node30 -->
<g id="node27" class="node"><title>Node30</title>
<g id="a_node27"><a xlink:href="class_gamma_heat_source.html" target="_top" xlink:title="GammaHeatSource">
<polygon fill="white" stroke="black" points="216,-38.5 216,-57.5 319,-57.5 319,-38.5 216,-38.5"/>
<text text-anchor="middle" x="267.5" y="-45.5" font-family="Helvetica,sans-Serif" font-size="10.00">GammaHeatSource</text>
</a>
</g>
</g>
<!-- Node28&#45;&gt;Node30 -->
<g id="edge23" class="edge"><title>Node28&#45;&gt;Node30</title>
<path fill="none" stroke="midnightblue" d="M80.4366,-237.417C92.3086,-198.465 124.38,-111.219 184,-67 193.208,-60.1705 204.464,-55.7389 215.665,-52.878"/>
<polygon fill="midnightblue" stroke="midnightblue" points="77.0086,-236.67 77.5608,-247.25 83.7271,-238.635 77.0086,-236.67"/>
</g>
<!-- Node13 -->
<g id="node28" class="node"><title>Node13</title>
<g id="a_node28"><a xlink:href="class_group_diffusion.html" target="_top" xlink:title="GroupDiffusion">
<polygon fill="white" stroke="black" points="226.5,-456.5 226.5,-475.5 308.5,-475.5 308.5,-456.5 226.5,-456.5"/>
<text text-anchor="middle" x="267.5" y="-463.5" font-family="Helvetica,sans-Serif" font-size="10.00">GroupDiffusion</text>
</a>
</g>
</g>
<!-- Node28&#45;&gt;Node13 -->
<g id="edge24" class="edge"><title>Node28&#45;&gt;Node13</title>
<path fill="none" stroke="midnightblue" d="M80.4366,-276.583C92.3086,-315.535 124.38,-402.781 184,-447 196.159,-456.018 211.889,-460.856 226.348,-463.416"/>
<polygon fill="midnightblue" stroke="midnightblue" points="83.7271,-275.365 77.5608,-266.75 77.0086,-277.33 83.7271,-275.365"/>
</g>
<!-- Node14 -->
<g id="node29" class="node"><title>Node14</title>
<g id="a_node29"><a xlink:href="class_in_scatter.html" target="_top" xlink:title="InScatter">
<polygon fill="white" stroke="black" points="239.5,-418.5 239.5,-437.5 295.5,-437.5 295.5,-418.5 239.5,-418.5"/>
<text text-anchor="middle" x="267.5" y="-425.5" font-family="Helvetica,sans-Serif" font-size="10.00">InScatter</text>
</a>
</g>
</g>
<!-- Node28&#45;&gt;Node14 -->
<g id="edge25" class="edge"><title>Node28&#45;&gt;Node14</title>
<path fill="none" stroke="midnightblue" d="M83.0905,-276.007C98.0025,-308.633 133.029,-375.055 184,-409 200.393,-419.917 222.228,-424.611 239.317,-426.606"/>
<polygon fill="midnightblue" stroke="midnightblue" points="86.2115,-274.41 78.961,-266.685 79.8114,-277.246 86.2115,-274.41"/>
</g>
<!-- Node31 -->
<g id="node30" class="node"><title>Node31</title>
<g id="a_node30"><a xlink:href="class_i_n_s_momentum_k_epsilon.html" target="_top" xlink:title="INSMomentumKEpsilon">
<polygon fill="white" stroke="black" points="206.5,-0.5 206.5,-19.5 328.5,-19.5 328.5,-0.5 206.5,-0.5"/>
<text text-anchor="middle" x="267.5" y="-7.5" font-family="Helvetica,sans-Serif" font-size="10.00">INSMomentumKEpsilon</text>
</a>
</g>
</g>
<!-- Node28&#45;&gt;Node31 -->
<g id="edge26" class="edge"><title>Node28&#45;&gt;Node31</title>
<path fill="none" stroke="midnightblue" d="M78.4632,-237.283C87.363,-192.756 115.341,-84.0239 184,-29 190.537,-23.7608 198.254,-19.9128 206.3,-17.0961"/>
<polygon fill="midnightblue" stroke="midnightblue" points="74.9742,-236.898 76.5585,-247.374 81.8527,-238.197 74.9742,-236.898"/>
</g>
<!-- Node18 -->
<g id="node31" class="node"><title>Node18</title>
<g id="a_node31"><a xlink:href="class_precursor_decay.html" target="_top" xlink:title="PrecursorDecay">
<polygon fill="white" stroke="black" points="224,-380.5 224,-399.5 311,-399.5 311,-380.5 224,-380.5"/>
<text text-anchor="middle" x="267.5" y="-387.5" font-family="Helvetica,sans-Serif" font-size="10.00">PrecursorDecay</text>
</a>
</g>
</g>
<!-- Node28&#45;&gt;Node18 -->
<g id="edge27" class="edge"><title>Node28&#45;&gt;Node18</title>
<path fill="none" stroke="midnightblue" d="M87.0828,-275.153C105.072,-300.68 141.389,-346.767 184,-371 196.01,-377.83 210.323,-382.206 223.629,-385.009"/>
<polygon fill="midnightblue" stroke="midnightblue" points="89.8581,-273.012 81.3067,-266.757 84.0911,-276.98 89.8581,-273.012"/>
</g>
<!-- Node19 -->
<g id="node32" class="node"><title>Node19</title>
<g id="a_node32"><a xlink:href="class_precursor_source.html" target="_top" xlink:title="PrecursorSource">
<polygon fill="white" stroke="black" points="223,-342.5 223,-361.5 312,-361.5 312,-342.5 223,-342.5"/>
<text text-anchor="middle" x="267.5" y="-349.5" font-family="Helvetica,sans-Serif" font-size="10.00">PrecursorSource</text>
</a>
</g>
</g>
<!-- Node28&#45;&gt;Node19 -->
<g id="edge28" class="edge"><title>Node28&#45;&gt;Node19</title>
<path fill="none" stroke="midnightblue" d="M93.2502,-273.056C113.883,-290.375 149.157,-317.54 184,-333 196.091,-338.365 209.877,-342.306 222.673,-345.161"/>
<polygon fill="midnightblue" stroke="midnightblue" points="95.4713,-270.35 85.5951,-266.515 90.9238,-275.672 95.4713,-270.35"/>
</g>
<!-- Node20 -->
<g id="node33" class="node"><title>Node20</title>
<g id="a_node33"><a xlink:href="class_scalar_advection_art_diff.html" target="_top" xlink:title="ScalarAdvectionArtDiff">
<polygon fill="white" stroke="black" points="209.5,-304.5 209.5,-323.5 325.5,-323.5 325.5,-304.5 209.5,-304.5"/>
<text text-anchor="middle" x="267.5" y="-311.5" font-family="Helvetica,sans-Serif" font-size="10.00">ScalarAdvectionArtDiff</text>
</a>
</g>
</g>
<!-- Node28&#45;&gt;Node20 -->
<g id="edge29" class="edge"><title>Node28&#45;&gt;Node20</title>
<path fill="none" stroke="midnightblue" d="M105.726,-268.72C127.406,-276.74 157.238,-287.278 184,-295 195.862,-298.423 208.822,-301.645 220.883,-304.43"/>
<polygon fill="midnightblue" stroke="midnightblue" points="106.676,-265.339 96.0834,-265.12 104.228,-271.896 106.676,-265.339"/>
</g>
<!-- Node22 -->
<g id="node34" class="node"><title>Node22</title>
<g id="a_node34"><a xlink:href="class_sigma_r.html" target="_top" xlink:title="SigmaR">
<polygon fill="white" stroke="black" points="241.5,-266.5 241.5,-285.5 293.5,-285.5 293.5,-266.5 241.5,-266.5"/>
<text text-anchor="middle" x="267.5" y="-273.5" font-family="Helvetica,sans-Serif" font-size="10.00">SigmaR</text>
</a>
</g>
</g>
<!-- Node28&#45;&gt;Node22 -->
<g id="edge30" class="edge"><title>Node28&#45;&gt;Node22</title>
<path fill="none" stroke="midnightblue" d="M106.624,-260.138C144.331,-263.879 206.592,-270.056 241.242,-273.494"/>
<polygon fill="midnightblue" stroke="midnightblue" points="106.522,-256.61 96.2255,-259.106 105.831,-263.576 106.522,-256.61"/>
</g>
<!-- Node23 -->
<g id="node35" class="node"><title>Node23</title>
<g id="a_node35"><a xlink:href="class_transient_fission_heat_source.html" target="_top" xlink:title="TransientFissionHeatSource">
<polygon fill="white" stroke="black" points="197.5,-228.5 197.5,-247.5 337.5,-247.5 337.5,-228.5 197.5,-228.5"/>
<text text-anchor="middle" x="267.5" y="-235.5" font-family="Helvetica,sans-Serif" font-size="10.00">TransientFissionHeatSource</text>
</a>
</g>
</g>
<!-- Node28&#45;&gt;Node23 -->
<g id="edge31" class="edge"><title>Node28&#45;&gt;Node23</title>
<path fill="none" stroke="midnightblue" d="M106.431,-253.881C131.094,-251.434 166.347,-247.937 197.495,-244.846"/>
<polygon fill="midnightblue" stroke="midnightblue" points="105.831,-250.424 96.2255,-254.894 106.522,-257.39 105.831,-250.424"/>
</g>
<!-- Node25 -->
<g id="node36" class="node"><title>Node25</title>
<polygon fill="white" stroke="#bfbfbf" points="14.5,-1034.5 14.5,-1053.5 133.5,-1053.5 133.5,-1034.5 14.5,-1034.5"/>
<text text-anchor="middle" x="74" y="-1041.5" font-family="Helvetica,sans-Serif" font-size="10.00">MooseVariableInterface</text>
</g>
<!-- Node25&#45;&gt;Node15 -->
<g id="edge32" class="edge"><title>Node25&#45;&gt;Node15</title>
<path fill="none" stroke="midnightblue" d="M105.441,-1030.14C132.081,-1018.15 168.826,-1001.97 184,-997 195.034,-993.384 207.114,-990.19 218.544,-987.502"/>
<polygon fill="midnightblue" stroke="midnightblue" points="103.814,-1027.03 96.1419,-1034.34 106.696,-1033.41 103.814,-1027.03"/>
</g>
<!-- Node25&#45;&gt;Node16 -->
<g id="edge33" class="edge"><title>Node25&#45;&gt;Node16</title>
<path fill="none" stroke="midnightblue" d="M144.071,-1047.61C157.786,-1048.32 172.296,-1049.08 186.345,-1049.81"/>
<polygon fill="midnightblue" stroke="midnightblue" points="143.927,-1044.09 133.758,-1047.07 143.562,-1051.09 143.927,-1044.09"/>
</g>
<!-- Node3 -->
<g id="node37" class="node"><title>Node3</title>
<g id="a_node37"><a xlink:href="class_scalar_transport_base.html" target="_top" xlink:title="ScalarTransportBase">
<polygon fill="white" stroke="black" points="20,-475.5 20,-494.5 128,-494.5 128,-475.5 20,-475.5"/>
<text text-anchor="middle" x="74" y="-482.5" font-family="Helvetica,sans-Serif" font-size="10.00">ScalarTransportBase</text>
</a>
</g>
</g>
<!-- Node3&#45;&gt;Node4 -->
<g id="edge34" class="edge"><title>Node3&#45;&gt;Node4</title>
<path fill="none" stroke="midnightblue" d="M82.031,-504.234C96.7408,-545.285 130.819,-644.771 148,-731 162.933,-805.947 133.343,-1015.78 184,-1073 188.189,-1077.73 193.299,-1081.41 198.902,-1084.26"/>
<polygon fill="midnightblue" stroke="midnightblue" points="85.2685,-502.895 78.5774,-494.68 78.6854,-505.275 85.2685,-502.895"/>
</g>
<!-- Node3&#45;&gt;Node10 -->
<g id="edge40" class="edge"><title>Node3&#45;&gt;Node10</title>
<path fill="none" stroke="midnightblue" d="M80.7494,-504.456C102.776,-578.938 180.724,-841.938 184,-845 188.081,-848.814 192.768,-851.914 197.791,-854.428"/>
<polygon fill="midnightblue" stroke="midnightblue" points="84.0085,-503.134 77.8169,-494.537 77.2957,-505.119 84.0085,-503.134"/>
</g>
<!-- Node3&#45;&gt;Node15 -->
<g id="edge43" class="edge"><title>Node3&#45;&gt;Node15</title>
<path fill="none" stroke="midnightblue" d="M81.6809,-504.309C95.7219,-545.502 128.595,-645.245 148,-731 159.321,-781.029 149.016,-921.487 184,-959 187.508,-962.762 191.6,-965.851 196.049,-968.38"/>
<polygon fill="midnightblue" stroke="midnightblue" points="84.9469,-503.043 78.3909,-494.72 78.3258,-505.315 84.9469,-503.043"/>
</g>
<!-- Node3&#45;&gt;Node16 -->
<g id="edge44" class="edge"><title>Node3&#45;&gt;Node16</title>
<path fill="none" stroke="midnightblue" d="M81.9428,-504.252C96.4843,-545.337 130.259,-644.885 148,-731 161.726,-797.628 138.576,-984.36 184,-1035 187.337,-1038.72 191.243,-1041.79 195.507,-1044.31"/>
<polygon fill="midnightblue" stroke="midnightblue" points="85.1879,-502.932 78.5304,-494.69 78.5951,-505.284 85.1879,-502.932"/>
</g>
<!-- Node3&#45;&gt;Node7 -->
<g id="edge37" class="edge"><title>Node3&#45;&gt;Node7</title>
<path fill="none" stroke="midnightblue" d="M79.4309,-504.687C89.8806,-546.366 120.138,-643.719 184,-693 189.004,-696.861 194.654,-699.961 200.592,-702.447"/>
<polygon fill="midnightblue" stroke="midnightblue" points="82.7744,-503.619 77.0456,-494.707 75.9662,-505.247 82.7744,-503.619"/>
</g>
<!-- Node3&#45;&gt;Node17 -->
<g id="edge45" class="edge"><title>Node3&#45;&gt;Node17</title>
<path fill="none" stroke="midnightblue" d="M81.6852,-504.226C95.1242,-539.898 128.925,-616.22 184,-655 189.889,-659.146 196.545,-662.402 203.461,-664.955"/>
<polygon fill="midnightblue" stroke="midnightblue" points="84.8728,-502.75 78.1673,-494.547 78.2939,-505.141 84.8728,-502.75"/>
</g>
<!-- Node3&#45;&gt;Node21 -->
<g id="edge49" class="edge"><title>Node3&#45;&gt;Node21</title>
<path fill="none" stroke="midnightblue" d="M85.1448,-503.925C101.765,-533.015 137.636,-588.353 184,-617 190.252,-620.863 197.209,-623.941 204.357,-626.395"/>
<polygon fill="midnightblue" stroke="midnightblue" points="88.0001,-501.857 80.0832,-494.816 81.8813,-505.257 88.0001,-501.857"/>
</g>
<!-- Node3&#45;&gt;Node24 -->
<g id="edge54" class="edge"><title>Node3&#45;&gt;Node24</title>
<path fill="none" stroke="midnightblue" d="M90.0713,-502.39C109.573,-523.756 145.628,-559.556 184,-579 195.8,-584.979 209.499,-589.102 222.305,-591.936"/>
<polygon fill="midnightblue" stroke="midnightblue" points="92.4867,-499.84 83.2133,-494.716 87.2673,-504.505 92.4867,-499.84"/>
</g>
<!-- Node3&#45;&gt;Node5 -->
<g id="edge35" class="edge"><title>Node3&#45;&gt;Node5</title>
<path fill="none" stroke="midnightblue" d="M81.6831,-465.881C102.152,-407.771 163.812,-236.147 184,-219 191.73,-212.435 201.286,-208.028 211.123,-205.094"/>
<polygon fill="midnightblue" stroke="midnightblue" points="78.3698,-464.753 78.3598,-475.348 84.9746,-467.072 78.3698,-464.753"/>
</g>
<!-- Node3&#45;&gt;Node6 -->
<g id="edge36" class="edge"><title>Node3&#45;&gt;Node6</title>
<path fill="none" stroke="midnightblue" d="M81.7979,-465.655C105.202,-399.103 181.165,-183.519 184,-181 190.153,-175.533 197.562,-171.549 205.382,-168.66"/>
<polygon fill="midnightblue" stroke="midnightblue" points="78.4142,-464.727 78.3996,-475.322 85.018,-467.049 78.4142,-464.727"/>
</g>
<!-- Node3&#45;&gt;Node8 -->
<g id="edge38" class="edge"><title>Node3&#45;&gt;Node8</title>
<path fill="none" stroke="midnightblue" d="M82.1118,-466.105C95.7275,-429.627 126.071,-346.844 148,-276 166.108,-217.5 139.883,-185.472 184,-143 190.777,-136.476 199.321,-132.027 208.326,-129.022"/>
<polygon fill="midnightblue" stroke="midnightblue" points="78.8237,-464.906 78.5929,-475.498 85.3788,-467.362 78.8237,-464.906"/>
</g>
<!-- Node3&#45;&gt;Node9 -->
<g id="edge39" class="edge"><title>Node3&#45;&gt;Node9</title>
<path fill="none" stroke="midnightblue" d="M138.353,-491.286C154.303,-492.868 171.613,-494.586 188.2,-496.231"/>
<polygon fill="midnightblue" stroke="midnightblue" points="138.386,-487.772 128.089,-490.267 137.695,-494.738 138.386,-487.772"/>
</g>
<!-- Node3&#45;&gt;Node13 -->
<g id="edge41" class="edge"><title>Node3&#45;&gt;Node13</title>
<path fill="none" stroke="midnightblue" d="M138.162,-478.733C167.234,-475.849 200.858,-472.513 226.394,-469.979"/>
<polygon fill="midnightblue" stroke="midnightblue" points="137.695,-475.262 128.089,-479.733 138.386,-482.228 137.695,-475.262"/>
</g>
<!-- Node3&#45;&gt;Node14 -->
<g id="edge42" class="edge"><title>Node3&#45;&gt;Node14</title>
<path fill="none" stroke="midnightblue" d="M109.436,-471.913C130.731,-464.091 158.734,-454.29 184,-447 202.217,-441.744 223.023,-436.96 239.184,-433.508"/>
<polygon fill="midnightblue" stroke="midnightblue" points="108.02,-468.705 99.8605,-475.462 110.454,-475.268 108.02,-468.705"/>
</g>
<!-- Node3&#45;&gt;Node18 -->
<g id="edge46" class="edge"><title>Node3&#45;&gt;Node18</title>
<path fill="none" stroke="midnightblue" d="M93.2502,-468.944C113.883,-451.625 149.157,-424.46 184,-409 196.494,-403.456 210.798,-399.433 223.949,-396.557"/>
<polygon fill="midnightblue" stroke="midnightblue" points="90.9238,-466.328 85.5951,-475.485 95.4713,-471.65 90.9238,-466.328"/>
</g>
<!-- Node3&#45;&gt;Node19 -->
<g id="edge47" class="edge"><title>Node3&#45;&gt;Node19</title>
<path fill="none" stroke="midnightblue" d="M87.0828,-466.847C105.072,-441.32 141.389,-395.233 184,-371 195.754,-364.315 209.715,-359.981 222.778,-357.172"/>
<polygon fill="midnightblue" stroke="midnightblue" points="84.0911,-465.02 81.3067,-475.243 89.8581,-468.988 84.0911,-465.02"/>
</g>
<!-- Node3&#45;&gt;Node20 -->
<g id="edge48" class="edge"><title>Node3&#45;&gt;Node20</title>
<path fill="none" stroke="midnightblue" d="M83.0905,-465.993C98.0025,-433.367 133.029,-366.945 184,-333 191.585,-327.949 200.334,-324.23 209.24,-321.494"/>
<polygon fill="midnightblue" stroke="midnightblue" points="79.8114,-464.754 78.961,-475.315 86.2115,-467.59 79.8114,-464.754"/>
</g>
<!-- Node3&#45;&gt;Node22 -->
<g id="edge52" class="edge"><title>Node3&#45;&gt;Node22</title>
<path fill="none" stroke="midnightblue" d="M80.4366,-465.417C92.3086,-426.465 124.38,-339.219 184,-295 200.527,-282.742 223.651,-278.209 241.214,-276.617"/>
<polygon fill="midnightblue" stroke="midnightblue" points="77.0086,-464.67 77.5608,-475.25 83.7271,-466.635 77.0086,-464.67"/>
</g>
<!-- Node3&#45;&gt;Node23 -->
<g id="edge53" class="edge"><title>Node3&#45;&gt;Node23</title>
<path fill="none" stroke="midnightblue" d="M78.4632,-465.283C87.363,-420.756 115.341,-312.024 184,-257 188.817,-253.14 194.274,-250.034 200.032,-247.541"/>
<polygon fill="midnightblue" stroke="midnightblue" points="74.9742,-464.898 76.5585,-475.374 81.8527,-466.197 74.9742,-464.898"/>
</g>
<!-- Node0 -->
<g id="node38" class="node"><title>Node0</title>
<g id="a_node38"><a xlink:href="class_scalar_transport_time_derivative.html" target="_top" xlink:title="TimeKernel">
<polygon fill="white" stroke="#bfbfbf" points="234.5,-532.5 234.5,-551.5 300.5,-551.5 300.5,-532.5 234.5,-532.5"/>
<text text-anchor="middle" x="267.5" y="-539.5" font-family="Helvetica,sans-Serif" font-size="10.00">TimeKernel</text>
</a>
</g>
</g>
<!-- Node3&#45;&gt;Node0 -->
<g id="edge50" class="edge"><title>Node3&#45;&gt;Node0</title>
<path fill="none" stroke="midnightblue" d="M109.436,-498.087C130.731,-505.909 158.734,-515.71 184,-523 200.381,-527.727 218.856,-532.071 234.164,-535.409"/>
<polygon fill="midnightblue" stroke="midnightblue" points="110.454,-494.732 99.8605,-494.538 108.02,-501.295 110.454,-494.732"/>
</g>
<!-- Node0&#45;&gt;Node0 -->
<g id="edge55" class="edge"><title>Node0&#45;&gt;Node0</title>
<path fill="none" stroke="midnightblue" d="M231.5,-559.504C231.506,-565.336 243.506,-570 267.5,-570 301.625,-570 311.489,-560.565 297.093,-551.757"/>
<polygon fill="midnightblue" stroke="midnightblue" points="234.231,-561.694 237.907,-551.757 228.837,-557.232 234.231,-561.694"/>
</g>
<!-- Node1 -->
<g id="node39" class="node"><title>Node1</title>
<g id="a_node39"><a xlink:href="class_nt_time_derivative.html" target="_top" xlink:title="NtTimeDerivative">
<polygon fill="white" stroke="black" points="427,-532.5 427,-551.5 520,-551.5 520,-532.5 427,-532.5"/>
<text text-anchor="middle" x="473.5" y="-539.5" font-family="Helvetica,sans-Serif" font-size="10.00">NtTimeDerivative</text>
</a>
</g>
</g>
<!-- Node0&#45;&gt;Node1 -->
<g id="edge51" class="edge"><title>Node0&#45;&gt;Node1</title>
<path fill="none" stroke="midnightblue" d="M310.858,-542C344.675,-542 391.975,-542 426.673,-542"/>
<polygon fill="midnightblue" stroke="midnightblue" points="310.824,-538.5 300.824,-542 310.824,-545.5 310.824,-538.5"/>
</g>
</g>
</svg>
