<?xml version="1.0" encoding="UTF-8" standalone="no"?>
<!DOCTYPE svg PUBLIC "-//W3C//DTD SVG 1.1//EN"
 "http://www.w3.org/Graphics/SVG/1.1/DTD/svg11.dtd">
<!-- Generated by graphviz version 2.38.0 (20140413.2041)
 -->
<!-- Title: Graphical Class Hierarchy Pages: 1 -->
<svg width="414pt" height="66pt"
 viewBox="0.00 0.00 414.00 66.00" xmlns="http://www.w3.org/2000/svg" xmlns:xlink="http://www.w3.org/1999/xlink">
<g id="graph0" class="graph" transform="scale(1 1) rotate(0) translate(4 62)">
<title>Graphical Class Hierarchy</title>
<polygon fill="white" stroke="none" points="-4,4 -4,-62 410,-62 410,4 -4,4"/>
<!-- Node38 -->
<g id="node1" class="node"><title>Node38</title>
<polygon fill="white" stroke="#bfbfbf" points="0,-19.5 0,-38.5 125,-38.5 125,-19.5 0,-19.5"/>
<text text-anchor="middle" x="62.5" y="-26.5" font-family="Helvetica,sans-Serif" font-size="10.00">GenericConstantMaterial</text>
</g>
<!-- Node0 -->
<g id="node2" class="node"><title>Node0</title>
<g id="a_node2"><a xlink:href="class_generic_moltres_material.html" target="_top" xlink:title="GenericMoltresMaterial">
<polygon fill="white" stroke="black" points="161,-19.5 161,-38.5 278,-38.5 278,-19.5 161,-19.5"/>
<text text-anchor="middle" x="219.5" y="-26.5" font-family="Helvetica,sans-Serif" font-size="10.00">GenericMoltresMaterial</text>
</a>
</g>
</g>
<!-- Node38&#45;&gt;Node0 -->
<g id="edge1" class="edge"><title>Node38&#45;&gt;Node0</title>
<path fill="none" stroke="midnightblue" d="M135.481,-29C143.963,-29 152.534,-29 160.785,-29"/>
<polygon fill="midnightblue" stroke="midnightblue" points="135.206,-25.5001 125.205,-29 135.205,-32.5001 135.206,-25.5001"/>
</g>
<!-- Node1 -->
<g id="node3" class="node"><title>Node1</title>
<g id="a_node3"><a xlink:href="class_cammi_fuel.html" target="_top" xlink:title="CammiFuel">
<polygon fill="white" stroke="black" points="326.5,-38.5 326.5,-57.5 393.5,-57.5 393.5,-38.5 326.5,-38.5"/>
<text text-anchor="middle" x="360" y="-45.5" font-family="Helvetica,sans-Serif" font-size="10.00">CammiFuel</text>
</a>
</g>
</g>
<!-- Node0&#45;&gt;Node1 -->
<g id="edge2" class="edge"><title>Node0&#45;&gt;Node1</title>
<path fill="none" stroke="midnightblue" d="M288.168,-38.283C301.484,-40.1097 314.878,-41.9471 326.379,-43.5249"/>
<polygon fill="midnightblue" stroke="midnightblue" points="288.416,-34.7843 278.033,-36.8926 287.465,-41.7194 288.416,-34.7843"/>
</g>
<!-- Node2 -->
<g id="node4" class="node"><title>Node2</title>
<g id="a_node4"><a xlink:href="class_cammi_moderator.html" target="_top" xlink:title="CammiModerator">
<polygon fill="white" stroke="black" points="314,-0.5 314,-19.5 406,-19.5 406,-0.5 314,-0.5"/>
<text text-anchor="middle" x="360" y="-7.5" font-family="Helvetica,sans-Serif" font-size="10.00">CammiModerator</text>
</a>
</g>
</g>
<!-- Node0&#45;&gt;Node2 -->
<g id="edge3" class="edge"><title>Node0&#45;&gt;Node2</title>
<path fill="none" stroke="midnightblue" d="M288.147,-19.7199C296.803,-18.5325 305.492,-17.3404 313.674,-16.218"/>
<polygon fill="midnightblue" stroke="midnightblue" points="287.465,-16.2806 278.033,-21.1074 288.416,-23.2157 287.465,-16.2806"/>
</g>
</g>
</svg>
