<?xml version="1.0" encoding="UTF-8" standalone="no"?>
<!DOCTYPE svg PUBLIC "-//W3C//DTD SVG 1.1//EN"
 "http://www.w3.org/Graphics/SVG/1.1/DTD/svg11.dtd">
<!-- Generated by graphviz version 2.43.0 (0)
 -->
<!-- Title: src/main.C Pages: 1 -->
<svg width="370pt" height="140pt"
 viewBox="0.00 0.00 370.00 140.00" xmlns="http://www.w3.org/2000/svg" xmlns:xlink="http://www.w3.org/1999/xlink">
<g id="graph0" class="graph" transform="scale(1 1) rotate(0) translate(4 136)">
<title>src/main.C</title>
<polygon fill="white" stroke="transparent" points="-4,4 -4,-136 366,-136 366,4 -4,4"/>
<!-- Node1 -->
<g id="node1" class="node">
<title>Node1</title>
<g id="a_node1"><a xlink:title=" ">
<polygon fill="#bfbfbf" stroke="black" points="131.5,-112.5 131.5,-131.5 196.5,-131.5 196.5,-112.5 131.5,-112.5"/>
<text text-anchor="middle" x="164" y="-119.5" font-family="Helvetica,sans-Serif" font-size="10.00">src/main.C</text>
</a>
</g>
</g>
<!-- Node2 -->
<g id="node2" class="node">
<title>Node2</title>
<g id="a_node2"><a xlink:href="_moltres_app_8h.html" target="_top" xlink:title=" ">
<polygon fill="white" stroke="black" points="0,-56.5 0,-75.5 74,-75.5 74,-56.5 0,-56.5"/>
<text text-anchor="middle" x="37" y="-63.5" font-family="Helvetica,sans-Serif" font-size="10.00">MoltresApp.h</text>
</a>
</g>
</g>
<!-- Node1&#45;&gt;Node2 -->
<g id="edge1" class="edge">
<title>Node1&#45;&gt;Node2</title>
<path fill="none" stroke="midnightblue" d="M143.88,-112.44C122.98,-103.56 90.07,-89.56 66.28,-79.45"/>
<polygon fill="midnightblue" stroke="midnightblue" points="67.6,-76.21 57.03,-75.52 64.86,-82.65 67.6,-76.21"/>
</g>
<!-- Node3 -->
<g id="node3" class="node">
<title>Node3</title>
<g id="a_node3"><a xlink:title=" ">
<polygon fill="white" stroke="#bfbfbf" points="33.5,-0.5 33.5,-19.5 104.5,-19.5 104.5,-0.5 33.5,-0.5"/>
<text text-anchor="middle" x="69" y="-7.5" font-family="Helvetica,sans-Serif" font-size="10.00">MooseApp.h</text>
</a>
</g>
</g>
<!-- Node1&#45;&gt;Node3 -->
<g id="edge5" class="edge">
<title>Node1&#45;&gt;Node3</title>
<path fill="none" stroke="midnightblue" d="M155.2,-112.25C146.33,-103.34 132.38,-89.01 121,-76 107.08,-60.09 92.1,-41.15 81.8,-27.83"/>
<polygon fill="midnightblue" stroke="midnightblue" points="84.36,-25.41 75.5,-19.61 78.81,-29.67 84.36,-25.41"/>
</g>
<!-- Node4 -->
<g id="node4" class="node">
<title>Node4</title>
<g id="a_node4"><a xlink:title=" ">
<polygon fill="white" stroke="#bfbfbf" points="130,-56.5 130,-75.5 198,-75.5 198,-56.5 130,-56.5"/>
<text text-anchor="middle" x="164" y="-63.5" font-family="Helvetica,sans-Serif" font-size="10.00">MooseInit.h</text>
</a>
</g>
</g>
<!-- Node1&#45;&gt;Node4 -->
<g id="edge3" class="edge">
<title>Node1&#45;&gt;Node4</title>
<path fill="none" stroke="midnightblue" d="M164,-112.08C164,-105.01 164,-94.86 164,-85.99"/>
<polygon fill="midnightblue" stroke="midnightblue" points="167.5,-85.75 164,-75.75 160.5,-85.75 167.5,-85.75"/>
</g>
<!-- Node5 -->
<g id="node5" class="node">
<title>Node5</title>
<g id="a_node5"><a xlink:title=" ">
<polygon fill="white" stroke="#bfbfbf" points="216,-56.5 216,-75.5 270,-75.5 270,-56.5 216,-56.5"/>
<text text-anchor="middle" x="243" y="-63.5" font-family="Helvetica,sans-Serif" font-size="10.00">Moose.h</text>
</a>
</g>
</g>
<!-- Node1&#45;&gt;Node5 -->
<g id="edge4" class="edge">
<title>Node1&#45;&gt;Node5</title>
<path fill="none" stroke="midnightblue" d="M176.69,-112.32C188.9,-103.98 207.58,-91.21 222,-81.35"/>
<polygon fill="midnightblue" stroke="midnightblue" points="224.06,-84.19 230.34,-75.65 220.11,-78.41 224.06,-84.19"/>
</g>
<!-- Node6 -->
<g id="node6" class="node">
<title>Node6</title>
<g id="a_node6"><a xlink:title=" ">
<polygon fill="white" stroke="#bfbfbf" points="288,-56.5 288,-75.5 362,-75.5 362,-56.5 288,-56.5"/>
<text text-anchor="middle" x="325" y="-63.5" font-family="Helvetica,sans-Serif" font-size="10.00">AppFactory.h</text>
</a>
</g>
</g>
<!-- Node1&#45;&gt;Node6 -->
<g id="edge6" class="edge">
<title>Node1&#45;&gt;Node6</title>
<path fill="none" stroke="midnightblue" d="M189.51,-112.44C216.6,-103.36 259.59,-88.94 289.87,-78.78"/>
<polygon fill="midnightblue" stroke="midnightblue" points="291.24,-82.01 299.61,-75.52 289.01,-75.38 291.24,-82.01"/>
</g>
<!-- Node2&#45;&gt;Node3 -->
<g id="edge2" class="edge">
<title>Node2&#45;&gt;Node3</title>
<path fill="none" stroke="midnightblue" d="M42.28,-56.08C46.71,-48.61 53.16,-37.72 58.62,-28.52"/>
<polygon fill="midnightblue" stroke="midnightblue" points="61.73,-30.14 63.81,-19.75 55.71,-26.57 61.73,-30.14"/>
</g>
</g>
</svg>
